<?xml version="1.0" standalone="no"?>
<!DOCTYPE svg PUBLIC "-//W3C//DTD SVG 1.1//EN" "http://www.w3.org/Graphics/SVG/1.1/DTD/svg11.dtd" >
<svg xmlns="http://www.w3.org/2000/svg" xmlns:xlink="http://www.w3.org/1999/xlink" version="1.1">
<metadata>
Created by FontForge 20170731 at Tue Aug 28 16:16:23 2018
 By Aleksey,,,
Copyright (c) 2018 Commercial Type, Inc.. All rights reserved.
</metadata>
<defs>
<font id="SchnyderWideSLight" horiz-adv-x="770" >
  <font-face 
    font-family="Schnyder Wide S Light"
    font-weight="300"
    font-stretch="normal"
    units-per-em="1000"
    panose-1="0 0 0 0 0 0 0 0 0 0"
    ascent="800"
    descent="-200"
    x-height="474"
    cap-height="751"
    bbox="-98 -300 1172 1065"
    underline-thickness="16"
    underline-position="-128"
    unicode-range="U+000D-FB04"
  />
<missing-glyph horiz-adv-x="227" 
 />
    <glyph glyph-name="f_f" unicode="ff" horiz-adv-x="527" 
d="M279 13l-7 -4q18 7 26 13q10 8 14 24t6 44q1 18 1 72v291h-169v-291q0 -36 2 -72q1 -26 9 -43t22 -24q13 -6 41 -13v-13h-196v13q18 7 26 13q10 8 14 24t6 44q1 18 1 72v291h-61v14q20 5 31 10q12 6 19 16t10 27t3 44v6q0 52 15 88q15 37 39 59t54 33q31 11 62 11
q45 0 72 -15q28 -15 32 -39q20 32 50 47t60 15q39 0 66 -15t27 -40q0 -12 -7 -22t-24 -10q-20 0 -26 8q-5 7 -10 24q-6 26 -12 32t-21 6q-26 0 -40 -24q-13 -23 -13 -93v-161h113v-19h-113v-291q0 -36 2 -72q1 -26 9 -43t22 -24q13 -6 41 -13v-13h-196v13zM318 471l-1 115
q0 44 11 80q-1 -1 -9 -1q-19 0 -27 9q-7 9 -12 26q-6 22 -12 33t-30 11q-19 0 -34 -7q-18 -8 -29 -25t-19 -48q-7 -28 -7 -75v-118h169z" />
    <glyph glyph-name="f_i" unicode="fi" horiz-adv-x="489" 
d="M32 13l-6 -3q18 7 26 13q10 8 14 24t6 44q1 18 1 72v291h-61v14q22 5 32 10q13 6 20 18q7 11 10 30q3 18 3 47v20q0 50 12 83q12 32 32 54q19 21 44 30q24 9 48 9q39 0 66 -15t27 -40q0 -12 -7 -22t-24 -10q-20 0 -26 8q-5 7 -10 24q-6 26 -12 32t-21 6q-26 0 -40 -24
q-13 -23 -13 -93v-161h114l134 7v-317q0 -54 1 -72q1 -26 6 -43q4 -17 15 -24q9 -7 30 -13v-13h-183v13q21 6 30 13q10 7 15 24q4 16 6 44q1 18 1 72v188q0 41 -1 54q-2 21 -7 30q-6 11 -16 14q-13 4 -30 5h-114v-291q0 -36 2 -72q1 -26 9 -43t22 -24q13 -6 41 -13v-13h-196
v13zM355 568v-1q-19 0 -33 14t-14 33t14 33t33 14q20 0 33 -13q14 -14 14 -33t-14 -33t-33 -14z" />
    <glyph glyph-name="f_l" unicode="fl" horiz-adv-x="489" 
d="M32 13l-3 -2q18 7 26 13q10 8 14 24t6 44q1 18 1 72v291h-61v14q37 7 51 27q13 19 13 67v18q0 53 15 89q14 34 38 58q22 22 50 31q27 9 53 9q47 0 71 -18t24 -45q0 -10 -6 -19t-23 -9t-24 9q-6 8 -13 29q-8 23 -15 29t-22 6q-31 0 -52 -27t-21 -99v-149h100v-19h-100
v-291q0 -36 2 -72q1 -26 9 -43t22 -24q13 -6 41 -13v-13h-196v13zM270 11l-2 -1q21 6 30 13q10 7 15 24q4 16 6 44q1 18 1 72v415v70q0 25 -5 38q-5 12 -15 15q-8 2 -32 4v16l133 59v-617q0 -54 1 -72q1 -26 6 -43q4 -16 15 -24q9 -7 30 -13v-13h-183v13z" />
    <glyph glyph-name="f_f_i" unicode="ffi" horiz-adv-x="736" 
d="M32 13l-8 -6q18 7 26 13q10 8 14 24t6 44q1 18 1 72v291h-61v14q20 5 31 10q12 6 19 16t10 28t3 45v5q0 52 15 88q15 37 39 59t54 33q31 11 62 11q45 0 72 -15q28 -15 32 -39q20 32 50 47t60 15q39 0 66 -15t27 -40q0 -12 -7 -22t-24 -10q-20 0 -26 8q-5 7 -10 24
q-6 26 -12 32t-21 6q-26 0 -40 -24q-13 -23 -13 -93v-161h114l134 7v-317q0 -54 1 -72q1 -26 6 -43q4 -16 15 -24q9 -7 30 -13v-13h-183v13q21 6 30 13q10 8 15 24q4 16 6 44q1 18 1 72v188q0 41 -1 54q-2 21 -7 30q-6 11 -16 14q-13 4 -30 5h-114v-291q0 -36 2 -72
q1 -26 9 -43t22 -24q13 -6 41 -13v-13h-196v13q18 7 26 13q10 8 14 24t6 44q1 18 1 72v291h-169v-291q0 -36 2 -72q1 -26 9 -43t22 -24q13 -6 41 -13v-13h-196v13zM317 469l-1 115q0 44 11 80q-1 -1 -9 -1q-20 0 -27 9t-12 26q-6 22 -12 33t-30 11q-19 0 -34 -7
q-18 -8 -29 -25t-19 -48q-7 -28 -7 -75v-118h169zM599 565v-1q-19 0 -33 14t-14 33t14 33t33 14q20 0 33 -13q14 -14 14 -33t-14 -33t-33 -14z" />
    <glyph glyph-name="f_f_l" unicode="ffl" horiz-adv-x="736" 
d="M279 13l-5 -3q18 7 26 13q10 8 14 24t6 44q1 18 1 72v291h-169v-291q0 -36 2 -72q1 -26 9 -43t22 -24q13 -6 41 -13v-13h-196v13q18 7 26 13q10 8 14 24t6 44q1 18 1 72v291h-61v14q20 5 31 10q12 6 19 16t10 28t3 46v4q0 52 15 88q15 37 39 59t56 33q33 11 64 11
q45 0 73 -15t34 -39q25 34 57 47q34 14 65 14q47 0 71 -18t24 -45q0 -10 -6 -19t-23 -9q-16 0 -24 9q-6 8 -13 29q-8 23 -15 29q-8 6 -22 6q-31 0 -52 -27t-21 -99v-152h100v-19h-100v-291q0 -36 2 -72q1 -26 9 -43t22 -24q13 -6 41 -13v-13h-196v13zM320 472l-2 106
q0 49 14 86h-7q-19 0 -27 9q-7 9 -12 26q-6 25 -12 35q-6 11 -32 11q-21 0 -36 -7q-18 -8 -29 -25t-19 -48q-7 -28 -7 -75v-118h169zM513 10l-2 -1q21 6 30 13q11 8 15 24t6 44q1 18 1 72v415v70q0 25 -5 38q-4 12 -15 15q-8 2 -32 4v16l133 59v-617q0 -54 1 -72
q1 -26 6 -43t15 -24q9 -7 30 -13v-13h-183v13z" />
    <glyph glyph-name="f_b" unicode="fb" horiz-adv-x="846" 
d="M32 13l-3 -2q18 7 26 13q10 8 14 24t6 44q1 18 1 72v291h-61v14q37 7 51 27q13 19 13 67v21q0 53 15 89q14 34 38 58q22 21 50 31q27 9 53 9q47 0 71 -18t24 -45q0 -10 -6 -19t-23 -9t-24 9q-6 8 -13 29q-8 23 -15 29t-22 6q-31 0 -52 -27t-21 -99v-152h100v-19h-100
v-291q0 -36 2 -72q1 -26 9 -43t22 -24q13 -6 41 -13v-13h-196v13zM537 -13l-9 1q-36 0 -63 6q-23 5 -48 14l-20 7.5t-17 6.5q-16 6 -28 6q-10 0 -15 -6q-4 -6 -6 -11h-15v571v67q0 23 -5 35q-5 11 -15 14q-8 2 -30 4v16l130 63v-411l24 26q34 38 78 63q43 25 93 25
q41 0 78 -15t67 -45t48 -75t18 -103q0 -61 -21 -109t-57 -81t-84 -51t-103 -18zM423 28l-4 1q21 -11 47 -17q27 -6 59 -6q34 0 67 9t59 35q25 26 42 69q16 42 16 113q0 79 -13 122q-14 46 -34 69q-21 24 -46 31q-24 7 -49 7q-46 0 -81 -25q-37 -27 -71 -63l-24 -26v-253
q0 -22 6 -39q6 -16 26 -27z" />
    <glyph glyph-name="f_f_b" unicode="ffb" horiz-adv-x="1093" 
d="M279 13l-5 -4q18 7 26 13q10 8 14 24t6 44q1 18 1 72v291h-169v-291q0 -36 2 -72q1 -26 9 -43t22 -24q13 -6 41 -13v-13h-196v13q18 7 26 13q10 8 14 24t6 44q1 18 1 72v291h-61v14q20 5 31 10t19 17q7 9 10 29q3 18 3 46v3q0 52 15 88q15 37 39 59t56 33q33 11 64 11
q45 0 73 -15t34 -39q25 34 57 47q34 14 65 14q47 0 71 -18t24 -45q0 -10 -6 -19t-23 -9q-16 0 -24 9q-6 8 -13 29q-8 23 -15 29q-8 6 -22 6q-31 0 -52 -27t-21 -99v-152h100v-19h-100v-291q0 -36 2 -72q1 -26 9 -43t22 -24q13 -6 41 -13v-13h-196v13zM320 471l-2 106
q0 49 14 86h-7q-19 0 -27 9q-7 9 -12 26q-6 25 -12 35q-6 11 -32 11q-21 0 -36 -7q-18 -8 -29 -25t-19 -48q-7 -28 -7 -75v-118h169zM780 -15l-9 1q-36 0 -63 6q-23 5 -48 14l-20 7.5t-17 6.5q-17 6 -28 6t-15 -6t-6 -11h-15v571v67q0 23 -5 35q-5 11 -15 14q-8 2 -30 4v16
l130 63v-411l24 26q35 38 78 63t93 25q40 0 78 -15q37 -15 67 -45t48 -75t18 -103q0 -61 -21 -109t-57 -81t-84 -51t-103 -18zM666 26l-4 1q21 -11 47 -17q27 -6 59 -6q34 0 67 9t59 35t42 69q16 42 16 113q0 79 -13 122q-14 46 -34 69q-21 24 -46 31q-24 7 -49 7
q-46 0 -81 -25q-37 -27 -71 -63l-24 -26v-253q0 -22 6 -39q6 -16 26 -27z" />
    <glyph glyph-name="f_f_h" unicode="ffh" horiz-adv-x="1071" 
d="M279 13l-5 -4q18 7 26 13q10 8 14 24t6 44q1 18 1 72v291h-169v-291q0 -36 2 -72q1 -26 9 -43t22 -24q13 -6 41 -13v-13h-196v13q18 7 26 13q10 8 14 24t6 44q1 18 1 72v291h-61v14q20 5 31 10t19 17q7 9 10 29q3 18 3 46v3q0 52 15 88q15 37 39 59t56 33q33 11 64 11
q45 0 73 -15t34 -39q25 34 57 47q34 14 65 14q47 0 71 -18t24 -45q0 -10 -6 -19t-23 -9q-16 0 -24 9q-6 8 -13 29q-8 23 -15 29q-8 6 -22 6q-31 0 -52 -27t-21 -99v-152h100v-19h-100v-291q0 -36 2 -72q1 -26 9 -43t22 -24q13 -6 41 -13v-13h-196v13zM320 471l-2 106
q0 49 14 86h-7q-19 0 -27 9q-7 9 -12 26q-6 25 -12 35q-6 11 -32 11q-21 0 -36 -7q-18 -8 -29 -25t-19 -48q-7 -28 -7 -75v-118h169zM519 9l-4 -5q18 7 26 13q10 8 14 24t6 44q1 18 1 72v423v66q0 23 -5 36q-5 12 -15 15q-8 2 -30 4v16l129 59v-422l49 44q35 32 74 56t87 24
q67 0 99 -31q33 -32 33 -100v-187v-72q0 -25 5 -43q4 -16 14 -24q8 -6 26 -13v-13h-175v13q20 7 29 13q10 7 15 24q4 16 6 44q1 18 1 72v208q0 47 -21 65t-56 18q-32 0 -63 -19q-33 -21 -72 -55l-49 -44v-173q0 -54 1 -72q1 -26 6 -43q4 -16 15 -24q9 -6 29 -13v-13h-175v13
z" />
    <glyph glyph-name="f_f_j" unicode="ffj" horiz-adv-x="731" 
d="M279 13l-8 -5q18 7 26 13q10 8 14 24t6 44q1 18 1 72v291h-169v-291q0 -36 2 -72q1 -26 9 -43t22 -24q13 -6 41 -13v-13h-196v13q18 7 26 13q10 8 14 24t6 44q1 18 1 72v291h-61v14q20 5 31 10t19 17q7 9 10 29q3 18 3 46v3q0 52 15 88q15 37 39 59t56 33q33 11 64 11
q43 0 69 -13q27 -14 36 -34q20 29 48 41q29 12 57 12q39 0 66 -15t27 -40q0 -12 -7 -22t-24 -10q-20 0 -26 8q-5 7 -10 24q-6 26 -12 32t-21 6q-27 0 -40 -24q-13 -23 -13 -93v-161h114l134 7v-439q0 -32 -9 -57t-24 -46q-16 -22 -31 -36q-12 -11 -32 -25q-27 -18 -47 -25
q-18 -6 -35 -6q-16 0 -30 9q-13 9 -13 27q0 17 10 26q11 9 24 9q11 0 21 -5q6 -3 16 -11t15 -11q8 -5 15 -5q8 0 15 6q5 3 9 9q5 7 8 18t6 35q3 22 3 60v339q0 41 -1 54q-2 21 -7 30q-6 11 -16 14q-13 4 -30 5h-114v-291q0 -36 2 -72q1 -26 9 -43t22 -24q13 -6 41 -13v-13
h-196v13zM317 470l-3 114q0 22 3 42q2 15 8 36h-3q-20 0 -27 9t-12 26q-6 25 -12 35q-6 11 -32 11q-21 0 -36 -7q-18 -8 -29 -25t-19 -48q-7 -28 -7 -75v-118h169zM600 565v-1q-19 0 -33 14t-14 33t14 33t33 14q20 0 33 -13q14 -14 14 -33t-14 -33t-33 -14z" />
    <glyph glyph-name="f_f_k" unicode="ffk" horiz-adv-x="1005" 
d="M279 13l-5 -4q18 7 26 13q10 8 14 24t6 44q1 18 1 72v291h-169v-291q0 -36 2 -72q1 -26 9 -43t22 -24q13 -6 41 -13v-13h-196v13q18 7 26 13q10 8 14 24t6 44q1 18 1 72v291h-61v14q20 5 31 10t19 17q7 9 10 29q3 18 3 46v3q0 52 15 88q15 37 39 59t56 33q33 11 64 11
q45 0 73 -15t34 -39q25 34 57 47q34 14 65 14q47 0 71 -18t24 -45q0 -10 -6 -19t-23 -9q-16 0 -24 9q-6 8 -13 29q-8 23 -15 29q-8 6 -22 6q-31 0 -52 -27t-21 -99v-152h100v-19h-100v-291q0 -36 2 -72q1 -26 9 -43t22 -24q13 -6 41 -13v-13h-196v13zM320 471l-2 106
q0 49 14 86h-7q-19 0 -27 9q-7 9 -12 26q-6 25 -12 35q-6 11 -32 11q-21 0 -36 -7q-18 -8 -29 -25t-19 -48q-7 -28 -7 -75v-118h169zM519 9h-2q18 7 26 13q9 8 14 23t6 42q1 18 1 72v444v54q0 21 -4 29q-5 9 -13 12q-7 2 -26 4v16l123 60v-530l203 152q31 24 27 39t-30 18
v14h134v-14q-25 -7 -50 -22q-30 -18 -65 -45l-155 -115l228 -225q4 -4 11 -10.5t9 -8.5q6 -6 14 -12q2 -2 6 -4t5 -3q3 -2 9 -4v-13h-173v13q25 4 28 15t-28 42l-174 176v-83q0 -54 1 -72q2 -27 6 -42q4 -14 15 -22q9 -6 29 -13v-13h-175v13z" />
    <glyph glyph-name="f_h" unicode="fh" horiz-adv-x="824" 
d="M32 13l-3 -2q18 7 26 13q10 8 14 24t6 44q1 18 1 72v291h-61v14q37 7 51 27q13 19 13 67v21q0 53 15 89q14 34 38 58q22 21 50 31q27 9 53 9q47 0 71 -18t24 -45q0 -10 -6 -19t-23 -9t-24 9q-6 8 -13 29q-8 23 -15 29t-22 6q-31 0 -52 -27t-21 -99v-152h100v-19h-100
v-291q0 -36 2 -72q1 -26 9 -43t22 -24q13 -6 41 -13v-13h-196v13zM276 11l-4 -5q18 7 26 13q10 8 14 24t6 44q1 18 1 72v423v66q0 23 -5 36q-4 12 -15 15q-8 2 -30 4v16l129 59v-422l49 44q35 32 74 56t87 24q67 0 99 -31q33 -32 33 -100v-187v-72q0 -25 5 -43q4 -16 14 -24
q8 -6 26 -13v-13h-175v13q20 7 29 13q11 7 15 24q4 16 6 44q1 18 1 72v208q0 47 -21 65t-56 18q-32 0 -63 -19q-33 -21 -72 -55l-49 -44v-173q0 -54 1 -72q1 -26 6 -43q5 -16 15 -24q9 -6 29 -13v-13h-175v13z" />
    <glyph glyph-name="f_j" unicode="fj" horiz-adv-x="484" 
d="M32 13l-6 -3q18 7 26 13q10 8 14 24t6 44q1 18 1 72v291h-61v14q22 5 32 10q13 6 20 18q7 11 10 30q3 18 3 47v20q0 50 12 83q12 32 32 54q19 21 44 30q24 9 48 9q39 0 66 -15t27 -40q0 -12 -7 -22t-24 -10q-20 0 -26 8q-5 7 -10 24q-6 26 -12 32t-21 6q-26 0 -40 -24
q-13 -23 -13 -93v-161h114l134 7v-439q0 -32 -9 -57t-24 -46q-16 -22 -31 -36q-12 -11 -32 -25q-27 -18 -47 -25q-18 -6 -35 -6t-30 9t-13 27q0 17 10 26t24 9q11 0 21 -5q6 -3 16 -11t15 -11q8 -5 15 -5t15 6q4 3 9 9q5 7 8 18t6 35q3 22 3 60v339q0 41 -1 54q-2 21 -7 30
q-6 11 -16 14q-13 4 -30 5h-114v-291q0 -36 2 -72q1 -26 9 -43t22 -24q13 -6 41 -13v-13h-196v13zM358 568v-1q-19 0 -33 14t-14 33t14 33t33 14q20 0 33 -13q14 -14 14 -33t-14 -33t-33 -14z" />
    <glyph glyph-name="f_k" unicode="fk" horiz-adv-x="758" 
d="M32 13l-3 -2q18 7 26 13q10 8 14 24t6 44q1 18 1 72v291h-61v14q37 7 51 27q13 19 13 67v21q0 53 15 89q14 34 38 58q22 21 50 31q27 9 53 9q47 0 71 -18t24 -45q0 -10 -6 -19t-23 -9t-24 9q-6 8 -13 29q-8 23 -15 29t-22 6q-31 0 -52 -27t-21 -99v-152h100v-19h-100
v-291q0 -36 2 -72q1 -26 9 -43t22 -24q13 -6 41 -13v-13h-196v13zM276 11h-2q18 7 26 13q9 8 14 23q4 15 6 42q1 18 1 72v444v54q0 21 -4 29q-5 9 -13 12q-7 2 -26 4v16l123 60v-530l203 152q32 24 27 39t-30 18v14h134v-14q-25 -7 -50 -22q-30 -18 -65 -45l-155 -115
l228 -225q4 -4 11 -10.5t9 -8.5q6 -6 14 -12q2 -2 6 -4.5t5 -2.5q3 -2 9 -4v-13h-173v13q25 4 28 15t-28 42l-174 176v-83q0 -54 1 -72q1 -27 6 -42q4 -14 15 -22q9 -6 29 -13v-13h-175v13z" />
    <glyph glyph-name="g_j" unicode="gj" horiz-adv-x="748" 
d="M628 571v-1q-19 0 -33 14t-14 33t14 33t33 14q20 0 33 -13q14 -14 14 -33t-14 -33t-33 -14zM503 -154l-2 -4q-14 0 -26 9t-12 26t9 26t21 9q11 0 19 -4q6 -3 16 -9q5 -3 13 -9q5 -4 11 -4q7 0 15 8q5 5 8 12q3 8 6 21q4 17 5 34q2 28 2 52v264v68q0 23 -5 36t-15 17
q-12 5 -30 8v15l130 60v-439q0 -32 -9 -57q-8 -24 -23 -45q-14 -21 -30 -35q-13 -12 -30 -25q-27 -19 -42 -26q-18 -8 -31 -8zM233 -173l-14 -1q-43 0 -82 6q-37 6 -69 20q-30 14 -48 33t-18 47q0 18 9 33q8 14 23 27q13 11 32 21q24 12 37 17q-31 7 -48 26q-16 17 -16 43
q0 15 6 27q5 10 14 21q8 9 17 17q12 10 17 14l16 12q-35 18 -59 50t-24 77q0 39 18 69t47 50t63 30q36 11 66 11q25 0 52 -6q28 -6 52 -19q12 10 25 18q15 9 30 15q20 8 30 11q13 4 27 4q20 0 27 -9q8 -10 8 -25t-8 -23t-18 -8t-17 4l-15 9l-15 9q-7 4 -15 4q-14 0 -23 -3
q-7 -2 -19 -11q36 -20 59 -52q24 -33 24 -78q0 -39 -18 -68t-47 -47t-63 -27t-66 -9q-20 0 -47 5q-25 5 -47 15l-17 -12q-13 -10 -24 -21q-10 -10 -10 -24q0 -13 12 -19q11 -5 33 -7l203 -24q37 -5 56 -10q25 -6 41 -18q17 -13 26 -30q9 -18 9 -44q0 -31 -16 -57
q-17 -28 -46 -48q-30 -21 -73 -33t-97 -12zM218 182l1 -1q27 0 48 7q23 8 39 24q17 17 26 42q9 26 9 63q0 38 -9 65q-9 26 -26 45q-16 18 -39 27t-48 9q-50 0 -84 -34q-35 -35 -35 -111q0 -38 9 -63t26 -42q16 -16 38 -24q20 -7 45 -7zM60 -63v1q0 -44 41 -70
q40 -25 119 -25q50 0 84 10t60 26q24 15 36 33t12 35q0 34 -28 44q-29 11 -70 15l-183 22q-35 -15 -53 -36t-18 -55z" />
    <glyph glyph-name=".notdef" horiz-adv-x="227" 
 />
    <glyph glyph-name=".null" horiz-adv-x="0" 
 />
    <glyph glyph-name="nonmarkingreturn" unicode="&#xd;" horiz-adv-x="227" 
 />
    <glyph glyph-name="NULL" horiz-adv-x="0" 
 />
    <glyph glyph-name="NULL" horiz-adv-x="0" 
 />
    <glyph glyph-name="space" unicode=" " horiz-adv-x="227" 
 />
    <glyph glyph-name="exclam" unicode="!" horiz-adv-x="256" 
d="M119 193l2 -1q-3 111 -10 187q-7 84 -15 147q-5 40 -14 107q-6 43 -6 66q0 29 15 45t38 16t38 -16t15 -45q0 -23 -6 -66q-3 -20 -13 -106q-7 -63 -15 -147q-7 -76 -10 -187h-19zM131 -12q-23 0 -38 15t-15 38t15 38t38 15t38 -15t15 -38t-15 -38t-38 -15z" />
    <glyph glyph-name="quotedbl" unicode="&#x22;" horiz-adv-x="302" 
d="M204 561v-1q-1 6 -4 19.5t-4 19.5q-6 30 -10 45q-3 11 -10 44q-4 19 -4 36q0 22 10 33q10 12 30 12t30 -12q10 -11 10 -33q0 -17 -4 -36q-6 -28 -10 -43t-10 -45q-1 -6 -4 -19.5t-4 -19.5h-16zM82 560v-1q-1 6 -4 19.5t-4 19.5q-6 30 -10 45q-3 11 -10 44q-4 19 -4 36
q0 22 10 33q10 12 30 12t30 -12q10 -11 10 -33q0 -17 -4 -36q-6 -28 -10 -43t-10 -45q-1 -6 -4 -19.5t-4 -19.5h-16z" />
    <glyph glyph-name="numbersign" unicode="#" horiz-adv-x="571" 
d="M23 284h141l44 232h-137v20h141l40 214h23l-40 -214h155l40 214h23l-40 -214h138v-20h-142l-44 -232h139v-20h-142l-50 -263h-23l50 263h-155l-50 -263h-23l50 263h-138v20zM342 284l44 232h-155l-44 -232h155z" />
    <glyph glyph-name="dollar" unicode="$" horiz-adv-x="570" 
d="M236 843l-5 -88q14 2 20 2h20h20q13 0 20 -1v87h22v-89q42 -6 75 -18q34 -12 56 -27q24 -16 35 -31q12 -16 12 -30q0 -15 -7 -25t-24 -10q-20 0 -31 12q-10 12 -18 32q-6 14 -10 22q-7 14 -16 23q-12 12 -27 20q-18 10 -43 14v-304q43 -14 82 -33q36 -17 64 -42
q27 -24 42 -57t15 -81q0 -38 -14 -75q-14 -36 -39 -66t-63 -51t-84 -30v-101h-22v98q-6 -1 -18 -1h-19h-21q-7 0 -21 2v-98h-22v101q-47 8 -84 24q-35 15 -64 38q-26 20 -42 44q-15 22 -15 44q0 16 9 27t26 11q38 0 45 -40q4 -18 11 -44q6 -20 20 -39q13 -17 36 -31
q21 -13 57 -19v359q-46 16 -81 36t-57 42t-33 50q-10 26 -10 62t14 69q13 32 38 56q25 25 57 41q33 16 72 24v91h22zM471 170h-1q0 37 -7 59q-7 24 -24 42q-18 19 -43 32q-28 14 -64 27v-317q35 7 64 23q26 15 43 36t24 46q8 27 8 52zM273 8l-1 -1h19q6 0 18 2v328l-44 14
l-36 12v-354q7 -1 21 -1h23zM83 603v-2q0 -29 6 -48t21 -34q14 -14 39 -25q32 -14 58 -23v263q-58 -12 -91 -46t-33 -85zM309 437l-1 298q-12 2 -19 2h-21h-20q-12 0 -19 -1v-274l41 -13z" />
    <glyph glyph-name="percent" unicode="%" horiz-adv-x="805" 
d="M209 379l-4 -1q-31 0 -61 13q-31 13 -57 38q-25 24 -42 59q-16 33 -16 78q0 42 17 78q17 35 42 59q25 23 57 37q30 13 62 13t62 -13q32 -14 57 -37q25 -24 42 -59q17 -36 17 -78q0 -45 -16 -78q-17 -35 -42 -59q-25 -23 -57 -37q-30 -13 -61 -13zM120 11l535 743l21 -14
l-536 -742zM205 394l-4 -1q19 0 38 9q20 9 35 29q16 20 26 53q10 31 10 83t-10 83q-11 35 -25 53q-15 19 -35 27q-21 8 -37 8t-37 -8q-19 -7 -34 -27q-14 -18 -25 -53q-10 -31 -10 -83t10 -83q10 -33 26 -53q14 -18 35 -28q20 -9 37 -9zM587 -8l-4 -1q-31 0 -61 13
q-31 13 -57 38q-25 24 -42 59q-16 33 -16 78q0 42 17 78q17 35 42 59q25 23 57 37q30 13 62 13t62 -13q32 -14 58 -37t43 -59t17 -78q0 -45 -16 -78q-17 -36 -43 -59t-58 -37q-30 -13 -61 -13zM583 7l-3 -1q18 0 38 9q19 9 36 29q16 19 27 53q10 31 10 83t-10 83
q-11 34 -27 53q-16 20 -36 27q-21 8 -37 8t-37 -8q-19 -7 -34 -27q-14 -18 -25 -53q-10 -31 -10 -83t10 -83q10 -33 26 -53q14 -18 35 -28q20 -9 37 -9z" />
    <glyph glyph-name="ampersand" unicode="&#x26;" horiz-adv-x="858" 
d="M188 592l-7 -6q0 36 14 69q13 31 38 54q25 24 55 35q32 12 66 12q35 0 64 -10q30 -10 53 -29t35 -42q12 -24 12 -51q0 -35 -16 -61q-16 -27 -42 -48q-25 -20 -55 -37q-31 -17 -55 -27l11 -11l234 -229l24 43l40 74q18 34 27 57t6 38t-16 24q-15 10 -39 14v14h166v-14
q-18 -4 -34 -11q-14 -6 -26 -21q-13 -16 -27 -40q-15 -25 -36 -66l-40 -74q-10 -18 -14 -26t-14 -24q61 -59 88 -84q36 -33 60 -54q22 -19 42 -31q18 -10 33 -15v-13h-130l-136 134q-60 -76 -126 -111q-65 -34 -147 -34q-60 0 -108 16t-84 44q-34 27 -54 65q-19 37 -19 80
q0 55 22 93q23 39 57 69q33 29 75 49q39 19 77 33q-33 37 -53 75q-21 39 -21 77zM116 191l2 -1q0 -39 11 -75q11 -35 33 -60t55 -40t77 -15q80 0 141 33t117 107l-260 255l-24 25q-33 -14 -59 -33q-28 -20 -48 -46q-21 -27 -33 -63t-12 -87zM248 623v-3q0 -24 8 -48
q8 -22 21 -42t30 -39q11 -13 35 -37q18 9 43 24q21 13 40 33t29 45q11 27 11 58q0 65 -31 93q-32 29 -78 29q-48 0 -78 -31t-30 -82z" />
    <glyph glyph-name="quotesingle" unicode="'" horiz-adv-x="180" 
d="M82 561v-1q-1 6 -4 19.5t-4 19.5q-6 30 -10 45q-3 11 -10 44q-4 19 -4 36q0 22 10 33q10 12 30 12t30 -12q10 -11 10 -33q0 -17 -4 -36q-6 -28 -10 -43t-10 -45q-1 -6 -4 -19.5t-4 -19.5h-16z" />
    <glyph glyph-name="parenleft" unicode="(" horiz-adv-x="344" 
d="M312 -107v-3q-40 30 -81 70q-43 42 -81 99q-37 56 -63 128q-25 69 -25 156t25 156q25 71 63 126q38 57 81 98q41 40 81 70l11 -12q-31 -27 -60 -61q-32 -37 -59 -89q-27 -53 -45 -123t-18 -165t18 -165t45 -123q27 -52 59 -89q29 -34 60 -61z" />
    <glyph glyph-name="parenright" unicode=")" horiz-adv-x="344" 
d="M21 -95v-1q26 24 60 62q32 37 59 89q27 53 45 123t18 165t-18 165t-45 123q-27 52 -59 89q-34 38 -60 62l11 12q40 -30 81 -70q44 -43 81 -97q38 -55 63 -126q25 -69 25 -156t-25 -156t-63 -127q-38 -57 -81 -99q-41 -40 -81 -70z" />
    <glyph glyph-name="asterisk" unicode="*" horiz-adv-x="338" 
d="M193 510l-9 -5q0 -34 -24 -34t-24 34q0 23 9 47q10 26 14 56q-20 -26 -30 -49q-10 -22 -26 -40q-11 -11 -24 -13q-12 -1 -19 6q-8 8 -6 18q2 11 15 23q16 16 41 27q24 10 48 30q-32 -4 -57 -12q-27 -8 -46 -8q-34 0 -34 24t34 24q21 0 46 -9q23 -8 57 -13q-16 12 -25 18
q-8 5 -24 13q-8 4 -22 12q-7 4 -19 14q-26 25 -6 45q16 16 42 -8q15 -17 26 -40q11 -24 32 -51q-5 34 -13 58q-9 26 -9 46q0 34 24 34t24 -34q0 -19 -8 -46q-8 -25 -12 -57q19 25 30 50q10 24 26 41q24 25 43 6q7 -7 6 -19q-1 -11 -14 -22q-12 -10 -19 -14l-21 -12
q-1 -1 -9.5 -5.5t-13.5 -7.5q-12 -7 -24 -18q30 4 56 14q24 9 47 9q34 0 34 -24t-34 -24q-20 0 -46 8q-24 8 -55 12q24 -18 48 -28q21 -8 40 -26q12 -11 14 -23t-7 -21q-7 -7 -19 -6q-11 1 -22 14q-14 15 -25 39q-11 23 -30 48q5 -34 12 -56q8 -24 8 -45z" />
    <glyph glyph-name="plus" unicode="+" horiz-adv-x="545" 
d="M262 134v207h-208v21h208v207h22v-207h207v-21h-207v-207h-22z" />
    <glyph glyph-name="comma" unicode="," horiz-adv-x="242" 
d="M139 11h-1q-4 -6 -11 -10q-6 -3 -21 -3q-18 0 -31 12t-13 35t15 36q16 14 35 14q23 0 44 -18t21 -61q0 -49 -29 -87q-28 -37 -72 -54l-7 10q37 19 57 48t20 59q0 12 -7 19z" />
    <glyph glyph-name="hyphen" unicode="-" horiz-adv-x="315" 
d="M62 298h207l-16 -59h-207z" />
    <glyph glyph-name="period" unicode="." horiz-adv-x="231" 
d="M116 -11q-23 0 -38 15t-15 38t15 38t38 15t38 -15t15 -38t-15 -38t-38 -15z" />
    <glyph glyph-name="slash" unicode="/" horiz-adv-x="515" 
d="M491 795l-488 -961l-22 11l487 962z" />
    <glyph glyph-name="zero" unicode="0" horiz-adv-x="734" 
d="M368 761q57 0 113 -28q59 -29 104 -79q46 -51 75 -122q29 -72 29 -156q0 -86 -29 -158q-29 -71 -75 -122q-45 -50 -104 -79q-56 -28 -113 -28q-58 0 -114 28q-59 29 -104 79t-76 122q-30 70 -30 158q0 86 30 156q31 72 76 122t104 79q56 28 114 28zM368 745l-1 -1
q-41 0 -80 -19q-41 -20 -74 -63q-32 -42 -55 -114q-22 -69 -22 -174q0 -104 21 -174t54 -114t75 -63q41 -19 81 -19q38 0 80 20q41 20 74 63t54 114t21 174t-21 174t-54 114t-74 63q-39 19 -79 19z" />
    <glyph glyph-name="one" unicode="1" horiz-adv-x="302" 
d="M27 0l-1 11q28 4 47 14q18 9 27 35t12 75t3 135v196q0 70 -1 92q-2 34 -10 48q-9 14 -27 16t-51 -3v13l174 131v-492q0 -69 2 -135q2 -50 9 -75t24 -34q18 -10 45 -14v-13h-253z" />
    <glyph glyph-name="two" unicode="2" horiz-adv-x="591" 
d="M295 66h-2q77 0 122 3q48 3 71 10q26 7 36 21q12 15 20 36h18l-25 -90q-1 -4 -3.5 -12.5t-3.5 -11.5q-3 -10 -6 -14t-9 -6q-4 -1 -16 -1h-486l228 199q62 54 98 99q37 47 60 90q22 43 30 83q8 42 8 78q0 92 -42 144t-138 52q-43 0 -69 -12q-27 -13 -38 -28
q-13 -18 -17 -33q-4 -16 -6 -26q-4 -20 -14 -30q-9 -9 -27 -9q-19 0 -30 11q-10 10 -10 27q0 16 12 35q12 20 38 38t66 30t99 12q53 0 102 -12q51 -12 87 -37q38 -26 60 -64q23 -40 23 -93q0 -54 -19 -101q-20 -48 -54 -93q-36 -47 -84 -89q-54 -48 -108 -89l-154 -117h183z
" />
    <glyph glyph-name="three" unicode="3" horiz-adv-x="612" 
d="M246 7l1 3q64 0 109 18q44 18 73 51q28 32 40 77q12 44 12 95q0 101 -37 153q-38 53 -129 53q-51 0 -82 -18t-63 -48l-11 11l286 280h-137q-70 0 -134 -2q-47 -1 -73 -9q-25 -7 -34 -21t-18 -36h-18l26 97q7 25 11 33q3 6 17 6h441v-14l-288 -282q33 16 77 16
q59 0 105 -15q48 -16 80 -43q33 -29 51 -70q18 -42 18 -96q0 -45 -21 -90q-21 -44 -62 -81q-40 -36 -101 -60q-60 -24 -138 -24q-54 0 -99 14q-43 13 -73 33q-29 19 -45 44q-15 24 -15 45q0 14 9 26t28 12q21 0 30 -11q10 -11 14 -27q2 -7 6 -27q5 -20 19 -40t44 -37
q28 -16 81 -16z" />
    <glyph glyph-name="four" unicode="4" horiz-adv-x="705" 
d="M528 191l-1 -1q2 -64 4 -89q3 -33 9 -51q6 -17 18 -25q12 -7 30 -12v-13h-204v13q19 5 29 12q11 8 17 26t9 51q2 25 4 89h-404v11l461 556h28v-510h141l-31 -57h-110zM442 247v416l-345 -416h345z" />
    <glyph glyph-name="five" unicode="5" horiz-adv-x="622" 
d="M178 681l-74 -256q34 25 78 39q45 14 104 14q58 0 109 -15q49 -14 88 -44q38 -29 59 -71t21 -95t-21 -101q-22 -50 -61 -86q-41 -38 -100 -60t-136 -22q-55 0 -99 12q-43 12 -73 30t-45 39t-15 41q0 14 9 26t26 12q20 0 29 -10t15 -27q1 -6 11 -34q6 -18 21 -33
q16 -16 44 -26q27 -10 76 -10q58 0 102 21q43 21 72 56q28 35 42 81q14 48 14 99q0 43 -12 81t-36 66q-24 29 -58 45q-33 16 -81 16q-34 0 -67 -5q-30 -4 -54 -12q-25 -8 -42 -19q-20 -13 -33 -25l-11 7l102 335h364l-15 -41q-6 -14 -7 -16q-3 -6 -6 -9t-8 -3h-12h-320z" />
    <glyph glyph-name="six" unicode="6" horiz-adv-x="685" 
d="M398 744l-1 2q-52 0 -97 -21t-80 -62t-57 -103q-23 -63 -27 -145q21 23 45 41q26 20 55 33q33 15 64 23q34 9 70 9q52 0 102 -18q49 -18 88 -51t63 -80q24 -46 24 -104q0 -64 -27 -115t-69 -87q-41 -35 -91 -55q-48 -19 -96 -19q-52 0 -107 21t-102 66q-45 44 -76 116
q-30 71 -30 171q0 94 31 166q31 73 81 124q49 51 113 78q63 27 126 27q61 0 101 -10q44 -11 69 -25q28 -15 39 -31q12 -17 12 -30q0 -14 -9 -23t-24 -9q-18 0 -28 9t-18 29q-8 19 -18 33q-11 14 -27 23q-15 8 -40 13q-21 4 -59 4zM135 368l-1 3q0 -95 20 -166
q19 -68 51 -112q31 -43 72 -63q39 -19 84 -19q42 0 79 17q35 16 61 50q25 32 40 81q15 48 15 110q0 68 -18 113q-18 46 -46 72q-28 27 -63 39t-64 12q-35 0 -70 -9q-33 -9 -64 -24q-30 -15 -54 -36q-25 -22 -42 -43v-25z" />
    <glyph glyph-name="seven" unicode="7" horiz-adv-x="585" 
d="M214 0l-20 -1l307 682h-246q-73 0 -115 -3q-44 -3 -63 -10q-21 -8 -30 -22q-8 -14 -16 -40h-19l28 101q7 24 12 34q4 9 21 9h473v-14z" />
    <glyph glyph-name="eight" unicode="8" horiz-adv-x="621" 
d="M578 210l1 -4q0 -46 -21 -87q-21 -40 -57 -70q-35 -29 -84 -46q-47 -16 -104 -16q-59 0 -108 15q-47 14 -85 41q-36 25 -57 60t-21 75q0 34 15 66t40 58q26 28 58 48q35 23 70 35q-75 34 -115 77q-39 42 -39 104q0 44 21 80q20 34 56 61q34 25 78 39q45 14 87 14
q64 0 108 -16q47 -17 74 -40q29 -24 42 -54q14 -31 14 -59q0 -31 -15 -60t-37 -52t-53 -42q-29 -17 -61 -28q42 -16 79 -36q35 -19 61 -42t39 -52q14 -31 14 -69zM313 2l-2 -2q102 0 152 47t50 120q0 62 -56 104q-56 43 -173 86l-43 17q-68 -29 -101 -80t-33 -114
q0 -88 53 -133q52 -45 153 -45zM369 409v1q27 11 48 25q23 15 39 36t27 50q11 30 11 63q0 36 -10 63q-10 29 -33 48q-23 20 -57 32t-81 12q-37 0 -70 -9q-34 -9 -59 -27t-40 -43q-15 -26 -15 -57q0 -54 45 -96t150 -81z" />
    <glyph glyph-name="nine" unicode="9" horiz-adv-x="693" 
d="M291 6l-6 3q52 0 97 21q44 21 78 62t56 101t30 140q-36 -39 -98 -70q-60 -30 -134 -30q-54 0 -103 18t-87 51q-37 33 -60 80q-22 45 -22 104q0 64 27 114q27 49 68 84q42 35 90 53q49 18 96 18q62 0 118 -19q57 -19 101 -62q45 -43 71 -109q27 -67 27 -162t-30 -171
q-30 -77 -79 -130q-51 -55 -112 -83q-64 -29 -128 -29q-59 0 -101 9t-69 24t-39 33t-12 33q0 14 10 24q11 11 27 11q18 0 27 -9q10 -10 17 -31q5 -14 12 -26q8 -15 22 -26t40 -19q24 -7 66 -7zM126 487l-2 -4q0 -66 18 -111t46 -73t61 -40t65 -12q38 0 72 9q33 9 64 24
q28 14 54 35q24 19 42 42q1 7 1 23v24q0 93 -19 156q-20 64 -51 105q-31 40 -72 58t-86 18q-41 0 -75 -15t-61 -46q-27 -32 -42 -79q-15 -48 -15 -114z" />
    <glyph glyph-name="colon" unicode=":" horiz-adv-x="239" 
d="M120 320q-23 0 -38 15t-15 38t15 38t38 15t38 -15t15 -38t-15 -38t-38 -15zM120 -11q-23 0 -38 15t-15 38t15 38t38 15t38 -15t15 -38t-15 -38t-38 -15z" />
    <glyph glyph-name="semicolon" unicode=";" horiz-adv-x="250" 
d="M124 320q-23 0 -38 15t-15 38t15 38t38 15t38 -15t15 -38t-15 -38t-38 -15zM143 11h-1q-4 -6 -11 -10q-6 -3 -21 -3q-18 0 -31 12t-13 35t15 36q16 14 35 14q23 0 44 -18t21 -61q0 -49 -29 -87q-28 -37 -72 -54l-7 10q37 19 57 48t20 59q0 12 -7 19z" />
    <glyph glyph-name="less" unicode="&#x3c;" horiz-adv-x="516" 
d="M64 363l389 171v-24l-363 -159l363 -160v-24l-389 171v25z" />
    <glyph glyph-name="equal" unicode="=" horiz-adv-x="541" 
d="M52 433h437v-20h-437v20zM52 278h437v-20h-437v20z" />
    <glyph glyph-name="greater" unicode="&#x3e;" horiz-adv-x="516" 
d="M64 167v24l363 160l-363 159v24l389 -171v-25z" />
    <glyph glyph-name="question" unicode="?" horiz-adv-x="419" 
d="M142 192l-7 -2q2 47 13 83q12 36 29 71q17 33 36 63q21 32 36 61q16 31 27 65q11 35 11 72q0 39 -9 65t-24 41t-36 21t-48 6q-24 0 -35 -9q-10 -9 -18 -23l-10 -20q-6 -12 -9 -17q-4 -7 -12 -12q-7 -4 -21 -4q-19 0 -28 11q-9 10 -9 24q0 25 36 46t111 21q41 0 75 -10
q35 -10 64 -30t45 -49q17 -31 17 -69t-15 -71q-16 -35 -37 -63q-25 -33 -49 -60q-27 -30 -51 -63t-42 -69q-17 -35 -22 -79h-18zM153 -13q-23 0 -38 15t-15 38t15 38t38 15t38 -15t15 -38t-15 -38t-38 -15z" />
    <glyph glyph-name="at" unicode="@" horiz-adv-x="904" 
d="M754 -56l-6 1q-22 -18 -48 -35q-29 -18 -67 -33q-36 -14 -90 -25q-49 -10 -115 -10q-84 0 -156 21q-73 21 -125 63q-53 43 -83 108q-30 66 -30 159q0 97 36 178q36 80 99 139q63 58 147 90q85 32 182 32q77 0 143 -21q67 -21 116 -60t78 -95q28 -55 28 -124
q0 -70 -27 -130t-75 -102t-115 -66q-66 -24 -147 -22l16 94l-19 -19q-34 -34 -64 -55t-73 -21q-25 0 -52 11q-25 10 -43 30q-19 20 -29 50q-11 31 -11 68q0 68 24 123t62 95q37 39 83 60q45 21 87 21q24 0 42 -6t33 -12t27 -12t24 -6q23 0 36 25h14l-46 -272q-9 -60 -11 -79
q-3 -31 1 -45q5 -15 16 -18q12 -3 32 5q39 13 72 36q34 23 59 54q24 30 40 74q15 42 15 96q0 69 -27 125t-74 95q-46 39 -110 60q-63 21 -137 21q-81 0 -156 -27t-132 -78t-90 -124t-33 -168q0 -87 27 -154t75 -112t114 -69t143 -24q63 0 112 9q50 9 87 24q39 15 65 33
q27 18 47 35zM305 154l-1 -4q0 -63 16 -94t54 -31q30 0 59 21q27 20 60 53l26 26l39 234q7 39 -12 64t-69 25q-29 0 -61 -21q-31 -20 -55 -60q-23 -37 -40 -93q-16 -52 -16 -120z" />
    <glyph glyph-name="A" unicode="A" horiz-adv-x="795" 
d="M19 13l-1 -3q16 6 23 10q11 6 21 19q13 17 23 34q14 25 26 55l236 561q-14 25 -27 32q-14 7 -30 12v13h109q11 0 15 -4t10 -18l266 -601q14 -32 19 -42q8 -16 18 -31q8 -13 21 -22q10 -7 29 -16v-15h-178v15q32 6 32 27q0 23 -22 71l-52 118h-381l-42 -99q-6 -13 -12 -30
t-6 -33t9 -31q9 -14 33 -22v-13h-139v13zM547 243l-188 425l-179 -425h367z" />
    <glyph glyph-name="B" unicode="B" horiz-adv-x="673" 
d="M24 13l-3 -1q20 7 33 17q12 9 18 35q5 23 7 75q2 66 2 133v204q0 102 -1 134q-2 51 -7 74q-6 26 -18 35q-13 10 -33 17v13h295q72 0 124 -13q54 -14 90 -36t54 -54t18 -67q0 -27 -9 -55t-32 -51q-22 -22 -62 -39t-98 -23v-3q70 -8 117 -27q47 -20 73 -46t37 -57t11 -56
q0 -55 -27 -97t-73 -70q-47 -29 -109 -42q-61 -13 -136 -13h-271v13zM165 733l1 -316h140q61 0 103 9q43 9 68 27t36 48q11 31 11 74q0 35 -12 63q-13 30 -37 50q-26 21 -64 33q-39 12 -96 12h-150zM166 401l-1 -383h122q63 0 111 9q47 9 81 32t50 60q17 39 17 96
q0 43 -7 75q-7 35 -32 59t-71 38q-48 14 -124 14h-146z" />
    <glyph glyph-name="C" unicode="C" horiz-adv-x="765" 
d="M427 -10l-1 4q-90 0 -163 32q-71 31 -121 84q-49 52 -75 122t-26 143q0 95 36 167q36 73 93 122t128 75q72 26 143 26q55 0 87 -7q39 -8 59 -16q36 -13 42 -16q17 -7 37 -7q25 0 32 28h16v-164h-16q-29 86 -95 125t-160 39q-65 0 -120 -21t-97 -64q-42 -44 -66 -109
q-24 -66 -24 -159q0 -101 26 -174q26 -72 69 -117t99 -66t114 -21q52 0 96 11q41 10 73 27q30 16 54 38q20 19 39 41l12 -11q-13 -18 -38 -42q-23 -21 -60 -43q-34 -20 -84 -34q-46 -13 -109 -13z" />
    <glyph glyph-name="D" unicode="D" horiz-adv-x="785" 
d="M24 13l-2 -2q20 7 33 17q12 9 18 35q5 23 7 75q2 66 2 133v204q0 102 -1 134q-2 51 -7 74q-6 26 -18 35q-13 10 -33 17v13h186q263 0 399 -91t136 -273q0 -87 -31 -156q-31 -70 -97 -121q-65 -50 -167 -79q-99 -28 -239 -28h-186v13zM166 732l-2 -721h42q112 0 195 21
t138 66q54 44 82 116q27 70 27 168q0 103 -31 169q-32 68 -88 108q-57 41 -138 57q-79 16 -183 16h-42z" />
    <glyph glyph-name="E" unicode="E" horiz-adv-x="651" 
d="M24 13l1 3q20 7 33 17q12 9 18 35q5 23 7 75q2 66 2 133v204q0 102 -1 134q-2 51 -7 74q-6 26 -18 35q-13 10 -33 17v13h540q11 0 15 -4q5 -5 9 -27l18 -102h-18q-13 35 -29 59q-15 22 -35 36q-20 13 -45 18q-28 5 -57 5h-255v-306h94q38 0 56 7q19 7 30 18t14 24l6 27
h16v-172h-16l-6 27q-3 13 -14 24t-30 18q-18 7 -56 7h-94v-396h274q35 0 60 3t45 17t35 39q14 24 28 69h18l-13 -113q-1 -22 -8 -27q-5 -4 -22 -4h-562v13z" />
    <glyph glyph-name="F" unicode="F" horiz-adv-x="650" 
d="M24 13l-2 1q21 6 33 15t18 35q5 23 7 75q2 66 2 134v204q0 102 -1 135q-2 52 -7 75q-6 26 -18 35t-33 15v13h570q11 0 15 -4q5 -5 8 -25l15 -103h-18q-15 39 -28 59q-15 23 -36 36t-51 18q-33 5 -72 5h-259v-306h112q38 0 56 7q19 7 30 18t14 24l6 27h16v-172h-16l-6 27
q-3 13 -14 24t-30 18q-18 7 -56 7h-112v-139q0 -67 2 -133q1 -47 8 -75q6 -26 18 -35t33 -15v-13h-204v13z" />
    <glyph glyph-name="G" unicode="G" horiz-adv-x="808" 
d="M429 -11l-4 -3q-85 0 -157 30q-73 30 -123 82q-52 54 -80 124q-28 71 -28 157q0 99 37 170t96 118t130 69q74 23 141 23q53 0 86 -6q31 -6 56 -14q8 -3 21.5 -7.5l19.5 -6.5q18 -6 39 -6q26 0 33 28h18v-164h-18q-26 80 -91 120q-67 41 -163 41q-62 0 -117 -18
q-56 -18 -98 -60q-41 -42 -67 -109q-25 -66 -25 -165q0 -100 21 -174t60 -120t93 -69q53 -22 120 -22q109 0 168 51t59 155v4q0 27 -2 53q-1 18 -8 30q-6 10 -18 15q-13 5 -34 9v14h202v-14q-12 -2 -25 -8q-10 -4 -16 -17q-6 -12 -9 -34q-3 -23 -3 -60v-98q-9 -11 -36 -30
q-28 -20 -67 -39t-94 -34q-54 -15 -117 -15z" />
    <glyph glyph-name="H" unicode="H" horiz-adv-x="791" 
d="M24 13l-6 -2q21 6 33 15t18 35q5 23 7 75q2 66 2 134v204q0 102 -1 135q-2 52 -7 75q-6 26 -18 35t-33 15v13h204v-13q-21 -6 -33 -15t-18 -35q-5 -23 -7 -75q-1 -33 -1 -135v-58h455v58q0 102 -1 135q-2 52 -7 75q-6 26 -18 35t-33 15v13h204v-13q-21 -6 -33 -15
t-18 -35q-5 -23 -7 -75q-1 -33 -1 -135v-204q0 -67 2 -133q2 -52 7 -75q6 -26 18 -35t33 -15v-13h-204v13q21 6 33 15t18 35q7 28 8 75q2 66 2 134v130h-455v-130q0 -67 2 -133q1 -47 8 -75q6 -26 18 -35t33 -15v-13h-204v13z" />
    <glyph glyph-name="I" unicode="I" horiz-adv-x="252" 
d="M24 13l-3 -1q20 7 33 17q12 9 18 35q5 23 7 75q2 66 2 133v204q0 102 -1 135q-2 52 -7 76q-6 27 -18 36t-33 15v13h204v-13q-21 -6 -33 -15t-18 -36q-5 -24 -7 -76q-1 -33 -1 -135v-204q0 -67 2 -133q1 -47 8 -75q6 -26 18 -35q11 -8 33 -16v-13h-204v13z" />
    <glyph glyph-name="J" unicode="J" horiz-adv-x="433" 
d="M174 -9h-2q-33 0 -67 8q-31 7 -54 21t-35 30t-12 36q0 21 12 30t29 9q21 0 31 -9t19 -37q5 -17 9 -30t12 -22t20 -14q13 -5 33 -5q19 0 35 6q17 6 29 18q13 12 20 32q8 21 8 48v366q0 102 -1 135q-2 52 -7 75q-6 26 -18 35t-34 15v13h206v-13q-21 -6 -33 -15t-18 -35
q-5 -23 -7 -75q-1 -33 -1 -135v-299q0 -43 -13 -76q-14 -35 -37 -60q-24 -26 -55 -39q-30 -13 -69 -13z" />
    <glyph glyph-name="K" unicode="K" horiz-adv-x="704" 
d="M24 13v-2q21 6 33 15t18 35q5 23 7 75q2 66 2 134v204q0 102 -1 135q-2 52 -7 75q-6 26 -18 35t-33 15v13h204v-13q-21 -6 -33 -15t-18 -35q-5 -23 -7 -75q-1 -33 -1 -135v-67l338 253q38 29 41 47t-36 26v14h159v-14q-15 -2 -27 -7q-19 -8 -33 -16q-22 -12 -45 -28
q-41 -29 -60 -43l-266 -200l352 -361l27 -27q8 -8 20 -18q9 -7 18 -12q6 -3 20 -9v-13h-197v13q20 5 27 10q8 6 6 15q-1 9 -11 20q-12 14 -22 24l-314 323v-133q0 -67 2 -133q1 -47 8 -75q6 -26 18 -35t33 -15v-13h-204v13z" />
    <glyph glyph-name="L" unicode="L" horiz-adv-x="603" 
d="M24 13h-6q21 6 33 15t18 35q5 23 7 75q2 66 2 134v204q0 102 -1 135q-2 52 -7 75q-6 26 -18 35t-33 15v13h208v-13q-23 -6 -35 -15t-18 -35q-7 -28 -8 -75q-1 -33 -1 -135v-461h237q37 0 60 4q26 5 47 18q20 13 37 41q15 25 31 74h19l-19 -123q-2 -12 -3 -17t-5 -9
q-3 -3 -8 -3h-12h-525v13z" />
    <glyph glyph-name="M" unicode="M" horiz-adv-x="929" 
d="M24 13h-4q22 12 32 22q12 12 18 39q7 30 8 76q2 66 2 135v193q0 102 -1 134q-2 51 -7 74q-6 26 -18 35q-13 10 -33 17v13h144q11 0 14 -6q7 -14 14 -30l270 -614l284 649h154v-13q-21 -6 -33 -15t-18 -35q-5 -23 -7 -75q-1 -33 -1 -135v-204q0 -67 2 -133q1 -47 8 -75
q6 -26 18 -35t33 -15v-13h-204v13q21 6 33 15t18 35q5 23 7 75q2 66 2 134v452l-318 -728h-20l-320 728v-441q0 -69 2 -135q1 -49 9 -76q8 -28 22 -39q13 -11 41 -22v-13h-151v13z" />
    <glyph glyph-name="N" unicode="N" horiz-adv-x="759" 
d="M24 13l-4 3q22 11 33 22q12 12 18 39q5 24 7 76q2 66 2 135v193q0 102 -1 134q-2 51 -7 74q-6 26 -18 35q-13 10 -33 17v13h143q10 0 14 -1q5 -1 10 -6q7 -7 11 -12q2 -3 7.5 -9.5t8.5 -11.5l441 -584v338q0 102 -1 135q-1 49 -9 76q-8 28 -22 39t-40 22v13h151v-13
q-22 -11 -33 -22q-12 -12 -18 -39q-5 -24 -7 -76q-1 -33 -1 -135v-470h-25l-550 729v-442q0 -69 2 -135q1 -49 9 -76q8 -28 22 -39q13 -11 41 -22v-13h-151v13z" />
    <glyph glyph-name="O" unicode="O" horiz-adv-x="850" 
d="M425 -11h-2q-74 0 -144 29q-68 28 -123 80q-53 50 -85 122t-32 155q0 81 32 153q32 71 86 122q55 52 123 80q70 29 144 29t144 -29q68 -28 123 -80q54 -51 86 -122q32 -72 32 -153q0 -83 -32 -155t-85 -122q-55 -52 -123 -80q-70 -29 -144 -29zM423 5h-3q58 0 110 21
t93 66q40 44 64 115t24 169q0 99 -24 169q-24 71 -64 115q-41 45 -93 66t-109 21t-109 -21t-93 -66q-40 -44 -64 -115q-24 -70 -24 -169q0 -98 24 -169q23 -69 65 -115q40 -45 93 -66q52 -21 110 -21z" />
    <glyph glyph-name="P" unicode="P" horiz-adv-x="635" 
d="M24 13l-2 -1q21 6 33 15t18 35q5 23 7 75q2 66 2 134v204q0 102 -1 135q-2 52 -7 75q-6 26 -18 35t-33 15v13h283q67 0 120 -10q56 -11 98 -33q41 -22 66 -59q24 -36 24 -90t-24 -94t-66 -66t-97 -39q-53 -13 -117 -13h-143v-73q0 -67 2 -133q1 -47 8 -75q6 -26 20 -35
q13 -9 36 -15v-13h-209v13zM166 733l1 -372h140q39 0 81 8q39 7 71 29t50 57q18 36 18 92q0 63 -19 98q-20 37 -51 56q-33 20 -72 26q-41 6 -81 6h-138z" />
    <glyph glyph-name="Q" unicode="Q" horiz-adv-x="850" 
d="M425 -9h-1q-74 0 -143 27q-68 27 -123 77q-54 49 -87 122q-33 72 -33 159q0 81 32 153q32 71 86 122q55 52 123 80q70 29 144 29t144 -29q68 -28 123 -80q54 -51 86 -122q32 -72 32 -153q0 -58 -17 -114q-16 -53 -47 -99q-29 -43 -71 -79q-40 -34 -89 -57q14 -40 27 -68
q13 -30 30 -51t39 -33t52 -12t47 10q19 11 32 27l9 -8q-17 -20 -42 -35t-68 -15q-28 0 -57 6q-28 6 -56 23q-27 17 -51 48q-23 30 -40 81q-40 -9 -81 -9zM424 745l-4 -4q-56 0 -109 -21t-93 -66q-40 -44 -64 -115q-24 -70 -24 -169q0 -82 13 -140q14 -61 37 -103
q23 -43 57 -70q34 -28 74 -41q-25 20 -39 45q-13 25 -13 54q0 25 11 45t28 33q18 14 40 21q21 7 45 7q43 0 75 -12t53 -33q22 -22 35 -51q16 -37 26 -64l4 -12q60 41 99 120t39 205q0 98 -24 169t-64 115q-40 45 -93 66q-52 21 -109 21zM278 117l1 -2q0 -32 12 -53t32 -35
q18 -13 45 -19q26 -6 51 -6q19 0 39 3q13 2 37 8q-3 8 -7 26q-2 9 -6 29q-14 74 -39 104t-73 30q-18 0 -33 -4q-17 -4 -30 -15t-21 -27q-8 -18 -8 -39z" />
    <glyph glyph-name="R" unicode="R" horiz-adv-x="721" 
d="M24 13v1q21 6 33 15t18 35q5 23 7 75q2 66 2 134v204q0 102 -1 135q-2 52 -7 75q-6 26 -18 35t-33 15v13h314q85 0 149 -14q60 -13 99 -38q38 -24 56 -57t18 -72q0 -50 -24 -86t-64 -60q-41 -24 -93 -36t-108 -12h-42q62 -12 104 -54t60 -111q22 -94 60 -141
q37 -46 96 -46q30 0 44 10q17 12 26 21l9 -9q-13 -19 -39 -36q-25 -16 -72 -16q-26 0 -60 8q-30 7 -60 29q-28 20 -52 57q-24 36 -39 95q-18 69 -33 109q-15 39 -33 57t-47 21q-28 3 -75 3h-52v-101q0 -67 2 -133q1 -47 8 -75q6 -26 18 -35t33 -15v-13h-204v13zM168 735
l-2 -344h204q103 0 153 44t50 122q0 42 -10 73q-11 34 -37 56q-27 23 -73 36q-45 13 -120 13h-165z" />
    <glyph glyph-name="S" unicode="S" horiz-adv-x="614" 
d="M310 -9l1 -7q-53 0 -89 9q-32 8 -61 20q-15 6 -45 20q-20 9 -39 9t-27 -21h-18v174h18q8 -45 30 -81q22 -35 57 -61q35 -25 78 -39q42 -13 95 -13q54 0 90 13q38 14 60 36t33 53t11 65q0 39 -12 66t-39 48t-72 39q-50 20 -111 38q-51 15 -93 33q-40 17 -70 41
q-29 23 -45 54t-16 75q0 46 20 83q19 34 53 61q34 26 77 38q44 12 90 12t78 -6t54 -15q20 -8 41 -15q18 -6 35 -6q15 0 20 4q7 5 8 15h18v-135h-18q-23 70 -84 107q-62 38 -153 38q-81 0 -129 -36t-48 -100q0 -28 9 -52t31 -43q22 -20 60 -36q37 -16 98 -33q42 -12 103 -32
q49 -17 87 -42q39 -26 59 -61q21 -36 21 -87q0 -48 -18 -90q-17 -40 -53 -73q-34 -31 -84 -49q-49 -18 -111 -18z" />
    <glyph glyph-name="T" unicode="T" horiz-adv-x="706" 
d="M252 13l-2 -1q20 7 33 17q12 9 18 35q5 23 7 75q2 66 2 133v461h-87q-37 0 -69 -3q-30 -3 -55 -17q-23 -13 -40 -41q-16 -26 -25 -75h-19l15 123q3 23 7 27t18 4h594q14 0 18 -4q5 -5 6 -27l16 -123h-19q-9 49 -25 75q-17 28 -40 41q-25 14 -56 17t-72 3h-82v-461
q0 -67 2 -133q1 -47 8 -75q6 -26 18 -35q11 -8 33 -16v-13h-204v13z" />
    <glyph glyph-name="U" unicode="U" 
d="M409 -11l-3 -1q-158 0 -246 71q-87 71 -87 228v188q0 102 -1 135q-2 50 -6 75q-5 27 -16 35q-12 9 -31 15v13h200v-13q-21 -6 -33 -15t-18 -35q-5 -23 -7 -75q-1 -33 -1 -135v-210q0 -63 12 -111q12 -47 41 -81t76 -50q49 -17 119 -17q61 0 107 13q49 14 83 45
q35 32 53 83t18 128v191q0 102 -1 135q-1 49 -9 76q-8 28 -22 39q-13 11 -41 22v13h151v-13q-22 -11 -33 -22q-12 -12 -18 -39q-5 -24 -7 -76q-1 -33 -1 -135v-191q0 -79 -20 -134q-19 -53 -57 -88q-37 -34 -88 -49t-114 -15z" />
    <glyph glyph-name="V" unicode="V" horiz-adv-x="767" 
d="M108 597l-4 1q-16 38 -27 63q-10 24 -20 41q-10 16 -18 23q-9 7 -23 12v13h174v-13q-15 -3 -21 -7q-7 -4 -9 -15t3 -27q6 -21 16 -44l238 -546l225 526q14 35 17 46q6 18 4 33q-1 13 -12 21t-33 12v13h130v-13q-12 -4 -21 -9q-10 -5 -18 -16q-11 -14 -20 -33
q-11 -21 -27 -57l-269 -628h-21z" />
    <glyph glyph-name="W" unicode="W" horiz-adv-x="1054" 
d="M95 623l-6 -5q-3 8 -9 23.5t-9 22.5q-7 20 -15 33q-7 13 -17 21t-23 14v14h165v-14q-12 -3 -21 -8q-7 -4 -9 -14q-1 -9 3 -24q7 -22 13 -39l225 -559l125 305l-93 226q-12 31 -19 46q-11 25 -16 33q-7 14 -18 21t-24 12v14h169v-14q-15 -3 -21 -7q-7 -4 -10 -14
q-3 -8 2 -24q4 -13 15 -40l68 -168l61 143q9 21 15 39t6 32q0 13 -8 24t-26 17v14h112v-14q-12 -5 -21 -9q-10 -5 -18 -16q-10 -13 -18 -31q-9 -19 -24 -54l-70 -164l148 -366l206 529q11 27 14 40q5 18 3 32q-1 13 -11 24t-31 17v14h126v-14q-8 -3 -22 -11q-10 -6 -19 -18
q-6 -8 -19 -32q-9 -16 -22 -51l-245 -630h-21l-157 382l-156 -382h-21z" />
    <glyph glyph-name="X" unicode="X" horiz-adv-x="758" 
d="M22 13l-2 -5q15 6 31 15q15 9 30 24t33 36t42 51l181 228l-193 257q-26 33 -42 54t-30 33q-14 13 -25 18q-10 5 -25 10v13h205v-13q-15 -1 -25 -8q-9 -6 -9 -18t11 -32q10 -20 33 -48l158 -210l160 198q49 61 49 87q0 25 -41 33v13h144v-13q-16 -6 -29 -14t-26 -21
q-7 -7 -31 -35q-16 -18 -46 -55l-167 -206l200 -266q32 -43 43 -57q20 -25 31 -36q14 -14 25 -21q12 -7 27 -12v-13h-206v13q18 5 27 12q9 8 8 21q-2 15 -13 35q-13 23 -36 53l-165 219l-174 -219q-45 -57 -42 -84q3 -26 42 -37v-13h-153v13z" />
    <glyph glyph-name="Y" unicode="Y" horiz-adv-x="723" 
d="M262 13l-2 -3q20 7 33 17q12 9 18 35q5 23 7 75q2 66 2 133v80l-187 270q-7 11 -19 28t-13 18q-12 17 -26 33q-12 13 -25 22q-14 9 -30 15v13h196v-13q-25 -4 -33 -20q-7 -15 15 -49l195 -282l171 238q36 49 42 77q6 27 -32 36v13h126v-13q-13 -5 -22 -10q-10 -6 -24 -18
q-12 -10 -30 -32q-15 -17 -39 -53l-180 -256v-95q0 -67 2 -133q1 -47 8 -75q6 -26 18 -35q11 -8 33 -16v-13h-204v13z" />
    <glyph glyph-name="Z" unicode="Z" horiz-adv-x="708" 
d="M543 734l-280 -2q-52 0 -81 -7q-33 -8 -53 -22q-22 -16 -35 -40q-14 -27 -27 -61h-16l25 147h575l-520 -734h314q57 0 95 8q36 7 59 26q23 18 36 48q12 26 25 74h16l-19 -171h-626z" />
    <glyph glyph-name="bracketleft" unicode="[" horiz-adv-x="323" 
d="M290 793v-16h-144v-867h144v-16h-209v899h209z" />
    <glyph glyph-name="backslash" unicode="\" horiz-adv-x="515" 
d="M534 -155l-22 -11l-487 961l22 12z" />
    <glyph glyph-name="bracketright" unicode="]" horiz-adv-x="322" 
d="M242 -106h-209v16h143v867h-143v16h209v-899z" />
    <glyph glyph-name="asciicircum" unicode="^" horiz-adv-x="436" 
d="M210 756h16l177 -268l-16 -11l-169 256l-169 -256l-16 11z" />
    <glyph glyph-name="underscore" unicode="_" horiz-adv-x="396" 
d="M-6 -86h408v-20h-408v20z" />
    <glyph glyph-name="grave" unicode="`" horiz-adv-x="446" 
d="M154 650l-1 -1q-9 7 -18 17q-7 8 -7 20t9 21t23 9t21 -7t18 -21l107 -141l-9 -11z" />
    <glyph glyph-name="a" unicode="a" horiz-adv-x="479" 
d="M159 -7l-7 1q-58 0 -92 27q-35 27 -35 81q0 32 12 51q12 20 32 35q20 16 47 26q18 7 56 23l69 29q24 10 39 21q16 11 23 21q8 11 11 20t3 17v51q0 44 -27 59t-70 15q-41 0 -56 -12t-26 -29q-10 -15 -21 -25q-11 -9 -25 -9q-19 0 -28 9t-9 23t13 24q14 11 36 18
q23 8 52 12q27 4 63 4q35 0 63 -4q33 -5 57 -16q26 -12 42 -34q17 -23 17 -58v-228q0 -36 2 -70q2 -25 6 -39q5 -14 12 -17q8 -3 21 -3q9 0 19 3q7 2 19 8l6 -12q-3 -3 -23 -13q-18 -9 -46 -9q-52 0 -72 23t-20 60v4l-25 -23q-16 -14 -25 -22q-14 -12 -30 -21
q-17 -9 -37 -15q-21 -6 -46 -6zM105 106l-2 -2q0 -48 18 -67t53 -19q36 0 62 17q24 15 51 41l27 25v193q-7 -9 -24 -22q-18 -13 -48 -26l-52 -22q-46 -19 -66 -47q-19 -26 -19 -71z" />
    <glyph glyph-name="b" unicode="b" horiz-adv-x="598" 
d="M292 -11l-9 1q-36 0 -63 6q-23 5 -48 14l-20 7.5t-17 6.5q-17 6 -28 6t-15 -6t-6 -11h-15v571v67q0 23 -5 35q-5 11 -15 14q-8 2 -30 4v16l130 63v-411l24 26q35 38 78 63t93 25q40 0 78 -15q37 -15 67 -45t48 -75t18 -103q0 -61 -21 -109t-57 -81t-84 -51t-103 -18z
M178 30l-4 1q21 -11 47 -17q27 -6 59 -6q34 0 67 9t59 35t42 69q16 42 16 113q0 79 -13 122q-14 46 -34 69q-21 24 -46 31q-24 7 -49 7q-46 0 -81 -25q-37 -27 -71 -63l-24 -26v-253q0 -22 6 -39q6 -16 26 -27z" />
    <glyph glyph-name="c" unicode="c" horiz-adv-x="493" 
d="M287 -10l-10 -4q-48 0 -93 18q-46 18 -80 51q-36 34 -56 79q-21 46 -21 102q0 57 24 102q25 47 61 77q39 32 84 50q47 18 91 18q32 0 65 -5q29 -4 53 -14q22 -9 36 -23q13 -13 13 -30q0 -14 -9 -26t-30 -12q-13 0 -21 5q-8 4 -12 12q-5 9 -8 18q-2 7 -8 21q-5 12 -10 18
q-6 8 -13 12t-20 6q-16 2 -31 2q-30 0 -63 -11q-32 -11 -57 -37q-26 -27 -42 -70q-16 -42 -16 -108q0 -67 15 -110q15 -44 40 -70t60 -37q36 -11 73 -11q52 0 90 18q37 18 64 48l12 -12q-31 -36 -73 -56q-43 -21 -108 -21z" />
    <glyph glyph-name="d" unicode="d" horiz-adv-x="600" 
d="M263 -9l-4 -4q-41 0 -81 15t-72 45q-31 30 -51 74q-19 42 -19 102q0 59 20 108q20 48 54 81t81 51t101 18q39 0 75 -13q37 -13 73 -45v157v66q0 23 -5 36q-5 12 -16 15q-9 2 -34 4v16l134 63v-617q0 -54 1 -72q2 -28 7 -43q6 -16 18 -24q11 -7 33 -13v-13h-136v97
l-29 -31q-6 -6 -26 -24q-16 -14 -34 -24q-19 -10 -42 -18q-21 -7 -48 -7zM439 115l-3 288q-38 35 -75 48q-39 14 -72 14q-31 0 -63 -12t-56 -39t-39 -70q-15 -44 -15 -106q0 -74 15 -119q15 -44 38 -69q23 -24 50 -32q29 -8 51 -8t42 6q19 6 38 17q18 11 33 24t27 27z" />
    <glyph glyph-name="e" unicode="e" horiz-adv-x="506" 
d="M287 -11v-4q-46 0 -91 15t-81 45q-35 29 -58 77q-22 45 -22 110q0 59 23 107q22 47 57 78q34 31 77 48t83 17q34 0 67 -9q34 -9 60 -28q27 -19 46 -52q19 -32 25 -81h-347q-4 -21 -5 -36q-2 -26 -2 -42q0 -65 15 -107t41 -68q25 -25 60 -36q33 -10 73 -10q92 0 147 51
l9 -13q-28 -29 -72 -45q-45 -17 -105 -17zM275 466l1 -2q-22 0 -43 -7q-23 -7 -42 -24t-36 -42q-16 -24 -25 -63h265q-3 44 -13 69q-10 27 -27 42t-37 21q-21 6 -43 6z" />
    <glyph glyph-name="f" unicode="f" horiz-adv-x="280" 
d="M32 13l-5 -2q18 7 26 13q10 8 14 24t6 44q1 18 1 72v291h-61v14q22 5 32 10q13 6 20 18q7 11 10 30q3 18 3 47v20q0 50 12 83q12 32 32 54q19 21 44 30q24 9 48 9q39 0 66 -15t27 -40q0 -12 -7 -22t-24 -10q-20 0 -26 8q-5 7 -10 24q-6 26 -12 32t-21 6q-27 0 -40 -24
q-13 -23 -13 -93v-161h113v-19h-113v-291q0 -36 2 -72q1 -26 9 -43t22 -24q13 -6 41 -13v-13h-196v13z" />
    <glyph glyph-name="g" unicode="g" horiz-adv-x="496" 
d="M235 -168l-14 -1q-43 0 -82 6q-37 6 -69 20q-30 13 -48 33t-18 47q0 18 9 33q8 14 23 27q13 11 32 21q24 12 37 17q-31 7 -48 26q-16 17 -16 43q0 15 6 27q5 11 14 21q8 9 17 17q12 10 17 14l16 12q-35 18 -59 50q-24 31 -24 77q0 39 18 69t47 50q29 19 63 30
q36 11 66 11q25 0 52 -6q28 -6 52 -19q12 10 25 18q15 9 30 15q20 8 30 11q13 4 27 4q20 0 27 -9q8 -10 8 -25t-8 -23t-18 -8t-17 4l-15 9l-15 9q-7 4 -15 4q-14 0 -23 -3q-7 -2 -19 -11q36 -20 59 -52q24 -33 24 -78q0 -40 -18 -68q-18 -29 -47 -47t-63 -27t-66 -9
q-20 0 -47 5q-25 5 -47 15l-17 -12q-13 -11 -24 -21q-10 -10 -10 -24q0 -13 12 -19q11 -5 33 -7l203 -24q37 -5 56 -10q25 -6 41 -18q17 -13 26 -30q9 -18 9 -44q0 -31 -16 -57q-17 -28 -46 -48q-30 -21 -73 -33t-97 -12zM220 187l1 -1q27 0 48 7q23 7 39 24q17 17 26 42
t9 63t-9 65q-9 26 -26 45q-16 18 -39 27t-48 9q-50 0 -84 -34q-35 -35 -35 -111q0 -37 9 -63q9 -25 26 -42q16 -16 38 -24q20 -7 45 -7zM62 -58v1q0 -44 41 -70q40 -25 119 -25q50 0 84 10t60 26q24 15 36 33t12 35q0 34 -28 44q-29 11 -70 15l-183 22q-35 -15 -53 -36
t-18 -55z" />
    <glyph glyph-name="h" unicode="h" horiz-adv-x="578" 
d="M33 13l-4 -5q18 7 26 13q10 8 14 24t6 44q1 18 1 72v423v66q0 23 -5 36q-5 12 -15 15q-8 2 -30 4v16l129 59v-422l49 44q35 32 74 56t87 24q67 0 99 -31q33 -31 33 -100v-187v-72q0 -25 5 -43q4 -16 14 -24q8 -6 26 -13v-13h-175v13q20 7 29 13q10 7 15 24q4 16 6 44
q1 18 1 72v208q0 47 -21 65t-56 18q-32 0 -63 -19q-33 -21 -72 -55l-49 -44v-173q0 -54 1 -72q1 -26 6 -43q4 -16 15 -24q9 -6 29 -13v-13h-175v13z" />
    <glyph glyph-name="i" unicode="i" horiz-adv-x="248" 
d="M120 571v-1q-19 0 -33 14t-14 33t14 33t33 14q20 0 33 -13q14 -14 14 -33t-14 -33t-33 -14zM32 12l-2 -1q21 6 30 13q10 8 15 24q4 16 6 44q1 18 1 72v116v67q0 23 -5 36q-4 11 -15 16q-9 4 -30 7v15l131 60v-317q0 -54 1 -72q1 -26 6 -43q4 -17 15 -24q9 -7 30 -13v-13
h-183v13z" />
    <glyph glyph-name="j" unicode="j" horiz-adv-x="237" 
d="M117 571v-1q-19 0 -33 14t-14 33t14 33t33 14q20 0 33 -13q14 -14 14 -33t-14 -33t-33 -14zM-21 -154l-1 -1q-16 0 -30 9q-13 9 -13 27q0 17 10 26q11 9 24 9q11 0 21 -5q6 -3 16 -11t15 -11q8 -5 15 -5q8 0 15 6q5 3 9 9q5 7 8 18t6 35q3 22 3 60v264v68q0 23 -5 36
t-15 17q-12 5 -30 8v15l130 60v-439q0 -31 -9 -57q-9 -25 -24 -46q-16 -22 -31 -36q-12 -11 -32 -25q-27 -18 -47 -25q-18 -6 -35 -6z" />
    <glyph glyph-name="k" unicode="k" horiz-adv-x="512" 
d="M33 13h-2q18 7 26 13q9 8 14 23t6 42q1 18 1 72v444v54q0 21 -4 29q-5 9 -13 12q-7 2 -26 4v16l123 60v-530l203 152q31 24 27 39t-30 18v14h134v-14q-25 -7 -50 -22q-30 -18 -65 -45l-155 -115l228 -225q4 -4 11 -10.5t9 -8.5q6 -6 14 -12q2 -2 6 -4.5t5 -2.5q3 -2 9 -4
v-13h-173v13q25 4 28 15t-28 42l-174 176v-83q0 -54 1 -72q2 -27 6 -42q4 -14 15 -22q9 -6 29 -13v-13h-175v13z" />
    <glyph glyph-name="l" unicode="l" horiz-adv-x="248" 
d="M32 13l-2 -1q21 6 30 13q10 7 15 24q4 16 6 44q1 18 1 72v415v70q0 25 -5 38q-5 12 -15 15q-8 2 -32 4v16l133 59v-617q0 -54 1 -72q1 -26 6 -43q4 -16 15 -24q9 -7 30 -13v-13h-183v13z" />
    <glyph glyph-name="m" unicode="m" horiz-adv-x="856" 
d="M33 13l-5 -6q18 7 26 13q10 8 14 24t6 44q1 18 1 72v116v67q0 23 -5 36q-4 11 -15 16t-30 9v15l131 60v-102l17 15q9 8 36 31q21 18 40 30q22 14 43 21q24 8 45 8q59 0 90 -25q32 -26 38 -81l19 17q9 8 36 31q21 18 40 30q22 14 43 21q24 8 45 8q65 0 96 -31
q32 -32 32 -100v-187v-72q0 -25 5 -43q4 -16 14 -24q8 -6 26 -13v-13h-175v13q20 7 29 13q11 8 15 24t6 44q1 18 1 72v208q0 47 -21 65t-54 18q-32 0 -65 -24q-30 -22 -73 -60l-18 -16v-192v-72q0 -25 5 -43q4 -16 14 -24q8 -6 26 -13v-13h-175v13q20 7 29 13q11 8 15 24
t6 44q1 18 1 72v208q0 47 -21 65t-54 18q-32 0 -65 -24q-30 -22 -73 -60l-17 -15v-193q0 -54 1 -72q1 -26 6 -43q4 -16 15 -24q9 -6 29 -13v-13h-175v13z" />
    <glyph glyph-name="n" unicode="n" horiz-adv-x="577" 
d="M33 13l-6 -5q18 7 26 13q10 8 14 24t6 44q1 18 1 72v116v67q0 23 -5 36q-4 11 -15 16q-10 4 -30 9v15l130 60v-123l50 45q35 32 74 56t87 24q67 0 99 -31q33 -31 33 -100v-187v-72q0 -25 5 -43q4 -16 14 -24q8 -6 26 -13v-13h-175v13q20 7 29 13q10 7 15 24q4 16 6 44
q1 18 1 72v208q0 47 -21 65t-56 18q-32 0 -63 -19q-33 -21 -72 -55l-50 -45v-172q0 -54 1 -72q1 -26 6 -43q5 -16 15 -24q9 -6 29 -13v-13h-174v13z" />
    <glyph glyph-name="o" unicode="o" horiz-adv-x="576" 
d="M287 -11v-2q-42 0 -88 17q-45 16 -81 48q-37 32 -59 78q-23 48 -23 105q0 56 23 104q22 46 59 78t81 50q45 18 88 18t88 -18q46 -18 81 -49q36 -32 60 -78t24 -103q0 -59 -24 -105t-60 -78t-81 -48q-46 -17 -88 -17zM287 3q36 0 67 12q32 12 54 39t36 72q13 43 13 109
q0 63 -13 105q-14 44 -36 72t-54 42q-30 13 -67 13t-66 -13q-31 -14 -53 -42t-36 -72q-13 -42 -13 -105q0 -66 13 -109q14 -45 36 -72t53 -39q30 -12 66 -12z" />
    <glyph glyph-name="p" unicode="p" horiz-adv-x="599" 
d="M32 -147l-5 -1q18 7 26 13q10 8 14 24t6 44q1 18 1 72v276v67q0 23 -5 36q-4 11 -15 16q-10 4 -30 9v15l130 60v-113l15 15q43 43 89 73q43 28 95 28q41 0 78 -15t66 -45t45 -75q17 -46 17 -108q0 -64 -19 -111q-19 -48 -52 -79q-34 -33 -76 -47q-44 -15 -93 -15
q-35 0 -78 12q-42 12 -85 47v-46q0 -54 1 -72q1 -26 6 -43q5 -16 15 -24q9 -7 30 -13v-13h-176v13zM151 345l-2 -276q43 -37 86 -51q40 -13 77 -13q30 0 57 10q29 11 51 36t36 69q14 45 14 108q0 76 -13 121q-14 47 -33 71q-20 24 -44 32q-26 8 -48 8q-45 0 -80 -25
q-38 -27 -86 -75z" />
    <glyph glyph-name="q" unicode="q" horiz-adv-x="594" 
d="M390 -147l-1 2q21 6 30 13q11 8 15 24t6 44q1 18 1 72v86l-20 -21q-31 -35 -75 -57q-43 -22 -90 -22q-45 0 -87 17q-39 16 -70 47t-47 72q-17 43 -17 93q0 59 20 108t54 83t83 54q47 19 104 19q38 0 65 -7q32 -8 51 -16q32 -13 39 -16q15 -7 27 -7q11 0 17 6q5 5 10 23
h16v-465q0 -54 1 -72q1 -26 6 -43t13 -24q8 -6 26 -13v-13h-177v13zM121 242l-2 -1q0 -69 14 -114q14 -44 36 -68t50 -33q27 -9 53 -9q39 0 77 22q40 23 71 57l20 21v253q0 29 -7 46q-8 19 -36 35q-40 23 -101 23q-33 0 -63 -13q-31 -13 -57 -42q-25 -28 -40 -72
q-15 -43 -15 -105z" />
    <glyph glyph-name="r" unicode="r" horiz-adv-x="372" 
d="M33 13l-3 -7q18 7 26 13q10 8 14 24t6 44q1 18 1 72v108v72q0 24 -5 39q-4 14 -15 18t-30 9v15l131 60v-131l58 63q36 38 57 53q23 17 48 17q22 0 29 -10q8 -11 8 -24q0 -16 -9 -28t-23 -12q-19 0 -33 8t-31 8q-10 0 -21 -8t-24 -24l-58 -63v-164q0 -54 1 -72
q1 -26 6 -43q4 -16 15 -24q9 -7 30 -13v-13h-178v13z" />
    <glyph glyph-name="s" unicode="s" horiz-adv-x="442" 
d="M216 7l-2 -9q61 0 97 30t36 75q0 43 -33 66q-34 23 -111 38q-84 17 -123 45t-39 89q0 31 14 57q13 24 38 43q24 18 55 27q32 9 66 9q28 0 44 -4q18 -5 33 -9q13 -4 25 -9q9 -4 21 -4q16 0 19 14h17v-109h-17q-20 53 -54 80q-35 27 -88 27q-55 0 -90 -22q-36 -23 -36 -69
q0 -39 31 -57q30 -17 103 -31q50 -9 84 -21q37 -13 56 -28q21 -17 30 -37q9 -21 9 -49q0 -38 -16 -67q-17 -30 -42 -51q-26 -22 -60 -32q-36 -11 -69 -11q-31 0 -52 6q-25 7 -38 13q-3 2 -13.5 6.5t-15.5 6.5q-12 6 -24 6q-17 0 -20 -18h-18v131h17q7 -28 21 -52
q13 -24 33 -42q19 -17 48 -28q27 -10 64 -10z" />
    <glyph glyph-name="t" unicode="t" horiz-adv-x="295" 
d="M179 -7l-1 -2q-52 0 -81 27q-28 27 -28 72v364h-44v14q38 5 68 42q31 38 38 120h15v-156h115v-19h-115v-328q0 -57 11 -85q11 -27 47 -27q23 0 38 9q17 10 23 19l10 -8q-7 -12 -30 -27t-66 -15z" />
    <glyph glyph-name="u" unicode="u" horiz-adv-x="565" 
d="M206 -9l-8 -10q-62 0 -96 32q-33 31 -33 99v152v72q0 24 -5 39q-4 13 -15 18t-30 9v15l131 60v-389q0 -43 20 -60q19 -16 54 -16q26 0 62 17q34 16 83 59l33 29v152v72q0 24 -5 39q-5 14 -15 18t-30 9v15l131 60v-317q0 -54 1 -72q2 -28 7 -43q6 -16 18 -24q11 -7 34 -13
v-13h-137v99l-33 -29q-40 -36 -83 -58q-40 -21 -84 -21z" />
    <glyph glyph-name="v" unicode="v" horiz-adv-x="500" 
d="M79 355l-2 -2q-13 31 -24 51q-9 16 -18 31q-8 13 -15 17q-10 6 -16 8v13h160v-13q-14 -2 -21 -6t-9 -15q-2 -12 4 -30q5 -15 20 -51l124 -278l113 254q19 42 23 65q5 25 2 38t-15 18t-27 6v13h119v-13q-9 -3 -18 -8q-7 -4 -16 -18q-10 -15 -21 -37q-14 -28 -30 -64
l-152 -341h-20z" />
    <glyph glyph-name="w" unicode="w" horiz-adv-x="723" 
d="M76 355l-1 4q-13 31 -24 51q-11 21 -19 30q-10 11 -16 15q-10 6 -15 8v13h165v-13q-15 -1 -24 -6q-9 -4 -10 -16q-2 -13 4 -31q6 -20 18 -51l111 -275l95 208l-25 64q-20 47 -22 51q-8 18 -18 31t-18 17q-12 6 -19 8v13h167v-13q-15 -1 -24 -6q-9 -4 -10 -16
q-2 -13 4 -31q6 -20 18 -51l107 -270l102 248q16 38 22 64q6 24 3 37t-14 18t-25 6v13h114v-13q-10 -3 -16 -7q-7 -4 -16 -18q-10 -15 -21 -37q-10 -21 -28 -64l-141 -343h-20l-111 278l-128 -278h-19z" />
    <glyph glyph-name="x" unicode="x" horiz-adv-x="511" 
d="M21 13h1q20 7 30 13q12 8 24 18q14 12 26 27q10 13 33 44l87 116l-93 129q-16 22 -38 51q-15 19 -27 30t-21 15q-12 6 -18 8v13h171v-13q-14 -2 -21 -6t-7 -14t9 -26q10 -19 28 -42l71 -98l65 88q20 27 30 47q9 18 9 30q0 13 -7 17q-8 5 -19 6v13h119v-13q-17 -5 -26 -9
q-10 -4 -22 -15q-14 -12 -27 -28q-21 -25 -38 -49l-74 -100l103 -142q17 -24 36 -49q8 -11 26 -31q10 -11 20 -18q9 -6 18 -9v-13h-168v13q29 4 30 21t-33 63l-86 119l-79 -104q-37 -49 -40 -72q-3 -22 29 -30v-13h-121v13z" />
    <glyph glyph-name="y" unicode="y" horiz-adv-x="493" 
d="M112 -165l3 -2q-25 0 -35 10q-11 11 -11 24q0 15 9 24t26 9t29 -9t24 -9q7 0 14 4q9 5 17 15q9 11 21 30q14 22 26 51l5 12l-162 362q-19 40 -25 51q-11 19 -18 30t-15 15q-10 6 -16 8v13h160v-13q-11 -1 -19 -6q-7 -4 -9 -15t3 -29q4 -17 18 -49l124 -278l114 254
q16 39 21 62q4 23 0 36t-16 19q-13 7 -27 8v13h119v-13q-8 -1 -16 -6q-7 -4 -16 -18q-10 -15 -21 -37q-12 -24 -30 -63l-159 -353q-38 -84 -72 -117t-66 -33z" />
    <glyph glyph-name="z" unicode="z" horiz-adv-x="472" 
d="M428 -13l1 2q-5 3 -17 7q-7 2 -25 4q-22 2 -43 2h-69h-258l331 459h-147q-45 0 -72 -6q-26 -6 -43 -18q-16 -11 -25 -30q-10 -20 -18 -40h-15l23 122q6 -4 19 -7q9 -2 30 -4q24 -2 43 -2h63h240l-334 -459h167q42 0 66 6q23 6 39 20t26 36q12 26 23 56h15z" />
    <glyph glyph-name="braceleft" unicode="{" horiz-adv-x="326" 
d="M293 -106l-2 -6q-42 0 -84 8q-38 7 -68 23q-28 15 -45 38q-16 22 -16 54q0 33 12 64q8 21 26 61t26 59q12 29 12 54q0 13 -3 28q-3 16 -16 27q-14 13 -42 20q-30 8 -81 8v16q51 0 81 8q28 7 42 20q14 12 17 26t3 27q0 25 -12 54q-8 19 -26 59t-26 61q-12 31 -12 64
q0 31 17 54t45 38q30 16 68 23q42 8 84 8v-18q-80 0 -115 -22q-36 -22 -36 -79q0 -27 9 -57q6 -20 20 -60q17 -49 20 -58q9 -28 9 -54q0 -40 -27 -66t-88 -33q61 -7 88 -34t27 -67q0 -26 -9 -54q-3 -9 -20 -58q-14 -40 -20 -60q-9 -30 -9 -57q0 -57 36 -79q35 -22 115 -22
v-18z" />
    <glyph glyph-name="bar" unicode="|" horiz-adv-x="300" 
d="M163 820v-926h-26v926h26z" />
    <glyph glyph-name="braceright" unicode="}" horiz-adv-x="325" 
d="M33 -88l-2 -7q77 0 114 23q36 23 36 80q0 27 -9 57q-6 20 -20 60t-20 59q-9 28 -9 54q0 41 27 68q26 26 88 34q-61 7 -88 33q-27 25 -27 66q0 25 9 54q6 19 20 59t20 60q9 30 9 57q0 57 -36 80q-37 23 -114 23v18q41 0 83 -8q38 -7 68 -23q28 -15 45 -38t17 -54
q0 -33 -12 -64q-8 -21 -26 -61q-25 -55 -26 -58q-12 -28 -12 -54q0 -14 3 -27q3 -14 17 -26q13 -11 42 -19q27 -7 81 -7v-16q-54 0 -81 -7q-29 -8 -42 -19t-16 -27q-3 -15 -3 -28q0 -26 12 -54q1 -3 26 -58q18 -40 26 -61q12 -32 12 -64t-16 -54q-17 -23 -45 -38
q-30 -16 -68 -23q-42 -8 -83 -8v18z" />
    <glyph glyph-name="asciitilde" unicode="~" horiz-adv-x="387" 
d="M128 407l-3 -2q15 0 35 -3q26 -4 40 -6t40 -6q20 -3 33 -3q11 0 27 9t31 39l12 -6q-15 -49 -34 -68q-20 -20 -43 -20q-16 0 -36 3q-26 4 -40 6t-40 6q-20 3 -33 3q-8 0 -12 -1q-7 -2 -14 -6q-8 -4 -17 -14q-7 -7 -19 -26l-12 6q18 47 39 68t46 21z" />
    <glyph glyph-name="uni00A0" unicode="&#xa0;" horiz-adv-x="227" 
 />
    <glyph glyph-name="exclamdown" unicode="&#xa1;" horiz-adv-x="256" 
d="M121 267h-2h19q3 -111 10 -187q8 -84 15 -147q10 -86 13 -106q6 -43 6 -66q0 -29 -15 -45t-38 -16t-38 16t-15 45q0 23 6 66q10 73 14 106q8 63 15 147q7 76 10 187zM131 471q23 0 38 -15t15 -38t-15 -38t-38 -15t-38 15t-15 38t15 38t38 15z" />
    <glyph glyph-name="cent" unicode="&#xa2;" horiz-adv-x="496" 
d="M290 582l-2 -96q38 0 69 -6t54 -15q22 -9 36 -23q13 -13 13 -30q0 -14 -9 -26t-30 -12q-13 0 -21 5t-12 12q-5 9 -8 18q-2 7 -8 21q-5 12 -10 18q-6 8 -15 12q-9 5 -22 6q-18 2 -34 2v-455q63 0 101 20t65 50l12 -12q-29 -34 -69 -56q-41 -23 -108 -26v-92h-22v92
q-43 2 -84 19q-42 18 -75 51t-54 78t-21 101q0 54 21 98t54 75t75 51q41 19 82 22v98h22zM115 244q0 -61 12 -103t33 -69q20 -26 48 -40q26 -13 57 -16v453q-28 -3 -54 -16q-28 -14 -48 -40q-22 -28 -35 -69q-13 -40 -13 -100z" />
    <glyph glyph-name="sterling" unicode="&#xa3;" horiz-adv-x="599" 
d="M122 61l-5 1q30 30 51 58q23 31 23 59q0 25 -4 44q-5 21 -12 42h-110v18h103q-8 23 -18 45l-21 45h-64v18h56q-13 35 -24 72q-11 39 -11 80q0 45 20 85t54 68q35 29 81 44q47 15 99 15q56 0 96 -12q42 -12 66 -28t37 -35q12 -18 12 -31q0 -15 -9 -27t-28 -12
q-20 0 -33 11q-11 10 -19 27l-9 27q-4 14 -17 30q-12 15 -34 24t-60 9q-47 0 -78 -16q-32 -17 -51 -43q-20 -28 -29 -64q-9 -37 -9 -79q0 -40 9 -76q7 -30 20 -71h224v-18h-218l15 -45q7 -22 12 -45h190v-18h-187q4 -17 4 -42q0 -27 -9 -49q-10 -25 -22 -41q-15 -20 -28 -33
q-10 -10 -30 -28h196q48 0 98 2q35 1 60 8q22 6 34 18t21 32h18l-22 -85q-2 -5 -4 -12.5t-3 -10.5q-3 -11 -7 -14q-4 -4 -11 -6q-8 -2 -18 -2h-456z" />
    <glyph glyph-name="yen" unicode="&#xa5;" horiz-adv-x="641" 
d="M93 207l186 -5v92h-190v18h190v49l-153 257q-6 11 -16.5 27.5t-12.5 19.5q-12 19 -24 33t-24 21q-15 9 -28 14v13h190v-13q-22 -4 -31 -19t12 -49l162 -272l135 228q32 54 35 78q3 26 -34 35v13h126v-13q-13 -5 -22 -10t-22 -18t-27 -34q-18 -27 -35 -57l-143 -242v-58
h191v-18h-191v-92h191v-18h-191q2 -63 4 -87q3 -32 9 -50q6 -17 18 -25q10 -6 30 -13v-13h-204v13q18 6 29 14t17 26t9 50q2 24 4 87h-190v18z" />
    <glyph glyph-name="brokenbar" unicode="&#xa6;" horiz-adv-x="300" 
d="M163 820v-380h-26v380h26zM163 -106h-26v380h26v-380z" />
    <glyph glyph-name="section" unicode="&#xa7;" horiz-adv-x="565" 
d="M265 -142l-10 -5q39 0 65 10q28 11 44 28q16 18 24 42q8 26 8 52q0 27 -10 48q-10 23 -33 45q-25 25 -57 50q-40 32 -84 62q-37 26 -82 60q-34 26 -60 53q-24 26 -36 52q-12 27 -12 59q0 50 27 82q26 30 65 49q-14 33 -14 66q0 39 15 69t42 51q28 22 63 32q38 11 77 11
q42 0 75 -9q32 -9 55 -24q22 -15 34 -31t12 -32q0 -13 -7 -21q-8 -9 -24 -9q-18 0 -28 9t-15 26q-6 16 -9 25q-4 13 -15 25q-10 12 -28 19q-17 7 -49 7q-65 0 -103 -29q-37 -28 -37 -80q0 -24 8 -45q8 -20 25 -39q19 -21 48 -41q9 -6 20.5 -14t27 -19t26.5 -18
q59 -40 102 -72t72 -60q29 -29 42 -55q14 -28 14 -60q0 -19 -6 -40q-6 -20 -18 -40q-13 -21 -28 -36q-17 -17 -36 -30q10 -23 10 -55q0 -40 -15 -75q-15 -34 -42 -58q-28 -25 -64 -38q-39 -14 -82 -14q-46 0 -81 13q-37 14 -63 34t-40 45t-14 46q0 11 8 21q8 9 23 9
q19 0 26 -10q8 -11 12 -25q8 -28 15 -47q8 -21 21 -36t36 -24t60 -9zM257 256q77 -55 119 -90q46 -38 65 -75q21 16 29 37q9 22 9 42q0 30 -12 55q-12 26 -37 51q-27 27 -66 56q-43 32 -101 71q-49 34 -87 65q-34 28 -54 60q-22 -9 -35 -27q-14 -19 -14 -48q0 -26 10 -46
t33 -43q22 -22 57 -48t84 -60z" />
    <glyph glyph-name="dieresis" unicode="&#xa8;" horiz-adv-x="446" 
d="M313 572v-1q-19 0 -33 14q-13 13 -13 33t13 33t33 13t33 -13t13 -33t-13 -33t-33 -13zM133 571v-1q-19 0 -33 14q-13 13 -13 33t13 33t33 13t33 -13t13 -33t-13 -33t-33 -13z" />
    <glyph glyph-name="copyright" unicode="&#xa9;" horiz-adv-x="844" 
d="M423 761q79 0 150 -30q70 -30 123 -83t83 -123q30 -71 30 -150t-30 -150q-30 -70 -83 -123t-123 -83q-71 -30 -150 -30t-150 30q-70 30 -123 83t-83 123q-30 71 -30 150t30 150q30 70 83 123t123 83q71 30 150 30zM423 4l-4 -4q74 0 143 29q68 29 117 78q50 50 80 117
q30 68 30 146t-30 146t-79 117q-50 49 -117 78q-69 29 -142 29q-76 0 -142 -28q-67 -28 -118 -78t-81 -117t-30 -145t30 -145t81 -117q51 -49 119 -78q66 -28 143 -28zM430 146l-1 -4q-51 0 -90 16q-41 17 -69 46q-29 31 -44 72q-15 42 -15 93q0 56 20 99q19 42 51 69
q33 28 69 41q39 14 75 14q26 0 44 -3q20 -3 30 -7l21 -7q9 -3 20 -3q13 0 17 16h11v-108h-11q-16 56 -51 78q-35 23 -81 23q-30 0 -57 -12q-28 -12 -47 -36q-19 -23 -31 -63q-12 -39 -12 -93q0 -57 14 -99q13 -40 36 -66q22 -25 51 -37q28 -12 57 -12q54 0 84 18
q31 19 47 39l8 -8q-7 -11 -19 -22q-11 -11 -30 -22q-17 -10 -42 -16q-24 -6 -55 -6z" />
    <glyph glyph-name="ordfeminine" unicode="&#xaa;" horiz-adv-x="360" 
d="M122 391l-1 -3q-42 0 -68 20t-26 60q0 23 9 38q10 16 24 26t35 18q7 3 22 9l20 8l53 22q36 15 45 32t9 27v38q0 31 -20 42t-51 11q-30 0 -41 -8q-10 -7 -18 -20q-9 -13 -18 -21q-8 -7 -21 -7q-14 0 -20 6t-6 17q0 12 9 21t26 15q16 6 39 9t48 3q24 0 48 -3q25 -3 44 -12
q21 -10 32 -25q12 -16 12 -42v-170q0 -24 2 -48q1 -15 5 -28q3 -10 9 -13t15 -3q13 0 27 8l6 -12q-5 -4 -19 -9q-15 -6 -37 -6q-41 0 -56 18t-15 47l-18 -18q-20 -18 -42 -32q-24 -15 -62 -15zM91 473h1q0 -34 12 -49t35 -15q27 0 45 12q20 13 38 30l20 19v139
q-7 -9 -19 -17q-11 -7 -36 -19l-38 -16q-31 -13 -45 -32q-13 -17 -13 -52z" />
    <glyph glyph-name="guillemotleft" unicode="&#xab;" horiz-adv-x="389" 
d="M189 222v16l141 155l11 -7l-86 -156l87 -156l-11 -7zM55 222v16l141 155l11 -7l-86 -156l87 -156l-11 -7z" />
    <glyph glyph-name="registered" unicode="&#xae;" horiz-adv-x="516" 
d="M259 760l-1 -1q46 0 87 -18t72 -48q31 -29 49 -72q18 -42 18 -88q0 -49 -18 -89q-18 -41 -49 -72t-72 -49t-87 -18t-88 18t-73 49t-49 72q-18 40 -18 89q0 47 18 89q18 43 49 72q32 30 73 48q42 18 89 18zM258 322l-2 -2q45 0 81 16q37 16 66 45t45 67q17 40 17 84
q0 46 -16 84t-45 67q-28 29 -66 45q-36 16 -81 16t-81 -16q-38 -16 -66 -45t-45 -66q-16 -36 -16 -83q0 -44 17 -84q16 -38 45 -67t66 -45q36 -16 81 -16zM168 431l-2 -1q7 2 9 4q4 4 5 10q2 10 2 20v35v85v34q0 12 -2 20q-2 7 -4 9q-4 4 -9 5v6h93q51 0 75 -15t24 -40
q0 -33 -27 -48t-61 -15h-5q20 -3 32 -15t18 -36q8 -30 15 -42t21 -12q8 0 12 3t6 6l4 -4q-2 -2 -12 -10q-8 -6 -21 -6q-17 0 -34 11t-24 45q-5 21 -9 33q-5 13 -9 17q-5 4 -12 6q-5 1 -19 1h-15v-38v-35q0 -9 2 -19q1 -6 5 -10q2 -2 9 -4v-6h-67v6zM216 648v-104h48
q59 0 59 52q0 26 -15 39q-14 13 -52 13h-40z" />
    <glyph glyph-name="macron" unicode="&#xaf;" horiz-adv-x="446" 
d="M335 617v-38h-219v38h219z" />
    <glyph glyph-name="degree" unicode="&#xb0;" horiz-adv-x="296" 
d="M148 757v-2q21 0 42 -8q20 -7 33 -21t21 -33q8 -21 8 -42t-8 -42q-7 -19 -21 -34q-13 -14 -33 -22q-21 -8 -42 -8q-45 0 -75 31q-30 32 -30 76q0 45 30 75t75 30zM65 650l1 -2q0 -20 6 -36t17 -29q9 -11 26 -19q14 -7 33 -7q38 0 60 27q23 28 23 65t-23 63t-60 26
q-35 0 -59 -25t-24 -63z" />
    <glyph glyph-name="twosuperior" unicode="&#xb2;" horiz-adv-x="338" 
d="M195 512h-4q38 0 50 1q21 2 29 4q10 3 15 9q5 7 9 16h11l-16 -56q-4 -12 -6 -16q-1 -3 -9 -3h-248l113 111q48 47 68 86q20 40 20 83q0 35 -15 59t-57 24q-20 0 -33 -5q-12 -5 -18 -12q-7 -8 -8 -15t-3 -10q-2 -13 -7 -20q-6 -8 -19 -8q-26 0 -26 23q0 18 29 38t89 20
q25 0 52 -5q25 -5 42 -16t28 -30q10 -17 10 -42q0 -27 -10 -48t-27 -43q-16 -21 -39 -42q-20 -18 -48 -40l-77 -63h105z" />
    <glyph glyph-name="threesuperior" unicode="&#xb3;" horiz-adv-x="360" 
d="M75 822l3 -7q2 9 3 12t6 3h231v-6l-150 -138q18 5 36 5q29 0 51 -7q24 -8 42 -21q19 -14 29 -34q11 -22 11 -48q0 -21 -11 -45q-10 -22 -31 -40q-20 -17 -49 -28q-30 -11 -66 -11q-28 0 -51 6t-39 15t-24 20t-8 21q0 9 6 16t17 7q13 0 17 -6q5 -7 8 -17q0 -1 1 -3
t1.5 -4.5t1.5 -4.5q3 -7 11 -15t21 -14t38 -6q27 0 46 10t31 27t18 36t6 39q0 42 -18 71t-58 29q-25 0 -43 -8q-16 -8 -33 -21l-7 7l134 125h-79h-54q-19 0 -30 -3t-15 -7t-9 -14h-11z" />
    <glyph glyph-name="acute" unicode="&#xb4;" horiz-adv-x="446" 
d="M141 547l107 140q10 12 20 21q8 7 22 7t21 -9q7 -8 7 -19q0 -12 -7 -20q-9 -10 -18 -17l-143 -114z" />
    <glyph glyph-name="paragraph" unicode="&#xb6;" horiz-adv-x="548" 
d="M260 369l-2 -4q-51 0 -93 12t-72 36q-31 25 -47 60q-17 37 -17 84t17 84q16 35 47 60q30 24 72 36t93 12h262v-13q-21 -6 -33 -15t-18 -36q-5 -24 -7 -78q-1 -34 -1 -139v-234q0 -93 -20 -158q-20 -64 -54 -101q-35 -38 -79 -54t-97 -16q-39 0 -59 13q-21 14 -21 37
q0 17 9 26t24 9q20 0 32 -9t23 -20t23 -20t32 -9t42 9t42 36q19 27 33 77q14 51 14 129v550h-83v-364h-62z" />
    <glyph glyph-name="periodcentered" unicode="&#xb7;" horiz-adv-x="228" 
d="M115 231q-23 0 -38 15t-15 38t15 38t38 15t38 -15t15 -38t-15 -38t-38 -15z" />
    <glyph glyph-name="cedilla" unicode="&#xb8;" horiz-adv-x="446" 
d="M263 0l-38 -53q39 -6 65 -25q27 -20 27 -48q0 -74 -156 -81l-1 15q58 4 81 18t23 33q0 21 -21 31t-59 12l-4 7l61 91h22z" />
    <glyph glyph-name="onesuperior" unicode="&#xb9;" horiz-adv-x="254" 
d="M70 465l-3 8q13 1 21 6t12 18t6 39q1 17 1 71v72q0 36 -1 48q-2 20 -4 27q-3 8 -11 10q-10 2 -23 2v10l96 66v-233q0 -54 1 -71q1 -22 5 -39q3 -13 11 -18q7 -5 21 -6v-10h-132z" />
    <glyph glyph-name="ordmasculine" unicode="&#xba;" horiz-adv-x="422" 
d="M210 386h-2q-31 0 -64 12q-32 12 -60 35q-26 22 -45 56q-18 33 -18 77t18 78t45 60t60 39q32 13 65 13t66 -13q35 -14 62 -39q27 -26 45 -60t18 -78t-18 -77q-19 -34 -45 -56q-28 -24 -61 -35q-34 -12 -66 -12zM208 400h-3q23 0 47 8q22 7 40 27q17 19 28 51q11 33 11 80
q0 50 -10 81q-11 34 -28 54q-18 21 -40 30t-46 9q-23 0 -45 -9t-40 -30q-17 -20 -28 -54q-10 -31 -10 -81q0 -47 11 -80q11 -32 28 -51q18 -20 40 -27q24 -8 45 -8z" />
    <glyph glyph-name="guillemotright" unicode="&#xbb;" horiz-adv-x="389" 
d="M47 74l87 156l-86 156l11 7l141 -155v-16l-142 -155zM181 74l87 156l-86 156l11 7l140 -155v-16l-141 -155z" />
    <glyph glyph-name="onequarter" unicode="&#xbc;" horiz-adv-x="503" 
d="M338 -7l-4 -2q1 -21 3 -34q1 -9 5 -19q3 -6 8 -10q6 -4 12 -5v-11h-108v11q6 1 12 5q5 4 8 10q4 9 5 20t3 35h-193v7l227 287h22v-251h70l-21 -43h-49zM278 34v188l-149 -188h149zM46 379h403v-12h-403v12zM182 463l-3 8q13 1 21 6t12 18t6 39q1 17 1 71v72q0 36 -1 48
q-2 20 -4 27q-3 8 -11 10q-10 2 -23 2v10l96 66v-233q0 -54 1 -71q1 -22 5 -39q3 -13 11 -18q7 -5 21 -6v-10h-132z" />
    <glyph glyph-name="onehalf" unicode="&#xbd;" horiz-adv-x="503" 
d="M50 381h403v-12h-403v12zM185 465l-3 8q14 1 21 6t12 18t6 39q1 17 1 71v72q0 36 -1 48q-2 20 -4 27q-3 8 -11 10q-10 2 -23 2v10l96 66v-233q0 -54 1 -71q1 -22 5 -39q3 -13 11 -18t21 -6v-10h-132zM277 -42h-4q38 0 50 1q21 2 29 4q10 3 15 9q5 7 9 16h11l-16 -56
q-4 -12 -6 -16q-1 -3 -9 -3h-248l113 111q48 47 68 86q20 40 20 83q0 35 -15 59t-57 24q-20 0 -33 -5q-12 -5 -18 -12q-7 -8 -8 -15t-3 -10q-2 -13 -7 -20q-6 -8 -19 -8q-26 0 -26 23q0 18 29 38t89 20q25 0 52 -5q25 -5 42 -16t28 -30q10 -17 10 -42q0 -27 -10 -48t-27 -43
q-16 -21 -39 -42q-20 -18 -48 -40l-77 -63h105z" />
    <glyph glyph-name="threequarters" unicode="&#xbe;" horiz-adv-x="503" 
d="M338 -7h-4q1 -20 3 -34q1 -12 5 -21q3 -6 8 -10q6 -4 12 -5v-11h-108v11q6 1 12 5q5 4 8 10q4 9 5 20t3 35h-193v7l227 287h22v-251h70l-21 -43h-49zM278 36v188l-149 -188h149zM46 381h403v-12h-403v12zM127 822l3 -7q2 9 3 12t6 3h231v-6l-150 -138q18 5 36 5
q29 0 51 -7q24 -8 42 -21q19 -14 29 -34q11 -22 11 -48q0 -21 -11 -45q-10 -22 -31 -40q-20 -17 -49 -28q-30 -11 -66 -11q-28 0 -51 6t-39 15t-24 20t-8 21q0 9 6 16t17 7q13 0 17 -6q5 -7 8 -17q0 -1 1 -3t1.5 -4.5t1.5 -4.5q3 -7 11 -15t21 -14t38 -6q27 0 46 10t31 27
t18 36t6 39q0 42 -18 71t-58 29q-25 0 -43 -8q-16 -8 -33 -21l-7 7l134 125h-79h-54q-19 0 -30 -3t-15 -7t-9 -14h-11z" />
    <glyph glyph-name="questiondown" unicode="&#xbf;" horiz-adv-x="419" 
d="M277 269l5 -2q-2 -47 -13 -83q-13 -42 -28 -71q-17 -33 -36 -63q-21 -32 -36 -61q-17 -32 -27 -64q-11 -35 -11 -72q0 -38 9 -64q9 -25 24 -40t36 -21t48 -6q24 0 35 9q10 9 18 23l10 20q6 12 9 17q4 7 12 12t21 5q19 0 28 -11t9 -24q0 -25 -36 -46t-111 -21
q-41 0 -75 10q-35 10 -64 30t-45 49t-16 69q0 38 15 71q16 35 37 63q25 33 49 60q27 30 51 63t42 69q17 35 22 79h18zM264 470q23 0 38 -15t15 -38t-15 -38t-38 -15t-38 15t-15 38t15 38t38 15z" />
    <glyph glyph-name="Agrave" unicode="&#xc0;" horiz-adv-x="795" 
d="M19 13l-1 -3q16 6 23 10q11 6 21 19q13 17 23 34q14 25 26 55l236 561q-14 25 -27 32q-14 7 -30 12v13h109q11 0 15 -4t10 -18l266 -601q14 -32 19 -42q8 -16 18 -31q8 -13 21 -22q10 -7 29 -16v-15h-178v15q32 6 32 27q0 23 -22 71l-52 118h-381l-42 -99q-6 -13 -12 -30
t-6 -33t9 -31q9 -14 33 -22v-13h-139v13zM547 243l-188 425l-179 -425h367zM274 830v-2q-44 14 -44 40q0 9 8 19q8 9 21 9q11 0 20 -3q8 -3 17 -8l165 -90l-5 -13z" />
    <glyph glyph-name="Aacute" unicode="&#xc1;" horiz-adv-x="795" 
d="M19 13l-1 -3q16 6 23 10q11 6 21 19q13 17 23 34q14 25 26 55l236 561q-14 25 -27 32q-14 7 -30 12v13h109q11 0 15 -4t10 -18l266 -601q14 -32 19 -42q8 -16 18 -31q8 -13 21 -22q10 -7 29 -16v-15h-178v15q32 6 32 27q0 23 -22 71l-52 118h-381l-42 -99q-6 -13 -12 -30
t-6 -33t9 -31q9 -14 33 -22v-13h-139v13zM547 243l-188 425l-179 -425h367zM257 795l164 92q12 6 18 8q9 3 20 3q13 0 21 -9q8 -10 8 -19q0 -26 -44 -40l-182 -48z" />
    <glyph glyph-name="Acircumflex" unicode="&#xc2;" horiz-adv-x="795" 
d="M19 13l-1 -3q16 6 23 10q11 6 21 19q13 17 23 34q14 25 26 55l236 561q-14 25 -27 32q-14 7 -30 12v13h109q11 0 15 -4t10 -18l266 -601q14 -32 19 -42q8 -16 18 -31q8 -13 21 -22q10 -7 29 -16v-15h-178v15q32 6 32 27q0 23 -22 71l-52 118h-381l-42 -99q-6 -13 -12 -30
t-6 -33t9 -31q9 -14 33 -22v-13h-139v13zM547 243l-188 425l-179 -425h367zM364 898l136 -106l-5 -11l-131 51l-131 -51l-5 11z" />
    <glyph glyph-name="Atilde" unicode="&#xc3;" horiz-adv-x="795" 
d="M19 13l-1 -3q16 6 23 10q11 6 21 19q13 17 23 34q14 25 26 55l236 561q-14 25 -27 32q-14 7 -30 12v13h109q11 0 15 -4t10 -18l266 -601q14 -32 19 -42q8 -16 18 -31q8 -13 21 -22q10 -7 29 -16v-15h-178v15q32 6 32 27q0 23 -22 71l-52 118h-381l-42 -99q-6 -13 -12 -30
t-6 -33t9 -31q9 -14 33 -22v-13h-139v13zM547 243l-188 425l-179 -425h367zM323 880l-6 3q4 0 26 -2q9 -1 34 -5t34 -5q22 -2 26 -2q7 0 24 9t33 39l12 -4q-13 -47 -35 -72q-21 -24 -43 -24q-5 0 -27 2q-11 1 -35 5q-26 4 -33 5q-20 2 -24 2q-10 0 -25 -9t-37 -43l-12 4
q17 51 41 74q25 23 47 23z" />
    <glyph glyph-name="Adieresis" unicode="&#xc4;" horiz-adv-x="795" 
d="M19 13l-1 -3q16 6 23 10q11 6 21 19q13 17 23 34q14 25 26 55l236 561q-14 25 -27 32q-14 7 -30 12v13h109q11 0 15 -4t10 -18l266 -601q14 -32 19 -42q8 -16 18 -31q8 -13 21 -22q10 -7 29 -16v-15h-178v15q32 6 32 27q0 23 -22 71l-52 118h-381l-42 -99q-6 -13 -12 -30
t-6 -33t9 -31q9 -14 33 -22v-13h-139v13zM547 243l-188 425l-179 -425h367zM469 788q-20 0 -32 13t-12 33t12 33t32 13t33 -13t13 -33t-13 -33t-33 -13zM255 788q-20 0 -33 13t-13 33t13 33t33 13t33 -13t13 -33t-13 -33t-33 -13z" />
    <glyph glyph-name="Aring" unicode="&#xc5;" horiz-adv-x="795" 
d="M19 13l-1 -3q16 6 23 10q11 6 21 19q13 17 23 34q14 25 26 55l236 561q-14 25 -27 32q-14 7 -30 12v13h109q11 0 15 -4t10 -18l266 -601q14 -32 19 -42q8 -16 18 -31q8 -13 21 -22q10 -7 29 -16v-15h-178v15q32 6 32 27q0 23 -22 71l-52 118h-381l-42 -99q-6 -13 -12 -30
t-6 -33t9 -31q9 -14 33 -22v-13h-139v13zM547 243l-188 425l-179 -425h367zM280 860q0 37 26 60t59 23t59 -23t26 -60q0 -38 -25 -60q-26 -23 -60 -23t-60 23q-25 22 -25 60zM317 860l-2 -2q0 -34 12 -51q12 -16 35 -16q22 0 36 17q13 16 13 51q0 33 -13 50q-14 18 -34 18
t-34 -18q-13 -17 -13 -49z" />
    <glyph glyph-name="AE" unicode="&#xc6;" horiz-adv-x="1095" 
d="M1010 750v2q11 0 15 -4q5 -4 9 -27l18 -102h-18q-15 39 -28 59q-15 22 -35 36q-19 14 -45 18q-28 5 -57 5h-242v-306h94q38 0 56 7q19 8 30 18q11 11 14 24l6 27h16v-172h-16l-6 27q-3 13 -14 24q-11 10 -30 18q-18 7 -56 7h-94v-396h261q34 0 60 3q25 3 45 17t35 39
q14 24 28 69h18l-13 -113q-1 -22 -8 -27q-5 -4 -22 -4h-549v13q20 6 32 15t18 32q7 25 8 65q2 56 2 116h-324l-78 -115q-29 -43 -29 -72t42 -43v-12h-142v12q7 3 21 11q12 7 23 18q12 12 27 33q26 36 38 54l370 546q12 18 15 30t0 19q-3 8 -14 11q-13 4 -25 5v13h544z
M542 260v461l-313 -461h313z" />
    <glyph glyph-name="Ccedilla" unicode="&#xc7;" horiz-adv-x="765" 
d="M427 -10l-1 4q-90 0 -163 32q-71 31 -121 84q-49 52 -75 122t-26 143q0 95 36 167q36 73 93 122t128 75q72 26 143 26q55 0 87 -7q39 -8 59 -16q36 -13 42 -16q17 -7 37 -7q25 0 32 28h16v-164h-16q-29 86 -95 125t-160 39q-65 0 -120 -21t-97 -64q-42 -44 -66 -109
q-24 -66 -24 -159q0 -101 26 -174q26 -72 69 -117t99 -66t114 -21q52 0 96 11q41 10 73 27q30 16 54 38q20 19 39 41l12 -11q-13 -18 -38 -42q-23 -21 -60 -43q-34 -20 -84 -34q-46 -13 -109 -13zM413 4l-38 -53q39 -6 65 -25q27 -20 27 -48q0 -74 -156 -81l-1 15
q58 4 81 18t23 33q0 21 -21 31t-59 12l-4 7l61 91h22z" />
    <glyph glyph-name="Egrave" unicode="&#xc8;" horiz-adv-x="651" 
d="M248 833v-2q-44 14 -44 40q0 9 8 19q8 9 21 9q11 0 20 -3q8 -3 17 -8l165 -90l-5 -13zM24 11l1 3q20 7 33 17q12 9 18 35q5 23 7 75q2 66 2 133v204q0 102 -1 134q-2 51 -7 74q-6 26 -18 35q-13 10 -33 17v13h540q11 0 15 -4q5 -5 9 -27l18 -102h-18q-13 35 -29 59
q-15 22 -35 36q-20 13 -45 18q-28 5 -57 5h-255v-306h94q38 0 56 7q19 7 30 18t14 24l6 27h16v-172h-16l-6 27q-3 13 -14 24t-30 18q-18 7 -56 7h-94v-396h274q35 0 60 3t45 17t35 39q14 24 28 69h18l-13 -113q-1 -22 -8 -27q-5 -4 -22 -4h-562v13z" />
    <glyph glyph-name="Eacute" unicode="&#xc9;" horiz-adv-x="651" 
d="M231 798l164 92q12 6 18 8q9 3 20 3q13 0 21 -9q8 -10 8 -19q0 -26 -44 -40l-182 -48zM23 15l1 3q20 7 33 17q12 9 18 35q5 23 7 75q2 66 2 133v204q0 102 -1 134q-2 51 -7 74q-6 26 -18 35q-13 10 -33 17v13h540q11 0 15 -4q4 -5 9 -27l18 -102h-18q-13 35 -29 59
q-15 22 -35 36q-19 13 -45 18q-28 5 -57 5h-255v-306h94q38 0 56 7q20 7 30 18q11 11 14 24l6 27h16v-172h-16l-6 27q-3 13 -14 24q-10 11 -30 18q-18 7 -56 7h-94v-396h274q34 0 60 3q25 3 45 17t35 39q14 24 28 69h18l-13 -113q-1 -22 -8 -27q-5 -4 -22 -4h-562v13z" />
    <glyph glyph-name="Ecircumflex" unicode="&#xca;" horiz-adv-x="651" 
d="M333 901l136 -106l-5 -11l-131 51l-131 -51l-5 11zM24 13l1 3q20 7 33 17q12 9 18 35q5 23 7 75q2 66 2 133v204q0 102 -1 134q-2 51 -7 74q-6 26 -18 35q-13 10 -33 17v13h540q11 0 15 -4q5 -5 9 -27l18 -102h-18q-13 35 -29 59q-15 22 -35 36q-20 13 -45 18
q-28 5 -57 5h-255v-306h94q38 0 56 7q19 7 30 18t14 24l6 27h16v-172h-16l-6 27q-3 13 -14 24t-30 18q-18 7 -56 7h-94v-396h274q35 0 60 3t45 17t35 39q14 24 28 69h18l-13 -113q-1 -22 -8 -27q-5 -4 -22 -4h-562v13z" />
    <glyph glyph-name="Edieresis" unicode="&#xcb;" horiz-adv-x="651" 
d="M24 13l1 3q20 7 33 17q12 9 18 35q5 23 7 75q2 66 2 133v204q0 102 -1 134q-2 51 -7 74q-6 26 -18 35q-13 10 -33 17v13h540q11 0 15 -4q5 -5 9 -27l18 -102h-18q-13 35 -29 59q-15 22 -35 36q-20 13 -45 18q-28 5 -57 5h-255v-306h94q38 0 56 7q19 7 30 18t14 24l6 27
h16v-172h-16l-6 27q-3 13 -14 24t-30 18q-18 7 -56 7h-94v-396h274q35 0 60 3t45 17t35 39q14 24 28 69h18l-13 -113q-1 -22 -8 -27q-5 -4 -22 -4h-562v13zM441 794q-20 0 -32 13t-12 33t12 33t32 13t33 -13t13 -33t-13 -33t-33 -13zM227 794q-20 0 -33 13t-13 33t13 33
t33 13t33 -13t13 -33t-13 -33t-33 -13z" />
    <glyph glyph-name="Igrave" unicode="&#xcc;" horiz-adv-x="252" 
d="M24 13l-3 -1q20 7 33 17q12 9 18 35q5 23 7 75q2 66 2 133v204q0 102 -1 135q-2 52 -7 76q-6 27 -18 36t-33 15v13h204v-13q-21 -6 -33 -15t-18 -36q-5 -24 -7 -76q-1 -33 -1 -135v-204q0 -67 2 -133q1 -47 8 -75q6 -26 18 -35q11 -8 33 -16v-13h-204v13zM38 832v-2
q-44 14 -44 40q0 9 8 19q8 9 21 9q11 0 20 -3q8 -3 17 -8l165 -90l-5 -13z" />
    <glyph glyph-name="Iacute" unicode="&#xcd;" horiz-adv-x="252" 
d="M24 13l-3 -1q20 7 33 17q12 9 18 35q5 23 7 75q2 66 2 133v204q0 102 -1 135q-2 52 -7 76q-6 27 -18 36t-33 15v13h204v-13q-21 -6 -33 -15t-18 -36q-5 -24 -7 -76q-1 -33 -1 -135v-204q0 -67 2 -133q1 -47 8 -75q6 -26 18 -35q11 -8 33 -16v-13h-204v13zM21 797l164 92
q12 6 18 8q9 3 20 3q13 0 21 -9q8 -10 8 -19q0 -26 -44 -40l-182 -48z" />
    <glyph glyph-name="Icircumflex" unicode="&#xce;" horiz-adv-x="252" 
d="M24 13l-3 -1q20 7 33 17q12 9 18 35q5 23 7 75q2 66 2 133v204q0 102 -1 135q-2 52 -7 76q-6 27 -18 36t-33 15v13h204v-13q-21 -6 -33 -15t-18 -36q-5 -24 -7 -76q-1 -33 -1 -135v-204q0 -67 2 -133q1 -47 8 -75q6 -26 18 -35q11 -8 33 -16v-13h-204v13zM122 900
l136 -106l-5 -11l-131 51l-131 -51l-5 11z" />
    <glyph glyph-name="Idieresis" unicode="&#xcf;" horiz-adv-x="252" 
d="M197 791q-20 0 -32 13q-12 14 -12 33t12 33q12 13 32 13t33 -13t13 -33t-13 -33t-33 -13zM55 791q-20 0 -33 13t-13 33t13 33t33 13t33 -13t13 -33t-13 -33t-33 -13zM24 13l-3 -1q20 7 33 17q12 9 18 35q5 23 7 75q2 66 2 133v204q0 102 -1 135q-2 52 -7 76q-6 27 -18 36
t-33 15v13h204v-13q-21 -6 -33 -15t-18 -36q-5 -24 -7 -76q-1 -33 -1 -135v-204q0 -67 2 -133q1 -47 8 -75q6 -26 18 -35q11 -8 33 -16v-13h-204v13z" />
    <glyph glyph-name="Eth" unicode="&#xd0;" horiz-adv-x="785" 
d="M24 13l-4 -4q20 7 33 17q12 9 18 35q5 23 7 75q2 66 2 133v111h-78v16h78v-16h85v-369h42q113 0 195 21t138 66q54 44 82 116q27 70 27 168q0 103 -31 169q-32 68 -88 108q-57 41 -138 57q-79 16 -183 16h-42v-334h167v-16h-167v16h-85v77q0 102 -1 134q-2 51 -7 74
q-6 26 -18 35q-13 10 -33 17v13h186q263 0 399 -91t136 -273q0 -87 -31 -156q-31 -70 -97 -121q-65 -50 -167 -79q-99 -28 -239 -28h-186v13z" />
    <glyph glyph-name="Ntilde" unicode="&#xd1;" horiz-adv-x="759" 
d="M370 883l-6 3q4 0 26 -2q9 -1 34 -5t34 -5q22 -2 26 -2q8 0 24 9t33 39l12 -4q-13 -47 -35 -72q-21 -24 -43 -24q-5 0 -27 2q-11 1 -35 5q-25 4 -33 5q-20 2 -24 2q-10 0 -25 -9t-37 -43l-12 4q17 51 41 74q25 23 47 23zM18 16l-4 3q22 11 33 22q12 12 18 39q5 24 7 76
q2 66 2 135v193q0 102 -1 134q-2 51 -7 74q-6 26 -18 35q-13 10 -33 17v13h143q10 0 14 -1q5 -1 10 -6q7 -7 11 -12q2 -3 7 -10t9 -11l441 -584v338q0 102 -1 135q-1 49 -9 76q-8 28 -22 39t-40 22v13h151v-13q-22 -11 -33 -22q-12 -12 -18 -39q-5 -24 -7 -76
q-1 -33 -1 -135v-470h-25l-550 729v-442q0 -69 2 -135q1 -49 9 -76q8 -28 22 -39q13 -11 41 -22v-13h-151v13z" />
    <glyph glyph-name="Ograve" unicode="&#xd2;" horiz-adv-x="850" 
d="M347 833v-2q-44 14 -44 40q0 9 8 19q7 9 21 9q11 0 20 -3q8 -3 17 -8l165 -90l-5 -13zM425 -13h-2q-74 0 -144 29q-68 28 -123 80q-53 50 -85 122t-32 155q0 81 32 153q32 71 86 122q55 52 123 80q70 29 144 29t144 -29q68 -28 123 -80q54 -51 86 -122q32 -72 32 -153
q0 -83 -32 -155t-85 -122q-55 -52 -123 -80q-70 -29 -144 -29zM423 3h-3q58 0 110 21t93 66q40 44 64 115t24 169t-24 169t-64 115q-41 45 -93 66t-109 21t-109 -21t-93 -66q-40 -44 -64 -115t-24 -169t24 -169q23 -69 65 -115q40 -45 93 -66q52 -21 110 -21z" />
    <glyph glyph-name="Oacute" unicode="&#xd3;" horiz-adv-x="850" 
d="M330 798l164 92q12 6 18 8q9 3 20 3q14 0 21 -9q8 -10 8 -19q0 -26 -44 -40l-182 -48zM424 -9h-2q-74 0 -144 29q-68 28 -123 80q-53 50 -85 122t-32 155q0 81 32 153q32 71 86 122q55 52 123 80q70 29 144 29t144 -29q68 -28 123 -80q54 -51 86 -122q32 -72 32 -153
q0 -83 -32 -155t-85 -122q-55 -52 -123 -80q-70 -29 -144 -29zM422 7h-3q58 0 110 21q53 21 93 66q40 44 64 115t24 169t-24 169t-64 115q-40 45 -93 66q-52 21 -109 21q-56 0 -109 -21t-93 -66q-40 -44 -64 -115t-24 -169t24 -169q23 -69 65 -115q41 -45 93 -66t110 -21z
" />
    <glyph glyph-name="Ocircumflex" unicode="&#xd4;" horiz-adv-x="850" 
d="M432 901l136 -106l-5 -11l-131 51l-131 -51l-5 11zM425 -11h-2q-74 0 -144 29q-68 28 -123 80q-53 50 -85 122t-32 155q0 81 32 153q32 71 86 122q55 52 123 80q70 29 144 29t144 -29q68 -28 123 -80q54 -51 86 -122q32 -72 32 -153q0 -83 -32 -155t-85 -122
q-55 -52 -123 -80q-70 -29 -144 -29zM423 5h-3q58 0 110 21t93 66q40 44 64 115t24 169q0 99 -24 169q-24 71 -64 115q-41 45 -93 66t-109 21t-109 -21t-93 -66q-40 -44 -64 -115q-24 -70 -24 -169q0 -98 24 -169q23 -69 65 -115q40 -45 93 -66q52 -21 110 -21z" />
    <glyph glyph-name="Otilde" unicode="&#xd5;" horiz-adv-x="850" 
d="M390 883l-6 3q4 0 26 -2q9 -1 34 -5t34 -5q22 -2 26 -2q8 0 24 9t33 39l12 -4q-13 -47 -35 -72q-21 -24 -43 -24q-5 0 -27 2q-11 1 -35 5q-26 4 -33 5q-20 2 -24 2q-10 0 -25 -9t-37 -43l-12 4q17 51 41 74q25 23 47 23zM419 -8h-2q-74 0 -144 29q-68 28 -123 80
q-53 50 -85 122t-32 155q0 81 32 153q32 71 86 122q55 52 123 80q70 29 144 29t144 -29q68 -28 123 -80q54 -51 86 -122q32 -72 32 -153q0 -83 -32 -155t-85 -122q-55 -52 -123 -80q-70 -29 -144 -29zM417 8h-3q58 0 110 21t93 66q40 44 64 115q24 70 24 169t-24 169
q-24 71 -64 115q-41 45 -93 66t-109 21t-109 -21t-93 -66q-40 -44 -64 -115q-24 -70 -24 -169t24 -169q23 -69 65 -115q40 -45 93 -66t110 -21z" />
    <glyph glyph-name="Odieresis" unicode="&#xd6;" horiz-adv-x="850" 
d="M539 791q-20 0 -32 13q-12 14 -12 33t12 33q12 13 32 13t33 -13t13 -33t-13 -33t-33 -13zM325 791q-20 0 -33 13t-13 33t13 33t33 13t33 -13t13 -33t-13 -33t-33 -13zM425 -11h-2q-74 0 -144 29q-68 28 -123 80q-53 50 -85 122t-32 155q0 81 32 153q32 71 86 122
q55 52 123 80q70 29 144 29t144 -29q68 -28 123 -80q54 -51 86 -122q32 -72 32 -153q0 -83 -32 -155t-85 -122q-55 -52 -123 -80q-70 -29 -144 -29zM423 5h-3q58 0 110 21t93 66q40 44 64 115t24 169q0 99 -24 169q-24 71 -64 115q-41 45 -93 66t-109 21t-109 -21t-93 -66
q-40 -44 -64 -115q-24 -70 -24 -169q0 -98 24 -169q23 -69 65 -115q40 -45 93 -66q52 -21 110 -21z" />
    <glyph glyph-name="multiply" unicode="&#xd7;" horiz-adv-x="462" 
d="M217 351l-161 174l14 16l162 -174l160 172l14 -15l-160 -173l160 -172l-15 -15l-159 172l-159 -172l-15 16z" />
    <glyph glyph-name="Oslash" unicode="&#xd8;" horiz-adv-x="850" 
d="M425 -11l-5 -4q-52 0 -102 15q-48 14 -93 41l-62 -103l-16 9l62 104q-37 25 -69 60t-54 75q-23 42 -35 89q-12 48 -12 100q0 81 32 153q32 71 86 122q55 52 123 80q70 29 144 29q48 0 95 -12q46 -12 89 -35l55 93l16 -8l-56 -94q41 -25 75 -60q36 -36 59 -76
q25 -44 38 -90q14 -50 14 -102q0 -83 -32 -155t-85 -122q-55 -52 -123 -80q-70 -29 -144 -29zM129 372l1 2q0 -103 26 -176q25 -71 71 -117l363 607q-38 28 -81 42q-42 13 -90 13q-57 0 -109 -21t-93 -66q-40 -44 -64 -115t-24 -169zM421 3l1 -1q58 0 110 21t93 66
q40 44 64 115t24 169q0 111 -30 185t-79 117l-363 -608q37 -34 84 -49t96 -15z" />
    <glyph glyph-name="Ugrave" unicode="&#xd9;" 
d="M334 833v-2q-44 14 -44 40q0 9 8 19q8 9 21 9q11 0 20 -3q8 -3 17 -8l165 -90l-5 -13zM409 -13l-3 -1q-158 0 -246 71q-87 71 -87 228v188q0 102 -1 135q-2 50 -6 75q-5 27 -16 35q-12 9 -31 15v13h200v-13q-21 -6 -33 -15t-18 -35q-5 -23 -7 -75q-1 -33 -1 -135v-210
q0 -63 12 -111q12 -47 41 -81t76 -50q49 -17 119 -17q61 0 107 13q49 14 83 45q35 32 53 83t18 128v191q0 102 -1 135q-1 49 -9 76q-8 28 -22 39q-13 11 -41 22v13h151v-13q-22 -11 -33 -22q-12 -12 -18 -39q-5 -24 -7 -76q-1 -33 -1 -135v-191q0 -79 -20 -134
q-19 -53 -57 -88q-37 -34 -88 -49t-114 -15z" />
    <glyph glyph-name="Uacute" unicode="&#xda;" 
d="M317 798l164 92q12 6 18 8q9 3 20 3q13 0 21 -9q8 -10 8 -19q0 -26 -44 -40l-182 -48zM408 -9l-3 -1q-158 0 -246 71q-87 71 -87 228v188q0 102 -1 135q-1 50 -6 75q-5 27 -16 35q-12 9 -31 15v13h200v-13q-21 -6 -33 -15t-18 -35q-5 -23 -7 -75q-1 -33 -1 -135v-210
q0 -63 12 -111q12 -47 41 -81t76 -50q49 -17 119 -17q61 0 107 13q49 14 83 45q35 32 53 83t18 128v191q0 102 -1 135q-1 49 -9 76q-8 28 -22 39q-13 11 -41 22v13h151v-13q-22 -11 -33 -22q-12 -12 -18 -39q-5 -24 -7 -76q-1 -33 -1 -135v-191q0 -79 -20 -134
q-19 -53 -57 -88q-37 -34 -88 -49t-114 -15z" />
    <glyph glyph-name="Ucircumflex" unicode="&#xdb;" 
d="M418 901l136 -106l-5 -11l-131 51l-131 -51l-5 11zM409 -11l-3 -1q-158 0 -246 71q-87 71 -87 228v188q0 102 -1 135q-2 50 -6 75q-5 27 -16 35q-12 9 -31 15v13h200v-13q-21 -6 -33 -15t-18 -35q-5 -23 -7 -75q-1 -33 -1 -135v-210q0 -63 12 -111q12 -47 41 -81t76 -50
q49 -17 119 -17q61 0 107 13q49 14 83 45q35 32 53 83t18 128v191q0 102 -1 135q-1 49 -9 76q-8 28 -22 39q-13 11 -41 22v13h151v-13q-22 -11 -33 -22q-12 -12 -18 -39q-5 -24 -7 -76q-1 -33 -1 -135v-191q0 -79 -20 -134q-19 -53 -57 -88q-37 -34 -88 -49t-114 -15z" />
    <glyph glyph-name="Udieresis" unicode="&#xdc;" 
d="M409 -11l-3 -1q-158 0 -246 71q-87 71 -87 228v188q0 102 -1 135q-2 50 -6 75q-5 27 -16 35q-12 9 -31 15v13h200v-13q-21 -6 -33 -15t-18 -35q-5 -23 -7 -75q-1 -33 -1 -135v-210q0 -63 12 -111q12 -47 41 -81t76 -50q49 -17 119 -17q61 0 107 13q49 14 83 45
q35 32 53 83t18 128v191q0 102 -1 135q-1 49 -9 76q-8 28 -22 39q-13 11 -41 22v13h151v-13q-22 -11 -33 -22q-12 -12 -18 -39q-5 -24 -7 -76q-1 -33 -1 -135v-191q0 -79 -20 -134q-19 -53 -57 -88q-37 -34 -88 -49t-114 -15zM522 790q-20 0 -32 13t-12 33t12 33t32 13
t33 -13t13 -33t-13 -33t-33 -13zM308 790q-20 0 -33 13t-13 33t13 33t33 13t33 -13t13 -33t-13 -33t-33 -13z" />
    <glyph glyph-name="Yacute" unicode="&#xdd;" horiz-adv-x="723" 
d="M262 13l-2 -3q20 7 33 17q12 9 18 35q5 23 7 75q2 66 2 133v80l-187 270q-7 11 -19 28t-13 18q-12 17 -26 33q-12 13 -25 22q-14 9 -30 15v13h196v-13q-25 -4 -33 -20q-7 -15 15 -49l195 -282l171 238q36 49 42 77q6 27 -32 36v13h126v-13q-13 -5 -22 -10q-10 -6 -24 -18
q-12 -10 -30 -32q-15 -17 -39 -53l-180 -256v-95q0 -67 2 -133q1 -47 8 -75q6 -26 18 -35q11 -8 33 -16v-13h-204v13zM302 795l164 92q12 6 18 8q9 3 20 3q14 0 21 -9q8 -10 8 -19q0 -26 -44 -40l-182 -48z" />
    <glyph glyph-name="Thorn" unicode="&#xde;" horiz-adv-x="635" 
d="M24 13l-3 -4q20 7 33 17q12 9 18 35q5 23 7 75q2 66 2 133v204q0 102 -1 135q-2 52 -7 76q-6 27 -18 36t-33 15v13h204v-13q-18 -5 -27 -10q-11 -6 -18 -19q-7 -12 -10 -37q-2 -18 -4 -63h138q67 0 120 -10q56 -11 98 -33q41 -22 66 -59q24 -36 24 -90t-24 -94t-66 -66
t-97 -39q-53 -13 -117 -13h-143q2 -67 4 -94q3 -34 9 -54t18 -27q14 -9 31 -14v-13h-204v13zM305 215h1q39 0 81 8q39 7 71 29t50 57q18 36 18 92q0 63 -19 98q-20 37 -51 56q-33 20 -72 26q-40 6 -81 6h-137q-1 -15 -1 -51v-63v-258h140z" />
    <glyph glyph-name="germandbls" unicode="&#xdf;" horiz-adv-x="589" 
d="M156 165l-5 -8q0 -54 1 -72q1 -26 6 -43t13 -24t25 -13v-13h-168v13q18 7 26 13q10 8 14 24t6 44q1 18 1 72v291h-61v14q20 5 30 10q13 7 20 16q8 11 11 26t3 39v4q0 53 19 91q19 37 50 64q30 25 69 39q38 13 77 13q45 0 79 -10q36 -11 61 -28q25 -18 39 -42
q14 -25 14 -51q0 -28 -14 -51t-33 -42q-18 -18 -42 -34q-21 -14 -41 -29q-26 -20 -39 -37q-14 -19 -14 -41q0 -20 10 -33q11 -13 27 -24q19 -12 39 -20q8 -3 24.5 -10t23.5 -10q18 -8 52 -26q26 -14 44 -33q18 -20 30 -45t12 -57q0 -38 -15 -66t-39 -48t-54 -30
q-29 -10 -60 -10q-25 0 -47 5q-15 4 -34 11q-6 2 -14.5 6t-10.5 5q-12 5 -18 5q-14 0 -17 -14h-16v120h15q13 -56 48 -88q34 -31 93 -31q50 0 81 29q30 28 30 77q0 23 -8 42t-24 32q-19 15 -40 26q-14 7 -54 25q-27 12 -51 24t-42 27t-28 34t-10 45q0 21 9 39q8 17 23 33
q15 17 30 29q6 5 17 13.5t15 11.5q11 9 31 27q15 14 26 29q11 16 17 33q6 18 6 44q0 58 -37 92q-38 35 -94 35q-63 0 -100 -33t-37 -108v-448z" />
    <glyph glyph-name="agrave" unicode="&#xe0;" horiz-adv-x="479" 
d="M159 -7l-7 1q-58 0 -92 27q-35 27 -35 81q0 32 12 51q12 20 32 35q20 16 47 26q18 7 56 23l69 29q24 10 39 21q16 11 23 21q8 11 11 20t3 17v51q0 44 -27 59t-70 15q-41 0 -56 -12t-26 -29q-10 -15 -21 -25q-11 -9 -25 -9q-19 0 -28 9t-9 23t13 24q14 11 36 18
q23 8 52 12q27 4 63 4q35 0 63 -4q33 -5 57 -16q26 -12 42 -34q17 -23 17 -58v-228q0 -36 2 -70q2 -25 6 -39q5 -14 12 -17q8 -3 21 -3q9 0 19 3q7 2 19 8l6 -12q-3 -3 -23 -13q-18 -9 -46 -9q-52 0 -72 23t-20 60v4l-25 -23q-16 -14 -25 -22q-14 -12 -30 -21
q-17 -9 -37 -15q-21 -6 -46 -6zM105 106l-2 -2q0 -48 18 -67t53 -19q36 0 62 17q24 15 51 41l27 25v193q-7 -9 -24 -22q-18 -13 -48 -26l-52 -22q-46 -19 -66 -47q-19 -26 -19 -71zM140 649l-1 -1q-9 7 -18 17q-7 8 -7 20t9 21t23 9t21 -7q7 -8 18 -21l107 -141l-9 -11z" />
    <glyph glyph-name="aacute" unicode="&#xe1;" horiz-adv-x="479" 
d="M159 -7l-7 1q-58 0 -92 27q-35 27 -35 81q0 32 12 51q12 20 32 35q20 16 47 26q18 7 56 23l69 29q24 10 39 21q16 11 23 21q8 11 11 20t3 17v51q0 44 -27 59t-70 15q-41 0 -56 -12t-26 -29q-10 -15 -21 -25q-11 -9 -25 -9q-19 0 -28 9t-9 23t13 24q14 11 36 18
q23 8 52 12q27 4 63 4q35 0 63 -4q33 -5 57 -16q26 -12 42 -34q17 -23 17 -58v-228q0 -36 2 -70q2 -25 6 -39q5 -14 12 -17q8 -3 21 -3q9 0 19 3q7 2 19 8l6 -12q-3 -3 -23 -13q-18 -9 -46 -9q-52 0 -72 23t-20 60v4l-25 -23q-16 -14 -25 -22q-14 -12 -30 -21
q-17 -9 -37 -15q-21 -6 -46 -6zM105 106l-2 -2q0 -48 18 -67t53 -19q36 0 62 17q24 15 51 41l27 25v193q-7 -9 -24 -22q-18 -13 -48 -26l-52 -22q-46 -19 -66 -47q-19 -26 -19 -71zM174 546l107 140q10 12 20 21q8 7 22 7q13 0 21 -9q7 -8 7 -19q0 -12 -7 -20
q-9 -10 -18 -17l-143 -114z" />
    <glyph glyph-name="acircumflex" unicode="&#xe2;" horiz-adv-x="479" 
d="M159 -7l-7 1q-58 0 -92 27q-35 27 -35 81q0 32 12 51q12 20 32 35q20 16 47 26q18 7 56 23l69 29q24 10 39 21q16 11 23 21q8 11 11 20t3 17v51q0 44 -27 59t-70 15q-41 0 -56 -12t-26 -29q-10 -15 -21 -25q-11 -9 -25 -9q-19 0 -28 9t-9 23t13 24q14 11 36 18
q23 8 52 12q27 4 63 4q35 0 63 -4q33 -5 57 -16q26 -12 42 -34q17 -23 17 -58v-228q0 -36 2 -70q2 -25 6 -39q5 -14 12 -17q8 -3 21 -3q9 0 19 3q7 2 19 8l6 -12q-3 -3 -23 -13q-18 -9 -46 -9q-52 0 -72 23t-20 60v4l-25 -23q-16 -14 -25 -22q-14 -12 -30 -21
q-17 -9 -37 -15q-21 -6 -46 -6zM105 106l-2 -2q0 -48 18 -67t53 -19q36 0 62 17q24 15 51 41l27 25v193q-7 -9 -24 -22q-18 -13 -48 -26l-52 -22q-46 -19 -66 -47q-19 -26 -19 -71zM222 716l123 -174l-11 -9l-112 98l-112 -98l-11 9z" />
    <glyph glyph-name="atilde" unicode="&#xe3;" horiz-adv-x="479" 
d="M159 -7l-7 1q-58 0 -92 27q-35 27 -35 81q0 32 12 51q12 20 32 35q20 16 47 26q18 7 56 23l69 29q24 10 39 21q16 11 23 21q8 11 11 20t3 17v51q0 44 -27 59t-70 15q-41 0 -56 -12t-26 -29q-10 -15 -21 -25q-11 -9 -25 -9q-19 0 -28 9t-9 23t13 24q14 11 36 18
q23 8 52 12q27 4 63 4q35 0 63 -4q33 -5 57 -16q26 -12 42 -34q17 -23 17 -58v-228q0 -36 2 -70q2 -25 6 -39q5 -14 12 -17q8 -3 21 -3q9 0 19 3q7 2 19 8l6 -12q-3 -3 -23 -13q-18 -9 -46 -9q-52 0 -72 23t-20 60v4l-25 -23q-16 -14 -25 -22q-14 -12 -30 -21
q-17 -9 -37 -15q-21 -6 -46 -6zM105 106l-2 -2q0 -48 18 -67t53 -19q36 0 62 17q24 15 51 41l27 25v193q-7 -9 -24 -22q-18 -13 -48 -26l-52 -22q-46 -19 -66 -47q-19 -26 -19 -71zM186 648l-3 3q10 0 25 -3l30 -6q20 -4 29 -6q13 -3 24 -3q8 0 23 9t30 41l12 -6
q-10 -48 -30 -72t-42 -24q-6 0 -26 2q-10 1 -30 5t-29 5q-18 2 -23 2q-7 0 -11 -1q-5 -1 -13 -6q-6 -4 -16 -15q-7 -8 -19 -29l-12 6q13 47 36 73q22 25 45 25z" />
    <glyph glyph-name="adieresis" unicode="&#xe4;" horiz-adv-x="479" 
d="M159 -7l-7 1q-58 0 -92 27q-35 27 -35 81q0 32 12 51q12 20 32 35q20 16 47 26q18 7 56 23l69 29q24 10 39 21q16 11 23 21q8 11 11 20t3 17v51q0 44 -27 59t-70 15q-41 0 -56 -12t-26 -29q-10 -15 -21 -25q-11 -9 -25 -9q-19 0 -28 9t-9 23t13 24q14 11 36 18
q23 8 52 12q27 4 63 4q35 0 63 -4q33 -5 57 -16q26 -12 42 -34q17 -23 17 -58v-228q0 -36 2 -70q2 -25 6 -39q5 -14 12 -17q8 -3 21 -3q9 0 19 3q7 2 19 8l6 -12q-3 -3 -23 -13q-18 -9 -46 -9q-52 0 -72 23t-20 60v4l-25 -23q-16 -14 -25 -22q-14 -12 -30 -21
q-17 -9 -37 -15q-21 -6 -46 -6zM105 106l-2 -2q0 -48 18 -67t53 -19q36 0 62 17q24 15 51 41l27 25v193q-7 -9 -24 -22q-18 -13 -48 -26l-52 -22q-46 -19 -66 -47q-19 -26 -19 -71zM312 571v-1q-19 0 -33 14q-13 13 -13 33t13 33t33 13t33 -13t13 -33t-13 -33t-33 -13z
M132 570v-1q-19 0 -33 14q-13 13 -13 33t13 33t33 13t33 -13t13 -33t-13 -33t-33 -13z" />
    <glyph glyph-name="aring" unicode="&#xe5;" horiz-adv-x="479" 
d="M159 -7l-7 1q-58 0 -92 27q-35 27 -35 81q0 32 12 51q12 20 32 35q20 16 47 26q18 7 56 23l69 29q24 10 39 21q16 11 23 21q8 11 11 20t3 17v51q0 44 -27 59t-70 15q-41 0 -56 -12t-26 -29q-10 -15 -21 -25q-11 -9 -25 -9q-19 0 -28 9t-9 23t13 24q14 11 36 18
q23 8 52 12q27 4 63 4q35 0 63 -4q33 -5 57 -16q26 -12 42 -34q17 -23 17 -58v-228q0 -36 2 -70q2 -25 6 -39q5 -14 12 -17q8 -3 21 -3q9 0 19 3q7 2 19 8l6 -12q-3 -3 -23 -13q-18 -9 -46 -9q-52 0 -72 23t-20 60v4l-25 -23q-16 -14 -25 -22q-14 -12 -30 -21
q-17 -9 -37 -15q-21 -6 -46 -6zM105 106l-2 -2q0 -48 18 -67t53 -19q36 0 62 17q24 15 51 41l27 25v193q-7 -9 -24 -22q-18 -13 -48 -26l-52 -22q-46 -19 -66 -47q-19 -26 -19 -71zM135 611q0 37 26 60t60 23t60 -23t26 -60q0 -38 -25 -60q-26 -23 -61 -23t-61 23
q-25 22 -25 60zM172 611l-2 -1q0 -67 50 -67t50 67q0 33 -13 50q-13 18 -36 18t-36 -18q-13 -17 -13 -49z" />
    <glyph glyph-name="ae" unicode="&#xe6;" horiz-adv-x="792" 
d="M164 -7l-3 -2q-59 0 -96 27t-37 81q0 31 12 51t32 35q20 16 47 26q18 7 56 23l69 29q24 10 40 21t23 21q6 9 10 20q3 9 3 17v46q0 46 -27 63q-28 17 -70 17q-41 0 -56 -12t-26 -29q-10 -15 -21 -25q-11 -9 -29 -9q-17 0 -24 9q-8 10 -8 23q0 14 13 24q14 11 36 18
q23 8 52 12q27 4 63 4q26 0 53 -3q24 -3 49 -11q22 -7 39 -23q16 -15 24 -39q34 37 81 57q48 20 91 20q34 0 67 -9q34 -9 60 -28q27 -19 46 -52q19 -32 25 -81h-347q-4 -21 -5 -36q-2 -26 -2 -42q0 -65 15 -107t41 -68q26 -25 60 -36q33 -10 73 -10q91 0 147 51l9 -13
q-29 -29 -72 -45q-45 -17 -105 -17q-62 0 -121 27t-93 84l-33 -30q-16 -15 -39 -34q-17 -14 -37 -25t-40 -15q-23 -5 -45 -5zM558 468l1 -2q-22 0 -43 -7q-22 -7 -42 -24t-36 -42q-16 -24 -25 -63h265q-3 44 -13 69q-11 27 -27 42q-17 15 -37 21q-21 6 -43 6zM110 101v2
q0 -47 20 -67q19 -19 54 -19q18 0 33 3q13 3 30 11q15 7 33 21q14 11 40 33l27 25q-13 25 -21 56q-7 28 -7 65v58q-7 -9 -24 -22q-18 -13 -48 -26l-52 -22q-46 -19 -66 -47q-19 -26 -19 -71z" />
    <glyph glyph-name="ccedilla" unicode="&#xe7;" horiz-adv-x="493" 
d="M287 -10l-10 -4q-48 0 -93 18q-46 18 -80 51q-36 34 -56 79q-21 46 -21 102q0 57 24 102q25 47 61 77q39 32 84 50q47 18 91 18q32 0 65 -5q29 -4 53 -14q22 -9 36 -23q13 -13 13 -30q0 -14 -9 -26t-30 -12q-13 0 -21 5q-8 4 -12 12q-5 9 -8 18q-2 7 -8 21q-5 12 -10 18
q-6 8 -13 12t-20 6q-16 2 -31 2q-30 0 -63 -11q-32 -11 -57 -37q-26 -27 -42 -70q-16 -42 -16 -108q0 -67 15 -110q15 -44 40 -70t60 -37q36 -11 73 -11q52 0 90 18q37 18 64 48l12 -12q-31 -36 -73 -56q-43 -21 -108 -21zM260 -4l-38 -53q39 -6 65 -25q27 -20 27 -48
q0 -74 -156 -81l-1 15q59 4 81 18q23 14 23 33q0 21 -21 31t-59 12l-4 7l61 91h22z" />
    <glyph glyph-name="egrave" unicode="&#xe8;" horiz-adv-x="506" 
d="M287 -11v-4q-46 0 -91 15t-81 45q-35 29 -58 77q-22 45 -22 110q0 59 23 107q22 47 57 78q34 31 77 48t83 17q34 0 67 -9q34 -9 60 -28q27 -19 46 -52q19 -32 25 -81h-347q-4 -21 -5 -36q-2 -26 -2 -42q0 -65 15 -107t41 -68q25 -25 60 -36q33 -10 73 -10q92 0 147 51
l9 -13q-28 -29 -72 -45q-45 -17 -105 -17zM275 466l1 -2q-22 0 -43 -7q-23 -7 -42 -24t-36 -42q-16 -24 -25 -63h265q-3 44 -13 69q-10 27 -27 42t-37 21q-21 6 -43 6zM201 644l-1 -1q-9 7 -18 17q-7 8 -7 20t9 21t23 9t21 -7q8 -7 18 -21l107 -141l-9 -11z" />
    <glyph glyph-name="eacute" unicode="&#xe9;" horiz-adv-x="506" 
d="M234 547l107 140q10 12 20 21q8 7 22 7q13 0 21 -9q7 -8 7 -19q0 -12 -7 -20q-9 -10 -18 -17l-143 -114zM288 -12v-4q-46 0 -91 15t-81 45q-35 29 -58 77q-22 45 -22 110q0 59 23 107q23 46 57 78q34 31 77 48t83 17q34 0 67 -9q34 -9 60 -28q27 -19 46 -52
q19 -32 25 -81h-347q-4 -21 -5 -36q-2 -26 -2 -42q0 -65 15 -107t41 -68t60 -36q33 -10 73 -10q91 0 147 51l9 -13q-29 -28 -72 -45q-45 -17 -105 -17zM276 465l1 -2q-22 0 -43 -7q-22 -8 -42 -24t-36 -42q-16 -24 -25 -63h265q-3 44 -13 69q-11 27 -27 42q-17 15 -37 21
q-21 6 -43 6z" />
    <glyph glyph-name="ecircumflex" unicode="&#xea;" horiz-adv-x="506" 
d="M283 717l123 -174l-11 -9l-112 98l-112 -98l-11 9zM287 -11v-4q-46 0 -91 15t-81 45q-35 29 -58 77q-22 45 -22 110q0 59 23 107q22 47 57 78q34 31 77 48t83 17q34 0 67 -9q34 -9 60 -28q27 -19 46 -52q19 -32 25 -81h-347q-4 -21 -5 -36q-2 -26 -2 -42q0 -65 15 -107
t41 -68q25 -25 60 -36q33 -10 73 -10q92 0 147 51l9 -13q-28 -29 -72 -45q-45 -17 -105 -17zM275 466l1 -2q-22 0 -43 -7q-23 -7 -42 -24t-36 -42q-16 -24 -25 -63h265q-3 44 -13 69q-10 27 -27 42t-37 21q-21 6 -43 6z" />
    <glyph glyph-name="edieresis" unicode="&#xeb;" horiz-adv-x="506" 
d="M373 572v-1q-19 0 -33 14q-13 13 -13 33t13 33t33 13t33 -13t13 -33t-13 -33t-33 -13zM193 571v-1q-19 0 -33 14q-13 13 -13 33t13 33t33 13t33 -13t13 -33t-13 -33t-33 -13zM287 -13v-4q-46 0 -91 15t-81 45q-35 29 -58 77q-22 45 -22 110q0 59 23 107q22 47 57 78
q34 31 77 48t83 17q34 0 67 -9q34 -9 60 -28q27 -19 46 -52q19 -32 25 -81h-347q-4 -21 -5 -36q-2 -26 -2 -42q0 -65 15 -107t41 -68q25 -25 60 -36q33 -10 73 -10q92 0 147 51l9 -13q-28 -29 -72 -45q-45 -17 -105 -17zM275 464l1 -2q-22 0 -43 -7q-23 -7 -42 -24t-36 -42
q-16 -24 -25 -63h265q-3 44 -13 69q-10 27 -27 42t-37 21q-21 6 -43 6z" />
    <glyph glyph-name="igrave" unicode="&#xec;" horiz-adv-x="248" 
d="M32 13l-2 -1q21 6 30 13q10 7 15 24q4 16 6 44q1 18 1 72v116v67q0 23 -5 36q-4 11 -15 16q-9 4 -30 7v15l131 60v-317q0 -54 1 -72q1 -26 6 -43q4 -16 15 -24q9 -7 30 -13v-13h-183v13zM38 649l-1 -1q-9 7 -18 17q-7 8 -7 20t9 21t23 9t21 -7q7 -8 18 -21l107 -141
l-9 -11z" />
    <glyph glyph-name="iacute" unicode="&#xed;" horiz-adv-x="248" 
d="M74 547l107 140q10 12 20 21q8 7 22 7q13 0 21 -9q7 -8 7 -19q0 -12 -7 -20q-9 -10 -18 -17l-143 -114zM33 12l-2 -1q21 6 30 13q11 8 15 24t6 44q1 18 1 72v116v67q0 23 -5 36q-4 11 -15 16q-9 4 -30 7v15l131 60v-317q0 -54 1 -72q1 -26 6 -43t15 -24q9 -7 30 -13v-13
h-183v13z" />
    <glyph glyph-name="icircumflex" unicode="&#xee;" horiz-adv-x="248" 
d="M122 717l123 -174l-11 -9l-112 98l-112 -98l-11 9zM32 13l-2 -1q21 6 30 13q10 7 15 24q4 16 6 44q1 18 1 72v116v67q0 23 -5 36q-4 11 -15 16q-9 4 -30 7v15l131 60v-317q0 -54 1 -72q1 -26 6 -43q4 -16 15 -24q9 -7 30 -13v-13h-183v13z" />
    <glyph glyph-name="idieresis" unicode="&#xef;" horiz-adv-x="248" 
d="M191 572v-1q-19 0 -33 14q-13 13 -13 33t13 33t33 13t33 -13t13 -33t-13 -33t-33 -13zM47 571v-1q-19 0 -33 14q-13 13 -13 33t13 33t33 13t33 -13t13 -33t-13 -33t-33 -13zM32 11l-2 -1q21 6 30 13q10 7 15 24q4 16 6 44q1 18 1 72v116v67q0 23 -5 36q-4 11 -15 16
q-9 4 -30 7v15l131 60v-317q0 -54 1 -72q1 -26 6 -43q4 -16 15 -24q9 -7 30 -13v-13h-183v13z" />
    <glyph glyph-name="eth" unicode="&#xf0;" horiz-adv-x="576" 
d="M540 284l-2 -1q0 -69 -24 -124t-60 -93t-81 -57q-46 -20 -88 -20t-88 17q-45 16 -81 48q-37 32 -59 78q-23 48 -23 105q0 56 23 104q22 46 59 78t81 50q45 18 88 18q38 0 80 -14q41 -14 74 -42q-17 65 -46 114q-31 52 -70 93l-131 -57l-7 15l126 55q-37 35 -77 62
q-42 28 -86 47l9 10q119 -44 198 -102l142 62l7 -15l-134 -58q47 -38 81 -83q32 -43 52 -91q19 -46 28 -97q9 -50 9 -102zM285 4q35 0 67 12t54 39t36 72q13 43 13 109q0 63 -13 105q-14 43 -36 72t-54 42q-30 13 -67 13t-66 -13q-31 -14 -53 -42q-22 -29 -36 -72
q-13 -42 -13 -105q0 -66 13 -109q14 -45 36 -72t53 -39q30 -12 66 -12z" />
    <glyph glyph-name="ntilde" unicode="&#xf1;" horiz-adv-x="577" 
d="M33 13l-6 -5q18 7 26 13q10 8 14 24t6 44q1 18 1 72v116v67q0 23 -5 36q-4 11 -15 16q-10 4 -30 9v15l130 60v-123l50 45q35 32 74 56t87 24q67 0 99 -31q33 -31 33 -100v-187v-72q0 -25 5 -43q4 -16 14 -24q8 -6 26 -13v-13h-175v13q20 7 29 13q10 7 15 24q4 16 6 44
q1 18 1 72v208q0 47 -21 65t-56 18q-32 0 -63 -19q-33 -21 -72 -55l-50 -45v-172q0 -54 1 -72q1 -26 6 -43q5 -16 15 -24q9 -6 29 -13v-13h-174v13zM242 644l-3 3q10 0 25 -3l30 -6q20 -4 29 -6q13 -3 24 -3q8 0 23 9t30 41l12 -6q-10 -48 -30 -72t-42 -24q-6 0 -26 2
q-10 1 -30 5t-29 5q-18 2 -23 2q-7 0 -11 -1q-5 -1 -13 -6q-6 -4 -16 -15q-7 -8 -19 -29l-12 6q13 47 36 73q22 25 45 25z" />
    <glyph glyph-name="ograve" unicode="&#xf2;" horiz-adv-x="576" 
d="M287 -11v-2q-42 0 -88 17q-45 16 -81 48q-37 32 -59 78q-23 48 -23 105q0 56 23 104q22 46 59 78t81 50q45 18 88 18t88 -18q46 -18 81 -49q36 -32 60 -78t24 -103q0 -59 -24 -105t-60 -78t-81 -48q-46 -17 -88 -17zM287 3q36 0 67 12q32 12 54 39t36 72q13 43 13 109
q0 63 -13 105q-14 44 -36 72t-54 42q-30 13 -67 13t-66 -13q-31 -14 -53 -42t-36 -72q-13 -42 -13 -105q0 -66 13 -109q14 -45 36 -72t53 -39q30 -12 66 -12zM205 648l-1 -1q-9 7 -18 17q-7 8 -7 20t9 21t23 9t21 -7q8 -7 18 -21l107 -141l-9 -11z" />
    <glyph glyph-name="oacute" unicode="&#xf3;" horiz-adv-x="576" 
d="M239 547l107 140q10 12 20 21q8 7 22 7t21 -9q7 -8 7 -19q0 -12 -7 -20q-9 -10 -18 -17l-143 -114zM288 -12v-2q-42 0 -88 17q-45 17 -81 48q-37 32 -59 78q-23 48 -23 105q0 56 23 104q22 46 59 78t81 50q45 18 88 18t88 -18q46 -18 81 -49q36 -31 60 -78
q24 -46 24 -103q0 -58 -24 -105t-60 -78t-81 -48q-46 -17 -88 -17zM288 2q36 0 67 12t54 39t36 72q13 43 13 109q0 63 -13 105q-13 43 -36 72t-54 42q-30 13 -67 13t-66 -13q-31 -14 -53 -42q-23 -29 -36 -72q-13 -42 -13 -105q0 -66 13 -109q13 -45 36 -72q22 -27 53 -39
q30 -12 66 -12z" />
    <glyph glyph-name="ocircumflex" unicode="&#xf4;" horiz-adv-x="576" 
d="M287 717l123 -174l-11 -9l-112 98l-112 -98l-11 9zM287 -11v-2q-42 0 -88 17q-45 16 -81 48q-37 32 -59 78q-23 48 -23 105q0 56 23 104q22 46 59 78t81 50q45 18 88 18t88 -18q46 -18 81 -49q36 -32 60 -78t24 -103q0 -59 -24 -105t-60 -78t-81 -48q-46 -17 -88 -17z
M287 3q36 0 67 12q32 12 54 39t36 72q13 43 13 109q0 63 -13 105q-14 44 -36 72t-54 42q-30 13 -67 13t-66 -13q-31 -14 -53 -42t-36 -72q-13 -42 -13 -105q0 -66 13 -109q14 -45 36 -72t53 -39q30 -12 66 -12z" />
    <glyph glyph-name="otilde" unicode="&#xf5;" horiz-adv-x="576" 
d="M287 -11v-2q-42 0 -88 17q-45 16 -81 48q-37 32 -59 78q-23 48 -23 105q0 56 23 104q22 46 59 78t81 50q45 18 88 18t88 -18q46 -18 81 -49q36 -32 60 -78t24 -103q0 -59 -24 -105t-60 -78t-81 -48q-46 -17 -88 -17zM287 3q36 0 67 12q32 12 54 39t36 72q13 43 13 109
q0 63 -13 105q-14 44 -36 72t-54 42q-30 13 -67 13t-66 -13q-31 -14 -53 -42t-36 -72q-13 -42 -13 -105q0 -66 13 -109q14 -45 36 -72t53 -39q30 -12 66 -12zM251 647l-3 3q10 0 25 -3l30 -6q20 -4 29 -6q14 -3 24 -3q8 0 23 9t30 41l12 -6q-11 -48 -30 -72t-42 -24
q-6 0 -26 2q-10 1 -30 5t-29 5q-18 2 -23 2q-7 0 -11 -1q-5 -1 -13 -6q-6 -4 -16 -15q-7 -8 -19 -29l-12 6q13 47 36 73q22 25 45 25z" />
    <glyph glyph-name="odieresis" unicode="&#xf6;" horiz-adv-x="576" 
d="M377 572v-1q-19 0 -33 14q-13 13 -13 33t13 33t33 13t33 -13t13 -33t-13 -33t-33 -13zM197 571v-1q-19 0 -33 14q-13 13 -13 33t13 33t33 13t33 -13t13 -33t-13 -33t-33 -13zM287 -13v-2q-42 0 -88 17q-45 16 -81 48q-37 32 -59 78q-23 48 -23 105q0 56 23 104
q22 46 59 78t81 50q45 18 88 18t88 -18q46 -18 81 -49q36 -32 60 -78t24 -103q0 -59 -24 -105t-60 -78t-81 -48q-46 -17 -88 -17zM287 1q36 0 67 12q32 12 54 39t36 72q13 43 13 109q0 63 -13 105q-14 44 -36 72t-54 42q-30 13 -67 13t-66 -13q-31 -14 -53 -42t-36 -72
q-13 -42 -13 -105q0 -66 13 -109q14 -45 36 -72t53 -39q30 -12 66 -12z" />
    <glyph glyph-name="divide" unicode="&#xf7;" horiz-adv-x="543" 
d="M227 501l-2 -2q0 19 14 33t33 14q20 0 33 -13q14 -14 14 -33q0 -20 -13 -33t-33 -13q-19 0 -33 14q-13 13 -13 33zM52 359h437v-20h-437v20zM225 196l-2 -2q0 19 14 33t33 14q20 0 33 -13q14 -14 14 -33q0 -20 -13 -33t-33 -13q-19 0 -33 14q-13 13 -13 33z" />
    <glyph glyph-name="oslash" unicode="&#xf8;" horiz-adv-x="576" 
d="M163 63l235 365q-22 22 -51 33q-30 11 -60 11q-37 0 -66 -13q-31 -14 -53 -42q-22 -29 -36 -72q-13 -42 -13 -105q0 -62 12 -105q12 -42 32 -72zM411 414l-236 -366q23 -22 51 -33q27 -10 61 -10q36 0 67 12q32 12 54 39t36 72q13 43 13 109q0 61 -12 105t-34 72z
M460 524l14 -12l-47 -74q48 -32 80 -83q32 -52 32 -120q0 -59 -24 -105t-60 -78t-81 -48q-46 -17 -88 -17q-31 0 -64 9t-63 27l-54 -84l-15 10l54 84q-46 31 -78 83q-31 50 -31 120q0 56 23 104q22 46 59 78t81 50q45 18 88 18q31 0 64 -9t63 -27z" />
    <glyph glyph-name="ugrave" unicode="&#xf9;" horiz-adv-x="565" 
d="M206 -9l-8 -10q-62 0 -96 32q-33 31 -33 99v152v72q0 24 -5 39q-4 13 -15 18t-30 9v15l131 60v-389q0 -43 20 -60q19 -16 54 -16q26 0 62 17q34 16 83 59l33 29v152v72q0 24 -5 39q-5 14 -15 18t-30 9v15l131 60v-317q0 -54 1 -72q2 -28 7 -43q6 -16 18 -24q11 -7 34 -13
v-13h-137v99l-33 -29q-40 -36 -83 -58q-40 -21 -84 -21zM196 640l-1 -1q-9 7 -18 17q-7 8 -7 20t9 21t23 9t21 -7t18 -21l107 -141l-9 -11z" />
    <glyph glyph-name="uacute" unicode="&#xfa;" horiz-adv-x="565" 
d="M238 547l107 140q10 12 20 21q8 7 22 7q13 0 21 -9q7 -8 7 -19q0 -12 -7 -20q-9 -10 -18 -17l-143 -114zM207 -10l-8 -10q-62 0 -96 32q-33 32 -33 99v152v72q0 24 -5 39q-5 14 -15 18t-30 9v15l131 60v-389q0 -43 20 -60q19 -16 54 -16q26 0 62 17q34 16 83 59l33 29
v152v72q0 24 -5 39q-4 13 -15 18t-30 9v15l131 60v-317q0 -54 1 -72q2 -28 7 -43q6 -17 18 -24q11 -7 34 -13v-13h-137v99l-33 -29q-40 -36 -83 -58q-41 -21 -84 -21z" />
    <glyph glyph-name="ucircumflex" unicode="&#xfb;" horiz-adv-x="565" 
d="M287 717l123 -174l-11 -9l-112 98l-112 -98l-11 9zM206 -9l-8 -10q-62 0 -96 32q-33 31 -33 99v152v72q0 24 -5 39q-4 13 -15 18t-30 9v15l131 60v-389q0 -43 20 -60q19 -16 54 -16q26 0 62 17q34 16 83 59l33 29v152v72q0 24 -5 39q-5 14 -15 18t-30 9v15l131 60v-317
q0 -54 1 -72q2 -28 7 -43q6 -16 18 -24q11 -7 34 -13v-13h-137v99l-33 -29q-40 -36 -83 -58q-40 -21 -84 -21z" />
    <glyph glyph-name="udieresis" unicode="&#xfc;" horiz-adv-x="565" 
d="M377 572v-1q-19 0 -33 14q-13 13 -13 33t13 33t33 13t33 -13t13 -33t-13 -33t-33 -13zM197 571v-1q-19 0 -33 14q-13 13 -13 33t13 33t33 13t33 -13t13 -33t-13 -33t-33 -13zM206 -11l-8 -10q-62 0 -96 32q-33 31 -33 99v152v72q0 24 -5 39q-4 13 -15 18t-30 9v15l131 60
v-389q0 -43 20 -60q19 -16 54 -16q26 0 62 17q34 16 83 59l33 29v152v72q0 24 -5 39q-5 14 -15 18t-30 9v15l131 60v-317q0 -54 1 -72q2 -28 7 -43q6 -16 18 -24q11 -7 34 -13v-13h-137v99l-33 -29q-40 -36 -83 -58q-40 -21 -84 -21z" />
    <glyph glyph-name="yacute" unicode="&#xfd;" horiz-adv-x="493" 
d="M112 -165l3 -2q-25 0 -35 10q-11 11 -11 24q0 15 9 24t26 9t29 -9t24 -9q7 0 14 4q9 5 17 15q9 11 21 30q14 22 26 51l5 12l-162 362q-19 40 -25 51q-11 19 -18 30t-15 15q-10 6 -16 8v13h160v-13q-11 -1 -19 -6q-7 -4 -9 -15t3 -29q4 -17 18 -49l124 -278l114 254
q16 39 21 62q4 23 0 36t-16 19q-13 7 -27 8v13h119v-13q-8 -1 -16 -6q-7 -4 -16 -18q-10 -15 -21 -37q-12 -24 -30 -63l-159 -353q-38 -84 -72 -117t-66 -33zM228 545l107 140q10 12 20 21q8 7 22 7q13 0 21 -9q7 -8 7 -19q0 -12 -7 -20q-9 -10 -18 -17l-143 -114z" />
    <glyph glyph-name="thorn" unicode="&#xfe;" horiz-adv-x="598" 
d="M31 -147h-5q18 7 26 13q10 8 14 24t6 44q1 18 1 72v579v67q0 23 -5 35q-5 11 -15 14q-8 2 -30 4v16l130 63v-413l15 15q43 43 89 73q43 28 95 28q40 0 78 -15t66 -45t45 -75q17 -46 17 -108q0 -64 -19 -111q-19 -48 -52 -79q-34 -33 -76 -47q-43 -15 -93 -15
q-34 0 -78 12q-42 12 -85 47v-46q0 -54 1 -72q1 -26 6 -43q4 -16 15 -24q9 -7 30 -13v-13h-176v13zM150 346l-2 -276q43 -37 86 -51q40 -13 77 -13q30 0 57 10q28 10 51 36t36 69q14 45 14 108q0 76 -13 121q-14 47 -33 71q-20 24 -44 32q-26 8 -48 8q-45 0 -80 -25
q-38 -27 -86 -75z" />
    <glyph glyph-name="ydieresis" unicode="&#xff;" horiz-adv-x="493" 
d="M112 -165l3 -2q-25 0 -35 10q-11 11 -11 24q0 15 9 24t26 9t29 -9t24 -9q7 0 14 4q9 5 17 15q9 11 21 30q14 22 26 51l5 12l-162 362q-19 40 -25 51q-11 19 -18 30t-15 15q-10 6 -16 8v13h160v-13q-11 -1 -19 -6q-7 -4 -9 -15t3 -29q4 -17 18 -49l124 -278l114 254
q16 39 21 62q4 23 0 36t-16 19q-13 7 -27 8v13h119v-13q-8 -1 -16 -6q-7 -4 -16 -18q-10 -15 -21 -37q-12 -24 -30 -63l-159 -353q-38 -84 -72 -117t-66 -33zM367 570v-1q-19 0 -33 14q-13 13 -13 33t13 33t33 13t33 -13t13 -33t-13 -33t-33 -13zM187 569v-1q-19 0 -33 14
q-13 13 -13 33t13 33t33 13t33 -13t13 -33t-13 -33t-33 -13z" />
    <glyph glyph-name="Amacron" unicode="&#x100;" horiz-adv-x="795" 
d="M19 13l-1 -3q16 6 23 10q11 6 21 19q13 17 23 34q14 25 26 55l236 561q-14 25 -27 32q-14 7 -30 12v13h109q11 0 15 -4t10 -18l266 -601q14 -32 19 -42q8 -16 18 -31q8 -13 21 -22q10 -7 29 -16v-15h-178v15q32 6 32 27q0 23 -22 71l-52 118h-381l-42 -99q-6 -13 -12 -30
t-6 -33t9 -31q9 -14 33 -22v-13h-139v13zM547 243l-188 425l-179 -425h367zM477 803h-232v40h232v-40z" />
    <glyph glyph-name="amacron" unicode="&#x101;" horiz-adv-x="479" 
d="M159 -7l-7 1q-58 0 -92 27q-35 27 -35 81q0 32 12 51q12 20 32 35q20 16 47 26q18 7 56 23l69 29q24 10 39 21q16 11 23 21q8 11 11 20t3 17v51q0 44 -27 59t-70 15q-41 0 -56 -12t-26 -29q-10 -15 -21 -25q-11 -9 -25 -9q-19 0 -28 9t-9 23t13 24q14 11 36 18
q23 8 52 12q27 4 63 4q35 0 63 -4q33 -5 57 -16q26 -12 42 -34q17 -23 17 -58v-228q0 -36 2 -70q2 -25 6 -39q5 -14 12 -17q8 -3 21 -3q9 0 19 3q7 2 19 8l6 -12q-3 -3 -23 -13q-18 -9 -46 -9q-52 0 -72 23t-20 60v4l-25 -23q-16 -14 -25 -22q-14 -12 -30 -21
q-17 -9 -37 -15q-21 -6 -46 -6zM105 106l-2 -2q0 -48 18 -67t53 -19q36 0 62 17q24 15 51 41l27 25v193q-7 -9 -24 -22q-18 -13 -48 -26l-52 -22q-46 -19 -66 -47q-19 -26 -19 -71zM332 616v-38h-219v38h219z" />
    <glyph glyph-name="Abreve" unicode="&#x102;" horiz-adv-x="795" 
d="M19 13l-1 -3q16 6 23 10q11 6 21 19q13 17 23 34q14 25 26 55l236 561q-14 25 -27 32q-14 7 -30 12v13h109q11 0 15 -4t10 -18l266 -601q14 -32 19 -42q8 -16 18 -31q8 -13 21 -22q10 -7 29 -16v-15h-178v15q32 6 32 27q0 23 -22 71l-52 118h-381l-42 -99q-6 -13 -12 -30
t-6 -33t9 -31q9 -14 33 -22v-13h-139v13zM547 243l-188 425l-179 -425h367zM360 833l-1 1q47 0 69 18t30 39h16q-1 -13 -9 -31q-7 -17 -21 -34q-13 -16 -35 -27t-51 -11q-30 0 -52 11q-21 11 -35 26q-13 15 -21 33t-9 33h16q3 -9 11 -21q7 -10 20 -18q10 -6 30 -13
q18 -6 42 -6z" />
    <glyph glyph-name="abreve" unicode="&#x103;" horiz-adv-x="479" 
d="M159 -7l-7 1q-58 0 -92 27q-35 27 -35 81q0 32 12 51q12 20 32 35q20 16 47 26q18 7 56 23l69 29q24 10 39 21q16 11 23 21q8 11 11 20t3 17v51q0 44 -27 59t-70 15q-41 0 -56 -12t-26 -29q-10 -15 -21 -25q-11 -9 -25 -9q-19 0 -28 9t-9 23t13 24q14 11 36 18
q23 8 52 12q27 4 63 4q35 0 63 -4q33 -5 57 -16q26 -12 42 -34q17 -23 17 -58v-228q0 -36 2 -70q2 -25 6 -39q5 -14 12 -17q8 -3 21 -3q9 0 19 3q7 2 19 8l6 -12q-3 -3 -23 -13q-18 -9 -46 -9q-52 0 -72 23t-20 60v4l-25 -23q-16 -14 -25 -22q-14 -12 -30 -21
q-17 -9 -37 -15q-21 -6 -46 -6zM105 106l-2 -2q0 -48 18 -67t53 -19q36 0 62 17q24 15 51 41l27 25v193q-7 -9 -24 -22q-18 -13 -48 -26l-52 -22q-46 -19 -66 -47q-19 -26 -19 -71zM223 585l2 -3q42 0 63 23q22 23 29 59h16q-2 -25 -9 -47t-21 -40q-13 -17 -33 -28t-45 -11
q-26 0 -48 11q-20 10 -34 29q-13 18 -21 41t-9 48h16q8 -35 28 -58q21 -24 66 -24z" />
    <glyph glyph-name="Aogonek" unicode="&#x104;" horiz-adv-x="795" 
d="M19 13h1q16 6 23 10q11 6 21 19q13 17 23 34q14 25 26 55l237 561q-14 25 -28 32q-16 8 -31 12v13h109q11 0 15 -4t10 -18l266 -601q14 -32 19 -42q8 -16 18 -31q8 -13 21 -22q10 -7 29 -16v-15h-90q-22 0 -41 -8q-16 -7 -31 -20q-14 -12 -21 -27q-7 -14 -7 -30t12 -31
t36 -15q14 0 24 6t18 12l10 -9l-9 -12q-5 -7 -17 -15q-10 -7 -26 -12q-17 -5 -34 -5q-34 0 -55 18t-21 47q0 21 14 40t33 32q21 15 42 23q26 11 39 14l-97 220h-381l-42 -99q-6 -13 -12 -30t-6 -33t9 -31q9 -14 33 -22v-13h-139v13zM549 246l-188 425l-179 -425h367z" />
    <glyph glyph-name="aogonek" unicode="&#x105;" horiz-adv-x="479" 
d="M159 -7l-7 5q-58 0 -92 27q-35 27 -35 81q0 32 12 51q12 20 32 35q20 16 47 26q18 7 56 23l69 29q24 10 39 21t24 21t12 20q3 9 3 17v51q0 44 -27 59t-70 15q-41 0 -56 -12t-26 -29q-10 -15 -21 -25q-11 -9 -27 -9q-18 0 -27 9t-9 23t13 24q13 11 36 18q23 8 52 12
q27 4 63 4q35 0 63 -4q33 -5 57 -16q26 -12 42 -34q17 -23 17 -58v-228q0 -36 2 -70q1 -25 6 -39t12 -17t21 -3q8 0 19 3q7 2 19 8l6 -12q-8 -5 -24 -12q-34 -13 -57 -33q-22 -19 -22 -54q0 -19 12 -34t36 -15q13 0 24 6t18 12l10 -9q-4 -6 -10 -12q-7 -8 -18 -15
q-11 -8 -25 -12q-17 -5 -34 -5q-34 0 -55 18t-21 47q0 18 9 33q8 14 23 27t30 20q16 7 30 12h-3q-46 0 -66 23q-19 22 -19 60v4l-25 -23q-16 -14 -25 -22q-14 -12 -30 -21q-17 -9 -37 -15q-21 -6 -46 -6zM105 110l-2 -2q0 -48 18 -67t53 -19q36 0 62 17q24 15 51 41l27 25
v193q-7 -9 -24 -22q-18 -13 -48 -26l-52 -22q-46 -19 -66 -47q-19 -26 -19 -71z" />
    <glyph glyph-name="Cacute" unicode="&#x106;" horiz-adv-x="765" 
d="M427 -10l-1 4q-90 0 -163 32q-71 31 -121 84q-49 52 -75 122t-26 143q0 95 36 167q36 73 93 122t128 75q72 26 143 26q55 0 87 -7q39 -8 59 -16q36 -13 42 -16q17 -7 37 -7q25 0 32 28h16v-164h-16q-29 86 -95 125t-160 39q-65 0 -120 -21t-97 -64q-42 -44 -66 -109
q-24 -66 -24 -159q0 -101 26 -174q26 -72 69 -117t99 -66t114 -21q52 0 96 11q41 10 73 27q30 16 54 38q20 19 39 41l12 -11q-13 -18 -38 -42q-23 -21 -60 -43q-34 -20 -84 -34q-46 -13 -109 -13zM333 802l164 92q12 6 18 8q9 3 20 3q13 0 21 -9q8 -10 8 -19q0 -26 -44 -40
l-182 -48z" />
    <glyph glyph-name="cacute" unicode="&#x107;" horiz-adv-x="493" 
d="M244 547l107 140q10 12 20 21q8 7 22 7q13 0 21 -9q7 -8 7 -19q0 -12 -7 -20q-9 -10 -18 -17l-143 -114zM288 -11l-10 -4q-48 0 -93 18q-46 18 -80 51q-36 34 -56 79q-21 47 -21 102q0 57 24 102q25 47 61 77q39 32 84 50q47 18 91 18q32 0 65 -5q29 -4 53 -14
q22 -9 36 -23q13 -13 13 -30q0 -14 -9 -26t-30 -12q-13 0 -21 5q-7 5 -12 12q-5 9 -8 18q-2 7 -8 21q-5 12 -10 18q-6 8 -13 12t-20 6q-16 2 -31 2q-30 0 -63 -11q-32 -11 -57 -37q-26 -27 -42 -70q-16 -42 -16 -108t15 -110t40 -70t60 -37q36 -11 73 -11q53 0 90 18t64 48
l12 -12q-31 -36 -73 -56q-44 -21 -108 -21z" />
    <glyph glyph-name="Ccircumflex" unicode="&#x108;" horiz-adv-x="765" 
d="M435 901l136 -106l-5 -11l-131 51l-131 -51l-5 11zM427 -10l-1 4q-90 0 -163 32q-71 31 -121 84q-49 52 -75 122t-26 143q0 95 36 167q36 73 93 122t128 75q72 26 143 26q55 0 87 -7q39 -8 59 -16q36 -13 42 -16q17 -7 37 -7q25 0 32 28h16v-164h-16q-29 86 -95 125
t-160 39q-65 0 -120 -21t-97 -64q-42 -44 -66 -109q-24 -66 -24 -159q0 -101 26 -174q26 -72 69 -117t99 -66t114 -21q52 0 96 11q41 10 73 27q30 16 54 38q20 19 39 41l12 -11q-13 -18 -38 -42q-23 -21 -60 -43q-34 -20 -84 -34q-46 -13 -109 -13z" />
    <glyph glyph-name="ccircumflex" unicode="&#x109;" horiz-adv-x="493" 
d="M293 717l123 -174l-11 -9l-112 98l-112 -98l-11 9zM287 -10l-10 -4q-48 0 -93 18q-46 18 -80 51q-36 34 -56 79q-21 46 -21 102q0 57 24 102q25 47 61 77q39 32 84 50q47 18 91 18q32 0 65 -5q29 -4 53 -14q22 -9 36 -23q13 -13 13 -30q0 -14 -9 -26t-30 -12q-13 0 -21 5
q-8 4 -12 12q-5 9 -8 18q-2 7 -8 21q-5 12 -10 18q-6 8 -13 12t-20 6q-16 2 -31 2q-30 0 -63 -11q-32 -11 -57 -37q-26 -27 -42 -70q-16 -42 -16 -108q0 -67 15 -110q15 -44 40 -70t60 -37q36 -11 73 -11q52 0 90 18q37 18 64 48l12 -12q-31 -36 -73 -56q-43 -21 -108 -21z
" />
    <glyph glyph-name="Cdotaccent" unicode="&#x10a;" horiz-adv-x="765" 
d="M427 -10l-1 4q-90 0 -163 32q-71 31 -121 84q-49 52 -75 122t-26 143q0 95 36 167q36 73 93 122t128 75q72 26 143 26q55 0 87 -7q39 -8 59 -16q36 -13 42 -16q17 -7 37 -7q25 0 32 28h16v-164h-16q-29 86 -95 125t-160 39q-65 0 -120 -21t-97 -64q-42 -44 -66 -109
q-24 -66 -24 -159q0 -101 26 -174q26 -72 69 -117t99 -66t114 -21q52 0 96 11q41 10 73 27q30 16 54 38q20 19 39 41l12 -11q-13 -18 -38 -42q-23 -21 -60 -43q-34 -20 -84 -34q-46 -13 -109 -13zM435 795l-1 -2q-20 0 -33 15q-13 14 -13 35q0 19 14 33t33 14q20 0 33 -13
q14 -14 14 -33q0 -18 -14 -34q-14 -15 -33 -15z" />
    <glyph glyph-name="cdotaccent" unicode="&#x10b;" horiz-adv-x="493" 
d="M287 -10l-10 -4q-48 0 -93 18q-46 18 -80 51q-36 34 -56 79q-21 46 -21 102q0 57 24 102q25 47 61 77q39 32 84 50q47 18 91 18q32 0 65 -5q29 -4 53 -14q22 -9 36 -23q13 -13 13 -30q0 -14 -9 -26t-30 -12q-13 0 -21 5q-8 4 -12 12q-5 9 -8 18q-2 7 -8 21q-5 12 -10 18
q-6 8 -13 12t-20 6q-16 2 -31 2q-30 0 -63 -11q-32 -11 -57 -37q-26 -27 -42 -70q-16 -42 -16 -108q0 -67 15 -110q15 -44 40 -70t60 -37q36 -11 73 -11q52 0 90 18q37 18 64 48l12 -12q-31 -36 -73 -56q-43 -21 -108 -21zM283 566l-1 -2q-20 0 -33 15q-13 14 -13 35
q0 19 14 33t33 14q20 0 33 -13q14 -14 14 -33q0 -18 -14 -34q-14 -15 -33 -15z" />
    <glyph glyph-name="Ccaron" unicode="&#x10c;" horiz-adv-x="765" 
d="M304 902l131 -51l131 51l5 -11l-136 -106l-136 106zM427 -10l-1 4q-90 0 -163 32q-71 31 -121 84q-49 52 -75 122t-26 143q0 95 36 167q36 73 93 122t128 75q72 26 143 26q55 0 87 -7q39 -8 59 -16q36 -13 42 -16q17 -7 37 -7q25 0 32 28h16v-164h-16q-29 86 -95 125
t-160 39q-65 0 -120 -21t-97 -64q-42 -44 -66 -109q-24 -66 -24 -159q0 -101 26 -174q26 -72 69 -117t99 -66t114 -21q52 0 96 11q41 10 73 27q30 16 54 38q20 19 39 41l12 -11q-13 -18 -38 -42q-23 -21 -60 -43q-34 -20 -84 -34q-46 -13 -109 -13z" />
    <glyph glyph-name="ccaron" unicode="&#x10d;" horiz-adv-x="493" 
d="M181 727l112 -98l112 98l11 -9l-123 -174l-123 174zM287 -10l-10 -4q-48 0 -93 18q-46 18 -80 51q-36 34 -56 79q-21 46 -21 102q0 57 24 102q25 47 61 77q39 32 84 50q47 18 91 18q32 0 65 -5q29 -4 53 -14q22 -9 36 -23q13 -13 13 -30q0 -14 -9 -26t-30 -12
q-13 0 -21 5q-8 4 -12 12q-5 9 -8 18q-2 7 -8 21q-5 12 -10 18q-6 8 -13 12t-20 6q-16 2 -31 2q-30 0 -63 -11q-32 -11 -57 -37q-26 -27 -42 -70q-16 -42 -16 -108q0 -67 15 -110q15 -44 40 -70t60 -37q36 -11 73 -11q52 0 90 18q37 18 64 48l12 -12q-31 -36 -73 -56
q-43 -21 -108 -21z" />
    <glyph glyph-name="Dcaron" unicode="&#x10e;" horiz-adv-x="785" 
d="M176 902l131 -51l131 51l5 -11l-136 -106l-136 106zM24 13l-2 -2q20 7 33 17q12 9 18 35q5 23 7 75q2 66 2 133v204q0 102 -1 134q-2 51 -7 74q-6 26 -18 35q-13 10 -33 17v13h186q263 0 399 -91t136 -273q0 -87 -31 -156q-31 -70 -97 -121q-65 -50 -167 -79
q-99 -28 -239 -28h-186v13zM166 732l-2 -721h42q112 0 195 21t138 66q54 44 82 116q27 70 27 168q0 103 -31 169q-32 68 -88 108q-57 41 -138 57q-79 16 -183 16h-42z" />
    <glyph glyph-name="dcaron" unicode="&#x10f;" horiz-adv-x="600" 
d="M568 590l11 129q2 26 9 38q8 12 24 12q14 0 21 -7t7 -19q0 -14 -9 -35l-51 -121zM262 -10l-4 -4q-40 0 -81 15t-72 45t-51 74q-19 42 -19 102q0 59 20 108q19 48 54 81t81 51q47 18 101 18q39 0 75 -13q37 -13 73 -45v157v66q0 23 -5 36q-5 12 -16 15q-9 2 -34 4v16
l134 63v-617q0 -54 1 -72q2 -28 7 -43q6 -17 18 -24q11 -7 33 -13v-13h-136v97l-29 -31q-6 -6 -26 -24q-16 -14 -34 -24q-20 -11 -42 -18q-21 -7 -48 -7zM438 114l-3 288q-37 34 -75 48q-39 14 -72 14q-32 0 -63 -12q-32 -12 -56 -39t-39 -70t-15 -106q0 -74 15 -119
q15 -44 38 -69q23 -24 50 -32q29 -8 51 -8q23 0 42 6t38 17q18 10 33 24t27 27z" />
    <glyph glyph-name="Dcroat" unicode="&#x110;" horiz-adv-x="785" 
d="M24 13l-4 -4q20 7 33 17q12 9 18 35q5 23 7 75q2 66 2 133v111h-78v16h78v-16h85v-369h42q113 0 195 21t138 66q54 44 82 116q27 70 27 168q0 103 -31 169q-32 68 -88 108q-57 41 -138 57q-79 16 -183 16h-42v-334h167v-16h-167v16h-85v77q0 102 -1 134q-2 51 -7 74
q-6 26 -18 35q-13 10 -33 17v13h186q263 0 399 -91t136 -273q0 -87 -31 -156q-31 -70 -97 -121q-65 -50 -167 -79q-99 -28 -239 -28h-186v13z" />
    <glyph glyph-name="dcroat" unicode="&#x111;" horiz-adv-x="600" 
d="M269 585h331v-16h-331v16zM263 -9l-4 -4q-41 0 -81 15t-72 45q-31 30 -51 74q-19 42 -19 102q0 59 20 108q20 48 54 81t81 51t101 18q39 0 75 -13q37 -13 73 -45v157v66q0 23 -5 36q-5 12 -16 15q-9 2 -34 4v16l134 63v-617q0 -54 1 -72q2 -28 7 -43q6 -16 18 -24
q11 -7 33 -13v-13h-136v97l-29 -31q-6 -6 -26 -24q-16 -14 -34 -24q-19 -10 -42 -18q-21 -7 -48 -7zM439 115l-3 288q-38 35 -75 48q-39 14 -72 14q-31 0 -63 -12t-56 -39t-39 -70q-15 -44 -15 -106q0 -74 15 -119q15 -44 38 -69q23 -24 50 -32q29 -8 51 -8t42 6q19 6 38 17
q18 11 33 24t27 27z" />
    <glyph glyph-name="Emacron" unicode="&#x112;" horiz-adv-x="651" 
d="M24 13l1 3q20 7 33 17q12 9 18 35q5 23 7 75q2 66 2 133v204q0 102 -1 134q-2 51 -7 74q-6 26 -18 35q-13 10 -33 17v13h540q11 0 15 -4q5 -5 9 -27l18 -102h-18q-13 35 -29 59q-15 22 -35 36q-20 13 -45 18q-28 5 -57 5h-255v-306h94q38 0 56 7q19 7 30 18t14 24l6 27
h16v-172h-16l-6 27q-3 13 -14 24t-30 18q-18 7 -56 7h-94v-396h274q35 0 60 3t45 17t35 39q14 24 28 69h18l-13 -113q-1 -22 -8 -27q-5 -4 -22 -4h-562v13zM450 809h-232v40h232v-40z" />
    <glyph glyph-name="emacron" unicode="&#x113;" horiz-adv-x="506" 
d="M287 -11v-4q-46 0 -91 15t-81 45q-35 29 -58 77q-22 45 -22 110q0 59 23 107q22 47 57 78q34 31 77 48t83 17q34 0 67 -9q34 -9 60 -28q27 -19 46 -52q19 -32 25 -81h-347q-4 -21 -5 -36q-2 -26 -2 -42q0 -65 15 -107t41 -68q25 -25 60 -36q33 -10 73 -10q92 0 147 51
l9 -13q-28 -29 -72 -45q-45 -17 -105 -17zM275 466l1 -2q-22 0 -43 -7q-23 -7 -42 -24t-36 -42q-16 -24 -25 -63h265q-3 44 -13 69q-10 27 -27 42t-37 21q-21 6 -43 6zM394 611v-38h-219v38h219z" />
    <glyph glyph-name="Ebreve" unicode="&#x114;" horiz-adv-x="651" 
d="M24 13l1 3q20 7 33 17q12 9 18 35q5 23 7 75q2 66 2 133v204q0 102 -1 134q-2 51 -7 74q-6 26 -18 35q-13 10 -33 17v13h540q11 0 15 -4q5 -5 9 -27l18 -102h-18q-13 35 -29 59q-15 22 -35 36q-20 13 -45 18q-28 5 -57 5h-255v-306h94q38 0 56 7q19 7 30 18t14 24l6 27
h16v-172h-16l-6 27q-3 13 -14 24t-30 18q-18 7 -56 7h-94v-396h274q35 0 60 3t45 17t35 39q14 24 28 69h18l-13 -113q-1 -22 -8 -27q-5 -4 -22 -4h-562v13zM335 839l-1 1q46 0 69 18t30 39h16q-1 -13 -9 -31q-7 -17 -21 -34q-13 -16 -35 -27t-51 -11q-30 0 -52 11
q-21 11 -35 26t-21 33t-9 33h16q3 -9 11 -21q7 -10 20 -18q10 -6 30 -13q18 -6 42 -6z" />
    <glyph glyph-name="ebreve" unicode="&#x115;" horiz-adv-x="506" 
d="M287 -11v-4q-46 0 -91 15t-81 45q-35 29 -58 77q-22 45 -22 110q0 59 23 107q22 47 57 78q34 31 77 48t83 17q34 0 67 -9q34 -9 60 -28q27 -19 46 -52q19 -32 25 -81h-347q-4 -21 -5 -36q-2 -26 -2 -42q0 -65 15 -107t41 -68q25 -25 60 -36q33 -10 73 -10q92 0 147 51
l9 -13q-28 -29 -72 -45q-45 -17 -105 -17zM275 466l1 -2q-22 0 -43 -7q-23 -7 -42 -24t-36 -42q-16 -24 -25 -63h265q-3 44 -13 69q-10 27 -27 42t-37 21q-21 6 -43 6zM285 580l2 -3q42 0 63 23q22 23 29 59h16q-2 -25 -9 -47t-21 -40q-13 -17 -33 -28t-45 -11q-26 0 -48 11
q-20 10 -34 29q-13 18 -21 41q-8 22 -9 48h16q8 -35 28 -58q21 -24 66 -24z" />
    <glyph glyph-name="Edotaccent" unicode="&#x116;" horiz-adv-x="651" 
d="M333 791l-1 -2q-20 0 -33 15q-13 14 -13 35q0 19 14 33t33 14q20 0 33 -13q14 -14 14 -33q0 -18 -14 -34q-14 -15 -33 -15zM23 11l1 3q20 7 33 17q12 9 18 35q5 23 7 75q2 66 2 133v204q0 102 -1 134q-2 51 -7 74q-6 26 -18 35q-13 10 -33 17v13h540q11 0 15 -4
q4 -5 9 -27l18 -102h-18q-13 35 -29 59q-15 22 -35 36q-19 13 -45 18q-28 5 -57 5h-255v-306h94q38 0 56 7q20 7 30 18q11 11 14 24l6 27h16v-172h-16l-6 27q-3 13 -14 24q-10 11 -30 18q-18 7 -56 7h-94v-396h274q34 0 60 3q25 3 45 17t35 39q14 24 28 69h18l-13 -113
q-1 -22 -8 -27q-5 -4 -22 -4h-562v13z" />
    <glyph glyph-name="edotaccent" unicode="&#x117;" horiz-adv-x="506" 
d="M287 -11v-4q-46 0 -91 15t-81 45q-35 29 -58 77q-22 45 -22 110q0 59 23 107q22 47 57 78q34 31 77 48t83 17q34 0 67 -9q34 -9 60 -28q27 -19 46 -52q19 -32 25 -81h-347q-4 -21 -5 -36q-2 -26 -2 -42q0 -65 15 -107t41 -68q25 -25 60 -36q33 -10 73 -10q92 0 147 51
l9 -13q-28 -29 -72 -45q-45 -17 -105 -17zM275 466l1 -2q-22 0 -43 -7q-23 -7 -42 -24t-36 -42q-16 -24 -25 -63h265q-3 44 -13 69q-10 27 -27 42t-37 21q-21 6 -43 6zM284 564l-1 -2q-19 0 -33 15q-13 14 -13 35q0 19 14 33t33 14q20 0 33 -13q14 -14 14 -33q0 -18 -14 -34
q-13 -15 -33 -15z" />
    <glyph glyph-name="Eogonek" unicode="&#x118;" horiz-adv-x="651" 
d="M462 -165l-4 4q-35 0 -56 18t-21 47q0 21 14 40q13 18 33 30q22 13 39 20q19 8 30 9h26q-32 -11 -54 -31q-22 -21 -22 -53q0 -19 12 -34t36 -15q13 0 24 6t18 12l10 -9q-3 -5 -9 -12q-5 -7 -17 -15q-11 -8 -25 -12q-17 -5 -34 -5zM20 17l1 3q20 7 33 17q12 9 18 35
q5 23 7 75q2 66 2 133v204q0 102 -1 134q-2 51 -7 74q-6 26 -18 35q-13 10 -33 17v13h540q11 0 15 -4q5 -5 9 -27l18 -102h-18q-13 35 -29 59q-15 22 -35 36q-20 13 -45 18q-28 5 -57 5h-255v-306h94q38 0 56 7q19 7 30 18t14 24l6 27h16v-172h-16l-6 27q-3 13 -14 24
t-30 18q-18 7 -56 7h-94v-396h274q35 0 60 3t45 17t35 39q14 24 28 69h18l-13 -113q-1 -22 -8 -27q-5 -4 -22 -4h-562v13z" />
    <glyph glyph-name="eogonek" unicode="&#x119;" horiz-adv-x="506" 
d="M410 -123l1 -6q-3 -5 -9 -12q-5 -6 -17 -13q-13 -7 -25 -11q-17 -5 -33 -5q-35 0 -57 18t-22 47q0 20 10 34q10 15 24 27q15 13 30 20q16 8 30 12q-12 -2 -27 -3q-10 -1 -28 -1q-46 0 -91 15t-81 45q-35 29 -58 77q-22 45 -22 110q0 59 23 107q22 46 57 78q34 31 77 48
t83 17q34 0 67 -9q34 -9 60 -28q27 -19 46 -52q19 -32 25 -81h-347q-4 -21 -5 -36q-2 -26 -2 -42q0 -65 15 -107t41 -68q25 -26 60 -36q33 -10 73 -10q92 0 147 51l9 -13q-12 -12 -27 -22q-16 -11 -30 -17q-18 -7 -37 -18q-18 -11 -31 -22q-13 -12 -21 -26t-8 -30
q0 -19 12 -34t36 -15q14 0 24 6q9 5 18 14zM276 464l1 -2q-22 0 -43 -7q-22 -7 -42 -24t-36 -42q-16 -24 -25 -63h265q-3 44 -13 69q-11 27 -27 42q-17 15 -37 21q-21 6 -43 6z" />
    <glyph glyph-name="Ecaron" unicode="&#x11a;" horiz-adv-x="651" 
d="M202 902l131 -51l131 51l5 -11l-136 -106l-136 106zM24 13l1 3q20 7 33 17q12 9 18 35q5 23 7 75q2 66 2 133v204q0 102 -1 134q-2 51 -7 74q-6 26 -18 35q-13 10 -33 17v13h540q11 0 15 -4q5 -5 9 -27l18 -102h-18q-13 35 -29 59q-15 22 -35 36q-20 13 -45 18
q-28 5 -57 5h-255v-306h94q38 0 56 7q19 7 30 18t14 24l6 27h16v-172h-16l-6 27q-3 13 -14 24t-30 18q-18 7 -56 7h-94v-396h274q35 0 60 3t45 17t35 39q14 24 28 69h18l-13 -113q-1 -22 -8 -27q-5 -4 -22 -4h-562v13z" />
    <glyph glyph-name="ecaron" unicode="&#x11b;" horiz-adv-x="506" 
d="M171 727l112 -98l112 98l11 -9l-123 -174l-123 174zM287 -11v-4q-46 0 -91 15t-81 45q-35 29 -58 77q-22 45 -22 110q0 59 23 107q22 47 57 78q34 31 77 48t83 17q34 0 67 -9q34 -9 60 -28q27 -19 46 -52q19 -32 25 -81h-347q-4 -21 -5 -36q-2 -26 -2 -42q0 -65 15 -107
t41 -68q25 -25 60 -36q33 -10 73 -10q92 0 147 51l9 -13q-28 -29 -72 -45q-45 -17 -105 -17zM275 466l1 -2q-22 0 -43 -7q-23 -7 -42 -24t-36 -42q-16 -24 -25 -63h265q-3 44 -13 69q-10 27 -27 42t-37 21q-21 6 -43 6z" />
    <glyph glyph-name="Gcircumflex" unicode="&#x11c;" horiz-adv-x="808" 
d="M442 901l136 -106l-5 -11l-131 51l-131 -51l-5 11zM429 -11l-4 -3q-85 0 -157 30q-73 30 -123 82q-52 54 -80 124q-28 71 -28 157q0 99 37 170t96 118t130 69q74 23 141 23q53 0 86 -6q31 -6 56 -14q8 -3 21.5 -7.5l19.5 -6.5q18 -6 39 -6q26 0 33 28h18v-164h-18
q-26 80 -91 120q-67 41 -163 41q-62 0 -117 -18q-56 -18 -98 -60q-41 -42 -67 -109q-25 -66 -25 -165q0 -100 21 -174t60 -120t93 -69q53 -22 120 -22q109 0 168 51t59 155v4q0 27 -2 53q-1 18 -8 30q-6 10 -18 15q-13 5 -34 9v14h202v-14q-12 -2 -25 -8q-10 -4 -16 -17
q-6 -12 -9 -34q-3 -23 -3 -60v-98q-9 -11 -36 -30q-28 -20 -67 -39t-94 -34q-54 -15 -117 -15z" />
    <glyph glyph-name="gcircumflex" unicode="&#x11d;" horiz-adv-x="496" 
d="M246 717l123 -174l-11 -9l-112 98l-112 -98l-11 9zM235 -168l-14 -1q-43 0 -82 6q-37 6 -69 20q-30 13 -48 33t-18 47q0 18 9 33q8 14 23 27q13 11 32 21q24 12 37 17q-31 7 -48 26q-16 17 -16 43q0 15 6 27q5 11 14 21q8 9 17 17q12 10 17 14l16 12q-35 18 -59 50
q-24 31 -24 77q0 39 18 69t47 50q29 19 63 30q36 11 66 11q25 0 52 -6q28 -6 52 -19q12 10 25 18q15 9 30 15q20 8 30 11q13 4 27 4q20 0 27 -9q8 -10 8 -25t-8 -23t-18 -8t-17 4l-15 9l-15 9q-7 4 -15 4q-14 0 -23 -3q-7 -2 -19 -11q36 -20 59 -52q24 -33 24 -78
q0 -40 -18 -68q-18 -29 -47 -47t-63 -27t-66 -9q-20 0 -47 5q-25 5 -47 15l-17 -12q-13 -11 -24 -21q-10 -10 -10 -24q0 -13 12 -19q11 -5 33 -7l203 -24q37 -5 56 -10q25 -6 41 -18q17 -13 26 -30q9 -18 9 -44q0 -31 -16 -57q-17 -28 -46 -48q-30 -21 -73 -33t-97 -12z
M220 187l1 -1q27 0 48 7q23 7 39 24q17 17 26 42t9 63t-9 65q-9 26 -26 45q-16 18 -39 27t-48 9q-50 0 -84 -34q-35 -35 -35 -111q0 -37 9 -63q9 -25 26 -42q16 -16 38 -24q20 -7 45 -7zM62 -58v1q0 -44 41 -70q40 -25 119 -25q50 0 84 10t60 26q24 15 36 33t12 35
q0 34 -28 44q-29 11 -70 15l-183 22q-35 -15 -53 -36t-18 -55z" />
    <glyph glyph-name="Gbreve" unicode="&#x11e;" horiz-adv-x="808" 
d="M443 836l-1 1q46 0 69 18t30 39h16q-1 -13 -9 -31q-7 -17 -21 -34q-13 -16 -35 -27t-51 -11q-30 0 -52 11q-21 11 -35 26t-21 33t-9 33h16q3 -9 11 -21q7 -10 20 -18q10 -6 30 -13q18 -6 42 -6zM428 -10l-4 -3q-85 0 -157 30q-73 30 -123 82q-52 54 -80 124
q-28 71 -28 157q0 99 37 170t96 118t130 69q74 23 141 23q53 0 86 -6q31 -6 56 -14q8 -3 21.5 -7.5l19.5 -6.5q18 -6 39 -6q26 0 33 28h18v-164h-18q-26 80 -91 120q-67 41 -163 41q-61 0 -117 -18t-98 -60q-42 -41 -67 -109q-25 -66 -25 -165q0 -101 21 -174t60 -120
t93 -69q53 -22 120 -22q110 0 168 51q59 51 59 155v4q0 27 -2 53q-1 18 -8 30q-6 11 -18 15q-13 5 -34 9v14h202v-14q-12 -2 -25 -8q-10 -4 -16 -17q-6 -12 -9 -34t-3 -60v-98q-9 -10 -36 -30q-28 -20 -67 -39t-94 -34q-54 -15 -117 -15z" />
    <glyph glyph-name="gbreve" unicode="&#x11f;" horiz-adv-x="496" 
d="M235 -168l-14 -1q-43 0 -82 6q-37 6 -69 20q-30 13 -48 33t-18 47q0 18 9 33q8 14 23 27q13 11 32 21q24 12 37 17q-31 7 -48 26q-16 17 -16 43q0 15 6 27q5 11 14 21q8 9 17 17q12 10 17 14l16 12q-35 18 -59 50q-24 31 -24 77q0 39 18 69t47 50q29 19 63 30
q36 11 66 11q25 0 52 -6q28 -6 52 -19q12 10 25 18q15 9 30 15q20 8 30 11q13 4 27 4q20 0 27 -9q8 -10 8 -25t-8 -23t-18 -8t-17 4l-15 9l-15 9q-7 4 -15 4q-14 0 -23 -3q-7 -2 -19 -11q36 -20 59 -52q24 -33 24 -78q0 -40 -18 -68q-18 -29 -47 -47t-63 -27t-66 -9
q-20 0 -47 5q-25 5 -47 15l-17 -12q-13 -11 -24 -21q-10 -10 -10 -24q0 -13 12 -19q11 -5 33 -7l203 -24q37 -5 56 -10q25 -6 41 -18q17 -13 26 -30q9 -18 9 -44q0 -31 -16 -57q-17 -28 -46 -48q-30 -21 -73 -33t-97 -12zM220 187l1 -1q27 0 48 7q23 7 39 24q17 17 26 42
t9 63t-9 65q-9 26 -26 45q-16 18 -39 27t-48 9q-50 0 -84 -34q-35 -35 -35 -111q0 -37 9 -63q9 -25 26 -42q16 -16 38 -24q20 -7 45 -7zM62 -58v1q0 -44 41 -70q40 -25 119 -25q50 0 84 10t60 26q24 15 36 33t12 35q0 34 -28 44q-29 11 -70 15l-183 22q-35 -15 -53 -36
t-18 -55zM234 585l2 -3q42 0 63 23q22 23 29 59h16q-2 -25 -9 -47t-21 -40q-13 -17 -33 -28t-45 -11q-26 0 -48 11q-20 10 -34 29q-13 18 -21 41q-7 23 -9 48h16q8 -35 28 -58q21 -24 66 -24z" />
    <glyph glyph-name="Gdotaccent" unicode="&#x120;" horiz-adv-x="808" 
d="M442 791l-1 -2q-19 0 -33 15q-13 14 -13 35q0 19 14 33t33 14q20 0 33 -13q14 -14 14 -33q0 -18 -14 -34q-13 -15 -33 -15zM428 -13l-4 -3q-85 0 -157 30q-73 30 -123 82q-52 54 -80 124q-28 71 -28 157q0 99 37 170t96 118t130 69q74 23 141 23q53 0 86 -6q31 -6 56 -14
q8 -3 21.5 -7.5l19.5 -6.5q18 -6 39 -6q26 0 33 28h18v-164h-18q-26 80 -91 120q-67 41 -163 41q-61 0 -117 -18t-98 -60t-67 -109q-25 -66 -25 -165q0 -100 21 -174t60 -120t93 -69q53 -22 120 -22q110 0 168 51q59 51 59 155v4q0 27 -2 53q-1 18 -8 30q-6 10 -18 15
q-13 5 -34 9v14h202v-14q-12 -2 -25 -8q-10 -4 -16 -17q-6 -12 -9 -34q-3 -23 -3 -60v-98q-9 -11 -36 -30q-28 -20 -67 -39t-94 -34q-54 -15 -117 -15z" />
    <glyph glyph-name="gdotaccent" unicode="&#x121;" horiz-adv-x="496" 
d="M235 -168l-14 -1q-43 0 -82 6q-37 6 -69 20q-30 13 -48 33t-18 47q0 18 9 33q8 14 23 27q13 11 32 21q24 12 37 17q-31 7 -48 26q-16 17 -16 43q0 15 6 27q5 11 14 21q8 9 17 17q12 10 17 14l16 12q-35 18 -59 50q-24 31 -24 77q0 39 18 69t47 50q29 19 63 30
q36 11 66 11q25 0 52 -6q28 -6 52 -19q12 10 25 18q15 9 30 15q20 8 30 11q13 4 27 4q20 0 27 -9q8 -10 8 -25t-8 -23t-18 -8t-17 4l-15 9l-15 9q-7 4 -15 4q-14 0 -23 -3q-7 -2 -19 -11q36 -20 59 -52q24 -33 24 -78q0 -40 -18 -68q-18 -29 -47 -47t-63 -27t-66 -9
q-20 0 -47 5q-25 5 -47 15l-17 -12q-13 -11 -24 -21q-10 -10 -10 -24q0 -13 12 -19q11 -5 33 -7l203 -24q37 -5 56 -10q25 -6 41 -18q17 -13 26 -30q9 -18 9 -44q0 -31 -16 -57q-17 -28 -46 -48q-30 -21 -73 -33t-97 -12zM220 187l1 -1q27 0 48 7q23 7 39 24q17 17 26 42
t9 63t-9 65q-9 26 -26 45q-16 18 -39 27t-48 9q-50 0 -84 -34q-35 -35 -35 -111q0 -37 9 -63q9 -25 26 -42q16 -16 38 -24q20 -7 45 -7zM62 -58v1q0 -44 41 -70q40 -25 119 -25q50 0 84 10t60 26q24 15 36 33t12 35q0 34 -28 44q-29 11 -70 15l-183 22q-35 -15 -53 -36
t-18 -55zM233 569l-1 -2q-20 0 -33 15q-13 14 -13 35q0 19 14 33t33 14q20 0 33 -13q14 -14 14 -33q0 -18 -14 -34q-14 -15 -33 -15z" />
    <glyph glyph-name="uni0122" unicode="&#x122;" horiz-adv-x="808" 
d="M437 -125l-2 -1q-1 -4 -8 -9q-5 -4 -17 -4q-16 0 -27 11t-11 30t14 30t30 11q20 0 37 -15q16 -15 16 -43q0 -40 -22 -61q-23 -22 -54 -29l-6 11q32 9 44 24t12 32q0 8 -6 13zM427 -12l-4 -3q-85 0 -157 30q-73 30 -123 82q-52 54 -80 124q-28 71 -28 157q0 99 37 170
t96 118t130 69q74 23 141 23q53 0 86 -6q31 -6 56 -14q8 -3 21.5 -7.5l19.5 -6.5q18 -6 39 -6q26 0 33 28h18v-164h-18q-26 80 -91 120q-67 41 -163 41q-62 0 -117 -18q-56 -18 -98 -60q-41 -42 -67 -109q-25 -66 -25 -165q0 -101 21 -174t60 -120t93 -69q53 -22 120 -22
q109 0 168 51t59 155v4q0 27 -2 53q-1 18 -8 30q-6 11 -18 15q-13 5 -34 9v14h202v-14q-12 -2 -25 -8q-10 -4 -16 -17q-6 -12 -9 -34t-3 -60v-98q-9 -10 -36 -30q-28 -20 -67 -39t-94 -34q-54 -15 -117 -15z" />
    <glyph glyph-name="uni0123" unicode="&#x123;" horiz-adv-x="496" 
d="M221 628l-1 -2q1 4 8 9t17 5q17 0 27 -10q11 -11 11 -30q0 -20 -13 -30q-14 -11 -30 -11q-20 0 -37 15q-16 15 -16 43q0 40 23 61q23 22 54 29l6 -11q-31 -9 -43 -24t-12 -31q0 -9 6 -13zM234 -170l-14 -1q-43 0 -82 6q-37 6 -69 20q-30 13 -48 33t-18 47q0 18 9 33
q8 14 23 27q13 11 32 21q24 12 37 17q-31 7 -48 26q-16 17 -16 43q0 15 6 27q5 10 14 21q8 9 17 17q12 10 17 14l16 12q-35 18 -59 50q-24 31 -24 77q0 39 18 69t47 50q28 19 63 30q36 11 66 11q25 0 52 -6q28 -6 52 -19q12 10 25 18q15 9 30 15q20 8 30 11q13 4 27 4
q19 0 27 -9q8 -10 8 -25t-8 -23t-18 -8t-17 4l-15 9l-15 9q-7 4 -15 4q-14 0 -23 -3q-7 -2 -19 -11q36 -20 59 -52q24 -33 24 -78q0 -40 -18 -68q-18 -29 -47 -47q-28 -18 -63 -27t-66 -9q-20 0 -47 5q-25 5 -47 15l-17 -12q-14 -11 -24 -21t-10 -24q0 -13 12 -19
q11 -5 33 -7l203 -24q37 -5 56 -10q25 -6 41 -18q17 -13 26 -30q9 -18 9 -44q0 -31 -16 -57q-17 -28 -46 -48q-30 -21 -73 -33t-97 -12zM219 185l1 -1q27 0 48 7q22 7 39 24t26 42t9 63t-9 65q-9 26 -26 45q-17 18 -39 27t-48 9q-50 0 -84 -34q-35 -35 -35 -111q0 -37 9 -63
q9 -25 26 -42q16 -16 38 -24q20 -7 45 -7zM61 -60v1q0 -44 41 -70q40 -25 119 -25q50 0 84 10q35 10 60 26q24 15 36 33t12 35q0 34 -28 44q-29 11 -70 15l-183 22q-35 -15 -53 -36t-18 -55z" />
    <glyph glyph-name="Hcircumflex" unicode="&#x124;" horiz-adv-x="791" 
d="M24 13l-6 -2q21 6 33 15t18 35q5 23 7 75q2 66 2 134v204q0 102 -1 135q-2 52 -7 75q-6 26 -18 35t-33 15v13h204v-13q-21 -6 -33 -15t-18 -35q-5 -23 -7 -75q-1 -33 -1 -135v-58h455v58q0 102 -1 135q-2 52 -7 75q-6 26 -18 35t-33 15v13h204v-13q-21 -6 -33 -15
t-18 -35q-5 -23 -7 -75q-1 -33 -1 -135v-204q0 -67 2 -133q2 -52 7 -75q6 -26 18 -35t33 -15v-13h-204v13q21 6 33 15t18 35q7 28 8 75q2 66 2 134v130h-455v-130q0 -67 2 -133q1 -47 8 -75q6 -26 18 -35t33 -15v-13h-204v13zM389 899l136 -106l-5 -11l-131 51l-131 -51
l-5 11z" />
    <glyph glyph-name="hcircumflex" unicode="&#x125;" horiz-adv-x="578" 
d="M33 13l-4 -5q18 7 26 13q10 8 14 24t6 44q1 18 1 72v423v66q0 23 -5 36q-5 12 -15 15q-8 2 -30 4v16l129 59v-422l49 44q35 32 74 56t87 24q67 0 99 -31q33 -31 33 -100v-187v-72q0 -25 5 -43q4 -16 14 -24q8 -6 26 -13v-13h-175v13q20 7 29 13q10 7 15 24q4 16 6 44
q1 18 1 72v208q0 47 -21 65t-56 18q-32 0 -63 -19q-33 -21 -72 -55l-49 -44v-173q0 -54 1 -72q1 -26 6 -43q4 -16 15 -24q9 -6 29 -13v-13h-175v13zM293 930l136 -106l-5 -11l-131 51l-131 -51l-5 11z" />
    <glyph glyph-name="Hbar" unicode="&#x126;" horiz-adv-x="791" 
d="M10 581h771v-16h-771v16zM24 13l-6 -2q21 6 33 15t18 35q5 23 7 75q2 66 2 134v204q0 102 -1 135q-2 52 -7 75q-6 26 -18 35t-33 15v13h204v-13q-21 -6 -33 -15t-18 -35q-5 -23 -7 -75q-1 -33 -1 -135v-58h455v58q0 102 -1 135q-2 52 -7 75q-6 26 -18 35t-33 15v13h204
v-13q-21 -6 -33 -15t-18 -35q-5 -23 -7 -75q-1 -33 -1 -135v-204q0 -67 2 -133q2 -52 7 -75q6 -26 18 -35t33 -15v-13h-204v13q21 6 33 15t18 35q7 28 8 75q2 66 2 134v130h-455v-130q0 -67 2 -133q1 -47 8 -75q6 -26 18 -35t33 -15v-13h-204v13z" />
    <glyph glyph-name="hbar" unicode="&#x127;" horiz-adv-x="578" 
d="M0 569v16h331v-16h-331zM33 13l-4 -5q18 7 26 13q10 8 14 24t6 44q1 18 1 72v423v66q0 23 -5 36q-5 12 -15 15q-8 2 -30 4v16l129 59v-422l49 44q35 32 74 56t87 24q67 0 99 -31q33 -31 33 -100v-187v-72q0 -25 5 -43q4 -16 14 -24q8 -6 26 -13v-13h-175v13q20 7 29 13
q10 7 15 24q4 16 6 44q1 18 1 72v208q0 47 -21 65t-56 18q-32 0 -63 -19q-33 -21 -72 -55l-49 -44v-173q0 -54 1 -72q1 -26 6 -43q4 -16 15 -24q9 -6 29 -13v-13h-175v13z" />
    <glyph glyph-name="Itilde" unicode="&#x128;" horiz-adv-x="252" 
d="M24 13l-3 -1q20 7 33 17q12 9 18 35q5 23 7 75q2 66 2 133v204q0 102 -1 135q-2 52 -7 76q-6 27 -18 36t-33 15v13h204v-13q-21 -6 -33 -15t-18 -36q-5 -24 -7 -76q-1 -33 -1 -135v-204q0 -67 2 -133q1 -47 8 -75q6 -26 18 -35q11 -8 33 -16v-13h-204v13zM80 882l-6 3
q4 0 26 -2q9 -1 34 -5t34 -5q22 -2 26 -2q8 0 24 9t33 39l12 -4q-13 -47 -35 -72q-21 -24 -43 -24q-5 0 -27 2q-11 1 -35 5q-25 4 -33 5q-20 2 -24 2q-10 0 -25 -9t-37 -43l-12 4q17 51 41 74q25 23 47 23z" />
    <glyph glyph-name="itilde" unicode="&#x129;" horiz-adv-x="248" 
d="M32 13l-2 -1q21 6 30 13q10 7 15 24q4 16 6 44q1 18 1 72v116v67q0 23 -5 36q-4 11 -15 16q-9 4 -30 7v15l131 60v-317q0 -54 1 -72q1 -26 6 -43q4 -16 15 -24q9 -7 30 -13v-13h-183v13zM84 648l-3 3q10 0 25 -3l30 -6q20 -4 29 -6q13 -3 24 -3q8 0 23 9t30 41l12 -6
q-10 -48 -30 -72t-42 -24q-6 0 -26 2q-10 1 -30 5t-29 5q-18 2 -23 2q-7 0 -11 -1q-5 -1 -13 -6q-6 -4 -16 -15q-7 -8 -19 -29l-12 6q13 47 36 73q22 25 45 25z" />
    <glyph glyph-name="Imacron" unicode="&#x12a;" horiz-adv-x="252" 
d="M24 13l-3 -1q20 7 33 17q12 9 18 35q5 23 7 75q2 66 2 133v204q0 102 -1 135q-2 52 -7 76q-6 27 -18 36t-33 15v13h204v-13q-21 -6 -33 -15t-18 -36q-5 -24 -7 -76q-1 -33 -1 -135v-204q0 -67 2 -133q1 -47 8 -75q6 -26 18 -35q11 -8 33 -16v-13h-204v13zM238 805h-232
v40h232v-40z" />
    <glyph glyph-name="imacron" unicode="&#x12b;" horiz-adv-x="248" 
d="M32 13l-2 -1q21 6 30 13q10 7 15 24q4 16 6 44q1 18 1 72v116v67q0 23 -5 36q-4 11 -15 16q-9 4 -30 7v15l131 60v-317q0 -54 1 -72q1 -26 6 -43q4 -16 15 -24q9 -7 30 -13v-13h-183v13zM230 616v-38h-219v38h219z" />
    <glyph glyph-name="Ibreve" unicode="&#x12c;" horiz-adv-x="252" 
d="M24 13l-3 -1q20 7 33 17q12 9 18 35q5 23 7 75q2 66 2 133v204q0 102 -1 135q-2 52 -7 76q-6 27 -18 36t-33 15v13h204v-13q-21 -6 -33 -15t-18 -36q-5 -24 -7 -76q-1 -33 -1 -135v-204q0 -67 2 -133q1 -47 8 -75q6 -26 18 -35q11 -8 33 -16v-13h-204v13zM123 835l-1 1
q46 0 69 18t30 39h16q-1 -13 -9 -31q-7 -17 -21 -34q-13 -16 -35 -27t-51 -11q-30 0 -52 11q-21 11 -35 26t-21 33t-9 33h16q3 -9 11 -21q7 -10 20 -18q10 -6 30 -13q18 -6 42 -6z" />
    <glyph glyph-name="ibreve" unicode="&#x12d;" horiz-adv-x="248" 
d="M32 13l-2 -1q21 6 30 13q10 7 15 24q4 16 6 44q1 18 1 72v116v67q0 23 -5 36q-4 11 -15 16q-9 4 -30 7v15l131 60v-317q0 -54 1 -72q1 -26 6 -43q4 -16 15 -24q9 -7 30 -13v-13h-183v13zM121 585l2 -3q42 0 63 23q22 23 29 59h16q-2 -25 -9 -47t-21 -40q-13 -17 -33 -28
t-45 -11q-26 0 -48 11q-20 10 -34 29q-13 18 -21 41t-9 48h16q8 -35 28 -58q21 -24 66 -24z" />
    <glyph glyph-name="Iogonek" unicode="&#x12e;" horiz-adv-x="252" 
d="M24 13l-3 -1q20 7 33 17q12 9 18 35q5 23 7 75q2 66 2 133v204q0 102 -1 135q-2 52 -7 76q-6 27 -18 36t-33 15v13h204v-13q-21 -6 -33 -15t-18 -36q-5 -24 -7 -76q-1 -33 -1 -135v-204q0 -67 2 -133q1 -47 8 -75q6 -26 18 -35q11 -8 33 -16v-13h-204v13zM124 -166l-4 4
q-35 0 -56 18t-21 47q0 21 14 40q13 18 33 30q22 13 39 20q19 7 30 9h26q-32 -11 -54 -31q-22 -21 -22 -53q0 -19 12 -34t36 -15q13 0 24 6t18 12l10 -9l-9 -12q-5 -7 -17 -15q-11 -8 -25 -12q-17 -5 -34 -5z" />
    <glyph glyph-name="iogonek" unicode="&#x12f;" horiz-adv-x="248" 
d="M120 571v-1q-19 0 -33 14t-14 33t14 33t33 14q20 0 33 -13q14 -14 14 -33t-14 -33t-33 -14zM32 12l-2 -1q21 6 30 13q10 8 15 24q4 16 6 44q1 18 1 72v116v67q0 23 -5 36q-4 11 -15 16q-9 4 -30 7v15l131 60v-317q0 -54 1 -72q1 -26 6 -43q4 -17 15 -24q9 -7 30 -13v-13
h-183v13zM119 -167l-4 4q-35 0 -56 18t-21 47q0 21 14 40q14 18 33 30q22 13 39 20q20 8 30 9h26q-32 -11 -54 -31q-22 -21 -22 -53q0 -19 12 -34t36 -15q14 0 24 6t18 12l10 -9q-3 -5 -9 -12q-5 -7 -17 -15q-11 -8 -25 -12q-17 -5 -34 -5z" />
    <glyph glyph-name="Idotaccent" unicode="&#x130;" horiz-adv-x="252" 
d="M24 13l-3 -1q20 7 33 17q12 9 18 35q5 23 7 75q2 66 2 133v204q0 102 -1 135q-2 52 -7 76q-6 27 -18 36t-33 15v13h204v-13q-21 -6 -33 -15t-18 -36q-5 -24 -7 -76q-1 -33 -1 -135v-204q0 -67 2 -133q1 -47 8 -75q6 -26 18 -35q11 -8 33 -16v-13h-204v13zM122 790l-1 -2
q-19 0 -33 15q-13 14 -13 35q0 19 14 33t33 14q20 0 33 -13q14 -14 14 -33q0 -18 -14 -34q-13 -15 -33 -15z" />
    <glyph glyph-name="dotlessi" unicode="&#x131;" horiz-adv-x="248" 
d="M32 13l-2 -1q21 6 30 13q10 7 15 24q4 16 6 44q1 18 1 72v116v67q0 23 -5 36q-4 11 -15 16q-9 4 -30 7v15l131 60v-317q0 -54 1 -72q1 -26 6 -43q4 -16 15 -24q9 -7 30 -13v-13h-183v13z" />
    <glyph glyph-name="IJ" unicode="&#x132;" horiz-adv-x="685" 
d="M24 13l-3 -1q20 7 33 17q12 9 18 35q5 23 7 75q2 66 2 133v204q0 102 -1 135q-2 52 -7 76q-6 27 -18 36t-33 15v13h204v-13q-21 -6 -33 -15t-18 -36q-5 -24 -7 -76q-1 -33 -1 -135v-204q0 -67 2 -133q1 -47 8 -75q6 -26 18 -35q11 -8 33 -16v-13h-204v13zM423 -10h-2
q-33 0 -67 8q-32 8 -54 21q-23 14 -35 30q-12 17 -12 36q0 21 12 30t29 9q20 0 31 -9q10 -9 19 -37q4 -16 9 -30q4 -13 12 -22t20 -14q13 -5 33 -5q18 0 35 6t29 18t20 32q8 21 8 48v366q0 102 -1 135q-2 52 -7 75q-6 26 -18 35t-34 15v13h206v-13q-21 -6 -33 -15t-18 -35
q-5 -23 -7 -75q-1 -33 -1 -135v-299q0 -43 -13 -76q-14 -35 -37 -60q-24 -26 -55 -39q-30 -13 -69 -13z" />
    <glyph glyph-name="ij" unicode="&#x133;" horiz-adv-x="475" 
d="M120 571v-1q-19 0 -33 14t-14 33t14 33t33 14q20 0 33 -13q14 -14 14 -33t-14 -33t-33 -14zM32 12l-2 -1q21 6 30 13q10 8 15 24q4 16 6 44q1 18 1 72v116v67q0 23 -5 36q-4 11 -15 16q-9 4 -30 7v15l131 60v-317q0 -54 1 -72q1 -26 6 -43q4 -17 15 -24q9 -7 30 -13v-13
h-183v13zM353 569v-1q-19 0 -33 14t-14 33t14 33t33 14q20 0 33 -13q14 -14 14 -33t-14 -33t-33 -14zM215 -156l-1 -1q-16 0 -30 9q-13 9 -13 27q0 17 10 26q11 9 24 9q11 0 21 -5q6 -3 16 -11t15 -11q8 -5 15 -5q8 0 15 6q5 3 9 9q5 7 8 18t6 35q3 22 3 60v264v68
q0 23 -5 36t-15 17q-12 5 -30 8v15l130 60v-439q0 -31 -9 -57q-9 -25 -24 -46q-16 -22 -31 -36q-12 -11 -32 -25q-27 -18 -47 -25q-18 -6 -35 -6z" />
    <glyph glyph-name="Jcircumflex" unicode="&#x134;" horiz-adv-x="433" 
d="M297 901l136 -106l-5 -11l-131 51l-131 -51l-5 11zM174 -9h-2q-33 0 -67 8q-31 7 -54 21t-35 30t-12 36q0 21 12 30t29 9q21 0 31 -9t19 -37q5 -17 9 -30t12 -22t20 -14q13 -5 33 -5q19 0 35 6q17 6 29 18q13 12 20 32q8 21 8 48v366q0 102 -1 135q-2 52 -7 75
q-6 26 -18 35t-34 15v13h206v-13q-21 -6 -33 -15t-18 -35q-5 -23 -7 -75q-1 -33 -1 -135v-299q0 -43 -13 -76q-14 -35 -37 -60q-24 -26 -55 -39q-30 -13 -69 -13z" />
    <glyph glyph-name="jcircumflex" unicode="&#x135;" horiz-adv-x="237" 
d="M-21 -153l-1 -1q-16 0 -30 9q-13 9 -13 27q0 17 10 26q11 9 24 9q11 0 21 -5q6 -3 16 -11t15 -11q8 -5 15 -5q8 0 15 6q5 3 9 9q5 7 8 18t6 35q3 23 3 60v264v68q0 23 -5 36t-15 17q-12 5 -30 8v15l130 60v-439q0 -32 -9 -57t-24 -46q-16 -22 -31 -36q-12 -11 -32 -25
q-27 -18 -47 -25q-18 -6 -35 -6zM119 716l123 -174l-11 -9l-112 98l-112 -98l-11 9z" />
    <glyph glyph-name="uni0136" unicode="&#x136;" horiz-adv-x="704" 
d="M354 -125l-2 -1q-1 -4 -8 -9q-5 -4 -17 -4q-16 0 -27 11t-11 30t14 30t30 11q21 0 37 -15t16 -43q0 -40 -22 -61q-23 -22 -54 -29l-6 11q32 9 44 24t12 32q0 8 -6 13zM22 12v-2q21 6 33 15t18 35q5 23 7 75q2 66 2 134v204q0 102 -1 135q-2 52 -7 75q-6 26 -18 35t-33 15
v13h204v-13q-21 -6 -33 -15t-18 -35q-5 -23 -7 -75q-1 -33 -1 -135v-67l338 253q38 29 41 47t-36 26v14h159v-14q-15 -2 -27 -7q-19 -8 -33 -16q-22 -12 -45 -28q-41 -29 -60 -43l-266 -200l352 -361l27 -27q8 -8 20 -18q9 -8 18 -12q6 -3 20 -9v-13h-197v13q20 5 27 10
q8 6 6 15q-1 9 -11 20q-12 14 -22 24l-314 323v-133q0 -67 2 -133q1 -47 8 -75q6 -26 18 -35t33 -15v-13h-204v13z" />
    <glyph glyph-name="uni0137" unicode="&#x137;" horiz-adv-x="512" 
d="M281 -125l-2 -1q-1 -4 -8 -9q-5 -4 -17 -4q-16 0 -27 11t-11 30t14 30t30 11q20 0 37 -15q16 -15 16 -43q0 -40 -22 -61q-23 -22 -54 -29l-6 11q32 9 44 24t12 32q0 8 -6 13zM31 12h-2q18 7 26 13q9 8 14 23t6 42q1 18 1 72v444v54q0 21 -4 29q-5 9 -13 12q-7 2 -26 4v16
l123 60v-530l203 152q31 24 27 39t-30 18v14h134v-14q-25 -7 -50 -22q-30 -18 -65 -45l-155 -115l228 -225q4 -4 11 -10.5t9 -8.5q6 -6 14 -12q2 -2 6 -4t5 -3q3 -2 9 -4v-13h-173v13q25 4 28 15t-28 42l-174 176v-83q0 -54 1 -72q2 -27 6 -42q4 -14 15 -22q9 -6 29 -13v-13
h-175v13z" />
    <glyph glyph-name="Lacute" unicode="&#x139;" horiz-adv-x="603" 
d="M24 798l164 92q12 6 18 8q9 3 20 3q14 0 21 -9q8 -10 8 -19q0 -26 -44 -40l-182 -48zM23 15h-6q21 6 33 15t18 35q5 23 7 75q2 66 2 134v204q0 102 -1 135q-2 52 -7 75q-6 26 -18 35t-33 15v13h208v-13q-23 -6 -35 -15t-18 -35q-7 -28 -8 -75q-1 -33 -1 -135v-461h237
q37 0 60 4q26 5 47 18q20 13 37 41q15 25 31 74h19l-19 -123q-2 -12 -3 -17t-5 -9q-3 -3 -8 -3h-12h-525v13z" />
    <glyph glyph-name="lacute" unicode="&#x13a;" horiz-adv-x="248" 
d="M20 798l164 92q12 6 18 8q9 3 20 3q14 0 21 -9q8 -10 8 -19q0 -26 -44 -40l-182 -48zM31 15l-2 -1q21 6 30 13q11 7 15 24q4 16 6 44q1 18 1 72v415v70q0 25 -5 38q-4 12 -15 15q-8 2 -32 4v16l133 59v-617q0 -54 1 -72q1 -26 6 -43q5 -16 15 -24q9 -7 30 -13v-13h-183
v13z" />
    <glyph glyph-name="uni013B" unicode="&#x13b;" horiz-adv-x="603" 
d="M329 -125l-2 -1q-1 -4 -8 -9q-5 -4 -17 -4q-16 0 -27 11t-11 30t14 30t30 11q20 0 37 -15q16 -15 16 -43q0 -40 -22 -61q-23 -22 -54 -29l-6 11q32 9 44 24t12 32q0 8 -6 13zM22 12h-6q21 6 33 15t18 35q5 23 7 75q2 66 2 134v204q0 102 -1 135q-2 52 -7 75q-6 26 -18 35
t-33 15v13h208v-13q-23 -6 -35 -15t-18 -35q-7 -28 -8 -75q-1 -33 -1 -135v-461h237q37 0 60 4q26 5 47 18q20 13 37 41q15 25 31 74h19l-19 -123q-2 -12 -3 -17t-5 -9q-3 -3 -8 -3h-12h-525v13z" />
    <glyph glyph-name="uni013C" unicode="&#x13c;" horiz-adv-x="248" 
d="M134 -125l-2 -1q-1 -4 -8 -9q-5 -4 -17 -4q-16 0 -27 11t-11 30t14 30t30 11q20 0 37 -15q16 -15 16 -43q0 -40 -22 -61q-23 -22 -54 -29l-6 11q32 9 44 24t12 32q0 8 -6 13zM30 12l-2 -1q21 6 30 13q10 8 15 24q4 16 6 44q1 18 1 72v415v70q0 25 -5 38q-5 12 -15 15
q-8 2 -32 4v16l133 59v-617q0 -54 1 -72q1 -26 6 -43q4 -17 15 -24q9 -7 30 -13v-13h-183v13z" />
    <glyph glyph-name="Lcaron" unicode="&#x13d;" horiz-adv-x="603" 
d="M271 583l11 129q2 26 9 38t24 12q14 0 21 -7t7 -19q0 -14 -9 -35l-51 -121zM23 12h-6q21 6 33 15t18 35q5 23 7 75q2 66 2 134v204q0 102 -1 135q-2 52 -7 75q-6 26 -18 35t-33 15v13h208v-13q-23 -6 -35 -15t-18 -35q-7 -28 -8 -75q-1 -33 -1 -135v-461h237q37 0 60 4
q26 5 47 18q20 13 37 41q15 25 31 74h19l-19 -123q-2 -12 -3 -17t-5 -9q-3 -3 -8 -3h-12h-525v13z" />
    <glyph glyph-name="lcaron" unicode="&#x13e;" horiz-adv-x="248" 
d="M227 590l11 129q2 26 9 38t24 12q14 0 21 -7t7 -19q0 -14 -9 -35l-51 -121zM31 12l-2 -1q21 6 30 13q11 8 15 24t6 44q1 18 1 72v415v70q0 25 -5 38q-4 12 -15 15q-8 2 -32 4v16l133 59v-617q0 -54 1 -72q1 -26 6 -43t15 -24q9 -7 30 -13v-13h-183v13z" />
    <glyph glyph-name="Ldot" unicode="&#x13f;" horiz-adv-x="603" 
d="M425 341q-23 0 -38 15t-15 38t15 38t38 15t38 -15t15 -38t-15 -38t-38 -15zM24 13h-6q21 6 33 15t18 35q5 23 7 75q2 66 2 134v204q0 102 -1 135q-2 52 -7 75q-6 26 -18 35t-33 15v13h208v-13q-23 -6 -35 -15t-18 -35q-7 -28 -8 -75q-1 -33 -1 -135v-461h237q37 0 60 4
q26 5 47 18q20 13 37 41q15 25 31 74h19l-19 -123q-2 -12 -3 -17t-5 -9q-3 -3 -8 -3h-12h-525v13z" />
    <glyph glyph-name="ldot" unicode="&#x140;" horiz-adv-x="292" 
d="M270 316q-23 0 -38 15t-15 38t15 38t38 15t38 -15t15 -38t-15 -38t-38 -15zM32 13l-2 -1q21 6 30 13q10 7 15 24q4 16 6 44q1 18 1 72v415v70q0 25 -5 38q-5 12 -15 15q-8 2 -32 4v16l133 59v-617q0 -54 1 -72q1 -26 6 -43q4 -16 15 -24q9 -7 30 -13v-13h-183v13z" />
    <glyph glyph-name="Lslash" unicode="&#x141;" horiz-adv-x="603" 
d="M-5 254l-7 15l422 211l7 -15zM24 13h-6q21 6 33 15t18 35q5 23 7 75q2 66 2 134v204q0 102 -1 135q-2 52 -7 75q-6 26 -18 35t-33 15v13h208v-13q-23 -6 -35 -15t-18 -35q-7 -28 -8 -75q-1 -33 -1 -135v-461h237q37 0 60 4q26 5 47 18q20 13 37 41q15 25 31 74h19
l-19 -123q-2 -12 -3 -17t-5 -9q-3 -3 -8 -3h-12h-525v13z" />
    <glyph glyph-name="lslash" unicode="&#x142;" horiz-adv-x="248" 
d="M10 295l-11 14l238 173l11 -14zM32 13l-2 -1q21 6 30 13q10 7 15 24q4 16 6 44q1 18 1 72v415v70q0 25 -5 38q-5 12 -15 15q-8 2 -32 4v16l133 59v-617q0 -54 1 -72q1 -26 6 -43q4 -16 15 -24q9 -7 30 -13v-13h-183v13z" />
    <glyph glyph-name="Nacute" unicode="&#x143;" horiz-adv-x="759" 
d="M310 798l164 92q12 6 18 8q9 3 20 3q14 0 21 -9q8 -10 8 -19q0 -26 -44 -40l-182 -48zM23 15l-4 3q22 11 33 22q12 12 18 39q5 24 7 76q2 66 2 135v193q0 102 -1 134q-2 51 -7 74q-6 26 -18 35q-13 10 -33 17v13h143q10 0 14 -1q5 -1 10 -6q7 -7 11 -12q2 -3 7.5 -9.5
t8.5 -11.5l441 -584v338q0 102 -1 135q-1 49 -9 76q-8 28 -22 39t-40 22v13h151v-13q-22 -11 -33 -22q-12 -12 -18 -39q-5 -24 -7 -76q-1 -33 -1 -135v-470h-25l-550 729v-442q0 -69 2 -135q1 -49 9 -76q8 -28 22 -39q13 -11 41 -22v-13h-151v13z" />
    <glyph glyph-name="nacute" unicode="&#x144;" horiz-adv-x="577" 
d="M236 547l107 140q10 12 20 21q8 7 22 7q13 0 21 -9q7 -8 7 -19q0 -12 -7 -20q-9 -10 -18 -17l-143 -114zM34 12l-6 -5q18 7 26 13q10 8 14 24t6 44q1 18 1 72v116v67q0 23 -5 36q-4 11 -15 16t-30 9v15l130 60v-123l50 45q35 32 74 56t87 24q67 0 99 -31q33 -32 33 -100
v-187v-72q0 -25 5 -43q4 -16 14 -24q8 -6 26 -13v-13h-175v13q20 7 29 13q11 8 15 24t6 44q1 18 1 72v208q0 47 -21 65t-56 18q-32 0 -63 -19q-33 -21 -72 -55l-50 -45v-172q0 -54 1 -72q1 -26 6 -43q4 -17 15 -24q9 -6 29 -13v-13h-174v13z" />
    <glyph glyph-name="uni0145" unicode="&#x145;" horiz-adv-x="759" 
d="M382 -125l-2 -1q-1 -4 -8 -9q-5 -4 -17 -4q-16 0 -27 11t-11 30t14 30t30 11q21 0 37 -15t16 -43q0 -40 -22 -61q-23 -22 -54 -29l-6 11q32 9 44 24t12 32q0 8 -6 13zM22 12l-4 3q22 11 33 22q12 12 18 39q5 24 7 76q2 66 2 135v193q0 102 -1 134q-2 51 -7 74
q-6 26 -18 35q-13 10 -33 17v13h143q10 0 14 -1q5 -1 10 -6q7 -7 11 -12q2 -2 7 -9.5t9 -11.5l441 -584v338q0 102 -1 135q-1 49 -9 76q-8 28 -22 39t-40 22v13h151v-13q-22 -11 -33 -22q-12 -12 -18 -39q-5 -24 -7 -76q-1 -33 -1 -135v-470h-25l-550 729v-442q0 -69 2 -135
q1 -49 9 -76q8 -28 22 -39q13 -11 41 -22v-13h-151v13z" />
    <glyph glyph-name="uni0146" unicode="&#x146;" horiz-adv-x="577" 
d="M303 -125l-2 -1q-1 -4 -8 -9q-5 -4 -17 -4q-16 0 -27 11t-11 30t14 30t30 11q20 0 37 -15q16 -15 16 -43q0 -40 -22 -61q-23 -22 -54 -29l-6 11q32 9 44 24t12 32q0 8 -6 13zM31 12l-6 -5q18 7 26 13q10 8 14 24t6 44q1 18 1 72v116v67q0 23 -5 36q-4 11 -15 16
q-10 5 -30 9v15l130 60v-123l50 45q35 32 74 56t87 24q67 0 99 -31q33 -32 33 -100v-187v-72q0 -25 5 -43q4 -16 14 -24q8 -6 26 -13v-13h-175v13q20 7 29 13q10 8 15 24q4 16 6 44q1 18 1 72v208q0 47 -21 65t-56 18q-32 0 -63 -19q-33 -21 -72 -55l-50 -45v-172
q0 -54 1 -72q1 -26 6 -43t15 -24q9 -6 29 -13v-13h-174v13z" />
    <glyph glyph-name="Ncaron" unicode="&#x147;" horiz-adv-x="759" 
d="M280 902l131 -51l131 51l5 -11l-136 -106l-136 106zM24 13l-4 3q22 11 33 22q12 12 18 39q5 24 7 76q2 66 2 135v193q0 102 -1 134q-2 51 -7 74q-6 26 -18 35q-13 10 -33 17v13h143q10 0 14 -1q5 -1 10 -6q7 -7 11 -12q2 -3 7.5 -9.5t8.5 -11.5l441 -584v338
q0 102 -1 135q-1 49 -9 76q-8 28 -22 39t-40 22v13h151v-13q-22 -11 -33 -22q-12 -12 -18 -39q-5 -24 -7 -76q-1 -33 -1 -135v-470h-25l-550 729v-442q0 -69 2 -135q1 -49 9 -76q8 -28 22 -39q13 -11 41 -22v-13h-151v13z" />
    <glyph glyph-name="ncaron" unicode="&#x148;" horiz-adv-x="577" 
d="M173 727l112 -98l112 98l11 -9l-123 -174l-123 174zM33 13l-6 -5q18 7 26 13q10 8 14 24t6 44q1 18 1 72v116v67q0 23 -5 36q-4 11 -15 16q-10 4 -30 9v15l130 60v-123l50 45q35 32 74 56t87 24q67 0 99 -31q33 -31 33 -100v-187v-72q0 -25 5 -43q4 -16 14 -24
q8 -6 26 -13v-13h-175v13q20 7 29 13q10 7 15 24q4 16 6 44q1 18 1 72v208q0 47 -21 65t-56 18q-32 0 -63 -19q-33 -21 -72 -55l-50 -45v-172q0 -54 1 -72q1 -26 6 -43q5 -16 15 -24q9 -6 29 -13v-13h-174v13z" />
    <glyph glyph-name="napostrophe" unicode="&#x149;" horiz-adv-x="577" 
d="M33 13l-6 -5q18 7 26 13q10 8 14 24t6 44q1 18 1 72v116v67q0 23 -5 36q-4 11 -15 16q-10 4 -30 9v15l130 60v-123l50 45q35 32 74 56t87 24q67 0 99 -31q33 -31 33 -100v-187v-72q0 -25 5 -43q4 -16 14 -24q8 -6 26 -13v-13h-175v13q20 7 29 13q10 7 15 24q4 16 6 44
q1 18 1 72v208q0 47 -21 65t-56 18q-32 0 -63 -19q-33 -21 -72 -55l-50 -45v-172q0 -54 1 -72q1 -26 6 -43q5 -16 15 -24q9 -6 29 -13v-13h-174v13zM42 687q-6 -6 -10 -9q-5 -4 -17 -4q-19 0 -33 12q-13 12 -13 33q0 23 15 36q14 13 36 13q21 0 41 -17t20 -59t-24 -76
t-64 -58l-7 10q32 24 48 51q16 26 16 47q0 16 -8 21z" />
    <glyph glyph-name="Eng" unicode="&#x14a;" horiz-adv-x="759" 
d="M24 13l-3 1q22 11 33 22q12 12 18 39q5 24 7 76q2 66 2 135v193q0 102 -1 134q-2 51 -7 74q-6 26 -18 35q-13 10 -33 17v13h143q10 0 14 -1q5 -1 10 -6q7 -7 11 -12q2 -3 7 -9.5t9 -11.5l441 -572v326q0 102 -1 135q-1 49 -9 76q-8 28 -22 39t-40 22v13h151v-13
q-22 -11 -33 -22q-12 -12 -18 -39q-5 -24 -7 -76q-1 -33 -1 -135v-472q0 -57 -36 -93t-105 -36q-73 0 -113 24q-41 24 -41 61q0 20 12 30q11 10 29 10q20 0 29 -10q9 -11 18 -37q4 -15 9 -27q4 -11 12 -19q7 -7 18 -12q9 -4 27 -4q57 0 89 32t32 86v3l-556 725v-442
q0 -69 2 -135q1 -49 9 -76q8 -28 22 -39q13 -11 41 -22v-13h-151v13z" />
    <glyph glyph-name="eng" unicode="&#x14b;" horiz-adv-x="577" 
d="M33 13l-8 -5q18 7 26 13q10 8 14 24t6 44q1 18 1 72v116v67q0 23 -5 36q-4 11 -15 16q-10 4 -30 9v15l130 60v-123l50 45q35 32 74 56t87 24q67 0 99 -31q33 -31 33 -100v-309q0 -32 -9 -57t-24 -46q-16 -22 -31 -36q-12 -11 -32 -25q-27 -18 -47 -25q-18 -6 -35 -6
t-30 9t-13 27q0 17 10 26t24 9q11 0 21 -5q6 -3 16 -11t15 -11q8 -5 15 -5t15 6q4 3 9 9t9 18q4 10 7 35q3 22 3 60v359q0 47 -21 65t-56 18q-32 0 -63 -19q-33 -21 -72 -55l-50 -45v-172q0 -54 1 -72q1 -26 6 -43q5 -16 15 -24q9 -6 29 -13v-13h-174v13z" />
    <glyph glyph-name="Omacron" unicode="&#x14c;" horiz-adv-x="850" 
d="M548 806h-232v40h232v-40zM425 -11h-2q-74 0 -144 29q-68 28 -123 80q-53 50 -85 122t-32 155q0 81 32 153q32 71 86 122q55 52 123 80q70 29 144 29t144 -29q68 -28 123 -80q54 -51 86 -122q32 -72 32 -153q0 -83 -32 -155t-85 -122q-55 -52 -123 -80q-70 -29 -144 -29z
M423 5h-3q58 0 110 21t93 66q40 44 64 115t24 169q0 99 -24 169q-24 71 -64 115q-41 45 -93 66t-109 21t-109 -21t-93 -66q-40 -44 -64 -115q-24 -70 -24 -169q0 -98 24 -169q23 -69 65 -115q40 -45 93 -66q52 -21 110 -21z" />
    <glyph glyph-name="omacron" unicode="&#x14d;" horiz-adv-x="576" 
d="M397 617v-38h-219v38h219zM287 -11v-2q-42 0 -88 17q-45 16 -81 48q-37 32 -59 78q-23 48 -23 105q0 56 23 104q22 46 59 78t81 50q45 18 88 18t88 -18q46 -18 81 -49q36 -32 60 -78t24 -103q0 -59 -24 -105t-60 -78t-81 -48q-46 -17 -88 -17zM287 3q36 0 67 12
q32 12 54 39t36 72q13 43 13 109q0 63 -13 105q-14 44 -36 72t-54 42q-30 13 -67 13t-66 -13q-31 -14 -53 -42t-36 -72q-13 -42 -13 -105q0 -66 13 -109q14 -45 36 -72t53 -39q30 -12 66 -12z" />
    <glyph glyph-name="Obreve" unicode="&#x14e;" horiz-adv-x="850" 
d="M433 836l-1 1q46 0 69 18t30 39h16q-1 -13 -9 -31q-7 -17 -21 -34q-13 -16 -35 -27t-51 -11q-30 0 -52 11q-21 11 -35 26t-21 33t-9 33h16q3 -9 11 -21q7 -10 20 -18q10 -6 30 -13q18 -6 42 -6zM424 -10h-2q-74 0 -144 29q-68 28 -123 80q-53 50 -85 122t-32 155
q0 81 32 153q32 71 86 122q55 52 123 80q70 29 144 29t144 -29q68 -28 123 -80q54 -51 86 -122q32 -72 32 -153q0 -83 -32 -155t-85 -122q-55 -52 -123 -80q-70 -29 -144 -29zM422 6h-3q58 0 110 21q53 21 93 66q40 44 64 115t24 169q0 99 -24 169q-24 71 -64 115
q-40 45 -93 66q-52 21 -109 21q-56 0 -109 -21t-93 -66q-40 -44 -64 -115q-24 -70 -24 -169t24 -169q23 -69 65 -115q41 -45 93 -66t110 -21z" />
    <glyph glyph-name="obreve" unicode="&#x14f;" horiz-adv-x="576" 
d="M287 -11v-2q-42 0 -88 17q-45 16 -81 48q-37 32 -59 78q-23 48 -23 105q0 56 23 104q22 46 59 78t81 50q45 18 88 18t88 -18q46 -18 81 -49q36 -32 60 -78t24 -103q0 -59 -24 -105t-60 -78t-81 -48q-46 -17 -88 -17zM287 3q36 0 67 12q32 12 54 39t36 72q13 43 13 109
q0 63 -13 105q-14 44 -36 72t-54 42q-30 13 -67 13t-66 -13q-31 -14 -53 -42t-36 -72q-13 -42 -13 -105q0 -66 13 -109q14 -45 36 -72t53 -39q30 -12 66 -12zM288 584l2 -3q42 0 63 23q22 23 29 59h16q-2 -25 -9 -47t-21 -40q-13 -17 -33 -28t-45 -11q-26 0 -48 11
q-20 10 -34 29q-13 18 -21 41q-7 22 -9 48h16q8 -35 28 -58q21 -24 66 -24z" />
    <glyph glyph-name="Ohungarumlaut" unicode="&#x150;" horiz-adv-x="850" 
d="M489 791l72 83q11 13 20 23q9 9 23 9t20 -8t6 -18q0 -18 -22 -33l-111 -67zM340 791l73 83q10 13 20 23q9 9 23 9t20 -8t6 -18q0 -20 -21 -33l-113 -67zM424 -11h-2q-74 0 -144 29q-68 28 -123 80q-53 50 -85 122t-32 155q0 81 32 153q32 71 86 122q55 52 123 80
q70 29 144 29t144 -29q68 -28 123 -80q54 -51 86 -122q32 -72 32 -153q0 -83 -32 -155t-85 -122q-55 -52 -123 -80q-70 -29 -144 -29zM422 5h-3q58 0 110 21q53 21 93 66q40 44 64 115t24 169q0 99 -24 169q-24 71 -64 115q-40 45 -93 66q-52 21 -109 21q-56 0 -109 -21
t-93 -66q-40 -44 -64 -115q-24 -70 -24 -169q0 -98 24 -169q23 -69 65 -115q41 -45 93 -66t110 -21z" />
    <glyph glyph-name="ohungarumlaut" unicode="&#x151;" horiz-adv-x="576" 
d="M351 550l40 137q7 19 15 30q7 10 21 10q13 0 19 -7q6 -8 6 -18q0 -7 -3 -16q-2 -6 -8 -16l-80 -125zM223 548l41 138q6 17 14 30q6 10 21 10q14 0 20 -7t6 -18q0 -17 -12 -33l-80 -125zM286 -14v-2q-42 0 -88 17q-45 17 -81 48q-37 32 -59 78q-23 48 -23 105q0 56 23 104
q22 46 59 78t81 50q45 18 88 18t88 -18q46 -18 81 -49q36 -31 60 -78q24 -46 24 -103q0 -58 -24 -105t-60 -78t-81 -48q-46 -17 -88 -17zM286 0q36 0 67 12t54 39t36 72q13 43 13 109q0 63 -13 105q-13 43 -36 72t-54 42q-30 13 -67 13t-66 -13q-31 -14 -53 -42
q-23 -29 -36 -72q-13 -42 -13 -105q0 -66 13 -109q13 -45 36 -72q22 -27 53 -39q30 -12 66 -12z" />
    <glyph glyph-name="OE" unicode="&#x152;" horiz-adv-x="1127" 
d="M1040 750l1 2q11 0 15 -4t9 -27l18 -102h-18q-15 39 -28 59q-15 22 -35 36t-45 18q-28 5 -57 5h-237v-306h89q38 0 56 7q20 8 30 18q11 11 14 24l6 27h15v-172h-15l-6 27q-3 13 -14 24q-10 10 -30 18q-18 7 -56 7h-89v-396h256q35 0 60 3t45 17t35 39q14 24 28 69h18
l-13 -113q-1 -22 -8 -27q-5 -4 -22 -4h-572q-102 0 -183 25q-83 26 -142 73q-60 48 -93 118q-33 71 -33 160t33 158t93 117q61 49 142 74q84 26 183 26h550zM491 736h-2q-80 0 -148 -17q-66 -17 -112 -58q-47 -42 -72 -111q-25 -68 -25 -172q0 -105 25 -173q25 -69 72 -111
q46 -41 113 -58q68 -17 147 -17q32 0 51 8t26 36q8 29 9 81q2 70 2 141v175q0 111 -1 147q-2 55 -9 83t-25 37t-51 9z" />
    <glyph glyph-name="oe" unicode="&#x153;" horiz-adv-x="927" 
d="M287 -11l-1 -2q-42 0 -88 17q-45 16 -81 48q-37 32 -59 78q-23 48 -23 105q0 56 23 104q22 46 59 78t81 50q45 18 88 18q30 0 60 -9q32 -9 57 -25q28 -17 51 -40q25 -25 41 -54q31 61 87 93t112 32q34 0 67 -9q34 -9 60 -28q27 -19 46 -52q19 -32 25 -81h-347
q-4 -21 -5 -36q-2 -26 -2 -42q0 -65 15 -107t41 -68q26 -25 60 -36q33 -10 73 -10q91 0 147 51l9 -13q-29 -29 -72 -45q-45 -17 -105 -17q-66 0 -123 30q-56 30 -88 93q-16 -30 -40 -52t-51 -39t-57 -24q-32 -8 -60 -8zM286 3q36 0 67 12t54 39t36 72q13 43 13 109
q0 63 -13 105q-13 44 -36 72t-54 42q-30 13 -67 13t-66 -13q-31 -14 -53 -42q-23 -28 -36 -72q-13 -42 -13 -105q0 -66 13 -109q13 -45 36 -72q22 -27 53 -39q30 -12 66 -12zM695 468l1 -2q-22 0 -43 -7q-23 -7 -42 -24t-36 -42q-16 -24 -25 -63h265q-3 44 -13 69
q-10 27 -27 42t-37 21q-21 6 -43 6z" />
    <glyph glyph-name="Racute" unicode="&#x154;" horiz-adv-x="721" 
d="M245 798l164 92q12 6 18 8q9 3 20 3q13 0 21 -9q8 -10 8 -19q0 -26 -44 -40l-182 -48zM23 15v1q21 6 33 15t18 35q5 23 7 75q2 66 2 134v204q0 102 -1 135q-2 52 -7 75q-6 26 -18 35t-33 15v13h314q85 0 149 -14q60 -13 99 -38q38 -24 56 -57t18 -72q0 -50 -24 -86
t-64 -60t-93 -36t-108 -12h-42q62 -12 104 -54t60 -111q23 -94 60 -141q37 -46 96 -46q30 0 44 10q17 12 26 21l9 -9q-14 -19 -39 -36q-25 -16 -72 -16q-26 0 -60 8q-30 7 -60 29q-28 20 -52 57q-24 36 -39 95q-18 69 -33 109q-15 39 -33 57t-47 21t-75 3h-52v-101
q0 -67 2 -133q1 -47 8 -75q6 -26 18 -35t33 -15v-13h-204v13zM167 737l-2 -344h204q103 0 153 44t50 122q0 42 -10 73q-11 34 -37 56q-27 23 -73 36q-45 13 -120 13h-165z" />
    <glyph glyph-name="racute" unicode="&#x155;" horiz-adv-x="372" 
d="M168 547l107 140q10 12 20 21q8 7 22 7q13 0 21 -9q7 -8 7 -19q0 -12 -7 -20q-9 -10 -18 -17l-143 -114zM34 12l-3 -7q18 7 26 13q10 8 14 24t6 44q1 18 1 72v108v72q0 24 -5 39q-5 13 -15 18t-30 9v15l131 60v-131l58 63q36 38 57 53q23 17 48 17q22 0 29 -10
q8 -11 8 -24q0 -16 -9 -28t-23 -12q-19 0 -33 8t-31 8q-10 0 -21 -8q-10 -7 -24 -24l-58 -63v-164q0 -54 1 -72q1 -26 6 -43t15 -24q9 -7 30 -13v-13h-178v13z" />
    <glyph glyph-name="uni0156" unicode="&#x156;" horiz-adv-x="721" 
d="M358 -125l-2 -1q-1 -4 -8 -9q-5 -4 -17 -4q-16 0 -27 11t-11 30t14 30t30 11q21 0 37 -15t16 -43q0 -40 -22 -61q-23 -22 -54 -29l-6 11q32 9 44 24t12 32q0 8 -6 13zM22 12v1q21 6 33 15t18 35q5 23 7 75q2 66 2 134v204q0 102 -1 135q-2 52 -7 75q-6 26 -18 35t-33 15
v13h314q85 0 149 -14q60 -13 99 -38q38 -24 56 -57t18 -72q0 -50 -24 -86t-64 -60q-41 -24 -93 -36t-108 -12h-42q62 -12 104 -54t60 -111q22 -95 60 -141q37 -46 96 -46q30 0 44 10q17 12 26 21l9 -9q-13 -20 -39 -36q-25 -16 -72 -16q-26 0 -60 8q-30 7 -60 29
q-28 20 -52 57q-24 36 -39 95q-18 69 -33 109q-15 39 -33 57t-47 21q-28 3 -75 3h-52v-101q0 -67 2 -133q1 -47 8 -75q6 -26 18 -35t33 -15v-13h-204v13zM166 734l-2 -344h204q103 0 153 44t50 122q0 42 -10 73q-11 34 -37 56q-27 23 -73 36q-45 13 -120 13h-165z" />
    <glyph glyph-name="uni0157" unicode="&#x157;" horiz-adv-x="372" 
d="M134 -125l-2 -1q-1 -4 -8 -9q-5 -4 -17 -4q-16 0 -27 11t-11 30t14 30t30 11q20 0 37 -15q16 -15 16 -43q0 -40 -22 -61q-23 -22 -54 -29l-6 11q32 9 44 24t12 32q0 8 -6 13zM31 12l-3 -7q18 7 26 13q10 8 14 24t6 44q1 18 1 72v108v72q0 24 -5 39q-4 13 -15 18t-30 9v15
l131 60v-131l58 63q36 38 57 53q23 17 48 17q22 0 29 -10q8 -11 8 -24q0 -16 -9 -28t-23 -12q-19 0 -33 8t-31 8q-10 0 -21 -8q-11 -7 -24 -24l-58 -63v-164q0 -54 1 -72q1 -26 6 -43q4 -17 15 -24q9 -7 30 -13v-13h-178v13z" />
    <glyph glyph-name="Rcaron" unicode="&#x158;" horiz-adv-x="721" 
d="M216 902l131 -51l131 51l5 -11l-136 -106l-136 106zM24 13v1q21 6 33 15t18 35q5 23 7 75q2 66 2 134v204q0 102 -1 135q-2 52 -7 75q-6 26 -18 35t-33 15v13h314q85 0 149 -14q60 -13 99 -38q38 -24 56 -57t18 -72q0 -50 -24 -86t-64 -60q-41 -24 -93 -36t-108 -12h-42
q62 -12 104 -54t60 -111q22 -94 60 -141q37 -46 96 -46q30 0 44 10q17 12 26 21l9 -9q-13 -19 -39 -36q-25 -16 -72 -16q-26 0 -60 8q-30 7 -60 29q-28 20 -52 57q-24 36 -39 95q-18 69 -33 109q-15 39 -33 57t-47 21q-28 3 -75 3h-52v-101q0 -67 2 -133q1 -47 8 -75
q6 -26 18 -35t33 -15v-13h-204v13zM168 735l-2 -344h204q103 0 153 44t50 122q0 42 -10 73q-11 34 -37 56q-27 23 -73 36q-45 13 -120 13h-165z" />
    <glyph glyph-name="rcaron" unicode="&#x159;" horiz-adv-x="372" 
d="M104 727l112 -98l112 98l11 -9l-123 -174l-123 174zM33 13l-3 -7q18 7 26 13q10 8 14 24t6 44q1 18 1 72v108v72q0 24 -5 39q-4 14 -15 18t-30 9v15l131 60v-131l58 63q36 38 57 53q23 17 48 17q22 0 29 -10q8 -11 8 -24q0 -16 -9 -28t-23 -12q-19 0 -33 8t-31 8
q-10 0 -21 -8t-24 -24l-58 -63v-164q0 -54 1 -72q1 -26 6 -43q4 -16 15 -24q9 -7 30 -13v-13h-178v13z" />
    <glyph glyph-name="Sacute" unicode="&#x15a;" horiz-adv-x="614" 
d="M310 -9l1 -7q-53 0 -89 9q-32 8 -61 20q-15 6 -45 20q-20 9 -39 9t-27 -21h-18v174h18q8 -45 30 -81q22 -35 57 -61q35 -25 78 -39q42 -13 95 -13q54 0 90 13q38 14 60 36t33 53t11 65q0 39 -12 66t-39 48t-72 39q-50 20 -111 38q-51 15 -93 33q-40 17 -70 41
q-29 23 -45 54t-16 75q0 46 20 83q19 34 53 61q34 26 77 38q44 12 90 12t78 -6t54 -15q20 -8 41 -15q18 -6 35 -6q15 0 20 4q7 5 8 15h18v-135h-18q-23 70 -84 107q-62 38 -153 38q-81 0 -129 -36t-48 -100q0 -28 9 -52t31 -43q22 -20 60 -36q37 -16 98 -33q42 -12 103 -32
q49 -17 87 -42q39 -26 59 -61q21 -36 21 -87q0 -48 -18 -90q-17 -40 -53 -73q-34 -31 -84 -49q-49 -18 -111 -18zM204 791l164 92q12 6 18 8q9 3 20 3q14 0 21 -9q8 -10 8 -19q0 -26 -44 -40l-182 -48z" />
    <glyph glyph-name="sacute" unicode="&#x15b;" horiz-adv-x="442" 
d="M167 547l107 140q10 12 20 21q8 7 22 7t21 -9q7 -8 7 -19q0 -12 -7 -20q-9 -10 -18 -17l-143 -114zM217 6l-2 -9q61 0 97 30t36 75q0 44 -33 66q-34 23 -111 38q-84 16 -123 45t-39 89q0 31 14 57q13 24 38 43q24 18 55 27t66 9q28 0 44 -4q18 -4 33 -9q13 -4 25 -9
q9 -4 21 -4q16 0 19 14h17v-109h-17q-20 53 -54 80t-88 27q-55 0 -90 -22q-36 -22 -36 -69q0 -39 31 -57q30 -17 103 -31q49 -9 84 -21q37 -13 56 -28q21 -17 30 -37q9 -21 9 -49q0 -38 -16 -67q-16 -30 -42 -51q-26 -22 -60 -32q-36 -11 -69 -11q-31 0 -52 6q-25 7 -38 13
q-3 2 -13.5 6.5t-15.5 6.5q-12 6 -24 6q-17 0 -20 -18h-18v131h17q7 -28 21 -52t33 -42q19 -17 48 -28q27 -10 64 -10z" />
    <glyph glyph-name="Scircumflex" unicode="&#x15c;" horiz-adv-x="614" 
d="M304 901l136 -106l-5 -11l-131 51l-131 -51l-5 11zM310 -9l1 -7q-53 0 -89 9q-32 8 -61 20q-15 6 -45 20q-20 9 -39 9t-27 -21h-18v174h18q8 -45 30 -81q22 -35 57 -61q35 -25 78 -39q42 -13 95 -13q54 0 90 13q38 14 60 36t33 53t11 65q0 39 -12 66t-39 48t-72 39
q-50 20 -111 38q-51 15 -93 33q-40 17 -70 41q-29 23 -45 54t-16 75q0 46 20 83q19 34 53 61q34 26 77 38q44 12 90 12t78 -6t54 -15q20 -8 41 -15q18 -6 35 -6q15 0 20 4q7 5 8 15h18v-135h-18q-23 70 -84 107q-62 38 -153 38q-81 0 -129 -36t-48 -100q0 -28 9 -52t31 -43
q22 -20 60 -36q37 -16 98 -33q42 -12 103 -32q49 -17 87 -42q39 -26 59 -61q21 -36 21 -87q0 -48 -18 -90q-17 -40 -53 -73q-34 -31 -84 -49q-49 -18 -111 -18z" />
    <glyph glyph-name="scircumflex" unicode="&#x15d;" horiz-adv-x="442" 
d="M215 717l123 -174l-11 -9l-112 98l-112 -98l-11 9zM216 7l-2 -9q61 0 97 30t36 75q0 43 -33 66q-34 23 -111 38q-84 17 -123 45t-39 89q0 31 14 57q13 24 38 43q24 18 55 27q32 9 66 9q28 0 44 -4q18 -5 33 -9q13 -4 25 -9q9 -4 21 -4q16 0 19 14h17v-109h-17
q-20 53 -54 80q-35 27 -88 27q-55 0 -90 -22q-36 -23 -36 -69q0 -39 31 -57q30 -17 103 -31q50 -9 84 -21q37 -13 56 -28q21 -17 30 -37q9 -21 9 -49q0 -38 -16 -67q-17 -30 -42 -51q-26 -22 -60 -32q-36 -11 -69 -11q-31 0 -52 6q-25 7 -38 13q-3 2 -13.5 6.5t-15.5 6.5
q-12 6 -24 6q-17 0 -20 -18h-18v131h17q7 -28 21 -52q13 -24 33 -42q19 -17 48 -28q27 -10 64 -10z" />
    <glyph glyph-name="uni015E" unicode="&#x15e;" horiz-adv-x="614" 
d="M300 1l-38 -54q39 -6 65 -25q27 -20 27 -48q0 -74 -156 -81l-1 15q59 4 81 18q23 14 23 33q0 21 -21 31t-59 12l-4 7l61 92h22zM308 -9l1 -7q-53 0 -89 9q-32 8 -61 20q-15 6 -45 20q-20 9 -39 9t-27 -21h-18v174h18q8 -45 30 -81q22 -35 57 -61q35 -25 78 -39
q42 -13 95 -13q54 0 90 13q38 14 60 36t33 53t11 65q0 39 -12 66t-39 48t-72 39q-50 20 -111 38q-51 15 -93 33q-40 17 -70 41q-29 23 -45 54t-16 75q0 46 20 83q19 34 53 61q34 26 77 38q44 12 90 12t78 -6t54 -15q20 -8 41 -15q18 -6 35 -6q15 0 20 4q7 5 8 15h18v-135
h-18q-23 70 -84 107q-62 38 -153 38q-81 0 -129 -36t-48 -100q0 -28 9 -52t31 -43q22 -20 60 -36q37 -16 98 -33q42 -12 103 -32q49 -17 87 -42q39 -26 59 -61q21 -36 21 -87q0 -48 -18 -90q-17 -40 -53 -73q-34 -31 -84 -49q-49 -18 -111 -18z" />
    <glyph glyph-name="uni015F" unicode="&#x15f;" horiz-adv-x="442" 
d="M217 -2l-37 -51q39 -6 65 -25q27 -20 27 -48q0 -74 -156 -81l-1 15q59 4 81 18q23 14 23 33q0 21 -21 31t-59 12l-4 7l60 89h22zM214 7l-2 -9q61 0 97 30t36 75q0 43 -33 66q-34 23 -111 38q-84 17 -123 45t-39 89q0 31 14 57q13 24 38 43q24 18 55 27q32 9 66 9
q28 0 44 -4q18 -5 33 -9q13 -4 25 -9q9 -4 21 -4q16 0 19 14h17v-109h-17q-20 53 -54 80t-88 27q-55 0 -90 -22q-36 -23 -36 -69q0 -39 31 -57q30 -17 103 -31q50 -9 84 -21q37 -13 56 -28q21 -17 30 -37q9 -21 9 -49q0 -38 -16 -67q-17 -30 -42 -51q-26 -22 -60 -32
q-36 -11 -69 -11q-31 0 -52 6q-25 7 -38 13q-3 2 -13.5 6.5t-15.5 6.5q-12 6 -24 6q-17 0 -20 -18h-18v131h17q7 -28 21 -52q13 -24 33 -42q19 -17 48 -28q27 -10 64 -10z" />
    <glyph glyph-name="Scaron" unicode="&#x160;" horiz-adv-x="614" 
d="M173 902l131 -51l131 51l5 -11l-136 -106l-136 106zM310 -9l1 -7q-53 0 -89 9q-32 8 -61 20q-15 6 -45 20q-20 9 -39 9t-27 -21h-18v174h18q8 -45 30 -81q22 -35 57 -61q35 -25 78 -39q42 -13 95 -13q54 0 90 13q38 14 60 36t33 53t11 65q0 39 -12 66t-39 48t-72 39
q-50 20 -111 38q-51 15 -93 33q-40 17 -70 41q-29 23 -45 54t-16 75q0 46 20 83q19 34 53 61q34 26 77 38q44 12 90 12t78 -6t54 -15q20 -8 41 -15q18 -6 35 -6q15 0 20 4q7 5 8 15h18v-135h-18q-23 70 -84 107q-62 38 -153 38q-81 0 -129 -36t-48 -100q0 -28 9 -52t31 -43
q22 -20 60 -36q37 -16 98 -33q42 -12 103 -32q49 -17 87 -42q39 -26 59 -61q21 -36 21 -87q0 -48 -18 -90q-17 -40 -53 -73q-34 -31 -84 -49q-49 -18 -111 -18z" />
    <glyph glyph-name="scaron" unicode="&#x161;" horiz-adv-x="442" 
d="M103 727l112 -98l112 98l11 -9l-123 -174l-123 174zM216 7l-2 -9q61 0 97 30t36 75q0 43 -33 66q-34 23 -111 38q-84 17 -123 45t-39 89q0 31 14 57q13 24 38 43q24 18 55 27q32 9 66 9q28 0 44 -4q18 -5 33 -9q13 -4 25 -9q9 -4 21 -4q16 0 19 14h17v-109h-17
q-20 53 -54 80q-35 27 -88 27q-55 0 -90 -22q-36 -23 -36 -69q0 -39 31 -57q30 -17 103 -31q50 -9 84 -21q37 -13 56 -28q21 -17 30 -37q9 -21 9 -49q0 -38 -16 -67q-17 -30 -42 -51q-26 -22 -60 -32q-36 -11 -69 -11q-31 0 -52 6q-25 7 -38 13q-3 2 -13.5 6.5t-15.5 6.5
q-12 6 -24 6q-17 0 -20 -18h-18v131h17q7 -28 21 -52q13 -24 33 -42q19 -17 48 -28q27 -10 64 -10z" />
    <glyph glyph-name="Tcommaaccent" unicode="&#x162;" horiz-adv-x="706" 
d="M365 -125l-2 -1q-1 -4 -8 -9q-5 -4 -17 -4q-16 0 -27 11t-11 30t14 30t30 11q20 0 37 -15q16 -15 16 -43q0 -40 -22 -61q-23 -22 -54 -29l-6 11q32 9 44 24t12 32q0 8 -6 13zM250 12l-2 -1q20 7 33 17q12 9 18 35q5 23 7 75q2 66 2 133v461h-87q-37 0 -69 -3
q-30 -3 -55 -17q-23 -13 -40 -41q-16 -26 -25 -75h-19l15 123q3 23 7 27t18 4h594q14 0 18 -4q5 -4 6 -27l16 -123h-19q-9 49 -25 75q-17 28 -40 41q-25 14 -56 17t-72 3h-82v-461q0 -67 2 -133q1 -47 8 -75q6 -26 18 -35q11 -8 33 -16v-13h-204v13z" />
    <glyph glyph-name="tcommaaccent" unicode="&#x163;" horiz-adv-x="295" 
d="M188 -125l-2 -1q-1 -4 -8 -9q-5 -4 -17 -4q-16 0 -27 11t-11 30t14 30t30 11q21 0 37 -15t16 -43q0 -40 -22 -61q-23 -22 -54 -29l-6 11q32 9 44 24t12 32q0 8 -6 13zM177 -8l-1 -2q-52 0 -81 27q-28 27 -28 72v364h-44v14q38 5 68 42q31 38 38 120h15v-156h115v-19h-115
v-328q0 -57 11 -85q11 -27 47 -27q23 0 38 9q16 10 23 19l10 -8q-7 -12 -30 -27t-66 -15z" />
    <glyph glyph-name="Tcaron" unicode="&#x164;" horiz-adv-x="706" 
d="M222 902l131 -51l131 51l5 -11l-136 -106l-136 106zM252 13l-2 -1q20 7 33 17q12 9 18 35q5 23 7 75q2 66 2 133v461h-87q-37 0 -69 -3q-30 -3 -55 -17q-23 -13 -40 -41q-16 -26 -25 -75h-19l15 123q3 23 7 27t18 4h594q14 0 18 -4q5 -5 6 -27l16 -123h-19q-9 49 -25 75
q-17 28 -40 41q-25 14 -56 17t-72 3h-82v-461q0 -67 2 -133q1 -47 8 -75q6 -26 18 -35q11 -8 33 -16v-13h-204v13z" />
    <glyph glyph-name="tcaron" unicode="&#x165;" horiz-adv-x="295" 
d="M204 542l11 129q2 26 9 38q8 12 24 12q14 0 21 -7t7 -19q0 -14 -9 -35l-51 -121zM178 -8l-1 -2q-53 0 -81 27t-28 72v364h-44v14q38 5 68 42q31 38 38 120h15v-156h115v-19h-115v-328q0 -57 11 -85q10 -27 47 -27q23 0 38 9q17 10 23 19l10 -8q-8 -12 -30 -27t-66 -15z
" />
    <glyph glyph-name="Tbar" unicode="&#x166;" horiz-adv-x="706" 
d="M157 433h393v-16h-393v16zM252 13l-2 -1q20 7 33 17q12 9 18 35q5 23 7 75q2 66 2 133v461h-87q-37 0 -69 -3q-30 -3 -55 -17q-23 -13 -40 -41q-16 -26 -25 -75h-19l15 123q3 23 7 27t18 4h594q14 0 18 -4q5 -5 6 -27l16 -123h-19q-9 49 -25 75q-17 28 -40 41
q-25 14 -56 17t-72 3h-82v-461q0 -67 2 -133q1 -47 8 -75q6 -26 18 -35q11 -8 33 -16v-13h-204v13z" />
    <glyph glyph-name="tbar" unicode="&#x167;" horiz-adv-x="295" 
d="M27 312h232v-17h-232v17zM179 -7l-1 -2q-52 0 -81 27q-28 27 -28 72v364h-44v14q38 5 68 42q31 38 38 120h15v-156h115v-19h-115v-328q0 -57 11 -85q11 -27 47 -27q23 0 38 9q17 10 23 19l10 -8q-7 -12 -30 -27t-66 -15z" />
    <glyph glyph-name="Utilde" unicode="&#x168;" 
d="M409 -11l-3 -1q-158 0 -246 71q-87 71 -87 228v188q0 102 -1 135q-2 50 -6 75q-5 27 -16 35q-12 9 -31 15v13h200v-13q-21 -6 -33 -15t-18 -35q-5 -23 -7 -75q-1 -33 -1 -135v-210q0 -63 12 -111q12 -47 41 -81t76 -50q49 -17 119 -17q61 0 107 13q49 14 83 45
q35 32 53 83t18 128v191q0 102 -1 135q-1 49 -9 76q-8 28 -22 39q-13 11 -41 22v13h151v-13q-22 -11 -33 -22q-12 -12 -18 -39q-5 -24 -7 -76q-1 -33 -1 -135v-191q0 -79 -20 -134q-19 -53 -57 -88q-37 -34 -88 -49t-114 -15zM374 882l-6 3q4 0 26 -2q9 -1 34 -5t34 -5
q22 -2 26 -2q8 0 24 9t33 39l12 -4q-13 -47 -35 -72q-21 -24 -43 -24q-5 0 -27 2q-11 1 -35 5q-25 4 -33 5q-20 2 -24 2q-10 0 -25 -9t-37 -43l-12 4q17 51 41 74q25 23 47 23z" />
    <glyph glyph-name="utilde" unicode="&#x169;" horiz-adv-x="565" 
d="M206 -9l-8 -10q-62 0 -96 32q-33 31 -33 99v152v72q0 24 -5 39q-4 13 -15 18t-30 9v15l131 60v-389q0 -43 20 -60q19 -16 54 -16q26 0 62 17q34 16 83 59l33 29v152v72q0 24 -5 39q-5 14 -15 18t-30 9v15l131 60v-317q0 -54 1 -72q2 -28 7 -43q6 -16 18 -24q11 -7 34 -13
v-13h-137v99l-33 -29q-40 -36 -83 -58q-40 -21 -84 -21zM242 639l-3 3q10 0 25 -3l30 -6q20 -4 29 -6q13 -3 24 -3q8 0 23 9t30 41l12 -6q-10 -48 -30 -72t-42 -24q-6 0 -26 2q-10 1 -30 5t-29 5q-18 2 -23 2q-7 0 -11 -1q-5 -1 -13 -6q-6 -4 -16 -15q-7 -8 -19 -29l-12 6
q13 47 36 73q22 25 45 25z" />
    <glyph glyph-name="Umacron" unicode="&#x16a;" 
d="M409 -11l-3 -1q-158 0 -246 71q-87 71 -87 228v188q0 102 -1 135q-2 50 -6 75q-5 27 -16 35q-12 9 -31 15v13h200v-13q-21 -6 -33 -15t-18 -35q-5 -23 -7 -75q-1 -33 -1 -135v-210q0 -63 12 -111q12 -47 41 -81t76 -50q49 -17 119 -17q61 0 107 13q49 14 83 45
q35 32 53 83t18 128v191q0 102 -1 135q-1 49 -9 76q-8 28 -22 39q-13 11 -41 22v13h151v-13q-22 -11 -33 -22q-12 -12 -18 -39q-5 -24 -7 -76q-1 -33 -1 -135v-191q0 -79 -20 -134q-19 -53 -57 -88q-37 -34 -88 -49t-114 -15zM531 805h-232v40h232v-40z" />
    <glyph glyph-name="umacron" unicode="&#x16b;" horiz-adv-x="565" 
d="M206 -9l-8 -10q-62 0 -96 32q-33 31 -33 99v152v72q0 24 -5 39q-4 13 -15 18t-30 9v15l131 60v-389q0 -43 20 -60q19 -16 54 -16q26 0 62 17q34 16 83 59l33 29v152v72q0 24 -5 39q-5 14 -15 18t-30 9v15l131 60v-317q0 -54 1 -72q2 -28 7 -43q6 -16 18 -24q11 -7 34 -13
v-13h-137v99l-33 -29q-40 -36 -83 -58q-40 -21 -84 -21zM389 607v-38h-219v38h219z" />
    <glyph glyph-name="Ubreve" unicode="&#x16c;" 
d="M409 -11l-3 -1q-158 0 -246 71q-87 71 -87 228v188q0 102 -1 135q-2 50 -6 75q-5 27 -16 35q-12 9 -31 15v13h200v-13q-21 -6 -33 -15t-18 -35q-5 -23 -7 -75q-1 -33 -1 -135v-210q0 -63 12 -111q12 -47 41 -81t76 -50q49 -17 119 -17q61 0 107 13q49 14 83 45
q35 32 53 83t18 128v191q0 102 -1 135q-1 49 -9 76q-8 28 -22 39q-13 11 -41 22v13h151v-13q-22 -11 -33 -22q-12 -12 -18 -39q-5 -24 -7 -76q-1 -33 -1 -135v-191q0 -79 -20 -134q-19 -53 -57 -88q-37 -34 -88 -49t-114 -15zM416 835l-1 1q47 0 69 18t30 39h16
q-1 -13 -9 -31q-7 -17 -21 -34q-13 -16 -35 -27t-51 -11q-30 0 -52 11q-21 11 -35 26q-13 15 -21 33t-9 33h16q3 -9 11 -21q7 -10 20 -18q10 -6 30 -13q18 -6 42 -6z" />
    <glyph glyph-name="ubreve" unicode="&#x16d;" horiz-adv-x="565" 
d="M206 -9l-8 -10q-62 0 -96 32q-33 31 -33 99v152v72q0 24 -5 39q-4 13 -15 18t-30 9v15l131 60v-389q0 -43 20 -60q19 -16 54 -16q26 0 62 17q34 16 83 59l33 29v152v72q0 24 -5 39q-5 14 -15 18t-30 9v15l131 60v-317q0 -54 1 -72q2 -28 7 -43q6 -16 18 -24q11 -7 34 -13
v-13h-137v99l-33 -29q-40 -36 -83 -58q-40 -21 -84 -21zM280 576l2 -3q42 0 63 23q22 23 29 59h16q-2 -25 -9 -47t-21 -40q-13 -17 -33 -28t-45 -11q-26 0 -48 11q-20 10 -34 29q-13 18 -21 41q-7 22 -9 48h16q8 -35 28 -58q21 -24 66 -24z" />
    <glyph glyph-name="Uring" unicode="&#x16e;" 
d="M409 -11l-3 -1q-158 0 -246 71q-87 71 -87 228v188q0 102 -1 135q-2 50 -6 75q-5 27 -16 35q-12 9 -31 15v13h200v-13q-21 -6 -33 -15t-18 -35q-5 -23 -7 -75q-1 -33 -1 -135v-210q0 -63 12 -111q12 -47 41 -81t76 -50q49 -17 119 -17q61 0 107 13q49 14 83 45
q35 32 53 83t18 128v191q0 102 -1 135q-1 49 -9 76q-8 28 -22 39q-13 11 -41 22v13h151v-13q-22 -11 -33 -22q-12 -12 -18 -39q-5 -24 -7 -76q-1 -33 -1 -135v-191q0 -79 -20 -134q-19 -53 -57 -88q-37 -34 -88 -49t-114 -15zM335 824q0 37 26 60t59 23t59 -23t26 -60
q0 -38 -25 -60q-26 -23 -60 -23t-60 23q-25 22 -25 60zM372 824l-2 -2q0 -34 12 -51q12 -16 35 -16q22 0 36 17q13 16 13 51q0 33 -13 50q-13 18 -34 18t-34 -18q-13 -17 -13 -49z" />
    <glyph glyph-name="uring" unicode="&#x16f;" horiz-adv-x="565" 
d="M200 612q0 37 26 60t60 23t60 -23t26 -60q0 -38 -25 -60q-26 -23 -61 -23t-61 23q-25 22 -25 60zM237 612l-2 -1q0 -67 50 -67t50 67q0 33 -13 50q-14 18 -36 18t-36 -18q-13 -17 -13 -49zM204 -10l-8 -10q-62 0 -96 32q-33 32 -33 99v152v72q0 24 -5 39q-4 14 -15 18
t-30 9v15l131 60v-389q0 -43 20 -60q19 -16 54 -16q26 0 62 17q34 16 83 59l33 29v152v72q0 24 -5 39q-5 13 -15 18t-30 9v15l131 60v-317q0 -54 1 -72q2 -28 7 -43q6 -17 18 -24q11 -7 34 -13v-13h-137v99l-33 -29q-40 -36 -83 -58q-40 -21 -84 -21z" />
    <glyph glyph-name="Uhungarumlaut" unicode="&#x170;" 
d="M476 791l72 83q11 13 20 23q9 9 23 9t20 -8t6 -18q0 -18 -22 -33l-111 -67zM327 791l73 83q11 13 20 23q9 9 23 9t20 -8t6 -18q0 -20 -21 -33l-113 -67zM408 -11l-3 -1q-158 0 -246 71q-87 71 -87 228v188q0 102 -1 135q-1 50 -6 75q-5 27 -16 35q-12 9 -31 15v13h200
v-13q-21 -6 -33 -15t-18 -35q-5 -23 -7 -75q-1 -33 -1 -135v-210q0 -63 12 -111q12 -47 41 -81t76 -50q49 -17 119 -17q61 0 107 13q49 14 83 45q35 32 53 83t18 128v191q0 102 -1 135q-1 49 -9 76q-8 28 -22 39q-13 11 -41 22v13h151v-13q-22 -11 -33 -22q-12 -12 -18 -39
q-5 -24 -7 -76q-1 -33 -1 -135v-191q0 -79 -20 -134q-19 -53 -57 -88q-37 -34 -88 -49t-114 -15z" />
    <glyph glyph-name="uhungarumlaut" unicode="&#x171;" horiz-adv-x="565" 
d="M206 -9l-8 -10q-62 0 -96 32q-33 31 -33 99v152v72q0 24 -5 39q-4 13 -15 18t-30 9v15l131 60v-389q0 -43 20 -60q19 -16 54 -16q26 0 62 17q34 16 83 59l33 29v152v72q0 24 -5 39q-5 14 -15 18t-30 9v15l131 60v-317q0 -54 1 -72q2 -28 7 -43q6 -16 18 -24q11 -7 34 -13
v-13h-137v99l-33 -29q-40 -36 -83 -58q-40 -21 -84 -21zM342 540l40 137q8 19 15 30q7 10 21 10q13 0 19 -7q6 -8 6 -18q0 -7 -3 -16q-2 -6 -8 -16l-80 -125zM214 538l41 138q6 17 14 30q6 10 21 10q14 0 20 -7t6 -18q0 -17 -12 -33l-80 -125z" />
    <glyph glyph-name="Uogonek" unicode="&#x172;" 
d="M446 -165l-7 3q-34 0 -55 18t-21 47q0 17 9 30t22 25q14 12 30 21t33 15q-22 -2 -28 -2h-23q-162 0 -248 71t-86 228v188q0 102 -1 135q-1 50 -6 75q-5 27 -16 35q-12 9 -31 15v13h200v-13q-21 -6 -33 -15t-18 -35q-5 -23 -7 -75q-1 -33 -1 -135v-210q0 -63 12 -111
q12 -47 41 -81q29 -33 77 -50q49 -17 120 -17q60 0 106 13t82 44q35 31 53 81q18 51 18 129v191q0 102 -1 135q-1 49 -9 76q-8 28 -22 39q-13 11 -41 22v13h151v-13q-22 -11 -33 -22q-12 -12 -18 -39q-5 -24 -7 -76q-1 -33 -1 -135v-191q0 -117 -40 -179q-41 -64 -112 -89
q-23 -7 -42 -15t-33 -18t-21 -24q-8 -14 -8 -33t12 -34t36 -15q13 0 24 6t18 12l10 -9q-3 -5 -9 -12q-5 -7 -17 -15q-11 -8 -25 -12q-17 -5 -34 -5z" />
    <glyph glyph-name="uogonek" unicode="&#x173;" horiz-adv-x="565" 
d="M206 -9l-12 -7q-62 0 -96 32q-33 32 -33 99v152v72q0 24 -5 39q-4 14 -15 18t-30 9v15l131 60v-389q0 -43 20 -60q19 -16 54 -16q26 0 62 17q34 16 83 59l33 29v152v72q0 24 -5 39q-5 13 -15 18t-30 9v15l131 60v-317q0 -54 1 -72q2 -28 7 -43q6 -17 18 -24q11 -7 34 -13
v-13h-110q-29 -11 -45 -31t-16 -53q0 -19 12 -34t36 -15q14 0 24 6t18 12l10 -9q-3 -5 -9 -12q-5 -7 -17 -15q-11 -8 -25 -12q-17 -5 -34 -5q-35 0 -56 18t-21 47q0 22 12 39q13 18 28 29q18 13 33 20q17 8 27 12v99l-33 -29q-40 -36 -83 -58q-40 -21 -84 -21z" />
    <glyph glyph-name="Wcircumflex" unicode="&#x174;" horiz-adv-x="1054" 
d="M552 901l136 -106l-5 -11l-131 51l-131 -51l-5 11zM95 623l-6 -5q-3 8 -9 23.5t-9 22.5q-7 20 -15 33q-7 13 -17 21t-23 14v14h165v-14q-12 -3 -21 -8q-7 -4 -9 -14q-1 -9 3 -24q7 -22 13 -39l225 -559l125 305l-93 226q-12 31 -19 46q-11 25 -16 33q-7 14 -18 21t-24 12
v14h169v-14q-15 -3 -21 -7q-7 -4 -10 -14q-3 -8 2 -24q4 -13 15 -40l68 -168l61 143q9 21 15 39t6 32q0 13 -8 24t-26 17v14h112v-14q-12 -5 -21 -9q-10 -5 -18 -16q-10 -13 -18 -31q-9 -19 -24 -54l-70 -164l148 -366l206 529q11 27 14 40q5 18 3 32q-1 13 -11 24t-31 17
v14h126v-14q-8 -3 -22 -11q-10 -6 -19 -18q-6 -8 -19 -32q-9 -16 -22 -51l-245 -630h-21l-157 382l-156 -382h-21z" />
    <glyph glyph-name="wcircumflex" unicode="&#x175;" horiz-adv-x="723" 
d="M345 717l123 -174l-11 -9l-112 98l-112 -98l-11 9zM76 355l-1 4q-13 31 -24 51q-11 21 -19 30q-10 11 -16 15q-10 6 -15 8v13h165v-13q-15 -1 -24 -6q-9 -4 -10 -16q-2 -13 4 -31q6 -20 18 -51l111 -275l95 208l-25 64q-20 47 -22 51q-8 18 -18 31t-18 17q-12 6 -19 8v13
h167v-13q-15 -1 -24 -6q-9 -4 -10 -16q-2 -13 4 -31q6 -20 18 -51l107 -270l102 248q16 38 22 64q6 24 3 37t-14 18t-25 6v13h114v-13q-10 -3 -16 -7q-7 -4 -16 -18q-10 -15 -21 -37q-10 -21 -28 -64l-141 -343h-20l-111 278l-128 -278h-19z" />
    <glyph glyph-name="Ycircumflex" unicode="&#x176;" horiz-adv-x="723" 
d="M262 13l-2 -3q20 7 33 17q12 9 18 35q5 23 7 75q2 66 2 133v80l-187 270q-7 11 -19 28t-13 18q-12 17 -26 33q-12 13 -25 22q-14 9 -30 15v13h196v-13q-25 -4 -33 -20q-7 -15 15 -49l195 -282l171 238q36 49 42 77q6 27 -32 36v13h126v-13q-13 -5 -22 -10q-10 -6 -24 -18
q-12 -10 -30 -32q-15 -17 -39 -53l-180 -256v-95q0 -67 2 -133q1 -47 8 -75q6 -26 18 -35q11 -8 33 -16v-13h-204v13zM403 898l136 -106l-5 -11l-131 51l-131 -51l-5 11z" />
    <glyph glyph-name="ycircumflex" unicode="&#x177;" horiz-adv-x="493" 
d="M112 -165l3 -2q-25 0 -35 10q-11 11 -11 24q0 15 9 24t26 9t29 -9t24 -9q7 0 14 4q9 5 17 15q9 11 21 30q14 22 26 51l5 12l-162 362q-19 40 -25 51q-11 19 -18 30t-15 15q-10 6 -16 8v13h160v-13q-11 -1 -19 -6q-7 -4 -9 -15t3 -29q4 -17 18 -49l124 -278l114 254
q16 39 21 62q4 23 0 36t-16 19q-13 7 -27 8v13h119v-13q-8 -1 -16 -6q-7 -4 -16 -18q-10 -15 -21 -37q-12 -24 -30 -63l-159 -353q-38 -84 -72 -117t-66 -33zM277 715l123 -174l-11 -9l-112 98l-112 -98l-11 9z" />
    <glyph glyph-name="Ydieresis" unicode="&#x178;" horiz-adv-x="723" 
d="M262 13l-2 -3q20 7 33 17q12 9 18 35q5 23 7 75q2 66 2 133v80l-187 270q-7 11 -19 28t-13 18q-12 17 -26 33q-12 13 -25 22q-14 9 -30 15v13h196v-13q-25 -4 -33 -20q-7 -15 15 -49l195 -282l171 238q36 49 42 77q6 27 -32 36v13h126v-13q-13 -5 -22 -10q-10 -6 -24 -18
q-12 -10 -30 -32q-15 -17 -39 -53l-180 -256v-95q0 -67 2 -133q1 -47 8 -75q6 -26 18 -35q11 -8 33 -16v-13h-204v13zM511 788q-20 0 -32 13t-12 33t12 33t32 13t33 -13t13 -33t-13 -33t-33 -13zM297 788q-20 0 -33 13t-13 33t13 33t33 13t33 -13t13 -33t-13 -33t-33 -13z
" />
    <glyph glyph-name="Zacute" unicode="&#x179;" horiz-adv-x="708" 
d="M252 798l164 92q12 6 18 8q9 3 20 3q14 0 21 -9q8 -10 8 -19q0 -26 -44 -40l-182 -48zM542 736l-280 -2q-52 0 -81 -7q-33 -8 -53 -22q-22 -16 -35 -40q-14 -27 -27 -61h-16l25 147h575l-520 -734h314q57 0 95 8q36 7 59 26q22 18 36 48q12 26 25 74h16l-19 -171h-626z
" />
    <glyph glyph-name="zacute" unicode="&#x17a;" horiz-adv-x="472" 
d="M184 547l107 140q10 12 20 21q8 7 22 7q13 0 21 -9q7 -8 7 -19q0 -12 -7 -20q-9 -10 -18 -17l-143 -114zM429 -14l1 2q-5 3 -17 7q-7 2 -25 4q-22 2 -43 2h-69h-258l331 459h-147q-45 0 -72 -6q-26 -6 -43 -18q-16 -11 -25 -30q-10 -20 -18 -40h-15l23 122q6 -4 19 -7
q9 -2 30 -4q24 -2 43 -2h63h240l-334 -459h167q42 0 66 6q23 6 39 20t26 36q12 26 23 56h15z" />
    <glyph glyph-name="Zdotaccent" unicode="&#x17b;" horiz-adv-x="708" 
d="M543 734l-280 -2q-52 0 -81 -7q-33 -8 -53 -22q-22 -16 -35 -40q-14 -27 -27 -61h-16l25 147h575l-520 -734h314q57 0 95 8q36 7 59 26q23 18 36 48q12 26 25 74h16l-19 -171h-626zM352 789l-1 -2q-19 0 -33 15q-13 14 -13 35q0 19 14 33t33 14q20 0 33 -13
q14 -14 14 -33q0 -18 -14 -34q-13 -15 -33 -15z" />
    <glyph glyph-name="zdotaccent" unicode="&#x17c;" horiz-adv-x="472" 
d="M428 -13l1 2q-5 3 -17 7q-7 2 -25 4q-22 2 -43 2h-69h-258l331 459h-147q-45 0 -72 -6q-26 -6 -43 -18q-16 -11 -25 -30q-10 -20 -18 -40h-15l23 122q6 -4 19 -7q9 -2 30 -4q24 -2 43 -2h63h240l-334 -459h167q42 0 66 6q23 6 39 20t26 36q12 26 23 56h15zM233 572l-1 -2
q-20 0 -33 15q-13 14 -13 35q0 19 14 33t33 14q20 0 33 -13q14 -14 14 -33q0 -18 -14 -34q-14 -15 -33 -15z" />
    <glyph glyph-name="Zcaron" unicode="&#x17d;" horiz-adv-x="708" 
d="M223 902l131 -51l131 51l5 -11l-136 -106l-136 106zM543 734l-280 -2q-52 0 -81 -7q-33 -8 -53 -22q-22 -16 -35 -40q-14 -27 -27 -61h-16l25 147h575l-520 -734h314q57 0 95 8q36 7 59 26q23 18 36 48q12 26 25 74h16l-19 -171h-626z" />
    <glyph glyph-name="zcaron" unicode="&#x17e;" horiz-adv-x="472" 
d="M120 727l112 -98l112 98l11 -9l-123 -174l-123 174zM428 -13l1 2q-5 3 -17 7q-7 2 -25 4q-22 2 -43 2h-69h-258l331 459h-147q-45 0 -72 -6q-26 -6 -43 -18q-16 -11 -25 -30q-10 -20 -18 -40h-15l23 122q6 -4 19 -7q9 -2 30 -4q24 -2 43 -2h63h240l-334 -459h167
q42 0 66 6q23 6 39 20t26 36q12 26 23 56h15z" />
    <glyph glyph-name="uni0192" unicode="&#x192;" horiz-adv-x="410" 
d="M76 475l80 -4l18 99q10 58 27 96q16 36 38 60q20 22 45 31q24 9 49 9q37 0 62 -15q26 -15 26 -39q0 -12 -7 -22t-24 -10t-25 8q-7 8 -12 24q-6 22 -12 30t-20 8q-10 0 -19 -6q-10 -6 -17 -21q-8 -16 -15 -40q-8 -25 -15 -63l-27 -148h102v-19h-105l-57 -316
q-15 -82 -34 -130q-19 -49 -42 -76q-22 -27 -47 -36q-24 -9 -47 -9q-36 0 -61 15t-25 39q0 11 8 22q7 10 24 10t25 -8q7 -8 12 -24q6 -26 12 -32t19 -6q15 0 24 9t18 40q9 33 21 94q23 118 32 170l45 241h-76v19z" />
    <glyph glyph-name="Aringacute" unicode="&#x1fa;" horiz-adv-x="795" 
d="M19 13l-1 -3q16 6 23 10q11 6 21 19q13 17 23 34q14 25 26 55l236 561q-14 25 -27 32q-14 7 -30 12v13h109q11 0 15 -4t10 -18l266 -601q14 -32 19 -42q8 -16 18 -31q8 -13 21 -22q10 -7 29 -16v-15h-178v15q32 6 32 27q0 23 -22 71l-52 118h-381l-42 -99q-6 -13 -12 -30
t-6 -33t9 -31q9 -14 33 -22v-13h-139v13zM547 243l-188 425l-179 -425h367zM260 959l164 92q12 6 18 8q9 3 20 3q14 0 21 -9q8 -10 8 -19q0 -26 -44 -40l-182 -48zM275 862q0 37 26 60t59 23t59 -23t26 -60q0 -38 -25 -60q-26 -23 -60 -23t-60 23q-25 22 -25 60zM312 862
l-2 -2q0 -34 12 -51q12 -16 35 -16q22 0 36 17q13 16 13 51q0 33 -13 50q-13 18 -34 18t-34 -18q-13 -17 -13 -49z" />
    <glyph glyph-name="aringacute" unicode="&#x1fb;" horiz-adv-x="479" 
d="M159 -7l-7 1q-58 0 -92 27q-35 27 -35 81q0 32 12 51q12 20 32 35q20 16 47 26q18 7 56 23l69 29q24 10 39 21q16 11 23 21q8 11 11 20t3 17v51q0 44 -27 59t-70 15q-41 0 -56 -12t-26 -29q-10 -15 -21 -25q-11 -9 -25 -9q-19 0 -28 9t-9 23t13 24q14 11 36 18
q23 8 52 12q27 4 63 4q35 0 63 -4q33 -5 57 -16q26 -12 42 -34q17 -23 17 -58v-228q0 -36 2 -70q2 -25 6 -39q5 -14 12 -17q8 -3 21 -3q9 0 19 3q7 2 19 8l6 -12q-3 -3 -23 -13q-18 -9 -46 -9q-52 0 -72 23t-20 60v4l-25 -23q-16 -14 -25 -22q-14 -12 -30 -21
q-17 -9 -37 -15q-21 -6 -46 -6zM105 106l-2 -2q0 -48 18 -67t53 -19q36 0 62 17q24 15 51 41l27 25v193q-7 -9 -24 -22q-18 -13 -48 -26l-52 -22q-46 -19 -66 -47q-19 -26 -19 -71zM135 611q0 37 26 60t60 23t60 -23t26 -60q0 -38 -25 -60q-26 -23 -61 -23t-61 23
q-25 22 -25 60zM172 611l-2 -1q0 -67 50 -67t50 67q0 33 -13 50q-13 18 -36 18t-36 -18q-13 -17 -13 -49zM119 726l164 92q12 6 18 8q9 3 20 3q13 0 21 -9q8 -10 8 -19q0 -26 -44 -40l-182 -48z" />
    <glyph glyph-name="AEacute" unicode="&#x1fc;" horiz-adv-x="1095" 
d="M659 798l164 92q12 6 18 8q9 3 20 3q13 0 21 -9q8 -10 8 -19q0 -26 -44 -40l-182 -48zM1009 752v2q11 0 15 -4t9 -27l18 -102h-18q-15 39 -28 59q-15 22 -35 36t-45 18q-28 5 -57 5h-242v-306h94q38 0 56 7q20 8 30 18q11 11 14 24l6 27h16v-172h-16l-6 27q-3 13 -14 24
q-10 10 -30 18q-18 7 -56 7h-94v-396h261q35 0 60 3t45 17t35 39q14 24 28 69h18l-13 -113q-1 -22 -8 -27q-5 -4 -22 -4h-549v13q20 6 32 15t18 32q7 25 8 65q2 56 2 116h-324l-78 -115q-29 -43 -29 -72t42 -43v-12h-142v12q7 3 21 11q12 7 23 18q12 12 27 33q26 36 38 54
l370 546q12 18 15 30t0 19q-3 8 -14 11q-13 4 -25 5v13h544zM541 262v461l-313 -461h313z" />
    <glyph glyph-name="aeacute" unicode="&#x1fd;" horiz-adv-x="792" 
d="M372 547l107 140q10 12 20 21q8 7 22 7q13 0 21 -9q7 -8 7 -19q0 -12 -7 -20q-9 -10 -18 -17l-143 -114zM165 -8l-3 -2q-58 0 -96 27q-37 27 -37 81q0 32 12 51q12 20 32 35q20 16 47 26q18 7 56 23l69 29q24 10 40 21t23 21q6 9 10 20q3 9 3 17v46q0 47 -27 63
q-28 17 -70 17q-41 0 -56 -12t-26 -29q-10 -15 -21 -25q-10 -9 -29 -9q-16 0 -24 9q-8 10 -8 23q0 14 13 24t36 18t52 12q27 4 63 4q26 0 53 -3q24 -3 49 -11q22 -7 39 -23q17 -15 24 -39q35 38 81 57q48 20 91 20q34 0 67 -9q34 -9 60 -28q27 -19 46 -52q19 -32 25 -81
h-347q-4 -21 -5 -36q-2 -26 -2 -42q0 -65 15 -107t41 -68q25 -26 60 -36q33 -10 73 -10q92 0 147 51l9 -13q-28 -28 -72 -45q-45 -17 -105 -17q-63 0 -121 27t-93 84l-33 -30q-16 -15 -39 -34q-17 -14 -37 -25t-40 -15q-23 -5 -45 -5zM559 467l1 -2q-22 0 -43 -7
q-23 -8 -42 -24t-36 -42q-16 -24 -25 -63h265q-3 44 -13 69q-10 27 -27 42t-37 21q-21 6 -43 6zM111 100v2q0 -47 20 -67q19 -19 54 -19q18 0 33 3q13 3 30 11q15 8 33 21q14 11 40 33l27 25q-13 25 -21 56q-7 28 -7 65v58q-7 -9 -24 -22q-18 -13 -48 -26l-52 -22
q-46 -19 -66 -47q-19 -26 -19 -71z" />
    <glyph glyph-name="Oslashacute" unicode="&#x1fe;" horiz-adv-x="864" 
d="M425 -11l-5 -4q-52 0 -102 15q-48 14 -93 41l-62 -103l-16 9l62 104q-37 25 -69 60t-54 75q-23 42 -35 89q-12 48 -12 100q0 81 32 153q32 71 86 122q55 52 123 80q70 29 144 29q48 0 95 -12q46 -12 89 -35l55 93l16 -8l-56 -94q41 -25 75 -60q36 -36 59 -76
q25 -44 38 -90q14 -50 14 -102q0 -83 -32 -155t-85 -122q-55 -52 -123 -80q-70 -29 -144 -29zM129 372l1 2q0 -103 26 -176q25 -71 71 -117l363 607q-38 28 -81 42q-42 13 -90 13q-57 0 -109 -21t-93 -66q-40 -44 -64 -115t-24 -169zM421 3l1 -1q58 0 110 21t93 66
q40 44 64 115t24 169q0 111 -30 185t-79 117l-363 -608q37 -34 84 -49t96 -15zM327 795l164 92q12 6 18 8q9 3 20 3q13 0 21 -9q8 -10 8 -19q0 -26 -44 -40l-182 -48z" />
    <glyph glyph-name="oslashacute" unicode="&#x1ff;" horiz-adv-x="576" 
d="M163 63l235 365q-22 22 -51 33q-30 11 -60 11q-37 0 -66 -13q-31 -14 -53 -42q-22 -29 -36 -72q-13 -42 -13 -105q0 -62 12 -105q12 -42 32 -72zM411 414l-236 -366q23 -22 51 -33q27 -10 61 -10q36 0 67 12q32 12 54 39t36 72q13 43 13 109q0 61 -12 105t-34 72z
M460 524l14 -12l-47 -74q48 -32 80 -83q32 -52 32 -120q0 -59 -24 -105t-60 -78t-81 -48q-46 -17 -88 -17q-31 0 -64 9t-63 27l-54 -84l-15 10l54 84q-46 31 -78 83q-31 50 -31 120q0 56 23 104q22 46 59 78t81 50q45 18 88 18q31 0 64 -9t63 -27zM238 543l107 140
q10 12 20 21q8 7 22 7q13 0 21 -9q7 -8 7 -19q0 -12 -7 -20q-9 -10 -18 -17l-143 -114z" />
    <glyph glyph-name="uni0218" unicode="&#x218;" horiz-adv-x="614" 
d="M309 -125l-2 -1q-1 -4 -8 -9q-5 -4 -17 -4q-16 0 -27 11t-11 30t14 30t30 11q20 0 37 -15q16 -15 16 -43q0 -40 -22 -61q-23 -22 -54 -29l-6 11q32 9 44 24t12 32q0 8 -6 13zM308 -10l1 -7q-53 0 -89 9q-32 8 -61 20q-15 6 -45 20q-20 9 -39 9t-27 -21h-18v174h18
q8 -45 30 -81q22 -35 57 -61t78 -39q42 -13 95 -13q54 0 90 13q38 13 60 36q22 22 33 53t11 65q0 39 -12 66t-39 48t-72 39q-50 20 -111 38q-51 15 -93 33q-40 17 -70 41q-29 22 -45 54q-16 31 -16 75q0 46 20 83q19 34 53 61q34 26 77 38q44 12 90 12t78 -6t54 -15
q20 -8 41 -15q18 -6 35 -6q15 0 20 4q7 5 8 15h18v-135h-18q-23 70 -84 107q-62 38 -153 38q-81 0 -129 -36t-48 -100q0 -28 9 -52t31 -43t60 -36q37 -16 98 -33q42 -12 103 -32q49 -16 87 -42q39 -26 59 -61q21 -36 21 -87q0 -48 -18 -90q-17 -40 -53 -73q-34 -31 -84 -49
q-49 -18 -111 -18z" />
    <glyph glyph-name="uni0219" unicode="&#x219;" horiz-adv-x="442" 
d="M231 -125l-2 -1q-1 -4 -8 -9q-5 -4 -17 -4q-16 0 -27 11t-11 30t14 30t30 11q20 0 37 -15q16 -15 16 -43q0 -40 -22 -61q-23 -22 -54 -29l-6 11q32 9 44 24t12 32q0 8 -6 13zM214 6l-2 -9q61 0 97 30t36 75q0 44 -33 66q-34 23 -111 38q-84 16 -123 45t-39 89q0 31 14 57
q13 24 38 43q24 18 55 27q32 9 66 9q28 0 44 -4q18 -4 33 -9q13 -4 25 -9q9 -4 21 -4q16 0 19 14h17v-109h-17q-20 53 -54 80t-88 27q-55 0 -90 -22q-36 -22 -36 -69q0 -39 31 -57q30 -17 103 -31q50 -9 84 -21q37 -13 56 -28q21 -17 30 -37q9 -21 9 -49q0 -38 -16 -67
q-17 -30 -42 -51q-26 -22 -60 -32q-36 -11 -69 -11q-31 0 -52 6q-25 7 -38 13q-3 2 -13.5 6.5t-15.5 6.5q-12 6 -24 6q-17 0 -20 -18h-18v131h17q7 -28 21 -52q13 -24 33 -42q19 -17 48 -28q27 -10 64 -10z" />
    <glyph glyph-name="uni021A" unicode="&#x21a;" horiz-adv-x="706" 
d="M365 -125l-2 -1q-1 -4 -8 -9q-5 -4 -17 -4q-16 0 -27 11t-11 30t14 30t30 11q20 0 37 -15q16 -15 16 -43q0 -40 -22 -61q-23 -22 -54 -29l-6 11q32 9 44 24t12 32q0 8 -6 13zM250 12l-2 -1q20 7 33 17q12 9 18 35q5 23 7 75q2 66 2 133v461h-87q-37 0 -69 -3
q-30 -3 -55 -17q-23 -13 -40 -41q-16 -26 -25 -75h-19l15 123q3 23 7 27t18 4h594q14 0 18 -4q5 -4 6 -27l16 -123h-19q-9 49 -25 75q-17 28 -40 41q-25 14 -56 17t-72 3h-82v-461q0 -67 2 -133q1 -47 8 -75q6 -26 18 -35q11 -8 33 -16v-13h-204v13z" />
    <glyph glyph-name="uni021B" unicode="&#x21b;" horiz-adv-x="295" 
d="M188 -125l-2 -1q-1 -4 -8 -9q-5 -4 -17 -4q-16 0 -27 11t-11 30t14 30t30 11q21 0 37 -15t16 -43q0 -40 -22 -61q-23 -22 -54 -29l-6 11q32 9 44 24t12 32q0 8 -6 13zM177 -8l-1 -2q-52 0 -81 27q-28 27 -28 72v364h-44v14q38 5 68 42q31 38 38 120h15v-156h115v-19h-115
v-328q0 -57 11 -85q11 -27 47 -27q23 0 38 9q16 10 23 19l10 -8q-7 -12 -30 -27t-66 -15z" />
    <glyph glyph-name="uni0237" unicode="&#x237;" horiz-adv-x="237" 
d="M-21 -153l-1 -1q-16 0 -30 9q-13 9 -13 27q0 17 10 26q11 9 24 9q11 0 21 -5q6 -3 16 -11t15 -11q8 -5 15 -5q8 0 15 6q5 3 9 9q5 7 8 18t6 35q3 23 3 60v264v68q0 23 -5 36t-15 17q-12 5 -30 8v15l130 60v-439q0 -32 -9 -57t-24 -46q-16 -22 -31 -36q-12 -11 -32 -25
q-27 -18 -47 -25q-18 -6 -35 -6z" />
    <glyph glyph-name="circumflex" unicode="&#x2c6;" horiz-adv-x="446" 
d="M228 717l123 -174l-11 -9l-112 98l-112 -98l-11 9z" />
    <glyph glyph-name="caron" unicode="&#x2c7;" horiz-adv-x="446" 
d="M116 727l112 -98l112 98l11 -9l-123 -174l-123 174z" />
    <glyph glyph-name="breve" unicode="&#x2d8;" horiz-adv-x="446" 
d="M223 586l2 -3q42 0 63 23q22 23 29 59h16q-2 -25 -9 -47t-21 -40q-13 -17 -33 -28t-45 -11q-26 0 -48 11q-20 10 -34 29q-13 18 -21 41q-8 22 -9 48h16q8 -35 28 -58q21 -24 66 -24z" />
    <glyph glyph-name="dotaccent" unicode="&#x2d9;" horiz-adv-x="446" 
d="M222 570l-1 -2q-19 0 -33 15q-13 14 -13 35q0 19 14 33t33 14q20 0 33 -13q14 -14 14 -33q0 -18 -14 -34q-13 -15 -33 -15z" />
    <glyph glyph-name="ring" unicode="&#x2da;" horiz-adv-x="446" 
d="M144 612q0 37 26 60t60 23t60 -23t26 -60q0 -38 -25 -60q-26 -23 -61 -23t-61 23q-25 22 -25 60zM181 612l-2 -1q0 -67 50 -67t50 67q0 33 -13 50q-14 18 -36 18t-36 -18q-13 -17 -13 -49z" />
    <glyph glyph-name="ogonek" unicode="&#x2db;" horiz-adv-x="446" 
d="M210 -165l-4 4q-35 0 -56 18t-21 47q0 21 14 40q13 18 33 30q22 13 39 20q19 8 30 9h26q-32 -11 -54 -31q-22 -21 -22 -53q0 -19 12 -34t36 -15q13 0 24 6t18 12l10 -9q-3 -5 -9 -12q-5 -7 -17 -15q-11 -8 -25 -12q-17 -5 -34 -5z" />
    <glyph glyph-name="tilde" unicode="&#x2dc;" horiz-adv-x="446" 
d="M177 649l-3 3q10 0 25 -3l30 -6q20 -4 29 -6q14 -3 24 -3q8 0 23 9t30 41l12 -6q-11 -48 -30 -72t-42 -24q-6 0 -26 2q-10 1 -30 5t-29 5q-18 2 -23 2q-7 0 -11 -1q-5 -1 -13 -6q-6 -4 -16 -15q-7 -8 -19 -29l-12 6q13 47 36 73q22 25 45 25z" />
    <glyph glyph-name="hungarumlaut" unicode="&#x2dd;" horiz-adv-x="446" 
d="M246 550l40 137q8 19 15 30q7 10 21 10q13 0 19 -7q6 -8 6 -18q0 -7 -3 -16q-2 -6 -8 -16l-80 -125zM118 548l41 138q6 17 14 30q6 10 21 10q14 0 20 -7t6 -18q0 -17 -12 -33l-80 -125z" />
    <glyph glyph-name="Wgrave" unicode="&#x1e80;" horiz-adv-x="1054" 
d="M468 833v-2q-44 14 -44 40q0 9 8 19q8 9 21 9q11 0 20 -3q8 -3 17 -8l165 -90l-5 -13zM95 621l-6 -5q-3 8 -9 23.5t-9 22.5q-7 20 -15 33q-7 13 -17 21t-23 14v14h165v-14q-12 -3 -21 -8q-7 -4 -9 -14q-1 -9 3 -24q7 -22 13 -39l225 -559l125 305l-93 226q-12 31 -19 46
q-11 25 -16 33q-7 14 -18 21t-24 12v14h169v-14q-15 -3 -21 -7q-7 -4 -10 -14q-3 -8 2 -24q4 -13 15 -40l68 -168l61 143q9 21 15 39t6 32q0 13 -8 24t-26 17v14h112v-14q-12 -5 -21 -9q-10 -5 -18 -16q-10 -13 -18 -31q-9 -19 -24 -54l-70 -164l148 -366l206 529
q11 27 14 40q5 18 3 32q-1 13 -11 24t-31 17v14h126v-14q-8 -3 -22 -11q-10 -6 -19 -18q-6 -8 -19 -32q-9 -16 -22 -51l-245 -630h-21l-157 382l-156 -382h-21z" />
    <glyph glyph-name="wgrave" unicode="&#x1e81;" horiz-adv-x="723" 
d="M76 355l-1 4q-13 31 -24 51q-11 21 -19 30q-10 11 -16 15q-10 6 -15 8v13h165v-13q-15 -1 -24 -6q-9 -4 -10 -16q-2 -13 4 -31q6 -20 18 -51l111 -275l95 208l-25 64q-20 47 -22 51q-8 18 -18 31t-18 17q-12 6 -19 8v13h167v-13q-15 -1 -24 -6q-9 -4 -10 -16
q-2 -13 4 -31q6 -20 18 -51l107 -270l102 248q16 38 22 64q6 24 3 37t-14 18t-25 6v13h114v-13q-10 -3 -16 -7q-7 -4 -16 -18q-10 -15 -21 -37q-10 -21 -28 -64l-141 -343h-20l-111 278l-128 -278h-19zM261 654l-1 -1q-9 7 -18 17q-7 8 -7 20t9 21t23 9t21 -7q8 -7 18 -21
l107 -141l-9 -11z" />
    <glyph glyph-name="Wacute" unicode="&#x1e82;" horiz-adv-x="1054" 
d="M451 798l164 92q12 6 18 8q9 3 20 3q13 0 21 -9q8 -10 8 -19q0 -26 -44 -40l-182 -48zM94 625l-6 -5q-3 8 -9 23.5t-9 22.5q-8 20 -15 33t-17 21t-23 14v14h165v-14q-12 -3 -21 -8q-7 -4 -9 -14q-2 -9 3 -24q7 -22 13 -39l225 -559l125 305l-93 226q-12 31 -19 46
q-11 25 -16 33q-8 14 -18 21t-24 12v14h169v-14q-15 -3 -21 -7q-7 -4 -10 -14q-3 -8 2 -24q4 -13 15 -40l68 -168l61 143q9 21 15 39t6 32q0 13 -8 24t-26 17v14h112v-14q-12 -5 -21 -9q-10 -5 -18 -16q-10 -13 -18 -31q-9 -19 -24 -54l-70 -164l148 -366l206 529
q11 27 14 40q5 18 3 32q-1 13 -11 24t-31 17v14h126v-14q-8 -3 -22 -11q-10 -6 -19 -18q-6 -8 -19 -32q-9 -16 -22 -51l-245 -630h-21l-157 382l-156 -382h-21z" />
    <glyph glyph-name="wacute" unicode="&#x1e83;" horiz-adv-x="723" 
d="M296 547l107 140q10 12 20 21q8 7 22 7q13 0 21 -9q7 -8 7 -19q0 -12 -7 -20q-9 -10 -18 -17l-143 -114zM77 354l-1 4q-14 32 -24 51q-11 21 -19 30q-10 11 -16 15q-10 6 -15 8v13h165v-13q-15 -2 -24 -6t-10 -16q-2 -13 4 -31q6 -19 18 -51l111 -275l95 208l-25 64
q-20 47 -22 51q-8 18 -18 31t-18 17q-12 6 -19 8v13h167v-13q-15 -2 -24 -6t-10 -16q-2 -13 4 -31q6 -19 18 -51l107 -270l102 248q16 38 22 64q6 24 3 37t-14 18t-25 6v13h114v-13q-10 -3 -16 -7q-7 -4 -16 -18q-10 -15 -21 -37q-10 -21 -28 -64l-141 -343h-20l-111 278
l-128 -278h-19z" />
    <glyph glyph-name="Wdieresis" unicode="&#x1e84;" horiz-adv-x="1054" 
d="M659 791q-20 0 -32 13q-12 14 -12 33t12 33q12 13 32 13t33 -13t13 -33t-13 -33t-33 -13zM445 791q-20 0 -33 13t-13 33t13 33t33 13t33 -13t13 -33t-13 -33t-33 -13zM95 623l-6 -5q-3 8 -9 23.5t-9 22.5q-7 20 -15 33q-7 13 -17 21t-23 14v14h165v-14q-12 -3 -21 -8
q-7 -4 -9 -14q-1 -9 3 -24q7 -22 13 -39l225 -559l125 305l-93 226q-12 31 -19 46q-11 25 -16 33q-7 14 -18 21t-24 12v14h169v-14q-15 -3 -21 -7q-7 -4 -10 -14q-3 -8 2 -24q4 -13 15 -40l68 -168l61 143q9 21 15 39t6 32q0 13 -8 24t-26 17v14h112v-14q-12 -5 -21 -9
q-10 -5 -18 -16q-10 -13 -18 -31q-9 -19 -24 -54l-70 -164l148 -366l206 529q11 27 14 40q5 18 3 32q-1 13 -11 24t-31 17v14h126v-14q-8 -3 -22 -11q-10 -6 -19 -18q-6 -8 -19 -32q-9 -16 -22 -51l-245 -630h-21l-157 382l-156 -382h-21z" />
    <glyph glyph-name="wdieresis" unicode="&#x1e85;" horiz-adv-x="723" 
d="M435 572v-1q-19 0 -33 14q-13 13 -13 33t13 33t33 13t33 -13t13 -33t-13 -33t-33 -13zM255 571v-1q-19 0 -33 14q-13 13 -13 33t13 33t33 13t33 -13t13 -33t-13 -33t-33 -13zM76 353l-1 4q-13 31 -24 51q-11 21 -19 30q-10 11 -16 15q-10 6 -15 8v13h165v-13
q-15 -1 -24 -6q-9 -4 -10 -16q-2 -13 4 -31q6 -20 18 -51l111 -275l95 208l-25 64q-20 47 -22 51q-8 18 -18 31t-18 17q-12 6 -19 8v13h167v-13q-15 -1 -24 -6q-9 -4 -10 -16q-2 -13 4 -31q6 -20 18 -51l107 -270l102 248q16 38 22 64q6 24 3 37t-14 18t-25 6v13h114v-13
q-10 -3 -16 -7q-7 -4 -16 -18q-10 -15 -21 -37q-10 -21 -28 -64l-141 -343h-20l-111 278l-128 -278h-19z" />
    <glyph glyph-name="Ygrave" unicode="&#x1ef2;" horiz-adv-x="723" 
d="M262 13l-2 -3q20 7 33 17q12 9 18 35q5 23 7 75q2 66 2 133v80l-187 270q-7 11 -19 28t-13 18q-12 17 -26 33q-12 13 -25 22q-14 9 -30 15v13h196v-13q-25 -4 -33 -20q-7 -15 15 -49l195 -282l171 238q36 49 42 77q6 27 -32 36v13h126v-13q-13 -5 -22 -10q-10 -6 -24 -18
q-12 -10 -30 -32q-15 -17 -39 -53l-180 -256v-95q0 -67 2 -133q1 -47 8 -75q6 -26 18 -35q11 -8 33 -16v-13h-204v13zM319 830v-2q-44 14 -44 40q0 9 8 19q7 9 21 9q11 0 20 -3q8 -3 17 -8l165 -90l-5 -13z" />
    <glyph glyph-name="ygrave" unicode="&#x1ef3;" horiz-adv-x="493" 
d="M112 -165l3 -2q-25 0 -35 10q-11 11 -11 24q0 15 9 24t26 9t29 -9t24 -9q7 0 14 4q9 5 17 15q9 11 21 30q14 22 26 51l5 12l-162 362q-19 40 -25 51q-11 19 -18 30t-15 15q-10 6 -16 8v13h160v-13q-11 -1 -19 -6q-7 -4 -9 -15t3 -29q4 -17 18 -49l124 -278l114 254
q16 39 21 62q4 23 0 36t-16 19q-13 7 -27 8v13h119v-13q-8 -1 -16 -6q-7 -4 -16 -18q-10 -15 -21 -37q-12 -24 -30 -63l-159 -353q-38 -84 -72 -117t-66 -33zM195 648l-1 -1q-9 7 -18 17q-7 8 -7 20t9 21t23 9t21 -7q8 -7 18 -21l107 -141l-9 -11z" />
    <glyph glyph-name="uni2009" unicode="&#x2009;" horiz-adv-x="98" 
 />
    <glyph glyph-name="endash" unicode="&#x2013;" horiz-adv-x="560" 
d="M44 291h472v-20h-472v20z" />
    <glyph glyph-name="emdash" unicode="&#x2014;" horiz-adv-x="956" 
d="M44 291h868v-20h-868v20z" />
    <glyph glyph-name="quoteleft" unicode="&#x2018;" horiz-adv-x="221" 
d="M94 662l-1 -2q3 3 11 9q5 4 17 4q19 0 33 -12q13 -12 13 -33q0 -22 -15 -36q-14 -13 -36 -13q-21 0 -41 17t-20 59q0 43 24 77q25 36 64 59l7 -10q-32 -24 -48 -51q-16 -26 -16 -47q0 -16 8 -21z" />
    <glyph glyph-name="quoteright" unicode="&#x2019;" horiz-adv-x="221" 
d="M127 692q-6 -6 -10 -9q-5 -4 -17 -4q-20 0 -33 12t-13 33q0 22 15 36q14 13 36 13q21 0 41 -17t20 -59q0 -41 -24 -76q-24 -34 -64 -58l-7 10q31 24 48 51q16 26 16 47q0 16 -8 21z" />
    <glyph glyph-name="quotesinglbase" unicode="&#x201a;" horiz-adv-x="221" 
d="M127 46q-6 -6 -10 -9q-5 -4 -17 -4q-20 0 -33 12t-13 33q0 22 15 36q14 13 36 13q21 0 41 -17t20 -59q0 -41 -24 -76q-24 -34 -64 -58l-7 10q31 24 48 51q16 26 16 47q0 16 -8 21z" />
    <glyph glyph-name="quotedblleft" unicode="&#x201c;" horiz-adv-x="364" 
d="M94 662l-1 -2q3 3 11 9q5 4 17 4q19 0 33 -12q13 -12 13 -33q0 -22 -15 -36q-14 -13 -36 -13q-21 0 -41 17t-20 59q0 43 24 77q25 36 64 59l7 -10q-32 -24 -48 -51q-16 -26 -16 -47q0 -16 8 -21zM236 660l-1 -2q3 3 11 9q5 4 17 4q19 0 33 -12q13 -12 13 -33
q0 -22 -15 -36q-14 -13 -36 -13q-21 0 -41 17t-20 59q0 43 24 77q25 36 64 59l7 -10q-32 -24 -48 -51q-16 -26 -16 -47q0 -16 8 -21z" />
    <glyph glyph-name="quotedblright" unicode="&#x201d;" horiz-adv-x="364" 
d="M270 692q-6 -6 -10 -9q-5 -4 -17 -4q-19 0 -33 12q-13 12 -13 33q0 22 15 36q14 13 36 13q21 0 41 -17t20 -59q0 -41 -24 -76q-24 -34 -64 -58l-7 10q32 24 48 51q16 26 16 47q0 16 -8 21zM127 692q-6 -6 -10 -9q-5 -4 -17 -4q-20 0 -33 12t-13 33q0 22 15 36
q14 13 36 13q21 0 41 -17t20 -59q0 -41 -24 -76q-24 -34 -64 -58l-7 10q31 24 48 51q16 26 16 47q0 16 -8 21z" />
    <glyph glyph-name="quotedblbase" unicode="&#x201e;" horiz-adv-x="364" 
d="M270 46q-6 -6 -10 -9q-5 -4 -17 -4q-19 0 -33 12q-13 12 -13 33q0 22 15 36q14 13 36 13q21 0 41 -17t20 -59q0 -41 -24 -76q-24 -34 -64 -58l-7 10q32 24 48 51q16 26 16 47q0 16 -8 21zM127 46q-6 -6 -10 -9q-5 -4 -17 -4q-20 0 -33 12t-13 33q0 22 15 36q14 13 36 13
q21 0 41 -17t20 -59q0 -41 -24 -76q-24 -34 -64 -58l-7 10q31 24 48 51q16 26 16 47q0 16 -8 21z" />
    <glyph glyph-name="dagger" unicode="&#x2020;" horiz-adv-x="411" 
d="M199 -2l-8 -5q0 67 -6 138q-6 67 -12 130q-6 58 -12 103q-2 12 -3.5 25t-3 20.5t-1.5 11.5q12 27 23 57q12 34 12 75q-19 0 -32 -4q-20 -6 -30 -10t-28 -10q-12 -4 -27 -4q-23 0 -33 12q-10 11 -10 26t10 26q10 12 33 12q12 0 27 -5q24 -8 29 -10q10 -4 30 -10
q17 -5 32 -5q0 14 -5 36q-6 26 -10 39q-2 5 -10 36q-5 18 -5 29q0 19 11 32q10 12 29 12q17 0 29 -12t12 -31q0 -11 -5 -29q-8 -31 -10 -36q-4 -13 -10 -39q-5 -22 -5 -36q14 0 31 5q10 3 30 11t29 11q15 5 27 5q21 0 32 -12q11 -13 11 -26q0 -15 -10 -26q-10 -12 -31 -12
q-12 0 -27 5q-18 6 -28 10t-30 10q-17 5 -31 5q0 -40 12 -75q11 -30 23 -57q-4 -32 -7 -57q-6 -45 -12 -103q-5 -47 -10 -130q-4 -63 -4 -138h-16z" />
    <glyph glyph-name="daggerdbl" unicode="&#x2021;" horiz-adv-x="412" 
d="M206 -8l-21 -11q-19 0 -29 12q-11 13 -11 32q0 11 5 29q1 2 11 36q8 26 11 39q5 22 5 36q-14 0 -31 -5q-20 -6 -30 -10q-5 -2 -29 -10q-15 -5 -27 -5q-20 0 -31 12q-10 11 -10 26q0 13 11 26q10 12 32 12q15 0 27 -4q24 -8 29 -10q10 -4 30 -10q13 -4 32 -4q0 42 -4 69
q-4 30 -12 51q-8 23 -16 36q-10 17 -18 26q8 9 18 26q8 13 16 36q8 21 12 51q5 33 5 70q-19 0 -32 -4q-20 -6 -30 -10t-28 -10q-12 -4 -27 -4q-20 0 -31 12q-10 11 -10 26q0 13 11 26q11 12 32 12q12 0 27 -5q24 -8 29 -10q10 -4 30 -10q17 -5 32 -5q0 14 -5 36
q-6 26 -10 39q-2 5 -10 36q-5 18 -5 29q0 19 11 32q11 12 29 12q17 0 29 -12t12 -31q0 -11 -5 -29q-8 -31 -10 -36q-4 -13 -10 -39q-5 -22 -5 -36q15 0 32 5q10 3 30 11t29 11q15 5 27 5q21 0 32 -12q11 -13 11 -26q0 -15 -10 -26q-10 -12 -31 -12q-12 0 -27 5q-18 6 -28 10
t-30 10q-17 5 -31 5q0 -37 5 -70q4 -30 12 -51q8 -23 16 -36q10 -17 18 -26q-8 -9 -18 -26q-8 -13 -16 -36q-7 -21 -12 -50q-4 -25 -4 -69q15 0 32 5q20 6 30 10q5 2 29 10q15 5 27 5q22 0 32 -12q11 -13 11 -26q0 -15 -10 -26q-11 -12 -31 -12q-12 0 -27 5q-3 1 -28 11
q-20 8 -30 11q-17 5 -31 5q0 -14 5 -36q3 -13 11 -39q10 -34 11 -36q5 -18 5 -29q0 -19 -12 -31t-28 -12z" />
    <glyph glyph-name="bullet" unicode="&#x2022;" horiz-adv-x="372" 
d="M186 407l-2 -2q26 0 47 -9q23 -10 38 -25q17 -17 26 -39t9 -48t-9 -48t-26 -39q-15 -15 -38 -25q-21 -9 -46 -9t-48 9q-22 9 -39 26q-16 16 -25 39t-9 48t9 48q9 22 26 39t39 26t48 9z" />
    <glyph glyph-name="ellipsis" unicode="&#x2026;" horiz-adv-x="739" 
d="M612 -10q-23 0 -38 15t-15 38t15 38t38 15t38 -15t15 -38t-15 -38t-38 -15zM370 -11q-23 0 -38 15t-15 38t15 38t38 15t38 -15t15 -38t-15 -38t-38 -15zM129 -11q-23 0 -38 15t-15 38t15 38t38 15t38 -15t15 -38t-15 -38t-38 -15z" />
    <glyph glyph-name="perthousand" unicode="&#x2030;" horiz-adv-x="1217" 
d="M209 379l-4 -1q-31 0 -61 13q-31 13 -57 38q-25 24 -42 59q-16 33 -16 78q0 42 17 78q17 35 42 59q25 23 57 37q30 13 62 13t62 -13q32 -14 57 -37q25 -24 42 -59q17 -36 17 -78q0 -45 -16 -78q-17 -35 -42 -59q-25 -23 -57 -37q-30 -13 -61 -13zM120 11l535 743l21 -14
l-536 -742zM205 394l-4 -1q19 0 38 9q20 9 35 29q16 20 26 53q10 31 10 83t-10 83q-11 35 -25 53q-15 19 -35 27q-21 8 -37 8t-37 -8q-19 -7 -34 -27q-14 -18 -25 -53q-10 -31 -10 -83t10 -83q10 -33 26 -53q14 -18 35 -28q20 -9 37 -9zM587 -8l-4 -1q-31 0 -61 13
q-31 13 -57 38q-25 24 -42 59q-16 33 -16 78q0 42 17 78q17 35 42 59q25 23 57 37q30 13 62 13t62 -13q32 -14 58 -37t43 -59t17 -78q0 -45 -16 -78q-17 -36 -43 -59t-58 -37q-30 -13 -61 -13zM994 -9l-4 -1q-31 0 -61 13q-31 13 -57 38q-25 24 -42 59q-16 33 -16 78
q0 42 17 78q17 35 42 59q25 23 57 37q30 13 62 13t62 -13q32 -14 58 -37t43 -59t17 -78q0 -45 -16 -78q-17 -36 -43 -59t-58 -37q-30 -13 -61 -13zM579 6l-3 -1q18 0 38 9q19 9 36 29q16 19 27 53q10 31 10 83t-10 83q-11 34 -27 53t-36 27q-21 8 -37 8t-37 -8
q-19 -7 -34 -27q-14 -18 -25 -53q-10 -31 -10 -83t10 -83q10 -33 26 -53q14 -18 35 -28q20 -9 37 -9zM987 5l-3 -1q18 0 38 9q19 9 36 29q16 19 27 53q10 31 10 83t-10 83q-11 34 -27 53q-16 20 -36 27q-21 8 -37 8t-37 -8q-19 -7 -34 -27q-14 -18 -25 -53q-10 -31 -10 -83
t10 -83q10 -33 26 -53q14 -18 35 -28q20 -9 37 -9z" />
    <glyph glyph-name="uni2032" unicode="&#x2032;" horiz-adv-x="150" 
d="M36 579h-4q8 32 11 54q3 25 3 62q0 66 41 66q18 0 27 -10q9 -11 9 -24q0 -17 -7 -31q-9 -19 -19 -32q-18 -28 -28 -43q-14 -21 -22 -45z" />
    <glyph glyph-name="uni2033" unicode="&#x2033;" horiz-adv-x="258" 
d="M36 579h-4q8 32 11 54q3 25 3 62q0 66 41 66q18 0 27 -10q9 -11 9 -24q0 -17 -7 -31q-9 -19 -19 -32q-18 -28 -28 -43q-14 -21 -22 -45zM140 579h-4q8 32 11 54q3 25 3 62q0 66 41 66q18 0 27 -10q9 -11 9 -24q0 -17 -7 -31q-9 -19 -19 -32q-18 -28 -28 -43
q-14 -21 -22 -45z" />
    <glyph glyph-name="guilsinglleft" unicode="&#x2039;" horiz-adv-x="255" 
d="M55 222v16l141 155l11 -7l-82 -156l83 -156l-11 -7z" />
    <glyph glyph-name="guilsinglright" unicode="&#x203a;" horiz-adv-x="255" 
d="M46 74l83 156l-82 156l11 7l140 -155v-16l-141 -155z" />
    <glyph glyph-name="fraction" unicode="&#x2044;" horiz-adv-x="503" 
d="M50 381h403v-12h-403v12z" />
    <glyph glyph-name="Euro" unicode="&#x20ac;" horiz-adv-x="738" 
d="M40 334l63 -6q-1 7 -1 21v21q0 26 3 50h-64v18h66q11 79 45 137q34 59 81 99t102 60q57 20 111 20q56 0 99 -12q44 -12 74 -30q29 -17 46 -39q16 -20 16 -38q0 -14 -9 -23t-26 -9q-38 0 -52 48q-4 14 -12 31q-8 16 -24 30q-17 14 -43 21q-29 8 -70 8q-47 0 -91 -18
q-43 -18 -76 -55q-34 -39 -56 -94q-22 -56 -28 -133h263v-18h-264q-1 -5 -1 -17v-18v-29q0 -9 2 -27h263v-18h-261q7 -77 32 -136q24 -56 59 -93t75 -53q42 -17 84 -17q48 0 84 12q34 11 63 29q27 17 47 38q24 26 35 39l12 -11q-12 -16 -33 -39q-21 -22 -52 -43
q-30 -20 -74 -34t-97 -14q-68 0 -125 26q-56 26 -98 71q-43 46 -68 104q-26 60 -35 123h-65v18z" />
    </font>
</defs>
</svg>
