<?xml version="1.0" standalone="no"?>
<!DOCTYPE svg PUBLIC "-//W3C//DTD SVG 1.1//EN" "http://www.w3.org/Graphics/SVG/1.1/DTD/svg11.dtd" >
<svg xmlns="http://www.w3.org/2000/svg" xmlns:xlink="http://www.w3.org/1999/xlink" version="1.1">
<metadata>
Created by FontForge 20170731 at Tue Aug 28 16:14:12 2018
 By Aleksey,,,
Copyright (c) 2018 Commercial Type, Inc.. All rights reserved.
</metadata>
<defs>
<font id="SchnyderWideLLight" horiz-adv-x="228" >
  <font-face 
    font-family="Schnyder Wide L Light"
    font-weight="300"
    font-stretch="normal"
    units-per-em="1000"
    panose-1="0 0 0 0 0 0 0 0 0 0"
    ascent="800"
    descent="-200"
    x-height="465"
    cap-height="749"
    bbox="-101 -296 1160 1045"
    underline-thickness="16"
    underline-position="-128"
    unicode-range="U+000D-FB04"
  />
<missing-glyph horiz-adv-x="227" 
 />
    <glyph glyph-name="f_f" unicode="ff" horiz-adv-x="486" 
d="M262 7l-7 -4q17 5 26 12q10 8 14 24q5 17 6 48q1 21 1 84v279h-161v-279q0 -63 1 -84q1 -30 8 -48q6 -16 20 -24t37 -12v-7h-187v7q17 5 26 12q10 8 14 24q4 17 6 48q1 21 1 84v279h-49v8q32 5 41 23t9 62v4q0 53 13 91t36 64t53 38t65 12q39 0 67 -12t36 -33
q19 27 47 40q27 12 55 12q35 0 59 -12t24 -34q0 -12 -7 -20q-8 -9 -21 -9q-16 0 -24 8q-7 7 -10 21q-5 23 -9 30q-5 8 -21 8q-14 0 -23 -6t-15 -20q-6 -13 -9 -38q-3 -24 -3 -61v-162h104v-10h-104v-279q0 -42 2 -84q1 -30 8 -48q6 -16 20 -24q13 -7 38 -12v-7h-187v7z
M301 462l-1 110q0 52 12 88h-1q-29 0 -33 30q-5 29 -13 39q-9 11 -37 11q-20 0 -36 -6t-28 -21t-18 -42t-6 -69v-140h161z" />
    <glyph glyph-name="f_i" unicode="fi" horiz-adv-x="461" 
d="M25 7l-5 -1q17 5 26 12q10 8 14 24t6 48q1 21 1 84v279h-49v8q14 3 27 8q10 4 15 17q5 12 6 31q2 26 2 51v12q0 52 12 86q13 36 31 56q20 21 43 30q24 9 49 9q33 0 58 -12t25 -34q0 -12 -7 -20q-7 -9 -21 -9q-16 0 -24 8q-7 7 -10 21q-4 23 -9 30q-4 7 -21 7
q-14 0 -23 -6t-15 -20q-6 -13 -9 -38q-3 -24 -3 -61v-162h116l121 10v-299q0 -63 1 -84q2 -32 6 -48t15 -24t30 -12v-7h-176v7q17 4 28 12t15 24t6 48q1 21 1 84v144q0 58 -1 76q-2 27 -6 39t-14 15q-7 2 -27 4h-113v-279q0 -63 1 -84q1 -30 8 -48q6 -16 20 -24t37 -12v-7
h-187v7zM339 560h-2q-20 0 -33 13t-13 33t13 32q14 12 33 12t32 -12q14 -12 14 -32t-13 -33t-31 -13z" />
    <glyph glyph-name="f_l" unicode="fl" horiz-adv-x="461" 
d="M25 7l-5 1q17 5 26 12q10 8 14 24t6 48q1 21 1 84v279h-49v8q14 3 27 8q11 5 15 15t6 29q2 24 2 47v11q0 53 13 86q14 36 34 56q21 21 48 30t54 9q41 0 66 -15q26 -15 26 -39q0 -9 -4 -16t-21 -7q-15 0 -21 8q-5 7 -10 24q-6 23 -12 30q-6 8 -26 8q-33 0 -51 -26
q-18 -25 -18 -98v-159h99v-10h-99v-279q0 -63 1 -84q1 -30 8 -48q6 -16 20 -24t37 -12v-7h-187v7zM254 8l-3 -1q17 4 28 12q11 7 15 24t6 48q1 21 1 84v372v91q0 31 -5 49q-5 17 -15 20q-11 3 -30 3v8l127 56v-598q0 -63 1 -84q1 -32 6 -48t15 -24t30 -12v-7h-176v7z" />
    <glyph glyph-name="f_f_i" unicode="ffi" horiz-adv-x="698" 
d="M25 7l-10 -3q17 5 26 12q10 8 14 24q5 16 6 48q1 21 1 84v279h-49v8q32 5 41 23t9 62v4q0 53 13 91t36 64t53 38t65 12q38 0 67 -12t36 -33q19 27 47 40q27 12 55 12q35 0 59 -12t24 -34q0 -12 -7 -20q-7 -9 -21 -9q-16 0 -24 8q-7 7 -10 21q-4 22 -9 30t-21 8
q-14 0 -23 -6t-15 -20q-6 -13 -9 -38q-3 -24 -3 -61v-162h116l121 10v-299q0 -63 1 -84q2 -32 6 -48t15 -24t30 -12v-7h-176v7q17 4 28 12t15 24t6 48q1 21 1 84v144v76q0 26 -5 39q-4 12 -14 15q-7 2 -27 4h-114v-279q0 -42 2 -84q1 -30 8 -48q6 -16 20 -24q13 -7 38 -12
v-7h-187v7q17 5 26 12q10 8 14 24q4 17 6 48q1 21 1 84v279h-161v-279q0 -63 1 -84q1 -30 8 -48q6 -16 20 -24t37 -12v-7h-187v7zM298 463l-1 110q0 52 12 88h-1q-28 0 -33 30q-5 29 -13 39q-9 11 -37 11q-19 0 -36 -6q-16 -6 -28 -21t-18 -42t-6 -69v-140h161zM569 554
q-20 0 -33 13t-13 33t13 32q14 12 33 12t33 -12q13 -12 13 -32t-13 -33t-33 -13z" />
    <glyph glyph-name="f_f_l" unicode="ffl" horiz-adv-x="698" 
d="M262 7l-8 -2q17 5 26 12q10 8 14 24q4 17 6 48q1 21 1 84v279h-161v-279q0 -63 1 -84q1 -30 8 -48q6 -16 20 -24t37 -12v-7h-187v7q17 5 26 12q10 8 14 24q5 17 6 48q1 21 1 84v279h-49v8q14 3 27 8q10 4 15 14q5 9 6 24q2 20 2 38v3q0 53 13 91t36 64t53 38t65 12
q43 0 70 -13q28 -13 36 -36q22 28 52 40t62 12q40 0 65 -15q26 -15 26 -39q0 -9 -4 -16t-21 -7q-16 0 -22 8q-5 7 -10 24q-4 22 -11 30q-6 8 -27 8q-33 0 -51 -26t-18 -98v-160h99v-10h-99v-279q0 -42 2 -84q1 -30 8 -48q6 -16 20 -24q13 -7 38 -12v-7h-187v7zM300 464
l-2 106q0 31 4 51q4 23 12 42h-2q-28 0 -33 29q-1 12 -5 23q-3 9 -9 15t-15 9t-23 3q-19 0 -36 -6q-16 -6 -28 -21t-18 -42t-6 -69v-140h161zM485 2l-3 -1q17 4 28 12q10 7 15 24t6 48q1 21 1 84v372v91q0 31 -5 49q-5 17 -15 20t-30 3v8l127 56v-598q0 -63 1 -84
q2 -32 6 -48t15 -24t30 -12v-7h-176v7z" />
    <glyph glyph-name="f_b" unicode="fb" horiz-adv-x="814" 
d="M25 7h-5q17 5 26 12q10 8 14 24q4 17 6 48q1 21 1 84v279h-49v8q14 3 27 8q11 4 15 15q4 10 6 29q2 24 2 47v12q0 54 13 87q14 36 34 56q21 21 48 30t54 9q41 0 66 -15q26 -15 26 -39q0 -9 -4 -16t-21 -7q-15 0 -21 8q-5 7 -10 24q-6 22 -12 30t-26 8q-33 0 -51 -26
t-18 -98v-160h99v-10h-99v-279q0 -63 1 -84q1 -30 8 -48q6 -16 20 -24t37 -12v-7h-187v7zM520 -11l-3 -6q-38 0 -70 8q-28 7 -53 17q-13 5 -39 17q-18 8 -28 8q-11 0 -15 -6t-6 -11h-7v548v79q0 27 -5 42q-5 14 -14 17t-27 3v9l122 58v-416l28 31q79 84 166 84q42 0 78 -16
q38 -17 66 -46q30 -31 47 -73q18 -44 18 -99q0 -59 -21 -105t-57 -78t-82 -48q-48 -17 -98 -17zM398 19l-1 -4q18 -11 51 -19q29 -7 69 -7q31 0 63 9t57 34q26 26 42 70q17 46 17 115q0 80 -13 125q-14 48 -34 71q-21 24 -47 32q-24 7 -51 7q-73 0 -150 -81l-28 -31v-266
q0 -21 4 -32q5 -13 21 -23z" />
    <glyph glyph-name="f_f_b" unicode="ffb" horiz-adv-x="1050" 
d="M262 7l-8 -2q17 5 26 12q10 8 14 24q4 17 6 48q1 21 1 84v279h-161v-279q0 -63 1 -84q1 -30 8 -48q6 -16 20 -24t37 -12v-7h-187v7q17 5 26 12q10 8 14 24q5 17 6 48q1 21 1 84v279h-49v8q14 3 27 8q10 4 15 14q5 9 6 24q2 20 2 38v3q0 53 13 91t36 64t53 38t65 12
q43 0 70 -13q28 -13 36 -36q22 28 52 40t62 12q40 0 65 -15q26 -15 26 -39q0 -9 -4 -16t-21 -7q-16 0 -22 8q-5 7 -10 24q-4 22 -11 30q-6 8 -27 8q-33 0 -51 -26t-18 -98v-160h99v-10h-99v-279q0 -42 2 -84q1 -30 8 -48q6 -16 20 -24q13 -7 38 -12v-7h-187v7zM300 464
l-2 106q0 31 4 51q4 23 12 42h-2q-28 0 -33 29q-1 12 -5 23q-3 9 -9 15t-15 9t-23 3q-19 0 -36 -6q-16 -6 -28 -21t-18 -42t-6 -69v-140h161zM751 -16l-3 -6q-38 0 -70 8q-28 7 -53 17q-13 5 -39 17q-18 8 -28 8t-15 -6q-4 -6 -6 -11h-7v548v79q0 27 -5 42q-5 14 -14 17
t-27 3v9l122 58v-416l28 31q80 84 166 84q42 0 78 -16q38 -17 66 -46q30 -31 47 -73q18 -43 18 -99q0 -58 -21 -105t-57 -78q-36 -32 -82 -48q-48 -17 -98 -17zM629 14l-1 -4q18 -11 51 -19q29 -7 69 -7q32 0 63 9q32 9 57 34q26 26 42 70q17 46 17 115q0 80 -13 125
q-14 48 -34 71q-21 24 -47 32q-24 7 -51 7q-74 0 -150 -81l-28 -31v-266q0 -21 4 -32q5 -13 21 -23z" />
    <glyph glyph-name="f_f_h" unicode="ffh" horiz-adv-x="1026" 
d="M262 7l-8 -2q17 5 26 12q10 8 14 24q4 17 6 48q1 21 1 84v279h-161v-279q0 -63 1 -84q1 -30 8 -48q6 -16 20 -24t37 -12v-7h-187v7q17 5 26 12q10 8 14 24q5 17 6 48q1 21 1 84v279h-49v8q14 3 27 8q10 4 15 14q5 9 6 24q2 20 2 38v3q0 53 13 91t36 64t53 38t65 12
q43 0 70 -13q28 -13 36 -36q22 28 52 40t62 12q40 0 65 -15q26 -15 26 -39q0 -9 -4 -16t-21 -7q-16 0 -22 8q-5 7 -10 24q-4 22 -11 30q-6 8 -27 8q-33 0 -51 -26t-18 -98v-160h99v-10h-99v-279q0 -42 2 -84q1 -30 8 -48q6 -16 20 -24q13 -7 38 -12v-7h-187v7zM300 464
l-2 106q0 31 4 51q4 23 12 42h-2q-28 0 -33 29q-1 12 -5 23q-3 9 -9 15t-15 9t-23 3q-19 0 -36 -6q-16 -6 -28 -21t-18 -42t-6 -69v-140h161zM488 2l-3 -1q17 5 26 12q10 8 14 24q5 17 6 48q1 21 1 84v392v79q0 30 -4 42q-5 14 -13 17q-7 2 -26 4v8l120 57v-420l45 42
q43 37 79 56q39 21 81 21q70 0 101 -31q32 -32 32 -99v-166v-84q0 -30 5 -48q4 -16 14 -24q9 -7 26 -12v-7h-173v7q19 5 29 12t15 24t6 48q1 21 1 84v183q0 54 -21 75t-57 21q-31 0 -63 -17q-31 -17 -75 -54l-45 -41v-168q0 -63 1 -84q2 -32 6 -48t15 -24q10 -7 29 -12v-7
h-172v7z" />
    <glyph glyph-name="f_f_j" unicode="ffj" horiz-adv-x="691" 
d="M262 7l-1 -5q17 5 26 12q10 8 14 24q5 16 6 48q1 21 1 84v279h-161v-279q0 -63 1 -84q1 -30 8 -48q6 -16 20 -24t37 -12v-7h-187v7q17 5 26 12q10 8 14 24t6 48q1 21 1 84v279h-49v8q14 3 27 8q10 4 15 14q4 9 6 24q2 20 2 38v3q0 53 13 91t36 64t53 38t65 12
q38 0 65 -12q28 -12 38 -31q20 26 45 38t53 12q35 0 59 -12t24 -34q0 -12 -7 -20q-8 -9 -21 -9q-16 0 -24 8q-7 7 -10 21q-5 22 -9 30q-5 8 -21 8q-14 0 -23 -6t-15 -20q-6 -13 -9 -38q-3 -24 -3 -61v-162h116l121 10v-423q0 -33 -10 -57q-11 -26 -25 -46q-15 -21 -33 -36
q-14 -12 -33 -25q-25 -16 -42 -21q-18 -5 -33 -5q-13 0 -26 8q-12 8 -12 24q0 14 9 21q10 8 22 8t20 -5q7 -5 14 -11q8 -8 12 -11q7 -5 14 -5q5 0 9 3q1 1 3.5 2.5t3.5 2.5q5 3 9 10q5 8 9 22q4 12 7 39q3 24 3 63v291v76q0 26 -5 39q-4 12 -14 15q-7 2 -27 4h-114v-279
q0 -42 2 -84q1 -30 8 -48q6 -16 20 -24q13 -7 38 -12v-7h-187v7zM307 461v111q0 52 12 88q-28 0 -33 29q-1 12 -5 23q-3 9 -9 15t-15 9t-23 3q-20 0 -36 -6t-28 -21t-18 -42t-6 -69v-140h161zM580 553q-20 0 -33 13t-13 33t13 32t33 12t33 -12t13 -32t-13 -33t-33 -13z" />
    <glyph glyph-name="f_f_k" unicode="ffk" horiz-adv-x="965" 
d="M262 7l-8 -2q17 5 26 12q10 8 14 24q4 17 6 48q1 21 1 84v279h-161v-279q0 -63 1 -84q1 -30 8 -48q6 -16 20 -24t37 -12v-7h-187v7q17 5 26 12q10 8 14 24q5 17 6 48q1 21 1 84v279h-49v8q14 3 27 8q10 4 15 14q5 9 6 24q2 20 2 38v3q0 53 13 91t36 64t53 38t65 12
q43 0 70 -13q28 -13 36 -36q22 28 52 40t62 12q40 0 65 -15q26 -15 26 -39q0 -9 -4 -16t-21 -7q-16 0 -22 8q-5 7 -10 24q-4 22 -11 30q-6 8 -27 8q-33 0 -51 -26t-18 -98v-160h99v-10h-99v-279q0 -42 2 -84q1 -30 8 -48q6 -16 20 -24q13 -7 38 -12v-7h-187v7zM300 464
l-2 106q0 31 4 51q4 23 12 42h-2q-28 0 -33 29q-1 12 -5 23q-3 9 -9 15t-15 9t-23 3q-19 0 -36 -6q-16 -6 -28 -21t-18 -42t-6 -69v-140h161zM488 2l-1 2q17 5 26 12q10 8 14 24q5 16 6 48q1 21 1 84v400v74q0 28 -4 40q-4 13 -13 16q-7 2 -25 4v9l118 57v-528l207 154
q16 11 22 21t5 17q-2 8 -9 12t-21 6v7h126v-7q-26 -8 -51 -21t-63 -42l-159 -117l233 -228q27 -27 39 -36q11 -8 20 -10v-7h-175v7q25 5 29 16q5 12 -22 40l-182 179v-65q0 -63 1 -84q2 -32 6 -48t15 -24q10 -7 29 -12v-7h-172v7z" />
    <glyph glyph-name="f_h" unicode="fh" horiz-adv-x="790" 
d="M25 7h-5q17 5 26 12q10 8 14 24q4 17 6 48q1 21 1 84v279h-49v8q14 3 27 8q11 4 15 15q4 10 6 29q2 24 2 47v12q0 54 13 87q14 36 34 56q21 21 48 30t54 9q41 0 66 -15q26 -15 26 -39q0 -9 -4 -16t-21 -7q-15 0 -21 8q-5 7 -10 24q-6 22 -12 30t-26 8q-33 0 -51 -26
t-18 -98v-160h99v-10h-99v-279q0 -63 1 -84q1 -30 8 -48q6 -16 20 -24t37 -12v-7h-187v7zM257 7l-3 -1q17 5 26 12q10 8 14 24t6 48q1 21 1 84v392v79q0 30 -4 42q-5 14 -13 17q-7 2 -26 4v8l120 57v-420l45 42q43 37 79 56q39 21 81 21q70 0 101 -31q32 -32 32 -99v-166
v-84q0 -30 5 -48q4 -16 14 -24q9 -7 26 -12v-7h-173v7q19 5 29 12q11 8 15 24t6 48q1 21 1 84v183q0 54 -21 75t-57 21q-31 0 -63 -17q-32 -16 -75 -54l-45 -41v-168q0 -63 1 -84q1 -31 6 -48t15 -24t29 -12v-7h-172v7z" />
    <glyph glyph-name="f_j" unicode="fj" horiz-adv-x="455" 
d="M25 7v-5q17 5 26 12q10 8 14 24q5 16 6 48q1 21 1 84v279h-49v8q14 3 27 8q10 4 15 17q5 12 6 31q2 26 2 51v12q0 52 12 86q13 36 31 56q20 21 43 30q24 9 49 9q32 0 58 -12q25 -12 25 -34q0 -12 -7 -20q-8 -9 -21 -9q-16 0 -24 8q-7 7 -10 21q-5 23 -9 30t-21 7
q-14 0 -23 -6t-15 -20q-6 -13 -9 -38q-3 -24 -3 -61v-162h116l121 10v-423q0 -33 -10 -57q-11 -26 -25 -46q-15 -21 -33 -36q-14 -12 -33 -25q-24 -17 -40 -21q-18 -5 -33 -5q-13 0 -26 8q-12 8 -12 24q0 14 9 21q10 8 22 8q10 0 18 -5q8 -4 14 -11q8 -8 12 -11q7 -5 14 -5
q5 0 9 3q1 1 3.5 2.5t3.5 2.5q5 3 9 10q5 8 9 22q4 12 7 39q3 24 3 63v291q0 58 -1 76q-2 27 -6 39t-14 15q-7 2 -27 4h-113v-279q0 -63 1 -84q1 -30 8 -48q6 -16 20 -24t37 -12v-7h-187v7zM345 556q-20 0 -33 13t-13 33t13 32q14 12 33 12t33 -12q13 -12 13 -32t-13 -33
t-33 -13z" />
    <glyph glyph-name="f_k" unicode="fk" horiz-adv-x="729" 
d="M25 7h-5q17 5 26 12q10 8 14 24q4 17 6 48q1 21 1 84v279h-49v8q14 3 27 8q11 4 15 15q4 10 6 29q2 24 2 47v12q0 54 13 87q14 36 34 56q21 21 48 30t54 9q41 0 66 -15q26 -15 26 -39q0 -9 -4 -16t-21 -7q-15 0 -21 8q-5 7 -10 24q-6 22 -12 30t-26 8q-33 0 -51 -26
t-18 -98v-160h99v-10h-99v-279q0 -63 1 -84q1 -30 8 -48q6 -16 20 -24t37 -12v-7h-187v7zM257 7l-1 2q17 5 26 12q10 8 14 24q4 17 6 48q1 21 1 84v400v74q0 28 -4 40q-4 13 -13 16q-7 2 -25 4v9l118 57v-528l207 154q16 11 22 21t5 17t-9 12t-21 6v7h126v-7q-25 -7 -51 -21
t-63 -42l-159 -117l233 -228q27 -27 39 -36q11 -8 20 -10v-7h-175v7q25 5 29 16q5 12 -22 40l-182 179v-65q0 -63 1 -84q1 -31 6 -48t15 -24t29 -12v-7h-172v7z" />
    <glyph glyph-name="g_j" unicode="gj" horiz-adv-x="705" 
d="M594 561h-2q-18 0 -31 13t-13 33t14 32t32 12q20 0 33 -12t13 -32t-13 -33t-33 -13zM463 -139l-6 -4q-29 0 -29 29q0 10 6 21q6 10 20 10q10 0 17 -5q8 -6 12 -10t12 -10q7 -5 13 -5q8 0 16 7q4 4 9 12q4 7 9 23q4 12 7 39q3 24 3 60v232v81q0 30 -4 42q-5 14 -13 17
q-11 4 -26 5v8l121 61v-423q0 -33 -10 -57q-11 -27 -25 -45q-16 -21 -33 -35q-16 -13 -31 -25q-20 -15 -38 -22q-15 -6 -30 -6zM221 157l-10 -5q-53 0 -102 23l-13 -9q-13 -9 -25 -21q-10 -10 -10 -24q0 -15 14 -21q13 -6 35 -9l206 -26q26 -3 48 -9q21 -6 39 -17
q15 -10 25 -29q9 -18 9 -45q0 -29 -15 -54t-45 -45q-32 -21 -73 -32q-44 -12 -99 -12q-36 0 -72 6q-38 6 -66 19q-29 13 -48 32q-18 18 -18 44q0 20 10 36t27 28q17 13 37 21q5 2 41 16q-38 4 -57 24q-20 20 -20 45q0 29 17 48q16 17 35 30l15 10q-34 19 -57 51t-23 75
q0 36 17 67q16 29 44 51t61 32q36 11 69 11q26 0 53 -6q29 -6 50 -19q25 20 54 32q30 12 50 12q17 0 24 -7t7 -21q0 -12 -7 -19t-18 -7q-8 0 -15 3q-5 2 -15 8t-16 8q-9 3 -19 3q-20 0 -36 -13q35 -20 59 -53t24 -78q0 -37 -17 -66q-16 -28 -44 -48q-27 -20 -61 -30
q-33 -10 -69 -10zM211 161v-1q25 0 47 8t38 24t25 44q9 27 9 68q0 40 -9 69q-10 30 -25 47q-17 18 -37 27q-21 9 -46 9q-51 0 -84 -36t-33 -117q0 -40 9 -67q9 -28 24 -44t36 -24q20 -7 46 -7zM54 -74l-2 -2q0 -25 12 -43q12 -17 32 -30q19 -12 47 -18q27 -6 59 -6
q50 0 89 11q36 10 63 26q25 15 37 33t12 33q0 18 -9 30q-8 11 -23 19q-12 7 -32 10q-25 4 -34 5l-177 23q-39 -14 -56 -34q-18 -21 -18 -57z" />
    <glyph glyph-name=".notdef" horiz-adv-x="227" 
 />
    <glyph glyph-name=".null" horiz-adv-x="0" 
 />
    <glyph glyph-name="nonmarkingreturn" unicode="&#xd;" horiz-adv-x="227" 
 />
    <glyph glyph-name="NULL" horiz-adv-x="0" 
 />
    <glyph glyph-name="NULL" horiz-adv-x="0" 
 />
    <glyph glyph-name="space" unicode=" " horiz-adv-x="227" 
 />
    <glyph glyph-name="exclam" unicode="!" 
d="M109 191v-3q-3 113 -10 188q-8 86 -15 149q-5 41 -14 108q-6 44 -6 64q0 28 14 44q14 15 36 15t36 -15q14 -16 14 -43q0 -20 -6 -64q-3 -20 -13 -108q-8 -66 -15 -148q-7 -76 -10 -187h-11zM115 -13l-1 -2q-18 0 -34 14q-15 13 -15 35t15 35q16 14 35 14q21 0 35 -14
t14 -35q0 -20 -14 -34q-13 -13 -35 -13z" />
    <glyph glyph-name="quotedbl" unicode="&#x22;" horiz-adv-x="256" 
d="M173 572l-3 -2q-1 9 -8 40q-3 14 -9 40q-3 13 -9 37q-4 16 -4 32q0 20 9 32t26 12t26 -12t9 -31q0 -13 -3 -31q-1 -8 -8 -37q-6 -26 -9 -40q-7 -31 -8 -40h-9zM71 570l-1 -2q-1 9 -8 40q-3 14 -9 40q-3 13 -9 37q-4 16 -4 32q0 20 9 32t26 12t26 -12t9 -31q0 -15 -4 -31
q-6 -24 -9 -37q-6 -26 -9 -40q-7 -31 -8 -40h-9z" />
    <glyph glyph-name="numbersign" unicode="#" horiz-adv-x="540" 
d="M22 280h138l45 240h-135v12h137l41 218h14l-41 -218h158l41 218h13l-41 -218h135v-12h-137l-45 -240h135v-12h-138l-50 -267h-14l51 267h-158l-50 -267h-14l50 267h-135v12zM331 280l45 240h-157l-45 -240h157z" />
    <glyph glyph-name="dollar" unicode="$" horiz-adv-x="553" 
d="M228 843l-5 -89q10 2 15 2h15h25q16 0 23 -1v88h12v-89q42 -4 77 -17q32 -12 56 -26q21 -12 34 -29q12 -15 12 -26q0 -14 -7 -22q-7 -9 -21 -9q-18 0 -27 11q-10 12 -17 27q-4 9 -9 21t-15 24t-30 21q-21 10 -51 14v-309q45 -14 85 -33q39 -18 67 -43q29 -26 44 -60
t15 -82q0 -38 -15 -76q-15 -37 -42 -67t-66 -51q-38 -20 -87 -28v-100h-12v98q-5 -1 -15 -1h-15q-25 0 -49 3v-100h-13v101q-49 7 -88 24q-38 16 -66 38q-27 21 -41 44t-14 42q0 14 7 22q8 9 21 9q17 0 26 -10q10 -11 14 -27q10 -28 16 -42q9 -21 24 -39q14 -17 39 -31
q23 -13 63 -19v365q-97 33 -142 78t-45 115q0 40 15 71q16 33 40 56q27 25 60 41t74 22v89h13zM466 170v1q0 37 -9 63t-27 44q-19 18 -47 32q-29 14 -69 27v-333q39 4 69 20q29 15 47 38q18 22 27 51t9 57zM71 612v-2q0 -30 8 -54q7 -22 24 -37t43 -27q28 -13 64 -24v277
q-65 -9 -102 -43t-37 -90zM272 0h15q10 0 15 1v339l-49 15l-30 9v-361q23 -3 49 -3zM302 437l-4 306q-14 2 -21 2h-24h-15q-10 0 -15 -1v-282l32 -10z" />
    <glyph glyph-name="percent" unicode="%" horiz-adv-x="783" 
d="M201 379l-4 -1q-31 0 -61 13q-31 13 -57 38q-25 24 -42 59q-16 33 -16 78q0 42 17 78q17 35 42 59q25 23 57 37q30 13 62 13t62 -13q32 -14 57 -37q25 -24 42 -59q17 -36 17 -78q0 -45 -16 -78q-17 -35 -42 -59q-25 -23 -57 -37q-30 -13 -61 -13zM116 6l528 747l13 -9
l-528 -746zM197 387v-2q19 0 39 9t36 30t27 56q11 36 11 84t-11 84q-11 35 -27 56t-36 30t-39 9q-18 0 -39 -9q-20 -9 -37 -30t-27 -55q-11 -36 -11 -84t11 -84q10 -34 27 -55t37 -30q21 -9 39 -9zM578 -9l-4 -1q-31 0 -61 13q-31 13 -57 38q-25 24 -42 59q-16 33 -16 78
q0 42 17 78q17 35 42 59q25 23 57 37q30 13 62 13t62 -13q32 -14 58 -37t43 -59t17 -78q0 -45 -16 -78q-17 -36 -43 -59t-58 -37q-30 -13 -61 -13zM574 -1l-1 -2q19 0 40 9q22 9 38 30t27 56q11 36 11 84t-11 84q-11 35 -27 56q-17 21 -37 30q-21 9 -40 9q-18 0 -39 -9
q-20 -9 -37 -30t-27 -55q-11 -36 -11 -84t11 -84q10 -34 27 -55t37 -30q21 -9 39 -9z" />
    <glyph glyph-name="ampersand" unicode="&#x26;" horiz-adv-x="845" 
d="M182 596l-5 6q0 34 14 65q13 29 36 52t53 35t65 12t64 -10q30 -11 52 -28t34 -42q12 -24 12 -51q0 -35 -16 -63t-40 -49q-21 -19 -53 -37q-30 -17 -52 -27l20 -19l202 -197l24 -23l7 12l54 102q18 34 27 57q9 24 8 38q-2 16 -13 23q-12 8 -36 12v7h155v-7q-15 -4 -34 -11
q-15 -6 -30 -21q-13 -13 -31 -39q-16 -23 -37 -64l-53 -101l-10 -18q68 -66 87 -85q28 -28 62 -60q21 -20 44 -37q18 -14 36 -18v-7h-126l-143 140q-55 -79 -120 -115t-147 -36q-60 0 -109 15t-85 42q-35 26 -55 63q-19 35 -19 78q0 52 23 93q22 40 59 69q36 28 78 48
q44 21 80 32q-37 40 -60 80q-22 38 -22 84zM107 198h-2q0 -40 12 -75q12 -34 36 -61t58 -42q35 -15 78 -15q81 0 143 35t116 113l-252 247l-32 32q-34 -14 -62 -33q-30 -20 -50 -48q-21 -29 -33 -66t-12 -87zM236 634l-3 -2q0 -50 30 -90q29 -39 71 -81q24 12 41 25
q19 15 36 36t27 48q10 26 10 61q0 64 -29 95q-29 30 -77 30q-52 0 -79 -34t-27 -88z" />
    <glyph glyph-name="quotesingle" unicode="'" horiz-adv-x="157" 
d="M74 572l-1 -2q-1 9 -8 40q-3 14 -9 40q-3 13 -9 37q-4 16 -4 32q0 20 9 32t26 12t26 -12t9 -31q0 -15 -4 -31q-6 -24 -9 -37q-6 -26 -9 -40q-7 -31 -8 -40h-9z" />
    <glyph glyph-name="parenleft" unicode="(" horiz-adv-x="332" 
d="M312 -107v2q-38 29 -79 70q-42 42 -78 99q-36 56 -60 128q-24 70 -24 156t24 156t60 126q37 57 78 98t79 70l6 -7q-28 -25 -60 -63t-57 -90t-42 -125q-17 -74 -17 -166q0 -93 17 -167q17 -72 42 -126q25 -53 57 -91q32 -37 60 -63z" />
    <glyph glyph-name="parenright" unicode=")" horiz-adv-x="332" 
d="M14 -100l-1 -4q29 26 60 63t58 91q28 56 44 126q17 74 17 167q0 92 -17 166q-17 75 -43 125q-28 54 -58 90q-32 38 -60 63l6 7q37 -29 79 -70q43 -43 78 -97q36 -55 60 -126t24 -156t-24 -156q-24 -69 -60 -127q-36 -57 -78 -99q-41 -42 -79 -70z" />
    <glyph glyph-name="asterisk" unicode="*" horiz-adv-x="303" 
d="M171 535l-1 -4q0 -28 -19 -28q-20 0 -20 28q0 21 7 42q8 23 12 51q-19 -23 -29 -44q-11 -22 -24 -35q-21 -20 -35 -6q-15 13 6 36q13 11 35 24q20 12 44 29q-27 -4 -52 -12q-22 -7 -40 -7q-29 0 -29 20t29 20q19 0 41 -7q25 -8 52 -12q-23 19 -44 29q-22 11 -35 24
q-20 23 -5 36q13 13 34 -6q12 -13 24 -36q11 -20 29 -45q-5 30 -12 53q-7 22 -7 41q0 29 20 29q19 0 19 -29q0 -17 -6 -41q-7 -29 -11 -53q16 21 27 44q11 22 24 35q19 19 36 6q6 -6 5 -15q-1 -8 -12 -19q-14 -14 -34 -24q-21 -11 -43 -28q29 5 51 12q21 7 42 7q28 0 28 -20
t-28 -20q-21 0 -42 7q-22 7 -51 12q21 -16 44 -27q22 -11 35 -24q10 -11 11 -19q2 -9 -6 -17q-7 -6 -16 -4q-8 1 -18 11q-13 13 -24 35q-10 21 -29 44q4 -24 11 -51q6 -23 6 -42z" />
    <glyph glyph-name="plus" unicode="+" horiz-adv-x="531" 
d="M259 140v205h-207v13h207v205h14v-205h206v-13h-206v-205h-14z" />
    <glyph glyph-name="comma" unicode="," horiz-adv-x="195" 
d="M123 10h-1q-4 -4 -12 -9q-7 -4 -22 -4q-17 0 -29 12t-12 32q0 23 14 35t32 12q23 0 40 -16q18 -16 18 -51q0 -47 -24 -78q-24 -32 -58 -48l-5 7q31 16 48 41t17 50q0 11 -6 17z" />
    <glyph glyph-name="hyphen" unicode="-" horiz-adv-x="284" 
d="M51 300h195l-13 -50h-195z" />
    <glyph glyph-name="period" unicode="." horiz-adv-x="191" 
d="M96 -10v-2q-20 0 -36 14q-15 13 -15 35q0 21 15 35q16 14 36 14q19 0 33 -14t14 -35q0 -20 -14 -34q-13 -13 -33 -13z" />
    <glyph glyph-name="slash" unicode="/" horiz-adv-x="497" 
d="M473 795l-488 -963l-13 7l487 964z" />
    <glyph glyph-name="zero" unicode="0" horiz-adv-x="723" 
d="M361 758l-4 -1q56 0 112 -28q59 -29 104 -79q48 -52 77 -121q30 -70 30 -154q0 -85 -30 -156t-76 -121q-46 -51 -103 -79q-56 -28 -112 -28q-55 0 -111 28q-57 28 -103 79q-46 50 -76 121t-30 156t30 155q29 69 77 121q45 50 104 79q56 28 111 28zM357 748l-4 -3
q-39 0 -78 -19q-41 -20 -75 -63t-57 -114q-22 -69 -22 -174q0 -101 23 -175q22 -72 57 -117q34 -44 75 -64q39 -19 78 -19q37 0 80 20q42 19 76 64t57 117q22 70 22 176q0 105 -22 174q-23 71 -57 114t-75 63q-42 20 -78 20z" />
    <glyph glyph-name="one" unicode="1" horiz-adv-x="284" 
d="M17 0l-2 4q29 4 48 14q18 9 27 37q9 29 12 82q3 54 3 149v163q0 80 -1 105q-1 37 -9 55t-25 21q-16 3 -49 1v7l167 123v-473q0 -76 2 -148q1 -53 9 -82q7 -28 24 -37q18 -10 47 -14v-7h-253z" />
    <glyph glyph-name="two" unicode="2" horiz-adv-x="584" 
d="M303 65l-2 -8q63 0 123 2q43 1 71 8q25 6 36 18q10 12 18 35h9l-25 -91q-6 -26 -10 -31q-5 -6 -19 -6h-491l229 198q62 54 98 99q38 47 60 90q22 42 31 84q9 41 9 79q0 48 -10 84q-10 38 -33 63q-23 26 -57 41t-84 15q-46 0 -72 -13t-40 -30q-14 -16 -18 -33t-6 -24
q-8 -35 -39 -35q-18 0 -27 10t-9 25q0 13 12 33q12 19 37 37q26 18 66 30t99 12q53 0 103 -12t87 -36t60 -63q22 -38 22 -91t-19 -100q-20 -49 -55 -93q-36 -45 -85 -88q-45 -39 -108 -88l-160 -121h199z" />
    <glyph glyph-name="three" unicode="3" horiz-adv-x="595" 
d="M232 3l-3 -3q65 0 111 20t74 54q29 36 41 79q12 45 12 94q0 103 -40 161q-41 59 -132 59q-50 0 -82 -19q-33 -20 -64 -49l-6 6l296 277h-149q-73 0 -139 -2q-47 -1 -75 -8q-26 -6 -35 -18q-10 -13 -17 -33h-9l26 96q6 21 9 28q3 6 14 6h451v-8l-305 -286q16 9 39 15t48 6
q57 0 104 -15t81 -45t54 -72q19 -41 19 -96q0 -43 -21 -88q-20 -43 -62 -82q-39 -36 -101 -61q-60 -24 -139 -24q-54 0 -96 12t-71 32t-44 42q-15 23 -15 42q0 13 8 24t24 11q19 0 28 -10q10 -11 14 -27q3 -12 6 -25q4 -18 20 -40q14 -20 45 -37q29 -16 81 -16z" />
    <glyph glyph-name="four" unicode="4" horiz-adv-x="694" 
d="M523 180h1q2 -63 4 -88q3 -35 10 -51q7 -17 18 -25q10 -8 27 -12v-7h-200v7q17 4 27 12q11 8 17 25q6 18 9 51q2 25 4 88h-408v6l465 570h25v-523h140l-29 -53h-110zM442 233v441l-359 -441h359z" />
    <glyph glyph-name="five" unicode="5" horiz-adv-x="609" 
d="M166 684l-77 -262q35 28 81 45q45 16 111 16q55 0 105 -15q48 -15 87 -44q37 -28 60 -71q22 -41 22 -95q0 -53 -21 -101q-22 -50 -61 -86q-41 -38 -100 -60t-136 -22q-55 0 -99 12q-43 12 -73 30t-45 39t-15 39q0 13 8 24t24 11q19 0 28 -10q10 -12 14 -25q2 -7 9 -28
q6 -17 23 -36q16 -18 46 -31q29 -13 81 -13q58 0 102 21t72 57t42 84q14 50 14 100q0 47 -12 86q-12 40 -36 68q-24 29 -58 45q-33 16 -81 16q-35 0 -68 -5q-28 -4 -54 -14q-23 -9 -43 -21t-34 -25l-6 4l102 333h359l-15 -41q-8 -17 -12 -21t-18 -4h-326z" />
    <glyph glyph-name="six" unicode="6" horiz-adv-x="675" 
d="M394 748l-3 1q-53 0 -98 -21t-81 -63q-35 -41 -58 -106t-27 -148q19 23 43 42q26 20 56 35q29 15 65 24q35 9 74 9q53 0 102 -18t87 -51q37 -33 60 -80q23 -48 23 -104q0 -64 -27 -115q-27 -52 -67 -87q-41 -36 -90 -54t-96 -18q-51 0 -106 21t-102 66q-45 44 -76 116
q-30 71 -30 170q0 93 30 165t80 122q51 51 112 77q63 27 126 27q59 0 101 -9t69 -24q28 -15 39 -31q12 -16 12 -28q0 -11 -8 -21q-8 -9 -21 -9q-17 0 -24 9t-15 27q-6 16 -15 29q-9 14 -25 24q-18 11 -42 17q-25 6 -68 6zM127 367l-4 1q0 -93 18 -162q18 -70 49 -114
q31 -45 73 -67q41 -22 90 -22q40 0 77 17q35 16 63 50q27 33 42 83q15 49 15 114q0 69 -18 116t-46 75q-30 30 -61 41q-33 12 -62 12q-37 0 -73 -9q-38 -9 -66 -25q-32 -17 -54 -37q-25 -22 -42 -43q-1 -5 -1 -15v-15z" />
    <glyph glyph-name="seven" unicode="7" horiz-adv-x="575" 
d="M207 0h-11l309 685h-261q-74 0 -116 -3q-43 -3 -64 -10q-22 -7 -31 -23q-8 -14 -16 -40h-11l29 106q5 19 9 27q5 8 19 8h479v-8z" />
    <glyph glyph-name="eight" unicode="8" horiz-adv-x="611" 
d="M571 208h3q0 -44 -21 -85q-21 -40 -57 -70q-35 -29 -84 -46t-103 -17q-60 0 -108 16q-50 17 -85 43q-37 28 -56 61q-20 35 -20 72q0 34 15 66q15 31 41 59q26 27 60 48q37 22 72 35q-42 19 -69 37q-30 19 -51 42q-22 24 -32 49q-11 28 -11 59q0 43 21 78q21 34 55 58
q35 24 78 36t87 12q58 0 102 -15t74 -39t45 -54t15 -60t-15 -57q-16 -28 -39 -50q-25 -24 -54 -41q-31 -19 -62 -29q33 -14 75 -35q36 -18 63 -42t44 -56t17 -75zM310 -1l-3 4q49 0 89 14t65 36t39 53q13 29 13 65q0 35 -15 62t-44 50q-28 23 -69 42q-39 19 -92 39
q-9 3 -27 11q-23 10 -25 11q-70 -28 -109 -82t-39 -121q0 -88 57 -136t160 -48zM364 424h-4q24 10 49 27q23 16 42 38q18 21 30 48t12 62q0 33 -11 63q-11 29 -33 50t-59 33q-36 12 -87 12q-37 0 -72 -9t-60 -27q-27 -19 -41 -43q-15 -26 -15 -57t13 -54q14 -24 39 -45
q24 -20 63 -40q38 -20 87 -39z" />
    <glyph glyph-name="nine" unicode="9" horiz-adv-x="681" 
d="M285 1l-8 -2q53 0 97 22q45 23 80 65q34 42 57 105q23 65 29 145q-36 -44 -96 -75q-59 -31 -137 -31q-54 0 -104 18q-49 18 -87 51q-37 33 -60 80q-22 45 -22 104q0 65 27 114q27 50 67 84q42 35 90 53q50 18 96 18q57 0 111 -19q55 -19 101 -62q45 -42 74 -110
q29 -69 29 -164q0 -93 -30 -168q-31 -77 -79 -128q-50 -53 -112 -81t-127 -28q-59 0 -101 9t-69 24q-28 15 -39 31q-12 16 -12 30q0 13 9 22t24 9q16 0 25 -9q10 -10 17 -28l12 -24q7 -13 24 -25t43 -21q27 -9 71 -9zM116 482l5 -4q0 -68 18 -114t45 -75q28 -29 60 -41
q33 -12 65 -12q37 0 72 9q36 9 65 24q30 15 54 36q23 20 42 44q1 7 1 23v24q0 90 -18 155q-18 66 -49 108q-31 43 -73 64t-91 21q-41 0 -76 -16q-37 -17 -63 -49q-27 -33 -42 -82t-15 -115z" />
    <glyph glyph-name="colon" unicode=":" horiz-adv-x="198" 
d="M99 344v-1q-21 0 -35 14t-14 35q0 19 14 35q13 15 35 15q21 0 35 -15q14 -16 14 -34q0 -21 -14 -35t-35 -14zM99 -11v-2q-21 0 -35 14t-14 35t14 35t35 14t35 -14t14 -35q0 -20 -14 -34q-13 -13 -35 -13z" />
    <glyph glyph-name="semicolon" unicode=";" horiz-adv-x="202" 
d="M101 344v-1q-20 0 -36 14q-15 13 -15 35q0 20 15 35t36 15q19 0 33 -15q14 -16 14 -34q0 -21 -14 -35t-33 -14zM126 9l-2 -1q-4 -4 -12 -9q-7 -4 -21 -4q-17 0 -29 12t-12 32q0 23 14 35t32 12q23 0 40 -16q18 -16 18 -51q0 -47 -24 -78t-60 -48l-5 7q32 17 50 41t18 50
q0 11 -7 18z" />
    <glyph glyph-name="less" unicode="&#x3c;" horiz-adv-x="503" 
d="M57 358l389 163v-14l-372 -156l372 -156v-15l-389 163v15z" />
    <glyph glyph-name="equal" unicode="=" horiz-adv-x="527" 
d="M50 427h427v-13h-427v13zM50 282h427v-13h-427v13z" />
    <glyph glyph-name="greater" unicode="&#x3e;" horiz-adv-x="503" 
d="M57 180v15l372 156l-372 156v14l389 -163v-15z" />
    <glyph glyph-name="question" unicode="?" horiz-adv-x="398" 
d="M137 191l-3 -2q2 47 13 83q12 39 28 70q14 28 35 63q20 33 35 62q16 31 27 65q11 35 11 72q0 41 -9 68q-10 28 -25 44q-17 17 -37 23q-21 6 -48 6q-25 0 -38 -10q-14 -11 -21 -25q-6 -11 -9 -19q-2 -6 -8 -16q-4 -7 -12 -12q-7 -4 -21 -4q-16 0 -25 11q-9 10 -9 24
q0 22 35 42q34 19 110 19q38 0 74 -9q35 -9 63 -29t44 -49q17 -31 17 -70q0 -37 -15 -70q-16 -35 -37 -63q-20 -27 -50 -60q-27 -30 -51 -63q-25 -34 -42 -70t-22 -81h-10zM150 -12l-1 -2q-18 0 -34 14q-15 14 -15 35q0 22 15 35q16 14 35 14q21 0 35 -14t14 -35
q0 -20 -14 -34q-13 -13 -35 -13z" />
    <glyph glyph-name="at" unicode="@" horiz-adv-x="890" 
d="M757 -59l-1 -6q-16 -15 -45 -33t-67 -33q-36 -14 -92 -25q-50 -10 -117 -10q-80 0 -155 20q-74 20 -129 63q-56 44 -89 111q-33 68 -33 162q0 98 36 177q36 80 99 137q64 58 147 89q85 32 180 32q82 0 149 -22q70 -23 119 -63t78 -99q29 -60 29 -130q0 -71 -27 -128
q-27 -56 -75 -97q-47 -40 -114 -61t-145 -20l16 93l-25 -25q-32 -32 -61 -51t-67 -19q-30 0 -57 12t-46 34q-19 21 -31 54q-12 31 -12 72q0 66 24 120q24 53 60 91q35 37 81 58q45 21 89 21q26 0 44 -6t33 -12t27 -12t24 -6t24 6q13 7 20 19h6l-46 -272q-8 -50 -12 -81
q-4 -30 -1 -48q3 -17 15 -20q11 -3 35 5q192 62 192 264q0 70 -27 129q-27 58 -75 100q-49 43 -112 65q-66 23 -138 23q-87 0 -165 -26t-134 -76q-57 -51 -90 -126t-33 -172q0 -91 30 -160q30 -68 81 -115q50 -45 119 -70q67 -24 144 -24q66 0 115 10q54 11 90 25
q37 14 66 32t44 30zM299 169l-2 2q0 -81 18 -118t62 -37q29 0 54 15t60 48l30 30l43 255q6 36 -15 62t-74 26q-35 0 -66 -21q-33 -22 -56 -58q-24 -37 -39 -90t-15 -114z" />
    <glyph glyph-name="A" unicode="A" horiz-adv-x="768" 
d="M11 6l-5 -2q16 6 23 10q11 6 21 19q12 16 23 36q12 23 27 60l234 555q-8 16 -15 27q-8 12 -15 17q-8 6 -16 9q-12 4 -19 6v6h111q8 0 11 -3q2 -2 7 -12l269 -609q4 -8 10 -22t9 -20q8 -17 18 -34q8 -14 21 -25q11 -10 29 -18v-7h-164v7q26 8 26 27t-18 60l-64 144h-375
l-46 -108q-6 -15 -12 -33t-6 -35q0 -15 8 -31q7 -15 30 -24v-6h-122v6zM527 244l-187 426l-181 -426h368z" />
    <glyph glyph-name="B" unicode="B" horiz-adv-x="654" 
d="M16 7l-2 -1q22 6 33 16q12 10 18 39q5 26 7 82q2 72 2 148v168q0 112 -1 148q-2 57 -7 83q-6 29 -18 38t-33 15v7h301q70 0 119 -13q52 -14 87 -37q36 -24 54 -55t18 -67q0 -26 -9 -55q-9 -28 -33 -52q-23 -23 -66 -40q-40 -16 -107 -22v-1q77 -7 127 -27t78 -46
q28 -27 39 -57q10 -29 10 -55q0 -56 -27 -98t-73 -70q-47 -29 -108 -42q-59 -13 -132 -13h-277v7zM154 740l1 -329h150q59 0 102 8q41 7 66 27t36 51q11 33 11 78q0 35 -12 65q-13 31 -37 53q-27 24 -64 35q-39 12 -93 12h-160zM155 403l-2 -394h132q60 0 108 9q47 9 81 32
q33 22 51 63t18 102q0 41 -6 75t-30 60t-70 39q-48 14 -126 14h-156z" />
    <glyph glyph-name="C" unicode="C" horiz-adv-x="743" 
d="M420 -7l1 -8q-88 0 -160 32q-71 31 -120 84t-75 120q-26 69 -26 141q0 94 35 167q35 74 91 122q57 49 128 75q69 25 144 25q55 0 87 -7q33 -7 59 -17q12 -5 42 -17q17 -7 37 -7q23 0 30 28h10v-153h-10q-21 86 -90 126q-68 40 -165 40q-66 0 -123 -21q-56 -20 -97 -65
q-40 -43 -64 -111q-24 -67 -24 -160q0 -103 26 -176q26 -72 69 -117t99 -66t114 -21q56 0 99 12t75 30t54 39q23 21 38 41l7 -6q-13 -18 -38 -42q-24 -23 -60 -42t-84 -33q-46 -13 -109 -13z" />
    <glyph glyph-name="D" unicode="D" horiz-adv-x="762" 
d="M16 7l-3 -2q22 6 33 16q12 11 18 39q5 26 7 82q2 72 2 148v168q0 112 -1 148q-2 57 -7 83q-6 29 -18 38t-33 15v7h181q264 0 398 -92t134 -273q0 -86 -30 -156q-29 -69 -95 -121q-64 -50 -165 -79q-99 -28 -240 -28h-181v7zM153 739l-3 -733h41q115 0 197 21
q83 21 137 66t81 117t27 173q0 104 -30 173q-30 68 -87 109t-138 57q-83 17 -184 17h-41z" />
    <glyph glyph-name="E" unicode="E" horiz-adv-x="632" 
d="M16 7v-4q22 6 33 16q12 11 18 39q5 26 7 82q2 72 2 148v168q0 112 -1 148q-2 57 -7 83q-6 29 -18 38t-33 15v7h543q8 0 12 -3q5 -3 6 -19l16 -91h-10q-10 32 -24 51q-15 21 -31 32q-17 11 -42 16q-27 5 -54 5h-277v-322h128q33 0 48 7q17 8 26 18q9 11 12 24l6 26h10
v-157h-10l-6 26q-3 14 -12 24t-26 18q-15 7 -48 7h-128v-401h296q32 0 56 3t42 15t32 35q14 24 23 62h10l-11 -106q-2 -13 -6 -15q-6 -2 -12 -2h-570v7z" />
    <glyph glyph-name="F" unicode="F" horiz-adv-x="631" 
d="M16 7l-2 -4q21 6 33 15t18 38q5 26 7 83q2 72 2 148v168q0 113 -1 149q-2 57 -7 83q-6 29 -18 38t-33 15v7h571q8 0 12 -3q5 -3 6 -19l13 -91h-10q-9 33 -22 51q-14 20 -33 32q-18 11 -45 16q-28 5 -60 5h-292v-315h132q32 0 49 7q18 8 27 18t12 24l6 27h9v-158h-9l-6 26
q-3 13 -12 24t-27 18q-17 7 -49 7h-132v-126q0 -76 2 -148q1 -51 8 -82q6 -29 18 -38t33 -15v-7h-200v7z" />
    <glyph glyph-name="G" unicode="G" horiz-adv-x="787" 
d="M418 -8h1q-87 0 -159 29q-70 28 -120 80q-49 50 -76 123q-27 72 -27 157q0 96 35 168q34 71 90 117t126 69q69 22 143 22q55 0 87 -7q37 -8 57 -16q32 -13 39 -16q15 -7 36 -7q26 0 33 28h11v-153h-11q-11 42 -33 72q-23 30 -56 50q-34 20 -75 29q-42 9 -90 9
q-63 0 -118 -18t-97 -60t-66 -111t-24 -171q0 -106 21 -180t60 -120q40 -47 93 -68q54 -21 120 -21q48 0 92 11q41 10 72 35t47 63q17 40 17 95v4q0 45 -1 59q-2 22 -7 33q-6 11 -18 16t-33 9v8h200v-8q-18 -4 -30 -9t-18 -18q-7 -15 -8 -37q-2 -32 -2 -66v-73
q-17 -21 -46 -42q-31 -23 -70 -42q-38 -18 -90 -31q-49 -12 -105 -12z" />
    <glyph glyph-name="H" unicode="H" horiz-adv-x="765" 
d="M16 7l-6 -8q21 6 33 15t18 38q5 26 7 83q2 72 2 148v168q0 113 -1 149q-2 57 -7 83q-6 29 -18 38t-33 15v7h200v-7q-21 -6 -33 -15t-18 -37q-5 -26 -7 -82q-1 -36 -1 -148v-44h453v44q0 113 -1 149q-2 57 -7 83q-6 29 -18 38t-33 15v7h200v-7q-21 -6 -33 -15t-18 -37
q-5 -26 -7 -82q-1 -36 -1 -148v-168q0 -76 2 -148q2 -56 7 -82q6 -29 18 -38t33 -15v-7h-200v7q21 6 33 15t18 38q7 31 8 83q2 72 2 148v116h-453v-116q0 -76 2 -148q1 -51 8 -82q6 -29 18 -38t33 -15v-7h-200v7z" />
    <glyph glyph-name="I" unicode="I" horiz-adv-x="232" 
d="M16 7l-3 -3q22 6 33 16q12 10 18 39q5 26 7 82q2 72 2 148v168q0 113 -1 149q-2 57 -7 83q-6 29 -18 38t-33 15v7h200v-7q-21 -6 -33 -15t-18 -37q-5 -26 -7 -82q-1 -36 -1 -148v-168q0 -76 2 -148q1 -51 8 -82q6 -28 18 -39q11 -10 33 -16v-7h-200v7z" />
    <glyph glyph-name="J" unicode="J" horiz-adv-x="399" 
d="M158 -9l-5 -2q-32 0 -64 8q-28 7 -51 20q-20 12 -33 29q-12 16 -12 36q0 19 11 27t26 8q20 0 29 -9t17 -35q5 -20 9 -32q5 -14 12 -23q8 -10 21 -14q15 -5 36 -5q35 0 61 23q25 22 25 75v361q0 113 -1 149q-2 56 -7 82q-6 29 -18 38t-33 15v7h201v-7q-21 -6 -33 -15
t-18 -37q-5 -26 -7 -82q-1 -36 -1 -149v-298q0 -39 -13 -69q-14 -32 -36 -54q-24 -24 -52 -35q-30 -12 -64 -12z" />
    <glyph glyph-name="K" unicode="K" horiz-adv-x="685" 
d="M16 7l-4 -7q21 6 33 15t18 38q5 26 7 83q2 72 2 148v168q0 113 -1 149q-2 57 -7 83q-6 29 -18 38t-33 15v7h200v-7q-21 -6 -33 -15t-18 -37q-5 -26 -7 -82q-1 -36 -1 -148v-37l332 242q44 32 51 51q4 10 -5 17.5t-31 11.5v7h137v-7q-19 -5 -50 -21q-32 -17 -90 -60
l-277 -201l358 -381q10 -11 27 -28q15 -15 22 -21q10 -9 21 -15q7 -4 23 -10v-6h-191v6q20 5 26 12t3 18q-3 12 -13 23q-14 16 -24 26l-318 339v-131q0 -76 2 -148q1 -51 8 -82q6 -29 18 -38t33 -15v-7h-200v7z" />
    <glyph glyph-name="L" unicode="L" horiz-adv-x="583" 
d="M16 7l-4 -6q21 6 33 15t18 38q5 26 7 83q2 72 2 148v168q0 113 -1 149q-2 57 -7 83q-6 29 -18 38t-33 15v7h202v-7q-22 -6 -34 -15t-18 -37q-5 -26 -7 -82q-1 -36 -1 -148v-450h257q32 0 57 3t45 17t33 39t24 69h11l-17 -117q-1 -13 -6 -15q-6 -2 -12 -2h-531v7z" />
    <glyph glyph-name="M" unicode="M" horiz-adv-x="909" 
d="M16 7l-6 -5q20 8 32 18t18 39q7 31 8 83q2 72 2 148v164q0 112 -1 148q-2 57 -7 83q-6 29 -18 38t-33 15v7h139q8 0 11 -3q2 -2 10 -20l283 -629l292 653h144v-7q-21 -6 -33 -15t-18 -37q-5 -26 -7 -82q-1 -36 -1 -148v-168q0 -76 2 -148q1 -51 8 -82q6 -29 18 -38
t33 -15v-7h-201v7q21 6 33 15t18 38q5 26 7 83q2 72 2 148v439l-327 -733h-12l-328 735v-437q0 -76 2 -148q1 -51 8 -82q6 -28 20 -39t36 -18v-7h-134v7z" />
    <glyph glyph-name="N" unicode="N" horiz-adv-x="726" 
d="M16 7l-7 -2q21 7 33 18t18 39q5 26 7 83q2 72 2 148v164q0 112 -1 148q-2 57 -7 83q-6 29 -18 38t-33 15v7h140q6 0 9 -1q6 -2 8 -4l9 -9q7 -6 14 -17l445 -591v328v108q0 35 -2 75q-1 30 -6 48q-5 19 -12 29q-8 11 -18 17q-12 7 -26 11v7h135v-7q-11 -4 -24 -11
q-9 -5 -16 -17q-6 -10 -9 -29q-4 -22 -5 -48q-2 -40 -2 -75v-108v-458h-16l-550 733v-435q0 -76 2 -148q1 -51 8 -82q6 -28 20 -39t36 -18v-7h-134v7z" />
    <glyph glyph-name="O" unicode="O" horiz-adv-x="834" 
d="M417 -8l-3 -6q-74 0 -144 29q-67 28 -121 80q-52 51 -84 122q-31 69 -31 155q0 81 32 153q31 70 84 121q53 52 122 80q70 29 144 29q75 0 143 -28q71 -29 122 -79q53 -51 84 -121q32 -72 32 -153q0 -85 -31 -154q-31 -70 -84 -121q-51 -50 -122 -79q-68 -28 -143 -28z
M414 -5l-1 -2q57 0 110 21t93 66q40 44 64 117q24 72 24 174t-24 173q-25 72 -64 116q-41 46 -93 65q-54 20 -110 20t-110 -20q-53 -20 -93 -64q-42 -46 -65 -115q-24 -70 -24 -173q0 -102 24 -174q24 -71 65 -117q40 -45 93 -66t111 -21z" />
    <glyph glyph-name="P" unicode="P" horiz-adv-x="618" 
d="M16 7l-2 -2q21 6 33 15t18 38q5 26 7 83q2 72 2 148v168q0 113 -1 149q-2 57 -7 83q-6 29 -18 38t-33 15v7h280q65 0 120 -9t98 -32q42 -22 66 -60t24 -91q0 -55 -24 -96t-66 -66q-44 -26 -97 -38q-56 -12 -117 -12h-144v-55q0 -76 2 -148q1 -51 8 -82q6 -29 18 -38
t35 -15v-7h-202v7zM154 739v-387h141q40 0 83 8q39 7 73 29q32 20 52 59q20 38 20 99q0 67 -21 104t-54 57q-32 19 -74 25q-40 6 -81 6h-139z" />
    <glyph glyph-name="Q" unicode="Q" horiz-adv-x="834" 
d="M417 -7v-5q-73 0 -142 27q-68 27 -123 77q-53 49 -85 120q-32 72 -32 159q0 81 32 153q31 70 84 121q53 52 122 80q70 29 144 29q75 0 143 -28q71 -29 122 -79q53 -51 84 -121q32 -72 32 -153q0 -61 -18 -117t-49 -100q-31 -45 -73 -79q-41 -34 -91 -55q14 -42 27 -71
q13 -30 32 -54q17 -21 41 -34q23 -12 54 -12q32 0 48 10q17 11 30 27l5 -5q-17 -20 -42 -35q-26 -15 -67 -15q-31 0 -59 7q-31 8 -57 25q-28 19 -50 51q-23 33 -39 84q-32 -7 -73 -7zM417 744l-4 -4q-56 0 -110 -20q-53 -20 -93 -64q-42 -46 -65 -115q-24 -71 -24 -173
q0 -80 14 -144q13 -60 38 -105q24 -44 60 -71q35 -26 81 -40q-65 30 -65 103q0 24 9 42q9 17 26 30q17 12 37 18q21 6 43 6q44 0 75 -12q32 -12 54 -34q21 -21 37 -51t27 -61l5 -15q64 40 105 123q41 84 41 213q0 102 -24 173q-25 72 -64 116q-41 46 -93 65q-54 20 -110 20z
M258 107l-2 -1q0 -35 13 -57t35 -36q21 -13 50 -18q32 -5 58 -5q12 0 36 2q19 2 35 6l-6 21q-2 7 -4 23q-8 43 -18 71q-11 30 -25 47t-33 25t-40 8q-17 0 -37 -5q-17 -4 -31 -15q-13 -10 -22 -27q-9 -16 -9 -39z" />
    <glyph glyph-name="R" unicode="R" horiz-adv-x="703" 
d="M16 7l-2 -6q21 6 33 15t18 38q5 26 7 83q2 72 2 148v168q0 113 -1 149q-2 57 -7 83q-6 29 -18 38t-33 15v7h315q85 0 147 -14q60 -13 98 -38q37 -24 54 -57q17 -34 17 -70q0 -50 -24 -88t-63 -60t-90 -33q-53 -11 -106 -11h-58q137 -22 178 -180q19 -82 57 -132
q37 -49 99 -49q29 0 44 9q14 8 27 23l5 -5q-14 -20 -39 -35q-26 -15 -64 -15q-28 0 -62 8q-33 8 -60 28q-30 22 -53 58q-24 38 -39 96q-25 92 -31 110q-12 39 -29 59t-43 24q-24 4 -75 4h-65v-87q0 -76 2 -148q1 -51 8 -82q6 -29 18 -38t33 -15v-7h-200v7zM154 735v-355h209
q103 0 153 44q49 43 49 123q0 42 -10 75q-11 35 -37 60q-27 25 -74 39q-48 14 -120 14h-170z" />
    <glyph glyph-name="S" unicode="S" horiz-adv-x="591" 
d="M307 -7l-6 -8q-57 0 -93 9q-34 9 -62 20q-15 6 -45 20q-20 9 -43 9q-22 0 -30 -23h-10v164h10q6 -43 29 -78t59 -59q37 -25 84 -38q46 -13 104 -13q52 0 89 14t59 36t33 54q10 30 10 66q0 39 -12 66t-39 48q-28 22 -72 38q-45 16 -111 36q-53 15 -93 33t-69 42
q-28 24 -43 55q-15 32 -15 73q0 46 19 81q19 36 52 61t75 39q40 13 89 13q50 0 83 -6q34 -6 56 -15q23 -9 39 -15q17 -6 35 -6q26 0 32 24h11v-128h-11q-16 67 -82 103t-162 36q-83 0 -130 -37q-48 -37 -48 -100q0 -31 9 -55t32 -44t61 -36q41 -17 98 -32q54 -14 102 -30
t84 -42t57 -61q21 -36 21 -89q0 -44 -18 -85t-51 -72q-34 -32 -81 -50q-48 -18 -106 -18z" />
    <glyph glyph-name="T" unicode="T" horiz-adv-x="692" 
d="M247 7h-7q22 6 33 16q12 11 18 39q5 26 7 82q2 72 2 148v450h-113q-33 0 -60 -3q-26 -3 -48 -17q-21 -14 -36 -40q-15 -27 -24 -73h-11l18 121q1 15 5 19q3 3 11 3h602q8 0 11 -3q4 -4 5 -19l18 -121h-12q-9 46 -24 73q-15 26 -36 40q-22 14 -48 17q-27 3 -61 3h-111
v-450q0 -76 2 -148q1 -51 8 -82q6 -28 18 -39q11 -10 33 -16v-7h-200v7z" />
    <glyph glyph-name="U" unicode="U" horiz-adv-x="754" 
d="M409 -7l-11 -3q-162 0 -250 71q-87 71 -87 225v169q0 113 -1 149q-2 57 -7 83q-6 29 -18 38t-31 15v7h198v-7q-21 -6 -33 -15t-18 -37q-5 -26 -7 -82q-1 -36 -1 -148v-188q0 -62 12 -111q12 -50 40 -84q29 -35 78 -54q48 -19 126 -19q54 0 104 14q47 13 84 47
q36 33 57 87t21 135v170v108q0 35 -2 75q-1 30 -6 48q-5 19 -12 29q-8 11 -18 17q-12 7 -27 11v7h136v-7q-11 -4 -24 -11q-9 -5 -16 -17q-6 -10 -9 -29q-4 -22 -5 -48q-2 -40 -2 -75v-108v-170q0 -83 -21 -138t-57 -90q-35 -34 -86 -49q-50 -15 -107 -15z" />
    <glyph glyph-name="V" unicode="V" horiz-adv-x="747" 
d="M97 613l-3 -1q-21 49 -23 54q-8 21 -18 37t-19 24q-13 11 -25 17v6h162v-6q-23 -6 -24 -24q-1 -17 17 -61l246 -564l227 529q9 19 16 42q6 19 6 35q0 15 -9 26t-29 17v6h115v-6q-10 -4 -21 -11q-9 -6 -18 -18q-10 -13 -21 -34q-10 -19 -28 -58l-269 -628h-12z" />
    <glyph glyph-name="W" unicode="W" horiz-adv-x="1029" 
d="M91 623l-6 -2q-4 11 -10.5 27.5t-7.5 19.5q-7 20 -15 33q-8 14 -18 23q-12 10 -27 17v7h157v-7q-21 -6 -24 -24q-3 -17 14 -58l231 -571l124 303l-94 229q-4 10 -10.5 27t-7.5 20q-8 21 -16 33q-10 15 -19 24q-10 10 -25 16v7h158v-7q-22 -6 -25 -23q-3 -16 14 -59
l76 -185l63 148q9 21 15 39t6 33q0 16 -7 27t-27 19v7h107v-7q-14 -6 -20 -10q-9 -6 -18 -18q-11 -14 -20 -33q-13 -27 -26 -57l-68 -160l151 -370l206 529q12 34 14 40q6 20 6 35t-9 27t-28 19v7h112v-7q-10 -4 -21 -11q-9 -6 -18 -18q-8 -10 -19 -33q-10 -19 -24 -56
l-245 -628h-12l-160 387l-158 -387h-12z" />
    <glyph glyph-name="X" unicode="X" horiz-adv-x="736" 
d="M14 6l-4 4q16 9 30 18t27 21t30 30q13 14 37 45l195 241l-206 270q-3 4 -37 48q-17 22 -28 32q-16 15 -24 20q-10 7 -24 12v6h194v-6q-30 -6 -30 -30q0 -23 41 -76l170 -223l180 219q41 50 41 77q0 28 -36 35v6h129v-6q-19 -8 -31 -16q-15 -10 -27 -22q-11 -11 -28 -33
q-6 -7 -19.5 -24.5t-18.5 -23.5l-183 -221l213 -278q23 -31 37 -49q16 -21 30 -36q15 -16 25 -24q13 -10 26 -14v-6h-196v6q32 11 32 36q0 26 -43 81l-177 231l-192 -238q-37 -48 -36 -75q1 -26 36 -37v-6h-133v6z" />
    <glyph glyph-name="Y" unicode="Y" horiz-adv-x="711" 
d="M258 7v-1q22 6 33 16q12 10 18 39q5 26 7 82q2 72 2 148v69l-188 263q-21 30 -36 51q-17 24 -28 36q-15 17 -25 23q-12 8 -28 12v6h186v-6q-23 -5 -29 -21t21 -54l202 -284l174 240q20 27 29 42q13 22 17 34q5 16 -1 26t-24 18v6h112v-6q-9 -4 -22 -12q-12 -8 -27 -21
q-17 -15 -33 -34q-18 -21 -42 -54l-179 -249v-84q0 -76 2 -148q1 -51 8 -82q6 -28 18 -39q11 -10 33 -16v-7h-200v7z" />
    <glyph glyph-name="Z" unicode="Z" horiz-adv-x="686" 
d="M540 741h-315q-44 0 -71 -7q-28 -7 -48 -23q-21 -16 -32 -40q-12 -25 -21 -60h-10l23 140h574l-527 -741h349q49 0 84 8q32 7 54 26q21 18 33 48q13 32 20 74h10l-17 -166h-625z" />
    <glyph glyph-name="bracketleft" unicode="[" horiz-adv-x="288" 
d="M267 793v-9h-132v-881h132v-9h-186v899h186z" />
    <glyph glyph-name="backslash" unicode="\" horiz-adv-x="497" 
d="M526 -161l-13 -7l-487 963l13 8z" />
    <glyph glyph-name="bracketright" unicode="]" horiz-adv-x="287" 
d="M207 -106h-186v9h131v881h-131v9h186v-899z" />
    <glyph glyph-name="asciicircum" unicode="^" horiz-adv-x="419" 
d="M206 756h7l172 -267l-8 -5l-167 260l-168 -260l-8 5z" />
    <glyph glyph-name="underscore" unicode="_" horiz-adv-x="396" 
d="M-5 -76h406v-12h-406v12z" />
    <glyph glyph-name="grave" unicode="`" horiz-adv-x="446" 
d="M153 653l1 -1q-9 7 -18 17q-7 8 -7 20q0 10 8 20q7 9 21 9q13 0 21 -7q8 -6 19 -21l104 -147l-4 -6z" />
    <glyph glyph-name="a" unicode="a" horiz-adv-x="457" 
d="M148 -5v1q-54 0 -89 24t-35 75q0 31 12 51t33 33q20 13 50 24q34 12 62 24l57 24q25 10 41 23q17 14 23 22q6 9 10 20q3 9 3 16v50q0 26 -9 42t-24 25t-33 12t-35 3q-22 0 -36 -3q-16 -4 -23 -7q-8 -4 -15 -11q-6 -5 -10 -13q-11 -19 -21 -29q-11 -11 -27 -11t-24 9
q-7 8 -7 21q0 14 13 24q14 10 36 18q25 8 51 11q28 3 62 3t62 -4q33 -5 57 -16q26 -12 42 -34q17 -23 17 -58v-218q0 -36 2 -72q1 -27 6 -42q4 -14 12 -19q7 -4 21 -4q9 0 19 3q9 3 18 8l3 -6q-3 -3 -21 -13q-17 -9 -45 -9q-51 0 -72 23t-21 60l-23 -21q-26 -23 -59 -41
t-83 -18zM101 104l-2 -2q0 -47 20 -69q19 -21 56 -21q34 0 60 14q25 14 51 39l25 23v211q-5 -9 -21 -24q-15 -14 -53 -31l-51 -22q-46 -20 -66 -48q-19 -28 -19 -70z" />
    <glyph glyph-name="b" unicode="b" horiz-adv-x="571" 
d="M282 -11l-3 -6q-38 0 -70 8q-28 7 -53 17q-13 5 -39 17q-18 8 -28 8q-11 0 -15 -6t-6 -11h-7v548v79q0 27 -5 42q-5 14 -14 17t-27 3v9l122 58v-416l28 31q79 84 166 84q42 0 78 -16q38 -17 66 -46q30 -31 47 -73q18 -44 18 -99q0 -59 -21 -105t-57 -78t-82 -48
q-48 -17 -98 -17zM160 19l-1 -4q18 -11 51 -19q29 -7 69 -7q31 0 63 9t57 34q26 26 42 70q17 46 17 115q0 80 -13 125q-14 48 -34 71q-21 24 -47 32q-24 7 -51 7q-73 0 -150 -81l-28 -31v-266q0 -21 4 -32q5 -13 21 -23z" />
    <glyph glyph-name="c" unicode="c" horiz-adv-x="476" 
d="M281 -8h-5q-47 0 -92 18t-80 50t-56 77t-21 100t24 99q24 43 62 75q37 31 84 48q48 17 90 17q29 0 62 -5q29 -4 53 -14q23 -9 36 -22q14 -14 14 -30q0 -12 -8 -25q-8 -12 -27 -12q-11 0 -19 5t-12 12q-4 6 -7 18q-2 7 -8 23q-9 21 -25 30t-57 9q-35 0 -66 -10
q-32 -10 -58 -36q-25 -25 -42 -69q-16 -42 -16 -111q0 -67 15 -112q15 -46 40 -72q26 -27 60 -39t75 -12q52 0 91 18t65 50l7 -7q-29 -35 -73 -54t-106 -19z" />
    <glyph glyph-name="d" unicode="d" horiz-adv-x="584" 
d="M258 -7l-8 -5q-41 0 -80 15t-71 44q-31 29 -51 72q-19 42 -19 100q0 57 20 105q19 46 53 78t80 50t100 18q35 0 73 -13q40 -14 77 -45v150v80q0 27 -5 42q-5 14 -15 17t-30 3v8l127 60v-598q0 -63 1 -84q2 -33 7 -48q6 -16 18 -24t34 -12v-7h-134v92l-22 -25
q-25 -28 -63 -51q-37 -22 -92 -22zM428 99v296q-40 35 -78 48q-36 13 -70 13t-64 -10q-31 -10 -55 -36t-39 -69t-15 -109q0 -78 15 -123t39 -69q23 -23 51 -31q25 -7 51 -7q45 0 81 21q37 22 62 51z" />
    <glyph glyph-name="e" unicode="e" horiz-adv-x="486" 
d="M282 -9v3q-46 0 -91 15t-81 45q-35 29 -58 77q-22 45 -22 108q0 59 22 103q22 45 57 75t76 45q42 15 83 15q32 0 63 -9q32 -9 59 -27t47 -47q19 -28 27 -69h-345q-10 -36 -10 -93q0 -68 15 -111t42 -69q27 -25 62 -36q33 -10 74 -10q44 0 83 14q37 14 66 39l5 -7
q-28 -28 -72 -45q-42 -16 -102 -16zM268 470l1 3q-22 0 -43 -7q-22 -8 -42 -24t-36 -42t-27 -63h274q-3 40 -15 65q-12 26 -30 41t-39 21t-43 6z" />
    <glyph glyph-name="f" unicode="f" horiz-adv-x="249" 
d="M25 7l-3 -2q17 5 26 12q10 8 14 24q4 17 6 48q1 21 1 84v279h-49v8q14 3 27 8q10 4 15 17q5 12 6 31q2 26 2 51v12q0 51 12 86q13 36 31 56q20 21 43 30q24 9 49 9q33 0 58 -12t25 -34q0 -12 -7 -20q-7 -9 -21 -9q-16 0 -24 8q-7 7 -10 21q-4 22 -9 30q-4 7 -21 7
q-14 0 -23 -6t-15 -20q-6 -13 -9 -38q-3 -24 -3 -61v-162h104v-10h-104v-279q0 -63 1 -84q1 -30 8 -48q6 -16 20 -24t37 -12v-7h-187v7z" />
    <glyph glyph-name="g" unicode="g" horiz-adv-x="470" 
d="M229 161l-10 -5q-53 0 -102 23l-13 -9q-13 -9 -25 -21q-10 -10 -10 -24q0 -15 14 -21q13 -6 35 -9l206 -26q26 -3 48 -9q21 -6 39 -17q15 -10 25 -29q9 -18 9 -45q0 -29 -15 -54t-45 -45q-32 -21 -73 -32q-44 -12 -99 -12q-36 0 -72 6q-38 6 -66 19q-29 13 -48 32
q-18 18 -18 44q0 20 10 36t27 28q17 13 37 21q5 2 41 16q-38 4 -57 24q-20 20 -20 45q0 29 17 48q16 17 35 30l15 10q-34 19 -57 51t-23 75q0 36 17 67q16 29 44 51t61 32q36 11 69 11q26 0 53 -6q29 -6 50 -19q25 20 54 32q30 12 50 12q17 0 24 -7t7 -21q0 -12 -7 -19
t-18 -7q-8 0 -15 3q-5 2 -15 8t-16 8q-9 3 -19 3q-20 0 -36 -13q35 -20 59 -53t24 -78q0 -37 -17 -66q-16 -28 -44 -48q-27 -20 -61 -30q-33 -10 -69 -10zM219 165v-1q25 0 47 8t38 24q16 15 25 44q9 27 9 68q0 40 -9 69q-10 30 -25 47q-17 18 -37 27q-21 9 -46 9
q-51 0 -84 -36t-33 -117q0 -40 9 -67q9 -28 24 -44t36 -24q20 -7 46 -7zM62 -70l-2 -2q0 -25 12 -43q12 -17 32 -30q19 -12 47 -18q27 -6 59 -6q50 0 89 11q36 10 63 26q25 15 37 33t12 33q0 18 -9 30q-8 11 -23 19q-12 7 -32 10q-25 4 -34 5l-177 23q-39 -14 -56 -34
q-18 -21 -18 -57z" />
    <glyph glyph-name="h" unicode="h" horiz-adv-x="554" 
d="M26 7l-3 -1q17 5 26 12q10 8 14 24q5 16 6 48q1 21 1 84v392v79q0 30 -4 42q-5 14 -13 17q-7 2 -26 4v8l120 57v-420l45 42q43 37 79 56q39 21 81 21q70 0 101 -31q32 -32 32 -99v-166v-84q0 -30 5 -48q4 -16 14 -24q9 -7 26 -12v-7h-173v7q19 5 29 12q10 8 15 24t6 48
q1 21 1 84v183q0 54 -21 75t-57 21q-31 0 -63 -17q-31 -16 -75 -54l-45 -41v-168q0 -63 1 -84q2 -31 6 -48t15 -24q10 -7 29 -12v-7h-172v7z" />
    <glyph glyph-name="i" unicode="i" 
d="M110 561q-20 0 -33 13t-13 33t13 32t33 12t33 -12t13 -32t-13 -33t-33 -13zM25 7l-3 -1q17 4 28 12q10 8 15 24t6 48q1 21 1 84v86v81q0 27 -5 42q-5 14 -13 17q-11 4 -27 5v8l122 61v-299q0 -63 1 -84q2 -31 6 -48t15 -24t30 -12v-7h-176v7z" />
    <glyph glyph-name="j" unicode="j" horiz-adv-x="219" 
d="M109 561h-2q-20 0 -33 13t-13 33t13 32q14 12 33 12q18 0 32 -12t14 -32t-13 -33t-31 -13zM-28 -139l1 -4q-13 0 -26 8q-12 7 -12 24q0 13 9 21q10 8 22 8t20 -5q8 -4 14 -11q8 -8 12 -11q7 -5 14 -5q4 0 9 3q1 1 3.5 2.5t3.5 2.5q5 3 9 10q5 8 9 22q4 12 7 39q3 24 3 63
v232v81q0 30 -4 42q-5 14 -13 17q-11 4 -26 5v8l121 61v-423q0 -33 -10 -57q-11 -26 -25 -46q-15 -21 -33 -36q-14 -12 -33 -25q-25 -17 -42 -21q-18 -5 -33 -5z" />
    <glyph glyph-name="k" unicode="k" horiz-adv-x="493" 
d="M26 7l-1 2q17 5 26 12q10 8 14 24q5 17 6 48q1 21 1 84v400v74q0 28 -4 40q-4 13 -13 16q-7 2 -25 4v9l118 57v-528l207 154q16 11 22 21t5 17q-2 7 -9 12t-21 6v7h126v-7q-26 -7 -51 -21t-63 -42l-159 -117l233 -228q27 -27 39 -36q11 -8 20 -10v-7h-175v7q25 5 29 16
q5 12 -22 40l-182 179v-65q0 -63 1 -84q2 -31 6 -48t15 -24q10 -7 29 -12v-7h-172v7z" />
    <glyph glyph-name="l" unicode="l" 
d="M25 7l-3 -1q17 4 28 12q10 8 15 24t6 48q1 21 1 84v372v91q0 31 -5 49q-5 17 -15 20t-30 3v8l127 56v-598q0 -63 1 -84q2 -31 6 -48t15 -24t30 -12v-7h-176v7z" />
    <glyph glyph-name="m" unicode="m" horiz-adv-x="843" 
d="M26 7l-8 -3q17 5 26 12q10 8 14 24t6 48q1 21 1 84v86v80q0 27 -5 42q-5 14 -13 17q-11 4 -27 5v8l122 61v-104l25 22q46 40 82 59q39 21 78 21q56 0 88 -24q31 -24 39 -78l26 23q43 38 83 60q39 21 78 21q66 0 97 -31t31 -99v-166v-84q0 -30 5 -48q4 -16 14 -24
q9 -7 26 -12v-7h-173v7q19 5 30 12t15 24t6 48q1 21 1 84v183q0 53 -20 75q-19 21 -54 21q-29 0 -60 -16q-33 -17 -78 -58l-25 -22v-183v-84q0 -30 5 -48q4 -16 14 -24q9 -7 26 -12v-7h-172v7q19 5 30 12t15 24t6 48q1 21 1 84v183q0 55 -19 75q-20 21 -54 21q-28 0 -60 -17
q-30 -16 -76 -57l-25 -22v-183q0 -63 1 -84q2 -31 6 -48t15 -24q10 -7 29 -12v-7h-172v7z" />
    <glyph glyph-name="n" unicode="n" horiz-adv-x="552" 
d="M26 7l-2 -1q17 5 26 12q10 8 14 24t6 48q1 21 1 84v86v80q0 27 -5 42q-5 14 -13 17q-11 4 -27 5v8l122 61v-119l45 41q40 36 78 56q39 21 81 21q68 0 99 -31t31 -99v-166v-84q0 -30 5 -48q4 -16 14 -24q9 -7 26 -12v-7h-172v7q19 5 29 12q10 8 15 24t6 48q1 21 1 84v183
q0 54 -21 75t-57 21q-31 0 -63 -17q-30 -16 -73 -54l-45 -40v-169q0 -63 1 -84q2 -31 6 -48t15 -24q10 -7 29 -12v-7h-172v7z" />
    <glyph glyph-name="o" unicode="o" horiz-adv-x="560" 
d="M279 -10v-1q-44 0 -86 16q-43 16 -80 47t-59 75q-23 46 -23 103q0 56 23 102q23 45 59 77q36 31 80 48q45 17 86 17t87 -17q45 -17 81 -48q35 -31 60 -77q24 -45 24 -102q0 -58 -24 -103t-60 -75q-35 -29 -81 -46q-44 -16 -87 -16zM279 -3l-1 -2q32 0 64 12q31 12 55 39
q25 28 38 72q14 47 14 111q0 62 -14 109t-37 74q-24 29 -55 42q-33 14 -64 14q-34 0 -63 -13q-31 -14 -53 -42q-23 -29 -36 -73q-14 -47 -14 -109q0 -64 14 -111q13 -45 36 -72q22 -27 53 -39q30 -12 63 -12z" />
    <glyph glyph-name="p" unicode="p" horiz-adv-x="582" 
d="M22 -159v3q17 5 26 12q10 8 14 24t6 48q1 21 1 84v252v80q0 27 -5 42q-5 14 -13 17q-11 4 -27 5v8l122 61v-117l19 19q41 41 83 68t92 27q42 0 80 -15t66 -45t45 -75q17 -46 17 -103q0 -63 -19 -108q-19 -46 -52 -76t-77 -45t-93 -15q-29 0 -73 11q-41 10 -88 45v-39
q0 -63 1 -84q1 -31 6 -48t15 -24t30 -12v-7h-176v7zM144 350l3 -289q49 -37 90 -48q39 -10 69 -10t60 9q29 9 52 35q22 25 36 69q14 45 14 111q0 81 -13 126q-14 48 -34 71q-21 24 -47 32q-24 7 -51 7q-42 0 -79 -25q-38 -26 -81 -69z" />
    <glyph glyph-name="q" unicode="q" horiz-adv-x="576" 
d="M381 -159l-5 -1q20 4 30 12q11 8 17 24q5 15 7 48q1 21 1 84v81l-31 -33q-29 -29 -68 -47t-88 -18q-44 0 -84 17q-37 16 -67 47q-29 30 -45 72q-16 41 -16 92q0 60 19 107t53 81q33 33 80 51t100 18q40 0 72 -9t54 -18q24 -10 38 -18q15 -9 26 -9q23 0 30 37h8v-450
q0 -63 1 -84q1 -31 6 -48t13 -24q9 -7 26 -12v-7h-177v7zM110 237l1 -2q0 -73 14 -120q13 -44 35 -69t48 -32q29 -8 54 -8q39 0 75 17q35 17 63 45l31 33v263q0 25 -9 43t-32 32q-19 13 -47 21q-25 7 -61 7q-32 0 -63 -12t-55 -39t-39 -71q-15 -43 -15 -108z" />
    <glyph glyph-name="r" unicode="r" horiz-adv-x="353" 
d="M26 7l-5 -2q17 5 26 12q10 8 14 24q5 17 6 48q1 21 1 84v66v90q0 30 -5 48q-5 17 -13 20q-11 4 -27 5v8l122 61v-137l65 69q34 34 51 47q19 15 48 15q19 0 27 -9q8 -10 8 -23t-8 -23q-8 -9 -21 -9q-18 0 -34 8t-30 8q-13 0 -21 -6q-5 -4 -18 -17l-65 -69v-150
q0 -63 1 -84q2 -31 6 -48t15 -24q10 -7 29 -12v-7h-172v7z" />
    <glyph glyph-name="s" unicode="s" horiz-adv-x="419" 
d="M203 0l-7 -4q70 0 101 30q32 30 32 74q0 24 -7 39q-8 17 -24 29q-19 13 -43 23q-27 11 -66 18q-79 17 -120 45q-40 28 -40 86q0 31 14 57q13 25 38 42q26 18 55 26q32 9 66 9q31 0 48 -4q22 -5 33 -10q5 -2 13.5 -5.5t10.5 -4.5q9 -4 20 -4q16 0 19 16h9v-97h-9
q-16 53 -51 75q-35 23 -93 23q-59 0 -93 -22t-34 -67q0 -21 8 -35q7 -13 23 -24q15 -10 41 -18q24 -7 62 -15q89 -20 132 -51t43 -90q0 -35 -15 -63q-15 -29 -40 -48q-26 -20 -58 -30q-31 -10 -69 -10q-32 0 -55 6q-25 7 -39 13q-3 2 -13.5 6.5t-15.5 6.5q-12 6 -24 6
q-17 0 -20 -18h-10v126h9q13 -63 56 -100q42 -36 113 -36z" />
    <glyph glyph-name="t" unicode="t" horiz-adv-x="270" 
d="M165 -5l-2 -5q-49 0 -75 27q-26 28 -26 72v363h-43v8q19 3 37 12t33 27q14 16 25 44q10 25 15 63h9v-142h110v-10h-110v-333q0 -57 9 -84t43 -27q23 0 39 10q17 10 24 21l5 -4q-7 -11 -29 -27q-21 -15 -64 -15z" />
    <glyph glyph-name="u" unicode="u" horiz-adv-x="543" 
d="M198 -8l-3 -1q-66 0 -97 31t-31 99v122v90q0 30 -5 48q-5 17 -13 20q-11 4 -27 5v8l122 61v-391q0 -45 20 -60t54 -15q26 0 60 12q33 12 87 56l30 26v139v90q0 30 -5 48q-5 17 -13 20q-11 4 -27 5v8l122 61v-299q0 -63 1 -84q2 -33 7 -48q6 -17 18 -24q12 -8 34 -12v-7
h-135v92l-30 -26q-47 -41 -88 -58q-39 -16 -81 -16z" />
    <glyph glyph-name="v" unicode="v" horiz-adv-x="481" 
d="M73 355l4 4q-13 31 -24 51t-18 30t-15 15q-10 6 -16 8v7h152v-7q-11 -1 -19 -6q-7 -5 -9 -15q-2 -12 4 -30q5 -15 20 -51l125 -280l115 256q19 43 23 64q5 24 0 36q-5 13 -16 17q-12 4 -27 6v7h116v-7q-14 -4 -21 -7q-9 -5 -18 -18q-10 -15 -21 -37q-14 -28 -30 -64
l-152 -339h-12z" />
    <glyph glyph-name="w" unicode="w" horiz-adv-x="709" 
d="M72 355l2 2q-14 31 -24 51q-10 18 -20 30q-8 10 -17 15t-17 8v7h159v-7q-13 -1 -21 -6t-9 -15q-1 -9 5 -30q6 -20 18 -51l110 -277l98 207l-27 67q-13 32 -24 51q-11 21 -19 30q-9 11 -18 15q-12 6 -19 8v7h156v-7q-13 -2 -21 -6q-7 -4 -7 -15t6 -30t18 -51l111 -274
l106 252q17 41 21 64q5 25 2 36q-3 12 -14 17q-10 4 -26 6v7h115v-7q-14 -3 -21 -7q-10 -5 -18 -16q-9 -12 -21 -36q-10 -21 -28 -64l-143 -341h-12l-114 282l-132 -282h-12z" />
    <glyph glyph-name="x" unicode="x" horiz-adv-x="492" 
d="M11 7l-4 2q22 7 33 13q12 7 25 18q14 12 26 27q4 5 16 19t19 23l89 115l-99 135q-16 22 -38 51q-15 20 -27 30t-21 15q-12 6 -18 8v7h160v-7q-12 -1 -18 -6t-5 -15t12 -28q11 -19 31 -46l73 -99l74 95q21 27 33 47q11 19 11 29t-6 15t-18 6v7h106v-7q-13 -5 -24 -9
q-11 -5 -23 -15q-14 -12 -27 -28q-15 -18 -39 -48l-79 -101l108 -147q27 -36 37 -49q15 -20 27 -30q10 -8 21 -16q9 -6 18 -9v-7h-159v7q12 1 18 6t5 15q-2 10 -12 27t-30 42l-84 114l-84 -107q-38 -50 -41 -72q-3 -23 22 -27v-7h-108v7z" />
    <glyph glyph-name="y" unicode="y" horiz-adv-x="477" 
d="M117 -171l1 -5q-20 0 -29 9t-9 22q0 12 8 22q8 9 24 9t27 -6t21 -6q14 0 26 19q15 24 35 70l14 30l-162 362q-13 31 -24 51q-11 21 -19 30q-10 11 -16 15q-9 5 -18 8v6h155v-6q-11 -1 -19 -6t-9 -15q-2 -11 3 -29q4 -17 18 -49l125 -282l115 258q19 43 23 64q5 24 0 36
q-5 13 -16 17q-12 5 -27 6v6h119v-6q-10 -1 -19 -6q-8 -4 -18 -17q-9 -12 -21 -36q-14 -28 -30 -64l-165 -371q-34 -75 -58 -105q-25 -31 -55 -31z" />
    <glyph glyph-name="z" unicode="z" horiz-adv-x="444" 
d="M412 -10l2 -2q-8 4 -15 5q-8 1 -23 3q-18 2 -36 2h-55h-273l321 458h-174q-33 0 -53 -7q-21 -8 -34 -19q-12 -11 -22 -29q-9 -17 -18 -36h-8l20 111q16 -8 45 -9q19 -1 84 -1h247l-324 -458h190q33 0 57 8q23 8 36 21q14 14 23 35q11 26 20 50h7z" />
    <glyph glyph-name="braceleft" unicode="{" horiz-adv-x="311" 
d="M290 -106l-3 -8q-47 0 -83 7q-41 8 -68 22q-28 15 -45 38q-16 22 -16 54q0 30 12 63q11 31 27 64q14 29 27 62q12 30 12 56q0 13 -3 28q-3 14 -17 27t-42 20q-30 8 -78 8v8q48 0 78 8q28 7 42 20t17 27q3 15 3 29q0 26 -12 56q-13 33 -27 62q-16 33 -27 64q-12 33 -12 63
q0 31 17 54t45 38q27 14 68 22q36 7 84 7v-10q-79 0 -118 -24t-39 -85q0 -27 9 -57q6 -20 20 -60t20 -59q9 -28 9 -54q0 -41 -25 -66q-26 -26 -91 -33q67 -8 92 -33q26 -26 26 -66q0 -25 -9 -55q-6 -20 -20 -60t-20 -60q-9 -30 -9 -57q0 -62 39 -86t117 -24v-10z" />
    <glyph glyph-name="bar" unicode="|" horiz-adv-x="257" 
d="M136 820v-926h-15v926h15z" />
    <glyph glyph-name="braceright" unicode="}" horiz-adv-x="310" 
d="M21 -96l-5 1q78 0 117 24t39 86q0 27 -9 57q-6 20 -20 60t-20 60q-9 30 -9 56q0 40 26 66q25 25 92 33q-65 7 -91 33q-25 25 -25 66q0 26 9 54q6 19 20 59t20 60q9 30 9 57q0 62 -39 86t-117 24v10q47 0 83 -7q41 -8 68 -22q29 -15 45 -37q17 -23 17 -54q0 -30 -12 -63
q-11 -31 -27 -64q-16 -34 -27 -61q-12 -30 -12 -56q0 -13 3 -28q3 -14 17 -27t42 -20q30 -8 78 -8v-8q-48 0 -78 -8q-28 -7 -42 -20t-17 -27q-3 -15 -3 -28q0 -26 12 -56q11 -27 27 -61q16 -33 27 -64q12 -33 12 -63q0 -32 -16 -54t-45 -37q-27 -14 -67 -22q-36 -7 -82 -7
v10z" />
    <glyph glyph-name="asciitilde" unicode="~" horiz-adv-x="385" 
d="M122 406l-1 -4q11 0 34 -3q30 -4 46 -6q24 -3 45 -6t33 -3q8 0 23 9t30 40l7 -3q-13 -48 -33 -69t-36 -21q-14 0 -36 3q-15 2 -47 6q-24 3 -45 6t-32 3t-25 -7q-16 -8 -35 -43l-7 3q17 47 39 71q23 24 40 24z" />
    <glyph glyph-name="uni00A0" unicode="&#xa0;" horiz-adv-x="227" 
 />
    <glyph glyph-name="exclamdown" unicode="&#xa1;" 
d="M109 269h11q3 -111 10 -187q7 -82 15 -148q10 -88 13 -108q6 -44 6 -64q0 -27 -14 -43q-14 -15 -36 -15t-36 15q-14 16 -14 43q0 20 6 64q9 67 14 108q8 66 15 148q7 76 10 187zM114 470h1q22 0 35 -13q14 -14 14 -34q0 -21 -14 -35t-35 -14q-19 0 -35 14q-15 14 -15 35
t15 34q14 13 34 13z" />
    <glyph glyph-name="cent" unicode="&#xa2;" horiz-adv-x="472" 
d="M274 571v-90h8q32 0 65 -5q29 -4 53 -14q23 -9 36 -22q14 -14 14 -30q0 -12 -8 -25q-8 -12 -27 -12q-11 0 -19 5q-8 4 -12 12q-4 6 -7 18q-2 7 -8 23q-9 21 -25 30t-60 9h-9v-460h13q57 0 96 18t65 50l7 -7q-28 -34 -73 -55t-109 -21v-94h-13v94q-42 1 -85 20
q-41 18 -75 50q-33 31 -54 75t-21 98q0 51 21 93q21 43 55 72q35 30 76 48q43 19 83 23v97h13zM104 245v1q0 -61 12 -103t33 -69t50 -41q28 -13 62 -18v458q-30 -3 -57 -16q-29 -14 -51 -40q-23 -27 -36 -69q-13 -40 -13 -103z" />
    <glyph glyph-name="sterling" unicode="&#xa3;" horiz-adv-x="580" 
d="M113 58v-4q30 25 52 59q21 31 21 60q0 22 -5 47q-4 20 -14 45h-108v11h104q-5 13 -17 39t-19 39h-67v11h62q-21 44 -35 84q-15 43 -15 93q0 46 21 85q21 38 57 67q37 29 84 44q48 15 102 15q56 0 95 -12q41 -13 65 -28q27 -17 38 -34q12 -18 12 -30q0 -13 -9 -24t-25 -11
q-18 0 -31 11q-11 10 -16 26q-4 9 -8 21q-5 16 -18 32q-15 18 -37 29q-24 12 -66 12q-46 0 -82 -17q-35 -17 -56 -45q-20 -27 -31 -66q-10 -36 -10 -80q0 -46 12 -88q10 -34 26 -81h226v-11h-222q10 -26 14 -39q8 -26 11 -39h196v-11h-193l3 -24q2 -16 2 -24q0 -28 -9 -51
q-10 -24 -22 -42q-13 -18 -30 -34q-22 -20 -33 -29h192q56 0 112 2q40 1 66 8q24 6 35 17t18 30h9l-22 -84q-8 -23 -12 -30t-21 -7h-467z" />
    <glyph glyph-name="yen" unicode="&#xa5;" horiz-adv-x="633" 
d="M222 7l-2 2q18 5 30 12t18 27t9 57q2 29 4 102h-191v11h191v80h-191v11h191v53l-155 262q-25 38 -34 51q-17 24 -27 35q-12 14 -25 21q-14 7 -30 12v6h183v-6q-21 -5 -27 -21t18 -55l169 -284l140 240q17 25 27 45q11 21 14 35q3 15 -3 25t-23 16v6h112v-6q-7 -3 -23 -11
q-10 -5 -25 -20q-14 -13 -30 -36q-14 -18 -37 -57l-144 -247v-66h192v-11h-192v-80h192v-11h-192q2 -73 4 -102q3 -37 9 -57t18 -27t30 -12v-7h-200v7z" />
    <glyph glyph-name="brokenbar" unicode="&#xa6;" horiz-adv-x="257" 
d="M136 820v-380h-15v380h15zM136 -106h-15v380h15v-380z" />
    <glyph glyph-name="section" unicode="&#xa7;" horiz-adv-x="559" 
d="M258 -146l-11 -4q38 0 66 11q26 10 45 29q18 18 27 44t9 54q0 25 -10 45q-10 21 -33 45q-24 25 -58 51q-52 39 -85 62q-42 28 -81 59q-37 29 -59 51q-24 24 -36 51t-12 59q0 24 8 46t21 38q15 18 30 29q18 13 34 21q-14 33 -14 67q0 38 15 68q15 31 42 50q27 20 63 30
q38 11 76 11q42 0 75 -9q31 -8 55 -23q22 -13 34 -30t12 -30q0 -11 -7 -18q-8 -8 -21 -8q-17 0 -26 9q-10 10 -14 24q-3 8 -9 26q-4 13 -15 25q-10 11 -30 19q-21 8 -51 8q-66 0 -105 -30t-39 -82q0 -24 8 -45q7 -19 26 -39q18 -20 48 -42q16 -12 74 -52q19 -13 53 -37
t49 -34q45 -31 72 -58q29 -29 42 -55q14 -28 14 -60q0 -38 -25 -78t-66 -66q11 -28 11 -56q0 -39 -15 -72q-15 -32 -42 -58q-27 -25 -65 -39q-39 -14 -81 -14q-45 0 -81 12t-62 32q-26 19 -39 42q-13 22 -13 42q0 12 7 20q7 9 21 9q17 0 24 -10q8 -10 12 -24q8 -28 15 -47
q7 -21 21 -36t36 -24t60 -9zM252 256l1 -1q75 -53 120 -90q46 -38 65 -75q20 17 29 39q9 23 9 42q0 31 -12 56q-12 26 -37 51q-29 28 -67 56q-55 39 -102 71q-50 35 -90 68q-35 30 -54 62q-22 -11 -35 -30q-14 -20 -14 -51q0 -27 10 -47t33 -43q24 -24 58 -48q5 -4 86 -60z
" />
    <glyph glyph-name="dieresis" unicode="&#xa8;" horiz-adv-x="446" 
d="M308 562v-1q-18 0 -30 12t-12 32q0 18 12 30t30 12t30 -12t12 -30q0 -19 -12 -31t-30 -12zM138 561v-1q-18 0 -30 12t-12 32q0 18 12 30t30 12t30 -12t12 -30q0 -19 -12 -31t-30 -12z" />
    <glyph glyph-name="copyright" unicode="&#xa9;" horiz-adv-x="836" 
d="M419 759v-1q79 0 150 -30t123 -82q53 -53 83 -123q30 -71 30 -150t-30 -150q-30 -70 -83 -123t-123 -83q-71 -30 -150 -30t-150 30q-70 30 -123 83t-83 123q-30 71 -30 150t30 150q30 70 83 123t123 83q71 30 150 30zM419 -3l-1 -2q76 0 145 30t120 81t81 120t30 147
t-30 147t-81 120t-120 81t-145 30q-75 0 -145 -29q-68 -28 -120 -80q-51 -51 -81 -120t-30 -148t30 -148t81 -120q52 -52 120 -80q70 -29 146 -29zM430 148h-8q-48 0 -87 15q-40 15 -68 45q-29 31 -44 72q-15 42 -15 93q0 56 20 99q20 42 51 69q33 28 70 41q40 14 78 14
q29 0 45 -4t31 -9t23 -9t20 -4t17 17h6v-102h-6q-17 54 -51 78t-84 24q-32 0 -59 -12t-46 -37t-31 -64t-12 -93q0 -63 13 -103q13 -42 36 -69q22 -27 50 -39q27 -12 56 -12q54 0 88 20t50 42l4 -5q-10 -14 -19 -23q-11 -11 -30 -22q-17 -10 -42 -16q-24 -6 -56 -6z" />
    <glyph glyph-name="ordfeminine" unicode="&#xaa;" horiz-adv-x="352" 
d="M117 391l1 -6q-42 0 -69 18t-27 56q0 26 9 41q10 16 25 26q16 10 39 18t48 18l44 19q39 17 48 33t9 27v38q0 20 -7 31q-7 12 -19 19q-11 7 -25 10q-13 3 -27 3q-13 0 -27 -2q-9 -1 -18 -5q-6 -3 -10 -8q0 -1 -2.5 -5t-4.5 -6q-8 -15 -15 -23q-7 -9 -21 -9q-23 0 -23 22
q0 11 10 20q11 9 27 15t39 9t48 3q24 0 48 -3q25 -3 44 -12q20 -9 33 -25t13 -43v-167q0 -25 2 -51q1 -17 5 -30q3 -10 9 -15q5 -4 16 -4q16 0 28 9l3 -7q-4 -3 -18 -9t-36 -6q-40 0 -57 18q-16 17 -16 45l-18 -16q-21 -19 -45 -32q-26 -14 -63 -14zM86 468l-1 -2
q0 -35 14 -52q13 -16 39 -16q24 0 46 11t41 30l19 18v160q-4 -7 -16 -19t-40 -24l-39 -17q-34 -14 -48 -34q-15 -21 -15 -55z" />
    <glyph glyph-name="guillemotleft" unicode="&#xab;" horiz-adv-x="379" 
d="M182 226v8l138 159l6 -4l-84 -159l85 -159l-6 -4zM58 226v8l138 159l6 -4l-83 -159l84 -159l-6 -4z" />
    <glyph glyph-name="registered" unicode="&#xae;" horiz-adv-x="510" 
d="M256 758q46 0 87 -18t71 -48t48 -71t18 -87t-18 -87t-48 -71t-71 -48t-87 -18t-87 18t-71 48t-48 71t-18 87t18 87t48 71t71 48t87 18zM256 318l-1 -3q43 0 83 17q41 17 68 46q28 30 45 69q17 40 17 84t-17 84t-45 68t-68 45t-83 17q-45 0 -83 -16q-39 -17 -69 -45
q-29 -27 -46 -68q-17 -40 -17 -84q0 -45 17 -85q17 -39 47 -68t69 -45q38 -16 83 -16zM163 429l-3 -3q6 2 10 4q5 3 6 10q2 10 2 21v39v76v38q0 11 -2 21q-2 8 -6 11q-4 2 -10 4v4h99q49 0 71 -15q23 -15 23 -40q0 -17 -7 -28q-7 -12 -19 -19q-13 -8 -27 -11q-15 -3 -31 -3
h-10q21 -5 32 -16t19 -38q6 -28 15 -42q9 -13 24 -13q14 0 20 8l2 -3q-5 -4 -12 -9q-7 -4 -21 -4q-19 0 -36 11q-16 10 -24 48q-1 7 -8 33q-3 11 -8 18q-4 5 -12 7q-5 1 -19 1h-16v-36v-39q0 -11 2 -21q1 -7 6 -10q4 -2 10 -4v-4h-70v4zM212 649l-1 -109h55q25 0 39 14
q13 13 13 39q0 27 -13 41q-13 15 -48 15h-45z" />
    <glyph glyph-name="macron" unicode="&#xaf;" horiz-adv-x="446" 
d="M331 614v-34h-211v34h211z" />
    <glyph glyph-name="degree" unicode="&#xb0;" horiz-adv-x="272" 
d="M135 758v-1q42 0 70 -28t28 -70q0 -44 -28 -72q-29 -29 -70 -29q-42 0 -69 30t-27 72q0 40 27 69t69 29zM51 658v-2q0 -18 6 -34q6 -17 18 -29q13 -13 27 -20t33 -7q37 0 61 27t24 64t-24 63t-61 26q-19 0 -33 -7q-16 -8 -27 -19q-12 -12 -18 -28t-6 -34z" />
    <glyph glyph-name="twosuperior" unicode="&#xb2;" horiz-adv-x="338" 
d="M195 511l-3 -2q39 0 52 1q22 2 30 4q10 3 15 9q4 5 9 17h6l-16 -58q-4 -12 -6 -16q-2 -3 -9 -3h-248l113 110q47 46 69 86q21 39 21 84q0 19 -3 36q-3 15 -11 28q-8 12 -22 18q-15 6 -37 6q-21 0 -33 -6q-11 -6 -18 -14q-6 -8 -9 -16l-2.5 -7.5t-1.5 -5.5q-2 -11 -7 -18
q-6 -7 -19 -7q-25 0 -25 23q0 10 7 20t21 19q13 9 35 15q21 6 51 6q28 0 52 -6q26 -6 42 -16q17 -10 28 -29q10 -17 10 -42q0 -27 -10 -48q-11 -24 -27 -44q-18 -23 -39 -41q-34 -30 -48 -41l-78 -62h111z" />
    <glyph glyph-name="threesuperior" unicode="&#xb3;" horiz-adv-x="360" 
d="M75 822l-3 -2q2 9 3 12t6 3h231v-5l-154 -142q8 3 18 6t24 3q29 0 51 -7q24 -8 42 -21q19 -14 29 -34q11 -22 11 -48q0 -21 -11 -45q-10 -22 -30 -40q-19 -17 -48 -28q-30 -11 -66 -11q-28 0 -51 6t-39 15t-24 20t-8 21q0 9 6 15t17 6q13 0 17 -6q5 -7 8 -17l5 -15
q3 -8 11 -18q8 -9 21 -15t36 -6q26 0 46 11t32 27t18 38q6 21 6 42q0 44 -18 74t-58 30q-27 0 -42 -9t-31 -22l-4 4l135 125h-86h-57q-20 0 -30 -3t-15 -9q-5 -7 -9 -16h-7z" />
    <glyph glyph-name="acute" unicode="&#xb4;" horiz-adv-x="446" 
d="M145 543l102 146q19 27 42 27q14 0 20 -8t6 -18q0 -11 -6 -20q-7 -10 -15 -17l-145 -116z" />
    <glyph glyph-name="paragraph" unicode="&#xb6;" horiz-adv-x="528" 
d="M250 372l-1 -8q-50 0 -92 12t-72 36q-31 25 -47 60q-17 37 -17 84t17 84q17 36 47 59q31 23 72 35q42 12 93 12h261v-7q-21 -6 -33 -15t-18 -38q-5 -26 -7 -83q-1 -36 -1 -150v-221q0 -97 -19 -158q-20 -65 -52 -101q-33 -38 -76 -54q-42 -16 -93 -16q-36 0 -57 12
t-21 34q0 15 9 24t23 9q19 0 31 -9q8 -6 22 -20t21 -20q10 -9 30 -9q18 0 42 11q23 11 41 39q18 29 30 79q12 51 12 130v557h-81v-368h-64z" />
    <glyph glyph-name="periodcentered" unicode="&#xb7;" horiz-adv-x="188" 
d="M95 232v-2q-20 0 -36 14q-15 14 -15 35t15 35q16 14 36 14q19 0 33 -14t14 -35q0 -20 -14 -34q-13 -13 -33 -13z" />
    <glyph glyph-name="cedilla" unicode="&#xb8;" horiz-adv-x="446" 
d="M252 0l-39 -58q42 -4 72 -24t30 -51q0 -75 -156 -80l-1 8q58 5 84 21q25 16 25 36q0 22 -24 34q-25 13 -62 14l-3 5l63 95h11z" />
    <glyph glyph-name="onesuperior" unicode="&#xb9;" horiz-adv-x="254" 
d="M66 465l-1 7q15 2 24 6q8 4 13 18q4 13 6 38q2 32 2 68v88q0 34 -1 45q-1 17 -6 24q-5 8 -13 9q-12 2 -25 2v6l97 66v-242q0 -52 1 -68q1 -23 6 -37t13 -18q9 -5 24 -6v-6h-140z" />
    <glyph glyph-name="ordmasculine" unicode="&#xba;" horiz-adv-x="415" 
d="M206 386h-2q-31 0 -64 12q-32 12 -60 35q-27 22 -45 56q-18 33 -18 77t18 78t45 60t60 39q32 13 65 13t66 -13q35 -14 62 -39q27 -26 45 -60t18 -78t-18 -77q-18 -34 -45 -56q-28 -24 -61 -35q-34 -12 -66 -12zM204 394l-3 -2q25 0 47 9q21 8 40 29q19 20 29 53
q11 35 11 83t-11 84t-28 56q-19 22 -40 32t-46 10q-24 0 -45 -10q-22 -10 -40 -31q-17 -20 -28 -56q-10 -33 -10 -84q0 -48 11 -83t28 -53q18 -19 40 -28q23 -9 45 -9z" />
    <glyph glyph-name="guillemotright" unicode="&#xbb;" horiz-adv-x="379" 
d="M52 71l84 159l-83 159l6 4l138 -159v-8l-139 -159zM176 71l84 159l-83 159l6 4l137 -159v-8l-138 -159z" />
    <glyph glyph-name="onequarter" unicode="&#xbc;" horiz-adv-x="503" 
d="M337 -5h-1q0 -20 2 -38q1 -12 5 -21q3 -8 9 -11q8 -4 15 -5v-6h-116v6q7 1 15 5q6 3 9 11q4 9 5 21q1 13 3 38h-190v5l224 287h20v-251h73l-21 -41h-52zM282 36v195l-152 -195h152zM49 379h403v-8h-403v8zM180 465l-1 7q15 2 24 6q8 4 13 18q4 13 6 38q2 32 2 68v88
q0 34 -1 45q-1 17 -6 24q-5 8 -13 9q-12 2 -25 2v6l97 66v-242q0 -52 1 -68q1 -23 6 -37t13 -18q9 -5 24 -6v-6h-140z" />
    <glyph glyph-name="onehalf" unicode="&#xbd;" horiz-adv-x="503" 
d="M50 379h403v-8h-403v8zM181 465l-1 7q15 2 24 6q8 4 13 18q4 13 6 38q2 32 2 68v88q0 34 -1 45q-2 17 -6 24q-5 8 -13 9q-12 2 -25 2v6l97 66v-242q0 -52 1 -68q1 -23 6 -37t13 -18q9 -5 24 -6v-6h-140zM279 -40l-3 -2q39 0 52 1q22 2 30 4q10 3 15 9q4 5 9 17h6l-16 -58
q-4 -12 -6 -16q-2 -3 -9 -3h-248l113 110q47 46 69 86q21 39 21 84q0 20 -3 36q-3 15 -11 28q-8 12 -22 18q-15 6 -37 6q-21 0 -33 -6q-11 -6 -18 -14q-6 -8 -9 -16l-2.5 -7.5t-1.5 -5.5q-2 -11 -7 -18q-6 -7 -19 -7q-25 0 -25 23q0 10 7 20t21 19q13 9 35 15q21 6 51 6
q28 0 52 -6q26 -6 42 -16q17 -10 28 -29q10 -17 10 -42q0 -27 -10 -48q-11 -24 -27 -44q-18 -23 -39 -41q-34 -30 -48 -41l-78 -62h111z" />
    <glyph glyph-name="threequarters" unicode="&#xbe;" horiz-adv-x="503" 
d="M337 -5h-1q0 -20 2 -38q1 -12 5 -21q3 -8 9 -11q8 -4 15 -5v-6h-116v6q7 1 15 5q6 3 9 11q4 9 5 21q1 13 3 38h-190v5l224 287h20v-251h73l-21 -41h-52zM282 36v195l-152 -195h152zM49 379h403v-8h-403v8zM130 822l-3 -2q1 9 3 12t6 3h231v-5l-154 -142q7 3 18 6t24 3
q29 0 51 -7q24 -8 42 -21q19 -14 29 -34q11 -22 11 -48q0 -21 -11 -45q-10 -22 -30 -40q-19 -17 -48 -28q-30 -11 -66 -11q-29 0 -51 6t-39 15q-16 9 -24 20t-8 21q0 9 6 15t17 6q12 0 17 -6q5 -7 8 -17l5 -15q3 -8 11 -18q7 -9 21 -15t36 -6q26 0 46 11t32 27t18 38
q6 21 6 42q0 44 -18 74t-58 30q-27 0 -42 -9t-31 -22l-4 4l135 125h-86h-57q-19 0 -30 -3t-15 -9q-5 -7 -9 -16h-7z" />
    <glyph glyph-name="questiondown" unicode="&#xbf;" horiz-adv-x="398" 
d="M261 270v-2q-2 -46 -13 -82q-12 -39 -28 -70q-14 -28 -35 -63q-16 -27 -34 -61q-17 -32 -27 -64q-10 -31 -10 -72t9 -68q9 -28 25 -44q17 -17 37 -23q21 -6 48 -6q25 0 38 10q14 11 21 25q6 11 9 19q2 6 8 16q5 7 12 12q7 4 21 4q16 0 25 -10q9 -11 9 -24q0 -22 -35 -42
q-34 -19 -110 -19q-38 0 -74 9q-35 9 -63 29t-44 49t-16 70q0 37 15 70q16 35 37 63q20 27 50 60q27 30 51 63q25 34 42 70t22 81h10zM245 469q20 0 34 -13q15 -13 15 -34q0 -22 -15 -35q-16 -14 -34 -14q-21 0 -35 14t-14 35q0 20 14 34q13 13 35 13z" />
    <glyph glyph-name="Agrave" unicode="&#xc0;" horiz-adv-x="768" 
d="M11 6l-5 -2q16 6 23 10q11 6 21 19q12 16 23 36q12 23 27 60l234 555q-8 16 -15 27q-8 12 -15 17q-8 6 -16 9q-12 4 -19 6v6h111q8 0 11 -3q2 -2 7 -12l269 -609q4 -8 10 -22t9 -20q8 -17 18 -34q8 -14 21 -25q11 -10 29 -18v-7h-164v7q26 8 26 27t-18 60l-64 144h-375
l-46 -108q-6 -15 -12 -33t-6 -35q0 -15 8 -31q7 -15 30 -24v-6h-122v6zM527 244l-187 426l-181 -426h368zM262 823v-2q-42 13 -42 39q0 10 7 17q8 8 19 8t20 -3q12 -4 17 -7l165 -95l-3 -6z" />
    <glyph glyph-name="Aacute" unicode="&#xc1;" horiz-adv-x="768" 
d="M11 6l-5 -2q16 6 23 10q11 6 21 19q12 16 23 36q12 23 27 60l234 555q-8 16 -15 27q-8 12 -15 17q-8 6 -16 9q-12 4 -19 6v6h111q8 0 11 -3q2 -2 7 -12l269 -609q4 -8 10 -22t9 -20q8 -17 18 -34q8 -14 21 -25q11 -10 29 -18v-7h-164v7q26 8 26 27t-18 60l-64 144h-375
l-46 -108q-6 -15 -12 -33t-6 -35q0 -15 8 -31q7 -15 30 -24v-6h-122v6zM527 244l-187 426l-181 -426h368zM245 780l165 96q9 5 17 8q9 3 20 3t19 -8q7 -7 7 -17q0 -26 -42 -39l-183 -49z" />
    <glyph glyph-name="Acircumflex" unicode="&#xc2;" horiz-adv-x="768" 
d="M11 6l-5 -2q16 6 23 10q11 6 21 19q12 16 23 36q12 23 27 60l234 555q-8 16 -15 27q-8 12 -15 17q-8 6 -16 9q-12 4 -19 6v6h111q8 0 11 -3q2 -2 7 -12l269 -609q4 -8 10 -22t9 -20q8 -17 18 -34q8 -14 21 -25q11 -10 29 -18v-7h-164v7q26 8 26 27t-18 60l-64 144h-375
l-46 -108q-6 -15 -12 -33t-6 -35q0 -15 8 -31q7 -15 30 -24v-6h-122v6zM527 244l-187 426l-181 -426h368zM350 884l134 -106l-4 -5l-130 50l-130 -50l-4 5z" />
    <glyph glyph-name="Atilde" unicode="&#xc3;" horiz-adv-x="768" 
d="M11 6l-5 -2q16 6 23 10q11 6 21 19q12 16 23 36q12 23 27 60l234 555q-8 16 -15 27q-8 12 -15 17q-8 6 -16 9q-12 4 -19 6v6h111q8 0 11 -3q2 -2 7 -12l269 -609q4 -8 10 -22t9 -20q8 -17 18 -34q8 -14 21 -25q11 -10 29 -18v-7h-164v7q26 8 26 27t-18 60l-64 144h-375
l-46 -108q-6 -15 -12 -33t-6 -35q0 -15 8 -31q7 -15 30 -24v-6h-122v6zM527 244l-187 426l-181 -426h368zM310 870v5q10 0 26 -3q11 -2 35 -6t35 -6q17 -3 26 -3q8 0 23 9t32 41l7 -2q-13 -47 -35 -72q-21 -24 -38 -24q-4 0 -28 2q-12 1 -36 5q-25 4 -34 5q-22 2 -24 2
q-9 0 -25 -9t-39 -44l-6 2q17 50 39 74t42 24z" />
    <glyph glyph-name="Adieresis" unicode="&#xc4;" horiz-adv-x="768" 
d="M11 6l-5 -2q16 6 23 10q11 6 21 19q12 16 23 36q12 23 27 60l234 555q-8 16 -15 27q-8 12 -15 17q-8 6 -16 9q-12 4 -19 6v6h111q8 0 11 -3q2 -2 7 -12l269 -609q4 -8 10 -22t9 -20q8 -17 18 -34q8 -14 21 -25q11 -10 29 -18v-7h-164v7q26 8 26 27t-18 60l-64 144h-375
l-46 -108q-6 -15 -12 -33t-6 -35q0 -15 8 -31q7 -15 30 -24v-6h-122v6zM527 244l-187 426l-181 -426h368zM453 779v-1q-19 0 -31 12t-12 32q0 18 12 30t31 12q17 0 29 -12t12 -30q0 -19 -12 -31t-29 -12zM243 778v-1q-17 0 -29 12t-12 32q0 18 12 30t29 12q19 0 31 -12
t12 -30q0 -19 -12 -31t-31 -12z" />
    <glyph glyph-name="Aring" unicode="&#xc5;" horiz-adv-x="768" 
d="M11 6l-5 -2q16 6 23 10q11 6 21 19q12 16 23 36q12 23 27 60l234 555q-8 16 -15 27q-8 12 -15 17q-8 6 -16 9q-12 4 -19 6v6h111q8 0 11 -3q2 -2 7 -12l269 -609q4 -8 10 -22t9 -20q8 -17 18 -34q8 -14 21 -25q11 -10 29 -18v-7h-164v7q26 8 26 27t-18 60l-64 144h-375
l-46 -108q-6 -15 -12 -33t-6 -35q0 -15 8 -31q7 -15 30 -24v-6h-122v6zM527 244l-187 426l-181 -426h368zM270 851v-2q0 35 24 57q25 23 56 23q33 0 56 -22q24 -23 24 -57q0 -19 -7 -33t-18 -25q-10 -10 -25 -16t-31 -6t-31 6q-13 5 -25 17t-17 25q-6 15 -6 33zM305 849v-1
q0 -34 12 -52t32 -18t33 19t13 52q0 32 -13 51q-14 20 -33 20q-20 0 -32 -20t-12 -51z" />
    <glyph glyph-name="AE" unicode="&#xc6;" horiz-adv-x="1082" 
d="M1010 750l-7 -4q7 0 12 -3t6 -19l16 -91h-10q-20 62 -55 83q-36 21 -95 21h-263v-322h119q33 0 48 7q17 8 26 18t12 24l6 26h10v-157h-10l-6 26q-3 13 -12 24q-9 10 -26 18q-15 7 -48 7h-119v-401h282q32 0 56 3q25 3 44 15t33 35q14 24 23 62h10l-12 -106q-2 -14 -6 -15
q-6 -2 -12 -2h-556v7q19 6 31 15t18 33q7 26 8 68q2 58 2 120h-332l-81 -115q-12 -18 -21 -36q-10 -19 -11 -34q-2 -17 6 -30q8 -14 28 -21v-6h-123v6q11 4 21 12t24 21q15 15 30 34q13 16 39 53l387 551q12 18 15 30q3 11 -2 19t-15 11q-9 3 -26 6v7h536zM533 247v465
l-326 -465h326z" />
    <glyph glyph-name="Ccedilla" unicode="&#xc7;" horiz-adv-x="743" 
d="M420 -7l1 -8q-88 0 -160 32q-71 31 -120 84t-75 120q-26 69 -26 141q0 94 35 167q35 74 91 122q57 49 128 75q69 25 144 25q55 0 87 -7q33 -7 59 -17q12 -5 42 -17q17 -7 37 -7q23 0 30 28h10v-153h-10q-21 86 -90 126q-68 40 -165 40q-66 0 -123 -21q-56 -20 -97 -65
q-40 -43 -64 -111q-24 -67 -24 -160q0 -103 26 -176q26 -72 69 -117t99 -66t114 -21q56 0 99 12t75 30t54 39q23 21 38 41l7 -6q-13 -18 -38 -42q-24 -23 -60 -42t-84 -33q-46 -13 -109 -13zM405 -8l-39 -58q42 -4 72 -24t30 -51q0 -75 -156 -80l-1 8q59 5 84 21t25 36
q0 22 -24 34q-25 13 -62 14l-3 5l63 95h11z" />
    <glyph glyph-name="Egrave" unicode="&#xc8;" horiz-adv-x="632" 
d="M251 825v-2q-42 13 -42 39q0 10 7 17q8 8 19 8t20 -3q12 -4 17 -7l165 -95l-3 -6zM16 5v-4q22 6 33 16q12 11 18 39q5 26 7 82q2 72 2 148v168q0 112 -1 148q-2 57 -7 83q-6 29 -18 38t-33 15v7h543q8 0 12 -3q5 -3 6 -19l16 -91h-10q-10 32 -24 51q-15 21 -31 32
q-17 11 -42 16q-27 5 -54 5h-277v-322h128q33 0 48 7q17 8 26 18q9 11 12 24l6 26h10v-157h-10l-6 26q-3 14 -12 24t-26 18q-15 7 -48 7h-128v-401h296q32 0 56 3t42 15t32 35q14 24 23 62h10l-11 -106q-2 -13 -6 -15q-6 -2 -12 -2h-570v7z" />
    <glyph glyph-name="Eacute" unicode="&#xc9;" horiz-adv-x="632" 
d="M234 782l165 96q9 5 17 8q9 3 20 3t19 -8q7 -7 7 -17q0 -26 -42 -39l-183 -49zM16 8v-4q22 6 33 16q12 10 18 39q5 26 7 82q2 72 2 148v168q0 112 -1 148q-2 57 -7 83q-6 29 -18 38t-33 15v7h543q8 0 12 -3q5 -3 6 -19l16 -91h-10q-10 31 -24 51q-15 21 -31 32
q-17 11 -42 16q-27 5 -54 5h-277v-322h128q33 0 48 7q17 8 26 18t12 24l6 26h10v-157h-10l-6 26q-3 13 -12 24q-9 10 -26 18q-15 7 -48 7h-128v-401h296q32 0 56 3t42 15t32 35q14 24 23 62h10l-11 -106q-2 -14 -6 -15q-6 -2 -12 -2h-570v7z" />
    <glyph glyph-name="Ecircumflex" unicode="&#xca;" horiz-adv-x="632" 
d="M334 886l134 -106l-4 -5l-130 50l-130 -50l-4 5zM16 7v-4q22 6 33 16q12 11 18 39q5 26 7 82q2 72 2 148v168q0 112 -1 148q-2 57 -7 83q-6 29 -18 38t-33 15v7h543q8 0 12 -3q5 -3 6 -19l16 -91h-10q-10 32 -24 51q-15 21 -31 32q-17 11 -42 16q-27 5 -54 5h-277v-322
h128q33 0 48 7q17 8 26 18q9 11 12 24l6 26h10v-157h-10l-6 26q-3 14 -12 24t-26 18q-15 7 -48 7h-128v-401h296q32 0 56 3t42 15t32 35q14 24 23 62h10l-11 -106q-2 -13 -6 -15q-6 -2 -12 -2h-570v7z" />
    <glyph glyph-name="Edieresis" unicode="&#xcb;" horiz-adv-x="632" 
d="M16 7v-4q22 6 33 16q12 11 18 39q5 26 7 82q2 72 2 148v168q0 112 -1 148q-2 57 -7 83q-6 29 -18 38t-33 15v7h543q8 0 12 -3q5 -3 6 -19l16 -91h-10q-10 32 -24 51q-15 21 -31 32q-17 11 -42 16q-27 5 -54 5h-277v-322h128q33 0 48 7q17 8 26 18q9 11 12 24l6 26h10
v-157h-10l-6 26q-3 14 -12 24t-26 18q-15 7 -48 7h-128v-401h296q32 0 56 3t42 15t32 35q14 24 23 62h10l-11 -106q-2 -13 -6 -15q-6 -2 -12 -2h-570v7zM439 777v-1q-19 0 -31 12t-12 32q0 18 12 30t31 12q17 0 29 -12t12 -30q0 -19 -12 -31t-29 -12zM229 776v-1
q-17 0 -29 12t-12 32q0 18 12 30t29 12q19 0 31 -12t12 -30q0 -19 -12 -31t-31 -12z" />
    <glyph glyph-name="Igrave" unicode="&#xcc;" horiz-adv-x="232" 
d="M16 7l-3 -3q22 6 33 16q12 10 18 39q5 26 7 82q2 72 2 148v168q0 113 -1 149q-2 57 -7 83q-6 29 -18 38t-33 15v7h200v-7q-21 -6 -33 -15t-18 -37q-5 -26 -7 -82q-1 -36 -1 -148v-168q0 -76 2 -148q1 -51 8 -82q6 -28 18 -39q11 -10 33 -16v-7h-200v7zM29 822v-2
q-42 14 -42 39q0 10 7 17q8 8 19 8t20 -3q12 -4 17 -7l165 -95l-3 -6z" />
    <glyph glyph-name="Iacute" unicode="&#xcd;" horiz-adv-x="232" 
d="M16 7l-3 -3q22 6 33 16q12 10 18 39q5 26 7 82q2 72 2 148v168q0 113 -1 149q-2 57 -7 83q-6 29 -18 38t-33 15v7h200v-7q-21 -6 -33 -15t-18 -37q-5 -26 -7 -82q-1 -36 -1 -148v-168q0 -76 2 -148q1 -51 8 -82q6 -28 18 -39q11 -10 33 -16v-7h-200v7zM13 779l165 96
q9 5 17 8q9 3 20 3t19 -8q7 -7 7 -17q0 -25 -42 -39l-183 -49z" />
    <glyph glyph-name="Icircumflex" unicode="&#xce;" horiz-adv-x="232" 
d="M16 7l-3 -3q22 6 33 16q12 10 18 39q5 26 7 82q2 72 2 148v168q0 113 -1 149q-2 57 -7 83q-6 29 -18 38t-33 15v7h200v-7q-21 -6 -33 -15t-18 -37q-5 -26 -7 -82q-1 -36 -1 -148v-168q0 -76 2 -148q1 -51 8 -82q6 -28 18 -39q11 -10 33 -16v-7h-200v7zM112 883l134 -106
l-4 -5l-130 50l-130 -50l-4 5z" />
    <glyph glyph-name="Idieresis" unicode="&#xcf;" horiz-adv-x="232" 
d="M180 781v-1q-18 0 -30 12t-12 32q0 18 12 30t30 12t30 -12t12 -30q0 -19 -12 -31t-30 -12zM51 780v-1q-17 0 -29 12t-12 32q0 18 12 30t29 12q19 0 31 -12t12 -30q0 -19 -12 -31t-31 -12zM16 5l-3 -3q22 6 33 16q12 10 18 39q5 26 7 82q2 72 2 148v168q0 113 -1 149
q-2 57 -7 83q-6 29 -18 38t-33 15v7h200v-7q-21 -6 -33 -15t-18 -37q-5 -26 -7 -82q-1 -36 -1 -148v-168q0 -76 2 -148q1 -51 8 -82q6 -28 18 -39q11 -10 33 -16v-7h-200v7z" />
    <glyph glyph-name="Eth" unicode="&#xd0;" horiz-adv-x="762" 
d="M16 7l-3 -2q22 6 33 16q12 11 18 39q5 26 7 82q2 72 2 148v97h-78v8h78v63q0 112 -1 148q-2 57 -7 83q-6 29 -18 38t-33 15v7h181q264 0 398 -92t134 -273q0 -86 -30 -156q-29 -69 -95 -121q-64 -50 -165 -79q-99 -28 -240 -28h-181v7zM153 6h38q115 0 197 21
q83 21 137 66t81 117t27 173q0 104 -30 173q-30 68 -87 109t-138 57q-83 17 -184 17h-41v-345h167v-8h-167v-380z" />
    <glyph glyph-name="Ntilde" unicode="&#xd1;" horiz-adv-x="726" 
d="M353 872v5q9 0 26 -3q11 -2 35 -6t35 -6q16 -3 26 -3q8 0 23 9t32 41l7 -2q-13 -47 -35 -72q-21 -24 -38 -24q-4 0 -28 2q-12 1 -36 5q-25 4 -34 5q-22 2 -24 2q-8 0 -25 -9q-16 -9 -39 -44l-6 2q17 50 39 74q23 24 42 24zM16 12l-7 -2q21 8 33 18t18 39q5 26 7 83
q2 72 2 148v164q0 112 -1 148q-2 57 -7 83q-6 29 -18 38t-33 15v7h140q6 0 9 -1q6 -2 8 -4l9 -9q7 -7 14 -17l445 -591v328v108q0 35 -2 75q-1 30 -6 48q-5 19 -12 29q-8 11 -18 17q-12 7 -26 11v7h135v-7q-11 -4 -24 -11q-9 -5 -16 -17q-6 -10 -9 -29q-4 -22 -5 -48
q-2 -40 -2 -75v-108v-458h-16l-550 733v-435q0 -76 2 -148q1 -51 8 -82q6 -28 20 -39q14 -10 36 -18v-7h-134v7z" />
    <glyph glyph-name="Ograve" unicode="&#xd2;" horiz-adv-x="834" 
d="M336 825v-2q-42 13 -42 39q0 10 7 17q8 8 19 8t20 -3q12 -4 17 -7l165 -95l-3 -6zM417 -10l-3 -6q-74 0 -144 29q-67 28 -121 80q-52 51 -84 122q-31 69 -31 155q0 81 32 153q31 70 84 121q53 52 122 80q70 29 144 29q75 0 143 -28q71 -29 122 -79q53 -51 84 -121
q32 -72 32 -153q0 -85 -31 -154q-31 -70 -84 -121q-51 -50 -122 -79q-68 -28 -143 -28zM414 -7l-1 -2q57 0 110 21t93 66q40 44 64 117q24 72 24 174q0 103 -24 173q-25 72 -64 116q-41 46 -93 65q-54 20 -110 20t-110 -20q-53 -20 -93 -64q-42 -46 -65 -115
q-24 -71 -24 -173t24 -174q24 -71 65 -117q40 -45 93 -66t111 -21z" />
    <glyph glyph-name="Oacute" unicode="&#xd3;" horiz-adv-x="834" 
d="M319 782l165 96q9 5 17 8q9 3 20 3t19 -8q7 -7 7 -17q0 -26 -42 -39l-183 -49zM417 -7l-3 -6q-74 0 -144 29q-67 28 -121 80q-52 51 -84 122q-31 69 -31 155q0 81 32 153q31 70 84 121q53 52 122 80q70 29 144 29q75 0 143 -28q71 -29 122 -79q53 -51 84 -121
q32 -72 32 -153q0 -85 -31 -154q-31 -70 -84 -121q-51 -50 -122 -79q-68 -28 -143 -28zM414 -4l-1 -2q57 0 110 21t93 66q40 44 64 117q24 72 24 174q0 103 -24 173q-25 72 -64 116q-41 46 -93 65q-54 20 -110 20t-110 -20q-53 -20 -93 -64q-42 -46 -65 -115
q-24 -71 -24 -173t24 -174q24 -71 65 -117q40 -45 93 -66t111 -21z" />
    <glyph glyph-name="Ocircumflex" unicode="&#xd4;" horiz-adv-x="834" 
d="M419 886l134 -106l-4 -5l-130 50l-130 -50l-4 5zM417 -8l-3 -6q-74 0 -144 29q-67 28 -121 80q-52 51 -84 122q-31 69 -31 155q0 81 32 153q31 70 84 121q53 52 122 80q70 29 144 29q75 0 143 -28q71 -29 122 -79q53 -51 84 -121q32 -72 32 -153q0 -85 -31 -154
q-31 -70 -84 -121q-51 -50 -122 -79q-68 -28 -143 -28zM414 -5l-1 -2q57 0 110 21t93 66q40 44 64 117q24 72 24 174t-24 173q-25 72 -64 116q-41 46 -93 65q-54 20 -110 20t-110 -20q-53 -20 -93 -64q-42 -46 -65 -115q-24 -70 -24 -173q0 -102 24 -174q24 -71 65 -117
q40 -45 93 -66t111 -21z" />
    <glyph glyph-name="Otilde" unicode="&#xd5;" horiz-adv-x="834" 
d="M378 872v5q10 0 26 -3q11 -2 35 -6t35 -6q17 -3 26 -3q8 0 23 9t32 41l7 -2q-13 -47 -35 -72q-21 -24 -38 -24q-4 0 -28 2q-12 1 -36 5q-25 4 -34 5q-22 2 -24 2q-9 0 -25 -9t-39 -44l-6 2q17 50 39 74t42 24zM417 -3l-3 -6q-74 0 -144 29q-67 28 -121 80q-52 51 -84 122
q-31 69 -31 155q0 81 32 153q31 70 84 121q53 52 122 80q70 29 144 29q75 0 143 -28q71 -29 122 -79q53 -51 84 -121q32 -72 32 -153q0 -85 -31 -154q-31 -70 -84 -121q-51 -50 -122 -79q-68 -28 -143 -28zM414 0l-1 -2q57 0 110 21t93 66q40 44 64 117q24 72 24 174
t-24 173q-25 72 -64 116q-41 46 -93 65q-54 20 -110 20t-110 -20q-53 -20 -93 -64q-42 -46 -65 -115q-24 -70 -24 -173q0 -102 24 -174q24 -71 65 -117q40 -45 93 -66t111 -21z" />
    <glyph glyph-name="Odieresis" unicode="&#xd6;" horiz-adv-x="834" 
d="M524 781v-1q-19 0 -31 12t-12 32q0 18 12 30t31 12q17 0 29 -12t12 -30q0 -19 -12 -31t-29 -12zM314 780v-1q-17 0 -29 12t-12 32q0 18 12 30t29 12q19 0 31 -12t12 -30q0 -19 -12 -31t-31 -12zM417 -10l-3 -6q-74 0 -144 29q-67 28 -121 80q-52 51 -84 122
q-31 69 -31 155q0 81 32 153q31 70 84 121q53 52 122 80q70 29 144 29q75 0 143 -28q71 -29 122 -79q53 -51 84 -121q32 -72 32 -153q0 -85 -31 -154q-31 -70 -84 -121q-51 -50 -122 -79q-68 -28 -143 -28zM414 -7l-1 -2q57 0 110 21t93 66q40 44 64 117q24 72 24 174
q0 103 -24 173q-25 72 -64 116q-41 46 -93 65q-54 20 -110 20t-110 -20q-53 -20 -93 -64q-42 -46 -65 -115q-24 -71 -24 -173t24 -174q24 -71 65 -117q40 -45 93 -66t111 -21z" />
    <glyph glyph-name="multiply" unicode="&#xd7;" horiz-adv-x="444" 
d="M215 351l-162 168l9 9l162 -168l158 164l9 -9l-158 -165l158 -163l-9 -9l-158 163l-157 -164l-10 11z" />
    <glyph glyph-name="Oslash" unicode="&#xd8;" horiz-adv-x="834" 
d="M417 -8l-1 -6q-52 0 -102 15q-47 14 -94 41l-61 -107l-9 5l61 107q-39 26 -71 59q-30 32 -55 75q-23 40 -37 90q-13 46 -13 101q0 81 32 153q31 70 84 121q53 52 122 80q70 29 144 29q47 0 90 -12t84 -33l54 94l9 -5l-54 -94q44 -24 79 -58q38 -36 62 -76q26 -43 41 -92
t15 -105q0 -85 -31 -154q-31 -70 -84 -121q-51 -50 -122 -79q-68 -28 -143 -28zM123 370l-2 -1q0 -109 27 -183q26 -72 74 -118l359 624q-39 27 -79 38q-42 12 -87 12q-56 0 -110 -20q-53 -20 -93 -64q-42 -46 -65 -115q-24 -71 -24 -173zM414 -6l-1 -5q57 0 110 21t93 66
q40 44 64 117q24 72 24 174q0 119 -32 197q-32 77 -84 119l-359 -624q38 -35 86 -50t99 -15z" />
    <glyph glyph-name="Ugrave" unicode="&#xd9;" horiz-adv-x="754" 
d="M335 825v-2q-42 13 -42 39q0 10 7 17q8 8 19 8t20 -3q12 -4 17 -7l165 -95l-3 -6zM409 -9l-11 -3q-162 0 -250 71q-87 71 -87 225v169q0 113 -1 149q-2 57 -7 83q-6 29 -18 38t-31 15v7h198v-7q-21 -6 -33 -15t-18 -37q-5 -26 -7 -82q-1 -36 -1 -148v-188q0 -62 12 -111
q12 -50 40 -84q29 -35 78 -54q48 -19 126 -19q54 0 104 14q47 13 84 47q36 33 57 87t21 135v170v108q0 35 -2 75q-1 30 -6 48q-5 19 -12 29q-8 11 -18 17q-12 7 -27 11v7h136v-7q-11 -4 -24 -11q-9 -5 -16 -17q-6 -10 -9 -29q-4 -22 -5 -48q-2 -40 -2 -75v-108v-170
q0 -83 -21 -138t-57 -90q-35 -34 -86 -49q-50 -15 -107 -15z" />
    <glyph glyph-name="Uacute" unicode="&#xda;" horiz-adv-x="754" 
d="M318 782l165 96q9 5 17 8q9 3 20 3t19 -8q7 -7 7 -17q0 -26 -42 -39l-183 -49zM409 -6l-11 -3q-162 0 -250 71q-87 70 -87 225v169q0 113 -1 149q-2 57 -7 83q-6 29 -18 38t-31 15v7h198v-7q-21 -6 -33 -15t-18 -37q-5 -26 -7 -82q-1 -36 -1 -148v-188q0 -61 12 -111
t40 -84q29 -34 78 -54q48 -19 126 -19q54 0 104 14q47 13 84 47q36 33 57 87t21 135v170v108q0 35 -2 75q-1 30 -6 48q-5 19 -12 29q-8 11 -18 17q-12 7 -27 11v7h136v-7q-11 -4 -24 -11q-9 -5 -16 -17q-6 -10 -9 -29q-4 -22 -5 -48q-2 -40 -2 -75v-108v-170q0 -82 -21 -138
t-57 -90q-35 -34 -86 -49q-50 -15 -107 -15z" />
    <glyph glyph-name="Ucircumflex" unicode="&#xdb;" horiz-adv-x="754" 
d="M417 886l134 -106l-4 -5l-130 50l-130 -50l-4 5zM409 -7l-11 -3q-162 0 -250 71q-87 71 -87 225v169q0 113 -1 149q-2 57 -7 83q-6 29 -18 38t-31 15v7h198v-7q-21 -6 -33 -15t-18 -37q-5 -26 -7 -82q-1 -36 -1 -148v-188q0 -62 12 -111q12 -50 40 -84q29 -35 78 -54
q48 -19 126 -19q54 0 104 14q47 13 84 47q36 33 57 87t21 135v170v108q0 35 -2 75q-1 30 -6 48q-5 19 -12 29q-8 11 -18 17q-12 7 -27 11v7h136v-7q-11 -4 -24 -11q-9 -5 -16 -17q-6 -10 -9 -29q-4 -22 -5 -48q-2 -40 -2 -75v-108v-170q0 -83 -21 -138t-57 -90
q-35 -34 -86 -49q-50 -15 -107 -15z" />
    <glyph glyph-name="Udieresis" unicode="&#xdc;" horiz-adv-x="754" 
d="M409 -7l-11 -3q-162 0 -250 71q-87 71 -87 225v169q0 113 -1 149q-2 57 -7 83q-6 29 -18 38t-31 15v7h198v-7q-21 -6 -33 -15t-18 -37q-5 -26 -7 -82q-1 -36 -1 -148v-188q0 -62 12 -111q12 -50 40 -84q29 -35 78 -54q48 -19 126 -19q54 0 104 14q47 13 84 47
q36 33 57 87t21 135v170v108q0 35 -2 75q-1 30 -6 48q-5 19 -12 29q-8 11 -18 17q-12 7 -27 11v7h136v-7q-11 -4 -24 -11q-9 -5 -16 -17q-6 -10 -9 -29q-4 -22 -5 -48q-2 -40 -2 -75v-108v-170q0 -83 -21 -138t-57 -90q-35 -34 -86 -49q-50 -15 -107 -15zM511 778v-1
q-19 0 -31 12t-12 32q0 18 12 30t31 12q17 0 29 -12t12 -30q0 -19 -12 -31t-29 -12zM301 777v-1q-17 0 -29 12t-12 32q0 18 12 30t29 12q19 0 31 -12t12 -30q0 -19 -12 -31t-31 -12z" />
    <glyph glyph-name="Yacute" unicode="&#xdd;" horiz-adv-x="711" 
d="M258 7v-1q22 6 33 16q12 10 18 39q5 26 7 82q2 72 2 148v69l-188 263q-21 30 -36 51q-17 24 -28 36q-15 17 -25 23q-12 8 -28 12v6h186v-6q-23 -5 -29 -21t21 -54l202 -284l174 240q20 27 29 42q13 22 17 34q5 16 -1 26t-24 18v6h112v-6q-9 -4 -22 -12q-12 -8 -27 -21
q-17 -15 -33 -34q-18 -21 -42 -54l-179 -249v-84q0 -76 2 -148q1 -51 8 -82q6 -28 18 -39q11 -10 33 -16v-7h-200v7zM302 781l165 96q9 5 17 8q9 3 20 3t19 -8q7 -7 7 -17q0 -25 -42 -39l-183 -49z" />
    <glyph glyph-name="Thorn" unicode="&#xde;" horiz-adv-x="618" 
d="M16 7l-2 -4q22 6 33 16q12 11 18 39q5 26 7 82q2 72 2 148v168q0 113 -1 149q-2 57 -7 83q-6 29 -18 38t-33 15v7h200v-7q-18 -5 -27 -10q-10 -6 -18 -20q-7 -12 -10 -39q-2 -20 -4 -67h139q65 0 120 -9t98 -32q42 -22 66 -60t24 -91q0 -55 -24 -96t-66 -66
q-44 -26 -97 -38q-56 -12 -117 -12h-144q2 -71 4 -99q3 -37 9 -56q6 -20 18 -27t30 -12v-7h-200v7zM295 208v-1q40 0 83 8q39 7 73 29q32 20 52 59q20 38 20 99q0 66 -21 104t-54 57q-32 19 -74 25q-40 6 -81 6h-138q-1 -18 -1 -61v-78v-247h141z" />
    <glyph glyph-name="germandbls" unicode="&#xdf;" horiz-adv-x="568" 
d="M147 177l-7 -9q0 -63 1 -84q1 -32 6 -48q4 -16 14 -24q9 -8 27 -12v-7h-170v7q17 5 26 12q10 8 14 24t6 48q1 21 1 84v279h-49v8q16 3 26 8q9 5 15 15q7 11 8 29q2 24 2 47q0 52 18 90t47 62q28 24 66 36t75 12q89 0 141 -34t52 -90q0 -28 -14 -51t-33 -42
q-18 -18 -42 -34q-23 -15 -39 -27q-27 -21 -41 -36q-15 -16 -15 -43q0 -19 11 -33t28 -24q22 -13 40 -20q8 -3 24.5 -10t23.5 -10q27 -10 51 -24t42 -33q19 -20 29 -45q11 -27 11 -58q0 -36 -14 -66q-14 -28 -36 -48q-22 -19 -53 -30q-29 -10 -63 -10q-28 0 -51 5
q-18 4 -36 11q-6 2 -14.5 6t-10.5 5q-12 5 -19 5q-5 0 -10 -5q-4 -4 -6 -11h-9v121h8q14 -67 51 -99q37 -31 98 -31q60 0 90 33t30 79q0 25 -8 46q-7 19 -24 34t-39 27t-54 24q-22 9 -51 23q-24 12 -42 27t-29 35t-11 45q0 21 9 39q8 17 23 33q13 15 30 27q22 16 32 23
q15 12 28 25t24 30q10 15 16 36q6 19 6 45q0 57 -36 93t-94 36q-61 0 -96 -32q-34 -31 -34 -108v-436z" />
    <glyph glyph-name="agrave" unicode="&#xe0;" horiz-adv-x="457" 
d="M148 -5v1q-54 0 -89 24t-35 75q0 31 12 51t33 33q20 13 50 24q34 12 62 24l57 24q25 10 41 23q17 14 23 22q6 9 10 20q3 9 3 16v50q0 26 -9 42t-24 25t-33 12t-35 3q-22 0 -36 -3q-16 -4 -23 -7q-8 -4 -15 -11q-6 -5 -10 -13q-11 -19 -21 -29q-11 -11 -27 -11t-24 9
q-7 8 -7 21q0 14 13 24q14 10 36 18q25 8 51 11q28 3 62 3t62 -4q33 -5 57 -16q26 -12 42 -34q17 -23 17 -58v-218q0 -36 2 -72q1 -27 6 -42q4 -14 12 -19q7 -4 21 -4q9 0 19 3q9 3 18 8l3 -6q-3 -3 -21 -13q-17 -9 -45 -9q-51 0 -72 23t-21 60l-23 -21q-26 -23 -59 -41
t-83 -18zM101 104l-2 -2q0 -47 20 -69q19 -21 56 -21q34 0 60 14q25 14 51 39l25 23v211q-5 -9 -21 -24q-15 -14 -53 -31l-51 -22q-46 -20 -66 -48q-19 -28 -19 -70zM138 652l1 -1q-9 7 -18 17q-7 8 -7 20q0 10 8 20q8 9 21 9t21 -7q8 -6 19 -21l104 -147l-4 -6z" />
    <glyph glyph-name="aacute" unicode="&#xe1;" horiz-adv-x="457" 
d="M148 -5v1q-54 0 -89 24t-35 75q0 31 12 51t33 33q20 13 50 24q34 12 62 24l57 24q25 10 41 23q17 14 23 22q6 9 10 20q3 9 3 16v50q0 26 -9 42t-24 25t-33 12t-35 3q-22 0 -36 -3q-16 -4 -23 -7q-8 -4 -15 -11q-6 -5 -10 -13q-11 -19 -21 -29q-11 -11 -27 -11t-24 9
q-7 8 -7 21q0 14 13 24q14 10 36 18q25 8 51 11q28 3 62 3t62 -4q33 -5 57 -16q26 -12 42 -34q17 -23 17 -58v-218q0 -36 2 -72q1 -27 6 -42q4 -14 12 -19q7 -4 21 -4q9 0 19 3q9 3 18 8l3 -6q-3 -3 -21 -13q-17 -9 -45 -9q-51 0 -72 23t-21 60l-23 -21q-26 -23 -59 -41
t-83 -18zM101 104l-2 -2q0 -47 20 -69q19 -21 56 -21q34 0 60 14q25 14 51 39l25 23v211q-5 -9 -21 -24q-15 -14 -53 -31l-51 -22q-46 -20 -66 -48q-19 -28 -19 -70zM178 542l102 146q20 27 42 27q14 0 20 -8q6 -7 6 -18t-6 -20q-7 -10 -15 -17l-145 -116z" />
    <glyph glyph-name="acircumflex" unicode="&#xe2;" horiz-adv-x="457" 
d="M148 -5v1q-54 0 -89 24t-35 75q0 31 12 51t33 33q20 13 50 24q34 12 62 24l57 24q25 10 41 23q17 14 23 22q6 9 10 20q3 9 3 16v50q0 26 -9 42t-24 25t-33 12t-35 3q-22 0 -36 -3q-16 -4 -23 -7q-8 -4 -15 -11q-6 -5 -10 -13q-11 -19 -21 -29q-11 -11 -27 -11t-24 9
q-7 8 -7 21q0 14 13 24q14 10 36 18q25 8 51 11q28 3 62 3t62 -4q33 -5 57 -16q26 -12 42 -34q17 -23 17 -58v-218q0 -36 2 -72q1 -27 6 -42q4 -14 12 -19q7 -4 21 -4q9 0 19 3q9 3 18 8l3 -6q-3 -3 -21 -13q-17 -9 -45 -9q-51 0 -72 23t-21 60l-23 -21q-26 -23 -59 -41
t-83 -18zM101 104l-2 -2q0 -47 20 -69q19 -21 56 -21q34 0 60 14q25 14 51 39l25 23v211q-5 -9 -21 -24q-15 -14 -53 -31l-51 -22q-46 -20 -66 -48q-19 -28 -19 -70zM218 717l118 -178l-7 -4l-111 105l-111 -105l-7 4z" />
    <glyph glyph-name="atilde" unicode="&#xe3;" horiz-adv-x="457" 
d="M148 -5v1q-54 0 -89 24t-35 75q0 31 12 51t33 33q20 13 50 24q34 12 62 24l57 24q25 10 41 23q17 14 23 22q6 9 10 20q3 9 3 16v50q0 26 -9 42t-24 25t-33 12t-35 3q-22 0 -36 -3q-16 -4 -23 -7q-8 -4 -15 -11q-6 -5 -10 -13q-11 -19 -21 -29q-11 -11 -27 -11t-24 9
q-7 8 -7 21q0 14 13 24q14 10 36 18q25 8 51 11q28 3 62 3t62 -4q33 -5 57 -16q26 -12 42 -34q17 -23 17 -58v-218q0 -36 2 -72q1 -27 6 -42q4 -14 12 -19q7 -4 21 -4q9 0 19 3q9 3 18 8l3 -6q-3 -3 -21 -13q-17 -9 -45 -9q-51 0 -72 23t-21 60l-23 -21q-26 -23 -59 -41
t-83 -18zM101 104l-2 -2q0 -47 20 -69q19 -21 56 -21q34 0 60 14q25 14 51 39l25 23v211q-5 -9 -21 -24q-15 -14 -53 -31l-51 -22q-46 -20 -66 -48q-19 -28 -19 -70zM183 643l1 2q5 0 25 -2t31 -4t31 -4t25 -2q8 0 21 9q14 9 29 41l7 -3q-11 -49 -30 -71q-20 -23 -36 -23
q-5 0 -27 2l-33 3q-11 1 -31 3t-24 2q-6 0 -10 -1q-6 -2 -13 -7q-7 -6 -16 -16q-8 -9 -19 -30l-6 3q13 47 36 73q22 25 39 25z" />
    <glyph glyph-name="adieresis" unicode="&#xe4;" horiz-adv-x="457" 
d="M148 -5v1q-54 0 -89 24t-35 75q0 31 12 51t33 33q20 13 50 24q34 12 62 24l57 24q25 10 41 23q17 14 23 22q6 9 10 20q3 9 3 16v50q0 26 -9 42t-24 25t-33 12t-35 3q-22 0 -36 -3q-16 -4 -23 -7q-8 -4 -15 -11q-6 -5 -10 -13q-11 -19 -21 -29q-11 -11 -27 -11t-24 9
q-7 8 -7 21q0 14 13 24q14 10 36 18q25 8 51 11q28 3 62 3t62 -4q33 -5 57 -16q26 -12 42 -34q17 -23 17 -58v-218q0 -36 2 -72q1 -27 6 -42q4 -14 12 -19q7 -4 21 -4q9 0 19 3q9 3 18 8l3 -6q-3 -3 -21 -13q-17 -9 -45 -9q-51 0 -72 23t-21 60l-23 -21q-26 -23 -59 -41
t-83 -18zM101 104l-2 -2q0 -47 20 -69q19 -21 56 -21q34 0 60 14q25 14 51 39l25 23v211q-5 -9 -21 -24q-15 -14 -53 -31l-51 -22q-46 -20 -66 -48q-19 -28 -19 -70zM303 561v-1q-18 0 -30 12t-12 32q0 18 12 30t30 12t30 -12t12 -30q0 -19 -12 -31t-30 -12zM133 560v-1
q-18 0 -30 12t-12 32q0 18 12 30t30 12t30 -12t12 -30q0 -19 -12 -31t-30 -12z" />
    <glyph glyph-name="aring" unicode="&#xe5;" horiz-adv-x="457" 
d="M148 -5v1q-54 0 -89 24t-35 75q0 31 12 51t33 33q20 13 50 24q34 12 62 24l57 24q25 10 41 23q17 14 23 22q6 9 10 20q3 9 3 16v50q0 26 -9 42t-24 25t-33 12t-35 3q-22 0 -36 -3q-16 -4 -23 -7q-8 -4 -15 -11q-6 -5 -10 -13q-11 -19 -21 -29q-11 -11 -27 -11t-24 9
q-7 8 -7 21q0 14 13 24q14 10 36 18q25 8 51 11q28 3 62 3t62 -4q33 -5 57 -16q26 -12 42 -34q17 -23 17 -58v-218q0 -36 2 -72q1 -27 6 -42q4 -14 12 -19q7 -4 21 -4q9 0 19 3q9 3 18 8l3 -6q-3 -3 -21 -13q-17 -9 -45 -9q-51 0 -72 23t-21 60l-23 -21q-26 -23 -59 -41
t-83 -18zM101 104l-2 -2q0 -47 20 -69q19 -21 56 -21q34 0 60 14q25 14 51 39l25 23v211q-5 -9 -21 -24q-15 -14 -53 -31l-51 -22q-46 -20 -66 -48q-19 -28 -19 -70zM132 611l-2 -2q0 35 25 57q26 23 61 23q36 0 61 -22t25 -57q0 -34 -24 -57q-23 -22 -61 -22t-61 22
q-24 23 -24 58zM164 609v-1q0 -35 13 -52q13 -18 39 -18t39 19t13 52q0 32 -13 51q-14 20 -39 20t-39 -20q-13 -19 -13 -51z" />
    <glyph glyph-name="ae" unicode="&#xe6;" horiz-adv-x="767" 
d="M150 -5l2 -3q-55 0 -91 24t-36 75q0 30 12 48t33 30q20 12 50 21q25 8 62 23l57 25q28 11 41 22q15 12 23 23q7 10 9 20q2 12 2 17v57q0 25 -9 42t-24 26t-33 12t-35 3q-23 0 -36 -3q-15 -3 -21 -7q-8 -5 -12 -10l-10 -12q-11 -17 -22 -28q-12 -12 -30 -12q-14 0 -22 9
q-7 8 -7 21q0 14 15 23t37 15q23 6 51 9t57 3q25 0 52 -3q30 -3 50 -10q23 -8 41 -21q18 -14 27 -36q36 38 83 56q46 18 92 18q29 0 63 -8q31 -7 59 -26q29 -19 47 -46q19 -28 27 -69h-349q-11 -44 -11 -95q0 -66 17 -111q16 -43 44 -69q27 -26 63 -36q34 -10 75 -10
q44 0 83 14q36 13 66 38l5 -7q-31 -25 -75 -42q-42 -16 -102 -16q-34 0 -63 7q-32 8 -61 22t-55 36q-24 20 -43 50l-48 -44q-33 -30 -66 -47q-34 -18 -84 -18zM556 464v-3q-22 0 -42 -7q-22 -8 -42 -22t-37 -39q-17 -24 -27 -60h278q-3 38 -15 64q-12 25 -30 40t-40 21
q-23 6 -45 6zM103 97l1 -1q0 -48 21 -69t56 -21q34 0 62 14q26 13 60 44l45 42q-15 26 -24 57t-9 67v55q-5 -11 -21 -27t-54 -30l-51 -22q-47 -18 -67 -45q-19 -26 -19 -64z" />
    <glyph glyph-name="ccedilla" unicode="&#xe7;" horiz-adv-x="476" 
d="M281 -8h-5q-47 0 -92 18t-80 50t-56 77t-21 100t24 99q24 43 62 75q37 31 84 48q48 17 90 17q29 0 62 -5q29 -4 53 -14q23 -9 36 -22q14 -14 14 -30q0 -12 -8 -25q-8 -12 -27 -12q-11 0 -19 5t-12 12q-4 6 -7 18q-2 7 -8 23q-9 21 -25 30t-57 9q-35 0 -66 -10
q-32 -10 -58 -36q-25 -25 -42 -69q-16 -42 -16 -111q0 -67 15 -112q15 -46 40 -72q26 -27 60 -39t75 -12q52 0 91 18t65 50l7 -7q-29 -35 -73 -54t-106 -19zM247 0l-39 -58q42 -4 72 -24t30 -51q0 -75 -156 -80l-1 8q59 5 84 21t25 36q0 22 -24 34q-25 13 -62 14l-3 5l63 95
h11z" />
    <glyph glyph-name="egrave" unicode="&#xe8;" horiz-adv-x="486" 
d="M282 -9v3q-46 0 -91 15t-81 45q-35 29 -58 77q-22 45 -22 108q0 59 22 103q22 45 57 75t76 45q42 15 83 15q32 0 63 -9q32 -9 59 -27t47 -47q19 -28 27 -69h-345q-10 -36 -10 -93q0 -68 15 -111t42 -69q27 -25 62 -36q33 -10 74 -10q44 0 83 14q37 14 66 39l5 -7
q-28 -28 -72 -45q-42 -16 -102 -16zM268 470l1 3q-22 0 -43 -7q-22 -8 -42 -24t-36 -42t-27 -63h274q-3 40 -15 65q-12 26 -30 41t-39 21t-43 6zM194 659l1 -1q-9 7 -18 17q-7 8 -7 20q0 10 8 20q8 9 21 9t21 -7q8 -6 19 -21l104 -147l-4 -6z" />
    <glyph glyph-name="eacute" unicode="&#xe9;" horiz-adv-x="486" 
d="M233 543l102 146q19 27 42 27q14 0 20 -8t6 -18q0 -11 -6 -20q-7 -10 -15 -17l-145 -116zM281 -10v3q-46 0 -91 15t-81 45q-35 29 -58 77q-22 45 -22 108q0 59 22 103q23 45 57 75q35 30 76 45q42 15 83 15q31 0 63 -9t59 -27t47 -47t27 -69h-345q-10 -36 -10 -93
q0 -67 15 -111t42 -69t62 -36q33 -10 74 -10q44 0 83 14q38 13 66 39l5 -7q-29 -29 -72 -45q-42 -16 -102 -16zM267 469l1 3q-22 0 -43 -7q-23 -7 -42 -24t-36 -42t-27 -63h274q-3 40 -15 65q-12 26 -30 41t-39 21t-43 6z" />
    <glyph glyph-name="ecircumflex" unicode="&#xea;" horiz-adv-x="486" 
d="M275 718l118 -178l-7 -4l-111 105l-111 -105l-7 4zM282 -9v3q-46 0 -91 15t-81 45q-35 29 -58 77q-22 45 -22 108q0 59 22 103q22 45 57 75t76 45q42 15 83 15q32 0 63 -9q32 -9 59 -27t47 -47q19 -28 27 -69h-345q-10 -36 -10 -93q0 -68 15 -111t42 -69q27 -25 62 -36
q33 -10 74 -10q44 0 83 14q37 14 66 39l5 -7q-28 -28 -72 -45q-42 -16 -102 -16zM268 470l1 3q-22 0 -43 -7q-22 -8 -42 -24t-36 -42t-27 -63h274q-3 40 -15 65q-12 26 -30 41t-39 21t-43 6z" />
    <glyph glyph-name="edieresis" unicode="&#xeb;" horiz-adv-x="486" 
d="M360 562v-1q-18 0 -30 12t-12 32q0 18 12 30t30 12t30 -12t12 -30q0 -19 -12 -31t-30 -12zM190 561v-1q-18 0 -30 12t-12 32q0 18 12 30t30 12t30 -12t12 -30q0 -19 -12 -31t-30 -12zM282 -11v3q-46 0 -91 15t-81 45q-35 29 -58 77q-22 45 -22 108q0 59 22 103
q22 45 57 75t76 45q42 15 83 15q32 0 63 -9q32 -9 59 -27t47 -47q19 -28 27 -69h-345q-10 -36 -10 -93q0 -68 15 -111t42 -69q27 -25 62 -36q33 -10 74 -10q44 0 83 14q37 14 66 39l5 -7q-28 -28 -72 -45q-42 -16 -102 -16zM268 468l1 3q-22 0 -43 -7q-22 -8 -42 -24
t-36 -42t-27 -63h274q-3 40 -15 65q-12 26 -30 41t-39 21t-43 6z" />
    <glyph glyph-name="igrave" unicode="&#xec;" 
d="M25 7l-3 -1q17 4 28 12q10 8 15 24t6 48q1 21 1 84v86v81q0 27 -5 42q-5 14 -13 17q-11 4 -27 5v8l122 61v-299q0 -63 1 -84q2 -31 6 -48t15 -24t30 -12v-7h-176v7zM29 652l1 -1q-9 7 -18 17q-7 8 -7 20q0 10 8 20q7 9 21 9q13 0 21 -7q8 -6 19 -21l104 -147l-4 -6z" />
    <glyph glyph-name="iacute" unicode="&#xed;" 
d="M72 543l102 146q20 27 42 27q14 0 20 -8t6 -18q0 -11 -6 -20q-7 -10 -15 -17l-145 -116zM24 6l-3 -1q17 4 28 12q11 7 15 24t6 48q1 21 1 84v86v81q0 27 -5 42q-5 14 -13 17q-11 4 -27 5v8l122 61v-299q0 -63 1 -84q1 -32 6 -48t15 -24t30 -12v-7h-176v7z" />
    <glyph glyph-name="icircumflex" unicode="&#xee;" 
d="M112 718l118 -178l-7 -4l-111 105l-111 -105l-7 4zM25 7l-3 -1q17 4 28 12q10 8 15 24t6 48q1 21 1 84v86v81q0 27 -5 42q-5 14 -13 17q-11 4 -27 5v8l122 61v-299q0 -63 1 -84q2 -31 6 -48t15 -24t30 -12v-7h-176v7z" />
    <glyph glyph-name="idieresis" unicode="&#xef;" 
d="M175 562v-1q-18 0 -30 12t-12 32q0 18 12 30t30 12t30 -12t12 -30q0 -19 -12 -31t-30 -12zM44 561v-1q-18 0 -30 12t-12 32q0 18 12 30t30 12t30 -12t12 -30q0 -19 -12 -31t-30 -12zM25 5l-3 -1q17 4 28 12q10 8 15 24t6 48q1 21 1 84v86v81q0 27 -5 42q-5 14 -13 17
q-11 4 -27 5v8l122 61v-299q0 -63 1 -84q2 -31 6 -48t15 -24t30 -12v-7h-176v7z" />
    <glyph glyph-name="eth" unicode="&#xf0;" horiz-adv-x="560" 
d="M530 270l-1 2q0 -70 -22 -121q-22 -52 -57 -88q-34 -36 -80 -54q-45 -18 -91 -18q-44 0 -86 16q-43 16 -80 47t-59 75q-23 46 -23 103q0 56 23 102q23 45 59 77q36 31 80 48q45 17 86 17q37 0 78 -15q42 -15 72 -40q-17 62 -45 113t-66 93l-132 -52l-4 8l129 50
q-36 41 -81 73q-41 30 -87 52l6 5q66 -23 117 -51q55 -30 92 -61l138 54l3 -8l-133 -52q47 -41 78 -85q32 -45 51 -93t27 -98q8 -53 8 -99zM278 0l-1 -2q33 0 64 12t55 39q25 28 38 72q14 47 14 111q0 62 -14 109t-37 74q-24 29 -55 42q-33 14 -64 14q-34 0 -63 -13
q-31 -14 -53 -42q-23 -29 -36 -73q-14 -47 -14 -109q0 -64 14 -111q14 -45 36 -72t53 -39q30 -12 63 -12z" />
    <glyph glyph-name="ntilde" unicode="&#xf1;" horiz-adv-x="552" 
d="M26 7l-2 -1q17 5 26 12q10 8 14 24t6 48q1 21 1 84v86v80q0 27 -5 42q-5 14 -13 17q-11 4 -27 5v8l122 61v-119l45 41q40 36 78 56q39 21 81 21q68 0 99 -31t31 -99v-166v-84q0 -30 5 -48q4 -16 14 -24q9 -7 26 -12v-7h-172v7q19 5 29 12q10 8 15 24t6 48q1 21 1 84v183
q0 54 -21 75t-57 21q-31 0 -63 -17q-30 -16 -73 -54l-45 -40v-169q0 -63 1 -84q2 -31 6 -48t15 -24q10 -7 29 -12v-7h-172v7zM233 643l1 2q5 0 25 -2t31 -4t31 -4t25 -2q8 0 21 9q14 9 29 41l7 -3q-11 -49 -30 -71q-20 -23 -36 -23q-5 0 -27 2l-33 3q-11 1 -31 3t-24 2
q-6 0 -10 -1q-6 -2 -13 -7q-7 -6 -16 -16q-8 -9 -19 -30l-6 3q13 47 36 73q22 25 39 25z" />
    <glyph glyph-name="ograve" unicode="&#xf2;" horiz-adv-x="560" 
d="M279 -10v-1q-44 0 -86 16q-43 16 -80 47t-59 75q-23 46 -23 103q0 56 23 102q23 45 59 77q36 31 80 48q45 17 86 17t87 -17q45 -17 81 -48q35 -31 60 -77q24 -45 24 -102q0 -58 -24 -103t-60 -75q-35 -29 -81 -46q-44 -16 -87 -16zM279 -3l-1 -2q32 0 64 12q31 12 55 39
q25 28 38 72q14 47 14 111q0 62 -14 109t-37 74q-24 29 -55 42q-33 14 -64 14q-34 0 -63 -13q-31 -14 -53 -42q-23 -29 -36 -73q-14 -47 -14 -109q0 -64 14 -111q13 -45 36 -72q22 -27 53 -39q30 -12 63 -12zM198 650l1 -1q-9 7 -18 17q-7 8 -7 20q0 10 8 20q8 9 21 9t21 -7
q8 -6 19 -21l104 -147l-4 -6z" />
    <glyph glyph-name="oacute" unicode="&#xf3;" horiz-adv-x="560" 
d="M239 543l102 146q19 27 42 27q14 0 20 -8t6 -18q0 -11 -6 -20q-7 -10 -15 -17l-145 -116zM278 -11v-1q-44 0 -86 16q-43 16 -80 47t-59 75q-23 46 -23 103q0 56 23 102q23 45 59 77q36 31 80 48q45 17 86 17t87 -17q45 -16 81 -48q36 -31 60 -77q24 -45 24 -102
q0 -58 -24 -103t-60 -75q-35 -29 -81 -46q-44 -16 -87 -16zM278 -4l-1 -2q33 0 64 12t55 39q25 28 38 72q14 47 14 111q0 62 -14 109t-37 74q-24 29 -55 42q-33 14 -64 14q-34 0 -63 -13q-31 -14 -53 -42q-23 -29 -36 -73q-14 -47 -14 -109q0 -64 14 -111q14 -45 36 -72
t53 -39q30 -12 63 -12z" />
    <glyph glyph-name="ocircumflex" unicode="&#xf4;" horiz-adv-x="560" 
d="M279 718l118 -178l-7 -4l-111 105l-111 -105l-7 4zM279 -10v-1q-44 0 -86 16q-43 16 -80 47t-59 75q-23 46 -23 103q0 56 23 102q23 45 59 77q36 31 80 48q45 17 86 17t87 -17q45 -17 81 -48q35 -31 60 -77q24 -45 24 -102q0 -58 -24 -103t-60 -75q-35 -29 -81 -46
q-44 -16 -87 -16zM279 -3l-1 -2q32 0 64 12q31 12 55 39q25 28 38 72q14 47 14 111q0 62 -14 109t-37 74q-24 29 -55 42q-33 14 -64 14q-34 0 -63 -13q-31 -14 -53 -42q-23 -29 -36 -73q-14 -47 -14 -109q0 -64 14 -111q13 -45 36 -72q22 -27 53 -39q30 -12 63 -12z" />
    <glyph glyph-name="otilde" unicode="&#xf5;" horiz-adv-x="560" 
d="M279 -10v-1q-44 0 -86 16q-43 16 -80 47t-59 75q-23 46 -23 103q0 56 23 102q23 45 59 77q36 31 80 48q45 17 86 17t87 -17q45 -17 81 -48q35 -31 60 -77q24 -45 24 -102q0 -58 -24 -103t-60 -75q-35 -29 -81 -46q-44 -16 -87 -16zM279 -3l-1 -2q32 0 64 12q31 12 55 39
q25 28 38 72q14 47 14 111q0 62 -14 109t-37 74q-24 29 -55 42q-33 14 -64 14q-34 0 -63 -13q-31 -14 -53 -42q-23 -29 -36 -73q-14 -47 -14 -109q0 -64 14 -111q13 -45 36 -72q22 -27 53 -39q30 -12 63 -12zM243 641l1 2q5 0 25 -2t31 -4t31 -4t25 -2q8 0 21 9q14 9 29 41
l7 -3q-11 -49 -30 -71q-20 -23 -36 -23q-5 0 -27 2l-33 3q-11 1 -31 3t-24 2q-6 0 -10 -1q-6 -2 -13 -7q-7 -6 -16 -16q-8 -9 -19 -30l-6 3q13 47 36 73q22 25 39 25z" />
    <glyph glyph-name="odieresis" unicode="&#xf6;" horiz-adv-x="560" 
d="M364 562v-1q-18 0 -30 12t-12 32q0 18 12 30t30 12t30 -12t12 -30q0 -19 -12 -31t-30 -12zM194 561v-1q-18 0 -30 12t-12 32q0 18 12 30t30 12t30 -12t12 -30q0 -19 -12 -31t-30 -12zM279 -12v-1q-44 0 -86 16q-43 16 -80 47t-59 75q-23 46 -23 103q0 56 23 102
q23 45 59 77q36 31 80 48q45 17 86 17t87 -17q45 -17 81 -48q35 -31 60 -77q24 -45 24 -102q0 -58 -24 -103t-60 -75q-35 -29 -81 -46q-44 -16 -87 -16zM279 -5l-1 -2q32 0 64 12q31 12 55 39q25 28 38 72q14 47 14 111q0 62 -14 109t-37 74q-24 29 -55 42q-33 14 -64 14
q-34 0 -63 -13q-31 -14 -53 -42q-23 -29 -36 -73q-14 -47 -14 -109q0 -64 14 -111q13 -45 36 -72q22 -27 53 -39q30 -12 63 -12z" />
    <glyph glyph-name="divide" unicode="&#xf7;" horiz-adv-x="530" 
d="M221 500h-2q0 20 13 33t33 13q19 0 32 -13q14 -14 14 -33q0 -18 -13 -31t-31 -13q-20 0 -33 13t-13 31zM50 357h427v-12h-427v12zM219 199h-2q0 18 13 31t33 13q19 0 32 -13q14 -14 14 -31q0 -20 -13 -33t-31 -13q-20 0 -33 13t-13 33z" />
    <glyph glyph-name="oslash" unicode="&#xf8;" horiz-adv-x="560" 
d="M279 -2l-1 -1q32 0 64 12q31 12 55 39q25 28 38 72q14 47 14 111q0 66 -15 111q-16 47 -40 74l13 22q-6 4 -9 5l47 80l8 -5l-47 -80q52 -32 86 -84q35 -53 35 -123q0 -58 -24 -103t-60 -75q-35 -29 -81 -46q-44 -16 -87 -16q-26 0 -58 8q-27 7 -58 23l11 17l-8 8l224 379
q-22 22 -51 33q-30 11 -58 11q-34 0 -63 -13q-31 -14 -53 -42q-23 -29 -36 -73q-14 -47 -14 -109q0 -69 15 -114q15 -46 40 -72l-11 -20q3 -4 8 -6l-52 -89l-8 6l52 88q-52 28 -88 81t-36 126q0 56 23 102q23 45 59 77q36 31 80 48q45 17 86 17q62 0 121 -34l-11 -19l6 -8
l-222 -379q22 -21 50 -30q27 -9 56 -9z" />
    <glyph glyph-name="ugrave" unicode="&#xf9;" horiz-adv-x="543" 
d="M198 -8l-3 -1q-66 0 -97 31t-31 99v122v90q0 30 -5 48q-5 17 -13 20q-11 4 -27 5v8l122 61v-391q0 -45 20 -60t54 -15q26 0 60 12q33 12 87 56l30 26v139v90q0 30 -5 48q-5 17 -13 20q-11 4 -27 5v8l122 61v-299q0 -63 1 -84q2 -33 7 -48q6 -17 18 -24q12 -8 34 -12v-7
h-135v92l-30 -26q-47 -41 -88 -58q-39 -16 -81 -16zM193 652l1 -1q-9 7 -18 17q-7 8 -7 20q0 10 8 20q7 9 21 9q13 0 21 -7q8 -6 19 -21l104 -147l-4 -6z" />
    <glyph glyph-name="uacute" unicode="&#xfa;" horiz-adv-x="543" 
d="M237 543l102 146q19 27 42 27q14 0 20 -8t6 -18q0 -11 -6 -20q-7 -10 -15 -17l-145 -116zM197 -9l-3 -1q-66 0 -97 31t-31 99v122v90q0 30 -5 48q-5 17 -13 20q-11 4 -27 5v8l122 61v-391q0 -45 20 -60q19 -15 54 -15q25 0 60 12q33 12 87 56l30 26v139v90q0 30 -5 48
q-5 17 -13 20q-11 4 -27 5v8l122 61v-299q0 -63 1 -84q2 -33 7 -48q6 -16 18 -24t34 -12v-7h-135v92l-30 -26q-47 -41 -88 -58q-39 -16 -81 -16z" />
    <glyph glyph-name="ucircumflex" unicode="&#xfb;" horiz-adv-x="543" 
d="M278 718l118 -178l-7 -4l-111 105l-111 -105l-7 4zM198 -8l-3 -1q-66 0 -97 31t-31 99v122v90q0 30 -5 48q-5 17 -13 20q-11 4 -27 5v8l122 61v-391q0 -45 20 -60t54 -15q26 0 60 12q33 12 87 56l30 26v139v90q0 30 -5 48q-5 17 -13 20q-11 4 -27 5v8l122 61v-299
q0 -63 1 -84q2 -33 7 -48q6 -17 18 -24q12 -8 34 -12v-7h-135v92l-30 -26q-47 -41 -88 -58q-39 -16 -81 -16z" />
    <glyph glyph-name="udieresis" unicode="&#xfc;" horiz-adv-x="543" 
d="M363 562v-1q-18 0 -30 12t-12 32q0 18 12 30t30 12t30 -12t12 -30q0 -19 -12 -31t-30 -12zM193 561v-1q-18 0 -30 12t-12 32q0 18 12 30t30 12t30 -12t12 -30q0 -19 -12 -31t-30 -12zM198 -10l-3 -1q-66 0 -97 31t-31 99v122v90q0 30 -5 48q-5 17 -13 20q-11 4 -27 5v8
l122 61v-391q0 -45 20 -60t54 -15q26 0 60 12q33 12 87 56l30 26v139v90q0 30 -5 48q-5 17 -13 20q-11 4 -27 5v8l122 61v-299q0 -63 1 -84q2 -33 7 -48q6 -17 18 -24q12 -8 34 -12v-7h-135v92l-30 -26q-47 -41 -88 -58q-39 -16 -81 -16z" />
    <glyph glyph-name="yacute" unicode="&#xfd;" horiz-adv-x="477" 
d="M117 -171l1 -5q-20 0 -29 9t-9 22q0 12 8 22q8 9 24 9t27 -6t21 -6q14 0 26 19q15 24 35 70l14 30l-162 362q-13 31 -24 51q-11 21 -19 30q-10 11 -16 15q-9 5 -18 8v6h155v-6q-11 -1 -19 -6t-9 -15q-2 -11 3 -29q4 -17 18 -49l125 -282l115 258q19 43 23 64q5 24 0 36
q-5 13 -16 17q-12 5 -27 6v6h119v-6q-10 -1 -19 -6q-8 -4 -18 -17q-9 -12 -21 -36q-14 -28 -30 -64l-165 -371q-34 -75 -58 -105q-25 -31 -55 -31zM229 538l102 146q19 27 42 27q14 0 20 -8q6 -7 6 -18t-6 -20q-7 -10 -15 -17l-145 -116z" />
    <glyph glyph-name="thorn" unicode="&#xfe;" horiz-adv-x="576" 
d="M17 -159l1 4q17 5 26 12q10 8 14 24q4 17 6 48q1 21 1 84v554v84q0 28 -5 41t-15 14q-14 2 -30 2v8l126 60v-416l19 19q41 41 83 68t92 27q43 0 80 -15t66 -45t45 -75q17 -46 17 -103q0 -63 -19 -108q-19 -46 -52 -76t-77 -45q-43 -15 -93 -15q-29 0 -73 11
q-41 10 -88 45v-39q0 -63 1 -84q2 -31 6 -48t15 -24t30 -12v-7h-176v7zM140 351l3 -289q49 -38 90 -48q39 -10 69 -10t60 9q29 9 52 35q22 26 36 69q14 45 14 111q0 81 -13 126q-14 48 -34 71q-21 24 -47 32q-24 7 -51 7q-42 0 -79 -25q-38 -25 -81 -69z" />
    <glyph glyph-name="ydieresis" unicode="&#xff;" horiz-adv-x="477" 
d="M117 -171l1 -5q-20 0 -29 9t-9 22q0 12 8 22q8 9 24 9t27 -6t21 -6q14 0 26 19q15 24 35 70l14 30l-162 362q-13 31 -24 51q-11 21 -19 30q-10 11 -16 15q-9 5 -18 8v6h155v-6q-11 -1 -19 -6t-9 -15q-2 -11 3 -29q4 -17 18 -49l125 -282l115 258q19 43 23 64q5 24 0 36
q-5 13 -16 17q-12 5 -27 6v6h119v-6q-10 -1 -19 -6q-8 -4 -18 -17q-9 -12 -21 -36q-14 -28 -30 -64l-165 -371q-34 -75 -58 -105q-25 -31 -55 -31zM355 557v-1q-18 0 -30 12t-12 32q0 18 12 30t30 12t30 -12t12 -30q0 -19 -12 -31t-30 -12zM185 556v-1q-18 0 -30 12t-12 32
q0 18 12 30t30 12t30 -12t12 -30q0 -19 -12 -31t-30 -12z" />
    <glyph glyph-name="Amacron" unicode="&#x100;" horiz-adv-x="768" 
d="M11 6l-5 -2q16 6 23 10q11 6 21 19q12 16 23 36q12 23 27 60l234 555q-8 16 -15 27q-8 12 -15 17q-8 6 -16 9q-12 4 -19 6v6h111q8 0 11 -3q2 -2 7 -12l269 -609q4 -8 10 -22t9 -20q8 -17 18 -34q8 -14 21 -25q11 -10 29 -18v-7h-164v7q26 8 26 27t-18 60l-64 144h-375
l-46 -108q-6 -15 -12 -33t-6 -35q0 -15 8 -31q7 -15 30 -24v-6h-122v6zM527 244l-187 426l-181 -426h368zM459 795h-224v35h224v-35z" />
    <glyph glyph-name="amacron" unicode="&#x101;" horiz-adv-x="457" 
d="M148 -5v1q-54 0 -89 24t-35 75q0 31 12 51t33 33q20 13 50 24q34 12 62 24l57 24q25 10 41 23q17 14 23 22q6 9 10 20q3 9 3 16v50q0 26 -9 42t-24 25t-33 12t-35 3q-22 0 -36 -3q-16 -4 -23 -7q-8 -4 -15 -11q-6 -5 -10 -13q-11 -19 -21 -29q-11 -11 -27 -11t-24 9
q-7 8 -7 21q0 14 13 24q14 10 36 18q25 8 51 11q28 3 62 3t62 -4q33 -5 57 -16q26 -12 42 -34q17 -23 17 -58v-218q0 -36 2 -72q1 -27 6 -42q4 -14 12 -19q7 -4 21 -4q9 0 19 3q9 3 18 8l3 -6q-3 -3 -21 -13q-17 -9 -45 -9q-51 0 -72 23t-21 60l-23 -21q-26 -23 -59 -41
t-83 -18zM101 104l-2 -2q0 -47 20 -69q19 -21 56 -21q34 0 60 14q25 14 51 39l25 23v211q-5 -9 -21 -24q-15 -14 -53 -31l-51 -22q-46 -20 -66 -48q-19 -28 -19 -70zM324 613v-34h-211v34h211z" />
    <glyph glyph-name="Abreve" unicode="&#x102;" horiz-adv-x="768" 
d="M11 6l-5 -2q16 6 23 10q11 6 21 19q12 16 23 36q12 23 27 60l234 555q-8 16 -15 27q-8 12 -15 17q-8 6 -16 9q-12 4 -19 6v6h111q8 0 11 -3q2 -2 7 -12l269 -609q4 -8 10 -22t9 -20q8 -17 18 -34q8 -14 21 -25q11 -10 29 -18v-7h-164v7q26 8 26 27t-18 60l-64 144h-375
l-46 -108q-6 -15 -12 -33t-6 -35q0 -15 8 -31q7 -15 30 -24v-6h-122v6zM527 244l-187 426l-181 -426h368zM346 821l-1 3q46 0 69 20q22 19 30 41h9q-1 -10 -8 -30q-6 -18 -19 -34q-13 -15 -33 -28q-19 -12 -48 -12q-30 0 -50 11q-19 10 -33 26q-13 14 -19 33q-6 17 -9 32h9
q3 -9 11 -21q8 -11 20 -20t30 -15t42 -6z" />
    <glyph glyph-name="abreve" unicode="&#x103;" horiz-adv-x="457" 
d="M148 -5v1q-54 0 -89 24t-35 75q0 31 12 51t33 33q20 13 50 24q34 12 62 24l57 24q25 10 41 23q17 14 23 22q6 9 10 20q3 9 3 16v50q0 26 -9 42t-24 25t-33 12t-35 3q-22 0 -36 -3q-16 -4 -23 -7q-8 -4 -15 -11q-6 -5 -10 -13q-11 -19 -21 -29q-11 -11 -27 -11t-24 9
q-7 8 -7 21q0 14 13 24q14 10 36 18q25 8 51 11q28 3 62 3t62 -4q33 -5 57 -16q26 -12 42 -34q17 -23 17 -58v-218q0 -36 2 -72q1 -27 6 -42q4 -14 12 -19q7 -4 21 -4q9 0 19 3q9 3 18 8l3 -6q-3 -3 -21 -13q-17 -9 -45 -9q-51 0 -72 23t-21 60l-23 -21q-26 -23 -59 -41
t-83 -18zM101 104l-2 -2q0 -47 20 -69q19 -21 56 -21q34 0 60 14q25 14 51 39l25 23v211q-5 -9 -21 -24q-15 -14 -53 -31l-51 -22q-46 -20 -66 -48q-19 -28 -19 -70zM219 582l-3 -4q42 0 65 24q22 24 30 62h9q-2 -25 -9 -47q-8 -23 -19 -40q-12 -18 -31 -28q-20 -11 -45 -11
q-26 0 -46 11t-32 29t-18 41q-5 20 -7 48h9q7 -37 30 -61q22 -24 67 -24z" />
    <glyph glyph-name="Aogonek" unicode="&#x104;" horiz-adv-x="780" 
d="M11 6l-7 -4q16 6 23 10q11 6 21 19q12 16 23 36q9 17 28 60l239 553q-16 34 -30 46q-14 13 -33 17v6h111q8 0 11 -3q2 -2 7 -12l275 -609q2 -4 8.5 -19t10.5 -22q9 -18 18 -33q10 -16 21 -26t29 -18v-7h-91q-20 0 -39 -8q-18 -7 -32 -20q-13 -12 -21 -29q-8 -18 -8 -33
q0 -18 12 -33t36 -15q14 0 27 5t20 12l5 -5q-1 -3 -8 -12q-5 -7 -17 -15q-11 -8 -25 -12q-17 -5 -33 -5q-34 0 -54 18q-19 18 -19 49q0 23 15 41q16 19 36 32q22 14 44 23q16 6 38 13l-106 231h-385l-47 -108q-6 -12 -13 -33q-6 -18 -6 -35q0 -15 8 -31q7 -15 30 -24v-6
h-122v6zM536 242l-193 424l-184 -424h377z" />
    <glyph glyph-name="aogonek" unicode="&#x105;" horiz-adv-x="457" 
d="M148 -5v4q-54 0 -89 24t-35 75q0 32 12 51t33 33q20 13 50 24q34 12 62 24l57 24q25 10 41 23q17 14 23 22q6 9 10 20q3 9 3 16v50q0 25 -9 42q-9 16 -24 25t-33 12t-35 3q-22 0 -36 -3q-15 -3 -21 -7q-8 -5 -12 -10l-10 -12q-9 -15 -21 -28q-10 -12 -29 -12q-17 0 -24 9
q-7 8 -7 21q0 14 15 23t37 15t51 9t57 3q34 0 62 -4q33 -5 57 -16q26 -12 42 -34q17 -23 17 -58v-218q0 -36 2 -72q2 -27 6 -42q4 -14 12 -19q7 -4 21 -4q9 0 19 3q9 3 18 8l3 -6q-7 -7 -27 -15q-34 -10 -58 -33t-24 -57q0 -19 12 -34t36 -15q14 0 27 5t20 12l5 -5
q-3 -5 -9 -12q-5 -7 -17 -15q-11 -8 -25 -12q-17 -5 -33 -5q-34 0 -54 18q-19 18 -19 49q0 19 11 36q9 15 26 28q15 12 33 21q21 10 33 14q-1 -1 -8 -1q-49 0 -69 23t-20 60l-23 -21q-26 -23 -59 -41t-83 -18zM101 107l-2 -2q0 -47 20 -69q19 -21 56 -21q34 0 60 14
q25 13 51 39l25 23v211q-5 -9 -21 -24q-15 -14 -53 -31l-51 -22q-46 -19 -66 -48q-19 -28 -19 -70z" />
    <glyph glyph-name="Cacute" unicode="&#x106;" horiz-adv-x="743" 
d="M420 -7l1 -8q-88 0 -160 32q-71 31 -120 84t-75 120q-26 69 -26 141q0 94 35 167q35 74 91 122q57 49 128 75q69 25 144 25q55 0 87 -7q33 -7 59 -17q12 -5 42 -17q17 -7 37 -7q23 0 30 28h10v-153h-10q-21 86 -90 126q-68 40 -165 40q-66 0 -123 -21q-56 -20 -97 -65
q-40 -43 -64 -111q-24 -67 -24 -160q0 -103 26 -176q26 -72 69 -117t99 -66t114 -21q56 0 99 12t75 30t54 39q23 21 38 41l7 -6q-13 -18 -38 -42q-24 -23 -60 -42t-84 -33q-46 -13 -109 -13zM330 774l165 96q9 5 17 8q9 3 20 3t19 -8q7 -7 7 -17q0 -26 -42 -39l-183 -49z
" />
    <glyph glyph-name="cacute" unicode="&#x107;" horiz-adv-x="476" 
d="M245 543l102 146q19 27 42 27q14 0 20 -8t6 -18q0 -11 -6 -20q-7 -10 -15 -17l-145 -116zM280 -9h-5q-47 0 -92 18t-80 50t-56 77t-21 100q0 56 24 99t62 75t84 48q48 17 90 17q29 0 62 -5q29 -4 53 -14q23 -9 36 -22q14 -14 14 -30q0 -12 -8 -25q-7 -12 -27 -12
q-11 0 -19 5q-7 4 -12 12q-4 6 -7 18q-2 7 -8 23q-9 21 -25 30q-17 9 -57 9q-35 0 -66 -10q-32 -10 -58 -36t-42 -69q-16 -42 -16 -111q0 -67 15 -112q15 -46 40 -72q25 -27 60 -39t75 -12q52 0 91 18t65 50l7 -7q-29 -35 -73 -54t-106 -19z" />
    <glyph glyph-name="Ccircumflex" unicode="&#x108;" horiz-adv-x="743" 
d="M428 886l134 -106l-4 -5l-130 50l-130 -50l-4 5zM420 -7l1 -8q-88 0 -160 32q-71 31 -120 84t-75 120q-26 69 -26 141q0 94 35 167q35 74 91 122q57 49 128 75q69 25 144 25q55 0 87 -7q33 -7 59 -17q12 -5 42 -17q17 -7 37 -7q23 0 30 28h10v-153h-10q-21 86 -90 126
q-68 40 -165 40q-66 0 -123 -21q-56 -20 -97 -65q-40 -43 -64 -111q-24 -67 -24 -160q0 -103 26 -176q26 -72 69 -117t99 -66t114 -21q56 0 99 12t75 30t54 39q23 21 38 41l7 -6q-13 -18 -38 -42q-24 -23 -60 -42t-84 -33q-46 -13 -109 -13z" />
    <glyph glyph-name="ccircumflex" unicode="&#x109;" horiz-adv-x="476" 
d="M286 718l118 -178l-7 -4l-111 105l-111 -105l-7 4zM281 -8h-5q-47 0 -92 18t-80 50t-56 77t-21 100t24 99q24 43 62 75q37 31 84 48q48 17 90 17q29 0 62 -5q29 -4 53 -14q23 -9 36 -22q14 -14 14 -30q0 -12 -8 -25q-8 -12 -27 -12q-11 0 -19 5t-12 12q-4 6 -7 18
q-2 7 -8 23q-9 21 -25 30t-57 9q-35 0 -66 -10q-32 -10 -58 -36q-25 -25 -42 -69q-16 -42 -16 -111q0 -67 15 -112q15 -46 40 -72q26 -27 60 -39t75 -12q52 0 91 18t65 50l7 -7q-29 -35 -73 -54t-106 -19z" />
    <glyph glyph-name="Cdotaccent" unicode="&#x10a;" horiz-adv-x="743" 
d="M420 -7l1 -8q-88 0 -160 32q-71 31 -120 84t-75 120q-26 69 -26 141q0 94 35 167q35 74 91 122q57 49 128 75q69 25 144 25q55 0 87 -7q33 -7 59 -17q12 -5 42 -17q17 -7 37 -7q23 0 30 28h10v-153h-10q-21 86 -90 126q-68 40 -165 40q-66 0 -123 -21q-56 -20 -97 -65
q-40 -43 -64 -111q-24 -67 -24 -160q0 -103 26 -176q26 -72 69 -117t99 -66t114 -21q56 0 99 12t75 30t54 39q23 21 38 41l7 -6q-13 -18 -38 -42q-24 -23 -60 -42t-84 -33q-46 -13 -109 -13zM430 773v-2q-19 0 -33 14q-13 13 -13 33t13 32t33 12t33 -12t13 -31
q0 -20 -13 -33t-33 -13z" />
    <glyph glyph-name="cdotaccent" unicode="&#x10b;" horiz-adv-x="476" 
d="M281 -8h-5q-47 0 -92 18t-80 50t-56 77t-21 100t24 99q24 43 62 75q37 31 84 48q48 17 90 17q29 0 62 -5q29 -4 53 -14q23 -9 36 -22q14 -14 14 -30q0 -12 -8 -25q-8 -12 -27 -12q-11 0 -19 5t-12 12q-4 6 -7 18q-2 7 -8 23q-9 21 -25 30t-57 9q-35 0 -66 -10
q-32 -10 -58 -36q-25 -25 -42 -69q-16 -42 -16 -111q0 -67 15 -112q15 -46 40 -72q26 -27 60 -39t75 -12q52 0 91 18t65 50l7 -7q-29 -35 -73 -54t-106 -19zM281 561q-20 0 -33 13t-13 33t13 33t33 13t33 -13t13 -33t-13 -33t-33 -13z" />
    <glyph glyph-name="Ccaron" unicode="&#x10c;" horiz-adv-x="743" 
d="M298 886l130 -50l130 50l4 -5l-134 -106l-134 106zM420 -7l1 -8q-88 0 -160 32q-71 31 -120 84t-75 120q-26 69 -26 141q0 94 35 167q35 74 91 122q57 49 128 75q69 25 144 25q55 0 87 -7q33 -7 59 -17q12 -5 42 -17q17 -7 37 -7q23 0 30 28h10v-153h-10q-21 86 -90 126
q-68 40 -165 40q-66 0 -123 -21q-56 -20 -97 -65q-40 -43 -64 -111q-24 -67 -24 -160q0 -103 26 -176q26 -72 69 -117t99 -66t114 -21q56 0 99 12t75 30t54 39q23 21 38 41l7 -6q-13 -18 -38 -42q-24 -23 -60 -42t-84 -33q-46 -13 -109 -13z" />
    <glyph glyph-name="ccaron" unicode="&#x10d;" horiz-adv-x="476" 
d="M175 726l111 -105l111 105l7 -4l-118 -178l-118 178zM281 -8h-5q-47 0 -92 18t-80 50t-56 77t-21 100t24 99q24 43 62 75q37 31 84 48q48 17 90 17q29 0 62 -5q29 -4 53 -14q23 -9 36 -22q14 -14 14 -30q0 -12 -8 -25q-8 -12 -27 -12q-11 0 -19 5t-12 12q-4 6 -7 18
q-2 7 -8 23q-9 21 -25 30t-57 9q-35 0 -66 -10q-32 -10 -58 -36q-25 -25 -42 -69q-16 -42 -16 -111q0 -67 15 -112q15 -46 40 -72q26 -27 60 -39t75 -12q52 0 91 18t65 50l7 -7q-29 -35 -73 -54t-106 -19z" />
    <glyph glyph-name="Dcaron" unicode="&#x10e;" horiz-adv-x="762" 
d="M180 886l130 -50l130 50l4 -5l-134 -106l-134 106zM16 7l-3 -2q22 6 33 16q12 11 18 39q5 26 7 82q2 72 2 148v168q0 112 -1 148q-2 57 -7 83q-6 29 -18 38t-33 15v7h181q264 0 398 -92t134 -273q0 -86 -30 -156q-29 -69 -95 -121q-64 -50 -165 -79q-99 -28 -240 -28
h-181v7zM153 739l-3 -733h41q115 0 197 21q83 21 137 66t81 117t27 173q0 104 -30 173q-30 68 -87 109t-138 57q-83 17 -184 17h-41z" />
    <glyph glyph-name="dcaron" unicode="&#x10f;" horiz-adv-x="584" 
d="M548 585l11 129q1 24 9 36t23 12q12 0 19 -7t7 -18q0 -13 -9 -34l-54 -120zM258 -7l-8 -5q-41 0 -80 15t-71 44q-31 29 -51 72q-19 42 -19 100q0 57 20 105q19 46 53 78t80 50t100 18q35 0 73 -13q40 -14 77 -45v150v80q0 27 -5 42q-5 14 -15 17t-30 3v8l127 60v-598
q0 -63 1 -84q2 -33 7 -48q6 -16 18 -24t34 -12v-7h-134v92l-22 -25q-25 -28 -63 -51q-37 -22 -92 -22zM428 99v296q-40 35 -78 48q-36 13 -70 13t-64 -10q-31 -10 -55 -36t-39 -69t-15 -109q0 -78 15 -123t39 -69q23 -23 51 -31q25 -7 51 -7q45 0 81 21q37 22 62 51z" />
    <glyph glyph-name="Dcroat" unicode="&#x110;" horiz-adv-x="762" 
d="M16 7l-3 -2q22 6 33 16q12 11 18 39q5 26 7 82q2 72 2 148v97h-78v8h78v63q0 112 -1 148q-2 57 -7 83q-6 29 -18 38t-33 15v7h181q264 0 398 -92t134 -273q0 -86 -30 -156q-29 -69 -95 -121q-64 -50 -165 -79q-99 -28 -240 -28h-181v7zM153 6h38q115 0 197 21
q83 21 137 66t81 117t27 173q0 104 -30 173q-30 68 -87 109t-138 57q-83 17 -184 17h-41v-345h167v-8h-167v-380z" />
    <glyph glyph-name="dcroat" unicode="&#x111;" horiz-adv-x="584" 
d="M270 578h318v-9h-318v9zM258 -7l-8 -5q-41 0 -80 15t-71 44q-31 29 -51 72q-19 42 -19 100q0 57 20 105q19 46 53 78t80 50t100 18q35 0 73 -13q40 -14 77 -45v150v80q0 27 -5 42q-5 14 -15 17t-30 3v8l127 60v-598q0 -63 1 -84q2 -33 7 -48q6 -16 18 -24t34 -12v-7h-134
v92l-22 -25q-25 -28 -63 -51q-37 -22 -92 -22zM428 99v296q-40 35 -78 48q-36 13 -70 13t-64 -10q-31 -10 -55 -36t-39 -69t-15 -109q0 -78 15 -123t39 -69q23 -23 51 -31q25 -7 51 -7q45 0 81 21q37 22 62 51z" />
    <glyph glyph-name="Emacron" unicode="&#x112;" horiz-adv-x="632" 
d="M16 7v-4q22 6 33 16q12 11 18 39q5 26 7 82q2 72 2 148v168q0 112 -1 148q-2 57 -7 83q-6 29 -18 38t-33 15v7h543q8 0 12 -3q5 -3 6 -19l16 -91h-10q-10 32 -24 51q-15 21 -31 32q-17 11 -42 16q-27 5 -54 5h-277v-322h128q33 0 48 7q17 8 26 18q9 11 12 24l6 26h10
v-157h-10l-6 26q-3 14 -12 24t-26 18q-15 7 -48 7h-128v-401h296q32 0 56 3t42 15t32 35q14 24 23 62h10l-11 -106q-2 -13 -6 -15q-6 -2 -12 -2h-570v7zM446 793h-224v35h224v-35z" />
    <glyph glyph-name="emacron" unicode="&#x113;" horiz-adv-x="486" 
d="M282 -9v3q-46 0 -91 15t-81 45q-35 29 -58 77q-22 45 -22 108q0 59 22 103q22 45 57 75t76 45q42 15 83 15q32 0 63 -9q32 -9 59 -27t47 -47q19 -28 27 -69h-345q-10 -36 -10 -93q0 -68 15 -111t42 -69q27 -25 62 -36q33 -10 74 -10q44 0 83 14q37 14 66 39l5 -7
q-28 -28 -72 -45q-42 -16 -102 -16zM268 470l1 3q-22 0 -43 -7q-22 -8 -42 -24t-36 -42t-27 -63h274q-3 40 -15 65q-12 26 -30 41t-39 21t-43 6zM382 620v-34h-211v34h211z" />
    <glyph glyph-name="Ebreve" unicode="&#x114;" horiz-adv-x="632" 
d="M16 7v-4q22 6 33 16q12 11 18 39q5 26 7 82q2 72 2 148v168q0 112 -1 148q-2 57 -7 83q-6 29 -18 38t-33 15v7h543q8 0 12 -3q5 -3 6 -19l16 -91h-10q-10 32 -24 51q-15 21 -31 32q-17 11 -42 16q-27 5 -54 5h-277v-322h128q33 0 48 7q17 8 26 18q9 11 12 24l6 26h10
v-157h-10l-6 26q-3 14 -12 24t-26 18q-15 7 -48 7h-128v-401h296q32 0 56 3t42 15t32 35q14 24 23 62h10l-11 -106q-2 -13 -6 -15q-6 -2 -12 -2h-570v7zM335 819l-1 3q46 0 69 20q22 19 30 41h9q-1 -10 -8 -30q-6 -18 -19 -34q-13 -15 -33 -28q-20 -12 -48 -12q-30 0 -50 11
q-19 10 -33 26q-13 14 -19 33q-6 17 -9 32h9q3 -9 11 -21q8 -11 20 -20t30 -15t42 -6z" />
    <glyph glyph-name="ebreve" unicode="&#x115;" horiz-adv-x="486" 
d="M282 -9v3q-46 0 -91 15t-81 45q-35 29 -58 77q-22 45 -22 108q0 59 22 103q22 45 57 75t76 45q42 15 83 15q32 0 63 -9q32 -9 59 -27t47 -47q19 -28 27 -69h-345q-10 -36 -10 -93q0 -68 15 -111t42 -69q27 -25 62 -36q33 -10 74 -10q44 0 83 14q37 14 66 39l5 -7
q-28 -28 -72 -45q-42 -16 -102 -16zM268 470l1 3q-22 0 -43 -7q-22 -8 -42 -24t-36 -42t-27 -63h274q-3 40 -15 65q-12 26 -30 41t-39 21t-43 6zM277 589l-3 -4q42 0 65 24q22 24 30 62h9q-2 -25 -9 -47q-8 -23 -19 -40q-12 -18 -31 -28q-20 -11 -45 -11q-26 0 -46 11
t-32 29t-18 41q-5 20 -7 48h9q7 -37 30 -61q22 -24 67 -24z" />
    <glyph glyph-name="Edotaccent" unicode="&#x116;" horiz-adv-x="632" 
d="M335 781v-2q-19 0 -33 14q-13 13 -13 33t13 32q14 12 33 12t33 -12q13 -12 13 -31q0 -20 -13 -33t-33 -13zM16 5v-4q22 6 33 16q12 11 18 39q5 26 7 82q2 72 2 148v168q0 112 -1 148q-2 57 -7 83q-6 29 -18 38t-33 15v7h543q8 0 12 -3q5 -3 6 -19l16 -91h-10
q-10 32 -24 51q-15 21 -31 32q-17 11 -42 16q-27 5 -54 5h-277v-322h128q33 0 48 7q17 8 26 18q9 11 12 24l6 26h10v-157h-10l-6 26q-3 14 -12 24t-26 18q-15 7 -48 7h-128v-401h296q32 0 56 3t42 15t32 35q14 24 23 62h10l-11 -106q-2 -13 -6 -15q-6 -2 -12 -2h-570v7z" />
    <glyph glyph-name="edotaccent" unicode="&#x117;" horiz-adv-x="486" 
d="M282 -9v3q-46 0 -91 15t-81 45q-35 29 -58 77q-22 45 -22 108q0 59 22 103q22 45 57 75t76 45q42 15 83 15q32 0 63 -9q32 -9 59 -27t47 -47q19 -28 27 -69h-345q-10 -36 -10 -93q0 -68 15 -111t42 -69q27 -25 62 -36q33 -10 74 -10q44 0 83 14q37 14 66 39l5 -7
q-28 -28 -72 -45q-42 -16 -102 -16zM268 470l1 3q-22 0 -43 -7q-22 -8 -42 -24t-36 -42t-27 -63h274q-3 40 -15 65q-12 26 -30 41t-39 21t-43 6zM276 567q-20 0 -33 13t-13 33t13 33t33 13t33 -13t13 -33t-13 -33t-33 -13z" />
    <glyph glyph-name="Eogonek" unicode="&#x118;" horiz-adv-x="632" 
d="M461 -170l-1 1q-34 0 -54 18q-19 18 -19 49q0 23 15 41t35 32q19 13 41 21q21 8 33 9h12q-30 -11 -54 -33t-24 -57q0 -19 12 -34t36 -15q13 0 26 5t20 12l5 -5q-1 -3 -8 -12q-5 -7 -17 -15q-11 -8 -25 -12q-17 -5 -33 -5zM15 8v-4q22 6 33 16q12 10 18 39q5 26 7 82
q2 72 2 148v168q0 112 -1 148q-2 57 -7 83q-6 29 -18 38t-33 15v7h543q7 0 12 -3t6 -19l16 -91h-10q-11 31 -24 51q-15 21 -31 32q-17 11 -42 16q-27 5 -54 5h-277v-322h128q33 0 48 7q17 8 26 18t12 24l6 26h10v-157h-10l-6 26q-3 13 -12 24q-9 10 -26 18q-15 7 -48 7h-128
v-401h296q32 0 56 3t42 15t32 35q14 24 23 62h10l-11 -106q-1 -14 -6 -15q-6 -2 -12 -2h-570v7z" />
    <glyph glyph-name="eogonek" unicode="&#x119;" horiz-adv-x="486" 
d="M395 -126l-4 2l-9 -12q-7 -8 -16 -15q-10 -7 -24 -12q-15 -5 -32 -5q-34 0 -54 18t-20 48q0 19 11 36t27 29t36 21t36 15q-28 -6 -63 -6q-46 0 -91 15t-81 45q-35 29 -58 77q-22 45 -22 108q0 59 22 103q23 45 57 75q35 30 76 45q42 15 83 15q31 0 63 -9t59 -27t47 -47
t27 -69h-345q-10 -36 -10 -93q0 -67 15 -111t42 -69t62 -36q33 -10 74 -10q44 0 83 14q38 13 66 39l5 -7q-13 -13 -30 -24t-33 -18q-12 -5 -36 -17q-17 -8 -31 -21q-13 -12 -21 -27q-8 -16 -8 -33q0 -19 12 -34t36 -15q14 0 26 5q10 5 18 12zM264 469l1 3q-22 0 -43 -7
q-22 -7 -42 -24t-36 -42t-27 -63h274q-3 40 -15 65q-12 26 -30 41t-39 21t-43 6z" />
    <glyph glyph-name="Ecaron" unicode="&#x11a;" horiz-adv-x="632" 
d="M204 886l130 -50l130 50l4 -5l-134 -106l-134 106zM16 7v-4q22 6 33 16q12 11 18 39q5 26 7 82q2 72 2 148v168q0 112 -1 148q-2 57 -7 83q-6 29 -18 38t-33 15v7h543q8 0 12 -3q5 -3 6 -19l16 -91h-10q-10 32 -24 51q-15 21 -31 32q-17 11 -42 16q-27 5 -54 5h-277v-322
h128q33 0 48 7q17 8 26 18q9 11 12 24l6 26h10v-157h-10l-6 26q-3 14 -12 24t-26 18q-15 7 -48 7h-128v-401h296q32 0 56 3t42 15t32 35q14 24 23 62h10l-11 -106q-2 -13 -6 -15q-6 -2 -12 -2h-570v7z" />
    <glyph glyph-name="ecaron" unicode="&#x11b;" horiz-adv-x="486" 
d="M164 726l111 -105l111 105l7 -4l-118 -178l-118 178zM282 -9v3q-46 0 -91 15t-81 45q-35 29 -58 77q-22 45 -22 108q0 59 22 103q22 45 57 75t76 45q42 15 83 15q32 0 63 -9q32 -9 59 -27t47 -47q19 -28 27 -69h-345q-10 -36 -10 -93q0 -68 15 -111t42 -69q27 -25 62 -36
q33 -10 74 -10q44 0 83 14q37 14 66 39l5 -7q-28 -28 -72 -45q-42 -16 -102 -16zM268 470l1 3q-22 0 -43 -7q-22 -8 -42 -24t-36 -42t-27 -63h274q-3 40 -15 65q-12 26 -30 41t-39 21t-43 6z" />
    <glyph glyph-name="Gcircumflex" unicode="&#x11c;" horiz-adv-x="787" 
d="M436 886l134 -106l-4 -5l-130 50l-130 -50l-4 5zM418 -8h1q-87 0 -159 29q-70 28 -120 80q-49 50 -76 123q-27 72 -27 157q0 96 35 168q34 71 90 117t126 69q69 22 143 22q55 0 87 -7q37 -8 57 -16q32 -13 39 -16q15 -7 36 -7q26 0 33 28h11v-153h-11q-11 42 -33 72
q-23 30 -56 50q-34 20 -75 29q-42 9 -90 9q-63 0 -118 -18t-97 -60t-66 -111t-24 -171q0 -106 21 -180t60 -120q40 -47 93 -68q54 -21 120 -21q48 0 92 11q41 10 72 35t47 63q17 40 17 95v4q0 45 -1 59q-2 22 -7 33q-6 11 -18 16t-33 9v8h200v-8q-18 -4 -30 -9t-18 -18
q-7 -15 -8 -37q-2 -32 -2 -66v-73q-17 -21 -46 -42q-31 -23 -70 -42q-38 -18 -90 -31q-49 -12 -105 -12z" />
    <glyph glyph-name="gcircumflex" unicode="&#x11d;" horiz-adv-x="470" 
d="M248 718l118 -178l-7 -4l-111 105l-111 -105l-7 4zM229 161l-10 -5q-53 0 -102 23l-13 -9q-13 -9 -25 -21q-10 -10 -10 -24q0 -15 14 -21q13 -6 35 -9l206 -26q26 -3 48 -9q21 -6 39 -17q15 -10 25 -29q9 -18 9 -45q0 -29 -15 -54t-45 -45q-32 -21 -73 -32
q-44 -12 -99 -12q-36 0 -72 6q-38 6 -66 19q-29 13 -48 32q-18 18 -18 44q0 20 10 36t27 28q17 13 37 21q5 2 41 16q-38 4 -57 24q-20 20 -20 45q0 29 17 48q16 17 35 30l15 10q-34 19 -57 51t-23 75q0 36 17 67q16 29 44 51t61 32q36 11 69 11q26 0 53 -6q29 -6 50 -19
q25 20 54 32q30 12 50 12q17 0 24 -7t7 -21q0 -12 -7 -19t-18 -7q-8 0 -15 3q-5 2 -15 8t-16 8q-9 3 -19 3q-20 0 -36 -13q35 -20 59 -53t24 -78q0 -37 -17 -66q-16 -28 -44 -48q-27 -20 -61 -30q-33 -10 -69 -10zM219 165v-1q25 0 47 8t38 24q16 15 25 44q9 27 9 68
q0 40 -9 69q-10 30 -25 47q-17 18 -37 27q-21 9 -46 9q-51 0 -84 -36t-33 -117q0 -40 9 -67q9 -28 24 -44t36 -24q20 -7 46 -7zM62 -70l-2 -2q0 -25 12 -43q12 -17 32 -30q19 -12 47 -18q27 -6 59 -6q50 0 89 11q36 10 63 26q25 15 37 33t12 33q0 18 -9 30q-8 11 -23 19
q-12 7 -32 10q-25 4 -34 5l-177 23q-39 -14 -56 -34q-18 -21 -18 -57z" />
    <glyph glyph-name="Gbreve" unicode="&#x11e;" horiz-adv-x="787" 
d="M437 823l-1 3q46 0 69 20q22 19 30 41h9q-1 -10 -8 -30q-6 -18 -19 -34q-13 -15 -33 -28q-20 -12 -48 -12q-30 0 -50 11q-19 10 -33 26q-13 14 -19 33q-6 17 -9 32h9q3 -9 11 -21q8 -11 20 -20t30 -15t42 -6zM417 -5h1q-87 0 -159 29q-70 28 -120 80q-49 50 -76 123
q-27 72 -27 157q0 96 35 168q35 70 90 117t126 69q69 22 143 22q55 0 87 -7q37 -8 57 -16q32 -13 39 -16q15 -7 36 -7q26 0 33 28h11v-153h-11q-10 42 -33 72t-56 50q-34 20 -75 29q-42 9 -90 9q-62 0 -118 -18q-55 -18 -97 -60t-66 -111t-24 -171q0 -107 21 -180t60 -120
q40 -47 93 -68q54 -21 120 -21q48 0 92 11q41 10 72 35t47 63q17 40 17 95v4q0 45 -1 59q-2 22 -7 33q-6 11 -18 16q-12 4 -33 9v8h200v-8q-18 -5 -30 -9t-18 -18q-7 -15 -8 -37q-2 -32 -2 -66v-73q-17 -21 -46 -42q-31 -23 -70 -42q-38 -18 -90 -31q-50 -12 -105 -12z" />
    <glyph glyph-name="gbreve" unicode="&#x11f;" horiz-adv-x="470" 
d="M229 161l-10 -5q-53 0 -102 23l-13 -9q-13 -9 -25 -21q-10 -10 -10 -24q0 -15 14 -21q13 -6 35 -9l206 -26q26 -3 48 -9q21 -6 39 -17q15 -10 25 -29q9 -18 9 -45q0 -29 -15 -54t-45 -45q-32 -21 -73 -32q-44 -12 -99 -12q-36 0 -72 6q-38 6 -66 19q-29 13 -48 32
q-18 18 -18 44q0 20 10 36t27 28q17 13 37 21q5 2 41 16q-38 4 -57 24q-20 20 -20 45q0 29 17 48q16 17 35 30l15 10q-34 19 -57 51t-23 75q0 36 17 67q16 29 44 51t61 32q36 11 69 11q26 0 53 -6q29 -6 50 -19q25 20 54 32q30 12 50 12q17 0 24 -7t7 -21q0 -12 -7 -19
t-18 -7q-8 0 -15 3q-5 2 -15 8t-16 8q-9 3 -19 3q-20 0 -36 -13q35 -20 59 -53t24 -78q0 -37 -17 -66q-16 -28 -44 -48q-27 -20 -61 -30q-33 -10 -69 -10zM219 165v-1q25 0 47 8t38 24q16 15 25 44q9 27 9 68q0 40 -9 69q-10 30 -25 47q-17 18 -37 27q-21 9 -46 9
q-51 0 -84 -36t-33 -117q0 -40 9 -67q9 -28 24 -44t36 -24q20 -7 46 -7zM62 -70l-2 -2q0 -25 12 -43q12 -17 32 -30q19 -12 47 -18q27 -6 59 -6q50 0 89 11q36 10 63 26q25 15 37 33t12 33q0 18 -9 30q-8 11 -23 19q-12 7 -32 10q-25 4 -34 5l-177 23q-39 -14 -56 -34
q-18 -21 -18 -57zM237 575l-3 -4q42 0 65 24q22 24 30 62h9q-2 -25 -9 -47q-8 -23 -19 -40q-12 -18 -31 -28q-20 -11 -45 -11q-26 0 -46 11t-32 29t-18 41q-5 20 -7 48h9q7 -37 30 -61t67 -24z" />
    <glyph glyph-name="Gdotaccent" unicode="&#x120;" horiz-adv-x="787" 
d="M436 781v-2q-19 0 -33 14q-13 13 -13 33t13 32t33 12t33 -12t13 -31q0 -20 -13 -33t-33 -13zM418 -10h1q-87 0 -159 29q-70 28 -120 80q-49 50 -76 123q-27 72 -27 157q0 96 35 168q34 71 90 117t126 69q69 22 143 22q55 0 87 -7q37 -8 57 -16q32 -13 39 -16q15 -7 36 -7
q26 0 33 28h11v-153h-11q-11 42 -33 72q-23 30 -56 50q-34 20 -75 29q-42 9 -90 9q-63 0 -118 -18t-97 -60t-66 -111t-24 -171q0 -106 21 -180t60 -120q40 -47 93 -68q54 -21 120 -21q48 0 92 11q41 10 72 35t47 63q17 40 17 95v4q0 45 -1 59q-2 22 -7 33q-6 11 -18 16
t-33 9v8h200v-8q-18 -4 -30 -9t-18 -18q-7 -15 -8 -37q-2 -32 -2 -66v-73q-17 -21 -46 -42q-31 -23 -70 -42q-38 -18 -90 -31q-49 -12 -105 -12z" />
    <glyph glyph-name="gdotaccent" unicode="&#x121;" horiz-adv-x="470" 
d="M229 161l-10 -5q-53 0 -102 23l-13 -9q-13 -9 -25 -21q-10 -10 -10 -24q0 -15 14 -21q13 -6 35 -9l206 -26q26 -3 48 -9q21 -6 39 -17q15 -10 25 -29q9 -18 9 -45q0 -29 -15 -54t-45 -45q-32 -21 -73 -32q-44 -12 -99 -12q-36 0 -72 6q-38 6 -66 19q-29 13 -48 32
q-18 18 -18 44q0 20 10 36t27 28q17 13 37 21q5 2 41 16q-38 4 -57 24q-20 20 -20 45q0 29 17 48q16 17 35 30l15 10q-34 19 -57 51t-23 75q0 36 17 67q16 29 44 51t61 32q36 11 69 11q26 0 53 -6q29 -6 50 -19q25 20 54 32q30 12 50 12q17 0 24 -7t7 -21q0 -12 -7 -19
t-18 -7q-8 0 -15 3q-5 2 -15 8t-16 8q-9 3 -19 3q-20 0 -36 -13q35 -20 59 -53t24 -78q0 -37 -17 -66q-16 -28 -44 -48q-27 -20 -61 -30q-33 -10 -69 -10zM219 165v-1q25 0 47 8t38 24q16 15 25 44q9 27 9 68q0 40 -9 69q-10 30 -25 47q-17 18 -37 27q-21 9 -46 9
q-51 0 -84 -36t-33 -117q0 -40 9 -67q9 -28 24 -44t36 -24q20 -7 46 -7zM62 -70l-2 -2q0 -25 12 -43q12 -17 32 -30q19 -12 47 -18q27 -6 59 -6q50 0 89 11q36 10 63 26q25 15 37 33t12 33q0 18 -9 30q-8 11 -23 19q-12 7 -32 10q-25 4 -34 5l-177 23q-39 -14 -56 -34
q-18 -21 -18 -57zM236 553q-20 0 -33 13t-13 33t13 33t33 13t33 -13t13 -33t-13 -33t-33 -13z" />
    <glyph glyph-name="uni0122" unicode="&#x122;" horiz-adv-x="787" 
d="M434 -125l1 -2q-3 -3 -10 -7t-19 -4q-16 0 -27 10q-12 10 -12 28q0 20 13 30q14 11 30 11q19 0 35 -14q15 -13 15 -41q0 -40 -22 -58q-23 -19 -51 -23l-4 7q56 12 56 49q0 9 -5 14zM419 -10h1q-87 0 -159 29q-70 28 -120 80q-49 50 -76 123q-27 72 -27 157q0 96 35 168
q35 71 90 117t126 69q69 22 143 22q55 0 87 -7q37 -8 57 -16q32 -13 39 -16q15 -7 36 -7q26 0 33 28h11v-153h-11q-10 42 -33 72t-56 50q-34 20 -75 29q-42 9 -90 9q-62 0 -118 -18q-55 -18 -97 -60t-66 -111t-24 -171q0 -106 21 -180t60 -120q40 -47 93 -68q54 -21 120 -21
q48 0 92 11q41 10 72 35t47 63q17 40 17 95v4q0 45 -1 59q-2 22 -7 33q-6 11 -18 16t-33 9v8h200v-8q-18 -4 -30 -9t-18 -18q-7 -15 -8 -37q-2 -32 -2 -66v-73q-17 -21 -46 -42q-31 -23 -70 -42q-38 -18 -90 -31q-50 -12 -105 -12z" />
    <glyph glyph-name="uni0123" unicode="&#x123;" horiz-adv-x="470" 
d="M220 617v-3q5 5 10 8q8 5 18 5q17 0 27 -10q11 -11 11 -30t-12 -30q-11 -10 -29 -10q-19 0 -34 15t-15 41q0 41 21 59t50 24l4 -8q-56 -12 -56 -49q0 -7 5 -12zM229 158l-10 -5q-53 0 -102 23l-13 -9q-13 -9 -25 -21q-10 -10 -10 -24q0 -15 14 -21q13 -6 35 -9l206 -26
q26 -3 48 -9q21 -6 39 -17q15 -10 25 -29q9 -18 9 -45q0 -28 -15 -54t-45 -45q-32 -21 -73 -32q-44 -12 -99 -12q-36 0 -72 6q-38 6 -66 19q-29 13 -48 32q-18 18 -18 44q0 20 10 36t27 28q17 13 37 21q5 2 41 16q-38 5 -57 24q-20 20 -20 45q0 29 17 48q16 17 35 30l15 10
q-34 20 -57 51q-23 32 -23 75q0 36 17 67q16 29 44 51t61 32q36 11 69 11q26 0 53 -6q29 -6 50 -19q25 20 54 32q30 12 50 12q17 0 24 -7t7 -21q0 -12 -7 -19t-18 -7q-8 0 -15 3q-5 2 -15 8t-16 8q-9 3 -19 3q-20 0 -36 -13q35 -20 59 -53t24 -78q0 -37 -17 -66
q-16 -28 -44 -48q-27 -20 -61 -30q-33 -10 -69 -10zM219 162v-1q25 0 47 8t38 24q16 15 25 44q9 27 9 68t-9 69q-10 30 -25 47q-17 18 -37 27q-21 9 -46 9q-51 0 -84 -36t-33 -117q0 -40 9 -67q9 -28 24 -44q15 -17 36 -24q20 -7 46 -7zM62 -73l-2 -2q0 -25 12 -43
q12 -17 32 -30q19 -12 47 -18q27 -6 59 -6q50 0 89 11q36 10 63 26q25 15 37 33t12 33q0 18 -9 30q-8 11 -23 19q-12 7 -32 10q-25 4 -34 5l-177 23q-39 -14 -56 -34q-18 -21 -18 -57z" />
    <glyph glyph-name="Hcircumflex" unicode="&#x124;" horiz-adv-x="765" 
d="M16 7l-6 -8q21 6 33 15t18 38q5 26 7 83q2 72 2 148v168q0 113 -1 149q-2 57 -7 83q-6 29 -18 38t-33 15v7h200v-7q-21 -6 -33 -15t-18 -37q-5 -26 -7 -82q-1 -36 -1 -148v-44h453v44q0 113 -1 149q-2 57 -7 83q-6 29 -18 38t-33 15v7h200v-7q-21 -6 -33 -15t-18 -37
q-5 -26 -7 -82q-1 -36 -1 -148v-168q0 -76 2 -148q2 -56 7 -82q6 -29 18 -38t33 -15v-7h-200v7q21 6 33 15t18 38q7 31 8 83q2 72 2 148v116h-453v-116q0 -76 2 -148q1 -51 8 -82q6 -29 18 -38t33 -15v-7h-200v7zM376 878l134 -106l-4 -5l-130 50l-130 -50l-4 5z" />
    <glyph glyph-name="hcircumflex" unicode="&#x125;" horiz-adv-x="554" 
d="M26 7l-3 -1q17 5 26 12q10 8 14 24q5 16 6 48q1 21 1 84v392v79q0 30 -4 42q-5 14 -13 17q-7 2 -26 4v8l120 57v-420l45 42q43 37 79 56q39 21 81 21q70 0 101 -31q32 -32 32 -99v-166v-84q0 -30 5 -48q4 -16 14 -24q9 -7 26 -12v-7h-173v7q19 5 29 12q10 8 15 24t6 48
q1 21 1 84v183q0 54 -21 75t-57 21q-31 0 -63 -17q-31 -16 -75 -54l-45 -41v-168q0 -63 1 -84q2 -31 6 -48t15 -24q10 -7 29 -12v-7h-172v7zM282 919l134 -106l-4 -5l-130 50l-130 -50l-4 5z" />
    <glyph glyph-name="Hbar" unicode="&#x126;" horiz-adv-x="765" 
d="M2 577h761v-8h-761v8zM16 7l-6 -8q21 6 33 15t18 38q5 26 7 83q2 72 2 148v168q0 113 -1 149q-2 57 -7 83q-6 29 -18 38t-33 15v7h200v-7q-21 -6 -33 -15t-18 -37q-5 -26 -7 -82q-1 -36 -1 -148v-44h453v44q0 113 -1 149q-2 57 -7 83q-6 29 -18 38t-33 15v7h200v-7
q-21 -6 -33 -15t-18 -37q-5 -26 -7 -82q-1 -36 -1 -148v-168q0 -76 2 -148q2 -56 7 -82q6 -29 18 -38t33 -15v-7h-200v7q21 6 33 15t18 38q7 31 8 83q2 72 2 148v116h-453v-116q0 -76 2 -148q1 -51 8 -82q6 -29 18 -38t33 -15v-7h-200v7z" />
    <glyph glyph-name="hbar" unicode="&#x127;" horiz-adv-x="554" 
d="M-4 569v9h318v-9h-318zM26 7l-3 -1q17 5 26 12q10 8 14 24q5 16 6 48q1 21 1 84v392v79q0 30 -4 42q-5 14 -13 17q-7 2 -26 4v8l120 57v-420l45 42q43 37 79 56q39 21 81 21q70 0 101 -31q32 -32 32 -99v-166v-84q0 -30 5 -48q4 -16 14 -24q9 -7 26 -12v-7h-173v7
q19 5 29 12q10 8 15 24t6 48q1 21 1 84v183q0 54 -21 75t-57 21q-31 0 -63 -17q-31 -16 -75 -54l-45 -41v-168q0 -63 1 -84q2 -31 6 -48t15 -24q10 -7 29 -12v-7h-172v7z" />
    <glyph glyph-name="Itilde" unicode="&#x128;" horiz-adv-x="232" 
d="M16 7l-3 -3q22 6 33 16q12 10 18 39q5 26 7 82q2 72 2 148v168q0 113 -1 149q-2 57 -7 83q-6 29 -18 38t-33 15v7h200v-7q-21 -6 -33 -15t-18 -37q-5 -26 -7 -82q-1 -36 -1 -148v-168q0 -76 2 -148q1 -51 8 -82q6 -28 18 -39q11 -10 33 -16v-7h-200v7zM70 869v5
q9 0 26 -3q11 -2 35 -6t35 -6q16 -3 26 -3q8 0 23 9t32 41l7 -2q-13 -47 -35 -72q-21 -24 -38 -24q-4 0 -28 2q-12 1 -36 5q-25 4 -34 5q-22 2 -24 2q-9 0 -25 -9t-39 -44l-6 2q17 50 39 74t42 24z" />
    <glyph glyph-name="itilde" unicode="&#x129;" 
d="M25 7l-3 -1q17 4 28 12q10 8 15 24t6 48q1 21 1 84v86v81q0 27 -5 42q-5 14 -13 17q-11 4 -27 5v8l122 61v-299q0 -63 1 -84q2 -31 6 -48t15 -24t30 -12v-7h-176v7zM74 643l1 2q5 0 25 -2t31 -4t31 -4t25 -2q7 0 21 9t29 41l7 -3q-11 -49 -30 -71q-20 -23 -36 -23
q-5 0 -27 2l-33 3q-11 1 -31 3t-24 2q-6 0 -10 -1q-6 -2 -13 -7q-7 -6 -16 -16q-8 -9 -19 -30l-6 3q13 47 36 73q22 25 39 25z" />
    <glyph glyph-name="Imacron" unicode="&#x12a;" horiz-adv-x="232" 
d="M16 7l-3 -3q22 6 33 16q12 10 18 39q5 26 7 82q2 72 2 148v168q0 113 -1 149q-2 57 -7 83q-6 29 -18 38t-33 15v7h200v-7q-21 -6 -33 -15t-18 -37q-5 -26 -7 -82q-1 -36 -1 -148v-168q0 -76 2 -148q1 -51 8 -82q6 -28 18 -39q11 -10 33 -16v-7h-200v7zM224 794h-224v35
h224v-35z" />
    <glyph glyph-name="imacron" unicode="&#x12b;" 
d="M25 7l-3 -1q17 4 28 12q10 8 15 24t6 48q1 21 1 84v86v81q0 27 -5 42q-5 14 -13 17q-11 4 -27 5v8l122 61v-299q0 -63 1 -84q2 -31 6 -48t15 -24t30 -12v-7h-176v7zM215 613v-34h-211v34h211z" />
    <glyph glyph-name="Ibreve" unicode="&#x12c;" horiz-adv-x="232" 
d="M16 7l-3 -3q22 6 33 16q12 10 18 39q5 26 7 82q2 72 2 148v168q0 113 -1 149q-2 57 -7 83q-6 29 -18 38t-33 15v7h200v-7q-21 -6 -33 -15t-18 -37q-5 -26 -7 -82q-1 -36 -1 -148v-168q0 -76 2 -148q1 -51 8 -82q6 -28 18 -39q11 -10 33 -16v-7h-200v7zM113 820l-1 3
q46 0 69 20q22 19 30 41h9q-1 -10 -8 -30q-6 -18 -19 -34q-13 -15 -33 -28q-20 -12 -48 -12q-30 0 -50 11q-19 10 -33 26q-13 14 -19 33q-6 17 -9 32h9q3 -9 11 -21q8 -11 20 -20t30 -15t42 -6z" />
    <glyph glyph-name="ibreve" unicode="&#x12d;" 
d="M25 7l-3 -1q17 4 28 12q10 8 15 24t6 48q1 21 1 84v86v81q0 27 -5 42q-5 14 -13 17q-11 4 -27 5v8l122 61v-299q0 -63 1 -84q2 -31 6 -48t15 -24t30 -12v-7h-176v7zM110 582l-3 -4q43 0 65 24t30 62h9q-2 -25 -9 -47q-8 -23 -19 -40q-12 -18 -31 -28q-20 -11 -45 -11
q-26 0 -46 11t-32 29t-18 41q-5 20 -7 48h9q7 -37 30 -61t67 -24z" />
    <glyph glyph-name="Iogonek" unicode="&#x12e;" horiz-adv-x="232" 
d="M16 7l-3 -3q22 6 33 16q12 10 18 39q5 26 7 82q2 72 2 148v168q0 113 -1 149q-2 57 -7 83q-6 29 -18 38t-33 15v7h200v-7q-21 -6 -33 -15t-18 -37q-5 -26 -7 -82q-1 -36 -1 -148v-168q0 -76 2 -148q1 -51 8 -82q6 -28 18 -39q11 -10 33 -16v-7h-200v7zM108 -173l-1 1
q-35 0 -54 18t-19 49q0 23 15 41t35 32q19 13 41 21q21 7 33 9h12q-30 -10 -54 -33t-24 -57q0 -19 12 -34t36 -15q13 0 26 5t20 12l5 -5q-1 -3 -8 -12q-5 -7 -17 -15q-11 -8 -25 -12q-17 -5 -33 -5z" />
    <glyph glyph-name="iogonek" unicode="&#x12f;" 
d="M110 561q-20 0 -33 13t-13 33t13 32t33 12t33 -12t13 -32t-13 -33t-33 -13zM25 7l-3 -1q17 4 28 12q10 8 15 24t6 48q1 21 1 84v86v81q0 27 -5 42q-5 14 -13 17q-11 4 -27 5v8l122 61v-299q0 -63 1 -84q2 -31 6 -48t15 -24t30 -12v-7h-176v7zM105 -171l-1 1q-34 0 -54 18
q-19 18 -19 49q0 23 15 41t35 32q19 13 41 21q21 7 33 9h12q-30 -10 -54 -33t-24 -57q0 -19 12 -34t36 -15q13 0 26 5t20 12l5 -5q-1 -3 -8 -12q-5 -7 -17 -15q-11 -8 -25 -12q-17 -5 -33 -5z" />
    <glyph glyph-name="Idotaccent" unicode="&#x130;" horiz-adv-x="232" 
d="M16 7l-3 -3q22 6 33 16q12 10 18 39q5 26 7 82q2 72 2 148v168q0 113 -1 149q-2 57 -7 83q-6 29 -18 38t-33 15v7h200v-7q-21 -6 -33 -15t-18 -37q-5 -26 -7 -82q-1 -36 -1 -148v-168q0 -76 2 -148q1 -51 8 -82q6 -28 18 -39q11 -10 33 -16v-7h-200v7zM112 778v-2
q-19 0 -33 14q-13 13 -13 33t13 32t33 12t33 -12t13 -31q0 -20 -13 -33t-33 -13z" />
    <glyph glyph-name="dotlessi" unicode="&#x131;" 
d="M25 7l-3 -1q17 4 28 12q10 8 15 24t6 48q1 21 1 84v86v81q0 27 -5 42q-5 14 -13 17q-11 4 -27 5v8l122 61v-299q0 -63 1 -84q2 -31 6 -48t15 -24t30 -12v-7h-176v7z" />
    <glyph glyph-name="IJ" unicode="&#x132;" horiz-adv-x="630" 
d="M16 7l-3 -3q22 6 33 16q12 10 18 39q5 26 7 82q2 72 2 148v168q0 113 -1 149q-2 57 -7 83q-6 29 -18 38t-33 15v7h200v-7q-21 -6 -33 -15t-18 -37q-5 -26 -7 -82q-1 -36 -1 -148v-168q0 -76 2 -148q1 -51 8 -82q6 -28 18 -39q11 -10 33 -16v-7h-200v7zM387 -12l-5 -2
q-32 0 -64 8q-28 7 -51 20q-20 12 -33 29q-12 17 -12 36t11 27t26 8q20 0 29 -9q10 -9 17 -35q5 -20 9 -32q5 -14 12 -23q8 -10 21 -14q15 -5 36 -5q35 0 61 23q25 22 25 75v361q0 113 -1 149q-2 56 -7 82q-6 29 -18 38t-33 15v7h201v-7q-21 -6 -33 -15t-18 -37
q-5 -26 -7 -82q-1 -36 -1 -149v-298q0 -39 -13 -69q-13 -31 -36 -54q-24 -24 -52 -35q-30 -12 -64 -12z" />
    <glyph glyph-name="ij" unicode="&#x133;" horiz-adv-x="443" 
d="M110 561q-20 0 -33 13t-13 33t13 32t33 12t33 -12t13 -32t-13 -33t-33 -13zM25 7l-3 -1q17 4 28 12q10 8 15 24t6 48q1 21 1 84v86v81q0 27 -5 42q-5 14 -13 17q-11 4 -27 5v8l122 61v-299q0 -63 1 -84q2 -31 6 -48t15 -24t30 -12v-7h-176v7zM330 560h-2q-20 0 -33 13
t-13 33t13 32t33 12q18 0 32 -12t14 -32t-13 -33t-31 -13zM193 -140l1 -4q-13 0 -26 8q-12 8 -12 24q0 14 9 21q10 8 22 8t20 -5t14 -11q8 -8 12 -11q7 -5 14 -5q5 0 9 3q1 1 3.5 2.5t3.5 2.5q5 3 9 10q5 8 9 22q4 12 7 39q3 24 3 63v232v81q0 30 -4 42q-5 14 -13 17
q-11 4 -26 5v8l121 61v-423q0 -33 -10 -57q-11 -26 -25 -46q-15 -21 -33 -36q-14 -12 -33 -25q-26 -16 -42 -21q-18 -5 -33 -5z" />
    <glyph glyph-name="Jcircumflex" unicode="&#x134;" horiz-adv-x="399" 
d="M277 886l134 -106l-4 -5l-130 50l-130 -50l-4 5zM158 -9l-5 -2q-32 0 -64 8q-28 7 -51 20q-20 12 -33 29q-12 16 -12 36q0 19 11 27t26 8q20 0 29 -9t17 -35q5 -20 9 -32q5 -14 12 -23q8 -10 21 -14q15 -5 36 -5q35 0 61 23q25 22 25 75v361q0 113 -1 149q-2 56 -7 82
q-6 29 -18 38t-33 15v7h201v-7q-21 -6 -33 -15t-18 -37q-5 -26 -7 -82q-1 -36 -1 -149v-298q0 -39 -13 -69q-14 -32 -36 -54q-24 -24 -52 -35q-30 -12 -64 -12z" />
    <glyph glyph-name="jcircumflex" unicode="&#x135;" horiz-adv-x="219" 
d="M-26 -139l2 -2q-13 0 -26 8q-12 7 -12 24q0 13 9 21q10 8 22 8t20 -5q7 -5 14 -11q8 -8 12 -11q7 -5 14 -5t15 6q5 3 9 10q5 8 9 22q4 12 7 39q3 24 3 63v232v81q0 30 -4 42q-5 14 -13 17q-11 4 -26 5v8l121 61v-423q0 -33 -10 -57q-11 -26 -25 -46q-15 -21 -33 -36
q-14 -12 -33 -25q-25 -17 -42 -21q-18 -5 -33 -5zM114 716l118 -178l-7 -4l-111 105l-111 -105l-7 4z" />
    <glyph glyph-name="uni0136" unicode="&#x136;" horiz-adv-x="685" 
d="M354 -125l1 -2q-3 -3 -10 -7t-19 -4q-16 0 -27 10q-12 10 -12 28q0 20 13 30q14 11 30 11q19 0 35 -14q15 -13 15 -41q0 -40 -22 -58q-23 -19 -51 -23l-4 7q56 12 56 49q0 9 -5 14zM17 5l-4 -7q21 6 33 15t18 38q5 26 7 83q2 72 2 148v168q0 113 -1 149q-2 57 -7 83
q-6 29 -18 38t-33 15v7h200v-7q-21 -6 -33 -15t-18 -37q-5 -26 -7 -82q-1 -36 -1 -148v-37l332 242q43 32 51 51q4 10 -5 17.5t-31 11.5v7h137v-7q-19 -5 -50 -21q-31 -17 -90 -60l-277 -201l358 -381q10 -11 27 -28q15 -15 22 -21q11 -9 21 -15q7 -4 23 -10v-6h-191v6
q20 5 26 12t3 18q-3 12 -13 23q-14 16 -24 26l-318 339v-131q0 -76 2 -148q1 -51 8 -82q6 -29 18 -38t33 -15v-7h-200v7z" />
    <glyph glyph-name="uni0137" unicode="&#x137;" horiz-adv-x="493" 
d="M272 -125l1 -2q-3 -3 -10 -7t-19 -4q-16 0 -27 10q-12 10 -12 28q0 20 13 30q14 11 30 11q19 0 35 -14q15 -13 15 -41q0 -40 -22 -58q-23 -19 -51 -23l-4 7q56 12 56 49q0 9 -5 14zM27 5l-1 2q17 5 26 12q10 8 14 24q4 17 6 48q1 21 1 84v400v74q0 28 -4 40q-4 13 -13 16
q-7 2 -25 4v9l118 57v-528l207 154q16 11 22 21t5 17t-9 12t-21 6v7h126v-7q-25 -7 -51 -21t-63 -42l-159 -117l233 -228q27 -27 39 -36q11 -8 20 -10v-7h-175v7q25 5 29 16q5 12 -22 40l-182 179v-65q0 -63 1 -84q1 -31 6 -48t15 -24t29 -12v-7h-172v7z" />
    <glyph glyph-name="Lacute" unicode="&#x139;" horiz-adv-x="583" 
d="M13 782l165 96q9 5 17 8q9 3 20 3t19 -8q7 -7 7 -17q0 -26 -42 -39l-183 -49zM16 8l-4 -6q21 6 33 15t18 38q5 26 7 83q2 72 2 148v168q0 113 -1 149q-2 57 -7 83q-6 29 -18 38t-33 15v7h202v-7q-22 -6 -34 -15t-18 -37q-5 -26 -7 -82q-1 -36 -1 -148v-450h257q32 0 57 3
t45 17q20 13 33 39t24 69h11l-17 -117q-1 -14 -6 -15q-6 -2 -12 -2h-531v7z" />
    <glyph glyph-name="lacute" unicode="&#x13a;" 
d="M12 782l165 96q9 5 17 8q9 3 20 3t19 -8q7 -7 7 -17q0 -26 -42 -39l-183 -49zM25 8l-3 -1q17 4 28 12q10 7 15 24t6 48q1 21 1 84v372v91q0 31 -5 49q-5 17 -15 20t-30 3v8l127 56v-598q0 -63 1 -84q2 -32 6 -48t15 -24t30 -12v-7h-176v7z" />
    <glyph glyph-name="uni013B" unicode="&#x13b;" horiz-adv-x="583" 
d="M332 -125l1 -2q-3 -3 -10 -7t-19 -4q-16 0 -27 10q-12 10 -12 28q0 20 13 30q14 11 30 11q19 0 35 -14q15 -13 15 -41q0 -40 -22 -58q-23 -19 -51 -23l-4 7q56 12 56 49q0 9 -5 14zM17 5l-4 -6q21 6 33 15t18 38q5 26 7 83q2 72 2 148v168q0 113 -1 149q-2 57 -7 83
q-6 29 -18 38t-33 15v7h202v-7q-22 -6 -34 -15t-18 -37q-5 -26 -7 -82q-1 -36 -1 -148v-450h257q31 0 57 3q25 3 45 17q19 14 33 39t24 69h11l-17 -117q-2 -13 -6 -15q-6 -2 -12 -2h-531v7z" />
    <glyph glyph-name="uni013C" unicode="&#x13c;" 
d="M131 -125l1 -2q-3 -3 -10 -7t-19 -4q-16 0 -27 10q-12 10 -12 28q0 20 13 30q14 11 30 11q19 0 35 -14q15 -13 15 -41q0 -40 -22 -58q-23 -19 -51 -23l-4 7q56 12 56 49q0 9 -5 14zM26 5l-3 -1q17 4 28 12t15 24t6 48q1 21 1 84v372v91q0 31 -5 49q-5 17 -15 20
q-11 3 -30 3v8l127 56v-598q0 -63 1 -84q1 -31 6 -48t15 -24t30 -12v-7h-176v7z" />
    <glyph glyph-name="Lcaron" unicode="&#x13d;" horiz-adv-x="583" 
d="M245 586l11 129q2 24 9 36t23 12q12 0 19 -7t7 -18q0 -13 -9 -34l-54 -120zM16 7l-4 -6q21 6 33 15t18 38q5 26 7 83q2 72 2 148v168q0 113 -1 149q-2 57 -7 83q-6 29 -18 38t-33 15v7h202v-7q-22 -6 -34 -15t-18 -37q-5 -26 -7 -82q-1 -36 -1 -148v-450h257q32 0 57 3
t45 17t33 39t24 69h11l-17 -117q-1 -13 -6 -15q-6 -2 -12 -2h-531v7z" />
    <glyph glyph-name="lcaron" unicode="&#x13e;" 
d="M216 585l11 129q1 24 9 36t23 12q12 0 19 -7t7 -18q0 -13 -9 -34l-54 -120zM25 7l-3 -1q17 4 28 12q10 8 15 24t6 48q1 21 1 84v372v91q0 31 -5 49q-5 17 -15 20t-30 3v8l127 56v-598q0 -63 1 -84q2 -31 6 -48t15 -24t30 -12v-7h-176v7z" />
    <glyph glyph-name="Ldot" unicode="&#x13f;" horiz-adv-x="583" 
d="M408 343q-20 0 -36 14q-15 14 -15 35q0 20 15 33q16 14 36 14q19 0 33 -14t14 -33q0 -21 -14 -35t-33 -14zM16 7l-4 -6q21 6 33 15t18 38q5 26 7 83q2 72 2 148v168q0 113 -1 149q-2 57 -7 83q-6 29 -18 38t-33 15v7h202v-7q-22 -6 -34 -15t-18 -37q-5 -26 -7 -82
q-1 -36 -1 -148v-450h257q32 0 57 3t45 17t33 39t24 69h11l-17 -117q-1 -13 -6 -15q-6 -2 -12 -2h-531v7z" />
    <glyph glyph-name="ldot" unicode="&#x140;" horiz-adv-x="276" 
d="M250 318q-20 0 -36 14q-15 14 -15 35q0 19 15 33q16 14 36 14q19 0 33 -14t14 -33q0 -21 -14 -35t-33 -14zM25 7l-3 -1q17 4 28 12q10 8 15 24t6 48q1 21 1 84v372v91q0 31 -5 49q-5 17 -15 20t-30 3v8l127 56v-598q0 -63 1 -84q2 -31 6 -48t15 -24t30 -12v-7h-176v7z
" />
    <glyph glyph-name="Lslash" unicode="&#x141;" horiz-adv-x="583" 
d="M-13 261l-4 8l389 206l4 -8zM16 7l-4 -6q21 6 33 15t18 38q5 26 7 83q2 72 2 148v168q0 113 -1 149q-2 57 -7 83q-6 29 -18 38t-33 15v7h202v-7q-22 -6 -34 -15t-18 -37q-5 -26 -7 -82q-1 -36 -1 -148v-450h257q32 0 57 3t45 17t33 39t24 69h11l-17 -117q-1 -13 -6 -15
q-6 -2 -12 -2h-531v7z" />
    <glyph glyph-name="lslash" unicode="&#x142;" 
d="M2 304l-6 7l229 163l6 -7zM25 7l-3 -1q17 4 28 12q10 8 15 24t6 48q1 21 1 84v372v91q0 31 -5 49q-5 17 -15 20t-30 3v8l127 56v-598q0 -63 1 -84q2 -31 6 -48t15 -24t30 -12v-7h-176v7z" />
    <glyph glyph-name="Nacute" unicode="&#x143;" horiz-adv-x="726" 
d="M295 782l165 96q9 5 17 8q9 3 20 3t19 -8q7 -7 7 -17q0 -26 -42 -39l-183 -49zM16 8l-7 -2q21 8 33 18t18 39q5 26 7 83q2 72 2 148v164q0 112 -1 148q-2 57 -7 83q-6 29 -18 38t-33 15v7h140q6 0 9 -1q6 -2 8 -4l9 -9q7 -7 14 -17l445 -591v328v108q0 35 -2 75
q-1 30 -6 48q-5 19 -12 29q-8 11 -18 17q-12 7 -26 11v7h135v-7q-11 -4 -24 -11q-9 -5 -16 -17q-6 -10 -9 -29q-4 -22 -5 -48q-2 -40 -2 -75v-108v-458h-16l-550 733v-435q0 -76 2 -148q1 -51 8 -82q6 -28 20 -39q14 -10 36 -18v-7h-134v7z" />
    <glyph glyph-name="nacute" unicode="&#x144;" horiz-adv-x="552" 
d="M230 543l102 146q20 27 42 27q14 0 20 -8t6 -18q0 -11 -6 -20q-7 -10 -15 -17l-145 -116zM25 6l-2 -1q17 5 26 12q10 8 14 24q5 17 6 48q1 21 1 84v86v80q0 27 -5 42q-5 14 -13 17q-11 4 -27 5v8l122 61v-119l45 41q40 36 78 56q39 21 81 21q68 0 99 -31t31 -99v-166v-84
q0 -30 5 -48q4 -16 14 -24q9 -7 26 -12v-7h-172v7q19 5 29 12q11 7 15 24t6 48q1 21 1 84v183q0 54 -21 75t-57 21q-31 0 -63 -17q-30 -16 -73 -54l-45 -40v-169q0 -63 1 -84q1 -32 6 -48t15 -24q10 -7 29 -12v-7h-172v7z" />
    <glyph glyph-name="uni0145" unicode="&#x145;" horiz-adv-x="726" 
d="M369 -125l1 -2q-2 -3 -10 -7q-7 -4 -19 -4q-16 0 -27 10q-12 10 -12 28q0 20 13 30q14 11 30 11q19 0 35 -14q15 -13 15 -41q0 -40 -22 -58q-23 -19 -51 -23l-4 7q56 12 56 49q0 9 -5 14zM17 5l-7 -2q21 7 33 18t18 39q5 26 7 83q2 72 2 148v164q0 112 -1 148
q-2 57 -7 83q-6 29 -18 38t-33 15v7h140q6 0 9 -1q6 -2 8 -4l9 -9q6 -6 14 -17l445 -591v328v108q0 35 -2 75q-2 30 -6 48q-5 19 -12 29q-8 11 -18 17q-12 7 -26 11v7h135v-7q-11 -4 -24 -11q-9 -5 -16 -17q-6 -10 -9 -29q-4 -22 -5 -48q-2 -40 -2 -75v-108v-458h-16
l-550 733v-435q0 -76 2 -148q1 -51 8 -82q6 -28 20 -39q13 -11 36 -18v-7h-134v7z" />
    <glyph glyph-name="uni0146" unicode="&#x146;" horiz-adv-x="552" 
d="M294 -125l1 -2q-3 -3 -10 -7t-19 -4q-16 0 -27 10q-12 10 -12 28q0 20 13 30q14 11 30 11q19 0 35 -14q15 -13 15 -41q0 -40 -22 -58q-23 -19 -51 -23l-4 7q56 12 56 49q0 9 -5 14zM27 5l-2 -1q17 5 26 12q10 8 14 24q5 16 6 48q1 21 1 84v86v80q0 27 -5 42q-5 14 -13 17
q-11 4 -27 5v8l122 61v-119l45 41q40 36 78 56q39 21 81 21q68 0 99 -31t31 -99v-166v-84q0 -30 5 -48q4 -16 14 -24q9 -7 26 -12v-7h-172v7q19 5 29 12q11 8 15 24t6 48q1 21 1 84v183q0 54 -21 75t-57 21q-31 0 -63 -17q-30 -16 -73 -54l-45 -40v-169q0 -63 1 -84
q1 -31 6 -48t15 -24t29 -12v-7h-172v7z" />
    <glyph glyph-name="Ncaron" unicode="&#x147;" horiz-adv-x="726" 
d="M264 886l130 -50l130 50l4 -5l-134 -106l-134 106zM16 7l-7 -2q21 7 33 18t18 39q5 26 7 83q2 72 2 148v164q0 112 -1 148q-2 57 -7 83q-6 29 -18 38t-33 15v7h140q6 0 9 -1q6 -2 8 -4l9 -9q7 -6 14 -17l445 -591v328v108q0 35 -2 75q-1 30 -6 48q-5 19 -12 29
q-8 11 -18 17q-12 7 -26 11v7h135v-7q-11 -4 -24 -11q-9 -5 -16 -17q-6 -10 -9 -29q-4 -22 -5 -48q-2 -40 -2 -75v-108v-458h-16l-550 733v-435q0 -76 2 -148q1 -51 8 -82q6 -28 20 -39t36 -18v-7h-134v7z" />
    <glyph glyph-name="ncaron" unicode="&#x148;" horiz-adv-x="552" 
d="M160 726l111 -105l111 105l7 -4l-118 -178l-118 178zM26 7l-2 -1q17 5 26 12q10 8 14 24t6 48q1 21 1 84v86v80q0 27 -5 42q-5 14 -13 17q-11 4 -27 5v8l122 61v-119l45 41q40 36 78 56q39 21 81 21q68 0 99 -31t31 -99v-166v-84q0 -30 5 -48q4 -16 14 -24q9 -7 26 -12
v-7h-172v7q19 5 29 12q10 8 15 24t6 48q1 21 1 84v183q0 54 -21 75t-57 21q-31 0 -63 -17q-30 -16 -73 -54l-45 -40v-169q0 -63 1 -84q2 -31 6 -48t15 -24q10 -7 29 -12v-7h-172v7z" />
    <glyph glyph-name="napostrophe" unicode="&#x149;" horiz-adv-x="552" 
d="M26 7l-2 -1q17 5 26 12q10 8 14 24t6 48q1 21 1 84v86v80q0 27 -5 42q-5 14 -13 17q-11 4 -27 5v8l122 61v-119l45 41q40 36 78 56q39 21 81 21q68 0 99 -31t31 -99v-166v-84q0 -30 5 -48q4 -16 14 -24q9 -7 26 -12v-7h-172v7q19 5 29 12q10 8 15 24t6 48q1 21 1 84v183
q0 54 -21 75t-57 21q-31 0 -63 -17q-30 -16 -73 -54l-45 -40v-169q0 -63 1 -84q2 -31 6 -48t15 -24q10 -7 29 -12v-7h-172v7zM43 689l-1 -1q-4 -4 -12 -9q-7 -4 -21 -4q-16 0 -29 11q-12 10 -12 30q0 21 14 33t32 12q20 0 38 -15t18 -51q0 -42 -21 -72t-53 -50l-5 7
q29 20 44 44t15 46q0 15 -7 19z" />
    <glyph glyph-name="Eng" unicode="&#x14a;" horiz-adv-x="726" 
d="M16 7l-11 -4q21 7 33 18t18 39q5 26 7 83q2 72 2 148v164q0 112 -1 148q-2 57 -7 83q-6 29 -18 38t-33 15v7h140q6 0 9 -1q6 -2 8 -4l9 -9q6 -6 14 -17l445 -585v322v108q0 35 -2 75q-1 30 -6 48q-5 19 -12 29q-8 11 -18 17q-12 7 -26 11v7h135v-7q-11 -4 -24 -11
q-9 -5 -16 -17q-6 -10 -9 -29q-4 -22 -5 -48q-2 -40 -2 -75v-108v-465q0 -59 -38 -91q-37 -31 -96 -31q-34 0 -64 6t-51 18q-22 12 -33 28q-12 17 -12 36t11 27t27 8q20 0 30 -9q10 -8 16 -35q4 -16 9 -31q4 -13 12 -22q7 -8 21 -13q12 -4 35 -4q54 0 90 30t36 87v5
l-555 733v-435q0 -76 2 -148q1 -51 8 -82q6 -28 20 -39t36 -18v-7h-134v7z" />
    <glyph glyph-name="eng" unicode="&#x14b;" horiz-adv-x="552" 
d="M26 7l1 -5q17 5 26 12q10 8 14 24q5 16 6 48q1 21 1 84v86v80q0 27 -5 42q-5 14 -13 17q-11 4 -27 5v8l122 61v-119l45 41q40 36 78 56q39 21 81 21q68 0 99 -31t31 -99v-290q0 -33 -10 -57q-11 -26 -25 -46q-15 -21 -33 -36q-14 -12 -33 -25q-24 -17 -40 -21
q-18 -5 -33 -5q-13 0 -26 8q-12 8 -12 24q0 14 9 21q10 8 22 8q10 0 18 -5q8 -4 14 -11q8 -8 12 -11q7 -5 14 -5q4 0 9 3q1 1 3.5 2.5t3.5 2.5q5 3 9 10q5 8 9 22q4 12 7 39q3 24 3 63v330q0 54 -21 75t-57 21q-31 0 -63 -17q-30 -16 -73 -54l-45 -40v-169q0 -63 1 -84
q2 -31 6 -48t15 -24q10 -7 29 -12v-7h-172v7z" />
    <glyph glyph-name="Omacron" unicode="&#x14c;" horiz-adv-x="834" 
d="M531 797h-224v35h224v-35zM417 -8l-3 -6q-74 0 -144 29q-67 28 -121 80q-52 51 -84 122q-31 69 -31 155q0 81 32 153q31 70 84 121q53 52 122 80q70 29 144 29q75 0 143 -28q71 -29 122 -79q53 -51 84 -121q32 -72 32 -153q0 -85 -31 -154q-31 -70 -84 -121
q-51 -50 -122 -79q-68 -28 -143 -28zM414 -5l-1 -2q57 0 110 21t93 66q40 44 64 117q24 72 24 174t-24 173q-25 72 -64 116q-41 46 -93 65q-54 20 -110 20t-110 -20q-53 -20 -93 -64q-42 -46 -65 -115q-24 -70 -24 -173q0 -102 24 -174q24 -71 65 -117q40 -45 93 -66
t111 -21z" />
    <glyph glyph-name="omacron" unicode="&#x14d;" horiz-adv-x="560" 
d="M385 614v-34h-211v34h211zM279 -10v-1q-44 0 -86 16q-43 16 -80 47t-59 75q-23 46 -23 103q0 56 23 102q23 45 59 77q36 31 80 48q45 17 86 17t87 -17q45 -17 81 -48q35 -31 60 -77q24 -45 24 -102q0 -58 -24 -103t-60 -75q-35 -29 -81 -46q-44 -16 -87 -16zM279 -3
l-1 -2q32 0 64 12q31 12 55 39q25 28 38 72q14 47 14 111q0 62 -14 109t-37 74q-24 29 -55 42q-33 14 -64 14q-34 0 -63 -13q-31 -14 -53 -42q-23 -29 -36 -73q-14 -47 -14 -109q0 -64 14 -111q13 -45 36 -72q22 -27 53 -39q30 -12 63 -12z" />
    <glyph glyph-name="Obreve" unicode="&#x14e;" horiz-adv-x="834" 
d="M420 823l-1 3q46 0 69 20q22 19 30 41h9q-1 -10 -8 -30q-6 -18 -19 -34q-13 -15 -33 -28q-19 -12 -48 -12q-30 0 -50 11q-19 10 -33 26q-13 14 -19 33q-6 17 -9 32h9q3 -9 11 -21q8 -11 20 -20t30 -15t42 -6zM416 -5l-3 -6q-74 0 -144 29q-67 28 -121 80q-52 51 -84 122
q-31 69 -31 155q0 81 32 153q31 70 84 121q53 52 122 80q70 29 144 29q75 0 143 -28q71 -29 122 -79q53 -51 84 -121q32 -72 32 -153q0 -85 -31 -154q-31 -70 -84 -121q-51 -50 -122 -79q-68 -28 -143 -28zM413 -2l-1 -2q58 0 110 21t93 66q40 44 64 117q24 72 24 174
t-24 173q-25 72 -64 116q-41 46 -93 65q-54 20 -110 20t-110 -20q-53 -20 -93 -64q-42 -46 -65 -115q-24 -71 -24 -173t24 -174q24 -71 65 -117q41 -45 93 -66t111 -21z" />
    <glyph glyph-name="obreve" unicode="&#x14f;" horiz-adv-x="560" 
d="M279 -10v-1q-44 0 -86 16q-43 16 -80 47t-59 75q-23 46 -23 103q0 56 23 102q23 45 59 77q36 31 80 48q45 17 86 17t87 -17q45 -17 81 -48q35 -31 60 -77q24 -45 24 -102q0 -58 -24 -103t-60 -75q-35 -29 -81 -46q-44 -16 -87 -16zM279 -3l-1 -2q32 0 64 12q31 12 55 39
q25 28 38 72q14 47 14 111q0 62 -14 109t-37 74q-24 29 -55 42q-33 14 -64 14q-34 0 -63 -13q-31 -14 -53 -42q-23 -29 -36 -73q-14 -47 -14 -109q0 -64 14 -111q13 -45 36 -72q22 -27 53 -39q30 -12 63 -12zM279 580l-3 -4q42 0 65 24q22 24 30 62h9q-2 -25 -9 -47
q-8 -23 -19 -40q-12 -18 -31 -28q-20 -11 -45 -11q-26 0 -46 11t-32 29t-18 41q-5 20 -7 48h9q7 -37 30 -61q22 -24 67 -24z" />
    <glyph glyph-name="Ohungarumlaut" unicode="&#x150;" horiz-adv-x="834" 
d="M476 775l70 89q10 14 19 22q9 9 22 9t19 -7q6 -8 6 -18q0 -18 -21 -33l-110 -68zM326 776l71 90q5 6 18 22q7 9 21 9q13 0 19 -7q6 -8 6 -18t-4 -18t-15 -16l-111 -68zM417 -5l-3 -6q-74 0 -144 29q-67 28 -121 80q-52 51 -84 122q-31 69 -31 155q0 81 32 153
q31 70 84 121q53 52 122 80q70 29 144 29q75 0 143 -28q71 -29 122 -79q53 -51 84 -121q32 -72 32 -153q0 -85 -31 -154q-31 -70 -84 -121q-51 -50 -122 -79q-68 -28 -143 -28zM414 -2l-1 -2q57 0 110 21t93 66q40 44 64 117q24 72 24 174t-24 173q-25 72 -64 116
q-41 46 -93 65q-54 20 -110 20t-110 -20q-53 -20 -93 -64q-42 -46 -65 -115q-24 -71 -24 -173t24 -174q24 -71 65 -117q40 -45 93 -66t111 -21z" />
    <glyph glyph-name="ohungarumlaut" unicode="&#x151;" horiz-adv-x="560" 
d="M337 548l36 142q8 20 15 29q8 9 21 9t19 -7t6 -18q0 -7 -3 -16q-2 -6 -8 -16l-80 -125zM212 548l37 142q7 21 13 29q8 9 21 9q14 0 20 -7t6 -18q0 -7 -3 -16q-2 -6 -8 -16l-80 -125zM276 -10v-1q-44 0 -86 16q-43 16 -80 47t-59 75q-23 46 -23 103q0 56 23 102
q23 45 59 77q36 31 80 48q45 17 86 17t87 -17q45 -17 81 -48t60 -77q24 -45 24 -102q0 -58 -24 -103t-60 -75q-35 -29 -81 -46q-44 -16 -87 -16zM276 -3l-1 -2q33 0 64 12t55 39q25 28 38 72q14 47 14 111q0 62 -14 109t-37 74q-24 29 -55 42q-33 14 -64 14q-34 0 -63 -13
q-31 -14 -53 -42q-23 -29 -36 -73q-14 -47 -14 -109q0 -64 14 -111q14 -45 36 -72t53 -39q30 -12 63 -12z" />
    <glyph glyph-name="OE" unicode="&#x152;" horiz-adv-x="1105" 
d="M1032 750v-4q8 0 12 -3q5 -3 6 -19l16 -91h-10q-9 33 -22 51q-14 20 -32 32q-17 11 -42 16q-27 5 -54 5h-255v-322h114q33 0 48 7q17 8 26 18t12 24l6 26h9v-157h-9l-6 26q-3 13 -12 24q-9 10 -26 18q-15 7 -48 7h-114v-401h274q32 0 56 3t42 15t32 35q14 24 23 62h10
l-11 -106q-1 -14 -6 -15q-6 -2 -12 -2h-576q-100 0 -181 25q-83 26 -141 73q-60 49 -92 118q-33 71 -33 160t33 158q33 68 92 117t141 74q84 26 181 26h549zM483 737l-3 -4q-80 0 -148 -17q-67 -17 -113 -58q-47 -42 -72 -112q-25 -69 -25 -177t25 -177q26 -71 72 -113
q47 -43 113 -59q68 -17 149 -17q33 0 51 9q19 9 26 39q8 30 9 87q2 76 2 153v156q0 117 -1 155q-2 57 -9 87q-8 30 -25 39q-18 9 -51 9z" />
    <glyph glyph-name="oe" unicode="&#x153;" horiz-adv-x="898" 
d="M276 -10l-5 -3q-42 0 -84 16q-41 16 -79 47q-37 31 -59 75q-23 46 -23 103q0 56 23 102q23 45 59 77q36 31 80 48q45 17 84 17q26 0 56 -8q28 -7 56 -23t51 -37q24 -22 42 -51q17 30 40 51t51 37q25 14 56 22q30 8 56 8q29 0 63 -8q31 -7 59 -26q29 -19 47 -46
q19 -29 27 -69h-343q-11 -44 -11 -95q0 -66 17 -111q16 -43 44 -69q27 -25 62 -36q33 -10 72 -10q44 0 81 14q35 13 66 38l5 -7q-32 -26 -73 -42t-99 -16q-62 0 -122 29q-59 29 -93 87q-17 -27 -42 -49q-24 -21 -51 -36q-25 -14 -56 -22q-27 -7 -57 -7zM271 -5l-3 -2
q32 0 62 12q31 12 53 39q23 28 38 72q15 45 15 111q0 64 -15 109q-16 47 -37 74q-22 28 -53 42t-61 14q-32 0 -61 -13q-30 -13 -54 -42q-23 -28 -37 -73q-14 -47 -14 -109q0 -64 14 -111q13 -44 38 -72q24 -27 54 -39t61 -12zM674 462l-1 -3q-21 0 -41 -7q-23 -8 -41 -22
q-19 -15 -36 -39t-27 -60h272q-3 38 -15 64q-12 25 -30 40t-39 21t-42 6z" />
    <glyph glyph-name="Racute" unicode="&#x154;" horiz-adv-x="703" 
d="M235 782l165 96q9 5 17 8q9 3 20 3t19 -8q7 -7 7 -17q0 -26 -42 -39l-183 -49zM16 8l-2 -6q21 6 33 15t18 38q5 26 7 83q2 72 2 148v168q0 113 -1 149q-2 57 -7 83q-6 29 -18 38t-33 15v7h315q85 0 147 -14q60 -13 98 -38q37 -24 54 -57q17 -34 17 -70q0 -51 -24 -88
t-63 -60t-90 -33q-53 -11 -106 -11h-58q137 -22 178 -180q19 -83 57 -132q37 -49 99 -49q29 0 44 9q14 8 27 23l5 -5q-14 -20 -39 -35q-26 -15 -64 -15q-28 0 -62 8q-33 8 -60 28q-30 22 -53 58q-24 37 -39 96q-25 92 -31 110q-12 39 -29 59t-43 24q-24 4 -75 4h-65v-87
q0 -76 2 -148q1 -51 8 -82q6 -29 18 -38t33 -15v-7h-200v7zM154 736v-355h209q103 0 153 44q49 43 49 123q0 42 -10 75q-11 35 -37 60q-27 25 -74 39q-48 14 -120 14h-170z" />
    <glyph glyph-name="racute" unicode="&#x155;" horiz-adv-x="353" 
d="M170 543l102 146q20 27 42 27q14 0 20 -8t6 -18q0 -11 -6 -20q-7 -10 -15 -17l-145 -116zM25 6l-5 -2q17 5 26 12q10 8 14 24t6 48q1 21 1 84v66v90q0 30 -5 48q-5 17 -13 20q-11 4 -27 5v8l122 61v-137l65 69q34 34 51 47q20 15 48 15q20 0 27 -9q8 -10 8 -23t-8 -23
q-7 -9 -21 -9q-18 0 -34 8t-30 8t-21 -6q-5 -4 -18 -17l-65 -69v-150q0 -63 1 -84q1 -32 6 -48t15 -24q10 -7 29 -12v-7h-172v7z" />
    <glyph glyph-name="uni0156" unicode="&#x156;" horiz-adv-x="703" 
d="M350 -125l1 -2q-3 -3 -10 -7t-19 -4q-16 0 -27 10q-12 10 -12 28q0 20 13 30q14 11 30 11q19 0 35 -14q15 -13 15 -41q0 -40 -22 -58q-23 -19 -51 -23l-4 7q56 12 56 49q0 9 -5 14zM17 5l-2 -6q21 6 33 15t18 38q5 26 7 83q2 72 2 148v168q0 113 -1 149q-2 57 -7 83
q-6 29 -18 38t-33 15v7h315q85 0 147 -14q60 -13 98 -38q38 -24 54 -57q17 -34 17 -70q0 -50 -24 -88t-63 -60t-90 -33q-53 -11 -106 -11h-58q137 -22 178 -180q20 -82 57 -132q37 -49 99 -49q29 0 44 9q14 8 27 23l5 -5q-14 -20 -39 -35t-64 -15q-28 0 -62 8q-33 8 -60 28
q-30 22 -53 58q-24 38 -39 96q-25 92 -31 110q-12 39 -29 59t-43 24q-24 4 -75 4h-65v-87q0 -76 2 -148q1 -51 8 -82q6 -29 18 -38t33 -15v-7h-200v7zM155 733v-355h209q103 0 153 44q49 43 49 123q0 42 -10 75q-11 35 -37 60q-27 25 -74 39q-48 14 -120 14h-170z" />
    <glyph glyph-name="uni0157" unicode="&#x157;" horiz-adv-x="353" 
d="M127 -125l1 -2q-2 -3 -10 -7q-7 -4 -19 -4q-16 0 -27 10q-12 10 -12 28q0 20 13 30q14 11 30 11q19 0 35 -14q15 -13 15 -41q0 -40 -22 -58q-23 -19 -51 -23l-4 7q56 12 56 49q0 9 -5 14zM27 5l-5 -2q17 5 26 12q10 8 14 24q4 17 6 48q1 21 1 84v66v90q0 30 -5 48
q-5 17 -13 20q-11 4 -27 5v8l122 61v-137l65 69q34 34 51 47q20 15 48 15q20 0 27 -9q8 -10 8 -23t-8 -23q-7 -9 -21 -9q-18 0 -34 8t-30 8t-21 -6q-5 -4 -18 -17l-65 -69v-150q0 -63 1 -84q1 -31 6 -48t15 -24t29 -12v-7h-172v7z" />
    <glyph glyph-name="Rcaron" unicode="&#x158;" horiz-adv-x="703" 
d="M205 886l130 -50l130 50l4 -5l-134 -106l-134 106zM16 7l-2 -6q21 6 33 15t18 38q5 26 7 83q2 72 2 148v168q0 113 -1 149q-2 57 -7 83q-6 29 -18 38t-33 15v7h315q85 0 147 -14q60 -13 98 -38q37 -24 54 -57q17 -34 17 -70q0 -50 -24 -88t-63 -60t-90 -33
q-53 -11 -106 -11h-58q137 -22 178 -180q19 -82 57 -132q37 -49 99 -49q29 0 44 9q14 8 27 23l5 -5q-14 -20 -39 -35q-26 -15 -64 -15q-28 0 -62 8q-33 8 -60 28q-30 22 -53 58q-24 38 -39 96q-25 92 -31 110q-12 39 -29 59t-43 24q-24 4 -75 4h-65v-87q0 -76 2 -148
q1 -51 8 -82q6 -29 18 -38t33 -15v-7h-200v7zM154 735v-355h209q103 0 153 44q49 43 49 123q0 42 -10 75q-11 35 -37 60q-27 25 -74 39q-48 14 -120 14h-170z" />
    <glyph glyph-name="rcaron" unicode="&#x159;" horiz-adv-x="353" 
d="M100 726l111 -105l111 105l7 -4l-118 -178l-118 178zM26 7l-5 -2q17 5 26 12q10 8 14 24q5 17 6 48q1 21 1 84v66v90q0 30 -5 48q-5 17 -13 20q-11 4 -27 5v8l122 61v-137l65 69q34 34 51 47q19 15 48 15q19 0 27 -9q8 -10 8 -23t-8 -23q-8 -9 -21 -9q-18 0 -34 8t-30 8
q-13 0 -21 -6q-5 -4 -18 -17l-65 -69v-150q0 -63 1 -84q2 -31 6 -48t15 -24q10 -7 29 -12v-7h-172v7z" />
    <glyph glyph-name="Sacute" unicode="&#x15a;" horiz-adv-x="591" 
d="M307 -7l-6 -8q-57 0 -93 9q-34 9 -62 20q-15 6 -45 20q-20 9 -43 9q-22 0 -30 -23h-10v164h10q6 -43 29 -78t59 -59q37 -25 84 -38q46 -13 104 -13q52 0 89 14t59 36t33 54q10 30 10 66q0 39 -12 66t-39 48q-28 22 -72 38q-45 16 -111 36q-53 15 -93 33t-69 42
q-28 24 -43 55q-15 32 -15 73q0 46 19 81q19 36 52 61t75 39q40 13 89 13q50 0 83 -6q34 -6 56 -15q23 -9 39 -15q17 -6 35 -6q26 0 32 24h11v-128h-11q-16 67 -82 103t-162 36q-83 0 -130 -37q-48 -37 -48 -100q0 -31 9 -55t32 -44t61 -36q41 -17 98 -32q54 -14 102 -30
t84 -42t57 -61q21 -36 21 -89q0 -44 -18 -85t-51 -72q-34 -32 -81 -50q-48 -18 -106 -18zM191 774l165 96q9 5 17 8q9 3 20 3t19 -8q7 -7 7 -17q0 -26 -42 -39l-183 -49z" />
    <glyph glyph-name="sacute" unicode="&#x15b;" horiz-adv-x="419" 
d="M163 543l102 146q19 27 42 27q14 0 20 -8t6 -18q0 -11 -6 -20q-7 -10 -15 -17l-145 -116zM202 -1l-7 -4q69 0 101 30t32 74q0 24 -7 39q-8 17 -24 29q-19 13 -43 23q-27 10 -66 18q-80 16 -120 45q-40 28 -40 86q0 31 14 57q13 25 38 42q26 18 55 26q31 9 66 9
q31 0 48 -4q22 -5 33 -10q5 -2 13.5 -5.5t10.5 -4.5q9 -4 20 -4q16 0 19 16h9v-97h-9q-17 52 -51 75q-35 23 -93 23q-59 0 -93 -22t-34 -67q0 -21 8 -35q7 -13 23 -24q15 -10 41 -18q24 -7 62 -15q88 -19 132 -51q43 -31 43 -90q0 -34 -15 -63t-40 -48q-26 -20 -58 -30
q-31 -10 -69 -10q-33 0 -55 6q-25 7 -39 13q-3 2 -13.5 6.5t-15.5 6.5q-12 6 -24 6q-17 0 -20 -18h-10v126h9q13 -63 56 -100q42 -36 113 -36z" />
    <glyph glyph-name="Scircumflex" unicode="&#x15c;" horiz-adv-x="591" 
d="M296 886l134 -106l-4 -5l-130 50l-130 -50l-4 5zM307 -7l-6 -8q-57 0 -93 9q-34 9 -62 20q-15 6 -45 20q-20 9 -43 9q-22 0 -30 -23h-10v164h10q6 -43 29 -78t59 -59q37 -25 84 -38q46 -13 104 -13q52 0 89 14t59 36t33 54q10 30 10 66q0 39 -12 66t-39 48q-28 22 -72 38
q-45 16 -111 36q-53 15 -93 33t-69 42q-28 24 -43 55q-15 32 -15 73q0 46 19 81q19 36 52 61t75 39q40 13 89 13q50 0 83 -6q34 -6 56 -15q23 -9 39 -15q17 -6 35 -6q26 0 32 24h11v-128h-11q-16 67 -82 103t-162 36q-83 0 -130 -37q-48 -37 -48 -100q0 -31 9 -55t32 -44
t61 -36q41 -17 98 -32q54 -14 102 -30t84 -42t57 -61q21 -36 21 -89q0 -44 -18 -85t-51 -72q-34 -32 -81 -50q-48 -18 -106 -18z" />
    <glyph glyph-name="scircumflex" unicode="&#x15d;" horiz-adv-x="419" 
d="M203 718l118 -178l-7 -4l-111 105l-111 -105l-7 4zM203 0l-7 -4q70 0 101 30q32 30 32 74q0 24 -7 39q-8 17 -24 29q-19 13 -43 23q-27 11 -66 18q-79 17 -120 45q-40 28 -40 86q0 31 14 57q13 25 38 42q26 18 55 26q32 9 66 9q31 0 48 -4q22 -5 33 -10q5 -2 13.5 -5.5
t10.5 -4.5q9 -4 20 -4q16 0 19 16h9v-97h-9q-16 53 -51 75q-35 23 -93 23q-59 0 -93 -22t-34 -67q0 -21 8 -35q7 -13 23 -24q15 -10 41 -18q24 -7 62 -15q89 -20 132 -51t43 -90q0 -35 -15 -63q-15 -29 -40 -48q-26 -20 -58 -30q-31 -10 -69 -10q-32 0 -55 6q-25 7 -39 13
q-3 2 -13.5 6.5t-15.5 6.5q-12 6 -24 6q-17 0 -20 -18h-10v126h9q13 -63 56 -100q42 -36 113 -36z" />
    <glyph glyph-name="uni015E" unicode="&#x15e;" horiz-adv-x="591" 
d="M281 0l-37 -58q42 -4 72 -24t30 -51q0 -75 -156 -80l-1 8q60 5 84 21t24 36q0 22 -24 34q-25 13 -62 14l-2 5l61 95h11zM307 -7l-6 -8q-57 0 -93 9q-34 9 -62 20q-15 6 -45 20q-20 9 -43 9q-22 0 -30 -23h-10v164h10q6 -43 29 -78t59 -59q37 -25 84 -38q46 -13 104 -13
q52 0 89 14t59 36t33 54q10 30 10 66q0 39 -12 66t-39 48q-28 22 -72 38q-45 16 -111 36q-53 15 -93 33t-69 42q-28 24 -43 55q-15 32 -15 73q0 46 19 81q19 36 52 61t75 39q40 13 89 13q50 0 83 -6q34 -6 56 -15q23 -9 39 -15q17 -6 35 -6q26 0 32 24h11v-128h-11
q-16 67 -82 103t-162 36q-83 0 -130 -37q-48 -37 -48 -100q0 -31 9 -55t32 -44t61 -36q41 -17 98 -32q54 -14 102 -30t84 -42t57 -61q21 -36 21 -89q0 -44 -18 -85t-51 -72q-34 -32 -81 -50q-48 -18 -106 -18z" />
    <glyph glyph-name="uni015F" unicode="&#x15f;" horiz-adv-x="419" 
d="M192 -4l-36 -54q42 -4 72 -24t30 -51q0 -75 -156 -80l-1 8q60 5 84 21t24 36q0 22 -24 34q-25 13 -62 14l-2 5l60 91h11zM203 0l-7 -4q70 0 101 30q32 30 32 74q0 24 -7 39q-8 17 -24 29q-19 13 -43 23q-27 11 -66 18q-79 17 -120 45q-40 28 -40 86q0 31 14 57
q13 25 38 42q26 18 55 26q32 9 66 9q31 0 48 -4q22 -5 33 -10q5 -2 13.5 -5.5t10.5 -4.5q9 -4 20 -4q16 0 19 16h9v-97h-9q-16 53 -51 75q-35 23 -93 23q-59 0 -93 -22t-34 -67q0 -21 8 -35q7 -13 23 -24q15 -10 41 -18q24 -7 62 -15q89 -20 132 -51t43 -90q0 -35 -15 -63
q-15 -29 -40 -48q-26 -20 -58 -30q-31 -10 -69 -10q-32 0 -55 6q-25 7 -39 13q-3 2 -13.5 6.5t-15.5 6.5q-12 6 -24 6q-17 0 -20 -18h-10v126h9q13 -63 56 -100q42 -36 113 -36z" />
    <glyph glyph-name="Scaron" unicode="&#x160;" horiz-adv-x="591" 
d="M166 886l130 -50l130 50l4 -5l-134 -106l-134 106zM307 -7l-6 -8q-57 0 -93 9q-34 9 -62 20q-15 6 -45 20q-20 9 -43 9q-22 0 -30 -23h-10v164h10q6 -43 29 -78t59 -59q37 -25 84 -38q46 -13 104 -13q52 0 89 14t59 36t33 54q10 30 10 66q0 39 -12 66t-39 48
q-28 22 -72 38q-45 16 -111 36q-53 15 -93 33t-69 42q-28 24 -43 55q-15 32 -15 73q0 46 19 81q19 36 52 61t75 39q40 13 89 13q50 0 83 -6q34 -6 56 -15q23 -9 39 -15q17 -6 35 -6q26 0 32 24h11v-128h-11q-16 67 -82 103t-162 36q-83 0 -130 -37q-48 -37 -48 -100
q0 -31 9 -55t32 -44t61 -36q41 -17 98 -32q54 -14 102 -30t84 -42t57 -61q21 -36 21 -89q0 -44 -18 -85t-51 -72q-34 -32 -81 -50q-48 -18 -106 -18z" />
    <glyph glyph-name="scaron" unicode="&#x161;" horiz-adv-x="419" 
d="M92 726l111 -105l111 105l7 -4l-118 -178l-118 178zM203 0l-7 -4q70 0 101 30q32 30 32 74q0 24 -7 39q-8 17 -24 29q-19 13 -43 23q-27 11 -66 18q-79 17 -120 45q-40 28 -40 86q0 31 14 57q13 25 38 42q26 18 55 26q32 9 66 9q31 0 48 -4q22 -5 33 -10q5 -2 13.5 -5.5
t10.5 -4.5q9 -4 20 -4q16 0 19 16h9v-97h-9q-16 53 -51 75q-35 23 -93 23q-59 0 -93 -22t-34 -67q0 -21 8 -35q7 -13 23 -24q15 -10 41 -18q24 -7 62 -15q89 -20 132 -51t43 -90q0 -35 -15 -63q-15 -29 -40 -48q-26 -20 -58 -30q-31 -10 -69 -10q-32 0 -55 6q-25 7 -39 13
q-3 2 -13.5 6.5t-15.5 6.5q-12 6 -24 6q-17 0 -20 -18h-10v126h9q13 -63 56 -100q42 -36 113 -36z" />
    <glyph glyph-name="Tcommaaccent" unicode="&#x162;" horiz-adv-x="692" 
d="M365 -125l1 -2q-2 -3 -10 -7q-7 -4 -19 -4q-16 0 -27 10q-12 10 -12 28q0 20 13 30q14 11 30 11q19 0 35 -14q15 -13 15 -41q0 -40 -22 -58q-23 -19 -51 -23l-4 7q56 12 56 49q0 9 -5 14zM248 5h-7q22 6 33 16q12 11 18 39q5 26 7 82q2 72 2 148v450h-113q-33 0 -60 -3
q-26 -3 -48 -17q-21 -14 -36 -40q-15 -27 -24 -73h-11l18 121q1 15 5 19q3 3 11 3h602q8 0 11 -3q4 -4 5 -19l18 -121h-12q-9 46 -24 73q-15 26 -36 40q-22 14 -48 17q-27 3 -61 3h-111v-450q0 -76 2 -148q1 -51 8 -82q6 -28 18 -39q11 -10 33 -16v-7h-200v7z" />
    <glyph glyph-name="tcommaaccent" unicode="&#x163;" horiz-adv-x="270" 
d="M184 -125l1 -2q-3 -3 -10 -7t-19 -4q-16 0 -27 10q-12 10 -12 28q0 20 13 30q14 11 30 11q19 0 35 -14q15 -13 15 -41q0 -40 -22 -58q-23 -19 -51 -23l-4 7q56 12 56 49q0 9 -5 14zM166 -7l-2 -5q-50 0 -75 27q-26 28 -26 72v363h-43v8q19 3 37 12t33 27q14 16 25 44
q11 25 15 63h9v-142h110v-10h-110v-333q0 -57 9 -84t43 -27q23 0 39 10t24 21l5 -4q-7 -11 -29 -27q-21 -15 -64 -15z" />
    <glyph glyph-name="Tcaron" unicode="&#x164;" horiz-adv-x="692" 
d="M216 886l130 -50l130 50l4 -5l-134 -106l-134 106zM247 7h-7q22 6 33 16q12 11 18 39q5 26 7 82q2 72 2 148v450h-113q-33 0 -60 -3q-26 -3 -48 -17q-21 -14 -36 -40q-15 -27 -24 -73h-11l18 121q1 15 5 19q3 3 11 3h602q8 0 11 -3q4 -4 5 -19l18 -121h-12q-9 46 -24 73
q-15 26 -36 40q-22 14 -48 17q-27 3 -61 3h-111v-450q0 -76 2 -148q1 -51 8 -82q6 -28 18 -39q11 -10 33 -16v-7h-200v7z" />
    <glyph glyph-name="tcaron" unicode="&#x165;" horiz-adv-x="270" 
d="M201 529l11 129q2 24 9 36t23 12q12 0 19 -7t7 -18q0 -13 -9 -34l-54 -120zM165 -5l-2 -5q-49 0 -75 27q-26 28 -26 72v363h-43v8q19 3 37 12t33 27q14 16 25 44q10 25 15 63h9v-142h110v-10h-110v-333q0 -57 9 -84t43 -27q23 0 39 10q17 10 24 21l5 -4q-7 -11 -29 -27
q-21 -15 -64 -15z" />
    <glyph glyph-name="Tbar" unicode="&#x166;" horiz-adv-x="692" 
d="M152 430h388v-9h-388v9zM247 7h-7q22 6 33 16q12 11 18 39q5 26 7 82q2 72 2 148v450h-113q-33 0 -60 -3q-26 -3 -48 -17q-21 -14 -36 -40q-15 -27 -24 -73h-11l18 121q1 15 5 19q3 3 11 3h602q8 0 11 -3q4 -4 5 -19l18 -121h-12q-9 46 -24 73q-15 26 -36 40
q-22 14 -48 17q-27 3 -61 3h-111v-450q0 -76 2 -148q1 -51 8 -82q6 -28 18 -39q11 -10 33 -16v-7h-200v7z" />
    <glyph glyph-name="tbar" unicode="&#x167;" horiz-adv-x="270" 
d="M22 311h222v-9h-222v9zM165 -5l-2 -5q-49 0 -75 27q-26 28 -26 72v363h-43v8q19 3 37 12t33 27q14 16 25 44q10 25 15 63h9v-142h110v-10h-110v-333q0 -57 9 -84t43 -27q23 0 39 10q17 10 24 21l5 -4q-7 -11 -29 -27q-21 -15 -64 -15z" />
    <glyph glyph-name="Utilde" unicode="&#x168;" horiz-adv-x="754" 
d="M409 -7l-11 -3q-162 0 -250 71q-87 71 -87 225v169q0 113 -1 149q-2 57 -7 83q-6 29 -18 38t-31 15v7h198v-7q-21 -6 -33 -15t-18 -37q-5 -26 -7 -82q-1 -36 -1 -148v-188q0 -62 12 -111q12 -50 40 -84q29 -35 78 -54q48 -19 126 -19q54 0 104 14q47 13 84 47
q36 33 57 87t21 135v170v108q0 35 -2 75q-1 30 -6 48q-5 19 -12 29q-8 11 -18 17q-12 7 -27 11v7h136v-7q-11 -4 -24 -11q-9 -5 -16 -17q-6 -10 -9 -29q-4 -22 -5 -48q-2 -40 -2 -75v-108v-170q0 -83 -21 -138t-57 -90q-35 -34 -86 -49q-50 -15 -107 -15zM366 869v5
q10 0 26 -3q11 -2 35 -6t35 -6q16 -3 26 -3q8 0 23 9t32 41l7 -2q-13 -47 -35 -72q-21 -24 -38 -24q-4 0 -28 2q-12 1 -36 5q-25 4 -34 5q-22 2 -24 2q-9 0 -25 -9t-39 -44l-6 2q17 50 39 74t42 24z" />
    <glyph glyph-name="utilde" unicode="&#x169;" horiz-adv-x="543" 
d="M198 -8l-3 -1q-66 0 -97 31t-31 99v122v90q0 30 -5 48q-5 17 -13 20q-11 4 -27 5v8l122 61v-391q0 -45 20 -60t54 -15q26 0 60 12q33 12 87 56l30 26v139v90q0 30 -5 48q-5 17 -13 20q-11 4 -27 5v8l122 61v-299q0 -63 1 -84q2 -33 7 -48q6 -17 18 -24q12 -8 34 -12v-7
h-135v92l-30 -26q-47 -41 -88 -58q-39 -16 -81 -16zM239 643l1 2q5 0 25 -2t31 -4t31 -4t25 -2q8 0 21 9q14 9 29 41l7 -3q-11 -49 -30 -71q-20 -23 -36 -23q-5 0 -27 2l-33 3q-11 1 -31 3t-24 2q-6 0 -10 -1q-6 -2 -13 -7q-7 -6 -16 -16q-8 -9 -19 -30l-6 3q13 47 36 73
q22 25 39 25z" />
    <glyph glyph-name="Umacron" unicode="&#x16a;" horiz-adv-x="754" 
d="M409 -7l-11 -3q-162 0 -250 71q-87 71 -87 225v169q0 113 -1 149q-2 57 -7 83q-6 29 -18 38t-31 15v7h198v-7q-21 -6 -33 -15t-18 -37q-5 -26 -7 -82q-1 -36 -1 -148v-188q0 -62 12 -111q12 -50 40 -84q29 -35 78 -54q48 -19 126 -19q54 0 104 14q47 13 84 47
q36 33 57 87t21 135v170v108q0 35 -2 75q-1 30 -6 48q-5 19 -12 29q-8 11 -18 17q-12 7 -27 11v7h136v-7q-11 -4 -24 -11q-9 -5 -16 -17q-6 -10 -9 -29q-4 -22 -5 -48q-2 -40 -2 -75v-108v-170q0 -83 -21 -138t-57 -90q-35 -34 -86 -49q-50 -15 -107 -15zM518 794h-224v35
h224v-35z" />
    <glyph glyph-name="umacron" unicode="&#x16b;" horiz-adv-x="543" 
d="M198 -8l-3 -1q-66 0 -97 31t-31 99v122v90q0 30 -5 48q-5 17 -13 20q-11 4 -27 5v8l122 61v-391q0 -45 20 -60t54 -15q26 0 60 12q33 12 87 56l30 26v139v90q0 30 -5 48q-5 17 -13 20q-11 4 -27 5v8l122 61v-299q0 -63 1 -84q2 -33 7 -48q6 -17 18 -24q12 -8 34 -12v-7
h-135v92l-30 -26q-47 -41 -88 -58q-39 -16 -81 -16zM381 613v-34h-211v34h211z" />
    <glyph glyph-name="Ubreve" unicode="&#x16c;" horiz-adv-x="754" 
d="M409 -7l-11 -3q-162 0 -250 71q-87 71 -87 225v169q0 113 -1 149q-2 57 -7 83q-6 29 -18 38t-31 15v7h198v-7q-21 -6 -33 -15t-18 -37q-5 -26 -7 -82q-1 -36 -1 -148v-188q0 -62 12 -111q12 -50 40 -84q29 -35 78 -54q48 -19 126 -19q54 0 104 14q47 13 84 47
q36 33 57 87t21 135v170v108q0 35 -2 75q-1 30 -6 48q-5 19 -12 29q-8 11 -18 17q-12 7 -27 11v7h136v-7q-11 -4 -24 -11q-9 -5 -16 -17q-6 -10 -9 -29q-4 -22 -5 -48q-2 -40 -2 -75v-108v-170q0 -83 -21 -138t-57 -90q-35 -34 -86 -49q-50 -15 -107 -15zM407 820l-1 3
q46 0 69 20q22 19 30 41h9q-1 -10 -8 -30q-6 -18 -19 -34q-13 -15 -33 -28q-20 -12 -48 -12q-30 0 -50 11q-19 10 -33 26q-13 14 -19 33q-6 17 -9 32h9q3 -9 11 -21q8 -11 20 -20t30 -15t42 -6z" />
    <glyph glyph-name="ubreve" unicode="&#x16d;" horiz-adv-x="543" 
d="M198 -8l-3 -1q-66 0 -97 31t-31 99v122v90q0 30 -5 48q-5 17 -13 20q-11 4 -27 5v8l122 61v-391q0 -45 20 -60t54 -15q26 0 60 12q33 12 87 56l30 26v139v90q0 30 -5 48q-5 17 -13 20q-11 4 -27 5v8l122 61v-299q0 -63 1 -84q2 -33 7 -48q6 -17 18 -24q12 -8 34 -12v-7
h-135v92l-30 -26q-47 -41 -88 -58q-39 -16 -81 -16zM276 582l-3 -4q43 0 65 24t30 62h9q-2 -25 -9 -47q-8 -23 -19 -40q-12 -18 -31 -28q-20 -11 -45 -11q-26 0 -46 11t-32 29t-18 41q-5 20 -7 48h9q7 -37 30 -61t67 -24z" />
    <glyph glyph-name="Uring" unicode="&#x16e;" horiz-adv-x="754" 
d="M409 -7l-11 -3q-162 0 -250 71q-87 71 -87 225v169q0 113 -1 149q-2 57 -7 83q-6 29 -18 38t-31 15v7h198v-7q-21 -6 -33 -15t-18 -37q-5 -26 -7 -82q-1 -36 -1 -148v-188q0 -62 12 -111q12 -50 40 -84q29 -35 78 -54q48 -19 126 -19q54 0 104 14q47 13 84 47
q36 33 57 87t21 135v170v108q0 35 -2 75q-1 30 -6 48q-5 19 -12 29q-8 11 -18 17q-12 7 -27 11v7h136v-7q-11 -4 -24 -11q-9 -5 -16 -17q-6 -10 -9 -29q-4 -22 -5 -48q-2 -40 -2 -75v-108v-170q0 -83 -21 -138t-57 -90q-35 -34 -86 -49q-50 -15 -107 -15zM328 818v-2
q0 34 24 57q25 23 56 23q33 0 56 -22q24 -22 24 -57q0 -19 -7 -33t-18 -25q-10 -10 -25 -16t-31 -6t-31 6q-13 5 -25 17t-17 25q-6 15 -6 33zM363 816v-1q0 -34 12 -52t32 -18t33 19t13 52q0 32 -13 51q-14 20 -33 20q-20 0 -32 -20q-12 -19 -12 -51z" />
    <glyph glyph-name="uring" unicode="&#x16f;" horiz-adv-x="543" 
d="M192 612l-2 -2q0 35 25 57q26 23 61 23q36 0 61 -22t25 -57t-24 -57q-23 -22 -61 -22t-61 22q-24 22 -24 58zM224 610v-1q0 -35 13 -52q13 -18 39 -18t39 19t13 52q0 32 -13 51q-14 20 -39 20t-39 -20q-13 -19 -13 -51zM196 -11l-3 -1q-66 0 -97 31t-31 99v122v90
q0 30 -5 48q-5 17 -13 20q-11 4 -27 5v8l122 61v-391q0 -45 20 -60t54 -15q26 0 60 12q33 12 87 56l30 26v139v90q0 30 -5 48q-5 17 -13 20q-11 4 -27 5v8l122 61v-299q0 -63 1 -84q2 -33 7 -48q6 -16 18 -24t34 -12v-7h-135v92l-30 -26q-47 -41 -88 -58q-39 -16 -81 -16z
" />
    <glyph glyph-name="Uhungarumlaut" unicode="&#x170;" horiz-adv-x="754" 
d="M475 775l70 89q11 14 19 22q9 9 22 9t19 -7q6 -8 6 -18q0 -18 -21 -33l-110 -68zM325 776l71 90q5 6 18 22q8 9 21 9t19 -7q6 -8 6 -18t-4 -18t-15 -16l-111 -68zM409 -4l-11 -3q-162 0 -250 71q-87 70 -87 225v169q0 113 -1 149q-2 57 -7 83q-6 29 -18 38t-31 15v7h198
v-7q-21 -6 -33 -15t-18 -37q-5 -26 -7 -82q-1 -36 -1 -148v-188q0 -61 12 -111t40 -84q29 -34 78 -54q48 -19 126 -19q54 0 104 14q47 13 84 47q36 33 57 87t21 135v170v108q0 35 -2 75q-1 30 -6 48q-5 19 -12 29q-8 11 -18 17q-12 7 -27 11v7h136v-7q-11 -4 -24 -11
q-9 -5 -16 -17q-6 -10 -9 -29q-4 -22 -5 -48q-2 -40 -2 -75v-108v-170q0 -82 -21 -138t-57 -90q-35 -34 -86 -49q-50 -15 -107 -15z" />
    <glyph glyph-name="uhungarumlaut" unicode="&#x171;" horiz-adv-x="543" 
d="M198 -8l-3 -1q-66 0 -97 31t-31 99v122v90q0 30 -5 48q-5 17 -13 20q-11 4 -27 5v8l122 61v-391q0 -45 20 -60t54 -15q26 0 60 12q33 12 87 56l30 26v139v90q0 30 -5 48q-5 17 -13 20q-11 4 -27 5v8l122 61v-299q0 -63 1 -84q2 -33 7 -48q6 -17 18 -24q12 -8 34 -12v-7
h-135v92l-30 -26q-47 -41 -88 -58q-39 -16 -81 -16zM332 547l36 142q8 20 15 29t21 9q13 0 19 -7q6 -8 6 -18q0 -7 -3 -16q-2 -6 -8 -16l-80 -125zM207 547l37 142q7 21 13 29q7 9 21 9t20 -7q6 -8 6 -18q0 -7 -3 -16q-2 -6 -8 -16l-80 -125z" />
    <glyph glyph-name="Uogonek" unicode="&#x172;" horiz-adv-x="754" 
d="M436 -170l-8 -10q-34 0 -54 18t-20 49q0 19 11 36t27 29q19 14 36 23t36 16q-11 -2 -33 -4q-11 -1 -30 -1q-164 0 -252 71q-87 71 -87 225v169q0 113 -1 149q-2 57 -7 83q-6 29 -18 38t-31 15v7h198v-7q-21 -6 -33 -15t-18 -37q-5 -26 -7 -82q-1 -36 -1 -148v-188
q0 -62 12 -111q12 -50 40 -84q29 -35 78 -53q50 -18 126 -18q54 0 104 14q47 13 84 47q36 33 57 87t21 135v170v108q0 35 -2 75q-2 30 -6 48q-5 19 -12 29q-8 11 -18 17q-12 7 -27 11v7h136v-7q-11 -4 -24 -11q-9 -5 -16 -17q-6 -10 -9 -29q-4 -22 -5 -48q-2 -40 -2 -75
v-108v-170q0 -60 -12 -105q-12 -47 -31 -78q-19 -32 -48 -55q-28 -23 -63 -36l-39 -15q-18 -7 -34 -18q-14 -10 -24 -26q-9 -15 -9 -39q0 -19 12 -34t36 -15q13 0 26 5q11 4 19 12l5 -5q-1 -3 -8 -12q-7 -8 -16 -15q-11 -8 -25 -12q-17 -5 -34 -5z" />
    <glyph glyph-name="uogonek" unicode="&#x173;" horiz-adv-x="543" 
d="M198 -8l-4 -1q-66 0 -97 31t-31 99v122v90q0 30 -5 48q-5 17 -13 20q-11 4 -27 5v8l122 61v-391q0 -45 20 -60q19 -15 54 -15q25 0 60 12q33 12 87 56l30 26v139v90q0 30 -5 48q-5 17 -13 20q-11 4 -27 5v8l122 61v-299q0 -63 1 -84q2 -33 7 -48q6 -17 18 -24
q12 -8 34 -12v-7h-122q-23 -10 -42 -33q-20 -23 -20 -57q0 -19 12 -34t36 -15q13 0 26 5q11 4 19 12l5 -5q-1 -3 -8 -12q-5 -7 -17 -15q-11 -8 -25 -12q-17 -5 -33 -5q-34 0 -54 18q-19 18 -19 49q0 22 14 41q12 16 32 31q18 14 36 21q6 3 14.5 6.5t11.5 4.5v92l-30 -26
q-47 -41 -88 -58q-39 -16 -81 -16z" />
    <glyph glyph-name="Wcircumflex" unicode="&#x174;" horiz-adv-x="1029" 
d="M547 886l134 -106l-4 -5l-130 50l-130 -50l-4 5zM91 623l-6 -2q-4 11 -10.5 27.5t-7.5 19.5q-7 20 -15 33q-8 14 -18 23q-12 10 -27 17v7h157v-7q-21 -6 -24 -24q-3 -17 14 -58l231 -571l124 303l-94 229q-4 10 -10.5 27t-7.5 20q-8 21 -16 33q-10 15 -19 24
q-10 10 -25 16v7h158v-7q-22 -6 -25 -23q-3 -16 14 -59l76 -185l63 148q9 21 15 39t6 33q0 16 -7 27t-27 19v7h107v-7q-14 -6 -20 -10q-9 -6 -18 -18q-11 -14 -20 -33q-13 -27 -26 -57l-68 -160l151 -370l206 529q12 34 14 40q6 20 6 35t-9 27t-28 19v7h112v-7
q-10 -4 -21 -11q-9 -6 -18 -18q-8 -10 -19 -33q-10 -19 -24 -56l-245 -628h-12l-160 387l-158 -387h-12z" />
    <glyph glyph-name="wcircumflex" unicode="&#x175;" horiz-adv-x="709" 
d="M335 718l118 -178l-7 -4l-111 105l-111 -105l-7 4zM72 355l2 2q-14 31 -24 51q-10 18 -20 30q-8 10 -17 15t-17 8v7h159v-7q-13 -1 -21 -6t-9 -15q-1 -9 5 -30q6 -20 18 -51l110 -277l98 207l-27 67q-13 32 -24 51q-11 21 -19 30q-9 11 -18 15q-12 6 -19 8v7h156v-7
q-13 -2 -21 -6q-7 -4 -7 -15t6 -30t18 -51l111 -274l106 252q17 41 21 64q5 25 2 36q-3 12 -14 17q-10 4 -26 6v7h115v-7q-14 -3 -21 -7q-10 -5 -18 -16q-9 -12 -21 -36q-10 -21 -28 -64l-143 -341h-12l-114 282l-132 -282h-12z" />
    <glyph glyph-name="Ycircumflex" unicode="&#x176;" horiz-adv-x="711" 
d="M258 7v-1q22 6 33 16q12 10 18 39q5 26 7 82q2 72 2 148v69l-188 263q-21 30 -36 51q-17 24 -28 36q-15 17 -25 23q-12 8 -28 12v6h186v-6q-23 -5 -29 -21t21 -54l202 -284l174 240q20 27 29 42q13 22 17 34q5 16 -1 26t-24 18v6h112v-6q-9 -4 -22 -12q-12 -8 -27 -21
q-17 -15 -33 -34q-18 -21 -42 -54l-179 -249v-84q0 -76 2 -148q1 -51 8 -82q6 -28 18 -39q11 -10 33 -16v-7h-200v7zM401 885l134 -106l-4 -5l-130 50l-130 -50l-4 5z" />
    <glyph glyph-name="ycircumflex" unicode="&#x177;" horiz-adv-x="477" 
d="M117 -171l1 -5q-20 0 -29 9t-9 22q0 12 8 22q8 9 24 9t27 -6t21 -6q14 0 26 19q15 24 35 70l14 30l-162 362q-13 31 -24 51q-11 21 -19 30q-10 11 -16 15q-9 5 -18 8v6h155v-6q-11 -1 -19 -6t-9 -15q-2 -11 3 -29q4 -17 18 -49l125 -282l115 258q19 43 23 64q5 24 0 36
q-5 13 -16 17q-12 5 -27 6v6h119v-6q-10 -1 -19 -6q-8 -4 -18 -17q-9 -12 -21 -36q-14 -28 -30 -64l-165 -371q-34 -75 -58 -105q-25 -31 -55 -31zM270 713l118 -178l-7 -4l-111 105l-111 -105l-7 4z" />
    <glyph glyph-name="Ydieresis" unicode="&#x178;" horiz-adv-x="711" 
d="M258 7v-1q22 6 33 16q12 10 18 39q5 26 7 82q2 72 2 148v69l-188 263q-21 30 -36 51q-17 24 -28 36q-15 17 -25 23q-12 8 -28 12v6h186v-6q-23 -5 -29 -21t21 -54l202 -284l174 240q20 27 29 42q13 22 17 34q5 16 -1 26t-24 18v6h112v-6q-9 -4 -22 -12q-12 -8 -27 -21
q-17 -15 -33 -34q-18 -21 -42 -54l-179 -249v-84q0 -76 2 -148q1 -51 8 -82q6 -28 18 -39q11 -10 33 -16v-7h-200v7zM507 780v-1q-19 0 -31 12t-12 32q0 18 12 30t31 12q17 0 29 -12t12 -30q0 -19 -12 -31t-29 -12zM297 779v-1q-17 0 -29 12t-12 32q0 18 12 30t29 12
q19 0 31 -12t12 -30q0 -19 -12 -31t-31 -12z" />
    <glyph glyph-name="Zacute" unicode="&#x179;" horiz-adv-x="686" 
d="M247 782l165 96q9 5 17 8q9 3 20 3t19 -8q7 -7 7 -17q0 -26 -42 -39l-183 -49zM540 742h-315q-44 0 -71 -7q-28 -7 -48 -23q-21 -16 -32 -40q-12 -26 -21 -60h-10l23 140h574l-527 -741h349q49 0 84 8q32 7 54 26q21 18 33 48q13 32 20 74h10l-17 -166h-625z" />
    <glyph glyph-name="zacute" unicode="&#x17a;" horiz-adv-x="444" 
d="M188 543l102 146q20 27 42 27q14 0 20 -8t6 -18q0 -11 -6 -20q-7 -10 -15 -17l-145 -116zM411 -11l2 -2q-7 4 -15 5t-23 3q-18 2 -36 2h-55h-273l321 458h-174q-33 0 -53 -7q-21 -8 -34 -19q-12 -11 -22 -29q-9 -16 -18 -36h-8l20 111q17 -7 45 -9q19 -1 84 -1h247
l-324 -458h190q33 0 57 8q22 7 36 21t23 35q11 26 20 50h7z" />
    <glyph glyph-name="Zdotaccent" unicode="&#x17b;" horiz-adv-x="686" 
d="M540 741h-315q-44 0 -71 -7q-28 -7 -48 -23q-21 -16 -32 -40q-12 -25 -21 -60h-10l23 140h574l-527 -741h349q49 0 84 8q32 7 54 26q21 18 33 48q13 32 20 74h10l-17 -166h-625zM347 781v-2q-19 0 -33 14q-13 13 -13 33t13 32q14 12 33 12t33 -12q13 -12 13 -31
q0 -20 -13 -33t-33 -13z" />
    <glyph glyph-name="zdotaccent" unicode="&#x17c;" horiz-adv-x="444" 
d="M412 -10l2 -2q-8 4 -15 5q-8 1 -23 3q-18 2 -36 2h-55h-273l321 458h-174q-33 0 -53 -7q-21 -8 -34 -19q-12 -11 -22 -29q-9 -17 -18 -36h-8l20 111q16 -8 45 -9q19 -1 84 -1h247l-324 -458h190q33 0 57 8q23 8 36 21q14 14 23 35q11 26 20 50h7zM230 559q-20 0 -33 13
t-13 33t13 33t33 13t33 -13t13 -33t-13 -33t-33 -13z" />
    <glyph glyph-name="Zcaron" unicode="&#x17d;" horiz-adv-x="686" 
d="M217 886l130 -50l130 50l4 -5l-134 -106l-134 106zM540 741h-315q-44 0 -71 -7q-28 -7 -48 -23q-21 -16 -32 -40q-12 -25 -21 -60h-10l23 140h574l-527 -741h349q49 0 84 8q32 7 54 26q21 18 33 48q13 32 20 74h10l-17 -166h-625z" />
    <glyph glyph-name="zcaron" unicode="&#x17e;" horiz-adv-x="444" 
d="M117 726l111 -105l111 105l7 -4l-118 -178l-118 178zM412 -10l2 -2q-8 4 -15 5q-8 1 -23 3q-18 2 -36 2h-55h-273l321 458h-174q-33 0 -53 -7q-21 -8 -34 -19q-12 -11 -22 -29q-9 -17 -18 -36h-8l20 111q16 -8 45 -9q19 -1 84 -1h247l-324 -458h190q33 0 57 8q23 8 36 21
q14 14 23 35q11 26 20 50h7z" />
    <glyph glyph-name="uni0192" unicode="&#x192;" horiz-adv-x="410" 
d="M78 466l71 -6l20 108q11 58 28 92q18 37 40 57q22 21 47 30q24 9 50 9q33 0 57 -12t24 -34q0 -12 -7 -20q-8 -9 -22 -9q-16 0 -24 8q-7 7 -10 21q-4 22 -9 30t-21 8q-22 0 -40 -27q-17 -26 -31 -102l-28 -157h103v-10h-105l-57 -316q-15 -84 -34 -133q-20 -51 -42 -78
q-23 -27 -46 -36q-24 -9 -48 -9q-35 0 -60 13t-25 36q0 12 7 20q8 9 24 9q17 0 23 -7t9 -21q4 -24 11 -32q6 -8 23 -8q16 0 27 9q11 10 20 42t21 98q18 95 33 176l45 241h-74v10z" />
    <glyph glyph-name="Aringacute" unicode="&#x1fa;" horiz-adv-x="768" 
d="M11 6l-5 -2q16 6 23 10q11 6 21 19q12 16 23 36q12 23 27 60l234 555q-8 16 -15 27q-8 12 -15 17q-8 6 -16 9q-12 4 -19 6v6h111q8 0 11 -3q2 -2 7 -12l269 -609q4 -8 10 -22t9 -20q8 -17 18 -34q8 -14 21 -25q11 -10 29 -18v-7h-164v7q26 8 26 27t-18 60l-64 144h-375
l-46 -108q-6 -15 -12 -33t-6 -35q0 -15 8 -31q7 -15 30 -24v-6h-122v6zM527 244l-187 426l-181 -426h368zM250 936l165 96q9 5 17 8q9 3 20 3t19 -8q7 -7 7 -17q0 -26 -42 -39l-183 -49zM266 852v-2q0 34 24 57q25 23 56 23q33 0 56 -22q24 -22 24 -57q0 -19 -7 -33t-18 -25
q-10 -10 -25 -16t-31 -6t-31 6q-13 5 -25 17t-17 25q-6 15 -6 33zM301 850v-1q0 -34 12 -52t32 -18t33 19t13 52q0 32 -13 51q-14 20 -33 20q-20 0 -32 -20q-12 -19 -12 -51z" />
    <glyph glyph-name="aringacute" unicode="&#x1fb;" horiz-adv-x="457" 
d="M148 -5v1q-54 0 -89 24t-35 75q0 31 12 51t33 33q20 13 50 24q34 12 62 24l57 24q25 10 41 23q17 14 23 22q6 9 10 20q3 9 3 16v50q0 26 -9 42t-24 25t-33 12t-35 3q-22 0 -36 -3q-16 -4 -23 -7q-8 -4 -15 -11q-6 -5 -10 -13q-11 -19 -21 -29q-11 -11 -27 -11t-24 9
q-7 8 -7 21q0 14 13 24q14 10 36 18q25 8 51 11q28 3 62 3t62 -4q33 -5 57 -16q26 -12 42 -34q17 -23 17 -58v-218q0 -36 2 -72q1 -27 6 -42q4 -14 12 -19q7 -4 21 -4q9 0 19 3q9 3 18 8l3 -6q-3 -3 -21 -13q-17 -9 -45 -9q-51 0 -72 23t-21 60l-23 -21q-26 -23 -59 -41
t-83 -18zM101 104l-2 -2q0 -47 20 -69q19 -21 56 -21q34 0 60 14q25 14 51 39l25 23v211q-5 -9 -21 -24q-15 -14 -53 -31l-51 -22q-46 -20 -66 -48q-19 -28 -19 -70zM132 611l-2 -2q0 35 25 57q26 23 61 23q36 0 61 -22t25 -57q0 -34 -24 -57q-23 -22 -61 -22t-61 22
q-24 23 -24 58zM164 609v-1q0 -35 13 -52q13 -18 39 -18t39 19t13 52q0 32 -13 51q-14 20 -39 20t-39 -20q-13 -19 -13 -51zM117 721l165 96q9 5 17 8q9 3 20 3t19 -8q7 -7 7 -17q0 -25 -42 -39l-183 -49z" />
    <glyph glyph-name="AEacute" unicode="&#x1fc;" horiz-adv-x="1082" 
d="M662 782l165 96q9 5 17 8q9 3 20 3t19 -8q7 -7 7 -17q0 -26 -42 -39l-183 -49zM1010 751l-7 -4q7 0 12 -3t6 -19l16 -91h-10q-20 62 -55 83q-36 21 -95 21h-263v-322h119q33 0 48 7q17 8 26 18q9 11 12 24l6 26h10v-157h-10l-6 26q-3 14 -12 24t-26 18q-15 7 -48 7h-119
v-401h282q32 0 56 3q25 3 44 15t33 35q14 24 23 62h10l-12 -106q-2 -13 -6 -15q-6 -2 -12 -2h-556v7q19 6 31 15t18 33q7 26 8 68q2 58 2 120h-332l-81 -115q-12 -18 -21 -36q-10 -19 -11 -34q-2 -16 6 -30t28 -21v-6h-123v6q11 5 21 12t24 21q15 15 30 34q13 16 39 53
l387 551q12 18 15 30q3 11 -2 19t-15 11q-9 3 -26 6v7h536zM533 248v465l-326 -465h326z" />
    <glyph glyph-name="aeacute" unicode="&#x1fd;" horiz-adv-x="767" 
d="M383 543l102 146q19 27 42 27q14 0 20 -8t6 -18q0 -11 -6 -20q-7 -10 -15 -17l-145 -116zM149 -6l2 -3q-55 0 -91 24t-36 75q0 30 12 48t33 30q20 12 50 21q25 8 62 23l57 25q28 11 41 22q15 12 23 23q7 10 9 20q2 12 2 17v57q0 26 -9 42q-9 17 -24 26t-33 12t-35 3
q-22 0 -36 -3q-15 -3 -21 -7q-8 -5 -12 -10l-10 -12q-11 -17 -22 -28q-12 -12 -30 -12q-15 0 -22 9q-7 8 -7 21q0 14 15 23t37 15t51 9t57 3q25 0 52 -3q30 -3 50 -10q23 -8 41 -21t27 -36q36 38 83 56t92 18q29 0 63 -8q31 -7 59 -26q29 -19 47 -46q20 -29 27 -69h-349
q-11 -44 -11 -95q0 -66 17 -111q16 -43 44 -69q27 -25 63 -36q34 -10 75 -10q44 0 83 14q36 13 66 38l5 -7q-32 -26 -75 -42q-42 -16 -102 -16q-34 0 -63 7q-32 8 -61 22t-55 36q-24 20 -43 50l-48 -44q-33 -30 -66 -47q-35 -18 -84 -18zM555 463v-3q-22 0 -42 -7
q-22 -8 -42 -22t-37 -39q-16 -24 -27 -60h278q-3 38 -15 64q-12 25 -30 40t-40 21t-45 6zM102 96l1 -1q0 -48 21 -69t56 -21q34 0 62 14q26 13 60 44l45 42q-15 25 -24 57q-9 31 -9 67v55q-4 -10 -21 -27t-54 -30l-51 -22q-47 -18 -67 -45q-19 -26 -19 -64z" />
    <glyph glyph-name="Oslashacute" unicode="&#x1fe;" horiz-adv-x="839" 
d="M417 -8l-1 -6q-52 0 -102 15q-47 14 -94 41l-61 -107l-9 5l61 107q-39 26 -71 59q-30 32 -55 75q-23 40 -37 90q-13 46 -13 101q0 81 32 153q31 70 84 121q53 52 122 80q70 29 144 29q47 0 90 -12t84 -33l54 94l9 -5l-54 -94q44 -24 79 -58q38 -36 62 -76q26 -43 41 -92
t15 -105q0 -85 -31 -154q-31 -70 -84 -121q-51 -50 -122 -79q-68 -28 -143 -28zM123 370l-2 -1q0 -109 27 -183q26 -72 74 -118l359 624q-39 27 -79 38q-42 12 -87 12q-56 0 -110 -20q-53 -20 -93 -64q-42 -46 -65 -115q-24 -71 -24 -173zM414 -6l-1 -5q57 0 110 21t93 66
q40 44 64 117q24 72 24 174q0 119 -32 197q-32 77 -84 119l-359 -624q38 -35 86 -50t99 -15zM315 770l165 96q9 5 17 8q9 3 20 3t19 -8q7 -7 7 -17q0 -26 -42 -39l-183 -49z" />
    <glyph glyph-name="oslashacute" unicode="&#x1ff;" horiz-adv-x="560" 
d="M279 -2l-1 -1q32 0 64 12q31 12 55 39q25 28 38 72q14 47 14 111q0 66 -15 111q-16 47 -40 74l13 22q-6 4 -9 5l47 80l8 -5l-47 -80q52 -32 86 -84q35 -53 35 -123q0 -58 -24 -103t-60 -75q-35 -29 -81 -46q-44 -16 -87 -16q-26 0 -58 8q-27 7 -58 23l11 17l-8 8l224 379
q-22 22 -51 33q-30 11 -58 11q-34 0 -63 -13q-31 -14 -53 -42q-23 -29 -36 -73q-14 -47 -14 -109q0 -69 15 -114q15 -46 40 -72l-11 -20q3 -4 8 -6l-52 -89l-8 6l52 88q-52 28 -88 81t-36 126q0 56 23 102q23 45 59 77q36 31 80 48q45 17 86 17q62 0 121 -34l-11 -19l6 -8
l-222 -379q22 -21 50 -30q27 -9 56 -9zM238 542l102 146q20 27 42 27q14 0 20 -8q6 -7 6 -18t-6 -20q-7 -10 -15 -17l-145 -116z" />
    <glyph glyph-name="uni0218" unicode="&#x218;" horiz-adv-x="591" 
d="M302 -125l1 -2q-3 -3 -10 -7t-19 -4q-16 0 -27 10q-12 10 -12 28q0 20 13 30q14 11 30 11q19 0 35 -14q15 -13 15 -41q0 -40 -22 -58q-23 -19 -51 -23l-4 7q56 12 56 49q0 9 -5 14zM308 -9l-6 -8q-57 0 -93 9q-34 9 -62 20q-15 6 -45 20q-20 9 -43 9q-22 0 -30 -23h-10
v164h10q6 -43 29 -78t59 -59q37 -25 84 -38q46 -13 104 -13q52 0 89 14t59 36q23 22 33 54q10 30 10 66q0 39 -12 66t-39 48q-28 22 -72 38q-45 16 -111 36q-52 15 -93 33t-69 42t-43 55q-15 32 -15 73q0 46 19 81q19 36 52 61t75 39q40 13 89 13q50 0 83 -6q34 -6 56 -15
t39 -15t35 -6q26 0 32 24h11v-128h-11q-16 67 -82 103t-162 36q-83 0 -130 -37q-48 -37 -48 -100q0 -31 9 -55t32 -44t61 -36q41 -17 98 -32q54 -14 102 -30t84 -42t57 -61q21 -36 21 -89q0 -44 -18 -85t-51 -72q-34 -32 -81 -50q-48 -18 -106 -18z" />
    <glyph glyph-name="uni0219" unicode="&#x219;" horiz-adv-x="419" 
d="M220 -125l1 -2q-3 -3 -10 -7t-19 -4q-16 0 -27 10q-12 10 -12 28q0 20 13 30q14 11 30 11q19 0 35 -14q15 -13 15 -41q0 -40 -22 -58q-23 -19 -51 -23l-4 7q56 12 56 49q0 9 -5 14zM204 -2l-7 -4q69 0 101 30t32 74q0 24 -7 39q-8 17 -24 29q-19 13 -43 23q-27 11 -66 18
q-80 17 -120 45t-40 86q0 31 14 57q13 25 38 42q26 18 55 26q31 9 66 9q31 0 48 -4q22 -5 33 -10q5 -2 13.5 -5.5t10.5 -4.5q9 -4 20 -4q16 0 19 16h9v-97h-9q-17 53 -51 75q-35 23 -93 23q-59 0 -93 -22t-34 -67q0 -21 8 -35q7 -13 23 -24q15 -10 41 -18q24 -7 62 -15
q88 -20 132 -51q43 -31 43 -90q0 -35 -15 -63q-15 -29 -40 -48q-26 -20 -58 -30q-31 -10 -69 -10q-33 0 -55 6q-25 7 -39 13q-3 2 -13.5 6.5t-15.5 6.5q-12 6 -24 6q-17 0 -20 -18h-10v126h9q13 -63 56 -100q42 -36 113 -36z" />
    <glyph glyph-name="uni021A" unicode="&#x21a;" horiz-adv-x="692" 
d="M365 -125l1 -2q-2 -3 -10 -7q-7 -4 -19 -4q-16 0 -27 10q-12 10 -12 28q0 20 13 30q14 11 30 11q19 0 35 -14q15 -13 15 -41q0 -40 -22 -58q-23 -19 -51 -23l-4 7q56 12 56 49q0 9 -5 14zM248 5h-7q22 6 33 16q12 11 18 39q5 26 7 82q2 72 2 148v450h-113q-33 0 -60 -3
q-26 -3 -48 -17q-21 -14 -36 -40q-15 -27 -24 -73h-11l18 121q1 15 5 19q3 3 11 3h602q8 0 11 -3q4 -4 5 -19l18 -121h-12q-9 46 -24 73q-15 26 -36 40q-22 14 -48 17q-27 3 -61 3h-111v-450q0 -76 2 -148q1 -51 8 -82q6 -28 18 -39q11 -10 33 -16v-7h-200v7z" />
    <glyph glyph-name="uni021B" unicode="&#x21b;" horiz-adv-x="270" 
d="M184 -125l1 -2q-3 -3 -10 -7t-19 -4q-16 0 -27 10q-12 10 -12 28q0 20 13 30q14 11 30 11q19 0 35 -14q15 -13 15 -41q0 -40 -22 -58q-23 -19 -51 -23l-4 7q56 12 56 49q0 9 -5 14zM166 -7l-2 -5q-50 0 -75 27q-26 28 -26 72v363h-43v8q19 3 37 12t33 27q14 16 25 44
q11 25 15 63h9v-142h110v-10h-110v-333q0 -57 9 -84t43 -27q23 0 39 10t24 21l5 -4q-7 -11 -29 -27q-21 -15 -64 -15z" />
    <glyph glyph-name="uni0237" unicode="&#x237;" horiz-adv-x="219" 
d="M-26 -139l2 -2q-13 0 -26 8q-12 7 -12 24q0 13 9 21q10 8 22 8t20 -5q7 -5 14 -11q8 -8 12 -11q7 -5 14 -5t15 6q5 3 9 10q5 8 9 22q4 12 7 39q3 24 3 63v232v81q0 30 -4 42q-5 14 -13 17q-11 4 -26 5v8l121 61v-423q0 -33 -10 -57q-11 -26 -25 -46q-15 -21 -33 -36
q-14 -12 -33 -25q-25 -17 -42 -21q-18 -5 -33 -5z" />
    <glyph glyph-name="circumflex" unicode="&#x2c6;" horiz-adv-x="446" 
d="M228 718l118 -178l-7 -4l-111 105l-111 -105l-7 4z" />
    <glyph glyph-name="caron" unicode="&#x2c7;" horiz-adv-x="446" 
d="M117 726l111 -105l111 105l7 -4l-118 -178l-118 178z" />
    <glyph glyph-name="breve" unicode="&#x2d8;" horiz-adv-x="446" 
d="M223 583l-3 -4q42 0 65 24q22 24 30 62h9q-2 -25 -9 -47q-8 -23 -19 -40q-12 -18 -31 -28q-20 -11 -45 -11q-26 0 -46 11t-32 29t-18 41q-5 20 -7 48h9q7 -37 30 -61q22 -24 67 -24z" />
    <glyph glyph-name="dotaccent" unicode="&#x2d9;" horiz-adv-x="446" 
d="M222 561q-20 0 -33 13t-13 33t13 33t33 13t33 -13t13 -33t-13 -33t-33 -13z" />
    <glyph glyph-name="ring" unicode="&#x2da;" horiz-adv-x="446" 
d="M145 612l-2 -2q0 35 25 57q26 23 61 23q36 0 61 -22t25 -57t-24 -57q-23 -22 -61 -22t-61 22q-24 22 -24 58zM177 610v-1q0 -35 13 -52q14 -18 39 -18q26 0 39 19t13 52q0 32 -13 51q-14 20 -39 20t-39 -20q-13 -19 -13 -51z" />
    <glyph glyph-name="ogonek" unicode="&#x2db;" horiz-adv-x="446" 
d="M208 -170l-1 1q-35 0 -54 18t-19 49q0 23 15 41t35 32q19 13 41 21q21 8 33 9h12q-30 -11 -54 -33t-24 -57q0 -19 12 -34t36 -15q13 0 26 5t20 12l5 -5q-1 -3 -8 -12q-5 -7 -17 -15q-11 -8 -25 -12q-17 -5 -33 -5z" />
    <glyph glyph-name="tilde" unicode="&#x2dc;" horiz-adv-x="446" 
d="M175 644l1 2q5 0 25 -2t31 -4t31 -4t25 -2q8 0 21 9q14 9 29 41l7 -3q-11 -49 -30 -71q-20 -23 -36 -23q-5 0 -27 2l-33 3q-11 1 -31 3t-24 2q-6 0 -10 -1q-6 -2 -13 -7q-7 -6 -16 -16q-8 -9 -19 -30l-6 3q13 47 36 73q22 25 39 25z" />
    <glyph glyph-name="hungarumlaut" unicode="&#x2dd;" horiz-adv-x="446" 
d="M248 548l36 142q8 20 15 29t21 9q13 0 19 -7t6 -18q0 -7 -3 -16q-2 -6 -8 -16l-80 -125zM123 548l37 142q7 21 13 29q7 9 21 9t20 -7t6 -18q0 -7 -3 -16q-2 -6 -8 -16l-80 -125z" />
    <glyph glyph-name="Wgrave" unicode="&#x1e80;" horiz-adv-x="1029" 
d="M464 825v-2q-42 13 -42 39q0 10 7 17q8 8 19 8t20 -3q12 -4 17 -7l165 -95l-3 -6zM91 621l-6 -2q-4 11 -10.5 27.5t-7.5 19.5q-7 20 -15 33q-8 14 -18 23q-12 10 -27 17v7h157v-7q-21 -6 -24 -24q-3 -17 14 -58l231 -571l124 303l-94 229q-4 11 -10.5 27.5t-7.5 19.5
q-8 21 -16 33q-10 15 -19 24q-10 10 -25 16v7h158v-7q-22 -6 -25 -23q-3 -16 14 -59l76 -185l63 148q9 21 15 39t6 33q0 16 -7 27t-27 19v7h107v-7q-14 -6 -20 -10q-9 -6 -18 -18q-11 -14 -20 -33q-13 -27 -26 -57l-68 -160l151 -370l206 529q12 34 14 40q6 19 6 35
q0 15 -9 27t-28 19v7h112v-7q-10 -4 -21 -11q-9 -6 -18 -18q-8 -10 -19 -33q-10 -19 -24 -56l-245 -628h-12l-160 387l-158 -387h-12z" />
    <glyph glyph-name="wgrave" unicode="&#x1e81;" horiz-adv-x="709" 
d="M72 355l2 2q-14 31 -24 51q-10 18 -20 30q-8 10 -17 15t-17 8v7h159v-7q-13 -1 -21 -6t-9 -15q-1 -9 5 -30q6 -20 18 -51l110 -277l98 207l-27 67q-13 32 -24 51q-11 21 -19 30q-9 11 -18 15q-12 6 -19 8v7h156v-7q-13 -2 -21 -6q-7 -4 -7 -15t6 -30t18 -51l111 -274
l106 252q17 41 21 64q5 25 2 36q-3 12 -14 17q-10 4 -26 6v7h115v-7q-14 -3 -21 -7q-10 -5 -18 -16q-9 -12 -21 -36q-10 -21 -28 -64l-143 -341h-12l-114 282l-132 -282h-12zM256 655l1 -1q-9 7 -18 17q-7 8 -7 20q0 10 8 20q8 9 21 9t21 -7q8 -6 19 -21l104 -147l-4 -6z
" />
    <glyph glyph-name="Wacute" unicode="&#x1e82;" horiz-adv-x="1029" 
d="M448 782l165 96q9 5 17 8q9 3 20 3t19 -8q7 -7 7 -17q0 -26 -42 -39l-183 -49zM91 624l-6 -2q-4 11 -10.5 27.5t-7.5 19.5q-7 19 -15 33t-18 23q-12 10 -27 17v7h157v-7q-21 -6 -24 -24q-3 -17 14 -58l231 -571l124 303l-94 229q-4 11 -10.5 27.5t-7.5 19.5q-8 21 -16 33
q-10 15 -19 24q-10 10 -25 16v7h158v-7q-22 -6 -25 -23q-3 -16 14 -59l76 -185l63 148q9 21 15 39t6 33q0 16 -7 27t-27 19v7h107v-7q-14 -6 -20 -10q-9 -6 -18 -18q-11 -14 -20 -33q-13 -27 -26 -57l-68 -160l151 -370l206 529q12 34 14 40q6 19 6 35q0 15 -9 27t-28 19v7
h112v-7q-10 -4 -21 -11q-9 -6 -18 -18q-8 -10 -19 -33q-10 -19 -24 -56l-245 -628h-12l-160 387l-158 -387h-12z" />
    <glyph glyph-name="wacute" unicode="&#x1e83;" horiz-adv-x="709" 
d="M294 543l102 146q20 27 42 27q14 0 20 -8t6 -18q0 -11 -6 -20q-7 -10 -15 -17l-145 -116zM71 354l2 2q-13 32 -24 51q-10 18 -20 30q-8 10 -17 15t-17 8v7h159v-7q-14 -2 -21 -6t-9 -15q-1 -9 5 -30q6 -19 18 -51l110 -277l98 207l-27 67q-14 31 -24 51q-11 21 -19 30
q-9 10 -18 15q-12 6 -19 8v7h156v-7q-14 -1 -21 -6q-7 -4 -7 -15q0 -10 6 -30t18 -51l111 -274l106 252q17 41 21 64q5 25 2 36q-3 12 -14 17q-10 4 -26 6v7h115v-7q-14 -4 -21 -7q-10 -5 -18 -16q-9 -12 -21 -36q-10 -21 -28 -64l-143 -341h-12l-114 282l-132 -282h-12z
" />
    <glyph glyph-name="Wdieresis" unicode="&#x1e84;" horiz-adv-x="1029" 
d="M652 781v-1q-19 0 -31 12t-12 32q0 18 12 30t31 12q17 0 29 -12t12 -30q0 -19 -12 -31t-29 -12zM442 780v-1q-17 0 -29 12t-12 32q0 18 12 30t29 12q19 0 31 -12t12 -30q0 -19 -12 -31t-31 -12zM91 621l-6 -2q-4 11 -10.5 27.5t-7.5 19.5q-7 20 -15 33q-8 14 -18 23
q-12 10 -27 17v7h157v-7q-21 -6 -24 -24q-3 -17 14 -58l231 -571l124 303l-94 229q-4 11 -10.5 27.5t-7.5 19.5q-8 21 -16 33q-10 15 -19 24q-10 10 -25 16v7h158v-7q-22 -6 -25 -23q-3 -16 14 -59l76 -185l63 148q9 21 15 39t6 33q0 16 -7 27t-27 19v7h107v-7
q-14 -6 -20 -10q-9 -6 -18 -18q-11 -14 -20 -33q-13 -27 -26 -57l-68 -160l151 -370l206 529q12 34 14 40q6 19 6 35q0 15 -9 27t-28 19v7h112v-7q-10 -4 -21 -11q-9 -6 -18 -18q-8 -10 -19 -33q-10 -19 -24 -56l-245 -628h-12l-160 387l-158 -387h-12z" />
    <glyph glyph-name="wdieresis" unicode="&#x1e85;" horiz-adv-x="709" 
d="M420 562v-1q-18 0 -30 12t-12 32q0 18 12 30t30 12t30 -12t12 -30q0 -19 -12 -31t-30 -12zM250 561v-1q-18 0 -30 12t-12 32q0 18 12 30t30 12t30 -12t12 -30q0 -19 -12 -31t-30 -12zM72 353l2 2q-14 31 -24 51q-10 18 -20 30q-8 10 -17 15t-17 8v7h159v-7q-13 -1 -21 -6
t-9 -15q-1 -9 5 -30q6 -20 18 -51l110 -277l98 207l-27 67q-13 32 -24 51q-11 21 -19 30q-9 11 -18 15q-12 6 -19 8v7h156v-7q-13 -2 -21 -6q-7 -4 -7 -15t6 -30t18 -51l111 -274l106 252q17 41 21 64q5 25 2 36q-3 12 -14 17q-10 4 -26 6v7h115v-7q-14 -3 -21 -7
q-10 -5 -18 -16q-9 -12 -21 -36q-10 -21 -28 -64l-143 -341h-12l-114 282l-132 -282h-12z" />
    <glyph glyph-name="Ygrave" unicode="&#x1ef2;" horiz-adv-x="711" 
d="M258 7v-1q22 6 33 16q12 10 18 39q5 26 7 82q2 72 2 148v69l-188 263q-21 30 -36 51q-17 24 -28 36q-15 17 -25 23q-12 8 -28 12v6h186v-6q-23 -5 -29 -21t21 -54l202 -284l174 240q20 27 29 42q13 22 17 34q5 16 -1 26t-24 18v6h112v-6q-9 -4 -22 -12q-12 -8 -27 -21
q-17 -15 -33 -34q-18 -21 -42 -54l-179 -249v-84q0 -76 2 -148q1 -51 8 -82q6 -28 18 -39q11 -10 33 -16v-7h-200v7zM319 824v-2q-42 14 -42 39q0 10 7 17q8 8 19 8t20 -3q12 -4 17 -7l165 -95l-3 -6z" />
    <glyph glyph-name="ygrave" unicode="&#x1ef3;" horiz-adv-x="477" 
d="M117 -171l1 -5q-20 0 -29 9t-9 22q0 12 8 22q8 9 24 9t27 -6t21 -6q14 0 26 19q15 24 35 70l14 30l-162 362q-13 31 -24 51q-11 21 -19 30q-10 11 -16 15q-9 5 -18 8v6h155v-6q-11 -1 -19 -6t-9 -15q-2 -11 3 -29q4 -17 18 -49l125 -282l115 258q19 43 23 64q5 24 0 36
q-5 13 -16 17q-12 5 -27 6v6h119v-6q-10 -1 -19 -6q-8 -4 -18 -17q-9 -12 -21 -36q-14 -28 -30 -64l-165 -371q-34 -75 -58 -105q-25 -31 -55 -31zM190 648l1 -1q-9 7 -18 17q-7 8 -7 20q0 10 8 20q8 9 21 9t21 -7q8 -6 19 -21l104 -147l-4 -6z" />
    <glyph glyph-name="uni2009" unicode="&#x2009;" horiz-adv-x="80" 
 />
    <glyph glyph-name="endash" unicode="&#x2013;" horiz-adv-x="544" 
d="M41 287h462v-12h-462v12z" />
    <glyph glyph-name="emdash" unicode="&#x2014;" horiz-adv-x="931" 
d="M41 287h849v-12h-849v12z" />
    <glyph glyph-name="quoteleft" unicode="&#x2018;" horiz-adv-x="185" 
d="M71 664h-1q3 3 11 9q5 4 20 4q16 0 29 -11q12 -10 12 -30t-14 -32t-30 -12q-19 0 -37 15t-18 51q0 42 21 72q22 31 54 50l4 -6q-28 -19 -43 -43t-15 -46q0 -14 7 -21z" />
    <glyph glyph-name="quoteright" unicode="&#x2019;" horiz-adv-x="185" 
d="M114 690l-1 -1q-5 -5 -12 -9t-21 -4q-16 0 -29 11q-12 11 -12 30q0 21 14 33q13 12 32 12q20 0 38 -15t18 -51q0 -42 -21 -72t-53 -50l-5 7q29 20 44 44t15 46q0 15 -7 19z" />
    <glyph glyph-name="quotesinglbase" unicode="&#x201a;" horiz-adv-x="185" 
d="M114 26l-1 -1q-5 -5 -12 -9t-21 -4q-16 0 -29 11q-12 11 -12 30q0 21 14 33q13 12 32 12q20 0 38 -15t18 -51q0 -42 -21 -72t-53 -50l-5 7q29 20 44 44t15 46q0 15 -7 19z" />
    <glyph glyph-name="quotedblleft" unicode="&#x201c;" horiz-adv-x="307" 
d="M71 664h-1q3 3 11 9q5 4 20 4q16 0 29 -11q12 -10 12 -30t-14 -32t-30 -12q-19 0 -37 15t-18 51q0 42 21 72q22 31 54 50l4 -6q-28 -19 -43 -43t-15 -46q0 -14 7 -21zM192 664h-1q3 3 11 9q5 4 20 4q16 0 29 -11q12 -10 12 -30t-14 -32q-13 -12 -30 -12q-19 0 -37 15
t-18 51q0 42 21 72q22 31 54 50l4 -6q-28 -19 -43 -43t-15 -46q0 -14 7 -21z" />
    <glyph glyph-name="quotedblright" unicode="&#x201d;" horiz-adv-x="307" 
d="M236 690l-1 -1q-5 -5 -12 -9t-21 -4q-16 0 -29 11q-12 11 -12 30q0 21 14 33q13 12 32 12q20 0 38 -15t18 -51q0 -42 -21 -72t-53 -50l-5 7q29 20 44 44t15 46q0 15 -7 19zM113 689l-1 -1q-4 -4 -12 -9q-7 -4 -21 -4q-16 0 -29 11q-12 10 -12 30q0 21 14 33q13 12 32 12
q20 0 38 -15t18 -51q0 -42 -21 -72t-53 -50l-5 7q29 20 44 44t15 46q0 15 -7 19z" />
    <glyph glyph-name="quotedblbase" unicode="&#x201e;" horiz-adv-x="307" 
d="M236 26l-1 -1q-5 -5 -12 -9t-21 -4q-16 0 -29 11q-12 11 -12 30q0 21 14 33q13 12 32 12q20 0 38 -15t18 -51q0 -42 -21 -72t-53 -50l-5 7q29 20 44 44t15 46q0 15 -7 19zM113 25l-1 -1q-4 -4 -12 -9q-7 -4 -21 -4q-16 0 -29 11q-12 10 -12 30q0 21 14 33t32 12
q20 0 38 -15t18 -51q0 -42 -21 -72t-53 -50l-5 7q29 20 44 44t15 46q0 15 -7 19z" />
    <glyph glyph-name="dagger" unicode="&#x2020;" horiz-adv-x="374" 
d="M185 -2l-4 -8q0 38 -3 83q-2 30 -6 92t-7 92q-1 15 -7 81q-3 38 -6 62q-4 32 -4 33q12 33 20 58q11 36 11 72q-17 0 -30 -4l-30 -9q-20 -6 -29 -9q-12 -4 -27 -4q-21 0 -30 11q-9 10 -9 23t9 24q9 10 30 10q15 0 27 -4q24 -8 29 -10q10 -4 30 -10q13 -4 30 -4q0 11 -5 33
q-4 16 -11 38q-8 24 -11 36q-5 20 -5 29q0 19 11 30t27 11q17 0 27 -10q11 -11 11 -30q0 -8 -5 -28q-3 -12 -11 -36t-11 -37q-5 -22 -5 -33q13 0 30 5q20 6 30 10q5 2 29 10q15 5 27 5q20 0 30 -10t10 -24q0 -12 -10 -22t-30 -10q-12 0 -27 5q-9 3 -29 9l-30 9q-17 5 -30 5
q0 -36 11 -72q8 -25 20 -58q0 -1 -4 -33q-3 -27 -6 -61q-3 -36 -6 -81q-2 -30 -6 -92t-5 -93q-2 -62 -2 -84h-8z" />
    <glyph glyph-name="daggerdbl" unicode="&#x2021;" horiz-adv-x="375" 
d="M188 -8l-5 -20q-16 0 -27 11q-10 10 -10 30q0 9 5 29q2 7 11 37q8 26 11 38q5 20 5 33q-17 0 -30 -4q-20 -6 -30 -10q-5 -2 -29 -10q-12 -4 -27 -4q-20 0 -30 10t-10 24q0 13 10 23q11 11 30 11q15 0 27 -4q9 -3 29 -9l30 -9q13 -4 30 -4q0 46 -3 77q-3 27 -8 54
q-4 19 -11 37q-8 20 -13 29q10 18 14 28q7 18 11 37q5 27 8 54q3 32 3 78q-17 0 -30 -4l-30 -9q-20 -6 -29 -9q-12 -4 -27 -4q-19 0 -30 11q-10 10 -10 23q0 14 10 24t30 10q15 0 27 -4q24 -8 29 -10q10 -4 30 -10q13 -4 30 -4q0 11 -5 33q-4 16 -11 38q-8 24 -11 36
q-5 20 -5 29q0 19 11 30t27 11q17 0 27 -10q11 -11 11 -30q0 -8 -5 -28q-3 -12 -11 -36t-11 -37q-5 -22 -5 -33q13 0 30 5q20 6 30 10q5 2 29 10q15 5 27 5q20 0 30 -10t10 -24q0 -12 -10 -22t-30 -10q-12 0 -27 5q-9 3 -29 9l-30 9q-17 5 -30 5q0 -47 3 -78q3 -27 8 -54
q4 -19 11 -37q4 -10 14 -28q-6 -12 -13 -28q-7 -18 -11 -36q-5 -25 -8 -53q-3 -31 -3 -78q13 0 30 5l30 9q20 6 29 9q15 5 27 5q20 0 30 -10t10 -22q0 -14 -10 -24t-30 -10q-12 0 -27 5q-18 6 -28 10t-30 10q-17 5 -30 5q0 -13 5 -33q2 -7 11 -37t11 -37q5 -20 5 -28
q0 -20 -10 -30t-27 -10z" />
    <glyph glyph-name="bullet" unicode="&#x2022;" horiz-adv-x="342" 
d="M171 406l-4 -5q24 0 45 -9q23 -10 38 -25q18 -18 26 -37q9 -21 9 -46t-9 -46t-25 -37t-37 -25t-45 -9q-25 0 -46 9t-37 25q-15 15 -25 38q-9 21 -9 47t9 47q10 23 25 38q17 17 38 26t47 9z" />
    <glyph glyph-name="ellipsis" unicode="&#x2026;" horiz-adv-x="644" 
d="M534 -10v-2q-20 0 -36 14q-15 14 -15 35t15 35q16 14 36 14q19 0 33 -14t14 -35q0 -20 -14 -34q-13 -13 -33 -13zM322 -12v-2q-20 0 -36 14q-15 14 -15 35q0 22 15 35q16 14 36 14q19 0 33 -14t14 -35q0 -20 -14 -34q-13 -13 -33 -13zM111 -14v-2q-20 0 -36 14
q-15 13 -15 35q0 21 15 35q16 14 36 14q19 0 33 -14t14 -35q0 -20 -14 -34q-13 -13 -33 -13z" />
    <glyph glyph-name="perthousand" unicode="&#x2030;" horiz-adv-x="1192" 
d="M201 379l-4 -1q-31 0 -61 13q-31 13 -57 38q-25 24 -42 59q-16 33 -16 78q0 42 17 78q17 35 42 59q25 23 57 37q30 13 62 13t62 -13q32 -14 57 -37q25 -24 42 -59q17 -36 17 -78q0 -45 -16 -78q-17 -35 -42 -59q-25 -23 -57 -37q-30 -13 -61 -13zM116 6l528 747l13 -9
l-528 -746zM197 387v-2q19 0 39 9t36 30t27 56q11 36 11 84t-11 84q-11 35 -27 56t-36 30t-39 9q-18 0 -39 -9q-20 -9 -37 -30t-27 -55q-11 -36 -11 -84t11 -84q10 -34 27 -55t37 -30q21 -9 39 -9zM578 -9l-4 -1q-31 0 -61 13q-31 13 -57 38q-25 24 -42 59q-16 33 -16 78
q0 42 17 78q17 35 42 59q25 23 57 37q30 13 62 13t62 -13q32 -14 58 -37t43 -59t17 -78q0 -45 -16 -78q-17 -36 -43 -59t-58 -37q-30 -13 -61 -13zM982 -10l-4 -1q-31 0 -61 13q-31 13 -57 38q-25 24 -42 59q-16 33 -16 78q0 42 17 78q17 35 42 59q25 23 57 37q30 13 62 13
t62 -13q32 -14 58 -37t43 -59t17 -78q0 -45 -16 -78q-17 -36 -43 -59t-58 -37q-30 -13 -61 -13zM570 -2l-1 -2q19 0 40 9q22 9 38 30t27 56q11 36 11 84t-11 84q-11 35 -27 56q-17 21 -37 30q-21 9 -40 9q-18 0 -39 -9q-20 -9 -37 -30t-27 -55q-11 -36 -11 -84t11 -84
q10 -34 27 -55t37 -30q21 -9 39 -9zM977 -4l-1 -2q19 0 40 9q22 9 38 30t27 56q11 36 11 84t-11 84q-11 35 -27 56q-17 21 -37 30q-21 9 -40 9q-18 0 -39 -9q-20 -9 -37 -30t-27 -55q-11 -36 -11 -84t11 -84q10 -34 27 -55t37 -30q21 -9 39 -9z" />
    <glyph glyph-name="uni2032" unicode="&#x2032;" horiz-adv-x="144" 
d="M35 581l-1 -2q7 28 9 53q1 16 1 56q0 69 39 69q17 0 24 -10q8 -11 8 -24q0 -16 -7 -30q-6 -13 -18 -31q-9 -13 -27 -41q-13 -20 -21 -41z" />
    <glyph glyph-name="uni2033" unicode="&#x2033;" horiz-adv-x="240" 
d="M35 581l-1 -2q7 28 9 53q1 16 1 56q0 69 39 69q17 0 24 -10q8 -11 8 -24q0 -16 -7 -30q-6 -13 -18 -31q-9 -13 -27 -41q-13 -20 -21 -41zM130 579l-1 -2q7 28 9 53q1 16 1 56q0 69 39 69q17 0 24 -10q8 -11 8 -24q0 -16 -7 -30q-6 -13 -18 -31q-9 -13 -27 -41
q-13 -20 -21 -41z" />
    <glyph glyph-name="guilsinglleft" unicode="&#x2039;" horiz-adv-x="255" 
d="M58 226v8l138 159l6 -4l-79 -159l80 -159l-6 -4z" />
    <glyph glyph-name="guilsinglright" unicode="&#x203a;" horiz-adv-x="255" 
d="M52 71l81 159l-80 159l6 4l137 -159v-8l-138 -159z" />
    <glyph glyph-name="fraction" unicode="&#x2044;" horiz-adv-x="503" 
d="M50 379h403v-8h-403v8z" />
    <glyph glyph-name="Euro" unicode="&#x20ac;" horiz-adv-x="721" 
d="M30 343l60 -7q-1 5 -1 17v17v24q0 9 2 23h-65v11h66q10 78 44 141q33 61 81 102q47 40 105 61q57 21 111 21q59 0 102 -12q44 -12 74 -30q29 -18 45 -38q15 -20 15 -35q0 -12 -8 -20t-21 -8q-32 0 -45 40q-5 14 -12 30t-24 31t-46 24q-30 9 -79 9q-51 0 -93 -19
q-44 -20 -78 -58q-35 -39 -57 -99q-23 -60 -27 -139h274v-11h-274q-1 -5 -1 -15v-16v-25v-23h274v-11h-273q8 -86 31 -144q24 -59 59 -99q34 -38 78 -58q42 -19 87 -19q51 0 87 12t63 30q26 17 46 39q19 20 34 40l7 -6q-16 -22 -33 -41q-19 -22 -50 -42q-29 -19 -71 -33
q-39 -13 -96 -13q-70 0 -127 27q-56 27 -99 74q-43 48 -68 108q-26 63 -32 129h-65v11z" />
    <glyph glyph-name="trademark" unicode="&#x2122;" horiz-adv-x="690" 
d="M106 455h-2q6 1 12 5q5 3 8 12t3 27v51v192h-37q-28 0 -42 -10q-16 -11 -23 -45h-4l6 52q1 5 3 7q1 1 6 1h230q4 0 5 -1q2 -2 3 -7l7 -52h-5q-8 35 -22 45t-43 10h-36v-192q0 -39 1 -51q2 -20 4 -27q3 -9 8 -12q6 -4 12 -5v-4h-94v4zM309 455l2 -1q6 1 12 5q4 2 7 14
q3 11 3 30v54v85v54q0 20 -3 30q-3 12 -7 14q-6 4 -12 5v4h72q2 0 3 -1q2 -2 3 -6l99 -233l105 240h70v-4q-6 -1 -12 -5q-5 -3 -6 -13q-2 -14 -2 -30v-54v-85v-54q0 -20 3 -30q3 -11 8 -14q6 -4 12 -5v-4h-93v4q6 1 12 5q4 2 7 14q3 10 3 30v54v181l-126 -289h-6l-123 288
v-180v-54q0 -16 2 -30q2 -11 6 -14q6 -4 12 -5v-4h-51v4z" />
    </font>
</defs>
</svg>
