<?xml version="1.0" standalone="no"?>
<!DOCTYPE svg PUBLIC "-//W3C//DTD SVG 1.1//EN" "http://www.w3.org/Graphics/SVG/1.1/DTD/svg11.dtd" >
<svg xmlns="http://www.w3.org/2000/svg" xmlns:xlink="http://www.w3.org/1999/xlink" version="1.1">
<metadata>
Created by FontForge 20170731 at Tue Sep  4 00:53:10 2018
 By Aleksey,,,
Copyright (c) 2018 Commercial Type, Inc.. All rights reserved.
</metadata>
<defs>
<font id="SchnyderXCondLBold" horiz-adv-x="342" >
  <font-face 
    font-family="Schnyder X Cond L Bold"
    font-weight="700"
    font-stretch="extra-condensed"
    units-per-em="1000"
    panose-1="0 0 0 0 0 0 0 0 0 0"
    ascent="800"
    descent="-200"
    x-height="465"
    cap-height="749"
    bbox="-120 -297 928 1018"
    underline-thickness="13"
    underline-position="-104"
    unicode-range="U+000D-FB04"
  />
<missing-glyph horiz-adv-x="142" 
 />
    <glyph glyph-name="f_f" unicode="ff" horiz-adv-x="414" 
d="M220 6l1 -4q10 3 14 6t7 12t3 24v41v366h-93v-366q0 -31 1 -41q1 -13 5 -24q3 -9 11 -12q7 -3 21 -6v-6h-169v6q10 3 14 6t7 12t3 24v41v366h-49v7q29 3 39 11q9 7 9 36v86q0 47 18 79t44 50q27 19 51 26t42 7q35 0 62 -11q25 -10 33 -29q26 25 54 36q27 10 46 10
q42 0 70 -16t28 -48q0 -13 -9 -25t-29 -12q-23 0 -32 12q-8 11 -13 33q-8 35 -10 40q-3 9 -8 9q-7 0 -15 -6q-6 -5 -13 -20q-6 -13 -9 -38q-3 -24 -3 -61v-162h67v-10h-67v-366q0 -31 1 -41q1 -13 5 -24q3 -9 11 -12t21 -6v-6h-169v6zM245 462l-2 116q0 27 4 44q5 20 12 36
q-18 2 -26 14t-12 31q-4 23 -8 33q-3 8 -14 8q-19 0 -33 -21q-14 -22 -14 -73v-188h93z" />
    <glyph glyph-name="f_i" unicode="fi" horiz-adv-x="389" 
d="M20 6l-1 -1q10 3 14 6t7 12t3 24v41v366h-49v7q30 3 40 11q9 8 9 18v92q0 50 18 85q18 34 42 55t50 30q25 9 42 9q41 0 69 -16t28 -48q0 -13 -9 -24t-29 -11q-22 0 -31 11q-10 11 -14 32q-9 36 -10 39q-3 9 -8 9q-7 0 -15 -6q-6 -5 -13 -20q-6 -13 -9 -38q-3 -24 -3 -61
v-162h64l136 11v-387v-41q0 -15 3 -24t9 -12q7 -3 16 -6v-6h-162v6q9 3 16 6q6 3 9 12t3 24v41v256q0 44 -1 58q-2 24 -4 32q-3 11 -9 14q-8 4 -16 5h-64v-366q0 -31 1 -41q1 -13 5 -24q3 -9 11 -12t21 -6v-6h-169v6zM296 523l-2 -1q-25 0 -43 18t-18 44q0 25 18 43t44 18
t44 -18t18 -43t-18 -43t-43 -18z" />
    <glyph glyph-name="f_l" unicode="fl" horiz-adv-x="389" 
d="M20 6l-2 -2q10 3 14 6t7 12t3 24v41v366h-49v7q30 3 40 11q9 7 9 18v83q0 54 18 90q18 35 44 57q26 21 52 30q27 9 44 9q41 0 65 -15t24 -42q0 -13 -9 -25t-28 -12q-20 0 -29 11q-8 10 -13 30q-8 32 -12 38t-3 6q-17 0 -30 -27q-14 -28 -14 -99v-158h46v-10h-46v-366
q0 -31 1 -41q1 -13 5 -24q3 -9 11 -12t21 -6v-6h-169v6zM215 4l-2 1q9 3 16 6q6 3 9 12t3 24v41v557q0 22 -5 29t-21 8v7l134 84v-686v-41q0 -15 3 -24t9 -12q7 -3 16 -6v-6h-162v6z" />
    <glyph glyph-name="f_f_i" unicode="ffi" horiz-adv-x="589" 
d="M20 6l1 -2q10 3 14 6t7 12t3 24v41v366h-49v7q29 3 39 11q9 7 9 36v86q0 47 18 79t44 50q27 19 51 26t42 7q33 0 60 -11q26 -11 35 -29q26 25 54 36q27 10 46 10q41 0 69 -16q29 -17 29 -48q0 -13 -9 -24t-29 -11q-23 0 -32 11q-10 11 -14 32q-9 36 -10 39q-3 9 -8 9
q-8 0 -15 -6q-6 -5 -13 -20q-6 -13 -9 -38q-3 -24 -3 -61v-162h64l137 11v-387v-41q0 -15 3 -24t9 -12q7 -3 16 -6v-6h-161v6q9 3 15 6t9 12t3 24v41v256q0 44 -1 58q-2 24 -4 32q-3 11 -9 14q-8 4 -16 5h-64v-366q0 -31 1 -41q1 -13 5 -24q3 -9 11 -12t21 -6v-6h-169v6
q10 3 14 6t7 12t3 24v41v366h-93v-366q0 -31 1 -41q1 -13 5 -24q3 -9 11 -12t21 -6v-6h-169v6zM245 464l-2 116q0 27 4 44q5 20 12 36q-18 2 -26 14t-12 31q-4 23 -8 33q-3 8 -14 8q-19 0 -33 -21q-14 -22 -14 -73v-188h93zM496 522l-2 -1q-25 0 -43 18t-18 44q0 25 18 43
t44 18t44 -18t18 -43t-18 -43t-43 -18z" />
    <glyph glyph-name="f_f_l" unicode="ffl" horiz-adv-x="589" 
d="M220 6l-1 -2q10 3 14 6t7 12t3 24v41v366h-93v-366q0 -31 1 -41q1 -13 5 -24q3 -9 11 -12q7 -3 21 -6v-6h-169v6q10 3 14 6t7 12t3 24v41v366h-49v7q29 3 39 11q9 7 9 36v86q0 47 18 79t42 50q25 19 50 26q24 7 42 7q38 0 66 -12t36 -32q27 25 57 36q31 11 47 11
q41 0 65 -15t24 -42q0 -13 -9 -25t-28 -12q-20 0 -29 11q-8 10 -13 30q-8 32 -12 38t-3 6q-17 0 -30 -27q-14 -28 -14 -99v-158h46v-10h-46v-366q0 -31 1 -41q1 -13 5 -24q3 -9 11 -12t21 -6v-6h-169v6zM243 464l-2 108q0 23 5 48q4 22 12 40q-19 1 -28 13q-8 11 -13 32
q-5 25 -9 33q-5 8 -15 8q-19 0 -31 -21t-12 -73v-188h93zM414 4l-2 1q9 3 16 6q6 3 9 12t3 24v41v557q0 22 -5 29t-21 8v7l134 84v-686v-41q0 -15 3 -24t9 -12q7 -3 16 -6v-6h-162v6z" />
    <glyph glyph-name="f_b" unicode="fb" horiz-adv-x="581" 
d="M20 6l-2 -2q10 3 14 6t7 12t3 24v41v366h-49v7q30 3 40 11q9 7 9 18v83q0 54 18 90q18 35 44 57q26 21 52 30q27 9 44 9q41 0 65 -15t24 -42q0 -13 -9 -25t-28 -12q-20 0 -29 11q-8 10 -13 30q-8 32 -12 38t-3 6q-17 0 -30 -27q-14 -28 -14 -99v-158h46v-10h-46v-366
q0 -31 1 -41q1 -13 5 -24q3 -9 11 -12t21 -6v-6h-169v6zM382 -5l-3 -1q-15 0 -28 6q-9 4 -25 14t-25 14q-13 6 -30 6q-13 0 -18 -8q-4 -7 -6 -14h-7v616q0 39 -4 50q-4 12 -21 15v6l133 74v-351q20 25 34 36q15 12 40 12q21 0 44 -10q24 -10 45 -36q20 -25 34 -67
q14 -44 14 -105q0 -67 -13 -113q-14 -50 -37 -80q-24 -31 -57 -48q-32 -16 -70 -16zM362 16h-1q-1 -4 2 -9q3 -4 16 -4q40 0 51 59q11 61 11 173q0 60 -3 102q-3 43 -9 68q-6 28 -13 38q-8 12 -16 12q-14 0 -25 -10q-10 -9 -31 -36v-304q0 -18 2 -38q2 -17 4 -25q3 -9 6 -16
q2 -4 6 -10z" />
    <glyph glyph-name="f_f_b" unicode="ffb" horiz-adv-x="782" 
d="M220 6v-1q10 3 14 6t7 12t3 24v41v366h-93v-366q0 -31 1 -41q1 -13 5 -24q3 -9 11 -12t21 -6v-6h-169v6q10 3 14 6t7 12t3 24v41v366h-49v7q29 3 39 11q9 8 9 36v86q0 48 18 80t44 50q27 19 52 26t43 7q40 0 65 -12q26 -12 30 -34q27 25 57 36q31 11 48 11q41 0 65 -15
t24 -42q0 -13 -9 -25t-28 -12q-20 0 -29 11q-8 10 -13 30q-8 32 -12 38t-3 6q-17 0 -30 -27q-14 -28 -14 -99v-158h46v-10h-46v-366q0 -31 1 -41q1 -13 5 -24q3 -9 11 -12t21 -6v-6h-169v6zM244 465l1 107q0 24 5 49q4 22 12 40q-20 0 -29 11q-9 10 -12 30q-4 25 -8 37
q-3 9 -13 9q-19 0 -34 -21t-15 -74v-188h93zM585 -5l-3 -1q-14 0 -28 6q-9 4 -25 14t-25 14q-14 6 -30 6q-13 0 -18 -8q-4 -7 -6 -14h-7v616q0 39 -4 50q-5 12 -21 15v6l133 74v-351q20 25 34 36q15 12 40 12q21 0 44 -10q24 -10 45 -36q20 -25 34 -67q14 -44 14 -105
q0 -67 -13 -113q-14 -50 -37 -80q-24 -31 -57 -48q-32 -16 -70 -16zM565 16h-1q-1 -4 2 -9q3 -4 16 -4q40 0 51 59q11 61 11 173q0 60 -3 102q-3 43 -9 68q-6 28 -13 38q-7 12 -16 12q-14 0 -25 -10q-10 -9 -31 -36v-304q0 -18 2 -38q2 -17 4 -25q3 -9 6 -16q2 -4 6 -10z
" />
    <glyph glyph-name="f_f_h" unicode="ffh" horiz-adv-x="786" 
d="M220 6v-1q10 3 14 6t7 12t3 24v41v366h-93v-366q0 -31 1 -41q1 -13 5 -24q3 -9 11 -12t21 -6v-6h-169v6q10 3 14 6t7 12t3 24v41v366h-49v7q29 3 39 11q9 8 9 36v86q0 48 18 80t44 50q27 19 52 26t43 7q40 0 65 -12q26 -12 30 -34q27 25 57 36q31 11 48 11q41 0 65 -15
t24 -42q0 -13 -9 -25t-28 -12q-20 0 -29 11q-8 10 -13 30q-8 32 -12 38t-3 6q-17 0 -30 -27q-14 -28 -14 -99v-158h46v-10h-46v-366q0 -31 1 -41q1 -13 5 -24q3 -9 11 -12t21 -6v-6h-169v6zM244 465l1 107q0 24 5 49q4 22 12 40q-20 0 -29 11q-9 10 -12 30q-4 25 -8 37
q-3 9 -13 9q-19 0 -34 -21t-15 -74v-188h93zM421 4l-1 1q10 3 14 6t7 12t3 24v41v527q0 27 -1 36q-2 15 -4 20q-3 7 -9 8q-7 2 -16 3v7l138 83v-371q12 13 32 33q13 13 26 21t24 11q12 3 26 3q11 0 24 -4q15 -5 30 -15q16 -11 26 -30q11 -20 11 -49v-286v-41q0 -12 2 -24
q1 -9 6 -12q4 -3 14 -6v-6h-160v6q9 3 16 6q6 3 9 12q2 7 4 24q1 10 1 41v317q0 27 -8 37q-7 9 -14 9q-4 0 -20 -11t-50 -48v-302v-41q0 -15 3 -24t9 -12q7 -3 16 -6v-6h-158v6z" />
    <glyph glyph-name="f_f_j" unicode="ffj" horiz-adv-x="591" 
d="M220 6l3 -3q10 3 14 6t7 12t3 24v41v366h-93v-366q0 -31 1 -41q1 -13 5 -24q3 -9 11 -12q7 -3 21 -6v-6h-169v6q10 3 14 6t7 12t3 24v41v366h-49v7q29 3 39 11q9 8 9 36v86q0 48 18 79q18 32 44 50q27 19 51 26t42 7q33 0 60 -11q26 -11 35 -29q26 26 54 36q27 10 46 10
q41 0 69 -16q29 -17 29 -48q0 -14 -9 -24q-9 -11 -29 -11q-23 0 -32 11q-10 11 -14 32q-9 36 -10 39q-3 9 -8 9q-8 0 -15 -6q-6 -5 -13 -20q-6 -13 -9 -38q-3 -24 -3 -61v-162h64l137 10v-400q0 -23 -2 -55q-1 -24 -9 -45q-7 -20 -24 -40q-16 -19 -45 -39q-32 -23 -52 -30
t-42 -7t-37 12t-15 33q0 16 11 27q10 10 26 10q14 0 25 -9q11 -10 18 -19q2 -3 7 -9.5t7 -9.5q6 -9 14 -9q5 0 8 4q5 5 3 20q-1 10 -1 57v417q0 27 -1 36q-2 15 -4 21q-3 7 -9 10q-8 4 -16 5h-64v-366q0 -31 1 -41q1 -13 5 -24q3 -9 11 -12t21 -6v-6h-169v6zM247 463l-2 116
q0 27 4 44q5 19 12 36q-18 2 -26 14t-12 31q-4 23 -8 33q-3 8 -14 8q-19 0 -33 -21q-14 -22 -14 -73v-188h93zM498 521l-2 -1q-25 0 -43 18t-18 44q0 25 18 43t44 18t44 -18t18 -43t-18 -43t-43 -18z" />
    <glyph glyph-name="f_f_k" unicode="ffk" horiz-adv-x="761" 
d="M220 6v-1q10 3 14 6t7 12t3 24v41v366h-93v-366q0 -31 1 -41q1 -13 5 -24q3 -9 11 -12t21 -6v-6h-169v6q10 3 14 6t7 12t3 24v41v366h-49v7q29 3 39 11q9 8 9 36v86q0 48 18 80t44 50q27 19 52 26t43 7q40 0 65 -12q26 -12 30 -34q27 25 57 36q31 11 48 11q41 0 65 -15
t24 -42q0 -13 -9 -25t-28 -12q-20 0 -29 11q-8 10 -13 30q-8 32 -12 38t-3 6q-17 0 -30 -27q-14 -28 -14 -99v-158h46v-10h-46v-366q0 -31 1 -41q1 -13 5 -24q3 -9 11 -12t21 -6v-6h-169v6zM244 465l1 107q0 24 5 49q4 22 12 40q-20 0 -29 11q-9 10 -12 30q-4 25 -8 37
q-3 9 -13 9q-19 0 -34 -21t-15 -74v-188h93zM421 4l-2 1q10 3 14 6t7 12t3 24v41v556q0 16 -1 21q-2 9 -4 11q-3 3 -8 3q-2 0 -12 2v7l133 84v-685v-41q0 -15 3 -24t9 -12q7 -3 16 -6v-6h-158v6zM600 4l-2 -1q17 5 20 14q3 10 -7 39l-59 187v6l116 149q20 26 14 41
q-6 14 -23 19v6h89v-6q-15 -7 -30 -19q-18 -14 -42 -46l-47 -60l102 -282q7 -20 14 -33q6 -11 14 -14v-5h-159v5z" />
    <glyph glyph-name="f_h" unicode="fh" horiz-adv-x="586" 
d="M20 6l-2 -2q10 3 14 6t7 12t3 24v41v366h-49v7q30 3 40 11q9 7 9 18v83q0 54 18 90q18 35 44 57q26 21 52 30q27 9 44 9q41 0 65 -15t24 -42q0 -13 -9 -25t-28 -12q-20 0 -29 11q-8 10 -13 30q-8 32 -12 38t-3 6q-17 0 -30 -27q-14 -28 -14 -99v-158h46v-10h-46v-366
q0 -31 1 -41q1 -13 5 -24q3 -9 11 -12t21 -6v-6h-169v6zM218 4l-1 1q10 3 14 6t7 12t3 24v41v527q0 27 -1 36q-2 15 -4 20q-3 7 -9 8q-7 2 -16 3v7l138 83v-371q12 13 32 33q13 13 26 21t24 11q12 3 26 3q11 0 24 -4q15 -5 30 -15q16 -11 26 -30q11 -20 11 -49v-286v-41
q0 -12 2 -24q2 -9 6 -12t14 -6v-6h-160v6q9 3 16 6q6 3 9 12q2 7 4 24q1 10 1 41v317q0 27 -8 37q-8 9 -14 9q-4 0 -20 -11t-50 -48v-302v-41q0 -15 3 -24t9 -12q7 -3 16 -6v-6h-158v6z" />
    <glyph glyph-name="f_j" unicode="fj" horiz-adv-x="391" 
d="M20 6l1 -2q10 3 14 6t7 12t3 24v41v366h-49v7q30 3 40 11q9 7 9 18v92q0 51 18 85t42 55t50 30q25 9 42 9q41 0 69 -16t28 -48q0 -14 -9 -24q-9 -11 -29 -11q-22 0 -31 11q-10 11 -14 32q-9 36 -10 39q-3 9 -8 9q-7 0 -15 -6q-6 -5 -13 -20q-6 -13 -9 -38q-3 -24 -3 -61
v-162h64l136 10v-400q0 -39 -1 -55q-2 -24 -9 -45q-7 -20 -24 -40q-17 -19 -45 -39q-32 -23 -52 -30t-43 -7q-21 0 -36 12t-15 33q0 16 11 27q10 10 26 10q15 0 25 -9q11 -10 18 -19q2 -3 7 -9.5t7 -9.5q6 -9 14 -9q5 0 8 4q3 5 2 20q-1 10 -1 57v417q0 27 -1 36
q-2 15 -4 21q-3 7 -9 10q-8 4 -16 5h-64v-366q0 -31 1 -41q1 -13 5 -24q3 -9 11 -12t21 -6v-6h-169v6zM298 522l-2 -1q-25 0 -43 18t-18 44q0 25 18 43t44 18t44 -18t18 -43t-18 -43t-43 -18z" />
    <glyph glyph-name="f_k" unicode="fk" horiz-adv-x="560" 
d="M20 6l-2 -2q10 3 14 6t7 12t3 24v41v366h-49v7q30 3 40 11q9 7 9 18v83q0 54 18 90q18 35 44 57q26 21 52 30q27 9 44 9q41 0 65 -15t24 -42q0 -13 -9 -25t-28 -12q-20 0 -29 11q-8 10 -13 30q-8 32 -12 38t-3 6q-17 0 -30 -27q-14 -28 -14 -99v-158h46v-10h-46v-366
q0 -31 1 -41q1 -13 5 -24q3 -9 11 -12t21 -6v-6h-169v6zM218 4l-2 1q10 3 14 6t7 12t3 24v41v556q0 16 -1 21q-2 9 -4 11q-3 3 -8 3q-2 0 -12 2v7l133 84v-685v-41q0 -15 3 -24t9 -12q7 -3 16 -6v-6h-158v6zM397 4l-2 -1q17 5 20 14q3 10 -7 39l-59 187v6l116 149
q20 26 14 41q-6 14 -23 19v6h89v-6q-15 -7 -30 -19q-18 -14 -42 -46l-47 -60l102 -282q7 -20 14 -33q6 -11 14 -14v-5h-159v5z" />
    <glyph glyph-name="g_j" unicode="gj" horiz-adv-x="531" 
d="M437 526h-2q-25 0 -43 18t-18 44q0 24 18 42t44 18t44 -18t18 -42q0 -26 -18 -44t-43 -18zM313 -136l-4 2q-26 0 -26 17q0 5 3 12q6 15 7 17q5 9 9 15t9 6q9 0 16 -7t13 -16t13 -16t16 -7q5 0 9 6q2 4 2 8v12v21v33v345q0 27 -1 36q-2 15 -4 21q-3 8 -9 11q-8 4 -16 5v6
l136 86v-403q0 -22 -2 -54q-2 -24 -9 -45q-7 -20 -23 -39q-17 -20 -43 -38q-30 -22 -54 -28q-23 -6 -42 -6zM148 163v-3q-14 0 -29 3q-16 3 -31 10l-3 -2q-19 -13 -24 -21t-5 -12q0 -2 2 -6q1 -3 8 -6q10 -5 18 -8q6 -2 35 -10l93 -22q40 -9 63 -24q24 -16 35 -31
q12 -17 15 -33q3 -17 3 -31q0 -36 -14 -62t-37 -42q-24 -17 -54 -24q-32 -8 -61 -8q-37 0 -66 7t-55 20q-23 12 -37 30q-14 19 -14 39q0 27 26 50q25 22 59 39q-32 14 -44 35t-12 46q0 15 6 27t15 21t20 17q14 10 20 15l3 2q-28 15 -51 47q-22 31 -22 90q0 44 15 76t36 51
t45 27q26 8 45 8q15 0 35 -5q18 -5 36 -15q19 16 39 28q16 10 30 10q38 0 38 -35q0 -15 -9 -24t-20 -9q-8 0 -16 5q-7 5 -14 11q-8 8 -12 11q-7 5 -10 5q-11 0 -21 -7q26 -19 44 -51q18 -33 18 -85q0 -46 -15 -76t-36 -48t-45 -24t-45 -6zM43 -71v3q0 -39 26 -67
q25 -27 90 -27q53 0 88 21q34 21 34 60q0 11 -4 18q-5 7 -15 15q-12 8 -30 14q-27 8 -51 14l-70 19l-31 9q-23 -12 -30 -31q-7 -18 -7 -48zM148 172l-4 -1q5 0 13 8q7 7 15 24q7 16 12 44q5 30 5 68q0 81 -15 117t-27 36t-27 -36t-15 -117q0 -38 5 -68q4 -25 11 -44
q6 -16 14 -24q7 -7 13 -7z" />
    <glyph glyph-name=".notdef" horiz-adv-x="142" 
 />
    <glyph glyph-name=".null" horiz-adv-x="0" 
 />
    <glyph glyph-name="nonmarkingreturn" unicode="&#xd;" horiz-adv-x="142" 
 />
    <glyph glyph-name="NULL" horiz-adv-x="0" 
 />
    <glyph glyph-name="NULL" horiz-adv-x="0" 
 />
    <glyph glyph-name="space" unicode=" " horiz-adv-x="142" 
 />
    <glyph glyph-name="exclam" unicode="!" horiz-adv-x="195" 
d="M93 211l1 -1q-8 107 -20 197q-10 81 -21 135t-18 87q-7 31 -7 54q0 35 18 54q18 20 53 20q33 0 51 -20q18 -19 18 -54q0 -23 -7 -54q-7 -33 -18 -87t-21 -135q-12 -91 -20 -196h-9zM100 -14v-1q-27 0 -46 18t-19 47t19 47t46 18q29 0 47 -18t18 -47q0 -28 -18 -46
t-47 -18z" />
    <glyph glyph-name="quotedbl" unicode="&#x22;" horiz-adv-x="289" 
d="M210 528h-4q-5 28 -13 51q-6 17 -16 51q-2 8 -7 23.5t-7 22.5q-6 21 -6 35q0 21 14 37q13 15 41 15t41 -15q14 -16 14 -37q0 -14 -6 -35q-2 -7 -7 -22.5t-7 -23.5q-10 -34 -16 -51q-8 -23 -13 -51h-8zM66 528h-3q-5 28 -13 51q-6 17 -16 51q-2 8 -7 23.5t-7 22.5
q-6 21 -6 35q0 21 14 37q13 15 41 15q27 0 41 -15q14 -16 14 -37q0 -14 -6 -35q-2 -7 -7 -22.5t-7 -23.5q-10 -34 -16 -51q-8 -23 -13 -51h-9z" />
    <glyph glyph-name="numbersign" unicode="#" horiz-adv-x="259" 
d="M4 280h56l32 240h-54v12h56l29 218h14l-29 -218h68l29 218h15l-29 -218h60v-12h-62l-32 -240h60v-12h-61l-36 -267h-15l36 267h-68l-36 -267h-14l36 267h-55v12zM142 280l32 240h-68l-32 -240h68z" />
    <glyph glyph-name="dollar" unicode="$" horiz-adv-x="319" 
d="M140 815l-1 -64q3 1 8 1h9h11v58h12v-59q20 -1 41 -8q19 -6 35 -17q15 -10 24 -27t9 -39q0 -19 -11 -33q-10 -13 -27 -13q-19 0 -31 14t-12 41q0 37 -3 54t-24 21v-263q14 -19 27 -42q46 -75 72 -136q27 -63 27 -129q0 -78 -36 -123t-91 -55v-72h-12v70q-3 -1 -9 -1h-10
h-8v-69h-12v70q-21 1 -46 8q-22 6 -39 18t-27 30q-10 17 -10 42q0 26 15 38t35 12q22 0 35 -13q14 -14 14 -42q-2 -24 -3 -38q-2 -15 0 -24q2 -10 7 -14q6 -5 19 -6v338l-9 14q-23 35 -42 63t-33 57t-21 58q-8 32 -8 68q0 67 32 105t81 47v60h12zM147 -3q11 0 20 3v268
q-8 16 -13 24l-15 24v-319h8zM218 110q0 33 -10 64q-11 34 -30 71v-238q20 12 30 39q10 26 10 64zM156 743h1q-11 0 -18 -3v-201l28 -43v247h-11zM97 658h-1q0 -25 9 -49q7 -19 23 -49v175q-16 -11 -23 -30q-8 -21 -8 -47z" />
    <glyph glyph-name="percent" unicode="%" horiz-adv-x="494" 
d="M95 0l291 757l11 -6l-290 -758zM131 379q-24 0 -45 15q-22 15 -36 40q-15 26 -24 60t-9 75t9 75t24 60q14 25 36 40q21 15 45 15t45 -15q22 -15 36 -40q15 -26 24 -60t9 -75t-9 -75t-24 -60q-14 -25 -36 -40q-21 -15 -45 -15zM131 388l-1 -3q16 0 24 44q8 46 8 137
q0 98 -7 137q-7 42 -24 42t-23 -42t-6 -136q0 -93 6 -136t23 -43zM359 -9q-24 0 -45 15q-22 15 -36 40q-15 26 -24 60t-9 75t9 75t24 60q14 25 36 40q21 15 45 15t45 -15q22 -15 36 -40q15 -26 24 -60t9 -75t-9 -75t-24 -60q-14 -25 -36 -40q-21 -15 -45 -15zM359 0v-3
q17 0 25 44q7 41 7 137q0 98 -7 137q-8 42 -25 42t-23 -42t-6 -136q0 -93 6 -136t23 -43z" />
    <glyph glyph-name="ampersand" unicode="&#x26;" horiz-adv-x="471" 
d="M372 207l1 -9q46 -101 49 -107q22 -46 28 -57q11 -20 16 -25q8 -8 13 -11v-6h-142l-26 60q-25 -37 -56 -54q-29 -16 -64 -16q-34 0 -65 14q-29 13 -52 39q-22 25 -36 62q-13 35 -13 81q0 42 12 75q11 32 32 60q19 26 44 48q28 24 49 38q-11 24 -25 59q-9 24 -18 50
q-7 20 -10 44q-3 21 -3 42q0 43 13 72q14 32 34 50q22 20 47 29q26 9 51 9q18 0 39 -6t39 -21t30 -41t12 -65q0 -36 -12 -63q-13 -29 -28 -47q-18 -21 -36 -35q-17 -13 -34 -25l7 -16l86 -191l6 -12q4 -8 6 -11l29 103q11 39 14 60q3 25 -1 39q-5 16 -16 23q-12 8 -30 12v6
h125v-6q-18 -4 -30 -11q-10 -6 -18 -20q-7 -13 -15 -38q-3 -9 -9.5 -31.5t-9.5 -33.5zM147 200l2 -3q0 -108 15 -156t45 -48q19 0 45 15t51 54l-130 301l-11 23q-11 -30 -14 -72q-3 -44 -3 -114zM201 656v1q0 -53 18 -102q15 -42 41 -102q8 9 15 21q6 10 13 30q6 18 9 44
t3 62q0 41 -5 69q-5 25 -12 39q-8 14 -16 17q-9 3 -16 3q-24 0 -37 -22t-13 -60z" />
    <glyph glyph-name="quotesingle" unicode="'" horiz-adv-x="149" 
d="M70 528h-3q-5 28 -13 51q-6 17 -16 51q-2 8 -7 23.5t-7 22.5q-6 21 -6 35q0 21 14 37q13 15 41 15q27 0 41 -15q14 -16 14 -37q0 -14 -6 -35q-2 -7 -7 -22.5t-7 -23.5q-10 -34 -16 -51q-8 -23 -13 -51h-9z" />
    <glyph glyph-name="parenleft" unicode="(" horiz-adv-x="204" 
d="M202 -106v-1q-14 16 -51 62q-31 39 -60 96q-28 55 -49 130q-21 73 -21 165t21 165q22 76 49 129q29 57 60 95q37 46 51 62l6 -6q-19 -42 -23 -51q-15 -35 -30 -88q-15 -55 -27 -130q-12 -77 -12 -175q0 -101 12 -177q12 -75 27 -130t30 -89q4 -9 23 -51z" />
    <glyph glyph-name="parenright" unicode=")" horiz-adv-x="204" 
d="M-4 -100v-4q19 42 23 51q15 34 30 89q15 53 27 131q12 77 12 177q0 98 -12 175q-12 78 -27 131q-15 55 -30 89q-4 9 -23 51l6 6q25 -29 51 -61q32 -40 60 -94q27 -53 49 -129q21 -74 21 -165t-21 -165q-21 -75 -49 -130q-29 -57 -60 -96q-37 -46 -51 -62z" />
    <glyph glyph-name="asterisk" unicode="*" horiz-adv-x="257" 
d="M154 534l-1 -1q0 -28 -26 -28q-25 0 -25 28q0 18 9 42q10 26 14 53q-17 -21 -28 -48q-10 -25 -24 -37q-9 -10 -20 -10q-10 0 -20 8q-8 8 -8 18t11 21q12 11 39 22q25 10 48 27q-27 -4 -53 -14q-24 -9 -41 -9q-29 0 -29 26t29 26q18 0 41 -10q24 -10 53 -15q-22 18 -47 27
q-22 8 -37 23q-10 10 -10 21q0 10 8 18q19 18 39 -2q13 -13 23 -37q11 -25 27 -48q-4 27 -14 53q-9 24 -9 41q0 29 25 29q26 0 26 -29q0 -17 -9 -41q-10 -26 -14 -53q17 23 27 48q10 24 23 37q20 20 39 2q8 -8 8 -18q0 -11 -10 -21q-13 -13 -37 -22q-25 -9 -47 -27
q29 5 53 15q23 10 41 10q29 0 29 -26t-29 -26q-17 0 -41 9q-26 10 -53 14q22 -16 47 -27q26 -11 38 -22q19 -21 0 -40q-8 -8 -18 -8q-11 0 -20 10q-11 12 -22 38q-12 26 -28 47q4 -25 14 -52q9 -24 9 -42z" />
    <glyph glyph-name="plus" unicode="+" horiz-adv-x="311" 
d="M149 209v136h-122v10h122v139h14v-139h121v-10h-121v-136h-14z" />
    <glyph glyph-name="comma" unicode="," horiz-adv-x="194" 
d="M128 18q-6 -9 -15 -15t-29 -6q-22 0 -39 17q-16 16 -16 42q0 29 19 45q20 17 42 17q28 0 51 -21t23 -67q0 -55 -33 -91q-34 -37 -81 -53l-5 7q44 17 68 42t24 57q0 17 -9 26z" />
    <glyph glyph-name="hyphen" unicode="-" horiz-adv-x="244" 
d="M52 316h160l-20 -77h-160z" />
    <glyph glyph-name="period" unicode="." horiz-adv-x="187" 
d="M94 -13v-1q-28 0 -48 18q-19 18 -19 47t19 47q20 18 48 18t46 -18t18 -47q0 -28 -18 -46t-46 -18z" />
    <glyph glyph-name="slash" unicode="/" horiz-adv-x="234" 
d="M236 795l-237 -964l-15 3l237 963z" />
    <glyph glyph-name="zero" unicode="0" horiz-adv-x="438" 
d="M222 759l-3 -1q39 0 74 -23t60 -70q26 -50 41 -120q15 -72 15 -170q0 -95 -15 -167q-15 -74 -40 -120q-26 -48 -60 -72t-73 -24t-75 24t-63 72t-42 120t-15 167q0 98 15 170t42 120q27 49 63 71q37 23 76 23zM219 748h1q-40 0 -54 -93q-14 -96 -14 -279q0 -68 2 -162
q1 -70 9 -118q7 -48 21 -72t36 -24q23 0 35 24t18 72q7 53 8 118q2 94 2 162q1 186 -12 279q-14 93 -52 93z" />
    <glyph glyph-name="one" unicode="1" horiz-adv-x="250" 
d="M28 0v5q12 3 21 8q8 5 11 18q4 16 5 41q1 18 1 74v418q0 45 -7 59q-8 15 -40 14v7l170 120v-617q0 -56 1 -74q1 -25 5 -41q3 -13 11 -18q9 -5 21 -8v-6h-199z" />
    <glyph glyph-name="two" unicode="2" horiz-adv-x="361" 
d="M193 105l-4 -5q59 0 78 1q26 1 44 5q15 3 21 11q7 9 11 21h9l-27 -103q-6 -24 -11 -31q-4 -6 -18 -6h-302l89 189q29 57 51 110q23 53 35 96q14 50 20 93q6 46 6 99q0 89 -9 125t-35 36q-16 0 -24 -8q-7 -8 -9 -21q-2 -14 0 -32t0 -39q-2 -26 -15 -42t-37 -16
q-22 0 -36 17q-13 16 -13 39q0 24 12 45q12 22 31 36q19 15 44 24q24 9 51 9q23 0 50 -7q29 -8 56 -27q26 -19 46 -54q19 -34 19 -90q0 -50 -12 -96q-12 -45 -36 -94q-23 -46 -60 -100q-36 -52 -84 -114l-59 -71h118z" />
    <glyph glyph-name="three" unicode="3" horiz-adv-x="367" 
d="M146 3l-1 -4q31 0 51 60q20 62 20 188q0 70 -1 96q-1 39 -6 63q-5 25 -13 35q-9 11 -24 11q-32 0 -48 -15q-18 -16 -36 -40l-6 5l230 318l-56 -75h-96q-38 0 -51 -1q-19 -2 -30 -6q-11 -5 -17 -12q-6 -8 -12 -21h-9l27 109q4 20 8 28q3 6 14 6h244v-8l-209 -291q9 6 20 9
t26 3q26 0 56 -9q29 -9 55 -33t42 -66q17 -43 17 -107q0 -66 -15 -114q-15 -47 -42 -79q-26 -31 -63 -46q-36 -15 -76 -15q-27 0 -51 8q-22 8 -39 21q-16 13 -25 31t-9 38q0 22 12 38q12 17 36 17q52 0 55 -54q2 -19 0 -36q-1 -11 -1 -28q0 -11 5 -18q4 -6 18 -6z" />
    <glyph glyph-name="four" unicode="4" horiz-adv-x="362" 
d="M288 169l2 -19q0 -57 1 -75q2 -31 4 -41q3 -14 9 -18q7 -5 17 -8v-6h-186v6q10 3 17 8q6 4 9 18q2 10 4 41q1 18 1 75v19h-170v7l268 578h24v-501h83l-41 -84h-42zM168 253v263l-120 -263h120z" />
    <glyph glyph-name="five" unicode="5" horiz-adv-x="361" 
d="M90 652l-28 -207q14 17 38 29t50 12q30 0 62 -9q33 -9 59 -34q28 -26 44 -69q17 -45 17 -114q0 -68 -18 -119q-17 -49 -47 -85q-29 -34 -66 -51q-39 -17 -75 -17q-22 0 -44 8q-19 7 -37 23q-16 14 -25 33q-9 18 -9 39q0 26 15 41t38 15q24 0 37 -15q13 -14 13 -39
q1 -22 -3 -40q-2 -7 -4 -17t-3 -13q-3 -11 2 -18q4 -6 22 -6q19 0 34 21q16 22 26 57q10 33 16 86q6 49 6 110q0 49 -3 86q-3 38 -9 65t-18 42t-30 15q-28 0 -54 -15q-24 -14 -37 -35l-6 4l28 217h-1l3 10l11 88h237l-24 -84l-6 -12q-2 -2 -9 -2h-202z" />
    <glyph glyph-name="six" unicode="6" horiz-adv-x="422" 
d="M248 748h-2q-28 0 -47 -17t-29 -48t-15 -77q-4 -45 -6 -101q20 14 45 14q93 0 147 -63t54 -189q0 -69 -18 -120q-18 -50 -45 -85q-27 -34 -59 -51t-59 -17q-34 0 -69 21q-33 20 -61 68t-44 117q-17 73 -17 168q0 82 18 154q18 71 48 124t71 83q40 30 86 30q24 0 44 -7
q23 -8 38 -19q17 -13 26 -30q9 -18 9 -40q0 -25 -15 -40t-34 -15q-22 0 -37 12t-14 39q-1 15 -1 39v27q0 11 -3 17t-11 6zM148 366l-4 -4q0 -100 6 -169q6 -70 15 -113q9 -44 21 -63t25 -19q20 0 32 18t18 52q7 38 8 84q2 66 2 111q0 69 -5 122q-4 46 -14 75q-9 28 -24 38
q-16 11 -34 11q-15 0 -24 -4q-10 -5 -21 -12q-1 -20 -1 -61v-66z" />
    <glyph glyph-name="seven" unicode="7" horiz-adv-x="320" 
d="M122 0h-10l163 652h-156q-35 0 -46 -1q-18 -2 -25 -4q-11 -3 -14 -7l-12 -12h-6l31 111q1 7 5 9t11 2h247v-8z" />
    <glyph glyph-name="eight" unicode="8" horiz-adv-x="379" 
d="M363 177l-10 -3q0 -42 -12 -76t-35 -59q-23 -24 -53 -38q-29 -13 -66 -13t-70 12q-34 12 -57 34q-24 23 -38 56q-14 34 -14 75q0 37 11 68q10 29 29 54q18 24 41 44q21 18 47 36q-22 27 -42 56q-18 27 -30 54t-18 56t-6 63q0 41 12 71t33 51q22 22 48 32q28 11 57 11
q34 0 62 -9q30 -9 50 -28q21 -20 33 -48t12 -66q0 -33 -9 -60t-24 -48q-16 -22 -33 -38q-20 -18 -36 -29l2 -2q29 -33 51 -63t36 -60q13 -29 21 -62q8 -34 8 -71zM132 653l2 -4q0 -61 25 -108q26 -50 67 -99q9 25 12 62q3 36 3 98q0 44 -6 73t-15 45t-18 22t-18 6
q-28 0 -40 -21t-12 -74zM188 -8l-1 -3q44 0 56 28q12 29 12 81q0 38 -6 69q-6 33 -19 60q-14 30 -34 57q-25 34 -49 63q-16 -30 -20 -72q-5 -48 -5 -116q0 -83 12 -125t54 -42z" />
    <glyph glyph-name="nine" unicode="9" horiz-adv-x="420" 
d="M171 1h-6q35 0 54 18t30 50q10 29 13 77q3 45 3 101q-23 -16 -53 -16q-88 0 -142 62q-54 61 -54 191q0 69 18 120t45 84t59 50t59 17q38 0 72 -22t61 -69q26 -45 43 -117q16 -68 16 -166q0 -79 -15 -151q-15 -70 -44 -124q-28 -52 -69 -84q-40 -31 -92 -31q-22 0 -44 8
q-20 7 -37 21q-16 13 -25 31t-9 39q0 23 14 39q14 15 33 15q24 0 38 -13q15 -14 14 -40q0 -25 -1 -36t-1 -28q0 -12 4 -19t16 -7zM139 484h1q0 -70 3 -117q3 -44 11 -75q7 -28 21 -40q13 -12 36 -12q13 0 28 5q13 5 24 12v60v66q0 98 -6 167q-6 70 -15 113t-21 63t-24 20
q-37 0 -47 -66q-11 -69 -11 -196z" />
    <glyph glyph-name="colon" unicode=":" horiz-adv-x="196" 
d="M98 317v-1q-26 0 -46 18q-19 18 -19 47t19 47q20 18 46 18q29 0 47 -18t18 -46q0 -29 -18 -47t-47 -18zM98 -14v-1q-26 0 -46 18q-19 18 -19 47t19 47q20 18 46 18q29 0 47 -18t18 -47q0 -28 -18 -46t-47 -18z" />
    <glyph glyph-name="semicolon" unicode=";" horiz-adv-x="203" 
d="M102 317l-2 -1q-28 0 -46 18t-18 47t18 47t47 18t47 -18t18 -46q0 -29 -18 -47t-46 -18zM130 17l3 -1q-5 -9 -15 -15t-30 -6q-22 0 -39 17q-16 16 -16 42q0 28 18 45q19 17 41 17q28 0 51 -21t23 -67q0 -55 -33 -91q-34 -37 -81 -53l-4 7q44 17 68 42t24 57q0 8 -3 15
q-3 8 -7 12z" />
    <glyph glyph-name="less" unicode="&#x3c;" horiz-adv-x="308" 
d="M29 358l249 104v-14l-232 -97l232 -97v-15l-249 104v15z" />
    <glyph glyph-name="equal" unicode="=" horiz-adv-x="321" 
d="M32 398h257v-13h-257v13zM32 312h257v-13h-257v13z" />
    <glyph glyph-name="greater" unicode="&#x3e;" horiz-adv-x="308" 
d="M29 239v15l232 97l-232 97v14l249 -104v-15z" />
    <glyph glyph-name="question" unicode="?" horiz-adv-x="296" 
d="M99 201l-6 -1q0 71 11 131q10 57 24 105q13 46 24 95t11 101q0 65 -6 92t-31 27q-11 0 -16 -4q-6 -5 -9 -12t-3 -18q0 -16 -1 -26q-2 -27 -13 -41q-12 -15 -34 -14q-19 2 -31 13q-11 11 -10 31q2 32 33 56q32 24 85 24q67 0 109 -39t42 -110q0 -37 -12 -69
q-11 -30 -30 -61q-18 -31 -40 -58q-21 -27 -42 -62q-20 -33 -33 -72q-14 -39 -15 -88h-7zM107 -14l-2 -1q-28 0 -46 18t-18 47t18 47t47 18t47 -18t18 -47q0 -28 -18 -46t-46 -18z" />
    <glyph glyph-name="at" unicode="@" horiz-adv-x="650" 
d="M514 -47h-11q-15 -17 -38 -39q-22 -20 -49 -36q-29 -17 -64 -27q-34 -10 -79 -10q-49 0 -97 20q-46 19 -81 60t-56 102t-21 144q0 95 33 181q34 88 85 149q52 63 120 99t135 36q107 0 165 -70q59 -71 59 -199q0 -43 -7 -84q-8 -46 -22 -84q-15 -42 -39 -77
q-25 -38 -58 -62q-35 -26 -79 -39q-45 -13 -100 -9l11 62q-24 -32 -44 -49q-18 -15 -43 -15q-46 0 -68 40q-23 41 -23 108q0 69 22 125q23 58 55 99q34 43 73 65q41 23 76 23q13 0 22 -6q12 -8 17 -12t17 -12q9 -6 21 -6q14 0 24 6q11 6 21 19h7l-54 -304q-1 -7 -4.5 -28
t-5.5 -30q-5 -27 -5 -37q0 -14 4 -18t16 0q26 12 50 36t42 61q17 36 28 87q10 47 10 113t-15 117t-42 87t-63 54t-79 18q-64 0 -120 -30q-55 -30 -97 -84t-66 -132t-24 -174q0 -84 17 -150q16 -65 45 -108q28 -43 66 -64q37 -21 81 -21q42 0 78 11q34 11 63 27q27 16 49 36
q15 14 37 38zM253 85l-1 -1q0 -62 12 -62q5 0 19 14q13 14 39 48l52 304q5 35 5 49q0 18 -12 18q-15 0 -35 -32q-18 -30 -37 -84q-18 -52 -30 -119q-12 -66 -12 -135z" />
    <glyph glyph-name="A" unicode="A" horiz-adv-x="348" 
d="M-3 5l-5 -2q8 5 14 12q7 9 11 22q4 14 9 38q7 35 11 59l14 92v1l58 381l-12 70q-6 40 -16 51q-11 12 -21 15v5h130q7 0 11 -2t5 -12l101 -609q11 -63 18 -89t23 -31v-6h-166v6q8 2 12 6q5 5 8 12q3 8 3 21t-3 36l-24 139h-115l-13 -84q-7 -43 -8 -61q-1 -24 3 -37
q5 -14 13 -21q9 -7 26 -12v-5h-87v5zM173 227l-60 350l-53 -350h113z" />
    <glyph glyph-name="B" unicode="B" horiz-adv-x="416" 
d="M18 6h-2q10 3 17 8q6 4 9 20q2 12 4 42q1 18 1 74v454q0 56 -1 74q-2 30 -4 42q-3 16 -9 20q-7 5 -17 8v6h156q47 0 83 -9t61 -28q26 -20 38 -52q12 -33 12 -81q0 -70 -42 -117t-118 -54v-1q47 -5 83 -21q37 -17 62 -42t39 -60q13 -33 13 -75q0 -108 -60 -160
q-60 -53 -169 -54h-156v6zM258 574v2q0 50 -4 78q-4 32 -15 51q-11 20 -27 29t-40 9v-328q47 1 67 42q19 39 19 117zM277 206l-2 -3q0 94 -23 146t-81 56v-396q33 1 55 14q22 12 32 36t15 60q4 32 4 87z" />
    <glyph glyph-name="C" unicode="C" horiz-adv-x="354" 
d="M239 -11h-4q-36 0 -75 17q-38 16 -69 60t-51 120q-19 75 -19 195q0 110 18 182q19 74 46 116q29 44 63 62q35 18 68 18q21 0 36 -9t31 -9q26 0 33 28h7v-172h-7q-14 48 -27 77q-13 30 -26 47t-24 23q-12 6 -22 6q-13 0 -25 -18t-21 -60q-10 -45 -14 -111q-5 -77 -5 -171
q0 -119 7 -188q7 -74 21 -117q14 -44 34 -60q22 -17 47 -17q35 0 71 42l6 -6q-13 -19 -39 -37q-25 -18 -60 -18z" />
    <glyph glyph-name="D" unicode="D" horiz-adv-x="453" 
d="M18 6l-1 -4q10 3 17 8q6 4 9 20q2 12 4 42q1 18 1 74v454q0 56 -1 74q-2 30 -4 42q-3 16 -9 20q-7 5 -17 8v6h171q46 0 90 -21t77 -66q34 -46 53 -114q20 -71 20 -164q0 -89 -17 -163q-16 -71 -48 -121q-31 -49 -75 -75t-99 -26h-171v6zM173 737l1 -732h15q26 0 45 19
q20 20 33 63t21 116q8 77 8 179q0 111 -12 180q-12 67 -29 108q-17 39 -35 53q-19 14 -32 14h-15z" />
    <glyph glyph-name="E" unicode="E" horiz-adv-x="362" 
d="M18 6l-3 -3q10 3 17 8q6 4 9 20q2 12 4 42q1 18 1 74v454q0 56 -1 74q-2 30 -4 42q-3 16 -9 20q-7 5 -17 8v6h277q8 0 11 -3t6 -19l18 -103h-8q-11 30 -24 51t-31 34q-18 14 -40 21q-23 8 -52 9v-318q20 3 33 11t20 18t12 24q3 9 7 27h5v-178h-5q-4 18 -7 27
q-5 14 -12 24t-20 18t-33 11v-398q40 2 64 7q27 6 47 20t35 38t27 63h8l-13 -118q-2 -13 -6 -15q-6 -2 -12 -2h-304v6z" />
    <glyph glyph-name="F" unicode="F" horiz-adv-x="337" 
d="M18 6l-1 -2q10 3 17 8q6 4 9 18q2 10 4 41q1 18 1 74v454q0 56 -1 74q-2 31 -4 41q-3 14 -9 18q-7 5 -17 8v6h284q8 0 11 -3q4 -4 5 -19l17 -110h-8q-10 29 -23 54q-11 21 -29 37q-15 14 -41 22q-24 8 -58 9v-316q32 2 50 9q17 7 28 20q11 12 15 27q6 20 9 31h5v-179h-5
q-3 11 -9 31q-4 15 -15 27q-10 12 -28 19t-50 9v-267q0 -56 1 -74q2 -31 4 -41q3 -14 9 -18q7 -5 17 -8v-6h-188v6z" />
    <glyph glyph-name="G" unicode="G" horiz-adv-x="421" 
d="M240 -12l-2 -5q-102 0 -160 99q-58 98 -58 295q0 99 18 171q18 71 48 118q30 46 68 69q37 22 75 22q16 0 27 -4q8 -3 22 -9l21 -9q9 -4 24 -4q7 0 12 6q4 6 9 20h6v-175h-6q-18 87 -46 125q-28 39 -66 39q-21 0 -36 -19q-14 -19 -25 -63t-15 -112q-5 -77 -5 -166
q0 -204 21 -299t68 -95q7 0 16 30t9 104v47q0 60 -1 80q-2 31 -6 47q-5 17 -12 23q-8 7 -18 8v7h185v-7q-9 -1 -16 -8q-6 -5 -10 -25q-5 -20 -6 -55q-1 -24 -1 -98v-97q-12 -14 -31 -24q-13 -7 -39 -19q-17 -8 -39 -13q-17 -4 -31 -4z" />
    <glyph glyph-name="H" unicode="H" horiz-adv-x="472" 
d="M18 6q10 3 17 8q6 4 9 18q2 10 4 41q1 18 1 74v454q0 56 -1 74q-2 31 -4 41q-3 14 -9 18q-7 5 -17 8v6h186v-6q-10 -3 -17 -8q-6 -4 -9 -18q-2 -10 -4 -41q-1 -18 -1 -74v-187h128v187q0 56 -1 74q-2 31 -4 41q-3 14 -9 18q-7 5 -17 8v6h186v-6q-10 -3 -17 -8
q-6 -4 -9 -18q-2 -10 -4 -41q-1 -18 -1 -74v-454q0 -56 1 -74q2 -31 4 -41q3 -14 9 -18q7 -5 17 -8v-6h-186v6q10 3 17 8q6 4 9 18q2 10 4 41q1 18 1 74v259h-128v-259q0 -56 1 -74q2 -31 4 -41q3 -14 9 -18q7 -5 17 -8v-6h-186v6z" />
    <glyph glyph-name="I" unicode="I" horiz-adv-x="222" 
d="M18 6v-2q10 3 17 8q6 4 9 20q2 12 4 42q1 18 1 74v454q0 56 -1 74q-2 31 -4 41q-3 13 -9 18q-7 5 -17 8v6h186v-6q-10 -3 -17 -8q-6 -5 -9 -18q-2 -10 -4 -41q-1 -18 -1 -74v-454q0 -55 1 -73q2 -30 4 -42q3 -14 9 -19q7 -5 17 -8v-6h-186v6z" />
    <glyph glyph-name="J" unicode="J" horiz-adv-x="331" 
d="M137 -10l-5 1q-68 0 -98 18t-30 50q0 23 15 36q14 13 33 13q37 0 54 -56q9 -32 15 -42t17 -10q8 0 17 12t9 53v536q0 56 -1 74q-2 31 -4 41q-3 14 -9 18q-7 5 -17 8v6h185v-6q-10 -3 -17 -8q-6 -4 -9 -18q-2 -10 -4 -41q-1 -18 -1 -74v-438q0 -46 -13 -78
q-14 -34 -34 -54t-48 -31q-26 -10 -55 -10z" />
    <glyph glyph-name="K" unicode="K" horiz-adv-x="425" 
d="M18 6l-2 1q10 3 17 8q6 5 9 18q2 10 4 41q1 18 1 74v454q0 56 -1 74q-2 31 -4 41q-3 13 -9 18q-7 5 -17 8v6h186v-6q-10 -3 -17 -8q-6 -5 -9 -18q-2 -10 -4 -41q-1 -18 -1 -74v-212l161 272q11 19 14 33q3 15 0 25t-10 16q-8 6 -16 9v6h92v-6q-12 -5 -18 -10
q-8 -7 -15 -16q-13 -18 -17 -25q-3 -4 -10 -16.5t-12 -20.5l-85 -144l143 -433l12 -36q2 -6 8 -21q3 -8 6 -11q4 -4 7 -6v-6h-179v6q10 3 15 7q7 5 8 12t0 21t-9 36l-93 293v-228q0 -56 1 -74q2 -31 4 -41q3 -14 9 -18q7 -5 17 -8v-6h-186v6z" />
    <glyph glyph-name="L" unicode="L" horiz-adv-x="361" 
d="M18 6v-1q10 3 17 8q6 5 9 18q2 10 4 41q1 18 1 74v454q0 56 -1 74q-2 31 -4 41q-3 13 -9 18q-7 5 -17 8v6h189v-6q-11 -3 -18 -8q-6 -5 -9 -18q-2 -10 -4 -41q-1 -18 -1 -74v-592q32 1 58 9q25 7 45 24q19 16 36 44q16 27 33 69h7l-24 -137q-3 -14 -7 -15q-6 -2 -12 -2
h-293v6z" />
    <glyph glyph-name="M" unicode="M" horiz-adv-x="490" 
d="M18 6v-5q11 9 17 17t9 22q2 12 4 40q1 17 1 69v450q0 56 -1 74q-2 30 -4 42q-3 16 -9 20q-7 5 -17 8v6h145q7 0 12 -3q4 -3 9 -20l60 -394l68 418h159v-6q-10 -3 -17 -8q-6 -4 -9 -18q-2 -10 -4 -41q-1 -18 -1 -74v-454q0 -56 1 -74q2 -31 4 -41q3 -14 9 -18q7 -5 17 -8
v-6h-189v6q10 3 17 8q6 4 9 18q2 10 4 41q1 18 1 74v546l-64 -397v-2l-7 -37l-42 -261h-11l-129 704v-549q0 -52 1 -69q1 -21 5 -40q3 -14 11 -22q6 -6 21 -16v-6h-80v6z" />
    <glyph glyph-name="N" unicode="N" horiz-adv-x="401" 
d="M18 6l-2 -3q11 9 17 17t9 22q2 12 4 40q1 17 1 69v450q0 56 -1 74q-2 30 -4 42q-3 16 -9 20q-7 5 -17 8v6h136q19 0 24 -4q6 -5 12 -21l159 -437v309q0 52 -1 69q-2 28 -4 40q-3 14 -11 22q-9 9 -21 17v6h79v-6q-13 -11 -17 -16q-6 -8 -9 -22q-2 -12 -4 -40
q-1 -17 -1 -69v-601h-25l-273 722v-567q0 -52 1 -69q1 -21 5 -40q3 -14 11 -22q6 -6 21 -16v-6h-80v6z" />
    <glyph glyph-name="O" unicode="O" horiz-adv-x="440" 
d="M220 -12v-3q-36 0 -71 26q-35 25 -63 75q-28 49 -45 122q-17 74 -17 167q0 95 17 169q16 70 44 120q27 48 63 72t72 24t72 -24t63 -72q28 -50 44 -120q17 -74 17 -169q0 -92 -17 -166q-16 -70 -44 -121q-27 -50 -63 -75q-35 -25 -72 -25zM220 -5l-1 -1q39 0 51 97
q11 93 13 282q1 185 -15 279q-17 95 -48 95q-33 0 -48 -94q-15 -95 -15 -279t12 -282q12 -97 51 -97z" />
    <glyph glyph-name="P" unicode="P" horiz-adv-x="395" 
d="M18 6l1 1q10 3 17 8q6 5 9 18q2 10 4 41q1 18 1 74v454q0 56 -1 74q-2 31 -4 41q-3 13 -9 18q-7 5 -17 8v6h169q44 0 80 -9q37 -9 62 -30q26 -21 39 -58q14 -39 14 -93q0 -109 -54 -162q-53 -52 -144 -52h-11v-198q0 -56 1 -74q2 -31 4 -41q3 -14 10 -18q9 -6 19 -8v-6
h-190v6zM175 742v-388h8q17 0 33 11t26 33q11 24 17 60q6 38 6 90q0 56 -6 93q-6 39 -16 60q-11 24 -25 32q-15 9 -31 9h-12z" />
    <glyph glyph-name="Q" unicode="Q" horiz-adv-x="440" 
d="M221 -9l-6 -2q-45 0 -80 28q-36 28 -61 79t-39 122q-14 73 -14 156q0 98 15 170t42 120q27 49 63 71q37 23 75 23q39 0 76 -23q36 -23 63 -70q27 -48 42 -120t15 -170q0 -123 -26 -209q-25 -83 -68 -129q20 -32 36 -82q3 -9 7 -23.5t6 -20.5q7 -22 12 -35q6 -16 13 -24
q8 -9 18 -9q7 0 17 5q4 2 13 8l4 -4q-5 -5 -16 -12q-13 -8 -45 -8q-24 0 -40 4q-18 4 -33 18t-27 37q-11 22 -22 63l-10 41q-12 -4 -30 -4zM215 748l-3 -1q-20 0 -32 -26q-11 -24 -19 -74q-7 -44 -10 -117q-3 -69 -3 -156v-160q0 -62 5 -112q5 -47 13 -69q9 -24 25 -31
q-7 8 -12 18q-5 12 -5 21q0 21 14 38t45 17q18 0 38 -11q5 42 6 112q2 94 2 178q0 87 -3 156q-3 73 -10 117q-8 50 -19 74q-12 26 -32 26zM183 40l-1 1q0 -14 7 -28q7 -15 22 -15q17 0 27 7q-9 37 -15 54q-6 16 -22 16q-6 0 -12 -9t-6 -26z" />
    <glyph glyph-name="R" unicode="R" horiz-adv-x="406" 
d="M18 6h-6q10 3 17 8q6 4 9 18q2 10 4 41q1 18 1 74v454q0 56 -1 74q-2 31 -4 41q-3 14 -9 18q-7 5 -17 8v6h156q46 0 84 -9t65 -30t42 -55t15 -87q0 -44 -13 -79q-14 -36 -37 -61t-57 -40q-33 -15 -73 -18q32 0 56 -6t42 -24q19 -19 32 -52q14 -35 21 -94q9 -68 15 -101
q7 -42 10 -55q4 -18 8 -24q3 -4 8 -4q9 0 14 4q8 6 9 7l5 -5q-3 -5 -19 -15t-51 -10q-33 0 -51 7q-19 7 -31 27t-18 54t-12 90q-9 76 -13 103q-6 39 -12 60t-14 29q-7 8 -18 9v-222q0 -56 1 -74q2 -31 4 -41q3 -14 9 -18q7 -5 17 -8v-6h-188v6zM261 570l2 1q0 50 -6 83
q-6 32 -18 52t-30 27q-18 8 -40 9v-362q52 4 72 56t20 134z" />
    <glyph glyph-name="S" unicode="S" 
d="M142 -9l-5 -4q-24 0 -41 7q-20 8 -30 16q-18 13 -21 16q-8 7 -14 7q-4 0 -9 -20h-6v202h7q15 -119 42 -168q27 -50 73 -50q42 0 68 23t26 77q0 30 -10 57q-10 28 -27 60q-10 18 -38 67q-40 68 -45 77q-18 38 -33 65t-30 59q-14 29 -21 58q-7 28 -7 66q0 67 40 108
q40 42 109 42q17 0 29 -4q13 -4 24 -9t18 -9t12 -4q7 0 9 8q1 5 3 17h7v-156h-7q-17 84 -39 117t-57 33q-33 0 -48 -20q-15 -19 -15 -53q0 -22 9 -48t24 -54q18 -34 34 -60q22 -35 39 -67l22 -38.5t19 -33.5q16 -29 34 -66q15 -31 24 -63t9 -63q0 -55 -16 -90
q-17 -37 -42 -59q-26 -22 -57 -33q-30 -10 -63 -10z" />
    <glyph glyph-name="T" unicode="T" horiz-adv-x="399" 
d="M105 6l3 -2q10 3 17 8q6 4 9 20q2 12 4 42q1 18 1 74v592q-29 -3 -49 -12t-33 -25q-14 -17 -23 -41q-6 -15 -19 -57h-8l9 124q1 15 5 19q3 3 11 3h339q8 0 11 -3q4 -4 5 -19l9 -124h-7q-11 34 -21 56q-11 25 -24 41q-14 17 -33 26q-20 9 -49 12v-592q0 -55 1 -73
q2 -30 4 -42q3 -14 9 -19q7 -5 17 -8v-6h-188v6z" />
    <glyph glyph-name="U" unicode="U" horiz-adv-x="380" 
d="M201 -13l-1 -4q-76 0 -117 40q-42 41 -42 129v447q0 56 -1 74q-2 31 -4 41q-3 14 -9 18q-7 6 -16 8v6h183v-6q-10 -3 -17 -8q-6 -4 -9 -18q-2 -10 -4 -41q-1 -18 -1 -74v-457q0 -30 2 -66q1 -25 8 -45q6 -17 18 -25q11 -7 31 -7q49 0 76 38q27 37 27 111v448q0 52 -1 69
q-2 28 -4 40q-3 14 -11 22q-9 9 -21 17v6h80v-6q-13 -11 -17 -16q-6 -8 -9 -22q-2 -12 -4 -40q-1 -17 -1 -69v-448q0 -79 -31 -120q-32 -42 -105 -42z" />
    <glyph glyph-name="V" unicode="V" horiz-adv-x="358" 
d="M47 613l-4 -2q-8 37 -12 55q-4 21 -9 37q-4 14 -11 24q-5 8 -15 16v6h187v-6q-23 -6 -27 -22q-4 -17 6 -63l75 -399l67 364q10 49 6 78q-4 28 -41 42v6h91v-6q-9 -5 -15 -9t-10 -16q-5 -13 -9 -34q-7 -35 -12 -61l-115 -628h-22z" />
    <glyph glyph-name="W" unicode="W" horiz-adv-x="553" 
d="M46 623l-1 -3l-12 48t-9 33q-5 16 -10 23q-7 10 -15 17v7h176v-7q-23 -7 -24 -24q-1 -16 9 -58l97 -440l30 132l-60 269l-12 48t-9 33t-11 23q-6 9 -17 15v7h174v-7q-21 -6 -21 -22q0 -14 8 -60l23 -122l16 85q1 5 7 41q3 20 2 33q-2 16 -7 27q-6 12 -19 19v7h79v-7
q-10 -4 -18 -9t-12 -16q-5 -13 -9 -34l-12 -60l-21 -110l54 -293l74 402l7 42q3 20 0 35q-3 16 -12 26q-9 11 -28 18v7h92v-7q-5 -3 -13 -9q-6 -4 -12 -17q-6 -12 -12 -33q-4 -14 -13 -59l-115 -628h-22l-75 335l-76 -335h-22z" />
    <glyph glyph-name="X" unicode="X" horiz-adv-x="358" 
d="M5 6l-2 1q14 6 22 13q9 8 15 19q7 15 14 32q8 19 18 51l57 207l-68 304q-9 35 -15 54q-6 21 -12 32q-6 12 -14 17q-7 4 -20 9v6h196v-6q-12 -3 -19 -8q-6 -5 -6 -16q0 -9 5 -31q4 -20 12 -51l30 -144l35 139q18 56 15 80q-3 25 -37 32v6h101v-6q-15 -6 -25 -12
q-9 -6 -15 -18q-6 -11 -12 -32q-1 -4 -7 -22.5t-10 -31.5l-39 -157l72 -343q9 -32 15 -51q6 -18 12 -31q6 -12 15 -21q7 -7 24 -19v-6h-190v6q14 4 21 11q6 6 6 18t-6 33t-15 54l-41 184l-53 -190q-18 -54 -12 -78q6 -23 38 -34v-6h-105v6z" />
    <glyph glyph-name="Y" unicode="Y" horiz-adv-x="349" 
d="M91 6l1 -1q10 3 17 8q6 4 9 20q2 12 4 42q1 18 1 74v245l-70 235q-8 36 -20 67q-11 28 -33 50v6h179v-6q-21 -7 -19 -26t9 -47l72 -257l46 210q9 34 12 56q3 21 0 33t-12 18q-10 7 -27 11v6h90v-6q-10 -5 -16 -10q-7 -7 -11 -18q-7 -18 -11 -33q-5 -18 -15 -59l-51 -222
v-254q0 -55 1 -73q2 -30 4 -42q3 -14 9 -19q7 -5 17 -8v-6h-186v6z" />
    <glyph glyph-name="Z" unicode="Z" horiz-adv-x="343" 
d="M184 739l-1 -1q-29 -4 -51 -17q-23 -13 -38 -28q-19 -19 -32 -37q-4 -5 -14.5 -20.5t-16.5 -23.5h-6l26 138h265l-173 -741q42 3 72 14q29 11 48 30q18 18 34 48q12 23 31 66h6l-21 -167h-300z" />
    <glyph glyph-name="bracketleft" unicode="[" horiz-adv-x="193" 
d="M178 793v-9h-57v-881h57v-9h-142v899h142z" />
    <glyph glyph-name="backslash" unicode="\" horiz-adv-x="234" 
d="M250 -166l-15 -3l-237 964l15 2z" />
    <glyph glyph-name="bracketright" unicode="]" horiz-adv-x="193" 
d="M157 -106h-142v9h57v881h-57v9h142v-899z" />
    <glyph glyph-name="asciicircum" unicode="^" horiz-adv-x="262" 
d="M127 756h8l109 -237l-8 -4l-105 229l-105 -229l-8 4z" />
    <glyph glyph-name="underscore" unicode="_" horiz-adv-x="267" 
d="M-5 -68h277v-13h-277v13z" />
    <glyph glyph-name="grave" unicode="`" horiz-adv-x="446" 
d="M162 590h2q-16 12 -25 25t-9 30t10 26t27 9q16 0 27 -11q12 -12 23 -33l59 -117l-6 -4z" />
    <glyph glyph-name="a" unicode="a" 
d="M109 -8l-5 -9q-38 0 -62 27t-24 78q0 36 17 61q16 23 39 40q19 14 47 28q24 12 41 26l-6 -4q4 4 12 10q7 5 11 12q5 9 8 18q3 11 3 30v85q0 43 -7 54q-8 12 -28 12q-11 0 -21 -12t-21 -50q-5 -16 -12 -27q-8 -11 -27 -11q-17 0 -28 11q-10 10 -10 26q0 13 6 27t21 24
q15 11 37 18q21 7 56 7q25 0 53 -5q25 -4 46 -18q21 -13 33 -38q12 -24 12 -63v-218v-64q0 -24 3 -36t7 -15t12 -3q11 0 17 6l3 -6q-6 -5 -21 -12q-14 -7 -46 -7q-35 0 -54 12t-25 35q-23 -28 -39 -38q-17 -11 -48 -11zM124 111v1q0 -52 9 -78t24 -26q2 0 8 6q1 1 9 9.5
t16 16.5q-1 3 -1 12v207q-5 -12 -13 -18q-12 -8 -18 -13l6 3q-14 -13 -21 -22q-7 -11 -12 -24q-5 -14 -6 -31q-1 -12 -1 -43z" />
    <glyph glyph-name="b" unicode="b" horiz-adv-x="379" 
d="M182 -3l-3 -1q-14 0 -28 6q-9 4 -25 14t-25 14q-13 6 -30 6q-13 0 -18 -8q-4 -7 -6 -14h-7v616q0 39 -4 50q-4 12 -21 15v6l133 74v-351q20 25 34 36q15 12 40 12q21 0 44 -10q24 -10 45 -36q20 -25 34 -67q14 -44 14 -105q0 -67 -13 -113q-14 -50 -37 -80
q-24 -31 -57 -48q-32 -16 -70 -16zM162 18h-1q-1 -4 2 -9q3 -4 16 -4q40 0 51 59q11 61 11 173q0 60 -3 102q-3 43 -9 68q-6 28 -13 38q-8 12 -16 12q-14 0 -25 -10q-10 -9 -31 -36v-304q0 -18 2 -38q2 -17 4 -25q3 -9 6 -16q2 -4 6 -10z" />
    <glyph glyph-name="c" unicode="c" horiz-adv-x="297" 
d="M192 -4l-5 -6q-34 0 -65 14q-30 14 -54 42q-23 28 -37 73q-13 43 -13 106q0 66 16 111q17 47 40 76q24 30 50 44t47 14q18 0 38 -5q18 -4 32 -14q14 -9 23 -23t9 -30q0 -17 -10 -26q-11 -9 -27 -9q-20 0 -32 12t-15 40q-1 8 -2 21t-2 17q-2 11 -12 11q-13 0 -20 -16
t-12 -45t-6 -67q-1 -26 -1 -82q0 -112 18 -177q18 -64 57 -64q26 0 42 13q17 14 27 24l7 -7l-13 -13q-8 -8 -18 -15q-8 -6 -26 -13q-15 -6 -36 -6z" />
    <glyph glyph-name="d" unicode="d" horiz-adv-x="379" 
d="M150 -7v-3q-24 0 -47 12t-41 41q-19 30 -29 73q-11 47 -11 109q0 66 17 114q16 44 41 76q24 30 52 43q30 14 52 14q14 0 26 -6q13 -7 23 -15v169q0 28 -1 37q-2 15 -4 20q-3 7 -9 8q-7 2 -16 3v7l138 80v-686v-41q0 -15 3 -24t7 -12t14 -6v-6h-132v60q-31 -37 -49 -52
t-34 -15zM135 236q0 -115 10 -171q10 -58 30 -58q2 0 5 3q5 5 9 10q2 3 8 9.5t9 9.5q23 27 27 31v369q-11 11 -23 17t-27 6q-48 0 -48 -226z" />
    <glyph glyph-name="e" unicode="e" horiz-adv-x="310" 
d="M189 -4h-3q-38 0 -69 12t-54 41q-23 30 -35 73q-12 45 -12 110q0 63 15 108q15 46 37 75q23 31 48 44q26 14 47 14q38 0 63 -14t38 -36q14 -23 18 -51q5 -32 5 -57h-157q-1 -9 -1 -27v-30q0 -38 2 -98q1 -45 9 -78t22 -52q15 -19 39 -19q29 0 46 11q15 10 25 21l5 -7
q-9 -10 -28 -25t-60 -15zM161 465v-3q-7 0 -13 -6q-5 -5 -10 -21q-4 -12 -7 -42q-2 -20 -4 -68h61v60q0 32 -1 44q-1 17 -8 27q-6 9 -18 9z" />
    <glyph glyph-name="f" unicode="f" horiz-adv-x="214" 
d="M20 6l-2 -3q10 3 14 6t7 12t3 24v41v366h-49v7q30 3 40 11q9 8 9 18v92q0 50 18 85q18 34 42 55t50 30t42 9q42 0 70 -16t28 -48q0 -13 -9 -25t-29 -12q-23 0 -32 12q-10 13 -14 33q-6 30 -9 40q-3 9 -8 9q-7 0 -15 -6q-6 -5 -13 -20q-6 -13 -9 -38q-3 -24 -3 -61v-162
h67v-10h-67v-366q0 -31 1 -41q1 -13 5 -24q3 -9 11 -12t21 -6v-6h-169v6z" />
    <glyph glyph-name="g" unicode="g" horiz-adv-x="329" 
d="M154 161v-3q-14 0 -29 3q-16 3 -31 10l-3 -2q-19 -13 -24 -21t-5 -12q0 -2 2 -6q1 -3 8 -6q10 -5 18 -8q6 -2 35 -10l93 -22q40 -9 63 -24q24 -16 35 -31q12 -17 15 -33q3 -17 3 -31q0 -36 -14 -62t-37 -42q-24 -17 -54 -24q-32 -8 -61 -8q-37 0 -66 7t-55 20
q-23 12 -37 30q-14 19 -14 39q0 27 26 50q25 22 59 39q-32 14 -44 35t-12 46q0 15 6 27t15 21q9 10 20 17q14 10 20 15l3 2q-28 15 -51 47q-22 31 -22 90q0 44 15 76t36 51t45 27q26 8 45 8q15 0 35 -5q18 -5 36 -15q19 16 39 28q16 10 30 10q38 0 38 -35q0 -15 -9 -24
t-20 -9q-8 0 -16 5t-14 11q-8 8 -12 11q-7 5 -10 5q-11 0 -21 -7q26 -19 44 -51q18 -33 18 -85q0 -46 -15 -76t-36 -48t-45 -24t-45 -6zM49 -73v3q0 -39 26 -67q25 -27 90 -27q53 0 88 21q34 21 34 60q0 11 -4 18q-5 7 -15 15q-12 8 -30 14q-27 8 -51 14l-70 19l-31 9
q-23 -12 -30 -31q-7 -18 -7 -48zM154 170l-4 -1q5 0 13 8q7 7 15 24q7 16 12 44q5 30 5 68q0 81 -15 117t-27 36t-27 -36t-15 -117q0 -38 5 -68q4 -25 11 -44q6 -16 14 -24q7 -7 13 -7z" />
    <glyph glyph-name="h" unicode="h" horiz-adv-x="380" 
d="M13 6l-1 1q10 3 14 6t7 12t3 24v41v527q0 27 -1 36q-2 15 -4 20q-3 7 -9 8q-7 2 -16 3v7l138 83v-371q12 13 32 33q13 13 26 21t24 11q12 3 26 3q11 0 24 -4q15 -5 30 -15q16 -11 26 -30q11 -20 11 -49v-286v-41q0 -12 2 -24q1 -9 6 -12q4 -3 14 -6v-6h-160v6q9 3 16 6
q6 3 9 12q2 7 4 24q1 10 1 41v317q0 27 -8 37q-7 9 -14 9q-4 0 -20 -11t-50 -48v-302v-41q0 -15 3 -24t9 -12q7 -3 16 -6v-6h-158v6z" />
    <glyph glyph-name="i" unicode="i" horiz-adv-x="184" 
d="M92 527l-2 -1q-25 0 -43 18t-18 44q0 25 18 43t44 18t44 -18t18 -43t-18 -43t-43 -18zM10 5v-1q9 3 16 6q6 3 9 12t3 24v41v223q0 27 -1 36q-2 15 -4 21q-3 7 -9 10q-8 4 -16 5v7l136 85v-386v-41q0 -15 3 -24t9 -12q7 -3 16 -6v-6h-162v6z" />
    <glyph glyph-name="j" unicode="j" horiz-adv-x="185" 
d="M91 527l-2 -1q-25 0 -43 18t-18 44q0 25 18 43t44 18t44 -18t18 -43t-18 -43t-43 -18zM-30 -140l1 1q-21 0 -36 12t-15 33q0 16 11 27q10 10 26 10q17 0 27 -9q11 -10 18 -19q2 -3 7 -9.5t7 -9.5q6 -9 14 -9q5 0 6 4q5 5 3 20q-1 10 -1 57v343q0 27 -1 36q-2 15 -4 21
q-3 8 -9 11q-8 4 -16 5v7l136 85v-400q0 -39 -1 -55q-1 -24 -9 -45q-7 -20 -24 -40q-16 -20 -45 -39q-32 -23 -52 -30t-43 -7z" />
    <glyph glyph-name="k" unicode="k" horiz-adv-x="353" 
d="M13 6l-2 1q10 3 14 6t7 12t3 24v41v556q0 16 -1 21q-2 9 -4 11q-3 3 -8 3q-2 0 -12 2v7l133 84v-685v-41q0 -15 3 -24t9 -12q7 -3 16 -6v-6h-158v6zM192 6l-2 -1q17 5 20 14q3 10 -7 39l-59 187v6l116 149q20 26 14 41q-6 14 -23 19v6h89v-6q-15 -7 -30 -19
q-18 -14 -42 -46l-47 -60l102 -282q7 -20 14 -33q6 -11 14 -14v-5h-159v5z" />
    <glyph glyph-name="l" unicode="l" horiz-adv-x="184" 
d="M12 6l-2 1q9 3 16 6q6 3 9 12t3 24v41v557q0 22 -5 29t-21 8v7l134 84v-686v-41q0 -15 3 -24t9 -12q7 -3 16 -6v-6h-162v6z" />
    <glyph glyph-name="m" unicode="m" horiz-adv-x="541" 
d="M13 6l-4 -8q10 3 14 6t7 12t3 24v41v223q0 29 -1 38q-2 15 -4 21q-3 7 -9 10q-5 2 -16 4v7l136 85v-59q26 30 47 44q22 14 49 14q25 0 48 -15t32 -47q28 34 49 48q22 15 51 15q12 0 25 -4q16 -5 29 -15q14 -11 23 -30q9 -20 9 -48v-286v-41q0 -12 2 -24q1 -9 8 -12
q6 -3 15 -6v-6h-160v6q9 3 15 6t9 12q2 7 4 24q1 10 1 41v317q0 28 -6 37t-11 9q-4 0 -18 -9q-14 -10 -39 -40v-3v-3l1 -1v-304v-41q0 -12 2 -24q1 -9 8 -12q6 -3 15 -6v-6h-160v6q9 3 15 6t9 12t3 24v41v317q0 28 -6 37t-11 9q-4 0 -16 -9q-14 -11 -38 -40v-314v-41
q0 -15 3 -24t9 -12q7 -3 16 -6v-6h-158v6z" />
    <glyph glyph-name="n" unicode="n" horiz-adv-x="383" 
d="M13 6l-1 -1q10 3 14 6t7 12t3 24v41v223q0 29 -1 38q-2 15 -4 21q-3 7 -9 10q-5 2 -16 4v7l138 85v-73q12 13 32 33q12 12 27 22q13 9 26 12q12 3 26 3q11 0 24 -4q15 -5 30 -15q16 -11 26 -30q11 -20 11 -49v-286v-41q0 -12 2 -24q2 -9 6 -12t14 -6v-6h-163v6q9 3 16 6
q6 3 9 12q2 7 4 24q1 10 1 41v317q0 28 -7 36q-8 9 -13 9q-4 0 -20 -11q-15 -11 -50 -50v-301v-41q0 -15 3 -24t9 -12q7 -3 16 -6v-6h-160v6z" />
    <glyph glyph-name="o" unicode="o" horiz-adv-x="358" 
d="M179 -5q-23 0 -51 12t-54 39t-42 72q-17 46 -17 111q0 69 17 117q16 46 42 75q25 28 54 40q28 12 51 12t51 -12q30 -13 53 -40q25 -30 41 -75q17 -48 17 -117q0 -65 -17 -111q-16 -44 -41 -72q-24 -27 -53 -39q-28 -12 -51 -12zM179 4v-2q12 0 21 12t15 38t9 69t3 108
q0 70 -3 115t-9 72q-6 26 -15 37t-21 11t-21 -10q-9 -11 -15 -37q-6 -27 -9 -72t-3 -115q0 -64 3 -108t9 -69t15 -37t21 -12z" />
    <glyph glyph-name="p" unicode="p" horiz-adv-x="373" 
d="M18 -160l2 -5q10 3 14 6t7 12t3 24v41v389q0 29 -1 38q-2 15 -4 21q-3 7 -9 10q-5 2 -16 4v7l136 85v-50q22 28 36 39q13 10 32 10q16 0 40 -9q23 -9 46 -33q22 -24 39 -66q16 -41 16 -108q0 -125 -48 -194t-133 -69q-17 0 -27 7v-76v-41q0 -12 2 -24q1 -9 6 -12t12 -6
v-6h-153v6zM199 453l-2 1q-6 0 -15 -9q-13 -13 -32 -37v-402q11 -8 27 -8q32 0 50 60t18 177q0 109 -10 162q-11 56 -36 56z" />
    <glyph glyph-name="q" unicode="q" horiz-adv-x="376" 
d="M210 -160h2q8 3 11 6q4 4 5 12q2 12 2 24v41v122q-19 -26 -35 -40q-13 -12 -30 -12q-15 0 -37 7q-25 8 -48 31q-24 24 -42 69t-18 123q0 61 18 108t45 77t57 45t56 15q19 0 32 -5q10 -4 21 -11q12 -8 18 -11q10 -5 24 -5q28 0 36 23h8v-536v-41q0 -15 3 -24t9 -12
q7 -3 16 -6v-6h-153v6zM133 231l1 -1q0 -61 5 -109q5 -43 12 -69t15 -36q7 -10 14 -10q10 0 20 12q12 14 30 40v318v47q0 15 -6 24q-2 3 -8 9q-4 4 -20 4q-15 0 -27 -12q-13 -13 -20 -39q-7 -27 -12 -71q-4 -39 -4 -107z" />
    <glyph glyph-name="r" unicode="r" horiz-adv-x="289" 
d="M13 6l5 -4q10 3 14 6t7 12t3 24v41v251q0 26 -4 33t-24 9v7l136 85v-67q18 23 30 36q11 13 23 21q9 6 18 10q7 3 17 3q22 0 36 -14t14 -36q0 -24 -13 -36t-30 -12q-14 0 -24 8q-9 7 -15 18t-12 18q-6 8 -15 8q-4 0 -10 -6q-5 -6 -22 -25v-307v-41q0 -15 3 -24t9 -12
t18 -6v-6h-164v6z" />
    <glyph glyph-name="s" unicode="s" horiz-adv-x="275" 
d="M151 5l-1 -8q16 0 30 17q13 16 13 42q0 27 -18 60t-63 78q-28 25 -46 46q-18 22 -27 40q-9 20 -12 39t-3 42q0 21 8 42q8 19 21 33t30 21q18 8 36 8q17 0 36 -9t48 -9q6 0 11 5q4 4 6 12h9v-130h-9q-10 33 -24 58q-14 24 -27 39t-27 21t-24 6q-15 0 -28 -11
q-12 -11 -12 -33q0 -12 5 -25q4 -11 15 -25q10 -14 27 -30l39 -39q27 -26 49 -51q19 -22 30 -44t14 -42q3 -21 3 -45q0 -27 -11 -51q-11 -23 -27 -38q-17 -16 -36 -23q-21 -8 -36 -8q-18 0 -33 6q-17 7 -27 13q-5 3 -13.5 7.5t-9.5 5.5q-11 6 -19 6q-7 0 -11 -4
q-5 -5 -6 -12h-8v153h8q46 -163 120 -163z" />
    <glyph glyph-name="t" unicode="t" horiz-adv-x="229" 
d="M152 -9v-3q-50 0 -81 29q-30 29 -30 80v357h-41v9q20 3 42 14t41 30q18 18 34 50t23 69h9v-162h75v-10h-75v-348q0 -55 8 -79q7 -22 33 -22q14 0 21 4q5 3 13 9l5 -5q-10 -8 -22 -14q-16 -8 -55 -8z" />
    <glyph glyph-name="u" unicode="u" horiz-adv-x="359" 
d="M130 -8l-4 1q-9 0 -27 5q-17 5 -31 16q-15 12 -25 31t-10 49v249q0 26 -4 33q-5 8 -24 9v7l137 85v-400q0 -33 8 -49q8 -15 15 -15q6 0 18 9t33 33v286q0 26 -4 33q-4 8 -24 9v7l136 85v-386v-41q0 -12 2 -24q1 -8 5 -12q2 -2 8 -6v-6h-121v43q-26 -27 -45 -39t-43 -12z
" />
    <glyph glyph-name="v" unicode="v" horiz-adv-x="297" 
d="M41 355l-3 -1q-10 37 -15 53q-5 15 -11 30q-5 11 -10 15q-4 3 -12 7v6h166v-6q-11 -1 -18 -5q-6 -3 -6 -14q0 -10 3 -30q2 -11 11 -52l43 -191l42 167l9.5 38t7.5 28q6 23 4 36t-9 17t-23 6v6h82v-6q-10 -4 -14 -7q-6 -5 -12 -16q-7 -15 -14 -36q-8 -24 -18 -66l-86 -339
h-22z" />
    <glyph glyph-name="w" unicode="w" horiz-adv-x="447" 
d="M42 355h-3q-5 18 -13 54q-7 29 -7 30q-3 11 -6 14t-9 6v6h145v-6q-10 -3 -14 -6q-5 -3 -5 -14q0 -13 4 -30q1 -4 3 -13.5t4.5 -19t4.5 -19.5l48 -192l30 108l-19 81q-1 4 -13 56q-2 10 -8 30q-3 11 -6 14q-4 4 -9 5v6h154v-6q-9 -3 -16 -6q-6 -3 -9 -13t0 -30
q4 -25 10 -52l37 -181l37 159q11 45 15 67q4 23 1 36q-3 11 -12 16t-24 6v6h87v-6q-12 -4 -17 -7q-6 -5 -12 -16q-6 -12 -12 -36q-2 -7 -7 -29t-9 -37l-79 -341h-21l-62 260l-72 -260h-22z" />
    <glyph glyph-name="x" unicode="x" horiz-adv-x="306" 
d="M5 6l-2 -2q10 6 14 9q6 5 12 15q8 14 15 28q11 22 23 50l39 91l-52 157l-18 56q-6 18 -11 29q-5 9 -9 12t-12 6v6h168v-6q-13 -2 -18 -4q-5 -3 -7 -12q-1 -9 3 -27q7 -28 13 -49l23 -71l26 63q16 37 20 54q4 19 3 30q-1 10 -9 13q-9 4 -18 5v6h82v-6q-3 -2 -9.5 -6
t-9.5 -6q-9 -5 -14 -13q-7 -11 -14 -27q-11 -26 -21 -52l-30 -73l55 -171q11 -35 18 -54t12 -30q4 -10 11 -15q4 -3 14 -7v-6h-164v6q11 1 18 5q5 3 7 12q1 9 -3 27q-7 28 -13 48l-29 86l-36 -80q-14 -30 -18 -48t-3 -28q1 -11 9 -15t18 -6v-6h-83v6z" />
    <glyph glyph-name="y" unicode="y" horiz-adv-x="313" 
d="M39 -171l-1 -4q-24 0 -37 11q-12 10 -12 27q0 20 10 27q11 8 24 8t21 -3q10 -4 14 -6t14 -6q8 -3 18 -3q11 0 24 16q14 16 30 66l8 29l-112 364q-4 12 -9 30t-7 24q-7 24 -10 30q-5 12 -7 14q-3 3 -10 6v6h164v-6q-11 -2 -17 -6q-5 -4 -7 -15t3 -29q9 -36 13 -50l51 -190
l47 166q13 44 17 65q4 24 3 36q-2 13 -9 17q-8 5 -19 6v6h75v-6q-9 -5 -15 -9q-6 -5 -12 -16q-4 -8 -13 -35q-3 -9 -19 -63l-105 -371q-25 -74 -49 -104q-26 -32 -66 -32z" />
    <glyph glyph-name="z" unicode="z" horiz-adv-x="298" 
d="M267 -10v-2q-8 4 -15 5q-8 1 -23 3q-18 2 -36 2h-55h-128l162 457q-37 -1 -61 -9t-39 -21q-15 -14 -24 -31q-7 -14 -16 -41h-8l22 122q15 -7 44 -9q19 -1 84 -1h107l-166 -458q44 0 71 9q26 9 43 24q16 15 27 38q5 12 22 51h8z" />
    <glyph glyph-name="braceleft" unicode="{" horiz-adv-x="207" 
d="M190 -106l-2 1q-66 0 -109 32q-42 31 -42 93q0 30 9 62t21 63t21 63q9 31 9 61q0 15 -1 23q-2 12 -9 24q-8 13 -24 20q-18 8 -48 8v8q30 0 48 8q16 7 24 20q7 12 9 24q1 8 1 23q0 29 -9 61t-21 63t-21 63t-9 62q0 61 41 93t110 32v-8q-34 0 -48 -23q-13 -22 -13 -69
q0 -31 6 -63q8 -42 12 -62l12 -60q6 -30 6 -57q0 -23 -9 -42t-25 -34q-17 -15 -37 -24q-22 -10 -43 -11q21 -1 43 -11q20 -9 37 -24q18 -16 26 -34q9 -19 9 -42q0 -27 -6 -57q-8 -40 -12 -61l-12 -63q-6 -32 -6 -63q0 -46 14 -69q13 -22 48 -22v-8z" />
    <glyph glyph-name="bar" unicode="|" horiz-adv-x="233" 
d="M124 820v-926h-15v926h15z" />
    <glyph glyph-name="braceright" unicode="}" horiz-adv-x="207" 
d="M17 -98l-2 -10q34 0 48 23t14 69q0 32 -6 63l-12 63q-4 21 -12 61q-6 30 -6 57q0 22 9 42q9 19 24 34t36 24q22 10 44 11q-21 1 -43 11q-21 9 -36 24t-24 34q-9 20 -9 42q0 27 6 57l12 60q4 20 12 62q6 31 6 63q0 47 -13 69q-14 23 -48 23v8q70 0 110 -31q41 -32 41 -93
q0 -30 -9 -61t-21 -63t-21 -63t-9 -61q0 -14 1 -22q1 -12 9 -24q7 -11 24 -19q18 -8 48 -8v-8q-30 0 -48 -8q-17 -8 -24 -19q-8 -12 -9 -24q-1 -8 -1 -22q0 -30 9 -61t21 -63t21 -63q9 -32 9 -61q0 -62 -42 -93q-41 -31 -109 -31v8z" />
    <glyph glyph-name="asciitilde" unicode="~" horiz-adv-x="238" 
d="M85 416v-2q23 0 42 -6t39 -6q12 0 23 7q13 8 20 30l6 -3q-10 -48 -26 -73q-15 -24 -32 -24q-22 0 -43 6t-46 6q-11 0 -20 -6t-20 -29l-7 3q14 52 30 74q17 23 34 23z" />
    <glyph glyph-name="uni00A0" unicode="&#xa0;" horiz-adv-x="142" 
 />
    <glyph glyph-name="exclamdown" unicode="&#xa1;" horiz-adv-x="195" 
d="M94 252h-1h9q8 -105 20 -196q10 -81 21 -135t18 -87q7 -31 7 -54q0 -34 -18 -54t-51 -20q-35 0 -53 20t-18 54q0 23 7 54q7 33 18 87t21 135q12 91 20 196zM100 476q29 0 47 -18t18 -46q0 -29 -18 -47t-47 -18q-27 0 -46 18t-19 47q0 28 19 46q20 18 46 18z" />
    <glyph glyph-name="cent" unicode="&#xa2;" horiz-adv-x="310" 
d="M193 -5l1 -73h-12v70q-32 4 -62 20q-29 15 -50 45t-33 73q-12 44 -12 102q0 64 16 108q17 46 40 75q25 31 51 44q28 14 51 14v69h12v-69q43 -1 72 -20q29 -18 29 -50q0 -17 -10 -27t-27 -10q-20 0 -33 10t-16 37q-2 25 -4 34q-3 12 -12 15v-454q10 -2 12 -2q34 0 57 15
q21 14 33 26l7 -6q-9 -9 -15 -14q-9 -7 -21 -15t-28 -12q-18 -5 -37 -5h-9zM136 246v-1q0 -103 10 -160q10 -59 36 -76v451q-13 -1 -22 -18q-9 -16 -15 -45q-5 -26 -7 -67q-2 -52 -2 -84z" />
    <glyph glyph-name="sterling" unicode="&#xa3;" horiz-adv-x="311" 
d="M35 46l-2 -3q18 25 26 39q11 18 18 36q8 20 11 40q3 22 3 54q0 13 -2 35q-1 11 -5 33h-67v11h65q-3 10 -7 30q-2 10 -8 30h-49v11h45q-18 62 -26 92q-12 45 -12 93q0 55 16 93q17 39 40 64t51 37q27 12 48 12q20 0 38 -6t33 -18t24 -32q9 -19 9 -48q0 -21 -10 -32
q-10 -12 -30 -12q-41 0 -44 46q-2 32 0 50t0 29q-1 10 -6 13q-4 3 -15 3q-25 0 -31 -32t-6 -99q0 -72 9 -135q3 -24 8.5 -64.5t7.5 -52.5h72v-11h-71q1 -11 3 -31q1 -10 1 -28h67v-11h-67q-2 -38 -10 -66q-9 -29 -21 -52q-11 -21 -24 -37q-16 -20 -19 -23h105q47 0 68 6
t30 28h8l-25 -101q-6 -24 -10 -30q-4 -7 -21 -7h-246z" />
    <glyph glyph-name="yen" unicode="&#xa5;" horiz-adv-x="328" 
d="M82 6l2 -3q11 3 17 9t9 20q2 10 4 41q1 18 1 74v201h-82v11h82v64h-82v10h79l-66 193q-2 8 -6 21.5t-5 17.5q-5 17 -9 30t-12 24t-18 21v6h178v-6q-22 -7 -22 -24q0 -16 9 -48l70 -224l35 173q9 37 12 60t0 36t-13 19q-12 7 -28 11v6h90v-6q-9 -4 -16 -11q-5 -5 -10 -18
q-2 -6 -10 -35q-5 -19 -15 -62l-39 -182h81v-10h-82v-64h82v-11h-82v-201q0 -56 1 -74q2 -31 4 -41q3 -13 9 -19t17 -9v-6h-185v6z" />
    <glyph glyph-name="brokenbar" unicode="&#xa6;" horiz-adv-x="233" 
d="M124 820v-380h-15v380h15zM124 -106h-15v380h15v-380z" />
    <glyph glyph-name="section" unicode="&#xa7;" horiz-adv-x="388" 
d="M175 -146l-7 -11q34 0 51 23q16 22 16 66q0 28 -9 54q-9 27 -27 53q-18 27 -45 60q-10 13 -33 40t-30 36q-26 33 -38 51q-14 22 -24 44q-8 19 -13 43q-4 20 -4 51q0 30 8 56q7 23 20 44q11 18 27 34q15 16 32 26q-16 36 -16 87q0 37 12 66t31 48t44 30q23 10 50 10
q25 0 51 -8q23 -7 42 -20q17 -11 28 -29q11 -17 11 -34q0 -15 -10 -25t-27 -10q-38 0 -45 43q-2 8 -7 32q-3 16 -7 25q-4 10 -12 16q-7 6 -23 6q-29 0 -48 -22t-19 -58q0 -25 6 -45q6 -21 19 -39q16 -23 34 -45q8 -10 27.5 -33t25.5 -30q30 -37 51 -66q19 -26 34 -54
q13 -24 19 -49q6 -24 6 -55q0 -48 -24 -89q-23 -40 -59 -72q7 -21 12 -42q4 -19 4 -46q0 -39 -10 -69q-11 -32 -28 -55q-18 -24 -43 -37t-54 -13q-26 0 -53 8q-26 8 -47 21t-33 35q-12 21 -12 48q0 17 12 29t30 12q19 0 30 -12q10 -12 12 -32q3 -29 6 -48t9 -30
q6 -10 17 -15q9 -4 30 -4zM181 252l-2 -1q31 -39 64 -84q26 -35 39 -64q10 13 15 32q4 16 4 40q0 30 -7 52q-7 23 -24 49q-20 31 -40 56t-55 70q-22 27 -45 59q-17 24 -31 53q-11 -10 -18 -27q-8 -18 -8 -45q0 -24 6 -43q6 -20 19 -40q14 -21 34 -46q18 -22 49 -61z" />
    <glyph glyph-name="dieresis" unicode="&#xa8;" horiz-adv-x="446" 
d="M293 528v-1q-23 0 -38 16q-15 17 -15 40t15 38t38 15t38 -15t15 -37q0 -24 -15 -40t-38 -16zM153 527v-1q-23 0 -38 16t-15 40q0 23 15 38t38 15t38 -15t15 -37q0 -23 -15 -40q-15 -16 -38 -16z" />
    <glyph glyph-name="copyright" unicode="&#xa9;" horiz-adv-x="452" 
d="M227 757v-2q39 0 76 -24t66 -72t45 -120q17 -74 17 -166t-17 -166q-16 -72 -45 -120t-66 -72t-76 -24q-41 0 -78 24t-66 72t-45 120q-17 74 -17 167t17 167q16 72 45 120t66 72t78 24zM227 -6l-2 -2q39 0 75 24t63 72q28 50 44 118q17 73 17 165q0 97 -16 165t-44 118
q-27 48 -63 72t-75 24t-75 -24q-35 -23 -64 -71q-29 -47 -45 -117q-16 -68 -16 -165q0 -92 17 -165q16 -70 45 -118q29 -49 64 -72q36 -24 75 -24zM252 151l-3 -1q-22 0 -46 9q-23 9 -43 35q-19 24 -31 69q-12 43 -12 111q0 61 11 105q10 41 29 66t39 35t41 10q10 0 20 -5
t19 -5q16 0 20 16h5v-101h-5q-7 27 -15 46q-7 18 -15 27t-15 12q-8 3 -13 3q-7 0 -13 -10q-7 -12 -11 -34q-4 -19 -7 -63q-3 -39 -3 -97q0 -64 3 -106q3 -40 11 -66q8 -24 19 -33q12 -9 27 -9q22 0 42 24l4 -4q-8 -12 -23 -23q-16 -11 -35 -11z" />
    <glyph glyph-name="ordfeminine" unicode="&#xaa;" horiz-adv-x="264" 
d="M82 391v1q-32 0 -51 21q-19 20 -19 58q0 28 12 46t30 30t36 21q21 11 32 19q8 5 16 15q7 8 7 37v65q0 33 -4 41q-5 9 -18 9q-8 0 -15 -10q-7 -9 -16 -39q-1 -8 -8 -18q-6 -9 -22 -9t-24 9q-8 10 -8 20q0 8 5 18t15 17t29 12q20 5 44 5q21 0 41 -3q19 -3 35 -14
q15 -10 24 -29q9 -18 9 -48v-166q0 -36 1 -48q1 -18 3 -27q1 -8 5 -12q3 -3 9 -3q7 0 12 5l2 -5q-3 -3 -17 -10q-12 -6 -38 -6q-28 0 -43 9t-20 26q-14 -17 -29 -28q-12 -9 -35 -9zM98 490l2 -2q0 -77 22 -77q2 0 6 4l18 18q-1 2 -1 9v155q-4 -7 -11 -12l-12 -9l4 2
q-9 -7 -16 -15q-6 -7 -9 -17q-3 -9 -3 -23v-33zM124 583l2 2z" />
    <glyph glyph-name="guillemotleft" unicode="&#xab;" horiz-adv-x="279" 
d="M130 226v8l134 162l6 -4l-60 -162l61 -162l-6 -4zM7 226v8l135 162l6 -4l-60 -162l61 -162l-6 -4z" />
    <glyph glyph-name="registered" unicode="&#xae;" horiz-adv-x="310" 
d="M157 758l-3 -1q28 0 53 -15t45 -42q20 -28 32 -66q12 -39 12 -87q0 -47 -12 -88q-12 -42 -31 -69q-19 -28 -45 -43q-25 -15 -52 -15q-28 0 -54 15q-24 14 -46 44q-21 28 -33 68q-12 39 -12 89q0 48 12 87t33 66q21 26 47 42q25 15 54 15zM154 338v-1q25 0 49 15t42 42
q19 28 29 65q11 39 11 84t-11 84q-10 37 -29 65q-18 27 -42 42t-49 15q-26 0 -50 -15q-25 -16 -44 -42t-31 -64t-12 -84t12 -84q13 -40 31 -65q19 -26 44 -42q24 -15 50 -15zM91 437l-8 -2q7 1 9 8q2 8 2 35v141v24q0 10 -1 13q-1 4 -3 6q-1 1 -5 3v3h54q35 -2 54 -13
q20 -12 20 -44q0 -26 -15 -41q-16 -16 -40 -20q19 -1 31 -12t17 -44q2 -15 4.5 -30t2.5 -17q1 -9 4 -9q2 0 6 4l2 -2q-3 -3 -7 -6q-5 -4 -19 -4q-16 0 -24 11q-7 10 -10 45q-1 23 -3 37q-1 13 -3 19q-1 5 -5 7q-2 1 -8 1h-2v-70q0 -27 2 -35q2 -7 9 -8v-4h-64v4zM169 610v1
q0 31 -9 42t-23 11v-110q17 1 25 17q7 14 7 39z" />
    <glyph glyph-name="macron" unicode="&#xaf;" horiz-adv-x="446" 
d="M307 596v-46h-164v46h164z" />
    <glyph glyph-name="degree" unicode="&#xb0;" horiz-adv-x="192" 
d="M96 758q32 0 54 -22t22 -54q0 -33 -22 -55t-54 -22t-54 22t-22 55q0 32 22 54t54 22zM32 682l-1 -1q0 -29 18 -48t46 -19q29 0 47 19t18 48t-18 48q-18 20 -46 20t-46 -19q-18 -20 -18 -48z" />
    <glyph glyph-name="twosuperior" unicode="&#xb2;" horiz-adv-x="236" 
d="M127 526l-5 -1h41q12 0 22 2q7 1 11 5t5 9h7l-17 -65q-2 -10 -4 -12q-3 -3 -6 -3h-172l52 93q32 55 47 101q15 47 15 96q0 45 -6 62t-22 17q-15 0 -15 -14q0 -21 -1 -36q-2 -11 -9 -20q-8 -9 -21 -9t-21 9q-7 8 -7 21q0 26 24 41t52 15q14 0 32 -3t34 -13q17 -11 27 -27
q11 -17 11 -44q0 -47 -28 -90q-29 -44 -84 -105l-30 -29h68z" />
    <glyph glyph-name="threesuperior" unicode="&#xb3;" horiz-adv-x="210" 
d="M48 821l-8 -2q2 7 5 13q1 3 6 3h138v-3l-113 -142q12 6 26 6q15 0 33 -5q16 -4 30 -17q13 -12 21 -33q8 -22 8 -53q0 -65 -31 -95t-75 -30q-33 0 -53 16q-21 17 -21 39q0 10 8 20q8 9 24 9q28 0 29 -31q1 -16 1 -35q0 -11 15 -11q16 0 25 27t9 92q0 57 -3 79t-19 22
q-14 0 -24 -7q-11 -7 -18 -18l-5 4l85 108h-55q-18 0 -23 -1q-7 -2 -12 -3q-4 -1 -7 -6q-1 -2 -3.5 -6t-3.5 -6h-7z" />
    <glyph glyph-name="acute" unicode="&#xb4;" horiz-adv-x="446" 
d="M170 519l61 117q11 21 23 33q11 11 27 11q17 0 27 -9t10 -26t-9 -30t-25 -25l-108 -75z" />
    <glyph glyph-name="paragraph" unicode="&#xb6;" horiz-adv-x="407" 
d="M205 413l-4 3q-41 0 -75 12t-60 35q-25 22 -40 54q-15 31 -15 72t15 71q15 29 41 51q25 20 60 31q33 10 77 10h186v-6q-10 -3 -17 -8q-6 -5 -9 -19q-2 -12 -4 -42q-1 -18 -1 -75v-411q0 -78 -9 -132q-9 -55 -28 -87q-20 -33 -51 -48t-75 -15t-63 17q-18 16 -18 38
q0 16 11 27t29 11t30 -12t21 -27t18 -27t23 -12q13 0 20 10q8 11 11 33q4 28 5 60q2 50 2 91v622h-57v-327h-23z" />
    <glyph glyph-name="periodcentered" unicode="&#xb7;" horiz-adv-x="199" 
d="M97 229v-1q-29 0 -48 18t-19 47t19 47t48 18q28 0 46 -18t18 -47q0 -28 -18 -46t-46 -18z" />
    <glyph glyph-name="cedilla" unicode="&#xb8;" horiz-adv-x="446" 
d="M238 0l-11 -31q30 -3 55 -20q24 -17 24 -45q0 -32 -33 -51t-111 -21l-1 8q20 6 29 9q14 5 24 9t17 11q6 6 6 14q0 14 -15 20q-17 7 -31 8l-3 5l39 84h11z" />
    <glyph glyph-name="onesuperior" unicode="&#xb9;" horiz-adv-x="176" 
d="M38 465l-1 6q4 1 10 3q5 2 6 9q2 10 2 21v37v203q0 20 -3 27t-18 7v6l94 61v-304v-37q0 -11 2 -21q2 -7 6 -9q6 -2 10 -3v-6h-108z" />
    <glyph glyph-name="ordmasculine" unicode="&#xba;" horiz-adv-x="283" 
d="M141 387l-2 -3q-17 0 -39 9t-42 30q-19 21 -33 56q-13 33 -13 87q0 55 14 92t33 59t42 31t39 9q18 0 40 -9q23 -9 42 -31q20 -23 33 -58q14 -37 14 -91t-13 -87q-13 -34 -33 -55q-19 -21 -42 -30t-40 -9zM139 391l-1 -2q8 0 16 9q7 9 12 29q5 23 8 53q3 33 3 83
q0 55 -3 91q-3 40 -7 57q-5 22 -12 29q-8 8 -16 8t-14 -8q-7 -9 -11 -28q-5 -25 -8 -57q-3 -36 -3 -91q0 -50 3 -83q3 -30 8 -53q4 -18 11 -28q6 -9 14 -9z" />
    <glyph glyph-name="guillemotright" unicode="&#xbb;" horiz-adv-x="279" 
d="M8 68l62 162l-61 162l7 4l134 -162v-8l-135 -162zM130 68l62 162l-61 162l7 4l135 -162v-8l-136 -162z" />
    <glyph glyph-name="onequarter" unicode="&#xbc;" horiz-adv-x="373" 
d="M245 -12v-1v-37q0 -12 2 -20q2 -7 4 -8t8 -3v-6h-98v6q6 2 8 3t4 8q2 8 2 20v38h-101v4l154 295h17v-248h43l-21 -51h-22zM175 38v128l-66 -128h66zM36 378h301v-8h-301v8zM134 464l-1 6q4 1 10 3q5 1 6 9q2 10 2 21v37v203q0 19 -3 27q-3 7 -18 7v6l94 61v-304v-37
q0 -11 2 -21q2 -8 6 -9q6 -2 10 -3v-6h-108z" />
    <glyph glyph-name="onehalf" unicode="&#xbd;" horiz-adv-x="373" 
d="M36 379h301v-8h-301v8zM134 465l-1 6q4 1 10 3q5 2 6 9q2 10 2 21v37v203q0 20 -3 27t-18 7v6l94 61v-304v-37q0 -11 2 -21q2 -7 6 -9q6 -2 10 -3v-6h-108zM203 -26l-5 -1h41q12 0 22 2q7 1 11 5t5 9h7l-17 -65q-2 -10 -4 -12q-3 -3 -6 -3h-172l52 93q32 55 47 101
q15 47 15 96q0 45 -6 62t-22 17q-15 0 -15 -14q0 -21 -1 -36q-2 -11 -9 -20q-8 -9 -21 -9t-21 9q-7 8 -7 21q0 26 24 41t52 15q14 0 32 -3t34 -13q17 -11 27 -27q11 -17 11 -44q0 -47 -28 -90q-29 -44 -84 -105l-30 -29h68z" />
    <glyph glyph-name="threequarters" unicode="&#xbe;" horiz-adv-x="373" 
d="M245 -12v-1v-37q0 -12 2 -20q2 -7 4 -8t8 -3v-6h-98v6q6 2 8 3t4 8q2 8 2 20v38h-101v4l154 295h17v-248h43l-21 -51h-22zM175 38v128l-66 -128h66zM36 378h301v-8h-301v8zM124 820l-8 -2q2 7 5 13q1 3 6 3h138v-3l-113 -142q12 6 26 6q15 0 33 -5q16 -4 30 -17
q13 -12 21 -33q8 -22 8 -53q0 -65 -31 -95t-75 -30q-33 0 -53 16q-21 16 -21 39q0 10 8 20q8 9 24 9q28 0 29 -31q1 -16 1 -35q0 -11 15 -11q16 0 25 27t9 92q0 56 -3 79q-3 22 -19 22q-14 0 -24 -7q-11 -8 -18 -18l-5 4l85 108h-55q-18 0 -23 -1q-7 -1 -12 -3q-4 -1 -7 -6
q-1 -2 -3.5 -6t-3.5 -6h-7z" />
    <glyph glyph-name="questiondown" unicode="&#xbf;" horiz-adv-x="296" 
d="M201 262l4 -2q0 -76 -10 -130q-11 -57 -24 -105q-13 -46 -24 -95t-11 -100q0 -64 6 -91t31 -27q11 0 16 4q6 4 9 12t3 18q0 6 2 26q2 27 13 41q12 15 34 14q20 -1 31 -13t10 -31q-2 -32 -33 -56q-32 -24 -85 -24q-67 0 -109 39t-42 110q0 38 12 69q11 30 30 61
q18 31 40 58q21 27 42 62q20 33 33 72q14 39 15 88h7zM191 474q28 0 46 -18t18 -46q0 -29 -18 -47t-46 -18t-46 18t-18 47q0 28 18 46t46 18z" />
    <glyph glyph-name="Agrave" unicode="&#xc0;" horiz-adv-x="348" 
d="M-3 5l-5 -2q8 5 14 12q7 9 11 22q4 14 9 38q7 35 11 59l14 92v1l58 381l-12 70q-6 40 -16 51q-11 12 -21 15v5h130q7 0 11 -2t5 -12l101 -609q11 -63 18 -89t23 -31v-6h-166v6q8 2 12 6q5 5 8 12q3 8 3 21t-3 36l-24 139h-115l-13 -84q-7 -43 -8 -61q-1 -24 3 -37
q5 -14 13 -21q9 -7 26 -12v-5h-87v5zM173 227l-60 350l-53 -350h113zM86 798h1q-50 12 -50 47q0 13 9 24t26 11q12 0 24 -5q10 -5 24 -15l94 -76l-3 -7z" />
    <glyph glyph-name="Aacute" unicode="&#xc1;" horiz-adv-x="348" 
d="M-3 5l-5 -2q8 5 14 12q7 9 11 22q4 14 9 38q7 35 11 59l14 92v1l58 381l-12 70q-6 40 -16 51q-11 12 -21 15v5h130q7 0 11 -2t5 -12l101 -609q11 -63 18 -89t23 -31v-6h-166v6q8 2 12 6q5 5 8 12q3 8 3 21t-3 36l-24 139h-115l-13 -84q-7 -43 -8 -61q-1 -24 3 -37
q5 -14 13 -21q9 -7 26 -12v-5h-87v5zM173 227l-60 350l-53 -350h113zM60 786l95 75q13 11 24 15q12 5 24 5q17 0 26 -10q9 -11 9 -24q0 -35 -50 -47l-125 -21z" />
    <glyph glyph-name="Acircumflex" unicode="&#xc2;" horiz-adv-x="348" 
d="M-3 5l-5 -2q8 5 14 12q7 9 11 22q4 14 9 38q7 35 11 59l14 92v1l58 381l-12 70q-6 40 -16 51q-11 12 -21 15v5h130q7 0 11 -2t5 -12l101 -609q11 -63 18 -89t23 -31v-6h-166v6q8 2 12 6q5 5 8 12q3 8 3 21t-3 36l-24 139h-115l-13 -84q-7 -43 -8 -61q-1 -24 3 -37
q5 -14 13 -21q9 -7 26 -12v-5h-87v5zM173 227l-60 350l-53 -350h113zM135 896l114 -113l-3 -6l-111 38l-111 -38l-2 6z" />
    <glyph glyph-name="Atilde" unicode="&#xc3;" horiz-adv-x="348" 
d="M-3 5l-5 -2q8 5 14 12q7 9 11 22q4 14 9 38q7 35 11 59l14 92v1l58 381l-12 70q-6 40 -16 51q-11 12 -21 15v5h130q7 0 11 -2t5 -12l101 -609q11 -63 18 -89t23 -31v-6h-166v6q8 2 12 6q5 5 8 12q3 8 3 21t-3 36l-24 139h-115l-13 -84q-7 -43 -8 -61q-1 -24 3 -37
q5 -14 13 -21q9 -7 26 -12v-5h-87v5zM173 227l-60 350l-53 -350h113zM103 860h-3q33 0 45 -1t35 -1q12 0 21 9q2 2 10.5 11t14.5 15l6 -2q-18 -95 -60 -95q-29 0 -39 1t-38 1q-9 0 -19 -8q-9 -8 -21 -24l-7 2q12 52 25 71q13 21 30 21z" />
    <glyph glyph-name="Adieresis" unicode="&#xc4;" horiz-adv-x="348" 
d="M-3 5l-5 -2q8 5 14 12q7 9 11 22q4 14 9 38q7 35 11 59l14 92v1l58 381l-12 70q-6 40 -16 51q-11 12 -21 15v5h130q7 0 11 -2t5 -12l101 -609q11 -63 18 -89t23 -31v-6h-166v6q8 2 12 6q5 5 8 12q3 8 3 21t-3 36l-24 139h-115l-13 -84q-7 -43 -8 -61q-1 -24 3 -37
q5 -14 13 -21q9 -7 26 -12v-5h-87v5zM173 227l-60 350l-53 -350h113zM203 782v-2q-23 0 -38 17t-15 39q0 23 15 38t38 15t38 -15t15 -37q0 -23 -15 -39t-38 -16zM71 780v-2q-23 0 -38 17t-15 39q0 23 15 38t38 15t38 -15t15 -37q0 -23 -15 -39t-38 -16z" />
    <glyph glyph-name="Aring" unicode="&#xc5;" horiz-adv-x="348" 
d="M-3 5l-5 -2q8 5 14 12q7 9 11 22q4 14 9 38q7 35 11 59l14 92v1l58 381l-12 70q-6 40 -16 51q-11 12 -21 15v5h130q7 0 11 -2t5 -12l101 -609q11 -63 18 -89t23 -31v-6h-166v6q8 2 12 6q5 5 8 12q3 8 3 21t-3 36l-24 139h-115l-13 -84q-7 -43 -8 -61q-1 -24 3 -37
q5 -14 13 -21q9 -7 26 -12v-5h-87v5zM173 227l-60 350l-53 -350h113zM54 840v-2q0 28 23 48t59 20q37 0 60 -20q22 -19 22 -48q0 -30 -22 -49t-60 -19t-60 19t-22 51zM102 838q0 -60 33 -60q34 0 34 60q0 29 -9 44t-25 15q-15 0 -24 -15t-9 -44z" />
    <glyph glyph-name="AE" unicode="&#xc6;" horiz-adv-x="488" 
d="M377 326l3 -5q-4 18 -7 27q-5 16 -10 24q-6 10 -17 18q-10 8 -27 12v-397q35 2 56 7q23 6 42 20q18 14 32 38q14 25 26 62h8l-13 -118q-2 -14 -6 -15q-6 -2 -12 -2h-289v6q10 3 17 8q6 4 9 20q2 12 4 42q1 18 1 74v77h-112l-22 -102q-9 -34 -12 -56q-3 -23 -2 -33
q2 -13 7 -18t17 -10v-5h-72v5q10 6 14 10q6 6 12 18t12 33q8 27 14 56l123 555q4 24 5 29q1 12 0 19q-2 7 -9 12q-7 4 -22 7v7h277q8 0 11 -3t6 -19l18 -103h-8q-23 58 -54 84q-32 26 -82 30v-317q17 5 27 12q11 8 17 18q7 13 11 24q3 9 7 27h6v-178h-6zM194 229v502
l-110 -502h110z" />
    <glyph glyph-name="Ccedilla" unicode="&#xc7;" horiz-adv-x="354" 
d="M239 -11h-4q-36 0 -75 17q-38 16 -69 60t-51 120q-19 75 -19 195q0 110 18 182q19 74 46 116q29 44 63 62q35 18 68 18q21 0 36 -9t31 -9q26 0 33 28h7v-172h-7q-14 48 -27 77q-13 30 -26 47t-24 23q-12 6 -22 6q-13 0 -25 -18t-21 -60q-10 -45 -14 -111q-5 -77 -5 -171
q0 -119 7 -188q7 -74 21 -117q14 -44 34 -60q22 -17 47 -17q35 0 71 42l6 -6q-13 -19 -39 -37q-25 -18 -60 -18zM165 0l-11 -31q30 -3 55 -20q24 -17 24 -45q0 -32 -33 -51t-111 -21l-1 8q20 6 29 9q13 5 24 9t17 11q6 6 6 14q0 14 -15 20q-17 7 -31 8l-3 5l39 84h11z" />
    <glyph glyph-name="Egrave" unicode="&#xc8;" horiz-adv-x="362" 
d="M18 6l-3 -3q10 3 17 8q6 4 9 20q2 12 4 42q1 18 1 74v454q0 56 -1 74q-2 30 -4 42q-3 16 -9 20q-7 5 -17 8v6h277q8 0 11 -3t6 -19l18 -103h-8q-11 30 -24 51t-31 34q-18 14 -40 21q-23 8 -52 9v-318q20 3 33 11t20 18t12 24q3 9 7 27h5v-178h-5q-4 18 -7 27
q-5 14 -12 24t-20 18t-33 11v-398q40 2 64 7q27 6 47 20t35 38t27 63h8l-13 -118q-2 -13 -6 -15q-6 -2 -12 -2h-304v6zM122 797h1q-50 12 -50 47q0 14 9 24q9 11 26 11q12 0 24 -5q10 -4 24 -15l94 -76l-3 -7z" />
    <glyph glyph-name="Eacute" unicode="&#xc9;" horiz-adv-x="362" 
d="M18 6l-3 -3q10 3 17 8q6 4 9 20q2 12 4 42q1 18 1 74v454q0 56 -1 74q-2 30 -4 42q-3 16 -9 20q-7 5 -17 8v6h277q8 0 11 -3t6 -19l18 -103h-8q-11 30 -24 51t-31 34q-18 14 -40 21q-23 8 -52 9v-318q20 3 33 11t20 18t12 24q3 9 7 27h5v-178h-5q-4 18 -7 27
q-5 14 -12 24t-20 18t-33 11v-398q40 2 64 7q27 6 47 20t35 38t27 63h8l-13 -118q-2 -13 -6 -15q-6 -2 -12 -2h-304v6zM91 783l95 75q14 10 24 15q12 5 24 5q17 0 26 -10t9 -24q0 -35 -50 -47l-125 -21z" />
    <glyph glyph-name="Ecircumflex" unicode="&#xca;" horiz-adv-x="362" 
d="M18 6l-3 -3q10 3 17 8q6 4 9 20q2 12 4 42q1 18 1 74v454q0 56 -1 74q-2 30 -4 42q-3 16 -9 20q-7 5 -17 8v6h277q8 0 11 -3t6 -19l18 -103h-8q-11 30 -24 51t-31 34q-18 14 -40 21q-23 8 -52 9v-318q20 3 33 11t20 18t12 24q3 9 7 27h5v-178h-5q-4 18 -7 27
q-5 14 -12 24t-20 18t-33 11v-398q40 2 64 7q27 6 47 20t35 38t27 63h8l-13 -118q-2 -13 -6 -15q-6 -2 -12 -2h-304v6zM166 895l114 -113l-3 -6l-111 38l-111 -38l-2 6z" />
    <glyph glyph-name="Edieresis" unicode="&#xcb;" horiz-adv-x="362" 
d="M18 6l-3 -3q10 3 17 8q6 4 9 20q2 12 4 42q1 18 1 74v454q0 56 -1 74q-2 30 -4 42q-3 16 -9 20q-7 5 -17 8v6h277q8 0 11 -3t6 -19l18 -103h-8q-11 30 -24 51t-31 34q-18 14 -40 21q-23 8 -52 9v-318q20 3 33 11t20 18t12 24q3 9 7 27h5v-178h-5q-4 18 -7 27
q-5 14 -12 24t-20 18t-33 11v-398q40 2 64 7q27 6 47 20t35 38t27 63h8l-13 -118q-2 -13 -6 -15q-6 -2 -12 -2h-304v6zM232 781v-2q-23 0 -38 17q-15 16 -15 39t15 38t38 15t38 -15t15 -37t-15 -39q-15 -16 -38 -16zM100 779v-2q-23 0 -38 17q-15 16 -15 39t15 38t38 15
t38 -15t15 -37t-15 -39q-15 -16 -38 -16z" />
    <glyph glyph-name="Igrave" unicode="&#xcc;" horiz-adv-x="222" 
d="M18 6v-2q10 3 17 8q6 4 9 20q2 12 4 42q1 18 1 74v454q0 56 -1 74q-2 31 -4 41q-3 13 -9 18q-7 5 -17 8v6h186v-6q-10 -3 -17 -8q-6 -5 -9 -18q-2 -10 -4 -41q-1 -18 -1 -74v-454q0 -55 1 -73q2 -30 4 -42q3 -14 9 -19q7 -5 17 -8v-6h-186v6zM62 798h1q-50 12 -50 47
q0 13 9 24t26 11q12 0 24 -5q10 -5 24 -15l94 -76l-3 -7z" />
    <glyph glyph-name="Iacute" unicode="&#xcd;" horiz-adv-x="222" 
d="M18 6v-2q10 3 17 8q6 4 9 20q2 12 4 42q1 18 1 74v454q0 56 -1 74q-2 31 -4 41q-3 13 -9 18q-7 5 -17 8v6h186v-6q-10 -3 -17 -8q-6 -5 -9 -18q-2 -10 -4 -41q-1 -18 -1 -74v-454q0 -55 1 -73q2 -30 4 -42q3 -14 9 -19q7 -5 17 -8v-6h-186v6zM31 784l95 75q14 11 24 15
q12 5 24 5q17 0 26 -10q9 -11 9 -24q0 -35 -50 -47l-125 -21z" />
    <glyph glyph-name="Icircumflex" unicode="&#xce;" horiz-adv-x="222" 
d="M18 6v-2q10 3 17 8q6 4 9 20q2 12 4 42q1 18 1 74v454q0 56 -1 74q-2 31 -4 41q-3 13 -9 18q-7 5 -17 8v6h186v-6q-10 -3 -17 -8q-6 -5 -9 -18q-2 -10 -4 -41q-1 -18 -1 -74v-454q0 -55 1 -73q2 -30 4 -42q3 -14 9 -19q7 -5 17 -8v-6h-186v6zM110 896l114 -113l-3 -6
l-111 38l-111 -38l-2 6z" />
    <glyph glyph-name="Idieresis" unicode="&#xcf;" horiz-adv-x="222" 
d="M178 784v-2q-23 0 -38 17t-15 39q0 23 15 38t38 15t38 -15t15 -37q0 -23 -15 -39t-38 -16zM44 782v-2q-23 0 -38 17t-15 39q0 23 15 38t38 15t38 -15t15 -37q0 -23 -15 -39t-38 -16zM18 2v-2q10 3 17 8q6 4 9 20q2 12 4 42q1 18 1 74v454q0 56 -1 74q-2 31 -4 41
q-3 13 -9 18q-7 5 -17 8v6h186v-6q-10 -3 -17 -8q-6 -5 -9 -18q-2 -10 -4 -41q-1 -18 -1 -74v-454q0 -55 1 -73q2 -30 4 -42q3 -14 9 -19q7 -5 17 -8v-6h-186v6z" />
    <glyph glyph-name="Eth" unicode="&#xd0;" horiz-adv-x="451" 
d="M17 6l-1 -4q10 3 17 8q6 4 9 20q2 12 4 42q1 18 1 74v239h-48v8h48v207q0 56 -1 74q-2 30 -4 42q-3 16 -9 20q-7 5 -17 8v6h171q47 0 90 -21q44 -21 77 -66q34 -46 53 -114q20 -71 20 -164q0 -89 -17 -163q-16 -71 -48 -121q-32 -49 -75 -75q-44 -26 -99 -26h-171v6z
M187 4l1 1q26 0 45 19q19 20 33 63q13 43 21 116q8 77 8 179q0 111 -12 180q-12 67 -29 108q-17 39 -35 53q-19 14 -32 14h-15v-346h73v-8h-73v-379h15z" />
    <glyph glyph-name="Ntilde" unicode="&#xd1;" horiz-adv-x="401" 
d="M18 6l-2 -3q11 9 17 17t9 22q2 12 4 40q1 17 1 69v450q0 56 -1 74q-2 30 -4 42q-3 16 -9 20q-7 5 -17 8v6h136q19 0 24 -4q6 -5 12 -21l159 -437v309q0 52 -1 69q-2 28 -4 40q-3 14 -11 22q-9 9 -21 17v6h79v-6q-13 -11 -17 -16q-6 -8 -9 -22q-2 -12 -4 -40
q-1 -17 -1 -69v-601h-25l-273 722v-567q0 -52 1 -69q1 -21 5 -40q3 -14 11 -22q6 -6 21 -16v-6h-80v6zM207 859h-3q33 0 45 -1t35 -1q12 0 21 9q2 2 10.5 11t14.5 15l6 -2q-18 -95 -60 -95q-29 0 -39 1t-38 1q-9 0 -19 -8q-9 -7 -21 -24l-7 2q12 52 25 71q13 21 30 21z" />
    <glyph glyph-name="Ograve" unicode="&#xd2;" horiz-adv-x="440" 
d="M220 -12v-3q-36 0 -71 26q-35 25 -63 75q-28 49 -45 122q-17 74 -17 167q0 95 17 169q16 70 44 120q27 48 63 72t72 24t72 -24t63 -72q28 -50 44 -120q17 -74 17 -169q0 -92 -17 -166q-16 -70 -44 -121q-27 -50 -63 -75q-35 -25 -72 -25zM220 -5l-1 -1q39 0 51 97
q11 93 13 282q1 185 -15 279q-17 95 -48 95q-33 0 -48 -94q-15 -95 -15 -279t12 -282q12 -97 51 -97zM170 796h1q-50 12 -50 47q0 13 9 24t26 11q12 0 24 -5q10 -5 24 -15l94 -76l-3 -7z" />
    <glyph glyph-name="Oacute" unicode="&#xd3;" horiz-adv-x="440" 
d="M220 -12v-3q-36 0 -71 26q-35 25 -63 75q-28 49 -45 122q-17 74 -17 167q0 95 17 169q16 70 44 120q27 48 63 72t72 24t72 -24t63 -72q28 -50 44 -120q17 -74 17 -169q0 -92 -17 -166q-16 -70 -44 -121q-27 -50 -63 -75q-35 -25 -72 -25zM220 -5l-1 -1q39 0 51 97
q11 93 13 282q1 185 -15 279q-17 95 -48 95q-33 0 -48 -94q-15 -95 -15 -279t12 -282q12 -97 51 -97zM140 782l95 75q13 11 24 15q12 5 24 5q17 0 26 -10q9 -11 9 -24q0 -35 -50 -47l-125 -21z" />
    <glyph glyph-name="Ocircumflex" unicode="&#xd4;" horiz-adv-x="440" 
d="M220 -12v-3q-36 0 -71 26q-35 25 -63 75q-28 49 -45 122q-17 74 -17 167q0 95 17 169q16 70 44 120q27 48 63 72t72 24t72 -24t63 -72q28 -50 44 -120q17 -74 17 -169q0 -92 -17 -166q-16 -70 -44 -121q-27 -50 -63 -75q-35 -25 -72 -25zM220 -5l-1 -1q39 0 51 97
q11 93 13 282q1 185 -15 279q-17 95 -48 95q-33 0 -48 -94q-15 -95 -15 -279t12 -282q12 -97 51 -97zM219 894l114 -113l-3 -6l-111 38l-111 -38l-2 6z" />
    <glyph glyph-name="Otilde" unicode="&#xd5;" horiz-adv-x="440" 
d="M220 -12v-3q-36 0 -71 26q-35 25 -63 75q-28 49 -45 122q-17 74 -17 167q0 95 17 169q16 70 44 120q27 48 63 72t72 24t72 -24t63 -72q28 -50 44 -120q17 -74 17 -169q0 -92 -17 -166q-16 -70 -44 -121q-27 -50 -63 -75q-35 -25 -72 -25zM220 -5l-1 -1q39 0 51 97
q11 93 13 282q1 185 -15 279q-17 95 -48 95q-33 0 -48 -94q-15 -95 -15 -279t12 -282q12 -97 51 -97zM186 858h-3q33 0 45 -1t35 -1q12 0 21 9q2 2 10.5 11t14.5 15l6 -2q-18 -95 -60 -95q-29 0 -39 1t-38 1q-9 0 -19 -8q-9 -8 -21 -24l-7 2q12 52 25 71q14 21 30 21z" />
    <glyph glyph-name="Odieresis" unicode="&#xd6;" horiz-adv-x="440" 
d="M220 -12v-3q-36 0 -71 26q-35 25 -63 75q-28 49 -45 122q-17 74 -17 167q0 95 17 169q16 70 44 120q27 48 63 72t72 24t72 -24t63 -72q28 -50 44 -120q17 -74 17 -169q0 -92 -17 -166q-16 -70 -44 -121q-27 -50 -63 -75q-35 -25 -72 -25zM220 -5l-1 -1q39 0 51 97
q11 93 13 282q1 185 -15 279q-17 95 -48 95q-33 0 -48 -94q-15 -95 -15 -279t12 -282q12 -97 51 -97zM286 780v-2q-23 0 -38 17t-15 39q0 23 15 38t38 15t38 -15t15 -37q0 -23 -15 -39t-38 -16zM154 778v-2q-23 0 -38 17t-15 39q0 23 15 38t38 15t38 -15t15 -37
q0 -23 -15 -39t-38 -16z" />
    <glyph glyph-name="multiply" unicode="&#xd7;" horiz-adv-x="276" 
d="M129 354l-104 113l9 9l103 -113l106 116l9 -9l-107 -115l107 -117l-9 -8l-106 115l-106 -114l-8 8z" />
    <glyph glyph-name="Oslash" unicode="&#xd8;" horiz-adv-x="441" 
d="M220 -12l1 -1q-43 0 -84 36l-12 -48l-10 3l13 53q-42 44 -73 131q-30 86 -30 213q0 95 17 169q16 70 44 120q27 48 63 72t72 24q45 0 85 -34l10 41l10 -4l-11 -45q44 -42 72 -127q29 -87 29 -216q0 -92 -17 -166q-16 -70 -44 -121q-27 -50 -63 -75q-35 -25 -72 -25z
M157 375l-1 -1q0 -80 1 -115q2 -65 4 -96l114 444q-15 141 -55 141q-33 0 -48 -94t-15 -279zM220 -4l-1 -1q39 0 51 97q11 93 13 282q0 118 -6 201l-114 -445q7 -65 21 -100q13 -34 36 -34z" />
    <glyph glyph-name="Ugrave" unicode="&#xd9;" horiz-adv-x="380" 
d="M201 -13l-1 -4q-76 0 -117 40q-42 41 -42 129v447q0 56 -1 74q-2 31 -4 41q-3 14 -9 18q-7 6 -16 8v6h183v-6q-10 -3 -17 -8q-6 -4 -9 -18q-2 -10 -4 -41q-1 -18 -1 -74v-457q0 -30 2 -66q1 -25 8 -45q6 -17 18 -25q11 -7 31 -7q49 0 76 38q27 37 27 111v448q0 52 -1 69
q-2 28 -4 40q-3 14 -11 22q-9 9 -21 17v6h80v-6q-13 -11 -17 -16q-6 -8 -9 -22q-2 -12 -4 -40q-1 -17 -1 -69v-448q0 -79 -31 -120q-32 -42 -105 -42zM179 796h1q-50 12 -50 47q0 13 9 24t26 11q12 0 24 -5q11 -5 24 -15l94 -76l-3 -7z" />
    <glyph glyph-name="Uacute" unicode="&#xda;" horiz-adv-x="380" 
d="M201 -13l-1 -4q-76 0 -117 40q-42 41 -42 129v447q0 56 -1 74q-2 31 -4 41q-3 14 -9 18q-7 6 -16 8v6h183v-6q-10 -3 -17 -8q-6 -4 -9 -18q-2 -10 -4 -41q-1 -18 -1 -74v-457q0 -30 2 -66q1 -25 8 -45q6 -17 18 -25q11 -7 31 -7q49 0 76 38q27 37 27 111v448q0 52 -1 69
q-2 28 -4 40q-3 14 -11 22q-9 9 -21 17v6h80v-6q-13 -11 -17 -16q-6 -8 -9 -22q-2 -12 -4 -40q-1 -17 -1 -69v-448q0 -79 -31 -120q-32 -42 -105 -42zM146 782l95 75q13 11 24 15q12 5 24 5q17 0 26 -10q9 -11 9 -24q0 -35 -50 -47l-125 -21z" />
    <glyph glyph-name="Ucircumflex" unicode="&#xdb;" horiz-adv-x="380" 
d="M201 -13l-1 -4q-76 0 -117 40q-42 41 -42 129v447q0 56 -1 74q-2 31 -4 41q-3 14 -9 18q-7 6 -16 8v6h183v-6q-10 -3 -17 -8q-6 -4 -9 -18q-2 -10 -4 -41q-1 -18 -1 -74v-457q0 -30 2 -66q1 -25 8 -45q6 -17 18 -25q11 -7 31 -7q49 0 76 38q27 37 27 111v448q0 52 -1 69
q-2 28 -4 40q-3 14 -11 22q-9 9 -21 17v6h80v-6q-13 -11 -17 -16q-6 -8 -9 -22q-2 -12 -4 -40q-1 -17 -1 -69v-448q0 -79 -31 -120q-32 -42 -105 -42zM223 894l114 -113l-3 -6l-111 38l-111 -38l-2 6z" />
    <glyph glyph-name="Udieresis" unicode="&#xdc;" horiz-adv-x="380" 
d="M201 -13l-1 -4q-76 0 -117 40q-42 41 -42 129v447q0 56 -1 74q-2 31 -4 41q-3 14 -9 18q-7 6 -16 8v6h183v-6q-10 -3 -17 -8q-6 -4 -9 -18q-2 -10 -4 -41q-1 -18 -1 -74v-457q0 -30 2 -66q1 -25 8 -45q6 -17 18 -25q11 -7 31 -7q49 0 76 38q27 37 27 111v448q0 52 -1 69
q-2 28 -4 40q-3 14 -11 22q-9 9 -21 17v6h80v-6q-13 -11 -17 -16q-6 -8 -9 -22q-2 -12 -4 -40q-1 -17 -1 -69v-448q0 -79 -31 -120q-32 -42 -105 -42zM288 780v-2q-23 0 -38 17t-15 39q0 23 15 38t38 15t38 -15t15 -37q0 -23 -15 -39t-38 -16zM156 778v-2q-23 0 -38 17
t-15 39q0 23 15 38t38 15t38 -15t15 -37q0 -23 -15 -39t-38 -16z" />
    <glyph glyph-name="Yacute" unicode="&#xdd;" horiz-adv-x="349" 
d="M91 6l1 -1q10 3 17 8q6 4 9 20q2 12 4 42q1 18 1 74v245l-70 235q-8 36 -20 67q-11 28 -33 50v6h179v-6q-21 -7 -19 -26t9 -47l72 -257l46 210q9 34 12 56q3 21 0 33t-12 18q-10 7 -27 11v6h90v-6q-10 -5 -16 -10q-7 -7 -11 -18q-7 -18 -11 -33q-5 -18 -15 -59l-51 -222
v-254q0 -55 1 -73q2 -30 4 -42q3 -14 9 -19q7 -5 17 -8v-6h-186v6zM133 785l95 75q14 10 24 15q12 5 24 5q17 0 26 -10t9 -24q0 -35 -50 -47l-125 -21z" />
    <glyph glyph-name="Thorn" unicode="&#xde;" horiz-adv-x="390" 
d="M18 6l1 -2q10 3 17 8q6 4 9 20q2 12 4 42q1 18 1 74v454q0 56 -1 74q-2 31 -4 41q-3 13 -9 18q-7 5 -17 8v6h186v-6q-10 -3 -17 -8q-6 -5 -9 -18q-2 -10 -4 -41q-1 -18 -1 -74v-5h15q44 0 80 -9q37 -9 62 -30q26 -21 39 -55q14 -36 14 -87q0 -104 -54 -154
q-53 -49 -144 -49h-13v-65q0 -55 1 -73q2 -30 4 -42q3 -14 9 -19q7 -5 17 -8v-6h-186v6zM173 586v-366h10q19 0 33 10q16 11 26 33q11 24 17 57q6 34 6 84q0 52 -6 87q-6 37 -16 56q-11 21 -25 30q-15 9 -31 9h-14z" />
    <glyph glyph-name="germandbls" unicode="&#xdf;" horiz-adv-x="404" 
d="M150 90l-6 -6v-41q0 -15 3 -24t9 -12q7 -3 16 -6v-6h-159v6q10 3 14 6t7 12t3 24v41v365h-49v8q32 3 41 12t9 28v62q0 54 16 90q16 37 41 62t54 35q31 11 57 11q24 0 46 -7q23 -7 43 -21q19 -13 33 -35q13 -20 13 -50q0 -27 -12 -48q-13 -22 -28 -39q-22 -24 -34 -36
q-18 -18 -30 -39q-7 -15 -7 -33v-27q0 -28 15 -62t56 -83q31 -35 49 -61t27 -45q10 -21 11 -36q2 -22 2 -33q0 -29 -12 -50q-12 -22 -30 -35q-19 -14 -37 -21t-36 -7q-13 0 -21 3q-5 2 -13 8q-4 3 -10 9q-4 4 -12 4q-7 0 -10 -6q-4 -8 -5 -12h-8v122h7q13 -59 30 -90
q16 -31 45 -31q14 0 21 15q8 16 8 38q0 13 -3 27q-3 16 -10 30q-7 15 -21 37q-11 18 -38 51q-22 27 -33 46q-12 21 -18 39q-7 20 -8 34q-2 22 -2 33q0 24 6 44q6 21 15 38q8 16 20 33q10 14 18 32q18 31 21 62q3 30 3 65v58q0 24 -5 42q-4 16 -14 24t-28 8q-30 0 -45 -31
t-15 -108v-523z" />
    <glyph glyph-name="agrave" unicode="&#xe0;" 
d="M109 -8l-5 -9q-38 0 -62 27t-24 78q0 36 17 61q16 23 39 40q19 14 47 28q24 12 41 26l-6 -4q4 4 12 10q7 5 11 12q5 9 8 18q3 11 3 30v85q0 43 -7 54q-8 12 -28 12q-11 0 -21 -12t-21 -50q-5 -16 -12 -27q-8 -11 -27 -11q-17 0 -28 11q-10 10 -10 26q0 13 6 27t21 24
q15 11 37 18q21 7 56 7q25 0 53 -5q25 -4 46 -18q21 -13 33 -38q12 -24 12 -63v-218v-64q0 -24 3 -36t7 -15t12 -3q11 0 17 6l3 -6q-6 -5 -21 -12q-14 -7 -46 -7q-35 0 -54 12t-25 35q-23 -28 -39 -38q-17 -11 -48 -11zM124 111v1q0 -52 9 -78t24 -26q2 0 8 6q1 1 9 9.5
t16 16.5q-1 3 -1 12v207q-5 -12 -13 -18q-12 -8 -18 -13l6 3q-14 -13 -21 -22q-7 -11 -12 -24q-5 -14 -6 -31q-1 -12 -1 -43zM112 582h2q-16 12 -25 25t-9 30t10 26t27 9q16 0 27 -11q12 -12 23 -33l59 -117l-6 -4z" />
    <glyph glyph-name="aacute" unicode="&#xe1;" 
d="M109 -8l-5 -9q-38 0 -62 27t-24 78q0 36 17 61q16 23 39 40q19 14 47 28q24 12 41 26l-6 -4q4 4 12 10q7 5 11 12q5 9 8 18q3 11 3 30v85q0 43 -7 54q-8 12 -28 12q-11 0 -21 -12t-21 -50q-5 -16 -12 -27q-8 -11 -27 -11q-17 0 -28 11q-10 10 -10 26q0 13 6 27t21 24
q15 11 37 18q21 7 56 7q25 0 53 -5q25 -4 46 -18q21 -13 33 -38q12 -24 12 -63v-218v-64q0 -24 3 -36t7 -15t12 -3q11 0 17 6l3 -6q-6 -5 -21 -12q-14 -7 -46 -7q-35 0 -54 12t-25 35q-23 -28 -39 -38q-17 -11 -48 -11zM124 111v1q0 -52 9 -78t24 -26q2 0 8 6q1 1 9 9.5
t16 16.5q-1 3 -1 12v207q-5 -12 -13 -18q-12 -8 -18 -13l6 3q-14 -13 -21 -22q-7 -11 -12 -24q-5 -14 -6 -31q-1 -12 -1 -43zM112 511l61 117q11 21 23 33q11 11 27 11q17 0 27 -9t10 -26t-9 -30t-25 -25l-108 -75z" />
    <glyph glyph-name="acircumflex" unicode="&#xe2;" 
d="M109 -8l-5 -9q-38 0 -62 27t-24 78q0 36 17 61q16 23 39 40q19 14 47 28q24 12 41 26l-6 -4q4 4 12 10q7 5 11 12q5 9 8 18q3 11 3 30v85q0 43 -7 54q-8 12 -28 12q-11 0 -21 -12t-21 -50q-5 -16 -12 -27q-8 -11 -27 -11q-17 0 -28 11q-10 10 -10 26q0 13 6 27t21 24
q15 11 37 18q21 7 56 7q25 0 53 -5q25 -4 46 -18q21 -13 33 -38q12 -24 12 -63v-218v-64q0 -24 3 -36t7 -15t12 -3q11 0 17 6l3 -6q-6 -5 -21 -12q-14 -7 -46 -7q-35 0 -54 12t-25 35q-23 -28 -39 -38q-17 -11 -48 -11zM124 111v1q0 -52 9 -78t24 -26q2 0 8 6q1 1 9 9.5
t16 16.5q-1 3 -1 12v207q-5 -12 -13 -18q-12 -8 -18 -13l6 3q-14 -13 -21 -22q-7 -11 -12 -24q-5 -14 -6 -31q-1 -12 -1 -43zM162 680l99 -171l-7 -4l-92 61l-92 -61l-7 4z" />
    <glyph glyph-name="atilde" unicode="&#xe3;" 
d="M109 -8l-5 -9q-38 0 -62 27t-24 78q0 36 17 61q16 23 39 40q19 14 47 28q24 12 41 26l-6 -4q4 4 12 10q7 5 11 12q5 9 8 18q3 11 3 30v85q0 43 -7 54q-8 12 -28 12q-11 0 -21 -12t-21 -50q-5 -16 -12 -27q-8 -11 -27 -11q-17 0 -28 11q-10 10 -10 26q0 13 6 27t21 24
q15 11 37 18q21 7 56 7q25 0 53 -5q25 -4 46 -18q21 -13 33 -38q12 -24 12 -63v-218v-64q0 -24 3 -36t7 -15t12 -3q11 0 17 6l3 -6q-6 -5 -21 -12q-14 -7 -46 -7q-35 0 -54 12t-25 35q-23 -28 -39 -38q-17 -11 -48 -11zM124 111v1q0 -52 9 -78t24 -26q2 0 8 6q1 1 9 9.5
t16 16.5q-1 3 -1 12v207q-5 -12 -13 -18q-12 -8 -18 -13l6 3q-14 -13 -21 -22q-7 -11 -12 -24q-5 -14 -6 -31q-1 -12 -1 -43zM129 613h-1q22 0 41 -3t36 -3q11 0 20 11q9 10 24 27l7 -3q-10 -43 -23 -72q-12 -27 -35 -27q-20 0 -39 3t-39 3q-11 0 -18 -10q-8 -11 -24 -27
l-6 3q14 49 25 72q12 26 32 26z" />
    <glyph glyph-name="adieresis" unicode="&#xe4;" 
d="M109 -8l-5 -9q-38 0 -62 27t-24 78q0 36 17 61q16 23 39 40q19 14 47 28q24 12 41 26l-6 -4q4 4 12 10q7 5 11 12q5 9 8 18q3 11 3 30v85q0 43 -7 54q-8 12 -28 12q-11 0 -21 -12t-21 -50q-5 -16 -12 -27q-8 -11 -27 -11q-17 0 -28 11q-10 10 -10 26q0 13 6 27t21 24
q15 11 37 18q21 7 56 7q25 0 53 -5q25 -4 46 -18q21 -13 33 -38q12 -24 12 -63v-218v-64q0 -24 3 -36t7 -15t12 -3q11 0 17 6l3 -6q-6 -5 -21 -12q-14 -7 -46 -7q-35 0 -54 12t-25 35q-23 -28 -39 -38q-17 -11 -48 -11zM124 111v1q0 -52 9 -78t24 -26q2 0 8 6q1 1 9 9.5
t16 16.5q-1 3 -1 12v207q-5 -12 -13 -18q-12 -8 -18 -13l6 3q-14 -13 -21 -22q-7 -11 -12 -24q-5 -14 -6 -31q-1 -12 -1 -43zM231 520v-1q-23 0 -38 16q-15 17 -15 40t15 38t38 15t38 -15t15 -37q0 -24 -15 -40t-38 -16zM91 519v-1q-23 0 -38 16q-15 17 -15 40t15 38t38 15
t38 -15t15 -37q0 -23 -15 -40q-15 -16 -38 -16z" />
    <glyph glyph-name="aring" unicode="&#xe5;" 
d="M109 -8l-5 -9q-38 0 -62 27t-24 78q0 36 17 61q16 23 39 40q19 14 47 28q24 12 41 26l-6 -4q4 4 12 10q7 5 11 12q5 9 8 18q3 11 3 30v85q0 43 -7 54q-8 12 -28 12q-11 0 -21 -12t-21 -50q-5 -16 -12 -27q-8 -11 -27 -11q-17 0 -28 11q-10 10 -10 26q0 13 6 27t21 24
q15 11 37 18q21 7 56 7q25 0 53 -5q25 -4 46 -18q21 -13 33 -38q12 -24 12 -63v-218v-64q0 -24 3 -36t7 -15t12 -3q11 0 17 6l3 -6q-6 -5 -21 -12q-14 -7 -46 -7q-35 0 -54 12t-25 35q-23 -28 -39 -38q-17 -11 -48 -11zM124 111v1q0 -52 9 -78t24 -26q2 0 8 6q1 1 9 9.5
t16 16.5q-1 3 -1 12v207q-5 -12 -13 -18q-12 -8 -18 -13l6 3q-14 -13 -21 -22q-7 -11 -12 -24q-5 -14 -6 -31q-1 -12 -1 -43zM85 583h-2q0 29 22 48q23 20 55 20t55 -20q22 -19 22 -48q0 -31 -21 -51q-20 -19 -55 -19t-55 19q-21 20 -21 51zM132 583l1 -1q0 -29 8 -45
q7 -15 20 -15q14 0 21 16q8 18 8 45q0 29 -9 44t-21 15q-10 0 -19 -15t-9 -44z" />
    <glyph glyph-name="ae" unicode="&#xe6;" horiz-adv-x="493" 
d="M111 -8l-5 -11q-38 0 -64 27q-25 26 -25 78q0 36 17 61q16 23 39 40q19 14 47 28q24 12 41 26l-6 -4q4 4 12 10q7 5 11 12q5 9 8 18q3 11 3 30v85q0 43 -7 54q-7 12 -28 12q-10 0 -21 -12q-10 -12 -21 -50q-4 -16 -12 -27t-27 -11q-17 0 -28 11q-10 10 -10 26q0 13 6 27
t21 24q15 11 37 18q21 7 56 7q31 0 61 -6q29 -6 51 -26q18 17 36 24q19 8 35 8q37 0 62 -14t38 -36q14 -23 18 -51q5 -32 5 -57h-155q-1 -9 -1 -27v-30q0 -38 2 -98q1 -45 9 -78q7 -32 21 -52q13 -19 38 -19q29 0 45 11t23 21l6 -7q-7 -7 -11 -12q-6 -7 -16 -13
q-9 -5 -25 -10q-13 -4 -34 -4q-42 0 -78 17q-35 16 -57 57l-7 -8q-13 -14 -33 -34q-14 -13 -24 -21q-11 -8 -23 -11t-30 -3zM335 454v-3q-7 0 -13 -6q-5 -5 -10 -21q-4 -12 -7 -42q-2 -20 -4 -68h59q2 68 0 104t-25 36zM124 106v-1q0 -53 9 -78q9 -26 23 -26q4 0 15 11
l42 44l5 6q-14 29 -21 67q-8 42 -8 90v35q-5 -12 -13 -18q-12 -8 -18 -13l6 3q-14 -13 -21 -22q-7 -10 -12 -24t-6 -31q-1 -12 -1 -43z" />
    <glyph glyph-name="ccedilla" unicode="&#xe7;" horiz-adv-x="297" 
d="M192 -4l-5 -6q-34 0 -65 14q-30 14 -54 42q-23 28 -37 73q-13 43 -13 106q0 66 16 111q17 47 40 76q24 30 50 44t47 14q18 0 38 -5q18 -4 32 -14q14 -9 23 -23t9 -30q0 -17 -10 -26q-11 -9 -27 -9q-20 0 -32 12t-15 40q-1 8 -2 21t-2 17q-2 11 -12 11q-13 0 -20 -16
t-12 -45t-6 -67q-1 -26 -1 -82q0 -112 18 -177q18 -64 57 -64q26 0 42 13q17 14 27 24l7 -7l-13 -13q-8 -8 -18 -15q-8 -6 -26 -13q-15 -6 -36 -6zM167 -3l-11 -31q30 -3 55 -20q24 -16 24 -45q0 -31 -33 -51t-111 -21l-1 8q20 6 29 9q13 4 24 9t17 11t6 14q0 14 -15 20
q-17 7 -31 8l-3 5l39 84h11z" />
    <glyph glyph-name="egrave" unicode="&#xe8;" horiz-adv-x="310" 
d="M189 -4h-3q-38 0 -69 12t-54 41q-23 30 -35 73q-12 45 -12 110q0 63 15 108q15 46 37 75q23 31 48 44q26 14 47 14q38 0 63 -14t38 -36q14 -23 18 -51q5 -32 5 -57h-157q-1 -9 -1 -27v-30q0 -38 2 -98q1 -45 9 -78t22 -52q15 -19 39 -19q29 0 46 11q15 10 25 21l5 -7
q-9 -10 -28 -25t-60 -15zM161 465v-3q-7 0 -13 -6q-5 -5 -10 -21q-4 -12 -7 -42q-2 -20 -4 -68h61v60q0 32 -1 44q-1 17 -8 27q-6 9 -18 9zM110 587h2q-16 12 -25 25q-9 14 -9 30q0 17 10 26t27 9q16 0 27 -11q12 -12 23 -33l59 -117l-6 -4z" />
    <glyph glyph-name="eacute" unicode="&#xe9;" horiz-adv-x="310" 
d="M189 -4h-3q-38 0 -69 12t-54 41q-23 30 -35 73q-12 45 -12 110q0 63 15 108q15 46 37 75q23 31 48 44q26 14 47 14q38 0 63 -14t38 -36q14 -23 18 -51q5 -32 5 -57h-157q-1 -9 -1 -27v-30q0 -38 2 -98q1 -45 9 -78t22 -52q15 -19 39 -19q29 0 46 11q15 10 25 21l5 -7
q-9 -10 -28 -25t-60 -15zM161 465v-3q-7 0 -13 -6q-5 -5 -10 -21q-4 -12 -7 -42q-2 -20 -4 -68h61v60q0 32 -1 44q-1 17 -8 27q-6 9 -18 9zM101 516l61 117q11 21 23 33q11 11 27 11t27 -9q10 -9 10 -26q0 -16 -9 -30q-9 -13 -25 -25l-108 -75z" />
    <glyph glyph-name="ecircumflex" unicode="&#xea;" horiz-adv-x="310" 
d="M189 -4h-3q-38 0 -69 12t-54 41q-23 30 -35 73q-12 45 -12 110q0 63 15 108q15 46 37 75q23 31 48 44q26 14 47 14q38 0 63 -14t38 -36q14 -23 18 -51q5 -32 5 -57h-157q-1 -9 -1 -27v-30q0 -38 2 -98q1 -45 9 -78t22 -52q15 -19 39 -19q29 0 46 11q15 10 25 21l5 -7
q-9 -10 -28 -25t-60 -15zM161 465v-3q-7 0 -13 -6q-5 -5 -10 -21q-4 -12 -7 -42q-2 -20 -4 -68h61v60q0 32 -1 44q-1 17 -8 27q-6 9 -18 9zM164 685l99 -171l-7 -4l-92 61l-92 -61l-7 4z" />
    <glyph glyph-name="edieresis" unicode="&#xeb;" horiz-adv-x="310" 
d="M189 -4h-3q-38 0 -69 12t-54 41q-23 30 -35 73q-12 45 -12 110q0 63 15 108q15 46 37 75q23 31 48 44q26 14 47 14q38 0 63 -14t38 -36q14 -23 18 -51q5 -32 5 -57h-157q-1 -9 -1 -27v-30q0 -38 2 -98q1 -45 9 -78t22 -52q15 -19 39 -19q29 0 46 11q15 10 25 21l5 -7
q-9 -10 -28 -25t-60 -15zM161 465v-3q-7 0 -13 -6q-5 -5 -10 -21q-4 -12 -7 -42q-2 -20 -4 -68h61v60q0 32 -1 44q-1 17 -8 27q-6 9 -18 9zM234 525v-1q-23 0 -38 16t-15 40q0 23 15 38t38 15t38 -15t15 -37q0 -23 -15 -40q-15 -16 -38 -16zM94 524v-1q-23 0 -38 16
q-15 17 -15 40t15 38t38 15t38 -15t15 -37q0 -24 -15 -40t-38 -16z" />
    <glyph glyph-name="igrave" unicode="&#xec;" horiz-adv-x="184" 
d="M12 6v-1q9 3 16 6q6 3 9 12t3 24v41v223q0 27 -1 36q-2 15 -4 21q-3 7 -9 10q-8 4 -16 5v7l136 85v-386v-41q0 -15 3 -24t9 -12q7 -3 16 -6v-6h-162v6zM43 589h2q-16 12 -25 25q-9 14 -9 30q0 17 10 26q11 9 27 9t27 -11q12 -12 23 -33l59 -117l-6 -4z" />
    <glyph glyph-name="iacute" unicode="&#xed;" horiz-adv-x="184" 
d="M12 6v-1q9 3 16 6q6 3 9 12t3 24v41v223q0 27 -1 36q-2 15 -4 21q-3 7 -9 10q-8 4 -16 5v7l136 85v-386v-41q0 -15 3 -24t9 -12q7 -3 16 -6v-6h-162v6zM25 518l61 117q11 21 23 33q11 11 27 11t27 -9q10 -9 10 -26q0 -16 -9 -30q-9 -13 -25 -25l-108 -75z" />
    <glyph glyph-name="icircumflex" unicode="&#xee;" horiz-adv-x="184" 
d="M12 6v-1q9 3 16 6q6 3 9 12t3 24v41v223q0 27 -1 36q-2 15 -4 21q-3 7 -9 10q-8 4 -16 5v7l136 85v-386v-41q0 -15 3 -24t9 -12q7 -3 16 -6v-6h-162v6zM92 687l99 -171l-7 -4l-92 61l-92 -61l-7 4z" />
    <glyph glyph-name="idieresis" unicode="&#xef;" horiz-adv-x="184" 
d="M157 528v-1q-23 0 -38 16q-15 17 -15 40t15 38t38 15t38 -15t15 -37q0 -24 -15 -40t-38 -16zM30 527v-1q-23 0 -38 16t-15 40q0 23 15 38t38 15t38 -15t15 -37q0 -23 -15 -40q-15 -16 -38 -16zM12 4v-1q9 3 16 6q6 3 9 12t3 24v41v223q0 27 -1 36q-2 15 -4 21q-3 7 -9 10
q-8 4 -16 5v7l136 85v-386v-41q0 -15 3 -24t9 -12q7 -3 16 -6v-6h-162v6z" />
    <glyph glyph-name="eth" unicode="&#xf0;" horiz-adv-x="359" 
d="M341 276l-3 -1q0 -84 -16 -136q-16 -53 -41 -87q-23 -32 -53 -46q-27 -13 -51 -13q-23 0 -51 12t-54 39t-42 72q-17 46 -17 111q0 69 17 117q16 46 42 75q25 28 54 40q28 12 51 12q12 0 24 -3q10 -3 23 -8q-4 37 -14 80q-8 37 -26 75l-91 -47l-5 7l93 48q-20 39 -46 72
q-27 35 -63 63l3 4q47 -27 81 -55q38 -31 65 -63l83 43l3 -8l-81 -42q64 -79 89 -171q26 -95 26 -190zM176 3v-2q12 0 21 12t15 38q6 25 9 69t3 108q0 70 -3 115t-9 72q-6 26 -15 37t-21 11t-21 -10q-9 -11 -15 -37q-6 -27 -9 -72t-3 -115q0 -65 3 -108t9 -69q6 -25 15 -37
t21 -12z" />
    <glyph glyph-name="ntilde" unicode="&#xf1;" horiz-adv-x="383" 
d="M13 6l-1 -1q10 3 14 6t7 12t3 24v41v223q0 29 -1 38q-2 15 -4 21q-3 7 -9 10q-5 2 -16 4v7l138 85v-73q12 13 32 33q12 12 27 22q13 9 26 12q12 3 26 3q11 0 24 -4q15 -5 30 -15q16 -11 26 -30q11 -20 11 -49v-286v-41q0 -12 2 -24q2 -9 6 -12t14 -6v-6h-163v6q9 3 16 6
q6 3 9 12q2 7 4 24q1 10 1 41v317q0 28 -7 36q-8 9 -13 9q-4 0 -20 -11q-15 -11 -50 -50v-301v-41q0 -15 3 -24t9 -12q7 -3 16 -6v-6h-160v6zM160 620h-1q21 0 41 -3t36 -3q11 0 20 11t24 27l7 -3q-10 -43 -23 -72q-12 -27 -35 -27q-19 0 -39 3t-39 3q-11 0 -18 -10t-24 -27
l-6 3q14 49 25 72q12 26 32 26z" />
    <glyph glyph-name="ograve" unicode="&#xf2;" horiz-adv-x="358" 
d="M179 -5q-23 0 -51 12t-54 39t-42 72q-17 46 -17 111q0 69 17 117q16 46 42 75q25 28 54 40q28 12 51 12t51 -12q30 -13 53 -40q25 -30 41 -75q17 -48 17 -117q0 -65 -17 -111q-16 -44 -41 -72q-24 -27 -53 -39q-28 -12 -51 -12zM179 4v-2q12 0 21 12t15 38t9 69t3 108
q0 70 -3 115t-9 72q-6 26 -15 37t-21 11t-21 -10q-9 -11 -15 -37q-6 -27 -9 -72t-3 -115q0 -64 3 -108t9 -69t15 -37t21 -12zM120 588h2q-16 12 -25 25t-9 30t10 26t27 9q16 0 27 -11q12 -12 23 -33l59 -117l-6 -4z" />
    <glyph glyph-name="oacute" unicode="&#xf3;" horiz-adv-x="358" 
d="M179 -5q-23 0 -51 12t-54 39t-42 72q-17 46 -17 111q0 69 17 117q16 46 42 75q25 28 54 40q28 12 51 12t51 -12q30 -13 53 -40q25 -30 41 -75q17 -48 17 -117q0 -65 -17 -111q-16 -44 -41 -72q-24 -27 -53 -39q-28 -12 -51 -12zM179 4v-2q12 0 21 12t15 38t9 69t3 108
q0 70 -3 115t-9 72q-6 26 -15 37t-21 11t-21 -10q-9 -11 -15 -37q-6 -27 -9 -72t-3 -115q0 -64 3 -108t9 -69t15 -37t21 -12zM123 517l61 117q11 21 23 33q11 11 27 11t27 -9q10 -9 10 -26t-9 -30t-25 -25l-108 -75z" />
    <glyph glyph-name="ocircumflex" unicode="&#xf4;" horiz-adv-x="358" 
d="M179 -5q-23 0 -51 12t-54 39t-42 72q-17 46 -17 111q0 69 17 117q16 46 42 75q25 28 54 40q28 12 51 12t51 -12q30 -13 53 -40q25 -30 41 -75q17 -48 17 -117q0 -65 -17 -111q-16 -44 -41 -72q-24 -27 -53 -39q-28 -12 -51 -12zM179 4v-2q12 0 21 12t15 38t9 69t3 108
q0 70 -3 115t-9 72q-6 26 -15 37t-21 11t-21 -10q-9 -11 -15 -37q-6 -27 -9 -72t-3 -115q0 -64 3 -108t9 -69t15 -37t21 -12zM179 686l99 -171l-7 -4l-92 61l-92 -61l-7 4z" />
    <glyph glyph-name="otilde" unicode="&#xf5;" horiz-adv-x="358" 
d="M179 -5q-23 0 -51 12t-54 39t-42 72q-17 46 -17 111q0 69 17 117q16 46 42 75q25 28 54 40q28 12 51 12t51 -12q30 -13 53 -40q25 -30 41 -75q17 -48 17 -117q0 -65 -17 -111q-16 -44 -41 -72q-24 -27 -53 -39q-28 -12 -51 -12zM179 4v-2q12 0 21 12t15 38t9 69t3 108
q0 70 -3 115t-9 72q-6 26 -15 37t-21 11t-21 -10q-9 -11 -15 -37q-6 -27 -9 -72t-3 -115q0 -64 3 -108t9 -69t15 -37t21 -12zM141 619h-1q22 0 41 -3t36 -3q11 0 20 11q9 10 24 27l7 -3q-10 -43 -23 -72q-12 -27 -35 -27q-20 0 -39 3t-39 3q-11 0 -18 -10q-8 -11 -24 -27
l-6 3q14 49 25 72q12 26 32 26z" />
    <glyph glyph-name="odieresis" unicode="&#xf6;" horiz-adv-x="358" 
d="M179 -5q-23 0 -51 12t-54 39t-42 72q-17 46 -17 111q0 69 17 117q16 46 42 75q25 28 54 40q28 12 51 12t51 -12q30 -13 53 -40q25 -30 41 -75q17 -48 17 -117q0 -65 -17 -111q-16 -44 -41 -72q-24 -27 -53 -39q-28 -12 -51 -12zM179 4v-2q12 0 21 12t15 38t9 69t3 108
q0 70 -3 115t-9 72q-6 26 -15 37t-21 11t-21 -10q-9 -11 -15 -37q-6 -27 -9 -72t-3 -115q0 -64 3 -108t9 -69t15 -37t21 -12zM249 526v-1q-23 0 -38 16q-15 17 -15 40t15 38t38 15t38 -15t15 -37q0 -24 -15 -40t-38 -16zM109 525v-1q-23 0 -38 16t-15 40q0 23 15 38t38 15
t38 -15t15 -37q0 -23 -15 -40q-15 -16 -38 -16z" />
    <glyph glyph-name="divide" unicode="&#xf7;" horiz-adv-x="310" 
d="M97 483q0 24 18 42t42 18t42 -18t18 -42t-18 -42t-42 -18t-42 18t-18 42zM27 357h257v-12h-257v12zM97 216v-1q0 25 18 43t42 18t42 -18t18 -43q0 -22 -18 -40t-42 -18t-42 18t-18 41z" />
    <glyph glyph-name="oslash" unicode="&#xf8;" horiz-adv-x="358" 
d="M179 4l-3 -8q12 0 21 12t15 38t9 69t3 108q0 51 -1 72q-1 31 -3 57l30 90l-8 6l8 25l9 -4l-9 -27q16 -12 33 -30q16 -17 28 -45q11 -25 19 -61q7 -32 7 -80q0 -65 -17 -111q-16 -44 -41 -72q-24 -27 -53 -39q-28 -12 -51 -12q-14 0 -32 6q-16 5 -36 17l25 76q-1 3 -1 11
v13l88 265q-6 49 -16 66q-11 18 -27 18q-12 0 -21 -10q-9 -11 -15 -37q-6 -27 -9 -72t-3 -115q0 -44 1 -63q1 -29 3 -51l-32 -94l9 -6l-11 -32l-9 4l11 34q-34 26 -59 75q-26 50 -26 132q0 69 17 117q16 46 42 75q25 28 54 40q28 12 51 12q16 0 32 -4q18 -5 36 -15l-24 -72
l2 -24l-88 -265q5 -49 15 -69q11 -20 27 -20z" />
    <glyph glyph-name="ugrave" unicode="&#xf9;" horiz-adv-x="359" 
d="M130 -8l-4 1q-9 0 -27 5q-17 5 -31 16q-15 12 -25 31t-10 49v249q0 26 -4 33q-5 8 -24 9v7l137 85v-400q0 -33 8 -49q8 -15 15 -15q6 0 18 9t33 33v286q0 26 -4 33q-4 8 -24 9v7l136 85v-386v-41q0 -12 2 -24q1 -8 5 -12q2 -2 8 -6v-6h-121v43q-26 -27 -45 -39t-43 -12z
M136 591h2q-16 12 -25 25q-9 14 -9 30q0 17 10 26t27 9q16 0 27 -11q12 -12 23 -33l59 -117l-6 -4z" />
    <glyph glyph-name="uacute" unicode="&#xfa;" horiz-adv-x="359" 
d="M130 -8l-4 1q-9 0 -27 5q-17 5 -31 16q-15 12 -25 31t-10 49v249q0 26 -4 33q-5 8 -24 9v7l137 85v-400q0 -33 8 -49q8 -15 15 -15q6 0 18 9t33 33v286q0 26 -4 33q-4 8 -24 9v7l136 85v-386v-41q0 -12 2 -24q1 -8 5 -12q2 -2 8 -6v-6h-121v43q-26 -27 -45 -39t-43 -12z
M139 520l61 117q11 21 23 33q11 11 27 11t27 -9q10 -9 10 -26q0 -16 -9 -30q-9 -13 -25 -25l-108 -75z" />
    <glyph glyph-name="ucircumflex" unicode="&#xfb;" horiz-adv-x="359" 
d="M130 -8l-4 1q-9 0 -27 5q-17 5 -31 16q-15 12 -25 31t-10 49v249q0 26 -4 33q-5 8 -24 9v7l137 85v-400q0 -33 8 -49q8 -15 15 -15q6 0 18 9t33 33v286q0 26 -4 33q-4 8 -24 9v7l136 85v-386v-41q0 -12 2 -24q1 -8 5 -12q2 -2 8 -6v-6h-121v43q-26 -27 -45 -39t-43 -12z
M185 689l99 -171l-7 -4l-92 61l-92 -61l-7 4z" />
    <glyph glyph-name="udieresis" unicode="&#xfc;" horiz-adv-x="359" 
d="M130 -8l-4 1q-9 0 -27 5q-17 5 -31 16q-15 12 -25 31t-10 49v249q0 26 -4 33q-5 8 -24 9v7l137 85v-400q0 -33 8 -49q8 -15 15 -15q6 0 18 9t33 33v286q0 26 -4 33q-4 8 -24 9v7l136 85v-386v-41q0 -12 2 -24q1 -8 5 -12q2 -2 8 -6v-6h-121v43q-26 -27 -45 -39t-43 -12z
M254 529v-1q-23 0 -38 16t-15 40q0 23 15 38t38 15t38 -15t15 -37q0 -23 -15 -40q-15 -16 -38 -16zM114 528v-1q-23 0 -38 16q-15 17 -15 40t15 38t38 15t38 -15t15 -37q0 -24 -15 -40t-38 -16z" />
    <glyph glyph-name="yacute" unicode="&#xfd;" horiz-adv-x="313" 
d="M39 -171l-1 -4q-24 0 -37 11q-12 10 -12 27q0 20 10 27q11 8 24 8t21 -3q10 -4 14 -6t14 -6q8 -3 18 -3q11 0 24 16q14 16 30 66l8 29l-112 364q-4 12 -9 30t-7 24q-7 24 -10 30q-5 12 -7 14q-3 3 -10 6v6h164v-6q-11 -2 -17 -6q-5 -4 -7 -15t3 -29q9 -36 13 -50l51 -190
l47 166q13 44 17 65q4 24 3 36q-2 13 -9 17q-8 5 -19 6v6h75v-6q-9 -5 -15 -9q-6 -5 -12 -16q-4 -8 -13 -35q-3 -9 -19 -63l-105 -371q-25 -74 -49 -104q-26 -32 -66 -32zM133 515l61 117q11 21 23 33q11 11 27 11t27 -9q10 -9 10 -26t-9 -30t-25 -25l-108 -75z" />
    <glyph glyph-name="thorn" unicode="&#xfe;" horiz-adv-x="375" 
d="M18 -160v-4q10 3 14 6t7 12t3 24v41v706q0 39 -4 50q-4 12 -21 15v6l133 74v-352q24 30 38 41t30 11t40 -9q23 -9 46 -33q22 -24 39 -66q16 -41 16 -108q0 -125 -48 -194t-133 -69q-8 0 -15 3t-12 6v-77v-41q0 -12 2 -24q1 -9 6 -12t12 -6v-6h-153v6zM198 454h-1
q-5 0 -15 -9q-12 -10 -33 -37v-400q11 -9 27 -9q32 0 50 60t18 177q0 109 -10 162q-11 56 -36 56z" />
    <glyph glyph-name="ydieresis" unicode="&#xff;" horiz-adv-x="313" 
d="M39 -171l-1 -4q-24 0 -37 11q-12 10 -12 27q0 20 10 27q11 8 24 8t21 -3q10 -4 14 -6t14 -6q8 -3 18 -3q11 0 24 16q14 16 30 66l8 29l-112 364q-4 12 -9 30t-7 24q-7 24 -10 30q-5 12 -7 14q-3 3 -10 6v6h164v-6q-11 -2 -17 -6q-5 -4 -7 -15t3 -29q9 -36 13 -50l51 -190
l47 166q13 44 17 65q4 24 3 36q-2 13 -9 17q-8 5 -19 6v6h75v-6q-9 -5 -15 -9q-6 -5 -12 -16q-4 -8 -13 -35q-3 -9 -19 -63l-105 -371q-25 -74 -49 -104q-26 -32 -66 -32zM252 524v-1q-23 0 -38 16q-15 17 -15 40t15 38t38 15t38 -15t15 -37q0 -24 -15 -40t-38 -16zM112 523
v-1q-23 0 -38 16t-15 40q0 23 15 38t38 15t38 -15t15 -37q0 -23 -15 -40q-15 -16 -38 -16z" />
    <glyph glyph-name="Amacron" unicode="&#x100;" horiz-adv-x="348" 
d="M-3 5l-5 -2q8 5 14 12q7 9 11 22q4 14 9 38q7 35 11 59l14 92v1l58 381l-12 70q-6 40 -16 51q-11 12 -21 15v5h130q7 0 11 -2t5 -12l101 -609q11 -63 18 -89t23 -31v-6h-166v6q8 2 12 6q5 5 8 12q3 8 3 21t-3 36l-24 139h-115l-13 -84q-7 -43 -8 -61q-1 -24 3 -37
q5 -14 13 -21q9 -7 26 -12v-5h-87v5zM173 227l-60 350l-53 -350h113zM224 793h-174v47h174v-47z" />
    <glyph glyph-name="amacron" unicode="&#x101;" 
d="M109 -8l-5 -9q-38 0 -62 27t-24 78q0 36 17 61q16 23 39 40q19 14 47 28q24 12 41 26l-6 -4q4 4 12 10q7 5 11 12q5 9 8 18q3 11 3 30v85q0 43 -7 54q-8 12 -28 12q-11 0 -21 -12t-21 -50q-5 -16 -12 -27q-8 -11 -27 -11q-17 0 -28 11q-10 10 -10 26q0 13 6 27t21 24
q15 11 37 18q21 7 56 7q25 0 53 -5q25 -4 46 -18q21 -13 33 -38q12 -24 12 -63v-218v-64q0 -24 3 -36t7 -15t12 -3q11 0 17 6l3 -6q-6 -5 -21 -12q-14 -7 -46 -7q-35 0 -54 12t-25 35q-23 -28 -39 -38q-17 -11 -48 -11zM124 111v1q0 -52 9 -78t24 -26q2 0 8 6q1 1 9 9.5
t16 16.5q-1 3 -1 12v207q-5 -12 -13 -18q-12 -8 -18 -13l6 3q-14 -13 -21 -22q-7 -11 -12 -24q-5 -14 -6 -31q-1 -12 -1 -43zM243 588v-46h-164v46h164z" />
    <glyph glyph-name="Abreve" unicode="&#x102;" horiz-adv-x="348" 
d="M-3 5l-5 -2q8 5 14 12q7 9 11 22q4 14 9 38q7 35 11 59l14 92v1l58 381l-12 70q-6 40 -16 51q-11 12 -21 15v5h130q7 0 11 -2t5 -12l101 -609q11 -63 18 -89t23 -31v-6h-166v6q8 2 12 6q5 5 8 12q3 8 3 21t-3 36l-24 139h-115l-13 -84q-7 -43 -8 -61q-1 -24 3 -37
q5 -14 13 -21q9 -7 26 -12v-5h-87v5zM173 227l-60 350l-53 -350h113zM136 845q26 0 42 9q17 9 29 30h8q-2 -57 -22 -80q-21 -24 -56 -24t-57 24t-24 81h8q21 -40 72 -40z" />
    <glyph glyph-name="abreve" unicode="&#x103;" 
d="M109 -8l-5 -9q-38 0 -62 27t-24 78q0 36 17 61q16 23 39 40q19 14 47 28q24 12 41 26l-6 -4q4 4 12 10q7 5 11 12q5 9 8 18q3 11 3 30v85q0 43 -7 54q-8 12 -28 12q-11 0 -21 -12t-21 -50q-5 -16 -12 -27q-8 -11 -27 -11q-17 0 -28 11q-10 10 -10 26q0 13 6 27t21 24
q15 11 37 18q21 7 56 7q25 0 53 -5q25 -4 46 -18q21 -13 33 -38q12 -24 12 -63v-218v-64q0 -24 3 -36t7 -15t12 -3q11 0 17 6l3 -6q-6 -5 -21 -12q-14 -7 -46 -7q-35 0 -54 12t-25 35q-23 -28 -39 -38q-17 -11 -48 -11zM124 111v1q0 -52 9 -78t24 -26q2 0 8 6q1 1 9 9.5
t16 16.5q-1 3 -1 12v207q-5 -12 -13 -18q-12 -8 -18 -13l6 3q-14 -13 -21 -22q-7 -11 -12 -24q-5 -14 -6 -31q-1 -12 -1 -43zM162 584l-1 -1q31 0 47 11q14 9 22 23h9q1 -39 -18 -69t-58 -30t-60 30q-21 29 -19 71h9q5 -11 21 -23t48 -12z" />
    <glyph glyph-name="Aogonek" unicode="&#x104;" horiz-adv-x="348" 
d="M-3 5l-4 -3q8 5 14 12q7 9 11 22q4 14 9 38q7 35 11 59l14 92v1l58 381l-12 70q-8 39 -18 51t-21 15v5h130q7 0 11 -2t5 -12l101 -609q11 -63 18 -89t23 -31v-6h-96q-31 0 -46 -25q-15 -26 -15 -69q0 -49 40 -49q12 0 20 5t15 12l5 -5l-12 -12q-8 -8 -19 -15
q-12 -8 -28 -12q-18 -5 -37 -5q-34 0 -57 18t-23 47q0 22 14 41t33 32q22 15 40 23q28 12 34 14l-37 221h-115l-13 -84q-7 -43 -8 -61q-1 -24 3 -37q5 -14 13 -21q9 -7 26 -12v-5h-87v5zM173 226l-59 349l-53 -349h112z" />
    <glyph glyph-name="aogonek" unicode="&#x105;" 
d="M109 -8l-5 -12q-38 0 -62 27t-24 78q0 36 17 61q16 23 39 40q19 14 47 28q24 12 41 26l-6 -4q4 4 12 10q7 5 11 12q5 9 8 18q3 10 3 30v85q0 43 -7 54q-8 12 -28 12q-11 0 -21 -12t-21 -50q-5 -17 -12 -27q-8 -11 -27 -11q-17 0 -28 11q-10 10 -10 26q0 14 6 27t21 24
t37 18q21 7 56 7q25 0 53 -5q25 -4 46 -18q21 -13 33 -38q12 -24 12 -63v-218v-64q0 -24 3 -36t7 -15t12 -3q11 0 17 6l3 -6l-6 -3q-1 0 -2 -1t-3.5 -2.5t-4.5 -2.5q-14 -9 -30 -33q-16 -23 -16 -65q0 -23 9 -35t28 -12q10 0 18 5q7 5 15 12l5 -5q-2 -2 -10 -12
q-5 -7 -17 -15q-10 -7 -26 -12q-17 -5 -36 -5q-36 0 -59 18t-23 47q0 18 11 35q11 16 27 30t36 24t39 18q-8 0 -13 -1t-12 -1q-32 0 -51 12t-25 35q-23 -28 -39 -38q-17 -11 -48 -11zM124 108v1q0 -53 9 -78q9 -26 24 -26q2 0 8 6q1 1 9 9.5t16 16.5q-1 3 -1 12v207
q-5 -12 -13 -18q-12 -8 -18 -13l6 3q-14 -13 -21 -22q-7 -10 -12 -24t-6 -31q-1 -12 -1 -43z" />
    <glyph glyph-name="Cacute" unicode="&#x106;" horiz-adv-x="354" 
d="M239 -11h-4q-36 0 -75 17q-38 16 -69 60t-51 120q-19 75 -19 195q0 110 18 182q19 74 46 116q29 44 63 62q35 18 68 18q21 0 36 -9t31 -9q26 0 33 28h7v-172h-7q-14 48 -27 77q-13 30 -26 47t-24 23q-12 6 -22 6q-13 0 -25 -18t-21 -60q-10 -45 -14 -111q-5 -77 -5 -171
q0 -119 7 -188q7 -74 21 -117q14 -44 34 -60q22 -17 47 -17q35 0 71 42l6 -6q-13 -19 -39 -37q-25 -18 -60 -18zM124 786l95 75q13 11 24 15q12 5 24 5q17 0 26 -10q9 -11 9 -24q0 -35 -50 -47l-125 -21z" />
    <glyph glyph-name="cacute" unicode="&#x107;" horiz-adv-x="297" 
d="M192 -4l-5 -6q-34 0 -65 14q-30 14 -54 42q-23 28 -37 73q-13 43 -13 106q0 66 16 111q17 47 40 76q24 30 50 44t47 14q18 0 38 -5q18 -4 32 -14q14 -9 23 -23t9 -30q0 -17 -10 -26q-11 -9 -27 -9q-20 0 -32 12t-15 40q-1 8 -2 21t-2 17q-2 11 -12 11q-13 0 -20 -16
t-12 -45t-6 -67q-1 -26 -1 -82q0 -112 18 -177q18 -64 57 -64q26 0 42 13q17 14 27 24l7 -7l-13 -13q-8 -8 -18 -15q-8 -6 -26 -13q-15 -6 -36 -6zM107 513l61 117q11 21 23 33q11 11 27 11t27 -9q10 -9 10 -26t-9 -30t-25 -25l-108 -75z" />
    <glyph glyph-name="Ccircumflex" unicode="&#x108;" horiz-adv-x="354" 
d="M239 -11h-4q-36 0 -75 17q-38 16 -69 60t-51 120q-19 75 -19 195q0 110 18 182q19 74 46 116q29 44 63 62q35 18 68 18q21 0 36 -9t31 -9q26 0 33 28h7v-172h-7q-14 48 -27 77q-13 30 -26 47t-24 23q-12 6 -22 6q-13 0 -25 -18t-21 -60q-10 -45 -14 -111q-5 -77 -5 -171
q0 -119 7 -188q7 -74 21 -117q14 -44 34 -60q22 -17 47 -17q35 0 71 42l6 -6q-13 -19 -39 -37q-25 -18 -60 -18zM206 898l114 -113l-3 -6l-111 38l-111 -38l-2 6z" />
    <glyph glyph-name="ccircumflex" unicode="&#x109;" horiz-adv-x="297" 
d="M192 -4l-5 -6q-34 0 -65 14q-30 14 -54 42q-23 28 -37 73q-13 43 -13 106q0 66 16 111q17 47 40 76q24 30 50 44t47 14q18 0 38 -5q18 -4 32 -14q14 -9 23 -23t9 -30q0 -17 -10 -26q-11 -9 -27 -9q-20 0 -32 12t-15 40q-1 8 -2 21t-2 17q-2 11 -12 11q-13 0 -20 -16
t-12 -45t-6 -67q-1 -26 -1 -82q0 -112 18 -177q18 -64 57 -64q26 0 42 13q17 14 27 24l7 -7l-13 -13q-8 -8 -18 -15q-8 -6 -26 -13q-15 -6 -36 -6zM167 682l99 -171l-7 -4l-92 61l-92 -61l-7 4z" />
    <glyph glyph-name="Cdotaccent" unicode="&#x10a;" horiz-adv-x="354" 
d="M239 -11h-4q-36 0 -75 17q-38 16 -69 60t-51 120q-19 75 -19 195q0 110 18 182q19 74 46 116q29 44 63 62q35 18 68 18q21 0 36 -9t31 -9q26 0 33 28h7v-172h-7q-14 48 -27 77q-13 30 -26 47t-24 23q-12 6 -22 6q-13 0 -25 -18t-21 -60q-10 -45 -14 -111q-5 -77 -5 -171
q0 -119 7 -188q7 -74 21 -117q14 -44 34 -60q22 -17 47 -17q35 0 71 42l6 -6q-13 -19 -39 -37q-25 -18 -60 -18zM202 785h-1q-25 0 -42 18q-17 19 -17 44q0 23 17 42q17 18 42 18q26 0 44 -18t18 -42q0 -26 -18 -44t-43 -18z" />
    <glyph glyph-name="cdotaccent" unicode="&#x10b;" horiz-adv-x="297" 
d="M192 -4l-5 -6q-34 0 -65 14q-30 14 -54 42q-23 28 -37 73q-13 43 -13 106q0 66 16 111q17 47 40 76q24 30 50 44t47 14q18 0 38 -5q18 -4 32 -14q14 -9 23 -23t9 -30q0 -17 -10 -26q-11 -9 -27 -9q-20 0 -32 12t-15 40q-1 8 -2 21t-2 17q-2 11 -12 11q-13 0 -20 -16
t-12 -45t-6 -67q-1 -26 -1 -82q0 -112 18 -177q18 -64 57 -64q26 0 42 13q17 14 27 24l7 -7l-13 -13q-8 -8 -18 -15q-8 -6 -26 -13q-15 -6 -36 -6zM167 521l-2 -1q-25 0 -43 18t-18 44q0 25 18 43t44 18t44 -18t18 -43t-18 -43t-43 -18z" />
    <glyph glyph-name="Ccaron" unicode="&#x10c;" horiz-adv-x="354" 
d="M239 -11h-4q-36 0 -75 17q-38 16 -69 60t-51 120q-19 75 -19 195q0 110 18 182q19 74 46 116q29 44 63 62q35 18 68 18q21 0 36 -9t31 -9q26 0 33 28h7v-172h-7q-14 48 -27 77q-13 30 -26 47t-24 23q-12 6 -22 6q-13 0 -25 -18t-21 -60q-10 -45 -14 -111q-5 -77 -5 -171
q0 -119 7 -188q7 -74 21 -117q14 -44 34 -60q22 -17 47 -17q35 0 71 42l6 -6q-13 -19 -39 -37q-25 -18 -60 -18zM98 904l111 -38l111 38l3 -6l-114 -113l-113 113z" />
    <glyph glyph-name="ccaron" unicode="&#x10d;" horiz-adv-x="297" 
d="M192 -4l-5 -6q-34 0 -65 14q-30 14 -54 42q-23 28 -37 73q-13 43 -13 106q0 66 16 111q17 47 40 76q24 30 50 44t47 14q18 0 38 -5q18 -4 32 -14q14 -9 23 -23t9 -30q0 -17 -10 -26q-11 -9 -27 -9q-20 0 -32 12t-15 40q-1 8 -2 21t-2 17q-2 11 -12 11q-13 0 -20 -16
t-12 -45t-6 -67q-1 -26 -1 -82q0 -112 18 -177q18 -64 57 -64q26 0 42 13q17 14 27 24l7 -7l-13 -13q-8 -8 -18 -15q-8 -6 -26 -13q-15 -6 -36 -6zM74 682l92 -61l92 61l7 -4l-99 -171l-99 171z" />
    <glyph glyph-name="Dcaron" unicode="&#x10e;" horiz-adv-x="453" 
d="M18 6l-1 -4q10 3 17 8q6 4 9 20q2 12 4 42q1 18 1 74v454q0 56 -1 74q-2 30 -4 42q-3 16 -9 20q-7 5 -17 8v6h171q46 0 90 -21t77 -66q34 -46 53 -114q20 -71 20 -164q0 -89 -17 -163q-16 -71 -48 -121q-31 -49 -75 -75t-99 -26h-171v6zM173 737l1 -732h15q26 0 45 19
q20 20 33 63t21 116q8 77 8 179q0 111 -12 180q-12 67 -29 108q-17 39 -35 53q-19 14 -32 14h-15zM90 901l111 -38l111 38l3 -6l-114 -113l-113 113z" />
    <glyph glyph-name="dcaron" unicode="&#x10f;" horiz-adv-x="379" 
d="M150 -7v-3q-24 0 -47 12t-41 41q-19 30 -29 73q-11 47 -11 109q0 66 17 114q16 44 41 76q24 30 52 43q30 14 52 14q14 0 26 -6q13 -7 23 -15v169q0 28 -1 37q-2 15 -4 20q-3 7 -9 8q-7 2 -16 3v7l138 80v-686v-41q0 -15 3 -24t7 -12t14 -6v-6h-132v60q-31 -37 -49 -52
t-34 -15zM135 236q0 -115 10 -171q10 -58 30 -58q2 0 5 3q5 5 9 10q2 3 8 9.5t9 9.5q23 27 27 31v369q-11 11 -23 17t-27 6q-48 0 -48 -226zM376 557l10 138q1 32 12 49q10 16 27 16q35 0 35 -38q0 -10 -3 -21q-3 -9 -8 -18l-67 -128z" />
    <glyph glyph-name="Dcroat" unicode="&#x110;" horiz-adv-x="451" 
d="M17 6l-1 -4q10 3 17 8q6 4 9 20q2 12 4 42q1 18 1 74v239h-48v8h48v207q0 56 -1 74q-2 30 -4 42q-3 16 -9 20q-7 5 -17 8v6h171q47 0 90 -21q44 -21 77 -66q34 -46 53 -114q20 -71 20 -164q0 -89 -17 -163q-16 -71 -48 -121q-32 -49 -75 -75q-44 -26 -99 -26h-171v6z
M187 4l1 1q26 0 45 19q19 20 33 63q13 43 21 116q8 77 8 179q0 111 -12 180q-12 67 -29 108q-17 39 -35 53q-19 14 -32 14h-15v-346h73v-8h-73v-379h15z" />
    <glyph glyph-name="dcroat" unicode="&#x111;" horiz-adv-x="379" 
d="M132 578h263v-9h-263v9zM150 -7v-3q-24 0 -47 12t-41 41q-19 30 -29 73q-11 47 -11 109q0 66 17 114q16 44 41 76q24 30 52 43q30 14 52 14q14 0 26 -6q13 -7 23 -15v169q0 28 -1 37q-2 15 -4 20q-3 7 -9 8q-7 2 -16 3v7l138 80v-686v-41q0 -15 3 -24t7 -12t14 -6v-6
h-132v60q-31 -37 -49 -52t-34 -15zM135 236q0 -115 10 -171q10 -58 30 -58q2 0 5 3q5 5 9 10q2 3 8 9.5t9 9.5q23 27 27 31v369q-11 11 -23 17t-27 6q-48 0 -48 -226z" />
    <glyph glyph-name="Emacron" unicode="&#x112;" horiz-adv-x="362" 
d="M18 6l-3 -3q10 3 17 8q6 4 9 20q2 12 4 42q1 18 1 74v454q0 56 -1 74q-2 30 -4 42q-3 16 -9 20q-7 5 -17 8v6h277q8 0 11 -3t6 -19l18 -103h-8q-11 30 -24 51t-31 34q-18 14 -40 21q-23 8 -52 9v-318q20 3 33 11t20 18t12 24q3 9 7 27h5v-178h-5q-4 18 -7 27
q-5 14 -12 24t-20 18t-33 11v-398q40 2 64 7q27 6 47 20t35 38t27 63h8l-13 -118q-2 -13 -6 -15q-6 -2 -12 -2h-304v6zM256 792h-174v47h174v-47z" />
    <glyph glyph-name="emacron" unicode="&#x113;" horiz-adv-x="310" 
d="M189 -4h-3q-38 0 -69 12t-54 41q-23 30 -35 73q-12 45 -12 110q0 63 15 108q15 46 37 75q23 31 48 44q26 14 47 14q38 0 63 -14t38 -36q14 -23 18 -51q5 -32 5 -57h-157q-1 -9 -1 -27v-30q0 -38 2 -98q1 -45 9 -78t22 -52q15 -19 39 -19q29 0 46 11q15 10 25 21l5 -7
q-9 -10 -28 -25t-60 -15zM161 465v-3q-7 0 -13 -6q-5 -5 -10 -21q-4 -12 -7 -42q-2 -20 -4 -68h61v60q0 32 -1 44q-1 17 -8 27q-6 9 -18 9zM248 593v-46h-164v46h164z" />
    <glyph glyph-name="Ebreve" unicode="&#x114;" horiz-adv-x="362" 
d="M18 6l-3 -3q10 3 17 8q6 4 9 20q2 12 4 42q1 18 1 74v454q0 56 -1 74q-2 30 -4 42q-3 16 -9 20q-7 5 -17 8v6h277q8 0 11 -3t6 -19l18 -103h-8q-11 30 -24 51t-31 34q-18 14 -40 21q-23 8 -52 9v-318q20 3 33 11t20 18t12 24q3 9 7 27h5v-178h-5q-4 18 -7 27
q-5 14 -12 24t-20 18t-33 11v-398q40 2 64 7q27 6 47 20t35 38t27 63h8l-13 -118q-2 -13 -6 -15q-6 -2 -12 -2h-304v6zM167 844q25 0 42 9t29 30h8q-2 -57 -22 -80q-21 -24 -56 -24q-34 0 -57 24t-24 81h8q21 -40 72 -40z" />
    <glyph glyph-name="ebreve" unicode="&#x115;" horiz-adv-x="310" 
d="M189 -4h-3q-38 0 -69 12t-54 41q-23 30 -35 73q-12 45 -12 110q0 63 15 108q15 46 37 75q23 31 48 44q26 14 47 14q38 0 63 -14t38 -36q14 -23 18 -51q5 -32 5 -57h-157q-1 -9 -1 -27v-30q0 -38 2 -98q1 -45 9 -78t22 -52q15 -19 39 -19q29 0 46 11q15 10 25 21l5 -7
q-9 -10 -28 -25t-60 -15zM161 465v-3q-7 0 -13 -6q-5 -5 -10 -21q-4 -12 -7 -42q-2 -20 -4 -68h61v60q0 32 -1 44q-1 17 -8 27q-6 9 -18 9zM165 589l-1 -1q31 0 47 11q14 9 22 23h9q2 -39 -18 -69t-58 -30q-39 0 -60 30q-21 29 -19 71h9q5 -11 21 -23q17 -12 48 -12z" />
    <glyph glyph-name="Edotaccent" unicode="&#x116;" horiz-adv-x="362" 
d="M18 6l-3 -3q10 3 17 8q6 4 9 20q2 12 4 42q1 18 1 74v454q0 56 -1 74q-2 30 -4 42q-3 16 -9 20q-7 5 -17 8v6h277q8 0 11 -3t6 -19l18 -103h-8q-11 30 -24 51t-31 34q-18 14 -40 21q-23 8 -52 9v-318q20 3 33 11t20 18t12 24q3 9 7 27h5v-178h-5q-4 18 -7 27
q-5 14 -12 24t-20 18t-33 11v-398q40 2 64 7q27 6 47 20t35 38t27 63h8l-13 -118q-2 -13 -6 -15q-6 -2 -12 -2h-304v6zM168 782h-1q-25 0 -42 18q-17 19 -17 44q0 23 17 42q17 18 42 18q26 0 44 -18t18 -42q0 -26 -18 -44t-43 -18z" />
    <glyph glyph-name="edotaccent" unicode="&#x117;" horiz-adv-x="310" 
d="M189 -4h-3q-38 0 -69 12t-54 41q-23 30 -35 73q-12 45 -12 110q0 63 15 108q15 46 37 75q23 31 48 44q26 14 47 14q38 0 63 -14t38 -36q14 -23 18 -51q5 -32 5 -57h-157q-1 -9 -1 -27v-30q0 -38 2 -98q1 -45 9 -78t22 -52q15 -19 39 -19q29 0 46 11q15 10 25 21l5 -7
q-9 -10 -28 -25t-60 -15zM161 465v-3q-7 0 -13 -6q-5 -5 -10 -21q-4 -12 -7 -42q-2 -20 -4 -68h61v60q0 32 -1 44q-1 17 -8 27q-6 9 -18 9zM166 524l-2 -1q-25 0 -43 18t-18 44q0 25 18 43t44 18t44 -18t18 -43t-18 -43t-43 -18z" />
    <glyph glyph-name="Eogonek" unicode="&#x118;" horiz-adv-x="362" 
d="M18 6l-3 -3q10 3 17 8q6 4 9 20q2 12 4 42q1 18 1 74v454q0 56 -1 74q-2 30 -4 42q-3 16 -9 20q-7 5 -17 8v6h277q8 0 11 -3t6 -19l18 -103h-8q-11 30 -24 51t-31 34q-18 14 -40 21q-23 8 -52 9v-318q20 3 33 11t20 18t12 24q3 9 7 27h5v-178h-5q-4 18 -7 27
q-5 14 -12 24t-20 18t-33 11v-398q40 2 64 7q27 6 47 20t35 38t27 63h8l-13 -118q-2 -13 -6 -15q-6 -2 -12 -2h-304v6zM215 -180l-3 -4q-34 0 -57 18q-22 18 -22 47q0 20 12 38t30 33q17 14 39 25q24 12 39 17h13q-12 -12 -24 -36t-12 -59q0 -22 11 -35q10 -12 29 -12
q13 0 21 5q7 5 15 12l5 -5l-12 -12q-8 -8 -19 -15q-12 -8 -28 -12q-18 -5 -37 -5z" />
    <glyph glyph-name="eogonek" unicode="&#x119;" horiz-adv-x="310" 
d="M277 -132l-4 -2l-12 -12q-8 -8 -19 -15q-12 -8 -28 -12q-18 -5 -37 -5q-35 0 -57 18q-23 18 -23 47q0 19 10 35q11 16 27 30q17 14 38 26q20 11 44 21l-12 -3q-5 -1 -17 -1q-37 0 -69 12q-31 12 -54 41q-23 30 -35 73q-12 45 -12 110q0 63 15 108q15 46 37 75
q23 31 48 44q26 14 47 14q38 0 63 -14t38 -36t18 -51q5 -32 5 -57h-157q-1 -9 -1 -27v-30q0 -38 2 -98q2 -45 9 -78q8 -33 22 -52q15 -19 39 -19q29 0 46 11q15 10 25 21l5 -7q-1 -1 -4.5 -5t-5.5 -6q-8 -8 -19 -14q-20 -11 -36 -37t-16 -69q0 -48 40 -48q12 0 20 5
q7 5 15 12zM160 463v-3q-7 0 -13 -6q-5 -5 -10 -21q-4 -12 -7 -42q-2 -20 -4 -68h61v60q0 32 -1 44q-1 17 -8 27q-6 9 -18 9z" />
    <glyph glyph-name="Ecaron" unicode="&#x11a;" horiz-adv-x="362" 
d="M18 6l-3 -3q10 3 17 8q6 4 9 20q2 12 4 42q1 18 1 74v454q0 56 -1 74q-2 30 -4 42q-3 16 -9 20q-7 5 -17 8v6h277q8 0 11 -3t6 -19l18 -103h-8q-11 30 -24 51t-31 34q-18 14 -40 21q-23 8 -52 9v-318q20 3 33 11t20 18t12 24q3 9 7 27h5v-178h-5q-4 18 -7 27
q-5 14 -12 24t-20 18t-33 11v-398q40 2 64 7q27 6 47 20t35 38t27 63h8l-13 -118q-2 -13 -6 -15q-6 -2 -12 -2h-304v6zM58 901l111 -38l111 38l3 -6l-114 -113l-113 113z" />
    <glyph glyph-name="ecaron" unicode="&#x11b;" horiz-adv-x="310" 
d="M189 -4h-3q-38 0 -69 12t-54 41q-23 30 -35 73q-12 45 -12 110q0 63 15 108q15 46 37 75q23 31 48 44q26 14 47 14q38 0 63 -14t38 -36q14 -23 18 -51q5 -32 5 -57h-157q-1 -9 -1 -27v-30q0 -38 2 -98q1 -45 9 -78t22 -52q15 -19 39 -19q29 0 46 11q15 10 25 21l5 -7
q-9 -10 -28 -25t-60 -15zM161 465v-3q-7 0 -13 -6q-5 -5 -10 -21q-4 -12 -7 -42q-2 -20 -4 -68h61v60q0 32 -1 44q-1 17 -8 27q-6 9 -18 9zM73 684l92 -61l92 61l7 -4l-99 -171l-99 171z" />
    <glyph glyph-name="Gcircumflex" unicode="&#x11c;" horiz-adv-x="421" 
d="M240 -12l-2 -5q-102 0 -160 99q-58 98 -58 295q0 99 18 171q18 71 48 118q30 46 68 69q37 22 75 22q16 0 27 -4q8 -3 22 -9l21 -9q9 -4 24 -4q7 0 12 6q4 6 9 20h6v-175h-6q-18 87 -46 125q-28 39 -66 39q-21 0 -36 -19q-14 -19 -25 -63t-15 -112q-5 -77 -5 -166
q0 -204 21 -299t68 -95q7 0 16 30t9 104v47q0 60 -1 80q-2 31 -6 47q-5 17 -12 23q-8 7 -18 8v7h185v-7q-9 -1 -16 -8q-6 -5 -10 -25q-5 -20 -6 -55q-1 -24 -1 -98v-97q-12 -14 -31 -24q-13 -7 -39 -19q-17 -8 -39 -13q-17 -4 -31 -4zM225 893l114 -113l-3 -6l-111 38
l-111 -38l-2 6z" />
    <glyph glyph-name="gcircumflex" unicode="&#x11d;" horiz-adv-x="329" 
d="M154 161v-3q-14 0 -29 3q-16 3 -31 10l-3 -2q-19 -13 -24 -21t-5 -12q0 -2 2 -6q1 -3 8 -6q10 -5 18 -8q6 -2 35 -10l93 -22q40 -9 63 -24q24 -16 35 -31q12 -17 15 -33q3 -17 3 -31q0 -36 -14 -62t-37 -42q-24 -17 -54 -24q-32 -8 -61 -8q-37 0 -66 7t-55 20
q-23 12 -37 30q-14 19 -14 39q0 27 26 50q25 22 59 39q-32 14 -44 35t-12 46q0 15 6 27t15 21q9 10 20 17q14 10 20 15l3 2q-28 15 -51 47q-22 31 -22 90q0 44 15 76t36 51t45 27q26 8 45 8q15 0 35 -5q18 -5 36 -15q19 16 39 28q16 10 30 10q38 0 38 -35q0 -15 -9 -24
t-20 -9q-8 0 -16 5t-14 11q-8 8 -12 11q-7 5 -10 5q-11 0 -21 -7q26 -19 44 -51q18 -33 18 -85q0 -46 -15 -76t-36 -48t-45 -24t-45 -6zM49 -73v3q0 -39 26 -67q25 -27 90 -27q53 0 88 21q34 21 34 60q0 11 -4 18q-5 7 -15 15q-12 8 -30 14q-27 8 -51 14l-70 19l-31 9
q-23 -12 -30 -31q-7 -18 -7 -48zM154 170l-4 -1q5 0 13 8q7 7 15 24q7 16 12 44q5 30 5 68q0 81 -15 117t-27 36t-27 -36t-15 -117q0 -38 5 -68q4 -25 11 -44q6 -16 14 -24q7 -7 13 -7zM143 687l99 -171l-7 -4l-92 61l-92 -61l-7 4z" />
    <glyph glyph-name="Gbreve" unicode="&#x11e;" horiz-adv-x="421" 
d="M240 -12l-2 -5q-102 0 -160 99q-58 98 -58 295q0 99 18 171q18 71 48 118q30 46 68 69q37 22 75 22q16 0 27 -4q8 -3 22 -9l21 -9q9 -4 24 -4q7 0 12 6q4 6 9 20h6v-175h-6q-18 87 -46 125q-28 39 -66 39q-21 0 -36 -19q-14 -19 -25 -63t-15 -112q-5 -77 -5 -166
q0 -204 21 -299t68 -95q7 0 16 30t9 104v47q0 60 -1 80q-2 31 -6 47q-5 17 -12 23q-8 7 -18 8v7h185v-7q-9 -1 -16 -8q-6 -5 -10 -25q-5 -20 -6 -55q-1 -24 -1 -98v-97q-12 -14 -31 -24q-13 -7 -39 -19q-17 -8 -39 -13q-17 -4 -31 -4zM227 842q25 0 42 9t29 30h8
q-2 -57 -22 -80q-21 -24 -56 -24q-34 0 -57 24t-24 81h8q21 -40 72 -40z" />
    <glyph glyph-name="gbreve" unicode="&#x11f;" horiz-adv-x="329" 
d="M154 161v-3q-14 0 -29 3q-16 3 -31 10l-3 -2q-19 -13 -24 -21t-5 -12q0 -2 2 -6q1 -3 8 -6q10 -5 18 -8q6 -2 35 -10l93 -22q40 -9 63 -24q24 -16 35 -31q12 -17 15 -33q3 -17 3 -31q0 -36 -14 -62t-37 -42q-24 -17 -54 -24q-32 -8 -61 -8q-37 0 -66 7t-55 20
q-23 12 -37 30q-14 19 -14 39q0 27 26 50q25 22 59 39q-32 14 -44 35t-12 46q0 15 6 27t15 21q9 10 20 17q14 10 20 15l3 2q-28 15 -51 47q-22 31 -22 90q0 44 15 76t36 51t45 27q26 8 45 8q15 0 35 -5q18 -5 36 -15q19 16 39 28q16 10 30 10q38 0 38 -35q0 -15 -9 -24
t-20 -9q-8 0 -16 5t-14 11q-8 8 -12 11q-7 5 -10 5q-11 0 -21 -7q26 -19 44 -51q18 -33 18 -85q0 -46 -15 -76t-36 -48t-45 -24t-45 -6zM49 -73v3q0 -39 26 -67q25 -27 90 -27q53 0 88 21q34 21 34 60q0 11 -4 18q-5 7 -15 15q-12 8 -30 14q-27 8 -51 14l-70 19l-31 9
q-23 -12 -30 -31q-7 -18 -7 -48zM154 170l-4 -1q5 0 13 8q7 7 15 24q7 16 12 44q5 30 5 68q0 81 -15 117t-27 36t-27 -36t-15 -117q0 -38 5 -68q4 -25 11 -44q6 -16 14 -24q7 -7 13 -7zM143 591l-1 -1q31 0 47 11q14 9 22 23h9q2 -39 -18 -69t-58 -30q-39 0 -60 30
q-21 29 -19 71h9q5 -11 21 -23q17 -12 48 -12z" />
    <glyph glyph-name="Gdotaccent" unicode="&#x120;" horiz-adv-x="421" 
d="M240 -12l-2 -5q-102 0 -160 99q-58 98 -58 295q0 99 18 171q18 71 48 118q30 46 68 69q37 22 75 22q16 0 27 -4q8 -3 22 -9l21 -9q9 -4 24 -4q7 0 12 6q4 6 9 20h6v-175h-6q-18 87 -46 125q-28 39 -66 39q-21 0 -36 -19q-14 -19 -25 -63t-15 -112q-5 -77 -5 -166
q0 -204 21 -299t68 -95q7 0 16 30t9 104v47q0 60 -1 80q-2 31 -6 47q-5 17 -12 23q-8 7 -18 8v7h185v-7q-9 -1 -16 -8q-6 -5 -10 -25q-5 -20 -6 -55q-1 -24 -1 -98v-97q-12 -14 -31 -24q-13 -7 -39 -19q-17 -8 -39 -13q-17 -4 -31 -4zM226 780h-1q-25 0 -42 18
q-17 19 -17 44q0 23 17 42q17 18 42 18q26 0 44 -18t18 -42q0 -26 -18 -44t-43 -18z" />
    <glyph glyph-name="gdotaccent" unicode="&#x121;" horiz-adv-x="329" 
d="M154 161v-3q-14 0 -29 3q-16 3 -31 10l-3 -2q-19 -13 -24 -21t-5 -12q0 -2 2 -6q1 -3 8 -6q10 -5 18 -8q6 -2 35 -10l93 -22q40 -9 63 -24q24 -16 35 -31q12 -17 15 -33q3 -17 3 -31q0 -36 -14 -62t-37 -42q-24 -17 -54 -24q-32 -8 -61 -8q-37 0 -66 7t-55 20
q-23 12 -37 30q-14 19 -14 39q0 27 26 50q25 22 59 39q-32 14 -44 35t-12 46q0 15 6 27t15 21q9 10 20 17q14 10 20 15l3 2q-28 15 -51 47q-22 31 -22 90q0 44 15 76t36 51t45 27q26 8 45 8q15 0 35 -5q18 -5 36 -15q19 16 39 28q16 10 30 10q38 0 38 -35q0 -15 -9 -24
t-20 -9q-8 0 -16 5t-14 11q-8 8 -12 11q-7 5 -10 5q-11 0 -21 -7q26 -19 44 -51q18 -33 18 -85q0 -46 -15 -76t-36 -48t-45 -24t-45 -6zM49 -73v3q0 -39 26 -67q25 -27 90 -27q53 0 88 21q34 21 34 60q0 11 -4 18q-5 7 -15 15q-12 8 -30 14q-27 8 -51 14l-70 19l-31 9
q-23 -12 -30 -31q-7 -18 -7 -48zM154 170l-4 -1q5 0 13 8q7 7 15 24q7 16 12 44q5 30 5 68q0 81 -15 117t-27 36t-27 -36t-15 -117q0 -38 5 -68q4 -25 11 -44q6 -16 14 -24q7 -7 13 -7zM143 526l-2 -1q-25 0 -43 18t-18 44q0 25 18 43t44 18t44 -18t18 -43t-18 -43t-43 -18z
" />
    <glyph glyph-name="uni0122" unicode="&#x122;" horiz-adv-x="421" 
d="M240 -12l-2 -5q-102 0 -160 99q-58 98 -58 295q0 99 18 171q18 71 48 118q30 46 68 69q37 22 75 22q16 0 27 -4q8 -3 22 -9l21 -9q9 -4 24 -4q7 0 12 6q4 6 9 20h6v-175h-6q-18 87 -46 125q-28 39 -66 39q-21 0 -36 -19q-14 -19 -25 -63t-15 -112q-5 -77 -5 -166
q0 -204 21 -299t68 -95q7 0 16 30t9 104v47q0 60 -1 80q-2 31 -6 47q-5 17 -12 23q-8 7 -18 8v7h185v-7q-9 -1 -16 -8q-6 -5 -10 -25q-5 -20 -6 -55q-1 -24 -1 -98v-97q-12 -14 -31 -24q-13 -7 -39 -19q-17 -8 -39 -13q-17 -4 -31 -4zM271 -115v-2q-4 -5 -15 -13
q-10 -7 -28 -7q-19 0 -35 14q-15 13 -15 36q0 25 17 39t36 14q26 0 45 -16q20 -17 20 -54q0 -38 -24 -62q-23 -23 -63 -28l-4 7q37 5 54 24q17 20 17 36q0 9 -5 12z" />
    <glyph glyph-name="uni0123" unicode="&#x123;" horiz-adv-x="329" 
d="M154 161v-3q-14 0 -29 3q-16 3 -31 10l-3 -2q-19 -13 -24 -21t-5 -12q0 -2 2 -6q1 -3 8 -6q10 -5 18 -8q6 -2 35 -10l93 -22q40 -9 63 -24q24 -16 35 -31q12 -17 15 -33q3 -17 3 -31q0 -36 -14 -62t-37 -42q-24 -17 -54 -24q-32 -8 -61 -8q-37 0 -66 7t-55 20
q-23 12 -37 30q-14 19 -14 39q0 27 26 50q25 22 59 39q-32 14 -44 35t-12 46q0 15 6 27t15 21q9 10 20 17q14 10 20 15l3 2q-28 15 -51 47q-22 31 -22 90q0 44 15 76t36 51t45 27q26 8 45 8q15 0 35 -5q18 -5 36 -15q19 16 39 28q16 10 30 10q38 0 38 -35q0 -15 -9 -24
t-20 -9q-8 0 -16 5t-14 11q-8 8 -12 11q-7 5 -10 5q-11 0 -21 -7q26 -19 44 -51q18 -33 18 -85q0 -46 -15 -76t-36 -48t-45 -24t-45 -6zM49 -73v3q0 -39 26 -67q25 -27 90 -27q53 0 88 21q34 21 34 60q0 11 -4 18q-5 7 -15 15q-12 8 -30 14q-27 8 -51 14l-70 19l-31 9
q-23 -12 -30 -31q-7 -18 -7 -48zM154 170l-4 -1q5 0 13 8q7 7 15 24q7 16 12 44q5 30 5 68q0 81 -15 117t-27 36t-27 -36t-15 -117q0 -38 5 -68q4 -25 11 -44q6 -16 14 -24q7 -7 13 -7zM102 614l-4 -1q4 5 15 12q10 7 27 7q22 0 36 -13q15 -13 15 -36q0 -26 -16 -39t-36 -13
q-25 0 -45 17q-19 16 -19 54t24 62q25 25 64 29l4 -7q-37 -4 -54 -24q-16 -19 -16 -36q0 -10 5 -12z" />
    <glyph glyph-name="Hcircumflex" unicode="&#x124;" horiz-adv-x="472" 
d="M18 6q10 3 17 8q6 4 9 18q2 10 4 41q1 18 1 74v454q0 56 -1 74q-2 31 -4 41q-3 14 -9 18q-7 5 -17 8v6h186v-6q-10 -3 -17 -8q-6 -4 -9 -18q-2 -10 -4 -41q-1 -18 -1 -74v-187h128v187q0 56 -1 74q-2 31 -4 41q-3 14 -9 18q-7 5 -17 8v6h186v-6q-10 -3 -17 -8
q-6 -4 -9 -18q-2 -10 -4 -41q-1 -18 -1 -74v-454q0 -56 1 -74q2 -31 4 -41q3 -14 9 -18q7 -5 17 -8v-6h-186v6q10 3 17 8q6 4 9 18q2 10 4 41q1 18 1 74v259h-128v-259q0 -56 1 -74q2 -31 4 -41q3 -14 9 -18q7 -5 17 -8v-6h-186v6zM236 898l114 -113l-3 -6l-111 38l-111 -38
l-2 6z" />
    <glyph glyph-name="hcircumflex" unicode="&#x125;" horiz-adv-x="380" 
d="M13 6l-1 1q10 3 14 6t7 12t3 24v41v527q0 27 -1 36q-2 15 -4 20q-3 7 -9 8q-7 2 -16 3v7l138 83v-371q12 13 32 33q13 13 26 21t24 11q12 3 26 3q11 0 24 -4q15 -5 30 -15q16 -11 26 -30q11 -20 11 -49v-286v-41q0 -12 2 -24q1 -9 6 -12q4 -3 14 -6v-6h-160v6q9 3 16 6
q6 3 9 12q2 7 4 24q1 10 1 41v317q0 27 -8 37q-7 9 -14 9q-4 0 -20 -11t-50 -48v-302v-41q0 -15 3 -24t9 -12q7 -3 16 -6v-6h-158v6zM194 909l114 -113l-3 -6l-111 38l-111 -38l-2 6z" />
    <glyph glyph-name="Hbar" unicode="&#x126;" horiz-adv-x="462" 
d="M-1 577h464v-8h-464v8zM13 6q10 3 17 8q6 4 9 18q2 10 4 41q1 18 1 74v454q0 56 -1 74q-2 31 -4 41q-3 14 -9 18q-7 5 -17 8v6h186v-6q-10 -3 -17 -8q-6 -4 -9 -18q-2 -10 -4 -41q-1 -18 -1 -74v-187h128v187q0 56 -1 74q-2 31 -4 41q-3 14 -9 18q-7 5 -17 8v6h186v-6
q-10 -3 -17 -8q-6 -4 -9 -18q-2 -10 -4 -41q-1 -18 -1 -74v-454q0 -56 1 -74q2 -31 4 -41q3 -14 9 -18q7 -5 17 -8v-6h-186v6q10 3 17 8q6 4 9 18q2 10 4 41q1 18 1 74v259h-128v-259q0 -56 1 -74q2 -31 4 -41q3 -14 9 -18q7 -5 17 -8v-6h-186v6z" />
    <glyph glyph-name="hbar" unicode="&#x127;" horiz-adv-x="379" 
d="M-18 569v9h264v-9h-264zM13 6l-1 1q10 3 14 6t7 12t3 24v41v527q0 27 -1 36q-2 15 -4 20q-3 7 -9 8q-7 2 -16 3v7l138 83v-371q12 13 32 33q13 13 26 21t24 11q12 3 26 3q11 0 24 -4q15 -5 30 -15q16 -11 26 -30q11 -20 11 -49v-286v-41q0 -12 2 -24q1 -9 6 -12
q4 -3 14 -6v-6h-160v6q9 3 16 6q6 3 9 12q2 7 4 24q1 10 1 41v317q0 27 -8 37q-7 9 -14 9q-4 0 -20 -11t-50 -48v-302v-41q0 -15 3 -24t9 -12q7 -3 16 -6v-6h-158v6z" />
    <glyph glyph-name="Itilde" unicode="&#x128;" horiz-adv-x="222" 
d="M18 6v-2q10 3 17 8q6 4 9 20q2 12 4 42q1 18 1 74v454q0 56 -1 74q-2 31 -4 41q-3 13 -9 18q-7 5 -17 8v6h186v-6q-10 -3 -17 -8q-6 -5 -9 -18q-2 -10 -4 -41q-1 -18 -1 -74v-454q0 -55 1 -73q2 -30 4 -42q3 -14 9 -19q7 -5 17 -8v-6h-186v6zM78 860h-3q33 0 45 -1t35 -1
q12 0 21 9q2 2 10.5 11t14.5 15l6 -2q-18 -95 -60 -95q-29 0 -39 1t-38 1q-9 0 -19 -8q-9 -8 -21 -24l-7 2q12 52 25 71q14 21 30 21z" />
    <glyph glyph-name="itilde" unicode="&#x129;" horiz-adv-x="184" 
d="M12 6v-1q9 3 16 6q6 3 9 12t3 24v41v223q0 27 -1 36q-2 15 -4 21q-3 7 -9 10q-8 4 -16 5v7l136 85v-386v-41q0 -15 3 -24t9 -12q7 -3 16 -6v-6h-162v6zM55 620h-1q22 0 41 -3t36 -3q11 0 20 11t24 27l7 -3q-10 -43 -23 -72q-12 -27 -35 -27q-20 0 -39 3t-39 3
q-11 0 -18 -10q-8 -10 -24 -27l-6 3q14 49 25 72q12 26 32 26z" />
    <glyph glyph-name="Imacron" unicode="&#x12a;" horiz-adv-x="222" 
d="M18 6v-2q10 3 17 8q6 4 9 20q2 12 4 42q1 18 1 74v454q0 56 -1 74q-2 31 -4 41q-3 13 -9 18q-7 5 -17 8v6h186v-6q-10 -3 -17 -8q-6 -5 -9 -18q-2 -10 -4 -41q-1 -18 -1 -74v-454q0 -55 1 -73q2 -30 4 -42q3 -14 9 -19q7 -5 17 -8v-6h-186v6zM199 793h-174v47h174v-47z
" />
    <glyph glyph-name="imacron" unicode="&#x12b;" horiz-adv-x="184" 
d="M12 6v-1q9 3 16 6q6 3 9 12t3 24v41v223q0 27 -1 36q-2 15 -4 21q-3 7 -9 10q-8 4 -16 5v7l136 85v-386v-41q0 -15 3 -24t9 -12q7 -3 16 -6v-6h-162v6zM174 595v-46h-164v46h164z" />
    <glyph glyph-name="Ibreve" unicode="&#x12c;" horiz-adv-x="222" 
d="M18 6v-2q10 3 17 8q6 4 9 20q2 12 4 42q1 18 1 74v454q0 56 -1 74q-2 31 -4 41q-3 13 -9 18q-7 5 -17 8v6h186v-6q-10 -3 -17 -8q-6 -5 -9 -18q-2 -10 -4 -41q-1 -18 -1 -74v-454q0 -55 1 -73q2 -30 4 -42q3 -14 9 -19q7 -5 17 -8v-6h-186v6zM112 846q26 0 42 9
q17 9 29 30h8q-2 -57 -22 -80q-21 -24 -56 -24t-57 24t-24 81h8q21 -40 72 -40z" />
    <glyph glyph-name="ibreve" unicode="&#x12d;" horiz-adv-x="184" 
d="M12 6v-1q9 3 16 6q6 3 9 12t3 24v41v223q0 27 -1 36q-2 15 -4 21q-3 7 -9 10q-8 4 -16 5v7l136 85v-386v-41q0 -15 3 -24t9 -12q7 -3 16 -6v-6h-162v6zM93 591l-1 -1q31 0 47 11q14 9 22 23h9q2 -39 -18 -69t-58 -30q-39 0 -60 30q-21 29 -19 71h9q5 -11 21 -23
q17 -12 48 -12z" />
    <glyph glyph-name="Iogonek" unicode="&#x12e;" horiz-adv-x="222" 
d="M18 6v-2q10 3 17 8q6 4 9 20q2 12 4 42q1 18 1 74v454q0 56 -1 74q-2 31 -4 41q-3 13 -9 18q-7 5 -17 8v6h186v-6q-10 -3 -17 -8q-6 -5 -9 -18q-2 -10 -4 -41q-1 -18 -1 -74v-454q0 -55 1 -73q2 -30 4 -42q3 -14 9 -19q7 -5 17 -8v-6h-186v6zM117 -179l-3 -4
q-34 0 -57 18q-22 18 -22 47q0 20 12 38t30 33q17 14 39 25q24 12 39 17h13q-12 -12 -24 -36t-12 -59q0 -22 11 -35q11 -12 29 -12q13 0 21 5q7 4 15 12l5 -5l-12 -12q-8 -8 -19 -15q-12 -8 -28 -12q-18 -5 -37 -5z" />
    <glyph glyph-name="iogonek" unicode="&#x12f;" horiz-adv-x="184" 
d="M92 527l-2 -1q-25 0 -43 18t-18 44q0 25 18 43t44 18t44 -18t18 -43t-18 -43t-43 -18zM10 5v-1q9 3 16 6q6 3 9 12t3 24v41v223q0 27 -1 36q-2 15 -4 21q-3 7 -9 10q-8 4 -16 5v7l136 85v-386v-41q0 -15 3 -24t9 -12q7 -3 16 -6v-6h-162v6zM90 -179l-3 -4q-35 0 -57 18
t-22 47q0 20 12 38t30 33q16 14 39 25q24 12 39 17h13q-12 -12 -24 -36t-12 -59q0 -22 11 -35q10 -12 29 -12q13 0 21 5q8 4 15 12l5 -5l-12 -12q-8 -8 -19 -15q-12 -8 -28 -12q-18 -5 -37 -5z" />
    <glyph glyph-name="Idotaccent" unicode="&#x130;" horiz-adv-x="222" 
d="M18 6v-2q10 3 17 8q6 4 9 20q2 12 4 42q1 18 1 74v454q0 56 -1 74q-2 31 -4 41q-3 13 -9 18q-7 5 -17 8v6h186v-6q-10 -3 -17 -8q-6 -5 -9 -18q-2 -10 -4 -41q-1 -18 -1 -74v-454q0 -55 1 -73q2 -30 4 -42q3 -14 9 -19q7 -5 17 -8v-6h-186v6zM111 783h-1q-26 0 -42 18
q-17 19 -17 44q0 23 17 42q16 18 42 18t44 -18t18 -42q0 -26 -18 -44t-43 -18z" />
    <glyph glyph-name="dotlessi" unicode="&#x131;" horiz-adv-x="184" 
d="M12 6v-1q9 3 16 6q6 3 9 12t3 24v41v223q0 27 -1 36q-2 15 -4 21q-3 7 -9 10q-8 4 -16 5v7l136 85v-386v-41q0 -15 3 -24t9 -12q7 -3 16 -6v-6h-162v6z" />
    <glyph glyph-name="IJ" unicode="&#x132;" horiz-adv-x="554" 
d="M18 6v-2q10 3 17 8q6 4 9 20q2 12 4 42q1 18 1 74v454q0 56 -1 74q-2 31 -4 41q-3 13 -9 18q-7 5 -17 8v6h186v-6q-10 -3 -17 -8q-6 -5 -9 -18q-2 -10 -4 -41q-1 -18 -1 -74v-454q0 -55 1 -73q2 -30 4 -42q3 -14 9 -19q7 -5 17 -8v-6h-186v6zM360 -12l-5 1q-68 0 -98 18
t-30 50q0 23 15 36q14 13 33 13q37 0 54 -56q9 -32 15 -42t17 -10q8 0 17 12t9 53v536q0 56 -1 74q-2 31 -4 41q-3 14 -9 18q-7 5 -17 8v6h185v-6q-10 -3 -17 -8q-6 -4 -9 -18q-2 -10 -4 -41q-1 -18 -1 -74v-438q0 -46 -13 -78q-14 -34 -34 -54t-48 -31q-26 -10 -55 -10z
" />
    <glyph glyph-name="ij" unicode="&#x133;" horiz-adv-x="364" 
d="M92 527l-2 -1q-25 0 -43 18t-18 44q0 25 18 43t44 18t44 -18t18 -43t-18 -43t-43 -18zM10 5v-1q9 3 16 6q6 3 9 12t3 24v41v223q0 27 -1 36q-2 15 -4 21q-3 7 -9 10q-8 4 -16 5v7l136 85v-386v-41q0 -15 3 -24t9 -12q7 -3 16 -6v-6h-162v6zM269 525l-2 -1q-25 0 -43 18
t-18 44q0 25 18 43t44 18t44 -18t18 -43t-18 -43t-43 -18zM148 -142l1 1q-21 0 -36 12t-15 33q0 16 11 27q10 10 26 10q17 0 27 -9q11 -10 18 -19q2 -3 7 -9.5t7 -9.5q6 -9 14 -9q5 0 6 4q5 5 3 20q-1 10 -1 57v343q0 27 -1 36q-2 15 -4 21q-3 8 -9 11q-8 4 -16 5v7l136 85
v-400q0 -39 -1 -55q-1 -24 -9 -45q-7 -20 -24 -40q-16 -20 -45 -39q-32 -23 -52 -30t-43 -7z" />
    <glyph glyph-name="Jcircumflex" unicode="&#x134;" horiz-adv-x="331" 
d="M137 -10l-5 1q-68 0 -98 18t-30 50q0 23 15 36q14 13 33 13q37 0 54 -56q9 -32 15 -42t17 -10q8 0 17 12t9 53v536q0 56 -1 74q-2 31 -4 41q-3 14 -9 18q-7 5 -17 8v6h185v-6q-10 -3 -17 -8q-6 -4 -9 -18q-2 -10 -4 -41q-1 -18 -1 -74v-438q0 -46 -13 -78
q-14 -34 -34 -54t-48 -31q-26 -10 -55 -10zM221 899l114 -113l-3 -6l-111 38l-111 -38l-2 6z" />
    <glyph glyph-name="jcircumflex" unicode="&#x135;" horiz-adv-x="184" 
d="M-28 -139h1q-21 0 -36 12t-15 33q0 16 11 27q10 10 26 10q17 0 27 -9q11 -10 18 -19q2 -3 7 -9.5t7 -9.5q6 -9 14 -9q4 0 7 3q5 5 3 20q-1 10 -1 59v343q0 27 -1 36q-2 15 -4 21q-3 8 -9 11q-8 4 -16 5v7l135 85v-400q0 -39 -1 -55q-1 -24 -9 -45q-7 -20 -24 -40
q-16 -19 -45 -39q-32 -23 -52 -30t-43 -7zM88 688l99 -171l-7 -4l-92 61l-92 -61l-7 4z" />
    <glyph glyph-name="uni0136" unicode="&#x136;" horiz-adv-x="425" 
d="M18 6l-2 1q10 3 17 8q6 5 9 18q2 10 4 41q1 18 1 74v454q0 56 -1 74q-2 31 -4 41q-3 13 -9 18q-7 5 -17 8v6h186v-6q-10 -3 -17 -8q-6 -5 -9 -18q-2 -10 -4 -41q-1 -18 -1 -74v-212l161 272q11 19 14 33q3 15 0 25t-10 16q-8 6 -16 9v6h92v-6q-12 -5 -18 -10
q-8 -7 -15 -16q-13 -18 -17 -25q-3 -4 -10 -16.5t-12 -20.5l-85 -144l143 -433l12 -36q2 -6 8 -21q3 -8 6 -11q4 -4 7 -6v-6h-179v6q10 3 15 7q7 5 8 12t0 21t-9 36l-93 293v-228q0 -56 1 -74q2 -31 4 -41q3 -14 9 -18q7 -5 17 -8v-6h-186v6zM252 -109v-2q-4 -5 -15 -13
q-10 -7 -28 -7q-19 0 -35 14q-15 13 -15 36q0 25 17 39t36 14q26 0 45 -16q20 -17 20 -54q0 -38 -24 -62q-23 -23 -63 -28l-4 7q38 5 54 24q17 20 17 36q0 9 -5 12z" />
    <glyph glyph-name="uni0137" unicode="&#x137;" horiz-adv-x="353" 
d="M13 6l-2 1q10 3 14 6t7 12t3 24v41v556q0 16 -1 21q-2 9 -4 11q-3 3 -8 3q-2 0 -12 2v7l133 84v-685v-41q0 -15 3 -24t9 -12q7 -3 16 -6v-6h-158v6zM192 6l-2 -1q17 5 20 14q3 10 -7 39l-59 187v6l116 149q20 26 14 41q-6 14 -23 19v6h89v-6q-15 -7 -30 -19
q-18 -14 -42 -46l-47 -60l102 -282q7 -20 14 -33q6 -11 14 -14v-5h-159v5zM218 -110v-2q-4 -5 -15 -13q-10 -7 -28 -7q-19 0 -35 14q-15 14 -15 36q0 25 17 39t36 14q26 0 45 -16q20 -17 20 -54q0 -38 -24 -62q-23 -23 -63 -28l-4 7q38 4 54 24q17 20 17 36q0 9 -5 12z" />
    <glyph glyph-name="Lacute" unicode="&#x139;" horiz-adv-x="361" 
d="M18 6v-1q10 3 17 8q6 5 9 18q2 10 4 41q1 18 1 74v454q0 56 -1 74q-2 31 -4 41q-3 13 -9 18q-7 5 -17 8v6h189v-6q-11 -3 -18 -8q-6 -5 -9 -18q-2 -10 -4 -41q-1 -18 -1 -74v-592q32 1 58 9q25 7 45 24q19 16 36 44q16 27 33 69h7l-24 -137q-3 -14 -7 -15q-6 -2 -12 -2
h-293v6zM38 785l95 75q13 10 24 15q12 5 24 5q17 0 26 -10t9 -24q0 -35 -50 -47l-125 -21z" />
    <glyph glyph-name="lacute" unicode="&#x13a;" horiz-adv-x="184" 
d="M13 6l-2 1q9 3 16 6q6 3 9 12t3 24v41v557q0 22 -5 29t-21 8v7l134 84v-686v-41q0 -15 3 -24t9 -12q7 -3 16 -6v-6h-162v6zM9 787l95 75q14 10 24 15q12 5 24 5q17 0 26 -10t9 -24q0 -35 -50 -47l-125 -21z" />
    <glyph glyph-name="uni013B" unicode="&#x13b;" horiz-adv-x="361" 
d="M18 6v-1q10 3 17 8q6 5 9 18q2 10 4 41q1 18 1 74v454q0 56 -1 74q-2 31 -4 41q-3 13 -9 18q-7 5 -17 8v6h189v-6q-11 -3 -18 -8q-6 -5 -9 -18q-2 -10 -4 -41q-1 -18 -1 -74v-592q32 1 58 9q25 7 45 24q19 16 36 44q16 27 33 69h7l-24 -137q-3 -14 -7 -15q-6 -2 -12 -2
h-293v6zM217 -111v-2q-4 -5 -15 -13q-10 -7 -28 -7q-19 0 -35 14q-15 13 -15 36q0 25 17 39t36 14q26 0 45 -16q20 -17 20 -54q0 -38 -24 -62q-23 -23 -63 -28l-4 7q37 5 54 24q17 20 17 36q0 9 -5 12z" />
    <glyph glyph-name="uni013C" unicode="&#x13c;" horiz-adv-x="184" 
d="M12 6l-2 1q9 3 16 6q6 3 9 12t3 24v41v557q0 22 -5 29t-21 8v7l134 84v-686v-41q0 -15 3 -24t9 -12q7 -3 16 -6v-6h-162v6zM121 -109v-2q-4 -5 -15 -13q-10 -7 -28 -7q-19 0 -35 14q-15 13 -15 36q0 25 17 39t36 14q26 0 45 -16q20 -17 20 -54q0 -38 -24 -62
q-23 -23 -63 -28l-4 7q37 5 54 24q17 20 17 36q0 9 -5 12z" />
    <glyph glyph-name="Lcaron" unicode="&#x13d;" horiz-adv-x="361" 
d="M18 6v-1q10 3 17 8q6 5 9 18q2 10 4 41q1 18 1 74v454q0 56 -1 74q-2 31 -4 41q-3 13 -9 18q-7 5 -17 8v6h189v-6q-11 -3 -18 -8q-6 -5 -9 -18q-2 -10 -4 -41q-1 -18 -1 -74v-592q32 1 58 9q25 7 45 24q19 16 36 44q16 27 33 69h7l-24 -137q-3 -14 -7 -15q-6 -2 -12 -2
h-293v6zM218 551l10 138q1 32 12 49q10 16 27 16q35 0 35 -38q0 -10 -3 -21q-3 -9 -8 -18l-67 -128z" />
    <glyph glyph-name="lcaron" unicode="&#x13e;" horiz-adv-x="184" 
d="M12 6l-2 1q9 3 16 6q6 3 9 12t3 24v41v557q0 22 -5 29t-21 8v7l134 84v-686v-41q0 -15 3 -24t9 -12q7 -3 16 -6v-6h-162v6zM156 561l10 138q1 32 12 49q10 16 27 16q35 0 35 -38q0 -10 -3 -21q-3 -9 -8 -18l-67 -128z" />
    <glyph glyph-name="Ldot" unicode="&#x13f;" horiz-adv-x="361" 
d="M290 325q-26 0 -46 18q-19 18 -19 47q0 28 19 46q20 18 46 18q29 0 47 -18t18 -46q0 -29 -18 -47t-47 -18zM18 6v-1q10 3 17 8q6 5 9 18q2 10 4 41q1 18 1 74v454q0 56 -1 74q-2 31 -4 41q-3 13 -9 18q-7 5 -17 8v6h189v-6q-11 -3 -18 -8q-6 -5 -9 -18q-2 -10 -4 -41
q-1 -18 -1 -74v-592q32 1 58 9q25 7 45 24q19 16 36 44q16 27 33 69h7l-24 -137q-3 -14 -7 -15q-6 -2 -12 -2h-293v6z" />
    <glyph glyph-name="ldot" unicode="&#x140;" horiz-adv-x="284" 
d="M233 306q-27 0 -45 18t-18 45q0 26 18 44t45 18q26 0 44 -18t18 -44q0 -27 -18 -45t-44 -18zM12 6l-2 1q9 3 16 6q6 3 9 12t3 24v41v557q0 22 -5 29t-21 8v7l134 84v-686v-41q0 -15 3 -24t9 -12q7 -3 16 -6v-6h-162v6z" />
    <glyph glyph-name="Lslash" unicode="&#x141;" horiz-adv-x="361" 
d="M2 284l-5 8l297 177l4 -7zM18 6v-1q10 3 17 8q6 5 9 18q2 10 4 41q1 18 1 74v454q0 56 -1 74q-2 31 -4 41q-3 13 -9 18q-7 5 -17 8v6h189v-6q-11 -3 -18 -8q-6 -5 -9 -18q-2 -10 -4 -41q-1 -18 -1 -74v-592q32 1 58 9q25 7 45 24q19 16 36 44q16 27 33 69h7l-24 -137
q-3 -14 -7 -15q-6 -2 -12 -2h-293v6z" />
    <glyph glyph-name="lslash" unicode="&#x142;" horiz-adv-x="184" 
d="M-12 311l-6 8l216 161l5 -8zM12 6l-2 1q9 3 16 6q6 3 9 12t3 24v41v557q0 22 -5 29t-21 8v7l134 84v-686v-41q0 -15 3 -24t9 -12q7 -3 16 -6v-6h-162v6z" />
    <glyph glyph-name="Nacute" unicode="&#x143;" horiz-adv-x="401" 
d="M18 6l-2 -3q11 9 17 17t9 22q2 12 4 40q1 17 1 69v450q0 56 -1 74q-2 30 -4 42q-3 16 -9 20q-7 5 -17 8v6h136q19 0 24 -4q6 -5 12 -21l159 -437v309q0 52 -1 69q-2 28 -4 40q-3 14 -11 22q-9 9 -21 17v6h79v-6q-13 -11 -17 -16q-6 -8 -9 -22q-2 -12 -4 -40
q-1 -17 -1 -69v-601h-25l-273 722v-567q0 -52 1 -69q1 -21 5 -40q3 -14 11 -22q6 -6 21 -16v-6h-80v6zM157 783l95 75q14 10 24 15q12 5 24 5q17 0 26 -10t9 -24q0 -35 -50 -47l-125 -21z" />
    <glyph glyph-name="nacute" unicode="&#x144;" horiz-adv-x="383" 
d="M13 6l-1 -1q10 3 14 6t7 12t3 24v41v223q0 29 -1 38q-2 15 -4 21q-3 7 -9 10q-5 2 -16 4v7l138 85v-73q12 13 32 33q12 12 27 22q13 9 26 12q12 3 26 3q11 0 24 -4q15 -5 30 -15q16 -11 26 -30q11 -20 11 -49v-286v-41q0 -12 2 -24q2 -9 6 -12t14 -6v-6h-163v6q9 3 16 6
q6 3 9 12q2 7 4 24q1 10 1 41v317q0 28 -7 36q-8 9 -13 9q-4 0 -20 -11q-15 -11 -50 -50v-301v-41q0 -15 3 -24t9 -12q7 -3 16 -6v-6h-160v6zM142 518l61 117q11 21 23 33q11 11 27 11q17 0 27 -9t10 -26q0 -16 -9 -30q-9 -13 -25 -25l-108 -75z" />
    <glyph glyph-name="uni0145" unicode="&#x145;" horiz-adv-x="401" 
d="M18 6l-2 -3q11 9 17 17t9 22q2 12 4 40q1 17 1 69v450q0 56 -1 74q-2 30 -4 42q-3 16 -9 20q-7 5 -17 8v6h136q19 0 24 -4q6 -5 12 -21l159 -437v309q0 52 -1 69q-2 28 -4 40q-3 14 -11 22q-9 9 -21 17v6h79v-6q-13 -11 -17 -16q-6 -8 -9 -22q-2 -12 -4 -40
q-1 -17 -1 -69v-601h-25l-273 722v-567q0 -52 1 -69q1 -21 5 -40q3 -14 11 -22q6 -6 21 -16v-6h-80v6zM233 -113v-2q-4 -5 -15 -13q-10 -7 -28 -7q-19 0 -35 14q-15 13 -15 36q0 25 17 39t36 14q26 0 45 -16q20 -17 20 -54q0 -38 -24 -62q-23 -23 -63 -28l-4 7q37 5 54 24
q17 20 17 36q0 9 -5 12z" />
    <glyph glyph-name="uni0146" unicode="&#x146;" horiz-adv-x="383" 
d="M13 6l-1 -1q10 3 14 6t7 12t3 24v41v223q0 29 -1 38q-2 15 -4 21q-3 7 -9 10q-5 2 -16 4v7l138 85v-73q12 13 32 33q12 12 27 22q13 9 26 12q12 3 26 3q11 0 24 -4q15 -5 30 -15q16 -11 26 -30q11 -20 11 -49v-286v-41q0 -12 2 -24q2 -9 6 -12t14 -6v-6h-163v6q9 3 16 6
q6 3 9 12q2 7 4 24q1 10 1 41v317q0 28 -7 36q-8 9 -13 9q-4 0 -20 -11q-15 -11 -50 -50v-301v-41q0 -15 3 -24t9 -12q7 -3 16 -6v-6h-160v6zM225 -111v-2q-4 -5 -15 -13q-10 -7 -28 -7q-19 0 -35 14q-15 13 -15 36q0 25 17 39t36 14q26 0 45 -16q20 -17 20 -54
q0 -38 -24 -62q-23 -23 -63 -28l-4 7q37 5 54 24q17 20 17 36q0 9 -5 12z" />
    <glyph glyph-name="Ncaron" unicode="&#x147;" horiz-adv-x="401" 
d="M18 6l-2 -3q11 9 17 17t9 22q2 12 4 40q1 17 1 69v450q0 56 -1 74q-2 30 -4 42q-3 16 -9 20q-7 5 -17 8v6h136q19 0 24 -4q6 -5 12 -21l159 -437v309q0 52 -1 69q-2 28 -4 40q-3 14 -11 22q-9 9 -21 17v6h79v-6q-13 -11 -17 -16q-6 -8 -9 -22q-2 -12 -4 -40
q-1 -17 -1 -69v-601h-25l-273 722v-567q0 -52 1 -69q1 -21 5 -40q3 -14 11 -22q6 -6 21 -16v-6h-80v6zM124 901l111 -38l111 38l3 -6l-114 -113l-113 113z" />
    <glyph glyph-name="ncaron" unicode="&#x148;" horiz-adv-x="383" 
d="M13 6l-1 -1q10 3 14 6t7 12t3 24v41v223q0 29 -1 38q-2 15 -4 21q-3 7 -9 10q-5 2 -16 4v7l138 85v-73q12 13 32 33q12 12 27 22q13 9 26 12q12 3 26 3q11 0 24 -4q15 -5 30 -15q16 -11 26 -30q11 -20 11 -49v-286v-41q0 -12 2 -24q2 -9 6 -12t14 -6v-6h-163v6q9 3 16 6
q6 3 9 12q2 7 4 24q1 10 1 41v317q0 28 -7 36q-8 9 -13 9q-4 0 -20 -11q-15 -11 -50 -50v-301v-41q0 -15 3 -24t9 -12q7 -3 16 -6v-6h-160v6zM106 687l92 -61l92 61l7 -4l-99 -171l-99 171z" />
    <glyph glyph-name="napostrophe" unicode="&#x149;" horiz-adv-x="382" 
d="M13 6l-1 -1q10 3 14 6t7 12t3 24v41v223q0 29 -1 38q-2 15 -4 21q-3 7 -9 10q-5 2 -16 4v7l138 85v-73q12 13 32 33q12 12 27 22q13 9 26 12q12 3 26 3q11 0 24 -4q15 -5 30 -15q16 -11 26 -30q11 -20 11 -49v-286v-41q0 -12 2 -24q2 -9 6 -12t14 -6v-6h-163v6q9 3 16 6
q6 3 9 12q2 7 4 24q1 10 1 41v317q0 28 -7 36q-8 9 -13 9q-4 0 -20 -11q-15 -11 -50 -50v-301v-41q0 -15 3 -24t9 -12q7 -3 16 -6v-6h-160v6zM16 669h-4q-5 -8 -14 -14t-26 -6q-21 0 -36 16q-15 17 -15 39q0 27 18 42t42 15q13 0 24 -4q10 -4 22 -14q10 -8 16 -24
q6 -15 6 -36q0 -51 -27 -85t-68 -54l-5 7q37 19 57 44t20 50q0 17 -10 24z" />
    <glyph glyph-name="Eng" unicode="&#x14a;" horiz-adv-x="401" 
d="M18 6l-2 -5q11 9 17 17t9 22q2 12 4 40q1 17 1 69v450q0 56 -1 74q-2 30 -4 42q-3 16 -9 20q-7 5 -17 8v6h136q19 0 24 -4q6 -5 12 -21l159 -425v297q0 52 -1 69q-2 28 -4 40q-3 14 -11 22q-9 9 -21 17v6h79v-6q-13 -11 -17 -16q-6 -8 -9 -22q-2 -12 -4 -40
q-1 -17 -1 -69v-629q0 -47 -21 -74t-60 -27q-59 0 -90 21q-32 21 -32 53q0 18 11 31q10 12 30 12q23 0 32 -12q10 -13 17 -43q10 -52 33 -52q31 0 51 26q19 25 19 69v6l-288 743l-1 -568q0 -52 1 -69q1 -21 5 -40q3 -14 11 -22q6 -6 21 -16l1 -6h-80v6z" />
    <glyph glyph-name="eng" unicode="&#x14b;" horiz-adv-x="384" 
d="M13 6l-3 1q10 3 14 6t7 12t3 24v41v223q0 29 -1 38q-2 15 -4 21q-3 7 -9 10q-5 2 -16 4v7l138 85v-73q12 13 32 33q12 12 27 22q13 9 26 12q12 3 26 3q11 0 24 -4q15 -5 30 -15q16 -11 26 -30q11 -20 11 -49v-300q0 -23 -2 -55q-2 -24 -9 -45q-7 -20 -24 -40
q-17 -19 -45 -39q-32 -23 -52 -30t-43 -7t-36 12q-14 12 -14 33q0 16 11 27q10 10 26 10q14 0 25 -9q11 -10 18 -19q2 -3 7 -9.5t7 -9.5q6 -9 15 -9q5 0 6 4q3 5 2 20q-1 10 -1 57v438q0 28 -7 36q-8 9 -13 9q-4 0 -20 -11q-15 -11 -50 -50v-301v-41q0 -15 3 -24t9 -12
q7 -3 16 -6v-6h-160v6z" />
    <glyph glyph-name="Omacron" unicode="&#x14c;" horiz-adv-x="440" 
d="M220 -12v-3q-36 0 -71 26q-35 25 -63 75q-28 49 -45 122q-17 74 -17 167q0 95 17 169q16 70 44 120q27 48 63 72t72 24t72 -24t63 -72q28 -50 44 -120q17 -74 17 -169q0 -92 -17 -166q-16 -70 -44 -121q-27 -50 -63 -75q-35 -25 -72 -25zM220 -5l-1 -1q39 0 51 97
q11 93 13 282q1 185 -15 279q-17 95 -48 95q-33 0 -48 -94q-15 -95 -15 -279t12 -282q12 -97 51 -97zM307 791h-174v47h174v-47z" />
    <glyph glyph-name="omacron" unicode="&#x14d;" horiz-adv-x="358" 
d="M179 -5q-23 0 -51 12t-54 39t-42 72q-17 46 -17 111q0 69 17 117q16 46 42 75q25 28 54 40q28 12 51 12t51 -12q30 -13 53 -40q25 -30 41 -75q17 -48 17 -117q0 -65 -17 -111q-16 -44 -41 -72q-24 -27 -53 -39q-28 -12 -51 -12zM179 4v-2q12 0 21 12t15 38t9 69t3 108
q0 70 -3 115t-9 72q-6 26 -15 37t-21 11t-21 -10q-9 -11 -15 -37q-6 -27 -9 -72t-3 -115q0 -64 3 -108t9 -69t15 -37t21 -12zM261 594v-46h-164v46h164z" />
    <glyph glyph-name="Obreve" unicode="&#x14e;" horiz-adv-x="440" 
d="M220 -12v-3q-36 0 -71 26q-35 25 -63 75q-28 49 -45 122q-17 74 -17 167q0 95 17 169q16 70 44 120q27 48 63 72t72 24t72 -24t63 -72q28 -50 44 -120q17 -74 17 -169q0 -92 -17 -166q-16 -70 -44 -121q-27 -50 -63 -75q-35 -25 -72 -25zM220 -5l-1 -1q39 0 51 97
q11 93 13 282q1 185 -15 279q-17 95 -48 95q-33 0 -48 -94q-15 -95 -15 -279t12 -282q12 -97 51 -97zM221 843q25 0 42 9t29 30h8q-2 -57 -22 -80q-21 -24 -56 -24q-34 0 -57 24t-24 81h8q21 -40 72 -40z" />
    <glyph glyph-name="obreve" unicode="&#x14f;" horiz-adv-x="358" 
d="M179 -5q-23 0 -51 12t-54 39t-42 72q-17 46 -17 111q0 69 17 117q16 46 42 75q25 28 54 40q28 12 51 12t51 -12q30 -13 53 -40q25 -30 41 -75q17 -48 17 -117q0 -65 -17 -111q-16 -44 -41 -72q-24 -27 -53 -39q-28 -12 -51 -12zM179 4v-2q12 0 21 12t15 38t9 69t3 108
q0 70 -3 115t-9 72q-6 26 -15 37t-21 11t-21 -10q-9 -11 -15 -37q-6 -27 -9 -72t-3 -115q0 -64 3 -108t9 -69t15 -37t21 -12zM180 590l-1 -1q31 0 47 11q14 9 22 23h9q1 -39 -18 -69t-58 -30t-60 30q-21 29 -19 71h9q5 -11 21 -23t48 -12z" />
    <glyph glyph-name="Ohungarumlaut" unicode="&#x150;" horiz-adv-x="440" 
d="M220 -12v-3q-36 0 -71 26q-35 25 -63 75q-28 49 -45 122q-17 74 -17 167q0 95 17 169q16 70 44 120q27 48 63 72t72 24t72 -24t63 -72q28 -50 44 -120q17 -74 17 -169q0 -92 -17 -166q-16 -70 -44 -121q-27 -50 -63 -75q-35 -25 -72 -25zM220 -5l-1 -1q39 0 51 97
q11 93 13 282q1 185 -15 279q-17 95 -48 95q-33 0 -48 -94q-15 -95 -15 -279t12 -282q12 -97 51 -97zM247 782l40 74q11 20 21 30q11 11 30 11q16 0 24 -11t8 -21q0 -17 -12 -27q-12 -11 -22 -15l-84 -47zM149 781l40 72q11 21 21 32q10 12 30 12q16 0 24 -11t8 -21
q0 -17 -12 -27q-11 -10 -22 -16l-84 -47z" />
    <glyph glyph-name="ohungarumlaut" unicode="&#x151;" horiz-adv-x="358" 
d="M179 -5q-23 0 -51 12t-54 39t-42 72q-17 46 -17 111q0 69 17 117q16 46 42 75q25 28 54 40q28 12 51 12t51 -12q30 -13 53 -40q25 -30 41 -75q17 -48 17 -117q0 -65 -17 -111q-16 -44 -41 -72q-24 -27 -53 -39q-28 -12 -51 -12zM179 4v-2q12 0 21 12t15 38t9 69t3 108
q0 70 -3 115t-9 72q-6 26 -15 37t-21 11t-21 -10q-9 -11 -15 -37q-6 -27 -9 -72t-3 -115q0 -64 3 -108t9 -69t15 -37t21 -12zM231 519l32 118q4 21 14 36q9 13 30 13q15 0 24 -10t9 -27q0 -10 -4 -18q-6 -12 -10 -17l-89 -98zM118 518l30 119q4 23 15 36q10 13 30 13
q16 0 25 -10t9 -27q0 -21 -15 -36l-88 -98z" />
    <glyph glyph-name="OE" unicode="&#x152;" horiz-adv-x="580" 
d="M468 326l-4 2q-3 9 -7 27q-3 15 -10 24q-7 11 -18 18q-11 8 -28 12v-397q35 2 58 7q25 6 44 20q18 14 32 38q14 25 26 62h8l-13 -118q-2 -13 -6 -15q-6 -2 -12 -2h-300q-40 0 -79 21t-69 66t-48 117t-18 171q0 97 18 168t48 117q30 47 69 68t81 21h273q8 0 11 -3t6 -19
l18 -103h-8q-23 59 -54 83q-32 25 -84 29v-317q19 5 29 12q11 7 18 18q8 12 11 24q2 9 8 27h5v-178h-5zM236 742l-4 -1q-26 0 -42 -24q-16 -23 -25 -70t-12 -114t-3 -156q0 -180 21 -273t62 -93q15 0 23 4q9 4 13 19q5 15 6 43q1 19 1 78v442q0 59 -1 78q-2 29 -6 44
q-4 14 -12 19q-7 4 -21 4z" />
    <glyph glyph-name="oe" unicode="&#x153;" horiz-adv-x="536" 
d="M183 -4l-5 -2q-24 0 -52 12t-54 39t-42 72q-17 46 -17 111q0 69 17 117q16 47 42 75q25 28 54 40q28 12 53 12t54 -12t54 -43q23 29 48 42q26 14 48 14q41 0 65 -15q25 -16 38 -37q14 -23 18 -51q5 -32 5 -55h-164q-1 -9 -1 -27v-30q0 -53 3 -98q3 -48 10 -78
q7 -31 23 -52q15 -19 41 -19q31 0 48 11q17 10 24 21l6 -7q-7 -7 -11 -12q-5 -6 -17 -13q-8 -5 -26 -10q-13 -4 -36 -4q-37 0 -69 12t-54 39q-24 -28 -52 -40t-51 -12zM381 463l-2 -3q-8 0 -14 -6q-7 -7 -11 -21q-5 -18 -8 -42q-2 -20 -4 -68h68q2 73 -1 104q-3 36 -28 36z
M176 -1l-1 -2q13 0 24 12q10 11 16 38q6 25 9 69t3 108q0 70 -3 115t-9 72t-16 37q-11 11 -24 11q-14 0 -23 -10q-8 -10 -16 -37q-7 -25 -10 -72q-3 -45 -3 -115q0 -65 3 -108q3 -46 10 -69q7 -24 17 -37q9 -12 23 -12z" />
    <glyph glyph-name="Racute" unicode="&#x154;" horiz-adv-x="406" 
d="M18 6h-6q10 3 17 8q6 4 9 18q2 10 4 41q1 18 1 74v454q0 56 -1 74q-2 31 -4 41q-3 14 -9 18q-7 5 -17 8v6h156q46 0 84 -9t65 -30t42 -55t15 -87q0 -44 -13 -79q-14 -36 -37 -61t-57 -40q-33 -15 -73 -18q32 0 56 -6t42 -24q19 -19 32 -52q14 -35 21 -94q9 -68 15 -101
q7 -42 10 -55q4 -18 8 -24q3 -4 8 -4q9 0 14 4q8 6 9 7l5 -5q-3 -5 -19 -15t-51 -10q-33 0 -51 7q-19 7 -31 27t-18 54t-12 90q-9 76 -13 103q-6 39 -12 60t-14 29q-7 8 -18 9v-222q0 -56 1 -74q2 -31 4 -41q3 -14 9 -18q7 -5 17 -8v-6h-188v6zM261 570l2 1q0 50 -6 83
q-6 32 -18 52t-30 27q-18 8 -40 9v-362q52 4 72 56t20 134zM123 787l95 75q14 10 24 15q12 5 24 5q17 0 26 -10t9 -24q0 -35 -50 -47l-125 -21z" />
    <glyph glyph-name="racute" unicode="&#x155;" horiz-adv-x="289" 
d="M13 6l5 -4q10 3 14 6t7 12t3 24v41v251q0 26 -4 33t-24 9v7l136 85v-67q18 23 30 36q11 13 23 21q9 6 18 10q7 3 17 3q22 0 36 -14t14 -36q0 -24 -13 -36t-30 -12q-14 0 -24 8q-9 7 -15 18t-12 18q-6 8 -15 8q-4 0 -10 -6q-5 -6 -22 -25v-307v-41q0 -15 3 -24t9 -12
t18 -6v-6h-164v6zM111 515l61 117q11 21 23 33q11 11 27 11t27 -9q10 -9 10 -26t-9 -30t-25 -25l-108 -75z" />
    <glyph glyph-name="uni0156" unicode="&#x156;" horiz-adv-x="406" 
d="M18 6h-6q10 3 17 8q6 4 9 18q2 10 4 41q1 18 1 74v454q0 56 -1 74q-2 31 -4 41q-3 14 -9 18q-7 5 -17 8v6h156q46 0 84 -9t65 -30t42 -55t15 -87q0 -44 -13 -79q-14 -36 -37 -61t-57 -40q-33 -15 -73 -18q32 0 56 -6t42 -24q19 -19 32 -52q14 -35 21 -94q9 -68 15 -101
q7 -42 10 -55q4 -18 8 -24q3 -4 8 -4q9 0 14 4q8 6 9 7l5 -5q-3 -5 -19 -15t-51 -10q-33 0 -51 7q-19 7 -31 27t-18 54t-12 90q-9 76 -13 103q-6 39 -12 60t-14 29q-7 8 -18 9v-222q0 -56 1 -74q2 -31 4 -41q3 -14 9 -18q7 -5 17 -8v-6h-188v6zM261 570l2 1q0 50 -6 83
q-6 32 -18 52t-30 27q-18 8 -40 9v-362q52 4 72 56t20 134zM260 -109v-2q-4 -5 -15 -13q-10 -7 -28 -7q-19 0 -35 14q-15 13 -15 36q0 25 17 39t36 14q26 0 45 -16q20 -17 20 -54q0 -38 -24 -62q-23 -23 -63 -28l-4 7q38 5 54 24q17 20 17 36q0 9 -5 12z" />
    <glyph glyph-name="uni0157" unicode="&#x157;" horiz-adv-x="289" 
d="M13 6l5 -4q10 3 14 6t7 12t3 24v41v251q0 26 -4 33t-24 9v7l136 85v-67q18 23 30 36q11 13 23 21q9 6 18 10q7 3 17 3q22 0 36 -14t14 -36q0 -24 -13 -36t-30 -12q-14 0 -24 8q-9 7 -15 18t-12 18q-6 8 -15 8q-4 0 -10 -6q-5 -6 -22 -25v-307v-41q0 -15 3 -24t9 -12
t18 -6v-6h-164v6zM132 -114v-2q-4 -5 -15 -13q-10 -7 -28 -7q-19 0 -35 14q-15 14 -15 36q0 25 17 39t36 14q26 0 45 -16q20 -17 20 -54q0 -38 -24 -62q-23 -23 -63 -28l-4 7q38 4 54 24q17 20 17 36q0 9 -5 12z" />
    <glyph glyph-name="Rcaron" unicode="&#x158;" horiz-adv-x="406" 
d="M18 6h-6q10 3 17 8q6 4 9 18q2 10 4 41q1 18 1 74v454q0 56 -1 74q-2 31 -4 41q-3 14 -9 18q-7 5 -17 8v6h156q46 0 84 -9t65 -30t42 -55t15 -87q0 -44 -13 -79q-14 -36 -37 -61t-57 -40q-33 -15 -73 -18q32 0 56 -6t42 -24q19 -19 32 -52q14 -35 21 -94q9 -68 15 -101
q7 -42 10 -55q4 -18 8 -24q3 -4 8 -4q9 0 14 4q8 6 9 7l5 -5q-3 -5 -19 -15t-51 -10q-33 0 -51 7q-19 7 -31 27t-18 54t-12 90q-9 76 -13 103q-6 39 -12 60t-14 29q-7 8 -18 9v-222q0 -56 1 -74q2 -31 4 -41q3 -14 9 -18q7 -5 17 -8v-6h-188v6zM261 570l2 1q0 50 -6 83
q-6 32 -18 52t-30 27q-18 8 -40 9v-362q52 4 72 56t20 134zM89 905l111 -38l111 38l3 -6l-114 -113l-113 113z" />
    <glyph glyph-name="rcaron" unicode="&#x159;" horiz-adv-x="289" 
d="M13 6l5 -4q10 3 14 6t7 12t3 24v41v251q0 26 -4 33t-24 9v7l136 85v-67q18 23 30 36q11 13 23 21q9 6 18 10q7 3 17 3q22 0 36 -14t14 -36q0 -24 -13 -36t-30 -12q-14 0 -24 8q-9 7 -15 18t-12 18q-6 8 -15 8q-4 0 -10 -6q-5 -6 -22 -25v-307v-41q0 -15 3 -24t9 -12
t18 -6v-6h-164v6zM81 684l92 -61l92 61l7 -4l-99 -171l-99 171z" />
    <glyph glyph-name="Sacute" unicode="&#x15a;" 
d="M142 -9l-5 -4q-24 0 -41 7q-20 8 -30 16q-18 13 -21 16q-8 7 -14 7q-4 0 -9 -20h-6v202h7q15 -119 42 -168q27 -50 73 -50q42 0 68 23t26 77q0 30 -10 57q-10 28 -27 60q-10 18 -38 67q-40 68 -45 77q-18 38 -33 65t-30 59q-14 29 -21 58q-7 28 -7 66q0 67 40 108
q40 42 109 42q17 0 29 -4q13 -4 24 -9t18 -9t12 -4q7 0 9 8q1 5 3 17h7v-156h-7q-17 84 -39 117t-57 33q-33 0 -48 -20q-15 -19 -15 -53q0 -22 9 -48t24 -54q18 -34 34 -60q22 -35 39 -67l22 -38.5t19 -33.5q16 -29 34 -66q15 -31 24 -63t9 -63q0 -55 -16 -90
q-17 -37 -42 -59q-26 -22 -57 -33q-30 -10 -63 -10zM73 782l95 75q14 11 24 15q12 5 24 5q17 0 26 -10q9 -11 9 -24q0 -35 -50 -47l-125 -21z" />
    <glyph glyph-name="sacute" unicode="&#x15b;" horiz-adv-x="273" 
d="M151 5l-1 -8q16 0 30 17q13 16 13 42q0 27 -18 60t-63 78q-28 25 -46 46q-18 22 -27 40q-9 20 -12 39t-3 42q0 21 8 42q8 19 21 33t30 21q18 8 36 8q17 0 36 -9t48 -9q6 0 11 5q4 4 6 12h9v-130h-9q-10 33 -24 58q-14 24 -27 39t-27 21t-24 6q-15 0 -28 -11
q-12 -11 -12 -33q0 -12 5 -25q4 -11 15 -25q10 -14 27 -30l39 -39q27 -26 49 -51q19 -22 30 -44t14 -42q3 -21 3 -45q0 -27 -11 -51q-11 -23 -27 -38q-17 -16 -36 -23q-21 -8 -36 -8q-18 0 -33 6q-17 7 -27 13q-5 3 -13.5 7.5t-9.5 5.5q-11 6 -19 6q-7 0 -11 -4
q-5 -5 -6 -12h-8v153h8q46 -163 120 -163zM76 511l61 117q11 21 23 33q11 11 27 11q17 0 27 -9t10 -26t-9 -30t-25 -25l-108 -75z" />
    <glyph glyph-name="Scircumflex" unicode="&#x15c;" 
d="M142 -9l-5 -4q-24 0 -41 7q-20 8 -30 16q-18 13 -21 16q-8 7 -14 7q-4 0 -9 -20h-6v202h7q15 -119 42 -168q27 -50 73 -50q42 0 68 23t26 77q0 30 -10 57q-10 28 -27 60q-10 18 -38 67q-40 68 -45 77q-18 38 -33 65t-30 59q-14 29 -21 58q-7 28 -7 66q0 67 40 108
q40 42 109 42q17 0 29 -4q13 -4 24 -9t18 -9t12 -4q7 0 9 8q1 5 3 17h7v-156h-7q-17 84 -39 117t-57 33q-33 0 -48 -20q-15 -19 -15 -53q0 -22 9 -48t24 -54q18 -34 34 -60q22 -35 39 -67l22 -38.5t19 -33.5q16 -29 34 -66q15 -31 24 -63t9 -63q0 -55 -16 -90
q-17 -37 -42 -59q-26 -22 -57 -33q-30 -10 -63 -10zM157 894l114 -113l-3 -6l-111 38l-111 -38l-2 6z" />
    <glyph glyph-name="scircumflex" unicode="&#x15d;" horiz-adv-x="273" 
d="M151 5l-1 -8q16 0 30 17q13 16 13 42q0 27 -18 60t-63 78q-28 25 -46 46q-18 22 -27 40q-9 20 -12 39t-3 42q0 21 8 42q8 19 21 33t30 21q18 8 36 8q17 0 36 -9t48 -9q6 0 11 5q4 4 6 12h9v-130h-9q-10 33 -24 58q-14 24 -27 39t-27 21t-24 6q-15 0 -28 -11
q-12 -11 -12 -33q0 -12 5 -25q4 -11 15 -25q10 -14 27 -30l39 -39q27 -26 49 -51q19 -22 30 -44t14 -42q3 -21 3 -45q0 -27 -11 -51q-11 -23 -27 -38q-17 -16 -36 -23q-21 -8 -36 -8q-18 0 -33 6q-17 7 -27 13q-5 3 -13.5 7.5t-9.5 5.5q-11 6 -19 6q-7 0 -11 -4
q-5 -5 -6 -12h-8v153h8q46 -163 120 -163zM128 680l99 -171l-7 -4l-92 61l-92 -61l-7 4z" />
    <glyph glyph-name="uni015E" unicode="&#x15e;" 
d="M148 -5l-11 -23q30 -3 54 -21t24 -45q0 -32 -33 -51t-111 -21l-1 8q26 7 54 17q24 9 24 24q0 14 -15 20q-17 7 -31 8l-2 5q10 21 18 39q3 5 7 14t6 13q6 12 6 13h11zM142 -6l-5 -4q-24 0 -41 7q-20 8 -30 16q-18 13 -21 16q-8 7 -14 7q-4 0 -9 -20h-6v202h7
q15 -118 42 -168t73 -50q42 0 68 23t26 77q0 30 -10 57q-10 29 -27 60q-10 18 -38 67q-40 68 -45 77q-18 38 -33 65t-30 59q-14 29 -21 58q-7 28 -7 66q0 67 40 108q40 42 109 42q17 0 29 -4q13 -5 24 -9t18 -9q7 -4 12 -4q7 0 9 8q1 5 3 17h7v-156h-7q-17 84 -39 117
t-57 33q-33 0 -48 -20t-15 -53q0 -23 9 -48t24 -54q18 -34 34 -60q22 -35 39 -67l22 -38.5t19 -33.5q16 -29 34 -66q15 -32 24 -63t9 -63q0 -55 -16 -90q-17 -37 -42 -59q-26 -23 -57 -33q-30 -10 -63 -10z" />
    <glyph glyph-name="uni015F" unicode="&#x15f;" horiz-adv-x="273" 
d="M135 5l-16 -35q31 -3 55 -21t24 -45q0 -32 -34 -51t-111 -21l-1 8q30 8 53 18q24 10 24 25q0 14 -14 20q-15 7 -30 8l-3 5l41 89h12zM151 6l-1 -8q16 0 30 17q13 16 13 42q0 27 -18 60t-63 78q-28 25 -46 46q-18 22 -27 40q-9 19 -12 39t-3 42q0 21 8 42q8 20 21 33
t30 21q18 8 36 8q17 0 36 -9t48 -9q6 0 11 5q4 5 6 12h9v-130h-9q-10 33 -24 58q-14 24 -27 39t-27 21t-24 6q-15 0 -28 -11q-12 -10 -12 -33q0 -12 5 -25q4 -11 15 -25q10 -13 27 -30l39 -39q27 -26 49 -51q19 -22 30 -44t14 -42q3 -21 3 -45q0 -27 -11 -51
q-11 -23 -27 -38q-17 -16 -36 -23q-21 -8 -36 -8q-18 0 -33 6q-17 7 -27 13q-5 3 -13.5 7.5t-9.5 5.5q-11 6 -19 6q-7 0 -11 -4q-5 -4 -6 -12h-8v153h8q46 -163 120 -163z" />
    <glyph glyph-name="Scaron" unicode="&#x160;" 
d="M142 -9l-5 -4q-24 0 -41 7q-20 8 -30 16q-18 13 -21 16q-8 7 -14 7q-4 0 -9 -20h-6v202h7q15 -119 42 -168q27 -50 73 -50q42 0 68 23t26 77q0 30 -10 57q-10 28 -27 60q-10 18 -38 67q-40 68 -45 77q-18 38 -33 65t-30 59q-14 29 -21 58q-7 28 -7 66q0 67 40 108
q40 42 109 42q17 0 29 -4q13 -4 24 -9t18 -9t12 -4q7 0 9 8q1 5 3 17h7v-156h-7q-17 84 -39 117t-57 33q-33 0 -48 -20q-15 -19 -15 -53q0 -22 9 -48t24 -54q18 -34 34 -60q22 -35 39 -67l22 -38.5t19 -33.5q16 -29 34 -66q15 -31 24 -63t9 -63q0 -55 -16 -90
q-17 -37 -42 -59q-26 -22 -57 -33q-30 -10 -63 -10zM48 900l111 -38l111 38l3 -6l-114 -113l-113 113z" />
    <glyph glyph-name="scaron" unicode="&#x161;" horiz-adv-x="273" 
d="M151 5l-1 -8q16 0 30 17q13 16 13 42q0 27 -18 60t-63 78q-28 25 -46 46q-18 22 -27 40q-9 20 -12 39t-3 42q0 21 8 42q8 19 21 33t30 21q18 8 36 8q17 0 36 -9t48 -9q6 0 11 5q4 4 6 12h9v-130h-9q-10 33 -24 58q-14 24 -27 39t-27 21t-24 6q-15 0 -28 -11
q-12 -11 -12 -33q0 -12 5 -25q4 -11 15 -25q10 -14 27 -30l39 -39q27 -26 49 -51q19 -22 30 -44t14 -42q3 -21 3 -45q0 -27 -11 -51q-11 -23 -27 -38q-17 -16 -36 -23q-21 -8 -36 -8q-18 0 -33 6q-17 7 -27 13q-5 3 -13.5 7.5t-9.5 5.5q-11 6 -19 6q-7 0 -11 -4
q-5 -5 -6 -12h-8v153h8q46 -163 120 -163zM39 680l92 -61l92 61l7 -4l-99 -171l-99 171z" />
    <glyph glyph-name="Tcommaaccent" unicode="&#x162;" horiz-adv-x="399" 
d="M105 6l3 -2q10 3 17 8q6 4 9 20q2 12 4 42q1 18 1 74v592q-29 -3 -49 -12t-33 -25q-14 -17 -23 -41q-6 -15 -19 -57h-8l9 124q1 15 5 19q3 3 11 3h339q8 0 11 -3q4 -4 5 -19l9 -124h-7q-11 34 -21 56q-11 25 -24 41q-14 17 -33 26q-20 9 -49 12v-592q0 -55 1 -73
q2 -30 4 -42q3 -14 9 -19q7 -5 17 -8v-6h-188v6zM233 -112v-2q-4 -5 -15 -13q-10 -7 -28 -7q-19 0 -35 14q-15 14 -15 36q0 25 17 39t36 14q26 0 45 -16q20 -17 20 -54q0 -38 -24 -62q-23 -23 -63 -28l-4 7q37 4 54 24t17 36q0 9 -5 12z" />
    <glyph glyph-name="tcommaaccent" unicode="&#x163;" horiz-adv-x="229" 
d="M152 -9v-3q-50 0 -81 29q-30 29 -30 80v357h-41v9q20 3 42 14t41 30q18 18 34 50t23 69h9v-162h75v-10h-75v-348q0 -55 8 -79q7 -22 33 -22q14 0 21 4q5 3 13 9l5 -5q-10 -8 -22 -14q-16 -8 -55 -8zM161 -113v-2q-4 -5 -15 -13q-10 -7 -28 -7q-19 0 -35 14q-15 13 -15 36
q0 25 17 39t36 14q26 0 45 -16q20 -17 20 -54q0 -38 -24 -62q-23 -23 -63 -28l-4 7q37 5 54 24q17 20 17 36q0 9 -5 12z" />
    <glyph glyph-name="Tcaron" unicode="&#x164;" horiz-adv-x="399" 
d="M105 6l3 -2q10 3 17 8q6 4 9 20q2 12 4 42q1 18 1 74v592q-29 -3 -49 -12t-33 -25q-14 -17 -23 -41q-6 -15 -19 -57h-8l9 124q1 15 5 19q3 3 11 3h339q8 0 11 -3q4 -4 5 -19l9 -124h-7q-11 34 -21 56q-11 25 -24 41q-14 17 -33 26q-20 9 -49 12v-592q0 -55 1 -73
q2 -30 4 -42q3 -14 9 -19q7 -5 17 -8v-6h-188v6zM91 902l111 -38l111 38l3 -6l-114 -113l-113 113z" />
    <glyph glyph-name="tcaron" unicode="&#x165;" horiz-adv-x="229" 
d="M152 -9v-3q-50 0 -81 29q-30 29 -30 80v357h-41v9q20 3 42 14t41 30q18 18 34 50t23 69h9v-162h75v-10h-75v-348q0 -55 8 -79q7 -22 33 -22q14 0 21 4q5 3 13 9l5 -5q-10 -8 -22 -14q-16 -8 -55 -8zM171 524l10 138q1 32 12 49q10 16 27 16q35 0 35 -38q0 -11 -3 -21
q-3 -9 -8 -18l-67 -128z" />
    <glyph glyph-name="Tbar" unicode="&#x166;" horiz-adv-x="399" 
d="M56 428h287v-9h-287v9zM105 6l3 -2q10 3 17 8q6 4 9 20q2 12 4 42q1 18 1 74v592q-29 -3 -49 -12t-33 -25q-14 -17 -23 -41q-6 -15 -19 -57h-8l9 124q1 15 5 19q3 3 11 3h339q8 0 11 -3q4 -4 5 -19l9 -124h-7q-11 34 -21 56q-11 25 -24 41q-14 17 -33 26q-20 9 -49 12
v-592q0 -55 1 -73q2 -30 4 -42q3 -14 9 -19q7 -5 17 -8v-6h-188v6z" />
    <glyph glyph-name="tbar" unicode="&#x167;" horiz-adv-x="229" 
d="M2 308h221v-9h-221v9zM152 -9v-3q-50 0 -81 29q-30 29 -30 80v357h-41v9q20 3 42 14t41 30q18 18 34 50t23 69h9v-162h75v-10h-75v-348q0 -55 8 -79q7 -22 33 -22q14 0 21 4q5 3 13 9l5 -5q-10 -8 -22 -14q-16 -8 -55 -8z" />
    <glyph glyph-name="Utilde" unicode="&#x168;" horiz-adv-x="380" 
d="M201 -13l-1 -4q-76 0 -117 40q-42 41 -42 129v447q0 56 -1 74q-2 31 -4 41q-3 14 -9 18q-7 6 -16 8v6h183v-6q-10 -3 -17 -8q-6 -4 -9 -18q-2 -10 -4 -41q-1 -18 -1 -74v-457q0 -30 2 -66q1 -25 8 -45q6 -17 18 -25q11 -7 31 -7q49 0 76 38q27 37 27 111v448q0 52 -1 69
q-2 28 -4 40q-3 14 -11 22q-9 9 -21 17v6h80v-6q-13 -11 -17 -16q-6 -8 -9 -22q-2 -12 -4 -40q-1 -17 -1 -69v-448q0 -79 -31 -120q-32 -42 -105 -42zM197 858h-3q33 0 45 -1t35 -1q12 0 21 9q2 2 10.5 11t14.5 15l6 -2q-18 -95 -60 -95q-29 0 -39 1t-38 1q-9 0 -19 -8
q-9 -8 -21 -24l-7 2q12 52 25 71q13 21 30 21z" />
    <glyph glyph-name="utilde" unicode="&#x169;" horiz-adv-x="359" 
d="M130 -8l-4 1q-9 0 -27 5q-17 5 -31 16q-15 12 -25 31t-10 49v249q0 26 -4 33q-5 8 -24 9v7l137 85v-400q0 -33 8 -49q8 -15 15 -15q6 0 18 9t33 33v286q0 26 -4 33q-4 8 -24 9v7l136 85v-386v-41q0 -12 2 -24q1 -8 5 -12q2 -2 8 -6v-6h-121v43q-26 -27 -45 -39t-43 -12z
M154 622h-1q21 0 41 -3t36 -3q11 0 20 11t24 27l7 -3q-10 -43 -23 -72q-12 -27 -35 -27q-19 0 -39 3t-39 3q-11 0 -18 -10t-24 -27l-6 3q14 49 25 72q12 26 32 26z" />
    <glyph glyph-name="Umacron" unicode="&#x16a;" horiz-adv-x="380" 
d="M201 -13l-1 -4q-76 0 -117 40q-42 41 -42 129v447q0 56 -1 74q-2 31 -4 41q-3 14 -9 18q-7 6 -16 8v6h183v-6q-10 -3 -17 -8q-6 -4 -9 -18q-2 -10 -4 -41q-1 -18 -1 -74v-457q0 -30 2 -66q1 -25 8 -45q6 -17 18 -25q11 -7 31 -7q49 0 76 38q27 37 27 111v448q0 52 -1 69
q-2 28 -4 40q-3 14 -11 22q-9 9 -21 17v6h80v-6q-13 -11 -17 -16q-6 -8 -9 -22q-2 -12 -4 -40q-1 -17 -1 -69v-448q0 -79 -31 -120q-32 -42 -105 -42zM314 791h-174v47h174v-47z" />
    <glyph glyph-name="umacron" unicode="&#x16b;" horiz-adv-x="359" 
d="M130 -8l-4 1q-9 0 -27 5q-17 5 -31 16q-15 12 -25 31t-10 49v249q0 26 -4 33q-5 8 -24 9v7l137 85v-400q0 -33 8 -49q8 -15 15 -15q6 0 18 9t33 33v286q0 26 -4 33q-4 8 -24 9v7l136 85v-386v-41q0 -12 2 -24q1 -8 5 -12q2 -2 8 -6v-6h-121v43q-26 -27 -45 -39t-43 -12z
M269 597v-46h-164v46h164z" />
    <glyph glyph-name="Ubreve" unicode="&#x16c;" horiz-adv-x="380" 
d="M201 -13l-1 -4q-76 0 -117 40q-42 41 -42 129v447q0 56 -1 74q-2 31 -4 41q-3 14 -9 18q-7 6 -16 8v6h183v-6q-10 -3 -17 -8q-6 -4 -9 -18q-2 -10 -4 -41q-1 -18 -1 -74v-457q0 -30 2 -66q1 -25 8 -45q6 -17 18 -25q11 -7 31 -7q49 0 76 38q27 37 27 111v448q0 52 -1 69
q-2 28 -4 40q-3 14 -11 22q-9 9 -21 17v6h80v-6q-13 -11 -17 -16q-6 -8 -9 -22q-2 -12 -4 -40q-1 -17 -1 -69v-448q0 -79 -31 -120q-32 -42 -105 -42zM229 843q25 0 42 9t29 30h8q-2 -57 -22 -80q-21 -24 -56 -24q-34 0 -57 24t-24 81h8q21 -40 72 -40z" />
    <glyph glyph-name="ubreve" unicode="&#x16d;" horiz-adv-x="359" 
d="M130 -8l-4 1q-9 0 -27 5q-17 5 -31 16q-15 12 -25 31t-10 49v249q0 26 -4 33q-5 8 -24 9v7l137 85v-400q0 -33 8 -49q8 -15 15 -15q6 0 18 9t33 33v286q0 26 -4 33q-4 8 -24 9v7l136 85v-386v-41q0 -12 2 -24q1 -8 5 -12q2 -2 8 -6v-6h-121v43q-26 -27 -45 -39t-43 -12z
M191 593l-1 -1q31 0 47 11q14 9 22 23h9q2 -39 -18 -69t-58 -30q-39 0 -60 30q-21 29 -19 71h9q5 -11 21 -23q17 -12 48 -12z" />
    <glyph glyph-name="Uring" unicode="&#x16e;" horiz-adv-x="380" 
d="M201 -13l-1 -4q-76 0 -117 40q-42 41 -42 129v447q0 56 -1 74q-2 31 -4 41q-3 14 -9 18q-7 6 -16 8v6h183v-6q-10 -3 -17 -8q-6 -4 -9 -18q-2 -10 -4 -41q-1 -18 -1 -74v-457q0 -30 2 -66q1 -25 8 -45q6 -17 18 -25q11 -7 31 -7q49 0 76 38q27 37 27 111v448q0 52 -1 69
q-2 28 -4 40q-3 14 -11 22q-9 9 -21 17v6h80v-6q-13 -11 -17 -16q-6 -8 -9 -22q-2 -12 -4 -40q-1 -17 -1 -69v-448q0 -79 -31 -120q-32 -42 -105 -42zM153 828v-2q0 28 23 48t59 20q37 0 60 -20q22 -19 22 -48q0 -30 -22 -49t-60 -19t-60 19t-22 51zM201 826q0 -60 33 -60
q34 0 34 60q0 29 -9 44t-25 15q-15 0 -24 -15t-9 -44z" />
    <glyph glyph-name="uring" unicode="&#x16f;" horiz-adv-x="359" 
d="M130 -8l-4 1q-9 0 -27 5q-17 5 -31 16q-15 12 -25 31t-10 49v249q0 26 -4 33q-5 8 -24 9v7l137 85v-400q0 -33 8 -49q8 -15 15 -15q6 0 18 9t33 33v286q0 26 -4 33q-4 8 -24 9v7l136 85v-386v-41q0 -12 2 -24q1 -8 5 -12q2 -2 8 -6v-6h-121v43q-26 -27 -45 -39t-43 -12z
M110 592h-2q0 29 22 48q23 20 55 20t55 -20q22 -19 22 -48q0 -32 -21 -51q-20 -19 -55 -19t-55 19q-21 19 -21 51zM157 592l1 -1q0 -29 8 -45q8 -15 20 -15q14 0 21 16q8 18 8 45q0 29 -9 44t-21 15q-10 0 -19 -15t-9 -44z" />
    <glyph glyph-name="Uhungarumlaut" unicode="&#x170;" horiz-adv-x="380" 
d="M201 -13l-1 -4q-76 0 -117 40q-42 41 -42 129v447q0 56 -1 74q-2 31 -4 41q-3 14 -9 18q-7 6 -16 8v6h183v-6q-10 -3 -17 -8q-6 -4 -9 -18q-2 -10 -4 -41q-1 -18 -1 -74v-457q0 -30 2 -66q1 -25 8 -45q6 -17 18 -25q11 -7 31 -7q49 0 76 38q27 37 27 111v448q0 52 -1 69
q-2 28 -4 40q-3 14 -11 22q-9 9 -21 17v6h80v-6q-13 -11 -17 -16q-6 -8 -9 -22q-2 -12 -4 -40q-1 -17 -1 -69v-448q0 -79 -31 -120q-32 -42 -105 -42zM243 782l40 74q11 20 21 30q11 11 30 11q16 0 24 -11t8 -21q0 -17 -12 -27q-12 -11 -22 -15l-84 -47zM145 781l40 72
q11 21 21 32q10 12 30 12q16 0 24 -11t8 -21q0 -17 -12 -27q-11 -10 -22 -16l-84 -47z" />
    <glyph glyph-name="uhungarumlaut" unicode="&#x171;" horiz-adv-x="359" 
d="M130 -8l-4 1q-9 0 -27 5q-17 5 -31 16q-15 12 -25 31t-10 49v249q0 26 -4 33q-5 8 -24 9v7l137 85v-400q0 -33 8 -49q8 -15 15 -15q6 0 18 9t33 33v286q0 26 -4 33q-4 8 -24 9v7l136 85v-386v-41q0 -12 2 -24q1 -8 5 -12q2 -2 8 -6v-6h-121v43q-26 -27 -45 -39t-43 -12z
M232 522l32 118q4 21 14 36q9 13 30 13q15 0 24 -10q9 -11 9 -27q0 -10 -4 -18q-6 -12 -10 -17l-89 -98zM119 521l30 119q5 22 15 36q10 13 30 13q16 0 25 -10q9 -11 9 -27q0 -21 -15 -36l-88 -98z" />
    <glyph glyph-name="Uogonek" unicode="&#x172;" horiz-adv-x="380" 
d="M211 -177l-2 -7q-35 0 -57 18q-23 18 -23 47q0 17 9 32t23 29q13 14 30 24t33 18q-10 -2 -13 -2h-13q-76 0 -117 40q-42 40 -42 129v447q0 56 -1 74q-2 31 -4 41q-3 13 -9 18q-7 6 -16 8v6h183v-6q-10 -3 -17 -8q-6 -5 -9 -18q-2 -10 -4 -41q-1 -18 -1 -74v-457
q0 -30 2 -66q1 -25 8 -45q6 -17 18 -25q11 -7 31 -7q49 0 76 38t27 111v448q0 52 -1 69q-2 28 -4 40q-3 14 -11 22q-9 9 -21 17v6h80v-6q-13 -11 -17 -16q-6 -8 -9 -22q-2 -12 -4 -40q-1 -17 -1 -69v-448q0 -54 -13 -90q-13 -37 -45 -55q-19 -10 -36 -35q-16 -23 -16 -66
q0 -22 11 -35q11 -12 29 -12q13 0 21 5q8 4 15 12l6 -5l-12 -12q-8 -8 -19 -15q-12 -8 -28 -12q-18 -5 -37 -5z" />
    <glyph glyph-name="uogonek" unicode="&#x173;" horiz-adv-x="359" 
d="M130 -8l-6 -1q-9 0 -27 5q-17 5 -31 16q-15 12 -25 31t-10 49v249q0 26 -4 33q-5 8 -24 9v7l137 85v-400q0 -33 8 -49q8 -15 15 -15q6 0 18 9t33 33v286q0 26 -4 33q-4 8 -24 9v7l136 85v-386v-41q0 -12 2 -24q1 -8 5 -12q2 -2 8 -6v-6h-110q-5 -9 -13 -36q-7 -24 -7 -60
q0 -22 11 -35q10 -12 30 -12q12 0 20 5q8 4 15 12l5 -5l-12 -12q-8 -8 -19 -15q-12 -8 -28 -12q-18 -5 -37 -5q-34 0 -57 18t-23 47q0 19 11 36q11 18 27 32q17 16 35 26t33 18v43q-26 -27 -45 -39t-43 -12z" />
    <glyph glyph-name="Wcircumflex" unicode="&#x174;" horiz-adv-x="553" 
d="M46 623l-1 -3l-12 48t-9 33q-5 16 -10 23q-7 10 -15 17v7h176v-7q-23 -7 -24 -24q-1 -16 9 -58l97 -440l30 132l-60 269l-12 48t-9 33t-11 23q-6 9 -17 15v7h174v-7q-21 -6 -21 -22q0 -14 8 -60l23 -122l16 85q1 5 7 41q3 20 2 33q-2 16 -7 27q-6 12 -19 19v7h79v-7
q-10 -4 -18 -9t-12 -16q-5 -13 -9 -34l-12 -60l-21 -110l54 -293l74 402l7 42q3 20 0 35q-3 16 -12 26q-9 11 -28 18v7h92v-7q-5 -3 -13 -9q-6 -4 -12 -17q-6 -12 -12 -33q-4 -14 -13 -59l-115 -628h-22l-75 335l-76 -335h-22zM302 895l114 -113l-3 -6l-111 38l-111 -38
l-2 6z" />
    <glyph glyph-name="wcircumflex" unicode="&#x175;" horiz-adv-x="447" 
d="M42 355h-3q-5 18 -13 54q-7 29 -7 30q-3 11 -6 14t-9 6v6h145v-6q-10 -3 -14 -6q-5 -3 -5 -14q0 -13 4 -30q1 -4 3 -13.5t4.5 -19t4.5 -19.5l48 -192l30 108l-19 81q-1 4 -13 56q-2 10 -8 30q-3 11 -6 14q-4 4 -9 5v6h154v-6q-9 -3 -16 -6q-6 -3 -9 -13t0 -30
q4 -25 10 -52l37 -181l37 159q11 45 15 67q4 23 1 36q-3 11 -12 16t-24 6v6h87v-6q-12 -4 -17 -7q-6 -5 -12 -16q-6 -12 -12 -36q-2 -7 -7 -29t-9 -37l-79 -341h-21l-62 260l-72 -260h-22zM241 688l99 -171l-7 -4l-92 61l-92 -61l-7 4z" />
    <glyph glyph-name="Ycircumflex" unicode="&#x176;" horiz-adv-x="349" 
d="M91 6l1 -1q10 3 17 8q6 4 9 20q2 12 4 42q1 18 1 74v245l-70 235q-8 36 -20 67q-11 28 -33 50v6h179v-6q-21 -7 -19 -26t9 -47l72 -257l46 210q9 34 12 56q3 21 0 33t-12 18q-10 7 -27 11v6h90v-6q-10 -5 -16 -10q-7 -7 -11 -18q-7 -18 -11 -33q-5 -18 -15 -59l-51 -222
v-254q0 -55 1 -73q2 -30 4 -42q3 -14 9 -19q7 -5 17 -8v-6h-186v6zM211 897l114 -113l-3 -6l-111 38l-111 -38l-2 6z" />
    <glyph glyph-name="ycircumflex" unicode="&#x177;" horiz-adv-x="313" 
d="M39 -171l-1 -4q-24 0 -37 11q-12 10 -12 27q0 20 10 27q11 8 24 8t21 -3q10 -4 14 -6t14 -6q8 -3 18 -3q11 0 24 16q14 16 30 66l8 29l-112 364q-4 12 -9 30t-7 24q-7 24 -10 30q-5 12 -7 14q-3 3 -10 6v6h164v-6q-11 -2 -17 -6q-5 -4 -7 -15t3 -29q9 -36 13 -50l51 -190
l47 166q13 44 17 65q4 24 3 36q-2 13 -9 17q-8 5 -19 6v6h75v-6q-9 -5 -15 -9q-6 -5 -12 -16q-4 -8 -13 -35q-3 -9 -19 -63l-105 -371q-25 -74 -49 -104q-26 -32 -66 -32zM182 684l99 -171l-7 -4l-92 61l-92 -61l-7 4z" />
    <glyph glyph-name="Ydieresis" unicode="&#x178;" horiz-adv-x="349" 
d="M91 6l1 -1q10 3 17 8q6 4 9 20q2 12 4 42q1 18 1 74v245l-70 235q-8 36 -20 67q-11 28 -33 50v6h179v-6q-21 -7 -19 -26t9 -47l72 -257l46 210q9 34 12 56q3 21 0 33t-12 18q-10 7 -27 11v6h90v-6q-10 -5 -16 -10q-7 -7 -11 -18q-7 -18 -11 -33q-5 -18 -15 -59l-51 -222
v-254q0 -55 1 -73q2 -30 4 -42q3 -14 9 -19q7 -5 17 -8v-6h-186v6zM278 783v-2q-23 0 -38 17q-15 16 -15 39t15 38t38 15t38 -15t15 -37t-15 -39q-15 -16 -38 -16zM146 781v-2q-23 0 -38 17q-15 16 -15 39t15 38t38 15t38 -15t15 -37t-15 -39q-15 -16 -38 -16z" />
    <glyph glyph-name="Zacute" unicode="&#x179;" horiz-adv-x="343" 
d="M184 739l-1 -1q-29 -4 -51 -17q-23 -13 -38 -28q-19 -19 -32 -37q-4 -5 -14.5 -20.5t-16.5 -23.5h-6l26 138h265l-173 -741q42 3 72 14q29 11 48 30q18 18 34 48q12 23 31 66h6l-21 -167h-300zM101 785l95 75q14 10 24 15q12 5 24 5q17 0 26 -10t9 -24q0 -35 -50 -47
l-125 -21z" />
    <glyph glyph-name="zacute" unicode="&#x17a;" horiz-adv-x="298" 
d="M267 -10v-2q-8 4 -15 5q-8 1 -23 3q-18 2 -36 2h-55h-128l162 457q-37 -1 -61 -9t-39 -21q-15 -14 -24 -31q-7 -14 -16 -41h-8l22 122q15 -7 44 -9q19 -1 84 -1h107l-166 -458q44 0 71 9q26 9 43 24q16 15 27 38q5 12 22 51h8zM103 517l61 117q11 21 23 33q11 11 27 11
t27 -9q10 -9 10 -26t-9 -30t-25 -25l-108 -75z" />
    <glyph glyph-name="Zdotaccent" unicode="&#x17b;" horiz-adv-x="343" 
d="M184 739l-1 -1q-29 -4 -51 -17q-23 -13 -38 -28q-19 -19 -32 -37q-4 -5 -14.5 -20.5t-16.5 -23.5h-6l26 138h265l-173 -741q42 3 72 14q29 11 48 30q18 18 34 48q12 23 31 66h6l-21 -167h-300zM183 784h-1q-26 0 -42 18q-17 19 -17 44q0 23 17 42q16 18 42 18t44 -18
t18 -42q0 -26 -18 -44t-43 -18z" />
    <glyph glyph-name="zdotaccent" unicode="&#x17c;" horiz-adv-x="298" 
d="M267 -10v-2q-8 4 -15 5q-8 1 -23 3q-18 2 -36 2h-55h-128l162 457q-37 -1 -61 -9t-39 -21q-15 -14 -24 -31q-7 -14 -16 -41h-8l22 122q15 -7 44 -9q19 -1 84 -1h107l-166 -458q44 0 71 9q26 9 43 24q16 15 27 38q5 12 22 51h8zM161 525l-2 -1q-25 0 -43 18t-18 44
q0 25 18 43t44 18t44 -18t18 -43t-18 -43t-43 -18z" />
    <glyph glyph-name="Zcaron" unicode="&#x17d;" horiz-adv-x="343" 
d="M184 739l-1 -1q-29 -4 -51 -17q-23 -13 -38 -28q-19 -19 -32 -37q-4 -5 -14.5 -20.5t-16.5 -23.5h-6l26 138h265l-173 -741q42 3 72 14q29 11 48 30q18 18 34 48q12 23 31 66h6l-21 -167h-300zM71 903l111 -38l111 38l3 -6l-114 -113l-113 113z" />
    <glyph glyph-name="zcaron" unicode="&#x17e;" horiz-adv-x="298" 
d="M267 -10v-2q-8 4 -15 5q-8 1 -23 3q-18 2 -36 2h-55h-128l162 457q-37 -1 -61 -9t-39 -21q-15 -14 -24 -31q-7 -14 -16 -41h-8l22 122q15 -7 44 -9q19 -1 84 -1h107l-166 -458q44 0 71 9q26 9 43 24q16 15 27 38q5 12 22 51h8zM69 686l92 -61l92 61l7 -4l-99 -171
l-99 171z" />
    <glyph glyph-name="uni0192" unicode="&#x192;" horiz-adv-x="378" 
d="M68 466l54 -1l11 103q4 54 20 93q15 37 36 60q22 23 45 32q24 9 45 9q42 0 69 -15t27 -47q0 -13 -9 -25t-28 -12q-21 0 -30 11q-8 10 -13 30q-6 32 -10 39q-5 9 -12 9q-6 0 -13 -5q-6 -5 -9 -18t-6 -38q-3 -23 -6 -62l-16 -163h72v-10h-73l-30 -319q-6 -65 -23 -115
q-16 -47 -39 -79q-22 -30 -50 -46q-27 -15 -54 -15q-42 0 -72 15t-30 46q0 14 9 26t29 12q22 0 30 -12t12 -31q6 -32 12 -39q6 -8 15 -8q11 0 18 9q8 10 14 31q7 26 11 60q4 37 9 95l38 370h-53v10z" />
    <glyph glyph-name="Aringacute" unicode="&#x1fa;" horiz-adv-x="348" 
d="M-3 5l-5 -2q8 5 14 12q7 9 11 22q4 14 9 38q7 35 11 59l14 92v1l58 381l-12 70q-6 40 -16 51q-11 12 -21 15v5h130q7 0 11 -2t5 -12l101 -609q11 -63 18 -89t23 -31v-6h-166v6q8 2 12 6q5 5 8 12q3 8 3 21t-3 36l-24 139h-115l-13 -84q-7 -43 -8 -61q-1 -24 3 -37
q5 -14 13 -21q9 -7 26 -12v-5h-87v5zM173 227l-60 350l-53 -350h113zM53 840v-2q0 28 23 48t59 20q37 0 60 -20q22 -19 22 -48q0 -30 -22 -49t-60 -19t-60 19t-22 51zM101 838q0 -60 33 -60q34 0 34 60q0 29 -9 44t-25 15q-15 0 -24 -15t-9 -44zM54 922l95 75q13 11 24 15
q12 5 24 5q17 0 26 -10q9 -11 9 -24q0 -35 -50 -47l-125 -21z" />
    <glyph glyph-name="aringacute" unicode="&#x1fb;" 
d="M109 -8l-5 -9q-38 0 -62 27t-24 78q0 36 17 61q16 23 39 40q19 14 47 28q24 12 41 26l-6 -4q4 4 12 10q7 5 11 12q5 9 8 18q3 11 3 30v85q0 43 -7 54q-8 12 -28 12q-11 0 -21 -12t-21 -50q-5 -16 -12 -27q-8 -11 -27 -11q-17 0 -28 11q-10 10 -10 26q0 13 6 27t21 24
q15 11 37 18q21 7 56 7q25 0 53 -5q25 -4 46 -18q21 -13 33 -38q12 -24 12 -63v-218v-64q0 -24 3 -36t7 -15t12 -3q11 0 17 6l3 -6q-6 -5 -21 -12q-14 -7 -46 -7q-35 0 -54 12t-25 35q-23 -28 -39 -38q-17 -11 -48 -11zM124 111v1q0 -52 9 -78t24 -26q2 0 8 6q1 1 9 9.5
t16 16.5q-1 3 -1 12v207q-5 -12 -13 -18q-12 -8 -18 -13l6 3q-14 -13 -21 -22q-7 -11 -12 -24q-5 -14 -6 -31q-1 -12 -1 -43zM85 583h-2q0 29 22 48q23 20 55 20t55 -20q22 -19 22 -48q0 -31 -21 -51q-20 -19 -55 -19t-55 19q-21 20 -21 51zM132 583l1 -1q0 -29 8 -45
q7 -15 20 -15q14 0 21 16q8 18 8 45q0 29 -9 44t-21 15q-10 0 -19 -15t-9 -44zM89 667l95 75q14 10 24 15q12 5 24 5q17 0 26 -10t9 -24q0 -35 -50 -47l-125 -21z" />
    <glyph glyph-name="AEacute" unicode="&#x1fc;" horiz-adv-x="488" 
d="M377 326l3 -5q-4 18 -7 27q-5 16 -10 24q-6 10 -17 18q-10 8 -27 12v-397q35 2 56 7q23 6 42 20q18 14 32 38q14 25 26 62h8l-13 -118q-2 -14 -6 -15q-6 -2 -12 -2h-289v6q10 3 17 8q6 4 9 20q2 12 4 42q1 18 1 74v77h-112l-22 -102q-9 -34 -12 -56q-3 -23 -2 -33
q2 -13 7 -18t17 -10v-5h-72v5q10 6 14 10q6 6 12 18t12 33q8 27 14 56l123 555q4 24 5 29q1 12 0 19q-2 7 -9 12q-7 4 -22 7v7h277q8 0 11 -3t6 -19l18 -103h-8q-23 58 -54 84q-32 26 -82 30v-317q17 5 27 12q11 8 17 18q7 13 11 24q3 9 7 27h6v-178h-6zM194 229v502
l-110 -502h110zM225 781l95 75q14 10 24 15q12 5 24 5q17 0 26 -10t9 -24q0 -35 -50 -47l-125 -21z" />
    <glyph glyph-name="aeacute" unicode="&#x1fd;" horiz-adv-x="493" 
d="M111 -8l-5 -11q-38 0 -64 27q-25 26 -25 78q0 36 17 61q16 23 39 40q19 14 47 28q24 12 41 26l-6 -4q4 4 12 10q7 5 11 12q5 9 8 18q3 11 3 30v85q0 43 -7 54q-7 12 -28 12q-10 0 -21 -12q-10 -12 -21 -50q-4 -16 -12 -27t-27 -11q-17 0 -28 11q-10 10 -10 26q0 13 6 27
t21 24q15 11 37 18q21 7 56 7q31 0 61 -6q29 -6 51 -26q18 17 36 24q19 8 35 8q37 0 62 -14t38 -36q14 -23 18 -51q5 -32 5 -57h-155q-1 -9 -1 -27v-30q0 -38 2 -98q1 -45 9 -78q7 -32 21 -52q13 -19 38 -19q29 0 45 11t23 21l6 -7q-7 -7 -11 -12q-6 -7 -16 -13
q-9 -5 -25 -10q-13 -4 -34 -4q-42 0 -78 17q-35 16 -57 57l-7 -8q-13 -14 -33 -34q-14 -13 -24 -21q-11 -8 -23 -11t-30 -3zM335 454v-3q-7 0 -13 -6q-5 -5 -10 -21q-4 -12 -7 -42q-2 -20 -4 -68h59q2 68 0 104t-25 36zM124 106v-1q0 -53 9 -78q9 -26 23 -26q4 0 15 11
l42 44l5 6q-14 29 -21 67q-8 42 -8 90v35q-5 -12 -13 -18q-12 -8 -18 -13l6 3q-14 -13 -21 -22q-7 -10 -12 -24t-6 -31q-1 -12 -1 -43zM186 504l61 117q11 21 23 33q11 11 27 11q17 0 27 -9t10 -26q0 -16 -9 -30q-9 -13 -25 -25l-108 -75z" />
    <glyph glyph-name="Oslashacute" unicode="&#x1fe;" horiz-adv-x="441" 
d="M220 -12l1 -1q-43 0 -84 36l-12 -48l-10 3l13 53q-42 44 -73 131q-30 86 -30 213q0 95 17 169q16 70 44 120q27 48 63 72t72 24q45 0 85 -34l10 41l10 -4l-11 -45q44 -42 72 -127q29 -87 29 -216q0 -92 -17 -166q-16 -70 -44 -121q-27 -50 -63 -75q-35 -25 -72 -25z
M157 375l-1 -1q0 -80 1 -115q2 -65 4 -96l114 444q-15 141 -55 141q-33 0 -48 -94t-15 -279zM220 -4l-1 -1q39 0 51 97q11 93 13 282q0 118 -6 201l-114 -445q7 -65 21 -100q13 -34 36 -34zM140 783l95 75q13 10 24 15q12 5 24 5q17 0 26 -10t9 -24q0 -35 -50 -47l-125 -21z
" />
    <glyph glyph-name="oslashacute" unicode="&#x1ff;" horiz-adv-x="358" 
d="M179 4l-3 -8q12 0 21 12t15 38t9 69t3 108q0 51 -1 72q-1 31 -3 57l30 90l-8 6l8 25l9 -4l-9 -27q16 -12 33 -30q16 -17 28 -45q11 -25 19 -61q7 -32 7 -80q0 -65 -17 -111q-16 -44 -41 -72q-24 -27 -53 -39q-28 -12 -51 -12q-14 0 -32 6q-16 5 -36 17l25 76q-1 3 -1 11
v13l88 265q-6 49 -16 66q-11 18 -27 18q-12 0 -21 -10q-9 -11 -15 -37q-6 -27 -9 -72t-3 -115q0 -44 1 -63q1 -29 3 -51l-32 -94l9 -6l-11 -32l-9 4l11 34q-34 26 -59 75q-26 50 -26 132q0 69 17 117q16 46 42 75q25 28 54 40q28 12 51 12q16 0 32 -4q18 -5 36 -15l-24 -72
l2 -24l-88 -265q5 -49 15 -69q11 -20 27 -20zM120 511l61 117q11 21 23 33q11 11 27 11q17 0 27 -9t10 -26t-9 -30t-25 -25l-108 -75z" />
    <glyph glyph-name="uni0218" unicode="&#x218;" 
d="M142 -9l-5 -4q-24 0 -41 7q-20 8 -30 16q-18 13 -21 16q-8 7 -14 7q-4 0 -9 -20h-6v202h7q15 -119 42 -168q27 -50 73 -50q42 0 68 23t26 77q0 30 -10 57q-10 28 -27 60q-10 18 -38 67q-40 68 -45 77q-18 38 -33 65t-30 59q-14 29 -21 58q-7 28 -7 66q0 67 40 108
q40 42 109 42q17 0 29 -4q13 -4 24 -9t18 -9t12 -4q7 0 9 8q1 5 3 17h7v-156h-7q-17 84 -39 117t-57 33q-33 0 -48 -20q-15 -19 -15 -53q0 -22 9 -48t24 -54q18 -34 34 -60q22 -35 39 -67l22 -38.5t19 -33.5q16 -29 34 -66q15 -31 24 -63t9 -63q0 -55 -16 -90
q-17 -37 -42 -59q-26 -22 -57 -33q-30 -10 -63 -10zM185 -114v-2q-4 -5 -15 -13q-10 -7 -28 -7q-19 0 -35 14q-15 14 -15 36q0 25 17 39t36 14q26 0 45 -16q20 -17 20 -54q0 -38 -24 -62q-23 -23 -63 -28l-4 7q37 4 54 24t17 36q0 9 -5 12z" />
    <glyph glyph-name="uni0219" unicode="&#x219;" horiz-adv-x="273" 
d="M151 5l-1 -8q16 0 30 17q13 16 13 42q0 27 -18 60t-63 78q-28 25 -46 46q-18 22 -27 40q-9 20 -12 39t-3 42q0 21 8 42q8 19 21 33t30 21q18 8 36 8q17 0 36 -9t48 -9q6 0 11 5q4 4 6 12h9v-130h-9q-10 33 -24 58q-14 24 -27 39t-27 21t-24 6q-15 0 -28 -11
q-12 -11 -12 -33q0 -12 5 -25q4 -11 15 -25q10 -14 27 -30l39 -39q27 -26 49 -51q19 -22 30 -44t14 -42q3 -21 3 -45q0 -27 -11 -51q-11 -23 -27 -38q-17 -16 -36 -23q-21 -8 -36 -8q-18 0 -33 6q-17 7 -27 13q-5 3 -13.5 7.5t-9.5 5.5q-11 6 -19 6q-7 0 -11 -4
q-5 -5 -6 -12h-8v153h8q46 -163 120 -163zM171 -118v-2q-4 -5 -15 -13q-10 -7 -28 -7q-19 0 -35 14q-15 14 -15 36q0 25 17 39t36 14q26 0 45 -16q20 -17 20 -54q0 -38 -24 -62q-23 -23 -63 -28l-4 7q37 4 54 24t17 36q0 9 -5 12z" />
    <glyph glyph-name="uni021A" unicode="&#x21a;" horiz-adv-x="399" 
d="M105 6l3 -2q10 3 17 8q6 4 9 20q2 12 4 42q1 18 1 74v592q-29 -3 -49 -12t-33 -25q-14 -17 -23 -41q-6 -15 -19 -57h-8l9 124q1 15 5 19q3 3 11 3h339q8 0 11 -3q4 -4 5 -19l9 -124h-7q-11 34 -21 56q-11 25 -24 41q-14 17 -33 26q-20 9 -49 12v-592q0 -55 1 -73
q2 -30 4 -42q3 -14 9 -19q7 -5 17 -8v-6h-188v6zM233 -112v-2q-4 -5 -15 -13q-10 -7 -28 -7q-19 0 -35 14q-15 14 -15 36q0 25 17 39t36 14q26 0 45 -16q20 -17 20 -54q0 -38 -24 -62q-23 -23 -63 -28l-4 7q37 4 54 24t17 36q0 9 -5 12z" />
    <glyph glyph-name="uni021B" unicode="&#x21b;" horiz-adv-x="229" 
d="M152 -9v-3q-50 0 -81 29q-30 29 -30 80v357h-41v9q20 3 42 14t41 30q18 18 34 50t23 69h9v-162h75v-10h-75v-348q0 -55 8 -79q7 -22 33 -22q14 0 21 4q5 3 13 9l5 -5q-10 -8 -22 -14q-16 -8 -55 -8zM161 -113v-2q-4 -5 -15 -13q-10 -7 -28 -7q-19 0 -35 14q-15 13 -15 36
q0 25 17 39t36 14q26 0 45 -16q20 -17 20 -54q0 -38 -24 -62q-23 -23 -63 -28l-4 7q37 5 54 24q17 20 17 36q0 9 -5 12z" />
    <glyph glyph-name="uni0237" unicode="&#x237;" horiz-adv-x="184" 
d="M-28 -139h1q-21 0 -36 12t-15 33q0 16 11 27q10 10 26 10q17 0 27 -9q11 -10 18 -19q2 -3 7 -9.5t7 -9.5q6 -9 14 -9q4 0 7 3q5 5 3 20q-1 10 -1 59v343q0 27 -1 36q-2 15 -4 21q-3 8 -9 11q-8 4 -16 5v7l135 85v-400q0 -39 -1 -55q-1 -24 -9 -45q-7 -20 -24 -40
q-16 -19 -45 -39q-32 -23 -52 -30t-43 -7z" />
    <glyph glyph-name="circumflex" unicode="&#x2c6;" horiz-adv-x="446" 
d="M228 688l99 -171l-7 -4l-92 61l-92 -61l-7 4z" />
    <glyph glyph-name="caron" unicode="&#x2c7;" horiz-adv-x="446" 
d="M136 688l92 -61l92 61l7 -4l-99 -171l-99 171z" />
    <glyph glyph-name="breve" unicode="&#x2d8;" horiz-adv-x="446" 
d="M223 592l-1 -1q31 0 47 11q14 9 22 23h9q2 -39 -18 -69t-58 -30q-39 0 -60 30q-21 29 -19 71h9q5 -11 21 -23q17 -12 48 -12z" />
    <glyph glyph-name="dotaccent" unicode="&#x2d9;" horiz-adv-x="446" 
d="M222 527l-2 -1q-25 0 -43 18t-18 44q0 25 18 43t44 18t44 -18t18 -43t-18 -43t-43 -18z" />
    <glyph glyph-name="ring" unicode="&#x2da;" horiz-adv-x="446" 
d="M154 591h-2q0 29 22 48q23 20 55 20t55 -20q22 -19 22 -48q0 -31 -21 -51q-20 -19 -55 -19t-55 19q-21 20 -21 51zM201 591l1 -1q0 -29 8 -45q8 -15 20 -15q14 0 21 16q8 18 8 45q0 29 -9 44t-21 15q-10 0 -19 -15t-9 -44z" />
    <glyph glyph-name="ogonek" unicode="&#x2db;" horiz-adv-x="446" 
d="M236 -177l-3 -4q-35 0 -57 18t-22 47q0 20 12 38t30 33q16 14 39 25q24 12 39 17h13q-12 -12 -24 -36t-12 -59q0 -22 11 -35q10 -12 29 -12q13 0 21 5q8 4 15 12l5 -5l-12 -12q-8 -8 -19 -15q-12 -8 -28 -12q-18 -5 -37 -5z" />
    <glyph glyph-name="tilde" unicode="&#x2dc;" horiz-adv-x="446" 
d="M186 621h-1q22 0 41 -3q20 -3 36 -3q11 0 20 11q9 10 24 27l7 -3q-10 -43 -23 -72q-12 -27 -35 -27q-19 0 -39 3t-39 3q-11 0 -18 -10q-7 -11 -24 -27l-6 3q14 49 25 72q12 26 32 26z" />
    <glyph glyph-name="hungarumlaut" unicode="&#x2dd;" horiz-adv-x="446" 
d="M236 521l32 118q4 21 14 36q9 13 30 13q15 0 24 -10t9 -27q0 -10 -4 -18q-6 -12 -10 -17l-89 -98zM123 520l30 119q5 23 15 36t30 13q16 0 25 -10t9 -27q0 -21 -15 -36l-88 -98z" />
    <glyph glyph-name="Wgrave" unicode="&#x1e80;" horiz-adv-x="553" 
d="M46 623l-1 -3l-12 48t-9 33q-5 16 -10 23q-7 10 -15 17v7h176v-7q-23 -7 -24 -24q-1 -16 9 -58l97 -440l30 132l-60 269l-12 48t-9 33t-11 23q-6 9 -17 15v7h174v-7q-21 -6 -21 -22q0 -14 8 -60l23 -122l16 85q1 5 7 41q3 20 2 33q-2 16 -7 27q-6 12 -19 19v7h79v-7
q-10 -4 -18 -9t-12 -16q-5 -13 -9 -34l-12 -60l-21 -110l54 -293l74 402l7 42q3 20 0 35q-3 16 -12 26q-9 11 -28 18v7h92v-7q-5 -3 -13 -9q-6 -4 -12 -17q-6 -12 -12 -33q-4 -14 -13 -59l-115 -628h-22l-75 335l-76 -335h-22zM257 797h1q-50 12 -50 47q0 14 9 24
q9 11 26 11q12 0 24 -5q11 -4 24 -15l94 -76l-3 -7z" />
    <glyph glyph-name="wgrave" unicode="&#x1e81;" horiz-adv-x="447" 
d="M42 355h-3q-5 18 -13 54q-7 29 -7 30q-3 11 -6 14t-9 6v6h145v-6q-10 -3 -14 -6q-5 -3 -5 -14q0 -13 4 -30q1 -4 3 -13.5t4.5 -19t4.5 -19.5l48 -192l30 108l-19 81q-1 4 -13 56q-2 10 -8 30q-3 11 -6 14q-4 4 -9 5v6h154v-6q-9 -3 -16 -6q-6 -3 -9 -13t0 -30
q4 -25 10 -52l37 -181l37 159q11 45 15 67q4 23 1 36q-3 11 -12 16t-24 6v6h87v-6q-12 -4 -17 -7q-6 -5 -12 -16q-6 -12 -12 -36q-2 -7 -7 -29t-9 -37l-79 -341h-21l-62 260l-72 -260h-22zM170 590h2q-16 12 -25 25t-9 30t10 26t27 9q16 0 27 -11q12 -12 23 -33l59 -117
l-6 -4z" />
    <glyph glyph-name="Wacute" unicode="&#x1e82;" horiz-adv-x="553" 
d="M46 623l-1 -3l-12 48t-9 33q-5 16 -10 23q-7 10 -15 17v7h176v-7q-23 -7 -24 -24q-1 -16 9 -58l97 -440l30 132l-60 269l-12 48t-9 33t-11 23q-6 9 -17 15v7h174v-7q-21 -6 -21 -22q0 -14 8 -60l23 -122l16 85q1 5 7 41q3 20 2 33q-2 16 -7 27q-6 12 -19 19v7h79v-7
q-10 -4 -18 -9t-12 -16q-5 -13 -9 -34l-12 -60l-21 -110l54 -293l74 402l7 42q3 20 0 35q-3 16 -12 26q-9 11 -28 18v7h92v-7q-5 -3 -13 -9q-6 -4 -12 -17q-6 -12 -12 -33q-4 -14 -13 -59l-115 -628h-22l-75 335l-76 -335h-22zM228 783l95 75q13 10 24 15q12 5 24 5
q17 0 26 -10t9 -24q0 -35 -50 -47l-125 -21z" />
    <glyph glyph-name="wacute" unicode="&#x1e83;" horiz-adv-x="447" 
d="M42 355h-3q-5 18 -13 54q-7 29 -7 30q-3 11 -6 14t-9 6v6h145v-6q-10 -3 -14 -6q-5 -3 -5 -14q0 -13 4 -30q1 -4 3 -13.5t4.5 -19t4.5 -19.5l48 -192l30 108l-19 81q-1 4 -13 56q-2 10 -8 30q-3 11 -6 14q-4 4 -9 5v6h154v-6q-9 -3 -16 -6q-6 -3 -9 -13t0 -30
q4 -25 10 -52l37 -181l37 159q11 45 15 67q4 23 1 36q-3 11 -12 16t-24 6v6h87v-6q-12 -4 -17 -7q-6 -5 -12 -16q-6 -12 -12 -36q-2 -7 -7 -29t-9 -37l-79 -341h-21l-62 260l-72 -260h-22zM191 519l61 117q11 21 23 33q11 11 27 11t27 -9q10 -9 10 -26t-9 -30t-25 -25
l-108 -75z" />
    <glyph glyph-name="Wdieresis" unicode="&#x1e84;" horiz-adv-x="553" 
d="M46 623l-1 -3l-12 48t-9 33q-5 16 -10 23q-7 10 -15 17v7h176v-7q-23 -7 -24 -24q-1 -16 9 -58l97 -440l30 132l-60 269l-12 48t-9 33t-11 23q-6 9 -17 15v7h174v-7q-21 -6 -21 -22q0 -14 8 -60l23 -122l16 85q1 5 7 41q3 20 2 33q-2 16 -7 27q-6 12 -19 19v7h79v-7
q-10 -4 -18 -9t-12 -16q-5 -13 -9 -34l-12 -60l-21 -110l54 -293l74 402l7 42q3 20 0 35q-3 16 -12 26q-9 11 -28 18v7h92v-7q-5 -3 -13 -9q-6 -4 -12 -17q-6 -12 -12 -33q-4 -14 -13 -59l-115 -628h-22l-75 335l-76 -335h-22zM373 781v-2q-23 0 -38 17q-15 16 -15 39t15 38
t38 15t38 -15t15 -37t-15 -39q-15 -16 -38 -16zM241 779v-2q-23 0 -38 17q-15 16 -15 39t15 38t38 15t38 -15t15 -37t-15 -39q-15 -16 -38 -16z" />
    <glyph glyph-name="wdieresis" unicode="&#x1e85;" horiz-adv-x="447" 
d="M42 355h-3q-5 18 -13 54q-7 29 -7 30q-3 11 -6 14t-9 6v6h145v-6q-10 -3 -14 -6q-5 -3 -5 -14q0 -13 4 -30q1 -4 3 -13.5t4.5 -19t4.5 -19.5l48 -192l30 108l-19 81q-1 4 -13 56q-2 10 -8 30q-3 11 -6 14q-4 4 -9 5v6h154v-6q-9 -3 -16 -6q-6 -3 -9 -13t0 -30
q4 -25 10 -52l37 -181l37 159q11 45 15 67q4 23 1 36q-3 11 -12 16t-24 6v6h87v-6q-12 -4 -17 -7q-6 -5 -12 -16q-6 -12 -12 -36q-2 -7 -7 -29t-9 -37l-79 -341h-21l-62 260l-72 -260h-22zM308 528v-1q-23 0 -38 16q-15 17 -15 40t15 38t38 15t38 -15t15 -37q0 -24 -15 -40
t-38 -16zM168 527v-1q-23 0 -38 16t-15 40q0 23 15 38t38 15t38 -15t15 -37q0 -23 -15 -40q-15 -16 -38 -16z" />
    <glyph glyph-name="Ygrave" unicode="&#x1ef2;" horiz-adv-x="349" 
d="M91 6l1 -1q10 3 17 8q6 4 9 20q2 12 4 42q1 18 1 74v245l-70 235q-8 36 -20 67q-11 28 -33 50v6h179v-6q-21 -7 -19 -26t9 -47l72 -257l46 210q9 34 12 56q3 21 0 33t-12 18q-10 7 -27 11v6h90v-6q-10 -5 -16 -10q-7 -7 -11 -18q-7 -18 -11 -33q-5 -18 -15 -59l-51 -222
v-254q0 -55 1 -73q2 -30 4 -42q3 -14 9 -19q7 -5 17 -8v-6h-186v6zM164 799h1q-50 12 -50 47q0 14 9 24q9 11 26 11q12 0 24 -5q10 -4 24 -15l94 -76l-3 -7z" />
    <glyph glyph-name="ygrave" unicode="&#x1ef3;" horiz-adv-x="313" 
d="M39 -171l-1 -4q-24 0 -37 11q-12 10 -12 27q0 20 10 27q11 8 24 8t21 -3q10 -4 14 -6t14 -6q8 -3 18 -3q11 0 24 16q14 16 30 66l8 29l-112 364q-4 12 -9 30t-7 24q-7 24 -10 30q-5 12 -7 14q-3 3 -10 6v6h164v-6q-11 -2 -17 -6q-5 -4 -7 -15t3 -29q9 -36 13 -50l51 -190
l47 166q13 44 17 65q4 24 3 36q-2 13 -9 17q-8 5 -19 6v6h75v-6q-9 -5 -15 -9q-6 -5 -12 -16q-4 -8 -13 -35q-3 -9 -19 -63l-105 -371q-25 -74 -49 -104q-26 -32 -66 -32zM133 586h2q-16 12 -25 25t-9 30t10 26q11 9 27 9t27 -11q12 -12 23 -33l59 -117l-6 -4z" />
    <glyph glyph-name="uni2009" unicode="&#x2009;" horiz-adv-x="52" 
 />
    <glyph glyph-name="endash" unicode="&#x2013;" horiz-adv-x="393" 
d="M40 287h313v-12h-313v12z" />
    <glyph glyph-name="emdash" unicode="&#x2014;" horiz-adv-x="747" 
d="M40 287h667v-12h-667v12z" />
    <glyph glyph-name="quoteleft" unicode="&#x2018;" horiz-adv-x="172" 
d="M56 657l-1 -2q5 8 15 14t27 6q21 0 36 -15t15 -39q0 -26 -18 -41t-41 -15q-24 0 -45 18t-21 61q0 50 27 84t69 54l4 -6q-33 -18 -55 -44q-21 -24 -21 -50q0 -9 3 -15q2 -4 6 -10z" />
    <glyph glyph-name="quoteright" unicode="&#x2019;" horiz-adv-x="172" 
d="M115 670h-4q-5 -8 -14 -14t-26 -6q-21 0 -36 16t-15 39q0 27 18 42t42 15q13 0 24 -4q10 -4 22 -14q10 -8 16 -24q6 -15 6 -36q0 -50 -27 -85q-27 -34 -68 -54l-5 7q37 19 57 44t20 50q0 17 -10 24z" />
    <glyph glyph-name="quotesinglbase" unicode="&#x201a;" horiz-adv-x="169" 
d="M107 6h-4q-5 -8 -14 -14t-26 -6q-21 0 -36 16t-15 39q0 27 18 42t42 15q13 0 24 -4q10 -4 22 -14q10 -8 16 -24q6 -15 6 -36q0 -50 -27 -85q-27 -34 -68 -54l-5 7q37 19 57 44t20 50q0 17 -10 24z" />
    <glyph glyph-name="quotedblleft" unicode="&#x201c;" horiz-adv-x="325" 
d="M56 657l-1 -2q5 8 15 14t27 6q21 0 36 -15t15 -39q0 -26 -18 -41t-41 -15q-24 0 -45 18t-21 61q0 50 27 84t69 54l4 -6q-33 -18 -55 -44q-21 -24 -21 -50q0 -9 3 -15q2 -4 6 -10zM208 655v-2q5 8 15 14q11 6 27 6q20 0 35 -15t15 -39q0 -26 -18 -41t-41 -15q-11 0 -24 5
q-11 4 -21 14q-9 9 -15 24t-6 36q0 50 27 84t69 54l4 -6q-36 -20 -56 -44q-20 -25 -20 -50q0 -9 3 -15q2 -4 6 -10z" />
    <glyph glyph-name="quotedblright" unicode="&#x201d;" horiz-adv-x="325" 
d="M268 670v1q-5 -8 -15 -14q-11 -6 -27 -6q-20 0 -35 16q-15 17 -15 39q0 27 18 42t41 15q13 0 24 -4t21 -14q9 -9 15 -24t6 -36q0 -51 -27 -85t-69 -54l-4 7q36 20 56 44q20 25 20 50q0 8 -3 14t-6 9zM115 671h-4q-5 -8 -14 -14t-26 -6q-21 0 -36 16q-15 17 -15 39
q0 27 18 42t42 15q13 0 24 -4q10 -4 22 -14q10 -8 16 -24q6 -15 6 -36q0 -51 -27 -85t-68 -54l-5 7q37 19 57 44t20 50q0 17 -10 24z" />
    <glyph glyph-name="quotedblbase" unicode="&#x201e;" horiz-adv-x="322" 
d="M267 6v1q-5 -8 -15 -14t-27 -6q-20 0 -35 16q-15 17 -15 39q0 27 18 42t41 15q13 0 24 -4t21 -14q9 -9 15 -24t6 -36q0 -51 -27 -85t-69 -54l-4 7q36 20 56 44q20 25 20 50q0 8 -3 14t-6 9zM114 7h-4q-5 -8 -14 -14t-26 -6q-21 0 -36 16q-15 17 -15 39q0 27 18 42t42 15
q13 0 24 -4q10 -4 22 -14q10 -8 16 -24q6 -15 6 -36q0 -51 -27 -85t-68 -54l-5 7q37 19 57 44t20 50q0 17 -10 24z" />
    <glyph glyph-name="dagger" unicode="&#x2020;" horiz-adv-x="327" 
d="M161 -2l-2 -6q-2 38 -6 86q-5 48 -9 99q-6 68 -10 101q-2 15 -3.5 30.5t-3.5 33t-3 26.5q-1 13 -4 36t-4 33q-4 34 -4 36q16 19 30 47t14 56q-14 0 -22 -7q-12 -10 -19 -16q-10 -8 -22 -16q-11 -7 -28 -7q-25 0 -39 15q-14 16 -14 35t14 35q14 15 39 15q17 0 28 -7
q12 -8 22 -16q7 -6 21 -16q10 -7 22 -7q0 11 -8 24q-5 8 -17 24q-10 14 -17 27q-8 16 -8 33q0 22 15 40t40 18q24 0 39 -18t15 -40q0 -17 -8 -33q-7 -13 -17 -27q-12 -16 -17 -24q-8 -13 -8 -24q15 0 23 7q12 10 18 16q8 8 21 16q11 7 29 7q26 0 39 -15q14 -16 14 -35
t-14 -35q-13 -15 -39 -15q-18 0 -29 7q-12 8 -22 16q-7 6 -19 16q-8 7 -21 7q0 -27 14 -55q13 -26 30 -46q-1 -3 -4 -34q-1 -8 -3.5 -30.5t-4.5 -37.5q-5 -41 -9 -90q-3 -33 -9 -101q-6 -70 -8 -99q-2 -27 -4 -85h-8z" />
    <glyph glyph-name="daggerdbl" unicode="&#x2021;" horiz-adv-x="343" 
d="M172 -8l-8 -3q-25 0 -40 18t-15 40q0 17 8 33q7 13 17 27q12 16 17 24q8 13 8 24q-12 0 -22 -7q-14 -10 -21 -16q-10 -8 -22 -16q-11 -7 -28 -7q-26 0 -39 15q-14 16 -14 35t14 35q13 15 39 15q17 0 28 -7q12 -8 22 -16q4 -3 11 -8.5t9 -7.5q8 -7 23 -7q0 32 -4 57
q-5 30 -12 56q-9 32 -16 51q-8 21 -18 43q8 17 18 44q11 29 17 51q7 26 12 56q5 32 5 57q-14 0 -22 -7q-12 -10 -19 -16q-10 -8 -22 -16q-11 -7 -28 -7q-26 0 -39 15q-14 16 -14 35t14 35q13 15 39 15q17 0 28 -7q12 -8 22 -16q7 -6 21 -16q10 -7 22 -7q0 11 -8 24
q-5 8 -17 24q-11 14 -17 27q-8 16 -8 33q0 22 15 40t40 18q24 0 39 -18t15 -40q0 -17 -8 -33q-6 -13 -17 -27q-12 -16 -17 -24q-8 -13 -8 -24q15 0 23 7q12 10 18 16q8 8 21 16q11 7 29 7q25 0 39 -15q14 -16 14 -35t-14 -35q-14 -15 -39 -15q-18 0 -29 7q-12 8 -22 16
q-7 6 -19 16q-8 7 -21 7q0 -25 5 -57q4 -27 12 -55q6 -22 17 -51q8 -21 18 -43q-10 -22 -18 -43q-7 -19 -16 -51q-8 -28 -12 -55q-4 -25 -4 -57q13 0 21 7q3 2 9.5 7.5t10.5 8.5q10 8 22 16q11 7 29 7q26 0 39 -15q14 -16 14 -35t-14 -35q-13 -15 -39 -15q-18 0 -29 7
q-13 8 -21 16q-6 6 -18 16q-8 7 -22 7q0 -11 8 -24q5 -8 17 -24q10 -14 17 -27q8 -16 8 -33q0 -22 -15 -40t-39 -18z" />
    <glyph glyph-name="bullet" unicode="&#x2022;" horiz-adv-x="314" 
d="M157 408h-1q26 0 48 -9q23 -9 39 -25q17 -17 26 -39q9 -23 9 -48t-9 -48t-25 -39t-39 -25t-48 -9q-53 0 -87 34t-34 87t34 87t87 34z" />
    <glyph glyph-name="ellipsis" unicode="&#x2026;" horiz-adv-x="523" 
d="M440 -13v-1q-28 0 -48 18q-19 18 -19 47t19 47q20 18 48 18t46 -18t18 -47q0 -28 -18 -46t-46 -18zM266 -14v-1q-28 0 -48 18q-19 18 -19 47t19 47q20 18 48 18t46 -18t18 -47q0 -28 -18 -46t-46 -18zM92 -15v-1q-28 0 -48 18q-19 18 -19 47t19 47q20 18 48 18t46 -18
t18 -47q0 -28 -18 -46t-46 -18z" />
    <glyph glyph-name="perthousand" unicode="&#x2030;" horiz-adv-x="757" 
d="M95 0l291 757l11 -6l-290 -758zM131 379q-24 0 -45 15q-22 15 -36 40q-15 26 -24 60t-9 75t9 75t24 60q14 25 36 40q21 15 45 15t45 -15q22 -15 36 -40q15 -26 24 -60t9 -75t-9 -75t-24 -60q-14 -25 -36 -40q-21 -15 -45 -15zM131 388l-1 -3q16 0 24 44q8 46 8 137
q0 98 -7 137q-7 42 -24 42t-23 -42t-6 -136q0 -93 6 -136t23 -43zM359 -9q-24 0 -45 15q-22 15 -36 40q-15 26 -24 60t-9 75t9 75t24 60q14 25 36 40q21 15 45 15t45 -15q22 -15 36 -40q15 -26 24 -60t9 -75t-9 -75t-24 -60q-14 -25 -36 -40q-21 -15 -45 -15zM622 -9
q-24 0 -45 15q-22 15 -36 40q-15 26 -24 60t-9 75t9 75t24 60q14 25 36 40q21 15 45 15t45 -15q22 -15 36 -40q15 -26 24 -60t9 -75t-9 -75t-24 -60q-14 -25 -36 -40q-21 -15 -45 -15zM359 0v-3q17 0 25 44q7 41 7 137q0 98 -7 137q-8 42 -25 42t-23 -42t-6 -136
q0 -93 6 -136t23 -43zM622 -3v-3q17 0 25 44q7 41 7 137q0 98 -7 137q-7 42 -25 42q-17 0 -23 -42t-6 -136q0 -92 6 -136q6 -43 23 -43z" />
    <glyph glyph-name="uni2032" unicode="&#x2032;" horiz-adv-x="140" 
d="M31 550l1 -3q4 41 1 81q-3 38 -3 68q0 31 14 47q14 15 36 15q23 0 35 -14t12 -33q0 -17 -10 -36q-11 -19 -27 -42q-10 -13 -28 -39q-12 -17 -25 -45z" />
    <glyph glyph-name="uni2033" unicode="&#x2033;" horiz-adv-x="268" 
d="M151 550l1 -3q4 41 1 81q-3 38 -3 68q0 31 14 47q14 15 36 15q23 0 35 -14t12 -33q0 -17 -10 -36q-11 -19 -27 -42q-10 -13 -28 -39q-12 -17 -25 -45zM40 547l1 -3q4 41 1 81q-3 37 -3 68t14 47q13 15 36 15t35 -14q12 -13 12 -33q0 -17 -10 -36q-10 -20 -27 -42
q-10 -13 -28 -39q-12 -17 -25 -45z" />
    <glyph glyph-name="guilsinglleft" unicode="&#x2039;" horiz-adv-x="162" 
d="M7 226v8l140 162l6 -4l-56 -162l57 -162l-6 -4z" />
    <glyph glyph-name="guilsinglright" unicode="&#x203a;" horiz-adv-x="162" 
d="M9 68l57 162l-56 162l6 4l140 -162v-8l-141 -162z" />
    <glyph glyph-name="fraction" unicode="&#x2044;" horiz-adv-x="373" 
d="M36 379h301v-8h-301v8z" />
    <glyph glyph-name="Euro" unicode="&#x20ac;" horiz-adv-x="341" 
d="M6 351l39 -4v25v20q0 13 1 19h-41v11h41q5 89 21 152q17 64 42 104q26 41 57 59q32 18 66 18q16 0 34 -6q19 -6 32 -18q14 -13 23 -30q9 -18 9 -42q0 -19 -12 -36t-31 -17q-20 0 -32 12q-13 12 -14 38q-1 22 0 39q2 22 2 27q0 13 -1 17q-2 6 -9 6q-17 0 -29 -18
q-11 -17 -19 -57q-7 -36 -10 -100q-3 -61 -3 -148h93v-11h-93v-64h93v-11h-93q2 -104 9 -168q8 -65 18 -101q10 -35 26 -49q14 -13 35 -13q15 0 32 10q18 11 33 30l7 -6q-13 -18 -37 -34q-23 -16 -55 -16q-37 0 -70 16q-34 16 -61 57q-26 39 -43 108q-17 70 -20 170h-40v11z
" />
    <glyph glyph-name="trademark" unicode="&#x2122;" horiz-adv-x="436" 
d="M73 481h-4q6 2 8 3t4 6q2 6 2 14v26v212q-23 -2 -32 -14q-8 -11 -16 -36h-4l4 49q1 5 3 7q1 1 6 1h134q5 0 6 -1q2 -2 3 -7l5 -49h-5q-8 25 -16 35q-9 12 -32 15v-212v-26q0 -8 2 -14q2 -5 4 -6t8 -3v-5h-80v5zM207 480l-3 -4q11 5 12 13q2 12 2 44v152v30q0 12 -1 16
q-2 7 -4 8q-4 2 -7 3v4h63h3q2 0 2 -5l24 -139l26 145l3 -1v1h63v-4l-7 -3q-3 -1 -4 -7q-2 -8 -2 -16v-30v-152v-30q0 -8 2 -16q1 -5 5 -7q2 -1 8 -3v-4h-80v4q3 1 7 3q2 1 4 8q2 8 2 17v30v174l-44 -236l-4 1v-1h-2l-49 259v-197q0 -35 3 -44t13 -13v-4h-35v4z" />
    <glyph glyph-name="onethird" unicode="&#x2153;" horiz-adv-x="373" 
d="M36 379h301v-8h-301v8zM134 465l-1 6q4 1 10 3q5 2 6 9q2 10 2 21v37v203q0 20 -3 27t-18 7v6l94 61v-304v-37q0 -11 2 -21q2 -7 6 -9q6 -2 10 -3v-6h-108zM126 270l-8 -2q2 7 5 13q1 3 6 3h138v-3l-113 -142q12 6 26 6q15 0 33 -5q16 -4 30 -17q13 -12 21 -33
q8 -22 8 -53q0 -65 -31 -95t-75 -30q-33 0 -53 16q-21 16 -21 39q0 10 8 20q8 9 24 9q28 0 29 -31q1 -16 1 -35q0 -11 15 -11q16 0 25 27t9 92q0 56 -3 79q-3 22 -19 22q-14 0 -24 -7q-11 -8 -18 -18l-5 4l85 108h-55q-18 0 -23 -1q-7 -1 -12 -3q-4 -1 -7 -6q-1 -2 -3.5 -6
t-3.5 -6h-7z" />
    <glyph glyph-name="twothirds" unicode="&#x2154;" horiz-adv-x="373" 
d="M36 379h301v-8h-301v8zM127 270l-8 -2q2 7 5 13q2 3 6 3h138v-3l-113 -142q12 6 26 6q15 0 33 -5q16 -4 30 -17q14 -12 21 -33q8 -22 8 -53q0 -65 -31 -95q-32 -30 -75 -30q-33 0 -53 16q-21 16 -21 39q0 10 8 20q7 9 24 9q28 0 29 -31q1 -16 1 -35q0 -11 15 -11
q16 0 25 27t9 92q0 56 -3 79q-3 22 -19 22q-14 0 -24 -7q-10 -8 -18 -18l-5 4l85 108h-55q-18 0 -23 -1q-8 -1 -12 -3q-4 -1 -7 -6q-1 -2 -3.5 -6t-3.5 -6h-7zM194 524l-5 -1h41q12 0 22 2q8 1 11 5q4 4 5 9h7l-17 -65q-2 -10 -4 -12q-3 -3 -6 -3h-172l52 93q32 55 47 101
q15 47 15 96q0 45 -6 62t-22 17q-15 0 -15 -14q0 -21 -1 -36q-2 -11 -9 -20t-21 -9t-21 9q-7 8 -7 21q0 26 24 41t52 15q14 0 32 -3t34 -13q16 -11 27 -27q11 -17 11 -44q0 -47 -28 -90q-28 -44 -84 -105l-30 -29h68z" />
    <glyph glyph-name="oneeighth" unicode="&#x215b;" horiz-adv-x="373" 
d="M276 3l2 3q0 -40 -24 -66t-65 -26q-19 0 -35 6q-15 6 -30 17q-14 11 -21 27q-8 18 -8 36q0 38 18 60t42 39q-25 26 -35 50q-11 25 -11 56q0 37 26 60q25 22 57 22t56 -18t24 -56q0 -32 -16 -51q-16 -20 -36 -33l1 -1q18 -20 26 -30q12 -15 17 -28q6 -15 9 -31
q3 -17 3 -36zM159 241v-1q0 -32 15 -54q14 -21 39 -49q5 12 7 30q1 11 1 47q0 40 -9 54t-20 14q-15 0 -24 -9t-9 -32zM188 -80v-3q20 0 28 14q7 13 7 36q0 36 -15 62q-16 27 -46 60l-3 3q-8 -14 -9 -37q-2 -32 -2 -58q0 -37 9 -57t31 -20zM38 378h301v-8h-301v8zM131 464
l-1 6q4 1 10 3q4 1 6 9q2 10 2 21v37v203q0 19 -3 27q-3 7 -18 7v6l94 61v-304v-37q0 -11 2 -21q1 -8 6 -9q6 -2 10 -3v-6h-108z" />
    <glyph glyph-name="threeeighths" unicode="&#x215c;" horiz-adv-x="373" 
d="M276 3l-1 1q0 -40 -24 -66t-65 -26q-18 0 -35 6q-15 6 -30 17q-13 11 -21 27q-8 18 -8 36q0 38 18 60t42 39q-25 26 -35 50q-11 25 -11 57q0 37 26 60q25 22 57 22t56 -18t24 -56q0 -32 -16 -51q-17 -19 -36 -33l1 -1q32 -33 44 -58q14 -28 14 -66zM156 239l-1 -1
q0 -32 16 -54q13 -18 39 -49q5 12 7 30q1 11 1 47q0 40 -9 54t-20 14q-15 0 -24 -9t-9 -32zM184 -82v-3q20 0 28 14q7 13 7 36q0 37 -15 62q-16 27 -46 60l-3 3q-8 -14 -9 -37q-2 -32 -2 -58q0 -37 9 -57t31 -20zM34 376h301v-8h-301v8zM123 818l-8 -2q2 7 5 13q2 3 6 3h138
v-3l-113 -142q12 6 26 6q15 0 33 -5q16 -4 30 -17q14 -12 21 -33q8 -22 8 -53q0 -65 -31 -95q-32 -30 -75 -30q-33 0 -53 16q-21 16 -21 39q0 10 8 20q7 9 24 9q28 0 29 -31q1 -16 1 -35q0 -11 15 -11q16 0 25 27t9 92q0 56 -3 79q-3 22 -19 22q-14 0 -24 -7q-10 -8 -18 -18
l-5 4l85 108h-55q-18 0 -23 -1q-8 -1 -12 -3q-4 -1 -7 -6q-1 -2 -3.5 -6t-3.5 -6h-7z" />
    <glyph glyph-name="fiveeighths" unicode="&#x215d;" horiz-adv-x="373" 
d="M147 777l-18 -91q7 7 17 12t21 5q22 0 38 -4q17 -4 33 -17q15 -12 24 -33t9 -55q0 -32 -9 -58t-24 -42q-14 -15 -35 -25q-20 -9 -41 -9q-11 0 -24 5q-12 5 -21 12t-15 18t-6 21q0 13 8 21q7 7 21 7t21 -7q8 -8 8 -19q0 -13 -1 -19q-2 -12 -2 -15q0 -4 2 -10q1 -4 11 -4
q20 0 29 34t9 97q0 47 -6 72q-6 26 -27 26q-14 0 -24 -7q-11 -8 -15 -15l-5 1l22 158h128l-15 -53q-2 -6 -6 -6h-107zM271 -1l-1 1q0 -41 -25 -66q-26 -26 -66 -26q-19 0 -35 6q-15 6 -30 17q-14 11 -21 27q-8 18 -8 36q0 38 18 60q17 22 41 39q-22 25 -33 50t-11 57
q0 38 25 60t57 22t56 -18t24 -56q0 -32 -15 -51q-14 -19 -35 -33l1 -1q32 -33 44 -58q14 -28 14 -66zM151 235v-1q0 -32 15 -54q14 -20 39 -49q5 12 7 30q1 11 1 47q0 40 -9 54t-21 14q-14 0 -23 -9t-9 -32zM180 -86v-3q20 0 28 14q7 13 7 36q0 37 -15 62q-16 27 -46 60
l-3 3q-8 -14 -9 -37q-2 -32 -2 -58q0 -37 9 -57t31 -20zM30 372h301v-8h-301v8z" />
    <glyph glyph-name="seveneighths" unicode="&#x215e;" horiz-adv-x="373" 
d="M180 465h-9l87 311h-85q-16 0 -21 -1q-8 -1 -12 -3q-4 -1 -6 -5q-1 -2 -5 -6h-7l20 71q1 4 7 4h136v-2zM275 3l-1 1q0 -40 -24 -66t-65 -26q-19 0 -35 6q-15 6 -30 17q-14 11 -21 27q-8 18 -8 36q0 38 18 60t42 39q-25 26 -35 50q-11 25 -11 57q0 37 26 60q25 22 57 22
t56 -18t24 -56q0 -32 -16 -51t-36 -33l1 -1q32 -33 44 -58q14 -28 14 -66zM155 239l-1 -1q0 -32 16 -54q13 -18 39 -49q5 12 7 30q1 11 1 47q0 40 -9 54t-20 14q-15 0 -24 -9t-9 -32zM183 -82v-3q20 0 28 14q7 13 7 36q0 37 -15 62q-16 27 -46 60l-3 3q-8 -14 -9 -37
q-2 -32 -2 -58q0 -37 9 -57t31 -20zM33 376h301v-8h-301v8z" />
    <glyph glyph-name="arrowleft" unicode="&#x2190;" horiz-adv-x="774" 
d="M37 361l-2 4q36 8 77 28t87 50q42 27 81 65q39 37 59 75l8 -3q-17 -87 -48 -138t-76 -79h503v-10h-503q46 -29 77 -79q32 -51 48 -138l-8 -3q-22 40 -58 75q-38 36 -81 66q-46 31 -87 50q-43 19 -77 27v10z" />
    <glyph glyph-name="arrowright" unicode="&#x2192;" horiz-adv-x="774" 
d="M45 361l503 -5q-45 28 -76 79q-32 51 -48 138l8 3q22 -40 58 -75q39 -38 81 -65q46 -30 87 -50t77 -28v-10q-34 -8 -77 -27q-46 -20 -87 -49q-43 -30 -81 -66q-36 -35 -58 -75l-8 3q16 87 48 138q31 51 76 79h-503v10z" />
    <glyph glyph-name="minus" unicode="&#x2212;" horiz-adv-x="297" 
d="M27 357h243v-12h-243v12z" />
    <glyph glyph-name="uni24C5" unicode="&#x24c5;" horiz-adv-x="452" 
d="M227 759v-2q41 0 78 -24t66 -72t45 -120q17 -74 17 -167q0 -92 -17 -166q-16 -71 -45 -121q-28 -49 -66 -73q-37 -24 -78 -24t-78 24t-66 74t-45 121q-17 74 -17 167t17 167q16 72 45 120t66 72t78 24zM227 -4l-4 -2q38 0 74 24t63 71q28 48 44 117q17 73 17 165
q0 97 -16 165q-17 72 -43 117q-27 47 -63 71t-73 24q-38 0 -74 -24t-63 -70q-28 -48 -44 -117q-16 -68 -16 -165q0 -92 17 -165q16 -69 44 -117q27 -46 63 -70t74 -24zM117 160l2 -3q6 1 12 5q4 3 6 11q2 10 2 23v42v256v42q0 12 -2 24q-1 9 -6 12q-6 4 -12 5v6h104
q25 0 52 -5q24 -4 41 -17q16 -12 27 -33q10 -20 10 -53q0 -32 -10 -55q-11 -25 -28 -39t-42 -22q-22 -7 -52 -7h-2v-111v-42q0 -13 2 -23q2 -8 6 -11q6 -4 12 -5v-6h-122v6zM220 573v-216q24 1 39 26q15 24 15 83q0 62 -15 84q-15 23 -37 23h-2z" />
    <glyph glyph-name="space_uni0326" horiz-adv-x="500" 
d="M290 -110v-2q-4 -5 -15 -13q-10 -7 -28 -7q-19 0 -35 14q-15 14 -15 36q0 25 17 39t36 14q26 0 45 -16q20 -17 20 -54q0 -38 -24 -62q-23 -23 -63 -28l-4 7q38 4 54 24q17 20 17 36q0 9 -5 12z" />
    <glyph glyph-name="A.alt" 
d="M301 137l-3 -1q3 -15 14 -58q8 -34 10 -39q5 -16 9 -23q5 -8 12 -11v-6h-169q-3 0 -3 3t3 3q5 1 13 5q6 3 9 12t3 25t-6 43l-24 129h-106l-18 -97q-8 -38 -9 -58q-1 -19 2 -33q3 -12 11 -17q9 -5 20 -8v-6h-71v6q8 6 12 15q6 11 8 22q1 4 3.5 15t4.5 18q4 20 9 48
l119 631h23zM165 228l-51 275l-52 -275h103z" />
    <glyph glyph-name="G.alt" horiz-adv-x="423" 
d="M236 -12l2 -4q-46 0 -84 25q-40 26 -68 75q-28 50 -45 123q-16 71 -16 171q0 97 20 171q19 70 50 118q30 46 68 69q37 22 75 22q17 0 26 -4q14 -6 20 -10t18 -10q8 -4 23 -4q7 0 12 6q4 6 9 20h6v-175h-6q-20 85 -45 126q-25 40 -63 40q-20 0 -36 -19q-16 -20 -27 -63
q-10 -41 -16 -112q-6 -69 -6 -166q0 -202 24 -298t62 -96q15 0 21 6q6 7 8 17q1 10 0 25q-1 10 -1 32v89q0 92 -1 121q-1 43 -6 64t-13 27q-9 6 -25 9v7h160v-377h-7q-1 6 -5 20q-3 11 -11 11t-20 -9q-10 -8 -28 -19q-14 -9 -36 -19q-19 -9 -39 -9z" />
    <glyph glyph-name="J.alt" horiz-adv-x="217" 
d="M-54 -156h-4q-34 0 -48 15q-14 16 -14 35q0 20 12 30q13 11 27 11q15 0 27 -9t21 -21t18 -21t19 -9q8 0 12 3l11 11q5 5 10 21q4 13 7 40q3 26 3 66v585q0 56 -1 74q-2 31 -4 41q-3 14 -9 18q-7 5 -17 8v6h185v-6q-10 -3 -17 -8q-6 -4 -9 -18q-2 -10 -4 -41
q-1 -18 -1 -74v-463q0 -58 -15 -102q-15 -45 -37 -75q-22 -31 -46 -52q-20 -17 -42 -34q-25 -19 -46 -25t-38 -6z" />
    <glyph glyph-name="J.alt1" horiz-adv-x="345" 
d="M178 602l-2 -2q0 56 -1 74q-2 31 -4 41q-3 13 -9 18q-7 5 -17 8v6h185v-6q-10 -3 -17 -8q-6 -5 -9 -18q-2 -10 -4 -41q-1 -18 -1 -74v-441q0 -43 -15 -76t-39 -54q-23 -20 -52 -31q-27 -10 -55 -10q-65 0 -102 26q-36 26 -36 60q0 20 15 33q14 13 35 13q23 0 36 -13
q14 -14 15 -37q4 -73 39 -73q6 0 12 3t12 12q5 8 10 27q4 16 4 48v515z" />
    <glyph glyph-name="K.alt" horiz-adv-x="427" 
d="M18 6l-3 -2q10 3 17 8q6 4 9 18q2 10 4 41q1 18 1 74v454q0 56 -1 74q-2 31 -4 41q-3 14 -9 18q-7 5 -17 8v6h186v-6q-10 -3 -17 -8q-6 -4 -9 -18q-2 -10 -4 -41q-1 -18 -1 -74v-189l146 248q22 38 15 57t-24 24v6h93v-6q-7 -3 -19 -11q-10 -7 -18 -16q-10 -12 -18 -25
q-9 -15 -21 -36l-143 -244q17 16 43 16q30 0 54 -12q25 -12 42 -37q19 -27 32 -67q14 -42 21 -103q7 -56 12 -93t9 -60q5 -23 9 -32q5 -9 12 -9q3 0 10 5q8 6 11 9l5 -4q-7 -13 -24 -22t-43 -9q-27 0 -48 8q-19 7 -33 26q-14 18 -21 46q-8 29 -12 69q-10 84 -15 140
q-5 54 -9 84q-5 32 -10 41q-6 11 -19 11q-16 0 -34 -22v-245q0 -56 1 -74q2 -31 4 -41q3 -14 9 -18q7 -5 17 -8v-6h-186v6z" />
    <glyph glyph-name="Q.alt" horiz-adv-x="440" 
d="M220 -12l-3 -4q-36 0 -71 26q-34 26 -63 75q-28 49 -45 122q-17 74 -17 167q0 95 17 169q16 70 44 120q27 48 63 72t72 24t72 -24t63 -72q28 -50 44 -120q17 -74 17 -169q0 -108 -21 -186q-20 -76 -56 -127l11 -15q9 -10 15 -18q8 -10 10 -12t4.5 -4t3.5 -3q2 -2 9 -4v-6
h-88q-4 0 -8 2q-3 2 -8 8q-31 -21 -65 -21zM279 137l-3 -2q2 60 2 102v126q1 190 -15 286q-17 96 -48 96q-33 0 -48 -94q-15 -95 -15 -279q0 -96 3 -168h69q5 0 7 -1q4 -2 8 -9zM214 -8l1 1q31 0 46 37l-94 132l-12 17q4 -91 18 -139q13 -48 41 -48z" />
    <glyph glyph-name="R.alt" horiz-adv-x="419" 
d="M18 6l2 2q10 3 17 8q6 4 9 18q2 10 4 41q1 18 1 74v454q0 56 -1 74q-2 31 -4 41q-3 14 -9 18q-7 5 -17 8v6h156q35 0 71 -6t66 -24t48 -54t18 -97q0 -53 -21 -96q-21 -44 -61 -69l84 -323q7 -25 12 -39t9 -21t9 -10t12 -6v-6h-147l-95 371h-6v-223q0 -56 1 -74
q1 -25 5 -41q3 -14 9 -18q7 -5 17 -8v-6h-189v6zM176 381h-1q28 0 46 15q17 14 28 41q10 25 15 62q4 32 4 79q0 51 -6 84t-18 51t-29 24t-39 6v-362z" />
    <glyph glyph-name="W.alt" horiz-adv-x="559" 
d="M46 623l-1 -2q-7 29 -12 48t-9 33q-5 16 -10 23q-7 10 -15 17v7h176v-7q-23 -8 -24 -24t9 -58l98 -443l33 148l-57 256q-8 29 -12 48t-9 33t-12 23t-18 15v7h173v-7q-21 -6 -21 -22t9 -60l84 -437l73 399l7 42q3 20 0 35q-3 16 -12 26q-9 11 -28 18v7h92v-7q-5 -3 -13 -9
q-6 -4 -12 -17q-6 -12 -12 -33q-6 -20 -12 -59l-115 -628h-22l-78 348l-79 -348h-22z" />
    <glyph glyph-name="s.alt" horiz-adv-x="276" 
d="M148 -4l-5 1q-61 0 -96 27q-34 27 -34 62q0 16 9 27q9 10 26 10q23 0 32 -15t12 -36q4 -29 14 -49q9 -18 38 -18q22 0 36 17t14 42q0 27 -18 59q-19 34 -61 77q-24 20 -46 44q-19 20 -29 38q-11 18 -15 37q-4 17 -4 42q0 23 9 44t24 36t36 24t44 9q24 0 46 -6
q24 -6 39 -16q17 -11 26 -24q9 -14 9 -32q0 -12 -9 -21t-24 -9q-23 0 -33 13t-12 33q-5 33 -13 44q-9 12 -29 12q-29 0 -42 -13q-14 -14 -14 -37q0 -12 5 -24q5 -10 15 -24t27 -30l39 -39q30 -27 49 -49q20 -23 30 -43q11 -21 15 -42q4 -19 4 -45q0 -28 -12 -52t-28 -40
t-36 -25t-38 -9z" />
    <glyph glyph-name="t.alt" horiz-adv-x="228" 
d="M14 6h1q6 1 12 5q5 3 8 12t3 24v42v366h-27v9q19 3 38 15q19 11 36 32q16 19 30 47q13 27 21 63h10v-156h77v-10h-77v-366v-41q0 -14 5 -24q5 -9 12 -12t21 -6v-6h-170v6z" />
    <glyph glyph-name="w.alt" horiz-adv-x="444" 
d="M36 355l-2 -1q-9 34 -12 54q-1 7 -3 17t-2 13q-2 11 -3 14t-8 6v6h143v-6q-10 -3 -14 -6t-6 -14q-1 -9 2 -30q2 -11 11 -52l43 -176l68 292h16l81 -301l35 163q9 42 12 66q3 25 -1 36t-15 16q-9 4 -25 7v6h89v-6q-11 -3 -16 -7q-6 -4 -10 -16q-2 -6 -10 -35
q-5 -20 -15 -65l-72 -341h-23l-83 279l-65 -279h-23z" />
    <glyph glyph-name="Aacute.alt" 
d="M301 137l-3 -1q3 -15 14 -58q8 -34 10 -39q5 -16 9 -23q5 -8 12 -11v-6h-169q-3 0 -3 3t3 3q5 1 13 5q6 3 9 12t3 25t-6 43l-24 129h-106l-18 -97q-8 -38 -9 -58q-1 -19 2 -33q3 -12 11 -17q9 -5 20 -8v-6h-71v6q8 6 12 15q6 11 8 22q1 4 3.5 15t4.5 18q4 20 9 48
l119 631h23zM165 228l-51 275l-52 -275h103zM84 787l95 75q13 10 24 15q12 5 24 5q17 0 26 -10t9 -24q0 -35 -50 -47l-125 -21z" />
    <glyph glyph-name="Abreve.alt" 
d="M301 137l-3 -1q3 -15 14 -58q8 -34 10 -39q5 -16 9 -23q5 -8 12 -11v-6h-169q-3 0 -3 3t3 3q5 1 13 5q6 3 9 12t3 25t-6 43l-24 129h-106l-18 -97q-8 -38 -9 -58q-1 -19 2 -33q3 -12 11 -17q9 -5 20 -8v-6h-71v6q8 6 12 15q6 11 8 22q1 4 3.5 15t4.5 18q4 20 9 48
l119 631h23zM165 228l-51 275l-52 -275h103zM160 846q26 0 42 9q17 9 29 30h8q-2 -57 -22 -80q-21 -24 -56 -24t-57 24t-24 81h8q21 -40 72 -40z" />
    <glyph glyph-name="Acircumflex.alt" 
d="M301 137l-3 -1q3 -15 14 -58q8 -34 10 -39q5 -16 9 -23q5 -8 12 -11v-6h-169q-3 0 -3 3t3 3q5 1 13 5q6 3 9 12t3 25t-6 43l-24 129h-106l-18 -97q-8 -38 -9 -58q-1 -19 2 -33q3 -12 11 -17q9 -5 20 -8v-6h-71v6q8 6 12 15q6 11 8 22q1 4 3.5 15t4.5 18q4 20 9 48
l119 631h23zM165 228l-51 275l-52 -275h103zM159 897l114 -113l-3 -6l-111 38l-111 -38l-2 6z" />
    <glyph glyph-name="Adieresis.alt" 
d="M301 137l-3 -1q3 -15 14 -58q8 -34 10 -39q5 -16 9 -23q5 -8 12 -11v-6h-169q-3 0 -3 3t3 3q5 1 13 5q6 3 9 12t3 25t-6 43l-24 129h-106l-18 -97q-8 -38 -9 -58q-1 -19 2 -33q3 -12 11 -17q9 -5 20 -8v-6h-71v6q8 6 12 15q6 11 8 22q1 4 3.5 15t4.5 18q4 20 9 48
l119 631h23zM165 228l-51 275l-52 -275h103zM227 783v-2q-23 0 -38 17q-15 16 -15 39t15 38t38 15t38 -15t15 -37t-15 -39q-15 -16 -38 -16zM95 781v-2q-23 0 -38 17q-15 16 -15 39t15 38t38 15t38 -15t15 -37t-15 -39q-15 -16 -38 -16z" />
    <glyph glyph-name="Agrave.alt" 
d="M301 137l-3 -1q3 -15 14 -58q8 -34 10 -39q5 -16 9 -23q5 -8 12 -11v-6h-169q-3 0 -3 3t3 3q5 1 13 5q6 3 9 12t3 25t-6 43l-24 129h-106l-18 -97q-8 -38 -9 -58q-1 -19 2 -33q3 -12 11 -17q9 -5 20 -8v-6h-71v6q8 6 12 15q6 11 8 22q1 4 3.5 15t4.5 18q4 20 9 48
l119 631h23zM165 228l-51 275l-52 -275h103zM110 799h1q-50 12 -50 47q0 14 9 24q9 11 26 11q12 0 24 -5q10 -4 24 -15l94 -76l-3 -7z" />
    <glyph glyph-name="Amacron.alt" 
d="M301 137l-3 -1q3 -15 14 -58q8 -34 10 -39q5 -16 9 -23q5 -8 12 -11v-6h-169q-3 0 -3 3t3 3q5 1 13 5q6 3 9 12t3 25t-6 43l-24 129h-106l-18 -97q-8 -38 -9 -58q-1 -19 2 -33q3 -12 11 -17q9 -5 20 -8v-6h-71v6q8 6 12 15q6 11 8 22q1 4 3.5 15t4.5 18q4 20 9 48
l119 631h23zM165 228l-51 275l-52 -275h103zM248 794h-174v47h174v-47z" />
    <glyph glyph-name="Aogonek.alt" horiz-adv-x="341" 
d="M-2 6l-4 -1q16 10 22 36q3 15 16 81l120 631h23l124 -618q8 -38 12 -58q5 -24 9 -39q5 -16 9 -23q5 -8 12 -11v-6h-100q-30 0 -45 -25t-15 -70q0 -22 11 -36q10 -13 29 -13q13 0 21 5t15 12l5 -5l-12 -12q-8 -8 -19 -15q-12 -8 -28 -12q-18 -5 -37 -5q-34 0 -57 18
q-22 18 -22 47q0 25 13 42q14 19 33 32q21 14 41 23q10 4 38 17l-42 223l-54 -5l-53 3l-19 -100q-8 -38 -9 -58q-1 -19 2 -33q3 -12 11 -17q9 -5 20 -8v-6h-70v6zM167 227l-53 281l-54 -286l73 6z" />
    <glyph glyph-name="Aring.alt" 
d="M301 137l-3 -1q3 -15 14 -58q8 -34 10 -39q5 -16 9 -23q5 -8 12 -11v-6h-169q-3 0 -3 3t3 3q5 1 13 5q6 3 9 12t3 25t-6 43l-24 129h-106l-18 -97q-8 -38 -9 -58q-1 -19 2 -33q3 -12 11 -17q9 -5 20 -8v-6h-71v6q8 6 12 15q6 11 8 22q1 4 3.5 15t4.5 18q4 20 9 48
l119 631h23zM165 228l-51 275l-52 -275h103zM81 841v-2q0 28 23 48t59 20q37 0 60 -20q22 -19 22 -48q0 -30 -22 -49t-60 -19t-60 19t-22 51zM129 839q0 -60 33 -60q34 0 34 60q0 29 -9 44t-25 15q-15 0 -24 -15t-9 -44z" />
    </font>
</defs>
</svg>
