<?xml version="1.0" standalone="no"?>
<!DOCTYPE svg PUBLIC "-//W3C//DTD SVG 1.1//EN" "http://www.w3.org/Graphics/SVG/1.1/DTD/svg11.dtd" >
<svg xmlns="http://www.w3.org/2000/svg" xmlns:xlink="http://www.w3.org/1999/xlink" version="1.1">
<metadata>
Created by FontForge 20170731 at Tue Sep  4 00:53:58 2018
 By Aleksey,,,
Copyright (c) 2018 Commercial Type, Inc.. All rights reserved.
</metadata>
<defs>
<font id="SchnyderXCondLLight" horiz-adv-x="172" >
  <font-face 
    font-family="Schnyder X Cond L Light"
    font-weight="300"
    font-stretch="extra-condensed"
    units-per-em="1000"
    panose-1="0 0 0 0 0 0 0 0 0 0"
    ascent="800"
    descent="-200"
    x-height="464"
    cap-height="749"
    bbox="-97 -295 930 1020"
    underline-thickness="13"
    underline-position="-104"
    unicode-range="U+000D-FB04"
  />
<missing-glyph horiz-adv-x="164" 
 />
    <glyph glyph-name="f_f" unicode="ff" horiz-adv-x="373" 
d="M206 6l-1 -2q10 3 14 6t7 12t3 24v41v366h-102v-366q0 -31 1 -41q1 -13 5 -24q3 -9 11 -12t21 -6v-6h-137v6q10 3 14 6t7 12t3 24v41v366h-49v7q12 1 23 5q9 3 15 9t9 18t3 32v68q0 43 14 76q13 31 35 51q21 19 45 27q26 8 45 8q32 0 53 -9q22 -9 29 -22q19 20 39 29
q21 9 39 9q31 0 51 -13q21 -14 21 -33q0 -12 -7 -20q-7 -9 -21 -9q-16 0 -24 8t-9 21q-4 20 -8 30q-3 7 -12 7q-7 0 -15 -6q-7 -6 -12 -20q-5 -16 -8 -38q-3 -24 -3 -61v-162h77v-10h-77v-366q0 -31 1 -41q1 -13 5 -24q3 -9 11 -12t21 -6v-6h-137v6zM229 464l-2 115
q0 31 5 59q4 24 14 45q-13 1 -19 9q-7 8 -8 20q-3 19 -9 26q-6 8 -22 8q-13 0 -25 -6t-19 -19q-8 -14 -12 -37q-5 -27 -5 -61v-159h102z" />
    <glyph glyph-name="f_i" unicode="fi" horiz-adv-x="353" 
d="M29 6l-1 -3q10 3 14 6t7 12t3 24v41v366h-49v7q29 5 39 15q11 11 11 42v64q0 50 12 85q12 34 30 55t39 30t41 9q31 0 51 -13q21 -14 21 -33q0 -12 -7 -20q-8 -9 -21 -9q-16 0 -24 8q-7 7 -10 21q-5 25 -7 30q-3 7 -12 7q-8 0 -15 -6t-12 -20q-5 -16 -8 -38q-3 -24 -3 -61
v-162h73l104 10v-386v-41q0 -15 3 -24t9 -12q7 -3 16 -6v-6h-130v6q9 3 16 6q6 3 9 12t3 24v41v275q0 37 -1 49q-2 20 -4 27q-3 9 -9 12q-8 4 -16 5h-73v-366q0 -31 1 -41q1 -13 5 -24q3 -9 11 -12q7 -3 21 -6v-6h-137v6zM265 550q-20 0 -33 13t-13 33t13 33t33 13t33 -13
t13 -33t-13 -33t-33 -13z" />
    <glyph glyph-name="f_l" unicode="fl" horiz-adv-x="353" 
d="M29 6q10 3 14 6t7 12t3 24v41v366h-49v7q28 4 39 15t11 42v56q0 53 13 88q13 36 33 57t42 30t42 9q32 0 48 -12q17 -12 17 -28q0 -11 -4 -19q-5 -9 -18 -9q-16 0 -22 8q-6 7 -9 21q-5 19 -9 23q-5 5 -9 5q-9 0 -18 -6q-8 -6 -16 -21t-12 -40q-4 -23 -4 -63v-153h53v-10
h-53v-366q0 -31 1 -41q1 -13 5 -24q3 -9 11 -12q7 -3 21 -6v-6h-137v6zM203 6h-3q9 3 16 6q6 3 9 12t3 24v41v558q0 27 -1 35q-2 14 -4 17q-3 5 -9 6q-4 1 -17 1v6l108 62v-685v-41q0 -15 3 -24t9 -12q7 -3 16 -6v-6h-130v6z" />
    <glyph glyph-name="f_f_i" unicode="ffi" horiz-adv-x="530" 
d="M29 6l-2 -4q10 3 14 6t7 12t3 24v41v366h-49v7q12 1 23 5q9 3 15 9t9 18t3 32v68q0 43 14 76q13 31 35 51q21 19 45 27q26 8 45 8q32 0 53 -9q22 -9 29 -22q19 20 39 29q21 9 39 9q31 0 51 -13q21 -14 21 -33q0 -12 -7 -20q-8 -9 -21 -9q-16 0 -24 8q-7 8 -9 21
q-4 20 -8 30q-3 7 -12 7q-8 0 -15 -6t-12 -20q-5 -16 -8 -38q-3 -24 -3 -61v-162h73l105 10v-386v-41q0 -15 3 -24t9 -12q7 -3 16 -6v-6h-129v6q9 3 15 6t9 12t3 24v41v275q0 37 -1 49q-2 20 -4 27q-3 9 -9 12q-8 4 -16 5h-73v-366q0 -31 1 -41q1 -13 5 -24q3 -9 11 -12
t21 -6v-6h-137v6q10 3 14 6t7 12t3 24v41v366h-102v-366q0 -31 1 -41q1 -13 5 -24q3 -9 11 -12q7 -3 21 -6v-6h-137v6zM228 462l-2 115q0 31 5 59q4 24 14 45q-13 1 -19 9q-7 8 -8 20q-3 19 -9 26q-6 8 -22 8q-13 0 -25 -6t-19 -19q-8 -14 -12 -37q-5 -27 -5 -61v-159h102z
M439 549q-20 0 -33 13t-13 33t13 33t33 13t33 -13t13 -33t-13 -33t-33 -13z" />
    <glyph glyph-name="f_f_l" unicode="ffl" horiz-adv-x="530" 
d="M206 6l-3 -1q10 3 14 6t7 12t3 24v41v366h-102v-366q0 -31 1 -41q1 -13 5 -24q3 -9 11 -12t21 -6v-6h-137v6q10 3 14 6t7 12t3 24v41v366h-49v7q12 1 23 5q9 3 15 9t9 18t3 32v68q0 43 14 76q14 32 34 51q21 20 45 27q26 8 45 8q36 0 59 -10q25 -11 29 -25q19 21 42 30
t42 9q31 0 48 -12t17 -28q0 -11 -4 -19q-4 -9 -18 -9q-16 0 -22 8q-7 8 -8 21q-5 19 -9 23q-5 5 -10 5q-9 0 -18 -6q-8 -6 -16 -21t-12 -40q-4 -23 -4 -63v-153h53v-10h-53v-366q0 -31 1 -41q1 -13 5 -24q3 -9 11 -12t21 -6v-6h-137v6zM227 465l-4 110q0 35 6 62q6 26 17 47
h-1q-13 0 -21 8t-9 21q-3 19 -9 26q-6 8 -23 8q-13 0 -24 -6t-18 -19q-8 -14 -12 -37q-4 -21 -4 -61v-159h102zM373 6h-3q9 3 16 6q6 3 9 12t3 24v41v558q0 27 -1 35q-2 14 -4 17q-3 5 -9 6q-4 1 -17 1v6l108 62v-685v-41q0 -15 3 -24t9 -12q7 -3 16 -6v-6h-130v6z" />
    <glyph glyph-name="f_b" unicode="fb" horiz-adv-x="554" 
d="M29 6q10 3 14 6t7 12t3 24v41v366h-49v7q28 4 39 15t11 42v56q0 53 13 88q13 36 33 57t42 30t42 9q32 0 48 -12q17 -12 17 -28q0 -11 -4 -19q-5 -9 -18 -9q-16 0 -22 8q-6 7 -9 21q-5 19 -9 23q-5 5 -9 5q-9 0 -18 -6q-8 -6 -16 -21t-12 -40q-4 -23 -4 -63v-153h53v-10
h-53v-366q0 -31 1 -41q1 -13 5 -24q3 -9 11 -12q7 -3 21 -6v-6h-137v6zM360 -5h-1q-19 0 -33 6q-9 4 -25 14l-10.5 7t-11.5 7q-11 6 -22 6t-15 -6t-6 -11h-6v630q0 29 -1 38q-2 15 -4 20q-3 7 -9 8q-8 2 -16 2v6l107 52v-367q29 34 50 52q18 15 38 15q23 0 47 -12
q25 -12 44 -39q20 -28 32 -69q12 -42 12 -100q0 -67 -13 -113q-13 -48 -36 -81q-22 -32 -54 -49q-31 -16 -67 -16zM321 26l1 -3q4 -9 14 -15q9 -6 24 -6q44 0 66 63q23 64 23 171q0 108 -18 166t-46 58q-7 0 -15 -3t-16 -10q-6 -5 -21 -20q-14 -14 -29 -33v-299q0 -30 5 -45
q5 -14 12 -24z" />
    <glyph glyph-name="f_f_b" unicode="ffb" horiz-adv-x="731" 
d="M206 6v-2q10 3 14 6t7 12t3 24v41v366h-102v-366q0 -31 1 -41q1 -13 5 -24q3 -9 11 -12q7 -3 21 -6v-6h-137v6q10 3 14 6t7 12t3 24v41v366h-49v7q12 1 23 5q9 3 15 9t9 18t3 32v68q0 43 14 76q13 31 35 51q20 19 45 28q24 9 45 9q36 0 57 -10q22 -10 27 -27q19 22 42 31
t42 9q31 0 48 -12t17 -28q0 -11 -4 -19q-4 -9 -18 -9q-16 0 -22 8q-7 8 -8 21q-5 19 -9 23q-5 5 -10 5q-9 0 -18 -6q-8 -6 -16 -21t-12 -40q-4 -23 -4 -63v-153h53v-10h-53v-366q0 -31 1 -41q1 -13 5 -24q3 -9 11 -12t21 -6v-6h-137v6zM230 464l-3 108q0 35 6 62q6 26 17 47
h-2q-13 0 -21 8q-7 7 -9 20q-3 18 -8 27q-5 8 -21 8q-12 0 -25 -5q-11 -4 -19 -18t-12 -37q-5 -27 -5 -61v-159h102zM534 -8h-1q-19 0 -33 6q-9 4 -25 14l-10.5 7t-11.5 7q-11 6 -22 6t-15 -6t-6 -11h-6v630q0 29 -1 38q-2 15 -4 20q-3 7 -9 8q-8 2 -16 2v6l107 52v-367
q29 34 50 52q18 15 38 15q23 0 47 -12q25 -12 44 -39q20 -28 32 -69q12 -42 12 -100q0 -67 -13 -113q-13 -48 -36 -81q-22 -32 -54 -49q-31 -16 -67 -16zM495 23l1 -3q4 -8 14 -15q9 -6 24 -6q44 0 66 63q23 64 23 171t-18 166q-18 58 -46 58q-7 0 -15 -3t-16 -10
q-6 -5 -21 -20q-14 -14 -29 -33v-299q0 -30 5 -45q5 -13 12 -24z" />
    <glyph glyph-name="f_f_h" unicode="ffh" horiz-adv-x="736" 
d="M206 6v-2q10 3 14 6t7 12t3 24v41v366h-102v-366q0 -31 1 -41q1 -13 5 -24q3 -9 11 -12q7 -3 21 -6v-6h-137v6q10 3 14 6t7 12t3 24v41v366h-49v7q12 1 23 5q9 3 15 9t9 18t3 32v68q0 43 14 76q13 31 35 51q20 19 45 28q24 9 45 9q36 0 57 -10q22 -10 27 -27q19 22 42 31
t42 9q31 0 48 -12t17 -28q0 -11 -4 -19q-4 -9 -18 -9q-16 0 -22 8q-7 8 -8 21q-5 19 -9 23q-5 5 -10 5q-9 0 -18 -6q-8 -6 -16 -21t-12 -40q-4 -23 -4 -63v-153h53v-10h-53v-366q0 -31 1 -41q1 -13 5 -24q3 -9 11 -12t21 -6v-6h-137v6zM230 464l-3 108q0 35 6 62q6 26 17 47
h-2q-13 0 -21 8q-7 7 -9 20q-3 18 -8 27q-5 8 -21 8q-12 0 -25 -5q-11 -4 -19 -18t-12 -37q-5 -27 -5 -61v-159h102zM380 3l1 -3q10 3 14 6t7 12t3 24v41v549q0 30 -1 39q-2 15 -4 20q-3 6 -10 7q-5 1 -18 1v6l109 62v-379q26 28 42 41q18 15 33 24t27 12t23 3q12 0 24 -4
q14 -4 27 -15q12 -10 22 -29q9 -18 9 -46v-289v-41q0 -12 2 -24q2 -9 6 -12t14 -6v-6h-127v6q9 3 16 6q6 3 9 12t3 24v41v302q0 35 -9 50t-25 15q-5 0 -10 -1q-7 -1 -19 -9q-15 -10 -29 -22q-23 -21 -41 -40v-294v-41q0 -15 3 -24t9 -12q7 -3 16 -6v-6h-126v6z" />
    <glyph glyph-name="f_f_j" unicode="ffj" horiz-adv-x="533" 
d="M206 6l1 -4q10 3 14 6t7 12t3 24v41v366h-102v-366q0 -31 1 -41q1 -13 5 -24q3 -9 11 -12t21 -6v-6h-137v6q10 3 14 6t7 12t3 24v41v366h-49v7q12 1 23 5q9 3 15 9t9 18t3 32v68q0 43 14 76q13 31 35 51q21 19 45 27q26 8 45 8q32 0 53 -9q22 -9 29 -22q19 20 39 29
q21 9 39 9q31 0 51 -13q21 -14 21 -33q0 -12 -7 -20q-7 -9 -21 -9q-16 0 -24 8t-9 21q-4 20 -8 30q-3 7 -12 7q-7 0 -15 -6q-7 -6 -12 -20q-5 -16 -8 -38q-3 -24 -3 -61v-162h73l105 10v-437q0 -32 -6 -54q-7 -25 -16 -41q-10 -17 -24 -31q-15 -15 -28 -24q-25 -16 -42 -21
q-18 -5 -33 -5t-28 8q-12 8 -12 24q0 14 10 21q11 8 22 8q12 0 20 -5q5 -3 15 -11t14 -11q7 -5 14 -5t12 3l3 6q2 6 2 18v36v62v369q0 27 -1 36q-2 15 -4 21q-3 7 -9 10q-8 4 -16 5h-73v-366q0 -31 1 -41q1 -13 5 -24q3 -9 11 -12t21 -6v-6h-137v6zM231 462l-2 115
q0 31 5 59q4 24 14 45q-13 1 -19 9q-7 8 -8 20q-3 19 -9 26q-6 8 -22 8q-13 0 -25 -6t-19 -19q-8 -14 -12 -37q-5 -27 -5 -61v-159h102zM442 549q-20 0 -33 13t-13 33t13 33t33 13t33 -13t13 -33t-13 -33t-33 -13z" />
    <glyph glyph-name="f_f_k" unicode="ffk" horiz-adv-x="696" 
d="M206 6v-2q10 3 14 6t7 12t3 24v41v366h-102v-366q0 -31 1 -41q1 -13 5 -24q3 -9 11 -12q7 -3 21 -6v-6h-137v6q10 3 14 6t7 12t3 24v41v366h-49v7q12 1 23 5q9 3 15 9t9 18t3 32v68q0 43 14 76q13 31 35 51q20 19 45 28q24 9 45 9q36 0 57 -10q22 -10 27 -27q19 22 42 31
t42 9q31 0 48 -12t17 -28q0 -11 -4 -19q-4 -9 -18 -9q-16 0 -22 8q-7 8 -8 21q-5 19 -9 23q-5 5 -10 5q-9 0 -18 -6q-8 -6 -16 -21t-12 -40q-4 -23 -4 -63v-153h53v-10h-53v-366q0 -31 1 -41q1 -13 5 -24q3 -9 11 -12t21 -6v-6h-137v6zM230 464l-3 108q0 35 6 62q6 26 17 47
h-2q-13 0 -21 8q-7 7 -9 20q-3 18 -8 27q-5 8 -21 8q-12 0 -25 -5q-11 -4 -19 -18t-12 -37q-5 -27 -5 -61v-159h102zM380 3h-3q10 3 14 6t7 12t3 24v41v557q0 27 -1 35q-2 14 -4 17q-3 5 -9 6q-4 1 -16 1v7l107 62v-685v-41q0 -15 3 -24t9 -12q7 -3 16 -6v-6h-126v6zM559 3
l-1 -1q11 4 19 15t-6 38l-90 184v5l123 154q19 25 12 40q-8 15 -27 18v6h93v-6q-11 -5 -31 -20q-17 -13 -43 -45l-76 -94l122 -249q11 -23 20 -33q8 -9 15 -12v-6h-130v6z" />
    <glyph glyph-name="f_h" unicode="fh" horiz-adv-x="559" 
d="M29 6q10 3 14 6t7 12t3 24v41v366h-49v7q28 4 39 15t11 42v56q0 53 13 88q13 36 33 57t42 30t42 9q32 0 48 -12q17 -12 17 -28q0 -11 -4 -19q-5 -9 -18 -9q-16 0 -22 8q-6 7 -9 21q-5 19 -9 23q-5 5 -9 5q-9 0 -18 -6q-8 -6 -16 -21t-12 -40q-4 -23 -4 -63v-153h53v-10
h-53v-366q0 -31 1 -41q1 -13 5 -24q3 -9 11 -12q7 -3 21 -6v-6h-137v6zM206 6l1 -3q10 3 14 6t7 12t3 24v41v549q0 30 -1 39q-2 15 -4 20q-3 6 -10 7q-5 1 -18 1v6l109 62v-379q26 28 42 41q18 15 33 24t27 12t23 3q12 0 24 -4q14 -5 27 -15q12 -10 22 -29q9 -18 9 -46v-289
v-41q0 -12 2 -24q2 -9 6 -12t14 -6v-6h-127v6q9 3 16 6q6 3 9 12t3 24v41v302q0 35 -9 50t-25 15q-5 0 -10 -1q-7 -1 -19 -9q-15 -10 -29 -22q-23 -21 -41 -40v-294v-41q0 -15 3 -24t9 -12q7 -3 16 -6v-6h-126v6z" />
    <glyph glyph-name="f_j" unicode="fj" horiz-adv-x="356" 
d="M29 6l2 -3q10 3 14 6t7 12t3 24v41v366h-49v7q28 5 39 15q11 11 11 42v64q0 50 12 85q12 34 30 55t39 30t41 9q31 0 51 -13q21 -14 21 -33q0 -12 -7 -20q-7 -9 -21 -9q-16 0 -24 8q-7 7 -10 21q-5 25 -7 30q-3 7 -12 7q-7 0 -15 -6q-7 -6 -12 -20q-5 -16 -8 -38
q-3 -24 -3 -61v-162h73l104 10v-437q0 -32 -6 -54q-7 -25 -16 -41q-10 -17 -24 -31q-15 -15 -28 -24q-26 -16 -42 -21q-18 -5 -33 -5t-28 8q-12 8 -12 24q0 14 9 21q10 8 23 8q12 0 20 -5q5 -3 15 -11t14 -11q7 -5 14 -5q8 0 12 3q2 2 3 6q2 6 2 18v36v62v369q0 27 -1 36
q-2 15 -4 21q-3 7 -9 10q-8 4 -16 5h-73v-366q0 -31 1 -41q1 -13 5 -24q3 -9 11 -12q7 -3 21 -6v-6h-137v6zM268 550q-20 0 -33 13t-13 33t13 33t33 13t33 -13t13 -33t-13 -33t-33 -13z" />
    <glyph glyph-name="f_k" unicode="fk" horiz-adv-x="519" 
d="M29 6q10 3 14 6t7 12t3 24v41v366h-49v7q28 4 39 15t11 42v56q0 53 13 88q13 36 33 57t42 30t42 9q32 0 48 -12q17 -12 17 -28q0 -11 -4 -19q-5 -9 -18 -9q-16 0 -22 8q-6 7 -9 21q-5 19 -9 23q-5 5 -9 5q-9 0 -18 -6q-8 -6 -16 -21t-12 -40q-4 -23 -4 -63v-153h53v-10
h-53v-366q0 -31 1 -41q1 -13 5 -24q3 -9 11 -12q7 -3 21 -6v-6h-137v6zM206 6h-3q10 3 14 6t7 12t3 24v41v557q0 27 -1 35q-2 14 -4 17q-3 4 -9 6q-4 1 -16 1v7l107 62v-685v-41q0 -15 3 -24t9 -12q7 -3 16 -6v-6h-126v6zM385 6l-1 -1q11 4 19 15t-6 38l-90 184v5l123 154
q19 25 12 40q-8 15 -27 18v6h93v-6q-11 -5 -31 -20q-17 -13 -43 -45l-76 -94l122 -249q11 -23 20 -33q8 -9 15 -12v-6h-130v6z" />
    <glyph glyph-name="g_j" unicode="gj" horiz-adv-x="512" 
d="M422 553q-20 0 -33 13t-13 33t13 33t33 13t33 -13t13 -33t-13 -33t-33 -13zM316 -137l1 2q-12 0 -22 5q-9 4 -9 12q0 3 3 9q2 4 8 12t9 11q5 5 6 5q8 0 15 -4q10 -6 14 -10t14 -10q7 -4 15 -4q6 0 13 4q1 1 3 6q2 6 2 18v36v62v316q0 27 -1 36q-2 15 -4 21q-3 7 -9 10
q-8 4 -16 5v7l105 65v-437q0 -31 -6 -55q-6 -25 -16 -42t-24 -31q-15 -15 -28 -24q-24 -16 -42 -21q-16 -4 -31 -4zM156 163l-4 -7q-14 0 -29 3q-13 3 -30 11l-3 -2q-27 -20 -27 -39q0 -6 1 -9q2 -4 6 -9q4 -4 14 -9q4 -2 26 -10l113 -31q55 -15 77 -42q23 -28 23 -64
q0 -33 -13 -58q-14 -25 -36 -42q-23 -17 -52 -24q-32 -8 -61 -8q-33 0 -60 7q-29 8 -51 21q-23 14 -36 31t-13 39q0 17 9 32t22 28q14 13 30 24l33 21q-37 13 -51 32t-14 43q0 29 18 45q21 19 37 29l3 2q-26 16 -46 48q-19 31 -19 87q0 45 13 75q14 31 33 51q19 19 42 28
q22 9 44 9q17 0 32 -4q17 -5 33 -15q28 20 45 27q18 8 30 8q26 0 26 -28q0 -12 -7 -18q-8 -6 -18 -6t-22 9t-25 9q-9 0 -13 -1t-10 -3q26 -19 44 -51q18 -33 18 -86q0 -44 -13 -73q-13 -30 -33 -48q-19 -17 -42 -25q-21 -7 -44 -7zM152 165l-1 -1q23 0 42 33q19 32 19 110
q0 77 -18 114q-18 38 -41 38q-24 0 -42 -37q-18 -38 -18 -114q0 -77 18 -110t41 -33zM44 -79l-2 2q0 -37 30 -63q31 -26 84 -26q58 0 93 26q34 25 34 66q0 26 -15 39t-54 24l-106 29l-7 2q-33 -21 -45 -42t-12 -57z" />
    <glyph glyph-name=".notdef" horiz-adv-x="164" 
 />
    <glyph glyph-name=".null" horiz-adv-x="0" 
 />
    <glyph glyph-name="nonmarkingreturn" unicode="&#xd;" horiz-adv-x="164" 
 />
    <glyph glyph-name="NULL" horiz-adv-x="0" 
 />
    <glyph glyph-name="NULL" horiz-adv-x="0" 
 />
    <glyph glyph-name="space" unicode=" " horiz-adv-x="164" 
 />
    <glyph glyph-name="exclam" unicode="!" 
d="M81 191v-3q-3 113 -10 188q-8 86 -15 149q-5 41 -14 108q-6 44 -6 64q0 28 14 44q14 15 36 15t36 -15q14 -16 14 -43q0 -20 -6 -64q-3 -20 -13 -108q-8 -66 -15 -148q-7 -76 -10 -187h-11zM87 -13l-1 -2q-18 0 -34 14q-15 13 -15 35t15 35q16 14 35 14q21 0 35 -14
t14 -35q0 -20 -14 -34q-13 -13 -35 -13z" />
    <glyph glyph-name="quotedbl" unicode="&#x22;" horiz-adv-x="228" 
d="M159 572l-3 -2q-1 9 -8 40q-3 14 -9 40q-3 13 -9 37q-4 16 -4 32q0 20 9 32t26 12t26 -12t9 -31q0 -13 -3 -31q-1 -8 -8 -37q-6 -26 -9 -40q-7 -31 -8 -40h-9zM57 570l-1 -2q-1 9 -8 40q-3 14 -9 40q-3 13 -9 37q-4 16 -4 32q0 20 9 32t26 12t26 -12t9 -31q0 -15 -4 -31
q-6 -24 -9 -37q-6 -26 -9 -40q-7 -31 -8 -40h-9z" />
    <glyph glyph-name="numbersign" unicode="#" horiz-adv-x="259" 
d="M4 280h56l32 240h-54v12h56l29 218h14l-29 -218h68l29 218h15l-29 -218h60v-12h-62l-32 -240h60v-12h-61l-36 -267h-15l36 267h-68l-36 -267h-14l36 267h-55v12zM142 280l32 240h-68l-32 -240h68z" />
    <glyph glyph-name="dollar" unicode="$" horiz-adv-x="316" 
d="M145 815l-7 -61q3 1 9 1h8h11v58h12v-60q22 -3 38 -10q20 -8 32 -19t22 -27q9 -15 9 -33q0 -14 -6 -24t-20 -10q-31 0 -33 36q-1 34 -8 54q-6 19 -30 23v-303l10 -17q12 -20 40 -69q16 -28 31 -63q13 -31 21 -63q7 -29 7 -66q0 -34 -9 -63q-9 -28 -24 -49t-34 -34
q-18 -13 -42 -19v-73h-12v71q-3 -1 -9 -1h-9h-7v-69h-13v70q-21 3 -42 11q-19 7 -35 20q-15 12 -24 27t-9 33t9 27t23 9q34 0 37 -37q1 -41 8 -61q6 -17 33 -22v374l-2 3q-7 12 -20.5 33.5t-19.5 31.5q-17 27 -30 56q-10 24 -19 56q-7 27 -7 63q0 56 28 90q29 35 70 45v61
h13zM145 0h1h9q3 0 9 2v304q-4 7 -12 23q-4 8 -14 24v-353h7zM223 118l1 -1q0 44 -12 83q-13 43 -34 83v-276q45 23 45 111zM156 745l-1 -1h-8q-4 0 -7 -1v-238l27 -45v285h-11zM89 655v1q0 -35 10 -64q11 -30 27 -63v210q-19 -10 -28 -33q-9 -22 -9 -51z" />
    <glyph glyph-name="percent" unicode="%" horiz-adv-x="482" 
d="M90 0l291 757l11 -6l-290 -758zM129 379h-1q-22 0 -42 15q-19 15 -34 40q-15 26 -24 60t-9 75t9 75t24 60q14 24 35 40q19 15 42 15t42 -15q21 -16 35 -40q15 -26 24 -60t9 -75t-9 -75t-24 -60q-14 -24 -35 -40q-19 -15 -42 -15zM128 388l-2 -1q22 0 36 45q14 47 14 136
q0 93 -13 135q-14 44 -36 44q-20 0 -33 -43q-13 -42 -13 -135q0 -89 14 -136q13 -45 33 -45zM348 -7h-1q-23 0 -42 15t-34 40q-15 26 -24 60t-9 75t9 75t24 60q14 24 35 40q20 15 42 15t42 -15q21 -16 35 -40q15 -26 24 -60t9 -75t-9 -75t-24 -60q-14 -24 -35 -40
q-20 -15 -42 -15zM347 2l-2 -1q23 0 36 45q14 47 14 136q0 93 -13 135q-14 44 -36 44q-20 0 -33 -43q-13 -42 -13 -135q0 -89 14 -136q14 -45 33 -45z" />
    <glyph glyph-name="ampersand" unicode="&#x26;" horiz-adv-x="464" 
d="M340 233l-4 -6q17 -36 56 -117q23 -48 34 -66q13 -22 22 -31q8 -8 20 -13v-6h-104l-59 125q-15 -41 -30 -66q-16 -28 -31 -41q-17 -15 -34 -21q-18 -6 -39 -6q-32 0 -58 13q-28 14 -47 39q-19 24 -31 63q-12 38 -12 85q0 46 14 83q13 36 35 65q22 30 45 50q25 22 47 38
q-26 55 -39 96q-14 42 -14 87q0 42 10 69q10 28 26 47q15 18 35 27t39 9t39 -6t35 -21t24 -40t9 -63q0 -33 -9 -60t-22 -46q-14 -21 -30 -35t-31 -25l17 -36l80 -172l3 -6l22 79q11 39 15 61q5 25 2 39q-3 15 -13 22t-30 12v6h125v-6q-19 -4 -32 -11q-11 -6 -21 -20
q-9 -13 -18 -38q-9 -24 -21 -66zM103 200v-1q0 -98 23 -150q22 -51 60 -51q11 0 26 5q13 4 27 20q15 16 29 42q15 28 30 70l-117 248l-9 15q-3 5 -7 15q-19 -20 -30 -40t-19 -46q-7 -23 -10 -57q-3 -32 -3 -70zM165 658q0 -49 18 -97q17 -46 42 -97q7 9 15 21q9 14 14 30
q6 18 9 44q3 25 3 60q0 39 -5 67q-5 26 -12 38q-8 12 -17 17q-8 4 -18 4q-22 0 -36 -24q-13 -23 -13 -63z" />
    <glyph glyph-name="quotesingle" unicode="'" horiz-adv-x="129" 
d="M60 572l-1 -2q-1 9 -8 40q-3 14 -9 40q-3 13 -9 37q-4 16 -4 32q0 20 9 32t26 12t26 -12t9 -31q0 -15 -4 -31q-6 -24 -9 -37q-6 -26 -9 -40q-7 -31 -8 -40h-9z" />
    <glyph glyph-name="parenleft" unicode="(" horiz-adv-x="199" 
d="M195 -106h-2q-17 18 -49 62q-28 39 -54 96q-25 55 -43 130q-18 74 -18 165t18 165q19 76 43 129q26 57 54 95q28 39 50 62l5 -6q-13 -20 -33 -54q-19 -33 -37 -88q-18 -54 -30 -129t-12 -174q0 -100 12 -175t30 -129q18 -53 38 -89q19 -34 33 -54z" />
    <glyph glyph-name="parenright" unicode=")" horiz-adv-x="199" 
d="M-1 -100l-2 -2q13 20 33 54q20 36 38 89q18 54 30 129t12 175q0 99 -12 174t-30 129q-18 55 -37 88q-19 34 -33 54l5 6q25 -27 50 -61q29 -40 54 -94q24 -53 43 -129q18 -74 18 -165t-18 -165q-18 -75 -43 -130q-25 -57 -54 -96q-32 -44 -49 -62z" />
    <glyph glyph-name="asterisk" unicode="*" horiz-adv-x="258" 
d="M149 535l-5 -3q0 -28 -20 -28q-19 0 -19 28q0 21 7 42q8 22 12 51q-19 -23 -29 -44q-11 -22 -24 -35q-21 -20 -36 -6q-14 14 7 35q13 11 35 24q20 12 44 29q-27 -4 -52 -12q-22 -7 -40 -7q-29 0 -29 20t29 20q19 0 41 -7q23 -7 53 -12q-23 19 -44 29q-22 11 -35 24
q-20 23 -6 36q15 14 35 -6q12 -13 24 -36q11 -20 29 -45q-5 30 -12 53q-7 22 -7 41q0 29 19 29q20 0 20 -29q0 -17 -6 -41q-7 -29 -11 -53q16 21 27 44q11 22 24 35q20 19 36 6q6 -6 4 -15q-1 -8 -11 -19q-14 -14 -34 -24q-21 -11 -43 -28q28 5 51 12q21 7 41 7q29 0 29 -20
t-29 -20q-19 0 -40 7q-22 7 -51 12q21 -16 44 -27q21 -10 36 -24q10 -11 11 -19q2 -9 -6 -17q-6 -6 -15 -4q-8 1 -18 11q-13 13 -24 35q-10 21 -29 44q4 -24 11 -51q6 -23 6 -42z" />
    <glyph glyph-name="plus" unicode="+" horiz-adv-x="311" 
d="M149 209v136h-122v10h122v139h14v-139h121v-10h-121v-136h-14z" />
    <glyph glyph-name="comma" unicode="," horiz-adv-x="167" 
d="M109 10h-1q-4 -4 -12 -9q-7 -4 -22 -4q-17 0 -29 12t-12 32q0 23 14 35t32 12q23 0 40 -16q18 -16 18 -51q0 -47 -24 -78q-24 -32 -58 -48l-5 7q31 16 48 41t17 50q0 11 -6 17z" />
    <glyph glyph-name="hyphen" unicode="-" horiz-adv-x="233" 
d="M51 304h144l-13 -50h-144z" />
    <glyph glyph-name="period" unicode="." horiz-adv-x="163" 
d="M82 -10v-2q-20 0 -36 14q-15 13 -15 35q0 21 15 35q16 14 36 14q19 0 33 -14t14 -35q0 -20 -14 -34q-13 -13 -33 -13z" />
    <glyph glyph-name="slash" unicode="/" horiz-adv-x="234" 
d="M236 795l-237 -964l-15 3l237 963z" />
    <glyph glyph-name="zero" unicode="0" horiz-adv-x="422" 
d="M211 758v-1q32 0 63 -22q32 -23 57 -69q26 -48 41 -119q15 -72 15 -171q0 -97 -15 -169q-15 -70 -41 -120q-25 -48 -57 -72t-63 -24t-63 24t-57 72t-42 120q-16 70 -16 169q0 101 16 171q17 73 42 119t57 69t63 23zM211 747v-1q-24 0 -42 -25q-18 -26 -30 -73
q-12 -48 -18 -117t-6 -157q0 -87 6 -156t18 -117q12 -49 30 -74t42 -25t42 26q18 25 30 74q12 48 18 117t6 156q0 88 -6 157t-18 117q-12 47 -30 73q-18 25 -42 25z" />
    <glyph glyph-name="one" unicode="1" horiz-adv-x="211" 
d="M28 0l1 4q12 3 21 8q8 5 11 18q4 16 5 41q1 18 1 74v440q0 26 -1 36q-2 15 -6 24t-14 12t-25 2v7l128 94v-613q0 -56 1 -74q1 -25 5 -41q3 -13 11 -18q9 -5 21 -8v-6h-159z" />
    <glyph glyph-name="two" unicode="2" horiz-adv-x="350" 
d="M198 65l-5 -2q50 0 66 1q22 1 38 5q12 3 19 11t11 20h9l-17 -63q-6 -24 -11 -31q-4 -6 -18 -6h-285l74 131q38 67 63 121q27 57 45 111t27 108t9 114q0 75 -15 119t-57 44q-15 0 -24 -9q-10 -10 -14 -21q-4 -12 -6 -26q-1 -11 -5 -24q-7 -37 -39 -37q-17 0 -26 12t-9 26
q0 18 10 34q11 17 27 29q18 13 39 20q24 8 48 8q28 0 55 -9q26 -9 49 -30t36 -55q14 -36 14 -84q0 -53 -11 -103q-11 -49 -36 -101q-27 -56 -67 -117q-42 -65 -105 -153l-29 -43h140z" />
    <glyph glyph-name="three" unicode="3" horiz-adv-x="354" 
d="M140 3l-4 -2q26 0 45 18t33 51t21 78q7 42 7 101q0 102 -15 153t-57 51q-15 0 -28 -5q-12 -4 -21 -12t-15 -18q-6 -11 -13 -19l-7 5l182 278h-109q-38 0 -51 -1q-22 -2 -30 -4q-12 -3 -17 -10q-6 -7 -12 -21h-9l18 68q8 24 10 28q3 6 13 6h233v-8l-189 -292q6 5 18 10
q9 4 27 4q32 0 60 -12q29 -12 51 -37q23 -25 36 -66q13 -39 13 -99q0 -58 -15 -105q-15 -46 -41 -80q-26 -33 -60 -51t-72 -18q-52 0 -84 26t-32 60q0 13 8 26q8 12 24 12q20 0 29 -10q10 -11 11 -30q2 -20 3 -29q1 -13 6 -24q4 -10 12 -16q7 -6 21 -6z" />
    <glyph glyph-name="four" unicode="4" horiz-adv-x="352" 
d="M268 176l2 -26q0 -57 1 -75q2 -31 4 -41q3 -14 9 -18q7 -5 17 -8v-6h-145v6q10 3 17 8q6 4 9 18q2 10 4 41q1 18 1 75v26h-172v6l237 575h16v-524h87l-31 -57h-56zM189 233v340l-140 -340h140z" />
    <glyph glyph-name="five" unicode="5" horiz-adv-x="345" 
d="M97 684l-29 -237q12 17 32 29t45 12q29 0 59 -9q29 -9 54 -35q24 -26 39 -70q15 -45 15 -115q0 -69 -16 -118q-17 -51 -43 -85q-27 -35 -61 -51q-33 -16 -69 -16q-24 0 -45 9q-22 9 -36 22q-15 14 -24 31q-9 18 -9 36q0 14 9 26t26 12q35 0 36 -40q1 -11 1 -32
q0 -11 2 -27q1 -11 11 -19q8 -7 29 -7q22 0 42 20q19 20 33 54q13 34 21 83q8 51 8 105q0 112 -21 165t-64 53q-35 0 -52 -16q-17 -15 -28 -33l-6 4l41 315h211l-13 -52l-6 -12q-2 -2 -9 -2h-183z" />
    <glyph glyph-name="six" unicode="6" horiz-adv-x="408" 
d="M243 748l1 -1q-33 0 -55 -19t-37 -54q-14 -33 -22 -84q-7 -45 -10 -111q16 16 38 27q20 10 48 10q82 0 129 -63q47 -64 47 -189q0 -71 -16 -120q-16 -51 -42 -84q-27 -34 -55 -50q-31 -17 -58 -17q-33 0 -64 21t-57 66q-25 43 -40 116q-15 70 -15 170q0 82 15 154
q15 71 42 124t66 83t87 30q26 0 44 -7q22 -8 35 -19q16 -13 23 -27q8 -16 8 -30q0 -16 -9 -27t-23 -11q-17 0 -27 9q-11 9 -11 26q-1 17 -3 30t-6 24q-5 11 -12 17q-8 6 -21 6zM117 365l-4 -4q0 -98 9 -167q9 -73 22 -113q13 -43 30 -64q16 -21 33 -21q45 0 66 67t21 198
q0 77 -7 122q-7 46 -20 75q-12 27 -29 38t-35 11q-52 0 -85 -41q-1 -16 -1 -49v-52z" />
    <glyph glyph-name="seven" unicode="7" horiz-adv-x="330" 
d="M116 0l-10 1l178 685h-139q-45 0 -59 -1q-21 -1 -33 -6t-18 -12t-12 -21h-8l26 93q1 7 5 9t11 2h253v-8z" />
    <glyph glyph-name="eight" unicode="8" horiz-adv-x="365" 
d="M344 174l-5 1q0 -43 -12 -78q-12 -34 -33 -58t-50 -36q-28 -12 -62 -12q-75 0 -120 48t-45 129q0 40 12 72t30 57q17 24 41 45q25 22 45 35q-25 29 -45 54t-33 51q-13 24 -19 54q-6 28 -6 63q0 39 12 69q13 32 31 50q19 19 44 30q23 10 50 10q65 0 105 -40t40 -121
q0 -27 -9 -53q-8 -22 -23 -49q-13 -23 -33 -43q-19 -20 -39 -36q28 -30 51 -57q23 -28 39 -55t25 -60q9 -31 9 -70zM181 0l4 1q28 0 47 11q18 11 29 29t15 42q4 21 4 51q0 38 -9 68q-9 32 -25 57t-39 52q-23 25 -48 54l-6 7q-29 -32 -47 -81t-18 -121q0 -34 5 -69
q5 -31 15 -54q11 -23 29 -35t44 -12zM106 643l2 1q0 -31 8 -61q8 -29 21 -54t33 -51q17 -23 45 -52q22 31 36 71q13 38 13 101q0 47 -7 75q-8 31 -19 48q-12 17 -27 25q-14 7 -31 7q-38 0 -56 -29q-18 -28 -18 -81z" />
    <glyph glyph-name="nine" unicode="9" horiz-adv-x="406" 
d="M161 1l-2 -6q35 0 57 19t37 54q14 33 22 84q7 45 10 111q-17 -17 -39 -27q-21 -10 -49 -10q-81 0 -127 63q-46 62 -46 189q0 67 17 120q17 51 42 84q27 34 55 50q31 17 57 17q33 0 65 -21t57 -66q26 -46 41 -116t15 -168q0 -82 -15 -153t-42 -123q-27 -53 -66 -83
t-88 -30q-23 0 -44 8q-19 7 -35 20t-23 27q-8 16 -8 30q0 16 9 27t23 11q16 0 27 -9t11 -26q2 -18 2 -27q0 -14 3 -24t11 -18q7 -7 23 -7zM108 478l-2 -3q0 -70 8 -121q7 -46 20 -75q12 -27 29 -38q16 -10 34 -10q53 0 86 42q2 30 2 48v53q0 96 -9 165q-9 72 -22 114
q-14 45 -30 66q-17 21 -31 21q-85 0 -85 -262z" />
    <glyph glyph-name="colon" unicode=":" horiz-adv-x="170" 
d="M85 344v-1q-21 0 -35 14t-14 35q0 19 14 35q13 15 35 15q21 0 35 -15q14 -16 14 -34q0 -21 -14 -35t-35 -14zM85 -11v-2q-21 0 -35 14t-14 35t14 35t35 14t35 -14t14 -35q0 -20 -14 -34q-13 -13 -35 -13z" />
    <glyph glyph-name="semicolon" unicode=";" horiz-adv-x="174" 
d="M87 344v-1q-20 0 -36 14q-15 13 -15 35q0 20 15 35t36 15q19 0 33 -15q14 -16 14 -34q0 -21 -14 -35t-33 -14zM112 9l-2 -1q-4 -4 -12 -9q-7 -4 -21 -4q-17 0 -29 12t-12 32q0 23 14 35t32 12q23 0 40 -16q18 -16 18 -51q0 -47 -24 -78t-60 -48l-5 7q32 17 50 41t18 50
q0 11 -7 18z" />
    <glyph glyph-name="less" unicode="&#x3c;" horiz-adv-x="308" 
d="M29 358l249 104v-14l-232 -97l232 -97v-15l-249 104v15z" />
    <glyph glyph-name="equal" unicode="=" horiz-adv-x="321" 
d="M32 398h257v-13h-257v13zM32 312h257v-13h-257v13z" />
    <glyph glyph-name="greater" unicode="&#x3e;" horiz-adv-x="308" 
d="M29 239v15l232 97l-232 97v14l249 -104v-15z" />
    <glyph glyph-name="question" unicode="?" horiz-adv-x="281" 
d="M108 191l2 1q0 87 11 153q10 62 24 112q12 44 24 92q11 44 11 92q0 37 -4 56q-4 21 -12 33q-7 11 -17 16q-8 4 -21 4q-17 0 -23 -9q-5 -7 -13 -32q-8 -23 -16 -34q-9 -12 -27 -10q-13 1 -21 11q-8 9 -6 23q2 23 27 41t78 18q28 0 50 -7q24 -7 42 -24q19 -17 29 -42
q11 -27 11 -65q0 -32 -9 -60t-24 -57t-33 -60t-33 -69q-15 -39 -27 -82q-12 -45 -15 -101h-8zM121 -9l-1 -2q-18 0 -34 14q-15 13 -15 35t15 35q16 14 35 14q21 0 35 -14t14 -35q0 -20 -14 -34q-13 -13 -35 -13z" />
    <glyph glyph-name="at" unicode="@" horiz-adv-x="632" 
d="M504 -47l-2 -3q-15 -17 -38 -39q-22 -20 -49 -36q-29 -17 -64 -27q-34 -10 -79 -10q-50 0 -96 20q-45 20 -78 60q-32 40 -52 103q-19 61 -19 148q0 97 30 181q31 86 79 146t113 97q63 36 132 36q104 0 164 -69t60 -199q0 -59 -15 -124t-48 -117t-87 -84q-54 -31 -130 -27
l13 80q-32 -43 -51 -63q-19 -19 -42 -19q-35 0 -60 39q-25 38 -25 119q0 63 20 120q19 54 50 96q30 41 66 63q37 23 69 23q15 0 23 -6q10 -8 14 -12l12 -12q6 -6 16 -6q14 0 21 6q8 6 15 19h7l-46 -272q-7 -37 -13 -81q-4 -31 -3 -48q1 -16 9 -19t23 4q25 12 50 35
q23 22 43 60q20 37 30 90q11 55 11 123q0 63 -15 113q-15 49 -42 84q-28 36 -64 53q-38 18 -84 18q-61 0 -118 -30t-100 -85q-44 -55 -69 -135q-26 -81 -26 -177q0 -84 16 -145q17 -64 45 -107t68 -66t85 -23t78 10q35 11 62 27q27 17 48 36q23 22 38 39zM238 99h-2
q0 -83 23 -83q12 0 31 22q20 22 48 63l43 266q3 19 6 36q3 15 1 28t-7 18q-6 6 -18 6q-19 0 -42 -29q-23 -30 -41 -78q-18 -50 -30 -114t-12 -135z" />
    <glyph glyph-name="A" unicode="A" horiz-adv-x="336" 
d="M-1 5l-7 -1q8 5 14 12q5 6 10 21q6 17 8 34q1 6 3.5 24t4.5 29l86 556q-6 37 -17 50q-11 12 -21 15v5h93q7 0 11 -2t5 -12l101 -609q4 -30 9 -52t9 -35q5 -15 10 -21q6 -7 15 -12v-6h-129v6q7 1 13 6q7 5 8 12q2 10 2 21q0 14 -3 36l-23 139h-139l-15 -95q-5 -33 -6 -54
q-2 -22 1 -34q3 -14 9 -21t20 -12v-5h-72v5zM194 228l-71 419l-65 -419h136z" />
    <glyph glyph-name="B" unicode="B" horiz-adv-x="395" 
d="M20 6v-5q10 3 17 8q6 4 9 20q2 12 4 42q1 18 1 74v454q0 56 -1 74q-2 30 -4 42q-3 16 -9 20q-7 5 -17 8v6h151q40 0 73 -9q34 -9 56 -30q23 -22 35 -54q12 -33 12 -79q0 -35 -10 -62q-11 -30 -28 -51q-17 -22 -45 -37q-27 -15 -60 -18v-1q46 -6 80 -23q32 -16 54 -41
t32 -56q10 -30 10 -66q0 -62 -18 -104q-18 -43 -48 -68q-31 -26 -70 -38q-40 -12 -84 -12h-140v6zM133 736v-330h36q59 0 82 41q22 40 22 122q0 91 -24 129t-79 38h-37zM133 398l-4 -397h22q32 0 61 8q27 7 45 30t27 63t9 108q0 40 -5 78q-5 35 -18 59q-14 25 -39 38t-66 13
h-32z" />
    <glyph glyph-name="C" unicode="C" horiz-adv-x="343" 
d="M227 -7l1 -6q-35 0 -68 16q-34 16 -64 60q-29 43 -49 121q-19 76 -19 201q0 109 18 180t45 113q27 43 57 59q31 17 56 17q15 0 25 -3q12 -3 19 -7q3 -2 8 -4t7 -3q6 -3 14 -3q20 0 27 28h10v-153h-10q-10 43 -24 70t-27 42t-27 21q-13 6 -25 6q-19 0 -36 -18
q-17 -19 -29 -60q-11 -39 -19 -111q-7 -64 -7 -169q0 -106 11 -183q11 -75 28 -118q18 -46 40 -63q23 -18 47 -18q30 0 47 13q19 15 35 33l7 -6q-13 -19 -37 -37t-61 -18z" />
    <glyph glyph-name="D" unicode="D" horiz-adv-x="423" 
d="M20 6l-1 -4q10 3 17 8q6 4 9 20q2 12 4 42q1 18 1 74v454q0 56 -1 74q-2 30 -4 42q-3 16 -9 20q-7 5 -17 8v6h126q56 0 101 -21t78 -66t51 -114t18 -164q0 -184 -61 -284q-62 -101 -186 -101h-126v6zM132 737l-3 -732h13q38 0 67 19q30 20 51 63t33 116q12 72 12 179
q0 111 -15 180t-39 108q-25 40 -52 53q-30 14 -54 14h-13z" />
    <glyph glyph-name="E" unicode="E" horiz-adv-x="340" 
d="M20 6v-7q10 3 17 8q6 4 9 20q2 12 4 42q1 18 1 74v454q0 56 -1 74q-2 30 -4 42q-3 16 -9 20q-7 5 -17 8v6h256q8 0 12 -3q5 -3 6 -19l16 -91h-10q-9 33 -22 51q-14 20 -32 32q-17 11 -42 16q-27 5 -54 5h-17v-322h1q33 0 48 7q17 8 26 18q9 11 12 24l6 26h7v-157h-7
l-6 26q-3 14 -12 24t-26 18q-15 7 -48 7h-1v-401h36q32 0 56 3t42 15t32 35q14 24 23 62h10l-11 -106q-1 -13 -6 -15q-6 -2 -12 -2h-283v6z" />
    <glyph glyph-name="F" unicode="F" horiz-adv-x="317" 
d="M20 6l1 -1q10 3 17 8q6 5 9 18q2 10 4 41q1 18 1 74v454q0 56 -1 74q-2 31 -4 41q-3 13 -9 18q-7 5 -17 8v6h262q7 0 12 -3t6 -19l13 -91h-10q-9 33 -22 51q-14 20 -33 32q-18 11 -45 16q-28 5 -60 5h-10v-315h8q32 0 49 7q18 8 27 18t12 24l6 27h6v-158h-6l-6 26
q-3 13 -12 24t-27 18q-17 7 -49 7h-8v-269q0 -56 1 -74q2 -31 4 -41q3 -14 9 -18q7 -5 17 -8v-6h-145v6z" />
    <glyph glyph-name="G" unicode="G" horiz-adv-x="398" 
d="M228 -8l-7 -6q-49 0 -87 27t-63 78t-39 123q-13 69 -13 162q0 98 18 168q18 72 46 117q29 47 63 69q35 23 67 23q19 0 30 -4q14 -5 21 -10q6 -4 18 -10q8 -4 19 -4q7 0 12 6q4 6 9 20h6v-153h-6q-9 44 -21 72q-11 27 -26 45q-13 17 -30 24q-15 7 -33 7q-24 0 -43 -19
t-34 -63q-14 -41 -22 -111q-7 -63 -7 -165q0 -204 30 -297t88 -93q23 0 36 28q14 30 14 99v39q0 63 -1 84q-2 35 -4 48q-3 16 -9 22t-17 9v6h140v-6q-8 -1 -15 -8q-6 -6 -9 -24q-4 -22 -5 -51q-1 -22 -1 -91v-87q-10 -15 -25 -28q-16 -15 -31 -24q-15 -10 -34 -16
q-18 -6 -35 -6z" />
    <glyph glyph-name="H" unicode="H" horiz-adv-x="446" 
d="M20 6q10 3 17 8q6 4 9 18q2 10 4 41q1 18 1 74v454q0 56 -1 74q-2 31 -4 41q-3 14 -9 18q-7 5 -17 8v6h145v-6q-10 -3 -17 -8q-6 -4 -9 -18q-2 -10 -4 -41q-1 -18 -1 -74v-187h180v187q0 56 -1 74q-2 31 -4 41q-3 14 -9 18q-7 5 -17 8v6h145v-6q-10 -3 -17 -8
q-6 -4 -9 -18q-2 -10 -4 -41q-1 -18 -1 -74v-454q0 -56 1 -74q2 -31 4 -41q3 -14 9 -18q7 -5 17 -8v-6h-145v6q10 3 17 8q6 4 9 18q2 10 4 41q1 18 1 74v259h-180v-259q0 -56 1 -74q2 -31 4 -41q3 -14 9 -18q7 -5 17 -8v-6h-145v6z" />
    <glyph glyph-name="I" unicode="I" horiz-adv-x="185" 
d="M20 6v-2q10 3 17 8q6 4 9 20q2 12 4 42q1 18 1 74v454q0 56 -1 74q-2 31 -4 41q-3 13 -9 18q-7 5 -17 8v6h145v-6q-10 -3 -17 -8q-6 -5 -9 -18q-2 -10 -4 -41q-1 -18 -1 -74v-454q0 -55 1 -73q2 -30 4 -42q3 -14 9 -19q7 -5 17 -8v-6h-145v6z" />
    <glyph glyph-name="J" unicode="J" horiz-adv-x="281" 
d="M117 -9h-2q-34 0 -53 4q-20 4 -34 12q-13 7 -18 17t-5 20q0 17 10 26q11 9 27 9q17 0 27 -10q11 -11 18 -30q7 -23 15 -30q8 -8 17 -8q12 0 21 14q9 13 9 56v531q0 56 -1 74q-2 31 -4 41q-3 13 -9 18q-7 5 -17 8v6h145v-6q-10 -3 -17 -8q-6 -5 -9 -18q-2 -10 -4 -41
q-1 -18 -1 -74v-468q0 -68 -33 -106q-33 -37 -82 -37z" />
    <glyph glyph-name="K" unicode="K" horiz-adv-x="393" 
d="M250 6h-3q9 4 15 9t9 12t1 21q-1 13 -9 34l-126 318l161 256q16 26 21 42q5 17 3 26t-8 14q-6 4 -12 6v6h81v-6q-6 -3 -16 -9q-8 -5 -15 -13q-9 -11 -18 -25q-18 -29 -27 -43l-109 -173l156 -403q6 -17 14 -33q1 -2 2.5 -5.5t2.5 -5.5t2.5 -4.5t2.5 -4.5t2.5 -4.5t3 -4.5
t2.5 -3q3 -4 7 -7v-6h-143v6zM17 6q10 3 17 8q6 4 9 18q2 10 4 41q1 18 1 74v454q0 56 -1 74q-2 31 -4 41q-3 14 -9 18q-7 5 -17 8v6h145v-6q-10 -3 -17 -8q-6 -4 -9 -18q-2 -10 -4 -41q-1 -18 -1 -74v-454q0 -56 1 -74q2 -31 4 -41q3 -14 9 -18q7 -5 17 -8v-6h-145v6z" />
    <glyph glyph-name="L" unicode="L" horiz-adv-x="335" 
d="M20 6v-2q10 3 17 8q6 4 9 18q2 10 4 41q1 18 1 74v454q0 56 -1 74q-2 31 -4 41q-3 14 -9 18q-7 5 -17 8v6h147v-6q-10 -2 -19 -8q-7 -4 -10 -18q-2 -10 -4 -41q-1 -18 -1 -74v-593h28q32 0 56 3t44 17t35 39t27 69h7l-17 -117q-1 -13 -6 -15q-6 -2 -12 -2h-275v6z" />
    <glyph glyph-name="M" unicode="M" horiz-adv-x="463" 
d="M20 6v-3q11 4 17 11q6 6 9 20q2 10 4 41q1 18 1 74v450q0 56 -1 74q-2 30 -4 42q-3 16 -9 20q-7 5 -17 8v6h103q7 0 12 -3t8 -21l88 -522l97 546h116v-6q-10 -3 -17 -8q-6 -5 -9 -18q-2 -10 -4 -41q-1 -18 -1 -74v-454q0 -56 1 -74q2 -31 4 -41q3 -13 9 -18q7 -5 17 -8
v-6h-146v6q10 3 17 8q6 5 9 18q2 10 4 41q1 18 1 74v551l-124 -702h-12l-132 710v-555q0 -56 1 -74q1 -25 5 -41q3 -14 11 -20q9 -7 21 -11v-6h-79v6z" />
    <glyph glyph-name="N" unicode="N" horiz-adv-x="398" 
d="M20 6l-2 -3q10 4 17 11q6 6 9 20q2 10 4 41q1 18 1 74v450q0 56 -1 74q-2 30 -4 42q-3 16 -9 20q-7 5 -17 8v6h92q17 0 24 -5q6 -4 12 -18l192 -518v390q0 56 -1 74q-2 31 -4 41q-3 14 -11 20q-9 7 -21 11v6h80v-6q-10 -5 -17 -11q-6 -6 -9 -20q-2 -10 -4 -41
q-1 -18 -1 -74v-601h-16l-273 725v-570q0 -56 1 -74q1 -25 5 -41q3 -14 11 -20q9 -7 21 -11v-6h-79v6z" />
    <glyph glyph-name="O" unicode="O" horiz-adv-x="422" 
d="M211 -8h-2q-31 0 -63 24q-31 23 -58 72q-26 46 -43 120t-17 168q0 96 17 170q16 71 44 119q27 46 59 69t63 23q30 0 64 -23t59 -69t42 -119q17 -74 17 -170q0 -94 -17 -168q-16 -72 -42 -120q-25 -47 -59 -72q-33 -24 -64 -24zM209 2v-2q25 0 43 26q18 25 30 74
q12 48 18 117t6 156t-6 156t-18 117q-12 49 -30 74q-18 26 -43 26q-24 0 -42 -25q-18 -26 -30 -73q-12 -48 -18 -117t-6 -156t6 -156t18 -117q12 -49 30 -74q18 -26 42 -26z" />
    <glyph glyph-name="P" unicode="P" horiz-adv-x="369" 
d="M20 6l-2 2q10 3 17 8q6 4 9 18q2 10 4 41q1 18 1 74v454q0 56 -1 74q-2 31 -4 41q-3 14 -9 18q-7 5 -17 8v6h145q41 0 75 -9t60 -30q25 -21 40 -58t15 -96q0 -55 -15 -96t-42 -66q-28 -26 -63 -38q-36 -12 -76 -12h-24v-198q0 -56 1 -74q2 -31 4 -41q3 -14 10 -18
q9 -6 19 -8v-6h-147v6zM131 743v-386h21q17 0 37 7q22 8 39 28q18 21 30 59q12 37 12 99q0 64 -12 103t-28 58q-17 20 -35 26t-33 6h-31z" />
    <glyph glyph-name="Q" unicode="Q" horiz-adv-x="422" 
d="M211 -7h1q-35 0 -68 27q-32 26 -58 78q-25 50 -40 121t-15 156q0 96 17 170q16 71 44 119q27 46 59 69t63 23q30 0 64 -23t59 -69t42 -119q17 -74 17 -170q0 -128 -28 -211t-69 -127q6 -11 13 -32q7 -20 12 -40q16 -60 27 -90t33 -30q8 0 15 3t12 8l4 -4q-4 -6 -17 -13
q-12 -6 -27 -6q-21 0 -34 4q-14 4 -28 18q-13 13 -25 39t-24 66l-11 41q-22 -8 -38 -8zM212 748v-3q-24 0 -42 -25q-18 -26 -30 -73q-12 -48 -18 -117t-6 -156q0 -145 14 -245q14 -97 51 -122q-7 7 -12 17q-4 8 -4 19q0 23 15 38t41 15q37 0 61 -29q15 45 21 120t6 188
q0 87 -6 156t-18 117q-12 49 -30 74q-18 26 -43 26zM175 40l-1 -1q0 -14 10 -27t27 -13q19 0 35 12q-10 36 -18 52q-8 15 -24 15q-11 0 -20 -9t-9 -29z" />
    <glyph glyph-name="R" unicode="R" horiz-adv-x="380" 
d="M20 6l-1 -5q10 3 17 8q6 5 9 18q2 10 4 41q1 18 1 74v454q0 56 -1 74q-2 31 -4 41q-3 13 -9 18q-7 5 -17 8v6h123q40 0 78 -6q39 -6 68 -25q30 -20 48 -55q18 -36 18 -94q0 -45 -13 -78q-14 -35 -37 -60q-23 -24 -56 -40q-30 -14 -69 -19q24 -2 42 -10q21 -10 35 -28
q16 -21 26 -52q10 -33 18 -84q8 -58 15 -100q6 -38 12 -57t12 -25t17 -6q12 0 20 5t12 9l5 -4q-7 -10 -22 -17q-18 -8 -49 -8q-23 0 -37 7q-16 8 -26 27q-11 19 -18 54t-15 90q-10 79 -16 111q-8 40 -18 60q-11 20 -24 26q-14 6 -34 6v-223q0 -56 1 -74q2 -31 4 -41
q3 -14 9 -18q7 -5 17 -8v-6h-145v6zM132 736v-362h27q65 0 90 51q25 50 25 141q0 56 -9 89t-27 51t-42 24t-54 6h-10z" />
    <glyph glyph-name="S" unicode="S" horiz-adv-x="328" 
d="M146 -7l-5 -4q-23 0 -42 8q-21 9 -32 16q-14 9 -22 16l-10 8q-4 0 -9 -20h-6v182h7q13 -97 39 -148t75 -51q44 0 66 31q23 32 23 88q0 35 -9 66t-24 63q-18 38 -34 65q-15 26 -40 70q-25 43 -39 65q-19 30 -30 55q-13 30 -20 54q-7 25 -7 62q0 67 39 102q40 35 98 35
q18 0 30 -4q14 -4 24 -9q7 -3 17 -8q6 -3 11 -3q7 0 9 8q1 5 3 17h7v-137h-7q-10 41 -19 62q-11 25 -22 39q-12 15 -25 21t-28 6q-42 0 -58 -24q-16 -23 -16 -55q0 -27 9 -54q9 -26 24 -55q19 -35 34 -59q22 -33 39 -64l42 -70q17 -29 34 -66q16 -35 23 -66q8 -35 8 -67
q0 -44 -13 -76t-36 -55q-22 -23 -51 -33q-30 -11 -57 -11z" />
    <glyph glyph-name="T" unicode="T" horiz-adv-x="376" 
d="M116 6l3 -3q10 3 17 8q6 4 9 20q2 12 4 42q1 18 1 74v593q-37 0 -57 -7q-22 -8 -35 -22t-22 -36q-4 -10 -19 -50h-7l10 103q1 15 5 19q3 3 11 3h309q8 0 11 -3q4 -4 5 -19l8 -103h-7q-15 40 -19 50q-9 22 -22 36t-35 22t-56 8v-593q0 -55 1 -73q2 -30 4 -42q3 -14 9 -19
q7 -5 17 -8v-6h-145v6z" />
    <glyph glyph-name="U" unicode="U" horiz-adv-x="369" 
d="M203 -10l-4 -2q-37 0 -66 9t-49 28t-31 51q-11 33 -11 75v450q0 56 -1 74q-2 31 -4 41q-3 14 -9 18q-7 6 -16 8v6h143v-6q-10 -3 -17 -8q-6 -4 -9 -18q-2 -10 -4 -41q-1 -18 -1 -74v-453q0 -77 23 -112q22 -34 68 -34q49 0 72 39q23 40 23 106v451q0 56 -1 74
q-2 31 -4 41q-3 14 -11 20q-9 7 -21 11v6h81v-6q-10 -5 -17 -11q-6 -6 -9 -20q-2 -10 -4 -41q-1 -18 -1 -74v-451q0 -73 -27 -115t-93 -42z" />
    <glyph glyph-name="V" unicode="V" horiz-adv-x="351" 
d="M49 613h-2q-8 37 -12 55q-4 21 -9 37q-4 14 -11 24q-5 8 -15 16v6h142v-6q-22 -6 -28 -22t5 -63l96 -470l80 435q10 51 7 81q-3 29 -34 39v6h87v-6q-10 -5 -15 -10q-6 -6 -12 -18q-5 -11 -10 -34l-12 -60l-115 -628h-12z" />
    <glyph glyph-name="W" unicode="W" horiz-adv-x="547" 
d="M47 623l-6 -3l-12 48t-9 33q-5 16 -10 23q-7 10 -15 17v7h134v-7q-23 -7 -24 -24q-1 -16 9 -58l116 -505l49 219l-55 247q-8 28 -12 48t-9 33q-4 13 -11 23q-6 9 -17 15v7h132v-7q-21 -6 -21 -22q0 -17 9 -60l37 -176l26 139q1 5 7 41q3 20 2 33q-2 16 -7 27
q-6 12 -19 19v7h79v-7q-10 -4 -18 -9t-12 -16q-5 -13 -9 -34l-12 -60l-32 -162l63 -299l84 460l7 42q3 18 1 35q-2 16 -9 26q-7 11 -24 18v7h87v-7q-5 -3 -13 -9q-6 -4 -12 -17q-6 -12 -12 -33q-6 -20 -12 -59l-115 -628h-12l-81 359l-81 -359h-12z" />
    <glyph glyph-name="X" unicode="X" horiz-adv-x="354" 
d="M8 6h-5q14 6 22 13q9 7 16 19q7 11 15 32q8 20 18 51l65 226l-77 285q-4 12 -9 30t-7 24q-6 20 -12 30q-6 11 -14 17q-7 5 -19 10v6h151v-6q-14 -3 -20 -9t-6 -16t6 -30t15 -51l52 -191l47 186q7 23 13 48q5 20 3 32t-11 20q-9 7 -26 12v6h100v-6q-15 -6 -25 -12
q-9 -6 -15 -18q-6 -11 -12 -32q-2 -6 -7 -24t-9 -30l-51 -201l81 -299q4 -12 16 -51q7 -22 13 -33q8 -14 16 -21q9 -7 24 -15v-6h-157v6q14 4 21 11q6 6 6 18t-6 33q-10 36 -16 54l-56 205l-61 -211q-19 -53 -13 -78q6 -23 39 -34v-6h-105v6z" />
    <glyph glyph-name="Y" unicode="Y" horiz-adv-x="331" 
d="M102 6l1 -4q10 3 17 8q6 4 9 20q2 12 4 42q1 18 1 74v245l-80 235q-7 23 -12 44q-5 22 -10 32q-7 16 -13 23q-7 9 -18 18v6h134v-6q-11 -3 -15 -9q-4 -5 -4 -15q0 -9 3 -21q1 -5 4 -15.5t4 -13.5l83 -260l56 213q7 23 13 53q4 21 3 34q-2 13 -12 21t-30 12v6h91v-6
q-9 -4 -16 -9q-5 -4 -10 -17q-7 -18 -11 -33q-2 -7 -7 -26.5t-9 -32.5l-62 -222v-254q0 -55 1 -73q2 -30 4 -42q3 -14 9 -19q7 -5 17 -8v-6h-145v6z" />
    <glyph glyph-name="Z" unicode="Z" horiz-adv-x="335" 
d="M220 742l-3 -2q-42 0 -69 -9q-25 -8 -46 -26q-19 -16 -33 -41q-18 -32 -29 -54h-6l23 140h245l-199 -742h13q52 0 83 9t53 29q21 19 34 49q13 29 27 71h6l-17 -166h-281z" />
    <glyph glyph-name="bracketleft" unicode="[" horiz-adv-x="178" 
d="M161 793v-9h-67v-881h67v-9h-116v899h116z" />
    <glyph glyph-name="backslash" unicode="\" horiz-adv-x="234" 
d="M250 -166l-15 -3l-237 964l15 2z" />
    <glyph glyph-name="bracketright" unicode="]" horiz-adv-x="178" 
d="M133 -106h-116v9h67v881h-67v9h116v-899z" />
    <glyph glyph-name="asciicircum" unicode="^" horiz-adv-x="268" 
d="M130 756h8l109 -237l-8 -4l-105 229l-105 -229l-8 4z" />
    <glyph glyph-name="underscore" unicode="_" horiz-adv-x="267" 
d="M-5 -68h277v-13h-277v13z" />
    <glyph glyph-name="grave" unicode="`" horiz-adv-x="446" 
d="M158 620l-1 1q-20 20 -20 41q0 10 8 18t20 8q13 0 20 -9q8 -10 17 -26l63 -124l-6 -4z" />
    <glyph glyph-name="a" unicode="a" horiz-adv-x="326" 
d="M107 -5l-7 -8q-34 0 -58 24t-24 75q0 32 12 51q13 21 30 35t41 27q23 12 42 27h1q24 18 38 33q15 17 15 50v66q0 21 -2 43q-1 16 -6 25t-13 12q-9 3 -22 3q-19 0 -30 -10t-19 -39q-5 -17 -12 -26t-24 -9q-13 0 -21 9q-7 8 -7 20q0 10 6 22q5 11 20 22q14 11 35 17t53 6
q33 0 53 -4q22 -4 38 -17t23 -33q8 -22 8 -55v-232q0 -49 1 -65q2 -27 4 -36q3 -12 7 -16t12 -4q16 0 26 8l3 -5q-6 -6 -18 -12t-38 -6q-39 0 -54 18q-16 19 -17 42q-20 -22 -25 -27q-10 -10 -21 -18q-10 -7 -22 -10t-28 -3zM93 102l-1 -2q0 -97 41 -97q10 0 21 10
q14 13 41 42v213q-7 -16 -21 -28q-13 -11 -31 -25h-1q-18 -15 -27 -25q-10 -12 -15 -26q-4 -13 -6 -29q-1 -10 -1 -33z" />
    <glyph glyph-name="b" unicode="b" horiz-adv-x="369" 
d="M175 -5h-1q-20 0 -33 6q-9 4 -25 14l-10.5 7t-11.5 7q-10 6 -22 6q-10 0 -15 -6q-4 -6 -6 -11h-6v630q0 29 -1 38q-2 15 -4 20q-3 7 -9 8q-8 2 -16 2v6l107 52v-367q29 34 50 52q18 15 38 15q23 0 47 -12q25 -12 44 -39q20 -28 32 -69q12 -42 12 -100q0 -67 -13 -113
q-14 -48 -36 -81q-22 -32 -54 -49q-31 -16 -67 -16zM136 26l1 -3q4 -9 14 -15q9 -6 24 -6q43 0 66 63q23 64 23 171q0 108 -18 166t-46 58q-8 0 -15 -3q-8 -3 -16 -10q-6 -5 -21 -20q-14 -14 -29 -33v-299q0 -30 5 -45q4 -14 12 -24z" />
    <glyph glyph-name="c" unicode="c" horiz-adv-x="296" 
d="M195 -5l-6 -6q-34 0 -64 15q-31 15 -53 45t-36 75q-13 43 -13 107q0 56 15 101q15 46 37 75q23 30 50 47q26 16 52 16q18 0 33 -4q18 -5 30 -13t22 -21q9 -12 9 -27q0 -13 -9 -22t-22 -9q-30 0 -36 41q-3 24 -6 35q-3 12 -20 12q-19 0 -32 -16q-15 -18 -23 -46
q-10 -33 -14 -70q-5 -45 -5 -88q0 -114 26 -175q26 -60 71 -60q28 0 46 12q20 13 29 25l8 -7q-11 -13 -31 -27q-21 -15 -58 -15z" />
    <glyph glyph-name="d" unicode="d" horiz-adv-x="371" 
d="M157 -7v-5q-28 0 -51 13q-24 13 -42 42q-19 30 -29 73q-11 47 -11 108q0 68 15 114q15 47 37 76t50 43t53 14q17 0 35 -9q20 -10 35 -28v214q0 30 -1 39q-2 15 -4 20q-3 6 -10 7q-5 1 -18 1v6l109 52v-685v-41q0 -15 3 -24t9 -12q5 -3 17 -6v-6h-105v71q-32 -44 -54 -61
q-20 -16 -38 -16zM103 234l2 -3q0 -64 6 -109t15 -72t21 -39t24 -12q3 0 9 3q4 2 15 11q5 4 22 23q16 18 33 40v341q-35 41 -71 41q-13 0 -27 -11t-24 -36t-18 -69q-7 -41 -7 -108z" />
    <glyph glyph-name="e" unicode="e" horiz-adv-x="304" 
d="M194 -5l-2 2q-36 0 -69 14q-31 13 -54 42t-35 74t-12 107q0 60 15 105q15 46 37 75t47 45q24 15 45 15q97 0 115 -163h-178q-1 -8 -1 -25v-27q0 -123 23 -189q22 -64 75 -64q25 0 42 11q16 11 26 20l6 -7q-9 -8 -28 -22q-17 -13 -52 -13zM165 468h-1q-8 0 -17 -6t-18 -21
q-8 -14 -16 -43q-7 -26 -10 -73h109q0 73 -12 108t-35 35z" />
    <glyph glyph-name="f" unicode="f" horiz-adv-x="196" 
d="M29 6l-1 -1q10 3 14 6t7 12t3 24v41v366h-49v7q29 5 39 15q11 11 11 42v64q0 50 12 85q12 34 30 55t39 30t41 9q31 0 51 -13q21 -14 21 -33q0 -12 -7 -20q-8 -9 -21 -9q-16 0 -24 8q-7 7 -10 21q-5 25 -7 30q-3 7 -12 7q-8 0 -15 -6t-12 -20q-5 -16 -8 -38q-3 -24 -3 -61
v-162h77v-10h-77v-366q0 -31 1 -41q1 -13 5 -24q3 -9 11 -12q7 -3 21 -6v-6h-137v6z" />
    <glyph glyph-name="g" unicode="g" horiz-adv-x="320" 
d="M155 161l-4 -7q-14 0 -29 3q-13 3 -30 11l-3 -2q-27 -20 -27 -39q0 -6 1 -9q1 -4 6 -9q4 -4 14 -9q4 -2 26 -10l113 -31q55 -15 77 -42q23 -28 23 -64q0 -33 -13 -58t-36 -42t-52 -24q-32 -8 -61 -8q-33 0 -60 7q-28 8 -51 21q-23 14 -36 31t-13 39q0 17 9 32t22 28
t30 24l33 21q-37 13 -51 32t-14 43q0 29 18 45q21 19 37 29l3 2q-26 16 -46 48q-19 31 -19 87q0 45 13 75q13 31 33 51q19 19 42 28q22 9 44 9q17 0 32 -4q16 -5 33 -15q29 20 45 27q18 8 30 8q26 0 26 -28q0 -12 -7 -18t-18 -6q-10 0 -22 9t-25 9q-9 0 -13 -1t-10 -3
q26 -19 44 -51q18 -33 18 -86q0 -44 -13 -73q-14 -30 -33 -48q-19 -17 -42 -25q-21 -7 -44 -7zM151 163l-1 -1q22 0 42 33q19 32 19 110q0 77 -18 114q-18 38 -41 38q-24 0 -42 -37q-18 -38 -18 -114q0 -77 18 -110t41 -33zM43 -81l-2 2q0 -37 30 -63q31 -26 84 -26
q58 0 93 26q34 25 34 66q0 26 -15 39t-54 24l-106 29l-7 2q-33 -21 -45 -42t-12 -57z" />
    <glyph glyph-name="h" unicode="h" horiz-adv-x="376" 
d="M23 6l1 -3q10 3 14 6t7 12t3 24v41v549q0 30 -1 39q-2 15 -4 20q-3 6 -10 7q-5 1 -18 1v6l109 62v-379q26 28 42 41q18 15 33 24t27 12t23 3q12 0 24 -4q13 -5 27 -15q12 -10 22 -29q9 -18 9 -46v-289v-41q0 -12 2 -24q1 -9 6 -12q4 -3 14 -6v-6h-127v6q9 3 16 6
q6 3 9 12t3 24v41v302q0 35 -9 50t-25 15q-5 0 -10 -1q-7 -1 -19 -9q-15 -10 -29 -22q-23 -21 -41 -40v-294v-41q0 -15 3 -24t9 -12q7 -3 16 -6v-6h-126v6z" />
    <glyph glyph-name="i" unicode="i" 
d="M85 553q-20 0 -33 13t-13 33t13 33t33 13t33 -13t13 -33t-13 -33t-33 -13zM22 6v-1q9 3 16 6q6 3 9 12t3 24v41v243q0 27 -1 36q-2 15 -4 21q-3 7 -9 10q-8 4 -16 5v7l104 65v-386v-41q0 -15 3 -24t9 -12q7 -3 16 -6v-6h-130v6z" />
    <glyph glyph-name="j" unicode="j" horiz-adv-x="174" 
d="M84 553h-1q-19 0 -31 13q-12 14 -12 33t12 33q12 13 32 13t33 -13t13 -33t-13 -33t-33 -13zM-24 -139l3 -1q-15 0 -28 8q-12 8 -12 24q0 14 9 21q10 8 23 8q12 0 20 -5q5 -3 15 -11t14 -11q7 -5 14 -5q8 0 12 3q2 2 3 6q2 6 2 18v36v62v316q0 27 -1 36q-2 15 -4 21
q-3 7 -9 10q-8 4 -16 5v7l104 65v-437q0 -31 -6 -54q-7 -25 -16 -41q-10 -17 -24 -31q-15 -15 -28 -24q-25 -17 -42 -21q-18 -5 -33 -5z" />
    <glyph glyph-name="k" unicode="k" horiz-adv-x="336" 
d="M23 6h-3q10 3 14 6t7 12t3 24v41v557q0 27 -1 35q-2 14 -4 17q-3 4 -9 6q-4 1 -16 1v7l107 62v-685v-41q0 -15 3 -24t9 -12q7 -3 16 -6v-6h-126v6zM202 6l-1 -1q11 4 19 15t-6 38l-90 184v5l123 154q19 25 12 40t-27 18v6h93v-6q-11 -5 -31 -20q-17 -13 -43 -45l-76 -94
l122 -249q11 -23 20 -33q7 -9 15 -12v-6h-130v6z" />
    <glyph glyph-name="l" unicode="l" 
d="M22 6h-3q9 3 16 6q6 3 9 12t3 24v41v558q0 27 -1 35q-2 14 -4 17q-3 5 -9 6q-4 1 -17 1v6l108 62v-685v-41q0 -15 3 -24t9 -12q7 -3 16 -6v-6h-130v6z" />
    <glyph glyph-name="m" unicode="m" horiz-adv-x="550" 
d="M23 6l-9 -8q10 3 14 6t7 12t3 24v41v243q0 29 -1 38q-2 15 -4 21q-3 7 -9 10q-5 2 -16 4v7l104 65v-71q25 27 34 35q15 13 27 21q13 8 23 11t23 3q29 0 53 -18t30 -54q39 42 63 57t47 15q14 0 27 -4q14 -4 28 -15q12 -10 22 -29q9 -18 9 -46v-289v-41q0 -15 3 -24t9 -12
q7 -3 16 -6v-6h-127v6q10 3 14 6q5 3 8 12t3 24v41v302q0 35 -9 50t-23 15q-5 0 -11 -3q-8 -4 -15 -10l-9 -7q-9 -7 -14 -12q-13 -12 -33 -33v-5h1v-296v-41q0 -15 3 -24t9 -12q7 -3 16 -6v-6h-127v6q10 3 14 6t7 12t3 24v41v302q0 36 -10 50q-10 15 -24 15q-2 0 -10 -2
q-5 -1 -15 -8q-11 -7 -23 -18q-14 -12 -33 -33v-303v-41q0 -15 3 -24t9 -12q7 -3 16 -6v-6h-126v6z" />
    <glyph glyph-name="n" unicode="n" horiz-adv-x="375" 
d="M23 6l3 -4q10 3 14 6t7 12t3 24v41v243q0 29 -1 38q-2 15 -4 21q-3 7 -9 10q-5 2 -16 4v7l105 65v-79q22 23 42 40q18 15 33 24t27 12t23 3q12 0 24 -4q14 -5 27 -15q12 -10 22 -29q9 -18 9 -46v-289v-41q0 -12 2 -24q2 -9 6 -12t14 -6v-6h-128v6q9 3 16 6q6 3 9 12t3 24
v41v302q0 34 -9 48t-25 14q-7 0 -12 -1q-7 -1 -19 -9q-10 -6 -28 -21q-17 -13 -39 -39v-295v-41q0 -15 3 -24t9 -12q7 -3 16 -6v-6h-127v6z" />
    <glyph glyph-name="o" unicode="o" horiz-adv-x="358" 
d="M179 -6l-4 -1q-25 0 -52 15q-28 15 -50 45q-22 29 -37 75q-15 45 -15 104q0 62 15 108q14 44 38 76q22 30 50 45q27 15 53 15t53 -15q28 -15 50 -45q24 -32 38 -76q15 -46 15 -108q0 -58 -15 -103q-15 -46 -37 -75q-22 -30 -50 -45q-27 -15 -52 -15zM175 1h-1q34 0 55 53
q21 52 21 176q0 67 -6 112t-15 72q-9 26 -23 39q-14 12 -30 12t-30 -12t-24 -39q-10 -25 -16 -72q-6 -45 -6 -112q0 -124 21 -176q21 -53 54 -53z" />
    <glyph glyph-name="p" unicode="p" horiz-adv-x="367" 
d="M23 -160l1 -6q10 3 14 6t7 12t3 24v41v409q0 29 -1 38q-2 15 -4 21q-3 7 -9 10q-5 2 -16 4v7l104 65v-73q8 9 33 37q12 14 24 22q12 9 18 11q7 3 15 3q21 0 42 -10q22 -11 42 -36q20 -26 33 -67q14 -44 14 -105t-12 -111q-12 -48 -35 -82q-22 -33 -54 -51t-69 -18
q-18 0 -31 7q-14 8 -21 15v-90v-41q0 -15 3 -24t9 -12t15 -6v-6h-125v6zM202 454l-1 -2q-3 0 -9 -2q-5 -2 -14 -9q-6 -5 -22 -21q-14 -14 -33 -36v-365q7 -7 20 -15q11 -7 32 -7q40 0 66 56q25 54 25 180q0 56 -5 103q-5 45 -13 68q-9 26 -21 38t-25 12z" />
    <glyph glyph-name="q" unicode="q" horiz-adv-x="371" 
d="M228 -160q8 3 12 6t7 12t3 24v41v142q-29 -40 -48 -56q-20 -17 -39 -17q-14 0 -38 8q-23 8 -45 33t-39 72q-16 45 -16 126q0 62 15 107q15 44 38 75q22 30 51 45t54 15q19 0 31 -6q8 -4 22 -12l21 -12q11 -6 29 -6q13 0 20 4q8 5 12 19h7v-537v-41q0 -15 3 -24t9 -12
q7 -3 16 -6v-6h-125v6zM105 239l-2 -1q0 -70 6 -115q6 -44 17 -71q11 -26 22 -36t24 -10q14 0 30 15q15 14 48 56v303q0 39 -18 60q-21 23 -49 23q-15 0 -30 -12t-25 -37q-11 -27 -17 -69q-6 -43 -6 -106z" />
    <glyph glyph-name="r" unicode="r" horiz-adv-x="267" 
d="M23 6l1 -4q10 3 14 6t7 12t3 24v41v251q0 25 -1 33q-2 13 -4 18q-3 6 -9 9q-5 2 -16 4v7l104 65v-77l4 5q36 39 55 54q20 16 39 16q22 0 31 -12t9 -28q0 -14 -9 -25q-9 -10 -24 -10q-10 0 -16 6l-12 12q-4 4 -10 12q-5 6 -12 6q-6 0 -15 -6q-10 -7 -32 -33l-5 -6v-297
v-41q0 -15 3 -24t9 -12t18 -6v-6h-132v6z" />
    <glyph glyph-name="s" unicode="s" horiz-adv-x="269" 
d="M148 3l-1 -1q27 0 39 21t12 50q0 18 -4 33q-4 16 -15 33t-27 36q-15 17 -41 42q-23 21 -43 44q-15 17 -25 38q-9 18 -12 36t-3 38q0 22 8 41q8 18 21 30q15 13 30 20t33 7q12 0 23 -3q14 -4 20 -6l18 -7q9 -3 19 -3q6 0 11 5t6 12h8v-113l-8 1q-7 29 -20 52
q-13 22 -25 33q-14 13 -27 17q-15 5 -24 5q-17 0 -33 -13t-16 -42q0 -14 3 -26q3 -13 12 -26q8 -12 26 -30q24 -24 40 -39q31 -28 48 -49q19 -23 29 -44t15 -42q4 -19 4 -45q0 -25 -9 -46t-24 -36q-14 -14 -33 -22t-36 -8q-21 0 -36 6q-17 7 -26 12q-7 4 -19 12q-9 6 -18 6
q-13 0 -16 -18h-9v140h8q20 -74 49 -112q30 -39 68 -39z" />
    <glyph glyph-name="t" unicode="t" horiz-adv-x="210" 
d="M138 -9l-2 1q-16 0 -33 6q-16 6 -28 18q-13 13 -20 30q-8 19 -8 44v367h-41v9q19 3 37 12q17 9 33 26q14 15 25 42q11 26 15 63h9v-142h76v-10h-76v-351q0 -48 6 -75t32 -27q13 0 21 3q9 3 17 9l5 -6q-7 -7 -22 -13t-46 -6z" />
    <glyph glyph-name="u" unicode="u" horiz-adv-x="360" 
d="M137 -8l7 -2q-15 0 -33 5q-16 4 -30 17q-13 12 -22 31t-9 48v248q0 25 -1 33q-2 13 -4 18q-3 6 -9 9q-5 2 -16 4v7l104 65v-391q0 -41 10 -58q10 -18 27 -18q3 0 11 2q5 1 15 8q11 7 23 18q13 12 31 31v272q0 25 -1 33q-2 13 -4 18q-3 6 -9 9q-5 2 -16 4v7l105 65v-386
v-41q0 -12 2 -24q2 -9 6 -12t14 -6v-6h-100v57q-24 -24 -33 -32q-17 -15 -25 -20q-11 -7 -22 -10q-10 -3 -21 -3z" />
    <glyph glyph-name="v" unicode="v" horiz-adv-x="297" 
d="M47 355v1q-10 37 -15 53q-5 15 -11 30q-5 11 -9 15q-3 3 -11 7v6h130v-6q-12 -1 -18 -6t-6 -15t3 -30q2 -11 11 -52l55 -237l54 213q10 42 15 66t3 36q-2 13 -9 17t-23 6v6h82v-6q-10 -3 -15 -7q-6 -5 -12 -16q-5 -9 -13 -36q-8 -24 -18 -66l-86 -339h-12z" />
    <glyph glyph-name="w" unicode="w" horiz-adv-x="438" 
d="M47 355l-1 2q-13 51 -14 54q-4 19 -9 30t-9 15t-14 7v6h126v-6q-10 -3 -15 -6q-4 -3 -6 -14q-1 -11 3 -30q1 -4 3 -13.5t4.5 -19t4.5 -19.5l57 -237l45 164l-17 70l-14 56q-5 20 -9 30q-5 12 -7 14q-4 4 -10 5v6h128v-6q-11 -3 -16 -7q-6 -4 -9 -15t0 -30q4 -25 10 -52
l49 -223l45 201q12 48 14 67q3 24 0 36t-12 15q-11 4 -24 5v6h87v-6q-12 -3 -17 -6q-7 -3 -11 -15q-6 -16 -11 -36q-2 -9 -7.5 -31.5t-8.5 -35.5l-76 -341h-11l-67 271l-75 -271h-11z" />
    <glyph glyph-name="x" unicode="x" horiz-adv-x="294" 
d="M5 6l-4 -5q12 7 17 12q7 7 12 16q9 15 14 28q8 18 21 48l47 107l-58 141q-14 35 -21 54t-12 30t-9 14t-12 6v6h136v-6q-11 -1 -18 -5q-5 -3 -7 -12q-1 -9 3 -27q4 -16 15 -49l35 -89l34 81q16 40 20 54q6 21 5 30q-1 10 -9 13q-9 4 -18 5v6h76v-6q-14 -7 -18 -10
q-7 -5 -12 -13q-5 -7 -13 -27l-22 -54l-38 -90l62 -155q13 -35 21 -54q9 -22 13 -30q5 -9 11 -15q4 -4 12 -7v-6h-129v6q11 1 18 5q5 3 7 14q1 10 -3 28q-4 16 -17 47l-43 105l-44 -98q-13 -30 -18 -48t-3 -29q1 -10 8 -15q6 -4 17 -6v-6h-76v6z" />
    <glyph glyph-name="y" unicode="y" horiz-adv-x="305" 
d="M33 -171l-2 -4q-20 0 -29 9t-9 22t9 22t26 9q16 0 25 -6t20 -6t25 18q13 17 34 70l11 41l-96 351q-10 37 -15 53q-7 24 -10 30q-4 10 -9 15q-4 4 -12 7v6h130v-6q-10 -1 -16 -6q-5 -4 -7 -15t3 -30t12 -51l56 -229l58 205q13 44 17 65q4 24 3 36q-2 13 -9 17q-8 5 -19 6
v6h75v-6q-9 -4 -15 -9q-6 -4 -10 -16q-3 -8 -12 -35q-3 -9 -19 -63l-105 -371q-30 -76 -55 -105q-26 -30 -55 -30z" />
    <glyph glyph-name="z" unicode="z" horiz-adv-x="288" 
d="M266 -10l4 -2q-10 4 -16 5q-9 1 -24 3q-20 2 -37 2h-55h-126l180 458h-40q-31 0 -49 -7q-20 -8 -33 -19q-12 -11 -22 -29q-9 -17 -18 -36h-8l21 111q15 -7 44 -9q19 -1 84 -1h95l-185 -458h57q34 0 58 8q22 7 37 21q15 13 24 35q8 20 18 50h8z" />
    <glyph glyph-name="braceleft" unicode="{" horiz-adv-x="198" 
d="M181 -106l-4 -8q-30 0 -54 7q-27 8 -45 22t-31 38q-12 23 -12 54q0 30 12 63q8 22 26 64t26 63q12 31 12 58q0 13 -3 26q-3 14 -12 26q-10 13 -25 20q-18 8 -45 8v8q27 0 45 8q17 8 26 20t12 26q3 13 3 26q0 27 -12 58q-16 42 -25 63q-11 27 -25 64q-12 33 -12 63
q0 31 12 54t32 38q18 14 45 22q24 7 54 7v-10q-48 0 -70 -22t-22 -73q0 -33 9 -66q6 -22 20 -64t20 -62q9 -30 9 -57q0 -20 -9 -36q-9 -17 -24 -29t-33 -21q-17 -8 -36 -10q18 -2 36 -9q17 -7 33 -20q15 -12 24 -29q9 -16 9 -36q0 -27 -9 -57q-6 -20 -20 -62
q-12 -37 -20 -65q-9 -33 -9 -65q0 -50 23 -73q22 -22 69 -22v-10z" />
    <glyph glyph-name="bar" unicode="|" horiz-adv-x="233" 
d="M124 820v-926h-15v926h15z" />
    <glyph glyph-name="braceright" unicode="}" horiz-adv-x="198" 
d="M17 -96l-2 1q46 0 69 23t23 74q0 32 -9 65q-8 28 -20 65q-14 42 -20 62q-9 30 -9 57q0 19 9 36t24 29q16 13 33 20q18 8 36 9q-19 2 -36 10q-18 9 -33 21t-24 29t-9 36q0 27 9 57q6 20 20 62q12 38 20 65q9 33 9 66q0 52 -22 74q-23 23 -70 23v10q30 0 54 -7
q27 -8 45 -22q21 -16 32 -37q12 -22 12 -54q0 -30 -12 -63q-14 -37 -25 -64q-9 -21 -25 -63q-12 -32 -12 -58q0 -12 3 -26t12 -26t26 -20q18 -8 45 -8v-8q-27 0 -45 -8q-15 -7 -25 -20q-9 -12 -12 -26t-3 -26q0 -26 12 -58q8 -21 26 -63t26 -64q12 -33 12 -63q0 -32 -12 -54
t-31 -37q-19 -14 -46 -22q-25 -7 -55 -7v10z" />
    <glyph glyph-name="asciitilde" unicode="~" horiz-adv-x="249" 
d="M96 410l-4 1q8 0 19 -3l21 -6l21 -6q11 -3 18 -3q9 0 19 6q11 6 18 31l7 -3q-11 -46 -25 -63q-15 -18 -31 -18q-9 0 -19 3l-21 6l-21 6q-10 3 -21 3q-7 0 -19 -5q-10 -5 -21 -33l-7 3q16 45 33 63t33 18z" />
    <glyph glyph-name="uni00A0" unicode="&#xa0;" horiz-adv-x="164" 
 />
    <glyph glyph-name="exclamdown" unicode="&#xa1;" 
d="M81 272h11q3 -111 10 -187q7 -82 15 -148q10 -88 13 -108q6 -43 6 -64q0 -27 -14 -43q-14 -15 -36 -15t-36 15q-14 16 -14 43q0 21 6 64q9 67 14 108q8 66 15 148q7 76 10 187zM86 473h1q22 0 35 -13q14 -14 14 -34q0 -21 -14 -35t-35 -14q-19 0 -35 14q-15 13 -15 35
q0 20 15 34q14 13 34 13z" />
    <glyph glyph-name="cent" unicode="&#xa2;" horiz-adv-x="305" 
d="M190 -5l-1 -69h-13v71q-66 7 -108 66t-42 171q0 52 14 97q13 43 35 74t48 47q28 17 53 20v69h13v-69q17 -2 35 -6q20 -5 32 -13q16 -10 23 -19q9 -10 9 -24q0 -13 -9 -22t-22 -9q-32 0 -38 41q-3 21 -9 33t-19 12v-455q14 -2 18 -2q31 0 51 12q21 13 32 24l8 -7
q-14 -12 -36 -27t-63 -15h-11zM104 244l-2 1q0 -97 18 -156t54 -75v450q-17 -3 -31 -21q-12 -16 -22 -47q-8 -26 -13 -68q-4 -35 -4 -84z" />
    <glyph glyph-name="sterling" unicode="&#xa3;" horiz-adv-x="305" 
d="M51 50v-2l21 30q10 15 18 33t12 39q4 19 4 50q0 32 -8 72h-74v11h72q-4 20 -7 30l-9 30h-56v11h53q-20 66 -29 99q-14 51 -14 104q0 54 13 90q13 37 33 61t44 35q25 11 45 11q21 0 39 -7q20 -8 35 -21q15 -14 24 -33q9 -20 9 -43q0 -14 -7 -24q-8 -11 -24 -11
q-31 0 -32 36q0 33 -1 45q-2 18 -6 30t-13 16q-10 5 -24 5q-31 0 -45 -35q-13 -33 -13 -108q0 -74 9 -135q3 -22 9 -60t8 -53h93v-11h-91q1 -11 3 -31t3 -29h84v-11h-83v-16q0 -38 -7 -66q-7 -30 -18 -54q-11 -26 -22 -42q-14 -20 -22 -30h128q29 0 39 1q13 1 24 5q9 3 15 9
q6 7 11 17h8l-14 -61q-8 -23 -12 -30t-21 -7h-239z" />
    <glyph glyph-name="yen" unicode="&#xa5;" horiz-adv-x="322" 
d="M98 6v-3q10 3 17 8q6 4 9 20q2 12 4 42q1 18 1 74v194h-92v11h92v60h-92v11h89l-68 204q-12 43 -13 44q-2 6 -5.5 17t-4.5 15q-4 13 -11 23t-16 18v6h134v-6q-10 -3 -15 -9q-5 -7 -5 -15q0 -9 3 -21q1 -3 3.5 -13t4.5 -17l74 -237l47 190q7 23 13 53q5 22 2 34
q-3 14 -13 21q-10 8 -30 12v6h90v-6q-9 -4 -15 -9q-5 -4 -10 -17q-7 -18 -11 -34q-1 -5 -6.5 -25.5t-9.5 -35.5l-50 -197h90v-11h-92v-60h92v-11h-92v-194q0 -55 1 -73q2 -30 4 -42q3 -14 9 -19q7 -5 17 -8v-6h-145v6z" />
    <glyph glyph-name="brokenbar" unicode="&#xa6;" horiz-adv-x="233" 
d="M124 820v-380h-15v380h15zM124 -106h-15v380h15v-380z" />
    <glyph glyph-name="section" unicode="&#xa7;" horiz-adv-x="356" 
d="M169 -146l-6 -1q40 0 60 26t20 72q0 27 -7 51q-7 23 -23 54q-15 28 -39 60q-48 63 -55 72q-8 11 -23.5 29.5t-21.5 26.5q-18 22 -31 48q-12 24 -18 49t-6 58q0 27 6 49q6 23 16 40q11 18 22 31t23 21q-7 19 -12 41q-4 19 -4 46q0 35 11 63q10 26 29 45q18 18 41 27
q22 9 47 9q27 0 48 -7q24 -8 39 -19q16 -11 25 -27q9 -15 9 -28q0 -11 -7 -18t-18 -7q-27 0 -34 31q-4 16 -7 24q-5 14 -10 21q-6 9 -16 15q-11 6 -27 6q-35 0 -57 -25q-23 -26 -23 -64q0 -23 5 -45q4 -17 17 -40q12 -21 30 -45q27 -36 45 -59q20 -26 57 -74q24 -32 39 -60
q16 -30 23 -57t7 -63q0 -37 -19 -74q-20 -38 -45 -66q15 -39 15 -83q0 -35 -9 -65q-9 -29 -26 -51q-17 -21 -39 -33q-23 -12 -50 -12t-51 9t-42 24t-28 34t-10 40q0 13 8 21t18 8q13 0 21 -9q7 -9 9 -23q5 -48 18 -72t56 -24zM166 258h1q37 -51 63 -87t39 -69q9 12 16 32
q6 18 6 37q0 33 -7 57q-8 28 -22 53q-16 29 -39 59q-36 48 -58 75q-10 13 -45 62q-20 28 -32 56q-13 -10 -20 -27q-8 -19 -8 -49q0 -25 6 -46q5 -18 20 -43q14 -22 33 -48q26 -34 47 -62z" />
    <glyph glyph-name="dieresis" unicode="&#xa8;" horiz-adv-x="446" 
d="M289 555v-1q-18 0 -30 12t-12 32q0 18 12 30t30 12t30 -12t12 -30q0 -19 -12 -31t-30 -12zM157 554v-1q-18 0 -30 12t-12 32q0 18 12 30t30 12t30 -12t12 -30q0 -19 -12 -31t-30 -12z" />
    <glyph glyph-name="copyright" unicode="&#xa9;" horiz-adv-x="456" 
d="M229 759v-2q41 0 78 -24t66 -72t45 -120q17 -74 17 -167q0 -92 -17 -166q-16 -71 -45 -121q-28 -49 -66 -73q-37 -24 -78 -24t-78 24t-66 74t-45 121q-17 74 -17 167t17 167q16 72 45 120t66 72t78 24zM229 -4l-3 -2q38 0 72 24q35 24 62 71q28 48 44 117q17 73 17 165
q0 97 -16 165q-17 72 -43 117q-27 47 -62 71q-34 24 -72 24t-74 -24t-63 -70q-28 -48 -44 -117q-16 -68 -16 -165q0 -92 17 -165q16 -69 44 -117q27 -46 63 -70t74 -24zM251 152l-5 -3q-20 0 -42 9q-23 9 -42 34q-19 24 -31 69q-12 43 -12 114q0 63 12 104q12 40 30 64
t37 33q20 9 36 9t24 -6q7 -6 17 -6q12 0 17 17h6v-92h-6q-4 26 -12 42q-7 15 -15 25q-7 9 -15 12t-15 3q-10 0 -19 -10t-15 -33q-5 -19 -10 -62q-4 -35 -4 -96q0 -62 6 -104q6 -41 15 -67t21 -36q11 -10 26 -10q17 0 29 9q13 10 21 22l5 -5q-10 -13 -22 -24q-14 -12 -37 -12
z" />
    <glyph glyph-name="ordfeminine" unicode="&#xaa;" horiz-adv-x="260" 
d="M85 392h-2q-29 0 -47 18t-18 56q0 24 9 39t23 26t32 20q16 8 33 20q19 13 30 25q12 14 12 39v50q0 41 -6 51q-6 11 -27 11q-13 0 -21 -8q-7 -7 -12 -29q-5 -29 -30 -29q-13 0 -19 8q-6 7 -6 17q0 6 5 16q4 8 15 16q10 8 27 12q18 5 41 5q48 0 71 -16q24 -17 24 -69v-177
q0 -36 1 -48q1 -17 3 -28q1 -9 5 -13q3 -3 8 -3q14 0 21 7l2 -5q-5 -5 -15 -9q-12 -5 -30 -5q-30 0 -42 14q-13 14 -14 32q-20 -21 -35 -33q-13 -10 -38 -10zM79 480q0 -71 27 -71q8 0 18 6q11 6 30 28v163q-4 -14 -15 -21t-24 -18h-1q-26 -19 -30 -39q-5 -22 -5 -48z" />
    <glyph glyph-name="guillemotleft" unicode="&#xab;" horiz-adv-x="244" 
d="M116 226v8l109 159l6 -4l-62 -159l63 -159l-6 -4zM13 226v8l110 159l6 -4l-63 -159l64 -159l-6 -4z" />
    <glyph glyph-name="registered" unicode="&#xae;" horiz-adv-x="312" 
d="M158 758l-2 -3q28 0 53 -15q26 -15 45 -43q21 -30 32 -67q12 -39 12 -87q0 -47 -12 -88q-12 -39 -32 -69q-19 -28 -45 -43q-25 -15 -52 -15q-29 0 -54 15q-24 14 -46 44q-21 28 -33 68q-12 39 -12 89q0 48 12 87q12 40 33 68q21 29 47 44t54 15zM156 335l-1 -1
q25 0 49 15t42 42q19 28 29 65q11 39 11 84t-11 84q-10 37 -29 65q-18 27 -42 42t-49 15q-26 0 -50 -15q-23 -14 -43 -42q-19 -26 -31 -64q-12 -37 -12 -84t12 -84q13 -40 31 -65q19 -26 44 -42q24 -15 50 -15zM97 434l-1 -1q7 1 9 8q2 8 2 36v139q0 32 -1 36q-2 7 -9 8v4
h47q11 0 29 -2q12 -1 24 -8q11 -6 17 -17t6 -30q0 -27 -18 -43q-17 -16 -44 -19q19 -2 29 -13q11 -12 15 -43q6 -36 9 -44q3 -9 8 -9t9 4l2 -3q-3 -3 -11 -7q-6 -3 -17 -3q-10 0 -18 11q-8 10 -12 45q-3 24 -6 35q-3 12 -6 18q-3 7 -7 8q-6 2 -12 2v-68q0 -28 2 -36
q2 -7 9 -8v-4h-55v4zM140 661l-1 -111h6q23 0 32 15t9 44q0 31 -12 42q-11 10 -32 10h-2z" />
    <glyph glyph-name="macron" unicode="&#xaf;" horiz-adv-x="446" 
d="M301 600v-34h-151v34h151z" />
    <glyph glyph-name="degree" unicode="&#xb0;" horiz-adv-x="192" 
d="M96 758q32 0 54 -22t22 -54q0 -33 -22 -55t-54 -22t-54 22t-22 55q0 32 22 54t54 22zM32 682l-1 -1q0 -29 18 -48t46 -19q29 0 47 19t18 48t-18 48q-18 20 -46 20t-46 -19q-18 -20 -18 -48z" />
    <glyph glyph-name="twosuperior" unicode="&#xb2;" horiz-adv-x="264" 
d="M156 511l-7 -1h32q10 0 18 2q5 1 9 5t5 9h6l-13 -46q-2 -7 -5 -13q-1 -3 -6 -3h-165l38 65q39 66 59 116q21 51 21 110q0 36 -7 56q-7 21 -28 21q-7 0 -10 -4q-4 -6 -6 -10q-2 -5 -4 -13q-1 -7 -3 -12q-3 -8 -9 -14t-17 -6q-10 0 -15 6q-5 7 -5 14q0 19 20 33t50 14
q18 0 33 -4q17 -4 30 -15t21 -27q8 -18 8 -42q0 -27 -7 -48q-8 -24 -22 -48q-15 -26 -39 -57q-43 -56 -58 -76l-10 -12h86z" />
    <glyph glyph-name="threesuperior" unicode="&#xb3;" horiz-adv-x="240" 
d="M61 820l2 -7q2 7 5 13q2 3 6 3h122v-5l-91 -139q8 5 21 5q32 0 56 -25t24 -82q0 -29 -9 -51q-9 -24 -22 -39q-12 -15 -32 -25q-18 -9 -36 -9q-31 0 -51 14q-19 13 -19 30q0 7 5 14q4 6 15 6t15 -6q5 -6 6 -16q3 -16 8 -26q4 -9 18 -9q20 0 32 30t12 90q0 51 -5 78
q-5 24 -21 24q-14 0 -24 -8q-8 -7 -13 -15l-5 3l77 120h-50h-25q-8 0 -14 -2t-8 -4q-3 -3 -6 -9h-6z" />
    <glyph glyph-name="acute" unicode="&#xb4;" horiz-adv-x="446" 
d="M181 529l62 123q9 16 17 26q8 9 20 9t20 -8t8 -18q0 -21 -20 -41l-101 -95z" />
    <glyph glyph-name="paragraph" unicode="&#xb6;" horiz-adv-x="374" 
d="M178 452l-1 -2q-32 0 -62 11q-29 11 -51 30t-36 48q-13 27 -13 63q0 39 13 65q14 27 36 45q23 18 52 27q30 9 63 9h179v-6q-10 -3 -17 -8q-6 -5 -9 -19q-2 -12 -4 -42q-1 -18 -1 -75v-447q0 -69 -9 -116t-27 -75q-19 -29 -46 -41q-29 -12 -67 -12q-32 0 -48 13t-16 31
q0 15 9 24t23 9t23 -9t18 -21t18 -21t21 -9q26 0 33 40q8 43 8 136v640h-44v-288h-45z" />
    <glyph glyph-name="periodcentered" unicode="&#xb7;" horiz-adv-x="169" 
d="M85 232v-2q-20 0 -36 14q-15 14 -15 35t15 35q16 14 36 14q19 0 33 -14t14 -35q0 -20 -14 -34q-13 -13 -33 -13z" />
    <glyph glyph-name="cedilla" unicode="&#xb8;" horiz-adv-x="446" 
d="M238 0l-18 -39q28 -3 52 -18t24 -43q0 -26 -28 -45q-29 -20 -100 -21l-1 8q42 4 62 17q20 12 20 29t-18 23q-20 7 -35 8l-3 5l34 76h11z" />
    <glyph glyph-name="onesuperior" unicode="&#xb9;" horiz-adv-x="191" 
d="M53 465l2 6q9 2 11 4q4 4 5 10q2 10 2 21v39v195q0 26 -3 33q-3 8 -19 8v6l76 54v-296v-39q0 -11 2 -21q1 -6 5 -10q2 -2 11 -4v-6h-92z" />
    <glyph glyph-name="ordmasculine" unicode="&#xba;" horiz-adv-x="280" 
d="M140 386l-1 -1q-18 0 -40 11q-21 10 -39 33t-30 57t-12 81q0 48 12 84q12 37 30 59q19 23 39 35q21 12 41 12t41 -12q22 -12 39 -34q18 -22 30 -59q12 -36 12 -84q0 -46 -12 -81t-30 -57t-39 -33q-22 -11 -41 -11zM139 392h-1q22 0 39 39q17 40 17 134q0 56 -4 87
q-5 35 -12 56q-8 21 -18 30q-11 9 -22 9q-10 0 -21 -9t-18 -30t-12 -56q-4 -31 -4 -87q0 -94 17 -134q16 -39 39 -39z" />
    <glyph glyph-name="guillemotright" unicode="&#xbb;" horiz-adv-x="244" 
d="M12 71l63 159l-62 159l6 4l109 -159v-8l-110 -159zM114 71l64 159l-63 159l6 4l110 -159v-8l-111 -159z" />
    <glyph glyph-name="onequarter" unicode="&#xbc;" horiz-adv-x="397" 
d="M238 -5v-1v-40q0 -12 2 -22q1 -6 5 -10q2 -2 8 -4v-6h-84v6q6 2 8 4q4 4 5 10q2 10 2 22v41h-92v5l136 287h10v-252h45l-19 -40h-26zM184 34v142l-67 -142h67zM48 378h301v-8h-301v8zM154 464l2 6q9 2 11 4q4 4 5 10q2 10 2 21v39v195q0 25 -3 33t-19 8v6l76 54v-296v-39
q0 -11 2 -21q1 -6 5 -10q2 -2 11 -4v-6h-92z" />
    <glyph glyph-name="onehalf" unicode="&#xbd;" horiz-adv-x="397" 
d="M48 379h301v-8h-301v8zM154 465l2 6q9 2 11 4q4 4 5 10q2 10 2 21v39v195q0 26 -3 33q-3 8 -19 8v6l76 54v-296v-39q0 -11 2 -21q1 -6 5 -10q2 -2 11 -4v-6h-92zM228 -41l-7 -1h32q10 0 18 2q5 1 9 5t5 9h6l-13 -46q-2 -7 -5 -13q-1 -3 -6 -3h-165l38 65q39 66 59 116
q21 51 21 110q0 36 -7 56q-7 21 -28 21q-7 0 -10 -4q-4 -6 -6 -10q-2 -5 -4 -13q-1 -7 -3 -12q-3 -8 -9 -14t-17 -6q-10 0 -15 6q-5 7 -5 14q0 19 20 33t50 14q18 0 33 -4q17 -4 30 -15t21 -27q8 -18 8 -42q0 -27 -7 -48q-8 -24 -22 -48q-15 -26 -39 -57q-43 -56 -58 -76
l-10 -12h86z" />
    <glyph glyph-name="threequarters" unicode="&#xbe;" horiz-adv-x="397" 
d="M238 -5v-1v-40q0 -12 2 -22q1 -6 5 -10q2 -2 8 -4v-6h-84v6q6 2 8 4q4 4 5 10q2 10 2 22v41h-92v5l136 287h10v-252h45l-19 -40h-26zM184 34v142l-67 -142h67zM48 378h301v-8h-301v8zM140 819l2 -7q2 7 5 13q1 3 6 3h122v-5l-91 -139q8 5 21 5q32 0 56 -25q24 -26 24 -82
q0 -28 -9 -51q-9 -24 -22 -39q-12 -15 -32 -25q-18 -9 -36 -9q-31 0 -51 14q-19 13 -19 30q0 7 5 14q5 6 15 6t15 -6t6 -16q3 -16 8 -26q5 -9 18 -9q20 0 32 30t12 90q0 51 -5 78q-4 24 -21 24q-14 0 -24 -8q-8 -7 -13 -15l-5 3l77 120h-50h-25q-8 0 -14 -2t-8 -4
q-3 -3 -6 -9h-6z" />
    <glyph glyph-name="questiondown" unicode="&#xbf;" horiz-adv-x="281" 
d="M173 272l-4 -2q0 -87 -11 -153q-10 -62 -24 -112q-12 -44 -24 -92q-11 -44 -11 -91q0 -37 4 -56q5 -21 12 -33q7 -11 17 -16q8 -4 21 -4q17 0 23 9q5 7 13 32q8 23 16 34q9 12 27 10q13 -1 21 -11q8 -9 6 -23q-2 -23 -27 -41q-26 -18 -78 -18q-28 0 -50 7q-24 8 -42 24
q-17 16 -28 42q-10 24 -10 65q0 31 9 60t24 57t33 60t33 69q15 38 27 82q12 45 15 101h8zM158 471q20 0 34 -13q15 -14 15 -34q0 -22 -15 -35q-16 -14 -34 -14q-21 0 -35 14t-14 35q0 20 14 34q13 13 35 13z" />
    <glyph glyph-name="Agrave" unicode="&#xc0;" horiz-adv-x="336" 
d="M-1 5l-7 -1q8 5 14 12q5 6 10 21q6 17 8 34q1 6 3.5 24t4.5 29l86 556q-6 37 -17 50q-11 12 -21 15v5h93q7 0 11 -2t5 -12l101 -609q4 -30 9 -52t9 -35q5 -15 10 -21q6 -7 15 -12v-6h-129v6q7 1 13 6q7 5 8 12q2 10 2 21q0 14 -3 36l-23 139h-139l-15 -95q-5 -33 -6 -54
q-2 -22 1 -34q3 -14 9 -21t20 -12v-5h-72v5zM194 228l-71 419l-65 -419h136zM82 816l-2 -1q-35 11 -35 39q0 11 7 18q8 8 21 8q10 0 17 -4q8 -4 18 -12l106 -75l-3 -6z" />
    <glyph glyph-name="Aacute" unicode="&#xc1;" horiz-adv-x="336" 
d="M-1 5l-7 -1q8 5 14 12q5 6 10 21q6 17 8 34q1 6 3.5 24t4.5 29l86 556q-6 37 -17 50q-11 12 -21 15v5h93q7 0 11 -2t5 -12l101 -609q4 -30 9 -52t9 -35q5 -15 10 -21q6 -7 15 -12v-6h-129v6q7 1 13 6q7 5 8 12q2 10 2 21q0 14 -3 36l-23 139h-139l-15 -95q-5 -33 -6 -54
q-2 -22 1 -34q3 -14 9 -21t20 -12v-5h-72v5zM194 228l-71 419l-65 -419h136zM69 789l104 75q11 8 18 12t17 4q14 0 21 -7t7 -18q0 -28 -35 -39l-129 -33z" />
    <glyph glyph-name="Acircumflex" unicode="&#xc2;" horiz-adv-x="336" 
d="M-1 5l-7 -1q8 5 14 12q5 6 10 21q6 17 8 34q1 6 3.5 24t4.5 29l86 556q-6 37 -17 50q-11 12 -21 15v5h93q7 0 11 -2t5 -12l101 -609q4 -30 9 -52t9 -35q5 -15 10 -21q6 -7 15 -12v-6h-129v6q7 1 13 6q7 5 8 12q2 10 2 21q0 14 -3 36l-23 139h-139l-15 -95q-5 -33 -6 -54
q-2 -22 1 -34q3 -14 9 -21t20 -12v-5h-72v5zM194 228l-71 419l-65 -419h136zM138 893l106 -106l-4 -5l-102 50l-101 -50l-4 5z" />
    <glyph glyph-name="Atilde" unicode="&#xc3;" horiz-adv-x="336" 
d="M-1 5l-7 -1q8 5 14 12q5 6 10 21q6 17 8 34q1 6 3.5 24t4.5 29l86 556q-6 37 -17 50q-11 12 -21 15v5h93q7 0 11 -2t5 -12l101 -609q4 -30 9 -52t9 -35q5 -15 10 -21q6 -7 15 -12v-6h-129v6q7 1 13 6q7 5 8 12q2 10 2 21q0 14 -3 36l-23 139h-139l-15 -95q-5 -33 -6 -54
q-2 -22 1 -34q3 -14 9 -21t20 -12v-5h-72v5zM194 228l-71 419l-65 -419h136zM110 856l-3 2q19 0 40 -4t38 -4q7 0 15 6q9 7 23 27l7 -2q-11 -46 -24 -62q-14 -17 -27 -17q-17 0 -39 3q-23 3 -38 3q-10 0 -17 -6q-8 -7 -24 -28l-6 2q24 80 55 80z" />
    <glyph glyph-name="Adieresis" unicode="&#xc4;" horiz-adv-x="336" 
d="M-1 5l-7 -1q8 5 14 12q5 6 10 21q6 17 8 34q1 6 3.5 24t4.5 29l86 556q-6 37 -17 50q-11 12 -21 15v5h93q7 0 11 -2t5 -12l101 -609q4 -30 9 -52t9 -35q5 -15 10 -21q6 -7 15 -12v-6h-129v6q7 1 13 6q7 5 8 12q2 10 2 21q0 14 -3 36l-23 139h-139l-15 -95q-5 -33 -6 -54
q-2 -22 1 -34q3 -14 9 -21t20 -12v-5h-72v5zM194 228l-71 419l-65 -419h136zM209 787v-1q-19 0 -31 12t-12 32q0 18 12 30t31 12q17 0 29 -12t12 -30q0 -19 -12 -31t-29 -12zM67 786v-1q-17 0 -29 12t-12 32q0 18 12 30t29 12q19 0 31 -12t12 -30q0 -19 -12 -31t-31 -12z
" />
    <glyph glyph-name="Aring" unicode="&#xc5;" horiz-adv-x="336" 
d="M-1 5l-7 -1q8 5 14 12q5 6 10 21q6 17 8 34q1 6 3.5 24t4.5 29l86 556q-6 37 -17 50q-11 12 -21 15v5h93q7 0 11 -2t5 -12l101 -609q4 -30 9 -52t9 -35q5 -15 10 -21q6 -7 15 -12v-6h-129v6q7 1 13 6q7 5 8 12q2 10 2 21q0 14 -3 36l-23 139h-139l-15 -95q-5 -33 -6 -54
q-2 -22 1 -34q3 -14 9 -21t20 -12v-5h-72v5zM194 228l-71 419l-65 -419h136zM63 849v-2q0 28 23 48t53 20q31 0 54 -20q22 -19 22 -48q0 -30 -22 -49t-54 -19q-31 0 -54 20q-22 19 -22 50zM98 847q0 -26 10 -42q11 -17 30 -17t30 17q10 16 10 42t-10 43q-10 18 -30 18
t-30 -18q-10 -17 -10 -43z" />
    <glyph glyph-name="AE" unicode="&#xc6;" horiz-adv-x="465" 
d="M356 336l-2 -9q-4 16 -6 25q-3 12 -11 24q-7 10 -23 18q-15 8 -43 9v-401h22q32 0 56 3q25 3 44 15t33 35q14 24 23 62h10l-12 -106q-1 -13 -6 -15q-6 -2 -12 -2h-269v6q10 3 17 8q6 4 9 20q2 12 4 42q1 18 1 74v77h-112l-22 -102q-9 -34 -12 -56q-3 -23 -2 -33
q2 -13 7 -18t17 -10v-5h-72v5q10 6 14 10q6 6 12 18t12 33q8 27 14 56l123 555q4 24 5 29q1 12 0 19q-1 8 -9 12q-6 4 -22 7v7h257q7 0 12 -3t6 -19l16 -91h-10q-20 62 -55 83q-36 21 -95 21h-3v-322q29 2 44 9q16 8 23 18q8 12 11 24q2 9 6 25h7v-157h-7zM189 225v502
l-110 -502h110z" />
    <glyph glyph-name="Ccedilla" unicode="&#xc7;" horiz-adv-x="343" 
d="M227 -7l1 -6q-35 0 -68 16q-34 16 -64 60q-29 43 -49 121q-19 76 -19 201q0 109 18 180t45 113q27 43 57 59q31 17 56 17q15 0 25 -3q12 -3 19 -7q3 -2 8 -4t7 -3q6 -3 14 -3q20 0 27 28h10v-153h-10q-10 43 -24 70t-27 42t-27 21q-13 6 -25 6q-19 0 -36 -18
q-17 -19 -29 -60q-11 -39 -19 -111q-7 -64 -7 -169q0 -106 11 -183q11 -75 28 -118q18 -46 40 -63q23 -18 47 -18q30 0 47 13q19 15 35 33l7 -6q-13 -19 -37 -37t-61 -18zM187 -6l-18 -39q28 -3 52 -18t24 -43q0 -26 -28 -45q-29 -20 -100 -21l-1 8q42 4 62 17q20 12 20 29
t-18 23q-20 7 -35 8l-3 5l34 76h11z" />
    <glyph glyph-name="Egrave" unicode="&#xc8;" horiz-adv-x="340" 
d="M20 6v-7q10 3 17 8q6 4 9 20q2 12 4 42q1 18 1 74v454q0 56 -1 74q-2 30 -4 42q-3 16 -9 20q-7 5 -17 8v6h256q8 0 12 -3q5 -3 6 -19l16 -91h-10q-9 33 -22 51q-14 20 -32 32q-17 11 -42 16q-27 5 -54 5h-17v-322h1q33 0 48 7q17 8 26 18q9 11 12 24l6 26h7v-157h-7
l-6 26q-3 14 -12 24t-26 18q-15 7 -48 7h-1v-401h36q32 0 56 3t42 15t32 35q14 24 23 62h10l-11 -106q-1 -13 -6 -15q-6 -2 -12 -2h-283v6zM114 810l-2 -1q-35 11 -35 39q0 11 7 18q8 8 21 8q10 0 17 -4q8 -4 18 -12l106 -75l-3 -6z" />
    <glyph glyph-name="Eacute" unicode="&#xc9;" horiz-adv-x="340" 
d="M20 6v-7q10 3 17 8q6 4 9 20q2 12 4 42q1 18 1 74v454q0 56 -1 74q-2 30 -4 42q-3 16 -9 20q-7 5 -17 8v6h256q8 0 12 -3q5 -3 6 -19l16 -91h-10q-9 33 -22 51q-14 20 -32 32q-17 11 -42 16q-27 5 -54 5h-17v-322h1q33 0 48 7q17 8 26 18q9 11 12 24l6 26h7v-157h-7
l-6 26q-3 14 -12 24t-26 18q-15 7 -48 7h-1v-401h36q32 0 56 3t42 15t32 35q14 24 23 62h10l-11 -106q-1 -13 -6 -15q-6 -2 -12 -2h-283v6zM101 783l104 75q11 8 18 12t17 4q14 0 21 -7t7 -18q0 -28 -35 -39l-129 -33z" />
    <glyph glyph-name="Ecircumflex" unicode="&#xca;" horiz-adv-x="340" 
d="M20 6v-7q10 3 17 8q6 4 9 20q2 12 4 42q1 18 1 74v454q0 56 -1 74q-2 30 -4 42q-3 16 -9 20q-7 5 -17 8v6h256q8 0 12 -3q5 -3 6 -19l16 -91h-10q-9 33 -22 51q-14 20 -32 32q-17 11 -42 16q-27 5 -54 5h-17v-322h1q33 0 48 7q17 8 26 18q9 11 12 24l6 26h7v-157h-7
l-6 26q-3 14 -12 24t-26 18q-15 7 -48 7h-1v-401h36q32 0 56 3t42 15t32 35q14 24 23 62h10l-11 -106q-1 -13 -6 -15q-6 -2 -12 -2h-283v6zM170 887l106 -106l-4 -5l-102 50l-101 -50l-4 5z" />
    <glyph glyph-name="Edieresis" unicode="&#xcb;" horiz-adv-x="340" 
d="M20 6v-7q10 3 17 8q6 4 9 20q2 12 4 42q1 18 1 74v454q0 56 -1 74q-2 30 -4 42q-3 16 -9 20q-7 5 -17 8v6h256q8 0 12 -3q5 -3 6 -19l16 -91h-10q-9 33 -22 51q-14 20 -32 32q-17 11 -42 16q-27 5 -54 5h-17v-322h1q33 0 48 7q17 8 26 18q9 11 12 24l6 26h7v-157h-7
l-6 26q-3 14 -12 24t-26 18q-15 7 -48 7h-1v-401h36q32 0 56 3t42 15t32 35q14 24 23 62h10l-11 -106q-1 -13 -6 -15q-6 -2 -12 -2h-283v6zM241 781v-1q-19 0 -31 12t-12 32q0 18 12 30t31 12q17 0 29 -12t12 -30q0 -19 -12 -31t-29 -12zM99 780v-1q-17 0 -29 12t-12 32
q0 18 12 30t29 12q19 0 31 -12t12 -30q0 -19 -12 -31t-31 -12z" />
    <glyph glyph-name="Igrave" unicode="&#xcc;" horiz-adv-x="185" 
d="M20 6v-2q10 3 17 8q6 4 9 20q2 12 4 42q1 18 1 74v454q0 56 -1 74q-2 31 -4 41q-3 13 -9 18q-7 5 -17 8v6h145v-6q-10 -3 -17 -8q-6 -5 -9 -18q-2 -10 -4 -41q-1 -18 -1 -74v-454q0 -55 1 -73q2 -30 4 -42q3 -14 9 -19q7 -5 17 -8v-6h-145v6zM36 815l-2 -1q-35 11 -35 39
q0 11 7 18q8 8 21 8q10 0 17 -4q8 -5 18 -12l106 -75l-3 -6z" />
    <glyph glyph-name="Iacute" unicode="&#xcd;" horiz-adv-x="185" 
d="M20 6v-2q10 3 17 8q6 4 9 20q2 12 4 42q1 18 1 74v454q0 56 -1 74q-2 31 -4 41q-3 13 -9 18q-7 5 -17 8v6h145v-6q-10 -3 -17 -8q-6 -5 -9 -18q-2 -10 -4 -41q-1 -18 -1 -74v-454q0 -55 1 -73q2 -30 4 -42q3 -14 9 -19q7 -5 17 -8v-6h-145v6zM24 788l104 75q10 7 18 12
q7 4 17 4q14 0 21 -7t7 -18q0 -28 -35 -39l-129 -33z" />
    <glyph glyph-name="Icircumflex" unicode="&#xce;" horiz-adv-x="185" 
d="M20 6v-2q10 3 17 8q6 4 9 20q2 12 4 42q1 18 1 74v454q0 56 -1 74q-2 31 -4 41q-3 13 -9 18q-7 5 -17 8v6h145v-6q-10 -3 -17 -8q-6 -5 -9 -18q-2 -10 -4 -41q-1 -18 -1 -74v-454q0 -55 1 -73q2 -30 4 -42q3 -14 9 -19q7 -5 17 -8v-6h-145v6zM93 892l106 -106l-4 -5
l-102 50l-101 -50l-4 5z" />
    <glyph glyph-name="Idieresis" unicode="&#xcf;" horiz-adv-x="185" 
d="M151 788v-1q-18 0 -30 12t-12 32q0 18 12 30t30 12t30 -12t12 -30q0 -19 -12 -31t-30 -12zM34 787v-1q-17 0 -29 12t-12 32q0 18 12 30t29 12q19 0 31 -12t12 -30q0 -19 -12 -31t-31 -12zM20 4v-2q10 3 17 8q6 4 9 20q2 12 4 42q1 18 1 74v454q0 56 -1 74q-2 31 -4 41
q-3 13 -9 18q-7 5 -17 8v6h145v-6q-10 -3 -17 -8q-6 -5 -9 -18q-2 -10 -4 -41q-1 -18 -1 -74v-454q0 -55 1 -73q2 -30 4 -42q3 -14 9 -19q7 -5 17 -8v-6h-145v6z" />
    <glyph glyph-name="Eth" unicode="&#xd0;" horiz-adv-x="421" 
d="M19 6l-1 -4q10 3 17 8q6 4 9 20q2 12 4 42q1 18 1 74v240h-51v8h51v206q0 56 -1 74q-2 30 -4 42q-3 16 -9 20q-7 5 -17 8v6h126q56 0 101 -21t78 -66t51 -114t18 -164q0 -184 -61 -284q-62 -101 -186 -101h-126v6zM144 4l-3 1q38 0 67 19q30 20 51 63t33 116
q12 72 12 179q0 111 -15 180t-39 108q-25 40 -52 53q-30 14 -54 14h-13v-345h90v-8h-90v-380h13z" />
    <glyph glyph-name="Ntilde" unicode="&#xd1;" horiz-adv-x="398" 
d="M20 6l-2 -3q10 4 17 11q6 6 9 20q2 10 4 41q1 18 1 74v450q0 56 -1 74q-2 30 -4 42q-3 16 -9 20q-7 5 -17 8v6h92q17 0 24 -5q6 -4 12 -18l192 -518v390q0 56 -1 74q-2 31 -4 41q-3 14 -11 20q-9 7 -21 11v6h80v-6q-10 -5 -17 -11q-6 -6 -9 -20q-2 -10 -4 -41
q-1 -18 -1 -74v-601h-16l-273 725v-570q0 -56 1 -74q1 -25 5 -41q3 -14 11 -20q9 -7 21 -11v-6h-79v6zM190 854l-3 2q19 0 40 -4t38 -4q7 0 15 6q9 7 23 27l7 -2q-11 -46 -24 -62q-14 -17 -27 -17q-17 0 -39 3t-38 3q-10 0 -17 -6q-8 -7 -24 -28l-6 2q24 80 55 80z" />
    <glyph glyph-name="Ograve" unicode="&#xd2;" horiz-adv-x="422" 
d="M211 -8h-2q-31 0 -63 24q-31 23 -58 72q-26 46 -43 120t-17 168q0 96 17 170q16 71 44 119q27 46 59 69t63 23q30 0 64 -23t59 -69t42 -119q17 -74 17 -170q0 -94 -17 -168q-16 -72 -42 -120q-25 -47 -59 -72q-33 -24 -64 -24zM209 2v-2q25 0 43 26q18 25 30 74
q12 48 18 117t6 156t-6 156t-18 117q-12 49 -30 74q-18 26 -43 26q-24 0 -42 -25q-18 -26 -30 -73q-12 -48 -18 -117t-6 -156t6 -156t18 -117q12 -49 30 -74q18 -26 42 -26zM153 815l-2 -1q-35 11 -35 39q0 11 7 18q8 8 21 8q10 0 17 -4q7 -5 18 -12l106 -75l-3 -6z" />
    <glyph glyph-name="Oacute" unicode="&#xd3;" horiz-adv-x="422" 
d="M211 -8h-2q-31 0 -63 24q-31 23 -58 72q-26 46 -43 120t-17 168q0 96 17 170q16 71 44 119q27 46 59 69t63 23q30 0 64 -23t59 -69t42 -119q17 -74 17 -170q0 -94 -17 -168q-16 -72 -42 -120q-25 -47 -59 -72q-33 -24 -64 -24zM209 2v-2q25 0 43 26q18 25 30 74
q12 48 18 117t6 156t-6 156t-18 117q-12 49 -30 74q-18 26 -43 26q-24 0 -42 -25q-18 -26 -30 -73q-12 -48 -18 -117t-6 -156t6 -156t18 -117q12 -49 30 -74q18 -26 42 -26zM140 788l104 75q10 7 18 12q7 4 17 4q14 0 21 -7t7 -18q0 -28 -35 -39l-129 -33z" />
    <glyph glyph-name="Ocircumflex" unicode="&#xd4;" horiz-adv-x="422" 
d="M211 -8h-2q-31 0 -63 24q-31 23 -58 72q-26 46 -43 120t-17 168q0 96 17 170q16 71 44 119q27 46 59 69t63 23q30 0 64 -23t59 -69t42 -119q17 -74 17 -170q0 -94 -17 -168q-16 -72 -42 -120q-25 -47 -59 -72q-33 -24 -64 -24zM209 2v-2q25 0 43 26q18 25 30 74
q12 48 18 117t6 156t-6 156t-18 117q-12 49 -30 74q-18 26 -43 26q-24 0 -42 -25q-18 -26 -30 -73q-12 -48 -18 -117t-6 -156t6 -156t18 -117q12 -49 30 -74q18 -26 42 -26zM209 892l106 -106l-4 -5l-102 50l-101 -50l-4 5z" />
    <glyph glyph-name="Otilde" unicode="&#xd5;" horiz-adv-x="422" 
d="M211 -8h-2q-31 0 -63 24q-31 23 -58 72q-26 46 -43 120t-17 168q0 96 17 170q16 71 44 119q27 46 59 69t63 23q30 0 64 -23t59 -69t42 -119q17 -74 17 -170q0 -94 -17 -168q-16 -72 -42 -120q-25 -47 -59 -72q-33 -24 -64 -24zM209 2v-2q25 0 43 26q18 25 30 74
q12 48 18 117t6 156t-6 156t-18 117q-12 49 -30 74q-18 26 -43 26q-24 0 -42 -25q-18 -26 -30 -73q-12 -48 -18 -117t-6 -156t6 -156t18 -117q12 -49 30 -74q18 -26 42 -26zM181 855l-3 2q19 0 40 -4t38 -4q8 0 15 6q9 7 23 27l7 -2q-11 -46 -24 -62q-14 -17 -27 -17
q-16 0 -39 3t-38 3q-9 0 -17 -6q-8 -7 -24 -28l-6 2q24 80 55 80z" />
    <glyph glyph-name="Odieresis" unicode="&#xd6;" horiz-adv-x="422" 
d="M211 -8h-2q-31 0 -63 24q-31 23 -58 72q-26 46 -43 120t-17 168q0 96 17 170q16 71 44 119q27 46 59 69t63 23q30 0 64 -23t59 -69t42 -119q17 -74 17 -170q0 -94 -17 -168q-16 -72 -42 -120q-25 -47 -59 -72q-33 -24 -64 -24zM209 2v-2q25 0 43 26q18 25 30 74
q12 48 18 117t6 156t-6 156t-18 117q-12 49 -30 74q-18 26 -43 26q-24 0 -42 -25q-18 -26 -30 -73q-12 -48 -18 -117t-6 -156t6 -156t18 -117q12 -49 30 -74q18 -26 42 -26zM280 786v-1q-19 0 -31 12t-12 32q0 18 12 30t31 12q17 0 29 -12t12 -30q0 -19 -12 -31t-29 -12z
M138 785v-1q-17 0 -29 12t-12 32q0 18 12 30t29 12q19 0 31 -12t12 -30q0 -19 -12 -31t-31 -12z" />
    <glyph glyph-name="multiply" unicode="&#xd7;" horiz-adv-x="276" 
d="M129 354l-104 113l9 9l103 -113l106 116l9 -9l-107 -115l107 -117l-9 -8l-106 115l-106 -114l-8 8z" />
    <glyph glyph-name="Oslash" unicode="&#xd8;" horiz-adv-x="424" 
d="M211 -8h-2q-41 0 -78 37l-13 -53l-10 3l15 59q-40 43 -69 128q-28 83 -28 210q0 96 17 170q16 71 44 119q27 46 59 69t63 23q23 0 44 -10q23 -11 42 -31l13 51l10 -4l-14 -57q37 -43 63 -125q26 -83 26 -205q0 -94 -17 -168q-16 -72 -42 -120q-25 -47 -59 -72
q-33 -24 -64 -24zM113 376l1 -2q0 -90 6 -160q6 -72 19 -118l142 560q-25 91 -72 91q-24 0 -42 -25q-18 -26 -30 -73q-12 -48 -18 -117t-6 -156zM210 0l-2 1q25 0 43 26q18 25 30 74q12 48 18 117t6 156q0 89 -4 146q-5 65 -15 113l-141 -558q23 -75 65 -75z" />
    <glyph glyph-name="Ugrave" unicode="&#xd9;" horiz-adv-x="369" 
d="M203 -10l-4 -2q-37 0 -66 9t-49 28t-31 51q-11 33 -11 75v450q0 56 -1 74q-2 31 -4 41q-3 14 -9 18q-7 6 -16 8v6h143v-6q-10 -3 -17 -8q-6 -4 -9 -18q-2 -10 -4 -41q-1 -18 -1 -74v-453q0 -77 23 -112q22 -34 68 -34q49 0 72 39q23 40 23 106v451q0 56 -1 74
q-2 31 -4 41q-3 14 -11 20q-9 7 -21 11v6h81v-6q-10 -5 -17 -11q-6 -6 -9 -20q-2 -10 -4 -41q-1 -18 -1 -74v-451q0 -73 -27 -115t-93 -42zM147 815l-2 -1q-35 11 -35 39q0 11 7 18q8 8 21 8q10 0 17 -4q7 -5 18 -12l106 -75l-3 -6z" />
    <glyph glyph-name="Uacute" unicode="&#xda;" horiz-adv-x="369" 
d="M203 -10l-4 -2q-37 0 -66 9t-49 28t-31 51q-11 33 -11 75v450q0 56 -1 74q-2 31 -4 41q-3 14 -9 18q-7 6 -16 8v6h143v-6q-10 -3 -17 -8q-6 -4 -9 -18q-2 -10 -4 -41q-1 -18 -1 -74v-453q0 -77 23 -112q22 -34 68 -34q49 0 72 39q23 40 23 106v451q0 56 -1 74
q-2 31 -4 41q-3 14 -11 20q-9 7 -21 11v6h81v-6q-10 -5 -17 -11q-6 -6 -9 -20q-2 -10 -4 -41q-1 -18 -1 -74v-451q0 -73 -27 -115t-93 -42zM134 788l104 75q10 7 18 12q7 4 17 4q14 0 21 -7t7 -18q0 -28 -35 -39l-129 -33z" />
    <glyph glyph-name="Ucircumflex" unicode="&#xdb;" horiz-adv-x="369" 
d="M203 -10l-4 -2q-37 0 -66 9t-49 28t-31 51q-11 33 -11 75v450q0 56 -1 74q-2 31 -4 41q-3 14 -9 18q-7 6 -16 8v6h143v-6q-10 -3 -17 -8q-6 -4 -9 -18q-2 -10 -4 -41q-1 -18 -1 -74v-453q0 -77 23 -112q22 -34 68 -34q49 0 72 39q23 40 23 106v451q0 56 -1 74
q-2 31 -4 41q-3 14 -11 20q-9 7 -21 11v6h81v-6q-10 -5 -17 -11q-6 -6 -9 -20q-2 -10 -4 -41q-1 -18 -1 -74v-451q0 -73 -27 -115t-93 -42zM203 892l106 -106l-4 -5l-102 50l-101 -50l-4 5z" />
    <glyph glyph-name="Udieresis" unicode="&#xdc;" horiz-adv-x="369" 
d="M203 -10l-4 -2q-37 0 -66 9t-49 28t-31 51q-11 33 -11 75v450q0 56 -1 74q-2 31 -4 41q-3 14 -9 18q-7 6 -16 8v6h143v-6q-10 -3 -17 -8q-6 -4 -9 -18q-2 -10 -4 -41q-1 -18 -1 -74v-453q0 -77 23 -112q22 -34 68 -34q49 0 72 39q23 40 23 106v451q0 56 -1 74
q-2 31 -4 41q-3 14 -11 20q-9 7 -21 11v6h81v-6q-10 -5 -17 -11q-6 -6 -9 -20q-2 -10 -4 -41q-1 -18 -1 -74v-451q0 -73 -27 -115t-93 -42zM274 786v-1q-19 0 -31 12t-12 32q0 18 12 30t31 12q17 0 29 -12t12 -30q0 -19 -12 -31t-29 -12zM132 785v-1q-17 0 -29 12t-12 32
q0 18 12 30t29 12q19 0 31 -12t12 -30q0 -19 -12 -31t-31 -12z" />
    <glyph glyph-name="Yacute" unicode="&#xdd;" horiz-adv-x="331" 
d="M102 6l1 -4q10 3 17 8q6 4 9 20q2 12 4 42q1 18 1 74v245l-80 235q-7 23 -12 44q-5 22 -10 32q-7 16 -13 23q-7 9 -18 18v6h134v-6q-11 -3 -15 -9q-4 -5 -4 -15q0 -9 3 -21q1 -5 4 -15.5t4 -13.5l83 -260l56 213q7 23 13 53q4 21 3 34q-2 13 -12 21t-30 12v6h91v-6
q-9 -4 -16 -9q-5 -4 -10 -17q-7 -18 -11 -33q-2 -7 -7 -26.5t-9 -32.5l-62 -222v-254q0 -55 1 -73q2 -30 4 -42q3 -14 9 -19q7 -5 17 -8v-6h-145v6zM119 786l104 75q11 7 18 12q7 4 17 4q14 0 21 -7t7 -18q0 -28 -35 -39l-129 -33z" />
    <glyph glyph-name="Thorn" unicode="&#xde;" horiz-adv-x="367" 
d="M20 6l-2 -5q10 3 17 8q6 4 9 20q2 12 4 42q1 18 1 74v454q0 56 -1 74q-2 31 -4 41q-3 14 -9 18q-7 5 -17 8v6h145v-6q-10 -3 -17 -8q-6 -4 -9 -18q-2 -10 -4 -41q-1 -18 -1 -74v-5h32q38 0 75 -8q35 -8 60 -28q25 -21 40 -55q15 -35 15 -90q0 -53 -15 -90
q-15 -38 -42 -62t-63 -36t-76 -12h-24v-65q0 -55 1 -73q2 -30 4 -42q3 -14 9 -19q7 -5 17 -8v-6h-145v6zM131 583v-366h21q16 0 37 6q20 6 39 26q18 19 30 56q12 36 12 95q0 61 -12 97t-28 55t-35 25q-18 6 -33 6h-31z" />
    <glyph glyph-name="germandbls" unicode="&#xdf;" horiz-adv-x="384" 
d="M128 90l-11 -7v-41q0 -15 3 -24t7 -12q5 -3 12 -6v-6h-120v6q10 3 14 6t7 12t3 24v41v366h-49v8q28 4 39 14q10 9 10 41v45q0 51 14 90q13 37 35 62q21 24 47 35q27 11 51 11q27 0 48 -7q23 -8 39 -22q17 -15 27 -36q10 -20 10 -49q0 -27 -9 -49q-10 -24 -22 -42
q-15 -22 -28 -36q-13 -15 -25 -33q-14 -24 -19 -42q-4 -15 -4 -33q0 -26 18 -58q19 -33 55 -75q30 -36 44 -54q16 -23 27 -42q11 -21 14 -37q3 -18 3 -38q0 -27 -9 -48q-9 -20 -23 -36q-13 -15 -31 -22q-19 -8 -34 -8q-18 0 -27 3q-6 2 -16 8q-5 3 -13 9q-5 4 -15 4
q-5 0 -10 -5q-4 -5 -6 -12h-9v122h9q13 -66 35 -94q21 -27 53 -27q26 0 38 22q12 23 12 46q0 18 -4 31q-4 14 -15 31q-13 20 -25 36q-14 18 -38 47q-20 23 -33 42t-21 36q-8 18 -11 33q-3 16 -3 36q0 21 6 39q5 16 14 35q8 18 18 32q14 20 20 31q33 53 33 130q0 29 -3 53
q-3 26 -10 41q-8 18 -19 26q-12 9 -32 9q-38 0 -54 -31q-17 -32 -17 -108v-523z" />
    <glyph glyph-name="agrave" unicode="&#xe0;" horiz-adv-x="326" 
d="M107 -5l-7 -8q-34 0 -58 24t-24 75q0 32 12 51q13 21 30 35t41 27q23 12 42 27h1q24 18 38 33q15 17 15 50v66q0 21 -2 43q-1 16 -6 25t-13 12q-9 3 -22 3q-19 0 -30 -10t-19 -39q-5 -17 -12 -26t-24 -9q-13 0 -21 9q-7 8 -7 20q0 10 6 22q5 11 20 22q14 11 35 17t53 6
q33 0 53 -4q22 -4 38 -17t23 -33q8 -22 8 -55v-232q0 -49 1 -65q2 -27 4 -36q3 -12 7 -16t12 -4q16 0 26 8l3 -5q-6 -6 -18 -12t-38 -6q-39 0 -54 18q-16 19 -17 42q-20 -22 -25 -27q-10 -10 -21 -18q-10 -7 -22 -10t-28 -3zM93 102l-1 -2q0 -97 41 -97q10 0 21 10
q14 13 41 42v213q-7 -16 -21 -28q-13 -11 -31 -25h-1q-18 -15 -27 -25q-10 -12 -15 -26q-4 -13 -6 -29q-1 -10 -1 -33zM96 610l-1 1q-20 20 -20 41q0 10 8 18t20 8q13 0 20 -9q8 -10 17 -26l63 -124l-6 -4z" />
    <glyph glyph-name="aacute" unicode="&#xe1;" horiz-adv-x="326" 
d="M107 -5l-7 -8q-34 0 -58 24t-24 75q0 32 12 51q13 21 30 35t41 27q23 12 42 27h1q24 18 38 33q15 17 15 50v66q0 21 -2 43q-1 16 -6 25t-13 12q-9 3 -22 3q-19 0 -30 -10t-19 -39q-5 -17 -12 -26t-24 -9q-13 0 -21 9q-7 8 -7 20q0 10 6 22q5 11 20 22q14 11 35 17t53 6
q33 0 53 -4q22 -4 38 -17t23 -33q8 -22 8 -55v-232q0 -49 1 -65q2 -27 4 -36q3 -12 7 -16t12 -4q16 0 26 8l3 -5q-6 -6 -18 -12t-38 -6q-39 0 -54 18q-16 19 -17 42q-20 -22 -25 -27q-10 -10 -21 -18q-10 -7 -22 -10t-28 -3zM93 102l-1 -2q0 -97 41 -97q10 0 21 10
q14 13 41 42v213q-7 -16 -21 -28q-13 -11 -31 -25h-1q-18 -15 -27 -25q-10 -12 -15 -26q-4 -13 -6 -29q-1 -10 -1 -33zM110 519l62 123q9 16 17 26q7 9 20 9q12 0 20 -8t8 -18q0 -21 -20 -41l-101 -95z" />
    <glyph glyph-name="acircumflex" unicode="&#xe2;" horiz-adv-x="326" 
d="M107 -5l-7 -8q-34 0 -58 24t-24 75q0 32 12 51q13 21 30 35t41 27q23 12 42 27h1q24 18 38 33q15 17 15 50v66q0 21 -2 43q-1 16 -6 25t-13 12q-9 3 -22 3q-19 0 -30 -10t-19 -39q-5 -17 -12 -26t-24 -9q-13 0 -21 9q-7 8 -7 20q0 10 6 22q5 11 20 22q14 11 35 17t53 6
q33 0 53 -4q22 -4 38 -17t23 -33q8 -22 8 -55v-232q0 -49 1 -65q2 -27 4 -36q3 -12 7 -16t12 -4q16 0 26 8l3 -5q-6 -6 -18 -12t-38 -6q-39 0 -54 18q-16 19 -17 42q-20 -22 -25 -27q-10 -10 -21 -18q-10 -7 -22 -10t-28 -3zM93 102l-1 -2q0 -97 41 -97q10 0 21 10
q14 13 41 42v213q-7 -16 -21 -28q-13 -11 -31 -25h-1q-18 -15 -27 -25q-10 -12 -15 -26q-4 -13 -6 -29q-1 -10 -1 -33zM156 686l95 -166l-7 -4l-88 87l-88 -87l-7 4z" />
    <glyph glyph-name="atilde" unicode="&#xe3;" horiz-adv-x="326" 
d="M107 -5l-7 -8q-34 0 -58 24t-24 75q0 32 12 51q13 21 30 35t41 27q23 12 42 27h1q24 18 38 33q15 17 15 50v66q0 21 -2 43q-1 16 -6 25t-13 12q-9 3 -22 3q-19 0 -30 -10t-19 -39q-5 -17 -12 -26t-24 -9q-13 0 -21 9q-7 8 -7 20q0 10 6 22q5 11 20 22q14 11 35 17t53 6
q33 0 53 -4q22 -4 38 -17t23 -33q8 -22 8 -55v-232q0 -49 1 -65q2 -27 4 -36q3 -12 7 -16t12 -4q16 0 26 8l3 -5q-6 -6 -18 -12t-38 -6q-39 0 -54 18q-16 19 -17 42q-20 -22 -25 -27q-10 -10 -21 -18q-10 -7 -22 -10t-28 -3zM93 102l-1 -2q0 -97 41 -97q10 0 21 10
q14 13 41 42v213q-7 -16 -21 -28q-13 -11 -31 -25h-1q-18 -15 -27 -25q-10 -12 -15 -26q-4 -13 -6 -29q-1 -10 -1 -33zM119 615l-1 -2q11 0 18 -1q14 -2 22 -3t22 -3q7 -1 18 -1q7 0 15 8q10 10 23 27l7 -3q-11 -45 -24 -63t-27 -18t-41 5t-40 5q-10 0 -18 -7q-8 -6 -25 -30
l-6 3q12 41 27 62t30 21z" />
    <glyph glyph-name="adieresis" unicode="&#xe4;" horiz-adv-x="326" 
d="M107 -5l-7 -8q-34 0 -58 24t-24 75q0 32 12 51q13 21 30 35t41 27q23 12 42 27h1q24 18 38 33q15 17 15 50v66q0 21 -2 43q-1 16 -6 25t-13 12q-9 3 -22 3q-19 0 -30 -10t-19 -39q-5 -17 -12 -26t-24 -9q-13 0 -21 9q-7 8 -7 20q0 10 6 22q5 11 20 22q14 11 35 17t53 6
q33 0 53 -4q22 -4 38 -17t23 -33q8 -22 8 -55v-232q0 -49 1 -65q2 -27 4 -36q3 -12 7 -16t12 -4q16 0 26 8l3 -5q-6 -6 -18 -12t-38 -6q-39 0 -54 18q-16 19 -17 42q-20 -22 -25 -27q-10 -10 -21 -18q-10 -7 -22 -10t-28 -3zM93 102l-1 -2q0 -97 41 -97q10 0 21 10
q14 13 41 42v213q-7 -16 -21 -28q-13 -11 -31 -25h-1q-18 -15 -27 -25q-10 -12 -15 -26q-4 -13 -6 -29q-1 -10 -1 -33zM222 545v-1q-18 0 -30 12t-12 32q0 18 12 30t30 12t30 -12t12 -30q0 -19 -12 -31t-30 -12zM90 544v-1q-18 0 -30 12t-12 32q0 18 12 30t30 12t30 -12
t12 -30q0 -19 -12 -31t-30 -12z" />
    <glyph glyph-name="aring" unicode="&#xe5;" horiz-adv-x="326" 
d="M107 -5l-7 -8q-34 0 -58 24t-24 75q0 32 12 51q13 21 30 35t41 27q23 12 42 27h1q24 18 38 33q15 17 15 50v66q0 21 -2 43q-1 16 -6 25t-13 12q-9 3 -22 3q-19 0 -30 -10t-19 -39q-5 -17 -12 -26t-24 -9q-13 0 -21 9q-7 8 -7 20q0 10 6 22q5 11 20 22q14 11 35 17t53 6
q33 0 53 -4q22 -4 38 -17t23 -33q8 -22 8 -55v-232q0 -49 1 -65q2 -27 4 -36q3 -12 7 -16t12 -4q16 0 26 8l3 -5q-6 -6 -18 -12t-38 -6q-39 0 -54 18q-16 19 -17 42q-20 -22 -25 -27q-10 -10 -21 -18q-10 -7 -22 -10t-28 -3zM93 102l-1 -2q0 -97 41 -97q10 0 21 10
q14 13 41 42v213q-7 -16 -21 -28q-13 -11 -31 -25h-1q-18 -15 -27 -25q-10 -12 -15 -26q-4 -13 -6 -29q-1 -10 -1 -33zM84 588v-2q0 28 21 48q22 20 50 20t50 -20q21 -20 21 -48q0 -30 -21 -49q-20 -19 -50 -19t-50 19q-21 19 -21 51zM118 586h-2q0 -26 10 -42
q11 -17 28 -17t28 17q10 16 10 42q0 25 -10 42q-10 18 -27 18t-27 -18q-10 -17 -10 -42z" />
    <glyph glyph-name="ae" unicode="&#xe6;" horiz-adv-x="487" 
d="M109 -5l-8 -5q-35 0 -59 24t-24 75q0 31 12 51q13 21 30 35t41 27q23 12 42 27h1q24 18 38 33q15 16 15 50v66q0 21 -2 43q-1 16 -6 25t-13 12q-9 3 -22 3q-19 0 -30 -10t-19 -39q-5 -17 -12 -26t-24 -9q-13 0 -21 9q-7 8 -7 20q0 10 6 22q5 11 20 22q14 11 35 17t53 6
q41 0 68 -9t41 -35q19 22 41 33t38 11q96 0 114 -163h-176q-1 -8 -1 -25v-27q0 -123 23 -189q22 -64 74 -64q25 0 42 11t26 20l6 -7q-9 -8 -28 -22q-17 -13 -51 -13q-46 0 -82 21q-35 20 -58 65l-16 -17q-24 -26 -31 -33q-13 -14 -24 -21q-11 -8 -23 -11t-29 -3zM338 461h-2
q-7 0 -16 -6t-18 -21q-8 -14 -16 -43q-7 -26 -10 -73h106q2 75 -10 108q-12 35 -34 35zM90 105l-2 -2q0 -97 40 -97q4 0 12 2q6 1 14 8q10 8 20 18q18 18 29 30l15 16q-26 58 -26 145v46q-7 -16 -21 -28q-13 -11 -31 -25h-1q-18 -15 -27 -25q-10 -12 -15 -26q-4 -13 -6 -29
q-1 -10 -1 -33z" />
    <glyph glyph-name="ccedilla" unicode="&#xe7;" horiz-adv-x="296" 
d="M195 -5l-6 -6q-34 0 -64 15q-31 15 -53 45t-36 75q-13 43 -13 107q0 56 15 101q15 46 37 75q23 30 50 47q26 16 52 16q18 0 33 -4q18 -5 30 -13t22 -21q9 -12 9 -27q0 -13 -9 -22t-22 -9q-30 0 -36 41q-3 24 -6 35q-3 12 -20 12q-19 0 -32 -16q-15 -18 -23 -46
q-10 -33 -14 -70q-5 -45 -5 -88q0 -114 26 -175q26 -60 71 -60q28 0 46 12q20 13 29 25l8 -7q-11 -13 -31 -27q-21 -15 -58 -15zM183 -6l-18 -39q28 -3 52 -18t24 -43q0 -26 -28 -45q-29 -20 -100 -21l-1 8q42 4 62 17q20 12 20 29t-18 23q-20 7 -35 8l-3 5l34 76h11z" />
    <glyph glyph-name="egrave" unicode="&#xe8;" horiz-adv-x="304" 
d="M194 -5l-2 2q-36 0 -69 14q-31 13 -54 42t-35 74t-12 107q0 60 15 105q15 46 37 75t47 45q24 15 45 15q97 0 115 -163h-178q-1 -8 -1 -25v-27q0 -123 23 -189q22 -64 75 -64q25 0 42 11q16 11 26 20l6 -7q-9 -8 -28 -22q-17 -13 -52 -13zM165 468h-1q-8 0 -17 -6t-18 -21
q-8 -14 -16 -43q-7 -26 -10 -73h109q0 73 -12 108t-35 35zM106 622l-1 1q-20 20 -20 41q0 10 8 18t20 8q13 0 20 -9q8 -10 17 -26l63 -124l-6 -4z" />
    <glyph glyph-name="eacute" unicode="&#xe9;" horiz-adv-x="304" 
d="M194 -5l-2 2q-36 0 -69 14q-31 13 -54 42t-35 74t-12 107q0 60 15 105q15 46 37 75t47 45q24 15 45 15q97 0 115 -163h-178q-1 -8 -1 -25v-27q0 -123 23 -189q22 -64 75 -64q25 0 42 11q16 11 26 20l6 -7q-9 -8 -28 -22q-17 -13 -52 -13zM165 468h-1q-8 0 -17 -6t-18 -21
q-8 -14 -16 -43q-7 -26 -10 -73h109q0 73 -12 108t-35 35zM120 531l62 123q9 16 17 26q7 9 20 9q12 0 20 -8t8 -18q0 -21 -20 -41l-101 -95z" />
    <glyph glyph-name="ecircumflex" unicode="&#xea;" horiz-adv-x="304" 
d="M194 -5l-2 2q-36 0 -69 14q-31 13 -54 42t-35 74t-12 107q0 60 15 105q15 46 37 75t47 45q24 15 45 15q97 0 115 -163h-178q-1 -8 -1 -25v-27q0 -123 23 -189q22 -64 75 -64q25 0 42 11q16 11 26 20l6 -7q-9 -8 -28 -22q-17 -13 -52 -13zM165 468h-1q-8 0 -17 -6t-18 -21
q-8 -14 -16 -43q-7 -26 -10 -73h109q0 73 -12 108t-35 35zM167 698l95 -166l-7 -4l-88 87l-88 -87l-7 4z" />
    <glyph glyph-name="edieresis" unicode="&#xeb;" horiz-adv-x="304" 
d="M194 -5l-2 2q-36 0 -69 14q-31 13 -54 42t-35 74t-12 107q0 60 15 105q15 46 37 75t47 45q24 15 45 15q97 0 115 -163h-178q-1 -8 -1 -25v-27q0 -123 23 -189q22 -64 75 -64q25 0 42 11q16 11 26 20l6 -7q-9 -8 -28 -22q-17 -13 -52 -13zM165 468h-1q-8 0 -17 -6t-18 -21
q-8 -14 -16 -43q-7 -26 -10 -73h109q0 73 -12 108t-35 35zM233 557v-1q-18 0 -30 12t-12 32q0 18 12 30t30 12t30 -12t12 -30q0 -19 -12 -31t-30 -12zM101 556v-1q-18 0 -30 12t-12 32q0 18 12 30t30 12t30 -12t12 -30q0 -19 -12 -31t-30 -12z" />
    <glyph glyph-name="igrave" unicode="&#xec;" 
d="M22 6v-1q9 3 16 6q6 3 9 12t3 24v41v243q0 27 -1 36q-2 15 -4 21q-3 7 -9 10q-8 4 -16 5v7l104 65v-386v-41q0 -15 3 -24t9 -12q7 -3 16 -6v-6h-130v6zM25 619l-1 1q-20 20 -20 41q0 10 8 18t20 8t20 -9q8 -10 17 -26l63 -124l-6 -4z" />
    <glyph glyph-name="iacute" unicode="&#xed;" 
d="M22 6v-1q9 3 16 6q6 3 9 12t3 24v41v243q0 27 -1 36q-2 15 -4 21q-3 7 -9 10q-8 4 -16 5v7l104 65v-386v-41q0 -15 3 -24t9 -12q7 -3 16 -6v-6h-130v6zM39 528l62 123q9 16 17 26q8 9 20 9t20 -8t8 -18q0 -21 -20 -41l-101 -95z" />
    <glyph glyph-name="icircumflex" unicode="&#xee;" 
d="M22 6v-1q9 3 16 6q6 3 9 12t3 24v41v243q0 27 -1 36q-2 15 -4 21q-3 7 -9 10q-8 4 -16 5v7l104 65v-386v-41q0 -15 3 -24t9 -12q7 -3 16 -6v-6h-130v6zM85 695l95 -166l-7 -4l-88 87l-88 -87l-7 4z" />
    <glyph glyph-name="idieresis" unicode="&#xef;" 
d="M142 555v-1q-18 0 -30 12t-12 32q0 18 12 30t30 12t30 -12t12 -30q0 -19 -12 -31t-30 -12zM26 554v-1q-18 0 -30 12t-12 32q0 18 12 30t30 12t30 -12t12 -30q0 -19 -12 -31t-30 -12zM22 4v-1q9 3 16 6q6 3 9 12t3 24v41v243q0 27 -1 36q-2 15 -4 21q-3 7 -9 10
q-8 4 -16 5v7l104 65v-386v-41q0 -15 3 -24t9 -12q7 -3 16 -6v-6h-130v6z" />
    <glyph glyph-name="eth" unicode="&#xf0;" horiz-adv-x="360" 
d="M334 295l-5 -1q0 -83 -15 -140q-15 -58 -37 -93t-50 -52q-26 -16 -52 -16q-25 0 -52 15q-28 15 -50 45q-22 29 -37 75q-15 45 -15 104q0 62 15 108q14 44 38 76q22 30 50 45q27 15 53 15q35 0 67 -22q-4 45 -17 89q-13 45 -31 80l-82 -44l-5 7l83 44q-41 77 -106 129l4 4
q45 -25 77 -54q35 -32 59 -63l82 44l4 -8l-81 -43q59 -77 81 -166q22 -88 22 -178zM174 1h-1q34 0 55 53q21 52 21 176q0 67 -6 112t-15 72q-9 26 -23 39q-13 12 -30 12t-30 -12t-24 -39q-10 -25 -16 -72q-6 -45 -6 -112q0 -124 21 -176q21 -53 54 -53z" />
    <glyph glyph-name="ntilde" unicode="&#xf1;" horiz-adv-x="375" 
d="M23 6l3 -4q10 3 14 6t7 12t3 24v41v243q0 29 -1 38q-2 15 -4 21q-3 7 -9 10q-5 2 -16 4v7l105 65v-79q22 23 42 40q18 15 33 24t27 12t23 3q12 0 24 -4q14 -5 27 -15q12 -10 22 -29q9 -18 9 -46v-289v-41q0 -12 2 -24q2 -9 6 -12t14 -6v-6h-128v6q9 3 16 6q6 3 9 12t3 24
v41v302q0 34 -9 48t-25 14q-7 0 -12 -1q-7 -1 -19 -9q-10 -6 -28 -21q-17 -13 -39 -39v-295v-41q0 -15 3 -24t9 -12q7 -3 16 -6v-6h-127v6zM157 621l-1 -2q11 0 18 -1q14 -2 22 -3t22 -3q7 -1 18 -1q7 0 15 8q10 10 23 27l7 -3q-11 -45 -24 -63t-27 -18t-41 5t-40 5
q-10 0 -18 -7q-8 -6 -25 -30l-6 3q12 41 27 62t30 21z" />
    <glyph glyph-name="ograve" unicode="&#xf2;" horiz-adv-x="358" 
d="M179 -6l-4 -1q-25 0 -52 15q-28 15 -50 45q-22 29 -37 75q-15 45 -15 104q0 62 15 108q14 44 38 76q22 30 50 45q27 15 53 15t53 -15q28 -15 50 -45q24 -32 38 -76q15 -46 15 -108q0 -58 -15 -103q-15 -46 -37 -75q-22 -30 -50 -45q-27 -15 -52 -15zM175 1h-1q34 0 55 53
q21 52 21 176q0 67 -6 112t-15 72q-9 26 -23 39q-14 12 -30 12t-30 -12t-24 -39q-10 -25 -16 -72q-6 -45 -6 -112q0 -124 21 -176q21 -53 54 -53zM114 619l-1 1q-20 20 -20 41q0 10 8 18t20 8q13 0 20 -9q8 -10 17 -26l63 -124l-6 -4z" />
    <glyph glyph-name="oacute" unicode="&#xf3;" horiz-adv-x="358" 
d="M179 -6l-4 -1q-25 0 -52 15q-28 15 -50 45q-22 29 -37 75q-15 45 -15 104q0 62 15 108q14 44 38 76q22 30 50 45q27 15 53 15t53 -15q28 -15 50 -45q24 -32 38 -76q15 -46 15 -108q0 -58 -15 -103q-15 -46 -37 -75q-22 -30 -50 -45q-27 -15 -52 -15zM175 1h-1q34 0 55 53
q21 52 21 176q0 67 -6 112t-15 72q-9 26 -23 39q-14 12 -30 12t-30 -12t-24 -39q-10 -25 -16 -72q-6 -45 -6 -112q0 -124 21 -176q21 -53 54 -53zM128 528l62 123q9 16 17 26q7 9 20 9q12 0 20 -8t8 -18q0 -21 -20 -41l-101 -95z" />
    <glyph glyph-name="ocircumflex" unicode="&#xf4;" horiz-adv-x="358" 
d="M179 -6l-4 -1q-25 0 -52 15q-28 15 -50 45q-22 29 -37 75q-15 45 -15 104q0 62 15 108q14 44 38 76q22 30 50 45q27 15 53 15t53 -15q28 -15 50 -45q24 -32 38 -76q15 -46 15 -108q0 -58 -15 -103q-15 -46 -37 -75q-22 -30 -50 -45q-27 -15 -52 -15zM175 1h-1q34 0 55 53
q21 52 21 176q0 67 -6 112t-15 72q-9 26 -23 39q-14 12 -30 12t-30 -12t-24 -39q-10 -25 -16 -72q-6 -45 -6 -112q0 -124 21 -176q21 -53 54 -53zM174 695l95 -166l-7 -4l-88 87l-88 -87l-7 4z" />
    <glyph glyph-name="otilde" unicode="&#xf5;" horiz-adv-x="358" 
d="M179 -6l-4 -1q-25 0 -52 15q-28 15 -50 45q-22 29 -37 75q-15 45 -15 104q0 62 15 108q14 44 38 76q22 30 50 45q27 15 53 15t53 -15q28 -15 50 -45q24 -32 38 -76q15 -46 15 -108q0 -58 -15 -103q-15 -46 -37 -75q-22 -30 -50 -45q-27 -15 -52 -15zM175 1h-1q34 0 55 53
q21 52 21 176q0 67 -6 112t-15 72q-9 26 -23 39q-14 12 -30 12t-30 -12t-24 -39q-10 -25 -16 -72q-6 -45 -6 -112q0 -124 21 -176q21 -53 54 -53zM137 624l-1 -2q11 0 18 -1q14 -2 22 -3t22 -3q7 -1 18 -1q7 0 15 8q10 10 23 27l7 -3q-11 -45 -24 -63t-27 -18t-41 5t-40 5
q-10 0 -18 -7q-8 -6 -25 -30l-6 3q12 41 27 62t30 21z" />
    <glyph glyph-name="odieresis" unicode="&#xf6;" horiz-adv-x="358" 
d="M179 -6l-4 -1q-25 0 -52 15q-28 15 -50 45q-22 29 -37 75q-15 45 -15 104q0 62 15 108q14 44 38 76q22 30 50 45q27 15 53 15t53 -15q28 -15 50 -45q24 -32 38 -76q15 -46 15 -108q0 -58 -15 -103q-15 -46 -37 -75q-22 -30 -50 -45q-27 -15 -52 -15zM175 1h-1q34 0 55 53
q21 52 21 176q0 67 -6 112t-15 72q-9 26 -23 39q-14 12 -30 12t-30 -12t-24 -39q-10 -25 -16 -72q-6 -45 -6 -112q0 -124 21 -176q21 -53 54 -53zM240 554v-1q-18 0 -30 12t-12 32q0 18 12 30t30 12t30 -12t12 -30q0 -19 -12 -31t-30 -12zM108 553v-1q-18 0 -30 12t-12 32
q0 18 12 30t30 12t30 -12t12 -30q0 -19 -12 -31t-30 -12z" />
    <glyph glyph-name="divide" unicode="&#xf7;" horiz-adv-x="310" 
d="M112 478l-1 -1q0 20 12 32t32 12q17 0 31 -12q13 -12 13 -31q0 -18 -13 -31t-31 -13q-19 0 -31 13t-12 31zM26 356h257v-12h-257v12zM111 220l-1 -1q0 17 12 31q12 13 32 13q18 0 31 -13t13 -31q0 -19 -13 -31t-31 -12q-19 0 -31 12t-12 32z" />
    <glyph glyph-name="oslash" unicode="&#xf8;" horiz-adv-x="358" 
d="M179 2v-2q34 0 55 53q21 52 21 176q0 68 -4 105q-5 45 -13 71l-110 -356l-4 14l109 356q-11 25 -24 35q-14 11 -30 11q-17 0 -30 -12t-24 -39q-10 -25 -16 -72q-6 -45 -6 -112q0 -110 18 -166l-14 -44q2 -2 3 -2t3 -2l-10 -31l-8 4l10 32q-34 27 -60 80q-25 51 -25 131
q0 62 15 108q14 44 38 76q22 30 50 45q27 15 53 15q31 0 63 -20l-10 -33q5 -7 6 -15l13 41l-8 6l8 25l8 -4l-8 -27q35 -26 60 -79t25 -138q0 -58 -15 -103q-15 -46 -37 -75q-22 -30 -50 -45q-27 -15 -52 -15q-32 0 -63 22l10 35q19 -49 53 -49z" />
    <glyph glyph-name="ugrave" unicode="&#xf9;" horiz-adv-x="360" 
d="M137 -8l7 -2q-15 0 -33 5q-16 4 -30 17q-13 12 -22 31t-9 48v248q0 25 -1 33q-2 13 -4 18q-3 6 -9 9q-5 2 -16 4v7l104 65v-391q0 -41 10 -58q10 -18 27 -18q3 0 11 2q5 1 15 8q11 7 23 18q13 12 31 31v272q0 25 -1 33q-2 13 -4 18q-3 6 -9 9q-5 2 -16 4v7l105 65v-386
v-41q0 -12 2 -24q2 -9 6 -12t14 -6v-6h-100v57q-24 -24 -33 -32q-17 -15 -25 -20q-11 -7 -22 -10q-10 -3 -21 -3zM130 618l-1 1q-20 20 -20 41q0 10 8 18t20 8q13 0 20 -9q8 -10 17 -26l63 -124l-6 -4z" />
    <glyph glyph-name="uacute" unicode="&#xfa;" horiz-adv-x="360" 
d="M137 -8l7 -2q-15 0 -33 5q-16 4 -30 17q-13 12 -22 31t-9 48v248q0 25 -1 33q-2 13 -4 18q-3 6 -9 9q-5 2 -16 4v7l104 65v-391q0 -41 10 -58q10 -18 27 -18q3 0 11 2q5 1 15 8q11 7 23 18q13 12 31 31v272q0 25 -1 33q-2 13 -4 18q-3 6 -9 9q-5 2 -16 4v7l105 65v-386
v-41q0 -12 2 -24q2 -9 6 -12t14 -6v-6h-100v57q-24 -24 -33 -32q-17 -15 -25 -20q-11 -7 -22 -10q-10 -3 -21 -3zM145 527l62 123q9 16 17 26q8 9 20 9t20 -8t8 -18q0 -21 -20 -41l-101 -95z" />
    <glyph glyph-name="ucircumflex" unicode="&#xfb;" horiz-adv-x="360" 
d="M137 -8l7 -2q-15 0 -33 5q-16 4 -30 17q-13 12 -22 31t-9 48v248q0 25 -1 33q-2 13 -4 18q-3 6 -9 9q-5 2 -16 4v7l104 65v-391q0 -41 10 -58q10 -18 27 -18q3 0 11 2q5 1 15 8q11 7 23 18q13 12 31 31v272q0 25 -1 33q-2 13 -4 18q-3 6 -9 9q-5 2 -16 4v7l105 65v-386
v-41q0 -12 2 -24q2 -9 6 -12t14 -6v-6h-100v57q-24 -24 -33 -32q-17 -15 -25 -20q-11 -7 -22 -10q-10 -3 -21 -3zM191 694l95 -166l-7 -4l-88 87l-88 -87l-7 4z" />
    <glyph glyph-name="udieresis" unicode="&#xfc;" horiz-adv-x="360" 
d="M137 -8l7 -2q-15 0 -33 5q-16 4 -30 17q-13 12 -22 31t-9 48v248q0 25 -1 33q-2 13 -4 18q-3 6 -9 9q-5 2 -16 4v7l104 65v-391q0 -41 10 -58q10 -18 27 -18q3 0 11 2q5 1 15 8q11 7 23 18q13 12 31 31v272q0 25 -1 33q-2 13 -4 18q-3 6 -9 9q-5 2 -16 4v7l105 65v-386
v-41q0 -12 2 -24q2 -9 6 -12t14 -6v-6h-100v57q-24 -24 -33 -32q-17 -15 -25 -20q-11 -7 -22 -10q-10 -3 -21 -3zM257 553v-1q-18 0 -30 12t-12 32q0 18 12 30t30 12t30 -12t12 -30q0 -19 -12 -31t-30 -12zM125 552v-1q-18 0 -30 12t-12 32q0 18 12 30t30 12t30 -12t12 -30
q0 -19 -12 -31t-30 -12z" />
    <glyph glyph-name="yacute" unicode="&#xfd;" horiz-adv-x="305" 
d="M33 -171l-2 -4q-20 0 -29 9t-9 22t9 22t26 9q16 0 25 -6t20 -6t25 18q13 17 34 70l11 41l-96 351q-10 37 -15 53q-7 24 -10 30q-4 10 -9 15q-4 4 -12 7v6h130v-6q-10 -1 -16 -6q-5 -4 -7 -15t3 -30t12 -51l56 -229l58 205q13 44 17 65q4 24 3 36q-2 13 -9 17q-8 5 -19 6
v6h75v-6q-9 -4 -15 -9q-6 -4 -10 -16q-3 -8 -12 -35q-3 -9 -19 -63l-105 -371q-30 -76 -55 -105q-26 -30 -55 -30zM123 525l62 123q9 16 17 26q8 9 20 9t20 -8t8 -18q0 -21 -20 -41l-101 -95z" />
    <glyph glyph-name="thorn" unicode="&#xfe;" horiz-adv-x="367" 
d="M21 -160l-1 -4q10 3 14 6t7 12t3 24v41v726q0 29 -1 38q-2 15 -4 20q-3 7 -9 8q-8 2 -16 2v6l107 52v-376q19 24 33 39q15 16 24 23q12 9 18 11q7 3 17 3q20 0 41 -10q22 -11 42 -36q20 -26 33 -67q14 -44 14 -105t-12 -111q-12 -48 -35 -82q-22 -33 -54 -51t-69 -18
q-19 0 -33 9q-15 10 -21 16v-93v-41q0 -15 3 -24t9 -12t15 -6v-6h-125v6zM201 456v1q-4 0 -10 -3q-7 -4 -15 -10q-13 -11 -23 -22q-5 -6 -17 -20t-17 -19v-358q8 -8 20 -17t35 -9q40 0 66 56q25 54 25 180q0 56 -5 103q-4 41 -14 68q-9 26 -21 38t-24 12z" />
    <glyph glyph-name="ydieresis" unicode="&#xff;" horiz-adv-x="305" 
d="M33 -171l-2 -4q-20 0 -29 9t-9 22t9 22t26 9q16 0 25 -6t20 -6t25 18q13 17 34 70l11 41l-96 351q-10 37 -15 53q-7 24 -10 30q-4 10 -9 15q-4 4 -12 7v6h130v-6q-10 -1 -16 -6q-5 -4 -7 -15t3 -30t12 -51l56 -229l58 205q13 44 17 65q4 24 3 36q-2 13 -9 17q-8 5 -19 6
v6h75v-6q-9 -4 -15 -9q-6 -4 -10 -16q-3 -8 -12 -35q-3 -9 -19 -63l-105 -371q-30 -76 -55 -105q-26 -30 -55 -30zM235 551v-1q-18 0 -30 12t-12 32q0 18 12 30t30 12t30 -12t12 -30q0 -19 -12 -31t-30 -12zM103 550v-1q-18 0 -30 12t-12 32q0 18 12 30t30 12t30 -12t12 -30
q0 -19 -12 -31t-30 -12z" />
    <glyph glyph-name="Amacron" unicode="&#x100;" horiz-adv-x="336" 
d="M-1 5l-7 -1q8 5 14 12q5 6 10 21q6 17 8 34q1 6 3.5 24t4.5 29l86 556q-6 37 -17 50q-11 12 -21 15v5h93q7 0 11 -2t5 -12l101 -609q4 -30 9 -52t9 -35q5 -15 10 -21q6 -7 15 -12v-6h-129v6q7 1 13 6q7 5 8 12q2 10 2 21q0 14 -3 36l-23 139h-139l-15 -95q-5 -33 -6 -54
q-2 -22 1 -34q3 -14 9 -21t20 -12v-5h-72v5zM194 228l-71 419l-65 -419h136zM218 793h-160v35h160v-35z" />
    <glyph glyph-name="amacron" unicode="&#x101;" horiz-adv-x="326" 
d="M107 -5l-7 -8q-34 0 -58 24t-24 75q0 32 12 51q13 21 30 35t41 27q23 12 42 27h1q24 18 38 33q15 17 15 50v66q0 21 -2 43q-1 16 -6 25t-13 12q-9 3 -22 3q-19 0 -30 -10t-19 -39q-5 -17 -12 -26t-24 -9q-13 0 -21 9q-7 8 -7 20q0 10 6 22q5 11 20 22q14 11 35 17t53 6
q33 0 53 -4q22 -4 38 -17t23 -33q8 -22 8 -55v-232q0 -49 1 -65q2 -27 4 -36q3 -12 7 -16t12 -4q16 0 26 8l3 -5q-6 -6 -18 -12t-38 -6q-39 0 -54 18q-16 19 -17 42q-20 -22 -25 -27q-10 -10 -21 -18q-10 -7 -22 -10t-28 -3zM93 102l-1 -2q0 -97 41 -97q10 0 21 10
q14 13 41 42v213q-7 -16 -21 -28q-13 -11 -31 -25h-1q-18 -15 -27 -25q-10 -12 -15 -26q-4 -13 -6 -29q-1 -10 -1 -33zM232 590v-34h-151v34h151z" />
    <glyph glyph-name="Abreve" unicode="&#x102;" horiz-adv-x="336" 
d="M-1 5l-7 -1q8 5 14 12q5 6 10 21q6 17 8 34q1 6 3.5 24t4.5 29l86 556q-6 37 -17 50q-11 12 -21 15v5h93q7 0 11 -2t5 -12l101 -609q4 -30 9 -52t9 -35q5 -15 10 -21q6 -7 15 -12v-6h-129v6q7 1 13 6q7 5 8 12q2 10 2 21q0 14 -3 36l-23 139h-139l-15 -95q-5 -33 -6 -54
q-2 -22 1 -34q3 -14 9 -21t20 -12v-5h-72v5zM194 228l-71 419l-65 -419h136zM139 836v-2q28 0 44 11q15 10 21 29h9q-1 -33 -20 -61q-18 -27 -54 -27q-35 0 -54 27t-21 63h9q4 -16 21 -28q16 -12 45 -12z" />
    <glyph glyph-name="abreve" unicode="&#x103;" horiz-adv-x="326" 
d="M107 -5l-7 -8q-34 0 -58 24t-24 75q0 32 12 51q13 21 30 35t41 27q23 12 42 27h1q24 18 38 33q15 17 15 50v66q0 21 -2 43q-1 16 -6 25t-13 12q-9 3 -22 3q-19 0 -30 -10t-19 -39q-5 -17 -12 -26t-24 -9q-13 0 -21 9q-7 8 -7 20q0 10 6 22q5 11 20 22q14 11 35 17t53 6
q33 0 53 -4q22 -4 38 -17t23 -33q8 -22 8 -55v-232q0 -49 1 -65q2 -27 4 -36q3 -12 7 -16t12 -4q16 0 26 8l3 -5q-6 -6 -18 -12t-38 -6q-39 0 -54 18q-16 19 -17 42q-20 -22 -25 -27q-10 -10 -21 -18q-10 -7 -22 -10t-28 -3zM93 102l-1 -2q0 -97 41 -97q10 0 21 10
q14 13 41 42v213q-7 -16 -21 -28q-13 -11 -31 -25h-1q-18 -15 -27 -25q-10 -12 -15 -26q-4 -13 -6 -29q-1 -10 -1 -33zM157 581h1q28 0 42 11t20 32h9q-2 -38 -19 -64q-18 -27 -53 -27t-54 27q-19 26 -19 65h9q5 -20 20 -32t44 -12z" />
    <glyph glyph-name="Aogonek" unicode="&#x104;" horiz-adv-x="336" 
d="M-1 5l-2 -2q8 5 14 12q5 6 10 21q5 16 8 34q1 6 3.5 24t4.5 29l86 556q-8 38 -18 50q-11 12 -21 15v5h93q7 0 11 -2t5 -12l101 -609q4 -30 9 -52t9 -35q5 -15 10 -21q6 -8 15 -12v-6h-71q-29 0 -46 -29q-16 -28 -16 -66q0 -18 8 -31q8 -12 24 -12q13 0 20 4q8 4 15 12
l5 -5q-3 -5 -9 -12q-7 -9 -15 -14q-11 -7 -21 -11q-11 -4 -27 -4q-30 0 -47 17t-17 42q0 21 9 39q9 19 24 32q14 12 32 24q15 9 32 18l-37 217h-138l-15 -95q-5 -33 -6 -54q-2 -22 1 -34q3 -14 9 -21t20 -12v-5h-72v5zM199 227l-71 419l-65 -419h136z" />
    <glyph glyph-name="aogonek" unicode="&#x105;" horiz-adv-x="326" 
d="M107 -5l-5 -9q-34 0 -58 24t-24 75q0 31 12 51q13 21 30 35t41 27q23 12 42 27h1q24 18 38 33q15 16 15 50v66q0 21 -2 43q-1 16 -6 25t-13 12q-9 3 -22 3q-19 0 -30 -10t-19 -39q-5 -17 -12 -26t-24 -9q-13 0 -21 9q-7 8 -7 20q0 10 6 22q5 11 20 22q14 11 35 17t53 6
q33 0 53 -4q22 -4 38 -17t23 -33q8 -22 8 -55v-232q0 -49 1 -65q2 -27 4 -36q3 -12 7 -16t12 -4q16 0 26 8l3 -5q-5 -5 -7 -6q-1 0 -5 -3t-8 -5q-24 -14 -39 -39t-15 -60q0 -15 8 -28q8 -12 24 -12q13 0 20 4q8 5 15 12l6 -5l-10 -12q-7 -9 -15 -14q-11 -7 -21 -11
q-11 -4 -27 -4q-31 0 -48 17q-16 16 -16 42q0 20 9 36t24 30q16 15 31 24t32 18q-10 -2 -18 -2q-34 0 -51 18t-18 43q-20 -22 -25 -27q-10 -10 -21 -18q-10 -7 -22 -10t-28 -3zM95 101l-1 -2q0 -97 41 -97q10 0 21 10q14 13 41 42v213q-7 -16 -21 -28q-13 -11 -31 -25h-1
q-18 -15 -27 -25q-10 -12 -15 -26q-4 -13 -6 -29q-1 -10 -1 -33z" />
    <glyph glyph-name="Cacute" unicode="&#x106;" horiz-adv-x="343" 
d="M227 -7l1 -6q-35 0 -68 16q-34 16 -64 60q-29 43 -49 121q-19 76 -19 201q0 109 18 180t45 113q27 43 57 59q31 17 56 17q15 0 25 -3q12 -3 19 -7q3 -2 8 -4t7 -3q6 -3 14 -3q20 0 27 28h10v-153h-10q-10 43 -24 70t-27 42t-27 21q-13 6 -25 6q-19 0 -36 -18
q-17 -19 -29 -60q-11 -39 -19 -111q-7 -64 -7 -169q0 -106 11 -183q11 -75 28 -118q18 -46 40 -63q23 -18 47 -18q30 0 47 13q19 15 35 33l7 -6q-13 -19 -37 -37t-61 -18zM135 784l104 75q11 7 18 12q7 4 17 4q14 0 21 -7t7 -18q0 -28 -35 -39l-129 -33z" />
    <glyph glyph-name="cacute" unicode="&#x107;" horiz-adv-x="296" 
d="M195 -5l-6 -6q-34 0 -64 15q-31 15 -53 45t-36 75q-13 43 -13 107q0 56 15 101q15 46 37 75q23 30 50 47q26 16 52 16q18 0 33 -4q18 -5 30 -13t22 -21q9 -12 9 -27q0 -13 -9 -22t-22 -9q-30 0 -36 41q-3 24 -6 35q-3 12 -20 12q-19 0 -32 -16q-15 -18 -23 -46
q-10 -33 -14 -70q-5 -45 -5 -88q0 -114 26 -175q26 -60 71 -60q28 0 46 12q20 13 29 25l8 -7q-11 -13 -31 -27q-21 -15 -58 -15zM128 523l62 123q9 16 17 26q7 9 20 9q12 0 20 -8t8 -18q0 -21 -20 -41l-101 -95z" />
    <glyph glyph-name="Ccircumflex" unicode="&#x108;" horiz-adv-x="343" 
d="M227 -7l1 -6q-35 0 -68 16q-34 16 -64 60q-29 43 -49 121q-19 76 -19 201q0 109 18 180t45 113q27 43 57 59q31 17 56 17q15 0 25 -3q12 -3 19 -7q3 -2 8 -4t7 -3q6 -3 14 -3q20 0 27 28h10v-153h-10q-10 43 -24 70t-27 42t-27 21q-13 6 -25 6q-19 0 -36 -18
q-17 -19 -29 -60q-11 -39 -19 -111q-7 -64 -7 -169q0 -106 11 -183q11 -75 28 -118q18 -46 40 -63q23 -18 47 -18q30 0 47 13q19 15 35 33l7 -6q-13 -19 -37 -37t-61 -18zM204 888l106 -106l-4 -5l-102 50l-101 -50l-4 5z" />
    <glyph glyph-name="ccircumflex" unicode="&#x109;" horiz-adv-x="296" 
d="M195 -5l-6 -6q-34 0 -64 15q-31 15 -53 45t-36 75q-13 43 -13 107q0 56 15 101q15 46 37 75q23 30 50 47q26 16 52 16q18 0 33 -4q18 -5 30 -13t22 -21q9 -12 9 -27q0 -13 -9 -22t-22 -9q-30 0 -36 41q-3 24 -6 35q-3 12 -20 12q-19 0 -32 -16q-15 -18 -23 -46
q-10 -33 -14 -70q-5 -45 -5 -88q0 -114 26 -175q26 -60 71 -60q28 0 46 12q20 13 29 25l8 -7q-11 -13 -31 -27q-21 -15 -58 -15zM174 690l95 -166l-7 -4l-88 87l-88 -87l-7 4z" />
    <glyph glyph-name="Cdotaccent" unicode="&#x10a;" horiz-adv-x="343" 
d="M227 -7l1 -6q-35 0 -68 16q-34 16 -64 60q-29 43 -49 121q-19 76 -19 201q0 109 18 180t45 113q27 43 57 59q31 17 56 17q15 0 25 -3q12 -3 19 -7q3 -2 8 -4t7 -3q6 -3 14 -3q20 0 27 28h10v-153h-10q-10 43 -24 70t-27 42t-27 21q-13 6 -25 6q-19 0 -36 -18
q-17 -19 -29 -60q-11 -39 -19 -111q-7 -64 -7 -169q0 -106 11 -183q11 -75 28 -118q18 -46 40 -63q23 -18 47 -18q30 0 47 13q19 15 35 33l7 -6q-13 -19 -37 -37t-61 -18zM204 782v-2q-19 0 -33 14q-13 13 -13 33t13 32t33 12t33 -12t13 -31q0 -20 -13 -33t-33 -13z" />
    <glyph glyph-name="cdotaccent" unicode="&#x10b;" horiz-adv-x="296" 
d="M195 -5l-6 -6q-34 0 -64 15q-31 15 -53 45t-36 75q-13 43 -13 107q0 56 15 101q15 46 37 75q23 30 50 47q26 16 52 16q18 0 33 -4q18 -5 30 -13t22 -21q9 -12 9 -27q0 -13 -9 -22t-22 -9q-30 0 -36 41q-3 24 -6 35q-3 12 -20 12q-19 0 -32 -16q-15 -18 -23 -46
q-10 -33 -14 -70q-5 -45 -5 -88q0 -114 26 -175q26 -60 71 -60q28 0 46 12q20 13 29 25l8 -7q-11 -13 -31 -27q-21 -15 -58 -15zM174 548q-20 0 -33 13t-13 33t13 33t33 13t33 -13t13 -33t-13 -33t-33 -13z" />
    <glyph glyph-name="Ccaron" unicode="&#x10c;" horiz-adv-x="343" 
d="M227 -7l1 -6q-35 0 -68 16q-34 16 -64 60q-29 43 -49 121q-19 76 -19 201q0 109 18 180t45 113q27 43 57 59q31 17 56 17q15 0 25 -3q12 -3 19 -7q3 -2 8 -4t7 -3q6 -3 14 -3q20 0 27 28h10v-153h-10q-10 43 -24 70t-27 42t-27 21q-13 6 -25 6q-19 0 -36 -18
q-17 -19 -29 -60q-11 -39 -19 -111q-7 -64 -7 -169q0 -106 11 -183q11 -75 28 -118q18 -46 40 -63q23 -18 47 -18q30 0 47 13q19 15 35 33l7 -6q-13 -19 -37 -37t-61 -18zM103 895l101 -50l102 50l4 -5l-106 -106l-105 106z" />
    <glyph glyph-name="ccaron" unicode="&#x10d;" horiz-adv-x="296" 
d="M195 -5l-6 -6q-34 0 -64 15q-31 15 -53 45t-36 75q-13 43 -13 107q0 56 15 101q15 46 37 75q23 30 50 47q26 16 52 16q18 0 33 -4q18 -5 30 -13t22 -21q9 -12 9 -27q0 -13 -9 -22t-22 -9q-30 0 -36 41q-3 24 -6 35q-3 12 -20 12q-19 0 -32 -16q-15 -18 -23 -46
q-10 -33 -14 -70q-5 -45 -5 -88q0 -114 26 -175q26 -60 71 -60q28 0 46 12q20 13 29 25l8 -7q-11 -13 -31 -27q-21 -15 -58 -15zM86 691l88 -87l88 87l7 -4l-95 -166l-95 166z" />
    <glyph glyph-name="Dcaron" unicode="&#x10e;" horiz-adv-x="423" 
d="M20 6l-1 -4q10 3 17 8q6 4 9 20q2 12 4 42q1 18 1 74v454q0 56 -1 74q-2 30 -4 42q-3 16 -9 20q-7 5 -17 8v6h126q56 0 101 -21t78 -66t51 -114t18 -164q0 -184 -61 -284q-62 -101 -186 -101h-126v6zM132 737l-3 -732h13q38 0 67 19q30 20 51 63t33 116q12 72 12 179
q0 111 -15 180t-39 108q-25 40 -52 53q-30 14 -54 14h-13zM74 898l101 -50l102 50l4 -5l-106 -106l-105 106z" />
    <glyph glyph-name="dcaron" unicode="&#x10f;" horiz-adv-x="371" 
d="M157 -7v-5q-28 0 -51 13q-24 13 -42 42q-19 30 -29 73q-11 47 -11 108q0 68 15 114q15 47 37 76t50 43t53 14q17 0 35 -9q20 -10 35 -28v214q0 30 -1 39q-2 15 -4 20q-3 6 -10 7q-5 1 -18 1v6l109 52v-685v-41q0 -15 3 -24t9 -12q5 -3 17 -6v-6h-105v71q-32 -44 -54 -61
q-20 -16 -38 -16zM103 234l2 -3q0 -64 6 -109t15 -72t21 -39t24 -12q3 0 9 3q4 2 15 11q5 4 22 23q16 18 33 40v341q-35 41 -71 41q-13 0 -27 -11t-24 -36t-18 -69q-7 -41 -7 -108zM357 577l11 129q2 24 9 36t23 12q12 0 19 -7t7 -18q0 -13 -9 -34l-54 -120z" />
    <glyph glyph-name="Dcroat" unicode="&#x110;" horiz-adv-x="421" 
d="M19 6l-1 -4q10 3 17 8q6 4 9 20q2 12 4 42q1 18 1 74v240h-51v8h51v206q0 56 -1 74q-2 30 -4 42q-3 16 -9 20q-7 5 -17 8v6h126q56 0 101 -21t78 -66t51 -114t18 -164q0 -184 -61 -284q-62 -101 -186 -101h-126v6zM144 4l-3 1q38 0 67 19q30 20 51 63t33 116
q12 72 12 179q0 111 -15 180t-39 108q-25 40 -52 53q-30 14 -54 14h-13v-345h90v-8h-90v-380h13z" />
    <glyph glyph-name="dcroat" unicode="&#x111;" horiz-adv-x="371" 
d="M153 578h227v-9h-227v9zM157 -7v-5q-28 0 -51 13q-24 13 -42 42q-19 30 -29 73q-11 47 -11 108q0 68 15 114q15 47 37 76t50 43t53 14q17 0 35 -9q20 -10 35 -28v214q0 30 -1 39q-2 15 -4 20q-3 6 -10 7q-5 1 -18 1v6l109 52v-685v-41q0 -15 3 -24t9 -12q5 -3 17 -6v-6
h-105v71q-32 -44 -54 -61q-20 -16 -38 -16zM103 234l2 -3q0 -64 6 -109t15 -72t21 -39t24 -12q3 0 9 3q4 2 15 11q5 4 22 23q16 18 33 40v341q-35 41 -71 41q-13 0 -27 -11t-24 -36t-18 -69q-7 -41 -7 -108z" />
    <glyph glyph-name="Emacron" unicode="&#x112;" horiz-adv-x="340" 
d="M20 6v-7q10 3 17 8q6 4 9 20q2 12 4 42q1 18 1 74v454q0 56 -1 74q-2 30 -4 42q-3 16 -9 20q-7 5 -17 8v6h256q8 0 12 -3q5 -3 6 -19l16 -91h-10q-9 33 -22 51q-14 20 -32 32q-17 11 -42 16q-27 5 -54 5h-17v-322h1q33 0 48 7q17 8 26 18q9 11 12 24l6 26h7v-157h-7
l-6 26q-3 14 -12 24t-26 18q-15 7 -48 7h-1v-401h36q32 0 56 3t42 15t32 35q14 24 23 62h10l-11 -106q-1 -13 -6 -15q-6 -2 -12 -2h-283v6zM250 787h-160v35h160v-35z" />
    <glyph glyph-name="emacron" unicode="&#x113;" horiz-adv-x="304" 
d="M194 -5l-2 2q-36 0 -69 14q-31 13 -54 42t-35 74t-12 107q0 60 15 105q15 46 37 75t47 45q24 15 45 15q97 0 115 -163h-178q-1 -8 -1 -25v-27q0 -123 23 -189q22 -64 75 -64q25 0 42 11q16 11 26 20l6 -7q-9 -8 -28 -22q-17 -13 -52 -13zM165 468h-1q-8 0 -17 -6t-18 -21
q-8 -14 -16 -43q-7 -26 -10 -73h109q0 73 -12 108t-35 35zM243 602v-34h-151v34h151z" />
    <glyph glyph-name="Ebreve" unicode="&#x114;" horiz-adv-x="340" 
d="M20 6v-7q10 3 17 8q6 4 9 20q2 12 4 42q1 18 1 74v454q0 56 -1 74q-2 30 -4 42q-3 16 -9 20q-7 5 -17 8v6h256q8 0 12 -3q5 -3 6 -19l16 -91h-10q-9 33 -22 51q-14 20 -32 32q-17 11 -42 16q-27 5 -54 5h-17v-322h1q33 0 48 7q17 8 26 18q9 11 12 24l6 26h7v-157h-7
l-6 26q-3 14 -12 24t-26 18q-15 7 -48 7h-1v-401h36q32 0 56 3t42 15t32 35q14 24 23 62h10l-11 -106q-1 -13 -6 -15q-6 -2 -12 -2h-283v6zM171 830v-2q28 0 44 11q15 10 21 29h9q-1 -33 -20 -61q-18 -27 -54 -27q-35 0 -54 27t-21 63h9q4 -16 21 -28q16 -12 45 -12z" />
    <glyph glyph-name="ebreve" unicode="&#x115;" horiz-adv-x="304" 
d="M194 -5l-2 2q-36 0 -69 14q-31 13 -54 42t-35 74t-12 107q0 60 15 105q15 46 37 75t47 45q24 15 45 15q97 0 115 -163h-178q-1 -8 -1 -25v-27q0 -123 23 -189q22 -64 75 -64q25 0 42 11q16 11 26 20l6 -7q-9 -8 -28 -22q-17 -13 -52 -13zM165 468h-1q-8 0 -17 -6t-18 -21
q-8 -14 -16 -43q-7 -26 -10 -73h109q0 73 -12 108t-35 35zM168 593h1q28 0 42 11t20 32h9q-2 -38 -19 -64q-18 -27 -53 -27q-34 0 -54 27q-19 26 -19 65h9q5 -20 20 -32t44 -12z" />
    <glyph glyph-name="Edotaccent" unicode="&#x116;" horiz-adv-x="340" 
d="M20 6v-7q10 3 17 8q6 4 9 20q2 12 4 42q1 18 1 74v454q0 56 -1 74q-2 30 -4 42q-3 16 -9 20q-7 5 -17 8v6h256q8 0 12 -3q5 -3 6 -19l16 -91h-10q-9 33 -22 51q-14 20 -32 32q-17 11 -42 16q-27 5 -54 5h-17v-322h1q33 0 48 7q17 8 26 18q9 11 12 24l6 26h7v-157h-7
l-6 26q-3 14 -12 24t-26 18q-15 7 -48 7h-1v-401h36q32 0 56 3t42 15t32 35q14 24 23 62h10l-11 -106q-1 -13 -6 -15q-6 -2 -12 -2h-283v6zM171 781v-2q-19 0 -33 14q-13 13 -13 33t13 32q14 12 33 12t33 -12q13 -12 13 -31q0 -20 -13 -33t-33 -13z" />
    <glyph glyph-name="edotaccent" unicode="&#x117;" horiz-adv-x="304" 
d="M194 -5l-2 2q-36 0 -69 14q-31 13 -54 42t-35 74t-12 107q0 60 15 105q15 46 37 75t47 45q24 15 45 15q97 0 115 -163h-178q-1 -8 -1 -25v-27q0 -123 23 -189q22 -64 75 -64q25 0 42 11q16 11 26 20l6 -7q-9 -8 -28 -22q-17 -13 -52 -13zM165 468h-1q-8 0 -17 -6t-18 -21
q-8 -14 -16 -43q-7 -26 -10 -73h109q0 73 -12 108t-35 35zM167 556q-20 0 -33 13t-13 33t13 33t33 13t33 -13t13 -33t-13 -33t-33 -13z" />
    <glyph glyph-name="Eogonek" unicode="&#x118;" horiz-adv-x="340" 
d="M20 6v-7q10 3 17 8q6 4 9 20q2 12 4 42q1 18 1 74v454q0 56 -1 74q-2 30 -4 42q-3 16 -9 20q-7 5 -17 8v6h256q8 0 12 -3q5 -3 6 -19l16 -91h-10q-9 33 -22 51q-14 20 -32 32q-17 11 -42 16q-27 5 -54 5h-17v-322h1q33 0 48 7q17 8 26 18q9 11 12 24l6 26h7v-157h-7
l-6 26q-3 14 -12 24t-26 18q-15 7 -48 7h-1v-401h36q32 0 56 3t42 15t32 35q14 24 23 62h10l-11 -106q-1 -13 -6 -15q-6 -2 -12 -2h-283v6zM216 -178l-1 -3q-30 0 -47 17t-17 42q0 22 10 39q10 18 25 31q16 15 31 24q5 3 14.5 9t13.5 9h12q-16 -15 -30 -41q-13 -25 -13 -57
q0 -16 9 -28t25 -12q13 0 20 4q8 4 15 12l5 -5q-3 -5 -9 -12q-7 -9 -15 -14q-11 -7 -21 -11q-11 -4 -27 -4z" />
    <glyph glyph-name="eogonek" unicode="&#x119;" horiz-adv-x="304" 
d="M255 -129l-13 -16q-7 -9 -15 -14q-11 -7 -21 -11q-11 -4 -27 -4q-31 0 -48 17q-16 16 -16 42q0 21 9 38t24 30q16 15 31 24q17 11 30 18q-3 -1 -10 -1h-8q-36 0 -69 14q-32 14 -54 42q-23 29 -35 74t-12 107q0 60 15 105q15 46 37 75t47 45q24 15 45 15q97 0 115 -163
h-178q-1 -8 -1 -25v-27q0 -123 23 -189q22 -64 75 -64q25 0 42 11q16 10 26 20l6 -7q-7 -7 -12 -11q-7 -6 -18 -12q-22 -10 -42 -35q-19 -23 -19 -69q0 -15 8 -28q8 -12 24 -12q13 0 20 4q8 4 15 12zM164 462h-1q-8 0 -17 -6t-18 -21q-8 -14 -16 -43q-7 -26 -10 -73h109
q0 73 -12 108t-35 35z" />
    <glyph glyph-name="Ecaron" unicode="&#x11a;" horiz-adv-x="340" 
d="M20 6v-7q10 3 17 8q6 4 9 20q2 12 4 42q1 18 1 74v454q0 56 -1 74q-2 30 -4 42q-3 16 -9 20q-7 5 -17 8v6h256q8 0 12 -3q5 -3 6 -19l16 -91h-10q-9 33 -22 51q-14 20 -32 32q-17 11 -42 16q-27 5 -54 5h-17v-322h1q33 0 48 7q17 8 26 18q9 11 12 24l6 26h7v-157h-7
l-6 26q-3 14 -12 24t-26 18q-15 7 -48 7h-1v-401h36q32 0 56 3t42 15t32 35q14 24 23 62h10l-11 -106q-1 -13 -6 -15q-6 -2 -12 -2h-283v6zM69 894l101 -50l102 50l4 -5l-106 -106l-105 106z" />
    <glyph glyph-name="ecaron" unicode="&#x11b;" horiz-adv-x="304" 
d="M194 -5l-2 2q-36 0 -69 14q-31 13 -54 42t-35 74t-12 107q0 60 15 105q15 46 37 75t47 45q24 15 45 15q97 0 115 -163h-178q-1 -8 -1 -25v-27q0 -123 23 -189q22 -64 75 -64q25 0 42 11q16 11 26 20l6 -7q-9 -8 -28 -22q-17 -13 -52 -13zM165 468h-1q-8 0 -17 -6t-18 -21
q-8 -14 -16 -43q-7 -26 -10 -73h109q0 73 -12 108t-35 35zM79 699l88 -87l88 87l7 -4l-95 -166l-95 166z" />
    <glyph glyph-name="Gcircumflex" unicode="&#x11c;" horiz-adv-x="398" 
d="M228 -8l-7 -6q-49 0 -87 27t-63 78t-39 123q-13 69 -13 162q0 98 18 168q18 72 46 117q29 47 63 69q35 23 67 23q19 0 30 -4q14 -5 21 -10q6 -4 18 -10q8 -4 19 -4q7 0 12 6q4 6 9 20h6v-153h-6q-9 44 -21 72q-11 27 -26 45q-13 17 -30 24q-15 7 -33 7q-24 0 -43 -19
t-34 -63q-14 -41 -22 -111q-7 -63 -7 -165q0 -204 30 -297t88 -93q23 0 36 28q14 30 14 99v39q0 63 -1 84q-2 35 -4 48q-3 16 -9 22t-17 9v6h140v-6q-8 -1 -15 -8q-6 -6 -9 -24q-4 -22 -5 -51q-1 -22 -1 -91v-87q-10 -15 -25 -28q-16 -15 -31 -24q-15 -10 -34 -16
q-18 -6 -35 -6zM210 888l106 -106l-4 -5l-102 50l-101 -50l-4 5z" />
    <glyph glyph-name="gcircumflex" unicode="&#x11d;" horiz-adv-x="320" 
d="M155 161l-4 -7q-14 0 -29 3q-13 3 -30 11l-3 -2q-27 -20 -27 -39q0 -6 1 -9q1 -4 6 -9q4 -4 14 -9q4 -2 26 -10l113 -31q55 -15 77 -42q23 -28 23 -64q0 -33 -13 -58t-36 -42t-52 -24q-32 -8 -61 -8q-33 0 -60 7q-28 8 -51 21q-23 14 -36 31t-13 39q0 17 9 32t22 28
t30 24l33 21q-37 13 -51 32t-14 43q0 29 18 45q21 19 37 29l3 2q-26 16 -46 48q-19 31 -19 87q0 45 13 75q13 31 33 51q19 19 42 28q22 9 44 9q17 0 32 -4q16 -5 33 -15q29 20 45 27q18 8 30 8q26 0 26 -28q0 -12 -7 -18t-18 -6q-10 0 -22 9t-25 9q-9 0 -13 -1t-10 -3
q26 -19 44 -51q18 -33 18 -86q0 -44 -13 -73q-14 -30 -33 -48q-19 -17 -42 -25q-21 -7 -44 -7zM151 163l-1 -1q22 0 42 33q19 32 19 110q0 77 -18 114q-18 38 -41 38q-24 0 -42 -37q-18 -38 -18 -114q0 -77 18 -110t41 -33zM43 -81l-2 2q0 -37 30 -63q31 -26 84 -26
q58 0 93 26q34 25 34 66q0 26 -15 39t-54 24l-106 29l-7 2q-33 -21 -45 -42t-12 -57zM147 690l95 -166l-7 -4l-88 87l-88 -87l-7 4z" />
    <glyph glyph-name="Gbreve" unicode="&#x11e;" horiz-adv-x="398" 
d="M228 -8l-7 -6q-49 0 -87 27t-63 78t-39 123q-13 69 -13 162q0 98 18 168q18 72 46 117q29 47 63 69q35 23 67 23q19 0 30 -4q14 -5 21 -10q6 -4 18 -10q8 -4 19 -4q7 0 12 6q4 6 9 20h6v-153h-6q-9 44 -21 72q-11 27 -26 45q-13 17 -30 24q-15 7 -33 7q-24 0 -43 -19
t-34 -63q-14 -41 -22 -111q-7 -63 -7 -165q0 -204 30 -297t88 -93q23 0 36 28q14 30 14 99v39q0 63 -1 84q-2 35 -4 48q-3 16 -9 22t-17 9v6h140v-6q-8 -1 -15 -8q-6 -6 -9 -24q-4 -22 -5 -51q-1 -22 -1 -91v-87q-10 -15 -25 -28q-16 -15 -31 -24q-15 -10 -34 -16
q-18 -6 -35 -6zM211 831v-2q28 0 44 11q15 10 21 29h9q-1 -33 -20 -61q-18 -27 -54 -27q-35 0 -54 27t-21 63h9q4 -16 21 -28q16 -12 45 -12z" />
    <glyph glyph-name="gbreve" unicode="&#x11f;" horiz-adv-x="320" 
d="M155 161l-4 -7q-14 0 -29 3q-13 3 -30 11l-3 -2q-27 -20 -27 -39q0 -6 1 -9q1 -4 6 -9q4 -4 14 -9q4 -2 26 -10l113 -31q55 -15 77 -42q23 -28 23 -64q0 -33 -13 -58t-36 -42t-52 -24q-32 -8 -61 -8q-33 0 -60 7q-28 8 -51 21q-23 14 -36 31t-13 39q0 17 9 32t22 28
t30 24l33 21q-37 13 -51 32t-14 43q0 29 18 45q21 19 37 29l3 2q-26 16 -46 48q-19 31 -19 87q0 45 13 75q13 31 33 51q19 19 42 28q22 9 44 9q17 0 32 -4q16 -5 33 -15q29 20 45 27q18 8 30 8q26 0 26 -28q0 -12 -7 -18t-18 -6q-10 0 -22 9t-25 9q-9 0 -13 -1t-10 -3
q26 -19 44 -51q18 -33 18 -86q0 -44 -13 -73q-14 -30 -33 -48q-19 -17 -42 -25q-21 -7 -44 -7zM151 163l-1 -1q22 0 42 33q19 32 19 110q0 77 -18 114q-18 38 -41 38q-24 0 -42 -37q-18 -38 -18 -114q0 -77 18 -110t41 -33zM43 -81l-2 2q0 -37 30 -63q31 -26 84 -26
q58 0 93 26q34 25 34 66q0 26 -15 39t-54 24l-106 29l-7 2q-33 -21 -45 -42t-12 -57zM148 585h1q28 0 42 11t20 32h9q-2 -38 -19 -64q-18 -27 -53 -27q-34 0 -54 27q-19 26 -19 65h9q5 -20 20 -32t44 -12z" />
    <glyph glyph-name="Gdotaccent" unicode="&#x120;" horiz-adv-x="398" 
d="M228 -8l-7 -6q-49 0 -87 27t-63 78t-39 123q-13 69 -13 162q0 98 18 168q18 72 46 117q29 47 63 69q35 23 67 23q19 0 30 -4q14 -5 21 -10q6 -4 18 -10q8 -4 19 -4q7 0 12 6q4 6 9 20h6v-153h-6q-9 44 -21 72q-11 27 -26 45q-13 17 -30 24q-15 7 -33 7q-24 0 -43 -19
t-34 -63q-14 -41 -22 -111q-7 -63 -7 -165q0 -204 30 -297t88 -93q23 0 36 28q14 30 14 99v39q0 63 -1 84q-2 35 -4 48q-3 16 -9 22t-17 9v6h140v-6q-8 -1 -15 -8q-6 -6 -9 -24q-4 -22 -5 -51q-1 -22 -1 -91v-87q-10 -15 -25 -28q-16 -15 -31 -24q-15 -10 -34 -16
q-18 -6 -35 -6zM210 782v-2q-19 0 -33 14q-13 13 -13 33t13 32t33 12t33 -12t13 -31q0 -20 -13 -33t-33 -13z" />
    <glyph glyph-name="gdotaccent" unicode="&#x121;" horiz-adv-x="320" 
d="M155 161l-4 -7q-14 0 -29 3q-13 3 -30 11l-3 -2q-27 -20 -27 -39q0 -6 1 -9q1 -4 6 -9q4 -4 14 -9q4 -2 26 -10l113 -31q55 -15 77 -42q23 -28 23 -64q0 -33 -13 -58t-36 -42t-52 -24q-32 -8 -61 -8q-33 0 -60 7q-28 8 -51 21q-23 14 -36 31t-13 39q0 17 9 32t22 28
t30 24l33 21q-37 13 -51 32t-14 43q0 29 18 45q21 19 37 29l3 2q-26 16 -46 48q-19 31 -19 87q0 45 13 75q13 31 33 51q19 19 42 28q22 9 44 9q17 0 32 -4q16 -5 33 -15q29 20 45 27q18 8 30 8q26 0 26 -28q0 -12 -7 -18t-18 -6q-10 0 -22 9t-25 9q-9 0 -13 -1t-10 -3
q26 -19 44 -51q18 -33 18 -86q0 -44 -13 -73q-14 -30 -33 -48q-19 -17 -42 -25q-21 -7 -44 -7zM151 163l-1 -1q22 0 42 33q19 32 19 110q0 77 -18 114q-18 38 -41 38q-24 0 -42 -37q-18 -38 -18 -114q0 -77 18 -110t41 -33zM43 -81l-2 2q0 -37 30 -63q31 -26 84 -26
q58 0 93 26q34 25 34 66q0 26 -15 39t-54 24l-106 29l-7 2q-33 -21 -45 -42t-12 -57zM147 548q-20 0 -33 13t-13 33t13 33t33 13t33 -13t13 -33t-13 -33t-33 -13z" />
    <glyph glyph-name="uni0122" unicode="&#x122;" horiz-adv-x="398" 
d="M228 -8l-7 -6q-49 0 -87 27t-63 78t-39 123q-13 69 -13 162q0 98 18 168q18 72 46 117q29 47 63 69q35 23 67 23q19 0 30 -4q14 -5 21 -10q6 -4 18 -10q8 -4 19 -4q7 0 12 6q4 6 9 20h6v-153h-6q-9 44 -21 72q-11 27 -26 45q-13 17 -30 24q-15 7 -33 7q-24 0 -43 -19
t-34 -63q-14 -41 -22 -111q-7 -63 -7 -165q0 -204 30 -297t88 -93q23 0 36 28q14 30 14 99v39q0 63 -1 84q-2 35 -4 48q-3 16 -9 22t-17 9v6h140v-6q-8 -1 -15 -8q-6 -6 -9 -24q-4 -22 -5 -51q-1 -22 -1 -91v-87q-10 -15 -25 -28q-16 -15 -31 -24q-15 -10 -34 -16
q-18 -6 -35 -6zM230 -117l1 -2q-3 -2 -10 -7q-7 -4 -19 -4q-16 0 -27 10q-12 10 -12 28q0 20 13 30q14 11 30 11q19 0 35 -14q15 -13 15 -41q0 -40 -22 -58q-23 -19 -51 -23l-4 7q56 12 56 49q0 9 -5 14z" />
    <glyph glyph-name="uni0123" unicode="&#x123;" horiz-adv-x="320" 
d="M155 161l-4 -7q-14 0 -29 3q-13 3 -30 11l-3 -2q-27 -20 -27 -39q0 -6 1 -9q1 -4 6 -9q4 -4 14 -9q4 -2 26 -10l113 -31q55 -15 77 -42q23 -28 23 -64q0 -33 -13 -58t-36 -42t-52 -24q-32 -8 -61 -8q-33 0 -60 7q-28 8 -51 21q-23 14 -36 31t-13 39q0 17 9 32t22 28
t30 24l33 21q-37 13 -51 32t-14 43q0 29 18 45q21 19 37 29l3 2q-26 16 -46 48q-19 31 -19 87q0 45 13 75q13 31 33 51q19 19 42 28q22 9 44 9q17 0 32 -4q16 -5 33 -15q29 20 45 27q18 8 30 8q26 0 26 -28q0 -12 -7 -18t-18 -6q-10 0 -22 9t-25 9q-9 0 -13 -1t-10 -3
q26 -19 44 -51q18 -33 18 -86q0 -44 -13 -73q-14 -30 -33 -48q-19 -17 -42 -25q-21 -7 -44 -7zM151 163l-1 -1q22 0 42 33q19 32 19 110q0 77 -18 114q-18 38 -41 38q-24 0 -42 -37q-18 -38 -18 -114q0 -77 18 -110t41 -33zM43 -81l-2 2q0 -37 30 -63q31 -26 84 -26
q58 0 93 26q34 25 34 66q0 26 -15 39t-54 24l-106 29l-7 2q-33 -21 -45 -42t-12 -57zM121 611v-3q5 5 10 8q8 5 18 5q17 0 27 -10q11 -11 11 -30t-12 -30q-11 -10 -29 -10q-19 0 -34 15t-15 41q0 41 21 59t50 24l4 -8q-56 -12 -56 -49q0 -7 5 -12z" />
    <glyph glyph-name="Hcircumflex" unicode="&#x124;" horiz-adv-x="446" 
d="M20 6q10 3 17 8q6 4 9 18q2 10 4 41q1 18 1 74v454q0 56 -1 74q-2 31 -4 41q-3 14 -9 18q-7 5 -17 8v6h145v-6q-10 -3 -17 -8q-6 -4 -9 -18q-2 -10 -4 -41q-1 -18 -1 -74v-187h180v187q0 56 -1 74q-2 31 -4 41q-3 14 -9 18q-7 5 -17 8v6h145v-6q-10 -3 -17 -8
q-6 -4 -9 -18q-2 -10 -4 -41q-1 -18 -1 -74v-454q0 -56 1 -74q2 -31 4 -41q3 -14 9 -18q7 -5 17 -8v-6h-145v6q10 3 17 8q6 4 9 18q2 10 4 41q1 18 1 74v259h-180v-259q0 -56 1 -74q2 -31 4 -41q3 -14 9 -18q7 -5 17 -8v-6h-145v6zM223 894l106 -106l-4 -5l-102 50l-101 -50
l-4 5z" />
    <glyph glyph-name="hcircumflex" unicode="&#x125;" horiz-adv-x="376" 
d="M23 6l1 -3q10 3 14 6t7 12t3 24v41v549q0 30 -1 39q-2 15 -4 20q-3 6 -10 7q-5 1 -18 1v6l109 62v-379q26 28 42 41q18 15 33 24t27 12t23 3q12 0 24 -4q13 -5 27 -15q12 -10 22 -29q9 -18 9 -46v-289v-41q0 -12 2 -24q1 -9 6 -12q4 -3 14 -6v-6h-127v6q9 3 16 6
q6 3 9 12t3 24v41v302q0 35 -9 50t-25 15q-5 0 -10 -1q-7 -1 -19 -9q-15 -10 -29 -22q-23 -21 -41 -40v-294v-41q0 -15 3 -24t9 -12q7 -3 16 -6v-6h-126v6zM198 911l106 -106l-4 -5l-102 50l-101 -50l-4 5z" />
    <glyph glyph-name="Hbar" unicode="&#x126;" horiz-adv-x="438" 
d="M-2 577h442v-8h-442v8zM16 6q10 3 17 8q6 4 9 18q2 10 4 41q1 18 1 74v454q0 56 -1 74q-2 31 -4 41q-3 14 -9 18q-7 5 -17 8v6h145v-6q-10 -3 -17 -8q-6 -4 -9 -18q-2 -10 -4 -41q-1 -18 -1 -74v-187h180v187q0 56 -1 74q-2 31 -4 41q-3 14 -9 18q-7 5 -17 8v6h145v-6
q-10 -3 -17 -8q-6 -4 -9 -18q-2 -10 -4 -41q-1 -18 -1 -74v-454q0 -56 1 -74q2 -31 4 -41q3 -14 9 -18q7 -5 17 -8v-6h-145v6q10 3 17 8q6 4 9 18q2 10 4 41q1 18 1 74v259h-180v-259q0 -56 1 -74q2 -31 4 -41q3 -14 9 -18q7 -5 17 -8v-6h-145v6z" />
    <glyph glyph-name="hbar" unicode="&#x127;" horiz-adv-x="375" 
d="M-9 569v9h227v-9h-227zM23 6l1 -3q10 3 14 6t7 12t3 24v41v549q0 30 -1 39q-2 15 -4 20q-3 6 -10 7q-5 1 -18 1v6l109 62v-379q26 28 42 41q18 15 33 24t27 12t23 3q12 0 24 -4q13 -5 27 -15q12 -10 22 -29q9 -18 9 -46v-289v-41q0 -12 2 -24q1 -9 6 -12q4 -3 14 -6v-6
h-127v6q9 3 16 6q6 3 9 12t3 24v41v302q0 35 -9 50t-25 15q-5 0 -10 -1q-7 -1 -19 -9q-15 -10 -29 -22q-23 -21 -41 -40v-294v-41q0 -15 3 -24t9 -12q7 -3 16 -6v-6h-126v6z" />
    <glyph glyph-name="Itilde" unicode="&#x128;" horiz-adv-x="185" 
d="M20 6v-2q10 3 17 8q6 4 9 20q2 12 4 42q1 18 1 74v454q0 56 -1 74q-2 31 -4 41q-3 13 -9 18q-7 5 -17 8v6h145v-6q-10 -3 -17 -8q-6 -5 -9 -18q-2 -10 -4 -41q-1 -18 -1 -74v-454q0 -55 1 -73q2 -30 4 -42q3 -14 9 -19q7 -5 17 -8v-6h-145v6zM64 855l-3 2q19 0 40 -4
t38 -4q7 0 15 6q9 7 23 27l7 -2q-11 -46 -24 -62q-14 -17 -27 -17q-17 0 -39 3q-23 3 -38 3q-10 0 -17 -6q-8 -7 -24 -28l-6 2q24 80 55 80z" />
    <glyph glyph-name="itilde" unicode="&#x129;" 
d="M22 6v-1q9 3 16 6q6 3 9 12t3 24v41v243q0 27 -1 36q-2 15 -4 21q-3 7 -9 10q-8 4 -16 5v7l104 65v-386v-41q0 -15 3 -24t9 -12q7 -3 16 -6v-6h-130v6zM48 624l-1 -2q11 0 18 -1q14 -2 22 -3t22 -3q7 -1 18 -1q7 0 15 8q10 10 23 27l7 -3q-10 -45 -24 -63t-27 -18
q-14 0 -41 5t-40 5q-10 0 -18 -7q-8 -6 -25 -30l-6 3q12 41 27 62t30 21z" />
    <glyph glyph-name="Imacron" unicode="&#x12a;" horiz-adv-x="185" 
d="M20 6v-2q10 3 17 8q6 4 9 20q2 12 4 42q1 18 1 74v454q0 56 -1 74q-2 31 -4 41q-3 13 -9 18q-7 5 -17 8v6h145v-6q-10 -3 -17 -8q-6 -5 -9 -18q-2 -10 -4 -41q-1 -18 -1 -74v-454q0 -55 1 -73q2 -30 4 -42q3 -14 9 -19q7 -5 17 -8v-6h-145v6zM173 792h-160v35h160v-35z
" />
    <glyph glyph-name="imacron" unicode="&#x12b;" 
d="M22 6v-1q9 3 16 6q6 3 9 12t3 24v41v243q0 27 -1 36q-2 15 -4 21q-3 7 -9 10q-8 4 -16 5v7l104 65v-386v-41q0 -15 3 -24t9 -12q7 -3 16 -6v-6h-130v6zM161 599v-34h-151v34h151z" />
    <glyph glyph-name="Ibreve" unicode="&#x12c;" horiz-adv-x="185" 
d="M20 6v-2q10 3 17 8q6 4 9 20q2 12 4 42q1 18 1 74v454q0 56 -1 74q-2 31 -4 41q-3 13 -9 18q-7 5 -17 8v6h145v-6q-10 -3 -17 -8q-6 -5 -9 -18q-2 -10 -4 -41q-1 -18 -1 -74v-454q0 -55 1 -73q2 -30 4 -42q3 -14 9 -19q7 -5 17 -8v-6h-145v6zM94 835v-2q28 0 44 11
q15 10 21 29h9q-1 -33 -20 -61q-18 -27 -54 -27q-34 0 -54 27t-21 63h9q4 -16 21 -28t45 -12z" />
    <glyph glyph-name="ibreve" unicode="&#x12d;" 
d="M22 6v-1q9 3 16 6q6 3 9 12t3 24v41v243q0 27 -1 36q-2 15 -4 21q-3 7 -9 10q-8 4 -16 5v7l104 65v-386v-41q0 -15 3 -24t9 -12q7 -3 16 -6v-6h-130v6zM86 590h1q28 0 42 11t20 32h9q-2 -38 -19 -64q-18 -27 -53 -27q-34 0 -54 27q-19 26 -19 65h9q5 -20 20 -32t44 -12z
" />
    <glyph glyph-name="Iogonek" unicode="&#x12e;" horiz-adv-x="185" 
d="M20 6v-2q10 3 17 8q6 4 9 20q2 12 4 42q1 18 1 74v454q0 56 -1 74q-2 31 -4 41q-3 13 -9 18q-7 5 -17 8v6h145v-6q-10 -3 -17 -8q-6 -5 -9 -18q-2 -10 -4 -41q-1 -18 -1 -74v-454q0 -55 1 -73q2 -30 4 -42q3 -14 9 -19q7 -5 17 -8v-6h-145v6zM93 -173l-1 -3q-30 0 -47 17
t-17 42q0 22 10 39q10 18 25 31q16 15 31 24q5 3 14.5 9t13.5 9h12q-16 -15 -30 -41q-13 -25 -13 -57q0 -16 9 -28t25 -12q13 0 20 4q7 5 15 12l5 -5l-9 -12q-7 -9 -15 -14q-11 -7 -21 -11q-11 -4 -27 -4z" />
    <glyph glyph-name="iogonek" unicode="&#x12f;" 
d="M85 553q-20 0 -33 13t-13 33t13 33t33 13t33 -13t13 -33t-13 -33t-33 -13zM22 6v-1q9 3 16 6q6 3 9 12t3 24v41v243q0 27 -1 36q-2 15 -4 21q-3 7 -9 10q-8 4 -16 5v7l104 65v-386v-41q0 -15 3 -24t9 -12q7 -3 16 -6v-6h-130v6zM80 -172l-1 -3q-30 0 -47 17t-17 42
q0 22 10 39q10 18 25 31q16 15 31 24q5 3 14.5 9t13.5 9h12q-16 -15 -30 -41q-13 -25 -13 -57q0 -16 9 -28t25 -12q13 0 20 4q8 4 15 12l5 -5q-3 -5 -9 -12q-7 -9 -15 -14q-11 -7 -21 -11q-11 -4 -27 -4z" />
    <glyph glyph-name="Idotaccent" unicode="&#x130;" horiz-adv-x="185" 
d="M20 6v-2q10 3 17 8q6 4 9 20q2 12 4 42q1 18 1 74v454q0 56 -1 74q-2 31 -4 41q-3 13 -9 18q-7 5 -17 8v6h145v-6q-10 -3 -17 -8q-6 -5 -9 -18q-2 -10 -4 -41q-1 -18 -1 -74v-454q0 -55 1 -73q2 -30 4 -42q3 -14 9 -19q7 -5 17 -8v-6h-145v6zM93 786v-2q-19 0 -33 14
q-13 13 -13 33t13 32q14 12 33 12t33 -12q13 -12 13 -31q0 -20 -13 -33t-33 -13z" />
    <glyph glyph-name="dotlessi" unicode="&#x131;" 
d="M22 6v-1q9 3 16 6q6 3 9 12t3 24v41v243q0 27 -1 36q-2 15 -4 21q-3 7 -9 10q-8 4 -16 5v7l104 65v-386v-41q0 -15 3 -24t9 -12q7 -3 16 -6v-6h-130v6z" />
    <glyph glyph-name="IJ" unicode="&#x132;" horiz-adv-x="465" 
d="M20 6v-2q10 3 17 8q6 4 9 20q2 12 4 42q1 18 1 74v454q0 56 -1 74q-2 31 -4 41q-3 13 -9 18q-7 5 -17 8v6h145v-6q-10 -3 -17 -8q-6 -5 -9 -18q-2 -10 -4 -41q-1 -18 -1 -74v-454q0 -55 1 -73q2 -30 4 -42q3 -14 9 -19q7 -5 17 -8v-6h-145v6zM302 -11h-2q-34 0 -53 4
q-20 4 -34 12q-13 7 -18 17t-5 20q0 17 10 26t27 9t27 -10q10 -11 18 -30q8 -23 15 -30q8 -8 17 -8q12 0 21 14t9 56v531q0 56 -1 74q-2 31 -4 41q-3 13 -9 18q-7 5 -17 8v6h145v-6q-10 -3 -17 -8q-6 -5 -9 -18q-2 -10 -4 -41q-1 -18 -1 -74v-468q0 -69 -33 -106t-82 -37z
" />
    <glyph glyph-name="ij" unicode="&#x133;" horiz-adv-x="342" 
d="M85 553q-20 0 -33 13t-13 33t13 33t33 13t33 -13t13 -33t-13 -33t-33 -13zM22 6v-1q9 3 16 6q6 3 9 12t3 24v41v243q0 27 -1 36q-2 15 -4 21q-3 7 -9 10q-8 4 -16 5v7l104 65v-386v-41q0 -15 3 -24t9 -12q7 -3 16 -6v-6h-130v6zM252 552h-1q-19 0 -31 13t-12 33t12 33
t32 13t33 -13t13 -33t-13 -33t-33 -13zM144 -140l3 -1q-15 0 -28 8q-12 7 -12 24q0 13 9 21q10 8 23 8q12 0 20 -5q5 -3 15 -11t14 -11q7 -5 14 -5q8 0 12 3q2 1 3 6q2 6 2 18v36v62v316q0 27 -1 36q-2 15 -4 21q-3 7 -9 10q-8 4 -16 5v7l104 65v-437q0 -32 -6 -54
q-7 -25 -16 -41q-10 -17 -24 -31q-15 -15 -28 -24q-25 -16 -42 -21q-18 -5 -33 -5z" />
    <glyph glyph-name="Jcircumflex" unicode="&#x134;" horiz-adv-x="281" 
d="M117 -9h-2q-34 0 -53 4q-20 4 -34 12q-13 7 -18 17t-5 20q0 17 10 26q11 9 27 9q17 0 27 -10q11 -11 18 -30q7 -23 15 -30q8 -8 17 -8q12 0 21 14q9 13 9 56v531q0 56 -1 74q-2 31 -4 41q-3 13 -9 18q-7 5 -17 8v6h145v-6q-10 -3 -17 -8q-6 -5 -9 -18q-2 -10 -4 -41
q-1 -18 -1 -74v-468q0 -68 -33 -106q-33 -37 -82 -37zM191 894l106 -106l-4 -5l-102 50l-101 -50l-4 5z" />
    <glyph glyph-name="jcircumflex" unicode="&#x135;" 
d="M-23 -139l1 -1q-15 0 -28 8q-12 8 -12 24q0 14 9 21q10 8 23 8q12 0 20 -5q5 -3 15 -11t14 -11q7 -5 14 -5t12 3l3 6q2 6 2 18v36v62v316q0 27 -1 36q-2 15 -4 21q-3 7 -9 10q-8 4 -16 5v7l102 65v-437q0 -63 -21 -96q-21 -34 -49 -54q-26 -17 -42 -21q-18 -5 -33 -5z
M88 695l95 -166l-7 -4l-88 87l-88 -87l-7 4z" />
    <glyph glyph-name="uni0136" unicode="&#x136;" horiz-adv-x="393" 
d="M250 6h-3q9 4 15 9t9 12t1 21q-1 13 -9 34l-126 318l161 256q16 26 21 42q5 17 3 26t-8 14q-6 4 -12 6v6h81v-6q-6 -3 -16 -9q-8 -5 -15 -13q-9 -11 -18 -25q-18 -29 -27 -43l-109 -173l156 -403q6 -17 14 -33q1 -2 2.5 -5.5t2.5 -5.5t2.5 -4.5t2.5 -4.5t2.5 -4.5t3 -4.5
t2.5 -3q3 -4 7 -7v-6h-143v6zM17 6q10 3 17 8q6 4 9 18q2 10 4 41q1 18 1 74v454q0 56 -1 74q-2 31 -4 41q-3 14 -9 18q-7 5 -17 8v6h145v-6q-10 -3 -17 -8q-6 -4 -9 -18q-2 -10 -4 -41q-1 -18 -1 -74v-454q0 -56 1 -74q2 -31 4 -41q3 -14 9 -18q7 -5 17 -8v-6h-145v6z
M209 -111l1 -2q-2 -2 -10 -7q-7 -4 -19 -4q-16 0 -27 10q-12 10 -12 28q0 20 13 30q14 11 30 11q19 0 35 -14q15 -13 15 -41q0 -40 -22 -58q-23 -19 -51 -23l-4 7q56 12 56 49q0 9 -5 14z" />
    <glyph glyph-name="uni0137" unicode="&#x137;" horiz-adv-x="336" 
d="M23 6h-3q10 3 14 6t7 12t3 24v41v557q0 27 -1 35q-2 14 -4 17q-3 4 -9 6q-4 1 -16 1v7l107 62v-685v-41q0 -15 3 -24t9 -12q7 -3 16 -6v-6h-126v6zM202 6l-1 -1q11 4 19 15t-6 38l-90 184v5l123 154q19 25 12 40t-27 18v6h93v-6q-11 -5 -31 -20q-17 -13 -43 -45l-76 -94
l122 -249q11 -23 20 -33q7 -9 15 -12v-6h-130v6zM192 -112l1 -2q-3 -3 -10 -7t-19 -4q-16 0 -27 10q-12 11 -12 28q0 20 13 30q14 11 30 11q19 0 35 -14q15 -14 15 -41q0 -40 -22 -58q-23 -19 -51 -23l-4 7q56 12 56 49q0 9 -5 14z" />
    <glyph glyph-name="Lacute" unicode="&#x139;" horiz-adv-x="335" 
d="M20 6v-2q10 3 17 8q6 4 9 18q2 10 4 41q1 18 1 74v454q0 56 -1 74q-2 31 -4 41q-3 14 -9 18q-7 5 -17 8v6h147v-6q-10 -2 -19 -8q-7 -4 -10 -18q-2 -10 -4 -41q-1 -18 -1 -74v-593h28q32 0 56 3t44 17t35 39t27 69h7l-17 -117q-1 -13 -6 -15q-6 -2 -12 -2h-275v6zM26 788
l104 75q10 7 18 12q7 4 17 4q14 0 21 -7t7 -18q0 -28 -35 -39l-129 -33z" />
    <glyph glyph-name="lacute" unicode="&#x13a;" 
d="M24 6h-3q9 3 16 6q6 3 9 12t3 24v41v558q0 27 -1 35q-2 14 -4 17q-3 5 -9 6q-4 1 -17 1v6l108 62v-685v-41q0 -15 3 -24t9 -12q7 -3 16 -6v-6h-130v6zM13 790l104 75q11 7 18 12q7 4 17 4q14 0 21 -7t7 -18q0 -28 -35 -39l-129 -33z" />
    <glyph glyph-name="uni013B" unicode="&#x13b;" horiz-adv-x="335" 
d="M20 6v-2q10 3 17 8q6 4 9 18q2 10 4 41q1 18 1 74v454q0 56 -1 74q-2 31 -4 41q-3 14 -9 18q-7 5 -17 8v6h147v-6q-10 -2 -19 -8q-7 -4 -10 -18q-2 -10 -4 -41q-1 -18 -1 -74v-593h28q32 0 56 3t44 17t35 39t27 69h7l-17 -117q-1 -13 -6 -15q-6 -2 -12 -2h-275v6z
M193 -113l1 -2q-2 -3 -10 -7q-7 -4 -19 -4q-16 0 -27 10q-12 11 -12 28q0 20 13 30q14 11 30 11q19 0 35 -14q15 -13 15 -41q0 -40 -22 -58q-23 -19 -51 -23l-4 7q56 12 56 49q0 9 -5 14z" />
    <glyph glyph-name="uni013C" unicode="&#x13c;" 
d="M22 6h-3q9 3 16 6q6 3 9 12t3 24v41v558q0 27 -1 35q-2 14 -4 17q-3 5 -9 6q-4 1 -17 1v6l108 62v-685v-41q0 -15 3 -24t9 -12q7 -3 16 -6v-6h-130v6zM98 -111l1 -2q-3 -2 -10 -7q-7 -4 -19 -4q-16 0 -27 10q-12 10 -12 28q0 20 13 30q14 11 30 11q19 0 35 -14
q15 -13 15 -41q0 -40 -22 -58q-23 -19 -51 -23l-4 7q56 12 56 49q0 9 -5 14z" />
    <glyph glyph-name="Lcaron" unicode="&#x13d;" horiz-adv-x="335" 
d="M20 6v-2q10 3 17 8q6 4 9 18q2 10 4 41q1 18 1 74v454q0 56 -1 74q-2 31 -4 41q-3 14 -9 18q-7 5 -17 8v6h147v-6q-10 -2 -19 -8q-7 -4 -10 -18q-2 -10 -4 -41q-1 -18 -1 -74v-593h28q32 0 56 3t44 17t35 39t27 69h7l-17 -117q-1 -13 -6 -15q-6 -2 -12 -2h-275v6z
M184 577l11 129q1 24 9 36t23 12q12 0 19 -7t7 -18q0 -13 -9 -34l-54 -120z" />
    <glyph glyph-name="lcaron" unicode="&#x13e;" 
d="M22 6h-3q9 3 16 6q6 3 9 12t3 24v41v558q0 27 -1 35q-2 14 -4 17q-3 5 -9 6q-4 1 -17 1v6l108 62v-685v-41q0 -15 3 -24t9 -12q7 -3 16 -6v-6h-130v6zM141 585l11 129q2 24 9 36t23 12q12 0 19 -7t7 -18q0 -13 -9 -34l-54 -120z" />
    <glyph glyph-name="Ldot" unicode="&#x13f;" horiz-adv-x="335" 
d="M259 343h-1q-18 0 -34 14q-15 14 -15 35q0 20 15 33q16 14 35 14q21 0 35 -14t14 -33q0 -21 -14 -35t-35 -14zM19 6v-2q10 3 17 8q6 4 9 18q2 10 4 41q1 18 1 74v454q0 56 -1 74q-2 31 -4 41q-3 14 -9 18q-7 5 -17 8v6h147v-6q-10 -2 -19 -8q-7 -4 -10 -18q-2 -10 -4 -41
q-1 -18 -1 -74v-593h28q32 0 56 3t44 17t35 39t27 69h7l-17 -117q-2 -13 -6 -15q-6 -2 -12 -2h-275v6z" />
    <glyph glyph-name="ldot" unicode="&#x140;" horiz-adv-x="244" 
d="M208 316h-1q-18 0 -34 14q-15 14 -15 35t15 35q16 14 35 14q21 0 35 -14t14 -35t-14 -35t-35 -14zM21 6h-3q9 3 16 6q6 3 9 12t3 24v41v558q0 27 -1 35q-2 14 -4 17q-3 5 -9 6q-4 1 -17 1v6l108 62v-685v-41q0 -15 3 -24t9 -12q7 -3 16 -6v-6h-130v6z" />
    <glyph glyph-name="Lslash" unicode="&#x141;" horiz-adv-x="335" 
d="M2 291l-5 8l249 159l4 -7zM20 6v-2q10 3 17 8q6 4 9 18q2 10 4 41q1 18 1 74v454q0 56 -1 74q-2 31 -4 41q-3 14 -9 18q-7 5 -17 8v6h147v-6q-10 -2 -19 -8q-7 -4 -10 -18q-2 -10 -4 -41q-1 -18 -1 -74v-593h28q32 0 56 3t44 17t35 39t27 69h7l-17 -117q-1 -13 -6 -15
q-6 -2 -12 -2h-275v6z" />
    <glyph glyph-name="lslash" unicode="&#x142;" 
d="M-9 310l-5 7l196 152l5 -8zM22 6h-3q9 3 16 6q6 3 9 12t3 24v41v558q0 27 -1 35q-2 14 -4 17q-3 5 -9 6q-4 1 -17 1v6l108 62v-685v-41q0 -15 3 -24t9 -12q7 -3 16 -6v-6h-130v6z" />
    <glyph glyph-name="Nacute" unicode="&#x143;" horiz-adv-x="398" 
d="M20 6l-2 -3q10 4 17 11q6 6 9 20q2 10 4 41q1 18 1 74v450q0 56 -1 74q-2 30 -4 42q-3 16 -9 20q-7 5 -17 8v6h92q17 0 24 -5q6 -4 12 -18l192 -518v390q0 56 -1 74q-2 31 -4 41q-3 14 -11 20q-9 7 -21 11v6h80v-6q-10 -5 -17 -11q-6 -6 -9 -20q-2 -10 -4 -41
q-1 -18 -1 -74v-601h-16l-273 725v-570q0 -56 1 -74q1 -25 5 -41q3 -14 11 -20q9 -7 21 -11v-6h-79v6zM150 787l104 75q10 8 18 12q7 4 17 4q14 0 21 -7t7 -18q0 -28 -35 -39l-129 -33z" />
    <glyph glyph-name="nacute" unicode="&#x144;" horiz-adv-x="375" 
d="M23 6l3 -4q10 3 14 6t7 12t3 24v41v243q0 29 -1 38q-2 15 -4 21q-3 7 -9 10q-5 2 -16 4v7l105 65v-79q22 23 42 40q18 15 33 24t27 12t23 3q12 0 24 -4q14 -5 27 -15q12 -10 22 -29q9 -18 9 -46v-289v-41q0 -12 2 -24q2 -9 6 -12t14 -6v-6h-128v6q9 3 16 6q6 3 9 12t3 24
v41v302q0 34 -9 48t-25 14q-7 0 -12 -1q-7 -1 -19 -9q-10 -6 -28 -21q-17 -13 -39 -39v-295v-41q0 -15 3 -24t9 -12q7 -3 16 -6v-6h-127v6zM148 525l62 123q9 16 17 26q7 9 20 9q12 0 20 -8t8 -18q0 -21 -20 -41l-101 -95z" />
    <glyph glyph-name="uni0145" unicode="&#x145;" horiz-adv-x="398" 
d="M20 6l-2 -3q10 4 17 11q6 6 9 20q2 10 4 41q1 18 1 74v450q0 56 -1 74q-2 30 -4 42q-3 16 -9 20q-7 5 -17 8v6h92q17 0 24 -5q6 -4 12 -18l192 -518v390q0 56 -1 74q-2 31 -4 41q-3 14 -11 20q-9 7 -21 11v6h80v-6q-10 -5 -17 -11q-6 -6 -9 -20q-2 -10 -4 -41
q-1 -18 -1 -74v-601h-16l-273 725v-570q0 -56 1 -74q1 -25 5 -41q3 -14 11 -20q9 -7 21 -11v-6h-79v6zM217 -114l1 -2q-2 -2 -10 -7q-7 -4 -19 -4q-16 0 -27 10q-12 11 -12 28q0 20 13 30q14 11 30 11q19 0 35 -14q15 -14 15 -41q0 -40 -22 -58q-23 -19 -51 -23l-4 7
q56 12 56 49q0 9 -5 14z" />
    <glyph glyph-name="uni0146" unicode="&#x146;" horiz-adv-x="375" 
d="M23 6l3 -4q10 3 14 6t7 12t3 24v41v243q0 29 -1 38q-2 15 -4 21q-3 7 -9 10q-5 2 -16 4v7l105 65v-79q22 23 42 40q18 15 33 24t27 12t23 3q12 0 24 -4q14 -5 27 -15q12 -10 22 -29q9 -18 9 -46v-289v-41q0 -12 2 -24q2 -9 6 -12t14 -6v-6h-128v6q9 3 16 6q6 3 9 12t3 24
v41v302q0 34 -9 48t-25 14q-7 0 -12 -1q-7 -1 -19 -9q-10 -6 -28 -21q-17 -13 -39 -39v-295v-41q0 -15 3 -24t9 -12q7 -3 16 -6v-6h-127v6zM209 -115l1 -2q-2 -3 -10 -7q-7 -4 -19 -4q-16 0 -27 10q-12 10 -12 28q0 20 13 30q14 11 30 11q19 0 35 -14q15 -13 15 -41
q0 -40 -22 -58q-23 -19 -51 -23l-4 7q56 12 56 49q0 9 -5 14z" />
    <glyph glyph-name="Ncaron" unicode="&#x147;" horiz-adv-x="398" 
d="M20 6l-2 -3q10 4 17 11q6 6 9 20q2 10 4 41q1 18 1 74v450q0 56 -1 74q-2 30 -4 42q-3 16 -9 20q-7 5 -17 8v6h92q17 0 24 -5q6 -4 12 -18l192 -518v390q0 56 -1 74q-2 31 -4 41q-3 14 -11 20q-9 7 -21 11v6h80v-6q-10 -5 -17 -11q-6 -6 -9 -20q-2 -10 -4 -41
q-1 -18 -1 -74v-601h-16l-273 725v-570q0 -56 1 -74q1 -25 5 -41q3 -14 11 -20q9 -7 21 -11v-6h-79v6zM118 898l101 -50l102 50l4 -5l-106 -106l-105 106z" />
    <glyph glyph-name="ncaron" unicode="&#x148;" horiz-adv-x="375" 
d="M23 6l3 -4q10 3 14 6t7 12t3 24v41v243q0 29 -1 38q-2 15 -4 21q-3 7 -9 10q-5 2 -16 4v7l105 65v-79q22 23 42 40q18 15 33 24t27 12t23 3q12 0 24 -4q14 -5 27 -15q12 -10 22 -29q9 -18 9 -46v-289v-41q0 -12 2 -24q2 -9 6 -12t14 -6v-6h-128v6q9 3 16 6q6 3 9 12t3 24
v41v302q0 34 -9 48t-25 14q-7 0 -12 -1q-7 -1 -19 -9q-10 -6 -28 -21q-17 -13 -39 -39v-295v-41q0 -15 3 -24t9 -12q7 -3 16 -6v-6h-127v6zM106 693l88 -87l88 87l7 -4l-95 -166l-95 166z" />
    <glyph glyph-name="napostrophe" unicode="&#x149;" horiz-adv-x="374" 
d="M23 6l3 -4q10 3 14 6t7 12t3 24v41v243q0 29 -1 38q-2 15 -4 21q-3 7 -9 10q-5 2 -16 4v7l105 65v-79q22 23 42 40q18 15 33 24t27 12t23 3q12 0 24 -4q14 -5 27 -15q12 -10 22 -29q9 -18 9 -46v-289v-41q0 -12 2 -24q2 -9 6 -12t14 -6v-6h-128v6q9 3 16 6q6 3 9 12t3 24
v41v302q0 34 -9 48t-25 14q-7 0 -12 -1q-7 -1 -19 -9q-10 -6 -28 -21q-17 -13 -39 -39v-295v-41q0 -15 3 -24t9 -12q7 -3 16 -6v-6h-127v6zM29 686l-1 -1q-4 -5 -12 -9q-7 -4 -21 -4q-16 0 -29 11q-12 11 -12 30q0 21 14 33q13 12 32 12q20 0 38 -15t18 -51q0 -42 -21 -72
t-53 -50l-5 7q29 20 44 44t15 46q0 15 -7 19z" />
    <glyph glyph-name="Eng" unicode="&#x14a;" horiz-adv-x="398" 
d="M20 6l-3 -3q11 4 17 11q6 6 9 20q2 10 4 41q1 18 1 74v450q0 56 -1 74q-2 30 -4 42q-3 16 -9 20q-7 5 -17 8v6h92q17 0 24 -5q6 -4 12 -18l192 -515v387q0 56 -1 74q-2 31 -4 41q-3 14 -11 20q-9 7 -21 11v6h80v-6q-11 -5 -17 -11t-9 -20q-2 -10 -4 -41q-1 -18 -1 -74
v-619q0 -54 -24 -83t-60 -29q-53 0 -82 21q-28 21 -28 50q0 16 9 24q10 8 23 8q17 0 24 -9q8 -10 14 -31q8 -29 13 -39q6 -14 27 -14q32 0 53 27t21 77v8l-278 733l-2 -570q0 -56 1 -74q1 -25 5 -41q3 -14 11 -20q9 -7 21 -11l2 -6h-79v6z" />
    <glyph glyph-name="eng" unicode="&#x14b;" horiz-adv-x="373" 
d="M23 6l2 -5q10 3 14 6t7 12t3 24v41v243q0 29 -1 38q-2 15 -4 21q-3 7 -9 10q-5 2 -16 4v7l105 65v-79q22 23 42 40q18 15 33 24t27 12t23 3q12 0 24 -4q13 -4 27 -15q12 -10 22 -29q9 -18 9 -46v-340q0 -32 -6 -54q-7 -25 -16 -41q-10 -17 -24 -31q-15 -15 -28 -24
q-24 -16 -41 -21q-18 -5 -33 -5t-28 8q-12 8 -12 24q0 14 9 21q10 8 23 8q10 0 20 -5q6 -3 16 -11t14 -11q7 -5 14 -5q5 0 10 3l3 6q2 6 2 18v36v62v376q0 34 -9 48t-25 14q-7 0 -12 -1q-7 -1 -19 -9q-10 -6 -28 -21q-17 -13 -39 -39v-295v-41q0 -15 3 -24t9 -12q7 -3 16 -6
v-6h-127v6z" />
    <glyph glyph-name="Omacron" unicode="&#x14c;" horiz-adv-x="422" 
d="M211 -8h-2q-31 0 -63 24q-31 23 -58 72q-26 46 -43 120t-17 168q0 96 17 170q16 71 44 119q27 46 59 69t63 23q30 0 64 -23t59 -69t42 -119q17 -74 17 -170q0 -94 -17 -168q-16 -72 -42 -120q-25 -47 -59 -72q-33 -24 -64 -24zM209 2v-2q25 0 43 26q18 25 30 74
q12 48 18 117t6 156t-6 156t-18 117q-12 49 -30 74q-18 26 -43 26q-24 0 -42 -25q-18 -26 -30 -73q-12 -48 -18 -117t-6 -156t6 -156t18 -117q12 -49 30 -74q18 -26 42 -26zM289 792h-160v35h160v-35z" />
    <glyph glyph-name="omacron" unicode="&#x14d;" horiz-adv-x="358" 
d="M179 -6l-4 -1q-25 0 -52 15q-28 15 -50 45q-22 29 -37 75q-15 45 -15 104q0 62 15 108q14 44 38 76q22 30 50 45q27 15 53 15t53 -15q28 -15 50 -45q24 -32 38 -76q15 -46 15 -108q0 -58 -15 -103q-15 -46 -37 -75q-22 -30 -50 -45q-27 -15 -52 -15zM175 1h-1q34 0 55 53
q21 52 21 176q0 67 -6 112t-15 72q-9 26 -23 39q-14 12 -30 12t-30 -12t-24 -39q-10 -25 -16 -72q-6 -45 -6 -112q0 -124 21 -176q21 -53 54 -53zM250 599v-34h-151v34h151z" />
    <glyph glyph-name="Obreve" unicode="&#x14e;" horiz-adv-x="422" 
d="M211 -8h-2q-31 0 -63 24q-31 23 -58 72q-26 46 -43 120t-17 168q0 96 17 170q16 71 44 119q27 46 59 69t63 23q30 0 64 -23t59 -69t42 -119q17 -74 17 -170q0 -94 -17 -168q-16 -72 -42 -120q-25 -47 -59 -72q-33 -24 -64 -24zM209 2v-2q25 0 43 26q18 25 30 74
q12 48 18 117t6 156t-6 156t-18 117q-12 49 -30 74q-18 26 -43 26q-24 0 -42 -25q-18 -26 -30 -73q-12 -48 -18 -117t-6 -156t6 -156t18 -117q12 -49 30 -74q18 -26 42 -26zM210 835v-2q28 0 44 11q15 10 21 29h9q-1 -33 -20 -61q-18 -27 -54 -27q-34 0 -54 27t-21 63h9
q4 -16 21 -28t45 -12z" />
    <glyph glyph-name="obreve" unicode="&#x14f;" horiz-adv-x="358" 
d="M179 -6l-4 -1q-25 0 -52 15q-28 15 -50 45q-22 29 -37 75q-15 45 -15 104q0 62 15 108q14 44 38 76q22 30 50 45q27 15 53 15t53 -15q28 -15 50 -45q24 -32 38 -76q15 -46 15 -108q0 -58 -15 -103q-15 -46 -37 -75q-22 -30 -50 -45q-27 -15 -52 -15zM175 1h-1q34 0 55 53
q21 52 21 176q0 67 -6 112t-15 72q-9 26 -23 39q-14 12 -30 12t-30 -12t-24 -39q-10 -25 -16 -72q-6 -45 -6 -112q0 -124 21 -176q21 -53 54 -53zM175 590h1q28 0 42 11t20 32h9q-2 -38 -19 -64q-18 -27 -53 -27t-54 27q-19 26 -19 65h9q5 -20 20 -32t44 -12z" />
    <glyph glyph-name="Ohungarumlaut" unicode="&#x150;" horiz-adv-x="422" 
d="M211 -8h-2q-31 0 -63 24q-31 23 -58 72q-26 46 -43 120t-17 168q0 96 17 170q16 71 44 119q27 46 59 69t63 23q30 0 64 -23t59 -69t42 -119q17 -74 17 -170q0 -94 -17 -168q-16 -72 -42 -120q-25 -47 -59 -72q-33 -24 -64 -24zM209 2v-2q25 0 43 26q18 25 30 74
q12 48 18 117t6 156t-6 156t-18 117q-12 49 -30 74q-18 26 -43 26q-24 0 -42 -25q-18 -26 -30 -73q-12 -48 -18 -117t-6 -156t6 -156t18 -117q12 -49 30 -74q18 -26 42 -26zM258 784l39 81q8 13 15 20q8 8 21 8q12 0 18 -7q6 -8 6 -18q0 -11 -7 -19q-8 -9 -15 -15l-72 -56z
M146 784l39 80q8 13 15 20q8 8 21 8q12 0 18 -7t6 -18t-7 -18l-15 -15l-72 -56z" />
    <glyph glyph-name="ohungarumlaut" unicode="&#x151;" horiz-adv-x="358" 
d="M179 -6l-4 -1q-25 0 -52 15q-28 15 -50 45q-22 29 -37 75q-15 45 -15 104q0 62 15 108q14 44 38 76q22 30 50 45q27 15 53 15t53 -15q28 -15 50 -45q24 -32 38 -76q15 -46 15 -108q0 -58 -15 -103q-15 -46 -37 -75q-22 -30 -50 -45q-27 -15 -52 -15zM175 1h-1q34 0 55 53
q21 52 21 176q0 67 -6 112t-15 72q-9 26 -23 39q-14 12 -30 12t-30 -12t-24 -39q-10 -25 -16 -72q-6 -45 -6 -112q0 -124 21 -176q21 -53 54 -53zM215 526l34 124q5 20 12 29t23 9q11 0 18 -7t7 -18q0 -17 -12 -32l-76 -107zM114 526l36 125q5 20 12 29q8 9 21 9q12 0 18 -7
q6 -8 6 -18q0 -16 -11 -33l-76 -107z" />
    <glyph glyph-name="OE" unicode="&#x152;" horiz-adv-x="559" 
d="M448 336l-4 -2q-4 16 -6 25q-3 12 -11 24q-7 10 -23 18q-15 8 -43 9v-401h24q32 0 56 3q25 3 44 15t33 35q14 24 23 62h10l-12 -106q-1 -14 -6 -15q-6 -2 -12 -2h-281q-42 0 -80 23q-38 22 -66 69q-28 45 -46 117q-18 71 -18 167q0 97 18 168q18 70 47 116q29 45 66 66
t80 21h254q7 0 12 -3t6 -19l16 -91h-10q-20 62 -55 83q-36 21 -95 21h-5v-322q29 2 44 9q16 8 23 18q8 12 11 24q2 9 6 25h7v-157h-7zM237 738h-2q-68 0 -96 -94q-29 -96 -29 -270q0 -175 30 -271t97 -96q16 0 23 4q8 5 12 19q5 15 6 43q1 19 1 78v442q0 59 -1 78
q-2 29 -6 44q-4 14 -12 19q-7 4 -23 4z" />
    <glyph glyph-name="oe" unicode="&#x153;" horiz-adv-x="544" 
d="M181 -6v-6q-25 0 -54 15t-51 45q-22 29 -37 75q-15 45 -15 104q0 61 15 108q14 44 38 76q23 30 51 45t54 15q32 0 63 -19q32 -20 54 -61q23 41 51 62t54 21q98 0 116 -163h-182v-25v-27q0 -123 23 -189q22 -64 77 -64q25 0 44 11q17 10 27 20l6 -7q-7 -6 -30 -22
q-19 -13 -54 -13q-91 0 -135 75q-22 -38 -54 -57q-31 -19 -61 -19zM404 460h-2q-8 0 -18 -6t-19 -21q-10 -17 -17 -43t-10 -73h113q0 73 -12 108t-35 35zM179 -4h1q34 0 55 53q21 52 21 176q0 67 -6 112q-6 47 -16 72q-10 27 -24 39t-30 12t-31 -12q-14 -11 -25 -39
q-10 -25 -16 -72q-6 -45 -6 -112q0 -123 21 -176t56 -53z" />
    <glyph glyph-name="Racute" unicode="&#x154;" horiz-adv-x="380" 
d="M20 6l-1 -5q10 3 17 8q6 5 9 18q2 10 4 41q1 18 1 74v454q0 56 -1 74q-2 31 -4 41q-3 13 -9 18q-7 5 -17 8v6h123q40 0 78 -6q39 -6 68 -25q30 -20 48 -55q18 -36 18 -94q0 -45 -13 -78q-14 -35 -37 -60q-23 -24 -56 -40q-30 -14 -69 -19q24 -2 42 -10q21 -10 35 -28
q16 -21 26 -52q10 -33 18 -84q8 -58 15 -100q6 -38 12 -57t12 -25t17 -6q12 0 20 5t12 9l5 -4q-7 -10 -22 -17q-18 -8 -49 -8q-23 0 -37 7q-16 8 -26 27q-11 19 -18 54t-15 90q-10 79 -16 111q-8 40 -18 60q-11 20 -24 26q-14 6 -34 6v-223q0 -56 1 -74q2 -31 4 -41
q3 -14 9 -18q7 -5 17 -8v-6h-145v6zM132 736v-362h27q65 0 90 51q25 50 25 141q0 56 -9 89t-27 51t-42 24t-54 6h-10zM119 785l104 75q11 8 18 12t17 4q14 0 21 -7t7 -18q0 -28 -35 -39l-129 -33z" />
    <glyph glyph-name="racute" unicode="&#x155;" horiz-adv-x="267" 
d="M23 6l1 -4q10 3 14 6t7 12t3 24v41v251q0 25 -1 33q-2 13 -4 18q-3 6 -9 9q-5 2 -16 4v7l104 65v-77l4 5q36 39 55 54q20 16 39 16q22 0 31 -12t9 -28q0 -14 -9 -25q-9 -10 -24 -10q-10 0 -16 6l-12 12q-4 4 -10 12q-5 6 -12 6q-6 0 -15 -6q-10 -7 -32 -33l-5 -6v-297
v-41q0 -15 3 -24t9 -12t18 -6v-6h-132v6zM113 525l62 123q9 16 17 26q8 9 20 9t20 -8t8 -18q0 -21 -20 -41l-101 -95z" />
    <glyph glyph-name="uni0156" unicode="&#x156;" horiz-adv-x="380" 
d="M20 6l-1 -5q10 3 17 8q6 5 9 18q2 10 4 41q1 18 1 74v454q0 56 -1 74q-2 31 -4 41q-3 13 -9 18q-7 5 -17 8v6h123q40 0 78 -6q39 -6 68 -25q30 -20 48 -55q18 -36 18 -94q0 -45 -13 -78q-14 -35 -37 -60q-23 -24 -56 -40q-30 -14 -69 -19q24 -2 42 -10q21 -10 35 -28
q16 -21 26 -52q10 -33 18 -84q8 -58 15 -100q6 -38 12 -57t12 -25t17 -6q12 0 20 5t12 9l5 -4q-7 -10 -22 -17q-18 -8 -49 -8q-23 0 -37 7q-16 8 -26 27q-11 19 -18 54t-15 90q-10 79 -16 111q-8 40 -18 60q-11 20 -24 26q-14 6 -34 6v-223q0 -56 1 -74q2 -31 4 -41
q3 -14 9 -18q7 -5 17 -8v-6h-145v6zM132 736v-362h27q65 0 90 51q25 50 25 141q0 56 -9 89t-27 51t-42 24t-54 6h-10zM224 -116l1 -2q-3 -2 -10 -7q-7 -4 -19 -4q-16 0 -27 10q-12 11 -12 28q0 20 13 30q14 11 30 11q19 0 35 -14q15 -14 15 -41q0 -40 -22 -58
q-23 -19 -51 -23l-4 7q56 12 56 49q0 9 -5 14z" />
    <glyph glyph-name="uni0157" unicode="&#x157;" horiz-adv-x="267" 
d="M23 6l1 -4q10 3 14 6t7 12t3 24v41v251q0 25 -1 33q-2 13 -4 18q-3 6 -9 9q-5 2 -16 4v7l104 65v-77l4 5q36 39 55 54q20 16 39 16q22 0 31 -12t9 -28q0 -14 -9 -25q-9 -10 -24 -10q-10 0 -16 6l-12 12q-4 4 -10 12q-5 6 -12 6q-6 0 -15 -6q-10 -7 -32 -33l-5 -6v-297
v-41q0 -15 3 -24t9 -12t18 -6v-6h-132v6zM106 -115l1 -2q-3 -3 -10 -7t-19 -4q-16 0 -27 10q-12 10 -12 28q0 20 13 30q14 11 30 11q19 0 35 -14q15 -13 15 -41q0 -40 -22 -58q-23 -19 -51 -23l-4 7q56 12 56 49q0 9 -5 14z" />
    <glyph glyph-name="Rcaron" unicode="&#x158;" horiz-adv-x="380" 
d="M20 6l-1 -5q10 3 17 8q6 5 9 18q2 10 4 41q1 18 1 74v454q0 56 -1 74q-2 31 -4 41q-3 13 -9 18q-7 5 -17 8v6h123q40 0 78 -6q39 -6 68 -25q30 -20 48 -55q18 -36 18 -94q0 -45 -13 -78q-14 -35 -37 -60q-23 -24 -56 -40q-30 -14 -69 -19q24 -2 42 -10q21 -10 35 -28
q16 -21 26 -52q10 -33 18 -84q8 -58 15 -100q6 -38 12 -57t12 -25t17 -6q12 0 20 5t12 9l5 -4q-7 -10 -22 -17q-18 -8 -49 -8q-23 0 -37 7q-16 8 -26 27q-11 19 -18 54t-15 90q-10 79 -16 111q-8 40 -18 60q-11 20 -24 26q-14 6 -34 6v-223q0 -56 1 -74q2 -31 4 -41
q3 -14 9 -18q7 -5 17 -8v-6h-145v6zM132 736v-362h27q65 0 90 51q25 50 25 141q0 56 -9 89t-27 51t-42 24t-54 6h-10zM87 896l101 -50l102 50l4 -5l-106 -106l-105 106z" />
    <glyph glyph-name="rcaron" unicode="&#x159;" horiz-adv-x="267" 
d="M23 6l1 -4q10 3 14 6t7 12t3 24v41v251q0 25 -1 33q-2 13 -4 18q-3 6 -9 9q-5 2 -16 4v7l104 65v-77l4 5q36 39 55 54q20 16 39 16q22 0 31 -12t9 -28q0 -14 -9 -25q-9 -10 -24 -10q-10 0 -16 6l-12 12q-4 4 -10 12q-5 6 -12 6q-6 0 -15 -6q-10 -7 -32 -33l-5 -6v-297
v-41q0 -15 3 -24t9 -12t18 -6v-6h-132v6zM72 693l88 -87l88 87l7 -4l-95 -166l-95 166z" />
    <glyph glyph-name="Sacute" unicode="&#x15a;" horiz-adv-x="328" 
d="M146 -7l-5 -4q-23 0 -42 8q-21 9 -32 16q-14 9 -22 16l-10 8q-4 0 -9 -20h-6v182h7q13 -97 39 -148t75 -51q44 0 66 31q23 32 23 88q0 35 -9 66t-24 63q-18 38 -34 65q-15 26 -40 70q-25 43 -39 65q-19 30 -30 55q-13 30 -20 54q-7 25 -7 62q0 67 39 102q40 35 98 35
q18 0 30 -4q14 -4 24 -9q7 -3 17 -8q6 -3 11 -3q7 0 9 8q1 5 3 17h7v-137h-7q-10 41 -19 62q-11 25 -22 39q-12 15 -25 21t-28 6q-42 0 -58 -24q-16 -23 -16 -55q0 -27 9 -54q9 -26 24 -55q19 -35 34 -59q22 -33 39 -64l42 -70q17 -29 34 -66q16 -35 23 -66q8 -35 8 -67
q0 -44 -13 -76t-36 -55q-22 -23 -51 -33q-30 -11 -57 -11zM89 786l104 75q11 7 18 12q7 4 17 4q14 0 21 -7t7 -18q0 -28 -35 -39l-129 -33z" />
    <glyph glyph-name="sacute" unicode="&#x15b;" horiz-adv-x="269" 
d="M148 3l-1 -1q27 0 39 21t12 50q0 18 -4 33q-4 16 -15 33t-27 36q-15 17 -41 42q-23 21 -43 44q-15 17 -25 38q-9 18 -12 36t-3 38q0 22 8 41q8 18 21 30q15 13 30 20t33 7q12 0 23 -3q14 -4 20 -6l18 -7q9 -3 19 -3q6 0 11 5t6 12h8v-113l-8 1q-7 29 -20 52
q-13 22 -25 33q-14 13 -27 17q-15 5 -24 5q-17 0 -33 -13t-16 -42q0 -14 3 -26q3 -13 12 -26q8 -12 26 -30q24 -24 40 -39q31 -28 48 -49q19 -23 29 -44t15 -42q4 -19 4 -45q0 -25 -9 -46t-24 -36q-14 -14 -33 -22t-36 -8q-21 0 -36 6q-17 7 -26 12q-7 4 -19 12q-9 6 -18 6
q-13 0 -16 -18h-9v140h8q20 -74 49 -112q30 -39 68 -39zM89 528l62 123q9 16 17 26q8 9 20 9t20 -8t8 -18q0 -21 -20 -41l-101 -95z" />
    <glyph glyph-name="Scircumflex" unicode="&#x15c;" horiz-adv-x="328" 
d="M146 -7l-5 -4q-23 0 -42 8q-21 9 -32 16q-14 9 -22 16l-10 8q-4 0 -9 -20h-6v182h7q13 -97 39 -148t75 -51q44 0 66 31q23 32 23 88q0 35 -9 66t-24 63q-18 38 -34 65q-15 26 -40 70q-25 43 -39 65q-19 30 -30 55q-13 30 -20 54q-7 25 -7 62q0 67 39 102q40 35 98 35
q18 0 30 -4q14 -4 24 -9q7 -3 17 -8q6 -3 11 -3q7 0 9 8q1 5 3 17h7v-137h-7q-10 41 -19 62q-11 25 -22 39q-12 15 -25 21t-28 6q-42 0 -58 -24q-16 -23 -16 -55q0 -27 9 -54q9 -26 24 -55q19 -35 34 -59q22 -33 39 -64l42 -70q17 -29 34 -66q16 -35 23 -66q8 -35 8 -67
q0 -44 -13 -76t-36 -55q-22 -23 -51 -33q-30 -11 -57 -11zM158 890l106 -106l-4 -5l-102 50l-101 -50l-4 5z" />
    <glyph glyph-name="scircumflex" unicode="&#x15d;" horiz-adv-x="269" 
d="M148 3l-1 -1q27 0 39 21t12 50q0 18 -4 33q-4 16 -15 33t-27 36q-15 17 -41 42q-23 21 -43 44q-15 17 -25 38q-9 18 -12 36t-3 38q0 22 8 41q8 18 21 30q15 13 30 20t33 7q12 0 23 -3q14 -4 20 -6l18 -7q9 -3 19 -3q6 0 11 5t6 12h8v-113l-8 1q-7 29 -20 52
q-13 22 -25 33q-14 13 -27 17q-15 5 -24 5q-17 0 -33 -13t-16 -42q0 -14 3 -26q3 -13 12 -26q8 -12 26 -30q24 -24 40 -39q31 -28 48 -49q19 -23 29 -44t15 -42q4 -19 4 -45q0 -25 -9 -46t-24 -36q-14 -14 -33 -22t-36 -8q-21 0 -36 6q-17 7 -26 12q-7 4 -19 12q-9 6 -18 6
q-13 0 -16 -18h-9v140h8q20 -74 49 -112q30 -39 68 -39zM135 695l95 -166l-7 -4l-88 87l-88 -87l-7 4z" />
    <glyph glyph-name="uni015E" unicode="&#x15e;" horiz-adv-x="328" 
d="M146 -3l-17 -36q28 -3 52 -18t24 -43q0 -26 -28 -45q-29 -20 -100 -21l-1 8q43 4 63 17q19 12 19 29t-18 23q-20 7 -35 8l-2 5l32 73h11zM144 -7l-5 -4q-23 0 -42 8q-21 9 -32 16q-14 9 -22 16l-10 8q-4 0 -9 -20h-6v182h7q13 -97 39 -148t75 -51q44 0 66 31q23 32 23 88
q0 35 -9 66t-24 63q-18 38 -34 65q-15 26 -40 70q-25 43 -39 65q-19 30 -30 55q-13 30 -20 54q-7 25 -7 62q0 67 39 102q40 35 98 35q18 0 30 -4q14 -4 24 -9q7 -3 17 -8q6 -3 11 -3q7 0 9 8q1 5 3 17h7v-137h-7q-10 41 -19 62q-11 25 -22 39q-12 15 -25 21t-28 6
q-42 0 -58 -24q-16 -23 -16 -55q0 -27 9 -54q9 -26 24 -55q19 -35 34 -59q22 -33 39 -64l42 -70q17 -29 34 -66q16 -35 23 -66q8 -35 8 -67q0 -44 -13 -76t-36 -55q-22 -23 -51 -33q-30 -11 -57 -11z" />
    <glyph glyph-name="uni015F" unicode="&#x15f;" horiz-adv-x="269" 
d="M128 3l-20 -42q28 -3 52 -18t24 -43q0 -26 -28 -45q-29 -20 -100 -21l-1 8q43 4 63 17q19 12 19 29t-18 23q-20 7 -35 8l-2 5l35 79h11zM146 3l-1 -1q27 0 39 21t12 50q0 18 -4 33q-4 16 -15 33t-27 36q-15 17 -41 42q-23 21 -43 44q-15 17 -25 38q-9 18 -12 36t-3 38
q0 22 8 41q8 18 21 30q15 13 30 20t33 7q12 0 23 -3q14 -4 20 -6l18 -7q9 -3 19 -3q6 0 11 5t6 12h8v-113l-8 1q-7 29 -20 52q-13 22 -25 33q-14 13 -27 17q-15 5 -24 5q-17 0 -33 -13t-16 -42q0 -14 3 -26q3 -13 12 -26q8 -12 26 -30q24 -24 40 -39q31 -28 48 -49
q19 -23 29 -44t15 -42q4 -19 4 -45q0 -25 -9 -46t-24 -36q-14 -14 -33 -22t-36 -8q-21 0 -36 6q-17 7 -26 12q-7 4 -19 12q-9 6 -18 6q-13 0 -16 -18h-9v140h8q20 -74 49 -112q30 -39 68 -39z" />
    <glyph glyph-name="Scaron" unicode="&#x160;" horiz-adv-x="328" 
d="M146 -7l-5 -4q-23 0 -42 8q-21 9 -32 16q-14 9 -22 16l-10 8q-4 0 -9 -20h-6v182h7q13 -97 39 -148t75 -51q44 0 66 31q23 32 23 88q0 35 -9 66t-24 63q-18 38 -34 65q-15 26 -40 70q-25 43 -39 65q-19 30 -30 55q-13 30 -20 54q-7 25 -7 62q0 67 39 102q40 35 98 35
q18 0 30 -4q14 -4 24 -9q7 -3 17 -8q6 -3 11 -3q7 0 9 8q1 5 3 17h7v-137h-7q-10 41 -19 62q-11 25 -22 39q-12 15 -25 21t-28 6q-42 0 -58 -24q-16 -23 -16 -55q0 -27 9 -54q9 -26 24 -55q19 -35 34 -59q22 -33 39 -64l42 -70q17 -29 34 -66q16 -35 23 -66q8 -35 8 -67
q0 -44 -13 -76t-36 -55q-22 -23 -51 -33q-30 -11 -57 -11zM57 897l101 -50l102 50l4 -5l-106 -106l-105 106z" />
    <glyph glyph-name="scaron" unicode="&#x161;" horiz-adv-x="269" 
d="M148 3l-1 -1q27 0 39 21t12 50q0 18 -4 33q-4 16 -15 33t-27 36q-15 17 -41 42q-23 21 -43 44q-15 17 -25 38q-9 18 -12 36t-3 38q0 22 8 41q8 18 21 30q15 13 30 20t33 7q12 0 23 -3q14 -4 20 -6l18 -7q9 -3 19 -3q6 0 11 5t6 12h8v-113l-8 1q-7 29 -20 52
q-13 22 -25 33q-14 13 -27 17q-15 5 -24 5q-17 0 -33 -13t-16 -42q0 -14 3 -26q3 -13 12 -26q8 -12 26 -30q24 -24 40 -39q31 -28 48 -49q19 -23 29 -44t15 -42q4 -19 4 -45q0 -25 -9 -46t-24 -36q-14 -14 -33 -22t-36 -8q-21 0 -36 6q-17 7 -26 12q-7 4 -19 12q-9 6 -18 6
q-13 0 -16 -18h-9v140h8q20 -74 49 -112q30 -39 68 -39zM47 696l88 -87l88 87l7 -4l-95 -166l-95 166z" />
    <glyph glyph-name="Tcommaaccent" unicode="&#x162;" horiz-adv-x="376" 
d="M116 6l3 -3q10 3 17 8q6 4 9 20q2 12 4 42q1 18 1 74v593q-37 0 -57 -7q-22 -8 -35 -22t-22 -36q-4 -10 -19 -50h-7l10 103q1 15 5 19q3 3 11 3h309q8 0 11 -3q4 -4 5 -19l8 -103h-7q-15 40 -19 50q-9 22 -22 36t-35 22t-56 8v-593q0 -55 1 -73q2 -30 4 -42q3 -14 9 -19
q7 -5 17 -8v-6h-145v6zM210 -114l1 -2q-3 -2 -10 -7q-7 -4 -19 -4q-16 0 -27 10q-12 11 -12 28q0 20 13 30q14 11 30 11q19 0 35 -14q15 -14 15 -41q0 -40 -22 -58q-23 -19 -51 -23l-4 7q56 12 56 49q0 9 -5 14z" />
    <glyph glyph-name="tcommaaccent" unicode="&#x163;" horiz-adv-x="210" 
d="M138 -9l-2 1q-16 0 -33 6q-16 6 -28 18q-13 13 -20 30q-8 19 -8 44v367h-41v9q19 3 37 12q17 9 33 26q14 15 25 42q11 26 15 63h9v-142h76v-10h-76v-351q0 -48 6 -75t32 -27q13 0 21 3q9 3 17 9l5 -6q-7 -7 -22 -13t-46 -6zM126 -110l1 -2q-3 -2 -10 -7q-7 -4 -19 -4
q-16 0 -27 10q-12 11 -12 28q0 20 13 30q14 11 30 11q19 0 35 -14q15 -14 15 -41q0 -40 -22 -58q-23 -19 -51 -23l-4 7q56 12 56 49q0 9 -5 14z" />
    <glyph glyph-name="Tcaron" unicode="&#x164;" horiz-adv-x="376" 
d="M116 6l3 -3q10 3 17 8q6 4 9 20q2 12 4 42q1 18 1 74v593q-37 0 -57 -7q-22 -8 -35 -22t-22 -36q-4 -10 -19 -50h-7l10 103q1 15 5 19q3 3 11 3h309q8 0 11 -3q4 -4 5 -19l8 -103h-7q-15 40 -19 50q-9 22 -22 36t-35 22t-56 8v-593q0 -55 1 -73q2 -30 4 -42q3 -14 9 -19
q7 -5 17 -8v-6h-145v6zM91 898l101 -50l102 50l4 -5l-106 -106l-105 106z" />
    <glyph glyph-name="tcaron" unicode="&#x165;" horiz-adv-x="210" 
d="M138 -9l-2 1q-16 0 -33 6q-16 6 -28 18q-13 13 -20 30q-8 19 -8 44v367h-41v9q19 3 37 12q17 9 33 26q14 15 25 42q11 26 15 63h9v-142h76v-10h-76v-351q0 -48 6 -75t32 -27q13 0 21 3q9 3 17 9l5 -6q-7 -7 -22 -13t-46 -6zM155 536l11 129q2 24 9 36t23 12q12 0 19 -7
t7 -18q0 -13 -9 -34l-54 -120z" />
    <glyph glyph-name="Tbar" unicode="&#x166;" horiz-adv-x="376" 
d="M61 428h255v-9h-255v9zM116 6l3 -3q10 3 17 8q6 4 9 20q2 12 4 42q1 18 1 74v593q-37 0 -57 -7q-22 -8 -35 -22t-22 -36q-4 -10 -19 -50h-7l10 103q1 15 5 19q3 3 11 3h309q8 0 11 -3q4 -4 5 -19l8 -103h-7q-15 40 -19 50q-9 22 -22 36t-35 22t-56 8v-593q0 -55 1 -73
q2 -30 4 -42q3 -14 9 -19q7 -5 17 -8v-6h-145v6z" />
    <glyph glyph-name="tbar" unicode="&#x167;" horiz-adv-x="210" 
d="M8 308h190v-9h-190v9zM138 -9l-2 1q-16 0 -33 6q-16 6 -28 18q-13 13 -20 30q-8 19 -8 44v367h-41v9q19 3 37 12q17 9 33 26q14 15 25 42q11 26 15 63h9v-142h76v-10h-76v-351q0 -48 6 -75t32 -27q13 0 21 3q9 3 17 9l5 -6q-7 -7 -22 -13t-46 -6z" />
    <glyph glyph-name="Utilde" unicode="&#x168;" horiz-adv-x="369" 
d="M203 -10l-4 -2q-37 0 -66 9t-49 28t-31 51q-11 33 -11 75v450q0 56 -1 74q-2 31 -4 41q-3 14 -9 18q-7 6 -16 8v6h143v-6q-10 -3 -17 -8q-6 -4 -9 -18q-2 -10 -4 -41q-1 -18 -1 -74v-453q0 -77 23 -112q22 -34 68 -34q49 0 72 39q23 40 23 106v451q0 56 -1 74
q-2 31 -4 41q-3 14 -11 20q-9 7 -21 11v6h81v-6q-10 -5 -17 -11q-6 -6 -9 -20q-2 -10 -4 -41q-1 -18 -1 -74v-451q0 -73 -27 -115t-93 -42zM175 855l-3 2q19 0 40 -4t38 -4q8 0 15 6q9 7 23 27l7 -2q-11 -46 -24 -62q-14 -17 -27 -17q-16 0 -39 3q-22 3 -38 3q-9 0 -17 -6
q-8 -7 -24 -28l-6 2q24 80 55 80z" />
    <glyph glyph-name="utilde" unicode="&#x169;" horiz-adv-x="360" 
d="M137 -8l7 -2q-15 0 -33 5q-16 4 -30 17q-13 12 -22 31t-9 48v248q0 25 -1 33q-2 13 -4 18q-3 6 -9 9q-5 2 -16 4v7l104 65v-391q0 -41 10 -58q10 -18 27 -18q3 0 11 2q5 1 15 8q11 7 23 18q13 12 31 31v272q0 25 -1 33q-2 13 -4 18q-3 6 -9 9q-5 2 -16 4v7l105 65v-386
v-41q0 -12 2 -24q2 -9 6 -12t14 -6v-6h-100v57q-24 -24 -33 -32q-17 -15 -25 -20q-11 -7 -22 -10q-10 -3 -21 -3zM154 623l-1 -2q11 0 18 -1q14 -2 22 -3t22 -3q7 -1 18 -1q7 0 15 8q10 10 23 27l7 -3q-10 -45 -24 -63t-27 -18q-14 0 -41 5t-40 5q-10 0 -18 -7
q-8 -6 -25 -30l-6 3q12 41 27 62t30 21z" />
    <glyph glyph-name="Umacron" unicode="&#x16a;" horiz-adv-x="369" 
d="M203 -10l-4 -2q-37 0 -66 9t-49 28t-31 51q-11 33 -11 75v450q0 56 -1 74q-2 31 -4 41q-3 14 -9 18q-7 6 -16 8v6h143v-6q-10 -3 -17 -8q-6 -4 -9 -18q-2 -10 -4 -41q-1 -18 -1 -74v-453q0 -77 23 -112q22 -34 68 -34q49 0 72 39q23 40 23 106v451q0 56 -1 74
q-2 31 -4 41q-3 14 -11 20q-9 7 -21 11v6h81v-6q-10 -5 -17 -11q-6 -6 -9 -20q-2 -10 -4 -41q-1 -18 -1 -74v-451q0 -73 -27 -115t-93 -42zM283 792h-160v35h160v-35z" />
    <glyph glyph-name="umacron" unicode="&#x16b;" horiz-adv-x="360" 
d="M137 -8l7 -2q-15 0 -33 5q-16 4 -30 17q-13 12 -22 31t-9 48v248q0 25 -1 33q-2 13 -4 18q-3 6 -9 9q-5 2 -16 4v7l104 65v-391q0 -41 10 -58q10 -18 27 -18q3 0 11 2q5 1 15 8q11 7 23 18q13 12 31 31v272q0 25 -1 33q-2 13 -4 18q-3 6 -9 9q-5 2 -16 4v7l105 65v-386
v-41q0 -12 2 -24q2 -9 6 -12t14 -6v-6h-100v57q-24 -24 -33 -32q-17 -15 -25 -20q-11 -7 -22 -10q-10 -3 -21 -3zM267 598v-34h-151v34h151z" />
    <glyph glyph-name="Ubreve" unicode="&#x16c;" horiz-adv-x="369" 
d="M203 -10l-4 -2q-37 0 -66 9t-49 28t-31 51q-11 33 -11 75v450q0 56 -1 74q-2 31 -4 41q-3 14 -9 18q-7 6 -16 8v6h143v-6q-10 -3 -17 -8q-6 -4 -9 -18q-2 -10 -4 -41q-1 -18 -1 -74v-453q0 -77 23 -112q22 -34 68 -34q49 0 72 39q23 40 23 106v451q0 56 -1 74
q-2 31 -4 41q-3 14 -11 20q-9 7 -21 11v6h81v-6q-10 -5 -17 -11q-6 -6 -9 -20q-2 -10 -4 -41q-1 -18 -1 -74v-451q0 -73 -27 -115t-93 -42zM204 835v-2q28 0 44 11q15 10 21 29h9q-1 -33 -20 -61q-18 -27 -54 -27q-34 0 -54 27t-21 63h9q4 -16 21 -28t45 -12z" />
    <glyph glyph-name="ubreve" unicode="&#x16d;" horiz-adv-x="360" 
d="M137 -8l7 -2q-15 0 -33 5q-16 4 -30 17q-13 12 -22 31t-9 48v248q0 25 -1 33q-2 13 -4 18q-3 6 -9 9q-5 2 -16 4v7l104 65v-391q0 -41 10 -58q10 -18 27 -18q3 0 11 2q5 1 15 8q11 7 23 18q13 12 31 31v272q0 25 -1 33q-2 13 -4 18q-3 6 -9 9q-5 2 -16 4v7l105 65v-386
v-41q0 -12 2 -24q2 -9 6 -12t14 -6v-6h-100v57q-24 -24 -33 -32q-17 -15 -25 -20q-11 -7 -22 -10q-10 -3 -21 -3zM192 589h1q28 0 42 11t20 32h9q-2 -38 -19 -64q-18 -27 -53 -27q-34 0 -54 27q-19 26 -19 65h9q5 -20 20 -32t44 -12z" />
    <glyph glyph-name="Uring" unicode="&#x16e;" horiz-adv-x="369" 
d="M203 -10l-4 -2q-37 0 -66 9t-49 28t-31 51q-11 33 -11 75v450q0 56 -1 74q-2 31 -4 41q-3 14 -9 18q-7 6 -16 8v6h143v-6q-10 -3 -17 -8q-6 -4 -9 -18q-2 -10 -4 -41q-1 -18 -1 -74v-453q0 -77 23 -112q22 -34 68 -34q49 0 72 39q23 40 23 106v451q0 56 -1 74
q-2 31 -4 41q-3 14 -11 20q-9 7 -21 11v6h81v-6q-10 -5 -17 -11q-6 -6 -9 -20q-2 -10 -4 -41q-1 -18 -1 -74v-451q0 -73 -27 -115t-93 -42zM130 844v-2q0 28 23 48t53 20q31 0 54 -20q22 -19 22 -48q0 -30 -22 -49t-54 -19q-31 0 -54 20q-22 19 -22 50zM165 842
q0 -26 10 -42q11 -17 30 -17t30 17q10 16 10 42t-10 43q-11 18 -30 18t-30 -18q-10 -17 -10 -43z" />
    <glyph glyph-name="uring" unicode="&#x16f;" horiz-adv-x="360" 
d="M137 -8l7 -2q-15 0 -33 5q-16 4 -30 17q-13 12 -22 31t-9 48v248q0 25 -1 33q-2 13 -4 18q-3 6 -9 9q-5 2 -16 4v7l104 65v-391q0 -41 10 -58q10 -18 27 -18q3 0 11 2q5 1 15 8q11 7 23 18q13 12 31 31v272q0 25 -1 33q-2 13 -4 18q-3 6 -9 9q-5 2 -16 4v7l105 65v-386
v-41q0 -12 2 -24q2 -9 6 -12t14 -6v-6h-100v57q-24 -24 -33 -32q-17 -15 -25 -20q-11 -7 -22 -10q-10 -3 -21 -3zM119 596v-2q0 28 21 48q22 20 50 20t50 -20q21 -20 21 -48q0 -30 -21 -49q-20 -19 -50 -19t-50 19q-21 19 -21 51zM153 594h-2q0 -26 10 -42q11 -17 28 -17
t28 17q10 16 10 42q0 25 -10 42q-11 18 -27 18t-27 -18q-10 -17 -10 -42z" />
    <glyph glyph-name="Uhungarumlaut" unicode="&#x170;" horiz-adv-x="369" 
d="M203 -10l-4 -2q-37 0 -66 9t-49 28t-31 51q-11 33 -11 75v450q0 56 -1 74q-2 31 -4 41q-3 14 -9 18q-7 6 -16 8v6h143v-6q-10 -3 -17 -8q-6 -4 -9 -18q-2 -10 -4 -41q-1 -18 -1 -74v-453q0 -77 23 -112q22 -34 68 -34q49 0 72 39q23 40 23 106v451q0 56 -1 74
q-2 31 -4 41q-3 14 -11 20q-9 7 -21 11v6h81v-6q-10 -5 -17 -11q-6 -6 -9 -20q-2 -10 -4 -41q-1 -18 -1 -74v-451q0 -73 -27 -115t-93 -42zM252 784l39 81q8 13 15 20q8 8 21 8q12 0 18 -7q6 -8 6 -18q0 -11 -7 -19q-8 -9 -15 -15l-72 -56zM140 784l39 80q8 13 15 20
q8 8 21 8q12 0 18 -7t6 -18t-7 -18l-15 -15l-72 -56z" />
    <glyph glyph-name="uhungarumlaut" unicode="&#x171;" horiz-adv-x="360" 
d="M137 -8l7 -2q-15 0 -33 5q-16 4 -30 17q-13 12 -22 31t-9 48v248q0 25 -1 33q-2 13 -4 18q-3 6 -9 9q-5 2 -16 4v7l104 65v-391q0 -41 10 -58q10 -18 27 -18q3 0 11 2q5 1 15 8q11 7 23 18q13 12 31 31v272q0 25 -1 33q-2 13 -4 18q-3 6 -9 9q-5 2 -16 4v7l105 65v-386
v-41q0 -12 2 -24q2 -9 6 -12t14 -6v-6h-100v57q-24 -24 -33 -32q-17 -15 -25 -20q-11 -7 -22 -10q-10 -3 -21 -3zM232 525l34 124q5 20 12 29q8 9 23 9q11 0 18 -7t7 -18q0 -17 -12 -32l-76 -107zM131 525l36 125q5 20 12 29t21 9q12 0 18 -7t6 -18q0 -16 -11 -33l-76 -107z
" />
    <glyph glyph-name="Uogonek" unicode="&#x172;" horiz-adv-x="369" 
d="M216 -171l-2 -6q-30 0 -47 17t-17 42q0 20 9 36t21 30t27 24l27 18q-15 -5 -33 -5q-37 0 -66 9t-49 28t-31 51q-11 33 -11 75v450q0 56 -1 74q-2 31 -4 41q-3 13 -9 18q-7 6 -16 8v6h143v-6q-10 -3 -17 -8q-6 -5 -9 -18q-2 -10 -4 -41q-1 -18 -1 -74v-453q0 -77 23 -112
q22 -34 68 -34q49 0 72 39q23 40 23 106v451q0 56 -1 74q-2 31 -4 41q-3 14 -11 20q-9 7 -21 11v6h81v-6q-10 -5 -17 -11q-6 -6 -9 -20q-2 -10 -4 -41q-1 -18 -1 -74v-451q0 -49 -12 -85q-12 -35 -38 -52q-6 -3 -19 -14q-9 -7 -19 -23q-9 -14 -15 -31q-6 -18 -6 -40
q0 -15 8 -28q8 -12 24 -12q13 0 20 4q8 5 15 12l5 -5l-9 -12q-7 -9 -15 -14q-11 -7 -21 -11q-11 -4 -27 -4z" />
    <glyph glyph-name="uogonek" unicode="&#x173;" horiz-adv-x="360" 
d="M137 -8l6 -5q-15 0 -33 5q-16 4 -30 17q-13 12 -22 31q-9 20 -9 48v248q0 25 -1 33q-2 13 -4 18q-3 6 -9 9q-5 2 -16 4v7l104 65v-391q0 -41 10 -58q11 -18 27 -18q3 0 11 2q5 1 15 8q11 7 23 18q13 12 31 31v272q0 25 -1 33q-2 13 -4 18q-3 6 -9 9q-5 2 -16 4v7l105 65
v-386v-41q0 -12 2 -24q1 -9 6 -12q4 -3 14 -6v-6h-88q-17 -15 -29 -41t-12 -57q0 -15 8 -28q8 -12 24 -12q14 0 21 4q7 5 15 12l5 -5l-9 -12q-7 -9 -15 -14q-11 -7 -21 -11q-11 -4 -27 -4q-31 0 -48 17q-16 16 -16 42q0 22 10 39q10 18 25 31q16 15 31 24q17 10 27 18v57
q-24 -24 -33 -32q-17 -15 -25 -20q-11 -7 -22 -10q-10 -3 -21 -3z" />
    <glyph glyph-name="Wcircumflex" unicode="&#x174;" horiz-adv-x="547" 
d="M47 623l-6 -3l-12 48t-9 33q-5 16 -10 23q-7 10 -15 17v7h134v-7q-23 -7 -24 -24q-1 -16 9 -58l116 -505l49 219l-55 247q-8 28 -12 48t-9 33q-4 13 -11 23q-6 9 -17 15v7h132v-7q-21 -6 -21 -22q0 -17 9 -60l37 -176l26 139q1 5 7 41q3 20 2 33q-2 16 -7 27
q-6 12 -19 19v7h79v-7q-10 -4 -18 -9t-12 -16q-5 -13 -9 -34l-12 -60l-32 -162l63 -299l84 460l7 42q3 18 1 35q-2 16 -9 26q-7 11 -24 18v7h87v-7q-5 -3 -13 -9q-6 -4 -12 -17q-6 -12 -12 -33q-6 -20 -12 -59l-115 -628h-12l-81 359l-81 -359h-12zM287 891l106 -106l-4 -5
l-102 50l-101 -50l-4 5z" />
    <glyph glyph-name="wcircumflex" unicode="&#x175;" horiz-adv-x="438" 
d="M47 355l-1 2q-13 51 -14 54q-4 19 -9 30t-9 15t-14 7v6h126v-6q-10 -3 -15 -6q-4 -3 -6 -14q-1 -11 3 -30q1 -4 3 -13.5t4.5 -19t4.5 -19.5l57 -237l45 164l-17 70l-14 56q-5 20 -9 30q-5 12 -7 14q-4 4 -10 5v6h128v-6q-11 -3 -16 -7q-6 -4 -9 -15t0 -30q4 -25 10 -52
l49 -223l45 201q12 48 14 67q3 24 0 36t-12 15q-11 4 -24 5v6h87v-6q-12 -3 -17 -6q-7 -3 -11 -15q-6 -16 -11 -36q-2 -9 -7.5 -31.5t-8.5 -35.5l-76 -341h-11l-67 271l-75 -271h-11zM229 698l95 -166l-7 -4l-88 87l-88 -87l-7 4z" />
    <glyph glyph-name="Ycircumflex" unicode="&#x176;" horiz-adv-x="331" 
d="M102 6l1 -4q10 3 17 8q6 4 9 20q2 12 4 42q1 18 1 74v245l-80 235q-7 23 -12 44q-5 22 -10 32q-7 16 -13 23q-7 9 -18 18v6h134v-6q-11 -3 -15 -9q-4 -5 -4 -15q0 -9 3 -21q1 -5 4 -15.5t4 -13.5l83 -260l56 213q7 23 13 53q4 21 3 34q-2 13 -12 21t-30 12v6h91v-6
q-9 -4 -16 -9q-5 -4 -10 -17q-7 -18 -11 -33q-2 -7 -7 -26.5t-9 -32.5l-62 -222v-254q0 -55 1 -73q2 -30 4 -42q3 -14 9 -19q7 -5 17 -8v-6h-145v6zM188 890l106 -106l-4 -5l-102 50l-101 -50l-4 5z" />
    <glyph glyph-name="ycircumflex" unicode="&#x177;" horiz-adv-x="305" 
d="M33 -171l-2 -4q-20 0 -29 9t-9 22t9 22t26 9q16 0 25 -6t20 -6t25 18q13 17 34 70l11 41l-96 351q-10 37 -15 53q-7 24 -10 30q-4 10 -9 15q-4 4 -12 7v6h130v-6q-10 -1 -16 -6q-5 -4 -7 -15t3 -30t12 -51l56 -229l58 205q13 44 17 65q4 24 3 36q-2 13 -9 17q-8 5 -19 6
v6h75v-6q-9 -4 -15 -9q-6 -4 -10 -16q-3 -8 -12 -35q-3 -9 -19 -63l-105 -371q-30 -76 -55 -105q-26 -30 -55 -30zM169 692l95 -166l-7 -4l-88 87l-88 -87l-7 4z" />
    <glyph glyph-name="Ydieresis" unicode="&#x178;" horiz-adv-x="331" 
d="M102 6l1 -4q10 3 17 8q6 4 9 20q2 12 4 42q1 18 1 74v245l-80 235q-7 23 -12 44q-5 22 -10 32q-7 16 -13 23q-7 9 -18 18v6h134v-6q-11 -3 -15 -9q-4 -5 -4 -15q0 -9 3 -21q1 -5 4 -15.5t4 -13.5l83 -260l56 213q7 23 13 53q4 21 3 34q-2 13 -12 21t-30 12v6h91v-6
q-9 -4 -16 -9q-5 -4 -10 -17q-7 -18 -11 -33q-2 -7 -7 -26.5t-9 -32.5l-62 -222v-254q0 -55 1 -73q2 -30 4 -42q3 -14 9 -19q7 -5 17 -8v-6h-145v6zM259 784v-1q-19 0 -31 12t-12 32q0 18 12 30t31 12q17 0 29 -12t12 -30q0 -19 -12 -31t-29 -12zM117 783v-1q-17 0 -29 12
t-12 32q0 18 12 30t29 12q19 0 31 -12t12 -30q0 -19 -12 -31t-31 -12z" />
    <glyph glyph-name="Zacute" unicode="&#x179;" horiz-adv-x="335" 
d="M220 742l-3 -2q-42 0 -69 -9q-25 -8 -46 -26q-19 -16 -33 -41q-18 -32 -29 -54h-6l23 140h245l-199 -742h13q52 0 83 9t53 29q21 19 34 49q13 29 27 71h6l-17 -166h-281zM101 788l104 75q11 7 18 12q7 4 17 4q14 0 21 -7t7 -18q0 -28 -35 -39l-129 -33z" />
    <glyph glyph-name="zacute" unicode="&#x17a;" horiz-adv-x="288" 
d="M266 -10l4 -2q-10 4 -16 5q-9 1 -24 3q-20 2 -37 2h-55h-126l180 458h-40q-31 0 -49 -7q-20 -8 -33 -19q-12 -11 -22 -29q-9 -17 -18 -36h-8l21 111q15 -7 44 -9q19 -1 84 -1h95l-185 -458h57q34 0 58 8q22 7 37 21q15 13 24 35q8 20 18 50h8zM108 527l62 123q9 16 17 26
q7 9 20 9q12 0 20 -8t8 -18q0 -21 -20 -41l-101 -95z" />
    <glyph glyph-name="Zdotaccent" unicode="&#x17b;" horiz-adv-x="335" 
d="M220 742l-3 -2q-42 0 -69 -9q-25 -8 -46 -26q-19 -16 -33 -41q-18 -32 -29 -54h-6l23 140h245l-199 -742h13q52 0 83 9t53 29q21 19 34 49q13 29 27 71h6l-17 -166h-281zM171 786v-2q-19 0 -33 14q-13 13 -13 33t13 32q14 12 33 12t33 -12q13 -12 13 -31q0 -20 -13 -33
t-33 -13z" />
    <glyph glyph-name="zdotaccent" unicode="&#x17c;" horiz-adv-x="288" 
d="M266 -10l4 -2q-10 4 -16 5q-9 1 -24 3q-20 2 -37 2h-55h-126l180 458h-40q-31 0 -49 -7q-20 -8 -33 -19q-12 -11 -22 -29q-9 -17 -18 -36h-8l21 111q15 -7 44 -9q19 -1 84 -1h95l-185 -458h57q34 0 58 8q22 7 37 21q15 13 24 35q8 20 18 50h8zM154 552q-20 0 -33 13
t-13 33t13 33t33 13t33 -13t13 -33t-13 -33t-33 -13z" />
    <glyph glyph-name="Zcaron" unicode="&#x17d;" horiz-adv-x="335" 
d="M220 742l-3 -2q-42 0 -69 -9q-25 -8 -46 -26q-19 -16 -33 -41q-18 -32 -29 -54h-6l23 140h245l-199 -742h13q52 0 83 9t53 29q21 19 34 49q13 29 27 71h6l-17 -166h-281zM69 899l101 -50l102 50l4 -5l-106 -106l-105 106z" />
    <glyph glyph-name="zcaron" unicode="&#x17e;" horiz-adv-x="288" 
d="M266 -10l4 -2q-10 4 -16 5q-9 1 -24 3q-20 2 -37 2h-55h-126l180 458h-40q-31 0 -49 -7q-20 -8 -33 -19q-12 -11 -22 -29q-9 -17 -18 -36h-8l21 111q15 -7 44 -9q19 -1 84 -1h95l-185 -458h57q34 0 58 8q22 7 37 21q15 13 24 35q8 20 18 50h8zM66 695l88 -87l88 87l7 -4
l-95 -166l-95 166z" />
    <glyph glyph-name="uni0192" unicode="&#x192;" horiz-adv-x="326" 
d="M55 466l53 -4l10 92q6 62 21 102q15 42 34 63q20 24 40 32q21 9 40 9q29 0 51 -12q23 -12 23 -34q0 -12 -7 -20q-8 -9 -21 -9q-16 0 -24 8q-7 7 -10 21q-4 20 -8 30q-3 7 -12 7q-8 0 -15 -4t-13 -18q-7 -16 -11 -36q-4 -23 -9 -57l-19 -173h69v-10h-70l-34 -316
q-9 -80 -26 -132q-17 -49 -36 -78q-19 -28 -40 -37t-37 -9q-26 0 -48 13t-22 34q0 11 6 20t20 9q15 0 21 -7q6 -8 9 -21q4 -23 11 -31q6 -7 13 -7q11 0 18 7q8 8 14 30q6 23 12 64q4 30 13 112l37 352h-53v10z" />
    <glyph glyph-name="Aringacute" unicode="&#x1fa;" horiz-adv-x="336" 
d="M-1 5l-7 -1q8 5 14 12q5 6 10 21q6 17 8 34q1 6 3.5 24t4.5 29l86 556q-6 37 -17 50q-11 12 -21 15v5h93q7 0 11 -2t5 -12l101 -609q4 -30 9 -52t9 -35q5 -15 10 -21q6 -7 15 -12v-6h-129v6q7 1 13 6q7 5 8 12q2 10 2 21q0 14 -3 36l-23 139h-139l-15 -95q-5 -33 -6 -54
q-2 -22 1 -34q3 -14 9 -21t20 -12v-5h-72v5zM194 228l-71 419l-65 -419h136zM63 849v-2q0 28 23 48t53 20q31 0 54 -20q22 -19 22 -48q0 -30 -22 -49t-54 -19q-31 0 -54 20q-22 19 -22 50zM98 847q0 -26 10 -42q11 -17 30 -17t30 17q10 16 10 42t-10 43q-10 18 -30 18
t-30 -18q-10 -17 -10 -43zM69 928l104 75q11 7 18 12q7 4 17 4q14 0 21 -7t7 -18q0 -28 -35 -39l-129 -33z" />
    <glyph glyph-name="aringacute" unicode="&#x1fb;" horiz-adv-x="326" 
d="M107 -5l-7 -8q-34 0 -58 24t-24 75q0 32 12 51q13 21 30 35t41 27q23 12 42 27h1q24 18 38 33q15 17 15 50v66q0 21 -2 43q-1 16 -6 25t-13 12q-9 3 -22 3q-19 0 -30 -10t-19 -39q-5 -17 -12 -26t-24 -9q-13 0 -21 9q-7 8 -7 20q0 10 6 22q5 11 20 22q14 11 35 17t53 6
q33 0 53 -4q22 -4 38 -17t23 -33q8 -22 8 -55v-232q0 -49 1 -65q2 -27 4 -36q3 -12 7 -16t12 -4q16 0 26 8l3 -5q-6 -6 -18 -12t-38 -6q-39 0 -54 18q-16 19 -17 42q-20 -22 -25 -27q-10 -10 -21 -18q-10 -7 -22 -10t-28 -3zM93 102l-1 -2q0 -97 41 -97q10 0 21 10
q14 13 41 42v213q-7 -16 -21 -28q-13 -11 -31 -25h-1q-18 -15 -27 -25q-10 -12 -15 -26q-4 -13 -6 -29q-1 -10 -1 -33zM84 588v-2q0 28 21 48q22 20 50 20t50 -20q21 -20 21 -48q0 -30 -21 -49q-20 -19 -50 -19t-50 19q-21 19 -21 51zM118 586h-2q0 -26 10 -42
q11 -17 28 -17t28 17q10 16 10 42q0 25 -10 42q-10 18 -27 18t-27 -18q-10 -17 -10 -42zM85 680l104 75q11 7 18 12q7 4 17 4q14 0 21 -7t7 -18q0 -28 -35 -39l-129 -33z" />
    <glyph glyph-name="AEacute" unicode="&#x1fc;" horiz-adv-x="465" 
d="M356 336l-2 -9q-4 16 -6 25q-3 12 -11 24q-7 10 -23 18q-15 8 -43 9v-401h22q32 0 56 3q25 3 44 15t33 35q14 24 23 62h10l-12 -106q-1 -13 -6 -15q-6 -2 -12 -2h-269v6q10 3 17 8q6 4 9 20q2 12 4 42q1 18 1 74v77h-112l-22 -102q-9 -34 -12 -56q-3 -23 -2 -33
q2 -13 7 -18t17 -10v-5h-72v5q10 6 14 10q6 6 12 18t12 33q8 27 14 56l123 555q4 24 5 29q1 12 0 19q-1 8 -9 12q-6 4 -22 7v7h257q7 0 12 -3t6 -19l16 -91h-10q-20 62 -55 83q-36 21 -95 21h-3v-322q29 2 44 9q16 8 23 18q8 12 11 24q2 9 6 25h7v-157h-7zM189 225v502
l-110 -502h110zM210 781l104 75q10 8 18 12q7 4 17 4q14 0 21 -7t7 -18q0 -28 -35 -39l-129 -33z" />
    <glyph glyph-name="aeacute" unicode="&#x1fd;" horiz-adv-x="487" 
d="M109 -5l-8 -5q-35 0 -59 24t-24 75q0 31 12 51q13 21 30 35t41 27q23 12 42 27h1q24 18 38 33q15 16 15 50v66q0 21 -2 43q-1 16 -6 25t-13 12q-9 3 -22 3q-19 0 -30 -10t-19 -39q-5 -17 -12 -26t-24 -9q-13 0 -21 9q-7 8 -7 20q0 10 6 22q5 11 20 22q14 11 35 17t53 6
q41 0 68 -9t41 -35q19 22 41 33t38 11q96 0 114 -163h-176q-1 -8 -1 -25v-27q0 -123 23 -189q22 -64 74 -64q25 0 42 11t26 20l6 -7q-9 -8 -28 -22q-17 -13 -51 -13q-46 0 -82 21q-35 20 -58 65l-16 -17q-24 -26 -31 -33q-13 -14 -24 -21q-11 -8 -23 -11t-29 -3zM338 461h-2
q-7 0 -16 -6t-18 -21q-8 -14 -16 -43q-7 -26 -10 -73h106q2 75 -10 108q-12 35 -34 35zM90 105l-2 -2q0 -97 40 -97q4 0 12 2q6 1 14 8q10 8 20 18q18 18 29 30l15 16q-26 58 -26 145v46q-7 -16 -21 -28q-13 -11 -31 -25h-1q-18 -15 -27 -25q-10 -12 -15 -26q-4 -13 -6 -29
q-1 -10 -1 -33zM199 522l62 123q9 16 17 26q8 9 20 9t20 -8t8 -18q0 -21 -20 -41l-101 -95z" />
    <glyph glyph-name="Oslashacute" unicode="&#x1fe;" horiz-adv-x="424" 
d="M211 -8h-2q-41 0 -78 37l-13 -53l-10 3l15 59q-40 43 -69 128q-28 83 -28 210q0 96 17 170q16 71 44 119q27 46 59 69t63 23q23 0 44 -10q23 -11 42 -31l13 51l10 -4l-14 -57q37 -43 63 -125q26 -83 26 -205q0 -94 -17 -168q-16 -72 -42 -120q-25 -47 -59 -72
q-33 -24 -64 -24zM113 376l1 -2q0 -90 6 -160q6 -72 19 -118l142 560q-25 91 -72 91q-24 0 -42 -25q-18 -26 -30 -73q-12 -48 -18 -117t-6 -156zM210 0l-2 1q25 0 43 26q18 25 30 74q12 48 18 117t6 156q0 89 -4 146q-5 65 -15 113l-141 -558q23 -75 65 -75zM139 789l104 75
q11 8 18 12t17 4q14 0 21 -7t7 -18q0 -28 -35 -39l-129 -33z" />
    <glyph glyph-name="oslashacute" unicode="&#x1ff;" horiz-adv-x="358" 
d="M179 2v-2q34 0 55 53q21 52 21 176q0 68 -4 105q-5 45 -13 71l-110 -356l-4 14l109 356q-11 25 -24 35q-14 11 -30 11q-17 0 -30 -12t-24 -39q-10 -25 -16 -72q-6 -45 -6 -112q0 -110 18 -166l-14 -44q2 -2 3 -2t3 -2l-10 -31l-8 4l10 32q-34 27 -60 80q-25 51 -25 131
q0 62 15 108q14 44 38 76q22 30 50 45q27 15 53 15q31 0 63 -20l-10 -33q5 -7 6 -15l13 41l-8 6l8 25l8 -4l-8 -27q35 -26 60 -79t25 -138q0 -58 -15 -103q-15 -46 -37 -75q-22 -30 -50 -45q-27 -15 -52 -15q-32 0 -63 22l10 35q19 -49 53 -49zM133 527l62 123q9 16 17 26
q8 9 20 9t20 -8t8 -18q0 -21 -20 -41l-101 -95z" />
    <glyph glyph-name="uni0218" unicode="&#x218;" horiz-adv-x="328" 
d="M146 -7l-5 -4q-23 0 -42 8q-21 9 -32 16q-14 9 -22 16l-10 8q-4 0 -9 -20h-6v182h7q13 -97 39 -148t75 -51q44 0 66 31q23 32 23 88q0 35 -9 66t-24 63q-18 38 -34 65q-15 26 -40 70q-25 43 -39 65q-19 30 -30 55q-13 30 -20 54q-7 25 -7 62q0 67 39 102q40 35 98 35
q18 0 30 -4q14 -4 24 -9q7 -3 17 -8q6 -3 11 -3q7 0 9 8q1 5 3 17h7v-137h-7q-10 41 -19 62q-11 25 -22 39q-12 15 -25 21t-28 6q-42 0 -58 -24q-16 -23 -16 -55q0 -27 9 -54q9 -26 24 -55q19 -35 34 -59q22 -33 39 -64l42 -70q17 -29 34 -66q16 -35 23 -66q8 -35 8 -67
q0 -44 -13 -76t-36 -55q-22 -23 -51 -33q-30 -11 -57 -11zM166 -115l1 -2q-3 -3 -10 -7t-19 -4q-16 0 -27 10q-12 10 -12 28q0 20 13 30q14 11 30 11q19 0 35 -14q15 -13 15 -41q0 -40 -22 -58q-23 -19 -51 -23l-4 7q56 12 56 49q0 9 -5 14z" />
    <glyph glyph-name="uni0219" unicode="&#x219;" horiz-adv-x="269" 
d="M148 3l-1 -1q27 0 39 21t12 50q0 18 -4 33q-4 16 -15 33t-27 36q-15 17 -41 42q-23 21 -43 44q-15 17 -25 38q-9 18 -12 36t-3 38q0 22 8 41q8 18 21 30q15 13 30 20t33 7q12 0 23 -3q14 -4 20 -6l18 -7q9 -3 19 -3q6 0 11 5t6 12h8v-113l-8 1q-7 29 -20 52
q-13 22 -25 33q-14 13 -27 17q-15 5 -24 5q-17 0 -33 -13t-16 -42q0 -14 3 -26q3 -13 12 -26q8 -12 26 -30q24 -24 40 -39q31 -28 48 -49q19 -23 29 -44t15 -42q4 -19 4 -45q0 -25 -9 -46t-24 -36q-14 -14 -33 -22t-36 -8q-21 0 -36 6q-17 7 -26 12q-7 4 -19 12q-9 6 -18 6
q-13 0 -16 -18h-9v140h8q20 -74 49 -112q30 -39 68 -39zM150 -112l1 -2q-3 -3 -10 -7t-19 -4q-16 0 -27 10q-12 11 -12 28q0 20 13 30q14 11 30 11q19 0 35 -14q15 -14 15 -41q0 -40 -22 -58q-23 -19 -51 -23l-4 7q56 12 56 49q0 9 -5 14z" />
    <glyph glyph-name="uni021A" unicode="&#x21a;" horiz-adv-x="376" 
d="M116 6l3 -3q10 3 17 8q6 4 9 20q2 12 4 42q1 18 1 74v593q-37 0 -57 -7q-22 -8 -35 -22t-22 -36q-4 -10 -19 -50h-7l10 103q1 15 5 19q3 3 11 3h309q8 0 11 -3q4 -4 5 -19l8 -103h-7q-15 40 -19 50q-9 22 -22 36t-35 22t-56 8v-593q0 -55 1 -73q2 -30 4 -42q3 -14 9 -19
q7 -5 17 -8v-6h-145v6zM210 -114l1 -2q-3 -2 -10 -7q-7 -4 -19 -4q-16 0 -27 10q-12 11 -12 28q0 20 13 30q14 11 30 11q19 0 35 -14q15 -14 15 -41q0 -40 -22 -58q-23 -19 -51 -23l-4 7q56 12 56 49q0 9 -5 14z" />
    <glyph glyph-name="uni021B" unicode="&#x21b;" horiz-adv-x="210" 
d="M138 -9l-2 1q-16 0 -33 6q-16 6 -28 18q-13 13 -20 30q-8 19 -8 44v367h-41v9q19 3 37 12q17 9 33 26q14 15 25 42q11 26 15 63h9v-142h76v-10h-76v-351q0 -48 6 -75t32 -27q13 0 21 3q9 3 17 9l5 -6q-7 -7 -22 -13t-46 -6zM126 -110l1 -2q-3 -2 -10 -7q-7 -4 -19 -4
q-16 0 -27 10q-12 11 -12 28q0 20 13 30q14 11 30 11q19 0 35 -14q15 -14 15 -41q0 -40 -22 -58q-23 -19 -51 -23l-4 7q56 12 56 49q0 9 -5 14z" />
    <glyph glyph-name="uni0237" unicode="&#x237;" 
d="M-23 -139l1 -1q-15 0 -28 8q-12 8 -12 24q0 14 9 21q10 8 23 8q12 0 20 -5q5 -3 15 -11t14 -11q7 -5 14 -5t12 3l3 6q2 6 2 18v36v62v316q0 27 -1 36q-2 15 -4 21q-3 7 -9 10q-8 4 -16 5v7l102 65v-437q0 -63 -21 -96q-21 -34 -49 -54q-26 -17 -42 -21q-18 -5 -33 -5z
" />
    <glyph glyph-name="circumflex" unicode="&#x2c6;" horiz-adv-x="446" 
d="M228 696l95 -166l-7 -4l-88 87l-88 -87l-7 4z" />
    <glyph glyph-name="caron" unicode="&#x2c7;" horiz-adv-x="446" 
d="M140 697l88 -87l88 87l7 -4l-95 -166l-95 166z" />
    <glyph glyph-name="breve" unicode="&#x2d8;" horiz-adv-x="446" 
d="M223 591h1q28 0 42 11t20 32h9q-2 -38 -19 -64q-18 -27 -53 -27t-54 27q-19 26 -19 65h9q5 -20 20 -32t44 -12z" />
    <glyph glyph-name="dotaccent" unicode="&#x2d9;" horiz-adv-x="446" 
d="M222 554q-20 0 -33 13t-13 33t13 33t33 13t33 -13t13 -33t-13 -33t-33 -13z" />
    <glyph glyph-name="ring" unicode="&#x2da;" horiz-adv-x="446" 
d="M159 598v-2q0 28 21 48q22 20 50 20t50 -20q21 -20 21 -48q0 -30 -21 -49q-20 -19 -50 -19t-50 19q-21 19 -21 51zM193 596h-2q0 -26 10 -42q11 -17 28 -17t28 17q10 16 10 42q0 25 -10 42q-11 18 -27 18t-27 -18q-10 -17 -10 -42z" />
    <glyph glyph-name="ogonek" unicode="&#x2db;" horiz-adv-x="446" 
d="M246 -171l-1 -3q-30 0 -47 17t-17 42q0 22 10 39q10 18 25 31q16 15 31 24q5 3 14.5 9t13.5 9h12q-16 -15 -30 -41q-13 -25 -13 -57q0 -16 9 -28t25 -12q13 0 20 4q8 5 15 12l5 -5l-9 -12q-7 -9 -15 -14q-11 -7 -21 -11q-11 -4 -27 -4z" />
    <glyph glyph-name="tilde" unicode="&#x2dc;" horiz-adv-x="446" 
d="M189 625l-1 -2q11 0 18 -1q14 -2 22 -3t22 -3q7 -1 18 -1q7 0 15 8q10 10 23 27l7 -3q-11 -45 -24 -63t-27 -18t-41 5t-40 5q-10 0 -18 -7q-8 -6 -25 -30l-6 3q12 41 27 62t30 21z" />
    <glyph glyph-name="hungarumlaut" unicode="&#x2dd;" horiz-adv-x="446" 
d="M237 527l34 124q5 20 12 29t23 9q11 0 18 -7t7 -18q0 -17 -12 -32l-76 -107zM136 527l36 125q5 20 12 29q8 9 21 9q12 0 18 -7t6 -18q0 -16 -11 -33l-76 -107z" />
    <glyph glyph-name="Wgrave" unicode="&#x1e80;" horiz-adv-x="547" 
d="M47 623l-6 -3l-12 48t-9 33q-5 16 -10 23q-7 10 -15 17v7h134v-7q-23 -7 -24 -24q-1 -16 9 -58l116 -505l49 219l-55 247q-8 28 -12 48t-9 33q-4 13 -11 23q-6 9 -17 15v7h132v-7q-21 -6 -21 -22q0 -17 9 -60l37 -176l26 139q1 5 7 41q3 20 2 33q-2 16 -7 27
q-6 12 -19 19v7h79v-7q-10 -4 -18 -9t-12 -16q-5 -13 -9 -34l-12 -60l-32 -162l63 -299l84 460l7 42q3 18 1 35q-2 16 -9 26q-7 11 -24 18v7h87v-7q-5 -3 -13 -9q-6 -4 -12 -17q-6 -12 -12 -33q-6 -20 -12 -59l-115 -628h-12l-81 359l-81 -359h-12zM230 814l-2 -1
q-35 11 -35 39q0 11 7 18q8 8 21 8q10 0 17 -4q8 -4 18 -12l106 -75l-3 -6z" />
    <glyph glyph-name="wgrave" unicode="&#x1e81;" horiz-adv-x="438" 
d="M47 355l-1 2q-13 51 -14 54q-4 19 -9 30t-9 15t-14 7v6h126v-6q-10 -3 -15 -6q-4 -3 -6 -14q-1 -11 3 -30q1 -4 3 -13.5t4.5 -19t4.5 -19.5l57 -237l45 164l-17 70l-14 56q-5 20 -9 30q-5 12 -7 14q-4 4 -10 5v6h128v-6q-11 -3 -16 -7q-6 -4 -9 -15t0 -30q4 -25 10 -52
l49 -223l45 201q12 48 14 67q3 24 0 36t-12 15q-11 4 -24 5v6h87v-6q-12 -3 -17 -6q-7 -3 -11 -15q-6 -16 -11 -36q-2 -9 -7.5 -31.5t-8.5 -35.5l-76 -341h-11l-67 271l-75 -271h-11zM169 622l-1 1q-20 20 -20 41q0 10 8 18t20 8t20 -9q8 -10 17 -26l63 -124l-6 -4z" />
    <glyph glyph-name="Wacute" unicode="&#x1e82;" horiz-adv-x="547" 
d="M47 623l-6 -3l-12 48t-9 33q-5 16 -10 23q-7 10 -15 17v7h134v-7q-23 -7 -24 -24q-1 -16 9 -58l116 -505l49 219l-55 247q-8 28 -12 48t-9 33q-4 13 -11 23q-6 9 -17 15v7h132v-7q-21 -6 -21 -22q0 -17 9 -60l37 -176l26 139q1 5 7 41q3 20 2 33q-2 16 -7 27
q-6 12 -19 19v7h79v-7q-10 -4 -18 -9t-12 -16q-5 -13 -9 -34l-12 -60l-32 -162l63 -299l84 460l7 42q3 18 1 35q-2 16 -9 26q-7 11 -24 18v7h87v-7q-5 -3 -13 -9q-6 -4 -12 -17q-6 -12 -12 -33q-6 -20 -12 -59l-115 -628h-12l-81 359l-81 -359h-12zM218 787l104 75
q10 8 18 12q7 4 17 4q14 0 21 -7t7 -18q0 -28 -35 -39l-129 -33z" />
    <glyph glyph-name="wacute" unicode="&#x1e83;" horiz-adv-x="438" 
d="M47 355l-1 2q-13 51 -14 54q-4 19 -9 30t-9 15t-14 7v6h126v-6q-10 -3 -15 -6q-4 -3 -6 -14q-1 -11 3 -30q1 -4 3 -13.5t4.5 -19t4.5 -19.5l57 -237l45 164l-17 70l-14 56q-5 20 -9 30q-5 12 -7 14q-4 4 -10 5v6h128v-6q-11 -3 -16 -7q-6 -4 -9 -15t0 -30q4 -25 10 -52
l49 -223l45 201q12 48 14 67q3 24 0 36t-12 15q-11 4 -24 5v6h87v-6q-12 -3 -17 -6q-7 -3 -11 -15q-6 -16 -11 -36q-2 -9 -7.5 -31.5t-8.5 -35.5l-76 -341h-11l-67 271l-75 -271h-11zM183 531l62 123q9 16 17 26q8 9 20 9t20 -8t8 -18q0 -21 -20 -41l-101 -95z" />
    <glyph glyph-name="Wdieresis" unicode="&#x1e84;" horiz-adv-x="547" 
d="M47 623l-6 -3l-12 48t-9 33q-5 16 -10 23q-7 10 -15 17v7h134v-7q-23 -7 -24 -24q-1 -16 9 -58l116 -505l49 219l-55 247q-8 28 -12 48t-9 33q-4 13 -11 23q-6 9 -17 15v7h132v-7q-21 -6 -21 -22q0 -17 9 -60l37 -176l26 139q1 5 7 41q3 20 2 33q-2 16 -7 27
q-6 12 -19 19v7h79v-7q-10 -4 -18 -9t-12 -16q-5 -13 -9 -34l-12 -60l-32 -162l63 -299l84 460l7 42q3 18 1 35q-2 16 -9 26q-7 11 -24 18v7h87v-7q-5 -3 -13 -9q-6 -4 -12 -17q-6 -12 -12 -33q-6 -20 -12 -59l-115 -628h-12l-81 359l-81 -359h-12zM358 785v-1q-19 0 -31 12
t-12 32q0 18 12 30t31 12q17 0 29 -12t12 -30q0 -19 -12 -31t-29 -12zM216 784v-1q-17 0 -29 12t-12 32q0 18 12 30t29 12q19 0 31 -12t12 -30q0 -19 -12 -31t-31 -12z" />
    <glyph glyph-name="wdieresis" unicode="&#x1e85;" horiz-adv-x="438" 
d="M47 355l-1 2q-13 51 -14 54q-4 19 -9 30t-9 15t-14 7v6h126v-6q-10 -3 -15 -6q-4 -3 -6 -14q-1 -11 3 -30q1 -4 3 -13.5t4.5 -19t4.5 -19.5l57 -237l45 164l-17 70l-14 56q-5 20 -9 30q-5 12 -7 14q-4 4 -10 5v6h128v-6q-11 -3 -16 -7q-6 -4 -9 -15t0 -30q4 -25 10 -52
l49 -223l45 201q12 48 14 67q3 24 0 36t-12 15q-11 4 -24 5v6h87v-6q-12 -3 -17 -6q-7 -3 -11 -15q-6 -16 -11 -36q-2 -9 -7.5 -31.5t-8.5 -35.5l-76 -341h-11l-67 271l-75 -271h-11zM295 557v-1q-18 0 -30 12t-12 32q0 18 12 30t30 12t30 -12t12 -30q0 -19 -12 -31t-30 -12
zM163 556v-1q-18 0 -30 12t-12 32q0 18 12 30t30 12t30 -12t12 -30q0 -19 -12 -31t-30 -12z" />
    <glyph glyph-name="Ygrave" unicode="&#x1ef2;" horiz-adv-x="331" 
d="M102 6l1 -4q10 3 17 8q6 4 9 20q2 12 4 42q1 18 1 74v245l-80 235q-7 23 -12 44q-5 22 -10 32q-7 16 -13 23q-7 9 -18 18v6h134v-6q-11 -3 -15 -9q-4 -5 -4 -15q0 -9 3 -21q1 -5 4 -15.5t4 -13.5l83 -260l56 213q7 23 13 53q4 21 3 34q-2 13 -12 21t-30 12v6h91v-6
q-9 -4 -16 -9q-5 -4 -10 -17q-7 -18 -11 -33q-2 -7 -7 -26.5t-9 -32.5l-62 -222v-254q0 -55 1 -73q2 -30 4 -42q3 -14 9 -19q7 -5 17 -8v-6h-145v6zM132 813l-2 -1q-35 11 -35 39q0 11 7 18q8 8 21 8q10 0 17 -4q8 -5 18 -12l106 -75l-3 -6z" />
    <glyph glyph-name="ygrave" unicode="&#x1ef3;" horiz-adv-x="305" 
d="M33 -171l-2 -4q-20 0 -29 9t-9 22t9 22t26 9q16 0 25 -6t20 -6t25 18q13 17 34 70l11 41l-96 351q-10 37 -15 53q-7 24 -10 30q-4 10 -9 15q-4 4 -12 7v6h130v-6q-10 -1 -16 -6q-5 -4 -7 -15t3 -30t12 -51l56 -229l58 205q13 44 17 65q4 24 3 36q-2 13 -9 17q-8 5 -19 6
v6h75v-6q-9 -4 -15 -9q-6 -4 -10 -16q-3 -8 -12 -35q-3 -9 -19 -63l-105 -371q-30 -76 -55 -105q-26 -30 -55 -30zM109 616l-1 1q-20 20 -20 41q0 10 8 18t20 8t20 -9q8 -10 17 -26l63 -124l-6 -4z" />
    <glyph glyph-name="uni2009" unicode="&#x2009;" horiz-adv-x="52" 
 />
    <glyph glyph-name="endash" unicode="&#x2013;" horiz-adv-x="393" 
d="M40 287h313v-12h-313v12z" />
    <glyph glyph-name="emdash" unicode="&#x2014;" horiz-adv-x="747" 
d="M40 287h667v-12h-667v12z" />
    <glyph glyph-name="quoteleft" unicode="&#x2018;" horiz-adv-x="144" 
d="M51 664l-3 -1q4 5 12 9q7 4 21 4q16 0 29 -11q12 -11 12 -30q0 -20 -13 -32t-31 -12q-19 0 -37 15t-18 51q0 42 21 72t53 50l5 -6q-28 -19 -43 -43t-15 -46q0 -14 7 -20z" />
    <glyph glyph-name="quoteright" unicode="&#x2019;" horiz-adv-x="144" 
d="M93 690l-1 -1q-4 -5 -12 -9q-7 -4 -21 -4q-16 0 -29 11q-12 11 -12 30q0 21 14 33t32 12q20 0 38 -15t18 -51q0 -42 -21 -72t-53 -50l-5 7q29 20 44 44t15 46q0 15 -7 19z" />
    <glyph glyph-name="quotesinglbase" unicode="&#x201a;" horiz-adv-x="144" 
d="M93 26l-1 -1q-4 -5 -12 -9q-7 -4 -21 -4q-16 0 -29 11q-12 11 -12 30q0 21 14 33t32 12q20 0 38 -15t18 -51q0 -42 -21 -72t-53 -50l-5 7q29 20 44 44t15 46q0 15 -7 19z" />
    <glyph glyph-name="quotedblleft" unicode="&#x201c;" horiz-adv-x="266" 
d="M51 664l-3 -1q4 5 12 9q7 4 21 4q16 0 29 -11q12 -11 12 -30q0 -20 -13 -32t-31 -12q-19 0 -37 15t-18 51q0 42 21 72t53 50l5 -6q-28 -19 -43 -43t-15 -46q0 -14 7 -20zM170 663l-3 -1q5 4 12 9q7 4 21 4q16 0 29 -11q12 -10 12 -30t-13 -32q-14 -12 -31 -12
q-19 0 -37 15t-18 51q0 42 21 72t53 50l5 -6q-28 -19 -43 -43t-15 -46q0 -14 7 -20z" />
    <glyph glyph-name="quotedblright" unicode="&#x201d;" horiz-adv-x="266" 
d="M215 690l-1 -1q-4 -5 -12 -9q-7 -4 -21 -4q-16 0 -29 11q-12 11 -12 30q0 21 14 33t32 12q20 0 38 -15t18 -51q0 -42 -21 -72t-53 -50l-5 7q29 20 44 44t15 46q0 15 -7 19zM92 689l-1 -1q-5 -4 -12 -9q-7 -4 -21 -4q-16 0 -29 11q-12 10 -12 30q0 21 14 33q13 12 32 12
q20 0 38 -15t18 -51q0 -42 -21 -72t-53 -50l-5 7q29 20 44 44t15 46q0 15 -7 19z" />
    <glyph glyph-name="quotedblbase" unicode="&#x201e;" horiz-adv-x="266" 
d="M215 26l-1 -1q-4 -5 -12 -9q-7 -4 -21 -4q-16 0 -29 11q-12 11 -12 30q0 21 14 33t32 12q20 0 38 -15t18 -51q0 -42 -21 -72t-53 -50l-5 7q29 20 44 44t15 46q0 15 -7 19zM92 25l-1 -1q-5 -4 -12 -9q-7 -4 -21 -4q-16 0 -29 11q-12 10 -12 30q0 21 14 33t32 12
q20 0 38 -15t18 -51q0 -42 -21 -72t-53 -50l-5 7q29 20 44 44t15 46q0 15 -7 19z" />
    <glyph glyph-name="dagger" unicode="&#x2020;" horiz-adv-x="293" 
d="M144 -2l-4 -12q0 21 -2 87q-1 31 -5 102l-6 105q-3 52 -6 96q-3 42 -6 73q-3 34 -4 37q8 18 18 47q9 27 9 56q-15 0 -24 -4l-21 -9l-21 -9q-9 -4 -24 -4q-19 0 -28 11q-9 10 -9 23t9 24q9 10 28 10q15 0 24 -4q14 -6 21 -10t23 -10q11 -4 24 -4q0 11 -5 26q-3 9 -11 29
t-11 29q-5 15 -5 24q0 16 11 29q11 12 27 12t27 -12q11 -13 11 -29q0 -9 -5 -24q-1 -3 -11 -28t-11 -28q-5 -15 -5 -26q12 0 24 5q14 6 21 10t21 10q12 5 24 5q18 0 27 -10q9 -11 9 -24q0 -11 -9 -22q-9 -10 -27 -10q-12 0 -24 5l-21 9l-21 9q-12 5 -23 5q0 -28 9 -55
q8 -25 18 -46q0 -2 -4 -36q-3 -28 -6 -72t-6 -96l-6 -105q-2 -34 -4 -102q-2 -66 -2 -87h-8z" />
    <glyph glyph-name="daggerdbl" unicode="&#x2021;" horiz-adv-x="333" 
d="M167 -8l-7 -17q-16 0 -27 12q-10 11 -10 29q0 9 5 24q3 9 11 29t11 29q5 15 5 26q-13 0 -24 -4q-13 -5 -22 -10q-7 -4 -21 -10q-9 -4 -24 -4q-19 0 -28 10t-9 24q0 12 9 23t28 11q15 0 24 -4l21 -9l21 -9q9 -4 24 -4q0 46 -3 81q-4 42 -7 62q-5 29 -10 46q-7 23 -13 36
q6 13 13 36q7 24 11 46q6 34 8 61q3 34 3 81q-15 0 -24 -4l-21 -9l-21 -9q-9 -4 -24 -4q-19 0 -28 11q-9 10 -9 23t9 24q9 10 28 10q15 0 24 -4q14 -6 21 -10t23 -10q11 -4 24 -4q0 11 -5 26q-3 9 -11 29t-11 29q-5 15 -5 24q0 16 11 29q11 12 27 12t27 -12q11 -13 11 -29
q0 -9 -5 -24q-1 -3 -11 -28t-11 -28q-5 -15 -5 -26q12 0 24 5q14 6 21 10t21 10q12 5 24 5q18 0 27 -10q9 -11 9 -24q0 -11 -9 -22q-9 -10 -27 -10q-12 0 -24 5l-21 9l-21 9q-12 5 -23 5q0 -47 3 -81q2 -27 8 -61q4 -22 11 -46q7 -23 13 -36q-6 -13 -13 -36q-5 -17 -10 -46
q-4 -21 -7 -61q-3 -34 -3 -81q11 0 23 5l21 9l21 9q12 5 24 5q18 0 27 -10t9 -22q0 -13 -9 -24q-9 -10 -27 -10q-12 0 -24 5q-14 6 -21 10t-21 10q-12 5 -24 5q0 -11 5 -26q1 -3 11 -28t11 -28q5 -15 5 -24q0 -18 -10 -29q-10 -12 -27 -12z" />
    <glyph glyph-name="bullet" unicode="&#x2022;" horiz-adv-x="287" 
d="M143 392h-2q20 0 41 -8q20 -8 33 -22q15 -17 23 -34q9 -20 9 -42t-9 -42t-22 -33q-14 -13 -33 -21q-21 -8 -40 -8q-45 0 -75 30t-30 75t30 75t75 30z" />
    <glyph glyph-name="ellipsis" unicode="&#x2026;" horiz-adv-x="460" 
d="M380 -10v-2q-20 0 -36 14q-15 14 -15 35t15 35q16 14 36 14q19 0 33 -14t14 -35q0 -20 -14 -34q-13 -13 -33 -13zM230 -12v-2q-20 0 -36 14q-15 14 -15 35q0 22 15 35q16 14 36 14q19 0 33 -14t14 -35q0 -20 -14 -34q-13 -13 -33 -13zM80 -14v-2q-20 0 -36 14
q-15 14 -15 35t15 35q16 14 36 14q19 0 33 -14t14 -35q0 -20 -14 -34q-13 -13 -33 -13z" />
    <glyph glyph-name="perthousand" unicode="&#x2030;" horiz-adv-x="744" 
d="M90 0l291 757l11 -6l-290 -758zM129 379h-1q-22 0 -42 15q-19 15 -34 40q-15 26 -24 60t-9 75t9 75t24 60q14 24 35 40q19 15 42 15t42 -15q21 -16 35 -40q15 -26 24 -60t9 -75t-9 -75t-24 -60q-14 -24 -35 -40q-19 -15 -42 -15zM128 388l-2 -1q22 0 36 45q14 47 14 136
q0 93 -13 135q-14 44 -36 44q-20 0 -33 -43q-13 -42 -13 -135q0 -89 14 -136q13 -45 33 -45zM348 -7h-1q-23 0 -42 15t-34 40q-15 26 -24 60t-9 75t9 75t24 60q14 24 35 40q20 15 42 15t42 -15q21 -16 35 -40q15 -26 24 -60t9 -75t-9 -75t-24 -60q-14 -24 -35 -40
q-20 -15 -42 -15zM609 -7h-2q-23 0 -42 15t-34 40q-15 26 -24 60t-9 75t9 75t24 60q14 24 35 40q20 15 42 15t42 -15q21 -16 35 -40q15 -26 24 -60t9 -75t-9 -75t-24 -60q-15 -25 -34 -40t-42 -15zM345 2l-2 -1q23 0 36 45q14 47 14 136q0 93 -13 135q-14 44 -36 44
q-20 0 -33 -43q-13 -42 -13 -135q0 -89 14 -136q14 -45 33 -45zM605 1l-2 -1q23 0 36 45q14 47 14 136q0 93 -13 135q-14 44 -36 44q-20 0 -33 -43q-13 -42 -13 -135q0 -89 14 -136q14 -45 33 -45z" />
    <glyph glyph-name="uni2032" unicode="&#x2032;" horiz-adv-x="113" 
d="M20 581l-2 -2q7 32 8 53q2 32 2 56q0 33 9 51t29 18q17 0 24 -10q8 -11 8 -24q0 -16 -7 -30q-6 -13 -18 -31q-15 -21 -26 -41q-13 -23 -20 -41z" />
    <glyph glyph-name="uni2033" unicode="&#x2033;" horiz-adv-x="209" 
d="M20 581l-2 -2q7 32 8 53q2 32 2 56q0 33 9 51t29 18q17 0 24 -10q8 -11 8 -24q0 -16 -7 -30q-6 -13 -18 -31q-15 -21 -26 -41q-13 -23 -20 -41zM114 579l-2 -2q7 32 8 53q2 32 2 56q0 33 9 51t29 18q17 0 24 -10q8 -11 8 -24q0 -16 -7 -30q-6 -13 -18 -31
q-15 -21 -26 -41q-13 -23 -20 -41z" />
    <glyph glyph-name="guilsinglleft" unicode="&#x2039;" horiz-adv-x="142" 
d="M13 226v8l110 159l6 -4l-56 -159l57 -159l-6 -4z" />
    <glyph glyph-name="guilsinglright" unicode="&#x203a;" horiz-adv-x="142" 
d="M16 71l57 159l-56 159l6 4l110 -159v-8l-111 -159z" />
    <glyph glyph-name="fraction" unicode="&#x2044;" horiz-adv-x="397" 
d="M48 379h301v-8h-301v8z" />
    <glyph glyph-name="Euro" unicode="&#x20ac;" horiz-adv-x="341" 
d="M6 353l41 -1v23v19q0 12 1 18h-45v11h45q5 83 21 146q16 61 41 105q24 42 54 63t59 21q18 0 37 -8q17 -7 31 -21q13 -13 21 -30q8 -18 8 -33q0 -13 -8 -26q-8 -12 -21 -12q-34 0 -35 37q-1 11 -1 32q0 15 -3 27t-9 18t-19 6q-47 0 -68 -79q-20 -78 -22 -246h107v-11h-107
v-60h107v-11h-107q1 -109 12 -175q10 -64 26 -102q15 -35 33 -46q19 -11 35 -11q25 0 46 12q20 11 37 30l7 -6q-14 -17 -39 -33t-60 -16q-31 0 -63 18q-31 18 -57 59q-25 40 -42 107q-16 64 -19 164h-44v11z" />
    <glyph glyph-name="trademark" unicode="&#x2122;" horiz-adv-x="430" 
d="M211 480l1 -5q6 2 8 3q3 2 5 8q2 8 2 18v33v145v32q0 14 -1 18q-1 6 -4 7l-9 3v5h56h3q1 0 3 -5l34 -165l35 171l2 -1v1h57v-5q-3 -1 -7 -3q-3 -1 -4 -7q-1 -4 -1 -17v-30v-145v-33q0 -10 2 -18q1 -6 4 -7q2 -1 8 -3v-5h-72v5q3 1 7 3q2 1 4 8q2 8 2 18v33v181l-51 -247
h-7l-55 261v-195v-33q0 -10 2 -18q2 -6 5 -8q2 -1 8 -3v-4h-37v4zM71 476h-5l9 3q4 2 5 7q2 8 2 16v30v209q-29 0 -38 -12q-10 -13 -14 -35h-5l5 45q1 5 3 7q1 1 5 1h137q5 0 6 -1q2 -2 3 -7l4 -45h-5q-4 22 -14 35q-9 12 -38 12v-209v-30q0 -8 2 -16q1 -5 5 -7l9 -3v-5h-76
v5z" />
    <glyph glyph-name="onethird" unicode="&#x2153;" horiz-adv-x="397" 
d="M48 379h301v-8h-301v8zM154 465l2 6q9 2 11 4q4 4 5 10q2 10 2 21v39v195q0 26 -3 33q-3 8 -19 8v6l76 54v-296v-39q0 -11 2 -21q1 -6 5 -10q2 -2 11 -4v-6h-92zM142 269l2 -7q2 7 5 13q1 3 6 3h122v-5l-91 -139q8 5 21 5q32 0 56 -25t24 -82q0 -28 -9 -51
q-9 -24 -22 -39q-12 -15 -32 -25q-18 -9 -36 -9q-31 0 -51 14q-19 13 -19 30q0 7 5 14q5 6 15 6t15 -6t6 -16q3 -16 8 -26q5 -9 18 -9q20 0 32 30t12 90q0 51 -5 78q-4 24 -21 24q-14 0 -24 -8q-8 -7 -13 -15l-5 3l77 120h-50h-25q-8 0 -14 -2t-8 -4q-3 -3 -6 -9h-6z" />
    <glyph glyph-name="twothirds" unicode="&#x2154;" horiz-adv-x="397" 
d="M48 379h301v-8h-301v8zM140 269l2 -7q2 7 5 13q1 3 6 3h122v-5l-91 -139q8 5 21 5q32 0 56 -25t24 -82q0 -28 -9 -51q-9 -24 -22 -39q-12 -15 -32 -25q-18 -9 -36 -9q-31 0 -51 14q-19 13 -19 30q0 7 5 14q5 6 15 6t15 -6t6 -16q3 -16 8 -26q5 -9 18 -9q20 0 32 30t12 90
q0 51 -5 78q-4 24 -21 24q-14 0 -24 -8q-8 -7 -13 -15l-5 3l77 120h-50h-25q-8 0 -14 -2t-8 -4q-3 -3 -6 -9h-6zM228 504l-7 -1h32q10 0 18 2q5 1 9 5t5 9h6l-13 -46q-2 -7 -5 -13q-1 -3 -6 -3h-165l38 65q39 66 59 116q21 51 21 110q0 36 -7 56q-7 21 -28 21q-7 0 -10 -4
q-4 -6 -6 -10q-2 -5 -4 -13q-1 -8 -3 -12q-3 -8 -9 -14t-17 -6q-10 0 -15 6q-5 7 -5 14q0 19 20 33t50 14q18 0 33 -4q17 -5 30 -15t21 -27q8 -18 8 -42q0 -27 -7 -48q-8 -24 -22 -48q-15 -25 -39 -57q-43 -56 -58 -76l-10 -12h86z" />
    <glyph glyph-name="oneeighth" unicode="&#x215b;" horiz-adv-x="397" 
d="M286 8l1 -3q0 -42 -24 -69t-60 -27q-41 0 -65 24t-24 63q0 20 6 36q6 17 15 29t20 23q11 10 21 18q-24 24 -37 48q-12 22 -12 54q0 21 6 36t17 26t24 17q14 6 27 6q33 0 53 -19q21 -20 21 -58q0 -26 -15 -48t-36 -39l1 -1q30 -30 45 -52q16 -23 16 -64zM160 227
q0 -29 17 -51q12 -15 44 -49q11 14 14 33q3 20 3 45q0 43 -11 59q-11 15 -27 15t-28 -14q-12 -13 -12 -38zM203 -85v2q25 0 34 20q9 19 9 44q0 36 -18 60t-45 51l-4 3q-26 -29 -26 -98q0 -34 12 -58t38 -24zM49 378h301v-8h-301v8zM140 464l2 6q9 2 11 4q4 4 5 10q2 10 2 21
v39v195q0 25 -3 33t-19 8v6l76 54v-296v-39q0 -11 2 -21q1 -6 5 -10q2 -2 11 -4v-6h-92z" />
    <glyph glyph-name="threeeighths" unicode="&#x215c;" horiz-adv-x="397" 
d="M286 8v-3q0 -42 -24 -69t-60 -27q-41 0 -65 24t-24 63q0 20 6 36q6 17 15 29t20 23q10 10 21 18q-24 24 -37 48q-12 22 -12 54q0 21 6 36t17 26t24 17t27 6q33 0 53 -19q21 -20 21 -58q0 -26 -15 -48t-36 -39l1 -1q30 -30 45 -52q17 -25 17 -64zM159 227q0 -29 17 -51
q12 -15 44 -49q11 14 14 33q3 20 3 45q0 43 -11 59q-10 15 -27 15q-16 0 -28 -14q-12 -13 -12 -38zM202 -85v2q25 0 34 20q9 19 9 44q0 36 -18 60t-45 51l-4 3q-26 -29 -26 -98q0 -34 12 -58t38 -24zM48 378h301v-8h-301v8zM141 819l2 -7q2 7 5 13q2 3 6 3h122v-5l-91 -139
q8 5 21 5q32 0 56 -25q24 -26 24 -82q0 -28 -9 -51q-9 -24 -22 -39q-12 -15 -32 -25q-18 -9 -36 -9q-31 0 -51 14q-19 13 -19 30q0 7 5 14q4 6 15 6t15 -6q5 -6 6 -16q3 -16 8 -26q4 -9 18 -9q20 0 32 30t12 90q0 51 -5 78q-5 24 -21 24q-14 0 -24 -8q-8 -7 -13 -15l-5 3
l77 120h-50h-25q-8 0 -14 -2t-8 -4q-3 -3 -6 -9h-6z" />
    <glyph glyph-name="fiveeighths" unicode="&#x215d;" horiz-adv-x="397" 
d="M286 8l-2 -2q0 -42 -24 -69t-60 -27q-41 0 -65 24t-24 63q0 37 21 63q22 27 42 41q-24 24 -37 48q-12 23 -12 54q0 21 6 36t17 26t24 17q14 6 27 6q33 0 53 -19q21 -20 21 -58q0 -26 -15 -47q-16 -22 -36 -38l2 -2q30 -30 45 -52q17 -25 17 -64zM166 787l-14 -99
q6 8 15 12q10 5 19 5q15 0 33 -5q16 -4 30 -17q12 -11 22 -35q9 -22 9 -57q0 -33 -9 -58q-9 -27 -22 -42q-13 -16 -32 -24t-37 -8q-27 0 -45 15t-18 33q0 8 6 14t17 6q17 0 20 -21v-13q0 -5 2 -13q2 -6 6 -9t12 -3q20 0 32 30t12 96q0 56 -9 82q-9 25 -29 25q-16 0 -25 -9
t-12 -16l-6 2l22 156h113l-11 -41q-1 -6 -6 -6h-95zM200 -88v2q25 0 34 20t9 44q0 36 -18 60t-45 51l-4 4q-27 -29 -27 -99q0 -34 12 -58t39 -24zM156 226h1q0 -29 17 -51q15 -19 45 -49q11 14 14 33t3 45q0 43 -11 59q-11 15 -27 15q-18 0 -30 -14t-12 -38zM47 375h301v-8
h-301v8z" />
    <glyph glyph-name="seveneighths" unicode="&#x215e;" horiz-adv-x="397" 
d="M186 465h-6l87 325h-69h-28q-8 0 -16 -2q-6 -2 -9 -6t-6 -12h-7l17 62q1 4 7 4h128v-2zM288 8v-3q0 -42 -24 -69t-60 -27q-41 0 -65 24t-24 63q0 20 6 36q6 17 15 29t20 23q10 10 21 18q-24 24 -37 48q-12 22 -12 54q0 21 6 36t17 26t24 17t27 6q33 0 53 -19
q21 -20 21 -58q0 -26 -15 -48t-36 -39l1 -1q30 -30 45 -52q17 -25 17 -64zM161 227q0 -29 17 -51q12 -15 44 -49q11 14 14 33q3 20 3 45q0 43 -11 59q-10 15 -27 15q-16 0 -28 -14q-12 -13 -12 -38zM204 -85v2q25 0 34 20q9 19 9 44q0 36 -18 60t-45 51l-4 3
q-26 -29 -26 -98q0 -34 12 -58t38 -24zM50 378h301v-8h-301v8z" />
    <glyph glyph-name="arrowleft" unicode="&#x2190;" horiz-adv-x="774" 
d="M37 361l-3 2q32 8 74 28t90 50q43 27 84 65q40 37 56 75l8 -3q-16 -48 -36 -85q-20 -36 -40 -61q-22 -26 -43 -42q-20 -15 -45 -28h544v-10h-544q25 -13 45 -28q24 -17 44 -42q23 -28 41 -61q20 -37 36 -85l-8 -3q-17 40 -55 75q-39 36 -84 66q-47 31 -90 50
q-44 19 -74 27v10z" />
    <glyph glyph-name="arrowright" unicode="&#x2192;" horiz-adv-x="774" 
d="M45 361l543 -7q-20 11 -45 29q-21 16 -43 42q-20 25 -40 61q-19 35 -36 86l8 3q16 -38 56 -75q41 -38 84 -65q48 -30 90 -50t74 -28v-10q-30 -8 -74 -27q-47 -20 -90 -49q-45 -30 -84 -66q-38 -35 -55 -75l-8 3q17 51 36 86q20 36 40 61q22 26 43 42q25 18 45 29h-544v10
z" />
    <glyph glyph-name="minus" unicode="&#x2212;" horiz-adv-x="297" 
d="M27 357h243v-12h-243v12z" />
    <glyph glyph-name="uni24C5" unicode="&#x24c5;" horiz-adv-x="456" 
d="M229 759v-2q41 0 78 -24t66 -72t45 -120q17 -74 17 -167q0 -92 -17 -166q-16 -71 -45 -121q-28 -49 -66 -73q-37 -24 -78 -24t-78 24t-66 74t-45 121q-17 74 -17 167t17 167q16 72 45 120t66 72t78 24zM229 -4l-3 -2q38 0 72 24q35 24 62 71q28 48 44 117q17 73 17 165
q0 97 -16 165q-17 72 -43 117q-27 47 -62 71q-34 24 -72 24t-74 -24t-63 -70q-28 -48 -44 -117q-16 -68 -16 -165q0 -92 17 -165q16 -69 44 -117q27 -46 63 -70t74 -24zM129 160l1 -5q6 1 12 5q4 3 7 12t3 25v45v248v45q0 16 -3 25t-7 12q-6 4 -12 5v6h98q25 0 45 -4
q22 -4 41 -17q19 -12 29 -33q11 -22 11 -54q0 -31 -12 -54t-30 -38q-17 -14 -42 -22q-22 -7 -46 -7h-9v-107v-45q0 -13 2 -25q1 -9 6 -12q6 -4 12 -5v-6h-106v6zM214 571l-1 -215h6q13 0 24 4q13 5 23 16q10 12 18 33q7 20 7 56t-6 57q-6 22 -15 32q-10 11 -21 14
q-12 3 -22 3h-13z" />
    <glyph glyph-name="space_uni0326" horiz-adv-x="500" 
d="M274 -111l1 -2q-3 -2 -10 -7q-7 -4 -19 -4q-16 0 -27 10q-12 10 -12 28q0 20 13 30q14 11 30 11q19 0 35 -14q15 -13 15 -41q0 -40 -22 -58q-23 -19 -51 -23l-4 7q56 12 56 49q0 9 -5 14z" />
    <glyph glyph-name="A.alt" horiz-adv-x="339" 
d="M294 137h-1q5 -23 14 -59q8 -34 10 -39q5 -16 9 -23q5 -8 12 -11v-5h-128q-2 0 -2 3t2 3q6 1 12 5q5 3 8 12q3 10 2 25q-2 19 -7 43l-25 129h-134l-18 -97q-8 -36 -9 -57q-2 -23 1 -33q3 -13 10 -18t19 -10v-5h-70v5q7 5 12 12q4 7 9 20q4 12 9 33q8 36 11 54l119 637h11
zM199 229l-66 344l-65 -344h131z" />
    <glyph glyph-name="G.alt" horiz-adv-x="400" 
d="M225 -8l2 -5q-47 0 -84 27t-63 78t-39 123q-14 75 -14 162q0 97 18 168q18 69 47 117q28 46 63 69t68 23q19 0 30 -4q14 -5 21 -10q4 -2 10 -5.5t7 -4.5q7 -4 18 -4q7 0 12 6q4 6 9 20h6v-153h-6q-9 43 -21 72q-13 30 -25 45q-13 16 -29 24q-14 7 -31 7q-25 0 -45 -19
q-21 -20 -36 -63q-14 -41 -22 -111q-8 -72 -8 -165q0 -203 32 -297q31 -93 83 -93q20 0 33 8q12 7 16 19q5 13 5 26v27v58q0 105 -1 138q-2 50 -6 74q-5 24 -13 30q-10 7 -24 8v6h118v-379h-6q-3 26 -16 26q-8 0 -18 -7q-21 -15 -24 -17q-16 -11 -30 -17q-15 -7 -37 -7z" />
    <glyph glyph-name="J.alt" horiz-adv-x="185" 
d="M-45 -156l-3 -6q-28 0 -38 12q-11 13 -11 26q0 15 8 25q7 9 21 9q12 0 21 -6q6 -4 18 -14q3 -2 8 -7t8 -7q7 -6 15 -6q7 0 15 5q7 7 11 12q5 6 10 23q4 13 7 40q3 26 3 66v585q0 56 -1 74q-2 31 -4 41q-3 14 -9 18q-7 5 -17 8v6h145v-6q-10 -3 -17 -8q-6 -4 -9 -18
q-2 -10 -4 -41q-1 -18 -1 -74v-547q0 -36 -11 -67q-10 -29 -27 -52q-18 -25 -34 -38q-14 -12 -33 -25q-25 -19 -41 -23q-18 -5 -30 -5z" />
    <glyph glyph-name="J.alt1" horiz-adv-x="301" 
d="M171 602h-3q0 56 -1 74q-2 31 -4 41q-3 13 -9 18q-7 5 -17 8v6h145v-6q-10 -3 -17 -8q-6 -5 -9 -18q-2 -10 -4 -41q-1 -18 -1 -74v-449q0 -36 -7 -64q-7 -29 -24 -52q-16 -22 -40 -34t-58 -12q-62 0 -94 26q-31 25 -31 59q0 17 10 26q11 9 27 9t27 -9t12 -30
q1 -32 14 -52q12 -19 35 -19q28 0 39 24q10 23 10 86v491z" />
    <glyph glyph-name="K.alt" horiz-adv-x="394" 
d="M20 6l-3 1q10 3 17 8q6 5 9 18q2 10 4 41q1 18 1 74v454q0 56 -1 74q-2 31 -4 41q-3 13 -9 18q-7 5 -17 8v6h145v-6q-10 -3 -17 -8q-6 -5 -9 -18q-2 -10 -4 -41q-1 -18 -1 -74v-206l155 260q16 27 20 42q4 16 3 27q-1 10 -8 15q-6 5 -13 6v6h81v-6q-9 -4 -15 -9
q-8 -6 -14 -13q-9 -11 -18 -25q-18 -29 -27 -43l-149 -250q23 23 51 23q26 0 48 -11q21 -10 36 -36q16 -27 26 -66q11 -40 18 -99q5 -42 14 -98q4 -24 11 -63q4 -22 11 -34q6 -10 15 -10q7 0 14 5t11 12l5 -4q-8 -14 -23 -23t-42 -9q-22 0 -38 8q-14 7 -25 26q-10 17 -16 48
q-6 30 -12 72q-15 121 -17 135q-6 52 -12 81q-6 28 -14 39t-21 11q-12 0 -25 -9q-14 -9 -27 -28v-229q0 -56 1 -74q2 -31 4 -41q3 -14 9 -18q7 -5 17 -8v-6h-145v6z" />
    <glyph glyph-name="Q.alt" horiz-adv-x="422" 
d="M211 -8l-2 2q-31 0 -63 24q-31 23 -58 72q-26 46 -43 120t-17 168q0 96 17 170q16 71 44 119q27 46 59 69t63 23q30 0 64 -23t59 -69t42 -119q17 -74 17 -170q0 -98 -18 -171t-45 -121l31 -37q3 -3 9 -9.5t8 -9.5q4 -5 11 -12q3 -3 9 -7q4 -2 10 -4v-6h-65q-4 0 -8 2
t-11 9l-24 28q-42 -48 -89 -48zM209 4l2 -4q43 0 66 65l-85 100q-14 17 -21 24q-8 8 -19 11v6h67q5 0 7 -1q3 -1 9 -9l57 -68q8 52 11 110q3 62 3 137q0 87 -6 156t-18 117q-12 49 -30 74q-18 26 -43 26q-24 0 -42 -25q-18 -26 -30 -73q-12 -48 -18 -117t-6 -156t6 -156
t18 -117q12 -49 30 -74q18 -26 42 -26z" />
    <glyph glyph-name="R.alt" horiz-adv-x="388" 
d="M20 6l1 -3q10 3 17 8q6 5 9 18q2 10 4 41q1 18 1 74v454q0 56 -1 74q-2 31 -4 41q-3 13 -9 18q-7 5 -17 8v6h125q48 0 84 -7q40 -8 68 -27t45 -54q17 -36 17 -90q0 -69 -33 -118t-90 -69l105 -306q9 -27 12 -35q4 -12 9 -18q4 -6 11 -9q2 -1 7 -3t8 -4v-6h-103l-127 371
h-25v-223q0 -56 1 -74q2 -31 4 -41q3 -14 9 -18q7 -5 17 -8v-6h-145v6zM134 738l-2 -361h34q35 0 57 16t34 43q13 28 17 62q5 38 5 72q0 54 -9 87t-27 51t-43 24q-26 6 -58 6h-8z" />
    <glyph glyph-name="W.alt" horiz-adv-x="550" 
d="M47 623l-5 -2q-8 29 -12 48t-9 33q-5 16 -10 23q-7 10 -15 17v7h134v-7q-22 -8 -24 -24q-1 -16 9 -58l117 -504l51 225l-54 240q-7 29 -12 48t-9 33q-4 13 -11 23q-6 9 -17 15v7h131v-7q-21 -6 -21 -22q0 -19 10 -60l104 -495l84 457l7 42q3 18 1 35q-2 16 -9 26
q-7 11 -24 18v7h87v-7q-5 -3 -13 -9q-6 -4 -12 -17q-6 -12 -12 -33q-4 -14 -13 -59l-115 -628h-12l-82 366l-83 -366h-12z" />
    <glyph glyph-name="s.alt" horiz-adv-x="267" 
d="M140 -5l-6 -8q-28 0 -52 8q-21 7 -37 20q-14 11 -22 27q-7 14 -7 29t8 23t21 8q17 0 24 -10t9 -27q4 -30 15 -48t45 -18q32 0 47 21t15 50q0 15 -5 32q-5 16 -15 32t-27 36q-18 22 -40 42q-23 20 -42 41q-18 19 -26 36q-9 18 -12 35q-3 16 -3 36q0 50 30 80t74 30
q45 0 74 -19q30 -19 30 -48q0 -7 -5 -15t-20 -8q-16 0 -24 11t-11 27q-8 47 -42 47q-29 0 -47 -15t-18 -45q0 -12 5 -25q3 -9 14 -25q8 -12 26 -30q24 -24 40 -39q30 -27 48 -48q19 -22 29 -41q11 -19 15 -39q4 -17 4 -42q0 -27 -10 -48q-10 -22 -27 -39q-16 -16 -36 -25
q-19 -9 -39 -9z" />
    <glyph glyph-name="t.alt" horiz-adv-x="195" 
d="M21 6h1q6 1 12 5q5 3 8 12t3 24v42v366h-31v8q16 5 33 12t30 24q14 17 23 45q10 31 14 72h8v-151h67v-10h-67v-366q0 -31 1 -41q2 -17 4 -24q3 -9 9 -12t18 -6v-6h-133v6z" />
    <glyph glyph-name="w.alt" horiz-adv-x="440" 
d="M42 355l-4 -1q-5 18 -13 54q-7 29 -7 30q-3 11 -7 15t-13 7v6h126v-6q-9 -3 -16 -6q-6 -3 -7 -13q-1 -9 2 -30q2 -11 11 -52l51 -214l71 329h12l84 -340l42 203q9 44 12 67q3 25 -1 36q-5 12 -13 15q-11 4 -24 5v6h90v-6q-12 -3 -17 -6q-7 -3 -11 -15t-9 -36
q-2 -9 -7 -33t-7 -34l-71 -341h-13l-89 321l-70 -321h-12z" />
    <glyph glyph-name="Aacute.alt" horiz-adv-x="339" 
d="M294 137h-1q5 -23 14 -59q8 -34 10 -39q5 -16 9 -23q5 -8 12 -11v-5h-128q-2 0 -2 3t2 3q6 1 12 5q5 3 8 12q3 10 2 25q-2 19 -7 43l-25 129h-134l-18 -97q-8 -36 -9 -57q-2 -23 1 -33q3 -13 10 -18t19 -10v-5h-70v5q7 5 12 12q4 7 9 20q4 12 9 33q8 36 11 54l119 637h11
zM199 229l-66 344l-65 -344h131zM94 790l104 75q10 7 18 12q7 4 17 4q14 0 21 -7t7 -18q0 -28 -35 -39l-129 -33z" />
    <glyph glyph-name="Abreve.alt" horiz-adv-x="339" 
d="M294 137h-1q5 -23 14 -59q8 -34 10 -39q5 -16 9 -23q5 -8 12 -11v-5h-128q-2 0 -2 3t2 3q6 1 12 5q5 3 8 12q3 10 2 25q-2 19 -7 43l-25 129h-134l-18 -97q-8 -36 -9 -57q-2 -23 1 -33q3 -13 10 -18t19 -10v-5h-70v5q7 5 12 12q4 7 9 20q4 12 9 33q8 36 11 54l119 637h11
zM199 229l-66 344l-65 -344h131zM164 837v-2q28 0 44 11q15 10 21 29h9q-1 -33 -20 -61q-18 -27 -54 -27q-34 0 -54 27t-21 63h9q4 -16 21 -28t45 -12z" />
    <glyph glyph-name="Acircumflex.alt" horiz-adv-x="339" 
d="M294 137h-1q5 -23 14 -59q8 -34 10 -39q5 -16 9 -23q5 -8 12 -11v-5h-128q-2 0 -2 3t2 3q6 1 12 5q5 3 8 12q3 10 2 25q-2 19 -7 43l-25 129h-134l-18 -97q-8 -36 -9 -57q-2 -23 1 -33q3 -13 10 -18t19 -10v-5h-70v5q7 5 12 12q4 7 9 20q4 12 9 33q8 36 11 54l119 637h11
zM199 229l-66 344l-65 -344h131zM163 894l106 -106l-4 -5l-102 50l-101 -50l-4 5z" />
    </font>
</defs>
</svg>
