<?xml version="1.0" standalone="no"?>
<!DOCTYPE svg PUBLIC "-//W3C//DTD SVG 1.1//EN" "http://www.w3.org/Graphics/SVG/1.1/DTD/svg11.dtd" >
<svg xmlns="http://www.w3.org/2000/svg" xmlns:xlink="http://www.w3.org/1999/xlink" version="1.1">
<metadata>
Created by FontForge 20170731 at Tue Sep  4 00:54:46 2018
 By Aleksey,,,
Copyright (c) 2018 Commercial Type, Inc.. All rights reserved.
</metadata>
<defs>
<font id="SchnyderXCondXLDemi" horiz-adv-x="295" >
  <font-face 
    font-family="Schnyder X Cond XL Demi"
    font-weight="400"
    font-stretch="extra-condensed"
    units-per-em="1000"
    panose-1="0 0 0 0 0 0 0 0 0 0"
    ascent="800"
    descent="-200"
    x-height="456"
    cap-height="746"
    bbox="-108 -293 911 1006"
    underline-thickness="13"
    underline-position="-104"
    unicode-range="U+000D-FB04"
  />
<missing-glyph horiz-adv-x="153" 
 />
    <glyph glyph-name="f_f" unicode="ff" horiz-adv-x="354" 
d="M192 2l8 -6q10 2 14 6t7 14q3 9 3 27v49v358h-86v-358v-49q0 -18 3 -27q3 -8 9 -13t18 -6v-2h-147v2q10 2 14 6q3 3 7 14q3 9 3 27v49v358h-42v3q25 1 33 11t8 34v70q0 51 15 85q14 33 38 55q23 21 48 30t45 9q28 0 51 -9t30 -22q19 19 42 27q24 8 39 8q32 0 56 -12
t24 -36q0 -11 -8 -21q-8 -9 -24 -9t-25 9t-12 26q-5 28 -7 34q-3 9 -10 9t-13 -6t-12 -21t-9 -40t-3 -63v-163h66v-4h-66v-358v-49q0 -18 3 -27q3 -8 9 -13q6 -4 18 -6v-2h-147v2zM224 454l-3 119q0 35 6 60q6 24 17 45q-14 2 -20 10q-7 10 -8 23q-2 20 -6 26t-17 6
q-11 0 -21 -6t-18 -21t-12 -39q-4 -21 -4 -62v-161h86z" />
    <glyph glyph-name="f_i" unicode="fi" horiz-adv-x="343" 
d="M16 2l-2 -8q10 2 14 6t7 14q3 9 3 27v49v358h-42v3q25 1 33 11t8 34v72q0 52 15 87t36 56t44 30q22 9 41 9q32 0 56 -12t24 -36q0 -11 -8 -21q-7 -9 -23 -9q-18 0 -27 9t-12 26l-6 34q-1 9 -9 9q-7 0 -13 -6t-12 -21t-9 -40t-3 -63v-163h61l115 12v-374v-49q0 -18 3 -27
q3 -8 9 -13t16 -6v-2h-141v2q10 2 14 6t7 14q3 9 3 27v49v276q0 34 -1 45q-2 18 -4 25q-3 10 -7 11q-6 2 -12 2h-61v-358v-49q0 -18 3 -27q3 -8 9 -13q6 -4 18 -6v-2h-147v2zM259 525q-22 0 -37 15t-15 37q0 21 15 36t37 15q21 0 36 -15t15 -36q0 -22 -15 -37t-36 -15z" />
    <glyph glyph-name="f_l" unicode="fl" horiz-adv-x="343" 
d="M16 2v-7q10 2 14 6q4 3 7 14q3 9 3 27v49v358h-42v3q25 1 33 11t8 34v70q0 51 15 86t36 56t45 30t42 9q31 0 52 -12t21 -35q0 -11 -6 -20t-20 -9q-16 0 -24 9t-9 24q-5 30 -7 35q-3 8 -11 8q-7 0 -15 -6q-7 -5 -13 -21q-6 -15 -9 -39t-3 -62v-161h48v-4h-48v-358v-49
q0 -18 3 -27q3 -8 9 -13q6 -4 18 -6v-2h-147v2zM192 -5l1 -1q10 2 14 6q3 4 7 14q3 9 3 27v49v529q0 30 -1 40q-2 16 -4 21q-3 7 -9 8q-8 2 -15 2v2l117 71v-673v-49q0 -18 3 -27q3 -8 9 -13t16 -6v-2h-141v2z" />
    <glyph glyph-name="f_f_i" unicode="ffi" horiz-adv-x="520" 
d="M16 2l5 -8q10 2 14 6q3 4 7 14q3 9 3 27v49v358h-42v3q25 1 33 11t8 34v70q0 50 15 85q14 33 38 55q23 21 48 30t45 9q30 0 53 -9t29 -22q20 20 42 27q24 8 39 8q32 0 56 -12t24 -36q0 -11 -8 -21q-7 -9 -24 -9q-16 0 -25 9t-12 26q-5 28 -7 34q-3 9 -10 9t-13 -6
t-12 -21t-9 -40q-3 -26 -3 -63v-163h62l115 12v-374v-49q0 -18 3 -27q3 -8 9 -13t16 -6v-2h-141v2q10 2 14 6q4 3 7 14q3 9 3 27v49v276q0 34 -1 45q-2 18 -4 25q-3 10 -7 11q-6 2 -12 2h-62v-358v-49q0 -18 3 -27q3 -8 9 -13t18 -6v-2h-147v2q10 2 14 6q3 3 7 14q3 9 3 27
v49v358h-86v-358v-49q0 -18 3 -27q3 -8 9 -13q6 -4 18 -6v-2h-147v2zM221 452l-3 119q0 35 6 60q6 24 17 45q-14 2 -20 10q-7 10 -8 23q-2 20 -6 26q-5 6 -17 6q-10 0 -21 -6t-18 -21t-12 -39q-4 -21 -4 -62v-161h86zM439 528q-21 0 -36 15t-15 37q0 21 15 36t36 15
q22 0 37 -15t15 -36q0 -22 -15 -37t-37 -15z" />
    <glyph glyph-name="f_f_l" unicode="ffl" horiz-adv-x="520" 
d="M192 2l7 -7q10 2 14 6q3 3 7 14q3 9 3 27v49v358h-86v-358v-49q0 -18 3 -27q3 -8 9 -13q6 -4 18 -6v-2h-147v2q10 2 14 6t7 14q3 9 3 27v49v358h-42v3q25 1 33 11t8 34v70q0 50 15 85q14 33 38 55q22 21 48 30t45 9q31 0 54 -9t27 -25q20 19 42 27q24 8 41 8q32 0 53 -12
t21 -35q0 -11 -6 -20t-21 -9q-16 0 -24 9t-9 24q-5 30 -7 35q-3 8 -11 8q-7 0 -15 -6q-7 -5 -13 -21q-6 -15 -9 -39t-3 -62v-161h48v-4h-48v-358v-49q0 -18 3 -27q3 -8 9 -13q6 -4 18 -6v-2h-147v2zM223 453l-2 115q0 37 7 62q8 28 18 47q-28 1 -31 33q-2 20 -6 26
q-5 6 -17 6q-10 0 -21 -6t-18 -21t-12 -39q-4 -21 -4 -62v-161h86zM374 -4l1 -1q10 2 14 6q3 3 7 14q3 9 3 27v49v529q0 30 -1 40q-2 16 -4 21q-3 7 -9 8q-8 2 -15 2v2l117 71v-673v-49q0 -18 3 -27q3 -8 9 -13t16 -6v-2h-141v2z" />
    <glyph glyph-name="f_b" unicode="fb" horiz-adv-x="540" 
d="M16 2v-7q10 2 14 6q4 3 7 14q3 9 3 27v49v358h-42v3q25 1 33 11t8 34v70q0 51 15 86t36 56t45 30t42 9q31 0 52 -12t21 -35q0 -11 -6 -20t-20 -9q-16 0 -24 9t-9 24q-5 30 -7 35q-3 8 -11 8q-7 0 -15 -6q-7 -5 -13 -21q-6 -15 -9 -39t-3 -62v-161h48v-4h-48v-358v-49
q0 -18 3 -27q3 -8 9 -13q6 -4 18 -6v-2h-147v2zM355 -11l-4 -3q-20 0 -34 7q-17 8 -27 16q-8 6 -24 16q-11 7 -27 7q-10 0 -16 -6q-5 -6 -7 -13h-2v606q0 34 -1 45q-2 18 -4 24q-3 7 -8 9q-4 1 -14 3v2l117 61v-365q30 36 48 49q16 12 33 12q22 0 46 -12q25 -13 44 -37
q19 -26 33 -66q13 -39 13 -99q0 -66 -13 -112q-14 -49 -36 -80t-53 -48q-29 -16 -64 -16zM312 10l-2 1q5 -9 13 -14q9 -6 27 -6q37 0 54 59q17 60 17 176q0 118 -15 171t-37 53q-6 0 -9 -1q-6 -2 -12 -7q-5 -4 -19 -18q-11 -12 -28 -31v-311q0 -38 3 -51q3 -12 8 -21z" />
    <glyph glyph-name="f_f_b" unicode="ffb" horiz-adv-x="716" 
d="M192 2l7 -7q10 2 14 6q3 3 7 14q3 9 3 27v49v358h-86v-358v-49q0 -18 3 -27q3 -8 9 -13q6 -4 18 -6v-2h-147v2q10 2 14 6t7 14q3 9 3 27v49v358h-42v3q25 1 33 11t8 34v70q0 50 15 85q14 33 38 55q22 21 48 30t45 9q31 0 54 -9t27 -25q20 19 42 27q24 8 41 8q32 0 53 -12
t21 -35q0 -11 -6 -20t-21 -9q-16 0 -24 9t-9 24q-5 30 -7 35q-3 8 -11 8q-7 0 -15 -6q-7 -5 -13 -21q-6 -15 -9 -39t-3 -62v-161h48v-4h-48v-358v-49q0 -18 3 -27q3 -8 9 -13q6 -4 18 -6v-2h-147v2zM223 453l-2 115q0 37 7 62q8 28 18 47q-28 1 -31 33q-2 20 -6 26
q-5 6 -17 6q-10 0 -21 -6t-18 -21t-12 -39q-4 -21 -4 -62v-161h86zM537 -10l-4 -3q-20 0 -34 7q-17 9 -27 16q-8 6 -24 16q-11 7 -27 7q-10 0 -16 -6q-5 -6 -7 -13h-2v606q0 34 -1 45q-2 18 -4 24q-3 7 -8 9q-4 1 -14 3v2l117 61v-365q30 36 48 49q16 12 33 12q22 0 46 -12
q25 -13 44 -37q19 -25 33 -66q13 -39 13 -99q0 -66 -13 -112q-14 -49 -36 -80t-53 -48q-29 -16 -64 -16zM494 11l-2 1q5 -9 13 -14q9 -6 27 -6q37 0 54 59q17 60 17 176q0 119 -15 171q-15 53 -37 53q-6 0 -9 -1q-6 -2 -12 -7q-5 -4 -19 -18q-11 -11 -28 -31v-311
q0 -37 3 -51q3 -12 8 -21z" />
    <glyph glyph-name="f_f_h" unicode="ffh" horiz-adv-x="718" 
d="M192 2l7 -7q10 2 14 6q3 3 7 14q3 9 3 27v49v358h-86v-358v-49q0 -18 3 -27q3 -8 9 -13q6 -4 18 -6v-2h-147v2q10 2 14 6t7 14q3 9 3 27v49v358h-42v3q25 1 33 11t8 34v70q0 50 15 85q14 33 38 55q22 21 48 30t45 9q31 0 54 -9t27 -25q20 19 42 27q24 8 41 8q32 0 53 -12
t21 -35q0 -11 -6 -20t-21 -9q-16 0 -24 9t-9 24q-5 30 -7 35q-3 8 -11 8q-7 0 -15 -6q-7 -5 -13 -21q-6 -15 -9 -39t-3 -62v-161h48v-4h-48v-358v-49q0 -18 3 -27q3 -8 9 -13q6 -4 18 -6v-2h-147v2zM223 453l-2 115q0 37 7 62q8 28 18 47q-28 1 -31 33q-2 20 -6 26
q-5 6 -17 6q-10 0 -21 -6t-18 -21t-12 -39q-4 -21 -4 -62v-161h86zM374 -4l1 -4q10 2 14 6q3 3 7 14q3 9 3 27v49v518q0 36 -1 47q-2 18 -4 24q-3 7 -9 9q-8 2 -15 2v2l117 71v-373q19 21 38 36q17 14 30 21t24 9q14 2 21 2q14 0 27 -4q16 -5 29 -15q14 -11 23 -29t9 -45
v-274v-49q0 -15 2 -27q1 -8 6 -13q4 -4 14 -6v-2h-142v2q10 1 16 6q6 4 9 14q3 9 3 27v49v294q0 34 -8 48t-21 14q-5 0 -9 -1q-7 -2 -15 -7q-11 -7 -23 -18q-15 -14 -33 -34v-295v-49q0 -18 3 -27q3 -8 9 -13t16 -6v-2h-141v2z" />
    <glyph glyph-name="f_f_j" unicode="ffj" horiz-adv-x="521" 
d="M192 2l3 -8q10 2 14 6q3 4 7 14q3 9 3 27v49v358h-86v-358v-49q0 -18 3 -27q3 -8 9 -13t18 -6v-2h-147v2q10 2 14 6q4 3 7 14q3 9 3 27v49v358h-42v3q25 1 33 11t8 34v70q0 51 15 85q14 33 38 55q22 21 48 30t45 9q31 0 53 -9q23 -9 29 -22q19 19 42 27q24 8 39 8
q32 0 56 -12t24 -36q0 -11 -8 -21q-8 -9 -24 -9t-25 9t-12 26q-5 28 -7 34q-3 9 -10 9t-13 -6t-12 -21t-9 -40t-3 -63v-163h62l115 12v-407q0 -35 -4 -56t-14 -43q-9 -19 -24 -36q-14 -15 -36 -31q-26 -20 -42 -24q-18 -5 -35 -5q-19 0 -33 11q-13 10 -13 27q0 14 9 23t23 9
q15 0 23 -7t15 -17q8 -12 12 -17q6 -7 14 -7q5 0 10 5q5 4 6 24q2 26 2 74v380q0 34 -1 45q-2 18 -4 25q-3 10 -7 11q-6 2 -12 2h-62v-358v-49q0 -18 3 -27q3 -8 9 -13q6 -4 18 -6v-2h-147v2zM219 452l-3 119q0 35 6 60q6 24 17 45q-14 2 -20 10q-7 10 -8 23q-2 20 -6 26
q-5 6 -17 6q-10 0 -21 -6t-18 -21t-12 -39q-4 -21 -4 -62v-161h86zM437 528q-21 0 -36 15t-15 37q0 21 15 36t36 15q22 0 37 -15t15 -36q0 -22 -15 -37t-37 -15z" />
    <glyph glyph-name="f_f_k" unicode="ffk" horiz-adv-x="686" 
d="M192 2l7 -7q10 2 14 6q3 3 7 14q3 9 3 27v49v358h-86v-358v-49q0 -18 3 -27q3 -8 9 -13q6 -4 18 -6v-2h-147v2q10 2 14 6t7 14q3 9 3 27v49v358h-42v3q25 1 33 11t8 34v70q0 50 15 85q14 33 38 55q22 21 48 30t45 9q31 0 54 -9t27 -25q20 19 42 27q24 8 41 8q32 0 53 -12
t21 -35q0 -11 -6 -20t-21 -9q-16 0 -24 9t-9 24q-5 30 -7 35q-3 8 -11 8q-7 0 -15 -6q-7 -5 -13 -21q-6 -15 -9 -39t-3 -62v-161h48v-4h-48v-358v-49q0 -18 3 -27q3 -8 9 -13q6 -4 18 -6v-2h-147v2zM223 453l-2 115q0 37 7 62q8 28 18 47q-28 1 -31 33q-2 20 -6 26
q-5 6 -17 6q-10 0 -21 -6t-18 -21t-12 -39q-4 -21 -4 -62v-161h86zM374 -4l3 -2q10 2 14 6q3 4 7 14q3 9 3 27v49v529q0 32 -1 42q-2 16 -4 21q-3 6 -8 8q-3 1 -14 1v2l117 71v-524l122 153q12 17 15 27q3 11 0 17t-12 9q-12 4 -19 5v2h89v-2q-6 -2 -16 -6q-8 -3 -15 -9
q-5 -4 -18 -17q-8 -8 -25 -30l-60 -76l113 -268q11 -25 18 -36q7 -10 15 -13v-3h-141v3q13 4 18 15t-9 41l-79 184v-145v-49q0 -18 3 -27q3 -8 9 -13t16 -6v-2h-141v2z" />
    <glyph glyph-name="f_h" unicode="fh" horiz-adv-x="542" 
d="M16 2v-7q10 2 14 6q4 3 7 14q3 9 3 27v49v358h-42v3q25 1 33 11t8 34v70q0 51 15 86t36 56t45 30t42 9q31 0 52 -12t21 -35q0 -11 -6 -20t-20 -9q-16 0 -24 9t-9 24q-5 30 -7 35q-3 8 -11 8q-7 0 -15 -6q-7 -5 -13 -21q-6 -15 -9 -39t-3 -62v-161h48v-4h-48v-358v-49
q0 -18 3 -27q3 -8 9 -13q6 -4 18 -6v-2h-147v2zM192 -5l1 -4q10 2 14 6q3 4 7 14q3 9 3 27v49v518q0 36 -1 47q-2 18 -4 24q-3 8 -9 9q-8 2 -15 2v2l117 71v-373q19 21 38 36q17 13 30 21t24 9q14 2 21 2q14 0 27 -4q16 -5 29 -15q14 -11 23 -29t9 -45v-274v-49q0 -15 2 -27
q1 -8 6 -13q4 -4 14 -6v-2h-142v2q10 1 16 6q6 4 9 14q3 9 3 27v49v294q0 34 -8 48t-21 14q-5 0 -9 -1q-7 -2 -15 -7q-11 -7 -23 -18q-15 -14 -33 -34v-295v-49q0 -18 3 -27q3 -8 9 -13t16 -6v-2h-141v2z" />
    <glyph glyph-name="f_j" unicode="fj" horiz-adv-x="344" 
d="M16 2l-5 -8q10 2 14 6q3 4 7 14q3 9 3 27v49v358h-42v3q25 1 33 11t8 34v72q0 52 15 87t36 56t44 30t41 9q32 0 56 -12t24 -36q0 -11 -8 -21q-8 -9 -23 -9q-18 0 -27 9t-12 26l-6 34q-2 9 -9 9t-13 -6t-12 -21t-9 -40t-3 -63v-163h61l115 12v-407q0 -35 -4 -56t-14 -43
q-9 -19 -24 -36q-14 -15 -36 -31q-26 -20 -43 -24q-20 -5 -34 -5q-19 0 -32 11q-12 10 -12 27q0 14 9 23t23 9q15 0 23 -7t15 -17q8 -12 12 -17q6 -7 14 -7q5 0 10 5q5 4 6 24q1 13 1 74v380q0 34 -1 45q-2 18 -4 25q-3 10 -7 11q-6 2 -12 2h-61v-358v-49q0 -18 3 -27
q3 -8 9 -13q6 -4 18 -6v-2h-147v2zM256 525q-22 0 -37 15t-15 37q0 21 15 36t37 15q21 0 36 -15t15 -36q0 -22 -15 -37t-36 -15z" />
    <glyph glyph-name="f_k" unicode="fk" horiz-adv-x="509" 
d="M16 2v-7q10 2 14 6q4 3 7 14q3 9 3 27v49v358h-42v3q25 1 33 11t8 34v70q0 51 15 86t36 56t45 30t42 9q31 0 52 -12t21 -35q0 -11 -6 -20t-20 -9q-16 0 -24 9t-9 24q-5 30 -7 35q-3 8 -11 8q-7 0 -15 -6q-7 -5 -13 -21q-6 -15 -9 -39t-3 -62v-161h48v-4h-48v-358v-49
q0 -18 3 -27q3 -8 9 -13q6 -4 18 -6v-2h-147v2zM192 -5l3 -2q10 2 14 6q3 3 7 14q3 9 3 27v49v529q0 32 -1 42q-2 16 -4 21q-3 6 -8 8q-3 1 -14 1v2l117 71v-524l122 153q12 16 15 27t0 17t-12 9q-12 4 -19 5v2h89v-2q-6 -2 -16 -6q-8 -3 -15 -9q-5 -4 -18 -17
q-8 -8 -25 -30l-60 -76l113 -268q11 -26 18 -36t15 -13v-3h-141v3q13 5 18 15q5 11 -9 41l-79 184v-145v-49q0 -18 3 -27q3 -8 9 -13t16 -6v-2h-141v2z" />
    <glyph glyph-name="g_j" unicode="gj" horiz-adv-x="491" 
d="M408 535q-22 0 -37 15t-15 36t15 36t37 15q21 0 36 -15t15 -36t-15 -36t-36 -15zM301 -129l-4 -1q-19 0 -19 15q0 3 3 10l6 15q3 8 7 13q4 6 7 6q7 0 12 -6q6 -8 9 -13t9 -13q5 -6 12 -6q5 0 10 5q5 4 6 24q2 26 2 74v317q0 34 -1 45q-2 18 -4 25q-3 10 -7 11q-6 2 -12 2
v2l115 76v-407q0 -35 -4 -56t-14 -43q-9 -20 -24 -36q-14 -15 -36 -31q-26 -19 -42 -24q-15 -4 -31 -4zM147 153v-8q-32 0 -63 16l-2 -1q-18 -11 -23 -19q-6 -9 -6 -16q0 -3 2 -9q1 -4 8 -9q6 -4 20 -9q21 -7 36 -11l92 -27q59 -17 81 -46q23 -31 23 -66q0 -34 -13 -57
t-36 -40t-52 -24q-32 -8 -61 -8q-31 0 -60 6t-51 18t-36 29q-13 16 -13 36q0 16 8 30t21 26q12 10 30 22l33 21q-36 13 -51 33t-15 45q0 31 19 49q20 18 39 30l3 2q-28 17 -47 49q-20 34 -20 87q0 45 13 74q14 31 33 50q20 20 42 29t44 9q16 0 34 -6q21 -7 35 -16
q26 20 40 27q16 8 29 8q29 0 29 -29q0 -12 -7 -19t-18 -7q-9 0 -14 4l-12 9l-12 9q-5 4 -13 4q-9 0 -19 -5q26 -20 45 -52t19 -85q0 -44 -13 -73q-14 -30 -33 -48q-19 -17 -43 -25q-22 -7 -45 -7zM43 -85l1 -3q0 -45 26 -69t83 -24q61 0 95 24q35 24 35 61q0 28 -21 41
q-21 14 -70 27l-89 26l-12 4q-25 -17 -36 -34q-12 -18 -12 -53zM148 146l-1 -1q9 0 19 8q9 7 16 25q8 18 12 46q4 25 4 71q0 84 -15 120t-35 36q-19 0 -34 -36t-15 -120q0 -83 15 -116t34 -33z" />
    <glyph glyph-name=".notdef" horiz-adv-x="153" 
 />
    <glyph glyph-name=".null" horiz-adv-x="0" 
 />
    <glyph glyph-name="nonmarkingreturn" unicode="&#xd;" horiz-adv-x="153" 
 />
    <glyph glyph-name="NULL" horiz-adv-x="0" 
 />
    <glyph glyph-name="NULL" horiz-adv-x="0" 
 />
    <glyph glyph-name="space" unicode=" " horiz-adv-x="153" 
 />
    <glyph glyph-name="exclam" unicode="!" horiz-adv-x="165" 
d="M81 200l-3 -2q-6 110 -15 192q-9 84 -18 143q-10 68 -15 98q-6 37 -6 57q0 31 15 49t43 18q27 0 42 -18t15 -49q0 -20 -6 -57q-7 -45 -15 -97q-9 -61 -18 -142q-9 -82 -15 -192h-4zM81 -14q-23 0 -38 16t-15 39t15 38t38 15t38 -15t15 -38t-15 -39t-38 -16z" />
    <glyph glyph-name="quotedbl" unicode="&#x22;" horiz-adv-x="223" 
d="M161 557h-4q-3 23 -9 46t-12 42q-10 34 -11 36q-5 18 -5 30q0 19 11 33q10 13 30 13q22 0 32 -13q11 -14 11 -33q0 -12 -5 -30q-1 -2 -11 -36q-12 -39 -13 -42q-7 -20 -10 -46h-4zM54 557h-4q-3 23 -9 46t-12 42q-10 34 -11 36q-5 18 -5 30q0 19 11 33q10 13 30 13
q22 0 32 -13q11 -14 11 -33q0 -12 -5 -30q-1 -2 -11 -36q-12 -39 -13 -42q-7 -20 -10 -46h-4z" />
    <glyph glyph-name="numbersign" unicode="#" horiz-adv-x="239" 
d="M4 278h53l33 244h-52v8h53l29 220h8l-29 -220h70l29 220h8l-29 -220h58v-8h-59l-33 -244h58v-8h-59l-36 -269h-8l36 269h-70l-36 -269h-8l36 269h-52v8zM135 278l33 244h-70l-33 -244h70z" />
    <glyph glyph-name="dollar" unicode="$" horiz-adv-x="307" 
d="M136 815l-1 -61q3 1 9 1h8h11v59h6v-60q43 -3 74 -24q32 -21 32 -61q0 -17 -9 -27t-22 -10q-14 0 -25 11q-10 10 -10 30q0 37 -6 55t-34 21v-281l22 -36l42 -70q20 -34 33 -64q14 -32 21 -63q8 -34 8 -66q0 -76 -36 -121q-36 -46 -90 -53v-71h-6v70q-3 -1 -9 -1h-9h-9
v-69h-6v70q-24 2 -45 9q-23 8 -38 19q-17 12 -26 29t-9 38q0 19 11 30q10 10 26 10q34 0 36 -44q1 -21 3 -36q2 -16 6 -26t13 -16q8 -5 24 -7v346l-14 23q-7 10 -40 63q-14 23 -31 56q-13 26 -21 56q-7 27 -7 65q0 65 32 102q31 35 80 43v61h6zM220 115h-1q0 41 -14 81
q-13 38 -38 83v-277q26 11 39 40q14 31 14 73zM143 -3l-1 -1q9 0 18 3v289q-4 7 -12 23q-4 8 -14 24v-338h9zM149 750l-1 -2h-8q-4 0 -7 -1v-227q8 -14 13 -21l14 -22v273h-11zM81 661q0 -35 12 -66q11 -29 32 -66v216q-23 -7 -33 -30q-11 -24 -11 -54z" />
    <glyph glyph-name="percent" unicode="%" horiz-adv-x="475" 
d="M125 379h-1q-24 0 -45 15q-22 15 -36 40q-15 26 -24 60t-9 75t9 75t24 60q14 25 36 40q21 15 45 15q23 0 44 -15q22 -15 36 -40q15 -26 24 -60t9 -75t-9 -75t-24 -60q-14 -25 -36 -40q-21 -15 -43 -15zM90 -4l286 760l7 -3l-286 -760zM124 383l-1 -1q43 0 43 185
q0 184 -43 184q-19 0 -31 -45t-12 -139q0 -91 12 -138q12 -46 32 -46zM348 -7h-1q-24 0 -45 15q-22 15 -36 40q-15 26 -24 60t-9 75t9 75t24 60q14 25 36 40q21 15 45 15q23 0 44 -15q22 -15 36 -40q15 -26 24 -60t9 -75t-9 -75t-24 -60q-14 -25 -36 -40q-21 -15 -43 -15z
M347 -3l-1 -1q43 0 43 185q0 184 -43 184q-19 0 -31 -45t-12 -139q0 -91 12 -138q12 -46 32 -46z" />
    <glyph glyph-name="ampersand" unicode="&#x26;" horiz-adv-x="459" 
d="M343 230l-1 -6q34 -74 54 -117q17 -38 32 -66q10 -19 20 -31q7 -8 18 -13v-2h-120l-46 100q-25 -59 -54 -85q-28 -25 -67 -25q-35 0 -64 13q-28 13 -52 38q-23 24 -36 60q-13 35 -13 82q0 43 12 77q12 35 33 62q22 28 46 48q23 19 51 37q-11 24 -25 57q-11 25 -18 48
q-8 25 -11 45q-3 22 -3 48q0 41 11 72q10 28 29 49q18 19 40 28q23 9 45 9q20 0 39 -6t36 -21t27 -40q11 -27 11 -64t-10 -63q-11 -29 -25 -48q-16 -22 -31 -36q-12 -11 -32 -25q2 -3 6 -11l6 -12l82 -183l6 -14l26 88q11 39 15 61q4 24 3 39q-1 14 -11 22q-9 7 -26 12v2
h117v-2q-20 -5 -30 -10q-12 -6 -22 -19q-9 -12 -19 -38q-8 -22 -21 -65zM118 199l-2 -1q0 -105 23 -156q22 -49 59 -49q22 0 47 23t50 84l-128 276l-3 9l-3 9q-23 -32 -33 -78q-10 -44 -10 -117zM173 656l3 -3q0 -50 18 -98q16 -43 44 -102q9 12 14 24q7 16 11 33q6 24 8 46
q3 27 3 64q0 46 -4 69q-4 25 -12 39t-16 17q-9 3 -18 3q-27 0 -39 -25t-12 -67z" />
    <glyph glyph-name="quotesingle" unicode="'" horiz-adv-x="120" 
d="M58 557h-4q-3 23 -9 46t-12 42q-10 34 -11 36q-5 18 -5 30q0 19 11 33q10 13 30 13q22 0 32 -13q11 -14 11 -33q0 -12 -5 -30q-1 -2 -11 -36q-12 -39 -13 -42q-7 -20 -10 -46h-4z" />
    <glyph glyph-name="parenleft" unicode="(" horiz-adv-x="191" 
d="M197 -106v-1q-17 20 -48 62q-29 39 -54 96q-25 55 -43 130q-18 73 -18 165t18 165q19 76 43 129q26 57 54 95q31 42 48 62l2 -2q-13 -19 -29 -53q-17 -36 -32 -89q-16 -58 -26 -130q-11 -80 -11 -175q0 -97 11 -177q10 -73 26 -132q14 -53 32 -90q16 -34 29 -53z" />
    <glyph glyph-name="parenright" unicode=")" horiz-adv-x="191" 
d="M-8 -104v-2q13 19 29 53q18 37 32 90q16 59 26 132q11 80 11 177q0 95 -11 175q-10 74 -26 131q-15 53 -32 89q-16 34 -29 53l2 2q22 -25 48 -61q29 -40 54 -94q24 -53 43 -129q18 -74 18 -165t-18 -165q-18 -75 -43 -130q-26 -57 -54 -96q-31 -42 -48 -62z" />
    <glyph glyph-name="asterisk" unicode="*" horiz-adv-x="229" 
d="M135 552l-5 -5q0 -25 -20 -25t-20 25q0 17 7 38q7 23 12 48q-17 -24 -27 -43q-11 -22 -21 -32q-19 -16 -33 -3q-15 13 3 33q11 10 33 21q24 11 44 27q-28 -5 -50 -12q-21 -7 -38 -7q-25 0 -25 20t25 20q17 0 39 -7q23 -7 50 -12q-24 17 -43 27q-22 11 -32 21
q-17 18 -3 32t32 -3q11 -11 21 -33q10 -21 27 -43q-5 28 -12 50q-7 21 -7 38q0 25 20 25t20 -25q0 -17 -7 -39q-8 -25 -12 -49q17 23 27 45t21 33q18 17 32 3t-3 -32q-10 -10 -32 -21q-21 -11 -42 -27q26 4 48 12q21 7 39 7q25 0 25 -20t-25 -20q-15 0 -39 8q-22 7 -48 12
q22 -17 43 -27q23 -10 33 -21q17 -18 3 -32q-6 -7 -15 -6q-10 2 -17 9q-11 10 -21 33q-10 21 -27 43q4 -26 12 -49q8 -24 8 -37z" />
    <glyph glyph-name="plus" unicode="+" horiz-adv-x="301" 
d="M147 213v134h-122v6h122v137h8v-137h121v-6h-121v-134h-8z" />
    <glyph glyph-name="comma" unicode="," horiz-adv-x="148" 
d="M107 13v1q-6 -6 -15 -12t-26 -6q-19 0 -33 14q-13 13 -13 35q0 23 15 38t34 15q23 0 43 -18q19 -18 19 -52q0 -49 -24 -79q-25 -31 -61 -47l-3 4q35 17 53 39q18 23 18 47q0 14 -7 21z" />
    <glyph glyph-name="hyphen" unicode="-" horiz-adv-x="218" 
d="M44 311h145l-15 -58h-145z" />
    <glyph glyph-name="period" unicode="." horiz-adv-x="146" 
d="M73 -12q-23 0 -38 16t-15 39t15 38t38 15t38 -15t15 -38t-15 -39t-38 -16z" />
    <glyph glyph-name="slash" unicode="/" horiz-adv-x="222" 
d="M224 795l-237 -965h-9l237 965h9z" />
    <glyph glyph-name="zero" unicode="0" horiz-adv-x="415" 
d="M208 757l-2 -2q35 0 67 -22q34 -23 59 -69q26 -48 41 -118q15 -72 15 -171q0 -96 -15 -168q-15 -70 -41 -120q-26 -49 -58 -72q-33 -24 -67 -24t-67 24q-32 23 -58 72q-26 48 -42 120q-16 70 -16 168q0 101 16 171q17 73 42 119t59 69t67 23zM206 750l-2 -2
q-40 0 -60 -96q-20 -98 -20 -280q0 -187 19 -282q19 -97 63 -97q43 0 61 98q17 95 19 282t-19 281q-21 96 -61 96z" />
    <glyph glyph-name="one" unicode="1" horiz-adv-x="210" 
d="M17 0q12 3 21 8q7 4 12 20q4 15 6 45q1 20 1 83v407q0 33 -1 45q-1 17 -6 28t-13 15t-25 4v3l144 103v-603q0 -63 1 -83q1 -30 6 -45q5 -16 12 -20q9 -5 21 -8v-2h-179z" />
    <glyph glyph-name="two" unicode="2" horiz-adv-x="353" 
d="M204 84l-10 1q55 0 73 1q31 2 41 4q14 3 20 9q6 7 11 17h3l-22 -84q-5 -20 -9 -26q-5 -6 -15 -6h-298l90 177q32 60 54 111q21 47 37 99q14 45 22 96q7 45 7 102q0 85 -12 126q-12 40 -47 40q-19 0 -28 -9t-13 -22q-4 -12 -4 -30q0 -21 -1 -31q-1 -19 -12 -33
q-10 -13 -30 -13q-17 0 -28 14q-10 13 -10 30q0 19 11 38q10 16 29 31q18 14 42 21q26 8 50 8t54 -8q28 -7 52 -27q23 -19 40 -54q16 -33 16 -85q0 -53 -12 -99q-12 -45 -36 -94q-25 -51 -61 -102q-31 -45 -87 -121l-60 -81h143z" />
    <glyph glyph-name="three" unicode="3" horiz-adv-x="340" 
d="M128 0l-2 -2q42 0 66 66t24 185q0 116 -13 164q-14 50 -51 50q-29 0 -45 -16q-18 -18 -33 -40l-4 2l183 258h-107q-41 0 -54 -1q-22 -2 -31 -4q-13 -3 -18 -10q-7 -8 -12 -19h-3l22 87q4 18 8 24q3 5 11 5h243v-4l-208 -295q11 8 22 12q13 5 27 5q29 0 58 -10
q30 -11 54 -36q24 -26 39 -67q15 -42 15 -105q0 -61 -15 -109q-15 -47 -42 -79t-61 -48q-36 -17 -73 -17q-28 0 -48 7q-21 8 -37 19t-25 27q-9 15 -9 32t9 30q9 14 29 14q40 0 43 -44q2 -22 2 -32q0 -15 3 -26q3 -12 10 -17q7 -6 23 -6z" />
    <glyph glyph-name="four" unicode="4" horiz-adv-x="345" 
d="M272 159h2q0 -63 1 -83q2 -33 4 -45q3 -16 9 -20q7 -5 17 -8v-2h-163v2q10 3 17 8q6 4 9 20q2 12 4 45q1 20 1 83h-172v4l252 590h19v-526h82l-35 -68h-47zM175 227v327l-140 -327h140z" />
    <glyph glyph-name="five" unicode="5" horiz-adv-x="338" 
d="M81 670l-32 -230q12 20 36 33q25 14 54 14t59 -9t56 -35q26 -25 42 -69q16 -42 16 -114q0 -70 -16 -119t-44 -85q-27 -34 -63 -51q-37 -17 -73 -17q-24 0 -45 9q-22 9 -36 22q-15 14 -24 31q-9 18 -9 35q0 20 10 33q11 14 30 14q20 0 30 -13t12 -33q0 -14 -3 -31t-3 -30
q0 -12 8 -22q8 -9 29 -9q22 0 40 21t30 57t18 87t6 112q0 105 -15 160t-57 55q-32 0 -54 -16t-34 -36l-3 2l41 313h221l-19 -68q-3 -8 -4 -9q-2 -2 -7 -2h-197z" />
    <glyph glyph-name="six" unicode="6" horiz-adv-x="402" 
d="M240 751l-2 -5q-31 0 -52 -18t-33 -51t-18 -81q-7 -53 -8 -107q12 11 30 19q15 7 39 7q86 0 135 -63q49 -62 49 -189q0 -69 -18 -120q-18 -52 -43 -84q-26 -33 -56 -50q-29 -16 -56 -16q-33 0 -66 21q-34 21 -59 66t-42 116q-16 68 -16 170q0 85 16 153q16 71 45 123
q29 53 68 83t86 30q25 0 45 -7q22 -8 36 -19q15 -12 24 -27t9 -33q0 -21 -10 -32q-11 -12 -27 -12q-17 0 -30 11q-11 10 -13 30q-1 13 0 28t0 27t-9 21t-24 9zM125 361l3 -1q0 -191 23 -280q23 -87 57 -87q38 0 54 69q17 71 17 198q0 75 -6 123q-6 45 -17 76q-10 28 -26 39
t-33 11q-22 0 -39 -7t-31 -21q-2 -38 -2 -58v-62z" />
    <glyph glyph-name="seven" unicode="7" horiz-adv-x="312" 
d="M111 0h-6l170 671h-156q-41 0 -53 -1q-16 -1 -29 -5q-10 -3 -16 -10q-1 -2 -13 -18h-2l30 105q2 8 14 8h251v-4z" />
    <glyph glyph-name="eight" unicode="8" horiz-adv-x="359" 
d="M344 172l-2 -3q0 -41 -12 -74t-33 -57q-20 -23 -51 -37q-29 -13 -64 -13q-34 0 -66 12t-54 34t-36 56q-13 32 -13 75q0 38 12 68t30 54t41 44q25 22 45 35q-25 30 -45 57t-33 54t-21 59q-7 29 -7 69q0 37 12 66t31 48q20 19 45 30q27 11 52 11q30 0 57 -9t48 -27t33 -47
t12 -69q0 -32 -9 -57t-24 -48q-15 -22 -34 -40q-20 -18 -39 -33l2 -2q21 -24 49 -60q23 -30 39 -58q17 -32 26 -63q9 -33 9 -75zM110 647h-2q0 -33 8 -63q7 -27 23 -54q14 -23 33 -49q14 -18 39 -49q18 34 26 70q9 39 9 100q0 46 -6 76t-16 46q-11 17 -24 23t-28 6
q-29 0 -45 -25q-17 -26 -17 -81zM180 -9h-2q44 0 63 36q19 35 19 92q0 38 -7 65q-8 30 -21 56q-12 23 -35 55q-21 29 -49 61l-2 3q-22 -30 -37 -78q-15 -47 -15 -118q0 -85 21 -129q21 -43 65 -43z" />
    <glyph glyph-name="nine" unicode="9" horiz-adv-x="401" 
d="M161 -2l1 -1q31 0 52 18t33 53t18 82q7 53 8 107q-12 -11 -30 -19q-15 -7 -39 -7q-86 0 -135 63q-49 62 -49 189q0 69 18 120q18 50 44 84q26 33 56 50q31 17 56 17q33 0 66 -21q34 -21 59 -66q26 -45 42 -115q16 -68 16 -169q0 -85 -16 -153q-17 -70 -45 -123
q-28 -51 -68 -82q-39 -30 -86 -30q-25 0 -45 7q-22 8 -36 19q-15 12 -24 28q-9 17 -9 33q0 19 11 32q11 12 27 12q41 0 42 -43q1 -13 0 -28q-2 -15 0 -27t9 -21t24 -9zM122 483l-2 -1q0 -75 6 -123q6 -45 17 -76q10 -28 26 -39t33 -11q42 0 69 29q2 38 2 58v62
q0 192 -23 281q-22 87 -57 87q-37 0 -54 -69q-17 -71 -17 -198z" />
    <glyph glyph-name="colon" unicode=":" horiz-adv-x="154" 
d="M77 347q-23 0 -38 15t-15 38t15 38t38 15t38 -15t15 -38t-15 -38t-38 -15zM77 -12q-23 0 -38 16t-15 39t15 38t38 15t38 -15t15 -38t-15 -39t-38 -16z" />
    <glyph glyph-name="semicolon" unicode=";" horiz-adv-x="156" 
d="M78 347q-23 0 -38 15t-15 38t15 38t38 15t38 -15t15 -38t-15 -38t-38 -15zM111 13v1q-6 -6 -15 -12t-26 -6q-19 0 -33 14q-13 13 -13 35q0 23 15 38t34 15q26 0 44 -18t18 -52q0 -49 -24 -79q-25 -31 -61 -47l-3 4q35 17 53 39q18 23 18 47q0 14 -7 21z" />
    <glyph glyph-name="less" unicode="&#x3c;" horiz-adv-x="299" 
d="M25 355l249 99v-8l-239 -95l239 -95v-8l-249 99v8z" />
    <glyph glyph-name="equal" unicode="=" horiz-adv-x="311" 
d="M30 394h251v-8h-251v8zM30 314h251v-8h-251v8z" />
    <glyph glyph-name="greater" unicode="&#x3e;" horiz-adv-x="299" 
d="M274 347l-249 -99v8l239 95l-239 95v8l249 -99v-8z" />
    <glyph glyph-name="question" unicode="?" horiz-adv-x="274" 
d="M99 195l-1 -4q0 71 11 131q10 55 24 106q13 50 24 96q11 49 11 102q0 70 -12 97t-37 27q-22 0 -28 -15q-5 -13 -10 -43q-5 -23 -13 -34q-9 -12 -28 -11q-15 1 -24 12q-9 10 -7 27q1 28 30 49t81 21q28 0 54 -9t44 -27q19 -19 29 -45q11 -28 11 -64q0 -33 -11 -64
q-11 -30 -27 -60q-14 -26 -36 -61q-16 -26 -37 -66q-18 -34 -30 -75t-15 -90h-3zM110 -16q-23 0 -38 16t-15 39t15 38t38 15t38 -15t15 -38t-15 -39t-38 -16z" />
    <glyph glyph-name="at" unicode="@" horiz-adv-x="619" 
d="M490 -47l-2 -1q-17 -20 -36 -38q-22 -20 -49 -36q-29 -16 -63 -27q-36 -11 -78 -11q-46 0 -91 20q-43 20 -78 60t-54 102q-20 63 -20 146q0 98 31 181q32 85 82 147q51 62 116 99q64 36 132 36q106 0 161 -70q56 -71 56 -199q0 -40 -6 -84q-6 -41 -20 -84
q-12 -37 -35 -76q-21 -36 -53 -62t-73 -39q-42 -13 -94 -9l14 82q-6 -8 -15.5 -21t-13.5 -18q-13 -18 -22 -27q-11 -10 -21 -15q-9 -4 -22 -4q-43 0 -66 41q-22 40 -22 108q0 67 21 124q21 56 53 99t69 65q38 23 72 23q13 0 22 -6q6 -4 16 -12l15 -12q8 -6 18 -6q27 0 45 25
h2l-52 -299q-12 -69 -16 -105q-3 -30 23 -19q28 12 52 36q25 25 41 62q17 37 27 90q10 50 10 122q0 60 -14 113q-14 51 -39 87q-26 37 -60 56q-35 20 -77 20q-68 0 -127 -30q-60 -31 -101 -85q-42 -56 -66 -135t-24 -177q0 -87 16 -150t44 -108q27 -43 65 -66q37 -22 81 -22
q42 0 80 11q36 11 63 27q28 17 47 36q18 18 33 38zM239 87l-1 -1q0 -70 21 -70q11 0 26 18q18 21 44 60l51 297q6 32 3 50t-20 18q-19 0 -42 -33q-22 -32 -40 -85q-18 -52 -30 -119q-12 -66 -12 -135z" />
    <glyph glyph-name="A" unicode="A" horiz-adv-x="322" 
d="M-8 1h-5q8 5 14 12q5 6 10 21q5 14 9 36q1 5 10 59l76 503l-9 51q-6 41 -16 52q-11 12 -21 15v1h111q6 0 8 -1q3 -1 4 -7l103 -615q4 -32 9 -54q4 -21 9 -37t10 -24q6 -9 14 -12v-1h-140v1q13 5 17 19q4 15 -3 61l-25 144h-126l-14 -96q-7 -41 -8 -59q-2 -24 1 -36
q3 -14 10 -21q8 -7 21 -12v-1h-69v1zM174 229l-67 388l-58 -388h125z" />
    <glyph glyph-name="B" unicode="B" horiz-adv-x="392" 
d="M13 2l1 5q10 3 17 8q6 4 9 20q2 12 4 45q1 20 1 83v430q0 63 -1 83q-2 33 -4 45q-3 16 -9 20q-7 5 -17 8v2h159q42 0 75 -9q34 -9 57 -28q24 -20 36 -52q12 -33 12 -81q0 -69 -42 -116t-120 -54v-1q50 -5 86 -21q36 -17 60 -42q24 -26 36 -58q12 -33 12 -71
q0 -59 -16 -98q-16 -40 -46 -67q-29 -26 -70 -40q-39 -13 -87 -13h-153v2zM146 751v-334h25q52 0 73 40t21 124q0 92 -21 131t-72 39h-26zM146 413l-1 -405h16q35 0 56 10q24 11 38 34t22 64q7 38 7 100q0 50 -4 82q-5 37 -18 62q-14 26 -36 39q-23 14 -59 14h-21z" />
    <glyph glyph-name="C" unicode="C" horiz-adv-x="332" 
d="M226 -7l-4 -5q-34 0 -73 17q-37 17 -66 60q-29 44 -47 119t-18 194q0 108 17 182q16 70 44 115q27 43 60 60q34 17 65 17q14 0 23 -3q12 -4 17 -7t15 -7q7 -3 15 -3q11 0 19 7t13 21h3v-156h-3q-11 49 -22 75q-13 30 -25 45q-13 16 -27 22t-25 6q-19 0 -34 -18
q-14 -17 -25 -60q-10 -39 -16 -111q-6 -69 -6 -171q0 -114 9 -189t24 -120t36 -63t47 -18q25 0 45 14q21 14 35 33l3 -3q-13 -19 -38 -36t-61 -17z" />
    <glyph glyph-name="D" unicode="D" horiz-adv-x="418" 
d="M13 2l-1 4q10 3 17 8q6 4 9 20q2 12 4 45q1 20 1 83v430q0 63 -1 83q-2 33 -4 45q-3 16 -9 20q-7 5 -17 8v2h143q53 0 98 -21t78 -66t51 -114t18 -164q0 -184 -61 -284q-62 -101 -183 -101h-143v2zM144 750l-1 -746h11q33 0 59 20t44 65t27 119t9 180q0 113 -13 181
q-14 72 -34 111q-21 40 -45 55t-46 15h-11z" />
    <glyph glyph-name="E" unicode="E" horiz-adv-x="337" 
d="M13 2l-2 5q10 3 17 8q6 4 9 20q2 12 4 45q1 20 1 83v430q0 63 -1 83q-2 33 -4 45q-3 16 -9 20q-7 5 -17 8v2h269q4 0 8 -2t5 -12l16 -89h-3q-17 59 -54 80q-38 21 -93 21h-16v-333h12q26 0 40 7q15 7 24 18q8 10 13 24q6 18 8 27h1v-159h-1q-4 18 -7 27q-5 14 -13 24
q-9 10 -24 18q-14 7 -40 7h-12v-405h26q34 0 59 3t45 15t33 34q14 24 23 60h4l-12 -106q-2 -8 -4 -9t-6 -1h-299v2z" />
    <glyph glyph-name="F" unicode="F" horiz-adv-x="313" 
d="M13 2l-1 4q10 3 17 8q6 4 9 20q2 12 4 45q1 20 1 83v430q0 63 -1 83q-2 33 -4 45q-3 16 -9 20q-7 5 -17 8v2h274q4 0 8 -2t5 -12l13 -92h-3q-17 58 -51 81q-34 22 -96 22h-16v-322h11q31 0 48 7q18 8 27 18q8 10 13 24q3 9 7 27h2v-159h-2q-4 18 -7 27q-5 14 -13 24
q-9 11 -27 18q-17 7 -48 7h-11v-260q0 -63 1 -83q2 -33 4 -45q3 -16 9 -20q7 -5 17 -8v-2h-164v2z" />
    <glyph glyph-name="G" unicode="G" horiz-adv-x="391" 
d="M225 -8l-2 2q-100 0 -153 98q-52 97 -52 291q0 97 17 170q17 71 45 116q29 45 65 68q35 22 75 22q16 0 29 -5q14 -5 21 -10q6 -4 18 -10q10 -5 19 -5q7 0 12 6q4 6 9 20h2v-157h-2q-8 47 -19 74q-12 30 -27 48q-16 19 -31 26q-18 8 -33 8q-23 0 -41 -19t-30 -63t-18 -112
q-6 -69 -6 -168q0 -206 27 -300t74 -94q14 0 21 6t12 21q4 15 6 41q2 34 2 63v43q0 63 -1 83q-2 33 -4 45q-3 16 -10 20q-9 5 -18 8v2h157v-2q-10 -3 -17 -8q-6 -4 -9 -20q-2 -12 -4 -45q-1 -20 -1 -82v-113q-8 -12 -21 -24q-13 -11 -31 -22q-16 -10 -39 -16q-21 -6 -42 -6z
" />
    <glyph glyph-name="H" unicode="H" horiz-adv-x="441" 
d="M13 2q10 3 17 8q6 4 9 20q2 12 4 45q1 20 1 83v430q0 63 -1 83q-2 33 -4 45q-3 16 -9 20q-7 5 -17 8v2h163v-2q-10 -3 -17 -8q-6 -4 -9 -20q-2 -12 -4 -45q-1 -20 -1 -83v-177h153v177q0 63 -1 83q-2 33 -4 45q-3 16 -9 20q-7 5 -17 8v2h163v-2q-10 -3 -17 -8
q-6 -4 -9 -20q-2 -12 -4 -45q-1 -20 -1 -83v-430q0 -63 1 -83q2 -33 4 -45q3 -16 9 -20q7 -5 17 -8v-2h-163v2q10 3 17 8q6 4 9 20q2 12 4 45q1 20 1 83v249h-153v-249q0 -63 1 -83q2 -33 4 -45q3 -16 9 -20q7 -5 17 -8v-2h-163v2z" />
    <glyph glyph-name="I" unicode="I" horiz-adv-x="189" 
d="M13 2q10 3 17 8q6 4 9 20q2 12 4 45q1 20 1 83v430q0 63 -1 83q-2 33 -4 45q-3 16 -9 20q-7 5 -17 8v2h163v-2q-10 -3 -17 -8q-6 -4 -9 -20q-2 -12 -4 -45q-1 -20 -1 -83v-430q0 -63 1 -83q2 -33 4 -45q3 -16 9 -20q7 -5 17 -8v-2h-163v2z" />
    <glyph glyph-name="J" unicode="J" horiz-adv-x="285" 
d="M115 -10h-2q-64 0 -90 17t-26 42q0 19 12 30q13 11 28 11q35 0 47 -47q8 -29 15 -39t18 -10q9 0 18 15t9 56v525q0 63 -1 83q-2 33 -4 45q-3 16 -9 20q-7 5 -17 8v2h163v-2q-10 -3 -17 -8q-6 -4 -9 -20q-2 -12 -4 -45q-1 -20 -1 -83v-448q0 -38 -12 -67t-30 -48
q-17 -18 -41 -28q-23 -9 -47 -9z" />
    <glyph glyph-name="K" unicode="K" horiz-adv-x="397" 
d="M249 2l-5 -1q10 6 14 9q6 5 9 13q3 9 0 23q-4 18 -10 36l-114 311l163 268q13 22 18 38q4 15 3 25q-2 11 -7 15q-8 6 -13 8v2h73v-2q-10 -6 -14 -9q-6 -4 -13 -13q-7 -8 -16 -22q-4 -6 -22 -36l-102 -168l151 -421q5 -13 14 -34q8 -18 10 -22q4 -8 9 -13q3 -3 9 -7v-2
h-157v2zM8 1q10 3 17 8q6 4 9 20q2 12 4 45q1 20 1 83v430q0 63 -1 83q-2 33 -4 45q-3 16 -9 20q-7 5 -17 8v2h163v-2q-10 -3 -17 -8q-6 -4 -9 -20q-2 -12 -4 -45q-1 -20 -1 -83v-430q0 -63 1 -83q2 -33 4 -45q3 -16 9 -20q7 -5 17 -8v-2h-163v2z" />
    <glyph glyph-name="L" unicode="L" horiz-adv-x="330" 
d="M13 2l-1 2q10 3 17 8q6 4 9 20q2 12 4 45q1 20 1 83v430q0 63 -1 83q-2 33 -4 45q-3 16 -9 20q-7 5 -17 8v2h164v-2q-10 -3 -17 -8q-6 -4 -9 -20q-2 -12 -4 -45q-1 -20 -1 -83v-586h21q29 0 57 5q25 5 45 18q20 14 35 39q15 26 27 66h2l-19 -122q-1 -7 -5 -9q-2 -1 -6 -1
h-289v2z" />
    <glyph glyph-name="M" unicode="M" horiz-adv-x="463" 
d="M13 2h3q10 4 17 11q6 6 9 21q2 12 4 45q1 20 1 81v430q0 63 -1 83q-2 33 -4 45q-3 16 -9 20q-7 5 -17 8v2h120q6 0 9 -3q4 -4 5 -13l83 -480l88 496h131v-2q-10 -3 -17 -8q-6 -4 -9 -20q-2 -12 -4 -45q-1 -20 -1 -83v-430q0 -63 1 -83q2 -33 4 -45q3 -16 9 -20
q7 -5 17 -8v-2h-165v2q10 3 17 8q6 4 9 20q2 12 4 45q1 20 1 83v545l-125 -708h-6l-136 716v-553q0 -61 1 -81q2 -33 4 -45q3 -15 9 -21q7 -7 17 -11v-2h-69v2z" />
    <glyph glyph-name="N" unicode="N" horiz-adv-x="377" 
d="M13 2l1 3q10 5 17 11q6 6 9 21q2 12 4 45q1 20 1 81v430q0 63 -1 83q-2 33 -4 45q-3 16 -9 20q-7 5 -17 8v2h112q14 0 18 -4q4 -5 9 -18l178 -482v343q0 61 -1 81q-2 33 -4 45q-3 15 -9 21q-6 7 -17 11v2h69v-2q-10 -4 -17 -11q-6 -6 -9 -21q-2 -12 -4 -45q-1 -20 -1 -81
v-593h-14l-273 728v-565q0 -61 1 -81q2 -33 4 -45q3 -15 9 -21q7 -7 17 -11v-2h-69v2z" />
    <glyph glyph-name="O" unicode="O" horiz-adv-x="414" 
d="M207 -8l1 -2q-34 0 -69 24t-60 72t-42 120q-16 70 -16 168q0 101 16 171q17 73 42 119t59 69t69 23q37 0 69 -22q33 -22 60 -69q26 -45 43 -118q16 -70 16 -171q0 -98 -16 -168q-17 -74 -43 -120q-27 -48 -60 -72t-69 -24zM208 -5l-1 -2q46 0 64 98q17 95 19 282
q2 185 -18 281t-63 96t-63 -96q-19 -94 -19 -280q0 -184 18 -282q18 -97 63 -97z" />
    <glyph glyph-name="P" unicode="P" horiz-adv-x="370" 
d="M13 2l2 3q10 3 17 8q6 4 9 20q2 12 4 45q1 20 1 83v430q0 63 -1 83q-2 33 -4 45q-3 16 -9 20q-7 5 -17 8v2h154q42 0 78 -9q37 -9 62 -31t40 -58t15 -93q0 -56 -15 -96t-42 -67t-63 -39t-79 -12h-19v-186q0 -63 1 -83q2 -33 4 -45q3 -16 9 -20q7 -5 17 -8v-2h-164v2z
M147 748v-398h16q18 0 36 9q19 9 33 31q15 23 24 61q9 39 9 99q0 62 -9 101q-9 38 -23 60t-31 29q-19 8 -34 8h-21z" />
    <glyph glyph-name="Q" unicode="Q" horiz-adv-x="414" 
d="M417 -151v1q-4 -6 -17 -12q-12 -6 -35 -6q-18 0 -36 5q-15 4 -31 17q-15 12 -27 35q-12 22 -21 59q-3 10 -7 28q-4 20 -5 24q-12 -4 -30 -4q-40 0 -75 27q-34 27 -60 77q-25 50 -39 120q-13 68 -13 156q0 99 15 171q15 71 41 119q25 46 59 69t71 23q38 0 72 -22
q35 -22 60 -69q26 -48 41 -118q15 -72 15 -171q0 -134 -27 -219t-72 -127q14 -24 28 -66q10 -30 15 -52q6 -22 12 -40q6 -16 15 -25t21 -9q9 0 16 3t12 8zM208 753v-6q-23 0 -38 -26q-14 -24 -25 -74q-11 -48 -15 -117q-4 -61 -4 -157q0 -158 8 -254q7 -89 41 -115
q-5 5 -10 15q-4 8 -4 20q0 23 12 36q12 14 39 14q32 0 57 -24q11 44 15 118q5 83 5 192q0 96 -4 159q-5 75 -13 119q-9 50 -25 74q-17 26 -39 26zM166 35h-1q0 -16 11 -29q10 -12 32 -12q17 0 27 7q-11 41 -18 57q-8 17 -21 17q-12 0 -21 -10q-9 -11 -9 -30z" />
    <glyph glyph-name="R" unicode="R" horiz-adv-x="383" 
d="M13 2h5q10 3 17 8q6 4 9 20q2 12 4 45q1 20 1 83v430q0 63 -1 83q-2 33 -4 45q-3 16 -9 20q-7 5 -17 8v2h152q44 0 78 -7q37 -8 62 -28q27 -22 41 -55q15 -35 15 -88q0 -47 -13 -80q-14 -35 -36 -59q-23 -24 -54 -39q-32 -15 -67 -18q24 -1 45 -11q20 -9 35 -30
q16 -22 26 -56t18 -89q6 -48 14 -97q6 -35 12 -55q6 -19 12 -25t15 -6q12 0 17 4q8 6 11 9l3 -2q-6 -8 -22 -15q-18 -8 -46 -8t-45 7q-18 8 -30 27q-11 18 -19 54q-8 35 -15 90q-2 18 -5.5 43.5t-5.5 42t-3 28.5q-5 41 -12 60t-18 24q-9 4 -30 4h-7v-213q0 -63 1 -83
q2 -33 4 -45q3 -16 9 -20q7 -5 17 -8v-2h-164v2zM150 746v-371h20q30 0 50 14t32 39q13 27 17 61q5 40 5 81q0 55 -7 87q-7 35 -21 54t-33 27q-21 8 -45 8h-18z" />
    <glyph glyph-name="S" unicode="S" horiz-adv-x="316" 
d="M143 -7l-2 -4q-25 0 -46 8t-33 16q-14 9 -22 16q-10 8 -15 8q-7 0 -12 -21h-2v184h3q12 -111 43 -158q31 -48 82 -48q42 0 64 28t22 82q0 32 -9 63t-24 63t-36 66q-6 10 -43 74q-21 36 -39 66q-19 31 -30 58q-11 25 -19 57q-7 27 -7 63q0 66 39 105t101 39q21 0 33 -4
q13 -4 24 -9q12 -5 17 -9t11 -4q7 0 10 9q4 11 5 20h3v-142h-3q-8 43 -16 66q-9 26 -21 41t-27 21t-33 6q-36 0 -52 -22t-16 -57q0 -27 9 -54q9 -28 24 -56q19 -35 34 -59q7 -11 40 -65q25 -42 41 -71q20 -37 32 -66q13 -33 21 -66q8 -35 8 -69q0 -46 -13 -78
q-13 -33 -36 -54q-23 -22 -51 -32q-30 -11 -59 -11z" />
    <glyph glyph-name="T" unicode="T" horiz-adv-x="377" 
d="M107 2h8q10 3 17 8q6 4 9 20q2 12 4 45q1 20 1 83v586h-9q-33 0 -51 -7q-20 -8 -33 -22q-12 -14 -22 -38q-6 -14 -19 -56h-2l10 112q2 11 3 12q2 2 6 2h329q4 0 6 -2q2 -1 3 -12l11 -112h-2q-10 31 -21 54q-11 24 -24 38q-14 16 -33 23q-21 8 -51 8h-7v-586q0 -63 1 -83
q2 -33 4 -45q3 -16 9 -20q7 -5 17 -8v-2h-164v2z" />
    <glyph glyph-name="U" unicode="U" horiz-adv-x="363" 
d="M199 -10l-5 1q-76 0 -118 39t-42 125v436q0 63 -1 83q-2 33 -4 45q-3 16 -9 20q-7 5 -17 8v2h163v-2q-10 -3 -17 -8q-6 -4 -9 -20q-2 -12 -4 -45q-1 -20 -1 -83v-441q0 -71 17 -111q16 -39 63 -39q43 0 72 39q29 40 29 116v434q0 61 -1 81q-2 33 -4 45q-3 15 -9 21
t-17 11v2h70v-2q-10 -5 -17 -11q-6 -6 -9 -21q-2 -12 -4 -45q-1 -20 -1 -81v-434q0 -80 -32 -123q-32 -42 -93 -42z" />
    <glyph glyph-name="V" unicode="V" horiz-adv-x="340" 
d="M40 623l-4 -3q-2 9 -5.5 25.5t-4.5 23.5q-4 21 -9 36q-4 14 -11 24q-6 9 -17 17v2h157v-2q-20 -6 -23 -24q-3 -16 5 -55l92 -447l74 402q4 22 6 42t0 35t-9 27q-8 13 -24 20v2h80v-2q-9 -4 -15 -9q-5 -4 -10 -17q-4 -11 -9 -35q-7 -35 -12 -61l-116 -628h-11z" />
    <glyph glyph-name="W" unicode="W" horiz-adv-x="530" 
d="M42 623l-16 39q-5 24 -10 35q-5 13 -12 25q-6 11 -16 18v2h151v-2q-22 -7 -22 -24q0 -14 8 -54l112 -480l39 172l-59 262q-8 31 -12 49q-5 21 -9 36t-12 24q-9 11 -19 17v2h148v-2q-19 -6 -18 -24q1 -17 9 -55l35 -167l23 122l7 42q3 20 3 36t-6 28t-20 20v2h78v-2
q-10 -4 -18 -9q-6 -4 -13 -17q-6 -11 -12 -35q-5 -17 -13 -61l-26 -134l61 -296l79 429l7 42q3 17 1 36q-1 16 -9 28q-8 13 -25 20v2h82v-2q-8 -5 -13 -10q-6 -6 -12 -18q-6 -11 -12 -35q-5 -17 -13 -61l-115 -627h-11l-80 354l-80 -354h-11z" />
    <glyph glyph-name="X" unicode="X" horiz-adv-x="333" 
d="M-1 2l-2 -1q15 10 21 16q9 9 14 18q6 11 12 28q6 18 15 48l66 226l-77 302q-9 39 -13 51q-6 18 -12 31q-6 11 -14 18q-6 5 -20 10v2h168v-2q-13 -3 -19 -9t-6 -18q0 -14 4 -31q4 -19 12 -48l48 -192l52 191q6 21 10 44q3 16 1 30q-2 12 -11 20t-25 12v2h93v-2
q-20 -9 -26 -13q-9 -6 -15 -17q-7 -12 -11 -29l-12 -48l-53 -195l80 -323q7 -29 12 -48q4 -17 11 -33q6 -13 15 -22q8 -8 23 -18v-2h-166v2q14 5 20 12t6 20q0 15 -4 32q-6 26 -12 50l-54 212l-65 -222q-15 -50 -9 -72q6 -23 38 -32v-2h-95v2z" />
    <glyph glyph-name="Y" unicode="Y" horiz-adv-x="329" 
d="M92 2h-1q10 3 17 8q6 4 9 20q2 12 4 45q1 20 1 83v237l-75 231q-5 17 -14 44q-7 20 -12 32q-7 15 -13 24q-8 12 -18 20v2h153v-2q-21 -7 -18 -25q2 -13 14 -52l80 -259l54 212q11 42 14 54q5 21 3 35q-2 13 -9 21q-8 8 -26 14v2h81v-2q-9 -4 -16 -11q-6 -6 -12 -18
q-6 -11 -12 -35q-1 -4 -4 -15.5t-6 -22.5l-6 -22l-56 -218v-246q0 -63 1 -83q2 -33 4 -45q3 -16 9 -20q7 -5 17 -8v-2h-163v2z" />
    <glyph glyph-name="Z" unicode="Z" horiz-adv-x="321" 
d="M199 747h-15q-35 0 -58 -10q-25 -11 -42 -28q-18 -18 -33 -42q-14 -22 -28 -52h-2l24 134h254l-192 -747h19q47 0 76 10q31 11 51 31t34 51t27 70h2l-19 -164h-289z" />
    <glyph glyph-name="bracketleft" unicode="[" horiz-adv-x="161" 
d="M154 793v-4h-54v-891h54v-4h-114v899h114z" />
    <glyph glyph-name="backslash" unicode="\" horiz-adv-x="222" 
d="M244 -170h-9l-237 965h9z" />
    <glyph glyph-name="bracketright" unicode="]" horiz-adv-x="161" 
d="M121 -106h-114v4h54v891h-54v4h114v-899z" />
    <glyph glyph-name="asciicircum" unicode="^" horiz-adv-x="245" 
d="M122 756h2l104 -236l-3 -1l-102 232l-102 -232l-3 1z" />
    <glyph glyph-name="underscore" unicode="_" horiz-adv-x="267" 
d="M-5 -61h277v-8h-277v8z" />
    <glyph glyph-name="grave" unicode="`" horiz-adv-x="446" 
d="M160 609l-2 1q-13 10 -19 21t-6 24q0 14 9 23t24 9q14 0 23 -10q10 -12 20 -30l60 -124l-3 -1z" />
    <glyph glyph-name="a" unicode="a" horiz-adv-x="319" 
d="M102 -6v-6q-35 0 -59 26q-24 25 -24 77q0 33 15 54t36 36q20 14 44 27q21 11 39 26q16 13 28 28t12 45v74q0 50 -9 65t-34 15q-17 0 -27 -10q-11 -11 -18 -43q-4 -19 -12 -31q-7 -12 -24 -12t-24 9q-8 10 -8 22q0 11 6 23q5 11 20 22q14 11 35 17t53 6q31 0 52 -4
q24 -4 42 -18q17 -13 28 -36q10 -21 10 -59v-218q0 -49 1 -65q2 -26 4 -37q3 -14 7 -18t12 -4q10 0 21 8l1 -2q-8 -6 -18 -11q-12 -6 -41 -6q-36 0 -54 15t-21 38q-9 -10 -24 -25q-9 -9 -21 -16q-10 -6 -21 -9t-27 -3zM108 109l-1 -1q0 -55 10 -79q10 -25 25 -25q4 0 6 1
q3 1 9 6q8 6 14 12l21 21v232q-4 -16 -15 -27t-24 -21q-16 -15 -24 -25q-10 -14 -14 -25q-5 -14 -6 -30q-1 -11 -1 -39z" />
    <glyph glyph-name="b" unicode="b" horiz-adv-x="356" 
d="M171 -4l-4 -3q-20 0 -34 7q-17 8 -27 16q-8 6 -24 16q-11 7 -27 7q-10 0 -16 -6q-5 -5 -7 -13h-2v606q0 34 -1 45q-2 18 -4 24q-3 7 -8 9q-4 1 -14 3v2l117 61v-365q30 36 48 49q16 12 33 12q22 0 46 -12q25 -13 44 -37q19 -25 33 -66q13 -39 13 -99q0 -66 -13 -112
q-14 -49 -36 -80t-53 -48q-29 -16 -64 -16zM128 17l-2 1q5 -9 13 -14q9 -6 27 -6q37 0 54 59q17 60 17 176q0 119 -15 171q-15 53 -37 53q-6 0 -9 -1q-6 -2 -12 -7q-5 -4 -19 -18q-11 -11 -28 -31v-311q0 -37 3 -51q3 -12 8 -21z" />
    <glyph glyph-name="c" unicode="c" horiz-adv-x="281" 
d="M184 -4l-3 -2q-32 0 -63 14t-53 42q-23 29 -36 73q-13 43 -13 107q0 62 15 105q15 42 38 72q22 28 50 42t51 14q20 0 36 -4q19 -5 32 -12q14 -8 23 -20t9 -27q0 -14 -9 -24t-23 -10q-16 0 -27 11t-12 36q-3 24 -8 36q-5 11 -20 11q-16 0 -28 -17q-11 -15 -19 -45
q-7 -26 -10 -69q-3 -41 -3 -85q0 -118 21 -179q21 -62 66 -62q23 0 43 14q18 13 30 26l3 -3l-12 -12q-8 -8 -18 -15t-26 -12q-17 -5 -34 -5z" />
    <glyph glyph-name="d" unicode="d" horiz-adv-x="364" 
d="M150 -6l-1 -2q-25 0 -49 12t-42 41q-19 30 -29 72q-11 46 -11 107q0 66 15 112q15 45 38 75q22 28 50 42q26 13 53 13q32 0 63 -33v187q0 36 -1 47q-2 18 -4 24q-3 7 -9 9q-8 2 -16 2v2l120 66v-673v-49q0 -18 3 -27q3 -8 9 -13t16 -6v-2h-117v63q-30 -39 -48 -54
t-40 -15zM113 234l-1 -2q0 -57 5 -105q5 -44 12 -71q7 -26 18 -40q10 -13 21 -13q2 0 8 2q3 1 12 8q5 4 19 18q10 10 28 33v361q-19 19 -31 26q-15 9 -31 9q-13 0 -24 -12q-10 -11 -19 -39q-8 -25 -13 -70q-4 -39 -4 -105z" />
    <glyph glyph-name="e" unicode="e" 
d="M189 -4l-1 -2q-76 0 -124 56t-48 177q0 59 14 106q13 44 35 75q21 30 47 45t48 15q56 0 84 -42q29 -43 35 -106h-169q-1 -9 -1 -30v-34q0 -123 20 -188q19 -63 68 -63q27 0 45 12t27 21l3 -3q-7 -7 -29 -24q-19 -15 -54 -15zM161 462v-1q-7 0 -15 -6q-8 -7 -14 -21
q-6 -15 -12 -42t-9 -70h93q0 72 -12 106t-31 34z" />
    <glyph glyph-name="f" unicode="f" horiz-adv-x="178" 
d="M16 2v-6q10 2 14 6t7 14q3 9 3 27v49v358h-42v3q25 1 33 11t8 34v72q0 52 15 87t36 56t44 30t41 9q32 0 56 -12t24 -36q0 -11 -8 -21q-7 -9 -23 -9q-18 0 -27 9t-12 26q-1 6 -2.5 14.5t-2.5 12.5t-1 7q-1 9 -9 9q-7 0 -13 -6t-12 -21t-9 -40t-3 -63v-163h66v-4h-66v-358
v-49q0 -18 3 -27q3 -8 9 -13q6 -4 18 -6v-2h-147v2z" />
    <glyph glyph-name="g" unicode="g" horiz-adv-x="308" 
d="M151 154v-8q-32 0 -63 16l-2 -1q-18 -11 -23 -19q-6 -9 -6 -16q0 -3 2 -9q1 -4 8 -9q6 -4 20 -9q21 -7 36 -11l92 -27q59 -17 81 -46q23 -31 23 -66q0 -34 -13 -57t-36 -40t-52 -24q-32 -8 -61 -8q-31 0 -60 6t-51 18t-36 29q-13 16 -13 36q0 16 8 30t21 26q12 10 30 22
l33 21q-36 14 -51 33t-15 45q0 31 19 49q20 18 39 30l3 2q-28 17 -47 49q-20 34 -20 87q0 45 13 74q14 31 33 50q20 20 42 29q23 9 44 9q16 0 34 -6q21 -7 35 -16q26 20 40 27q16 8 29 8q29 0 29 -29q0 -12 -7 -19t-18 -7q-9 0 -14 4l-12 9l-12 9q-5 4 -13 4q-9 0 -19 -5
q26 -20 45 -52t19 -85q0 -44 -13 -73q-14 -30 -33 -48q-19 -17 -43 -25q-22 -7 -45 -7zM47 -84l1 -3q0 -45 26 -69t83 -24q60 0 95 24t35 61q0 27 -21 41t-70 27l-89 26l-12 4q-25 -17 -36 -34q-12 -18 -12 -53zM152 147l-1 -1q9 0 19 8q9 7 16 25q8 18 12 46q4 25 4 71
q0 84 -15 120t-35 36q-19 0 -34 -36t-15 -120q0 -83 15 -116t34 -33z" />
    <glyph glyph-name="h" unicode="h" horiz-adv-x="363" 
d="M13 2l1 -4q10 2 14 6q4 3 7 14q3 9 3 27v49v518q0 36 -1 47q-2 18 -4 24q-3 7 -9 9q-8 2 -15 2v2l117 71v-373q19 21 38 36q16 14 30 21t24 9q14 2 21 2q14 0 27 -4q16 -5 29 -15q14 -11 23 -29t9 -45v-274v-49q0 -15 2 -27q1 -8 6 -13q4 -4 14 -6v-2h-142v2q10 1 16 6
q6 4 9 14q3 9 3 27v49v294q0 34 -8 48t-21 14q-5 0 -9 -1q-7 -2 -15 -7q-11 -7 -23 -18q-15 -14 -33 -34v-295v-49q0 -18 3 -27q3 -8 9 -13t16 -6v-2h-141v2z" />
    <glyph glyph-name="i" unicode="i" horiz-adv-x="164" 
d="M82 535q-22 0 -37 15t-15 36t15 36t37 15q21 0 36 -15t15 -36t-15 -36t-36 -15zM13 2l-2 -1q10 2 14 6q3 3 7 14q3 9 3 27v49v213q0 34 -1 45q-2 18 -4 25q-3 10 -7 11q-6 2 -12 2v2l115 76v-374v-49q0 -18 3 -27q3 -8 9 -13t16 -6v-2h-141v2z" />
    <glyph glyph-name="j" unicode="j" horiz-adv-x="166" 
d="M82 535q-21 0 -36 15t-15 36t15 36t36 15q22 0 37 -15t15 -36t-15 -36t-37 -15zM-29 -130l-1 -1q-19 0 -33 11q-13 10 -13 27q0 14 9 23t23 9q15 0 23 -7t15 -17q8 -12 12 -17q6 -7 14 -7q5 0 10 5q4 4 6 24q1 13 1 74v317q0 34 -1 45q-2 18 -4 25q-3 10 -7 11
q-6 2 -12 2v2l115 76v-407q0 -35 -4 -56t-14 -43q-9 -20 -24 -36q-14 -15 -36 -31q-26 -20 -43 -24q-20 -5 -36 -5z" />
    <glyph glyph-name="k" unicode="k" horiz-adv-x="330" 
d="M13 2l3 -2q10 2 14 6t7 14q3 9 3 27v49v529q0 32 -1 42q-2 16 -4 21q-3 6 -8 8q-3 1 -14 1v2l117 71v-524l122 153q12 17 15 27q3 11 0 17t-12 9q-12 4 -19 5v2h89v-2q-6 -2 -16 -6q-7 -3 -15 -9q-5 -4 -18 -17q-8 -8 -25 -30l-60 -76l113 -268q10 -25 18 -36
q7 -10 15 -13v-3h-141v3q14 4 18 15q5 11 -9 41l-79 184v-145v-49q0 -18 3 -27q3 -8 9 -13t16 -6v-2h-141v2z" />
    <glyph glyph-name="l" unicode="l" horiz-adv-x="164" 
d="M13 2l1 -1q10 2 14 6q4 3 7 14q3 9 3 27v49v529q0 30 -1 40q-2 16 -4 21q-3 7 -9 8q-8 2 -15 2v2l117 71v-673v-49q0 -18 3 -27q3 -8 9 -13t16 -6v-2h-141v2z" />
    <glyph glyph-name="m" unicode="m" horiz-adv-x="538" 
d="M13 2l-3 -5q10 2 14 6q4 3 7 14q3 9 3 27v49v213q0 34 -1 45q-2 18 -4 25q-3 10 -7 11q-6 2 -12 2v2l115 76v-72q21 25 34 36q15 13 27 21q12 7 23 9q14 2 21 2q32 0 54 -18q23 -18 29 -50q21 25 34 36q15 13 27 21q10 6 23 10q11 3 21 3q15 0 28 -4q16 -5 27 -16
q13 -13 20 -30q8 -19 8 -45v-274v-49q0 -18 3 -27q3 -8 9 -13t15 -6v-2h-142v2q10 2 14 6q5 5 8 14t3 27v49v294q0 35 -7 48q-8 14 -18 14q-4 0 -7 -1q-5 -2 -13 -7q-9 -6 -21 -18t-31 -34v-296v-49q0 -18 3 -27q3 -8 9 -13q6 -4 15 -6v-2h-142v2q10 2 14 6q5 5 8 14t3 27
v49v294q0 35 -7 48q-8 14 -18 14q-4 0 -7 -1q-6 -2 -12 -7q-8 -6 -21 -18q-15 -14 -33 -34v-297v-49q0 -18 3 -27q3 -8 9 -13t16 -6v-2h-141v2z" />
    <glyph glyph-name="n" unicode="n" horiz-adv-x="362" 
d="M13 2l-2 -2q10 2 14 6q3 4 7 14q3 9 3 27v49v213q0 34 -1 45q-2 18 -4 25q-3 10 -7 11q-6 2 -12 2v2l115 76v-74q19 21 38 36q16 14 30 21t24 9q14 2 21 2q14 0 27 -4q17 -5 29 -16q13 -11 22 -30q9 -18 9 -45v-274v-49q0 -15 2 -27q1 -8 6 -13q4 -4 14 -6v-2h-142v2
q10 1 16 6q6 4 9 14q3 9 3 27v49v294q0 35 -7 48q-8 14 -21 14q-5 0 -9 -1q-7 -2 -15 -7q-11 -7 -23 -18q-15 -14 -33 -34v-295v-49q0 -18 3 -27q3 -8 9 -13t16 -6v-2h-141v2z" />
    <glyph glyph-name="o" unicode="o" horiz-adv-x="349" 
d="M175 -5v-1q-23 0 -50 12q-26 12 -51 41q-23 27 -40 72q-16 42 -16 105q0 67 16 112q17 48 40 75q24 29 51 42q26 13 50 13t50 -13q27 -13 51 -42t39 -75t15 -112q0 -62 -15 -105t-39 -72q-23 -28 -51 -40q-27 -12 -50 -12zM175 -2h-3q14 0 24 12q11 13 20 39q10 29 14 70
q5 48 5 108q0 65 -5 117q-5 48 -13 73q-9 28 -19 38q-11 11 -24 11q-12 0 -25 -11q-12 -10 -21 -38q-8 -25 -13 -73q-5 -52 -5 -117q0 -60 5 -108q4 -41 14 -70q9 -27 21 -39t25 -12z" />
    <glyph glyph-name="p" unicode="p" horiz-adv-x="359" 
d="M167 -6l-3 -2q-15 0 -24 4t-16 9v-79v-49q0 -18 3 -27q3 -7 8 -13q4 -4 14 -6v-2h-139v2q10 2 14 6q4 3 7 14q3 9 3 27v49v383q0 34 -1 45q-2 18 -4 25q-3 10 -7 11q-6 2 -12 2v2l115 76v-64q4 4 27 31q10 11 20 18q8 6 17 9q7 3 15 3q20 0 41 -10q24 -11 44 -34
q21 -24 36 -66t15 -105q0 -124 -46 -191q-47 -68 -127 -68zM188 456l2 -3q-4 0 -7 -1q-6 -2 -12 -7q-5 -4 -18 -17q-11 -10 -27 -30v-390q6 -4 15 -9q8 -4 23 -4q38 0 59 57t21 181q0 119 -15 171t-41 52z" />
    <glyph glyph-name="q" unicode="q" horiz-adv-x="363" 
d="M216 -168l-3 -2q7 2 12 6q4 4 6 14q2 12 2 27v49v132q-25 -36 -42 -51t-38 -15q-15 0 -36 7q-23 8 -45 31q-22 24 -39 69q-16 44 -16 122q0 62 17 108q16 44 41 75q24 30 53 45q28 15 54 15q20 0 33 -6q15 -7 24 -13q7 -5 21 -13q10 -6 27 -6q28 0 37 28h3v-527v-49
q0 -18 3 -27q3 -8 9 -13t16 -6v-2h-139v2zM111 230h-3q0 -65 5 -115q4 -42 14 -70q9 -25 19 -34t21 -9q13 0 26 12q16 14 41 49v314q0 26 -3 41t-10 25q-15 18 -41 18q-14 0 -28 -11q-13 -10 -22 -37q-10 -29 -14 -72q-5 -50 -5 -111z" />
    <glyph glyph-name="r" unicode="r" horiz-adv-x="264" 
d="M13 2l2 -4q10 2 14 6q3 3 7 14q3 9 3 27v49v223q0 30 -1 40q-2 16 -4 22q-3 8 -7 9q-6 2 -12 2v2l115 76v-84q34 46 54 63t39 17q22 0 32 -13q11 -14 11 -33q0 -17 -10 -27q-11 -11 -27 -11q-14 0 -21 7t-13 16q-4 6 -10 16q-4 7 -12 7q-6 0 -14 -8q-7 -8 -30 -36v-285
v-49q0 -18 3 -27q3 -8 9 -13q6 -4 17 -6v-2h-145v2z" />
    <glyph glyph-name="s" unicode="s" horiz-adv-x="258" 
d="M142 0l-5 -5q27 0 39 20q12 19 12 45q0 31 -21 64q-20 32 -69 82q-19 20 -40 45q-15 17 -25 38q-8 16 -13 36q-4 16 -4 38q0 47 27 74t65 27q14 0 24 -3q14 -4 20 -7t18 -7q9 -3 21 -3q7 0 11 6q5 6 6 13h4v-114h-4q-9 31 -21 54q-11 21 -26 36q-13 13 -27 19t-25 6
q-19 0 -33 -12q-13 -12 -13 -35q0 -13 5 -26t15 -26q13 -17 27 -32q22 -24 40 -42q28 -30 44 -51q20 -26 29 -45q10 -21 15 -41q5 -22 5 -41q0 -29 -9 -51t-24 -37q-14 -14 -33 -22q-17 -7 -36 -7q-20 0 -35 6t-27 12q-8 4 -22 12q-11 6 -19 6q-6 0 -11 -5t-6 -12h-4v142h4
q21 -83 52 -120t69 -37z" />
    <glyph glyph-name="t" unicode="t" horiz-adv-x="203" 
d="M135 -7l-1 4q-41 0 -69 26q-27 25 -27 77v360h-42v4q20 3 39 12t38 26q17 16 31 42q13 24 19 60h5v-143h75v-4h-75v-352q0 -55 7 -77q7 -24 30 -24q14 0 24 5q12 6 17 9l2 -3q-2 -1 -9 -5.5t-13 -7.5q-15 -9 -51 -9z" />
    <glyph glyph-name="u" unicode="u" horiz-adv-x="351" 
d="M128 -7l-5 -3q-13 0 -31 5q-16 4 -30 17q-13 12 -22 31t-9 46v229q0 30 -1 40q-2 16 -4 22q-3 8 -7 9q-6 2 -12 2v2l115 76v-402q0 -36 8 -50t21 -14q7 0 22 9q14 8 48 44v263q0 30 -1 40q-2 16 -4 22q-3 8 -7 9q-6 2 -12 2v2l115 76v-374v-49q0 -15 2 -27q1 -8 6 -13
q4 -5 12 -6v-2h-109v53q-35 -37 -56 -48q-20 -11 -39 -11z" />
    <glyph glyph-name="v" unicode="v" horiz-adv-x="282" 
d="M39 355l-1 1q-10 37 -15 53q-5 15 -11 30q-5 11 -10 14q-8 4 -13 6v2h143v-2q-8 -1 -16 -5q-6 -3 -6 -13q0 -13 4 -30q1 -4 3 -13.5t4.5 -19t4.5 -19.5l53 -210l47 186q10 42 15 66t3 36q-1 12 -10 16q-9 5 -24 6v2h80v-2q-11 -3 -16 -7q-6 -5 -12 -16q-5 -9 -13 -36
q-7 -24 -18 -66l-86 -338h-11z" />
    <glyph glyph-name="w" unicode="w" horiz-adv-x="430" 
d="M40 355l-2 -7q-13 51 -14 54q-4 20 -9 30q-5 11 -9 14q-6 4 -12 5v2h135v-2q-10 -3 -14 -6q-5 -3 -5 -12q0 -8 3 -28q3 -18 12 -52l55 -213l37 133l-19 77q-2 9 -5.5 21.5t-5.5 20.5t-3 14q-2 10 -8 30q-3 10 -7 13q-6 4 -10 5v2h137v-2q-9 -3 -16 -6t-8 -12
q-2 -10 1 -28q2 -11 11 -52l48 -205l42 183q12 48 14 67q3 24 0 36t-12 15q-11 4 -24 5v2h87v-2q-11 -3 -19 -6q-7 -3 -13 -15q-6 -13 -12 -34q-1 -3 -16 -66l-78 -340h-11l-68 273l-76 -273h-11z" />
    <glyph glyph-name="x" unicode="x" horiz-adv-x="287" 
d="M-2 2l-8 -5q9 5 15 9q5 4 13 15q5 7 16 29q14 28 23 49l44 97l-56 153l-21 56q-8 22 -12 29q-5 9 -10 12q-8 4 -13 6v2h148v-2q-8 -1 -16 -5q-6 -3 -6 -12t6 -29t18 -54l27 -76l33 76q16 37 20 54q5 20 3 30q-1 10 -8 13q-8 4 -16 5v2h73v-2q-12 -5 -17 -9q-7 -5 -12 -13
q-7 -11 -14 -27q-3 -6 -10.5 -23.5t-12.5 -28.5l-35 -81l59 -169q17 -48 19 -52q9 -22 13 -30q6 -11 12 -15q5 -4 15 -7v-2h-143v2q10 1 17 5q6 3 6 14q0 10 -6 30t-18 51l-34 92l-43 -92q-13 -28 -18 -47q-5 -18 -3 -29t9 -15t18 -6v-2h-75v2z" />
    <glyph glyph-name="y" unicode="y" 
d="M36 -175l-2 2q-20 0 -30 9t-10 22q0 16 9 23q10 8 24 8q11 0 17 -3l12 -6l11 -5q6 -3 14 -3q12 0 21 18q10 19 24 61l14 49l-104 356q-4 12 -9 30t-7 24q-7 24 -10 30q-5 11 -9 14q-5 3 -12 6v2h145v-2q-10 -1 -16 -6q-6 -4 -6 -15t3 -30t12 -51l57 -207l52 183
q13 47 17 66q5 24 3 36q-1 11 -9 16t-19 6v2h74v-2q-12 -5 -17 -9q-6 -5 -12 -16q-4 -8 -13 -35q-3 -9 -19 -65l-109 -383q-23 -66 -42 -95q-20 -30 -54 -30z" />
    <glyph glyph-name="z" unicode="z" horiz-adv-x="280" 
d="M260 -8l2 -2q-12 4 -36 6q-32 2 -78 2h-141l172 457h-27q-32 0 -52 -7q-21 -8 -36 -21q-15 -14 -24 -31q-9 -18 -18 -39h-3l19 109q17 -5 43 -6q18 -1 71 -1h115l-176 -457h42q37 0 60 9t38 24t24 36q8 19 18 47h3z" />
    <glyph glyph-name="braceleft" unicode="{" horiz-adv-x="192" 
d="M183 -106l-5 -10q-32 0 -57 7q-29 8 -47 22t-31 38q-12 23 -12 54q0 27 11 60q11 34 24 65t24 65q11 33 11 62q0 6 -2 24q-2 14 -10 25q-10 13 -25 20q-18 8 -45 8v4q27 0 45 8q15 7 25 20t11 25q2 18 2 24q0 27 -11 62q-11 33 -24 66t-24 66q-11 35 -11 62q0 31 12 54
t32 38q18 14 47 22q25 7 58 7v-3q-82 0 -82 -98q0 -31 8 -66q5 -22 17 -64t17 -62q8 -32 8 -57q0 -21 -9 -39q-9 -17 -24 -31t-34 -21q-20 -7 -42 -9q44 -4 75 -30q32 -26 32 -69q0 -29 -7 -57q-12 -48 -16 -62q-7 -25 -16 -64q-7 -31 -7 -65q0 -98 82 -98v-3z" />
    <glyph glyph-name="bar" unicode="|" horiz-adv-x="204" 
d="M106 820v-926h-8v926h8z" />
    <glyph glyph-name="braceright" unicode="}" horiz-adv-x="192" 
d="M9 -103l-4 1q82 0 82 98q0 34 -7 65q-10 44 -16 65q-4 14 -16 62q-7 28 -7 57q0 22 9 40q9 17 24 31q15 13 35 21q19 7 42 9q-23 2 -42 9t-34 21t-24 31q-9 18 -9 39q0 25 8 57q5 20 17 62q11 38 17 65q8 35 8 66q0 98 -82 98v3q33 0 58 -7q29 -8 47 -22q21 -16 32 -37
q12 -23 12 -54q0 -26 -11 -61q-10 -33 -24 -66t-24 -66q-11 -35 -11 -61q0 -6 2 -24q1 -13 9 -25q7 -11 24 -19q18 -8 45 -8v-4q-27 0 -45 -8q-17 -8 -24 -19q-8 -12 -9 -25q-2 -18 -2 -24q0 -29 11 -62q11 -34 24 -65t24 -65q11 -33 11 -60q0 -31 -12 -54t-33 -38
q-20 -14 -48 -22q-25 -7 -57 -7v3z" />
    <glyph glyph-name="asciitilde" unicode="~" horiz-adv-x="242" 
d="M93 412h-4q19 0 41 -7t40 -7q11 0 20 6t20 29l3 -1q-14 -51 -28 -69q-15 -19 -29 -19q-15 0 -41 8t-43 8q-8 0 -19 -6t-24 -31l-3 1q16 48 35 68q18 20 32 20z" />
    <glyph glyph-name="uni00A0" unicode="&#xa0;" horiz-adv-x="153" 
 />
    <glyph glyph-name="exclamdown" unicode="&#xa1;" horiz-adv-x="165" 
d="M78 263h3h4q6 -109 15 -192q9 -81 18 -142q8 -52 15 -97q6 -38 6 -57q0 -31 -15 -49t-42 -18q-28 0 -43 18t-15 49q0 19 6 57q7 45 15 97q9 61 18 142q9 83 15 192zM81 475q23 0 38 -16q15 -17 15 -39q0 -23 -15 -38t-38 -15t-38 15t-15 38q0 22 15 39q15 16 38 16z" />
    <glyph glyph-name="cent" unicode="&#xa2;" horiz-adv-x="294" 
d="M194 -4l-4 -1q-11 0 -14 1v-71h-6v71q-33 3 -61 19t-49 45q-21 28 -33 72t-12 100q0 60 15 104q15 42 38 72q23 29 50 44q26 14 53 16v69h6v-69q22 0 39 -4q20 -5 34 -13q15 -9 24 -21t9 -27q0 -13 -9 -24q-9 -10 -24 -10q-34 0 -40 47q-2 26 -9 36q-8 11 -24 11v-459
q14 -2 18 -2q35 0 56 15q22 16 32 27l4 -3q-3 -4 -12 -13q-8 -8 -19 -15q-12 -7 -27 -12q-17 -5 -35 -5zM107 245l-1 -2q0 -104 15 -164q15 -61 48 -74v456q-17 -2 -29 -19q-11 -17 -19 -46q-8 -31 -11 -68q-3 -39 -3 -83z" />
    <glyph glyph-name="sterling" unicode="&#xa3;" 
d="M38 46l-4 -4q14 20 24 36q11 18 17 35q6 18 9 39t3 50q0 38 -9 75h-71v6h70l-6 26q-2 9 -8 27h-56v6h55q-11 34 -31 102q-15 51 -15 107q0 53 15 90q15 38 36 62t47 36t48 12q20 0 39 -6t34 -18t24 -30t9 -42q0 -14 -8 -25q-7 -10 -23 -10q-34 0 -34 38q-2 54 -7 72
q-6 20 -32 20q-31 0 -41 -34q-11 -36 -11 -103q0 -81 10 -145q11 -70 18 -124h84v-6h-83q2 -18 2 -27t2 -25h79v-6h-79v-7q0 -36 -8 -68q-7 -30 -18 -54q-10 -23 -24 -40q-13 -17 -24 -27h112h49q19 0 31 3t18 9q7 7 11 16h2l-20 -80q-5 -20 -9 -26q-5 -6 -15 -6h-246z" />
    <glyph glyph-name="yen" unicode="&#xa5;" horiz-adv-x="322" 
d="M90 2v1q10 3 17 8q6 4 9 20q2 12 4 45q1 20 1 83v197h-87v6h87v55h-87v6h85l-68 204q-5 17 -14 44q-7 20 -12 32q-7 15 -13 24q-8 12 -18 20v2h153v-2q-21 -7 -18 -25q2 -13 14 -52l75 -239l46 192q8 33 12 54q5 21 3 35q-1 14 -9 21q-8 8 -26 14v2h81v-2q-10 -5 -16 -10
q-6 -6 -12 -19q-6 -14 -12 -36t-15 -60l-48 -200h87v-6h-87v-55h87v-6h-87v-197q0 -63 1 -83q2 -33 4 -45q3 -16 9 -20q7 -5 17 -8v-2h-163v2z" />
    <glyph glyph-name="brokenbar" unicode="&#xa6;" horiz-adv-x="204" 
d="M106 820v-380h-8v380h8zM106 -106h-8v380h8v-380z" />
    <glyph glyph-name="section" unicode="&#xa7;" horiz-adv-x="368" 
d="M162 -148v-7q38 0 58 27q19 26 19 74q0 27 -9 51q-10 28 -25 53q-13 23 -41 61q-8 11 -56 75q-5 7 -20 26.5t-22 28.5q-17 23 -30 47q-12 23 -18 46q-6 24 -6 54q0 29 8 53t18 41q11 19 24 32q15 15 27 23q-16 36 -16 86q0 36 12 63q12 28 31 45q19 18 44 27q24 9 50 9
q27 0 48 -7q24 -8 39 -19q17 -13 26 -27q9 -15 9 -30q0 -12 -9 -21t-22 -9q-31 0 -37 35q-2 10 -6 28q-2 11 -8 24q-4 9 -14 16q-9 6 -25 6q-34 0 -55 -24t-21 -66q0 -25 6 -45q6 -18 18 -40q13 -23 31 -45q8 -9 24.5 -30.5t21.5 -28.5q39 -52 54 -73q26 -36 38 -58
q14 -25 22 -54q7 -25 7 -60q0 -41 -22 -79t-54 -70q8 -22 11 -39q3 -19 3 -42q0 -36 -10 -65q-11 -30 -28 -52q-18 -22 -43 -34q-26 -12 -54 -12q-23 0 -49 8q-23 7 -42 23t-29 34q-11 20 -11 42q0 14 9 23t22 9q15 0 24 -10q10 -11 11 -27q2 -10 4.5 -25t3.5 -20
q3 -18 9 -30q6 -11 18 -16q13 -5 32 -5zM178 252l-3 1q10 -14 32 -44.5t31 -43.5q25 -35 39 -71q9 18 14 33q6 18 6 38q0 30 -7 54q-8 28 -22 53q-15 27 -39 60q-34 47 -58 77q-23 29 -46 63q-19 28 -33 57q-10 -11 -18 -27q-7 -15 -7 -48q0 -26 7 -46t21 -43q11 -18 35 -49
q26 -33 48 -64z" />
    <glyph glyph-name="dieresis" unicode="&#xa8;" horiz-adv-x="446" 
d="M288 536v-1q-19 0 -33 14q-13 13 -13 33t13 33t33 13t33 -13t13 -33t-13 -33t-33 -13zM159 535v-1q-19 0 -33 14q-13 13 -13 33t13 33t33 13t33 -13t13 -33t-13 -33t-33 -13z" />
    <glyph glyph-name="copyright" unicode="&#xa9;" horiz-adv-x="447" 
d="M251 156l4 -4q-23 0 -45 9q-24 9 -41 34q-18 25 -30 69t-12 111q0 61 11 105q10 42 27 66q16 23 38 34q20 10 41 10q14 0 21 -6t15 -6q14 0 18 16h2v-92h-2q-7 30 -13 44q-8 18 -15 26q-8 9 -15 12t-15 3q-11 0 -18 -10q-8 -11 -12 -34q-5 -29 -8 -63q-3 -39 -3 -97
q0 -60 5 -107q4 -41 12 -67q8 -25 18 -36q10 -10 24 -10q15 0 27 9q11 8 21 20l2 -2q-8 -13 -21 -23q-14 -11 -36 -11zM393 604v2q1 -1 1 -3q1 0 1 -2q1 -1 1 -3q1 -1 1 -3q1 -1 1 -3l-1 2l-2 6zM54 161l-3 10q1 -1 1 -3q1 -1 1 -3q1 -1 1 -3q1 -1 1 -3zM104 685q0 -2 -1 -2
q0 -1 -1 -1zM40 217q-1 1 -1 4l-1 3q1 -1 1 -3zM66 130v1q1 -1 1 -3q1 -1 1 -3q1 -1 1 -3l-1 3l-1 2zM348 690v1q1 0 1 -1q1 -1 1 -3l2 -2l-2 2zM114 52v-1q-1 0 -1 1q-1 1 -1 3zM379 107q0 1 1 1l-2 -3zM420 512v1q-1 1 -1 3l-1 3q1 -1 1 -3zM295 12q0 -1 -1 -1l-2 -1z
M423 489q1 -1 1 -4zM31 479q0 3 1 4zM424 482q1 -1 1 -4zM25 402q0 3 1 4zM26 344q-1 1 -1 4zM27 308q1 -1 1 -4zM364 668v1q1 0 1 -1q1 -1 1 -3zM34 254q-1 1 -1 4zM406 572q1 -1 1 -3q1 -1 1 -3zM41 539q0 -3 -1 -4zM29 462q0 3 1 4zM28 447q0 -3 -1 -4zM430 342q0 3 1 4z
M426 284q0 3 1 4zM423 259q0 -3 -1 -4zM422 252q0 -3 -1 -4zM419 235q0 -3 -1 -4zM33 261q-1 1 -1 4zM417 225q0 -3 -1 -4zM38 231q-1 1 -1 3l-1 3q1 -1 1 -3zM381 638v1q1 -1 1 -3q1 0 1 -2zM374 653v1q1 -1 1 -3q1 0 1 -2zM75 115v1q1 -1 1 -3q1 -1 1 -3l-1 3zM42 215v-1
q-1 1 -1 3l-1 3q1 -1 1 -3zM45 201v-1q-1 1 -1 3l-1 3q1 -1 1 -3zM48 188v-1q-1 1 -1 3l-1 3q1 -1 1 -3zM39 529v-1q0 -2 -1 -3zM425 475v-1q1 -1 1 -3zM431 404v1q-1 1 -1 3zM28 297v-1q1 -1 1 -3zM29 285v-1q1 -1 1 -3zM32 265v1q-1 1 -1 3zM392 612l-1 1q0 2 -1 3z
M402 582q1 -1 1 -3l1 -2q-1 1 -1 3zM370 656l-1 1q0 2 -1 3zM326 713q-1 0 -1 1zM138 25l2 -2zM326 712q1 0 1 -1zM403 165q0 2 1 3zM399 154q0 -2 -1 -3zM395 143q0 -2 -1 -3zM329 710q-1 0 -1 1zM132 30q1 0 1 -1zM55 586q0 -2 -1 -3zM392 135q0 1 1 1zM52 577q0 -2 -1 -3
zM329 709q1 0 1 -1zM53 580q0 -2 -1 -3zM326 31q0 1 1 1zM387 122q0 2 1 2zM329 34q0 1 1 1zM54 583q0 -2 -1 -3zM386 119q0 2 1 3zM385 117q0 2 1 2zM240 -10q0 1 2 1zM267 748q2 0 2 -1zM110 53q1 0 1 -1zM117 46q-1 0 -1 1zM114 48q1 0 1 -1zM332 707q-1 0 -1 1zM84 651
q0 2 1 3zM332 706q1 0 1 -1zM371 91l2 2zM185 746q0 1 1 1zM369 87q0 1 1 1zM368 85l-2 -2zM355 65l-2 -2zM335 704q-1 0 -1 1zM380 636q1 0 1 -1zM107 58q-1 0 -1 1zM366 83q0 -2 -1 -2zM335 703q1 0 1 -1zM95 75q-1 0 -1 1zM363 76q0 2 1 2zM361 74l2 2zM156 12q1 0 1 -1z
M341 697l-2 2q0 1 -1 1zM386 625q-1 1 -1 3zM359 70q0 2 1 2zM387 623q-1 0 -1 2zM357 68l2 2zM388 620q-1 1 -1 3zM394 140q0 -2 -1 -3zM397 148q0 -2 -1 -3zM291 738q-1 0 -1 1zM398 151q0 -2 -1 -3zM405 171q0 2 1 3zM342 695q1 0 1 -1zM338 701q-1 0 -1 1zM63 138
q-1 0 -1 1zM199 750q0 1 1 1zM112 693l-2 -2zM405 574q-1 1 -1 3zM110 691q0 -1 -1 -1zM406 571q-1 1 -1 3zM379 640q-1 0 -1 2zM114 696q0 -1 -1 -1zM49 566q0 2 1 3zM48 563q0 -2 -1 -3zM72 116q-1 1 -1 3zM47 560q0 -2 -1 -3zM96 73q-1 0 -1 1zM116 698l-2 -2zM50 569
q0 2 1 3zM410 556q-1 1 -1 3zM105 684q0 1 1 1zM99 69q-1 0 -1 1zM411 553q-1 1 -1 3zM288 740q-2 0 -2 1zM347 55q0 -1 -1 -1zM152 729q0 1 1 1zM44 547q0 -2 -1 -3zM45 550q0 2 1 3zM414 540q-1 1 -1 3zM334 40q0 -1 -1 -1zM332 37q0 1 1 1zM411 549q1 -1 1 -3zM331 37
q0 -1 -1 -1zM328 34q0 -1 -1 -1zM356 677q1 0 1 -1zM42 538q0 2 1 3zM335 40q0 1 1 1zM338 44l-2 -2zM135 28q-1 0 -1 1zM414 537q1 -1 1 -3zM135 27q1 0 1 -1zM314 22q0 -1 -1 -1zM309 727q-1 0 -1 1zM96 672l2 2zM319 26q0 -1 -1 -1zM39 525q0 2 1 3zM417 523q1 -1 1 -3z
M416 527q1 -1 1 -3zM92 666l2 2zM306 16q0 -1 -1 -1zM151 15q1 0 1 -1zM36 508q0 -2 -1 -3zM303 14q0 -1 -1 -1zM36 508q0 2 1 3zM421 500q1 -1 1 -3zM300 12q0 -1 -1 -1zM159 10q1 0 1 -1zM33 491q0 2 1 3zM173 3q-2 0 -2 1zM404 168q0 2 1 3zM242 753q-2 0 -2 1zM51 173
q-1 1 -1 3zM32 484q0 2 1 3zM100 678q0 -1 -1 -1zM422 493q1 -1 1 -3zM360 671q1 0 1 -1zM179 0q1 0 1 -1zM184 -2q2 0 2 -1zM198 -6q1 0 1 -1zM180 744q0 1 1 1zM427 452q1 -1 1 -3zM427 461q-1 1 -1 3zM258 -6q0 -1 -1 -1zM29 454q0 -2 -1 -3zM429 439q-1 1 -1 3zM269 -3
q0 -1 -2 -1zM27 427q0 -2 -1 -3zM146 726q0 -1 -1 -1zM429 425q1 -1 1 -3zM370 655q1 0 1 -2zM315 722q-1 0 -1 1zM27 318q-1 1 -1 3zM82 649l2 2zM82 649q0 -1 -1 -1zM154 13q1 0 1 -1zM138 720q0 -1 -1 -1zM79 642q0 2 1 3zM426 276q0 -2 -1 -3zM425 269q0 -2 -1 -3z
M77 640q0 -2 -1 -2zM77 640l2 2zM298 11q0 -1 -1 -1zM169 740q0 -1 -2 -1zM423 255q0 2 1 3zM136 717q0 1 1 1zM76 638q0 -2 -1 -3zM420 237q0 2 1 3zM72 628q0 2 1 3zM164 7q1 0 1 -1zM419 231q0 2 1 3zM69 623q0 -2 -1 -2zM68 621q0 -2 -1 -3zM415 211q0 -2 -1 -3zM43 204
q-1 1 -1 3zM141 721q0 1 1 1zM67 618q0 -2 -1 -2zM412 198q0 -2 -1 -3zM413 201q0 2 1 3zM165 737q0 1 1 1zM46 191q-1 1 -1 3zM409 186q0 2 1 3zM408 183q0 -2 -1 -3zM407 180q0 -2 -1 -3zM410 189q0 2 1 3zM316 721l2 -2zM50 176q-1 1 -1 3zM323 715q1 0 1 -1zM62 140v-1
q-1 1 -1 3zM42 537v1q0 -2 -1 -3zM59 597v1q0 -2 -1 -3zM402 163v-1q0 2 1 3zM401 159v-1q0 2 1 3zM400 155v-1q0 2 1 3zM264 747h-1q2 0 3 -1zM56 590v1q0 -2 -1 -3zM395 144v1q0 -2 -1 -3zM139 23h-1q2 0 3 -1zM297 733h-1q2 0 3 -1zM388 132v-1q0 2 1 3zM386 126v-1
q0 2 1 3zM385 122v-1q0 2 1 3zM412 529v1q1 -1 1 -3zM200 749h-1q1 1 3 1zM150 729h-1q1 1 3 1zM379 114v1q0 -2 -1 -3zM375 106v-1q0 2 1 3zM372 100v1q0 -2 -1 -3zM371 99v1q0 -2 -1 -3zM407 545v1q1 -1 1 -3zM345 60v1q0 -2 -1 -3zM297 733h-1q2 0 3 -1zM373 641v1
q1 -1 1 -3zM402 564v1q1 -1 1 -3zM358 82v-1q0 2 1 3zM393 593v1q1 -1 1 -3zM291 738h-1q2 0 3 -1zM84 84v1q1 -1 1 -3zM73 105v-1q-1 1 -1 3zM75 100v-1q-1 1 -1 3zM136 726h-1q1 1 3 1zM77 94v-1q-1 1 -1 3zM49 156v-1q-1 1 -1 3zM50 152v-1q-1 1 -1 3zM384 609v1
q1 -1 1 -3zM56 136v-1q-1 1 -1 3zM286 736h-1q2 0 3 -1zM389 593v1q1 -1 1 -3zM52 144v-1q-1 1 -1 3zM314 716h1q-2 0 -3 1zM266 -2h-1q1 1 3 1zM56 132v-1q-1 1 -1 3zM391 586v1q1 -1 1 -3zM66 110v-1q-1 1 -1 3zM392 583v1q1 -1 1 -3zM50 148v-1q-1 1 -1 3zM182 747h-1
q1 1 3 1zM77 86v1q1 -1 1 -3zM39 566v1q0 -2 -1 -3zM149 735h-1q1 1 3 1zM378 618v1q1 -1 1 -3zM45 159v-1q-1 1 -1 3zM145 733h-1q1 1 3 1zM33 551v1q0 -2 -1 -3zM312 32h-1q1 1 3 1zM360 95v-1q0 2 1 3zM268 744h1q-2 0 -3 1zM277 6h-1q1 1 3 1zM132 21h1q-2 0 -3 1z
M245 752h-1q2 0 3 -1zM25 519v1q0 -2 -1 -3zM43 591v1q0 -2 -1 -3zM22 504v1q0 -2 -1 -3zM180 -1h1q-2 0 -3 1zM403 215v-1q0 2 1 3zM274 7h1q-1 -1 -3 -1zM78 663v-1q0 2 1 3zM51 607v1q0 -2 -1 -3zM49 603v1q0 -2 -1 -3zM38 184v-1q-1 1 -1 3zM59 627v-1q0 2 1 3zM307 721
h-1q2 0 3 -1zM19 475v1q0 -2 -1 -3zM396 186v-1q0 2 1 3zM53 615v1q0 -2 -1 -3zM136 730h1q-1 -1 -3 -1zM165 746h1q-1 -1 -3 -1zM407 224v-1q0 2 1 3zM419 320v-1q0 2 1 3zM418 304v-1q0 2 1 3zM417 291v-1q0 2 1 3zM410 505v1q1 -1 1 -3zM26 238v-1q-1 1 -1 3zM21 272v-1
q-1 1 -1 3zM266 743h1q-2 0 -3 1zM26 243v-1q-1 1 -1 3zM165 -1h-1q2 0 3 -1zM56 613v1q0 -2 -1 -3zM402 196v-1q0 2 1 3zM256 -7l-3 -1q2 0 3 1zM52 605v1q0 -2 -1 -3zM277 2q0 1 1 1zM157 3l1 -1zM206 751h-1q1 1 3 1zM51 606v-1q0 2 1 3zM134 16l-1 1zM297 14q0 1 1 1z
M294 13h1h-1zM82 665v-1q0 2 1 3zM171 741q0 1 1 1zM78 658v-1q0 2 1 3zM371 109l-1 -2zM379 127v1q0 -2 -1 -3zM149 5v-1l-1 1h1zM357 83v1q0 -2 -1 -3zM74 653v1q0 -2 -1 -3zM46 592v1q0 -2 -1 -3zM149 734l2 1zM249 749l1 -1zM277 738l-1 1zM363 97v1q0 -2 -1 -3zM336 55
v-1q0 2 1 3zM377 617l-1 2zM284 734l1 -1zM330 695q-1 0 -1 1zM250 -6q0 -1 -1 -1zM62 111l-1 2zM100 692l1 1zM61 113v-1q-1 1 -1 3zM94 683v-1q0 2 1 3zM74 86l-1 2zM358 85v1v-1zM207 -13l-2 1zM78 79l1 -2zM362 646l-1 2zM87 64v2v-1v-1zM344 675v-1l-1 1h1zM97 52l1 -2
zM271 739h1q-2 0 -3 1zM84 667v-1q0 2 1 3zM49 596v-1q0 2 1 3zM267 739h1q-2 0 -3 1zM164 737l-2 -1zM302 719l1 -1zM138 722l2 1zM305 17q0 1 1 1zM130 716h1l-2 -1zM298 723h-2h1h1zM64 628v-1q0 2 1 3zM161 734q0 1 1 1zM64 627v1q0 -2 -1 -3zM269 -4q0 -1 -1 -1z
M71 642v1q0 -2 -1 -3zM61 622l1 2zM82 662l-1 -2zM237 -13h-1q2 0 3 1zM168 -4l-1 1zM155 2l2 -1zM92 58q1 0 1 -1l2 -2l-2 2zM92 58l-1 2zM88 672l-1 -1l1 2v-1zM330 43l1 2zM335 50v1q0 -2 -1 -3zM184 746q0 1 1 1zM371 109v1q0 -2 -1 -3zM243 -10q0 1 1 1zM55 127l-1 2z
M281 735h-1q2 0 3 -1zM69 96l-1 2zM343 676v2v-2zM272 1q0 -1 -1 -1zM348 70v-1q0 2 1 3zM75 655v1q0 -2 -1 -3zM343 63l1 2zM155 737q0 -1 -1 -1zM172 -4l-1 1zM243 749l-1 1zM184 -8l-1 1zM264 -3l2 1zM166 741q0 1 1 1zM178 -6h1q-2 0 -3 1zM349 670v-1l-1 1h1zM290 730
l1 -1zM342 61v1q0 -2 -1 -3zM194 -9l-2 1zM76 86l-1 2zM49 144l-1 2zM147 732q0 1 1 1zM79 81v-1q-1 1 -1 3zM302 19q0 -1 -1 -1zM270 -1l2 1zM124 715q0 -1 -1 -1zM299 724l-1 1zM272 740l1 -1zM353 664v-1l-1 1h1zM388 152v-1q0 2 1 3zM137 14l2 -1zM262 743h1q-2 0 -3 1z
M237 750l2 -1zM349 671v-2v2zM353 665v-2v2zM361 88v1q0 -2 -1 -3zM297 14h-1q1 1 3 1zM128 718h-1h1z" />
    <glyph glyph-name="ordfeminine" unicode="&#xaa;" horiz-adv-x="251" 
d="M76 392v-2q-29 0 -47 19t-18 58q0 25 12 42t28 27q18 12 35 20q15 7 31 20q12 10 21 21t9 33v58q0 38 -6 50t-25 12q-14 0 -21 -7t-12 -33q-3 -16 -10 -24q-7 -9 -21 -9q-13 0 -19 7q-6 8 -6 18q0 7 5 17t15 17q11 8 27 12q18 5 42 5q22 0 42 -3t33 -13q14 -11 21 -28
q8 -19 8 -46v-169v-49q0 -14 2 -28q1 -9 5 -13q3 -3 8 -3q10 0 17 6l1 -2q-5 -5 -15 -9q-12 -5 -33 -5q-28 0 -43 12q-14 12 -16 29q-18 -21 -33 -31q-14 -9 -37 -9zM84 482v-2q0 -41 6 -59t17 -18q4 0 12 5q7 4 27 24v178q-4 -13 -12 -22q-6 -8 -18 -16q-22 -18 -27 -36
q-5 -20 -5 -54z" />
    <glyph glyph-name="guillemotleft" unicode="&#xab;" horiz-adv-x="258" 
d="M120 228v4l120 163l3 -2l-58 -163l59 -162l-3 -2zM14 228v4l120 163l3 -2l-58 -163l59 -162l-3 -2z" />
    <glyph glyph-name="registered" unicode="&#xae;" horiz-adv-x="306" 
d="M155 756l-2 2q27 0 52 -15t45 -42q20 -28 32 -66q12 -39 12 -87t-12 -87t-31 -67t-45 -43t-52 -15q-28 0 -53 15q-25 14 -46 42q-21 27 -33 66t-12 87t12 87t33 66q21 26 47 42q26 15 53 15zM153 337h-2q26 0 50 15q25 16 44 42t31 66q12 39 12 86t-12 86q-12 40 -31 66
t-44 42q-24 15 -49 15q-26 0 -51 -15t-45 -42q-19 -26 -31 -66q-12 -39 -12 -85q0 -48 12 -87q12 -38 32 -66q19 -27 45 -42t51 -15zM91 439l-6 -4q5 1 6 3l3 6q2 6 2 14v26v133v26q0 11 -1 14q-1 5 -3 6l-6 3v2h55q30 0 50 -11t20 -45q0 -26 -15 -41q-14 -14 -39 -19
q17 -2 26 -14q10 -13 14 -44q4 -34 8 -45q3 -9 8 -9q4 0 9 4l1 -1q-3 -4 -9 -7t-18 -3q-17 0 -23 11q-7 12 -11 45q-1 7 -1.5 13.5t-1.5 13t-1 9.5q-1 13 -3 19t-5 8q-4 2 -9 2h-2v-66q0 -30 2 -40q1 -8 9 -9v-3h-59v3zM134 666l2 -112h6q20 0 26 16t6 43q0 31 -9 42t-25 11
h-6z" />
    <glyph glyph-name="macron" unicode="&#xaf;" horiz-adv-x="446" 
d="M302 593v-38h-153v38h153z" />
    <glyph glyph-name="degree" unicode="&#xb0;" horiz-adv-x="176" 
d="M88 759q30 0 51 -21t21 -51q0 -31 -21 -52t-51 -21t-51 21t-21 52q0 30 21 51t51 21zM23 686l-1 -1q0 -29 18 -48t47 -19t48 19t19 48t-19 48q-20 20 -48 20t-46 -19q-18 -20 -18 -48z" />
    <glyph glyph-name="twosuperior" unicode="&#xb2;" horiz-adv-x="246" 
d="M141 518l-8 3h36q11 0 21 2q6 1 10 5q3 3 6 9h3l-15 -55q-2 -7 -5 -13q-1 -3 -6 -3h-162l49 88q31 56 47 102q17 49 17 99q0 43 -6 63q-6 19 -24 19q-17 0 -18 -16l-3 -33q-1 -10 -8 -18q-6 -8 -18 -8t-18 8t-6 18q0 23 23 38q22 15 51 15q16 0 31 -4q16 -5 30 -15
q14 -11 23 -27q9 -17 9 -42t-7 -46q-8 -23 -22 -46q-15 -24 -36 -51q-7 -9 -23.5 -29.5t-24.5 -31.5l-26 -31h80z" />
    <glyph glyph-name="threesuperior" unicode="&#xb3;" horiz-adv-x="227" 
d="M55 821l1 -2q1 10 3 13q1 3 6 3h129v-3l-106 -144q11 8 26 8t30 -6q14 -6 28 -18t21 -33q8 -22 8 -52q0 -61 -30 -94t-70 -33q-31 0 -50 15q-20 15 -20 35q0 10 6 18q6 7 19 7q23 0 26 -27q1 -21 3 -34q1 -12 15 -12q17 0 27 31q11 33 11 93q0 55 -5 82q-5 24 -21 24
q-15 0 -23 -7q-10 -9 -17 -18l-3 2l83 114h-54h-26q-7 0 -15 -2q-6 -1 -9 -6q-4 -6 -6 -10h-3z" />
    <glyph glyph-name="acute" unicode="&#xb4;" horiz-adv-x="446" 
d="M178 523l59 122q9 20 19 30t24 10t23 -9t9 -22q0 -14 -6 -24t-20 -21l-105 -87z" />
    <glyph glyph-name="paragraph" unicode="&#xb6;" horiz-adv-x="378" 
d="M188 433l2 -3q-38 0 -71 12t-57 33q-25 22 -38 51q-14 31 -14 68q0 38 14 68q13 28 38 48q23 19 57 28q33 9 72 9h180v-2q-10 -3 -17 -8q-6 -4 -9 -20q-2 -12 -4 -45q-1 -20 -1 -83v-408q0 -77 -9 -129t-27 -85t-46 -48t-69 -15q-37 0 -54 15q-16 15 -16 33q0 14 9 24
t26 10t27 -10q11 -10 18 -24t15 -24q7 -10 21 -10q27 0 32 47q5 52 5 150v630h-50v-312h-34z" />
    <glyph glyph-name="periodcentered" unicode="&#xb7;" horiz-adv-x="157" 
d="M76 230q-23 0 -38 16t-15 39t15 38t38 15t38 -15t15 -38t-15 -39t-38 -16z" />
    <glyph glyph-name="cedilla" unicode="&#xb8;" horiz-adv-x="446" 
d="M231 0l-17 -36q15 -2 30 -6q16 -5 27 -13q13 -10 20 -21q8 -13 8 -27q0 -28 -32 -48q-31 -19 -105 -18l-1 3q37 4 60 18t23 30t-18 23q-18 8 -34 9l-2 3l37 83h4z" />
    <glyph glyph-name="onesuperior" unicode="&#xb9;" horiz-adv-x="190" 
d="M48 465q9 2 12 4q4 3 6 11q2 10 2 23v41v193q0 25 -3 34t-19 9v3l84 59v-297v-41q0 -12 2 -22q1 -7 6 -10q3 -2 12 -4v-3h-102z" />
    <glyph glyph-name="ordmasculine" unicode="&#xba;" horiz-adv-x="273" 
d="M137 387l-4 -3q-19 0 -40 10q-22 10 -42 32q-18 20 -31 56q-12 34 -12 84q0 51 12 87t32 59q20 22 42 33q24 11 40 11q21 0 41 -10q22 -11 41 -33q21 -24 32 -58q12 -36 12 -87q0 -50 -12 -84q-13 -36 -31 -56q-19 -21 -40 -31q-20 -10 -40 -10zM133 388q10 0 19 9t15 30
t9 55t3 84q0 54 -3 90t-9 57t-15 30t-19 9t-19 -9t-15 -30t-9 -57t-3 -90q0 -50 3 -84t9 -55t15 -30t19 -9z" />
    <glyph glyph-name="guillemotright" unicode="&#xbb;" horiz-adv-x="258" 
d="M16 68l59 162l-58 163l3 2l120 -163v-4l-121 -162zM121 68l60 162l-59 163l3 2l121 -163v-4l-122 -162z" />
    <glyph glyph-name="onequarter" unicode="&#xbc;" horiz-adv-x="373" 
d="M239 -11h1v-39q0 -11 2 -21q1 -6 5 -10q2 -2 8 -4v-3h-92v3q7 2 9 4q4 4 5 10q2 10 2 21v39h-94v3l141 295h13v-253h44l-20 -45h-24zM180 34v146l-70 -146h70zM41 377h293v-4h-293v4zM138 465q9 2 12 4q4 3 6 11q2 10 2 23v41v193q0 25 -3 34t-19 9v3l84 59v-297v-41
q0 -12 2 -22q1 -7 6 -10q3 -2 12 -4v-3h-102z" />
    <glyph glyph-name="onehalf" unicode="&#xbd;" horiz-adv-x="373" 
d="M40 377h293v-4h-293v4zM137 465q9 2 12 4q4 3 6 11q2 10 2 23v41v193q0 25 -3 34t-19 9v3l84 59v-297v-41q0 -12 2 -22q1 -7 6 -10q3 -2 12 -4v-3h-102zM210 -37l-8 3h36q11 0 21 2q6 1 10 5q3 3 6 9h3l-15 -55q-2 -7 -5 -13q-2 -3 -6 -3h-162l49 88q31 56 47 102
q17 49 17 99q0 44 -6 63t-24 19q-17 0 -18 -16l-3 -33q-1 -10 -8 -18q-6 -8 -18 -8t-18 8q-6 7 -6 18q0 23 23 38t51 15q16 0 31 -4q17 -4 30 -15q14 -11 23 -27t9 -42q0 -25 -7 -46q-8 -23 -22 -46q-15 -24 -36 -51q-7 -9 -23.5 -29.5t-24.5 -31.5l-26 -31h80z" />
    <glyph glyph-name="threequarters" unicode="&#xbe;" horiz-adv-x="373" 
d="M239 -11h1v-39q0 -11 2 -21q1 -6 5 -10q2 -2 8 -4v-3h-92v3q7 2 9 4q4 4 5 10q2 10 2 21v39h-94v3l141 295h13v-253h44l-20 -45h-24zM180 34v146l-70 -146h70zM41 377h293v-4h-293v4zM128 821l1 -2q1 10 3 13t6 3h129v-3l-106 -144q11 8 26 8t30 -6q14 -6 28 -18
q13 -12 21 -33q8 -22 8 -52q0 -61 -30 -94t-70 -33q-30 0 -50 15t-20 35q0 10 6 18q6 7 19 7q23 0 26 -27q1 -21 3 -34q2 -12 15 -12q17 0 27 31q11 33 11 93q0 55 -5 82q-4 24 -21 24q-15 0 -23 -7q-10 -9 -17 -18l-3 2l83 114h-54h-26q-7 0 -15 -2q-6 -1 -9 -6
q-4 -6 -6 -10h-3z" />
    <glyph glyph-name="questiondown" unicode="&#xbf;" horiz-adv-x="274" 
d="M178 268v3q0 -70 -11 -130q-10 -55 -24 -106q-13 -49 -24 -96q-11 -49 -11 -102q0 -70 12 -97t37 -27q22 0 28 15q5 13 10 43q5 23 13 34q9 12 28 11q15 -2 24 -12q9 -11 8 -27q-1 -28 -30 -49q-28 -21 -81 -21q-29 0 -54 9q-26 9 -44 27q-19 19 -29 45q-11 28 -11 64
q0 33 11 64q10 30 27 60q14 26 36 61q16 26 37 66q18 35 30 75t15 90h3zM166 478q23 0 38 -16t15 -39t-15 -38t-38 -15t-38 15t-15 38t15 39t38 16z" />
    <glyph glyph-name="Agrave" unicode="&#xc0;" horiz-adv-x="322" 
d="M-8 1h-5q8 5 14 12q5 6 10 21q5 14 9 36q1 5 10 59l76 503l-9 51q-6 41 -16 52q-11 12 -21 15v1h111q6 0 8 -1q3 -1 4 -7l103 -615q4 -32 9 -54q4 -21 9 -37t10 -24q6 -9 14 -12v-1h-140v1q13 5 17 19q4 15 -3 61l-25 144h-126l-14 -96q-7 -41 -8 -59q-2 -24 1 -36
q3 -14 10 -21q8 -7 21 -12v-1h-69v1zM174 229l-67 388l-58 -388h125zM79 802l1 -2q-41 11 -41 39q0 11 8 21q7 9 21 9q12 0 20 -4q11 -5 20 -12l99 -77l-1 -2z" />
    <glyph glyph-name="Aacute" unicode="&#xc1;" horiz-adv-x="322" 
d="M-8 1h-5q8 5 14 12q5 6 10 21q5 14 9 36q1 5 10 59l76 503l-9 51q-6 41 -16 52q-11 12 -21 15v1h111q6 0 8 -1q3 -1 4 -7l103 -615q4 -32 9 -54q4 -21 9 -37t10 -24q6 -9 14 -12v-1h-140v1q13 5 17 19q4 15 -3 61l-25 144h-126l-14 -96q-7 -41 -8 -59q-2 -24 1 -36
q3 -14 10 -21q8 -7 21 -12v-1h-69v1zM174 229l-67 388l-58 -388h125zM59 778l100 78q9 7 20 12q10 5 20 5q13 0 21 -9q8 -10 8 -21q0 -28 -41 -39l-127 -28z" />
    <glyph glyph-name="Acircumflex" unicode="&#xc2;" horiz-adv-x="322" 
d="M-8 1h-5q8 5 14 12q5 6 10 21q5 14 9 36q1 5 10 59l76 503l-9 51q-6 41 -16 52q-11 12 -21 15v1h111q6 0 8 -1q3 -1 4 -7l103 -615q4 -32 9 -54q4 -21 9 -37t10 -24q6 -9 14 -12v-1h-140v1q13 5 17 19q4 15 -3 61l-25 144h-126l-14 -96q-7 -41 -8 -59q-2 -24 1 -36
q3 -14 10 -21q8 -7 21 -12v-1h-69v1zM174 229l-67 388l-58 -388h125zM131 884l109 -108l-3 -2l-106 44l-106 -44l-2 2z" />
    <glyph glyph-name="Atilde" unicode="&#xc3;" horiz-adv-x="322" 
d="M-8 1h-5q8 5 14 12q5 6 10 21q5 14 9 36q1 5 10 59l76 503l-9 51q-6 41 -16 52q-11 12 -21 15v1h111q6 0 8 -1q3 -1 4 -7l103 -615q4 -32 9 -54q4 -21 9 -37t10 -24q6 -9 14 -12v-1h-140v1q13 5 17 19q4 15 -3 61l-25 144h-126l-14 -96q-7 -41 -8 -59q-2 -24 1 -36
q3 -14 10 -21q8 -7 21 -12v-1h-69v1zM174 229l-67 388l-58 -388h125zM102 851l-2 -1q20 0 42 -3t37 -3q9 0 19 8q9 8 24 27l3 -1q-11 -46 -24 -66q-14 -20 -28 -20q-19 0 -39 3t-39 3q-11 0 -19 -7t-22 -27l-3 1q23 86 51 86z" />
    <glyph glyph-name="Adieresis" unicode="&#xc4;" horiz-adv-x="322" 
d="M-8 1h-5q8 5 14 12q5 6 10 21q5 14 9 36q1 5 10 59l76 503l-9 51q-6 41 -16 52q-11 12 -21 15v1h111q6 0 8 -1q3 -1 4 -7l103 -615q4 -32 9 -54q4 -21 9 -37t10 -24q6 -9 14 -12v-1h-140v1q13 5 17 19q4 15 -3 61l-25 144h-126l-14 -96q-7 -41 -8 -59q-2 -24 1 -36
q3 -14 10 -21q8 -7 21 -12v-1h-69v1zM174 229l-67 388l-58 -388h125zM200 777v-2q-19 0 -33 14q-13 13 -13 33t13 33q14 14 33 14q20 0 33 -13t13 -33t-13 -33t-33 -13zM64 775v-2q-19 0 -33 14q-13 13 -13 33t13 33q14 14 33 14q20 0 33 -13t13 -33t-13 -33t-33 -13z" />
    <glyph glyph-name="Aring" unicode="&#xc5;" horiz-adv-x="322" 
d="M-8 1h-5q8 5 14 12q5 6 10 21q5 14 9 36q1 5 10 59l76 503l-9 51q-6 41 -16 52q-11 12 -21 15v1h111q6 0 8 -1q3 -1 4 -7l103 -615q4 -32 9 -54q4 -21 9 -37t10 -24q6 -9 14 -12v-1h-140v1q13 5 17 19q4 15 -3 61l-25 144h-126l-14 -96q-7 -41 -8 -59q-2 -24 1 -36
q3 -14 10 -21q8 -7 21 -12v-1h-69v1zM174 229l-67 388l-58 -388h125zM57 837q0 29 21 48q22 20 53 20q33 0 53 -19q21 -20 21 -48t-21 -48q-20 -19 -53 -19q-32 0 -53 18t-21 48zM98 837l-1 1q0 -28 9 -46t24 -18q16 0 25 18t9 45q0 26 -9 44t-25 18q-14 0 -23 -18t-9 -44z
" />
    <glyph glyph-name="AE" unicode="&#xc6;" horiz-adv-x="466" 
d="M370 332l2 2q-4 18 -7 27q-5 13 -12 24t-21 18q-13 7 -36 7h-4v-405h18q30 0 54 3t42 15q19 13 32 34q14 24 23 60h4l-12 -106q-2 -8 -4 -9t-6 -1h-284v2q10 3 17 8q6 4 9 20q2 12 4 45q1 20 1 83v65h-117l-24 -102q-7 -33 -12 -54q-5 -23 -5 -35q0 -14 4 -21
q4 -8 15 -12v-1h-61v1q8 5 14 12q6 8 12 21t12 35q8 30 14 54l132 555q5 20 6 31q2 12 0 20t-9 12q-6 4 -22 7v3h262q4 0 8 -2t5 -12l16 -89h-3q-17 59 -53 80t-85 21h-9v-333h4q23 0 36 7q14 8 21 18t12 24q3 9 7 27h1v-159h-1zM191 231v495l-116 -495h116z" />
    <glyph glyph-name="Ccedilla" unicode="&#xc7;" horiz-adv-x="332" 
d="M226 -7l-4 -5q-34 0 -73 17q-37 17 -66 60q-29 44 -47 119t-18 194q0 108 17 182q16 70 44 115q27 43 60 60q34 17 65 17q14 0 23 -3q12 -4 17 -7t15 -7q7 -3 15 -3q11 0 19 7t13 21h3v-156h-3q-11 49 -22 75q-13 30 -25 45q-13 16 -27 22t-25 6q-19 0 -34 -18
q-14 -17 -25 -60q-10 -39 -16 -111q-6 -69 -6 -171q0 -114 9 -189t24 -120t36 -63t47 -18q25 0 45 14q21 14 35 33l3 -3q-13 -19 -38 -36t-61 -17zM177 -5l-17 -36q15 -1 30 -6q16 -5 27 -13q13 -10 20 -21q8 -13 8 -27q0 -28 -32 -48q-31 -20 -105 -18l-1 3q37 5 60 18
q23 14 23 30q0 15 -18 23t-34 9l-2 3l37 83h4z" />
    <glyph glyph-name="Egrave" unicode="&#xc8;" horiz-adv-x="337" 
d="M13 2l-2 5q10 3 17 8q6 4 9 20q2 12 4 45q1 20 1 83v430q0 63 -1 83q-2 33 -4 45q-3 16 -9 20q-7 5 -17 8v2h269q4 0 8 -2t5 -12l16 -89h-3q-17 59 -54 80q-38 21 -93 21h-16v-333h12q26 0 40 7q15 7 24 18q8 10 13 24q6 18 8 27h1v-159h-1q-4 18 -7 27q-5 14 -13 24
q-9 10 -24 18q-14 7 -40 7h-12v-405h26q34 0 59 3t45 15t33 34q14 24 23 60h4l-12 -106q-2 -8 -4 -9t-6 -1h-299v2zM120 807l1 -2q-41 11 -41 39q0 11 8 21q8 9 21 9q12 0 20 -4q11 -5 20 -12l99 -77l-1 -2z" />
    <glyph glyph-name="Eacute" unicode="&#xc9;" horiz-adv-x="337" 
d="M13 2l-2 5q10 3 17 8q6 4 9 20q2 12 4 45q1 20 1 83v430q0 63 -1 83q-2 33 -4 45q-3 16 -9 20q-7 5 -17 8v2h269q4 0 8 -2t5 -12l16 -89h-3q-17 59 -54 80q-38 21 -93 21h-16v-333h12q26 0 40 7q15 7 24 18q8 10 13 24q6 18 8 27h1v-159h-1q-4 18 -7 27q-5 14 -13 24
q-9 10 -24 18q-14 7 -40 7h-12v-405h26q34 0 59 3t45 15t33 34q14 24 23 60h4l-12 -106q-2 -8 -4 -9t-6 -1h-299v2zM96 781l100 78q9 7 20 12q10 5 20 5q14 0 21 -9q8 -10 8 -21q0 -28 -41 -39l-127 -28z" />
    <glyph glyph-name="Ecircumflex" unicode="&#xca;" horiz-adv-x="337" 
d="M13 2l-2 5q10 3 17 8q6 4 9 20q2 12 4 45q1 20 1 83v430q0 63 -1 83q-2 33 -4 45q-3 16 -9 20q-7 5 -17 8v2h269q4 0 8 -2t5 -12l16 -89h-3q-17 59 -54 80q-38 21 -93 21h-16v-333h12q26 0 40 7q15 7 24 18q8 10 13 24q6 18 8 27h1v-159h-1q-4 18 -7 27q-5 14 -13 24
q-9 10 -24 18q-14 7 -40 7h-12v-405h26q34 0 59 3t45 15t33 34q14 24 23 60h4l-12 -106q-2 -8 -4 -9t-6 -1h-299v2zM168 889l109 -108l-3 -2l-106 44l-106 -44l-2 2z" />
    <glyph glyph-name="Edieresis" unicode="&#xcb;" horiz-adv-x="337" 
d="M13 2l-2 5q10 3 17 8q6 4 9 20q2 12 4 45q1 20 1 83v430q0 63 -1 83q-2 33 -4 45q-3 16 -9 20q-7 5 -17 8v2h269q4 0 8 -2t5 -12l16 -89h-3q-17 59 -54 80q-38 21 -93 21h-16v-333h12q26 0 40 7q15 7 24 18q8 10 13 24q6 18 8 27h1v-159h-1q-4 18 -7 27q-5 14 -13 24
q-9 10 -24 18q-14 7 -40 7h-12v-405h26q34 0 59 3t45 15t33 34q14 24 23 60h4l-12 -106q-2 -8 -4 -9t-6 -1h-299v2zM235 782v-2q-19 0 -33 14q-13 13 -13 33t13 33q14 14 33 14q20 0 33 -13t13 -33t-13 -33t-33 -13zM99 780v-2q-19 0 -33 14q-13 13 -13 33t13 33
q14 14 33 14q20 0 33 -13t13 -33t-13 -33t-33 -13z" />
    <glyph glyph-name="Igrave" unicode="&#xcc;" horiz-adv-x="189" 
d="M13 2q10 3 17 8q6 4 9 20q2 12 4 45q1 20 1 83v430q0 63 -1 83q-2 33 -4 45q-3 16 -9 20q-7 5 -17 8v2h163v-2q-10 -3 -17 -8q-6 -4 -9 -20q-2 -12 -4 -45q-1 -20 -1 -83v-430q0 -63 1 -83q2 -33 4 -45q3 -16 9 -20q7 -5 17 -8v-2h-163v2zM43 802l1 -2q-41 11 -41 39
q0 11 8 21q7 9 21 9q12 0 20 -4q11 -5 20 -12l99 -77l-1 -2z" />
    <glyph glyph-name="Iacute" unicode="&#xcd;" horiz-adv-x="189" 
d="M13 2q10 3 17 8q6 4 9 20q2 12 4 45q1 20 1 83v430q0 63 -1 83q-2 33 -4 45q-3 16 -9 20q-7 5 -17 8v2h163v-2q-10 -3 -17 -8q-6 -4 -9 -20q-2 -12 -4 -45q-1 -20 -1 -83v-430q0 -63 1 -83q2 -33 4 -45q3 -16 9 -20q7 -5 17 -8v-2h-163v2zM19 776l100 78q9 7 20 12
q10 5 20 5q13 0 21 -9q8 -10 8 -21q0 -28 -41 -39l-127 -28z" />
    <glyph glyph-name="Icircumflex" unicode="&#xce;" horiz-adv-x="189" 
d="M13 2q10 3 17 8q6 4 9 20q2 12 4 45q1 20 1 83v430q0 63 -1 83q-2 33 -4 45q-3 16 -9 20q-7 5 -17 8v2h163v-2q-10 -3 -17 -8q-6 -4 -9 -20q-2 -12 -4 -45q-1 -20 -1 -83v-430q0 -63 1 -83q2 -33 4 -45q3 -16 9 -20q7 -5 17 -8v-2h-163v2zM94 884l109 -108l-3 -2l-106 44
l-106 -44l-2 2z" />
    <glyph glyph-name="Idieresis" unicode="&#xcf;" horiz-adv-x="189" 
d="M151 777v-2q-19 0 -33 14q-13 13 -13 33t13 33q14 14 33 14q20 0 33 -13t13 -33t-13 -33t-33 -13zM38 775l-1 -2q-19 0 -33 14q-13 13 -13 33q0 19 14 33t33 14q20 0 33 -13t13 -33t-13 -33t-33 -13zM12 -2q10 3 17 8q6 4 9 20q2 12 4 45q1 20 1 83v430q0 63 -1 83
q-2 33 -4 45q-3 16 -9 20q-7 5 -17 8v2h163v-2q-10 -3 -17 -8q-6 -4 -9 -20q-2 -12 -4 -45q-1 -20 -1 -83v-430q0 -63 1 -83q2 -33 4 -45q3 -16 9 -20q7 -5 17 -8v-2h-163v2z" />
    <glyph glyph-name="Eth" unicode="&#xd0;" horiz-adv-x="418" 
d="M13 2l-1 4q10 3 17 8q6 4 9 20q2 12 4 45q1 20 1 83v230h-47v4h47v196q0 63 -1 83q-2 33 -4 45q-3 16 -9 20q-7 5 -17 8v2h143q53 0 98 -21t78 -66t51 -114t18 -164q0 -184 -61 -284q-62 -101 -183 -101h-143v2zM144 7l10 -3q33 0 59 20t44 65t27 119t9 180
q0 113 -13 181q-14 72 -34 111q-21 40 -45 55t-46 15h-11v-352h76v-4h-76v-387z" />
    <glyph glyph-name="Ntilde" unicode="&#xd1;" horiz-adv-x="377" 
d="M13 2l1 3q10 5 17 11q6 6 9 21q2 12 4 45q1 20 1 81v430q0 63 -1 83q-2 33 -4 45q-3 16 -9 20q-7 5 -17 8v2h112q14 0 18 -4q4 -5 9 -18l178 -482v343q0 61 -1 81q-2 33 -4 45q-3 15 -9 21q-6 7 -17 11v2h69v-2q-10 -4 -17 -11q-6 -6 -9 -21q-2 -12 -4 -45q-1 -20 -1 -81
v-593h-14l-273 728v-565q0 -61 1 -81q2 -33 4 -45q3 -15 9 -21q7 -7 17 -11v-2h-69v2zM192 854l-2 -1q20 0 42 -3t37 -3q9 0 19 8q9 7 24 27l3 -1q-11 -47 -24 -66q-14 -20 -28 -20q-19 0 -39 3t-39 3q-11 0 -19 -7t-22 -27l-3 1q23 86 51 86z" />
    <glyph glyph-name="Ograve" unicode="&#xd2;" horiz-adv-x="414" 
d="M207 -8l1 -2q-34 0 -69 24t-60 72t-42 120q-16 70 -16 168q0 101 16 171q17 73 42 119t59 69t69 23q37 0 69 -22q33 -22 60 -69q26 -45 43 -118q16 -70 16 -171q0 -98 -16 -168q-17 -74 -43 -120q-27 -48 -60 -72t-69 -24zM208 -5l-1 -2q46 0 64 98q17 95 19 282
q2 185 -18 281t-63 96t-63 -96q-19 -94 -19 -280q0 -184 18 -282q18 -97 63 -97zM155 798l1 -2q-41 11 -41 39q0 11 8 21q7 9 21 9q12 0 20 -4q11 -5 20 -12l99 -77l-1 -2z" />
    <glyph glyph-name="Oacute" unicode="&#xd3;" horiz-adv-x="414" 
d="M207 -8l1 -2q-34 0 -69 24t-60 72t-42 120q-16 70 -16 168q0 101 16 171q17 73 42 119t59 69t69 23q37 0 69 -22q33 -22 60 -69q26 -45 43 -118q16 -70 16 -171q0 -98 -16 -168q-17 -74 -43 -120q-27 -48 -60 -72t-69 -24zM208 -5l-1 -2q46 0 64 98q17 95 19 282
q2 185 -18 281t-63 96t-63 -96q-19 -94 -19 -280q0 -184 18 -282q18 -97 63 -97zM131 772l100 78q9 7 20 12q10 5 20 5q13 0 21 -9q8 -10 8 -21q0 -28 -41 -39l-127 -28z" />
    <glyph glyph-name="Ocircumflex" unicode="&#xd4;" horiz-adv-x="414" 
d="M207 -8l1 -2q-34 0 -69 24t-60 72t-42 120q-16 70 -16 168q0 101 16 171q17 73 42 119t59 69t69 23q37 0 69 -22q33 -22 60 -69q26 -45 43 -118q16 -70 16 -171q0 -98 -16 -168q-17 -74 -43 -120q-27 -48 -60 -72t-69 -24zM208 -5l-1 -2q46 0 64 98q17 95 19 282
q2 185 -18 281t-63 96t-63 -96q-19 -94 -19 -280q0 -184 18 -282q18 -97 63 -97zM207 880l109 -108l-3 -2l-106 44l-106 -44l-2 2z" />
    <glyph glyph-name="Otilde" unicode="&#xd5;" horiz-adv-x="414" 
d="M207 -8l1 -2q-34 0 -69 24t-60 72t-42 120q-16 70 -16 168q0 101 16 171q17 73 42 119t59 69t69 23q37 0 69 -22q33 -22 60 -69q26 -45 43 -118q16 -70 16 -171q0 -98 -16 -168q-17 -74 -43 -120q-27 -48 -60 -72t-69 -24zM208 -5l-1 -2q46 0 64 98q17 95 19 282
q2 185 -18 281t-63 96t-63 -96q-19 -94 -19 -280q0 -184 18 -282q18 -97 63 -97zM176 847l-2 -1q20 0 42 -3t37 -3q9 0 19 8q9 8 24 27l3 -1q-11 -46 -24 -66q-14 -20 -28 -20q-19 0 -39 3t-39 3q-11 0 -19 -7t-22 -27l-3 1q23 86 51 86z" />
    <glyph glyph-name="Odieresis" unicode="&#xd6;" horiz-adv-x="414" 
d="M207 -8l1 -2q-34 0 -69 24t-60 72t-42 120q-16 70 -16 168q0 101 16 171q17 73 42 119t59 69t69 23q37 0 69 -22q33 -22 60 -69q26 -45 43 -118q16 -70 16 -171q0 -98 -16 -168q-17 -74 -43 -120q-27 -48 -60 -72t-69 -24zM208 -5l-1 -2q46 0 64 98q17 95 19 282
q2 185 -18 281t-63 96t-63 -96q-19 -94 -19 -280q0 -184 18 -282q18 -97 63 -97zM275 773v-2q-19 0 -33 14q-13 13 -13 33t13 33q14 14 33 14q20 0 33 -13t13 -33t-13 -33t-33 -13zM139 771v-2q-19 0 -33 14q-13 13 -13 33t13 33q14 14 33 14q20 0 33 -13t13 -33t-13 -33
t-33 -13z" />
    <glyph glyph-name="multiply" unicode="&#xd7;" horiz-adv-x="264" 
d="M127 354l-104 109l5 5l104 -109l105 110l5 -5l-105 -110l105 -110l-5 -5l-105 110l-105 -109l-5 4z" />
    <glyph glyph-name="Oslash" unicode="&#xd8;" horiz-adv-x="415" 
d="M207 -8l2 -2q-43 0 -81 33l-12 -50l-5 1l13 53q-45 42 -74 128q-29 87 -29 219q0 101 16 171q17 73 42 119t59 69t69 23q44 0 83 -33l10 44l5 -1l-11 -46q44 -41 72 -124q29 -85 29 -220q0 -98 -16 -168q-17 -74 -43 -120q-27 -48 -60 -72t-69 -24zM127 374h-1
q0 -94 4 -154q4 -67 12 -115l130 541q-20 104 -63 104t-63 -96q-19 -94 -19 -280zM208 -5l-1 -1q46 0 64 98q17 95 19 282q0 166 -15 260l-130 -542q19 -97 63 -97z" />
    <glyph glyph-name="Ugrave" unicode="&#xd9;" horiz-adv-x="363" 
d="M199 -10l-5 1q-76 0 -118 39t-42 125v436q0 63 -1 83q-2 33 -4 45q-3 16 -9 20q-7 5 -17 8v2h163v-2q-10 -3 -17 -8q-6 -4 -9 -20q-2 -12 -4 -45q-1 -20 -1 -83v-441q0 -71 17 -111q16 -39 63 -39q43 0 72 39q29 40 29 116v434q0 61 -1 81q-2 33 -4 45q-3 15 -9 21
t-17 11v2h70v-2q-10 -5 -17 -11q-6 -6 -9 -21q-2 -12 -4 -45q-1 -20 -1 -81v-434q0 -80 -32 -123q-32 -42 -93 -42zM162 803l1 -2q-41 11 -41 39q0 11 8 21q8 9 21 9q12 0 20 -4q11 -5 20 -12l99 -77l-1 -2z" />
    <glyph glyph-name="Uacute" unicode="&#xda;" horiz-adv-x="363" 
d="M199 -10l-5 1q-76 0 -118 39t-42 125v436q0 63 -1 83q-2 33 -4 45q-3 16 -9 20q-7 5 -17 8v2h163v-2q-10 -3 -17 -8q-6 -4 -9 -20q-2 -12 -4 -45q-1 -20 -1 -83v-441q0 -71 17 -111q16 -39 63 -39q43 0 72 39q29 40 29 116v434q0 61 -1 81q-2 33 -4 45q-3 15 -9 21
t-17 11v2h70v-2q-10 -5 -17 -11q-6 -6 -9 -21q-2 -12 -4 -45q-1 -20 -1 -81v-434q0 -80 -32 -123q-32 -42 -93 -42zM137 777l100 78q9 7 20 12q10 5 20 5q13 0 21 -9q8 -10 8 -21q0 -28 -41 -39l-127 -28z" />
    <glyph glyph-name="Ucircumflex" unicode="&#xdb;" horiz-adv-x="363" 
d="M199 -10l-5 1q-76 0 -118 39t-42 125v436q0 63 -1 83q-2 33 -4 45q-3 16 -9 20q-7 5 -17 8v2h163v-2q-10 -3 -17 -8q-6 -4 -9 -20q-2 -12 -4 -45q-1 -20 -1 -83v-441q0 -71 17 -111q16 -39 63 -39q43 0 72 39q29 40 29 116v434q0 61 -1 81q-2 33 -4 45q-3 15 -9 21
t-17 11v2h70v-2q-10 -5 -17 -11q-6 -6 -9 -21q-2 -12 -4 -45q-1 -20 -1 -81v-434q0 -80 -32 -123q-32 -42 -93 -42zM210 885l109 -108l-3 -2l-106 44l-106 -44l-2 2z" />
    <glyph glyph-name="Udieresis" unicode="&#xdc;" horiz-adv-x="363" 
d="M199 -10l-5 1q-76 0 -118 39t-42 125v436q0 63 -1 83q-2 33 -4 45q-3 16 -9 20q-7 5 -17 8v2h163v-2q-10 -3 -17 -8q-6 -4 -9 -20q-2 -12 -4 -45q-1 -20 -1 -83v-441q0 -71 17 -111q16 -39 63 -39q43 0 72 39q29 40 29 116v434q0 61 -1 81q-2 33 -4 45q-3 15 -9 21
t-17 11v2h70v-2q-10 -5 -17 -11q-6 -6 -9 -21q-2 -12 -4 -45q-1 -20 -1 -81v-434q0 -80 -32 -123q-32 -42 -93 -42zM276 778v-2q-19 0 -33 14q-13 13 -13 33t13 33q14 14 33 14q20 0 33 -13t13 -33t-13 -33t-33 -13zM140 776v-2q-19 0 -33 14q-13 13 -13 33t13 33
q14 14 33 14q20 0 33 -13t13 -33t-13 -33t-33 -13z" />
    <glyph glyph-name="Yacute" unicode="&#xdd;" horiz-adv-x="329" 
d="M92 2h-1q10 3 17 8q6 4 9 20q2 12 4 45q1 20 1 83v237l-75 231q-5 17 -14 44q-7 20 -12 32q-7 15 -13 24q-8 12 -18 20v2h153v-2q-21 -7 -18 -25q2 -13 14 -52l80 -259l54 212q11 42 14 54q5 21 3 35q-2 13 -9 21q-8 8 -26 14v2h81v-2q-9 -4 -16 -11q-6 -6 -12 -18
q-6 -11 -12 -35q-1 -4 -4 -15.5t-6 -22.5l-6 -22l-56 -218v-246q0 -63 1 -83q2 -33 4 -45q3 -16 9 -20q7 -5 17 -8v-2h-163v2zM121 776l100 78q9 7 20 12q10 5 20 5q13 0 21 -9q8 -10 8 -21q0 -28 -41 -39l-127 -28z" />
    <glyph glyph-name="Thorn" unicode="&#xde;" horiz-adv-x="369" 
d="M13 2l1 -1q10 3 17 8q6 4 9 20q2 12 4 45q1 20 1 83v430q0 63 -1 83q-2 33 -4 45q-3 16 -9 20q-7 5 -17 8v2h163v-2q-10 -3 -17 -8q-6 -4 -9 -20q-2 -12 -4 -43q-1 -19 -1 -79h23q40 0 78 -8q37 -8 62 -28q25 -21 40 -55t15 -89q0 -53 -15 -90t-42 -63q-26 -25 -63 -37
q-36 -12 -79 -12h-20v-53q0 -63 1 -83q2 -33 4 -45q3 -16 9 -20q7 -5 17 -8v-2h-163v2zM162 217v2q17 0 36 8q17 7 33 29q15 21 24 57t9 93q0 59 -9 95t-23 56t-31 27t-34 7h-22v-374h17z" />
    <glyph glyph-name="germandbls" unicode="&#xdf;" horiz-adv-x="372" 
d="M129 98l3 -11v-49q0 -18 3 -27q3 -8 9 -13t16 -6v-2h-142v2q10 2 14 6q4 3 7 14q3 9 3 27v49v358h-42v4q25 1 33 11t8 34v60q0 52 14 89t36 59q23 23 49 33q28 11 53 11q23 0 45 -6q24 -6 41 -19q19 -14 30 -34q12 -21 12 -50q0 -26 -11 -48q-10 -20 -26 -39
q-20 -24 -31 -35q-15 -15 -25 -33q-10 -19 -15 -35q-4 -13 -4 -32q0 -27 18 -60q17 -31 56 -78q29 -33 45 -57q17 -25 26 -44t12 -36t3 -35q0 -30 -10 -50q-11 -22 -25 -36t-34 -22q-18 -7 -37 -7q-17 0 -25 4q-9 5 -15 9l-12 9q-5 4 -15 4q-8 0 -12 -6q-5 -6 -6 -13h-3v123
h3q14 -66 33 -96t51 -30q26 0 36 21q11 22 11 46q0 18 -4 30q-5 16 -13 30q-9 16 -24 36q-6 7 -19.5 24.5t-18.5 23.5q-41 47 -54 79t-13 68q0 23 6 42t15 36q6 11 20 31q10 15 18 30q14 28 20 59t6 69q0 68 -10 99q-10 33 -48 33q-34 0 -47 -31q-14 -33 -14 -108v-515z" />
    <glyph glyph-name="agrave" unicode="&#xe0;" horiz-adv-x="319" 
d="M102 -6v-6q-35 0 -59 26q-24 25 -24 77q0 33 15 54t36 36q20 14 44 27q21 11 39 26q16 13 28 28t12 45v74q0 50 -9 65t-34 15q-17 0 -27 -10q-11 -11 -18 -43q-4 -19 -12 -31q-7 -12 -24 -12t-24 9q-8 10 -8 22q0 11 6 23q5 11 20 22q14 11 35 17t53 6q31 0 52 -4
q24 -4 42 -18q17 -13 28 -36q10 -21 10 -59v-218q0 -49 1 -65q2 -26 4 -37q3 -14 7 -18t12 -4q10 0 21 8l1 -2q-8 -6 -18 -11q-12 -6 -41 -6q-36 0 -54 15t-21 38q-9 -10 -24 -25q-9 -9 -21 -16q-10 -6 -21 -9t-27 -3zM108 109l-1 -1q0 -55 10 -79q10 -25 25 -25q4 0 6 1
q3 1 9 6q8 6 14 12l21 21v232q-4 -16 -15 -27t-24 -21q-16 -15 -24 -25q-10 -14 -14 -25q-5 -14 -6 -30q-1 -11 -1 -39zM104 602l-2 1q-13 10 -19 21q-6 10 -6 24t9 23t24 9q14 0 23 -10q10 -12 20 -30l60 -124l-3 -1z" />
    <glyph glyph-name="aacute" unicode="&#xe1;" horiz-adv-x="319" 
d="M102 -6v-6q-35 0 -59 26q-24 25 -24 77q0 33 15 54t36 36q20 14 44 27q21 11 39 26q16 13 28 28t12 45v74q0 50 -9 65t-34 15q-17 0 -27 -10q-11 -11 -18 -43q-4 -19 -12 -31q-7 -12 -24 -12t-24 9q-8 10 -8 22q0 11 6 23q5 11 20 22q14 11 35 17t53 6q31 0 52 -4
q24 -4 42 -18q17 -13 28 -36q10 -21 10 -59v-218q0 -49 1 -65q2 -26 4 -37q3 -14 7 -18t12 -4q10 0 21 8l1 -2q-8 -6 -18 -11q-12 -6 -41 -6q-36 0 -54 15t-21 38q-9 -10 -24 -25q-9 -9 -21 -16q-10 -6 -21 -9t-27 -3zM108 109l-1 -1q0 -55 10 -79q10 -25 25 -25q4 0 6 1
q3 1 9 6q8 6 14 12l21 21v232q-4 -16 -15 -27t-24 -21q-16 -15 -24 -25q-10 -14 -14 -25q-5 -14 -6 -30q-1 -11 -1 -39zM120 516l59 122q9 20 19 30t24 10t23 -9t9 -22t-6 -24q-6 -10 -20 -21l-105 -87z" />
    <glyph glyph-name="acircumflex" unicode="&#xe2;" horiz-adv-x="319" 
d="M102 -6v-6q-35 0 -59 26q-24 25 -24 77q0 33 15 54t36 36q20 14 44 27q21 11 39 26q16 13 28 28t12 45v74q0 50 -9 65t-34 15q-17 0 -27 -10q-11 -11 -18 -43q-4 -19 -12 -31q-7 -12 -24 -12t-24 9q-8 10 -8 22q0 11 6 23q5 11 20 22q14 11 35 17t53 6q31 0 52 -4
q24 -4 42 -18q17 -13 28 -36q10 -21 10 -59v-218q0 -49 1 -65q2 -26 4 -37q3 -14 7 -18t12 -4q10 0 21 8l1 -2q-8 -6 -18 -11q-12 -6 -41 -6q-36 0 -54 15t-21 38q-9 -10 -24 -25q-9 -9 -21 -16q-10 -6 -21 -9t-27 -3zM108 109l-1 -1q0 -55 10 -79q10 -25 25 -25q4 0 6 1
q3 1 9 6q8 6 14 12l21 21v232q-4 -16 -15 -27t-24 -21q-16 -15 -24 -25q-10 -14 -14 -25q-5 -14 -6 -30q-1 -11 -1 -39zM158 686l93 -170l-3 -1l-90 78l-90 -78l-3 1z" />
    <glyph glyph-name="atilde" unicode="&#xe3;" horiz-adv-x="319" 
d="M102 -6v-6q-35 0 -59 26q-24 25 -24 77q0 33 15 54t36 36q20 14 44 27q21 11 39 26q16 13 28 28t12 45v74q0 50 -9 65t-34 15q-17 0 -27 -10q-11 -11 -18 -43q-4 -19 -12 -31q-7 -12 -24 -12t-24 9q-8 10 -8 22q0 11 6 23q5 11 20 22q14 11 35 17t53 6q31 0 52 -4
q24 -4 42 -18q17 -13 28 -36q10 -21 10 -59v-218q0 -49 1 -65q2 -26 4 -37q3 -14 7 -18t12 -4q10 0 21 8l1 -2q-8 -6 -18 -11q-12 -6 -41 -6q-36 0 -54 15t-21 38q-9 -10 -24 -25q-9 -9 -21 -16q-10 -6 -21 -9t-27 -3zM108 109l-1 -1q0 -55 10 -79q10 -25 25 -25q4 0 6 1
q3 1 9 6q8 6 14 12l21 21v232q-4 -16 -15 -27t-24 -21q-16 -15 -24 -25q-10 -14 -14 -25q-5 -14 -6 -30q-1 -11 -1 -39zM128 608l2 2q11 0 18 -1t23 -3q8 -1 22 -3q7 -1 18 -1q9 0 18 9q12 12 23 28l3 -1q-19 -88 -51 -88q-16 0 -42 3t-42 3q-8 0 -17 -9q-3 -3 -25 -29l-3 1
q12 42 26 66q14 23 27 23z" />
    <glyph glyph-name="adieresis" unicode="&#xe4;" horiz-adv-x="319" 
d="M102 -6v-6q-35 0 -59 26q-24 25 -24 77q0 33 15 54t36 36q20 14 44 27q21 11 39 26q16 13 28 28t12 45v74q0 50 -9 65t-34 15q-17 0 -27 -10q-11 -11 -18 -43q-4 -19 -12 -31q-7 -12 -24 -12t-24 9q-8 10 -8 22q0 11 6 23q5 11 20 22q14 11 35 17t53 6q31 0 52 -4
q24 -4 42 -18q17 -13 28 -36q10 -21 10 -59v-218q0 -49 1 -65q2 -26 4 -37q3 -14 7 -18t12 -4q10 0 21 8l1 -2q-8 -6 -18 -11q-12 -6 -41 -6q-36 0 -54 15t-21 38q-9 -10 -24 -25q-9 -9 -21 -16q-10 -6 -21 -9t-27 -3zM108 109l-1 -1q0 -55 10 -79q10 -25 25 -25q4 0 6 1
q3 1 9 6q8 6 14 12l21 21v232q-4 -16 -15 -27t-24 -21q-16 -15 -24 -25q-10 -14 -14 -25q-5 -14 -6 -30q-1 -11 -1 -39zM222 529v-1q-19 0 -33 14q-13 13 -13 33t13 33t33 13t33 -13t13 -33t-13 -33t-33 -13zM93 528v-1q-19 0 -33 14q-13 13 -13 33t13 33t33 13t33 -13
t13 -33t-13 -33t-33 -13z" />
    <glyph glyph-name="aring" unicode="&#xe5;" horiz-adv-x="319" 
d="M102 -6v-6q-35 0 -59 26q-24 25 -24 77q0 33 15 54t36 36q20 14 44 27q21 11 39 26q16 13 28 28t12 45v74q0 50 -9 65t-34 15q-17 0 -27 -10q-11 -11 -18 -43q-4 -19 -12 -31q-7 -12 -24 -12t-24 9q-8 10 -8 22q0 11 6 23q5 11 20 22q14 11 35 17t53 6q31 0 52 -4
q24 -4 42 -18q17 -13 28 -36q10 -21 10 -59v-218q0 -49 1 -65q2 -26 4 -37q3 -14 7 -18t12 -4q10 0 21 8l1 -2q-8 -6 -18 -11q-12 -6 -41 -6q-36 0 -54 15t-21 38q-9 -10 -24 -25q-9 -9 -21 -16q-10 -6 -21 -9t-27 -3zM108 109l-1 -1q0 -55 10 -79q10 -25 25 -25q4 0 6 1
q3 1 9 6q8 6 14 12l21 21v232q-4 -16 -15 -27t-24 -21q-16 -15 -24 -25q-10 -14 -14 -25q-5 -14 -6 -30q-1 -11 -1 -39zM84 586q0 28 21 48q22 20 53 20q33 0 53 -19q21 -19 21 -48t-21 -48q-20 -19 -53 -19q-32 0 -53 18t-21 48zM125 586l-1 1q0 -28 9 -46t24 -18
q16 0 25 18t9 45q0 26 -9 44t-25 18q-14 0 -23 -18t-9 -44z" />
    <glyph glyph-name="ae" unicode="&#xe6;" horiz-adv-x="472" 
d="M102 -6l-2 -4q-35 0 -59 26t-24 77q0 33 15 54t36 36q20 14 44 27q21 11 39 26q16 13 28 28t12 45v74q0 50 -9 65t-34 15q-17 0 -27 -10q-11 -11 -18 -43q-4 -19 -12 -31q-7 -12 -24 -12t-24 9q-8 10 -8 22q0 11 6 23q5 11 20 22q14 11 35 17t53 6q36 0 63 -7
q28 -7 45 -30q20 20 39 29q20 9 39 9q54 0 84 -42q31 -43 35 -106h-168q-1 -9 -1 -30v-34q0 -123 20 -188q19 -63 68 -63q26 0 44 12q19 13 26 21l3 -3q-11 -11 -28 -24q-20 -15 -54 -15q-46 0 -83 20t-59 63l-19 -20q-22 -24 -28 -30q-15 -15 -22 -20q-12 -8 -22 -11
q-12 -3 -29 -3zM336 460l1 -1q-7 0 -15 -6t-15 -21q-7 -13 -13 -42q-5 -24 -7 -70h92q0 72 -12 106t-31 34zM107 110l-3 -2q0 -55 10 -79q10 -25 25 -25q3 0 9 2t11 7q2 2 7.5 7t9.5 9q5 5 27 29l17 18q-29 56 -29 147v54q-5 -17 -15 -27t-24 -21q-16 -15 -24 -25
q-10 -14 -14 -25q-4 -13 -6 -30q-1 -11 -1 -39z" />
    <glyph glyph-name="ccedilla" unicode="&#xe7;" horiz-adv-x="281" 
d="M184 -4l-3 -2q-32 0 -63 14t-53 42q-23 29 -36 73q-13 43 -13 107q0 62 15 105q15 42 38 72q22 28 50 42t51 14q20 0 36 -4q19 -5 32 -12q14 -8 23 -20t9 -27q0 -14 -9 -24t-23 -10q-16 0 -27 11t-12 36q-3 24 -8 36q-5 11 -20 11q-16 0 -28 -17q-11 -15 -19 -45
q-7 -26 -10 -69q-3 -41 -3 -85q0 -118 21 -179q21 -62 66 -62q23 0 43 14q18 13 30 26l3 -3l-12 -12q-8 -8 -18 -15t-26 -12q-17 -5 -34 -5zM151 1l-17 -36q15 -1 30 -6q16 -5 27 -13q13 -10 20 -21q8 -13 8 -27q0 -28 -32 -48q-31 -20 -105 -18l-1 3q37 5 60 18
q23 14 23 30q0 15 -18 23t-34 9l-2 3l37 83h4z" />
    <glyph glyph-name="egrave" unicode="&#xe8;" 
d="M189 -4l-1 -2q-76 0 -124 56t-48 177q0 59 14 106q13 44 35 75q21 30 47 45t48 15q56 0 84 -42q29 -43 35 -106h-169q-1 -9 -1 -30v-34q0 -123 20 -188q19 -63 68 -63q27 0 45 12t27 21l3 -3q-7 -7 -29 -24q-19 -15 -54 -15zM161 462v-1q-7 0 -15 -6q-8 -7 -14 -21
q-6 -15 -12 -42t-9 -70h93q0 72 -12 106t-31 34zM103 606l-2 1q-13 10 -19 21q-6 10 -6 24t9 23t24 9q14 0 23 -10q10 -12 20 -30l60 -124l-3 -1z" />
    <glyph glyph-name="eacute" unicode="&#xe9;" 
d="M189 -4l-1 -2q-76 0 -124 56t-48 177q0 59 14 106q13 44 35 75q21 30 47 45t48 15q56 0 84 -42q29 -43 35 -106h-169q-1 -9 -1 -30v-34q0 -123 20 -188q19 -63 68 -63q27 0 45 12t27 21l3 -3q-7 -7 -29 -24q-19 -15 -54 -15zM161 462v-1q-7 0 -15 -6q-8 -7 -14 -21
q-6 -15 -12 -42t-9 -70h93q0 72 -12 106t-31 34zM111 520l59 122q9 20 19 30t24 10t23 -9t9 -22t-6 -24q-6 -10 -20 -21l-105 -87z" />
    <glyph glyph-name="ecircumflex" unicode="&#xea;" 
d="M189 -4l-1 -2q-76 0 -124 56t-48 177q0 59 14 106q13 44 35 75q21 30 47 45t48 15q56 0 84 -42q29 -43 35 -106h-169q-1 -9 -1 -30v-34q0 -123 20 -188q19 -63 68 -63q27 0 45 12t27 21l3 -3q-7 -7 -29 -24q-19 -15 -54 -15zM161 462v-1q-7 0 -15 -6q-8 -7 -14 -21
q-6 -15 -12 -42t-9 -70h93q0 72 -12 106t-31 34zM160 690l93 -170l-3 -1l-90 78l-90 -78l-3 1z" />
    <glyph glyph-name="edieresis" unicode="&#xeb;" 
d="M189 -4l-1 -2q-76 0 -124 56t-48 177q0 59 14 106q13 44 35 75q21 30 47 45t48 15q56 0 84 -42q29 -43 35 -106h-169q-1 -9 -1 -30v-34q0 -123 20 -188q19 -63 68 -63q27 0 45 12t27 21l3 -3q-7 -7 -29 -24q-19 -15 -54 -15zM161 462v-1q-7 0 -15 -6q-8 -7 -14 -21
q-6 -15 -12 -42t-9 -70h93q0 72 -12 106t-31 34zM225 533v-1q-19 0 -33 14q-13 13 -13 33t13 33t33 13t33 -13t13 -33t-13 -33t-33 -13zM96 532v-1q-19 0 -33 14q-13 13 -13 33t13 33t33 13t33 -13t13 -33t-13 -33t-33 -13z" />
    <glyph glyph-name="igrave" unicode="&#xec;" horiz-adv-x="164" 
d="M13 2l-2 -1q10 2 14 6q3 3 7 14q3 9 3 27v49v213q0 34 -1 45q-2 18 -4 25q-3 10 -7 11q-6 2 -12 2v2l115 76v-374v-49q0 -18 3 -27q3 -8 9 -13t16 -6v-2h-141v2zM28 608l-2 1q-13 10 -19 21q-6 10 -6 24t9 23t24 9q14 0 23 -10q10 -12 20 -30l60 -124l-3 -1z" />
    <glyph glyph-name="iacute" unicode="&#xed;" horiz-adv-x="164" 
d="M13 2l-2 -1q10 2 14 6q3 3 7 14q3 9 3 27v49v213q0 34 -1 45q-2 18 -4 25q-3 10 -7 11q-6 2 -12 2v2l115 76v-374v-49q0 -18 3 -27q3 -8 9 -13t16 -6v-2h-141v2zM28 522l59 122q9 20 19 30t24 10t23 -9t9 -22t-6 -24q-6 -10 -20 -21l-105 -87z" />
    <glyph glyph-name="icircumflex" unicode="&#xee;" horiz-adv-x="164" 
d="M13 2l-2 -1q10 2 14 6q3 3 7 14q3 9 3 27v49v213q0 34 -1 45q-2 18 -4 25q-3 10 -7 11q-6 2 -12 2v2l115 76v-374v-49q0 -18 3 -27q3 -8 9 -13t16 -6v-2h-141v2zM80 692l93 -170l-3 -1l-90 78l-90 -78l-3 1z" />
    <glyph glyph-name="idieresis" unicode="&#xef;" horiz-adv-x="164" 
d="M140 536v-1q-19 0 -33 14q-13 13 -13 33t13 33t33 13t33 -13t13 -33t-13 -33t-33 -13zM27 535l-1 -1q-19 0 -33 14q-13 13 -13 33q0 19 14 33q13 13 33 13t33 -13t13 -33t-13 -33t-33 -13zM12 0l-2 -1q10 2 14 6q4 3 7 14q3 9 3 27v49v213q0 34 -1 45q-2 18 -4 25
q-3 10 -7 11q-6 2 -12 2v2l115 76v-374v-49q0 -18 3 -27q3 -8 9 -13t16 -6v-2h-141v2z" />
    <glyph glyph-name="eth" unicode="&#xf0;" horiz-adv-x="350" 
d="M331 275l-2 1q0 -82 -15 -136q-15 -55 -39 -86q-24 -32 -51 -45q-26 -13 -50 -13q-23 0 -50 12q-26 12 -51 41q-23 27 -40 72q-16 42 -16 105q0 67 16 112q17 48 40 75q24 29 51 42q26 13 50 13q29 0 57 -19q-13 89 -51 166l-84 -43l-2 2l85 44q-41 82 -105 138l2 1
q48 -27 80 -55q37 -32 62 -64l86 44l1 -3l-85 -44q31 -38 52 -82q20 -41 34 -90q13 -44 19 -94q6 -48 6 -94zM173 0h-3q14 0 24 12q11 13 20 39q10 29 14 70q5 48 5 108q0 65 -5 117q-5 48 -13 73q-9 29 -19 38q-11 11 -24 11q-12 0 -25 -11q-12 -10 -21 -38q-8 -25 -13 -73
q-5 -52 -5 -117q0 -60 5 -108q4 -41 14 -70q9 -27 21 -39t25 -12z" />
    <glyph glyph-name="ntilde" unicode="&#xf1;" horiz-adv-x="362" 
d="M13 2l-2 -2q10 2 14 6q3 4 7 14q3 9 3 27v49v213q0 34 -1 45q-2 18 -4 25q-3 10 -7 11q-6 2 -12 2v2l115 76v-74q19 21 38 36q16 14 30 21t24 9q14 2 21 2q14 0 27 -4q17 -5 29 -16q13 -11 22 -30q9 -18 9 -45v-274v-49q0 -15 2 -27q1 -8 6 -13q4 -4 14 -6v-2h-142v2
q10 1 16 6q6 4 9 14q3 9 3 27v49v294q0 35 -7 48q-8 14 -21 14q-5 0 -9 -1q-7 -2 -15 -7q-11 -7 -23 -18q-15 -14 -33 -34v-295v-49q0 -18 3 -27q3 -8 9 -13t16 -6v-2h-141v2zM147 613l2 2q11 0 18 -1t23 -3q8 -1 22 -3q7 -1 18 -1q9 0 18 9q12 12 23 28l3 -1
q-19 -88 -51 -88q-17 0 -42 3t-42 3q-8 0 -17 -9q-3 -3 -25 -29l-3 1q12 42 26 66q14 23 27 23z" />
    <glyph glyph-name="ograve" unicode="&#xf2;" horiz-adv-x="349" 
d="M175 -5v-1q-23 0 -50 12q-26 12 -51 41q-23 27 -40 72q-16 42 -16 105q0 67 16 112q17 48 40 75q24 29 51 42q26 13 50 13t50 -13q27 -13 51 -42t39 -75t15 -112q0 -62 -15 -105t-39 -72q-23 -28 -51 -40q-27 -12 -50 -12zM175 -2h-3q14 0 24 12q11 13 20 39q10 29 14 70
q5 48 5 108q0 65 -5 117q-5 48 -13 73q-9 28 -19 38q-11 11 -24 11q-12 0 -25 -11q-12 -10 -21 -38q-8 -25 -13 -73q-5 -52 -5 -117q0 -60 5 -108q4 -41 14 -70q9 -27 21 -39t25 -12zM110 608l-2 1q-13 10 -19 21q-6 10 -6 24t9 23t24 9q14 0 23 -10q10 -12 20 -30l60 -124
l-3 -1z" />
    <glyph glyph-name="oacute" unicode="&#xf3;" horiz-adv-x="349" 
d="M175 -5v-1q-23 0 -50 12q-26 12 -51 41q-23 27 -40 72q-16 42 -16 105q0 67 16 112q17 48 40 75q24 29 51 42q26 13 50 13t50 -13q27 -13 51 -42t39 -75t15 -112q0 -62 -15 -105t-39 -72q-23 -28 -51 -40q-27 -12 -50 -12zM175 -2h-3q14 0 24 12q11 13 20 39q10 29 14 70
q5 48 5 108q0 65 -5 117q-5 48 -13 73q-9 28 -19 38q-11 11 -24 11q-12 0 -25 -11q-12 -10 -21 -38q-8 -25 -13 -73q-5 -52 -5 -117q0 -60 5 -108q4 -41 14 -70q9 -27 21 -39t25 -12zM128 522l59 122q9 20 19 30t24 10t23 -9t9 -22t-6 -24q-6 -10 -20 -21l-105 -87z" />
    <glyph glyph-name="ocircumflex" unicode="&#xf4;" horiz-adv-x="349" 
d="M175 -5v-1q-23 0 -50 12q-26 12 -51 41q-23 27 -40 72q-16 42 -16 105q0 67 16 112q17 48 40 75q24 29 51 42q26 13 50 13t50 -13q27 -13 51 -42t39 -75t15 -112q0 -62 -15 -105t-39 -72q-23 -28 -51 -40q-27 -12 -50 -12zM175 -2h-3q14 0 24 12q11 13 20 39q10 29 14 70
q5 48 5 108q0 65 -5 117q-5 48 -13 73q-9 28 -19 38q-11 11 -24 11q-12 0 -25 -11q-12 -10 -21 -38q-8 -25 -13 -73q-5 -52 -5 -117q0 -60 5 -108q4 -41 14 -70q9 -27 21 -39t25 -12zM171 692l93 -170l-3 -1l-90 78l-90 -78l-3 1z" />
    <glyph glyph-name="otilde" unicode="&#xf5;" horiz-adv-x="349" 
d="M175 -5v-1q-23 0 -50 12q-26 12 -51 41q-23 27 -40 72q-16 42 -16 105q0 67 16 112q17 48 40 75q24 29 51 42q26 13 50 13t50 -13q27 -13 51 -42t39 -75t15 -112q0 -62 -15 -105t-39 -72q-23 -28 -51 -40q-27 -12 -50 -12zM175 -2h-3q14 0 24 12q11 13 20 39q10 29 14 70
q5 48 5 108q0 65 -5 117q-5 48 -13 73q-9 28 -19 38q-11 11 -24 11q-12 0 -25 -11q-12 -10 -21 -38q-8 -25 -13 -73q-5 -52 -5 -117q0 -60 5 -108q4 -41 14 -70q9 -27 21 -39t25 -12zM137 614l2 2q11 0 18 -1t23 -3q8 -1 22 -3q7 -1 18 -1q9 0 18 9q12 12 23 28l3 -1
q-19 -88 -51 -88q-17 0 -42 3t-42 3q-8 0 -17 -9q-3 -3 -25 -29l-3 1q12 42 26 66q14 23 27 23z" />
    <glyph glyph-name="odieresis" unicode="&#xf6;" horiz-adv-x="349" 
d="M175 -5v-1q-23 0 -50 12q-26 12 -51 41q-23 27 -40 72q-16 42 -16 105q0 67 16 112q17 48 40 75q24 29 51 42q26 13 50 13t50 -13q27 -13 51 -42t39 -75t15 -112q0 -62 -15 -105t-39 -72q-23 -28 -51 -40q-27 -12 -50 -12zM175 -2h-3q14 0 24 12q11 13 20 39q10 29 14 70
q5 48 5 108q0 65 -5 117q-5 48 -13 73q-9 28 -19 38q-11 11 -24 11q-12 0 -25 -11q-12 -10 -21 -38q-8 -25 -13 -73q-5 -52 -5 -117q0 -60 5 -108q4 -41 14 -70q9 -27 21 -39t25 -12zM236 535v-1q-19 0 -33 14q-13 13 -13 33t13 33t33 13t33 -13t13 -33t-13 -33t-33 -13z
M107 534v-1q-19 0 -33 14q-13 13 -13 33t13 33t33 13t33 -13t13 -33t-13 -33t-33 -13z" />
    <glyph glyph-name="divide" unicode="&#xf7;" horiz-adv-x="301" 
d="M102 480l-1 -1q0 20 15 35t35 15t35 -15t15 -34q0 -21 -15 -36t-35 -15q-19 0 -34 15t-15 36zM24 354h251v-8h-251v8zM101 219l-1 -1q0 22 15 35q16 14 35 14t35 -14q15 -13 15 -35q0 -19 -15 -34t-35 -15q-19 0 -34 15t-15 35z" />
    <glyph glyph-name="oslash" unicode="&#xf8;" horiz-adv-x="349" 
d="M175 -1l-4 -6q13 0 24 12q11 13 20 39q10 29 14 70q5 48 5 108q0 58 -3 98q-3 35 -8 69l15 54q-2 2 -3 2l8 29l4 -1l-9 -30q36 -24 63 -78t27 -142q0 -61 -15 -105t-39 -72q-23 -28 -51 -40q-27 -12 -50 -12q-12 0 -29 5q-12 4 -31 14l14 46l-2 8l97 333q-9 37 -21 50
q-12 14 -26 14q-12 0 -25 -11q-12 -10 -21 -38q-8 -25 -13 -73q-5 -52 -5 -117q0 -54 3 -93q3 -37 11 -66l-15 -51l3 -3l-10 -35l-4 1l11 37q-18 11 -35 29q-17 19 -29 44q-13 27 -20 60q-8 37 -8 76q0 67 16 112q17 48 40 75q24 29 51 42q26 13 50 13q15 0 30 -4
q17 -4 33 -15l-14 -48l2 -8l-97 -333q7 -31 20 -45q12 -14 26 -14z" />
    <glyph glyph-name="ugrave" unicode="&#xf9;" horiz-adv-x="351" 
d="M128 -7l-5 -3q-13 0 -31 5q-16 4 -30 17q-13 12 -22 31t-9 46v229q0 30 -1 40q-2 16 -4 22q-3 8 -7 9q-6 2 -12 2v2l115 76v-402q0 -36 8 -50t21 -14q7 0 22 9q14 8 48 44v263q0 30 -1 40q-2 16 -4 22q-3 8 -7 9q-6 2 -12 2v2l115 76v-374v-49q0 -15 2 -27q1 -8 6 -13
q4 -5 12 -6v-2h-109v53q-35 -37 -56 -48q-20 -11 -39 -11zM120 606l-2 1q-13 10 -19 21q-6 10 -6 24t9 23t24 9q14 0 23 -10q10 -12 20 -30l60 -124l-3 -1z" />
    <glyph glyph-name="uacute" unicode="&#xfa;" horiz-adv-x="351" 
d="M128 -7l-5 -3q-13 0 -31 5q-16 4 -30 17q-13 12 -22 31t-9 46v229q0 30 -1 40q-2 16 -4 22q-3 8 -7 9q-6 2 -12 2v2l115 76v-402q0 -36 8 -50t21 -14q7 0 22 9q14 8 48 44v263q0 30 -1 40q-2 16 -4 22q-3 8 -7 9q-6 2 -12 2v2l115 76v-374v-49q0 -15 2 -27q1 -8 6 -13
q4 -5 12 -6v-2h-109v53q-35 -37 -56 -48q-20 -11 -39 -11zM138 520l59 122q9 20 19 30t24 10t23 -9t9 -22t-6 -24q-6 -10 -20 -21l-105 -87z" />
    <glyph glyph-name="ucircumflex" unicode="&#xfb;" horiz-adv-x="351" 
d="M128 -7l-5 -3q-13 0 -31 5q-16 4 -30 17q-13 12 -22 31t-9 46v229q0 30 -1 40q-2 16 -4 22q-3 8 -7 9q-6 2 -12 2v2l115 76v-402q0 -36 8 -50t21 -14q7 0 22 9q14 8 48 44v263q0 30 -1 40q-2 16 -4 22q-3 8 -7 9q-6 2 -12 2v2l115 76v-374v-49q0 -15 2 -27q1 -8 6 -13
q4 -5 12 -6v-2h-109v53q-35 -37 -56 -48q-20 -11 -39 -11zM173 690l93 -170l-3 -1l-90 78l-90 -78l-3 1z" />
    <glyph glyph-name="udieresis" unicode="&#xfc;" horiz-adv-x="351" 
d="M128 -7l-5 -3q-13 0 -31 5q-16 4 -30 17q-13 12 -22 31t-9 46v229q0 30 -1 40q-2 16 -4 22q-3 8 -7 9q-6 2 -12 2v2l115 76v-402q0 -36 8 -50t21 -14q7 0 22 9q14 8 48 44v263q0 30 -1 40q-2 16 -4 22q-3 8 -7 9q-6 2 -12 2v2l115 76v-374v-49q0 -15 2 -27q1 -8 6 -13
q4 -5 12 -6v-2h-109v53q-35 -37 -56 -48q-20 -11 -39 -11zM237 533v-1q-19 0 -33 14q-13 13 -13 33t13 33t33 13t33 -13t13 -33t-13 -33t-33 -13zM108 532v-1q-19 0 -33 14q-13 13 -13 33t13 33t33 13t33 -13t13 -33t-13 -33t-33 -13z" />
    <glyph glyph-name="yacute" unicode="&#xfd;" 
d="M36 -175l-2 2q-20 0 -30 9t-10 22q0 16 9 23q10 8 24 8q11 0 17 -3l12 -6l11 -5q6 -3 14 -3q12 0 21 18q10 19 24 61l14 49l-104 356q-4 12 -9 30t-7 24q-7 24 -10 30q-5 11 -9 14q-5 3 -12 6v2h145v-2q-10 -1 -16 -6q-6 -4 -6 -15t3 -30t12 -51l57 -207l52 183
q13 47 17 66q5 24 3 36q-1 11 -9 16t-19 6v2h74v-2q-12 -5 -17 -9q-6 -5 -12 -16q-4 -8 -13 -35q-3 -9 -19 -65l-109 -383q-23 -66 -42 -95q-20 -30 -54 -30zM130 525l59 122q9 20 19 30t24 10t23 -9t9 -22q0 -14 -6 -24t-20 -21l-105 -87z" />
    <glyph glyph-name="thorn" unicode="&#xfe;" horiz-adv-x="356" 
d="M163 -6h-4q-12 0 -24 5q-9 4 -16 9v-80v-49q0 -18 3 -27q2 -8 8 -13q4 -4 14 -6v-2h-139v2q10 2 14 6q3 4 7 14q3 9 3 27v49v699q0 34 -1 45q-2 18 -4 24q-3 7 -8 9q-4 1 -14 3v2l117 61v-367q31 39 48 51t33 12q20 0 41 -10q24 -11 44 -34q21 -24 36 -66t15 -105
q0 -124 -46 -191q-47 -68 -127 -68zM183 458h-1q-1 0 -7 -2q-3 -1 -12 -8q-7 -6 -18 -18q-23 -27 -27 -31v-386q7 -7 16 -11q12 -5 25 -5q38 0 59 57t21 181q0 119 -15 171t-41 52z" />
    <glyph glyph-name="ydieresis" unicode="&#xff;" 
d="M36 -175l-2 2q-20 0 -30 9t-10 22q0 16 9 23q10 8 24 8q11 0 17 -3l12 -6l11 -5q6 -3 14 -3q12 0 21 18q10 19 24 61l14 49l-104 356q-4 12 -9 30t-7 24q-7 24 -10 30q-5 11 -9 14q-5 3 -12 6v2h145v-2q-10 -1 -16 -6q-6 -4 -6 -15t3 -30t12 -51l57 -207l52 183
q13 47 17 66q5 24 3 36q-1 11 -9 16t-19 6v2h74v-2q-12 -5 -17 -9q-6 -5 -12 -16q-4 -8 -13 -35q-3 -9 -19 -65l-109 -383q-23 -66 -42 -95q-20 -30 -54 -30zM233 538v-1q-19 0 -33 14q-13 13 -13 33t13 33t33 13t33 -13t13 -33t-13 -33t-33 -13zM104 537v-1q-19 0 -33 14
q-13 13 -13 33t13 33t33 13t33 -13t13 -33t-13 -33t-33 -13z" />
    <glyph glyph-name="Amacron" unicode="&#x100;" horiz-adv-x="322" 
d="M-8 1h-5q8 5 14 12q5 6 10 21q5 14 9 36q1 5 10 59l76 503l-9 51q-6 41 -16 52q-11 12 -21 15v1h111q6 0 8 -1q3 -1 4 -7l103 -615q4 -32 9 -54q4 -21 9 -37t10 -24q6 -9 14 -12v-1h-140v1q13 5 17 19q4 15 -3 61l-25 144h-126l-14 -96q-7 -41 -8 -59q-2 -24 1 -36
q3 -14 10 -21q8 -7 21 -12v-1h-69v1zM174 229l-67 388l-58 -388h125zM214 789h-161v38h161v-38z" />
    <glyph glyph-name="amacron" unicode="&#x101;" horiz-adv-x="319" 
d="M102 -6v-6q-35 0 -59 26q-24 25 -24 77q0 33 15 54t36 36q20 14 44 27q21 11 39 26q16 13 28 28t12 45v74q0 50 -9 65t-34 15q-17 0 -27 -10q-11 -11 -18 -43q-4 -19 -12 -31q-7 -12 -24 -12t-24 9q-8 10 -8 22q0 11 6 23q5 11 20 22q14 11 35 17t53 6q31 0 52 -4
q24 -4 42 -18q17 -13 28 -36q10 -21 10 -59v-218q0 -49 1 -65q2 -26 4 -37q3 -14 7 -18t12 -4q10 0 21 8l1 -2q-8 -6 -18 -11q-12 -6 -41 -6q-36 0 -54 15t-21 38q-9 -10 -24 -25q-9 -9 -21 -16q-10 -6 -21 -9t-27 -3zM108 109l-1 -1q0 -55 10 -79q10 -25 25 -25q4 0 6 1
q3 1 9 6q8 6 14 12l21 21v232q-4 -16 -15 -27t-24 -21q-16 -15 -24 -25q-10 -14 -14 -25q-5 -14 -6 -30q-1 -11 -1 -39zM234 586v-38h-153v38h153z" />
    <glyph glyph-name="Abreve" unicode="&#x102;" horiz-adv-x="322" 
d="M-8 1h-5q8 5 14 12q5 6 10 21q5 14 9 36q1 5 10 59l76 503l-9 51q-6 41 -16 52q-11 12 -21 15v1h111q6 0 8 -1q3 -1 4 -7l103 -615q4 -32 9 -54q4 -21 9 -37t10 -24q6 -9 14 -12v-1h-140v1q13 5 17 19q4 15 -3 61l-25 144h-126l-14 -96q-7 -41 -8 -59q-2 -24 1 -36
q3 -14 10 -21q8 -7 21 -12v-1h-69v1zM174 229l-67 388l-58 -388h125zM132 831h-1q27 0 44 11t26 30h4q-1 -44 -21 -70q-19 -25 -54 -25q-32 0 -52 26q-19 25 -21 71h4q7 -18 26 -31q18 -12 45 -12z" />
    <glyph glyph-name="abreve" unicode="&#x103;" horiz-adv-x="319" 
d="M102 -6v-6q-35 0 -59 26q-24 25 -24 77q0 33 15 54t36 36q20 14 44 27q21 11 39 26q16 13 28 28t12 45v74q0 50 -9 65t-34 15q-17 0 -27 -10q-11 -11 -18 -43q-4 -19 -12 -31q-7 -12 -24 -12t-24 9q-8 10 -8 22q0 11 6 23q5 11 20 22q14 11 35 17t53 6q31 0 52 -4
q24 -4 42 -18q17 -13 28 -36q10 -21 10 -59v-218q0 -49 1 -65q2 -26 4 -37q3 -14 7 -18t12 -4q10 0 21 8l1 -2q-8 -6 -18 -11q-12 -6 -41 -6q-36 0 -54 15t-21 38q-9 -10 -24 -25q-9 -9 -21 -16q-10 -6 -21 -9t-27 -3zM108 109l-1 -1q0 -55 10 -79q10 -25 25 -25q4 0 6 1
q3 1 9 6q8 6 14 12l21 21v232q-4 -16 -15 -27t-24 -21q-16 -15 -24 -25q-10 -14 -14 -25q-5 -14 -6 -30q-1 -11 -1 -39zM158 581q32 0 47 12t21 29h4q0 -37 -17 -66t-54 -29t-55 29q-18 28 -18 68h4q4 -16 21 -30q16 -13 47 -13z" />
    <glyph glyph-name="Aogonek" unicode="&#x104;" horiz-adv-x="322" 
d="M-8 1l-8 -1q8 5 14 12q5 6 10 21q4 13 9 36q1 5 10 59l76 503l-9 51q-3 23 -7 32q-4 11 -9 19q-4 7 -9 10q-5 4 -11 5v1h111q6 0 8 -1q3 -1 4 -7l103 -615q4 -32 9 -54q4 -21 9 -37t10 -24q6 -9 14 -12v-1h-84q-30 0 -49 -27q-19 -26 -19 -72q0 -22 11 -35q11 -12 27 -12
q15 0 23 4q10 5 17 12l2 -2q-4 -6 -10 -12q-8 -8 -18 -15q-11 -8 -25 -12q-17 -5 -33 -5q-32 0 -50 18t-18 46q0 22 14 42t33 33q22 15 39 23q5 2 15.5 7t14.5 7l-39 227h-126l-14 -96q-7 -41 -8 -59q-2 -24 1 -36q3 -14 10 -21q8 -7 21 -12v-1h-69v1zM171 228l-67 388
l-58 -388h125z" />
    <glyph glyph-name="aogonek" unicode="&#x105;" horiz-adv-x="319" 
d="M102 -6l-1 -12q-35 0 -59 26t-24 77q0 33 15 54t36 36q20 14 44 27q21 11 39 26q16 13 28 28t12 45v74q0 50 -9 65t-34 15q-17 0 -27 -10q-11 -11 -18 -43q-4 -19 -12 -31t-24 -12t-24 9q-8 10 -8 22q0 11 6 23q5 11 20 22q14 11 35 17t53 6q31 0 52 -4q24 -4 42 -18
q17 -13 28 -36q10 -21 10 -59v-218q0 -49 1 -65q2 -26 4 -37q3 -14 7 -18t12 -4q10 0 21 8l1 -2l-9 -6l-12 -7q-19 -10 -37 -37t-18 -63q0 -45 35 -45q15 0 23 4q10 5 17 12l2 -2q-3 -5 -9 -12q-7 -8 -16 -15q-10 -8 -24 -12q-15 -5 -31 -5q-34 0 -52 18t-18 46q0 19 12 37
t30 33q20 16 39 26q23 11 40 18q-5 -1 -15 -1h-15q-36 0 -54 15t-21 38q-9 -10 -24 -25q-9 -9 -21 -16q-10 -6 -21 -9t-27 -3zM107 103l-1 -1q0 -55 10 -79q10 -25 25 -25q4 0 6 1q3 1 9 6q8 6 14 12l21 21v232q-5 -16 -15 -27t-24 -21q-16 -15 -24 -25q-10 -14 -14 -25
q-4 -14 -6 -30q-1 -11 -1 -39z" />
    <glyph glyph-name="Cacute" unicode="&#x106;" horiz-adv-x="332" 
d="M226 -7l-4 -5q-34 0 -73 17q-37 17 -66 60q-29 44 -47 119t-18 194q0 108 17 182q16 70 44 115q27 43 60 60q34 17 65 17q14 0 23 -3q12 -4 17 -7t15 -7q7 -3 15 -3q11 0 19 7t13 21h3v-156h-3q-11 49 -22 75q-13 30 -25 45q-13 16 -27 22t-25 6q-19 0 -34 -18
q-14 -17 -25 -60q-10 -39 -16 -111q-6 -69 -6 -171q0 -114 9 -189t24 -120t36 -63t47 -18q25 0 45 14q21 14 35 33l3 -3q-13 -19 -38 -36t-61 -17zM120 771l100 78q9 7 20 12q10 5 20 5q14 0 21 -9q8 -10 8 -21q0 -28 -41 -39l-127 -28z" />
    <glyph glyph-name="cacute" unicode="&#x107;" horiz-adv-x="281" 
d="M184 -4l-3 -2q-32 0 -63 14t-53 42q-23 29 -36 73q-13 43 -13 107q0 62 15 105q15 42 38 72q22 28 50 42t51 14q20 0 36 -4q19 -5 32 -12q14 -8 23 -20t9 -27q0 -14 -9 -24t-23 -10q-16 0 -27 11t-12 36q-3 24 -8 36q-5 11 -20 11q-16 0 -28 -17q-11 -15 -19 -45
q-7 -26 -10 -69q-3 -41 -3 -85q0 -118 21 -179q21 -62 66 -62q23 0 43 14q18 13 30 26l3 -3l-12 -12q-8 -8 -18 -15t-26 -12q-17 -5 -34 -5zM121 521l59 122q9 20 19 30t24 10t23 -9t9 -22q0 -14 -6 -24t-20 -21l-105 -87z" />
    <glyph glyph-name="Ccircumflex" unicode="&#x108;" horiz-adv-x="332" 
d="M226 -7l-4 -5q-34 0 -73 17q-37 17 -66 60q-29 44 -47 119t-18 194q0 108 17 182q16 70 44 115q27 43 60 60q34 17 65 17q14 0 23 -3q12 -4 17 -7t15 -7q7 -3 15 -3q11 0 19 7t13 21h3v-156h-3q-11 49 -22 75q-13 30 -25 45q-13 16 -27 22t-25 6q-19 0 -34 -18
q-14 -17 -25 -60q-10 -39 -16 -111q-6 -69 -6 -171q0 -114 9 -189t24 -120t36 -63t47 -18q25 0 45 14q21 14 35 33l3 -3q-13 -19 -38 -36t-61 -17zM197 879l109 -108l-3 -2l-106 44l-106 -44l-2 2z" />
    <glyph glyph-name="ccircumflex" unicode="&#x109;" horiz-adv-x="281" 
d="M184 -4l-3 -2q-32 0 -63 14t-53 42q-23 29 -36 73q-13 43 -13 107q0 62 15 105q15 42 38 72q22 28 50 42t51 14q20 0 36 -4q19 -5 32 -12q14 -8 23 -20t9 -27q0 -14 -9 -24t-23 -10q-16 0 -27 11t-12 36q-3 24 -8 36q-5 11 -20 11q-16 0 -28 -17q-11 -15 -19 -45
q-7 -26 -10 -69q-3 -41 -3 -85q0 -118 21 -179q21 -62 66 -62q23 0 43 14q18 13 30 26l3 -3l-12 -12q-8 -8 -18 -15t-26 -12q-17 -5 -34 -5zM167 691l93 -170l-3 -1l-90 78l-90 -78l-3 1z" />
    <glyph glyph-name="Cdotaccent" unicode="&#x10a;" horiz-adv-x="332" 
d="M226 -7l-4 -5q-34 0 -73 17q-37 17 -66 60q-29 44 -47 119t-18 194q0 108 17 182q16 70 44 115q27 43 60 60q34 17 65 17q14 0 23 -3q12 -4 17 -7t15 -7q7 -3 15 -3q11 0 19 7t13 21h3v-156h-3q-11 49 -22 75q-13 30 -25 45q-13 16 -27 22t-25 6q-19 0 -34 -18
q-14 -17 -25 -60q-10 -39 -16 -111q-6 -69 -6 -171q0 -114 9 -189t24 -120t36 -63t47 -18q25 0 45 14q21 14 35 33l3 -3q-13 -19 -38 -36t-61 -17zM195 773q-22 0 -37 15t-15 36t15 36t37 15q21 0 36 -15t15 -36t-15 -36t-36 -15z" />
    <glyph glyph-name="cdotaccent" unicode="&#x10b;" horiz-adv-x="281" 
d="M184 -4l-3 -2q-32 0 -63 14t-53 42q-23 29 -36 73q-13 43 -13 107q0 62 15 105q15 42 38 72q22 28 50 42t51 14q20 0 36 -4q19 -5 32 -12q14 -8 23 -20t9 -27q0 -14 -9 -24t-23 -10q-16 0 -27 11t-12 36q-3 24 -8 36q-5 11 -20 11q-16 0 -28 -17q-11 -15 -19 -45
q-7 -26 -10 -69q-3 -41 -3 -85q0 -118 21 -179q21 -62 66 -62q23 0 43 14q18 13 30 26l3 -3l-12 -12q-8 -8 -18 -15t-26 -12q-17 -5 -34 -5zM167 534q-21 0 -36 15t-15 37q0 21 15 36t36 15q22 0 37 -15t15 -36q0 -22 -15 -37t-37 -15z" />
    <glyph glyph-name="Ccaron" unicode="&#x10c;" horiz-adv-x="332" 
d="M226 -7l-4 -5q-34 0 -73 17q-37 17 -66 60q-29 44 -47 119t-18 194q0 108 17 182q16 70 44 115q27 43 60 60q34 17 65 17q14 0 23 -3q12 -4 17 -7t15 -7q7 -3 15 -3q11 0 19 7t13 21h3v-156h-3q-11 49 -22 75q-13 30 -25 45q-13 16 -27 22t-25 6q-19 0 -34 -18
q-14 -17 -25 -60q-10 -39 -16 -111q-6 -69 -6 -171q0 -114 9 -189t24 -120t36 -63t47 -18q25 0 45 14q21 14 35 33l3 -3q-13 -19 -38 -36t-61 -17zM94 883l106 -43l106 43l3 -1l-109 -109l-108 109z" />
    <glyph glyph-name="ccaron" unicode="&#x10d;" horiz-adv-x="281" 
d="M184 -4l-3 -2q-32 0 -63 14t-53 42q-23 29 -36 73q-13 43 -13 107q0 62 15 105q15 42 38 72q22 28 50 42t51 14q20 0 36 -4q19 -5 32 -12q14 -8 23 -20t9 -27q0 -14 -9 -24t-23 -10q-16 0 -27 11t-12 36q-3 24 -8 36q-5 11 -20 11q-16 0 -28 -17q-11 -15 -19 -45
q-7 -26 -10 -69q-3 -41 -3 -85q0 -118 21 -179q21 -62 66 -62q23 0 43 14q18 13 30 26l3 -3l-12 -12q-8 -8 -18 -15t-26 -12q-17 -5 -34 -5zM77 689l90 -78l90 78l3 -1l-93 -169l-93 169z" />
    <glyph glyph-name="Dcaron" unicode="&#x10e;" horiz-adv-x="418" 
d="M13 2l-1 4q10 3 17 8q6 4 9 20q2 12 4 45q1 20 1 83v430q0 63 -1 83q-2 33 -4 45q-3 16 -9 20q-7 5 -17 8v2h143q53 0 98 -21t78 -66t51 -114t18 -164q0 -184 -61 -284q-62 -101 -183 -101h-143v2zM144 750l-1 -746h11q33 0 59 20t44 65t27 119t9 180q0 113 -13 181
q-14 72 -34 111q-21 40 -45 55t-46 15h-11zM84 889l106 -43l106 43l3 -1l-109 -109l-108 109z" />
    <glyph glyph-name="dcaron" unicode="&#x10f;" horiz-adv-x="364" 
d="M150 -6l-1 -2q-25 0 -49 12t-42 41q-19 30 -29 72q-11 46 -11 107q0 66 15 112q15 45 38 75q22 28 50 42q26 13 53 13q32 0 63 -33v187q0 36 -1 47q-2 18 -4 24q-3 7 -9 9q-8 2 -16 2v2l120 66v-673v-49q0 -18 3 -27q3 -8 9 -13t16 -6v-2h-117v63q-30 -39 -48 -54
t-40 -15zM113 234l-1 -2q0 -57 5 -105q5 -44 12 -71q7 -26 18 -40q10 -13 21 -13q2 0 8 2q3 1 12 8q5 4 19 18q10 10 28 33v361q-19 19 -31 26q-15 9 -31 9q-13 0 -24 -12q-10 -11 -19 -39q-8 -25 -13 -70q-4 -39 -4 -105zM349 565l10 133q3 56 35 56q16 0 23 -9
q8 -10 8 -22q0 -17 -10 -36l-63 -123z" />
    <glyph glyph-name="Dcroat" unicode="&#x110;" horiz-adv-x="418" 
d="M13 2l-1 4q10 3 17 8q6 4 9 20q2 12 4 45q1 20 1 83v230h-47v4h47v196q0 63 -1 83q-2 33 -4 45q-3 16 -9 20q-7 5 -17 8v2h143q53 0 98 -21t78 -66t51 -114t18 -164q0 -184 -61 -284q-62 -101 -183 -101h-143v2zM144 7l10 -3q33 0 59 20t44 65t27 119t9 180
q0 113 -13 181q-14 72 -34 111q-21 40 -45 55t-46 15h-11v-352h76v-4h-76v-387z" />
    <glyph glyph-name="dcroat" unicode="&#x111;" horiz-adv-x="364" 
d="M147 573h231v-4h-231v4zM150 -6l-1 -2q-25 0 -49 12t-42 41q-19 30 -29 72q-11 46 -11 107q0 66 15 112q15 45 38 75q22 28 50 42q26 13 53 13q32 0 63 -33v187q0 36 -1 47q-2 18 -4 24q-3 7 -9 9q-8 2 -16 2v2l120 66v-673v-49q0 -18 3 -27q3 -8 9 -13t16 -6v-2h-117v63
q-30 -39 -48 -54t-40 -15zM113 234l-1 -2q0 -57 5 -105q5 -44 12 -71q7 -26 18 -40q10 -13 21 -13q2 0 8 2q3 1 12 8q5 4 19 18q10 10 28 33v361q-19 19 -31 26q-15 9 -31 9q-13 0 -24 -12q-10 -11 -19 -39q-8 -25 -13 -70q-4 -39 -4 -105z" />
    <glyph glyph-name="Emacron" unicode="&#x112;" horiz-adv-x="337" 
d="M13 2l-2 5q10 3 17 8q6 4 9 20q2 12 4 45q1 20 1 83v430q0 63 -1 83q-2 33 -4 45q-3 16 -9 20q-7 5 -17 8v2h269q4 0 8 -2t5 -12l16 -89h-3q-17 59 -54 80q-38 21 -93 21h-16v-333h12q26 0 40 7q15 7 24 18q8 10 13 24q6 18 8 27h1v-159h-1q-4 18 -7 27q-5 14 -13 24
q-9 10 -24 18q-14 7 -40 7h-12v-405h26q34 0 59 3t45 15t33 34q14 24 23 60h4l-12 -106q-2 -8 -4 -9t-6 -1h-299v2zM251 794h-161v38h161v-38z" />
    <glyph glyph-name="emacron" unicode="&#x113;" 
d="M189 -4l-1 -2q-76 0 -124 56t-48 177q0 59 14 106q13 44 35 75q21 30 47 45t48 15q56 0 84 -42q29 -43 35 -106h-169q-1 -9 -1 -30v-34q0 -123 20 -188q19 -63 68 -63q27 0 45 12t27 21l3 -3q-7 -7 -29 -24q-19 -15 -54 -15zM161 462v-1q-7 0 -15 -6q-8 -7 -14 -21
q-6 -15 -12 -42t-9 -70h93q0 72 -12 106t-31 34zM238 590v-38h-153v38h153z" />
    <glyph glyph-name="Ebreve" unicode="&#x114;" horiz-adv-x="337" 
d="M13 2l-2 5q10 3 17 8q6 4 9 20q2 12 4 45q1 20 1 83v430q0 63 -1 83q-2 33 -4 45q-3 16 -9 20q-7 5 -17 8v2h269q4 0 8 -2t5 -12l16 -89h-3q-17 59 -54 80q-38 21 -93 21h-16v-333h12q26 0 40 7q15 7 24 18q8 10 13 24q6 18 8 27h1v-159h-1q-4 18 -7 27q-5 14 -13 24
q-9 10 -24 18q-14 7 -40 7h-12v-405h26q34 0 59 3t45 15t33 34q14 24 23 60h4l-12 -106q-2 -8 -4 -9t-6 -1h-299v2zM168 836h-1q27 0 44 11t26 30h4q-1 -44 -21 -70q-19 -25 -54 -25q-32 0 -52 26q-19 25 -21 71h4q7 -18 26 -31q18 -12 45 -12z" />
    <glyph glyph-name="ebreve" unicode="&#x115;" 
d="M189 -4l-1 -2q-76 0 -124 56t-48 177q0 59 14 106q13 44 35 75q21 30 47 45t48 15q56 0 84 -42q29 -43 35 -106h-169q-1 -9 -1 -30v-34q0 -123 20 -188q19 -63 68 -63q27 0 45 12t27 21l3 -3q-7 -7 -29 -24q-19 -15 -54 -15zM161 462v-1q-7 0 -15 -6q-8 -7 -14 -21
q-6 -15 -12 -42t-9 -70h93q0 72 -12 106t-31 34zM161 585q32 0 47 12t21 29h4q0 -37 -17 -66t-54 -29t-55 29q-18 28 -18 68h4q5 -16 21 -30q16 -13 47 -13z" />
    <glyph glyph-name="Edotaccent" unicode="&#x116;" horiz-adv-x="337" 
d="M13 2l-2 5q10 3 17 8q6 4 9 20q2 12 4 45q1 20 1 83v430q0 63 -1 83q-2 33 -4 45q-3 16 -9 20q-7 5 -17 8v2h269q4 0 8 -2t5 -12l16 -89h-3q-17 59 -54 80q-38 21 -93 21h-16v-333h12q26 0 40 7q15 7 24 18q8 10 13 24q6 18 8 27h1v-159h-1q-4 18 -7 27q-5 14 -13 24
q-9 10 -24 18q-14 7 -40 7h-12v-405h26q34 0 59 3t45 15t33 34q14 24 23 60h4l-12 -106q-2 -8 -4 -9t-6 -1h-299v2zM170 783q-22 0 -37 15t-15 36t15 36t37 15q21 0 36 -15t15 -36t-15 -36t-36 -15z" />
    <glyph glyph-name="edotaccent" unicode="&#x117;" 
d="M189 -4l-1 -2q-76 0 -124 56t-48 177q0 59 14 106q13 44 35 75q21 30 47 45t48 15q56 0 84 -42q29 -43 35 -106h-169q-1 -9 -1 -30v-34q0 -123 20 -188q19 -63 68 -63q27 0 45 12t27 21l3 -3q-7 -7 -29 -24q-19 -15 -54 -15zM161 462v-1q-7 0 -15 -6q-8 -7 -14 -21
q-6 -15 -12 -42t-9 -70h93q0 72 -12 106t-31 34zM162 533q-21 0 -36 15t-15 37q0 21 15 36t36 15q22 0 37 -15t15 -36q0 -22 -15 -37t-37 -15z" />
    <glyph glyph-name="Eogonek" unicode="&#x118;" horiz-adv-x="337" 
d="M13 2l-2 5q10 3 17 8q6 4 9 20q2 12 4 45q1 20 1 83v430q0 63 -1 83q-2 33 -4 45q-3 16 -9 20q-7 5 -17 8v2h269q4 0 8 -2t5 -12l16 -89h-3q-17 59 -54 80q-38 21 -93 21h-16v-333h12q26 0 40 7q15 7 24 18q8 10 13 24q6 18 8 27h1v-159h-1q-4 18 -7 27q-5 14 -13 24
q-9 10 -24 18q-14 7 -40 7h-12v-405h26q34 0 59 3t45 15t33 34q14 24 23 60h4l-12 -106q-2 -8 -4 -9t-6 -1h-299v2zM211 -173l1 -5q-32 0 -50 18t-18 46q0 21 12 39q11 17 29 33t36 26q19 10 36 18h4q-15 -15 -29 -39q-15 -25 -15 -60q0 -21 11 -34q10 -12 27 -12q15 0 23 4
q10 5 17 12l2 -2q-4 -6 -10 -12q-7 -7 -18 -15t-25 -12q-17 -5 -33 -5z" />
    <glyph glyph-name="eogonek" unicode="&#x119;" 
d="M258 -132l-1 -9q-4 -6 -10 -12q-7 -7 -18 -15t-25 -12q-17 -5 -33 -5q-31 0 -51 18q-19 18 -19 46q0 19 11 36q11 18 27 32t38 27t43 21l-15 -3q-5 -1 -15 -1q-76 0 -124 56q-48 55 -48 177q0 59 14 106q13 44 35 75q21 29 47 45q26 15 48 15q56 0 84 -42q29 -43 35 -106
h-169q-1 -9 -1 -30v-34q0 -123 20 -188q19 -63 68 -63q27 0 45 12t27 21l3 -3q-7 -7 -13 -12q-8 -7 -22 -13q-22 -10 -42 -38q-19 -26 -19 -69q0 -21 11 -34q11 -12 27 -12q15 0 23 4q10 5 17 12zM161 455v-1q-7 0 -15 -6q-8 -7 -14 -21q-6 -15 -12 -42t-9 -70h93
q0 71 -12 106q-12 34 -31 34z" />
    <glyph glyph-name="Ecaron" unicode="&#x11a;" horiz-adv-x="337" 
d="M13 2l-2 5q10 3 17 8q6 4 9 20q2 12 4 45q1 20 1 83v430q0 63 -1 83q-2 33 -4 45q-3 16 -9 20q-7 5 -17 8v2h269q4 0 8 -2t5 -12l16 -89h-3q-17 59 -54 80q-38 21 -93 21h-16v-333h12q26 0 40 7q15 7 24 18q8 10 13 24q6 18 8 27h1v-159h-1q-4 18 -7 27q-5 14 -13 24
q-9 10 -24 18q-14 7 -40 7h-12v-405h26q34 0 59 3t45 15t33 34q14 24 23 60h4l-12 -106q-2 -8 -4 -9t-6 -1h-299v2zM64 893l106 -43l106 43l3 -1l-109 -109l-108 109z" />
    <glyph glyph-name="ecaron" unicode="&#x11b;" 
d="M189 -4l-1 -2q-76 0 -124 56t-48 177q0 59 14 106q13 44 35 75q21 30 47 45t48 15q56 0 84 -42q29 -43 35 -106h-169q-1 -9 -1 -30v-34q0 -123 20 -188q19 -63 68 -63q27 0 45 12t27 21l3 -3q-7 -7 -29 -24q-19 -15 -54 -15zM161 462v-1q-7 0 -15 -6q-8 -7 -14 -21
q-6 -15 -12 -42t-9 -70h93q0 72 -12 106t-31 34zM71 687l90 -78l90 78l3 -1l-93 -169l-93 169z" />
    <glyph glyph-name="Gcircumflex" unicode="&#x11c;" horiz-adv-x="391" 
d="M225 -8l-2 2q-100 0 -153 98q-52 97 -52 291q0 97 17 170q17 71 45 116q29 45 65 68q35 22 75 22q16 0 29 -5q14 -5 21 -10q6 -4 18 -10q10 -5 19 -5q7 0 12 6q4 6 9 20h2v-157h-2q-8 47 -19 74q-12 30 -27 48q-16 19 -31 26q-18 8 -33 8q-23 0 -41 -19t-30 -63t-18 -112
q-6 -69 -6 -168q0 -206 27 -300t74 -94q14 0 21 6t12 21q4 15 6 41q2 34 2 63v43q0 63 -1 83q-2 33 -4 45q-3 16 -10 20q-9 5 -18 8v2h157v-2q-10 -3 -17 -8q-6 -4 -9 -20q-2 -12 -4 -45q-1 -20 -1 -82v-113q-8 -12 -21 -24q-13 -11 -31 -22q-16 -10 -39 -16q-21 -6 -42 -6z
M214 886l109 -108l-3 -2l-106 44l-106 -44l-2 2z" />
    <glyph glyph-name="gcircumflex" unicode="&#x11d;" horiz-adv-x="308" 
d="M151 154v-8q-32 0 -63 16l-2 -1q-18 -11 -23 -19q-6 -9 -6 -16q0 -3 2 -9q1 -4 8 -9q6 -4 20 -9q21 -7 36 -11l92 -27q59 -17 81 -46q23 -31 23 -66q0 -34 -13 -57t-36 -40t-52 -24q-32 -8 -61 -8q-31 0 -60 6t-51 18t-36 29q-13 16 -13 36q0 16 8 30t21 26q12 10 30 22
l33 21q-36 14 -51 33t-15 45q0 31 19 49q20 18 39 30l3 2q-28 17 -47 49q-20 34 -20 87q0 45 13 74q14 31 33 50q20 20 42 29q23 9 44 9q16 0 34 -6q21 -7 35 -16q26 20 40 27q16 8 29 8q29 0 29 -29q0 -12 -7 -19t-18 -7q-9 0 -14 4l-12 9l-12 9q-5 4 -13 4q-9 0 -19 -5
q26 -20 45 -52t19 -85q0 -44 -13 -73q-14 -30 -33 -48q-19 -17 -43 -25q-22 -7 -45 -7zM47 -84l1 -3q0 -45 26 -69t83 -24q60 0 95 24t35 61q0 27 -21 41t-70 27l-89 26l-12 4q-25 -17 -36 -34q-12 -18 -12 -53zM152 147l-1 -1q9 0 19 8q9 7 16 25q8 18 12 46q4 25 4 71
q0 84 -15 120t-35 36q-19 0 -34 -36t-15 -120q0 -83 15 -116t34 -33zM153 681l93 -170l-3 -1l-90 78l-90 -78l-3 1z" />
    <glyph glyph-name="Gbreve" unicode="&#x11e;" horiz-adv-x="391" 
d="M225 -8l-2 2q-100 0 -153 98q-52 97 -52 291q0 97 17 170q17 71 45 116q29 45 65 68q35 22 75 22q16 0 29 -5q14 -5 21 -10q6 -4 18 -10q10 -5 19 -5q7 0 12 6q4 6 9 20h2v-157h-2q-8 47 -19 74q-12 30 -27 48q-16 19 -31 26q-18 8 -33 8q-23 0 -41 -19t-30 -63t-18 -112
q-6 -69 -6 -168q0 -206 27 -300t74 -94q14 0 21 6t12 21q4 15 6 41q2 34 2 63v43q0 63 -1 83q-2 33 -4 45q-3 16 -10 20q-9 5 -18 8v2h157v-2q-10 -3 -17 -8q-6 -4 -9 -20q-2 -12 -4 -45q-1 -20 -1 -82v-113q-8 -12 -21 -24q-13 -11 -31 -22q-16 -10 -39 -16q-21 -6 -42 -6z
M216 833h-1q27 0 44 11t26 30h4q-1 -44 -21 -70q-19 -25 -54 -25q-32 0 -52 26q-19 25 -21 71h4q7 -18 26 -31q18 -12 45 -12z" />
    <glyph glyph-name="gbreve" unicode="&#x11f;" horiz-adv-x="308" 
d="M151 154v-8q-32 0 -63 16l-2 -1q-18 -11 -23 -19q-6 -9 -6 -16q0 -3 2 -9q1 -4 8 -9q6 -4 20 -9q21 -7 36 -11l92 -27q59 -17 81 -46q23 -31 23 -66q0 -34 -13 -57t-36 -40t-52 -24q-32 -8 -61 -8q-31 0 -60 6t-51 18t-36 29q-13 16 -13 36q0 16 8 30t21 26q12 10 30 22
l33 21q-36 14 -51 33t-15 45q0 31 19 49q20 18 39 30l3 2q-28 17 -47 49q-20 34 -20 87q0 45 13 74q14 31 33 50q20 20 42 29q23 9 44 9q16 0 34 -6q21 -7 35 -16q26 20 40 27q16 8 29 8q29 0 29 -29q0 -12 -7 -19t-18 -7q-9 0 -14 4l-12 9l-12 9q-5 4 -13 4q-9 0 -19 -5
q26 -20 45 -52t19 -85q0 -44 -13 -73q-14 -30 -33 -48q-19 -17 -43 -25q-22 -7 -45 -7zM47 -84l1 -3q0 -45 26 -69t83 -24q60 0 95 24t35 61q0 27 -21 41t-70 27l-89 26l-12 4q-25 -17 -36 -34q-12 -18 -12 -53zM152 147l-1 -1q9 0 19 8q9 7 16 25q8 18 12 46q4 25 4 71
q0 84 -15 120t-35 36q-19 0 -34 -36t-15 -120q0 -83 15 -116t34 -33zM153 576q32 0 47 12t21 29h4q0 -37 -17 -66t-54 -29t-55 29t-18 68h4q5 -17 21 -30t47 -13z" />
    <glyph glyph-name="Gdotaccent" unicode="&#x120;" horiz-adv-x="391" 
d="M225 -8l-2 2q-100 0 -153 98q-52 97 -52 291q0 97 17 170q17 71 45 116q29 45 65 68q35 22 75 22q16 0 29 -5q14 -5 21 -10q6 -4 18 -10q10 -5 19 -5q7 0 12 6q4 6 9 20h2v-157h-2q-8 47 -19 74q-12 30 -27 48q-16 19 -31 26q-18 8 -33 8q-23 0 -41 -19t-30 -63t-18 -112
q-6 -69 -6 -168q0 -206 27 -300t74 -94q14 0 21 6t12 21q4 15 6 41q2 34 2 63v43q0 63 -1 83q-2 33 -4 45q-3 16 -10 20q-9 5 -18 8v2h157v-2q-10 -3 -17 -8q-6 -4 -9 -20q-2 -12 -4 -45q-1 -20 -1 -82v-113q-8 -12 -21 -24q-13 -11 -31 -22q-16 -10 -39 -16q-21 -6 -42 -6z
M216 780q-22 0 -37 15t-15 36t15 36t37 15q21 0 36 -15t15 -36t-15 -36t-36 -15z" />
    <glyph glyph-name="gdotaccent" unicode="&#x121;" horiz-adv-x="308" 
d="M151 154v-8q-32 0 -63 16l-2 -1q-18 -11 -23 -19q-6 -9 -6 -16q0 -3 2 -9q1 -4 8 -9q6 -4 20 -9q21 -7 36 -11l92 -27q59 -17 81 -46q23 -31 23 -66q0 -34 -13 -57t-36 -40t-52 -24q-32 -8 -61 -8q-31 0 -60 6t-51 18t-36 29q-13 16 -13 36q0 16 8 30t21 26q12 10 30 22
l33 21q-36 14 -51 33t-15 45q0 31 19 49q20 18 39 30l3 2q-28 17 -47 49q-20 34 -20 87q0 45 13 74q14 31 33 50q20 20 42 29q23 9 44 9q16 0 34 -6q21 -7 35 -16q26 20 40 27q16 8 29 8q29 0 29 -29q0 -12 -7 -19t-18 -7q-9 0 -14 4l-12 9l-12 9q-5 4 -13 4q-9 0 -19 -5
q26 -20 45 -52t19 -85q0 -44 -13 -73q-14 -30 -33 -48q-19 -17 -43 -25q-22 -7 -45 -7zM47 -84l1 -3q0 -45 26 -69t83 -24q60 0 95 24t35 61q0 27 -21 41t-70 27l-89 26l-12 4q-25 -17 -36 -34q-12 -18 -12 -53zM152 147l-1 -1q9 0 19 8q9 7 16 25q8 18 12 46q4 25 4 71
q0 84 -15 120t-35 36q-19 0 -34 -36t-15 -120q0 -83 15 -116t34 -33zM153 524q-21 0 -36 15t-15 37q0 21 15 36t36 15q22 0 37 -15t15 -36q0 -22 -15 -37t-37 -15z" />
    <glyph glyph-name="uni0122" unicode="&#x122;" horiz-adv-x="391" 
d="M225 -8l-2 2q-100 0 -153 98q-52 97 -52 291q0 97 17 170q17 71 45 116q29 45 65 68q35 22 75 22q16 0 29 -5q14 -5 21 -10q6 -4 18 -10q10 -5 19 -5q7 0 12 6q4 6 9 20h2v-157h-2q-8 47 -19 74q-12 30 -27 48q-16 19 -31 26q-18 8 -33 8q-23 0 -41 -19t-30 -63t-18 -112
q-6 -69 -6 -168q0 -206 27 -300t74 -94q14 0 21 6t12 21q4 15 6 41q2 34 2 63v43q0 63 -1 83q-2 33 -4 45q-3 16 -10 20q-9 5 -18 8v2h157v-2q-10 -3 -17 -8q-6 -4 -9 -20q-2 -12 -4 -45q-1 -20 -1 -82v-113q-8 -12 -21 -24q-13 -11 -31 -22q-16 -10 -39 -16q-21 -6 -42 -6z
M250 -109l-3 1q-2 -4 -12 -10q-9 -6 -24 -6q-17 0 -31 12q-13 12 -13 32q0 22 15 34t34 12q22 0 38 -15q17 -15 17 -46q0 -41 -22 -60t-54 -22l-2 5q29 4 45 18q17 14 17 33q0 7 -5 12z" />
    <glyph glyph-name="uni0123" unicode="&#x123;" horiz-adv-x="308" 
d="M151 154v-8q-32 0 -63 16l-2 -1q-18 -11 -23 -19q-6 -9 -6 -16q0 -3 2 -9q1 -4 8 -9q6 -4 20 -9q21 -7 36 -11l92 -27q59 -17 81 -46q23 -31 23 -66q0 -34 -13 -57t-36 -40t-52 -24q-32 -8 -61 -8q-31 0 -60 6t-51 18t-36 29q-13 16 -13 36q0 16 8 30t21 26q12 10 30 22
l33 21q-36 14 -51 33t-15 45q0 31 19 49q20 18 39 30l3 2q-28 17 -47 49q-20 34 -20 87q0 45 13 74q14 31 33 50q20 20 42 29q23 9 44 9q16 0 34 -6q21 -7 35 -16q26 20 40 27q16 8 29 8q29 0 29 -29q0 -12 -7 -19t-18 -7q-9 0 -14 4l-12 9l-12 9q-5 4 -13 4q-9 0 -19 -5
q26 -20 45 -52t19 -85q0 -44 -13 -73q-14 -30 -33 -48q-19 -17 -43 -25q-22 -7 -45 -7zM47 -84l1 -3q0 -45 26 -69t83 -24q60 0 95 24t35 61q0 27 -21 41t-70 27l-89 26l-12 4q-25 -17 -36 -34q-12 -18 -12 -53zM152 147l-1 -1q9 0 19 8q9 7 16 25q8 18 12 46q4 25 4 71
q0 84 -15 120t-35 36q-19 0 -34 -36t-15 -120q0 -83 15 -116t34 -33zM118 596l1 -4q7 7 13 11q9 6 24 6q16 0 30 -12t14 -32q0 -22 -14 -34t-33 -12q-23 0 -39 15t-16 47q0 40 23 60t54 23l2 -5q-28 -4 -46 -18q-18 -13 -18 -33q0 -7 5 -12z" />
    <glyph glyph-name="Hcircumflex" unicode="&#x124;" horiz-adv-x="441" 
d="M13 2q10 3 17 8q6 4 9 20q2 12 4 45q1 20 1 83v430q0 63 -1 83q-2 33 -4 45q-3 16 -9 20q-7 5 -17 8v2h163v-2q-10 -3 -17 -8q-6 -4 -9 -20q-2 -12 -4 -45q-1 -20 -1 -83v-177h153v177q0 63 -1 83q-2 33 -4 45q-3 16 -9 20q-7 5 -17 8v2h163v-2q-10 -3 -17 -8
q-6 -4 -9 -20q-2 -12 -4 -45q-1 -20 -1 -83v-430q0 -63 1 -83q2 -33 4 -45q3 -16 9 -20q7 -5 17 -8v-2h-163v2q10 3 17 8q6 4 9 20q2 12 4 45q1 20 1 83v249h-153v-249q0 -63 1 -83q2 -33 4 -45q3 -16 9 -20q7 -5 17 -8v-2h-163v2zM220 884l109 -108l-3 -2l-106 44l-106 -44
l-2 2z" />
    <glyph glyph-name="hcircumflex" unicode="&#x125;" horiz-adv-x="363" 
d="M13 2l1 -4q10 2 14 6q4 3 7 14q3 9 3 27v49v518q0 36 -1 47q-2 18 -4 24q-3 7 -9 9q-8 2 -15 2v2l117 71v-373q19 21 38 36q16 14 30 21t24 9q14 2 21 2q14 0 27 -4q16 -5 29 -15q14 -11 23 -29t9 -45v-274v-49q0 -15 2 -27q1 -8 6 -13q4 -4 14 -6v-2h-142v2q10 1 16 6
q6 4 9 14q3 9 3 27v49v294q0 34 -8 48t-21 14q-5 0 -9 -1q-7 -2 -15 -7q-11 -7 -23 -18q-15 -14 -33 -34v-295v-49q0 -18 3 -27q3 -8 9 -13t16 -6v-2h-141v2zM187 895l109 -108l-3 -2l-106 44l-106 -44l-2 2z" />
    <glyph glyph-name="Hbar" unicode="&#x126;" horiz-adv-x="441" 
d="M-2 575h445v-4h-445v4zM13 2q10 3 17 8q6 4 9 20q2 12 4 45q1 20 1 83v430q0 63 -1 83q-2 33 -4 45q-3 16 -9 20q-7 5 -17 8v2h163v-2q-10 -3 -17 -8q-6 -4 -9 -20q-2 -12 -4 -45q-1 -20 -1 -83v-177h153v177q0 63 -1 83q-2 33 -4 45q-3 16 -9 20q-7 5 -17 8v2h163v-2
q-10 -3 -17 -8q-6 -4 -9 -20q-2 -12 -4 -45q-1 -20 -1 -83v-430q0 -63 1 -83q2 -33 4 -45q3 -16 9 -20q7 -5 17 -8v-2h-163v2q10 3 17 8q6 4 9 20q2 12 4 45q1 20 1 83v249h-153v-249q0 -63 1 -83q2 -33 4 -45q3 -16 9 -20q7 -5 17 -8v-2h-163v2z" />
    <glyph glyph-name="hbar" unicode="&#x127;" horiz-adv-x="362" 
d="M-14 569v4h232v-4h-232zM13 2l1 -4q10 2 14 6q4 3 7 14q3 9 3 27v49v518q0 36 -1 47q-2 18 -4 24q-3 7 -9 9q-8 2 -15 2v2l117 71v-373q19 21 38 36q16 14 30 21t24 9q14 2 21 2q14 0 27 -4q16 -5 29 -15q14 -11 23 -29t9 -45v-274v-49q0 -15 2 -27q1 -8 6 -13
q4 -4 14 -6v-2h-142v2q10 1 16 6q6 4 9 14q3 9 3 27v49v294q0 34 -8 48t-21 14q-5 0 -9 -1q-7 -2 -15 -7q-11 -7 -23 -18q-15 -14 -33 -34v-295v-49q0 -18 3 -27q3 -8 9 -13t16 -6v-2h-141v2z" />
    <glyph glyph-name="Itilde" unicode="&#x128;" horiz-adv-x="189" 
d="M13 2q10 3 17 8q6 4 9 20q2 12 4 45q1 20 1 83v430q0 63 -1 83q-2 33 -4 45q-3 16 -9 20q-7 5 -17 8v2h163v-2q-10 -3 -17 -8q-6 -4 -9 -20q-2 -12 -4 -45q-1 -20 -1 -83v-430q0 -63 1 -83q2 -33 4 -45q3 -16 9 -20q7 -5 17 -8v-2h-163v2zM64 851l-2 -1q20 0 42 -3
q23 -3 37 -3q9 0 19 8q9 8 24 27l3 -1q-11 -46 -24 -66q-14 -20 -28 -20q-19 0 -39 3t-39 3q-11 0 -19 -7t-22 -27l-3 1q23 86 51 86z" />
    <glyph glyph-name="itilde" unicode="&#x129;" horiz-adv-x="164" 
d="M13 2l-2 -1q10 2 14 6q3 3 7 14q3 9 3 27v49v213q0 34 -1 45q-2 18 -4 25q-3 10 -7 11q-6 2 -12 2v2l115 76v-374v-49q0 -18 3 -27q3 -8 9 -13t16 -6v-2h-141v2zM47 614l2 2q11 0 18 -1t23 -3q8 -1 22 -3q7 -1 18 -1q9 0 18 9q12 12 23 28l3 -1q-19 -88 -51 -88
q-17 0 -42 3t-42 3q-8 0 -17 -9q-3 -3 -25 -29l-3 1q12 42 26 66q14 23 27 23z" />
    <glyph glyph-name="Imacron" unicode="&#x12a;" horiz-adv-x="189" 
d="M13 2q10 3 17 8q6 4 9 20q2 12 4 45q1 20 1 83v430q0 63 -1 83q-2 33 -4 45q-3 16 -9 20q-7 5 -17 8v2h163v-2q-10 -3 -17 -8q-6 -4 -9 -20q-2 -12 -4 -45q-1 -20 -1 -83v-430q0 -63 1 -83q2 -33 4 -45q3 -16 9 -20q7 -5 17 -8v-2h-163v2zM176 789h-161v38h161v-38z" />
    <glyph glyph-name="imacron" unicode="&#x12b;" horiz-adv-x="164" 
d="M13 2l-2 -1q10 2 14 6q3 3 7 14q3 9 3 27v49v213q0 34 -1 45q-2 18 -4 25q-3 10 -7 11q-6 2 -12 2v2l115 76v-374v-49q0 -18 3 -27q3 -8 9 -13t16 -6v-2h-141v2zM157 592v-38h-153v38h153z" />
    <glyph glyph-name="Ibreve" unicode="&#x12c;" horiz-adv-x="189" 
d="M13 2q10 3 17 8q6 4 9 20q2 12 4 45q1 20 1 83v430q0 63 -1 83q-2 33 -4 45q-3 16 -9 20q-7 5 -17 8v2h163v-2q-10 -3 -17 -8q-6 -4 -9 -20q-2 -12 -4 -45q-1 -20 -1 -83v-430q0 -63 1 -83q2 -33 4 -45q3 -16 9 -20q7 -5 17 -8v-2h-163v2zM95 832h-1q27 0 44 11t26 30h4
q-1 -44 -21 -70q-19 -25 -54 -25q-32 0 -52 26q-19 25 -21 71h4q7 -18 26 -31q18 -12 45 -12z" />
    <glyph glyph-name="ibreve" unicode="&#x12d;" horiz-adv-x="164" 
d="M13 2l-2 -1q10 2 14 6q3 3 7 14q3 9 3 27v49v213q0 34 -1 45q-2 18 -4 25q-3 10 -7 11q-6 2 -12 2v2l115 76v-374v-49q0 -18 3 -27q3 -8 9 -13t16 -6v-2h-141v2zM81 587q32 0 47 12t21 29h4q0 -37 -17 -66t-54 -29t-55 29q-18 28 -18 68h4q5 -16 21 -30q16 -13 47 -13z
" />
    <glyph glyph-name="Iogonek" unicode="&#x12e;" horiz-adv-x="189" 
d="M13 2q10 3 17 8q6 4 9 20q2 12 4 45q1 20 1 83v430q0 63 -1 83q-2 33 -4 45q-3 16 -9 20q-7 5 -17 8v2h163v-2q-10 -3 -17 -8q-6 -4 -9 -20q-2 -12 -4 -45q-1 -20 -1 -83v-430q0 -63 1 -83q2 -33 4 -45q3 -16 9 -20q7 -5 17 -8v-2h-163v2zM90 -178l1 -5q-32 0 -50 18
t-18 46q0 21 12 39q11 17 29 33t36 26q20 11 36 18h4q-15 -15 -29 -39q-15 -26 -15 -60q0 -21 11 -34q11 -12 27 -12q15 0 23 4q10 5 17 12l2 -2q-4 -6 -10 -12q-8 -8 -18 -15q-11 -8 -25 -12q-17 -5 -33 -5z" />
    <glyph glyph-name="iogonek" unicode="&#x12f;" horiz-adv-x="164" 
d="M82 535q-22 0 -37 15t-15 36t15 36t37 15q21 0 36 -15t15 -36t-15 -36t-36 -15zM13 2l-2 -1q10 2 14 6q3 3 7 14q3 9 3 27v49v213q0 34 -1 45q-2 18 -4 25q-3 10 -7 11q-6 2 -12 2v2l115 76v-374v-49q0 -18 3 -27q3 -8 9 -13t16 -6v-2h-141v2zM73 -179l1 -5q-32 0 -50 18
t-18 46q0 21 12 39q11 17 29 33t36 26q19 10 36 18h4q-15 -15 -29 -39q-15 -25 -15 -60q0 -21 11 -34q10 -12 27 -12q15 0 23 4q10 5 17 12l2 -2q-4 -6 -10 -12q-7 -7 -18 -15t-25 -12q-17 -5 -33 -5z" />
    <glyph glyph-name="Idotaccent" unicode="&#x130;" horiz-adv-x="189" 
d="M13 2q10 3 17 8q6 4 9 20q2 12 4 45q1 20 1 83v430q0 63 -1 83q-2 33 -4 45q-3 16 -9 20q-7 5 -17 8v2h163v-2q-10 -3 -17 -8q-6 -4 -9 -20q-2 -12 -4 -45q-1 -20 -1 -83v-430q0 -63 1 -83q2 -33 4 -45q3 -16 9 -20q7 -5 17 -8v-2h-163v2zM95 778q-22 0 -37 15t-15 36
t15 36t37 15q21 0 36 -15t15 -36t-15 -36t-36 -15z" />
    <glyph glyph-name="dotlessi" unicode="&#x131;" horiz-adv-x="164" 
d="M13 2l-2 -1q10 2 14 6q3 3 7 14q3 9 3 27v49v213q0 34 -1 45q-2 18 -4 25q-3 10 -7 11q-6 2 -12 2v2l115 76v-374v-49q0 -18 3 -27q3 -8 9 -13t16 -6v-2h-141v2z" />
    <glyph glyph-name="IJ" unicode="&#x132;" horiz-adv-x="474" 
d="M13 2q10 3 17 8q6 4 9 20q2 12 4 45q1 20 1 83v430q0 63 -1 83q-2 33 -4 45q-3 16 -9 20q-7 5 -17 8v2h163v-2q-10 -3 -17 -8q-6 -4 -9 -20q-2 -12 -4 -45q-1 -20 -1 -83v-430q0 -63 1 -83q2 -33 4 -45q3 -16 9 -20q7 -5 17 -8v-2h-163v2zM305 -10h-2q-64 0 -90 17
t-26 42q0 19 12 30q13 11 28 11q35 0 47 -47q8 -29 15 -39t18 -10q9 0 18 15t9 56v525q0 63 -1 83q-2 33 -4 45q-3 16 -9 20q-7 5 -17 8v2h163v-2q-10 -3 -17 -8q-6 -4 -9 -20q-2 -12 -4 -45q-1 -20 -1 -83v-448q0 -38 -12 -67t-30 -48q-17 -18 -41 -28q-22 -9 -47 -9z" />
    <glyph glyph-name="ij" unicode="&#x133;" horiz-adv-x="330" 
d="M82 535q-22 0 -37 15t-15 36t15 36t37 15q21 0 36 -15t15 -36t-15 -36t-36 -15zM13 2l-2 -1q10 2 14 6q3 3 7 14q3 9 3 27v49v213q0 34 -1 45q-2 18 -4 25q-3 10 -7 11q-6 2 -12 2v2l115 76v-374v-49q0 -18 3 -27q3 -8 9 -13t16 -6v-2h-141v2zM244 534q-21 0 -36 15
t-15 36t15 36t36 15q22 0 37 -15t15 -36t-15 -36t-37 -15zM133 -131l-1 -1q-19 0 -33 11q-13 10 -13 27q0 14 9 23t23 9q15 0 23 -7t15 -17q8 -12 12 -17q6 -7 14 -7q5 0 10 5q4 5 6 24q1 13 1 74v317q0 34 -1 45q-2 18 -4 25q-3 10 -7 11q-6 2 -12 2v2l115 76v-407
q0 -35 -4 -56t-14 -43q-9 -19 -24 -36q-14 -15 -36 -31q-26 -20 -43 -24q-20 -5 -36 -5z" />
    <glyph glyph-name="Jcircumflex" unicode="&#x134;" horiz-adv-x="285" 
d="M115 -10h-2q-64 0 -90 17t-26 42q0 19 12 30q13 11 28 11q35 0 47 -47q8 -29 15 -39t18 -10q9 0 18 15t9 56v525q0 63 -1 83q-2 33 -4 45q-3 16 -9 20q-7 5 -17 8v2h163v-2q-10 -3 -17 -8q-6 -4 -9 -20q-2 -12 -4 -45q-1 -20 -1 -83v-448q0 -38 -12 -67t-30 -48
q-17 -18 -41 -28q-23 -9 -47 -9zM191 884l109 -108l-3 -2l-106 44l-106 -44l-2 2z" />
    <glyph glyph-name="jcircumflex" unicode="&#x135;" horiz-adv-x="165" 
d="M-29 -130l2 -3q-19 0 -33 11q-13 10 -13 27q0 14 9 23t23 9q15 0 23 -7t15 -17q8 -12 12 -17q6 -7 14 -7q5 0 9 4q2 3 3 9q2 8 2 17v29v45v317q0 34 -1 45q-2 18 -4 25q-3 10 -7 11q-6 2 -12 2v2l114 76v-407q0 -35 -4 -56q-5 -27 -13 -44q-9 -20 -24 -35t-36 -30
q-26 -20 -43 -24q-20 -5 -36 -5zM81 690l93 -170l-3 -1l-90 78l-90 -78l-3 1z" />
    <glyph glyph-name="uni0136" unicode="&#x136;" horiz-adv-x="397" 
d="M249 2l-5 -1q10 6 14 9q6 5 9 13q3 9 0 23q-4 18 -10 36l-114 311l163 268q13 22 18 38q4 15 3 25q-2 11 -7 15q-8 6 -13 8v2h73v-2q-10 -6 -14 -9q-6 -4 -13 -13q-7 -8 -16 -22q-4 -6 -22 -36l-102 -168l151 -421q5 -13 14 -34q8 -18 10 -22q4 -8 9 -13q3 -3 9 -7v-2
h-157v2zM8 1q10 3 17 8q6 4 9 20q2 12 4 45q1 20 1 83v430q0 63 -1 83q-2 33 -4 45q-3 16 -9 20q-7 5 -17 8v2h163v-2q-10 -3 -17 -8q-6 -4 -9 -20q-2 -12 -4 -45q-1 -20 -1 -83v-430q0 -63 1 -83q2 -33 4 -45q3 -16 9 -20q7 -5 17 -8v-2h-163v2zM231 -112l-3 1
q-2 -4 -12 -10q-9 -6 -24 -6q-18 0 -31 12t-13 32q0 22 15 34t34 12q21 0 38 -15t17 -46q0 -41 -22 -60t-54 -22l-2 5q28 5 45 18q17 14 17 33q0 7 -5 12z" />
    <glyph glyph-name="uni0137" unicode="&#x137;" horiz-adv-x="330" 
d="M13 2l3 -2q10 2 14 6t7 14q3 9 3 27v49v529q0 32 -1 42q-2 16 -4 21q-3 6 -8 8q-3 1 -14 1v2l117 71v-524l122 153q12 17 15 27q3 11 0 17t-12 9q-12 4 -19 5v2h89v-2q-6 -2 -16 -6q-7 -3 -15 -9q-5 -4 -18 -17q-8 -8 -25 -30l-60 -76l113 -268q10 -25 18 -36
q7 -10 15 -13v-3h-141v3q14 4 18 15q5 11 -9 41l-79 184v-145v-49q0 -18 3 -27q3 -8 9 -13t16 -6v-2h-141v2zM205 -113l-3 1q-2 -4 -12 -10q-9 -6 -24 -6q-18 0 -31 12t-13 32q0 22 15 34t34 12q21 0 38 -15t17 -46q0 -41 -22 -60t-54 -22l-2 5q28 4 45 18t17 33q0 7 -5 12z
" />
    <glyph glyph-name="Lacute" unicode="&#x139;" horiz-adv-x="330" 
d="M13 2l-1 2q10 3 17 8q6 4 9 20q2 12 4 45q1 20 1 83v430q0 63 -1 83q-2 33 -4 45q-3 16 -9 20q-7 5 -17 8v2h164v-2q-10 -3 -17 -8q-6 -4 -9 -20q-2 -12 -4 -45q-1 -20 -1 -83v-586h21q29 0 57 5q25 5 45 18q20 14 35 39q15 26 27 66h2l-19 -122q-1 -7 -5 -9q-2 -1 -6 -1
h-289v2zM20 778l100 78q9 7 20 12q10 5 20 5q14 0 21 -9q8 -10 8 -21q0 -28 -41 -39l-127 -28z" />
    <glyph glyph-name="lacute" unicode="&#x13a;" horiz-adv-x="164" 
d="M14 2l1 -1q10 2 14 6q3 3 7 14q3 9 3 27v49v529q0 30 -1 40q-2 16 -4 21q-3 7 -9 8q-8 2 -15 2v2l117 71v-673v-49q0 -18 3 -27q3 -8 9 -13t16 -6v-2h-141v2zM6 775l100 78q9 7 20 12q10 5 20 5q14 0 21 -9q8 -10 8 -21q0 -28 -41 -39l-127 -28z" />
    <glyph glyph-name="uni013B" unicode="&#x13b;" horiz-adv-x="330" 
d="M13 2l-1 2q10 3 17 8q6 4 9 20q2 12 4 45q1 20 1 83v430q0 63 -1 83q-2 33 -4 45q-3 16 -9 20q-7 5 -17 8v2h164v-2q-10 -3 -17 -8q-6 -4 -9 -20q-2 -12 -4 -45q-1 -20 -1 -83v-586h21q29 0 57 5q25 5 45 18q20 14 35 39q15 26 27 66h2l-19 -122q-1 -7 -5 -9q-2 -1 -6 -1
h-289v2zM203 -109l-3 1q-2 -4 -12 -10q-9 -6 -24 -6q-17 0 -31 12q-13 12 -13 32q0 22 15 34t34 12q21 0 38 -15t17 -46q0 -41 -22 -60t-54 -22l-2 5q28 4 45 18t17 33q0 7 -5 12z" />
    <glyph glyph-name="uni013C" unicode="&#x13c;" horiz-adv-x="164" 
d="M13 2l1 -1q10 2 14 6q4 3 7 14q3 9 3 27v49v529q0 30 -1 40q-2 16 -4 21q-3 7 -9 8q-8 2 -15 2v2l117 71v-673v-49q0 -18 3 -27q3 -8 9 -13t16 -6v-2h-141v2zM111 -112l-3 1q-2 -4 -12 -10q-9 -6 -24 -6q-18 0 -31 12t-13 32q0 22 15 34t34 12q21 0 38 -15t17 -46
q0 -41 -22 -60t-54 -22l-2 5q28 5 45 18q17 14 17 33q0 7 -5 12z" />
    <glyph glyph-name="Lcaron" unicode="&#x13d;" horiz-adv-x="330" 
d="M13 2l-1 2q10 3 17 8q6 4 9 20q2 12 4 45q1 20 1 83v430q0 63 -1 83q-2 33 -4 45q-3 16 -9 20q-7 5 -17 8v2h164v-2q-10 -3 -17 -8q-6 -4 -9 -20q-2 -12 -4 -45q-1 -20 -1 -83v-586h21q29 0 57 5q25 5 45 18q20 14 35 39q15 26 27 66h2l-19 -122q-1 -7 -5 -9q-2 -1 -6 -1
h-289v2zM181 571l10 133q3 56 35 56q16 0 23 -9q8 -10 8 -22q0 -17 -10 -36l-63 -123z" />
    <glyph glyph-name="lcaron" unicode="&#x13e;" horiz-adv-x="164" 
d="M13 2l1 -1q10 2 14 6q4 3 7 14q3 9 3 27v49v529q0 30 -1 40q-2 16 -4 21q-3 7 -9 8q-8 2 -15 2v2l117 71v-673v-49q0 -18 3 -27q3 -8 9 -13t16 -6v-2h-141v2zM150 568l10 133q3 56 35 56q15 0 23 -9q8 -10 8 -22q0 -17 -10 -36l-63 -123z" />
    <glyph glyph-name="Ldot" unicode="&#x13f;" horiz-adv-x="330" 
d="M259 335q-23 0 -38 15t-15 38t15 38t38 15t38 -15t15 -38t-15 -38t-38 -15zM13 2l-1 2q10 3 17 8q6 4 9 20q2 12 4 45q1 20 1 83v430q0 63 -1 83q-2 33 -4 45q-3 16 -9 20q-7 5 -17 8v2h164v-2q-10 -3 -17 -8q-6 -4 -9 -20q-2 -12 -4 -45q-1 -20 -1 -83v-586h21
q29 0 57 5q25 5 45 18q20 14 35 39q15 26 27 66h2l-19 -122q-1 -7 -5 -9q-2 -1 -6 -1h-289v2z" />
    <glyph glyph-name="ldot" unicode="&#x140;" horiz-adv-x="256" 
d="M209 315q-22 0 -37 15t-15 37t15 37t37 15q23 0 38 -15t15 -37t-15 -37t-38 -15zM13 2l1 -1q10 2 14 6q4 3 7 14q3 9 3 27v49v529q0 30 -1 40q-2 16 -4 21q-3 7 -9 8q-8 2 -15 2v2l117 71v-673v-49q0 -18 3 -27q3 -8 9 -13t16 -6v-2h-141v2z" />
    <glyph glyph-name="Lslash" unicode="&#x141;" horiz-adv-x="330" 
d="M-4 295l-2 3l253 161l2 -3zM13 2l-1 2q10 3 17 8q6 4 9 20q2 12 4 45q1 20 1 83v430q0 63 -1 83q-2 33 -4 45q-3 16 -9 20q-7 5 -17 8v2h164v-2q-10 -3 -17 -8q-6 -4 -9 -20q-2 -12 -4 -45q-1 -20 -1 -83v-586h21q29 0 57 5q25 5 45 18q20 14 35 39q15 26 27 66h2
l-19 -122q-1 -7 -5 -9q-2 -1 -6 -1h-289v2z" />
    <glyph glyph-name="lslash" unicode="&#x142;" horiz-adv-x="164" 
d="M-17 314l-2 3l199 154l2 -3zM13 2l1 -1q10 2 14 6q4 3 7 14q3 9 3 27v49v529q0 30 -1 40q-2 16 -4 21q-3 7 -9 8q-8 2 -15 2v2l117 71v-673v-49q0 -18 3 -27q3 -8 9 -13t16 -6v-2h-141v2z" />
    <glyph glyph-name="Nacute" unicode="&#x143;" horiz-adv-x="377" 
d="M13 2l1 3q10 5 17 11q6 6 9 21q2 12 4 45q1 20 1 81v430q0 63 -1 83q-2 33 -4 45q-3 16 -9 20q-7 5 -17 8v2h112q14 0 18 -4q4 -5 9 -18l178 -482v343q0 61 -1 81q-2 33 -4 45q-3 15 -9 21q-6 7 -17 11v2h69v-2q-10 -4 -17 -11q-6 -6 -9 -21q-2 -12 -4 -45q-1 -20 -1 -81
v-593h-14l-273 728v-565q0 -61 1 -81q2 -33 4 -45q3 -15 9 -21q7 -7 17 -11v-2h-69v2zM144 779l100 78q9 7 20 12q10 5 20 5q14 0 21 -9q8 -10 8 -21q0 -28 -41 -39l-127 -28z" />
    <glyph glyph-name="nacute" unicode="&#x144;" horiz-adv-x="362" 
d="M13 2l-2 -2q10 2 14 6q3 4 7 14q3 9 3 27v49v213q0 34 -1 45q-2 18 -4 25q-3 10 -7 11q-6 2 -12 2v2l115 76v-74q19 21 38 36q16 14 30 21t24 9q14 2 21 2q14 0 27 -4q17 -5 29 -16q13 -11 22 -30q9 -18 9 -45v-274v-49q0 -15 2 -27q1 -8 6 -13q4 -4 14 -6v-2h-142v2
q10 1 16 6q6 4 9 14q3 9 3 27v49v294q0 35 -7 48q-8 14 -21 14q-5 0 -9 -1q-7 -2 -15 -7q-11 -7 -23 -18q-15 -14 -33 -34v-295v-49q0 -18 3 -27q3 -8 9 -13t16 -6v-2h-141v2zM138 521l59 122q9 20 19 30t24 10t23 -9t9 -22q0 -14 -6 -24t-20 -21l-105 -87z" />
    <glyph glyph-name="uni0145" unicode="&#x145;" horiz-adv-x="377" 
d="M13 2l1 3q10 5 17 11q6 6 9 21q2 12 4 45q1 20 1 81v430q0 63 -1 83q-2 33 -4 45q-3 16 -9 20q-7 5 -17 8v2h112q14 0 18 -4q4 -5 9 -18l178 -482v343q0 61 -1 81q-2 33 -4 45q-3 15 -9 21q-6 7 -17 11v2h69v-2q-10 -4 -17 -11q-6 -6 -9 -21q-2 -12 -4 -45q-1 -20 -1 -81
v-593h-14l-273 728v-565q0 -61 1 -81q2 -33 4 -45q3 -15 9 -21q7 -7 17 -11v-2h-69v2zM218 -108l-3 1q-2 -4 -12 -10q-9 -6 -24 -6q-17 0 -31 12q-13 12 -13 32q0 22 15 34t34 12q22 0 38 -15q17 -15 17 -46q0 -41 -22 -60t-54 -22l-2 5q29 5 45 18q17 14 17 33q0 7 -5 12z
" />
    <glyph glyph-name="uni0146" unicode="&#x146;" horiz-adv-x="362" 
d="M13 2l-2 -2q10 2 14 6q3 4 7 14q3 9 3 27v49v213q0 34 -1 45q-2 18 -4 25q-3 10 -7 11q-6 2 -12 2v2l115 76v-74q19 21 38 36q16 14 30 21t24 9q14 2 21 2q14 0 27 -4q17 -5 29 -16q13 -11 22 -30q9 -18 9 -45v-274v-49q0 -15 2 -27q1 -8 6 -13q4 -4 14 -6v-2h-142v2
q10 1 16 6q6 4 9 14q3 9 3 27v49v294q0 35 -7 48q-8 14 -21 14q-5 0 -9 -1q-7 -2 -15 -7q-11 -7 -23 -18q-15 -14 -33 -34v-295v-49q0 -18 3 -27q3 -8 9 -13t16 -6v-2h-141v2zM208 -113l-3 1q-2 -4 -12 -10q-9 -6 -24 -6q-17 0 -31 12q-13 12 -13 32q0 22 15 34t34 12
q22 0 38 -15q17 -15 17 -46q0 -41 -22 -60t-54 -22l-2 5q29 4 45 18q17 14 17 33q0 7 -5 12z" />
    <glyph glyph-name="Ncaron" unicode="&#x147;" horiz-adv-x="377" 
d="M13 2l1 3q10 5 17 11q6 6 9 21q2 12 4 45q1 20 1 81v430q0 63 -1 83q-2 33 -4 45q-3 16 -9 20q-7 5 -17 8v2h112q14 0 18 -4q4 -5 9 -18l178 -482v343q0 61 -1 81q-2 33 -4 45q-3 15 -9 21q-6 7 -17 11v2h69v-2q-10 -4 -17 -11q-6 -6 -9 -21q-2 -12 -4 -45q-1 -20 -1 -81
v-593h-14l-273 728v-565q0 -61 1 -81q2 -33 4 -45q3 -15 9 -21q7 -7 17 -11v-2h-69v2zM112 891l106 -43l106 43l3 -1l-109 -109l-108 109z" />
    <glyph glyph-name="ncaron" unicode="&#x148;" horiz-adv-x="362" 
d="M13 2l-2 -2q10 2 14 6q3 4 7 14q3 9 3 27v49v213q0 34 -1 45q-2 18 -4 25q-3 10 -7 11q-6 2 -12 2v2l115 76v-74q19 21 38 36q16 14 30 21t24 9q14 2 21 2q14 0 27 -4q17 -5 29 -16q13 -11 22 -30q9 -18 9 -45v-274v-49q0 -15 2 -27q1 -8 6 -13q4 -4 14 -6v-2h-142v2
q10 1 16 6q6 4 9 14q3 9 3 27v49v294q0 35 -7 48q-8 14 -21 14q-5 0 -9 -1q-7 -2 -15 -7q-11 -7 -23 -18q-15 -14 -33 -34v-295v-49q0 -18 3 -27q3 -8 9 -13t16 -6v-2h-141v2zM91 689l90 -78l90 78l3 -1l-93 -169l-93 169z" />
    <glyph glyph-name="napostrophe" unicode="&#x149;" horiz-adv-x="362" 
d="M13 2l-2 -2q10 2 14 6q3 4 7 14q3 9 3 27v49v213q0 34 -1 45q-2 18 -4 25q-3 10 -7 11q-6 2 -12 2v2l115 76v-74q19 21 38 36q16 14 30 21t24 9q14 2 21 2q14 0 27 -4q17 -5 29 -16q13 -11 22 -30q9 -18 9 -45v-274v-49q0 -15 2 -27q1 -8 6 -13q4 -4 14 -6v-2h-142v2
q10 1 16 6q6 4 9 14q3 9 3 27v49v294q0 35 -7 48q-8 14 -21 14q-5 0 -9 -1q-7 -2 -15 -7q-11 -7 -23 -18q-15 -14 -33 -34v-295v-49q0 -18 3 -27q3 -8 9 -13t16 -6v-2h-141v2zM17 677l-1 -4q-5 -6 -14 -11q-10 -5 -24 -5q-17 0 -30 13t-13 33q0 23 15 36q14 13 34 13
q22 0 39 -16q18 -16 18 -51q0 -47 -22 -75q-23 -28 -54 -45l-3 4q28 17 45 39q17 23 17 48q0 14 -7 21z" />
    <glyph glyph-name="Eng" unicode="&#x14a;" horiz-adv-x="377" 
d="M13 2l3 4q10 4 17 11q6 6 9 21q2 12 4 45q1 20 1 81v430q0 63 -1 83q-2 33 -4 45q-3 16 -9 20q-7 5 -17 8v2h112q14 0 18 -4t9 -18l178 -476v337q0 61 -1 81q-2 33 -4 45q-3 15 -9 21t-17 11v2h69v-2q-11 -5 -17 -11t-9 -21q-2 -12 -4 -45q-1 -20 -1 -81v-621
q0 -50 -23 -76q-22 -25 -54 -25q-55 0 -83 21q-29 21 -29 50q0 17 9 26t26 9q18 0 27 -10q10 -11 14 -39q4 -22 11 -40q6 -15 23 -15q30 0 51 25q21 26 21 75v9l-282 745l-1 -565q0 -61 1 -81q2 -33 4 -45q3 -15 9 -21q6 -7 17 -11l1 -2h-69v2z" />
    <glyph glyph-name="eng" unicode="&#x14b;" horiz-adv-x="360" 
d="M13 2l-8 -2q10 2 14 6q3 4 7 14q3 9 3 27v49v213q0 34 -1 45q-2 18 -4 25q-3 10 -7 11q-6 2 -12 2v2l115 76v-74q19 21 38 36q16 14 30 21t24 9q14 2 21 2q14 0 27 -4q17 -5 29 -16q13 -11 22 -30q9 -18 9 -45v-307q0 -35 -4 -56t-14 -43q-9 -19 -24 -36q-14 -15 -36 -31
q-26 -20 -43 -24q-20 -5 -34 -5q-19 0 -32 11q-12 10 -12 27q0 14 9 23t23 9q15 0 23 -7t15 -17q8 -12 12 -17q6 -7 14 -7q5 0 10 5q5 4 6 24q1 13 1 74v398q0 35 -7 48q-8 14 -21 14q-5 0 -9 -1q-7 -2 -15 -7q-11 -7 -23 -18q-15 -14 -33 -34v-295v-49q0 -18 3 -27
q3 -8 9 -13t16 -6v-2h-141v2z" />
    <glyph glyph-name="Omacron" unicode="&#x14c;" horiz-adv-x="414" 
d="M207 -8l1 -2q-34 0 -69 24t-60 72t-42 120q-16 70 -16 168q0 101 16 171q17 73 42 119t59 69t69 23q37 0 69 -22q33 -22 60 -69q26 -45 43 -118q16 -70 16 -171q0 -98 -16 -168q-17 -74 -43 -120q-27 -48 -60 -72t-69 -24zM208 -5l-1 -2q46 0 64 98q17 95 19 282
q2 185 -18 281t-63 96t-63 -96q-19 -94 -19 -280q0 -184 18 -282q18 -97 63 -97zM288 785h-161v38h161v-38z" />
    <glyph glyph-name="omacron" unicode="&#x14d;" horiz-adv-x="349" 
d="M175 -5v-1q-23 0 -50 12q-26 12 -51 41q-23 27 -40 72q-16 42 -16 105q0 67 16 112q17 48 40 75q24 29 51 42q26 13 50 13t50 -13q27 -13 51 -42t39 -75t15 -112q0 -62 -15 -105t-39 -72q-23 -28 -51 -40q-27 -12 -50 -12zM175 -2h-3q14 0 24 12q11 13 20 39q10 29 14 70
q5 48 5 108q0 65 -5 117q-5 48 -13 73q-9 28 -19 38q-11 11 -24 11q-12 0 -25 -11q-12 -10 -21 -38q-8 -25 -13 -73q-5 -52 -5 -117q0 -60 5 -108q4 -41 14 -70q9 -27 21 -39t25 -12zM248 592v-38h-153v38h153z" />
    <glyph glyph-name="Obreve" unicode="&#x14e;" horiz-adv-x="414" 
d="M207 -8l1 -2q-34 0 -69 24t-60 72t-42 120q-16 70 -16 168q0 101 16 171q17 73 42 119t59 69t69 23q37 0 69 -22q33 -22 60 -69q26 -45 43 -118q16 -70 16 -171q0 -98 -16 -168q-17 -74 -43 -120q-27 -48 -60 -72t-69 -24zM208 -5l-1 -2q46 0 64 98q17 95 19 282
q2 185 -18 281t-63 96t-63 -96q-19 -94 -19 -280q0 -184 18 -282q18 -97 63 -97zM208 827h-1q27 0 44 11t26 30h4q-1 -44 -21 -70q-19 -25 -54 -25q-32 0 -52 26q-19 25 -21 71h4q7 -18 26 -31q18 -12 45 -12z" />
    <glyph glyph-name="obreve" unicode="&#x14f;" horiz-adv-x="349" 
d="M175 -5v-1q-23 0 -50 12q-26 12 -51 41q-23 27 -40 72q-16 42 -16 105q0 67 16 112q17 48 40 75q24 29 51 42q26 13 50 13t50 -13q27 -13 51 -42t39 -75t15 -112q0 -62 -15 -105t-39 -72q-23 -28 -51 -40q-27 -12 -50 -12zM175 -2h-3q14 0 24 12q11 13 20 39q10 29 14 70
q5 48 5 108q0 65 -5 117q-5 48 -13 73q-9 28 -19 38q-11 11 -24 11q-12 0 -25 -11q-12 -10 -21 -38q-8 -25 -13 -73q-5 -52 -5 -117q0 -60 5 -108q4 -41 14 -70q9 -27 21 -39t25 -12zM172 587q32 0 47 12t21 29h4q0 -37 -17 -66t-54 -29t-55 29q-18 28 -18 68h4
q4 -16 21 -30q16 -13 47 -13z" />
    <glyph glyph-name="Ohungarumlaut" unicode="&#x150;" horiz-adv-x="414" 
d="M207 -8l1 -2q-34 0 -69 24t-60 72t-42 120q-16 70 -16 168q0 101 16 171q17 73 42 119t59 69t69 23q37 0 69 -22q33 -22 60 -69q26 -45 43 -118q16 -70 16 -171q0 -98 -16 -168q-17 -74 -43 -120q-27 -48 -60 -72t-69 -24zM208 -5l-1 -2q46 0 64 98q17 95 19 282
q2 185 -18 281t-63 96t-63 -96q-19 -94 -19 -280q0 -184 18 -282q18 -97 63 -97zM248 765l41 83q7 15 15 24t24 9q14 0 20 -9t6 -19q0 -14 -10 -23t-18 -15l-75 -52zM143 766l37 83q7 14 17 24q9 9 25 9q14 0 21 -9q7 -8 7 -19q0 -14 -10 -23q-12 -11 -19 -15l-75 -52z" />
    <glyph glyph-name="ohungarumlaut" unicode="&#x151;" horiz-adv-x="349" 
d="M175 -5v-1q-23 0 -50 12q-26 12 -51 41q-23 27 -40 72q-16 42 -16 105q0 67 16 112q17 48 40 75q24 29 51 42q26 13 50 13t50 -13q27 -13 51 -42t39 -75t15 -112q0 -62 -15 -105t-39 -72q-23 -28 -51 -40q-27 -12 -50 -12zM175 -2h-3q14 0 24 12q11 13 20 39q10 29 14 70
q5 48 5 108q0 65 -5 117q-5 48 -13 73q-9 28 -19 38q-11 11 -24 11q-12 0 -25 -11q-12 -10 -21 -38q-8 -25 -13 -73q-5 -52 -5 -117q0 -60 5 -108q4 -41 14 -70q9 -27 21 -39t25 -12zM217 521l29 124q4 19 14 30q9 11 26 11q14 0 21 -9q8 -10 8 -22q0 -8 -4 -16
q-3 -6 -9 -16l-82 -103zM109 522l30 125q4 19 14 30q9 11 26 11q13 0 21 -9q7 -8 7 -22q0 -17 -13 -33l-82 -103z" />
    <glyph glyph-name="OE" unicode="&#x152;" horiz-adv-x="552" 
d="M456 332l-2 1q-4 18 -7 27q-5 14 -12 24t-21 18q-13 7 -36 7h-4v-405h18q30 0 54 3t42 15q19 13 32 34q14 24 23 60h4l-12 -106q-2 -8 -4 -9t-6 -1h-293q-40 0 -78 21t-68 68t-48 117t-18 170t18 171t48 116t69 66t79 21h263q4 0 8 -2t5 -12l16 -89h-3q-17 59 -53 80
t-85 21h-9v-333h4q23 0 36 7q14 8 21 18t12 24q3 9 7 27h1v-159h-1zM232 746l-4 -3q-58 0 -82 -93t-24 -276q0 -182 27 -277q27 -94 80 -94q15 0 23 4t13 21q5 16 6 48q1 21 1 84v430q0 63 -1 84q-2 32 -6 47q-5 16 -12 20q-8 5 -21 5z" />
    <glyph glyph-name="oe" unicode="&#x153;" horiz-adv-x="517" 
d="M175 -5l-4 -1q-23 0 -50 12q-26 12 -51 41q-23 27 -40 72q-16 42 -16 105q0 67 16 112q17 48 40 75q24 29 51 42q26 13 50 13q25 0 54 -15t54 -49q23 32 49 48q28 17 51 17q28 0 49 -12q22 -12 36 -31q15 -19 24 -47q9 -27 12 -58h-169q-1 -9 -1 -30v-34q0 -123 20 -188
q20 -63 68 -63q27 0 45 12t27 21l3 -3q-7 -7 -29 -24q-20 -15 -54 -15q-40 0 -72 15t-54 46q-23 -31 -54 -46q-30 -15 -55 -15zM379 463v-1q-7 0 -15 -6q-8 -7 -14 -21q-6 -15 -12 -42t-9 -70h93q0 71 -12 106q-12 34 -31 34zM171 -3h-3q14 0 24 12q11 13 20 39q10 29 14 70
q5 48 5 108q0 65 -5 117q-5 48 -13 73q-9 28 -19 38q-11 11 -24 11q-12 0 -25 -11q-12 -10 -21 -38q-8 -25 -13 -73q-5 -52 -5 -117q0 -60 5 -108q4 -41 14 -70q9 -27 21 -39t25 -12z" />
    <glyph glyph-name="Racute" unicode="&#x154;" horiz-adv-x="383" 
d="M13 2h5q10 3 17 8q6 4 9 20q2 12 4 45q1 20 1 83v430q0 63 -1 83q-2 33 -4 45q-3 16 -9 20q-7 5 -17 8v2h152q44 0 78 -7q37 -8 62 -28q27 -22 41 -55q15 -35 15 -88q0 -47 -13 -80q-14 -35 -36 -59q-23 -24 -54 -39q-32 -15 -67 -18q24 -1 45 -11q20 -9 35 -30
q16 -22 26 -56t18 -89q6 -48 14 -97q6 -35 12 -55q6 -19 12 -25t15 -6q12 0 17 4q8 6 11 9l3 -2q-6 -8 -22 -15q-18 -8 -46 -8t-45 7q-18 8 -30 27q-11 18 -19 54q-8 35 -15 90q-2 18 -5.5 43.5t-5.5 42t-3 28.5q-5 41 -12 60t-18 24q-9 4 -30 4h-7v-213q0 -63 1 -83
q2 -33 4 -45q3 -16 9 -20q7 -5 17 -8v-2h-164v2zM150 746v-371h20q30 0 50 14t32 39q13 27 17 61q5 40 5 81q0 55 -7 87q-7 35 -21 54t-33 27q-21 8 -45 8h-18zM119 774l100 78q9 7 20 12q10 5 20 5q13 0 21 -9q8 -10 8 -21q0 -28 -41 -39l-127 -28z" />
    <glyph glyph-name="racute" unicode="&#x155;" horiz-adv-x="264" 
d="M13 2l2 -4q10 2 14 6q3 3 7 14q3 9 3 27v49v223q0 30 -1 40q-2 16 -4 22q-3 8 -7 9q-6 2 -12 2v2l115 76v-84q34 46 54 63t39 17q22 0 32 -13q11 -14 11 -33q0 -17 -10 -27q-11 -11 -27 -11q-14 0 -21 7t-13 16q-4 6 -10 16q-4 7 -12 7q-6 0 -14 -8q-7 -8 -30 -36v-285
v-49q0 -18 3 -27q3 -8 9 -13q6 -4 17 -6v-2h-145v2zM115 519l59 122q9 20 19 30t24 10t23 -9t9 -22q0 -14 -6 -24t-20 -21l-105 -87z" />
    <glyph glyph-name="uni0156" unicode="&#x156;" horiz-adv-x="383" 
d="M13 2h5q10 3 17 8q6 4 9 20q2 12 4 45q1 20 1 83v430q0 63 -1 83q-2 33 -4 45q-3 16 -9 20q-7 5 -17 8v2h152q44 0 78 -7q37 -8 62 -28q27 -22 41 -55q15 -35 15 -88q0 -47 -13 -80q-14 -35 -36 -59q-23 -24 -54 -39q-32 -15 -67 -18q24 -1 45 -11q20 -9 35 -30
q16 -22 26 -56t18 -89q6 -48 14 -97q6 -35 12 -55q6 -19 12 -25t15 -6q12 0 17 4q8 6 11 9l3 -2q-6 -8 -22 -15q-18 -8 -46 -8t-45 7q-18 8 -30 27q-11 18 -19 54q-8 35 -15 90q-2 18 -5.5 43.5t-5.5 42t-3 28.5q-5 41 -12 60t-18 24q-9 4 -30 4h-7v-213q0 -63 1 -83
q2 -33 4 -45q3 -16 9 -20q7 -5 17 -8v-2h-164v2zM150 746v-371h20q30 0 50 14t32 39q13 27 17 61q5 40 5 81q0 55 -7 87q-7 35 -21 54t-33 27q-21 8 -45 8h-18zM245 -113l-3 1q-2 -4 -12 -10q-9 -6 -24 -6q-18 0 -31 12t-13 32q0 22 15 34t34 12q21 0 38 -15t17 -46
q0 -41 -22 -60t-54 -22l-2 5q28 4 45 18t17 33q0 7 -5 12z" />
    <glyph glyph-name="uni0157" unicode="&#x157;" horiz-adv-x="264" 
d="M13 2l2 -4q10 2 14 6q3 3 7 14q3 9 3 27v49v223q0 30 -1 40q-2 16 -4 22q-3 8 -7 9q-6 2 -12 2v2l115 76v-84q34 46 54 63t39 17q22 0 32 -13q11 -14 11 -33q0 -17 -10 -27q-11 -11 -27 -11q-14 0 -21 7t-13 16q-4 6 -10 16q-4 7 -12 7q-6 0 -14 -8q-7 -8 -30 -36v-285
v-49q0 -18 3 -27q3 -8 9 -13q6 -4 17 -6v-2h-145v2zM112 -115l-3 1q-2 -4 -12 -10q-9 -6 -24 -6q-17 0 -31 12q-13 12 -13 32q0 22 15 34t34 12q22 0 38 -15q17 -15 17 -46q0 -41 -22 -60t-54 -22l-2 5q29 4 45 18q17 14 17 33q0 7 -5 12z" />
    <glyph glyph-name="Rcaron" unicode="&#x158;" horiz-adv-x="383" 
d="M13 2h5q10 3 17 8q6 4 9 20q2 12 4 45q1 20 1 83v430q0 63 -1 83q-2 33 -4 45q-3 16 -9 20q-7 5 -17 8v2h152q44 0 78 -7q37 -8 62 -28q27 -22 41 -55q15 -35 15 -88q0 -47 -13 -80q-14 -35 -36 -59q-23 -24 -54 -39q-32 -15 -67 -18q24 -1 45 -11q20 -9 35 -30
q16 -22 26 -56t18 -89q6 -48 14 -97q6 -35 12 -55q6 -19 12 -25t15 -6q12 0 17 4q8 6 11 9l3 -2q-6 -8 -22 -15q-18 -8 -46 -8t-45 7q-18 8 -30 27q-11 18 -19 54q-8 35 -15 90q-2 18 -5.5 43.5t-5.5 42t-3 28.5q-5 41 -12 60t-18 24q-9 4 -30 4h-7v-213q0 -63 1 -83
q2 -33 4 -45q3 -16 9 -20q7 -5 17 -8v-2h-164v2zM150 746v-371h20q30 0 50 14t32 39q13 27 17 61q5 40 5 81q0 55 -7 87q-7 35 -21 54t-33 27q-21 8 -45 8h-18zM87 886l106 -43l106 43l3 -1l-109 -109l-108 109z" />
    <glyph glyph-name="rcaron" unicode="&#x159;" horiz-adv-x="264" 
d="M13 2l2 -4q10 2 14 6q3 3 7 14q3 9 3 27v49v223q0 30 -1 40q-2 16 -4 22q-3 8 -7 9q-6 2 -12 2v2l115 76v-84q34 46 54 63t39 17q22 0 32 -13q11 -14 11 -33q0 -17 -10 -27q-11 -11 -27 -11q-14 0 -21 7t-13 16q-4 6 -10 16q-4 7 -12 7q-6 0 -14 -8q-7 -8 -30 -36v-285
v-49q0 -18 3 -27q3 -8 9 -13q6 -4 17 -6v-2h-145v2zM73 687l90 -78l90 78l3 -1l-93 -169l-93 169z" />
    <glyph glyph-name="Sacute" unicode="&#x15a;" horiz-adv-x="316" 
d="M143 -7l-2 -4q-25 0 -46 8t-33 16q-14 9 -22 16q-10 8 -15 8q-7 0 -12 -21h-2v184h3q12 -111 43 -158q31 -48 82 -48q42 0 64 28t22 82q0 32 -9 63t-24 63t-36 66q-6 10 -43 74q-21 36 -39 66q-19 31 -30 58q-11 25 -19 57q-7 27 -7 63q0 66 39 105t101 39q21 0 33 -4
q13 -4 24 -9q12 -5 17 -9t11 -4q7 0 10 9q4 11 5 20h3v-142h-3q-8 43 -16 66q-9 26 -21 41t-27 21t-33 6q-36 0 -52 -22t-16 -57q0 -27 9 -54q9 -28 24 -56q19 -35 34 -59q7 -11 40 -65q25 -42 41 -71q20 -37 32 -66q13 -33 21 -66q8 -35 8 -69q0 -46 -13 -78
q-13 -33 -36 -54q-23 -22 -51 -32q-30 -11 -59 -11zM75 772l100 78q9 7 20 12q10 5 20 5q13 0 21 -9q8 -10 8 -21q0 -28 -41 -39l-127 -28z" />
    <glyph glyph-name="sacute" unicode="&#x15b;" horiz-adv-x="256" 
d="M142 0l-5 -5q27 0 39 20q12 19 12 45q0 31 -21 64q-20 32 -69 82q-19 20 -40 45q-15 17 -25 38q-8 16 -13 36q-4 16 -4 38q0 47 27 74t65 27q14 0 24 -3q14 -4 20 -7t18 -7q9 -3 21 -3q7 0 11 6q5 6 6 13h4v-114h-4q-9 31 -21 54q-11 21 -26 36q-13 13 -27 19t-25 6
q-19 0 -33 -12q-13 -12 -13 -35q0 -13 5 -26t15 -26q13 -17 27 -32q22 -24 40 -42q28 -30 44 -51q20 -26 29 -45q10 -21 15 -41q5 -22 5 -41q0 -29 -9 -51t-24 -37q-14 -14 -33 -22q-17 -7 -36 -7q-20 0 -35 6t-27 12q-8 4 -22 12q-11 6 -19 6q-6 0 -11 -5t-6 -12h-4v142h4
q21 -83 52 -120t69 -37zM79 518l59 122q9 20 19 30t24 10t23 -9t9 -22t-6 -24q-6 -10 -20 -21l-105 -87z" />
    <glyph glyph-name="Scircumflex" unicode="&#x15c;" horiz-adv-x="316" 
d="M143 -7l-2 -4q-25 0 -46 8t-33 16q-14 9 -22 16q-10 8 -15 8q-7 0 -12 -21h-2v184h3q12 -111 43 -158q31 -48 82 -48q42 0 64 28t22 82q0 32 -9 63t-24 63t-36 66q-6 10 -43 74q-21 36 -39 66q-19 31 -30 58q-11 25 -19 57q-7 27 -7 63q0 66 39 105t101 39q21 0 33 -4
q13 -4 24 -9q12 -5 17 -9t11 -4q7 0 10 9q4 11 5 20h3v-142h-3q-8 43 -16 66q-9 26 -21 41t-27 21t-33 6q-36 0 -52 -22t-16 -57q0 -27 9 -54q9 -28 24 -56q19 -35 34 -59q7 -11 40 -65q25 -42 41 -71q20 -37 32 -66q13 -33 21 -66q8 -35 8 -69q0 -46 -13 -78
q-13 -33 -36 -54q-23 -22 -51 -32q-30 -11 -59 -11zM154 880l109 -108l-3 -2l-106 44l-106 -44l-2 2z" />
    <glyph glyph-name="scircumflex" unicode="&#x15d;" horiz-adv-x="256" 
d="M142 0l-5 -5q27 0 39 20q12 19 12 45q0 31 -21 64q-20 32 -69 82q-19 20 -40 45q-15 17 -25 38q-8 16 -13 36q-4 16 -4 38q0 47 27 74t65 27q14 0 24 -3q14 -4 20 -7t18 -7q9 -3 21 -3q7 0 11 6q5 6 6 13h4v-114h-4q-9 31 -21 54q-11 21 -26 36q-13 13 -27 19t-25 6
q-19 0 -33 -12q-13 -12 -13 -35q0 -13 5 -26t15 -26q13 -17 27 -32q22 -24 40 -42q28 -30 44 -51q20 -26 29 -45q10 -21 15 -41q5 -22 5 -41q0 -29 -9 -51t-24 -37q-14 -14 -33 -22q-17 -7 -36 -7q-20 0 -35 6t-27 12q-8 4 -22 12q-11 6 -19 6q-6 0 -11 -5t-6 -12h-4v142h4
q21 -83 52 -120t69 -37zM118 688l93 -170l-3 -1l-90 78l-90 -78l-3 1z" />
    <glyph glyph-name="uni015E" unicode="&#x15e;" horiz-adv-x="316" 
d="M135 -5l-16 -31q15 -2 30 -6q16 -5 27 -13q13 -10 20 -21q8 -13 8 -27q0 -28 -32 -48q-32 -19 -105 -18l-1 3q38 4 60 18q23 14 23 30t-18 23q-18 8 -34 9l-2 3q5 13 17 39q2 4 4.5 8.5t5 9.5t3.5 8q6 12 6 13h4zM141 -5l-2 -4q-25 0 -46 8t-33 16q-14 9 -22 16
q-10 8 -15 8q-7 0 -12 -21h-2v184h3q12 -111 43 -158q31 -48 82 -48q42 0 64 28t22 82q0 32 -9 63t-24 63t-36 66q-6 10 -43 74q-21 36 -39 66q-19 31 -30 58q-11 25 -19 57q-7 27 -7 63q0 66 39 105t101 39q21 0 33 -4q13 -4 24 -9q12 -5 17 -9t11 -4q7 0 10 9q4 11 5 20h3
v-142h-3q-8 43 -16 66q-9 26 -21 41t-27 21t-33 6q-36 0 -52 -22t-16 -57q0 -27 9 -54q9 -28 24 -56q19 -35 34 -59q7 -11 40 -65q25 -42 41 -71q20 -37 32 -66q13 -33 21 -66q8 -35 8 -69q0 -46 -13 -78q-13 -33 -36 -54q-23 -22 -51 -32q-30 -11 -59 -11z" />
    <glyph glyph-name="uni015F" unicode="&#x15f;" horiz-adv-x="256" 
d="M114 4l-19 -40q15 -2 30 -6q16 -5 27 -13q13 -10 20 -21q8 -13 8 -27q0 -28 -32 -48q-32 -19 -105 -18l-1 3q38 4 60 18q23 14 23 30t-18 23q-18 8 -34 9l-2 3l39 87h4zM141 2l-5 -5q27 0 39 20q12 19 12 45q0 31 -21 64q-20 32 -69 82q-19 20 -40 45q-15 17 -25 38
q-8 16 -13 36q-4 16 -4 38q0 47 27 74t65 27q13 0 24 -3q14 -4 20 -7t18 -7q9 -3 21 -3q6 0 11 6t6 13h4v-114h-4q-9 31 -21 54q-11 21 -26 36q-13 13 -27 19t-25 6q-20 0 -33 -12t-13 -35q0 -13 5 -26t15 -26q13 -17 27 -32q22 -24 40 -42q28 -30 44 -51q19 -26 29 -45
q10 -21 15 -41q5 -22 5 -41q0 -29 -9 -51t-24 -37q-14 -14 -33 -22q-17 -7 -36 -7q-20 0 -35 6t-27 12q-8 4 -22 12q-10 6 -19 6q-6 0 -11 -5q-4 -5 -6 -12h-4v142h4q21 -83 52 -120t69 -37z" />
    <glyph glyph-name="Scaron" unicode="&#x160;" horiz-adv-x="316" 
d="M143 -7l-2 -4q-25 0 -46 8t-33 16q-14 9 -22 16q-10 8 -15 8q-7 0 -12 -21h-2v184h3q12 -111 43 -158q31 -48 82 -48q42 0 64 28t22 82q0 32 -9 63t-24 63t-36 66q-6 10 -43 74q-21 36 -39 66q-19 31 -30 58q-11 25 -19 57q-7 27 -7 63q0 66 39 105t101 39q21 0 33 -4
q13 -4 24 -9q12 -5 17 -9t11 -4q7 0 10 9q4 11 5 20h3v-142h-3q-8 43 -16 66q-9 26 -21 41t-27 21t-33 6q-36 0 -52 -22t-16 -57q0 -27 9 -54q9 -28 24 -56q19 -35 34 -59q7 -11 40 -65q25 -42 41 -71q20 -37 32 -66q13 -33 21 -66q8 -35 8 -69q0 -46 -13 -78
q-13 -33 -36 -54q-23 -22 -51 -32q-30 -11 -59 -11zM50 884l106 -43l106 43l3 -1l-109 -109l-108 109z" />
    <glyph glyph-name="scaron" unicode="&#x161;" horiz-adv-x="256" 
d="M142 0l-5 -5q27 0 39 20q12 19 12 45q0 31 -21 64q-20 32 -69 82q-19 20 -40 45q-15 17 -25 38q-8 16 -13 36q-4 16 -4 38q0 47 27 74t65 27q14 0 24 -3q14 -4 20 -7t18 -7q9 -3 21 -3q7 0 11 6q5 6 6 13h4v-114h-4q-9 31 -21 54q-11 21 -26 36q-13 13 -27 19t-25 6
q-19 0 -33 -12q-13 -12 -13 -35q0 -13 5 -26t15 -26q13 -17 27 -32q22 -24 40 -42q28 -30 44 -51q20 -26 29 -45q10 -21 15 -41q5 -22 5 -41q0 -29 -9 -51t-24 -37q-14 -14 -33 -22q-17 -7 -36 -7q-20 0 -35 6t-27 12q-8 4 -22 12q-11 6 -19 6q-6 0 -11 -5t-6 -12h-4v142h4
q21 -83 52 -120t69 -37zM31 686l90 -78l90 78l3 -1l-93 -169l-93 169z" />
    <glyph glyph-name="Tcommaaccent" unicode="&#x162;" horiz-adv-x="377" 
d="M107 2h8q10 3 17 8q6 4 9 20q2 12 4 45q1 20 1 83v586h-9q-33 0 -51 -7q-20 -8 -33 -22q-12 -14 -22 -38q-6 -14 -19 -56h-2l10 112q2 11 3 12q2 2 6 2h329q4 0 6 -2q2 -1 3 -12l11 -112h-2q-10 31 -21 54q-11 24 -24 38q-14 16 -33 23q-21 8 -51 8h-7v-586q0 -63 1 -83
q2 -33 4 -45q3 -16 9 -20q7 -5 17 -8v-2h-164v2zM224 -111l-3 1q-2 -4 -12 -10q-9 -6 -24 -6q-17 0 -31 12q-13 12 -13 32q0 22 15 34t34 12q21 0 38 -15t17 -46q0 -41 -22 -60t-54 -22l-2 5q29 4 45 18q17 14 17 33q0 7 -5 12z" />
    <glyph glyph-name="tcommaaccent" unicode="&#x163;" horiz-adv-x="203" 
d="M135 -7l-1 4q-41 0 -69 26q-27 25 -27 77v360h-42v4q20 3 39 12t38 26q17 16 31 42q13 24 19 60h5v-143h75v-4h-75v-352q0 -55 7 -77q7 -24 30 -24q14 0 24 5q12 6 17 9l2 -3q-2 -1 -9 -5.5t-13 -7.5q-15 -9 -51 -9zM141 -107l-3 1q-2 -4 -12 -10q-9 -6 -24 -6
q-17 0 -31 12q-13 12 -13 32q0 22 15 34t34 12q21 0 38 -15t17 -46q0 -41 -22 -60t-54 -22l-2 5q28 4 45 18t17 33q0 7 -5 12z" />
    <glyph glyph-name="Tcaron" unicode="&#x164;" horiz-adv-x="377" 
d="M107 2h8q10 3 17 8q6 4 9 20q2 12 4 45q1 20 1 83v586h-9q-33 0 -51 -7q-20 -8 -33 -22q-12 -14 -22 -38q-6 -14 -19 -56h-2l10 112q2 11 3 12q2 2 6 2h329q4 0 6 -2q2 -1 3 -12l11 -112h-2q-10 31 -21 54q-11 24 -24 38q-14 16 -33 23q-21 8 -51 8h-7v-586q0 -63 1 -83
q2 -33 4 -45q3 -16 9 -20q7 -5 17 -8v-2h-164v2zM90 888l106 -43l106 43l3 -1l-109 -109l-108 109z" />
    <glyph glyph-name="tcaron" unicode="&#x165;" horiz-adv-x="203" 
d="M135 -7l-1 4q-41 0 -69 26q-27 25 -27 77v360h-42v4q20 3 39 12t38 26q17 16 31 42q13 24 19 60h5v-143h75v-4h-75v-352q0 -55 7 -77q7 -24 30 -24q14 0 24 5q12 6 17 9l2 -3q-2 -1 -9 -5.5t-13 -7.5q-15 -9 -51 -9zM159 525l10 133q3 56 35 56q16 0 23 -9q8 -10 8 -22
q0 -17 -10 -36l-63 -123z" />
    <glyph glyph-name="Tbar" unicode="&#x166;" horiz-adv-x="377" 
d="M58 428h262v-4h-262v4zM107 2h8q10 3 17 8q6 4 9 20q2 12 4 45q1 20 1 83v586h-9q-33 0 -51 -7q-20 -8 -33 -22q-12 -14 -22 -38q-6 -14 -19 -56h-2l10 112q2 11 3 12q2 2 6 2h329q4 0 6 -2q2 -1 3 -12l11 -112h-2q-10 31 -21 54q-11 24 -24 38q-14 16 -33 23
q-21 8 -51 8h-7v-586q0 -63 1 -83q2 -33 4 -45q3 -16 9 -20q7 -5 17 -8v-2h-164v2z" />
    <glyph glyph-name="tbar" unicode="&#x167;" horiz-adv-x="203" 
d="M-1 310h202v-4h-202v4zM135 -7l-1 4q-41 0 -69 26q-27 25 -27 77v360h-42v4q20 3 39 12t38 26q17 16 31 42q13 24 19 60h5v-143h75v-4h-75v-352q0 -55 7 -77q7 -24 30 -24q14 0 24 5q12 6 17 9l2 -3q-2 -1 -9 -5.5t-13 -7.5q-15 -9 -51 -9z" />
    <glyph glyph-name="Utilde" unicode="&#x168;" horiz-adv-x="363" 
d="M199 -10l-5 1q-76 0 -118 39t-42 125v436q0 63 -1 83q-2 33 -4 45q-3 16 -9 20q-7 5 -17 8v2h163v-2q-10 -3 -17 -8q-6 -4 -9 -20q-2 -12 -4 -45q-1 -20 -1 -83v-441q0 -71 17 -111q16 -39 63 -39q43 0 72 39q29 40 29 116v434q0 61 -1 81q-2 33 -4 45q-3 15 -9 21
t-17 11v2h70v-2q-10 -5 -17 -11q-6 -6 -9 -21q-2 -12 -4 -45q-1 -20 -1 -81v-434q0 -80 -32 -123q-32 -42 -93 -42zM185 852l-2 -1q19 0 42 -3t37 -3q9 0 19 8q9 7 24 27l3 -1q-10 -47 -24 -66q-14 -20 -28 -20q-20 0 -39 3t-39 3q-11 0 -19 -7t-22 -27l-3 1q23 86 51 86z
" />
    <glyph glyph-name="utilde" unicode="&#x169;" horiz-adv-x="351" 
d="M128 -7l-5 -3q-13 0 -31 5q-16 4 -30 17q-13 12 -22 31t-9 46v229q0 30 -1 40q-2 16 -4 22q-3 8 -7 9q-6 2 -12 2v2l115 76v-402q0 -36 8 -50t21 -14q7 0 22 9q14 8 48 44v263q0 30 -1 40q-2 16 -4 22q-3 8 -7 9q-6 2 -12 2v2l115 76v-374v-49q0 -15 2 -27q1 -8 6 -13
q4 -5 12 -6v-2h-109v53q-35 -37 -56 -48q-20 -11 -39 -11zM144 612l2 2q11 0 18 -1t23 -3q8 -1 22 -3q7 -1 18 -1q9 0 18 9q12 12 23 28l3 -1q-19 -88 -51 -88q-16 0 -42 3t-42 3q-8 0 -17 -9q-3 -3 -25 -29l-3 1q12 42 26 66q14 23 27 23z" />
    <glyph glyph-name="Umacron" unicode="&#x16a;" horiz-adv-x="363" 
d="M199 -10l-5 1q-76 0 -118 39t-42 125v436q0 63 -1 83q-2 33 -4 45q-3 16 -9 20q-7 5 -17 8v2h163v-2q-10 -3 -17 -8q-6 -4 -9 -20q-2 -12 -4 -45q-1 -20 -1 -83v-441q0 -71 17 -111q16 -39 63 -39q43 0 72 39q29 40 29 116v434q0 61 -1 81q-2 33 -4 45q-3 15 -9 21
t-17 11v2h70v-2q-10 -5 -17 -11q-6 -6 -9 -21q-2 -12 -4 -45q-1 -20 -1 -81v-434q0 -80 -32 -123q-32 -42 -93 -42zM294 790h-161v38h161v-38z" />
    <glyph glyph-name="umacron" unicode="&#x16b;" horiz-adv-x="351" 
d="M128 -7l-5 -3q-13 0 -31 5q-16 4 -30 17q-13 12 -22 31t-9 46v229q0 30 -1 40q-2 16 -4 22q-3 8 -7 9q-6 2 -12 2v2l115 76v-402q0 -36 8 -50t21 -14q7 0 22 9q14 8 48 44v263q0 30 -1 40q-2 16 -4 22q-3 8 -7 9q-6 2 -12 2v2l115 76v-374v-49q0 -15 2 -27q1 -8 6 -13
q4 -5 12 -6v-2h-109v53q-35 -37 -56 -48q-20 -11 -39 -11zM251 590v-38h-153v38h153z" />
    <glyph glyph-name="Ubreve" unicode="&#x16c;" horiz-adv-x="363" 
d="M199 -10l-5 1q-76 0 -118 39t-42 125v436q0 63 -1 83q-2 33 -4 45q-3 16 -9 20q-7 5 -17 8v2h163v-2q-10 -3 -17 -8q-6 -4 -9 -20q-2 -12 -4 -45q-1 -20 -1 -83v-441q0 -71 17 -111q16 -39 63 -39q43 0 72 39q29 40 29 116v434q0 61 -1 81q-2 33 -4 45q-3 15 -9 21
t-17 11v2h70v-2q-10 -5 -17 -11q-6 -6 -9 -21q-2 -12 -4 -45q-1 -20 -1 -81v-434q0 -80 -32 -123q-32 -42 -93 -42zM215 832h-1q27 0 44 11t26 30h4q-1 -44 -21 -70q-19 -25 -54 -25q-32 0 -52 26q-19 25 -21 71h4q7 -18 26 -31q18 -12 45 -12z" />
    <glyph glyph-name="ubreve" unicode="&#x16d;" horiz-adv-x="351" 
d="M128 -7l-5 -3q-13 0 -31 5q-16 4 -30 17q-13 12 -22 31t-9 46v229q0 30 -1 40q-2 16 -4 22q-3 8 -7 9q-6 2 -12 2v2l115 76v-402q0 -36 8 -50t21 -14q7 0 22 9q14 8 48 44v263q0 30 -1 40q-2 16 -4 22q-3 8 -7 9q-6 2 -12 2v2l115 76v-374v-49q0 -15 2 -27q1 -8 6 -13
q4 -5 12 -6v-2h-109v53q-35 -37 -56 -48q-20 -11 -39 -11zM178 585q32 0 47 12t21 29h4q0 -37 -17 -66t-54 -29t-55 29q-18 28 -18 68h4q4 -16 21 -30q16 -13 47 -13z" />
    <glyph glyph-name="Uring" unicode="&#x16e;" horiz-adv-x="363" 
d="M199 -10l-5 1q-76 0 -118 39t-42 125v436q0 63 -1 83q-2 33 -4 45q-3 16 -9 20q-7 5 -17 8v2h163v-2q-10 -3 -17 -8q-6 -4 -9 -20q-2 -12 -4 -45q-1 -20 -1 -83v-441q0 -71 17 -111q16 -39 63 -39q43 0 72 39q29 40 29 116v434q0 61 -1 81q-2 33 -4 45q-3 15 -9 21
t-17 11v2h70v-2q-10 -5 -17 -11q-6 -6 -9 -21q-2 -12 -4 -45q-1 -20 -1 -81v-434q0 -80 -32 -123q-32 -42 -93 -42zM142 833q0 29 21 48q22 20 53 20q33 0 53 -19q21 -20 21 -48t-21 -48q-20 -19 -53 -19q-32 0 -53 18t-21 48zM183 833l-1 1q0 -28 9 -46t24 -18q16 0 25 18
t9 45q0 26 -9 44t-25 18q-14 0 -23 -18t-9 -44z" />
    <glyph glyph-name="uring" unicode="&#x16f;" horiz-adv-x="351" 
d="M128 -7l-5 -3q-13 0 -31 5q-16 4 -30 17q-13 12 -22 31t-9 46v229q0 30 -1 40q-2 16 -4 22q-3 8 -7 9q-6 2 -12 2v2l115 76v-402q0 -36 8 -50t21 -14q7 0 22 9q14 8 48 44v263q0 30 -1 40q-2 16 -4 22q-3 8 -7 9q-6 2 -12 2v2l115 76v-374v-49q0 -15 2 -27q1 -8 6 -13
q4 -5 12 -6v-2h-109v53q-35 -37 -56 -48q-20 -11 -39 -11zM101 590q0 28 21 48q22 20 53 20q33 0 53 -19q21 -19 21 -48t-21 -48q-20 -19 -53 -19q-32 0 -53 18t-21 48zM142 590l-1 1q0 -28 9 -46t24 -18q16 0 25 18t9 45q0 26 -9 44t-25 18q-14 0 -23 -18t-9 -44z" />
    <glyph glyph-name="Uhungarumlaut" unicode="&#x170;" horiz-adv-x="363" 
d="M199 -10l-5 1q-76 0 -118 39t-42 125v436q0 63 -1 83q-2 33 -4 45q-3 16 -9 20q-7 5 -17 8v2h163v-2q-10 -3 -17 -8q-6 -4 -9 -20q-2 -12 -4 -45q-1 -20 -1 -83v-441q0 -71 17 -111q16 -39 63 -39q43 0 72 39q29 40 29 116v434q0 61 -1 81q-2 33 -4 45q-3 15 -9 21
t-17 11v2h70v-2q-10 -5 -17 -11q-6 -6 -9 -21q-2 -12 -4 -45q-1 -20 -1 -81v-434q0 -80 -32 -123q-32 -42 -93 -42zM244 770l41 83q7 15 15 24t24 9q14 0 20 -9t6 -19q0 -14 -10 -23t-18 -15l-75 -52zM139 771l37 83q7 14 17 24q9 9 25 9q14 0 21 -9q7 -8 7 -19
q0 -14 -10 -23q-12 -10 -19 -15l-75 -52z" />
    <glyph glyph-name="uhungarumlaut" unicode="&#x171;" horiz-adv-x="351" 
d="M128 -7l-5 -3q-13 0 -31 5q-16 4 -30 17q-13 12 -22 31t-9 46v229q0 30 -1 40q-2 16 -4 22q-3 8 -7 9q-6 2 -12 2v2l115 76v-402q0 -36 8 -50t21 -14q7 0 22 9q14 8 48 44v263q0 30 -1 40q-2 16 -4 22q-3 8 -7 9q-6 2 -12 2v2l115 76v-374v-49q0 -15 2 -27q1 -8 6 -13
q4 -5 12 -6v-2h-109v53q-35 -37 -56 -48q-20 -11 -39 -11zM215 519l29 124q4 19 14 30q9 11 26 11q14 0 21 -9q8 -10 8 -22q0 -8 -4 -16q-3 -6 -9 -16l-82 -103zM107 520l30 125q4 19 14 30q9 11 26 11q13 0 21 -9q7 -8 7 -22q0 -17 -13 -33l-82 -103z" />
    <glyph glyph-name="Uogonek" unicode="&#x172;" horiz-adv-x="363" 
d="M205 -178h-4q-31 0 -51 18q-19 18 -19 46q0 20 10 36q10 15 26 30q15 14 33 24t33 18q-20 -5 -38 -5q-76 0 -118 39t-42 125v436q0 63 -1 83q-2 33 -4 45q-3 16 -9 20q-7 5 -17 8v2h163v-2q-10 -3 -17 -8q-6 -4 -9 -20q-2 -12 -4 -45q-1 -20 -1 -83v-441q0 -71 17 -111
q17 -39 63 -39q44 0 72 39q29 40 29 116v434q0 61 -1 81q-2 33 -4 45q-3 15 -9 21t-17 11v2h70v-2q-10 -5 -17 -11q-6 -6 -9 -21q-2 -12 -4 -45q-1 -20 -1 -81v-434q0 -109 -56 -145q-7 -6 -18 -15q-9 -7 -19 -23q-9 -13 -15 -32q-6 -18 -6 -40q0 -21 11 -34q10 -12 27 -12
q15 0 23 4q10 5 17 12l2 -2q-4 -6 -10 -12q-7 -8 -18 -15q-11 -8 -25 -12q-17 -5 -33 -5z" />
    <glyph glyph-name="uogonek" unicode="&#x173;" horiz-adv-x="351" 
d="M128 -7l-4 -7q-13 0 -31 5q-16 4 -30 17q-13 12 -22 31t-9 46v229q0 30 -1 40q-2 16 -4 22q-3 8 -7 9q-6 2 -12 2v2l115 76v-402q0 -36 8 -50t21 -14q7 0 22 9q14 8 48 44v263q0 30 -1 40q-2 16 -4 22q-3 8 -7 9q-6 2 -12 2v2l115 76v-374v-49q0 -15 2 -27q1 -8 6 -13
t12 -6v-2h-105q-9 -9 -22 -38q-12 -27 -12 -62q0 -21 11 -34q11 -12 27 -12q15 0 23 4q10 5 17 12l2 -2q-4 -6 -10 -12q-8 -7 -18 -15q-11 -8 -25 -12q-17 -5 -33 -5q-32 0 -51 18t-19 46q0 20 11 39q11 18 27 33q17 16 35 26q8 5 32 18v53q-35 -37 -56 -48q-20 -11 -39 -11
z" />
    <glyph glyph-name="Wcircumflex" unicode="&#x174;" horiz-adv-x="530" 
d="M42 623l-16 39q-5 24 -10 35q-5 13 -12 25q-6 11 -16 18v2h151v-2q-22 -7 -22 -24q0 -14 8 -54l112 -480l39 172l-59 262q-8 31 -12 49q-5 21 -9 36t-12 24q-9 11 -19 17v2h148v-2q-19 -6 -18 -24q1 -17 9 -55l35 -167l23 122l7 42q3 20 3 36t-6 28t-20 20v2h78v-2
q-10 -4 -18 -9q-6 -4 -13 -17q-6 -11 -12 -35q-5 -17 -13 -61l-26 -134l61 -296l79 429l7 42q3 17 1 36q-1 16 -9 28q-8 13 -25 20v2h82v-2q-8 -5 -13 -10q-6 -6 -12 -18q-6 -11 -12 -35q-5 -17 -13 -61l-115 -627h-11l-80 354l-80 -354h-11zM291 875l109 -108l-3 -2
l-106 44l-106 -44l-2 2z" />
    <glyph glyph-name="wcircumflex" unicode="&#x175;" horiz-adv-x="430" 
d="M40 355l-2 -7q-13 51 -14 54q-4 20 -9 30q-5 11 -9 14q-6 4 -12 5v2h135v-2q-10 -3 -14 -6q-5 -3 -5 -12q0 -8 3 -28q3 -18 12 -52l55 -213l37 133l-19 77q-2 9 -5.5 21.5t-5.5 20.5t-3 14q-2 10 -8 30q-3 10 -7 13q-6 4 -10 5v2h137v-2q-9 -3 -16 -6t-8 -12
q-2 -10 1 -28q2 -11 11 -52l48 -205l42 183q12 48 14 67q3 24 0 36t-12 15q-11 4 -24 5v2h87v-2q-11 -3 -19 -6q-7 -3 -13 -15q-6 -13 -12 -34q-1 -3 -16 -66l-78 -340h-11l-68 273l-76 -273h-11zM226 686l93 -170l-3 -1l-90 78l-90 -78l-3 1z" />
    <glyph glyph-name="Ycircumflex" unicode="&#x176;" horiz-adv-x="329" 
d="M92 2h-1q10 3 17 8q6 4 9 20q2 12 4 45q1 20 1 83v237l-75 231q-5 17 -14 44q-7 20 -12 32q-7 15 -13 24q-8 12 -18 20v2h153v-2q-21 -7 -18 -25q2 -13 14 -52l80 -259l54 212q11 42 14 54q5 21 3 35q-2 13 -9 21q-8 8 -26 14v2h81v-2q-9 -4 -16 -11q-6 -6 -12 -18
q-6 -11 -12 -35q-1 -4 -4 -15.5t-6 -22.5l-6 -22l-56 -218v-246q0 -63 1 -83q2 -33 4 -45q3 -16 9 -20q7 -5 17 -8v-2h-163v2zM195 884l109 -108l-3 -2l-106 44l-106 -44l-2 2z" />
    <glyph glyph-name="ycircumflex" unicode="&#x177;" 
d="M36 -175l-2 2q-20 0 -30 9t-10 22q0 16 9 23q10 8 24 8q11 0 17 -3l12 -6l11 -5q6 -3 14 -3q12 0 21 18q10 19 24 61l14 49l-104 356q-4 12 -9 30t-7 24q-7 24 -10 30q-5 11 -9 14q-5 3 -12 6v2h145v-2q-10 -1 -16 -6q-6 -4 -6 -15t3 -30t12 -51l57 -207l52 183
q13 47 17 66q5 24 3 36q-1 11 -9 16t-19 6v2h74v-2q-12 -5 -17 -9q-6 -5 -12 -16q-4 -8 -13 -35q-3 -9 -19 -65l-109 -383q-23 -66 -42 -95q-20 -30 -54 -30zM167 695l93 -170l-3 -1l-90 78l-90 -78l-3 1z" />
    <glyph glyph-name="Ydieresis" unicode="&#x178;" horiz-adv-x="329" 
d="M92 2h-1q10 3 17 8q6 4 9 20q2 12 4 45q1 20 1 83v237l-75 231q-5 17 -14 44q-7 20 -12 32q-7 15 -13 24q-8 12 -18 20v2h153v-2q-21 -7 -18 -25q2 -13 14 -52l80 -259l54 212q11 42 14 54q5 21 3 35q-2 13 -9 21q-8 8 -26 14v2h81v-2q-9 -4 -16 -11q-6 -6 -12 -18
q-6 -11 -12 -35q-1 -4 -4 -15.5t-6 -22.5l-6 -22l-56 -218v-246q0 -63 1 -83q2 -33 4 -45q3 -16 9 -20q7 -5 17 -8v-2h-163v2zM264 777v-2q-19 0 -33 14q-13 13 -13 33t13 33q14 14 33 14q20 0 33 -13t13 -33t-13 -33t-33 -13zM128 775v-2q-19 0 -33 14q-13 13 -13 33t13 33
q14 14 33 14q20 0 33 -13t13 -33t-13 -33t-33 -13z" />
    <glyph glyph-name="Zacute" unicode="&#x179;" horiz-adv-x="321" 
d="M199 747h-15q-35 0 -58 -10q-25 -11 -42 -28q-18 -18 -33 -42q-14 -22 -28 -52h-2l24 134h254l-192 -747h19q47 0 76 10q31 11 51 31t34 51t27 70h2l-19 -164h-289zM96 776l100 78q9 7 20 12q10 5 20 5q14 0 21 -9q8 -10 8 -21q0 -28 -41 -39l-127 -28z" />
    <glyph glyph-name="zacute" unicode="&#x17a;" horiz-adv-x="280" 
d="M260 -8l2 -2q-12 4 -36 6q-32 2 -78 2h-141l172 457h-27q-32 0 -52 -7q-21 -8 -36 -21q-15 -14 -24 -31q-9 -18 -18 -39h-3l19 109q17 -5 43 -6q18 -1 71 -1h115l-176 -457h42q37 0 60 9t38 24t24 36q8 19 18 47h3zM110 521l59 122q9 20 19 30t24 10t23 -9t9 -22
q0 -14 -6 -24t-20 -21l-105 -87z" />
    <glyph glyph-name="Zdotaccent" unicode="&#x17b;" horiz-adv-x="321" 
d="M199 747h-15q-35 0 -58 -10q-25 -11 -42 -28q-18 -18 -33 -42q-14 -22 -28 -52h-2l24 134h254l-192 -747h19q47 0 76 10q31 11 51 31t34 51t27 70h2l-19 -164h-289zM174 778q-22 0 -37 15t-15 36t15 36t37 15q21 0 36 -15t15 -36t-15 -36t-36 -15z" />
    <glyph glyph-name="zdotaccent" unicode="&#x17c;" horiz-adv-x="280" 
d="M260 -8l2 -2q-12 4 -36 6q-32 2 -78 2h-141l172 457h-27q-32 0 -52 -7q-21 -8 -36 -21q-15 -14 -24 -31q-9 -18 -18 -39h-3l19 109q17 -5 43 -6q18 -1 71 -1h115l-176 -457h42q37 0 60 9t38 24t24 36q8 19 18 47h3zM155 534q-21 0 -36 15t-15 37q0 21 15 36t36 15
q22 0 37 -15t15 -36q0 -22 -15 -37t-37 -15z" />
    <glyph glyph-name="Zcaron" unicode="&#x17d;" horiz-adv-x="321" 
d="M199 747h-15q-35 0 -58 -10q-25 -11 -42 -28q-18 -18 -33 -42q-14 -22 -28 -52h-2l24 134h254l-192 -747h19q47 0 76 10q31 11 51 31t34 51t27 70h2l-19 -164h-289zM67 888l106 -43l106 43l3 -1l-109 -109l-108 109z" />
    <glyph glyph-name="zcaron" unicode="&#x17e;" horiz-adv-x="280" 
d="M260 -8l2 -2q-12 4 -36 6q-32 2 -78 2h-141l172 457h-27q-32 0 -52 -7q-21 -8 -36 -21q-15 -14 -24 -31q-9 -18 -18 -39h-3l19 109q17 -5 43 -6q18 -1 71 -1h115l-176 -457h42q37 0 60 9t38 24t24 36q8 19 18 47h3zM65 689l90 -78l90 78l3 -1l-93 -169l-93 169z" />
    <glyph glyph-name="uni0192" unicode="&#x192;" horiz-adv-x="316" 
d="M48 460l51 -4l11 105q6 56 21 94q15 37 36 60q20 21 44 31q23 9 42 9q32 0 56 -12t24 -36q0 -12 -7 -20q-8 -9 -22 -9q-16 0 -24 8q-7 7 -10 24q-5 28 -7 33q-3 8 -13 8q-8 0 -16 -5q-7 -4 -13 -18q-5 -12 -10 -37t-9 -61l-18 -171h68v-4h-68l-33 -317q-7 -76 -24 -126
q-16 -49 -39 -79t-46 -42q-24 -12 -47 -12q-31 0 -55 12t-24 37q0 10 8 21q7 10 24 10t23 -9t9 -24q4 -21 8 -34q3 -9 14 -9q12 0 21 9t15 33t12 69q8 63 14 118l36 344h-52v4z" />
    <glyph glyph-name="Aringacute" unicode="&#x1fa;" horiz-adv-x="322" 
d="M-8 1h-5q8 5 14 12q5 6 10 21q5 14 9 36q1 5 10 59l76 503l-9 51q-6 41 -16 52q-11 12 -21 15v1h111q6 0 8 -1q3 -1 4 -7l103 -615q4 -32 9 -54q4 -21 9 -37t10 -24q6 -9 14 -12v-1h-140v1q13 5 17 19q4 15 -3 61l-25 144h-126l-14 -96q-7 -41 -8 -59q-2 -24 1 -36
q3 -14 10 -21q8 -7 21 -12v-1h-69v1zM174 229l-67 388l-58 -388h125zM56 837q0 29 21 48q22 20 53 20q33 0 53 -19q21 -20 21 -48t-21 -48q-20 -19 -53 -19q-32 0 -53 18t-21 48zM97 837l-1 1q0 -28 9 -46t24 -18q16 0 25 18t9 45q0 26 -9 44t-25 18q-14 0 -23 -18t-9 -44z
M55 908l100 78q9 7 20 12q10 5 20 5q13 0 21 -9q8 -10 8 -21q0 -28 -41 -39l-127 -28z" />
    <glyph glyph-name="aringacute" unicode="&#x1fb;" horiz-adv-x="319" 
d="M102 -6v-6q-35 0 -59 26q-24 25 -24 77q0 33 15 54t36 36q20 14 44 27q21 11 39 26q16 13 28 28t12 45v74q0 50 -9 65t-34 15q-17 0 -27 -10q-11 -11 -18 -43q-4 -19 -12 -31q-7 -12 -24 -12t-24 9q-8 10 -8 22q0 11 6 23q5 11 20 22q14 11 35 17t53 6q31 0 52 -4
q24 -4 42 -18q17 -13 28 -36q10 -21 10 -59v-218q0 -49 1 -65q2 -26 4 -37q3 -14 7 -18t12 -4q10 0 21 8l1 -2q-8 -6 -18 -11q-12 -6 -41 -6q-36 0 -54 15t-21 38q-9 -10 -24 -25q-9 -9 -21 -16q-10 -6 -21 -9t-27 -3zM108 109l-1 -1q0 -55 10 -79q10 -25 25 -25q4 0 6 1
q3 1 9 6q8 6 14 12l21 21v232q-4 -16 -15 -27t-24 -21q-16 -15 -24 -25q-10 -14 -14 -25q-5 -14 -6 -30q-1 -11 -1 -39zM84 586q0 28 21 48q22 20 53 20q33 0 53 -19q21 -19 21 -48t-21 -48q-20 -19 -53 -19q-32 0 -53 18t-21 48zM125 586l-1 1q0 -28 9 -46t24 -18
q16 0 25 18t9 45q0 26 -9 44t-25 18q-14 0 -23 -18t-9 -44zM88 675l100 78q9 7 20 12q10 5 20 5q14 0 21 -9q8 -10 8 -21q0 -28 -41 -39l-127 -28z" />
    <glyph glyph-name="AEacute" unicode="&#x1fc;" horiz-adv-x="466" 
d="M370 332l2 2q-4 18 -7 27q-5 13 -12 24t-21 18q-13 7 -36 7h-4v-405h18q30 0 54 3t42 15q19 13 32 34q14 24 23 60h4l-12 -106q-2 -8 -4 -9t-6 -1h-284v2q10 3 17 8q6 4 9 20q2 12 4 45q1 20 1 83v65h-117l-24 -102q-7 -33 -12 -54q-5 -23 -5 -35q0 -14 4 -21
q4 -8 15 -12v-1h-61v1q8 5 14 12q6 8 12 21t12 35q8 30 14 54l132 555q5 20 6 31q2 12 0 20t-9 12q-6 4 -22 7v3h262q4 0 8 -2t5 -12l16 -89h-3q-17 59 -53 80t-85 21h-9v-333h4q23 0 36 7q14 8 21 18t12 24q3 9 7 27h1v-159h-1zM191 231v495l-116 -495h116zM218 778l100 78
q9 7 20 12q10 5 20 5q14 0 21 -9q8 -10 8 -21q0 -28 -41 -39l-127 -28z" />
    <glyph glyph-name="aeacute" unicode="&#x1fd;" horiz-adv-x="472" 
d="M102 -6l-2 -4q-35 0 -59 26t-24 77q0 33 15 54t36 36q20 14 44 27q21 11 39 26q16 13 28 28t12 45v74q0 50 -9 65t-34 15q-17 0 -27 -10q-11 -11 -18 -43q-4 -19 -12 -31q-7 -12 -24 -12t-24 9q-8 10 -8 22q0 11 6 23q5 11 20 22q14 11 35 17t53 6q36 0 63 -7
q28 -7 45 -30q20 20 39 29q20 9 39 9q54 0 84 -42q31 -43 35 -106h-168q-1 -9 -1 -30v-34q0 -123 20 -188q19 -63 68 -63q26 0 44 12q19 13 26 21l3 -3q-11 -11 -28 -24q-20 -15 -54 -15q-46 0 -83 20t-59 63l-19 -20q-22 -24 -28 -30q-15 -15 -22 -20q-12 -8 -22 -11
q-12 -3 -29 -3zM336 460l1 -1q-7 0 -15 -6t-15 -21q-7 -13 -13 -42q-5 -24 -7 -70h92q0 72 -12 106t-31 34zM107 110l-3 -2q0 -55 10 -79q10 -25 25 -25q3 0 9 2t11 7q2 2 7.5 7t9.5 9q5 5 27 29l17 18q-29 56 -29 147v54q-5 -17 -15 -27t-24 -21q-16 -15 -24 -25
q-10 -14 -14 -25q-4 -13 -6 -30q-1 -11 -1 -39zM213 516l59 122q9 20 19 30t24 10t23 -9t9 -22t-6 -24q-6 -10 -20 -21l-105 -87z" />
    <glyph glyph-name="Oslashacute" unicode="&#x1fe;" horiz-adv-x="415" 
d="M207 -8l2 -2q-43 0 -81 33l-12 -50l-5 1l13 53q-45 42 -74 128q-29 87 -29 219q0 101 16 171q17 73 42 119t59 69t69 23q44 0 83 -33l10 44l5 -1l-11 -46q44 -41 72 -124q29 -85 29 -220q0 -98 -16 -168q-17 -74 -43 -120q-27 -48 -60 -72t-69 -24zM127 374h-1
q0 -94 4 -154q4 -67 12 -115l130 541q-20 104 -63 104t-63 -96q-19 -94 -19 -280zM208 -5l-1 -1q46 0 64 98q17 95 19 282q0 166 -15 260l-130 -542q19 -97 63 -97zM131 773l100 78q9 7 20 12q10 5 20 5q13 0 21 -9q8 -10 8 -21q0 -28 -41 -39l-127 -28z" />
    <glyph glyph-name="oslashacute" unicode="&#x1ff;" horiz-adv-x="349" 
d="M175 -1l-4 -6q13 0 24 12q11 13 20 39q10 29 14 70q5 48 5 108q0 58 -3 98q-3 35 -8 69l15 54q-2 2 -3 2l8 29l4 -1l-9 -30q36 -24 63 -78t27 -142q0 -61 -15 -105t-39 -72q-23 -28 -51 -40q-27 -12 -50 -12q-12 0 -29 5q-12 4 -31 14l14 46l-2 8l97 333q-9 37 -21 50
q-12 14 -26 14q-12 0 -25 -11q-12 -10 -21 -38q-8 -25 -13 -73q-5 -52 -5 -117q0 -54 3 -93q3 -37 11 -66l-15 -51l3 -3l-10 -35l-4 1l11 37q-18 11 -35 29q-17 19 -29 44q-13 27 -20 60q-8 37 -8 76q0 67 16 112q17 48 40 75q24 29 51 42q26 13 50 13q15 0 30 -4
q17 -4 33 -15l-14 -48l2 -8l-97 -333q7 -31 20 -45q12 -14 26 -14zM127 517l59 122q9 20 19 30t24 10t23 -9t9 -22q0 -14 -6 -24t-20 -21l-105 -87z" />
    <glyph glyph-name="uni0218" unicode="&#x218;" horiz-adv-x="316" 
d="M143 -7l-2 -4q-25 0 -46 8t-33 16q-14 9 -22 16q-10 8 -15 8q-7 0 -12 -21h-2v184h3q12 -111 43 -158q31 -48 82 -48q42 0 64 28t22 82q0 32 -9 63t-24 63t-36 66q-6 10 -43 74q-21 36 -39 66q-19 31 -30 58q-11 25 -19 57q-7 27 -7 63q0 66 39 105t101 39q21 0 33 -4
q13 -4 24 -9q12 -5 17 -9t11 -4q7 0 10 9q4 11 5 20h3v-142h-3q-8 43 -16 66q-9 26 -21 41t-27 21t-33 6q-36 0 -52 -22t-16 -57q0 -27 9 -54q9 -28 24 -56q19 -35 34 -59q7 -11 40 -65q25 -42 41 -71q20 -37 32 -66q13 -33 21 -66q8 -35 8 -69q0 -46 -13 -78
q-13 -33 -36 -54q-23 -22 -51 -32q-30 -11 -59 -11zM172 -115l-3 1q-2 -4 -12 -10q-9 -6 -24 -6q-17 0 -31 12q-13 12 -13 32q0 22 15 34t34 12q22 0 38 -15q17 -15 17 -46q0 -41 -22 -60t-54 -22l-2 5q29 4 45 18q17 14 17 33q0 7 -5 12z" />
    <glyph glyph-name="uni0219" unicode="&#x219;" horiz-adv-x="256" 
d="M142 0l-5 -5q27 0 39 20q12 19 12 45q0 31 -21 64q-20 32 -69 82q-19 20 -40 45q-15 17 -25 38q-8 16 -13 36q-4 16 -4 38q0 47 27 74t65 27q14 0 24 -3q14 -4 20 -7t18 -7q9 -3 21 -3q7 0 11 6q5 6 6 13h4v-114h-4q-9 31 -21 54q-11 21 -26 36q-13 13 -27 19t-25 6
q-19 0 -33 -12q-13 -12 -13 -35q0 -13 5 -26t15 -26q13 -17 27 -32q22 -24 40 -42q28 -30 44 -51q20 -26 29 -45q10 -21 15 -41q5 -22 5 -41q0 -29 -9 -51t-24 -37q-14 -14 -33 -22q-17 -7 -36 -7q-20 0 -35 6t-27 12q-8 4 -22 12q-11 6 -19 6q-6 0 -11 -5t-6 -12h-4v142h4
q21 -83 52 -120t69 -37zM152 -116l-3 1q-2 -4 -12 -10q-9 -6 -24 -6q-17 0 -31 12q-13 12 -13 32q0 22 15 34t34 12q22 0 38 -15q17 -15 17 -46q0 -41 -22 -60t-54 -22l-2 5q29 5 45 18q17 14 17 33q0 7 -5 12z" />
    <glyph glyph-name="uni021A" unicode="&#x21a;" horiz-adv-x="377" 
d="M107 2h8q10 3 17 8q6 4 9 20q2 12 4 45q1 20 1 83v586h-9q-33 0 -51 -7q-20 -8 -33 -22q-12 -14 -22 -38q-6 -14 -19 -56h-2l10 112q2 11 3 12q2 2 6 2h329q4 0 6 -2q2 -1 3 -12l11 -112h-2q-10 31 -21 54q-11 24 -24 38q-14 16 -33 23q-21 8 -51 8h-7v-586q0 -63 1 -83
q2 -33 4 -45q3 -16 9 -20q7 -5 17 -8v-2h-164v2zM224 -111l-3 1q-2 -4 -12 -10q-9 -6 -24 -6q-17 0 -31 12q-13 12 -13 32q0 22 15 34t34 12q21 0 38 -15t17 -46q0 -41 -22 -60t-54 -22l-2 5q29 4 45 18q17 14 17 33q0 7 -5 12z" />
    <glyph glyph-name="uni021B" unicode="&#x21b;" horiz-adv-x="203" 
d="M135 -7l-1 4q-41 0 -69 26q-27 25 -27 77v360h-42v4q20 3 39 12t38 26q17 16 31 42q13 24 19 60h5v-143h75v-4h-75v-352q0 -55 7 -77q7 -24 30 -24q14 0 24 5q12 6 17 9l2 -3q-2 -1 -9 -5.5t-13 -7.5q-15 -9 -51 -9zM141 -107l-3 1q-2 -4 -12 -10q-9 -6 -24 -6
q-17 0 -31 12q-13 12 -13 32q0 22 15 34t34 12q21 0 38 -15t17 -46q0 -41 -22 -60t-54 -22l-2 5q28 4 45 18t17 33q0 7 -5 12z" />
    <glyph glyph-name="uni0237" unicode="&#x237;" horiz-adv-x="165" 
d="M-29 -130l2 -3q-19 0 -33 11q-13 10 -13 27q0 14 9 23t23 9q15 0 23 -7t15 -17q8 -12 12 -17q6 -7 14 -7q5 0 9 4q2 3 3 9q2 8 2 17v29v45v317q0 34 -1 45q-2 18 -4 25q-3 10 -7 11q-6 2 -12 2v2l114 76v-407q0 -35 -4 -56q-5 -27 -13 -44q-9 -20 -24 -35t-36 -30
q-26 -20 -43 -24q-20 -5 -36 -5z" />
    <glyph glyph-name="circumflex" unicode="&#x2c6;" horiz-adv-x="446" 
d="M228 693l93 -170l-3 -1l-90 78l-90 -78l-3 1z" />
    <glyph glyph-name="caron" unicode="&#x2c7;" horiz-adv-x="446" 
d="M138 691l90 -78l90 78l3 -1l-93 -169l-93 169z" />
    <glyph glyph-name="breve" unicode="&#x2d8;" horiz-adv-x="446" 
d="M223 588q32 0 47 12t21 29h4q0 -37 -17 -66t-54 -29t-55 29t-18 68h4q5 -17 21 -30t47 -13z" />
    <glyph glyph-name="dotaccent" unicode="&#x2d9;" horiz-adv-x="446" 
d="M222 536q-21 0 -36 15t-15 37q0 21 15 36t36 15q22 0 37 -15t15 -36q0 -22 -15 -37t-37 -15z" />
    <glyph glyph-name="ring" unicode="&#x2da;" horiz-adv-x="446" 
d="M157 593q0 29 21 48q22 20 53 20q33 0 53 -19q21 -20 21 -48t-21 -48q-20 -19 -53 -19q-32 0 -53 18t-21 48zM198 593l-1 1q0 -28 9 -46t24 -18q16 0 25 18t9 45q0 26 -9 44t-25 18q-14 0 -23 -18t-9 -44z" />
    <glyph glyph-name="ogonek" unicode="&#x2db;" horiz-adv-x="446" 
d="M235 -178l1 -5q-32 0 -50 18t-18 46q0 21 12 39q11 17 29 33t36 26q19 11 36 18h4q-15 -15 -29 -39q-15 -26 -15 -60q0 -21 11 -34q10 -12 27 -12q15 0 23 4q10 5 17 12l2 -2q-4 -6 -10 -12q-7 -8 -18 -15q-11 -8 -25 -12q-17 -5 -33 -5z" />
    <glyph glyph-name="tilde" unicode="&#x2dc;" horiz-adv-x="446" 
d="M187 615l2 2q11 0 18 -1t23 -3q8 -1 22 -3q7 -1 18 -1q9 0 18 9q12 12 23 28l3 -1q-19 -88 -51 -88q-17 0 -42 3t-42 3q-8 0 -17 -9q-3 -3 -25 -29l-3 1q12 42 26 66q14 23 27 23z" />
    <glyph glyph-name="hungarumlaut" unicode="&#x2dd;" horiz-adv-x="446" 
d="M240 522l29 124q4 19 14 30q9 11 26 11q13 0 21 -9q8 -10 8 -22q0 -8 -4 -16q-3 -6 -9 -16l-82 -103zM132 523l30 125q4 19 14 30q9 11 26 11q14 0 21 -9q7 -8 7 -22q0 -17 -13 -33l-82 -103z" />
    <glyph glyph-name="Wgrave" unicode="&#x1e80;" horiz-adv-x="530" 
d="M42 623l-16 39q-5 24 -10 35q-5 13 -12 25q-6 11 -16 18v2h151v-2q-22 -7 -22 -24q0 -14 8 -54l112 -480l39 172l-59 262q-8 31 -12 49q-5 21 -9 36t-12 24q-9 11 -19 17v2h148v-2q-19 -6 -18 -24q1 -17 9 -55l35 -167l23 122l7 42q3 20 3 36t-6 28t-20 20v2h78v-2
q-10 -4 -18 -9q-6 -4 -13 -17q-6 -11 -12 -35q-5 -17 -13 -61l-26 -134l61 -296l79 429l7 42q3 17 1 36q-1 16 -9 28q-8 13 -25 20v2h82v-2q-8 -5 -13 -10q-6 -6 -12 -18q-6 -11 -12 -35q-5 -17 -13 -61l-115 -627h-11l-80 354l-80 -354h-11zM242 793l1 -2q-41 11 -41 39
q0 11 8 21q8 9 21 9q12 0 20 -4q11 -5 20 -12l99 -77l-1 -2z" />
    <glyph glyph-name="wgrave" unicode="&#x1e81;" horiz-adv-x="430" 
d="M40 355l-2 -7q-13 51 -14 54q-4 20 -9 30q-5 11 -9 14q-6 4 -12 5v2h135v-2q-10 -3 -14 -6q-5 -3 -5 -12q0 -8 3 -28q3 -18 12 -52l55 -213l37 133l-19 77q-2 9 -5.5 21.5t-5.5 20.5t-3 14q-2 10 -8 30q-3 10 -7 13q-6 4 -10 5v2h137v-2q-9 -3 -16 -6t-8 -12
q-2 -10 1 -28q2 -11 11 -52l48 -205l42 183q12 48 14 67q3 24 0 36t-12 15q-11 4 -24 5v2h87v-2q-11 -3 -19 -6q-7 -3 -13 -15q-6 -13 -12 -34q-1 -3 -16 -66l-78 -340h-11l-68 273l-76 -273h-11zM157 602l-2 1q-13 10 -19 21q-6 10 -6 24t9 23t24 9q14 0 23 -10
q10 -12 20 -30l60 -124l-3 -1z" />
    <glyph glyph-name="Wacute" unicode="&#x1e82;" horiz-adv-x="530" 
d="M42 623l-16 39q-5 24 -10 35q-5 13 -12 25q-6 11 -16 18v2h151v-2q-22 -7 -22 -24q0 -14 8 -54l112 -480l39 172l-59 262q-8 31 -12 49q-5 21 -9 36t-12 24q-9 11 -19 17v2h148v-2q-19 -6 -18 -24q1 -17 9 -55l35 -167l23 122l7 42q3 20 3 36t-6 28t-20 20v2h78v-2
q-10 -4 -18 -9q-6 -4 -13 -17q-6 -11 -12 -35q-5 -17 -13 -61l-26 -134l61 -296l79 429l7 42q3 17 1 36q-1 16 -9 28q-8 13 -25 20v2h82v-2q-8 -5 -13 -10q-6 -6 -12 -18q-6 -11 -12 -35q-5 -17 -13 -61l-115 -627h-11l-80 354l-80 -354h-11zM220 767l100 78q9 7 20 12
q10 5 20 5q14 0 21 -9q8 -10 8 -21q0 -28 -41 -39l-127 -28z" />
    <glyph glyph-name="wacute" unicode="&#x1e83;" horiz-adv-x="430" 
d="M40 355l-2 -7q-13 51 -14 54q-4 20 -9 30q-5 11 -9 14q-6 4 -12 5v2h135v-2q-10 -3 -14 -6q-5 -3 -5 -12q0 -8 3 -28q3 -18 12 -52l55 -213l37 133l-19 77q-2 9 -5.5 21.5t-5.5 20.5t-3 14q-2 10 -8 30q-3 10 -7 13q-6 4 -10 5v2h137v-2q-9 -3 -16 -6t-8 -12
q-2 -10 1 -28q2 -11 11 -52l48 -205l42 183q12 48 14 67q3 24 0 36t-12 15q-11 4 -24 5v2h87v-2q-11 -3 -19 -6q-7 -3 -13 -15q-6 -13 -12 -34q-1 -3 -16 -66l-78 -340h-11l-68 273l-76 -273h-11zM190 516l59 122q9 20 19 30t24 10t23 -9t9 -22t-6 -24q-6 -10 -20 -21
l-105 -87z" />
    <glyph glyph-name="Wdieresis" unicode="&#x1e84;" horiz-adv-x="530" 
d="M42 623l-16 39q-5 24 -10 35q-5 13 -12 25q-6 11 -16 18v2h151v-2q-22 -7 -22 -24q0 -14 8 -54l112 -480l39 172l-59 262q-8 31 -12 49q-5 21 -9 36t-12 24q-9 11 -19 17v2h148v-2q-19 -6 -18 -24q1 -17 9 -55l35 -167l23 122l7 42q3 20 3 36t-6 28t-20 20v2h78v-2
q-10 -4 -18 -9q-6 -4 -13 -17q-6 -11 -12 -35q-5 -17 -13 -61l-26 -134l61 -296l79 429l7 42q3 17 1 36q-1 16 -9 28q-8 13 -25 20v2h82v-2q-8 -5 -13 -10q-6 -6 -12 -18q-6 -11 -12 -35q-5 -17 -13 -61l-115 -627h-11l-80 354l-80 -354h-11zM363 768v-2q-19 0 -33 14
q-13 13 -13 33t13 33q14 14 33 14q20 0 33 -13t13 -33t-13 -33t-33 -13zM227 766v-2q-19 0 -33 14q-13 13 -13 33t13 33q14 14 33 14q20 0 33 -13t13 -33t-13 -33t-33 -13z" />
    <glyph glyph-name="wdieresis" unicode="&#x1e85;" horiz-adv-x="430" 
d="M40 355l-2 -7q-13 51 -14 54q-4 20 -9 30q-5 11 -9 14q-6 4 -12 5v2h135v-2q-10 -3 -14 -6q-5 -3 -5 -12q0 -8 3 -28q3 -18 12 -52l55 -213l37 133l-19 77q-2 9 -5.5 21.5t-5.5 20.5t-3 14q-2 10 -8 30q-3 10 -7 13q-6 4 -10 5v2h137v-2q-9 -3 -16 -6t-8 -12
q-2 -10 1 -28q2 -11 11 -52l48 -205l42 183q12 48 14 67q3 24 0 36t-12 15q-11 4 -24 5v2h87v-2q-11 -3 -19 -6q-7 -3 -13 -15q-6 -13 -12 -34q-1 -3 -16 -66l-78 -340h-11l-68 273l-76 -273h-11zM289 529v-1q-19 0 -33 14q-13 13 -13 33t13 33t33 13t33 -13t13 -33t-13 -33
t-33 -13zM160 528v-1q-19 0 -33 14q-13 13 -13 33t13 33t33 13t33 -13t13 -33t-13 -33t-33 -13z" />
    <glyph glyph-name="Ygrave" unicode="&#x1ef2;" horiz-adv-x="329" 
d="M92 2h-1q10 3 17 8q6 4 9 20q2 12 4 45q1 20 1 83v237l-75 231q-5 17 -14 44q-7 20 -12 32q-7 15 -13 24q-8 12 -18 20v2h153v-2q-21 -7 -18 -25q2 -13 14 -52l80 -259l54 212q11 42 14 54q5 21 3 35q-2 13 -9 21q-8 8 -26 14v2h81v-2q-9 -4 -16 -11q-6 -6 -12 -18
q-6 -11 -12 -35q-1 -4 -4 -15.5t-6 -22.5l-6 -22l-56 -218v-246q0 -63 1 -83q2 -33 4 -45q3 -16 9 -20q7 -5 17 -8v-2h-163v2zM145 802l1 -2q-41 11 -41 39q0 11 8 21q7 9 21 9q12 0 20 -4q11 -5 20 -12l99 -77l-1 -2z" />
    <glyph glyph-name="ygrave" unicode="&#x1ef3;" 
d="M36 -175l-2 2q-20 0 -30 9t-10 22q0 16 9 23q10 8 24 8q11 0 17 -3l12 -6l11 -5q6 -3 14 -3q12 0 21 18q10 19 24 61l14 49l-104 356q-4 12 -9 30t-7 24q-7 24 -10 30q-5 11 -9 14q-5 3 -12 6v2h145v-2q-10 -1 -16 -6q-6 -4 -6 -15t3 -30t12 -51l57 -207l52 183
q13 47 17 66q5 24 3 36q-1 11 -9 16t-19 6v2h74v-2q-12 -5 -17 -9q-6 -5 -12 -16q-4 -8 -13 -35q-3 -9 -19 -65l-109 -383q-23 -66 -42 -95q-20 -30 -54 -30zM115 611l-2 1q-13 10 -19 21t-6 24q0 14 9 23t24 9q14 0 23 -10q10 -12 20 -30l60 -124l-3 -1z" />
    <glyph glyph-name="uni2009" unicode="&#x2009;" horiz-adv-x="40" 
 />
    <glyph glyph-name="endash" unicode="&#x2013;" horiz-adv-x="383" 
d="M38 285h307v-8h-307v8z" />
    <glyph glyph-name="emdash" unicode="&#x2014;" horiz-adv-x="730" 
d="M38 285h654v-8h-654v8z" />
    <glyph glyph-name="quoteleft" unicode="&#x2018;" horiz-adv-x="131" 
d="M36 663l2 4q5 6 14 11q10 5 25 5q17 0 30 -13q14 -14 14 -33q0 -23 -15 -36q-14 -13 -34 -13q-23 0 -40 16q-18 16 -18 51q0 47 21 75t53 45l3 -4q-29 -17 -45 -39q-17 -23 -17 -48q0 -14 7 -21z" />
    <glyph glyph-name="quoteright" unicode="&#x2019;" horiz-adv-x="131" 
d="M95 679l-1 -4q-5 -6 -14 -11q-10 -5 -24 -5q-17 0 -30 13t-13 33q0 23 15 36q14 13 34 13q22 0 39 -16q18 -16 18 -51q0 -47 -22 -75q-23 -28 -54 -45l-3 4q28 17 45 39q17 23 17 48q0 14 -7 21z" />
    <glyph glyph-name="quotesinglbase" unicode="&#x201a;" horiz-adv-x="131" 
d="M89 3l-1 -4q-5 -6 -14 -11q-10 -5 -24 -5q-17 0 -30 13t-13 33q0 23 15 36q14 13 34 13q22 0 39 -16q18 -16 18 -51q0 -47 -22 -75q-23 -28 -54 -45l-3 4q28 17 45 39q17 23 17 48q0 14 -7 21z" />
    <glyph glyph-name="quotedblleft" unicode="&#x201c;" horiz-adv-x="254" 
d="M36 663l2 4q5 6 14 11q10 5 25 5q17 0 30 -13q14 -14 14 -33q0 -23 -15 -36q-14 -13 -34 -13q-23 0 -40 16q-18 16 -18 51q0 47 21 75t53 45l3 -4q-29 -17 -45 -39q-17 -23 -17 -48q0 -14 7 -21zM161 667l-1 4q5 6 14 11q10 5 25 5q17 0 30 -13q14 -14 14 -33
q0 -23 -15 -36q-14 -13 -33 -13q-23 0 -40 16q-18 16 -18 51q0 47 22 75q23 28 54 45l3 -4q-28 -17 -45 -39q-17 -23 -17 -48q0 -14 7 -21z" />
    <glyph glyph-name="quotedblright" unicode="&#x201d;" horiz-adv-x="254" 
d="M218 679v-4q-5 -6 -14 -11q-10 -5 -25 -5q-17 0 -30 13t-13 33q0 23 15 36q14 13 33 13q23 0 40 -16q18 -16 18 -51q0 -47 -22 -75t-54 -45l-3 4q29 17 45 39q17 23 17 48q0 14 -7 21zM95 675l-1 -4q-5 -6 -14 -11q-10 -5 -24 -5q-17 0 -30 13t-13 33q0 23 15 36
q14 13 34 13q22 0 39 -16q18 -16 18 -51q0 -47 -22 -75q-23 -28 -54 -45l-3 4q28 17 45 39q17 23 17 48q0 14 -7 21z" />
    <glyph glyph-name="quotedblbase" unicode="&#x201e;" horiz-adv-x="254" 
d="M218 3v-4q-5 -6 -14 -11q-10 -5 -25 -5q-17 0 -30 13t-13 33q0 23 15 36q14 13 33 13q23 0 40 -16q18 -16 18 -51q0 -47 -22 -75t-54 -45l-3 4q29 17 45 39q17 23 17 48q0 14 -7 21zM95 -1l-1 -4q-5 -6 -14 -11q-10 -5 -24 -5q-17 0 -30 13t-13 33q0 23 15 36
q14 13 34 13q22 0 39 -16q18 -16 18 -51q0 -47 -22 -75q-23 -28 -54 -45l-3 4q28 17 45 39q17 23 17 48q0 14 -7 21z" />
    <glyph glyph-name="dagger" unicode="&#x2020;" horiz-adv-x="286" 
d="M143 -2l-2 -2q-3 67 -4 80q-3 48 -6 102q-2 36 -8 108q-5 54 -9 99q-2 16 -4 41t-3 34q-3 30 -3 36q12 22 23 47q12 27 12 53q-12 0 -22 -6q-14 -8 -21 -13q-9 -7 -22 -13q-12 -6 -27 -6q-22 0 -34 12t-12 27t12 26q13 11 34 11q15 0 27 -6q13 -6 22 -13q7 -5 21 -13
q11 -6 23 -6q0 12 -7 23q-5 8 -15 26t-15 28q-7 14 -7 29q0 20 13 33q14 14 33 14q20 0 32 -14q12 -13 12 -33q0 -13 -6 -28q-6 -14 -15 -28q-8 -12 -15 -26q-6 -12 -6 -22q12 0 23 6q14 8 21 13q9 7 22 13q12 6 27 6q22 0 33 -11t11 -26q0 -14 -11 -27q-10 -12 -33 -12
q-15 0 -27 6q-13 6 -22 13q-7 5 -21 13q-10 6 -22 6q0 -26 12 -53q11 -25 23 -47q-1 -3 -4 -36q-3 -30 -6 -75q-5 -75 -7 -99q-3 -36 -7 -108q-3 -54 -6 -102t-3 -80h-4z" />
    <glyph glyph-name="daggerdbl" unicode="&#x2021;" horiz-adv-x="306" 
d="M154 -8l-3 -4q-19 0 -33 15q-13 14 -13 35q0 14 7 27l15 27q10 18 15 26q7 11 7 23q-11 0 -22 -6l-21 -12q-14 -8 -22 -12q-12 -6 -27 -6q-22 0 -34 12t-12 27t12 27t34 12q15 0 27 -6q8 -4 22 -12l21 -12q10 -6 23 -6q0 42 -3 75q-2 26 -8 60q-4 23 -11 48q-8 28 -13 41
q9 24 14 42q8 28 11 49q6 34 8 60q3 33 3 74q-11 0 -22 -6q-14 -8 -21 -13q-9 -7 -22 -13q-12 -6 -27 -6q-22 0 -34 12t-12 27t12 26q13 11 34 11q15 0 27 -6q13 -6 22 -13q7 -5 21 -13q10 -6 23 -6q0 12 -7 23q-5 8 -15 26t-15 28q-7 14 -7 29q0 20 13 33q14 14 33 14
q20 0 32 -14q12 -13 12 -33q0 -13 -6 -28q-6 -14 -15 -28q-8 -12 -15 -26q-6 -12 -6 -22q12 0 23 6q14 8 21 13q9 7 22 13q12 6 27 6q22 0 33 -11t11 -26q0 -14 -11 -27q-10 -12 -33 -12q-15 0 -27 6q-13 6 -22 13q-7 5 -21 13q-11 6 -22 6q0 -41 3 -74q2 -26 8 -60
q3 -21 11 -49q6 -23 12 -42q-13 -37 -24 -89q-11 -53 -11 -134q12 0 22 6l21 12q14 8 22 12q12 6 27 6q22 0 33 -12q11 -13 11 -27t-11 -27q-11 -12 -33 -12q-15 0 -27 6q-8 4 -22 12l-21 12q-10 6 -22 6q0 -11 6 -23q7 -14 15 -26q9 -13 15 -27t6 -27q0 -19 -12 -34
t-32 -15z" />
    <glyph glyph-name="bullet" unicode="&#x2022;" horiz-adv-x="279" 
d="M139 399l-4 -2q24 0 45 -9t36 -24t24 -36t9 -45q0 -47 -32 -79q-31 -31 -80 -31q-47 0 -79 32q-31 31 -31 80q0 24 9 45t24 36t35 24t44 9z" />
    <glyph glyph-name="ellipsis" unicode="&#x2026;" horiz-adv-x="426" 
d="M358 -12q-23 0 -38 16t-15 39t15 38t38 15t38 -15t15 -38t-15 -39t-38 -16zM216 -12q-23 0 -38 16t-15 39t15 38t38 15t38 -15t15 -38t-15 -39t-38 -16zM74 -12q-23 0 -38 16t-15 39t15 38t38 15t38 -15t15 -38t-15 -39t-38 -16z" />
    <glyph glyph-name="perthousand" unicode="&#x2030;" horiz-adv-x="736" 
d="M125 379h-1q-24 0 -45 15q-22 15 -36 40q-15 26 -24 60t-9 75t9 75t24 60q14 25 36 40q21 15 45 15q23 0 44 -15q22 -15 36 -40q15 -26 24 -60t9 -75t-9 -75t-24 -60q-14 -25 -36 -40q-21 -15 -43 -15zM90 -4l286 760l7 -3l-286 -760zM124 383l-1 -1q43 0 43 185
q0 184 -43 184q-19 0 -31 -45t-12 -139q0 -91 12 -138q12 -46 32 -46zM348 -7h-1q-24 0 -45 15q-22 15 -36 40q-15 26 -24 60t-9 75t9 75t24 60q14 25 36 40q21 15 45 15q23 0 44 -15q22 -15 36 -40q15 -26 24 -60t9 -75t-9 -75t-24 -60q-14 -25 -36 -40q-21 -15 -43 -15z
M607 -7q-24 0 -45 15q-22 15 -36 40q-15 26 -24 60t-9 75t9 75t24 60q14 25 36 40q21 15 45 15t45 -15q22 -15 36 -40q15 -26 24 -60t9 -75t-9 -75t-24 -60q-14 -25 -36 -40q-21 -15 -45 -15zM347 -3l-1 -1q43 0 43 185q0 184 -43 184q-19 0 -31 -45t-12 -139q0 -91 12 -138
q12 -46 32 -46zM606 -4v-1q20 0 32 47q12 46 12 138q0 94 -12 139t-32 45t-30 -45q-11 -47 -11 -139q0 -89 11 -138q10 -46 30 -46z" />
    <glyph glyph-name="uni2032" unicode="&#x2032;" horiz-adv-x="119" 
d="M27 571l-1 1q5 37 2 65q-3 30 -3 57q0 34 11 50q10 15 30 15t29 -12t9 -26t-8 -33q-7 -17 -21 -37q-13 -19 -24 -39q-12 -23 -20 -42z" />
    <glyph glyph-name="uni2033" unicode="&#x2033;" horiz-adv-x="221" 
d="M86 571l-1 1q5 37 2 65q-3 30 -3 57q0 34 11 50q11 15 30 15q20 0 29 -12t9 -26t-8 -33q-7 -17 -21 -37q-14 -19 -24 -39q-12 -23 -20 -42zM70 572l-1 1q5 37 2 65q-3 30 -3 57q0 34 11 50q11 15 30 15q20 0 29 -12t9 -26t-8 -33q-7 -17 -21 -37t-24 -39q-12 -23 -20 -42
z" />
    <glyph glyph-name="guilsinglleft" unicode="&#x2039;" horiz-adv-x="155" 
d="M14 228v4l123 163l3 -2l-53 -163l54 -162l-3 -2z" />
    <glyph glyph-name="guilsinglright" unicode="&#x203a;" horiz-adv-x="155" 
d="M18 68l54 162l-53 163l3 2l123 -163v-4l-124 -162z" />
    <glyph glyph-name="fraction" unicode="&#x2044;" horiz-adv-x="373" 
d="M40 377h293v-4h-293v4z" />
    <glyph glyph-name="Euro" unicode="&#x20ac;" horiz-adv-x="330" 
d="M-1 358l41 -4v18v19q0 12 1 18h-44v6h44q3 87 20 154q16 63 41 105q24 40 54 60q29 19 62 19q21 0 36 -7q18 -8 30 -19q14 -12 21 -27q8 -16 8 -33q0 -14 -8 -28q-7 -13 -21 -13q-32 0 -33 36q-1 12 -1 34q0 16 -3 28q-3 11 -9 19q-6 7 -21 7q-19 0 -33 -18
q-14 -19 -23 -59q-8 -37 -13 -104q-4 -63 -6 -152h114v-6h-114v-55h114v-6h-114q2 -114 10 -177q9 -65 23 -105q14 -38 31 -51t38 -13t40 11q18 11 33 30l3 -3q-16 -21 -36 -35q-21 -15 -56 -15q-33 0 -67 17t-59 58q-26 42 -42 111t-18 174h-43v6z" />
    <glyph glyph-name="trademark" unicode="&#x2122;" horiz-adv-x="395" 
d="M61 479l-1 -2q6 2 8 3t4 8q2 8 2 18v32v209h-3q-24 0 -33 -12q-8 -11 -16 -37h-3l6 45l2 5h2h135h2q1 -2 2 -5l6 -45h-2q-8 26 -16 37q-9 12 -33 12h-3v-209v-31q0 -10 2 -18q1 -6 4 -7q2 -1 8 -3v-3h-73v3zM191 476l-5 -3q6 2 8 4t4 9q2 8 2 17v30v151v30q0 13 -1 17
q-2 7 -4 8l-7 4v2h55h3q1 0 3 -5l29 -153l31 159l1 -1v1h58v-2q-3 -1 -7 -3q-3 -1 -4 -7q-1 -4 -1 -18v-31v-151v-31q0 -10 2 -18q1 -6 4 -7q2 -1 8 -3v-3h-72v3q3 1 7 3q2 1 4 8q2 8 2 18v32v189l-49 -252h-3l-52 260v-197v-30q0 -9 2 -17q2 -7 4 -9t8 -4v-2h-30v2z" />
    <glyph glyph-name="onethird" unicode="&#x2153;" horiz-adv-x="373" 
d="M40 377h293v-4h-293v4zM137 465q9 2 12 4q4 3 6 11q2 10 2 23v41v193q0 25 -3 34t-19 9v3l84 59v-297v-41q0 -12 2 -22q1 -7 6 -10q3 -2 12 -4v-3h-102zM129 267l1 -2q1 10 3 13q1 3 6 3h129v-3l-106 -144q11 8 26 8t30 -6q14 -6 28 -18t21 -33q8 -22 8 -52
q0 -61 -30 -94t-70 -33q-31 0 -50 15q-20 15 -20 35q0 10 6 18q6 7 19 7q23 0 26 -27q1 -21 3 -34q1 -12 15 -12q17 0 27 31q11 33 11 93q0 55 -5 82q-5 24 -21 24q-15 0 -23 -7q-10 -9 -17 -18l-3 2l83 114h-54h-26q-7 0 -15 -2q-6 -1 -9 -6q-4 -6 -6 -10h-3z" />
    <glyph glyph-name="twothirds" unicode="&#x2154;" horiz-adv-x="373" 
d="M40 377h293v-4h-293v4zM129 270l1 -2q1 10 3 13q1 3 6 3h129v-3l-106 -144q11 8 26 8t30 -6q14 -6 28 -18t21 -33q8 -22 8 -52q0 -61 -30 -94t-70 -33q-31 0 -50 15q-20 15 -20 35q0 11 6 18t19 7q23 0 26 -27q1 -21 3 -34q1 -12 15 -12q17 0 27 31q11 33 11 93
q0 55 -5 82q-5 24 -21 24q-15 0 -23 -7q-10 -9 -17 -18l-3 2l83 114h-54h-26q-7 0 -15 -2q-6 -2 -9 -6q-4 -6 -6 -10h-3zM210 516l-8 3h36q11 0 21 2q6 1 10 5q3 3 6 9h3l-15 -55q-2 -7 -5 -13q-2 -3 -6 -3h-162l49 88q31 56 47 102q17 49 17 99q0 43 -6 63q-6 19 -24 19
q-17 0 -18 -16l-3 -33q-1 -10 -8 -18q-6 -8 -18 -8t-18 8t-6 18q0 23 23 38t51 15q16 0 31 -4q17 -5 30 -15q14 -11 23 -27q9 -17 9 -42t-7 -46q-8 -23 -22 -46q-15 -24 -36 -51q-7 -9 -23.5 -29.5t-24.5 -31.5l-26 -31h80z" />
    <glyph glyph-name="oneeighth" unicode="&#x215b;" horiz-adv-x="373" 
d="M272 6l-2 -2q0 -41 -24 -68t-62 -27q-37 0 -63 23t-26 63q0 37 21 61t43 40q-25 27 -39 51q-13 23 -13 58q0 39 24 61q23 22 55 22q30 0 53 -18t23 -55q0 -32 -16 -51q-16 -20 -36 -33l4 -4q16 -18 24 -28q10 -13 18 -27t12 -30q4 -15 4 -36zM184 -88v2q20 0 29 17t9 42
q0 19 -4 32q-4 14 -12 28q-8 15 -19 27q-6 6 -25 30l-2 2q-10 -15 -15 -39q-5 -27 -5 -58q0 -83 44 -83zM150 234l-2 -2q0 -30 16 -52q15 -20 42 -49q7 12 10 32q3 18 3 47q0 44 -9 59t-23 15q-17 0 -27 -12q-10 -11 -10 -38zM36 375h293v-4h-293v4zM127 463q9 2 12 4
q4 3 6 11q2 10 2 23v41v193q0 25 -3 34t-19 9v3l84 59v-297v-41q0 -12 2 -22q1 -7 6 -10q3 -2 12 -4v-3h-102z" />
    <glyph glyph-name="threeeighths" unicode="&#x215c;" horiz-adv-x="373" 
d="M272 6l-2 1q0 -42 -24 -69t-62 -27q-37 0 -63 23t-26 63q0 37 21 61t43 40q-25 27 -39 51q-13 23 -13 58q0 41 24 62t55 21q30 0 53 -18t23 -55q0 -32 -16 -51q-16 -20 -36 -33q2 -2 2 -3t2 -3q16 -18 24 -28q10 -13 18 -27t12 -30q4 -15 4 -36zM150 235l-2 -2
q0 -29 17 -52q12 -16 41 -49q7 12 10 32q3 18 3 47q0 44 -9 59t-23 15q-17 0 -27 -12q-10 -11 -10 -38zM182 -87h1q20 0 29 17q9 16 9 42q0 35 -16 60q-18 27 -45 59l-2 2q-10 -15 -15 -39q-5 -27 -5 -58q0 -83 44 -83zM37 376h293v-4h-293v4zM124 820l1 -2q1 10 3 13t6 3
h129v-3l-106 -144q11 8 26 8t30 -6q14 -6 28 -18q13 -12 21 -33q8 -22 8 -52q0 -61 -30 -94t-70 -33q-30 0 -50 15t-20 35q0 11 6 18t19 7q23 0 26 -27q1 -21 3 -34q2 -12 15 -12q17 0 27 31q11 33 11 93q0 55 -5 82q-4 24 -21 24q-15 0 -23 -7q-10 -9 -17 -18l-3 2l83 114
h-54h-26q-7 0 -15 -2q-6 -2 -9 -6q-4 -6 -6 -10h-3z" />
    <glyph glyph-name="fiveeighths" unicode="&#x215d;" horiz-adv-x="373" 
d="M147 785l-9 -93q5 8 15 14q11 6 24 6q14 0 34 -5q17 -4 31 -17q14 -12 23 -35t9 -57q0 -32 -9 -58t-24 -42q-14 -16 -33 -25q-18 -9 -38 -9q-26 0 -45 15t-19 35q0 10 6 18q6 7 18 7t18 -7q5 -7 7 -18q0 -10 -1 -16t-1 -16q0 -8 3 -12t12 -4q19 0 30 35q11 36 11 101
q0 53 -7 78q-8 27 -27 27q-16 0 -27 -8q-10 -7 -15 -17h-3l21 154h118l-13 -45q-2 -6 -6 -6h-103zM275 9v1q0 -42 -24 -69t-62 -27q-36 0 -64 23q-27 23 -27 63q0 37 21 61t43 40q-24 26 -37 51q-12 24 -12 58q0 41 23 62q22 21 54 21q30 0 53 -18t23 -55q0 -31 -17 -51
q-17 -19 -36 -33q2 -2 2 -3t2 -3q16 -18 24 -28q11 -14 18 -27t12 -30q4 -15 4 -36zM155 238l-1 -2q0 -30 16 -52q17 -23 40 -49q8 15 11 32q3 18 3 47q0 45 -10 59q-10 15 -24 15t-25 -12q-10 -11 -10 -38zM188 -84v-1q20 0 29 17q9 16 9 42q0 35 -16 60q-18 27 -45 59
l-1 1q-10 -15 -15 -38q-5 -25 -5 -57q0 -83 44 -83zM42 378h293v-4h-293v4z" />
    <glyph glyph-name="seveneighths" unicode="&#x215e;" horiz-adv-x="373" 
d="M179 465l-5 1l88 320h-83q-19 0 -25 -1q-11 -2 -14 -4q-6 -4 -8 -7q-4 -6 -6 -10h-3l19 68q1 4 7 4h131v-2zM271 7l-2 1q0 -42 -24 -69t-62 -27q-37 0 -63 23t-26 63q0 37 21 61t43 40q-26 27 -39 51q-13 23 -13 58q0 41 24 62t55 21t53 -18q23 -18 23 -55q0 -32 -16 -51
q-17 -19 -36 -33q2 -2 2 -3t2 -3q16 -18 24 -28q11 -14 18 -27t12 -30q4 -15 4 -36zM149 236l-2 -2q0 -29 17 -52q12 -16 41 -49q7 12 10 32q3 18 3 47q0 44 -9 59t-23 15q-16 0 -27 -12q-10 -11 -10 -38zM181 -86h1q20 0 29 17t9 42q0 35 -16 60q-18 27 -45 59l-2 2
q-11 -15 -15 -39q-5 -27 -5 -58q0 -83 44 -83zM36 377h293v-4h-293v4z" />
    <glyph glyph-name="arrowleft" unicode="&#x2190;" horiz-adv-x="752" 
d="M33 359l-2 -3q33 8 76 28q47 22 89 51q44 30 81 66t57 75l5 -2q-14 -49 -28 -82q-14 -35 -33 -61q-19 -27 -39 -44q-22 -19 -43 -30h513v-6h-513q21 -11 43 -30q20 -17 39 -44q18 -25 33 -60q16 -37 29 -83l-5 -2q-19 39 -57 75t-81 66q-45 31 -88 51q-48 22 -76 29v6z
" />
    <glyph glyph-name="arrowright" unicode="&#x2192;" horiz-adv-x="752" 
d="M41 359h511q-21 11 -43 30q-20 17 -39 44q-17 25 -33 62q-13 31 -28 83l5 2q20 -39 57 -75t81 -66q42 -29 89 -51q43 -20 76 -28v-6q-33 -8 -76 -28t-88 -51q-43 -30 -81 -66t-57 -75l-5 2q13 46 29 83q15 35 33 60q19 27 39 44t44 30h-514v6z" />
    <glyph glyph-name="minus" unicode="&#x2212;" horiz-adv-x="281" 
d="M25 355h231v-8h-231v8z" />
    <glyph glyph-name="uni24C5" unicode="&#x24c5;" horiz-adv-x="447" 
d="M225 758h-1q41 0 77 -24q37 -25 65 -72q28 -48 45 -120q17 -74 17 -166t-17 -166q-17 -72 -45 -120q-28 -47 -65 -72q-36 -24 -76 -24q-41 0 -78 24t-66 72t-45 120q-17 74 -17 166t17 166q16 72 45 120t66 72t78 24zM224 -6l-1 -4q39 0 75 24t63 72q28 49 44 119
q17 73 17 165t-17 166q-16 70 -44 120q-27 48 -63 72t-75 24t-75 -24q-35 -23 -64 -72q-29 -48 -45 -118q-17 -73 -17 -165t17 -165q16 -70 45 -118q28 -47 65 -72q36 -24 75 -24zM123 157l-1 -3q6 1 12 5q4 3 6 12q2 12 2 27v49v241v49q0 15 -2 27q-2 9 -6 12q-6 4 -12 5v3
h102q23 0 48 -5q22 -4 39 -17q17 -12 27 -33q10 -20 10 -53q0 -32 -10 -55q-10 -24 -27 -39q-16 -14 -39 -22q-21 -7 -48 -7h-9v-103v-49q0 -15 2 -27q1 -8 5 -12t11 -5v-3h-110v3zM213 577v-225h7q9 0 21 5q9 4 19 17t14 35q5 25 5 57t-5 57q-4 22 -12 34q-7 11 -18 16
q-9 4 -21 4h-10z" />
    <glyph glyph-name="space_uni0326" horiz-adv-x="500" 
d="M284 -111l-3 1q-2 -4 -12 -10q-9 -6 -24 -6q-17 0 -31 12q-13 12 -13 32q0 22 15 34t34 12q22 0 38 -15q17 -15 17 -46q0 -41 -22 -60t-54 -22l-2 5q29 4 45 18q17 14 17 33q0 7 -5 12z" />
    <glyph glyph-name="A.alt" horiz-adv-x="328" 
d="M293 127l-2 3q1 -6 11 -52q4 -21 9 -36q5 -16 10 -24t14 -13v-2h-138v2q11 3 15 18q5 16 -4 60l-29 144h-123l-19 -102q-6 -37 -9 -55q-3 -19 -1 -34q1 -13 8 -21q6 -7 17 -12v-2h-62v2q8 5 14 12q5 6 10 21q4 13 9 35q1 4 10 52l120 632h12zM177 232l-62 312l-59 -312
h121z" />
    <glyph glyph-name="G.alt" horiz-adv-x="388" 
d="M221 -8l-1 -1q-95 0 -148 98q-52 97 -52 291q0 97 17 170q17 71 45 116q29 45 65 68q35 22 75 22q16 0 29 -5q14 -5 21 -10q6 -4 18 -10q10 -5 19 -5q7 0 12 6q4 6 9 20h2v-157h-2q-8 47 -19 74q-12 30 -27 48q-16 19 -31 26q-18 8 -33 8q-23 0 -41 -19q-18 -20 -30 -63
q-12 -44 -18 -112q-6 -69 -6 -168q0 -204 26 -300q25 -94 71 -94q24 0 33 17q9 16 9 53v81q0 103 -1 135q-1 48 -6 72t-13 30q-9 6 -22 9v2h132v-380h-3q-5 24 -18 24q-10 0 -20 -7q-3 -2 -7 -4.5t-9 -6t-8 -5.5q-11 -7 -30 -16q-15 -7 -38 -7z" />
    </font>
</defs>
</svg>
