<?xml version="1.0" standalone="no"?>
<!DOCTYPE svg PUBLIC "-//W3C//DTD SVG 1.1//EN" "http://www.w3.org/Graphics/SVG/1.1/DTD/svg11.dtd" >
<svg xmlns="http://www.w3.org/2000/svg" xmlns:xlink="http://www.w3.org/1999/xlink" version="1.1">
<metadata>
Created by FontForge 20170731 at Sat Sep  1 00:21:02 2018
 By Aleksey,,,
Copyright (c) 2018 Commercial Type, Inc.. All rights reserved.
</metadata>
<defs>
<font id="SchnyderCondLBold" horiz-adv-x="446" >
  <font-face 
    font-family="Schnyder Cond L Bold"
    font-weight="700"
    font-stretch="condensed"
    units-per-em="1000"
    panose-1="0 0 0 0 0 0 0 0 0 0"
    ascent="800"
    descent="-200"
    x-height="465"
    cap-height="751"
    bbox="-110 -300 955 1049"
    underline-thickness="16"
    underline-position="-124"
    unicode-range="U+000D-FB04"
  />
<missing-glyph horiz-adv-x="167" 
 />
    <glyph glyph-name="f_f" unicode="ff" horiz-adv-x="478" 
d="M251 7l-2 1q12 3 18 9t9 18t3 35v60v328h-118v-328q0 -45 1 -60q1 -22 6 -34q4 -12 15 -18q10 -6 29 -9v-7h-195v7q11 3 19 9t11 18t3 35v60v328h-48v8q30 3 40 14q9 11 9 41v57q0 53 18 87q18 35 45 56t56 30q28 9 51 9q42 0 68 -13q27 -14 36 -36q26 29 59 41t58 12
q46 0 75 -16q30 -17 30 -48q0 -13 -9 -25t-29 -12q-22 0 -33 11q-10 10 -15 32q-5 30 -9 39t-14 9t-17 -6q-8 -7 -14 -21q-6 -15 -9 -39t-3 -61v-162h81v-10h-81v-328q0 -45 1 -60q1 -22 6 -34q4 -12 15 -18t28 -9v-7h-194v7zM282 467l1 115q0 42 12 72q-21 0 -30 11
q-8 10 -13 32q-8 31 -12 42q-4 10 -21 10q-25 0 -40 -25q-15 -26 -15 -90v-167h118z" />
    <glyph glyph-name="f_i" unicode="fi" horiz-adv-x="445" 
d="M21 7h1q11 3 19 9t11 18t3 35v60v328h-48v8q31 3 39 14t8 33v71q0 49 17 85q16 33 41 55q24 21 51 30t48 9q42 0 71 -15t29 -46q0 -13 -9 -24t-29 -11q-22 0 -31 11q-8 10 -13 30q-5 29 -9 38t-13 9t-17 -6q-8 -7 -14 -21q-6 -15 -9 -39t-3 -61v-162h82l147 13v-351v-60
q0 -21 5 -34q4 -12 12 -18t21 -9v-7h-184v7q13 3 21 9q8 7 11 18q3 12 3 35v60v210v63q0 23 -3 35t-11 15q-9 4 -21 5h-82v-328q0 -45 1 -60q1 -22 6 -34q4 -12 15 -18q10 -6 29 -9v-7h-195v7zM342 525q-26 0 -44 18t-18 44q0 25 18 43t44 18t44 -18t18 -43q0 -26 -18 -44
t-44 -18z" />
    <glyph glyph-name="f_l" unicode="fl" horiz-adv-x="445" 
d="M21 7h1q11 3 19 9t11 18t3 35v60v328h-48v8q31 3 39 14t8 33v59q0 55 18 91q18 35 44 57q26 21 54 30t51 9q45 0 73 -16t28 -45q0 -12 -9 -24t-28 -12q-21 0 -30 11q-8 10 -13 30q-6 32 -12 39q-6 8 -15 8q-22 0 -36 -26q-13 -25 -13 -92v-165h69v-10h-69v-328
q0 -45 1 -60q1 -22 6 -34t15 -18q11 -6 28 -9v-7h-195v7zM250 7l-1 -4q13 3 21 9t11 18t3 35v60v469v48q0 18 -3 27t-11 12q-6 2 -21 4v8l148 83v-648v-60q0 -21 5 -34q4 -12 12 -18t21 -9v-7h-185v7z" />
    <glyph glyph-name="f_f_i" unicode="ffi" horiz-adv-x="674" 
d="M21 7l-3 -2q11 3 19 9t11 18t3 35v60v328h-48v8q30 3 40 14q9 11 9 41v57q0 53 18 87q18 35 45 56t56 30t51 9q42 0 68 -13q28 -14 35 -36q26 29 59 41t57 12q43 0 71 -15q29 -15 29 -46q0 -14 -9 -24q-9 -11 -29 -11q-21 0 -30 11q-8 10 -13 30q-7 31 -10 38q-4 9 -13 9
t-17 -6q-7 -5 -13 -21q-6 -15 -9 -39t-3 -61v-162h82l148 13v-351v-60q0 -21 5 -34q4 -12 12 -18t21 -9v-7h-184v7q13 3 21 9t11 18t3 35v60v210v63q0 23 -3 35t-11 15q-9 4 -21 5h-82v-328q0 -45 1 -60q1 -22 6 -34q4 -12 15 -18t28 -9v-7h-194v7q12 3 18 9t9 18t3 35v60
v328h-118v-328q0 -45 1 -60q1 -22 6 -34q4 -12 15 -18q10 -6 29 -9v-7h-195v7zM281 464l1 115q0 42 12 72q-21 0 -30 11q-8 10 -13 32q-7 32 -12 42q-4 10 -21 10q-25 0 -40 -25t-15 -90v-167h118zM568 522q-26 0 -44 18t-18 44q0 25 18 43t44 18t44 -18t18 -43
q0 -26 -18 -44t-44 -18z" />
    <glyph glyph-name="f_f_l" unicode="ffl" horiz-adv-x="675" 
d="M251 7v-4q12 3 18 9t9 18t3 35v60v328h-118v-328q0 -45 1 -60q1 -22 6 -34q4 -12 15 -18t28 -9v-7h-195v7q11 3 19 9q8 7 11 18q3 12 3 35v60v328h-48v8q30 3 40 14q9 10 9 41v56q0 55 18 89q18 35 44 56q26 22 54 29q30 8 51 8q41 0 71 -14q28 -13 36 -36q29 29 62 41
t59 12q46 0 74 -16q29 -17 29 -45q0 -12 -9 -24t-28 -12q-21 0 -30 11q-8 10 -13 30q-4 31 -11 39q-6 8 -14 8q-22 0 -36 -26t-14 -92v-165h69v-10h-69v-328q0 -45 1 -60q1 -22 6 -34q4 -12 15 -18t28 -9v-7h-194v7zM284 462l-1 105q0 27 4 46q5 22 12 38h-3q-21 0 -30 11
q-8 10 -13 30q-6 32 -12 41t-22 9q-25 0 -39 -24q-14 -25 -14 -89v-167h118zM477 4l-1 -4q14 3 21 9q8 7 11 18q3 12 3 35v60v469v48q0 18 -3 27t-11 12q-6 2 -21 4v8l148 83v-648v-60q0 -21 5 -34q5 -12 12 -18t21 -9v-7h-185v7z" />
    <glyph glyph-name="f_b" unicode="fb" horiz-adv-x="704" 
d="M21 7h1q11 3 19 9t11 18t3 35v60v328h-48v8q31 3 39 14t8 33v59q0 55 18 91q18 35 44 57q26 21 54 30t51 9q45 0 73 -16t28 -45q0 -12 -9 -24t-28 -12q-21 0 -30 11q-8 10 -13 30q-6 32 -12 39q-6 8 -15 8q-22 0 -36 -26q-13 -25 -13 -92v-165h69v-10h-69v-328
q0 -45 1 -60q1 -22 6 -34t15 -18q11 -6 28 -9v-7h-195v7zM470 -6h-5q-27 0 -47 7q-21 7 -39 15t-33 15q-14 7 -30 7t-20 -9t-6 -15h-7v576q0 40 -1 53q-2 22 -4 29q-3 9 -10 12q-10 4 -19 5v7l146 79v-379q18 20 27 29q14 13 27 24q15 11 30 17q17 6 39 6q28 0 56 -12
q29 -12 53 -39t39 -69t15 -103q0 -60 -17 -109q-16 -48 -45 -81q-28 -33 -67 -49q-38 -16 -82 -16zM414 20l-4 -1q8 -7 18 -12q12 -5 33 -5q50 0 74 54t24 174q0 66 -6 109t-15 69q-9 25 -23 36t-28 11q-28 0 -48 -19q-21 -20 -48 -51v-279q0 -41 6 -59q6 -17 17 -27z" />
    <glyph glyph-name="f_f_b" unicode="ffb" horiz-adv-x="933" 
d="M251 7l-4 -3q12 3 18 9t9 18t3 35v60v328h-118v-328q0 -45 1 -60q1 -22 6 -34q4 -12 15 -18t28 -9v-7h-195v7q11 3 19 9t11 18t3 35v60v328h-48v8q30 3 40 14q9 11 9 41v56q0 54 18 89t45 56t56 30t51 9q44 0 72 -15t36 -39q27 30 61 42q35 12 60 12q46 0 74 -16
q29 -17 29 -45q0 -12 -9 -24t-28 -12q-21 0 -30 11q-8 10 -13 30q-4 31 -11 39q-6 8 -14 8q-22 0 -36 -26t-14 -92v-165h69v-10h-69v-328q0 -45 1 -60q1 -22 6 -34q4 -12 15 -18t28 -9v-7h-194v7zM280 463l-1 104q0 27 4 46q5 22 12 38h-3q-21 0 -30 11q-8 10 -13 30
q-7 32 -12 43q-4 10 -20 10q-25 0 -40 -25q-15 -26 -15 -90v-167h118zM693 -9h-5q-27 0 -47 7q-21 8 -39 15t-33 15q-14 7 -30 7q-15 0 -20 -9t-6 -15h-7v576q0 40 -1 53q-2 22 -4 29q-3 9 -10 12q-10 4 -19 5v7l146 79v-379q18 20 27 29q13 14 27 24q15 11 30 17q16 6 39 6
q27 0 56 -12t53 -39t39 -69t15 -103q0 -60 -17 -109q-17 -48 -45 -81t-67 -49q-38 -16 -82 -16zM637 17l-4 -1q7 -8 18 -12q12 -5 33 -5q50 0 74 54t24 174q0 65 -6 109t-15 69t-23 36t-28 11q-28 0 -48 -19q-21 -19 -48 -51v-279q0 -41 6 -59q6 -17 17 -27z" />
    <glyph glyph-name="f_f_h" unicode="ffh" horiz-adv-x="925" 
d="M251 7l-4 -3q12 3 18 9t9 18t3 35v60v328h-118v-328q0 -45 1 -60q1 -22 6 -34q4 -12 15 -18t28 -9v-7h-195v7q11 3 19 9t11 18t3 35v60v328h-48v8q30 3 40 14q9 11 9 41v56q0 54 18 89t45 56t56 30t51 9q44 0 72 -15t36 -39q27 30 61 42q35 12 60 12q46 0 74 -16
q29 -17 29 -45q0 -12 -9 -24t-28 -12q-21 0 -30 11q-8 10 -13 30q-4 31 -11 39q-6 8 -14 8q-22 0 -36 -26t-14 -92v-165h69v-10h-69v-328q0 -45 1 -60q1 -22 6 -34q4 -12 15 -18t28 -9v-7h-194v7zM280 463l-1 104q0 27 4 46q5 22 12 38h-3q-21 0 -30 11q-8 10 -13 30
q-7 32 -12 43q-4 10 -20 10q-25 0 -40 -25q-15 -26 -15 -90v-167h118zM475 4h-6q11 3 19 9q8 7 11 18q3 12 3 35v60v457q0 41 -1 54q-2 22 -4 30q-3 10 -11 13q-6 2 -21 4v8l148 83v-394l7 7q40 42 72 63t71 21q17 0 36 -6q21 -6 35 -19q16 -14 26 -36q11 -24 11 -57v-231
v-60q0 -22 3 -34q3 -13 10 -18q8 -6 21 -9v-7h-183v7q14 3 21 9t12 18q4 12 6 35q1 15 1 60v263q0 34 -12 46t-26 12q-13 0 -37 -15t-61 -55l-7 -7v-243v-60q0 -21 5 -34q4 -12 12 -18t21 -9v-7h-182v7z" />
    <glyph glyph-name="f_f_j" unicode="ffj" horiz-adv-x="675" 
d="M251 7l-2 -6q12 3 18 9t9 18t3 35v60v328h-118v-328q0 -45 1 -60q1 -22 6 -34q4 -12 15 -18q10 -6 29 -9v-7h-195v7q11 3 19 9q8 7 11 18q3 12 3 35v60v328h-48v8q30 3 40 14q9 10 9 41v57q0 52 18 87t45 56t56 30q28 9 51 9q42 0 68 -13q28 -14 35 -36q26 29 59 41
t57 12q42 0 71 -15t29 -46q0 -13 -9 -24t-29 -11q-21 0 -30 11q-8 10 -13 30q-7 31 -10 38q-5 9 -13 9q-9 0 -17 -6q-7 -5 -13 -21q-6 -15 -9 -39t-3 -61v-162h82l148 12v-392q0 -32 -4 -55q-4 -26 -15 -48q-11 -23 -28 -43q-18 -21 -46 -40q-31 -22 -53 -30q-20 -7 -44 -7
q-20 0 -33 12t-13 32q0 18 11 27t24 9t24 -8q9 -7 18 -17q10 -12 15 -17q8 -8 15 -8q5 0 9 4q6 6 7 25q1 13 1 66v371v54q0 20 -3 30t-11 13q-9 4 -21 5h-82v-328q0 -45 1 -60q1 -22 6 -34q4 -12 15 -18t28 -9v-7h-194v7zM282 460l1 115q0 42 12 72q-21 0 -30 11
q-8 10 -13 32q-8 32 -12 42t-21 10q-25 0 -40 -25t-15 -90v-167h118zM569 518q-26 0 -44 18t-18 44q0 25 18 43t44 18t44 -18t18 -43q0 -26 -18 -44t-44 -18z" />
    <glyph glyph-name="f_f_k" unicode="ffk" horiz-adv-x="897" 
d="M251 7l-4 -3q12 3 18 9t9 18t3 35v60v328h-118v-328q0 -45 1 -60q1 -22 6 -34q4 -12 15 -18t28 -9v-7h-195v7q11 3 19 9t11 18t3 35v60v328h-48v8q30 3 40 14q9 11 9 41v56q0 54 18 89t45 56t56 30t51 9q44 0 72 -15t36 -39q27 30 61 42q35 12 60 12q46 0 74 -16
q29 -17 29 -45q0 -12 -9 -24t-28 -12q-21 0 -30 11q-8 10 -13 30q-4 31 -11 39q-6 8 -14 8q-22 0 -36 -26t-14 -92v-165h69v-10h-69v-328q0 -45 1 -60q1 -22 6 -34q4 -12 15 -18t28 -9v-7h-194v7zM280 463l-1 104q0 27 4 46q5 22 12 38h-3q-21 0 -30 11q-8 10 -13 30
q-7 32 -12 43q-4 10 -20 10q-25 0 -40 -25q-15 -26 -15 -90v-167h118zM475 3h-1q11 4 19 9t11 17t3 35v60v470q0 37 -1 49q-2 20 -4 26q-3 8 -10 9q-8 2 -19 3v7l146 84v-649v-60q0 -21 5 -34t12 -17q8 -4 21 -9v-6h-182v6zM716 3l4 2q18 5 21 15t-12 39l-103 187v6l150 147
q29 30 21 44t-30 17v6h109v-6q-12 -3 -19 -7t-19 -12q-13 -10 -24 -19q-14 -12 -33 -30l-77 -75l150 -265q13 -24 23 -36q8 -10 18 -13v-6h-179v6z" />
    <glyph glyph-name="f_h" unicode="fh" horiz-adv-x="696" 
d="M21 7h1q11 3 19 9t11 18t3 35v60v328h-48v8q31 3 39 14t8 33v59q0 55 18 91q18 35 44 57q26 21 54 30t51 9q45 0 73 -16t28 -45q0 -12 -9 -24t-28 -12q-21 0 -30 11q-8 10 -13 30q-6 32 -12 39q-6 8 -15 8q-22 0 -36 -26q-13 -25 -13 -92v-165h69v-10h-69v-328
q0 -45 1 -60q1 -22 6 -34t15 -18q11 -6 28 -9v-7h-195v7zM252 7h-6q11 3 19 9t11 18t3 35v60v457q0 41 -1 54q-2 22 -4 30q-3 10 -11 13q-6 2 -21 4v8l148 83v-394l7 7q41 42 72 63t71 21q16 0 36 -6q21 -6 35 -19q16 -14 26 -36q11 -24 11 -57v-231v-60q0 -22 3 -34t10 -18
t21 -9v-7h-183v7q13 3 21 9t12 18t6 35q1 15 1 60v263q0 34 -12 46t-26 12q-13 0 -37 -15t-61 -55l-7 -7v-243v-60q0 -21 5 -34q5 -12 12 -18t21 -9v-7h-182v7z" />
    <glyph glyph-name="f_j" unicode="fj" horiz-adv-x="445" 
d="M21 7l-1 -4q11 3 19 9t11 18t3 35v60v328h-48v8q31 3 39 14t8 33v71q0 49 17 85q16 33 41 55q24 21 51 30t48 9q42 0 71 -15t29 -46q0 -13 -9 -24t-29 -11q-22 0 -31 11q-8 10 -13 30q-5 29 -9 38t-13 9t-17 -6q-8 -7 -14 -21q-6 -15 -9 -39t-3 -61v-162h82l147 12v-392
q0 -29 -3 -55q-3 -24 -14 -48q-11 -23 -28 -43q-18 -21 -46 -40q-32 -23 -52 -30t-43 -7q-19 0 -33 12t-14 32q0 18 11 27t24 9t24 -8q9 -7 18 -17q10 -12 15 -17q8 -8 15 -8q5 0 9 4q6 6 7 25q1 13 1 66v371v54q0 20 -3 30t-11 13q-9 4 -21 5h-82v-328q0 -45 1 -60
q1 -22 6 -34q4 -12 15 -18q10 -6 29 -9v-7h-195v7zM340 521q-26 0 -44 18t-18 44q0 25 18 43t44 18t44 -18t18 -43q0 -26 -18 -44t-44 -18z" />
    <glyph glyph-name="f_k" unicode="fk" horiz-adv-x="668" 
d="M21 7h1q11 3 19 9t11 18t3 35v60v328h-48v8q31 3 39 14t8 33v59q0 55 18 91q18 35 44 57q26 21 54 30t51 9q45 0 73 -16t28 -45q0 -12 -9 -24t-28 -12q-21 0 -30 11q-8 10 -13 30q-6 32 -12 39q-6 8 -15 8q-22 0 -36 -26q-13 -25 -13 -92v-165h69v-10h-69v-328
q0 -45 1 -60q1 -22 6 -34t15 -18q11 -6 28 -9v-7h-195v7zM252 6h-1q11 4 19 9t11 17t3 35v60v470q0 37 -1 49q-2 20 -4 26q-3 8 -10 9q-8 2 -19 3v7l146 84v-649v-60q0 -21 5 -34t12 -17q7 -5 21 -9v-6h-182v6zM493 6l4 2q18 4 21 15t-12 39l-103 187v6l150 147q29 30 21 44
t-30 17v6h109v-6q-12 -3 -19 -7t-19 -12q-13 -10 -24 -19q-13 -12 -33 -30l-77 -75l150 -265q13 -24 23 -36q8 -10 18 -13v-6h-179v6z" />
    <glyph glyph-name="g_j" unicode="gj" horiz-adv-x="620" 
d="M514 529v1q-26 0 -44 18t-18 44t18 44t44 18t44 -18t18 -43t-18 -45q-18 -19 -44 -19zM383 -138l1 1q-15 0 -24 6t-9 18q0 7 3 14q2 5 8 15q4 8 9 12q5 5 9 5q10 0 17 -7l15 -15l15 -15q7 -7 15 -7q5 0 9 4q7 6 9 24q1 12 1 63v301q0 43 -1 56q-2 22 -4 30q-3 10 -11 13
q-9 4 -21 5v8l148 85v-396q0 -33 -4 -54q-4 -23 -15 -46t-28 -43q-18 -21 -46 -40q-31 -23 -54 -30q-21 -7 -42 -7zM190 163l-2 -3q-18 0 -41 5q-20 4 -41 14l-9 -7q-18 -15 -23 -21q-6 -7 -6 -15t10 -15t45 -15l135 -21q40 -6 65 -18q26 -12 41 -27t21 -33t6 -37
q0 -34 -15 -61t-42 -45t-63 -27t-78 -9q-35 0 -69 6t-61 18q-26 12 -43 30q-16 17 -16 44q0 14 8 27t21 23q11 9 30 19q11 6 33 16q-34 13 -49 34t-15 47q0 15 6 27q7 13 15 23q9 10 19 19q14 12 21 17l9 7q-32 17 -54 48t-21 81q0 41 15 71q15 31 39 50t54 30q29 10 57 10
q22 0 44 -6q21 -6 42 -17q50 42 84 42q40 0 40 -36q0 -16 -9 -25t-20 -9q-10 0 -18 5q-5 3 -15 11t-15 11q-8 5 -15 5q-14 0 -24 -7q32 -20 53 -53t21 -81q0 -41 -16 -69q-17 -29 -42 -47q-26 -18 -55 -27q-30 -9 -57 -9zM188 169h1q12 0 23 7q12 8 21 24t15 44q6 27 6 68
q0 40 -6 69t-15 47t-21 27t-24 9q-25 0 -45 -35t-20 -117q0 -41 6 -68q6 -28 15 -44t21 -24q11 -7 23 -7zM65 -69v-3q0 -46 31 -70q32 -24 96 -24q76 0 116 26q39 26 39 60q0 29 -27 41q-29 13 -87 23l-98 15q-21 3 -30 7q-22 -10 -31 -30t-9 -45z" />
    <glyph glyph-name=".notdef" horiz-adv-x="167" 
 />
    <glyph glyph-name=".null" horiz-adv-x="0" 
 />
    <glyph glyph-name="nonmarkingreturn" unicode="&#xd;" horiz-adv-x="167" 
 />
    <glyph glyph-name="NULL" horiz-adv-x="0" 
 />
    <glyph glyph-name="NULL" horiz-adv-x="0" 
 />
    <glyph glyph-name="space" unicode=" " horiz-adv-x="167" 
 />
    <glyph glyph-name="exclam" unicode="!" horiz-adv-x="222" 
d="M106 213v-1q-8 119 -19 191q-14 90 -22 132q-11 54 -18 87q-7 31 -7 56q0 38 18 57q18 20 53 20t53 -20q18 -19 18 -57q0 -25 -7 -56q-7 -33 -18 -87q-8 -42 -22 -132q-11 -73 -19 -190h-10zM112 -15h-1q-29 0 -48 19t-19 48t20 47t48 18q29 0 47 -18t18 -47
q0 -28 -18 -48q-18 -19 -47 -19z" />
    <glyph glyph-name="quotedbl" unicode="&#x22;" horiz-adv-x="315" 
d="M224 523l1 -1q-5 28 -13 52q-9 27 -18 51t-15 45t-6 36q0 25 14 41q13 15 42 15t42 -15q14 -16 14 -40q0 -15 -6 -36t-15 -45t-18 -51q-8 -24 -13 -52h-9zM82 522l1 -1q-5 28 -13 52q-9 27 -18 51t-15 45t-6 36q0 25 14 41q13 15 42 15t42 -15q14 -16 14 -40
q0 -15 -6 -36t-15 -45t-18 -51q-8 -24 -13 -52h-9z" />
    <glyph glyph-name="numbersign" unicode="#" horiz-adv-x="382" 
d="M12 280h91l38 240h-89v12h91l34 218h14l-34 -218h108l34 218h14l-34 -218h93v-12h-95l-38 -240h93v-12h-95l-42 -267h-14l42 267h-108l-42 -267h-14l42 267h-89v12zM225 280l38 240h-108l-38 -240h108z" />
    <glyph glyph-name="dollar" unicode="$" horiz-adv-x="428" 
d="M183 827l-6 -80q4 1 12 1h12h14q9 0 14 -1v71h13v-72q66 -8 106 -34q40 -27 40 -69q0 -21 -12 -33t-31 -12q-46 0 -54 59q-1 17 -3 30t-6 24q-4 10 -14 18q-8 7 -26 10v-292l2 -1q32 -24 67 -54q31 -27 54 -57q23 -31 35 -65t12 -75q0 -84 -46 -137q-47 -55 -123 -65v-84
h-13v82q-3 -1 -11 -1h-12h-13q-8 0 -13 1v-82h-12v83q-73 8 -119 39q-47 32 -47 81q0 24 15 37q14 13 37 13q47 0 51 -54q1 -19 5 -42q3 -17 9 -31q6 -13 18 -21q13 -8 33 -11v347q-30 22 -63 50q-28 24 -48 51t-30 58q-11 33 -11 70q0 77 43 121q43 45 109 55v72h12z
M325 130q0 42 -20 79q-18 34 -65 76v-288q43 10 64 47q21 36 21 86zM204 -7h-1h12q5 0 11 2v301q-7 6 -23 18q-8 6 -26 20v-340q4 -1 12 -1h15zM199 739l-1 -1h-12q-8 0 -11 -1v-245l50 -38v284q-4 1 -12 1h-14zM88 632v1q0 -40 20 -71q20 -30 54 -60v233q-34 -9 -54 -36
q-20 -28 -20 -67z" />
    <glyph glyph-name="percent" unicode="%" horiz-adv-x="643" 
d="M168 379v-2q-27 0 -55 14q-26 13 -48 38q-21 24 -33 59q-12 34 -12 77t12 77t33 60t48 39q28 14 55 14q29 0 55 -13q27 -14 48 -39t33 -60q12 -34 12 -76q0 -43 -12 -77q-12 -35 -33 -59q-22 -25 -48 -38q-28 -14 -55 -14zM109 1l411 752l12 -7l-411 -752zM168 386v-1
q26 0 45 42q19 41 19 138q0 44 -5 82q-4 34 -14 56q-9 22 -21 32q-11 10 -24 10q-24 0 -42 -41q-18 -40 -18 -138q0 -96 18 -138t42 -42zM473 -9v-2q-27 0 -55 14q-26 13 -48 38q-21 24 -33 59t-12 77q0 43 12 77t33 60t48 39q28 14 55 14q29 0 55 -13q27 -14 48 -39t33 -60
t12 -76q0 -43 -12 -77q-12 -35 -33 -59q-22 -25 -48 -38q-28 -14 -55 -14zM473 -2h-2q25 0 45 42q19 41 19 138q0 98 -18 138q-18 41 -44 41q-24 0 -42 -41q-18 -40 -18 -138q0 -96 18 -138t42 -42z" />
    <glyph glyph-name="ampersand" unicode="&#x26;" horiz-adv-x="642" 
d="M136 597l-7 4q0 39 15 69q15 31 40 51q27 22 57 32q33 11 64 11q26 0 53 -9q28 -9 48 -25t34 -42q13 -25 13 -60q0 -36 -15 -63q-16 -28 -36 -47q-23 -21 -45 -35q-21 -13 -43 -25l8 -13l137 -205l14 -21l43 110q15 39 20 59q6 24 5 38q-2 16 -12 23q-11 8 -31 12v6h138
v-6q-17 -4 -33 -11q-13 -6 -25 -19t-24 -39q-10 -22 -28 -67l-47 -118q41 -61 66 -99q23 -34 42 -58q17 -21 27 -30q9 -8 23 -13v-7h-161l-57 86q-71 -96 -174 -96q-48 0 -90 14q-40 13 -70 39q-29 25 -46 63q-16 36 -16 84t18 84t45 63q29 29 58 47q32 20 60 33
q-16 25 -31 52q-13 24 -21 45q-7 20 -12 41q-4 17 -4 42zM145 206l1 1q0 -99 26 -151q26 -51 78 -51q43 0 84 23q40 22 75 72l-182 277q-3 4 -7.5 11t-5.5 9q-8 12 -11 18q-26 -24 -42 -73q-16 -48 -16 -136zM230 659v-1q0 -30 7 -54t18 -49q10 -22 24 -46q9 -15 27 -43
q12 10 24 24t21 33t15 45t6 60q0 39 -6 63q-6 25 -16 39q-11 15 -22 21q-12 6 -24 6q-38 0 -56 -28q-18 -29 -18 -70z" />
    <glyph glyph-name="quotesingle" unicode="'" horiz-adv-x="172" 
d="M81 523l1 -1q-5 28 -13 52q-9 27 -18 51t-15 45t-6 36q0 25 14 41q14 15 42 15t42 -15q14 -16 14 -40q0 -15 -6 -36t-15 -45t-18 -51q-8 -24 -13 -52h-9z" />
    <glyph glyph-name="parenleft" unicode="(" horiz-adv-x="270" 
d="M261 -106l-1 -2q-26 22 -66 65q-38 41 -72 97q-36 59 -59 129q-24 72 -24 161t24 161q24 71 59 128q34 55 72 96q35 38 66 64l5 -6q-15 -17 -36 -51q-22 -36 -41 -89q-20 -54 -33 -129q-13 -72 -13 -172q0 -95 14 -173q13 -74 33 -130q18 -52 41 -91q20 -35 36 -52z" />
    <glyph glyph-name="parenright" unicode=")" horiz-adv-x="270" 
d="M4 -100l-2 -1q14 16 36 53q23 39 41 91q20 56 33 130q14 78 14 173t-14 173q-14 75 -33 129q-21 57 -40 89q-21 35 -36 51l6 6q31 -26 66 -64q37 -40 72 -96q35 -57 59 -128q24 -72 24 -161t-24 -161q-25 -74 -58 -129q-34 -56 -72 -97q-35 -38 -66 -64z" />
    <glyph glyph-name="asterisk" unicode="*" horiz-adv-x="290" 
d="M171 525v-6q0 -30 -26 -30q-27 0 -27 30q0 21 10 44q10 24 15 54q-19 -25 -30 -51t-24 -39q-11 -11 -21 -11q-11 0 -20 9q-8 8 -8 18t11 21q13 14 39 24q27 11 50 27q-27 -4 -55 -14q-26 -9 -43 -9q-30 0 -30 27q0 26 30 26q20 0 44 -10q26 -11 54 -15q-25 20 -48 29
q-24 9 -38 23q-11 11 -11 21q0 11 9 20q8 8 18 8t21 -11q12 -12 24 -37q11 -23 29 -51q-5 32 -15 56q-10 23 -10 42q0 30 27 30q26 0 26 -30q0 -18 -9 -43q-10 -28 -14 -54q17 25 27 51t24 39q20 23 39 3q8 -8 8 -18q0 -11 -10 -21q-14 -14 -38 -23q-25 -9 -48 -28
q29 4 54 15q24 10 45 10q30 0 30 -26q0 -27 -30 -27q-19 0 -43 9q-26 10 -54 14q25 -17 49 -27q26 -10 39 -24q11 -11 11 -21q0 -11 -9 -18q-8 -9 -19 -9t-22 11q-14 13 -24 39t-30 51q4 -29 14 -55q9 -24 9 -43z" />
    <glyph glyph-name="plus" unicode="+" horiz-adv-x="407" 
d="M197 179v166h-160v12h160v167h14v-167h158v-12h-158v-166h-14z" />
    <glyph glyph-name="comma" unicode="," horiz-adv-x="213" 
d="M139 18l2 -4q-6 -9 -16 -15q-11 -6 -30 -6q-22 0 -39 17t-17 42q0 28 19 46q20 18 43 18q13 0 27 -6t24 -16q11 -11 17 -27q6 -17 6 -39q0 -56 -33 -92t-83 -54l-4 7q44 16 69 44q24 27 24 59q0 17 -9 26z" />
    <glyph glyph-name="hyphen" unicode="-" horiz-adv-x="265" 
d="M53 315h179l-20 -77h-179z" />
    <glyph glyph-name="period" unicode="." horiz-adv-x="205" 
d="M103 -14q-29 0 -48 19t-19 48t19 47t48 18t47 -18t18 -47t-18 -48t-47 -19z" />
    <glyph glyph-name="slash" unicode="/" horiz-adv-x="349" 
d="M339 795l-346 -963l-14 4l346 964z" />
    <glyph glyph-name="zero" unicode="0" horiz-adv-x="581" 
d="M293 758v-1q49 0 96 -26q46 -25 82 -75t57 -120t21 -160q0 -88 -21 -159t-57 -120q-37 -51 -82 -77q-47 -27 -96 -27t-96 27t-83 77q-35 48 -58 120q-22 69 -22 159q0 92 22 161q23 72 58 120q36 49 83 75t96 26zM293 748v-1q-55 0 -91 -90t-36 -283q0 -192 32 -285
q31 -91 95 -91q63 0 93 92t30 285q1 193 -33 283q-35 90 -90 90z" />
    <glyph glyph-name="one" unicode="1" horiz-adv-x="295" 
d="M28 0l-3 7q21 3 33 9t18 27q7 23 8 60q2 52 2 107v295q0 49 -1 65q-1 23 -8 36q-6 12 -19 15q-12 3 -36 1v8l191 136v-557q0 -80 1 -106q2 -41 7 -60q6 -21 18 -27t33 -9v-7h-244z" />
    <glyph glyph-name="two" unicode="2" horiz-adv-x="462" 
d="M235 108l-5 -1q53 0 105 2q39 1 60 6q20 4 30 14q8 8 16 26h9l-32 -119q-7 -25 -12 -31q-4 -6 -18 -6h-388l152 213q42 61 65 100q25 43 43 89q16 42 24 84q8 45 8 89q0 91 -21 133t-69 42q-26 0 -39 -9t-19 -24q-5 -14 -7 -34q-2 -26 -3 -40q-3 -26 -18 -43
q-15 -16 -40 -16q-24 0 -39 17q-15 16 -15 39t12 44q12 22 36 38q24 17 57 27q35 11 77 11q30 0 69 -9t72 -30q34 -22 56 -58q23 -38 23 -94q0 -48 -15 -93q-15 -46 -43 -88q-27 -42 -69 -88q-41 -45 -90 -93l-112 -98h140z" />
    <glyph glyph-name="three" unicode="3" horiz-adv-x="486" 
d="M196 3l-1 -7q35 0 59 18t39 50q16 33 23 77q8 48 8 102q0 50 -3 89q-3 37 -11 66q-8 28 -24 41q-17 14 -42 14q-26 0 -41 -4q-17 -5 -30 -12q-12 -7 -25 -18q-8 -7 -25 -24l-6 6l220 241h-115q-45 0 -87 -2q-30 -1 -48 -8q-17 -6 -24 -16t-15 -27h-9l32 124q4 21 8 27
q3 5 14 5h343v-8l-265 -293q15 8 32 14q18 6 42 6q37 0 75 -12t67 -37q30 -26 48 -67q18 -42 18 -103q0 -59 -18 -105q-18 -47 -51 -80t-81 -51t-108 -18q-38 0 -73 11q-32 10 -55 27t-35 38t-12 44q0 21 14 38t39 17q53 0 59 -54q2 -22 2 -36q0 -20 6 -36t18 -27
q11 -10 38 -10z" />
    <glyph glyph-name="four" unicode="4" horiz-adv-x="521" 
d="M405 177h-1q0 -45 2 -87q2 -32 6 -48q5 -18 13 -23t24 -10v-7h-213v7q16 5 23 10q8 5 13 23q4 16 6 48q2 42 2 87h-276v8l367 570h34v-495h109l-40 -83h-69zM279 260v334l-214 -334h214z" />
    <glyph glyph-name="five" unicode="5" horiz-adv-x="484" 
d="M119 649l-41 -218q24 23 61 36q39 14 78 14q43 0 85 -12t75 -39q34 -28 53 -70q20 -45 20 -108q0 -64 -21 -113t-57 -84q-35 -34 -84 -52q-48 -18 -100 -18q-38 0 -69 9q-29 8 -55 26q-23 16 -37 39q-13 22 -13 48q0 23 15 38t38 15q25 0 39 -15q13 -15 15 -38
q1 -14 1 -41q0 -22 4 -35q4 -15 18 -24t45 -9q33 0 57 21q25 22 41 57q17 36 24 84q8 51 8 103q0 48 -6 87q-6 40 -18 68q-12 29 -32 44q-19 15 -48 15q-44 0 -84 -17q-38 -16 -61 -39l-6 5l67 324h306l-25 -82q-4 -14 -7 -16q-3 -3 -12 -3h-274z" />
    <glyph glyph-name="six" unicode="6" horiz-adv-x="551" 
d="M322 748l-1 -5q-74 0 -110 -72t-45 -199q22 18 50 30q27 12 59 12q52 0 96 -16q45 -16 78 -48q34 -33 53 -79q20 -49 20 -109q0 -67 -23 -119q-22 -50 -57 -85q-34 -34 -76 -52t-79 -18q-41 0 -87 23q-44 22 -82 69q-37 45 -61 117q-24 71 -24 167q0 86 26 159
q25 71 66 124q40 52 92 81t104 29q77 0 123 -29q45 -28 45 -71q0 -23 -15 -37q-14 -13 -35 -13q-23 0 -39 12t-18 41t-4 41q-3 17 -9 27t-17 15q-12 5 -30 5zM163 361l1 4q0 -97 9 -166q9 -67 26 -114q17 -45 39 -66t48 -21q61 0 84 68q23 69 23 195q0 73 -9 119
q-9 48 -25 74q-17 27 -39 39q-23 12 -46 12q-32 0 -59 -12t-49 -31q-3 -48 -3 -101z" />
    <glyph glyph-name="seven" unicode="7" horiz-adv-x="440" 
d="M172 0h-9l219 648h-213q-35 0 -69 -2q-26 -2 -39 -6q-14 -5 -21 -13q-8 -9 -15 -21h-7l34 121q4 12 8 18q3 5 14 5h351v-8z" />
    <glyph glyph-name="eight" unicode="8" horiz-adv-x="501" 
d="M474 194l-4 -8q0 -44 -18 -82q-18 -37 -48 -64t-69 -42t-84 -15q-46 0 -90 14q-40 13 -73 38q-31 23 -49 57q-18 33 -18 72q0 37 14 68t36 56q23 26 52 45q26 17 62 34q-33 26 -58 49q-25 24 -42 48q-16 24 -24 53q-8 30 -8 61q0 43 17 77q17 33 44 56q26 22 63 34
q36 12 73 12q45 0 81 -12q37 -12 62 -33q26 -21 41 -50q15 -28 15 -63q0 -31 -12 -57q-13 -28 -31 -47q-17 -19 -44 -37q-23 -16 -49 -28q30 -22 67 -53q30 -25 51 -54q22 -30 32 -60q11 -33 11 -69zM251 -9l3 -3q34 0 57 9t36 25q14 17 20 39q6 23 6 51q0 40 -10 69t-30 55
q-18 24 -48 49q-33 27 -64 51l-27 19q-34 -26 -50 -69q-17 -45 -17 -120q0 -40 6 -73q6 -31 20 -55q14 -23 38 -35t60 -12zM305 427l1 -2q25 22 39 59t14 104q0 82 -30 116q-30 35 -78 35q-52 0 -78 -25q-27 -26 -27 -84q0 -28 11 -55q10 -24 29 -48q18 -23 45 -45t60 -45z
" />
    <glyph glyph-name="nine" unicode="9" horiz-adv-x="549" 
d="M228 1l-3 -1q45 0 74 18t47 53q19 36 26 86q7 51 9 116q-21 -19 -51 -31q-28 -12 -63 -12q-49 0 -93 15q-43 15 -77 47q-33 31 -52 79q-19 47 -19 113t23 118q22 50 57 85q34 35 75 51q42 17 77 17q48 0 93 -22q46 -22 82 -69q35 -45 58 -117q22 -69 22 -165
q0 -84 -21 -156q-21 -71 -60 -124q-39 -52 -91 -82q-53 -30 -114 -30q-35 0 -69 8q-30 7 -54 23q-22 14 -34 33q-12 18 -12 39q0 22 14 38q14 15 36 15q24 0 39 -12t17 -41q2 -23 3 -39t8 -29q6 -12 18 -18t35 -6zM153 486l1 -1q0 -65 6 -111q6 -47 19 -76q13 -30 36 -45
q22 -15 55 -15q36 0 63 13q29 13 51 33q1 15 1 47v51q0 101 -10 167q-11 70 -28 112q-18 44 -40 63q-23 20 -48 20q-52 0 -79 -63t-27 -195z" />
    <glyph glyph-name="colon" unicode=":" horiz-adv-x="213" 
d="M107 319q-29 0 -48 18t-19 47t19 48t48 19t47 -19q18 -20 18 -48q0 -29 -18 -47t-47 -18zM107 -14q-29 0 -48 19t-19 48t19 47t48 18t47 -18t18 -47t-18 -48t-47 -19z" />
    <glyph glyph-name="semicolon" unicode=";" horiz-adv-x="220" 
d="M110 319q-28 0 -48 18q-19 18 -19 47t19 48t48 19t47 -19q18 -20 18 -48q0 -29 -18 -47t-47 -18zM142 18l1 -5q-6 -9 -16 -15q-11 -6 -30 -6q-22 0 -39 17q-16 16 -16 42q0 28 19 46q20 18 43 18q14 0 27 -6q14 -6 24 -16q11 -11 17 -27t6 -39q0 -56 -33 -92t-83 -54
l-5 7q44 16 70 44q25 26 25 59q0 7 -3 15t-7 12z" />
    <glyph glyph-name="less" unicode="&#x3c;" horiz-adv-x="393" 
d="M41 358l311 130v-14l-294 -123l294 -123v-15l-311 130v15z" />
    <glyph glyph-name="equal" unicode="=" horiz-adv-x="411" 
d="M39 410h332v-12h-332v12zM39 298h332v-12h-332v12z" />
    <glyph glyph-name="greater" unicode="&#x3e;" horiz-adv-x="393" 
d="M41 213v15l294 123l-294 123v14l311 -130v-15z" />
    <glyph glyph-name="question" unicode="?" horiz-adv-x="371" 
d="M126 202h-7q-1 74 15 129t36 102q18 43 36 92q17 46 17 99q0 69 -15 99t-56 30q-21 0 -27 -13q-5 -12 -10 -37t-15 -45q-10 -19 -40 -18q-19 0 -33 14q-13 13 -13 30q2 32 37 54q37 23 104 23q89 0 140 -42t51 -114q0 -41 -15 -72q-14 -30 -38 -60q-20 -25 -50 -57
q-27 -28 -51 -60q-23 -30 -40 -69q-17 -38 -18 -85h-8zM136 -14q-29 0 -48 19t-19 48t19 47q20 18 48 18t48 -18q19 -18 19 -47t-19 -48t-48 -19z" />
    <glyph glyph-name="at" unicode="@" horiz-adv-x="765" 
d="M631 -54l-2 -7q-14 -14 -41 -36q-23 -18 -57 -34q-36 -16 -76 -26q-41 -10 -96 -10q-63 0 -125 20q-60 20 -106 61q-47 42 -75 106q-28 63 -28 153q0 97 36 179q37 84 94 143q59 61 135 95q78 35 156 35q67 0 122 -20q54 -19 93 -57q39 -37 60 -92q21 -54 21 -123
q0 -65 -21 -126q-21 -62 -64 -108t-108 -73q-63 -27 -150 -22l11 66q-30 -34 -51 -51q-20 -16 -52 -16q-52 0 -88 41q-36 40 -36 120q0 65 23 120t58 93q36 39 79 60t86 21q19 0 33 -6q9 -4 25 -12q8 -4 22 -12q11 -6 24 -6q25 0 49 25h7l-52 -301q-13 -75 -15 -102
q-1 -13 6.5 -16.5t23.5 3.5q69 25 108 96t39 183q0 68 -21 124q-21 55 -57 94t-85 60q-50 21 -106 21q-76 0 -141 -27q-63 -26 -112 -80q-48 -52 -75 -128q-27 -75 -27 -171q0 -90 22 -155q23 -67 61 -111q39 -45 91 -67q51 -22 112 -22q53 0 93 10t75 26q33 15 57 33
q20 15 40 35zM297 130v-1q0 -59 9 -86t27 -27q13 0 30 14q18 15 47 48l50 291q2 20 2 29q0 14 -3 24t-11 18q-7 7 -21 7q-19 0 -42 -26q-23 -25 -42 -69q-19 -43 -33 -101q-13 -55 -13 -121z" />
    <glyph glyph-name="A" unicode="A" horiz-adv-x="550" 
d="M4 6l-3 -1q10 5 17 12q8 7 15 21q5 10 16 38q11 29 20 63l138 497l-14 45q-10 37 -21 49q-10 11 -27 16v6h146q8 0 11 -3t6 -12l178 -609q16 -56 27 -84t33 -36v-7h-188v7q20 5 23 21q3 17 -9 57l-42 141h-225l-24 -89q-9 -32 -12 -54t0 -37q3 -14 14 -25q10 -10 30 -16
v-6h-109v6zM325 234l-114 382l-105 -382h219z" />
    <glyph glyph-name="B" unicode="B" horiz-adv-x="534" 
d="M17 7l-1 -1q16 4 25 12q9 7 13 28t6 59q1 25 1 105v330q0 80 -1 106q-2 39 -6 60q-5 21 -13 27q-11 7 -25 11v7h214q245 0 245 -170q0 -33 -10 -60q-11 -29 -34 -51q-25 -24 -61 -38q-38 -15 -93 -21v-1q62 -6 107 -24q47 -19 74 -43q29 -26 42 -58q14 -34 14 -69
q0 -56 -21 -96t-58 -67q-36 -26 -92 -40q-52 -13 -121 -13h-205v7zM188 740l3 -327h37q40 0 67 9q26 9 42 29q15 19 21 50q6 30 6 72q0 85 -30 126t-105 41h-41zM191 405l-2 -396h28q50 0 81 10q34 11 53 33t28 60t9 91q0 49 -6 86t-24 63t-49 39q-33 14 -81 14h-37z" />
    <glyph glyph-name="C" unicode="C" horiz-adv-x="530" 
d="M326 -11l4 -1q-56 0 -111 23q-53 22 -96 71q-42 48 -66 121t-24 174q0 103 26 176t66 119q40 45 92 67q51 21 101 21q25 0 47 -5q18 -4 35 -11q20 -8 29 -11q15 -5 27 -5q26 0 33 28h9v-173h-9q-14 47 -31 79q-18 33 -40 52q-23 20 -48 29t-52 9q-33 0 -59 -19
q-27 -19 -48 -63t-33 -112q-12 -69 -12 -166q0 -107 14 -183q13 -73 39 -118q25 -44 60 -64q34 -19 76 -19q49 0 87 23t60 51l6 -7q-12 -15 -27 -29q-17 -15 -39 -27t-51 -21t-65 -9z" />
    <glyph glyph-name="D" unicode="D" horiz-adv-x="608" 
d="M17 7l-2 -3q16 4 25 12q9 7 13 28t6 59q1 25 1 105v330q0 80 -1 106q-1 39 -6 60t-13 27q-11 7 -25 11v7h203q79 0 144 -22q67 -23 114 -67q48 -45 75 -114t27 -162q0 -88 -24 -160t-70 -121t-112 -76t-152 -27h-203v7zM187 738l-1 -734h31q55 0 98 20q42 19 69 65
q28 46 41 117q14 75 14 177q0 109 -18 178t-48 108t-70 54q-41 15 -85 15h-31z" />
    <glyph glyph-name="E" unicode="E" horiz-adv-x="495" 
d="M17 7l-4 -4q16 4 25 12q9 7 13 28t6 59q1 25 1 105v330q0 80 -1 106q-1 39 -6 60t-13 27q-11 7 -25 11v7h404q8 0 11 -3t6 -18l18 -101h-9q-12 35 -27 56q-16 22 -37 35q-23 14 -55 18q-37 5 -79 5h-60v-322h20q35 0 56 6q22 6 32 18q11 12 15 27q3 10 9 32h7v-175h-7
q-6 22 -9 32q-4 15 -15 27t-31 18q-21 6 -55 6h-20v-401h71q49 0 87 5q35 5 59 18t39 38q16 25 26 65h9l-12 -117q-2 -13 -6 -15q-6 -2 -12 -2h-431v7z" />
    <glyph glyph-name="F" unicode="F" horiz-adv-x="480" 
d="M17 7l-3 -3q16 4 25 12q8 7 13 27q4 19 6 59q1 26 1 107v330q0 80 -1 106q-2 40 -6 59q-5 20 -13 27q-9 8 -25 12v7h420q8 0 11 -3q4 -4 5 -19l16 -107h-9q-11 35 -24 57q-14 23 -34 36q-22 14 -54 20q-33 6 -85 6h-73v-317h38q39 0 59 7q22 8 32 19q10 12 15 27
q3 10 9 32h7v-176h-7q-6 22 -9 32q-5 16 -15 26t-32 18q-20 7 -58 7h-38v-205q0 -80 1 -106q1 -38 6 -58t13 -27q9 -8 25 -12v-7h-216v7z" />
    <glyph glyph-name="G" unicode="G" horiz-adv-x="605" 
d="M328 -12l-6 -2q-66 0 -121 27t-94 78q-38 50 -61 123q-22 70 -22 164q0 98 27 170q26 70 71 118q44 46 96 69q54 23 104 23q30 0 51 -6q23 -7 38 -12q22 -8 32 -12q15 -6 32 -6q19 0 26 27h8v-174h-8q-19 85 -66 129t-112 44q-36 0 -66 -18t-51 -60t-33 -111t-12 -169
q0 -99 11 -178q10 -73 32 -123q21 -47 51 -70q29 -22 69 -22q54 0 77 39q23 40 23 129v23q0 35 -2 71q-2 28 -7 42q-6 16 -15 23q-8 7 -24 10v7h217v-7q-17 -3 -25 -10q-10 -8 -14 -27q-5 -20 -6 -55q-1 -24 -1 -97v-57q-15 -19 -40 -37q-28 -20 -55 -32q-26 -12 -62 -22
q-32 -9 -62 -9z" />
    <glyph glyph-name="H" unicode="H" horiz-adv-x="616" 
d="M17 7l-1 -4q16 4 25 12q8 7 13 27q4 19 6 59q1 26 1 107v330q0 80 -1 106q-2 40 -6 59q-5 20 -13 27q-9 8 -25 12v7h214v-7q-16 -4 -25 -12q-8 -7 -13 -27q-4 -19 -6 -59q-1 -26 -1 -106v-125h242v125q0 80 -1 106q-2 40 -6 59q-5 20 -13 27q-9 8 -25 12v7h213v-7
q-15 -4 -24 -12q-8 -7 -13 -27q-4 -19 -6 -59q-1 -26 -1 -106v-330q0 -80 1 -106q1 -38 6 -58q4 -19 14 -27q9 -7 24 -12v-7h-213v7q16 4 25 12q8 7 13 27q4 19 6 59q1 26 1 107v197h-242v-197q0 -80 1 -106q1 -38 6 -58t13 -27q9 -8 25 -12v-7h-214v7z" />
    <glyph glyph-name="I" unicode="I" horiz-adv-x="248" 
d="M17 7v-1q16 4 25 12q9 7 13 28t6 59q1 25 1 105v330q0 80 -1 106q-2 40 -6 59q-5 20 -13 27q-9 8 -25 12v7h214v-7q-16 -4 -25 -12q-8 -7 -13 -27q-4 -19 -6 -59q-1 -26 -1 -106v-330q0 -80 1 -105q1 -37 6 -58q4 -21 13 -28q9 -8 25 -12v-7h-214v7z" />
    <glyph glyph-name="J" unicode="J" horiz-adv-x="392" 
d="M162 -10l1 -4q-71 0 -113 24t-42 64q0 22 15 36q14 13 35 13q20 0 33 -13q13 -14 21 -45q1 -6 4 -17.5t4 -15.5q3 -13 9 -22t14 -12q7 -3 21 -3q18 0 32 15q14 16 14 52v475q0 81 -1 107q-2 40 -6 59q-5 20 -13 27q-9 8 -24 12v7h213v-7q-15 -4 -24 -12q-8 -7 -13 -27
t-6 -58q-1 -26 -1 -106v-373q0 -44 -15 -77q-15 -32 -39 -55t-55 -33q-33 -11 -64 -11z" />
    <glyph glyph-name="K" unicode="K" horiz-adv-x="556" 
d="M17 7v-4q16 4 25 12q8 7 13 27q4 19 6 59q1 26 1 107v330q0 80 -1 106q-2 40 -6 59q-5 20 -13 27q-9 8 -25 12v7h214v-7q-16 -4 -25 -12q-8 -7 -13 -27q-4 -19 -6 -59q-1 -26 -1 -106v-140l229 257q19 22 26 36q8 16 8 25q0 11 -7 17q-7 5 -19 10v6h106v-6
q-11 -5 -19 -10q-9 -6 -21 -15t-25 -22q-14 -14 -30 -33l-156 -174l226 -412q12 -23 18 -32q7 -11 14 -20q6 -7 12 -12q4 -3 14 -7v-6h-206v6q23 6 23 21q0 16 -21 56l-172 311v-184q0 -80 1 -106q1 -38 6 -58t13 -27q9 -8 25 -12v-7h-214v7z" />
    <glyph glyph-name="L" unicode="L" horiz-adv-x="479" 
d="M17 7l-2 -5q16 4 25 12q8 7 13 27q4 19 6 59q1 26 1 107v330q0 80 -1 106q-2 40 -6 59q-5 20 -13 27q-9 8 -25 12v7h218v-7q-17 -5 -26 -12q-8 -7 -13 -27q-4 -19 -6 -59q-1 -26 -1 -106v-531h62q48 0 81 6q34 6 57 22q25 17 41 45q18 31 32 73h9l-24 -135q-3 -14 -7 -15
q-6 -2 -12 -2h-409v7z" />
    <glyph glyph-name="M" unicode="M" horiz-adv-x="689" 
d="M17 7l-2 -3q15 8 25 18q8 8 13 30q5 21 6 58q1 25 1 102v325q0 80 -1 106q-1 39 -6 60t-13 27q-11 7 -25 11v7h166q7 0 12 -3q4 -3 9 -20l146 -499l145 523h176v-7q-15 -4 -24 -12q-8 -7 -13 -27q-4 -19 -6 -59q-1 -26 -1 -106v-330q0 -80 1 -106q1 -38 6 -58
q4 -19 14 -27q9 -7 24 -12v-7h-218v7q16 4 25 12q8 7 13 27q4 19 6 59q1 26 1 107v504l-200 -717h-11l-214 723v-505q0 -77 1 -102q1 -37 6 -58t15 -30q11 -10 28 -18v-7h-105v7z" />
    <glyph glyph-name="N" unicode="N" horiz-adv-x="545" 
d="M17 7h1q15 8 25 18q8 8 13 30q5 21 6 58q1 25 1 102v325q0 80 -1 106q-2 39 -6 60q-5 21 -13 27q-11 7 -25 11v7h163q9 0 12 -1q6 -2 8 -4q5 -5 8 -9q5 -6 9 -15l264 -485v299q0 77 -1 102q-1 37 -6 58t-15 30q-11 10 -28 18v7h105v-7q-15 -8 -25 -18q-8 -8 -13 -30
q-5 -21 -6 -58q-1 -25 -1 -102v-539h-26l-394 728v-510q0 -77 1 -102q1 -37 6 -58t15 -30q11 -10 28 -18v-7h-105v7z" />
    <glyph glyph-name="O" unicode="O" horiz-adv-x="625" 
d="M312 -12v-1q-54 0 -105 27t-90 78t-63 123t-24 161q0 90 24 161t63 120q38 49 90 76q51 27 105 27q55 0 106 -27q52 -27 90 -76q39 -49 63 -120q24 -70 24 -161q0 -88 -24 -160t-63 -123t-90 -78t-106 -27zM312 -4v-2q68 0 107 93q38 92 40 286q0 97 -12 167
q-12 73 -31 117q-20 47 -46 69q-28 23 -57 23q-31 0 -57 -22t-46 -69q-19 -44 -31 -117q-12 -71 -12 -166q0 -193 39 -286t106 -93z" />
    <glyph glyph-name="P" unicode="P" horiz-adv-x="510" 
d="M17 7l-2 -2q16 4 25 12q8 7 13 27q4 19 6 59q1 26 1 107v330q0 80 -1 106q-2 40 -6 59q-5 20 -13 27q-9 8 -25 12v7h234q55 0 100 -9q44 -9 78 -32q33 -23 51 -58q18 -36 18 -90q0 -56 -18 -96t-51 -67q-32 -26 -78 -40q-43 -13 -98 -13h-62v-136q0 -80 1 -106
q1 -38 6 -58q4 -19 14 -27q9 -7 26 -12v-7h-219v7zM187 739v-390h59q29 0 52 10q25 11 41 33q17 24 26 60q9 38 9 93t-9 93t-27 60q-19 24 -40 32q-22 9 -50 9h-61z" />
    <glyph glyph-name="Q" unicode="Q" horiz-adv-x="625" 
d="M313 -11l-3 -6q-60 0 -110 28q-52 29 -90 79t-61 123q-22 70 -22 159q0 90 23 164q22 70 62 121q39 49 90 75q52 26 108 26q58 0 108 -25q51 -25 90 -75q40 -51 62 -121q23 -74 23 -163q0 -122 -39 -209q-39 -88 -103 -132q12 -24 21 -54q6 -22 17 -51q9 -24 21 -42
q11 -16 26 -28q13 -10 32 -10q16 0 30 8t21 15l5 -5l-11 -11q-7 -7 -16 -11q-13 -6 -25 -8q-15 -3 -38 -3q-29 0 -56 6t-50 23t-41 48q-17 30 -28 83q-14 -2 -22 -3t-24 -1zM310 745l-3 -1q-66 0 -105 -93t-39 -282q0 -78 5 -150q4 -64 15 -109t27 -72t41 -39q-33 24 -33 67
q0 32 22 53t63 21q32 0 63 -17t56 -51q16 44 24 114q8 75 8 183q0 190 -39 283t-105 93zM229 67l1 -1q0 -34 21 -54q22 -20 57 -20q23 0 44 6q-8 36 -15 59q-8 26 -16 39q-9 15 -19 21t-25 6q-18 0 -33 -15t-15 -41z" />
    <glyph glyph-name="R" unicode="R" horiz-adv-x="547" 
d="M17 7l-4 1q16 4 25 12q8 7 13 27q4 19 6 59q1 26 1 107v330q0 80 -1 106q-2 40 -6 59q-5 20 -13 27q-9 8 -25 12v7h217q140 0 207 -42q68 -42 68 -136q0 -49 -19 -84q-19 -36 -52 -61t-78 -39t-96 -15q34 -3 59 -13q28 -11 48 -31q21 -21 36 -54q14 -31 25 -84
q12 -61 19 -87q9 -33 18 -55q9 -20 20 -30q11 -9 24 -9t23 5q8 4 16 12l6 -5q-8 -10 -28 -21q-21 -12 -58 -12q-34 0 -63 8q-26 7 -46 29q-19 21 -33 57q-13 34 -22 91q-10 63 -20 108q-9 38 -20 59q-10 19 -26 24q-17 5 -38 5h-12v-164q0 -80 1 -106q1 -38 6 -58t13 -27
q9 -8 25 -12v-7h-216v7zM185 742v-359h55q80 0 113 47q33 46 33 132q0 96 -36 138t-124 42h-41z" />
    <glyph glyph-name="S" unicode="S" horiz-adv-x="464" 
d="M215 -9v-2q-36 0 -63 8q-22 6 -43 17q-14 7 -32 17q-14 8 -30 8q-13 0 -18 -21h-8v195h9q13 -105 59 -160q45 -54 125 -54q69 0 102 30t33 93q0 34 -11 62q-10 27 -32 53q-21 26 -53 53q-33 28 -74 59q-31 25 -59 50q-26 23 -46 51q-19 27 -30 59q-11 33 -11 72t13 69
q14 32 38 56q23 23 59 37t78 14q30 0 51 -6q19 -5 37 -12t29 -12q12 -6 23 -6q17 0 21 25h8v-153h-9q-15 80 -57 118q-41 37 -105 37q-55 0 -81 -26t-26 -71q0 -51 36 -94q35 -42 102 -94q22 -16 73 -56q35 -27 60 -57q24 -28 40 -65q15 -35 15 -78q0 -57 -19 -96
q-19 -40 -51 -67q-31 -26 -72 -40q-39 -13 -81 -13z" />
    <glyph glyph-name="T" unicode="T" horiz-adv-x="540" 
d="M161 7l-1 -2q16 4 25 12q9 7 13 28t6 59q1 25 1 105v531h-16q-43 0 -72 -6t-48 -22q-21 -17 -32 -43q-11 -25 -22 -70h-9l12 131q1 15 5 19q3 3 11 3h470q8 0 11 -3q4 -4 5 -19l14 -131h-9q-11 42 -24 69q-14 28 -33 44q-20 17 -48 23t-70 6h-18v-531q0 -80 1 -105
q1 -37 6 -58q4 -20 14 -28q9 -7 24 -12v-7h-216v7z" />
    <glyph glyph-name="U" unicode="U" horiz-adv-x="551" 
d="M294 -12l2 -2q-110 0 -175 56q-64 55 -64 171v325q0 80 -1 106q-2 40 -6 59q-5 20 -13 27q-9 8 -24 12v7h211v-7q-15 -4 -24 -12q-8 -7 -13 -27q-4 -19 -6 -59q-1 -26 -1 -106v-342q0 -50 3 -87t17 -62q14 -24 39 -36t67 -12q83 0 131 50q48 49 48 162v324q0 77 -1 102
q-1 37 -6 58q-4 21 -15 30q-11 10 -28 18v7h106v-7q-15 -8 -25 -18q-8 -8 -13 -30q-5 -21 -6 -58q-1 -25 -1 -102v-324q0 -118 -52 -170q-53 -53 -150 -53z" />
    <glyph glyph-name="V" unicode="V" horiz-adv-x="533" 
d="M68 613h1l-18 54q-9 27 -13 37q-6 14 -14 24q-6 7 -20 16v6h202v-6q-23 -6 -26 -24q-3 -17 11 -64l140 -465l126 435q9 28 11 43q3 19 0 34q-3 14 -12 25t-29 17v6h104v-6q-12 -5 -18 -10q-7 -6 -15 -18q-8 -13 -15 -34q-7 -23 -18 -60l-182 -628h-23z" />
    <glyph glyph-name="W" unicode="W" horiz-adv-x="767" 
d="M66 623l-6 -2q-7 21 -15 47q-6 20 -12 33t-14 23q-8 9 -20 17v7h191v-7q-23 -6 -24 -22t12 -58l147 -485l59 192l-78 254q-7 21 -15 47q-6 19 -12 33q-6 13 -14 23q-7 9 -21 15v7h189v-7q-21 -6 -21 -22t12 -60l40 -141l31 104q4 14 10 40q4 17 4 34q0 15 -6 27t-22 19v7
h91v-7q-12 -5 -18 -10q-8 -6 -15 -18t-15 -33t-18 -57l-36 -121l94 -327l122 448q4 14 10 40q4 19 3 34q-1 14 -11 27q-8 11 -30 19v7h105v-7q-12 -6 -17 -10q-8 -6 -15 -18q-8 -13 -15 -34q-9 -26 -18 -58l-171 -628h-23l-110 356l-109 -356h-23z" />
    <glyph glyph-name="X" unicode="X" horiz-adv-x="539" 
d="M10 6l-6 1q13 7 25 15q9 7 21 20q10 11 21 32q21 39 26 49l116 224l-125 287q-14 32 -24 51t-20 32q-9 13 -19 18q-9 5 -22 10v6h218v-6q-14 -3 -20 -9t-6 -18q0 -10 8 -31q7 -19 21 -48l82 -191l94 186q27 53 26 78q-2 26 -36 33v6h111v-6q-17 -7 -27 -15
q-10 -7 -19 -19q-6 -8 -19 -32q-10 -19 -27 -51l-98 -193l132 -307q12 -27 24 -49q8 -16 20 -33q8 -11 20 -22q11 -10 26 -17v-6h-217v6q14 4 22 12q7 7 7 21q0 15 -7 33q-8 19 -21 51l-92 211l-113 -217q-25 -51 -21 -76q5 -26 36 -36v-6h-117v6z" />
    <glyph glyph-name="Y" unicode="Y" horiz-adv-x="516" 
d="M158 7l-2 -2q15 5 24 12q10 8 14 28q4 21 6 59q1 25 1 105v168l-117 248q-20 45 -36 72t-45 45v6h207v-6q-21 -8 -24 -25t11 -49l124 -269l96 223q8 18 19 50q7 20 7 34q0 12 -8 22q-7 9 -26 15v6h103v-6q-10 -4 -20 -11q-9 -6 -18 -18q-11 -14 -20 -33q-13 -27 -26 -57
l-102 -234v-180q0 -80 1 -105q1 -37 6 -58q4 -21 13 -28q9 -8 25 -12v-7h-213v7z" />
    <glyph glyph-name="Z" unicode="Z" horiz-adv-x="501" 
d="M324 742l-83 -2q-48 0 -81 -9q-31 -8 -55 -26q-21 -15 -37 -41q-13 -21 -30 -53h-8l26 138h410l-312 -742h104q56 0 94 9t61 28q24 20 39 49q14 29 30 74h8l-22 -167h-453z" />
    <glyph glyph-name="bracketleft" unicode="[" horiz-adv-x="245" 
d="M231 793v-9h-84v-881h84v-9h-177v899h177z" />
    <glyph glyph-name="backslash" unicode="\" horiz-adv-x="349" 
d="M370 -164l-14 -4l-346 963l14 5z" />
    <glyph glyph-name="bracketright" unicode="]" horiz-adv-x="245" 
d="M190 -106h-176v9h84v881h-84v9h176v-899z" />
    <glyph glyph-name="asciicircum" unicode="^" horiz-adv-x="338" 
d="M165 756h8l139 -255l-8 -4l-135 247l-135 -247l-8 4z" />
    <glyph glyph-name="underscore" unicode="_" horiz-adv-x="323" 
d="M-5 -71h334v-13h-334v13z" />
    <glyph glyph-name="grave" unicode="`" 
d="M161 597l-3 -1q-16 10 -27 24q-10 13 -10 33q0 16 11 27t30 11q17 0 30 -11t26 -33l76 -125l-6 -4z" />
    <glyph glyph-name="a" unicode="a" horiz-adv-x="404" 
d="M128 -8l5 -3q-48 0 -78 27t-30 77q0 35 15 56q16 22 39 35q24 14 54 24t57 24l7 3q12 6 21 12q10 7 15 13q6 7 9 20q3 12 3 31v79q0 42 -18 56q-19 14 -42 14q-22 0 -34 -12q-13 -12 -23 -41q-8 -19 -16 -31q-9 -13 -30 -13q-19 0 -30 11t-11 26q0 29 39 50t105 21
q32 0 62 -6q31 -6 54 -19q24 -13 39 -38q15 -24 15 -62v-218q0 -47 1 -62q2 -26 4 -35q3 -11 9 -16q5 -4 15 -4q6 0 12 2q4 1 9 6l3 -6q-8 -5 -24 -12q-18 -8 -51 -8q-77 0 -87 58q-29 -30 -52 -44q-26 -15 -66 -15zM137 114l-1 -1q0 -100 49 -100q12 0 28 11q11 8 37 32
q-1 3 -1 12v200q-6 -14 -18 -21q-16 -10 -31 -17l-7 -3q-33 -19 -44 -43q-12 -26 -12 -70z" />
    <glyph glyph-name="b" unicode="b" horiz-adv-x="470" 
d="M234 -6h-5q-27 0 -47 7q-21 7 -39 15t-33 15q-14 7 -30 7t-20 -9t-6 -15h-7v576q0 40 -1 53q-2 22 -4 29q-3 9 -10 12q-10 4 -19 5v7l146 79v-379q18 20 27 29q14 13 27 24q15 11 30 17q17 6 39 6q27 0 56 -12t53 -39t39 -69t15 -103q0 -60 -17 -109q-16 -48 -45 -81
q-28 -33 -67 -49q-38 -16 -82 -16zM178 20l-4 -1q8 -7 18 -12q12 -5 33 -5q50 0 74 54t24 174q0 66 -6 109t-15 69q-9 25 -23 36t-28 11q-28 0 -48 -19q-21 -20 -48 -51v-279q0 -41 6 -59q6 -17 17 -27z" />
    <glyph glyph-name="c" unicode="c" horiz-adv-x="374" 
d="M229 -6l-4 -6q-41 0 -79 15t-66 45q-29 30 -45 73q-16 42 -16 101q0 60 20 108q19 46 50 78q29 31 66 46q36 15 67 15q24 0 51 -5q22 -4 42 -14q18 -9 29 -23t11 -30q0 -17 -11 -26q-10 -9 -27 -9q-25 0 -37 15q-11 14 -19 47q-4 22 -11 32q-6 9 -23 9q-40 0 -63 -53
q-23 -54 -23 -159q0 -119 30 -181q30 -61 84 -61q36 0 60 15t41 35l6 -6q-18 -22 -50 -42q-31 -19 -83 -19z" />
    <glyph glyph-name="d" unicode="d" horiz-adv-x="474" 
d="M189 -7l-1 -2q-29 0 -60 14q-29 13 -52 41q-22 27 -36 71q-14 45 -14 104q0 63 18 111q17 46 47 79q29 32 65 47t73 15q26 0 47 -9t38 -23v146v54q0 21 -4 30q-4 10 -12 13q-6 2 -21 4v7l149 82v-648v-60q0 -22 3 -34q3 -11 11 -18q8 -6 21 -9v-7h-148v71
q-33 -37 -61 -58t-63 -21zM141 232h-1q0 -60 6 -102q6 -40 17 -69q11 -27 24 -39t29 -12q17 0 39 17q23 18 56 54v346q-20 18 -37 26q-20 9 -45 9q-40 0 -64 -55t-24 -175z" />
    <glyph glyph-name="e" unicode="e" horiz-adv-x="396" 
d="M234 -6l-2 -2q-41 0 -81 14q-39 14 -69 42t-48 74q-18 45 -18 110q0 61 20 107q20 45 48 75q29 30 62 44q34 14 62 14q43 0 74 -14t50 -36q21 -24 29 -49q10 -29 11 -53h-236q-3 -32 -3 -72q0 -52 6 -96t21 -75t37 -49q23 -18 56 -18q38 0 62 12t43 28l5 -7
q-19 -17 -48 -33q-28 -16 -81 -16zM209 464v1q-25 0 -45 -30t-27 -106h136q-3 63 -15 99t-49 36z" />
    <glyph glyph-name="f" unicode="f" horiz-adv-x="249" 
d="M21 7l-1 3q11 3 19 9q8 7 11 18q3 12 3 35v60v328h-48v8q31 3 39 14t8 33v71q0 49 17 85q16 33 41 55q24 21 53 30t49 9q45 0 74 -16q30 -17 30 -48q0 -13 -9 -25t-29 -12q-22 0 -33 11q-10 10 -15 32q-4 30 -9 39t-14 9t-17 -6q-7 -5 -13 -21q-6 -15 -9 -39t-3 -61v-162
h80v-10h-80v-328q0 -45 1 -60q1 -22 6 -34q4 -12 15 -18q10 -6 29 -9v-7h-195v7z" />
    <glyph glyph-name="g" unicode="g" horiz-adv-x="398" 
d="M189 161l-2 -3q-18 0 -41 5q-20 4 -41 14l-9 -7q-18 -15 -23 -21q-6 -7 -6 -15t10 -15q11 -7 45 -15l135 -21q40 -6 65 -18q26 -12 41 -27t21 -33t6 -37q0 -34 -15 -61t-42 -45t-63 -27t-78 -9q-34 0 -69 6q-34 6 -61 18q-26 12 -43 30q-16 17 -16 44q0 14 8 27t21 23
q11 9 30 19q11 6 33 16q-34 13 -49 34t-15 47q0 15 6 27q7 13 15 23q9 10 19 19q14 12 21 17l9 7q-31 17 -54 48t-21 81q0 41 15 71q15 31 39 50t54 30q29 10 57 10q21 0 44 -6q21 -6 42 -17q49 42 84 42q40 0 40 -36q0 -16 -9 -25t-20 -9q-10 0 -18 5q-5 3 -15 11t-15 11
q-8 5 -15 5q-14 0 -24 -7q32 -20 53 -53t21 -81q0 -41 -16 -69q-17 -29 -42 -47q-26 -18 -55 -27q-30 -9 -57 -9zM187 167h1q12 0 23 7q12 8 21 24t15 44q6 27 6 68q0 40 -6 69t-15 47t-21 27t-24 9q-25 0 -45 -35t-20 -117q0 -41 6 -68q6 -28 15 -44t21 -24q11 -7 23 -7z
M64 -71v-3q0 -46 31 -70t96 -24q76 0 116 26q39 26 39 60q0 29 -27 41q-29 13 -87 23l-98 15q-21 3 -30 7q-22 -10 -31 -30t-9 -45z" />
    <glyph glyph-name="h" unicode="h" horiz-adv-x="460" 
d="M14 7h-6q11 3 19 9t11 18t3 35v60v457q0 41 -1 54q-2 22 -4 30q-3 10 -11 13q-6 2 -21 4v8l148 83v-394l7 7q41 42 72 63t71 21q16 0 36 -6q21 -6 35 -19q16 -14 26 -36q11 -24 11 -57v-231v-60q0 -22 3 -34t10 -18t21 -9v-7h-183v7q13 3 21 9t12 18t6 35q1 15 1 60v263
q0 34 -12 46t-26 12q-13 0 -37 -15t-61 -55l-7 -7v-243v-60q0 -21 5 -34q5 -12 12 -18t21 -9v-7h-182v7z" />
    <glyph glyph-name="i" unicode="i" horiz-adv-x="210" 
d="M104 530v-1q-26 0 -44 18t-18 44t18 44t44 18t44 -18t18 -43q0 -26 -18 -44t-44 -18zM14 6h-1q13 3 21 9q8 7 11 18q3 12 3 35v60v155v54q0 19 -3 30q-3 10 -11 13q-9 4 -21 5v7l147 85v-350v-60q0 -21 5 -34q5 -12 12 -18t21 -9v-7h-184v7z" />
    <glyph glyph-name="j" unicode="j" horiz-adv-x="209" 
d="M104 530v-1q-26 0 -44 18t-18 44t18 44t44 18t44 -18t18 -43q0 -26 -18 -44t-44 -18zM-29 -140l-1 -4q-20 0 -33 12t-13 32q0 18 11 27t24 9t24 -8q9 -7 18 -17q10 -12 15 -17q8 -8 15 -8q5 0 9 4q6 6 7 25q1 13 1 66v299v54q0 20 -3 30q-3 11 -11 14q-9 4 -21 5v7
l148 85v-392q0 -32 -4 -55q-5 -26 -15 -48q-11 -23 -28 -43q-18 -21 -46 -40q-31 -22 -53 -30q-20 -7 -44 -7z" />
    <glyph glyph-name="k" unicode="k" horiz-adv-x="431" 
d="M14 6h-1q11 4 19 9t11 17t3 35v60v470q0 37 -1 49q-2 20 -4 26q-3 8 -10 9q-8 2 -19 3v7l146 84v-649v-60q0 -21 5 -34t12 -17q7 -5 21 -9v-6h-182v6zM255 6l4 2q18 4 21 15t-12 39l-103 187v6l150 147q29 30 21 44t-30 17v6h109v-6q-12 -3 -19 -7t-19 -12
q-13 -10 -24 -19q-13 -12 -33 -30l-77 -75l150 -265q13 -24 23 -36q8 -10 18 -13v-6h-179v6z" />
    <glyph glyph-name="l" unicode="l" horiz-adv-x="211" 
d="M14 7l-1 -4q13 3 21 9t11 18t3 35v60v469v48q0 18 -3 27t-11 12q-6 2 -21 4v8l148 83v-648v-60q0 -21 5 -34q4 -12 12 -18t21 -9v-7h-185v7z" />
    <glyph glyph-name="m" unicode="m" horiz-adv-x="679" 
d="M14 7h-2q12 3 18 9t9 18t3 35v60v155v56q0 20 -3 30t-11 13q-9 4 -21 5v7l147 85v-85q35 39 66 61q30 21 71 21q36 0 62 -19q28 -20 35 -66q38 41 68 62t71 21q17 0 35 -6q19 -6 33 -19q15 -14 24 -36t9 -57v-231v-60q0 -22 3 -34t10 -18t21 -9v-7h-183v7q13 3 21 9
t12 18t6 35q1 15 1 60v263q0 35 -10 46q-11 12 -24 12t-36 -15t-57 -54v-3h2v-249v-60q0 -22 3 -34q3 -13 10 -18q7 -6 21 -9v-7h-183v7q13 3 21 9q8 7 11 18q4 15 5 35q1 15 1 60v263q0 34 -9 46t-23 12q-13 0 -36 -15q-21 -14 -57 -53v-253v-60q0 -21 5 -34q5 -12 12 -18
t21 -9v-7h-182v7z" />
    <glyph glyph-name="n" unicode="n" horiz-adv-x="463" 
d="M14 7h-5q11 3 19 9t11 18t3 35v60v155q0 43 -1 56q-2 22 -4 30q-3 10 -11 13q-9 4 -21 5v7l148 85v-100l11 11q40 42 72 63t72 21q16 0 36 -6q21 -6 35 -19q16 -14 26 -36q11 -24 11 -57v-231v-60q0 -22 3 -34t10 -18q8 -6 19 -9v-7h-184v7q14 3 21 9t12 18q4 12 6 35
q1 15 1 60v263q0 34 -12 46t-26 12t-36 -15q-24 -16 -60 -55l-11 -11v-239v-60q0 -21 5 -34q4 -12 12 -18t21 -9v-7h-183v7z" />
    <glyph glyph-name="o" unicode="o" horiz-adv-x="447" 
d="M224 -7l-2 -2q-28 0 -63 12q-34 12 -66 41q-30 27 -52 74q-21 45 -21 111q0 67 21 114q21 46 53 75q32 28 66 42q33 13 63 13t65 -13q36 -14 66 -42t51 -75t21 -114q0 -66 -21 -111q-21 -44 -51 -73q-29 -28 -66 -40q-36 -12 -64 -12zM222 0l-1 -2q19 0 35 11
q15 10 27 38q12 27 18 71t6 110q0 68 -6 113t-18 72t-27 39t-34 12q-18 0 -34 -12q-16 -11 -28 -39q-12 -27 -18 -72t-6 -113q0 -66 6 -110q6 -43 18 -70t28 -37q17 -11 34 -11z" />
    <glyph glyph-name="p" unicode="p" horiz-adv-x="467" 
d="M16 -159q11 3 19 9t11 18t3 35v60v321q0 43 -1 56q-2 22 -4 30q-3 10 -11 13q-9 4 -21 5v7l148 85v-79q30 36 54 56q26 21 62 21q25 0 55 -12q29 -12 55 -39t42 -70q17 -45 17 -106q0 -62 -16 -109q-17 -48 -45 -81q-29 -34 -67 -50q-40 -17 -86 -17q-20 0 -38 6t-32 17
v-55v-60q0 -22 3 -34t11 -18q7 -6 21 -9v-7h-180v7zM251 456l-1 -1q-19 0 -41 -17q-20 -15 -49 -51v-360q13 -10 32 -18q17 -7 39 -7q43 0 72 56q28 55 28 174q0 62 -6 104q-6 44 -16 69q-11 28 -25 39q-15 12 -33 12z" />
    <glyph glyph-name="q" unicode="q" horiz-adv-x="466" 
d="M274 -159v-3q11 3 19 9q8 7 11 18q3 12 3 35v60v105q-29 -35 -54 -54t-60 -19q-25 0 -56 11t-56 36t-42 69q-17 45 -17 108q0 62 19 109q19 48 50 80q30 31 69 48q40 17 79 17q30 0 51 -6q19 -5 36 -14q5 -3 14 -7.5l13 -6.5q12 -6 25 -6q26 0 33 30h8v-498v-60
q0 -22 3 -34t11 -18q7 -6 21 -9v-7h-180v7zM138 225l1 -5q0 -68 7 -107q8 -44 19 -66q12 -25 25 -33q14 -9 27 -9q21 0 43 17q22 18 50 51v292q0 35 -3 50q-3 16 -13 26q-8 7 -19 12q-12 6 -37 6q-23 0 -41 -12t-31 -40q-14 -29 -21 -73q-7 -42 -7 -109z" />
    <glyph glyph-name="r" unicode="r" horiz-adv-x="337" 
d="M14 7l5 -2q11 3 19 9t11 18t3 35v60v166q0 37 -1 49q-2 20 -4 27q-3 9 -11 12q-9 4 -21 5v7l148 85v-92l2 2q23 28 39 45q18 18 30 26q14 9 25 12q12 3 24 3q23 0 36 -12q14 -12 14 -34q0 -25 -13 -37t-31 -12q-15 0 -25 6t-18 15q-5 6 -14 15q-6 6 -15 6q-6 0 -9 -1
q-4 -1 -10 -6q-4 -3 -15 -14q-9 -9 -21 -24l-2 -2v-246v-60q0 -21 5 -34q5 -12 12 -18t21 -9v-7h-184v7z" />
    <glyph glyph-name="s" unicode="s" horiz-adv-x="331" 
d="M169 3l-2 -11q41 0 57 21q17 22 17 51q0 32 -22 60t-78 61q-28 16 -54 35q-22 16 -36 35q-13 18 -21 41q-7 21 -7 51q0 26 9 47t26 38q16 16 39 25t50 9q19 0 32 -3q18 -4 26 -7q5 -2 23 -7q10 -3 24 -3t18 16h8v-122h-8q-19 62 -51 91q-31 28 -69 28q-34 0 -51 -15
q-16 -15 -16 -42q0 -17 6 -29t18 -24q11 -11 32 -24q35 -22 45 -28q34 -19 59 -38q23 -17 39 -38q14 -18 22 -42q7 -21 7 -51q0 -32 -12 -57q-11 -24 -32 -43q-19 -18 -45 -27t-53 -9q-25 0 -43 6q-22 7 -32 13l-25 13q-11 6 -21 6q-7 0 -11 -4q-5 -4 -6 -12h-9v146h9
q21 -79 54 -118t84 -39z" />
    <glyph glyph-name="t" unicode="t" horiz-adv-x="264" 
d="M169 -8l-1 -4q-57 0 -87 30t-30 80v355h-41v9q22 3 44 15t42 33q21 22 35 51q16 32 23 69h9v-164h89v-10h-89v-340q0 -57 8 -83q7 -24 38 -24q15 0 26 6q9 5 18 14l5 -6l-10 -10q-5 -6 -16 -10q-12 -5 -26 -8q-15 -3 -37 -3z" />
    <glyph glyph-name="u" unicode="u" 
d="M153 -8l4 -4q-17 0 -36 6q-20 6 -36 19q-17 13 -27 36q-10 21 -10 55v188v49q0 18 -3 27t-11 12q-9 4 -21 5v7l148 85v-396q0 -36 12 -51t26 -15q29 0 93 69v209v49q0 18 -3 27t-11 12q-9 4 -21 5v7l147 85v-350v-60q0 -22 3 -34t9 -18t17 -9v-7h-142v74q-25 -25 -36 -35
q-15 -13 -33 -25q-15 -9 -33 -16q-17 -6 -36 -6z" />
    <glyph glyph-name="v" unicode="v" horiz-adv-x="386" 
d="M56 355l-1 -2q-11 36 -18 53q-7 20 -15 30q-8 11 -13 15q-7 5 -14 8v6h179v-6q-12 -1 -18 -6q-5 -4 -7 -15q-1 -10 3 -30t15 -51l74 -223l68 199q13 40 18 65t2 36q-3 13 -12 17q-11 5 -24 8v6h97v-6q-10 -3 -16 -7q-7 -4 -15 -17q-9 -14 -17 -36q-12 -32 -23 -65
l-116 -339h-22z" />
    <glyph glyph-name="w" unicode="w" horiz-adv-x="574" 
d="M55 355l-2 -3q-4 13 -10 31.5t-7 22.5q-5 15 -11 30q-5 10 -9 15q-4 4 -12 7v6h166v-6q-10 -1 -16 -6q-5 -4 -7 -15q-1 -11 3 -30t15 -51l72 -219l50 137l-25 79q-4 13 -10 31.5t-7 22.5q-6 19 -12 30q-7 12 -10 15q-4 4 -12 7v6h167v-6q-11 -2 -17 -6q-7 -5 -8 -15
q-1 -9 2 -30q3 -17 14 -51l66 -212l60 190q14 43 17 65q3 24 0 36q-3 13 -13 17q-11 5 -25 6v6h101v-6q-12 -3 -18 -7q-8 -5 -15 -16q-6 -10 -16 -36q-6 -16 -22 -64l-107 -341h-22l-83 265l-97 -265h-22z" />
    <glyph glyph-name="x" unicode="x" horiz-adv-x="396" 
d="M7 6v-6q12 5 22 12q8 5 18 17q11 13 20 28q4 6 12.5 22t14.5 25l58 96l-72 152q-16 34 -27 54t-18 30q-8 12 -13 14q-6 3 -15 6v6h183v-6q-11 -1 -18 -5q-6 -3 -6 -12t6 -26q9 -25 19 -47l40 -84l45 76q16 29 25 51q7 19 6 30t-9 15t-18 6v6h95v-6q-9 -4 -23 -11
q-9 -5 -18 -15q-8 -10 -19 -28t-30 -51l-49 -83l77 -162q11 -24 26 -52q11 -20 18 -30t14 -15q5 -4 15 -7v-6h-182v6q12 2 18 6t6 14q0 9 -6 27q-8 23 -19 47l-46 97l-54 -90q-16 -27 -22 -46t-5 -30q2 -12 9 -18q7 -5 18 -7v-6h-96v6z" />
    <glyph glyph-name="y" unicode="y" horiz-adv-x="397" 
d="M77 -171v3q-25 0 -39 12q-13 12 -13 29q0 19 11 27t24 8q14 0 21 -4l15 -9q10 -6 15 -8q7 -3 18 -3q6 0 12 3q7 3 14 12q7 8 15 26q8 17 18 42l8 23l-141 368q-9 24 -20 51q-10 23 -13 29q-6 10 -12 15q-5 4 -13 7v6h179v-6q-10 -2 -18 -6t-9 -15q-2 -11 3 -29
q3 -13 17 -49l81 -219l69 195q14 41 18 64q5 25 2 36q-3 13 -12 17t-23 6v6h95v-6q-11 -3 -16 -7q-6 -5 -14 -17q-6 -10 -16 -36q-15 -40 -23 -64l-132 -371q-27 -73 -54 -105q-27 -31 -67 -31z" />
    <glyph glyph-name="z" unicode="z" horiz-adv-x="367" 
d="M334 -10l1 1q-7 4 -15 5t-23 3q-18 2 -36 2h-55h-195l221 458h-43q-44 0 -69 -7q-26 -7 -43 -21t-26 -33q-10 -22 -18 -43h-8l22 122q17 -7 45 -9q19 -1 84 -1h174l-224 -458h58q41 0 70 8q25 7 43 23q16 15 27 38q10 22 21 51h8z" />
    <glyph glyph-name="braceleft" unicode="{" horiz-adv-x="254" 
d="M240 -106l-4 -7q-85 0 -134 32q-48 31 -48 93q0 30 9 62t21 63q13 33 21 61q9 30 9 58q0 18 -1 27q-1 12 -11 25q-8 11 -30 19t-58 8v8q37 0 59 8t30 19q10 13 11 25q2 18 2 27q0 28 -9 58q-8 28 -21 61q-12 31 -21 63t-9 62q0 62 48 93q49 32 135 32v-8q-49 0 -68 -24
q-20 -25 -20 -78q0 -24 5 -56q2 -14 11 -58t11 -58q5 -32 5 -55q0 -20 -9 -40q-9 -19 -25 -34q-16 -14 -40 -25q-23 -10 -55 -13q32 -3 55 -13q24 -11 40 -25q16 -15 25 -34t9 -40q0 -24 -5 -56q-3 -19 -11 -57t-11 -57q-5 -32 -5 -56q0 -54 21 -78t68 -24v-8z" />
    <glyph glyph-name="bar" unicode="|" horiz-adv-x="244" 
d="M129 820v-926h-15v926h15z" />
    <glyph glyph-name="braceright" unicode="}" horiz-adv-x="254" 
d="M15 -98l-4 -3q46 0 67 24t21 78q0 24 -5 56q-3 19 -11 57t-11 57q-5 32 -5 56q0 21 9 40q10 21 25 35q17 16 41 26q23 10 54 13q-31 3 -54 13q-22 10 -40 26q-15 14 -25 35q-9 19 -9 40q0 24 5 56q2 14 11 58q8 40 11 59q5 32 5 56q0 53 -20 78q-20 24 -66 24v8
q85 0 134 -32q48 -32 48 -93q0 -29 -9 -61t-21 -63q-13 -33 -21 -61q-9 -30 -9 -58q0 -9 2 -27q1 -13 12 -25q10 -11 30 -19q18 -7 57 -7v-8q-39 0 -57 -7q-20 -8 -30 -19q-11 -12 -12 -25q-1 -9 -1 -27q0 -28 9 -58q8 -28 21 -61q12 -31 21 -63q9 -31 9 -61q0 -61 -48 -93
q-49 -32 -134 -32v8z" />
    <glyph glyph-name="asciitilde" unicode="~" horiz-adv-x="310" 
d="M102 416q32 0 63 -6t57 -6q11 0 24 8t26 33l7 -3q-14 -50 -31 -76q-18 -27 -40 -27q-30 0 -61 6t-60 6q-13 0 -23 -7q-10 -8 -27 -33l-7 2q33 103 72 103z" />
    <glyph glyph-name="uni00A0" unicode="&#xa0;" horiz-adv-x="167" 
 />
    <glyph glyph-name="exclamdown" unicode="&#xa1;" horiz-adv-x="222" 
d="M106 248h10q8 -117 19 -190q14 -90 22 -132q11 -54 18 -87q7 -31 7 -56q0 -37 -18 -57t-53 -20t-53 20t-18 57q0 25 7 56q7 33 18 87q8 42 22 132q11 73 19 190zM111 475h1q29 0 47 -19q18 -20 18 -48q0 -29 -18 -47t-47 -18q-28 0 -48 18t-20 47t19 48t48 19z" />
    <glyph glyph-name="cent" unicode="&#xa2;" horiz-adv-x="379" 
d="M233 -86l-15 -3v80q-39 3 -76 20q-35 16 -63 47q-27 30 -42 73t-15 99q0 58 18 103q18 44 47 75t63 47q34 17 69 18v81h13v-81q57 -2 93 -19q38 -18 38 -52q0 -16 -11 -27q-10 -10 -27 -10q-25 0 -37 13q-11 13 -19 42q-5 25 -12 35q-8 11 -24 11v-457q3 -1 15 -1
q40 0 69 15q28 15 45 35l6 -6q-17 -22 -51 -40q-33 -18 -84 -18v-80zM136 245q0 -107 21 -164q21 -58 61 -71v452q-37 -4 -60 -59q-22 -53 -22 -158z" />
    <glyph glyph-name="sterling" unicode="&#xa3;" horiz-adv-x="433" 
d="M58 49l-6 -2q20 24 29 36q13 17 20 35t12 39q4 19 4 48q0 36 -11 77h-97v11h94q-3 11 -11 33t-13 33h-69v11h65q-17 42 -30 84q-13 40 -13 88q0 52 20 92q19 38 50 66q29 26 66 40q35 13 71 13q33 0 63 -8q29 -8 50 -21t33 -35q12 -21 12 -46q0 -23 -12 -36t-33 -13
q-49 0 -55 48q-3 24 -3 43q0 21 -4 33q-4 14 -15 21q-11 8 -35 8q-26 0 -42 -12t-25 -34q-9 -23 -12 -52q-3 -30 -3 -67q0 -58 12 -111q4 -16 11.5 -49.5t11.5 -49.5h143v-11h-141q2 -9 7 -35q2 -11 4 -33h130v-11h-129v-7q0 -33 -9 -60q-8 -25 -23 -48q-14 -22 -28 -36
q-5 -5 -14 -13.5t-12 -11.5h139q55 0 74 1q28 1 46 6q19 5 27 13q9 9 15 24h8l-29 -112q-6 -23 -12 -31q-6 -7 -23 -7h-349z" />
    <glyph glyph-name="yen" unicode="&#xa5;" horiz-adv-x="460" 
d="M131 7l-3 -2q16 4 25 12q9 7 13 28t6 60q1 26 1 107v109h-137v11h137v70h-137v10h134l-103 214q-12 26 -21 45t-18 33q-10 15 -18 23q-11 11 -22 17v6h201v-6q-22 -6 -25 -21q-3 -14 14 -52l114 -245l71 190q12 32 21 59q8 23 6 36q-2 14 -10 21t-27 13v6h100v-6
q-9 -4 -18 -11q-7 -6 -16 -19q-8 -12 -19 -37q-8 -19 -25 -64l-75 -201h137v-10h-137v-70h137v-11h-137v-109q0 -80 1 -106q1 -39 6 -60q4 -21 13 -28q9 -8 25 -12v-7h-214v7z" />
    <glyph glyph-name="brokenbar" unicode="&#xa6;" horiz-adv-x="244" 
d="M129 820v-380h-15v380h15zM129 -106h-15v380h15v-380z" />
    <glyph glyph-name="section" unicode="&#xa7;" horiz-adv-x="458" 
d="M205 -145h-6q46 0 67 27t21 74q0 28 -9 54q-9 27 -28 51q-21 27 -51 56q-55 52 -75 71q-30 28 -51 51q-20 21 -34 45q-13 21 -19 45q-6 23 -6 51q0 27 8 53q8 24 21 42q14 19 30 32q17 13 36 24q-18 36 -18 82q0 38 12 68q12 31 33 50q21 20 49 30q30 11 60 11
q35 0 62 -9q29 -10 47 -22q20 -14 30 -31q11 -19 11 -36q0 -16 -9 -27q-9 -10 -28 -10q-38 0 -48 45q-3 11 -7 31q-3 16 -9 26t-17 18q-10 7 -30 7q-37 0 -60 -23t-23 -62q0 -24 6 -42q6 -19 21 -38q15 -20 41 -44q8 -7 17.5 -16t24 -22.5t23.5 -21.5q43 -39 66 -64
q25 -27 43 -54q17 -26 24 -49q7 -22 7 -54q0 -53 -25 -91t-63 -70q9 -20 12 -37q3 -18 3 -41q0 -41 -12 -75t-33 -60t-51 -39q-31 -14 -66 -14q-34 0 -66 9q-29 8 -55 26q-25 17 -38 39q-14 23 -14 48q0 18 12 30t31 12q25 0 35 -13q11 -14 14 -33l8 -48q3 -20 12 -34
q9 -13 24 -21q14 -7 40 -7zM209 271v-3q50 -48 85 -87q32 -35 48 -64q15 18 20 34q6 18 6 41q0 28 -10 51q-10 24 -30 48t-48 51q-19 18 -66 65q-43 43 -60 61q-25 26 -40 55q-15 -11 -23 -28q-9 -18 -9 -45q0 -24 7 -41q8 -18 22 -37q13 -17 39 -43q7 -7 27 -26.5t32 -31.5
z" />
    <glyph glyph-name="dieresis" unicode="&#xa8;" 
d="M302 531v-2q-25 0 -42 17q-16 16 -16 42q0 23 16 39q17 17 42 17q24 0 40 -16t16 -39q0 -26 -16 -42t-40 -16zM144 529v-2q-23 0 -40 17q-16 16 -16 42q0 23 16 39q17 17 40 17q26 0 42 -16t16 -39q0 -26 -16 -42t-42 -16z" />
    <glyph glyph-name="copyright" unicode="&#xa9;" horiz-adv-x="682" 
d="M342 758l-1 -1q64 0 120 -28q58 -29 99 -79q43 -52 68 -121t25 -156t-25 -156q-26 -71 -67 -121t-99 -79q-56 -28 -120 -28q-65 0 -121 28q-57 28 -100 79q-44 51 -69 121q-25 69 -25 156t25 156q26 71 69 122t100 79q56 28 121 28zM341 -4l-2 -4q61 0 117 27t98 77
q42 49 66 119q24 69 24 155t-24 155q-24 70 -66 119q-43 51 -97 77q-55 27 -117 27t-117 -27t-97 -76t-66 -119q-24 -69 -24 -154t24 -154q24 -70 66 -119q41 -48 98 -76q56 -27 117 -27zM359 143l-5 -2q-34 0 -68 14q-32 13 -58 42q-25 28 -40 72q-15 43 -15 102
q0 61 16 102q17 42 42 69t57 39t62 12q16 0 28 -3t21 -6q12 -4 17 -6q8 -3 15 -3q15 0 20 17h6v-107h-6q-16 56 -42 79q-25 22 -57 22q-18 0 -33 -12t-27 -37q-12 -26 -18 -64q-6 -39 -6 -95q0 -60 8 -105q8 -43 21 -68t33 -36t43 -11q32 0 54 13q23 13 36 30l5 -5
q-13 -17 -39 -35q-27 -18 -70 -18z" />
    <glyph glyph-name="ordfeminine" unicode="&#xaa;" horiz-adv-x="321" 
d="M101 391l-1 3q-38 0 -60 21q-23 21 -23 59q0 26 12 43t30 27q17 10 41 18t44 18l6 2q6 3 16 9q7 4 12 11t8 15q3 9 3 23v61q0 31 -12 42q-11 10 -29 10q-16 0 -25 -9t-18 -31q-5 -13 -12 -24q-7 -10 -24 -10q-16 0 -25 9t-9 20q0 21 30 36t81 15q28 0 49 -4q24 -5 42 -15
q19 -11 29 -30q11 -20 11 -48v-166q0 -34 1 -46q2 -20 4 -27q3 -9 7 -12t11 -3q10 0 18 6l2 -5q-4 -4 -18 -10t-42 -6q-59 0 -69 43q-19 -21 -39 -33t-51 -12zM107 490h-2q0 -75 34 -75q17 0 47 31v158q-4 -10 -13 -16q-7 -5 -22 -13l-6 -2q-23 -14 -30 -31q-8 -19 -8 -52z
" />
    <glyph glyph-name="guillemotleft" unicode="&#xab;" horiz-adv-x="341" 
d="M161 226v8l149 162l6 -4l-69 -162l70 -162l-6 -4zM25 226v8l150 162l6 -4l-70 -162l71 -162l-6 -4z" />
    <glyph glyph-name="registered" unicode="&#xae;" horiz-adv-x="430" 
d="M216 759l-2 -3q41 0 74 -16q35 -17 60 -46q27 -31 41 -70q15 -40 15 -87t-15 -87q-14 -39 -41 -70q-25 -29 -60 -46q-36 -17 -73 -17q-38 0 -74 17q-34 16 -61 46t-42 70t-15 89q0 47 15 87t42 70q26 29 62 46t74 17zM214 324l-2 -2q37 0 69 16t58 45q25 28 40 67t15 85
t-15 85t-40 67q-26 29 -58 45t-69 16q-38 0 -70 -16t-58 -45q-25 -28 -40 -67t-15 -85t15 -85q14 -37 41 -67q26 -29 59 -44t70 -15zM132 428q6 2 8 4t4 9q2 8 2 18v33v103v33q0 10 -2 18q-2 7 -4 8q-4 2 -7 3v4h75q90 0 90 -57q0 -30 -23 -45q-23 -16 -56 -17q23 -2 36 -13
q14 -13 20 -43q5 -28 11 -43q4 -12 12 -12q4 0 8 2t5 3l2 -3q-1 -2 -9 -7q-7 -4 -21 -4q-23 0 -36 12t-18 47q-3 21 -6 34q-3 12 -6 18q-3 7 -7 8q-6 2 -12 2h-7v-51v-33q0 -10 2 -18q2 -7 4 -9t8 -4v-3h-73v3zM192 656l-1 -109h16q25 0 36 15q11 16 11 41q0 28 -11 41
q-11 12 -39 12h-12z" />
    <glyph glyph-name="macron" unicode="&#xaf;" 
d="M322 608v-47h-194v47h194z" />
    <glyph glyph-name="degree" unicode="&#xb0;" horiz-adv-x="227" 
d="M113 758q36 0 61 -25t25 -63t-25 -63t-61 -25t-60 26t-24 62q0 38 24 63t60 25zM40 671v-2q0 -31 21 -54q21 -22 52 -22q32 0 53 23q21 22 21 54t-21 54q-21 23 -53 23q-31 0 -52 -22q-21 -23 -21 -54z" />
    <glyph glyph-name="twosuperior" unicode="&#xb2;" horiz-adv-x="337" 
d="M170 527l-2 2h54q20 0 30 3q11 3 15 7q5 5 8 12h6l-17 -70q-2 -9 -3 -12t-6 -3h-215l82 105q40 50 57 92t17 87q0 83 -48 83q-13 0 -18 -4q-6 -5 -9 -12t-3 -17q0 -12 -1 -19q-1 -13 -9 -22t-24 -9q-13 0 -21 8t-8 21q0 23 25 42t70 19q22 0 41 -4q21 -4 39 -15
q19 -11 30 -28q12 -18 12 -46q0 -46 -33 -88t-87 -90l-53 -42h71z" />
    <glyph glyph-name="threesuperior" unicode="&#xb3;" horiz-adv-x="319" 
d="M80 821l-3 -4q3 12 4 13q1 3 6 3h188v-4l-142 -144q6 4 18 7q11 3 21 3q48 0 79 -25t31 -87q0 -57 -36 -90t-99 -33q-46 0 -71 19q-26 20 -26 42q0 10 8 20q8 9 24 9q28 0 31 -28q1 -6 1 -18q0 -10 3 -17t9 -13t20 -6q32 0 47 30t15 86q0 52 -7 77q-7 27 -33 27
q-20 0 -35 -9q-17 -10 -27 -19l-5 4l110 110h-66q-30 0 -39 -1q-15 -2 -21 -4q-9 -3 -11 -7q-1 -2 -3.5 -6t-3.5 -6h-6z" />
    <glyph glyph-name="acute" unicode="&#xb4;" 
d="M152 522l73 126q13 22 26 33t30 11q19 0 30 -11t11 -27q0 -20 -10 -33t-27 -24l-127 -79z" />
    <glyph glyph-name="paragraph" unicode="&#xb6;" horiz-adv-x="480" 
d="M232 378l-4 2q-46 0 -84 13q-41 14 -68 37q-28 24 -45 59q-16 33 -16 80q0 45 17 81q16 34 45 57t68 35t86 12h231v-7q-15 -5 -24 -12t-13 -28q-5 -21 -6 -60q-1 -26 -1 -108v-334q0 -82 -14 -141q-14 -57 -40 -91q-27 -34 -64 -49q-38 -15 -84 -15q-47 0 -72 17
q-24 16 -24 41q0 17 12 27q13 11 30 11q20 0 33 -12t24 -27q12 -17 22 -27q12 -12 29 -12q13 0 25 9q11 8 22 33q10 22 16 66q6 42 6 108v597h-75v-362h-32z" />
    <glyph glyph-name="periodcentered" unicode="&#xb7;" horiz-adv-x="210" 
d="M104 228q-29 0 -48 19t-19 48t19 47q20 18 48 18q29 0 47 -18t18 -47t-18 -48t-47 -19z" />
    <glyph glyph-name="cedilla" unicode="&#xb8;" 
d="M244 0l-22 -44q37 -4 63 -23q26 -18 26 -47q0 -74 -159 -76l-1 7q39 8 64 19q27 12 27 29q0 15 -17 24q-18 10 -42 11l-3 4l53 96h11z" />
    <glyph glyph-name="onesuperior" unicode="&#xb9;" horiz-adv-x="235" 
d="M57 465v6q10 1 17 5q6 3 9 13q2 8 4 30q1 13 1 52v143q0 36 -5 48q-5 10 -27 9v6l105 68v-274v-52q0 -19 3 -30q3 -10 9 -13q7 -4 17 -5v-6h-133z" />
    <glyph glyph-name="ordmasculine" unicode="&#xba;" horiz-adv-x="347" 
d="M174 387l-5 -2q-22 0 -49 9t-51 30t-41 56q-16 33 -16 86q0 51 17 88q17 36 41 59t51 33q26 10 50 10t50 -10q27 -10 51 -33q25 -24 41 -58q17 -37 17 -88q0 -52 -16 -85q-17 -36 -40 -56q-24 -21 -51 -30t-49 -9zM169 393q12 0 25 8q12 7 21 27q10 21 14 53q5 37 5 84
q0 49 -5 87q-4 34 -14 56q-9 21 -21 30t-25 9q-14 0 -26 -9t-21 -30q-10 -22 -14 -56q-5 -38 -5 -87q0 -47 5 -84q4 -32 14 -53q9 -20 21 -27q13 -8 26 -8z" />
    <glyph glyph-name="guillemotright" unicode="&#xbb;" horiz-adv-x="341" 
d="M25 68l70 162l-69 162l6 4l149 -162v-8l-150 -162zM160 68l71 162l-70 162l6 4l150 -162v-8l-151 -162z" />
    <glyph glyph-name="onequarter" unicode="&#xbc;" horiz-adv-x="447" 
d="M301 -6l-3 -1q0 -30 1 -39q2 -15 4 -21q3 -7 7 -10q3 -2 12 -4v-6h-117v6q9 2 12 4q4 2 7 11q2 6 4 21q1 9 1 39h-148v4l199 289h21v-242h58l-22 -51h-36zM226 44v153l-105 -153h105zM49 378h343v-8h-343v8zM155 464v6q10 1 17 5q6 3 9 13q2 8 4 30q1 13 1 52v143
q0 36 -5 48q-5 11 -27 9v6l105 68v-274v-52q0 -20 3 -30t9 -13q7 -4 17 -5v-6h-133z" />
    <glyph glyph-name="onehalf" unicode="&#xbd;" horiz-adv-x="447" 
d="M52 379h343v-8h-343v8zM158 465v6q10 1 17 5q6 3 9 13q2 8 4 30q1 13 1 52v143q0 36 -5 48q-4 10 -27 9v6l105 68v-274v-52q0 -19 3 -30q3 -10 9 -13q7 -4 17 -5v-6h-133zM233 -25l-2 2h54q19 0 30 3t15 7q5 5 8 12h6l-17 -70q-1 -9 -3 -12t-6 -3h-215l82 105
q40 50 57 92t17 87q0 83 -48 83q-13 0 -18 -4q-6 -5 -9 -12t-3 -17q0 -12 -1 -19q-1 -13 -9 -22q-7 -9 -24 -9q-13 0 -21 8t-8 21q0 23 25 42t70 19q22 0 41 -4q21 -4 39 -15q19 -11 30 -28q12 -18 12 -46q0 -46 -33 -88t-87 -90l-53 -42h71z" />
    <glyph glyph-name="threequarters" unicode="&#xbe;" horiz-adv-x="447" 
d="M301 -6l-3 -1q0 -30 1 -39q2 -15 4 -21q3 -7 7 -10q3 -2 12 -4v-6h-117v6q9 2 12 4q4 2 7 11q2 6 4 21q1 9 1 39h-148v4l199 289h21v-242h58l-22 -51h-36zM226 44v153l-105 -153h105zM49 378h343v-8h-343v8zM132 820l-3 -4q3 12 4 13q1 3 6 3h188v-4l-142 -144q6 4 18 7
q11 3 21 3q48 0 79 -25t31 -87q0 -57 -36 -90t-99 -33q-46 0 -71 19q-26 20 -26 42q0 10 8 20q8 9 24 9q28 0 31 -28q1 -6 1 -18q0 -9 3 -17q3 -7 9 -13t20 -6q32 0 47 30t15 86q0 52 -7 77q-7 27 -33 27q-20 0 -35 -9q-17 -10 -27 -19l-5 4l110 110h-66q-30 0 -39 -1
q-15 -2 -21 -4q-9 -3 -11 -7q-1 -2 -3.5 -6t-3.5 -6h-6z" />
    <glyph glyph-name="questiondown" unicode="&#xbf;" horiz-adv-x="371" 
d="M246 259l4 -2q2 -73 -15 -129t-36 -102q-21 -50 -36 -91q-16 -44 -16 -99q0 -69 15 -99t56 -30q21 0 27 13q5 12 10 37t15 45q10 19 40 18q20 0 33 -13t13 -30q-2 -32 -37 -54q-37 -23 -103 -23q-88 0 -139 42t-51 114q0 40 15 72q14 30 38 60q20 25 50 57q27 29 51 60
q23 30 40 69q17 38 18 85h8zM233 473q29 0 48 -19t19 -48t-19 -47t-48 -18t-48 18t-19 47t19 48t48 19z" />
    <glyph glyph-name="Agrave" unicode="&#xc0;" horiz-adv-x="550" 
d="M4 6l-3 -1q10 5 17 12q8 7 15 21q5 10 16 38q11 29 20 63l138 497l-14 45q-10 37 -21 49q-10 11 -27 16v6h146q8 0 11 -3t6 -12l178 -609q16 -56 27 -84t33 -36v-7h-188v7q20 5 23 21q3 17 -9 57l-42 141h-225l-24 -89q-9 -32 -12 -54t0 -37q3 -14 14 -25q10 -10 30 -16
v-6h-109v6zM325 234l-114 382l-105 -382h219zM178 803v-2q-32 7 -45 21q-13 13 -13 33q0 13 11 26q10 12 29 12q26 0 51 -19l116 -90l-3 -6z" />
    <glyph glyph-name="Aacute" unicode="&#xc1;" horiz-adv-x="550" 
d="M4 6l-3 -1q10 5 17 12q8 7 15 21q5 10 16 38q11 29 20 63l138 497l-14 45q-10 37 -21 49q-10 11 -27 16v6h146q8 0 11 -3t6 -12l178 -609q16 -56 27 -84t33 -36v-7h-188v7q20 5 23 21q3 17 -9 57l-42 141h-225l-24 -89q-9 -32 -12 -54t0 -37q3 -14 14 -25q10 -10 30 -16
v-6h-109v6zM325 234l-114 382l-105 -382h219zM148 785l115 91q25 19 51 19q18 0 28 -12q10 -11 10 -25q0 -20 -12 -33q-12 -14 -43 -21l-147 -25z" />
    <glyph glyph-name="Acircumflex" unicode="&#xc2;" horiz-adv-x="550" 
d="M4 6l-3 -1q10 5 17 12q8 7 15 21q5 10 16 38q11 29 20 63l138 497l-14 45q-10 37 -21 49q-10 11 -27 16v6h146q8 0 11 -3t6 -12l178 -609q16 -56 27 -84t33 -36v-7h-188v7q20 5 23 21q3 17 -9 57l-42 141h-225l-24 -89q-9 -32 -12 -54t0 -37q3 -14 14 -25q10 -10 30 -16
v-6h-109v6zM325 234l-114 382l-105 -382h219zM236 902l127 -119l-3 -6l-124 39l-124 -39l-3 6z" />
    <glyph glyph-name="Atilde" unicode="&#xc3;" horiz-adv-x="550" 
d="M4 6l-3 -1q10 5 17 12q8 7 15 21q5 10 16 38q11 29 20 63l138 497l-14 45q-10 37 -21 49q-10 11 -27 16v6h146q8 0 11 -3t6 -12l178 -609q16 -56 27 -84t33 -36v-7h-188v7q20 5 23 21q3 17 -9 57l-42 141h-225l-24 -89q-9 -32 -12 -54t0 -37q3 -14 14 -25q10 -10 30 -16
v-6h-109v6zM325 234l-114 382l-105 -382h219zM197 870l1 -1q21 0 53 -2t44 -2q24 0 54 40l7 -2q-10 -48 -29 -76q-18 -27 -42 -27q-18 0 -48 2t-48 2q-11 0 -24 -8t-26 -30l-7 2q14 54 30 78t35 24z" />
    <glyph glyph-name="Adieresis" unicode="&#xc4;" horiz-adv-x="550" 
d="M4 6l-3 -1q10 5 17 12q8 7 15 21q5 10 16 38q11 29 20 63l138 497l-14 45q-10 37 -21 49q-10 11 -27 16v6h146q8 0 11 -3t6 -12l178 -609q16 -56 27 -84t33 -36v-7h-188v7q20 5 23 21q3 17 -9 57l-42 141h-225l-24 -89q-9 -32 -12 -54t0 -37q3 -14 14 -25q10 -10 30 -16
v-6h-109v6zM325 234l-114 382l-105 -382h219zM316 784l-2 -2q-23 0 -40 17q-16 16 -16 42q0 23 16 39q17 17 40 17q25 0 41 -16q17 -17 17 -39q0 -26 -16 -42t-40 -16zM154 782l-4 -2q-23 0 -40 17q-16 16 -16 42q0 22 17 39t41 17q25 0 41 -16q17 -17 17 -39q0 -26 -16 -42
t-40 -16z" />
    <glyph glyph-name="Aring" unicode="&#xc5;" horiz-adv-x="550" 
d="M4 6l-3 -1q10 5 17 12q8 7 15 21q5 10 16 38q11 29 20 63l138 497l-14 45q-10 37 -21 49q-10 11 -27 16v6h146q8 0 11 -3t6 -12l178 -609q16 -56 27 -84t33 -36v-7h-188v7q20 5 23 21q3 17 -9 57l-42 141h-225l-24 -89q-9 -32 -12 -54t0 -37q3 -14 14 -25q10 -10 30 -16
v-6h-109v6zM325 234l-114 382l-105 -382h219zM151 849l-2 1q0 32 24 53t61 21q38 0 60 -21q23 -21 23 -53q0 -33 -23 -54q-22 -21 -60 -21q-37 0 -60 20t-23 54zM195 850h-1q0 -65 38 -65q39 0 39 65q0 32 -10 48q-11 17 -28 17t-28 -17q-10 -16 -10 -48z" />
    <glyph glyph-name="AE" unicode="&#xc6;" horiz-adv-x="762" 
d="M589 327l-2 -3q-6 22 -9 32q-4 15 -15 27t-30 18t-54 6h-12v-401h61q47 0 85 5q34 4 58 18q24 13 39 38q16 25 26 65h9l-12 -117q-1 -13 -6 -15q-6 -2 -12 -2h-416v7q15 5 24 12q10 8 14 28q4 21 6 59q1 25 1 105v22h-210l-46 -107q-23 -56 -24 -82q-1 -27 27 -37v-6h-94
v6q10 5 17 12q8 8 17 20q11 14 20 33q16 32 26 54l239 555q14 35 8 46q-6 13 -36 17v7h400q8 0 11 -3t6 -18l18 -101h-9q-12 35 -27 56q-16 22 -37 35q-22 14 -54 18q-35 5 -77 5h-50v-322h12q35 0 54 6t30 18t15 27q3 10 9 32h7v-175h-7zM341 237v480l-207 -480h207z" />
    <glyph glyph-name="Ccedilla" unicode="&#xc7;" horiz-adv-x="530" 
d="M326 -11l4 -1q-56 0 -111 23q-53 22 -96 71q-42 48 -66 121t-24 174q0 103 26 176t66 119q40 45 92 67q51 21 101 21q25 0 47 -5q18 -4 35 -11q20 -8 29 -11q15 -5 27 -5q26 0 33 28h9v-173h-9q-14 47 -31 79q-18 33 -40 52q-23 20 -48 29t-52 9q-33 0 -59 -19
q-27 -19 -48 -63t-33 -112q-12 -69 -12 -166q0 -107 14 -183q13 -73 39 -118q25 -44 60 -64q34 -19 76 -19q49 0 87 23t60 51l6 -7q-12 -15 -27 -29q-17 -15 -39 -27t-51 -21t-65 -9zM272 -1l-22 -44q37 -4 63 -23q26 -18 26 -47q0 -75 -159 -76l-1 7q39 8 64 19
q27 12 27 29q0 15 -17 24q-18 10 -42 11l-3 4l53 96h11z" />
    <glyph glyph-name="Egrave" unicode="&#xc8;" horiz-adv-x="495" 
d="M17 7l-4 -4q16 4 25 12q9 7 13 28t6 59q1 25 1 105v330q0 80 -1 106q-1 39 -6 60t-13 27q-11 7 -25 11v7h404q8 0 11 -3t6 -18l18 -101h-9q-12 35 -27 56q-16 22 -37 35q-23 14 -55 18q-37 5 -79 5h-60v-322h20q35 0 56 6q22 6 32 18q11 12 15 27q3 10 9 32h7v-175h-7
q-6 22 -9 32q-4 15 -15 27t-31 18q-21 6 -55 6h-20v-401h71q49 0 87 5q35 5 59 18t39 38q16 25 26 65h9l-12 -117q-2 -13 -6 -15q-6 -2 -12 -2h-431v7zM187 800v-2q-31 8 -45 21q-13 13 -13 33q0 13 11 26q10 12 29 12q26 0 51 -19l116 -90l-3 -6z" />
    <glyph glyph-name="Eacute" unicode="&#xc9;" horiz-adv-x="495" 
d="M17 7l-4 -4q16 4 25 12q9 7 13 28t6 59q1 25 1 105v330q0 80 -1 106q-1 39 -6 60t-13 27q-11 7 -25 11v7h404q8 0 11 -3t6 -18l18 -101h-9q-12 35 -27 56q-16 22 -37 35q-23 14 -55 18q-37 5 -79 5h-60v-322h20q35 0 56 6q22 6 32 18q11 12 15 27q3 10 9 32h7v-175h-7
q-6 22 -9 32q-4 15 -15 27t-31 18q-21 6 -55 6h-20v-401h71q49 0 87 5q35 5 59 18t39 38q16 25 26 65h9l-12 -117q-2 -13 -6 -15q-6 -2 -12 -2h-431v7zM154 781l115 91q25 19 51 19q18 0 28 -12q10 -11 10 -25q0 -20 -12 -33q-12 -14 -43 -21l-147 -25z" />
    <glyph glyph-name="Ecircumflex" unicode="&#xca;" horiz-adv-x="495" 
d="M17 7l-4 -4q16 4 25 12q9 7 13 28t6 59q1 25 1 105v330q0 80 -1 106q-1 39 -6 60t-13 27q-11 7 -25 11v7h404q8 0 11 -3t6 -18l18 -101h-9q-12 35 -27 56q-16 22 -37 35q-23 14 -55 18q-37 5 -79 5h-60v-322h20q35 0 56 6q22 6 32 18q11 12 15 27q3 10 9 32h7v-175h-7
q-6 22 -9 32q-4 15 -15 27t-31 18q-21 6 -55 6h-20v-401h71q49 0 87 5q35 5 59 18t39 38q16 25 26 65h9l-12 -117q-2 -13 -6 -15q-6 -2 -12 -2h-431v7zM242 899l127 -119l-3 -6l-124 39l-124 -39l-3 6z" />
    <glyph glyph-name="Edieresis" unicode="&#xcb;" horiz-adv-x="495" 
d="M17 7l-4 -4q16 4 25 12q9 7 13 28t6 59q1 25 1 105v330q0 80 -1 106q-1 39 -6 60t-13 27q-11 7 -25 11v7h404q8 0 11 -3t6 -18l18 -101h-9q-12 35 -27 56q-16 22 -37 35q-23 14 -55 18q-37 5 -79 5h-60v-322h20q35 0 56 6q22 6 32 18q11 12 15 27q3 10 9 32h7v-175h-7
q-6 22 -9 32q-4 15 -15 27t-31 18q-21 6 -55 6h-20v-401h71q49 0 87 5q35 5 59 18t39 38q16 25 26 65h9l-12 -117q-2 -13 -6 -15q-6 -2 -12 -2h-431v7zM322 781l-2 -2q-23 0 -40 17q-16 16 -16 42q0 23 16 39q17 17 40 17q25 0 41 -16q17 -17 17 -39q0 -26 -16 -42t-40 -16z
M160 779l-4 -2q-23 0 -40 17q-16 16 -16 42q0 22 17 39t41 17q25 0 41 -16q17 -17 17 -39q0 -26 -16 -42t-40 -16z" />
    <glyph glyph-name="Igrave" unicode="&#xcc;" horiz-adv-x="248" 
d="M17 7v-1q16 4 25 12q9 7 13 28t6 59q1 25 1 105v330q0 80 -1 106q-2 40 -6 59q-5 20 -13 27q-9 8 -25 12v7h214v-7q-16 -4 -25 -12q-8 -7 -13 -27q-4 -19 -6 -59q-1 -26 -1 -106v-330q0 -80 1 -105q1 -37 6 -58q4 -21 13 -28q9 -8 25 -12v-7h-214v7zM67 803v-2
q-31 7 -45 21q-13 13 -13 33q0 13 11 26q11 12 29 12q26 0 51 -19l116 -90l-3 -6z" />
    <glyph glyph-name="Iacute" unicode="&#xcd;" horiz-adv-x="248" 
d="M17 7v-1q16 4 25 12q9 7 13 28t6 59q1 25 1 105v330q0 80 -1 106q-2 40 -6 59q-5 20 -13 27q-9 8 -25 12v7h214v-7q-16 -4 -25 -12q-8 -7 -13 -27q-4 -19 -6 -59q-1 -26 -1 -106v-330q0 -80 1 -105q1 -37 6 -58q4 -21 13 -28q9 -8 25 -12v-7h-214v7zM34 784l115 91
q25 19 51 19q18 0 28 -12q10 -11 10 -25q0 -19 -12 -33t-43 -21l-147 -25z" />
    <glyph glyph-name="Icircumflex" unicode="&#xce;" horiz-adv-x="248" 
d="M17 7v-1q16 4 25 12q9 7 13 28t6 59q1 25 1 105v330q0 80 -1 106q-2 40 -6 59q-5 20 -13 27q-9 8 -25 12v7h214v-7q-16 -4 -25 -12q-8 -7 -13 -27q-4 -19 -6 -59q-1 -26 -1 -106v-330q0 -80 1 -105q1 -37 6 -58q4 -21 13 -28q9 -8 25 -12v-7h-214v7zM124 902l127 -119
l-3 -6l-124 39l-124 -39l-3 6z" />
    <glyph glyph-name="Idieresis" unicode="&#xcf;" horiz-adv-x="248" 
d="M198 785l-2 -2q-23 0 -40 17q-16 16 -16 42q0 22 17 39t41 17t40 -16t16 -39q0 -26 -16 -42t-40 -16zM48 783l-4 -2q-23 0 -40 17q-16 16 -16 42q0 22 17 39t41 17q25 0 41 -16q17 -17 17 -39q0 -26 -16 -42t-40 -16zM11 3v-1q16 4 25 12q9 7 13 28t6 59q1 25 1 105v330
q0 80 -1 106q-2 40 -6 59q-5 20 -13 27q-9 8 -25 12v7h214v-7q-16 -4 -25 -12q-8 -7 -13 -27q-4 -19 -6 -59q-1 -26 -1 -106v-330q0 -80 1 -105q1 -37 6 -58q4 -21 13 -28q9 -8 25 -12v-7h-214v7z" />
    <glyph glyph-name="Eth" unicode="&#xd0;" horiz-adv-x="608" 
d="M18 7l-2 -3q16 4 25 12q9 7 13 28t6 59q1 25 1 105v177h-67v8h67v145q0 80 -1 106q-2 39 -6 60q-5 21 -13 27q-11 7 -25 11v7h203q79 0 144 -22q67 -23 114 -67q48 -45 75 -114t27 -162q0 -88 -24 -160t-70 -121t-112 -76t-152 -27h-203v7zM188 5l30 -1q55 0 98 20
q42 19 69 65q28 46 41 117q14 75 14 177q0 109 -18 178t-48 108t-70 54t-85 15h-31v-346h114v-8h-114v-379z" />
    <glyph glyph-name="Ntilde" unicode="&#xd1;" horiz-adv-x="545" 
d="M17 7h1q15 8 25 18q8 8 13 30q5 21 6 58q1 25 1 102v325q0 80 -1 106q-2 39 -6 60q-5 21 -13 27q-11 7 -25 11v7h163q9 0 12 -1q6 -2 8 -4q5 -5 8 -9q5 -6 9 -15l264 -485v299q0 77 -1 102q-1 37 -6 58t-15 30q-11 10 -28 18v7h105v-7q-15 -8 -25 -18q-8 -8 -13 -30
q-5 -21 -6 -58q-1 -25 -1 -102v-539h-26l-394 728v-510q0 -77 1 -102q1 -37 6 -58t15 -30q11 -10 28 -18v-7h-105v7zM277 871l1 -1q21 0 53 -2t44 -2q24 0 54 40l7 -2q-10 -48 -29 -76q-18 -27 -42 -27q-18 0 -48 2t-48 2q-11 0 -24 -8t-26 -30l-7 2q14 54 30 78t35 24z" />
    <glyph glyph-name="Ograve" unicode="&#xd2;" horiz-adv-x="625" 
d="M312 -12v-1q-54 0 -105 27t-90 78t-63 123t-24 161q0 90 24 161t63 120q38 49 90 76q51 27 105 27q55 0 106 -27q52 -27 90 -76q39 -49 63 -120q24 -70 24 -161q0 -88 -24 -160t-63 -123t-90 -78t-106 -27zM312 -4v-2q68 0 107 93q38 92 40 286q0 97 -12 167
q-12 73 -31 117q-20 47 -46 69q-28 23 -57 23q-31 0 -57 -22t-46 -69q-19 -44 -31 -117q-12 -71 -12 -166q0 -193 39 -286t106 -93zM256 801v-2q-32 7 -45 21q-13 13 -13 33q0 13 11 26q11 12 29 12q26 0 51 -19l116 -90l-3 -6z" />
    <glyph glyph-name="Oacute" unicode="&#xd3;" horiz-adv-x="625" 
d="M312 -12v-1q-54 0 -105 27t-90 78t-63 123t-24 161q0 90 24 161t63 120q38 49 90 76q51 27 105 27q55 0 106 -27q52 -27 90 -76q39 -49 63 -120q24 -70 24 -161q0 -88 -24 -160t-63 -123t-90 -78t-106 -27zM312 -4v-2q68 0 107 93q38 92 40 286q0 97 -12 167
q-12 73 -31 117q-20 47 -46 69q-28 23 -57 23q-31 0 -57 -22t-46 -69q-19 -44 -31 -117q-12 -71 -12 -166q0 -193 39 -286t106 -93zM223 782l115 91q25 19 51 19q17 0 28 -12q10 -11 10 -25q0 -19 -12 -33t-43 -21l-147 -25z" />
    <glyph glyph-name="Ocircumflex" unicode="&#xd4;" horiz-adv-x="625" 
d="M312 -12v-1q-54 0 -105 27t-90 78t-63 123t-24 161q0 90 24 161t63 120q38 49 90 76q51 27 105 27q55 0 106 -27q52 -27 90 -76q39 -49 63 -120q24 -70 24 -161q0 -88 -24 -160t-63 -123t-90 -78t-106 -27zM312 -4v-2q68 0 107 93q38 92 40 286q0 97 -12 167
q-12 73 -31 117q-20 47 -46 69q-28 23 -57 23q-31 0 -57 -22t-46 -69q-19 -44 -31 -117q-12 -71 -12 -166q0 -193 39 -286t106 -93zM313 900l127 -119l-3 -6l-124 39l-124 -39l-3 6z" />
    <glyph glyph-name="Otilde" unicode="&#xd5;" horiz-adv-x="625" 
d="M312 -12v-1q-54 0 -105 27t-90 78t-63 123t-24 161q0 90 24 161t63 120q38 49 90 76q51 27 105 27q55 0 106 -27q52 -27 90 -76q39 -49 63 -120q24 -70 24 -161q0 -88 -24 -160t-63 -123t-90 -78t-106 -27zM312 -4v-2q68 0 107 93q38 92 40 286q0 97 -12 167
q-12 73 -31 117q-20 47 -46 69q-28 23 -57 23q-31 0 -57 -22t-46 -69q-19 -44 -31 -117q-12 -71 -12 -166q0 -193 39 -286t106 -93zM274 868l1 -1q21 0 53 -2t44 -2q24 0 54 40l7 -2q-10 -48 -29 -76q-18 -27 -42 -27q-18 0 -48 2t-48 2q-11 0 -24 -8t-26 -30l-7 2
q13 54 30 78t35 24z" />
    <glyph glyph-name="Odieresis" unicode="&#xd6;" horiz-adv-x="625" 
d="M312 -12v-1q-54 0 -105 27t-90 78t-63 123t-24 161q0 90 24 161t63 120q38 49 90 76q51 27 105 27q55 0 106 -27q52 -27 90 -76q39 -49 63 -120q24 -70 24 -161q0 -88 -24 -160t-63 -123t-90 -78t-106 -27zM312 -4v-2q68 0 107 93q38 92 40 286q0 97 -12 167
q-12 73 -31 117q-20 47 -46 69q-28 23 -57 23q-31 0 -57 -22t-46 -69q-19 -44 -31 -117q-12 -71 -12 -166q0 -193 39 -286t106 -93zM393 782l-2 -2q-23 0 -40 17q-16 16 -16 42q0 23 16 39q17 17 40 17q25 0 41 -16q17 -17 17 -39q0 -26 -16 -42t-40 -16zM231 780l-4 -2
q-23 0 -40 17q-16 16 -16 42q0 22 17 39t41 17q25 0 41 -16q17 -17 17 -39q0 -26 -16 -42t-40 -16z" />
    <glyph glyph-name="multiply" unicode="&#xd7;" horiz-adv-x="349" 
d="M166 353l-129 137l9 9l129 -137l129 137l9 -9l-129 -137l129 -137l-9 -9l-129 137l-128 -136l-9 9z" />
    <glyph glyph-name="Oslash" unicode="&#xd8;" horiz-adv-x="625" 
d="M312 -12v-1q-72 0 -137 48l-31 -76l-9 4l32 78q-60 48 -99 134q-39 85 -39 201q0 90 24 161t63 120q38 49 90 76q51 27 105 27q68 0 130 -41l27 66l10 -4l-28 -68q64 -47 104 -132q41 -87 41 -205q0 -88 -24 -160t-63 -123t-90 -78t-106 -27zM167 375l2 -1q0 -81 8 -150
q7 -64 21 -111l219 540q-20 49 -46 72q-27 24 -58 24t-57 -22t-46 -69q-19 -44 -31 -117q-12 -71 -12 -166zM314 -5l-3 -1q68 0 107 93q38 92 40 286q0 88 -9 154q-9 65 -26 113l-220 -540q37 -105 111 -105z" />
    <glyph glyph-name="Ugrave" unicode="&#xd9;" horiz-adv-x="551" 
d="M294 -12l2 -2q-110 0 -175 56q-64 55 -64 171v325q0 80 -1 106q-2 40 -6 59q-5 20 -13 27q-9 8 -24 12v7h211v-7q-15 -4 -24 -12q-8 -7 -13 -27q-4 -19 -6 -59q-1 -26 -1 -106v-342q0 -50 3 -87t17 -62q14 -24 39 -36t67 -12q83 0 131 50q48 49 48 162v324q0 77 -1 102
q-1 37 -6 58q-4 21 -15 30q-11 10 -28 18v7h106v-7q-15 -8 -25 -18q-8 -8 -13 -30q-5 -21 -6 -58q-1 -25 -1 -102v-324q0 -118 -52 -170q-53 -53 -150 -53zM266 802v-2q-32 8 -45 21t-13 33q0 13 11 26q10 12 29 12q26 0 51 -19l116 -90l-3 -6z" />
    <glyph glyph-name="Uacute" unicode="&#xda;" horiz-adv-x="551" 
d="M294 -12l2 -2q-110 0 -175 56q-64 55 -64 171v325q0 80 -1 106q-2 40 -6 59q-5 20 -13 27q-9 8 -24 12v7h211v-7q-15 -4 -24 -12q-8 -7 -13 -27q-4 -19 -6 -59q-1 -26 -1 -106v-342q0 -50 3 -87t17 -62q14 -24 39 -36t67 -12q83 0 131 50q48 49 48 162v324q0 77 -1 102
q-1 37 -6 58q-4 21 -15 30q-11 10 -28 18v7h106v-7q-15 -8 -25 -18q-8 -8 -13 -30q-5 -21 -6 -58q-1 -25 -1 -102v-324q0 -118 -52 -170q-53 -53 -150 -53zM233 783l115 91q25 19 51 19q17 0 28 -12q10 -11 10 -25q0 -20 -12 -33q-12 -14 -43 -21l-147 -25z" />
    <glyph glyph-name="Ucircumflex" unicode="&#xdb;" horiz-adv-x="551" 
d="M294 -12l2 -2q-110 0 -175 56q-64 55 -64 171v325q0 80 -1 106q-2 40 -6 59q-5 20 -13 27q-9 8 -24 12v7h211v-7q-15 -4 -24 -12q-8 -7 -13 -27q-4 -19 -6 -59q-1 -26 -1 -106v-342q0 -50 3 -87t17 -62q14 -24 39 -36t67 -12q83 0 131 50q48 49 48 162v324q0 77 -1 102
q-1 37 -6 58q-4 21 -15 30q-11 10 -28 18v7h106v-7q-15 -8 -25 -18q-8 -8 -13 -30q-5 -21 -6 -58q-1 -25 -1 -102v-324q0 -118 -52 -170q-53 -53 -150 -53zM322 901l127 -119l-3 -6l-124 39l-124 -39l-3 6z" />
    <glyph glyph-name="Udieresis" unicode="&#xdc;" horiz-adv-x="551" 
d="M294 -12l2 -2q-110 0 -175 56q-64 55 -64 171v325q0 80 -1 106q-2 40 -6 59q-5 20 -13 27q-9 8 -24 12v7h211v-7q-15 -4 -24 -12q-8 -7 -13 -27q-4 -19 -6 -59q-1 -26 -1 -106v-342q0 -50 3 -87t17 -62q14 -24 39 -36t67 -12q83 0 131 50q48 49 48 162v324q0 77 -1 102
q-1 37 -6 58q-4 21 -15 30q-11 10 -28 18v7h106v-7q-15 -8 -25 -18q-8 -8 -13 -30q-5 -21 -6 -58q-1 -25 -1 -102v-324q0 -118 -52 -170q-53 -53 -150 -53zM401 783l-2 -2q-23 0 -40 17q-16 16 -16 42q0 23 16 39q17 17 40 17q25 0 41 -16q17 -17 17 -39q0 -26 -16 -42
t-40 -16zM239 781l-4 -2q-23 0 -40 17q-16 16 -16 42q0 22 17 39t41 17q25 0 41 -16q17 -17 17 -39q0 -26 -16 -42t-40 -16z" />
    <glyph glyph-name="Yacute" unicode="&#xdd;" horiz-adv-x="516" 
d="M158 7l-2 -2q15 5 24 12q10 8 14 28q4 21 6 59q1 25 1 105v168l-117 248q-20 45 -36 72t-45 45v6h207v-6q-21 -8 -24 -25t11 -49l124 -269l96 223q8 18 19 50q7 20 7 34q0 12 -8 22q-7 9 -26 15v6h103v-6q-10 -4 -20 -11q-9 -6 -18 -18q-11 -14 -20 -33q-13 -27 -26 -57
l-102 -234v-180q0 -80 1 -105q1 -37 6 -58q4 -21 13 -28q9 -8 25 -12v-7h-213v7zM216 783l115 91q25 19 51 19q18 0 28 -12q10 -11 10 -25q0 -20 -12 -33q-12 -14 -43 -21l-147 -25z" />
    <glyph glyph-name="Thorn" unicode="&#xde;" horiz-adv-x="506" 
d="M17 7l-6 -7q16 4 25 12q9 7 13 28t6 59q1 25 1 105v330q0 80 -1 106q-2 40 -6 59q-5 20 -13 27q-9 8 -25 12v7h214v-7q-15 -5 -21 -10q-8 -6 -12 -19t-6 -39q-2 -34 -2 -71h64q55 0 100 -9t78 -30t51 -57t18 -88q0 -54 -18 -93q-18 -40 -51 -65q-34 -26 -78 -38
q-45 -12 -98 -12h-64q0 -79 1 -104q1 -37 6 -57q4 -19 14 -27q9 -7 24 -12v-7h-214v7zM242 209v2q28 0 52 9t41 32t26 59t9 90t-9 90t-27 57t-40 30t-50 9h-63v-378h61z" />
    <glyph glyph-name="germandbls" unicode="&#xdf;" horiz-adv-x="490" 
d="M165 128v-6v-60q0 -22 3 -34t11 -18q7 -6 21 -9v-7h-179v7q12 3 18 9t9 18t3 35v60v328h-48v8q17 2 26 6q9 5 15 12q5 7 7 19q2 16 2 30v31q0 55 18 92q18 38 47 62q28 24 63 36q34 12 68 12q30 0 62 -8q30 -7 53 -23q23 -15 36 -37q14 -23 14 -51t-12 -47t-30 -36
q-24 -22 -37 -33q-19 -16 -36 -36q-17 -21 -21 -36q-4 -13 -4 -31q0 -31 23 -60t69 -66q35 -29 54 -49q22 -23 33 -43q13 -23 17 -40q5 -22 5 -42q0 -33 -13 -56q-14 -25 -33 -41q-18 -16 -45 -25q-26 -9 -51 -9q-19 0 -34 5q-12 4 -22 9q-6 3 -16 9q-8 5 -15 5t-12 -5
q-4 -4 -6 -11h-8v125h8q14 -64 37 -96q24 -33 68 -33q29 0 44 21t15 50q0 19 -4 32q-4 14 -15 31q-9 15 -27 34q-17 18 -44 41q-23 19 -43 39q-16 16 -28 35q-10 16 -15 35q-5 20 -5 37q0 23 8 42q7 18 20 35q12 17 25 31q18 20 26 31q24 32 30 63q6 32 6 67q0 31 -3 55
q-3 26 -10 41q-7 16 -22 25t-40 9q-41 0 -63 -31q-23 -32 -23 -108v-485z" />
    <glyph glyph-name="agrave" unicode="&#xe0;" horiz-adv-x="404" 
d="M128 -8l5 -3q-48 0 -78 27t-30 77q0 35 15 56q16 22 39 35q24 14 54 24t57 24l7 3q12 6 21 12q10 7 15 13q6 7 9 20q3 12 3 31v79q0 42 -18 56q-19 14 -42 14q-22 0 -34 -12q-13 -12 -23 -41q-8 -19 -16 -31q-9 -13 -30 -13q-19 0 -30 11t-11 26q0 29 39 50t105 21
q32 0 62 -6q31 -6 54 -19q24 -13 39 -38q15 -24 15 -62v-218q0 -47 1 -62q2 -26 4 -35q3 -11 9 -16q5 -4 15 -4q6 0 12 2q4 1 9 6l3 -6q-8 -5 -24 -12q-18 -8 -51 -8q-77 0 -87 58q-29 -30 -52 -44q-26 -15 -66 -15zM137 114l-1 -1q0 -100 49 -100q12 0 28 11q11 8 37 32
q-1 3 -1 12v200q-6 -14 -18 -21q-16 -10 -31 -17l-7 -3q-33 -19 -44 -43q-12 -26 -12 -70zM137 593l-3 -1q-16 10 -27 24q-10 13 -10 33q0 16 11 27t30 11q17 0 30 -11t26 -33l76 -125l-6 -4z" />
    <glyph glyph-name="aacute" unicode="&#xe1;" horiz-adv-x="404" 
d="M128 -8l5 -3q-48 0 -78 27t-30 77q0 35 15 56q16 22 39 35q24 14 54 24t57 24l7 3q12 6 21 12q10 7 15 13q6 7 9 20q3 12 3 31v79q0 42 -18 56q-19 14 -42 14q-22 0 -34 -12q-13 -12 -23 -41q-8 -19 -16 -31q-9 -13 -30 -13q-19 0 -30 11t-11 26q0 29 39 50t105 21
q32 0 62 -6q31 -6 54 -19q24 -13 39 -38q15 -24 15 -62v-218q0 -47 1 -62q2 -26 4 -35q3 -11 9 -16q5 -4 15 -4q6 0 12 2q4 1 9 6l3 -6q-8 -5 -24 -12q-18 -8 -51 -8q-77 0 -87 58q-29 -30 -52 -44q-26 -15 -66 -15zM137 114l-1 -1q0 -100 49 -100q12 0 28 11q11 8 37 32
q-1 3 -1 12v200q-6 -14 -18 -21q-16 -10 -31 -17l-7 -3q-33 -19 -44 -43q-12 -26 -12 -70zM137 518l73 126q13 22 26 33t30 11q19 0 30 -11t11 -27q0 -20 -10 -33q-11 -13 -27 -24l-127 -79z" />
    <glyph glyph-name="acircumflex" unicode="&#xe2;" horiz-adv-x="404" 
d="M128 -8l5 -3q-48 0 -78 27t-30 77q0 35 15 56q16 22 39 35q24 14 54 24t57 24l7 3q12 6 21 12q10 7 15 13q6 7 9 20q3 12 3 31v79q0 42 -18 56q-19 14 -42 14q-22 0 -34 -12q-13 -12 -23 -41q-8 -19 -16 -31q-9 -13 -30 -13q-19 0 -30 11t-11 26q0 29 39 50t105 21
q32 0 62 -6q31 -6 54 -19q24 -13 39 -38q15 -24 15 -62v-218q0 -47 1 -62q2 -26 4 -35q3 -11 9 -16q5 -4 15 -4q6 0 12 2q4 1 9 6l3 -6q-8 -5 -24 -12q-18 -8 -51 -8q-77 0 -87 58q-29 -30 -52 -44q-26 -15 -66 -15zM137 114l-1 -1q0 -100 49 -100q12 0 28 11q11 8 37 32
q-1 3 -1 12v200q-6 -14 -18 -21q-16 -10 -31 -17l-7 -3q-33 -19 -44 -43q-12 -26 -12 -70zM196 693l110 -177l-6 -5l-104 71l-104 -71l-6 5z" />
    <glyph glyph-name="atilde" unicode="&#xe3;" horiz-adv-x="404" 
d="M128 -8l5 -3q-48 0 -78 27t-30 77q0 35 15 56q16 22 39 35q24 14 54 24t57 24l7 3q12 6 21 12q10 7 15 13q6 7 9 20q3 12 3 31v79q0 42 -18 56q-19 14 -42 14q-22 0 -34 -12q-13 -12 -23 -41q-8 -19 -16 -31q-9 -13 -30 -13q-19 0 -30 11t-11 26q0 29 39 50t105 21
q32 0 62 -6q31 -6 54 -19q24 -13 39 -38q15 -24 15 -62v-218q0 -47 1 -62q2 -26 4 -35q3 -11 9 -16q5 -4 15 -4q6 0 12 2q4 1 9 6l3 -6q-8 -5 -24 -12q-18 -8 -51 -8q-77 0 -87 58q-29 -30 -52 -44q-26 -15 -66 -15zM137 114l-1 -1q0 -100 49 -100q12 0 28 11q11 8 37 32
q-1 3 -1 12v200q-6 -14 -18 -21q-16 -10 -31 -17l-7 -3q-33 -19 -44 -43q-12 -26 -12 -70zM156 631q30 0 51 -4t44 -4q14 0 24 10q12 12 27 31l7 -3q-10 -46 -27 -76q-16 -30 -42 -30q-21 0 -46 5t-48 5q-12 0 -22 -9q-10 -8 -27 -32l-6 3q15 51 30 77q15 27 35 27z" />
    <glyph glyph-name="adieresis" unicode="&#xe4;" horiz-adv-x="404" 
d="M128 -8l5 -3q-48 0 -78 27t-30 77q0 35 15 56q16 22 39 35q24 14 54 24t57 24l7 3q12 6 21 12q10 7 15 13q6 7 9 20q3 12 3 31v79q0 42 -18 56q-19 14 -42 14q-22 0 -34 -12q-13 -12 -23 -41q-8 -19 -16 -31q-9 -13 -30 -13q-19 0 -30 11t-11 26q0 29 39 50t105 21
q32 0 62 -6q31 -6 54 -19q24 -13 39 -38q15 -24 15 -62v-218q0 -47 1 -62q2 -26 4 -35q3 -11 9 -16q5 -4 15 -4q6 0 12 2q4 1 9 6l3 -6q-8 -5 -24 -12q-18 -8 -51 -8q-77 0 -87 58q-29 -30 -52 -44q-26 -15 -66 -15zM137 114l-1 -1q0 -100 49 -100q12 0 28 11q11 8 37 32
q-1 3 -1 12v200q-6 -14 -18 -21q-16 -10 -31 -17l-7 -3q-33 -19 -44 -43q-12 -26 -12 -70zM275 527v-2q-25 0 -42 17q-16 16 -16 42q0 23 16 39q17 17 42 17q24 0 40 -16t16 -39q0 -26 -16 -42t-40 -16zM117 525v-2q-23 0 -40 17q-16 16 -16 42q0 23 16 39q17 17 40 17
q26 0 42 -16t16 -39q0 -26 -16 -42t-42 -16z" />
    <glyph glyph-name="aring" unicode="&#xe5;" horiz-adv-x="404" 
d="M128 -8l5 -3q-48 0 -78 27t-30 77q0 35 15 56q16 22 39 35q24 14 54 24t57 24l7 3q12 6 21 12q10 7 15 13q6 7 9 20q3 12 3 31v79q0 42 -18 56q-19 14 -42 14q-22 0 -34 -12q-13 -12 -23 -41q-8 -19 -16 -31q-9 -13 -30 -13q-19 0 -30 11t-11 26q0 29 39 50t105 21
q32 0 62 -6q31 -6 54 -19q24 -13 39 -38q15 -24 15 -62v-218q0 -47 1 -62q2 -26 4 -35q3 -11 9 -16q5 -4 15 -4q6 0 12 2q4 1 9 6l3 -6q-8 -5 -24 -12q-18 -8 -51 -8q-77 0 -87 58q-29 -30 -52 -44q-26 -15 -66 -15zM137 114l-1 -1q0 -100 49 -100q12 0 28 11q11 8 37 32
q-1 3 -1 12v200q-6 -14 -18 -21q-16 -10 -31 -17l-7 -3q-33 -19 -44 -43q-12 -26 -12 -70zM114 596h-2q0 32 24 53t59 21t59 -21t24 -53q0 -31 -23 -52t-59 -21t-59 20t-23 53zM157 596v-1q0 -65 37 -65t37 65q0 32 -10 48q-11 17 -27 17q-17 0 -27 -16t-10 -48z" />
    <glyph glyph-name="ae" unicode="&#xe6;" horiz-adv-x="620" 
d="M129 -8l7 -2q-48 0 -78 27t-30 77q0 35 15 56q16 22 39 35q24 13 54 24t57 24l7 3q12 6 21 12q10 7 15 13q6 7 9 20q3 12 3 31v79q0 43 -18 56q-19 14 -42 14q-22 0 -34 -12t-23 -41q-8 -19 -16 -31q-9 -13 -30 -13q-19 0 -30 11t-11 26q0 29 39 50t105 21q40 0 78 -9
q37 -9 63 -35q25 22 54 33q30 11 54 11q42 0 73 -14q29 -13 49 -36q19 -22 28 -49q10 -29 11 -53h-234q-3 -32 -3 -72q0 -52 6 -96q6 -42 20 -75q13 -31 36 -49t54 -18q37 0 60 12q24 13 42 28l5 -7q-20 -17 -48 -33t-79 -16q-53 0 -99 21t-76 67l-27 -27q-12 -12 -30 -28
q-12 -11 -27 -19q-14 -8 -30 -12q-15 -4 -39 -4zM441 464l-1 1q-26 0 -45 -30q-20 -30 -27 -106h134q-3 61 -14 99q-11 36 -47 36zM138 116l1 -1q0 -100 49 -100q13 0 30 11q16 10 42 36l25 24q-18 30 -26 64q-9 36 -9 83v37q-6 -14 -18 -21q-16 -10 -31 -17l-7 -3
q-33 -19 -44 -43q-12 -26 -12 -70z" />
    <glyph glyph-name="ccedilla" unicode="&#xe7;" horiz-adv-x="374" 
d="M229 -6l-4 -6q-41 0 -79 15t-66 45q-29 30 -45 73q-16 42 -16 101q0 60 20 108q19 46 50 78q29 31 66 46q36 15 67 15q24 0 51 -5q22 -4 42 -14q18 -9 29 -23t11 -30q0 -17 -11 -26q-10 -9 -27 -9q-25 0 -37 15q-11 14 -19 47q-4 22 -11 32q-6 9 -23 9q-40 0 -63 -53
q-23 -54 -23 -159q0 -119 30 -181q30 -61 84 -61q36 0 60 15t41 35l6 -6q-18 -22 -50 -42q-31 -19 -83 -19zM197 -5l-22 -44q37 -4 63 -23q26 -18 26 -47q0 -75 -159 -76l-1 7q39 8 64 19q27 12 27 29q0 15 -17 24q-18 10 -42 11l-3 4l53 96h11z" />
    <glyph glyph-name="egrave" unicode="&#xe8;" horiz-adv-x="396" 
d="M234 -6l-2 -2q-41 0 -81 14q-39 14 -69 42t-48 74q-18 45 -18 110q0 61 20 107q20 45 48 75q29 30 62 44q34 14 62 14q43 0 74 -14t50 -36q21 -24 29 -49q10 -29 11 -53h-236q-3 -32 -3 -72q0 -52 6 -96t21 -75t37 -49q23 -18 56 -18q38 0 62 12t43 28l5 -7
q-19 -17 -48 -33q-28 -16 -81 -16zM209 464v1q-25 0 -45 -30t-27 -106h136q-3 63 -15 99t-49 36zM152 596l-3 -1q-17 11 -27 24t-10 33q0 16 11 27t30 11q17 0 30 -11t26 -33l76 -125l-6 -4z" />
    <glyph glyph-name="eacute" unicode="&#xe9;" horiz-adv-x="396" 
d="M234 -6l-2 -2q-41 0 -81 14q-39 14 -69 42t-48 74q-18 45 -18 110q0 61 20 107q20 45 48 75q29 30 62 44q34 14 62 14q43 0 74 -14t50 -36q21 -24 29 -49q10 -29 11 -53h-236q-3 -32 -3 -72q0 -52 6 -96t21 -75t37 -49q23 -18 56 -18q38 0 62 12t43 28l5 -7
q-19 -17 -48 -33q-28 -16 -81 -16zM209 464v1q-25 0 -45 -30t-27 -106h136q-3 63 -15 99t-49 36zM149 521l73 126q13 22 26 33t30 11q19 0 30 -11t11 -27q0 -20 -10 -33q-11 -14 -27 -24l-127 -79z" />
    <glyph glyph-name="ecircumflex" unicode="&#xea;" horiz-adv-x="396" 
d="M234 -6l-2 -2q-41 0 -81 14q-39 14 -69 42t-48 74q-18 45 -18 110q0 61 20 107q20 45 48 75q29 30 62 44q34 14 62 14q43 0 74 -14t50 -36q21 -24 29 -49q10 -29 11 -53h-236q-3 -32 -3 -72q0 -52 6 -96t21 -75t37 -49q23 -18 56 -18q38 0 62 12t43 28l5 -7
q-19 -17 -48 -33q-28 -16 -81 -16zM209 464v1q-25 0 -45 -30t-27 -106h136q-3 63 -15 99t-49 36zM213 696l110 -177l-6 -5l-104 71l-104 -71l-6 5z" />
    <glyph glyph-name="edieresis" unicode="&#xeb;" horiz-adv-x="396" 
d="M234 -6l-2 -2q-41 0 -81 14q-39 14 -69 42t-48 74q-18 45 -18 110q0 61 20 107q20 45 48 75q29 30 62 44q34 14 62 14q43 0 74 -14t50 -36q21 -24 29 -49q10 -29 11 -53h-236q-3 -32 -3 -72q0 -52 6 -96t21 -75t37 -49q23 -18 56 -18q38 0 62 12t43 28l5 -7
q-19 -17 -48 -33q-28 -16 -81 -16zM209 464v1q-25 0 -45 -30t-27 -106h136q-3 63 -15 99t-49 36zM292 530v-2q-25 0 -42 17q-16 16 -16 42q0 23 16 39q17 17 42 17q24 0 40 -16t16 -39q0 -26 -16 -42t-40 -16zM134 528v-2q-23 0 -40 17q-16 16 -16 42q0 23 16 39
q17 17 40 17q26 0 42 -16t16 -39q0 -26 -16 -42t-42 -16z" />
    <glyph glyph-name="igrave" unicode="&#xec;" horiz-adv-x="209" 
d="M14 7h-1q13 3 21 9t11 18t3 35v60v155v54q0 20 -3 30t-11 13q-9 4 -21 5v7l147 85v-350v-60q0 -21 5 -34q5 -12 12 -18t21 -9v-7h-184v7zM45 597l-3 -1q-16 10 -27 24q-10 13 -10 33q0 16 11 27t30 11q17 0 30 -11t26 -33l76 -125l-6 -4z" />
    <glyph glyph-name="iacute" unicode="&#xed;" horiz-adv-x="209" 
d="M14 7h-1q13 3 21 9t11 18t3 35v60v155v54q0 20 -3 30t-11 13q-9 4 -21 5v7l147 85v-350v-60q0 -21 5 -34q5 -12 12 -18t21 -9v-7h-184v7zM37 522l73 126q13 22 26 33t30 11q19 0 30 -11t11 -27q0 -20 -10 -33q-11 -13 -27 -24l-127 -79z" />
    <glyph glyph-name="icircumflex" unicode="&#xee;" horiz-adv-x="209" 
d="M14 7h-1q13 3 21 9t11 18t3 35v60v155v54q0 20 -3 30t-11 13q-9 4 -21 5v7l147 85v-350v-60q0 -21 5 -34q5 -12 12 -18t21 -9v-7h-184v7zM104 697l110 -177l-6 -5l-104 71l-104 -71l-6 5z" />
    <glyph glyph-name="idieresis" unicode="&#xef;" horiz-adv-x="209" 
d="M173 531l-4 -2q-23 0 -40 17q-16 16 -16 42q0 22 17 39t41 17q25 0 41 -16q17 -17 17 -39q0 -26 -16 -42t-40 -16zM32 529l-4 -2q-23 0 -40 17q-16 16 -16 42q0 22 17 39t41 17q25 0 41 -16q17 -17 17 -39q0 -26 -16 -42t-40 -16zM6 3h-1q13 3 21 9t11 18t3 35v60v155v54
q0 20 -3 30t-11 13q-9 4 -21 5v7l147 85v-350v-60q0 -21 5 -34q5 -12 12 -18t21 -9v-7h-184v7z" />
    <glyph glyph-name="eth" unicode="&#xf0;" horiz-adv-x="448" 
d="M427 277h-4q0 -83 -21 -137t-51 -87q-29 -32 -66 -46q-35 -13 -66 -13q-29 0 -63 12t-66 41q-30 27 -52 74q-21 45 -21 111q0 68 21 114t53 75q31 29 66 42q33 13 63 13q19 0 40 -6q20 -6 38 -17q-17 92 -66 170l-109 -52l-5 8l108 52q-26 37 -59 71q-30 30 -71 58l6 3
q103 -43 172 -110l98 47l4 -8l-95 -45q41 -41 69 -85q28 -45 45 -93t24 -96q8 -51 8 -96zM220 2l-1 -2q19 0 35 11q15 10 27 38q12 27 18 71t6 110q0 68 -6 113t-18 72t-27 39t-34 12q-18 0 -34 -12q-16 -11 -28 -39q-12 -27 -18 -72t-6 -113q0 -66 6 -110q6 -43 18 -70
t28 -37q17 -11 34 -11z" />
    <glyph glyph-name="ntilde" unicode="&#xf1;" horiz-adv-x="463" 
d="M14 7h-5q11 3 19 9t11 18t3 35v60v155q0 43 -1 56q-2 22 -4 30q-3 10 -11 13q-9 4 -21 5v7l148 85v-100l11 11q40 42 72 63t72 21q16 0 36 -6q21 -6 35 -19q16 -14 26 -36q11 -24 11 -57v-231v-60q0 -22 3 -34t10 -18q8 -6 19 -9v-7h-184v7q14 3 21 9t12 18q4 12 6 35
q1 15 1 60v263q0 34 -12 46t-26 12t-36 -15q-24 -16 -60 -55l-11 -11v-239v-60q0 -21 5 -34q4 -12 12 -18t21 -9v-7h-183v7zM194 635q30 0 51 -4t44 -4q14 0 24 10q12 12 27 31l7 -3q-10 -46 -27 -76q-16 -30 -42 -30q-21 0 -46 5t-48 5q-11 0 -22 -9q-10 -8 -27 -32l-6 3
q15 51 30 77q15 27 35 27z" />
    <glyph glyph-name="ograve" unicode="&#xf2;" horiz-adv-x="447" 
d="M224 -7l-2 -2q-28 0 -63 12q-34 12 -66 41q-30 27 -52 74q-21 45 -21 111q0 67 21 114q21 46 53 75q32 28 66 42q33 13 63 13t65 -13q36 -14 66 -42t51 -75t21 -114q0 -66 -21 -111q-21 -44 -51 -73q-29 -28 -66 -40q-36 -12 -64 -12zM222 0l-1 -2q19 0 35 11
q15 10 27 38q12 27 18 71t6 110q0 68 -6 113t-18 72t-27 39t-34 12q-18 0 -34 -12q-16 -11 -28 -39q-12 -27 -18 -72t-6 -113q0 -66 6 -110q6 -43 18 -70t28 -37q17 -11 34 -11zM158 593l-3 -1q-17 10 -27 24q-10 13 -10 33q0 16 11 27t30 11q17 0 30 -11t26 -33l76 -125
l-6 -4z" />
    <glyph glyph-name="oacute" unicode="&#xf3;" horiz-adv-x="447" 
d="M224 -7l-2 -2q-28 0 -63 12q-34 12 -66 41q-30 27 -52 74q-21 45 -21 111q0 67 21 114q21 46 53 75q32 28 66 42q33 13 63 13t65 -13q36 -14 66 -42t51 -75t21 -114q0 -66 -21 -111q-21 -44 -51 -73q-29 -28 -66 -40q-36 -12 -64 -12zM222 0l-1 -2q19 0 35 11
q15 10 27 38q12 27 18 71t6 110q0 68 -6 113t-18 72t-27 39t-34 12q-18 0 -34 -12q-16 -11 -28 -39q-12 -27 -18 -72t-6 -113q0 -66 6 -110q6 -43 18 -70t28 -37q17 -11 34 -11zM159 518l73 126q13 22 26 33t30 11q19 0 30 -11t11 -27q0 -20 -10 -33q-11 -13 -27 -24
l-127 -79z" />
    <glyph glyph-name="ocircumflex" unicode="&#xf4;" horiz-adv-x="447" 
d="M224 -7l-2 -2q-28 0 -63 12q-34 12 -66 41q-30 27 -52 74q-21 45 -21 111q0 67 21 114q21 46 53 75q32 28 66 42q33 13 63 13t65 -13q36 -14 66 -42t51 -75t21 -114q0 -66 -21 -111q-21 -44 -51 -73q-29 -28 -66 -40q-36 -12 -64 -12zM222 0l-1 -2q19 0 35 11
q15 10 27 38q12 27 18 71t6 110q0 68 -6 113t-18 72t-27 39t-34 12q-18 0 -34 -12q-16 -11 -28 -39q-12 -27 -18 -72t-6 -113q0 -66 6 -110q6 -43 18 -70t28 -37q17 -11 34 -11zM221 693l110 -177l-6 -5l-104 71l-104 -71l-6 5z" />
    <glyph glyph-name="otilde" unicode="&#xf5;" horiz-adv-x="447" 
d="M224 -7l-2 -2q-28 0 -63 12q-34 12 -66 41q-30 27 -52 74q-21 45 -21 111q0 67 21 114q21 46 53 75q32 28 66 42q33 13 63 13t65 -13q36 -14 66 -42t51 -75t21 -114q0 -66 -21 -111q-21 -44 -51 -73q-29 -28 -66 -40q-36 -12 -64 -12zM222 0l-1 -2q19 0 35 11
q15 10 27 38q12 27 18 71t6 110q0 68 -6 113t-18 72t-27 39t-34 12q-18 0 -34 -12q-16 -11 -28 -39q-12 -27 -18 -72t-6 -113q0 -66 6 -110q6 -43 18 -70t28 -37q17 -11 34 -11zM179 631q30 0 51 -4t44 -4q14 0 24 10q12 12 27 31l7 -3q-10 -46 -27 -76t-42 -30q-21 0 -46 5
t-48 5q-11 0 -22 -9q-10 -8 -27 -32l-6 3q15 51 30 77q15 27 35 27z" />
    <glyph glyph-name="odieresis" unicode="&#xf6;" horiz-adv-x="447" 
d="M224 -7l-2 -2q-28 0 -63 12q-34 12 -66 41q-30 27 -52 74q-21 45 -21 111q0 67 21 114q21 46 53 75q32 28 66 42q33 13 63 13t65 -13q36 -14 66 -42t51 -75t21 -114q0 -66 -21 -111q-21 -44 -51 -73q-29 -28 -66 -40q-36 -12 -64 -12zM222 0l-1 -2q19 0 35 11
q15 10 27 38q12 27 18 71t6 110q0 68 -6 113t-18 72t-27 39t-34 12q-18 0 -34 -12q-16 -11 -28 -39q-12 -27 -18 -72t-6 -113q0 -66 6 -110q6 -43 18 -70t28 -37q17 -11 34 -11zM300 527v-2q-25 0 -42 17q-16 16 -16 42q0 23 16 39q17 17 42 17q24 0 40 -16t16 -39
q0 -26 -16 -42t-40 -16zM142 525v-2q-23 0 -40 17q-16 16 -16 42q0 23 16 39q17 17 40 17q26 0 42 -16t16 -39q0 -26 -16 -42t-42 -16z" />
    <glyph glyph-name="divide" unicode="&#xf7;" horiz-adv-x="406" 
d="M141 495q0 26 18 44t44 18t44 -18t18 -44t-18 -44t-44 -18t-44 18t-18 44zM37 357h332v-12h-332v12zM141 205q0 26 18 44t44 18t44 -18t18 -44t-18 -44t-44 -18t-44 18t-18 44z" />
    <glyph glyph-name="oslash" unicode="&#xf8;" horiz-adv-x="447" 
d="M296 385l23 57l-8 4l22 50l8 -5l-22 -49q21 -14 39 -33q19 -20 33 -46q15 -27 24 -60t9 -75q0 -66 -21 -111q-21 -44 -51 -73q-29 -28 -66 -40q-36 -12 -64 -12q-20 0 -44 6q-22 6 -48 20l23 53l-4 15l142 312q-10 37 -28 52t-40 15q-17 0 -34 -12q-16 -11 -28 -39
q-12 -27 -18 -72t-6 -113q0 -46 3 -82q3 -35 9 -61l-28 -63q3 -1 9 -6l-26 -57l-9 5l26 57q-21 14 -38 33q-19 21 -32 45t-22 58q-9 33 -9 73q0 67 21 114q21 46 53 75q32 28 66 42q33 13 63 13q20 0 44 -6q22 -6 48 -20l-23 -50zM220 -1l-1 -1q19 0 35 11q15 10 27 38
q12 27 18 71t6 110q0 52 -3 89q-3 41 -10 65l-142 -313q12 -37 30 -54q17 -16 40 -16z" />
    <glyph glyph-name="ugrave" unicode="&#xf9;" 
d="M153 -8l4 -4q-17 0 -36 6q-20 6 -36 19q-17 13 -27 36q-10 21 -10 55v188v49q0 18 -3 27t-11 12q-9 4 -21 5v7l148 85v-396q0 -36 12 -51t26 -15q29 0 93 69v209v49q0 18 -3 27t-11 12q-9 4 -21 5v7l147 85v-350v-60q0 -22 3 -34t9 -18t17 -9v-7h-142v74q-25 -25 -36 -35
q-15 -13 -33 -25q-15 -9 -33 -16q-17 -6 -36 -6zM182 593l-3 -1q-17 10 -27 24q-10 13 -10 33q0 16 11 27t30 11q17 0 30 -11t26 -33l76 -125l-6 -4z" />
    <glyph glyph-name="uacute" unicode="&#xfa;" 
d="M153 -8l4 -4q-17 0 -36 6q-20 6 -36 19q-17 13 -27 36q-10 21 -10 55v188v49q0 18 -3 27t-11 12q-9 4 -21 5v7l148 85v-396q0 -36 12 -51t26 -15q29 0 93 69v209v49q0 18 -3 27t-11 12q-9 4 -21 5v7l147 85v-350v-60q0 -22 3 -34t9 -18t17 -9v-7h-142v74q-25 -25 -36 -35
q-15 -13 -33 -25q-15 -9 -33 -16q-17 -6 -36 -6zM183 518l73 126q13 22 26 33t30 11q19 0 30 -11t11 -27q0 -20 -10 -33q-11 -13 -27 -24l-127 -79z" />
    <glyph glyph-name="ucircumflex" unicode="&#xfb;" 
d="M153 -8l4 -4q-17 0 -36 6q-20 6 -36 19q-17 13 -27 36q-10 21 -10 55v188v49q0 18 -3 27t-11 12q-9 4 -21 5v7l148 85v-396q0 -36 12 -51t26 -15q29 0 93 69v209v49q0 18 -3 27t-11 12q-9 4 -21 5v7l147 85v-350v-60q0 -22 3 -34t9 -18t17 -9v-7h-142v74q-25 -25 -36 -35
q-15 -13 -33 -25q-15 -9 -33 -16q-17 -6 -36 -6zM241 693l110 -177l-6 -5l-104 71l-104 -71l-6 5z" />
    <glyph glyph-name="udieresis" unicode="&#xfc;" 
d="M153 -8l4 -4q-17 0 -36 6q-20 6 -36 19q-17 13 -27 36q-10 21 -10 55v188v49q0 18 -3 27t-11 12q-9 4 -21 5v7l148 85v-396q0 -36 12 -51t26 -15q29 0 93 69v209v49q0 18 -3 27t-11 12q-9 4 -21 5v7l147 85v-350v-60q0 -22 3 -34t9 -18t17 -9v-7h-142v74q-25 -25 -36 -35
q-15 -13 -33 -25q-15 -9 -33 -16q-17 -6 -36 -6zM320 527v-2q-25 0 -42 17q-16 16 -16 42q0 23 16 39q17 17 42 17q24 0 40 -16t16 -39q0 -26 -16 -42t-40 -16zM162 525v-2q-23 0 -40 17q-16 16 -16 42q0 23 16 39q17 17 40 17q26 0 42 -16t16 -39q0 -26 -16 -42t-42 -16z
" />
    <glyph glyph-name="yacute" unicode="&#xfd;" horiz-adv-x="397" 
d="M77 -171v3q-25 0 -39 12q-13 12 -13 29q0 19 11 27t24 8q14 0 21 -4l15 -9q10 -6 15 -8q7 -3 18 -3q6 0 12 3q7 3 14 12q7 8 15 26q8 17 18 42l8 23l-141 368q-9 24 -20 51q-10 23 -13 29q-6 10 -12 15q-5 4 -13 7v6h179v-6q-10 -2 -18 -6t-9 -15q-2 -11 3 -29
q3 -13 17 -49l81 -219l69 195q14 41 18 64q5 25 2 36q-3 13 -12 17t-23 6v6h95v-6q-11 -3 -16 -7q-6 -5 -14 -17q-6 -10 -16 -36q-15 -40 -23 -64l-132 -371q-27 -73 -54 -105q-27 -31 -67 -31zM177 525l73 126q13 22 26 33t30 11q19 0 30 -11t11 -27q0 -20 -10 -33
q-11 -14 -27 -24l-127 -79z" />
    <glyph glyph-name="thorn" unicode="&#xfe;" horiz-adv-x="468" 
d="M16 -159l-2 1q11 3 19 9q8 7 11 18q3 12 3 35v60v629q0 40 -1 53q-2 22 -4 29q-3 9 -10 12q-10 4 -19 5v7l146 79v-377q30 36 54 56q25 21 62 21q26 0 56 -12q29 -12 55 -39t42 -70q17 -45 17 -106q0 -62 -16 -109q-17 -48 -45 -81q-29 -34 -67 -50q-40 -17 -86 -17
q-20 0 -38 6t-32 17v-55v-60q0 -22 3 -34t11 -18q7 -6 21 -9v-7h-180v7zM250 457v-1q-19 0 -41 -17q-22 -18 -50 -51v-359q12 -11 32 -19q17 -7 39 -7q44 0 71 56q27 55 27 174q0 62 -6 104q-6 44 -16 69q-10 27 -24 39t-32 12z" />
    <glyph glyph-name="ydieresis" unicode="&#xff;" horiz-adv-x="397" 
d="M77 -171v3q-25 0 -39 12q-13 12 -13 29q0 19 11 27t24 8q14 0 21 -4l15 -9q10 -6 15 -8q7 -3 18 -3q6 0 12 3q7 3 14 12q7 8 15 26q8 17 18 42l8 23l-141 368q-9 24 -20 51q-10 23 -13 29q-6 10 -12 15q-5 4 -13 7v6h179v-6q-10 -2 -18 -6t-9 -15q-2 -11 3 -29
q3 -13 17 -49l81 -219l69 195q14 41 18 64q5 25 2 36q-3 13 -12 17t-23 6v6h95v-6q-11 -3 -16 -7q-6 -5 -14 -17q-6 -10 -16 -36q-15 -40 -23 -64l-132 -371q-27 -73 -54 -105q-27 -31 -67 -31zM311 534v-2q-25 0 -42 17q-16 16 -16 42q0 23 16 39q17 17 42 17q24 0 40 -16
t16 -39q0 -26 -16 -42t-40 -16zM153 532v-2q-23 0 -40 17q-16 16 -16 42q0 23 16 39q17 17 40 17q26 0 42 -16t16 -39q0 -26 -16 -42t-42 -16z" />
    <glyph glyph-name="Amacron" unicode="&#x100;" horiz-adv-x="550" 
d="M4 6l-3 -1q10 5 17 12q8 7 15 21q5 10 16 38q11 29 20 63l138 497l-14 45q-10 37 -21 49q-10 11 -27 16v6h146q8 0 11 -3t6 -12l178 -609q16 -56 27 -84t33 -36v-7h-188v7q20 5 23 21q3 17 -9 57l-42 141h-225l-24 -89q-9 -32 -12 -54t0 -37q3 -14 14 -25q10 -10 30 -16
v-6h-109v6zM325 234l-114 382l-105 -382h219zM340 797h-207v48h207v-48z" />
    <glyph glyph-name="amacron" unicode="&#x101;" horiz-adv-x="404" 
d="M128 -8l5 -3q-48 0 -78 27t-30 77q0 35 15 56q16 22 39 35q24 14 54 24t57 24l7 3q12 6 21 12q10 7 15 13q6 7 9 20q3 12 3 31v79q0 42 -18 56q-19 14 -42 14q-22 0 -34 -12q-13 -12 -23 -41q-8 -19 -16 -31q-9 -13 -30 -13q-19 0 -30 11t-11 26q0 29 39 50t105 21
q32 0 62 -6q31 -6 54 -19q24 -13 39 -38q15 -24 15 -62v-218q0 -47 1 -62q2 -26 4 -35q3 -11 9 -16q5 -4 15 -4q6 0 12 2q4 1 9 6l3 -6q-8 -5 -24 -12q-18 -8 -51 -8q-77 0 -87 58q-29 -30 -52 -44q-26 -15 -66 -15zM137 114l-1 -1q0 -100 49 -100q12 0 28 11q11 8 37 32
q-1 3 -1 12v200q-6 -14 -18 -21q-16 -10 -31 -17l-7 -3q-33 -19 -44 -43q-12 -26 -12 -70zM293 604v-47h-194v47h194z" />
    <glyph glyph-name="Abreve" unicode="&#x102;" horiz-adv-x="550" 
d="M4 6l-3 -1q10 5 17 12q8 7 15 21q5 10 16 38q11 29 20 63l138 497l-14 45q-10 37 -21 49q-10 11 -27 16v6h146q8 0 11 -3t6 -12l178 -609q16 -56 27 -84t33 -36v-7h-188v7q20 5 23 21q3 17 -9 57l-42 141h-225l-24 -89q-9 -32 -12 -54t0 -37q3 -14 14 -25q10 -10 30 -16
v-6h-109v6zM325 234l-114 382l-105 -382h219zM236 851l2 1q34 0 54 12q19 12 30 35h9q-2 -53 -25 -84q-24 -31 -69 -31t-69 30q-23 29 -25 84h9q11 -23 30 -35q20 -12 54 -12z" />
    <glyph glyph-name="abreve" unicode="&#x103;" horiz-adv-x="404" 
d="M128 -8l5 -3q-48 0 -78 27t-30 77q0 35 15 56q16 22 39 35q24 14 54 24t57 24l7 3q12 6 21 12q10 7 15 13q6 7 9 20q3 12 3 31v79q0 42 -18 56q-19 14 -42 14q-22 0 -34 -12q-13 -12 -23 -41q-8 -19 -16 -31q-9 -13 -30 -13q-19 0 -30 11t-11 26q0 29 39 50t105 21
q32 0 62 -6q31 -6 54 -19q24 -13 39 -38q15 -24 15 -62v-218q0 -47 1 -62q2 -26 4 -35q3 -11 9 -16q5 -4 15 -4q6 0 12 2q4 1 9 6l3 -6q-8 -5 -24 -12q-18 -8 -51 -8q-77 0 -87 58q-29 -30 -52 -44q-26 -15 -66 -15zM137 114l-1 -1q0 -100 49 -100q12 0 28 11q11 8 37 32
q-1 3 -1 12v200q-6 -14 -18 -21q-16 -10 -31 -17l-7 -3q-33 -19 -44 -43q-12 -26 -12 -70zM197 591l-3 -2q38 0 55 16q19 17 26 36h9q0 -20 -5 -43q-5 -21 -16 -37q-12 -17 -28 -27t-39 -10q-25 0 -41 10t-28 27q-11 15 -16 38t-5 44h9q6 -19 25 -35q20 -17 57 -17z" />
    <glyph glyph-name="Aogonek" unicode="&#x104;" horiz-adv-x="550" 
d="M4 6l-2 -2q10 5 17 12q7 8 15 21q5 10 16 38q11 29 20 63l138 497l-14 45q-10 37 -21 49q-10 11 -27 16v6h146q8 0 11 -3t6 -12l178 -609q17 -55 27 -84t33 -36v-7h-111q-34 0 -52 -27t-18 -64q0 -25 12 -38q12 -14 33 -14q10 0 18 5q7 4 15 12l4 -6l-12 -12
q-8 -8 -18 -15t-27 -12q-18 -5 -39 -5q-38 0 -63 18t-25 49q0 22 14 41q14 18 35 32q22 14 44 23q18 7 41 13l-68 227h-225l-24 -89q-9 -32 -12 -54t0 -37q3 -14 14 -25q10 -10 30 -16v-6h-109v6zM326 234l-114 381l-105 -381h219z" />
    <glyph glyph-name="aogonek" unicode="&#x105;" horiz-adv-x="404" 
d="M128 -8l4 -4q-48 0 -78 27t-30 77q0 35 15 56q16 22 39 35q24 13 54 24t57 24l7 3q12 6 21 12q10 7 15 13q6 7 9 20q3 12 3 31v79q0 42 -18 56q-19 14 -42 14q-22 0 -34 -12t-23 -41q-8 -19 -16 -31q-9 -13 -30 -13q-19 0 -30 11t-11 26q0 29 39 50t105 21q32 0 62 -6
q31 -6 54 -19q24 -13 39 -38q15 -24 15 -62v-218q0 -47 1 -62q2 -26 4 -35q3 -11 9 -16q5 -4 15 -4q6 0 12 2q5 2 9 6l3 -6l-18 -11q-9 -6 -17 -12q-11 -9 -17 -19q-9 -15 -14 -28q-6 -16 -6 -37q0 -22 11 -36t32 -14q10 0 18 5q8 4 15 12l5 -6q-2 -2 -10 -12q-5 -7 -17 -15
q-11 -7 -27 -12q-18 -5 -39 -5q-37 0 -63 18q-25 18 -25 49q0 19 11 36q10 17 27 30q17 14 38 23q20 8 41 15h-10h-10q-76 0 -86 58q-29 -30 -52 -44q-26 -15 -66 -15zM136 113l-1 -1q0 -100 49 -100q12 0 28 11q11 8 37 32q-1 3 -1 12v200q-6 -13 -18 -21q-16 -10 -31 -17
l-7 -3q-33 -19 -44 -43q-12 -25 -12 -70z" />
    <glyph glyph-name="Cacute" unicode="&#x106;" horiz-adv-x="530" 
d="M326 -11l4 -1q-56 0 -111 23q-53 22 -96 71q-42 48 -66 121t-24 174q0 103 26 176t66 119q40 45 92 67q51 21 101 21q25 0 47 -5q18 -4 35 -11q20 -8 29 -11q15 -5 27 -5q26 0 33 28h9v-173h-9q-14 47 -31 79q-18 33 -40 52q-23 20 -48 29t-52 9q-33 0 -59 -19
q-27 -19 -48 -63t-33 -112q-12 -69 -12 -166q0 -107 14 -183q13 -73 39 -118q25 -44 60 -64q34 -19 76 -19q49 0 87 23t60 51l6 -7q-12 -15 -27 -29q-17 -15 -39 -27t-51 -21t-65 -9zM225 784l115 91q25 19 51 19q17 0 28 -12q10 -11 10 -25q0 -19 -12 -33t-43 -21l-147 -25
z" />
    <glyph glyph-name="cacute" unicode="&#x107;" horiz-adv-x="374" 
d="M229 -6l-4 -6q-41 0 -79 15t-66 45q-29 30 -45 73q-16 42 -16 101q0 60 20 108q19 46 50 78q29 31 66 46q36 15 67 15q24 0 51 -5q22 -4 42 -14q18 -9 29 -23t11 -30q0 -17 -11 -26q-10 -9 -27 -9q-25 0 -37 15q-11 14 -19 47q-4 22 -11 32q-6 9 -23 9q-40 0 -63 -53
q-23 -54 -23 -159q0 -119 30 -181q30 -61 84 -61q36 0 60 15t41 35l6 -6q-18 -22 -50 -42q-31 -19 -83 -19zM153 516l73 126q13 22 26 33t30 11q19 0 30 -11t11 -27q0 -20 -10 -33q-11 -13 -27 -24l-127 -79z" />
    <glyph glyph-name="Ccircumflex" unicode="&#x108;" horiz-adv-x="530" 
d="M326 -11l4 -1q-56 0 -111 23q-53 22 -96 71q-42 48 -66 121t-24 174q0 103 26 176t66 119q40 45 92 67q51 21 101 21q25 0 47 -5q18 -4 35 -11q20 -8 29 -11q15 -5 27 -5q26 0 33 28h9v-173h-9q-14 47 -31 79q-18 33 -40 52q-23 20 -48 29t-52 9q-33 0 -59 -19
q-27 -19 -48 -63t-33 -112q-12 -69 -12 -166q0 -107 14 -183q13 -73 39 -118q25 -44 60 -64q34 -19 76 -19q49 0 87 23t60 51l6 -7q-12 -15 -27 -29q-17 -15 -39 -27t-51 -21t-65 -9zM316 902l127 -119l-3 -6l-124 39l-124 -39l-3 6z" />
    <glyph glyph-name="ccircumflex" unicode="&#x109;" horiz-adv-x="374" 
d="M229 -6l-4 -6q-41 0 -79 15t-66 45q-29 30 -45 73q-16 42 -16 101q0 60 20 108q19 46 50 78q29 31 66 46q36 15 67 15q24 0 51 -5q22 -4 42 -14q18 -9 29 -23t11 -30q0 -17 -11 -26q-10 -9 -27 -9q-25 0 -37 15q-11 14 -19 47q-4 22 -11 32q-6 9 -23 9q-40 0 -63 -53
q-23 -54 -23 -159q0 -119 30 -181q30 -61 84 -61q36 0 60 15t41 35l6 -6q-18 -22 -50 -42q-31 -19 -83 -19zM217 691l110 -177l-6 -5l-104 71l-104 -71l-6 5z" />
    <glyph glyph-name="Cdotaccent" unicode="&#x10a;" horiz-adv-x="530" 
d="M326 -11l4 -1q-56 0 -111 23q-53 22 -96 71q-42 48 -66 121t-24 174q0 103 26 176t66 119q40 45 92 67q51 21 101 21q25 0 47 -5q18 -4 35 -11q20 -8 29 -11q15 -5 27 -5q26 0 33 28h9v-173h-9q-14 47 -31 79q-18 33 -40 52q-23 20 -48 29t-52 9q-33 0 -59 -19
q-27 -19 -48 -63t-33 -112q-12 -69 -12 -166q0 -107 14 -183q13 -73 39 -118q25 -44 60 -64q34 -19 76 -19q49 0 87 23t60 51l6 -7q-12 -15 -27 -29q-17 -15 -39 -27t-51 -21t-65 -9zM314 784v-1q-26 0 -44 18t-18 44t18 44t44 18t44 -18t18 -43q0 -26 -18 -44t-44 -18z" />
    <glyph glyph-name="cdotaccent" unicode="&#x10b;" horiz-adv-x="374" 
d="M229 -6l-4 -6q-41 0 -79 15t-66 45q-29 30 -45 73q-16 42 -16 101q0 60 20 108q19 46 50 78q29 31 66 46q36 15 67 15q24 0 51 -5q22 -4 42 -14q18 -9 29 -23t11 -30q0 -17 -11 -26q-10 -9 -27 -9q-25 0 -37 15q-11 14 -19 47q-4 22 -11 32q-6 9 -23 9q-40 0 -63 -53
q-23 -54 -23 -159q0 -119 30 -181q30 -61 84 -61q36 0 60 15t41 35l6 -6q-18 -22 -50 -42q-31 -19 -83 -19zM216 524v-1q-26 0 -44 18t-18 44t18 44t44 18t44 -18t18 -43q0 -26 -18 -44t-44 -18z" />
    <glyph glyph-name="Ccaron" unicode="&#x10c;" horiz-adv-x="530" 
d="M326 -11l4 -1q-56 0 -111 23q-53 22 -96 71q-42 48 -66 121t-24 174q0 103 26 176t66 119q40 45 92 67q51 21 101 21q25 0 47 -5q18 -4 35 -11q20 -8 29 -11q15 -5 27 -5q26 0 33 28h9v-173h-9q-14 47 -31 79q-18 33 -40 52q-23 20 -48 29t-52 9q-33 0 -59 -19
q-27 -19 -48 -63t-33 -112q-12 -69 -12 -166q0 -107 14 -183q13 -73 39 -118q25 -44 60 -64q34 -19 76 -19q49 0 87 23t60 51l6 -7q-12 -15 -27 -29q-17 -15 -39 -27t-51 -21t-65 -9zM193 908l124 -39l124 39l3 -6l-127 -119l-127 119z" />
    <glyph glyph-name="ccaron" unicode="&#x10d;" horiz-adv-x="374" 
d="M229 -6l-4 -6q-41 0 -79 15t-66 45q-29 30 -45 73q-16 42 -16 101q0 60 20 108q19 46 50 78q29 31 66 46q36 15 67 15q24 0 51 -5q22 -4 42 -14q18 -9 29 -23t11 -30q0 -17 -11 -26q-10 -9 -27 -9q-25 0 -37 15q-11 14 -19 47q-4 22 -11 32q-6 9 -23 9q-40 0 -63 -53
q-23 -54 -23 -159q0 -119 30 -181q30 -61 84 -61q36 0 60 15t41 35l6 -6q-18 -22 -50 -42q-31 -19 -83 -19zM112 696l104 -71l104 71l6 -4l-110 -178l-110 178z" />
    <glyph glyph-name="Dcaron" unicode="&#x10e;" horiz-adv-x="608" 
d="M17 7l-2 -3q16 4 25 12q9 7 13 28t6 59q1 25 1 105v330q0 80 -1 106q-1 39 -6 60t-13 27q-11 7 -25 11v7h203q79 0 144 -22q67 -23 114 -67q48 -45 75 -114t27 -162q0 -88 -24 -160t-70 -121t-112 -76t-152 -27h-203v7zM187 738l-1 -734h31q55 0 98 20q42 19 69 65
q28 46 41 117q14 75 14 177q0 109 -18 178t-48 108t-70 54q-41 15 -85 15h-31zM137 905l124 -39l124 39l3 -6l-127 -119l-127 119z" />
    <glyph glyph-name="dcaron" unicode="&#x10f;" horiz-adv-x="474" 
d="M189 -7l-1 -2q-29 0 -60 14q-29 13 -52 41q-22 27 -36 71q-14 45 -14 104q0 63 18 111q17 46 47 79q29 32 65 47t73 15q26 0 47 -9t38 -23v146v54q0 21 -4 30q-4 10 -12 13q-6 2 -21 4v7l149 82v-648v-60q0 -22 3 -34q3 -11 11 -18q8 -6 21 -9v-7h-148v71
q-33 -37 -61 -58t-63 -21zM141 232h-1q0 -60 6 -102q6 -40 17 -69q11 -27 24 -39t29 -12q17 0 39 17q23 18 56 54v346q-20 18 -37 26q-20 9 -45 9q-40 0 -64 -55t-24 -175zM458 555l6 140q3 68 43 68q37 0 37 -40q0 -10 -3 -22q-3 -10 -8 -21l-68 -127z" />
    <glyph glyph-name="Dcroat" unicode="&#x110;" horiz-adv-x="608" 
d="M18 7l-2 -3q16 4 25 12q9 7 13 28t6 59q1 25 1 105v177h-67v8h67v145q0 80 -1 106q-2 39 -6 60q-5 21 -13 27q-11 7 -25 11v7h203q79 0 144 -22q67 -23 114 -67q48 -45 75 -114t27 -162q0 -88 -24 -160t-70 -121t-112 -76t-152 -27h-203v7zM188 5l30 -1q55 0 98 20
q42 19 69 65q28 46 41 117q14 75 14 177q0 109 -18 178t-48 108t-70 54t-85 15h-31v-346h114v-8h-114v-379z" />
    <glyph glyph-name="dcroat" unicode="&#x111;" horiz-adv-x="474" 
d="M196 576h293v-9h-293v9zM189 -7l-1 -2q-29 0 -60 14q-29 13 -52 41q-22 27 -36 71q-14 45 -14 104q0 63 18 111q17 46 47 79q29 32 65 47t73 15q26 0 47 -9t38 -23v146v54q0 21 -4 30q-4 10 -12 13q-6 2 -21 4v7l149 82v-648v-60q0 -22 3 -34q3 -11 11 -18q8 -6 21 -9v-7
h-148v71q-33 -37 -61 -58t-63 -21zM141 232h-1q0 -60 6 -102q6 -40 17 -69q11 -27 24 -39t29 -12q17 0 39 17q23 18 56 54v346q-20 18 -37 26q-20 9 -45 9q-40 0 -64 -55t-24 -175z" />
    <glyph glyph-name="Emacron" unicode="&#x112;" horiz-adv-x="495" 
d="M17 7l-4 -4q16 4 25 12q9 7 13 28t6 59q1 25 1 105v330q0 80 -1 106q-1 39 -6 60t-13 27q-11 7 -25 11v7h404q8 0 11 -3t6 -18l18 -101h-9q-12 35 -27 56q-16 22 -37 35q-23 14 -55 18q-37 5 -79 5h-60v-322h20q35 0 56 6q22 6 32 18q11 12 15 27q3 10 9 32h7v-175h-7
q-6 22 -9 32q-4 15 -15 27t-31 18q-21 6 -55 6h-20v-401h71q49 0 87 5q35 5 59 18t39 38q16 25 26 65h9l-12 -117q-2 -13 -6 -15q-6 -2 -12 -2h-431v7zM346 794h-207v48h207v-48z" />
    <glyph glyph-name="emacron" unicode="&#x113;" horiz-adv-x="396" 
d="M234 -6l-2 -2q-41 0 -81 14q-39 14 -69 42t-48 74q-18 45 -18 110q0 61 20 107q20 45 48 75q29 30 62 44q34 14 62 14q43 0 74 -14t50 -36q21 -24 29 -49q10 -29 11 -53h-236q-3 -32 -3 -72q0 -52 6 -96t21 -75t37 -49q23 -18 56 -18q38 0 62 12t43 28l5 -7
q-19 -17 -48 -33q-28 -16 -81 -16zM209 464v1q-25 0 -45 -30t-27 -106h136q-3 63 -15 99t-49 36zM311 607v-47h-194v47h194z" />
    <glyph glyph-name="Ebreve" unicode="&#x114;" horiz-adv-x="495" 
d="M17 7l-4 -4q16 4 25 12q9 7 13 28t6 59q1 25 1 105v330q0 80 -1 106q-1 39 -6 60t-13 27q-11 7 -25 11v7h404q8 0 11 -3t6 -18l18 -101h-9q-12 35 -27 56q-16 22 -37 35q-23 14 -55 18q-37 5 -79 5h-60v-322h20q35 0 56 6q22 6 32 18q11 12 15 27q3 10 9 32h7v-175h-7
q-6 22 -9 32q-4 15 -15 27t-31 18q-21 6 -55 6h-20v-401h71q49 0 87 5q35 5 59 18t39 38q16 25 26 65h9l-12 -117q-2 -13 -6 -15q-6 -2 -12 -2h-431v7zM243 848l2 1q35 0 54 12t30 35h9q-2 -53 -25 -84q-24 -31 -69 -31t-69 30q-23 29 -25 84h9q11 -23 30 -35t54 -12z" />
    <glyph glyph-name="ebreve" unicode="&#x115;" horiz-adv-x="396" 
d="M234 -6l-2 -2q-41 0 -81 14q-39 14 -69 42t-48 74q-18 45 -18 110q0 61 20 107q20 45 48 75q29 30 62 44q34 14 62 14q43 0 74 -14t50 -36q21 -24 29 -49q10 -29 11 -53h-236q-3 -32 -3 -72q0 -52 6 -96t21 -75t37 -49q23 -18 56 -18q38 0 62 12t43 28l5 -7
q-19 -17 -48 -33q-28 -16 -81 -16zM209 464v1q-25 0 -45 -30t-27 -106h136q-3 63 -15 99t-49 36zM214 594l-3 -2q38 0 55 16q19 17 26 36h9q0 -20 -5 -43q-5 -21 -16 -37q-12 -17 -28 -27t-39 -10q-25 0 -41 10t-28 27q-11 15 -16 38t-5 44h9q6 -19 25 -35q20 -17 57 -17z
" />
    <glyph glyph-name="Edotaccent" unicode="&#x116;" horiz-adv-x="495" 
d="M17 7l-4 -4q16 4 25 12q9 7 13 28t6 59q1 25 1 105v330q0 80 -1 106q-1 39 -6 60t-13 27q-11 7 -25 11v7h404q8 0 11 -3t6 -18l18 -101h-9q-12 35 -27 56q-16 22 -37 35q-23 14 -55 18q-37 5 -79 5h-60v-322h20q35 0 56 6q22 6 32 18q11 12 15 27q3 10 9 32h7v-175h-7
q-6 22 -9 32q-4 15 -15 27t-31 18q-21 6 -55 6h-20v-401h71q49 0 87 5q35 5 59 18t39 38q16 25 26 65h9l-12 -117q-2 -13 -6 -15q-6 -2 -12 -2h-431v7zM243 781v-1q-26 0 -44 18t-18 44t18 44t44 18t44 -18t18 -43q0 -26 -18 -44t-44 -18z" />
    <glyph glyph-name="edotaccent" unicode="&#x117;" horiz-adv-x="396" 
d="M234 -6l-2 -2q-41 0 -81 14q-39 14 -69 42t-48 74q-18 45 -18 110q0 61 20 107q20 45 48 75q29 30 62 44q34 14 62 14q43 0 74 -14t50 -36q21 -24 29 -49q10 -29 11 -53h-236q-3 -32 -3 -72q0 -52 6 -96t21 -75t37 -49q23 -18 56 -18q38 0 62 12t43 28l5 -7
q-19 -17 -48 -33q-28 -16 -81 -16zM209 464v1q-25 0 -45 -30t-27 -106h136q-3 63 -15 99t-49 36zM214 529v-1q-26 0 -44 18t-18 44t18 44t44 18t44 -18t18 -43q0 -26 -18 -44t-44 -18z" />
    <glyph glyph-name="Eogonek" unicode="&#x118;" horiz-adv-x="495" 
d="M17 7l-4 -4q16 4 25 12q9 7 13 28t6 59q1 25 1 105v330q0 80 -1 106q-1 39 -6 60t-13 27q-11 7 -25 11v7h404q8 0 11 -3t6 -18l18 -101h-9q-12 35 -27 56q-16 22 -37 35q-23 14 -55 18q-37 5 -79 5h-60v-322h20q35 0 56 6q22 6 32 18q11 12 15 27q3 10 9 32h7v-175h-7
q-6 22 -9 32q-4 15 -15 27t-31 18q-21 6 -55 6h-20v-401h71q49 0 87 5q35 5 59 18t39 38q16 25 26 65h9l-12 -117q-2 -13 -6 -15q-6 -2 -12 -2h-431v7zM328 -180l-1 -2q-37 0 -63 18q-25 18 -25 49q0 21 14 40t33 32q21 15 42 23q27 11 40 14h12q-14 -13 -27 -34
q-13 -22 -13 -57q0 -23 12 -36q12 -14 32 -14q12 0 20 5q8 4 15 12l5 -6l-12 -12q-8 -8 -18 -15t-27 -12q-18 -5 -39 -5z" />
    <glyph glyph-name="eogonek" unicode="&#x119;" horiz-adv-x="396" 
d="M339 -133l-3 -7l-12 -12q-8 -8 -18 -15t-27 -12q-18 -5 -39 -5q-38 0 -63 18t-25 49q0 19 11 36q10 16 29 30q18 13 39 24t42 18q-7 -1 -18 -3q-7 -1 -24 -1q-41 0 -81 14q-39 13 -69 42q-30 28 -48 74q-18 45 -18 110q0 61 20 107q19 45 48 75t62 44q34 14 62 14
q43 0 74 -14t50 -36q21 -24 29 -49q10 -29 11 -53h-236q-3 -31 -3 -72q0 -53 6 -96t21 -75q15 -31 37 -49t56 -18q38 0 62 12t43 28l5 -7q-8 -8 -18 -15t-27 -15q-12 -5 -21 -13q-12 -10 -20 -21q-9 -12 -15 -29t-6 -39q0 -24 12 -37t32 -13q12 0 20 5q7 5 15 12zM208 459v1
q-26 0 -45 -30q-20 -30 -27 -106h136q-3 63 -15 99t-49 36z" />
    <glyph glyph-name="Ecaron" unicode="&#x11a;" horiz-adv-x="495" 
d="M17 7l-4 -4q16 4 25 12q9 7 13 28t6 59q1 25 1 105v330q0 80 -1 106q-1 39 -6 60t-13 27q-11 7 -25 11v7h404q8 0 11 -3t6 -18l18 -101h-9q-12 35 -27 56q-16 22 -37 35q-23 14 -55 18q-37 5 -79 5h-60v-322h20q35 0 56 6q22 6 32 18q11 12 15 27q3 10 9 32h7v-175h-7
q-6 22 -9 32q-4 15 -15 27t-31 18q-21 6 -55 6h-20v-401h71q49 0 87 5q35 5 59 18t39 38q16 25 26 65h9l-12 -117q-2 -13 -6 -15q-6 -2 -12 -2h-431v7zM120 905l124 -39l124 39l3 -6l-127 -119l-127 119z" />
    <glyph glyph-name="ecaron" unicode="&#x11b;" horiz-adv-x="396" 
d="M234 -6l-2 -2q-41 0 -81 14q-39 14 -69 42t-48 74q-18 45 -18 110q0 61 20 107q20 45 48 75q29 30 62 44q34 14 62 14q43 0 74 -14t50 -36q21 -24 29 -49q10 -29 11 -53h-236q-3 -32 -3 -72q0 -52 6 -96t21 -75t37 -49q23 -18 56 -18q38 0 62 12t43 28l5 -7
q-19 -17 -48 -33q-28 -16 -81 -16zM209 464v1q-25 0 -45 -30t-27 -106h136q-3 63 -15 99t-49 36zM110 701l104 -71l104 71l6 -4l-110 -178l-110 178z" />
    <glyph glyph-name="Gcircumflex" unicode="&#x11c;" horiz-adv-x="605" 
d="M328 -12l-6 -2q-66 0 -121 27t-94 78q-38 50 -61 123q-22 70 -22 164q0 98 27 170q26 70 71 118q44 46 96 69q54 23 104 23q30 0 51 -6q23 -7 38 -12q22 -8 32 -12q15 -6 32 -6q19 0 26 27h8v-174h-8q-19 85 -66 129t-112 44q-36 0 -66 -18t-51 -60t-33 -111t-12 -169
q0 -99 11 -178q10 -73 32 -123q21 -47 51 -70q29 -22 69 -22q54 0 77 39q23 40 23 129v23q0 35 -2 71q-2 28 -7 42q-6 16 -15 23q-8 7 -24 10v7h217v-7q-17 -3 -25 -10q-10 -8 -14 -27q-5 -20 -6 -55q-1 -24 -1 -97v-57q-15 -19 -40 -37q-28 -20 -55 -32q-26 -12 -62 -22
q-32 -9 -62 -9zM319 901l127 -119l-3 -6l-124 39l-124 -39l-3 6z" />
    <glyph glyph-name="gcircumflex" unicode="&#x11d;" horiz-adv-x="398" 
d="M189 161l-2 -3q-18 0 -41 5q-20 4 -41 14l-9 -7q-18 -15 -23 -21q-6 -7 -6 -15t10 -15q11 -7 45 -15l135 -21q40 -6 65 -18q26 -12 41 -27t21 -33t6 -37q0 -34 -15 -61t-42 -45t-63 -27t-78 -9q-34 0 -69 6q-34 6 -61 18q-26 12 -43 30q-16 17 -16 44q0 14 8 27t21 23
q11 9 30 19q11 6 33 16q-34 13 -49 34t-15 47q0 15 6 27q7 13 15 23q9 10 19 19q14 12 21 17l9 7q-31 17 -54 48t-21 81q0 41 15 71q15 31 39 50t54 30q29 10 57 10q21 0 44 -6q21 -6 42 -17q49 42 84 42q40 0 40 -36q0 -16 -9 -25t-20 -9q-10 0 -18 5q-5 3 -15 11t-15 11
q-8 5 -15 5q-14 0 -24 -7q32 -20 53 -53t21 -81q0 -41 -16 -69q-17 -29 -42 -47q-26 -18 -55 -27q-30 -9 -57 -9zM187 167h1q12 0 23 7q12 8 21 24t15 44q6 27 6 68q0 40 -6 69t-15 47t-21 27t-24 9q-25 0 -45 -35t-20 -117q0 -41 6 -68q6 -28 15 -44t21 -24q11 -7 23 -7z
M64 -71v-3q0 -46 31 -70t96 -24q76 0 116 26q39 26 39 60q0 29 -27 41q-29 13 -87 23l-98 15q-21 3 -30 7q-22 -10 -31 -30t-9 -45zM190 691l110 -177l-6 -5l-104 71l-104 -71l-6 5z" />
    <glyph glyph-name="Gbreve" unicode="&#x11e;" horiz-adv-x="605" 
d="M328 -12l-6 -2q-66 0 -121 27t-94 78q-38 50 -61 123q-22 70 -22 164q0 98 27 170q26 70 71 118q44 46 96 69q54 23 104 23q30 0 51 -6q23 -7 38 -12q22 -8 32 -12q15 -6 32 -6q19 0 26 27h8v-174h-8q-19 85 -66 129t-112 44q-36 0 -66 -18t-51 -60t-33 -111t-12 -169
q0 -99 11 -178q10 -73 32 -123q21 -47 51 -70q29 -22 69 -22q54 0 77 39q23 40 23 129v23q0 35 -2 71q-2 28 -7 42q-6 16 -15 23q-8 7 -24 10v7h217v-7q-17 -3 -25 -10q-10 -8 -14 -27q-5 -20 -6 -55q-1 -24 -1 -97v-57q-15 -19 -40 -37q-28 -20 -55 -32q-26 -12 -62 -22
q-32 -9 -62 -9zM320 850l2 1q34 0 54 12q19 12 30 35h9q-2 -53 -25 -84q-24 -31 -69 -31t-69 30q-23 29 -25 84h9q11 -23 30 -35q20 -12 54 -12z" />
    <glyph glyph-name="gbreve" unicode="&#x11f;" horiz-adv-x="398" 
d="M189 161l-2 -3q-18 0 -41 5q-20 4 -41 14l-9 -7q-18 -15 -23 -21q-6 -7 -6 -15t10 -15q11 -7 45 -15l135 -21q40 -6 65 -18q26 -12 41 -27t21 -33t6 -37q0 -34 -15 -61t-42 -45t-63 -27t-78 -9q-34 0 -69 6q-34 6 -61 18q-26 12 -43 30q-16 17 -16 44q0 14 8 27t21 23
q11 9 30 19q11 6 33 16q-34 13 -49 34t-15 47q0 15 6 27q7 13 15 23q9 10 19 19q14 12 21 17l9 7q-31 17 -54 48t-21 81q0 41 15 71q15 31 39 50t54 30q29 10 57 10q21 0 44 -6q21 -6 42 -17q49 42 84 42q40 0 40 -36q0 -16 -9 -25t-20 -9q-10 0 -18 5q-5 3 -15 11t-15 11
q-8 5 -15 5q-14 0 -24 -7q32 -20 53 -53t21 -81q0 -41 -16 -69q-17 -29 -42 -47q-26 -18 -55 -27q-30 -9 -57 -9zM187 167h1q12 0 23 7q12 8 21 24t15 44q6 27 6 68q0 40 -6 69t-15 47t-21 27t-24 9q-25 0 -45 -35t-20 -117q0 -41 6 -68q6 -28 15 -44t21 -24q11 -7 23 -7z
M64 -71v-3q0 -46 31 -70t96 -24q76 0 116 26q39 26 39 60q0 29 -27 41q-29 13 -87 23l-98 15q-21 3 -30 7q-22 -10 -31 -30t-9 -45zM190 589l-3 -2q38 0 55 16q19 17 26 36h9q0 -20 -5 -43q-5 -21 -16 -37q-12 -17 -28 -27t-39 -10q-25 0 -41 10t-28 27q-11 15 -16 38t-5 44
h9q6 -19 25 -35q20 -17 57 -17z" />
    <glyph glyph-name="Gdotaccent" unicode="&#x120;" horiz-adv-x="605" 
d="M328 -12l-6 -2q-66 0 -121 27t-94 78q-38 50 -61 123q-22 70 -22 164q0 98 27 170q26 70 71 118q44 46 96 69q54 23 104 23q30 0 51 -6q23 -7 38 -12q22 -8 32 -12q15 -6 32 -6q19 0 26 27h8v-174h-8q-19 85 -66 129t-112 44q-36 0 -66 -18t-51 -60t-33 -111t-12 -169
q0 -99 11 -178q10 -73 32 -123q21 -47 51 -70q29 -22 69 -22q54 0 77 39q23 40 23 129v23q0 35 -2 71q-2 28 -7 42q-6 16 -15 23q-8 7 -24 10v7h217v-7q-17 -3 -25 -10q-10 -8 -14 -27q-5 -20 -6 -55q-1 -24 -1 -97v-57q-15 -19 -40 -37q-28 -20 -55 -32q-26 -12 -62 -22
q-32 -9 -62 -9zM319 783v-1q-26 0 -44 18t-18 44t18 44t44 18t44 -18t18 -43q0 -26 -18 -44t-44 -18z" />
    <glyph glyph-name="gdotaccent" unicode="&#x121;" horiz-adv-x="398" 
d="M189 161l-2 -3q-18 0 -41 5q-20 4 -41 14l-9 -7q-18 -15 -23 -21q-6 -7 -6 -15t10 -15q11 -7 45 -15l135 -21q40 -6 65 -18q26 -12 41 -27t21 -33t6 -37q0 -34 -15 -61t-42 -45t-63 -27t-78 -9q-34 0 -69 6q-34 6 -61 18q-26 12 -43 30q-16 17 -16 44q0 14 8 27t21 23
q11 9 30 19q11 6 33 16q-34 13 -49 34t-15 47q0 15 6 27q7 13 15 23q9 10 19 19q14 12 21 17l9 7q-31 17 -54 48t-21 81q0 41 15 71q15 31 39 50t54 30q29 10 57 10q21 0 44 -6q21 -6 42 -17q49 42 84 42q40 0 40 -36q0 -16 -9 -25t-20 -9q-10 0 -18 5q-5 3 -15 11t-15 11
q-8 5 -15 5q-14 0 -24 -7q32 -20 53 -53t21 -81q0 -41 -16 -69q-17 -29 -42 -47q-26 -18 -55 -27q-30 -9 -57 -9zM187 167h1q12 0 23 7q12 8 21 24t15 44q6 27 6 68q0 40 -6 69t-15 47t-21 27t-24 9q-25 0 -45 -35t-20 -117q0 -41 6 -68q6 -28 15 -44t21 -24q11 -7 23 -7z
M64 -71v-3q0 -46 31 -70t96 -24q76 0 116 26q39 26 39 60q0 29 -27 41q-29 13 -87 23l-98 15q-21 3 -30 7q-22 -10 -31 -30t-9 -45zM189 524v-1q-26 0 -44 18t-18 44t18 44t44 18t44 -18t18 -43q0 -26 -18 -44t-44 -18z" />
    <glyph glyph-name="uni0122" unicode="&#x122;" horiz-adv-x="605" 
d="M328 -12l-6 -2q-66 0 -121 27t-94 78q-38 50 -61 123q-22 70 -22 164q0 98 27 170q26 70 71 118q44 46 96 69q54 23 104 23q30 0 51 -6q23 -7 38 -12q22 -8 32 -12q15 -6 32 -6q19 0 26 27h8v-174h-8q-19 85 -66 129t-112 44q-36 0 -66 -18t-51 -60t-33 -111t-12 -169
q0 -99 11 -178q10 -73 32 -123q21 -47 51 -70q29 -22 69 -22q54 0 77 39q23 40 23 129v23q0 35 -2 71q-2 28 -7 42q-6 16 -15 23q-8 7 -24 10v7h217v-7q-17 -3 -25 -10q-10 -8 -14 -27q-5 -20 -6 -55q-1 -24 -1 -97v-57q-15 -19 -40 -37q-28 -20 -55 -32q-26 -12 -62 -22
q-32 -9 -62 -9zM356 -118q-4 -5 -15 -13q-10 -7 -28 -7q-19 0 -35 14q-15 14 -15 36q0 25 17 39t38 14q25 0 45 -17t20 -54q0 -39 -24 -63q-23 -23 -66 -28l-3 7q38 6 54 24q17 19 17 35q0 10 -5 13z" />
    <glyph glyph-name="uni0123" unicode="&#x123;" horiz-adv-x="398" 
d="M189 161l-2 -3q-18 0 -41 5q-20 4 -41 14l-9 -7q-18 -15 -23 -21q-6 -7 -6 -15t10 -15q11 -7 45 -15l135 -21q40 -6 65 -18q26 -12 41 -27t21 -33t6 -37q0 -34 -15 -61t-42 -45t-63 -27t-78 -9q-34 0 -69 6q-34 6 -61 18q-26 12 -43 30q-16 17 -16 44q0 14 8 27t21 23
q11 9 30 19q11 6 33 16q-34 13 -49 34t-15 47q0 15 6 27q7 13 15 23q9 10 19 19q14 12 21 17l9 7q-31 17 -54 48t-21 81q0 41 15 71q15 31 39 50t54 30q29 10 57 10q21 0 44 -6q21 -6 42 -17q49 42 84 42q40 0 40 -36q0 -16 -9 -25t-20 -9q-10 0 -18 5q-5 3 -15 11t-15 11
q-8 5 -15 5q-14 0 -24 -7q32 -20 53 -53t21 -81q0 -41 -16 -69q-17 -29 -42 -47q-26 -18 -55 -27q-30 -9 -57 -9zM187 167h1q12 0 23 7q12 8 21 24t15 44q6 27 6 68q0 40 -6 69t-15 47t-21 27t-24 9q-25 0 -45 -35t-20 -117q0 -41 6 -68q6 -28 15 -44t21 -24q11 -7 23 -7z
M64 -71v-3q0 -46 31 -70t96 -24q76 0 116 26q39 26 39 60q0 29 -27 41q-29 13 -87 23l-98 15q-21 3 -30 7q-22 -10 -31 -30t-9 -45zM150 608v-2q3 5 13 12q11 8 28 8q22 0 36 -13q15 -13 15 -36q0 -25 -17 -39t-38 -14q-25 0 -45 17t-20 54q0 39 24 63q23 23 66 28l3 -7
q-37 -6 -54 -24q-16 -17 -16 -35q0 -10 5 -12z" />
    <glyph glyph-name="Hcircumflex" unicode="&#x124;" horiz-adv-x="616" 
d="M17 7l-1 -4q16 4 25 12q8 7 13 27q4 19 6 59q1 26 1 107v330q0 80 -1 106q-2 40 -6 59q-5 20 -13 27q-9 8 -25 12v7h214v-7q-16 -4 -25 -12q-8 -7 -13 -27q-4 -19 -6 -59q-1 -26 -1 -106v-125h242v125q0 80 -1 106q-2 40 -6 59q-5 20 -13 27q-9 8 -25 12v7h213v-7
q-15 -4 -24 -12q-8 -7 -13 -27q-4 -19 -6 -59q-1 -26 -1 -106v-330q0 -80 1 -106q1 -38 6 -58q4 -19 14 -27q9 -7 24 -12v-7h-213v7q16 4 25 12q8 7 13 27q4 19 6 59q1 26 1 107v197h-242v-197q0 -80 1 -106q1 -38 6 -58t13 -27q9 -8 25 -12v-7h-214v7zM307 899l127 -119
l-3 -6l-124 39l-124 -39l-3 6z" />
    <glyph glyph-name="hcircumflex" unicode="&#x125;" horiz-adv-x="460" 
d="M14 7h-6q11 3 19 9t11 18t3 35v60v457q0 41 -1 54q-2 22 -4 30q-3 10 -11 13q-6 2 -21 4v8l148 83v-394l7 7q41 42 72 63t71 21q16 0 36 -6q21 -6 35 -19q16 -14 26 -36q11 -24 11 -57v-231v-60q0 -22 3 -34t10 -18t21 -9v-7h-183v7q13 3 21 9t12 18t6 35q1 15 1 60v263
q0 34 -12 46t-26 12q-13 0 -37 -15t-61 -55l-7 -7v-243v-60q0 -21 5 -34q5 -12 12 -18t21 -9v-7h-182v7zM235 920l127 -119l-3 -6l-124 39l-124 -39l-3 6z" />
    <glyph glyph-name="Hbar" unicode="&#x126;" horiz-adv-x="617" 
d="M-7 577h631v-8h-631v8zM17 7l-1 -4q16 4 25 12q8 7 13 27q4 19 6 59q1 26 1 107v330q0 80 -1 106q-2 40 -6 59q-5 20 -13 27q-9 8 -25 12v7h214v-7q-16 -4 -25 -12q-8 -7 -13 -27q-4 -19 -6 -59q-1 -26 -1 -106v-125h242v125q0 80 -1 106q-2 40 -6 59q-5 20 -13 27
q-9 8 -25 12v7h213v-7q-15 -4 -24 -12q-8 -7 -13 -27q-4 -19 -6 -59q-1 -26 -1 -106v-330q0 -80 1 -106q1 -38 6 -58q4 -19 14 -27q9 -7 24 -12v-7h-213v7q16 4 25 12q8 7 13 27q4 19 6 59q1 26 1 107v197h-242v-197q0 -80 1 -106q1 -38 6 -58t13 -27q9 -8 25 -12v-7h-214v7
z" />
    <glyph glyph-name="hbar" unicode="&#x127;" horiz-adv-x="460" 
d="M-17 567v9h293v-9h-293zM14 7h-6q11 3 19 9t11 18t3 35v60v457q0 41 -1 54q-2 22 -4 30q-3 10 -11 13q-6 2 -21 4v8l148 83v-394l7 7q41 42 72 63t71 21q16 0 36 -6q21 -6 35 -19q16 -14 26 -36q11 -24 11 -57v-231v-60q0 -22 3 -34t10 -18t21 -9v-7h-183v7q13 3 21 9
t12 18t6 35q1 15 1 60v263q0 34 -12 46t-26 12q-13 0 -37 -15t-61 -55l-7 -7v-243v-60q0 -21 5 -34q5 -12 12 -18t21 -9v-7h-182v7z" />
    <glyph glyph-name="Itilde" unicode="&#x128;" horiz-adv-x="248" 
d="M17 7v-1q16 4 25 12q9 7 13 28t6 59q1 25 1 105v330q0 80 -1 106q-2 40 -6 59q-5 20 -13 27q-9 8 -25 12v7h214v-7q-16 -4 -25 -12q-8 -7 -13 -27q-4 -19 -6 -59q-1 -26 -1 -106v-330q0 -80 1 -105q1 -37 6 -58q4 -21 13 -28q9 -8 25 -12v-7h-214v7zM85 870l1 -1
q21 0 53 -2t44 -2q24 0 54 40l7 -2q-10 -48 -29 -76q-18 -27 -42 -27q-18 0 -48 2t-48 2q-11 0 -24 -8t-26 -30l-7 2q14 54 30 78q17 24 35 24z" />
    <glyph glyph-name="itilde" unicode="&#x129;" horiz-adv-x="209" 
d="M14 7h-1q13 3 21 9t11 18t3 35v60v155v54q0 20 -3 30t-11 13q-9 4 -21 5v7l147 85v-350v-60q0 -21 5 -34q5 -12 12 -18t21 -9v-7h-184v7zM62 635q30 0 51 -4t44 -4q14 0 24 10q12 12 27 31l7 -3q-10 -46 -27 -76q-16 -30 -42 -30q-21 0 -46 5t-48 5q-12 0 -22 -9
q-10 -8 -27 -32l-6 3q15 51 30 77q15 27 35 27z" />
    <glyph glyph-name="Imacron" unicode="&#x12a;" horiz-adv-x="248" 
d="M17 7v-1q16 4 25 12q9 7 13 28t6 59q1 25 1 105v330q0 80 -1 106q-2 40 -6 59q-5 20 -13 27q-9 8 -25 12v7h214v-7q-16 -4 -25 -12q-8 -7 -13 -27q-4 -19 -6 -59q-1 -26 -1 -106v-330q0 -80 1 -105q1 -37 6 -58q4 -21 13 -28q9 -8 25 -12v-7h-214v7zM227 797h-207v48h207
v-48z" />
    <glyph glyph-name="imacron" unicode="&#x12b;" horiz-adv-x="209" 
d="M14 7h-1q13 3 21 9t11 18t3 35v60v155v54q0 20 -3 30t-11 13q-9 4 -21 5v7l147 85v-350v-60q0 -21 5 -34q5 -12 12 -18t21 -9v-7h-184v7zM201 608v-47h-194v47h194z" />
    <glyph glyph-name="Ibreve" unicode="&#x12c;" horiz-adv-x="248" 
d="M17 7v-1q16 4 25 12q9 7 13 28t6 59q1 25 1 105v330q0 80 -1 106q-2 40 -6 59q-5 20 -13 27q-9 8 -25 12v7h214v-7q-16 -4 -25 -12q-8 -7 -13 -27q-4 -19 -6 -59q-1 -26 -1 -106v-330q0 -80 1 -105q1 -37 6 -58q4 -21 13 -28q9 -8 25 -12v-7h-214v7zM125 851l2 1
q35 0 54 12t30 35h9q-2 -53 -25 -84q-24 -31 -69 -31t-69 30q-23 29 -25 84h9q11 -23 30 -35t54 -12z" />
    <glyph glyph-name="ibreve" unicode="&#x12d;" horiz-adv-x="209" 
d="M14 7h-1q13 3 21 9t11 18t3 35v60v155v54q0 20 -3 30t-11 13q-9 4 -21 5v7l147 85v-350v-60q0 -21 5 -34q5 -12 12 -18t21 -9v-7h-184v7zM105 595l-3 -2q38 0 55 16q19 17 26 36h9q0 -20 -5 -43q-5 -21 -16 -37q-12 -17 -28 -27t-39 -10q-25 0 -41 10t-28 27
q-11 15 -16 38t-5 44h9q6 -19 25 -35q20 -17 57 -17z" />
    <glyph glyph-name="Iogonek" unicode="&#x12e;" horiz-adv-x="248" 
d="M17 7v-1q16 4 25 12q9 7 13 28t6 59q1 25 1 105v330q0 80 -1 106q-2 40 -6 59q-5 20 -13 27q-9 8 -25 12v7h214v-7q-16 -4 -25 -12q-8 -7 -13 -27q-4 -19 -6 -59q-1 -26 -1 -106v-330q0 -80 1 -105q1 -37 6 -58q4 -21 13 -28q9 -8 25 -12v-7h-214v7zM131 -177l-1 -2
q-38 0 -63 18t-25 49q0 21 14 40t33 32q21 15 42 23q27 11 40 14h12q-14 -13 -27 -34q-13 -22 -13 -57q0 -22 12 -36t32 -14q12 0 20 5q7 5 15 12l5 -6l-12 -12q-7 -7 -18 -15t-27 -12q-18 -5 -39 -5z" />
    <glyph glyph-name="iogonek" unicode="&#x12f;" horiz-adv-x="210" 
d="M104 530v-1q-26 0 -44 18t-18 44t18 44t44 18t44 -18t18 -43q0 -26 -18 -44t-44 -18zM14 6h-1q13 3 21 9q8 7 11 18q3 12 3 35v60v155v54q0 19 -3 30q-3 10 -11 13q-9 4 -21 5v7l147 85v-350v-60q0 -21 5 -34q5 -12 12 -18t21 -9v-7h-184v7zM107 -177l-1 -2q-38 0 -63 18
t-25 49q0 21 14 40t33 32q21 15 42 23q27 11 40 14h12q-14 -13 -27 -34q-13 -22 -13 -57q0 -22 12 -36t32 -14q12 0 20 5q7 5 15 12l5 -6l-12 -12q-7 -7 -18 -15t-27 -12q-18 -5 -39 -5z" />
    <glyph glyph-name="Idotaccent" unicode="&#x130;" horiz-adv-x="248" 
d="M17 7v-1q16 4 25 12q9 7 13 28t6 59q1 25 1 105v330q0 80 -1 106q-2 40 -6 59q-5 20 -13 27q-9 8 -25 12v7h214v-7q-16 -4 -25 -12q-8 -7 -13 -27q-4 -19 -6 -59q-1 -26 -1 -106v-330q0 -80 1 -105q1 -37 6 -58q4 -21 13 -28q9 -8 25 -12v-7h-214v7zM124 784v-1
q-26 0 -44 18t-18 44t18 44t44 18t44 -18t18 -43q0 -26 -18 -44t-44 -18z" />
    <glyph glyph-name="dotlessi" unicode="&#x131;" horiz-adv-x="210" 
d="M14 7h-1q13 3 21 9t11 18t3 35v60v155v54q0 20 -3 30t-11 13q-9 4 -21 5v7l147 85v-350v-60q0 -21 5 -34q5 -12 12 -18t21 -9v-7h-184v7z" />
    <glyph glyph-name="IJ" unicode="&#x132;" horiz-adv-x="640" 
d="M17 7v-1q16 4 25 12q9 7 13 28t6 59q1 25 1 105v330q0 80 -1 106q-2 40 -6 59q-5 20 -13 27q-9 8 -25 12v7h214v-7q-16 -4 -25 -12q-8 -7 -13 -27q-4 -19 -6 -59q-1 -26 -1 -106v-330q0 -80 1 -105q1 -37 6 -58q4 -21 13 -28q9 -8 25 -12v-7h-214v7zM410 -11l1 -4
q-71 0 -113 24t-42 64q0 23 15 36q14 13 35 13q20 0 33 -13t21 -45q2 -7 4.5 -18t3.5 -15q3 -13 9 -22t14 -12q7 -3 21 -3q18 0 32 15q14 16 14 52v475q0 81 -1 107q-2 40 -6 59q-5 20 -13 27q-9 7 -24 12v7h213v-7q-15 -5 -24 -12q-8 -7 -13 -27t-6 -58q-1 -26 -1 -106
v-373q0 -44 -15 -77q-15 -32 -39 -55t-55 -33q-33 -11 -64 -11z" />
    <glyph glyph-name="ij" unicode="&#x133;" horiz-adv-x="415" 
d="M104 530v-1q-26 0 -44 18t-18 44t18 44t44 18t44 -18t18 -43q0 -26 -18 -44t-44 -18zM14 6h-1q13 3 21 9q8 7 11 18q3 12 3 35v60v155v54q0 19 -3 30q-3 10 -11 13q-9 4 -21 5v7l147 85v-350v-60q0 -21 5 -34q5 -12 12 -18t21 -9v-7h-184v7zM309 529v-1q-26 0 -44 18
t-18 44t18 44t44 18t44 -18t18 -43q0 -26 -18 -44t-44 -18zM176 -141l-1 -4q-19 0 -33 12q-13 12 -13 32q0 18 11 27q10 9 24 9q13 0 24 -8q9 -7 18 -17q10 -12 15 -17q8 -8 15 -8q5 0 9 4q5 5 7 25q1 13 1 66v299v54q0 19 -3 30t-11 14q-9 4 -21 5v7l148 85v-392
q0 -32 -4 -55q-4 -25 -15 -48t-28 -43q-18 -21 -46 -40q-31 -22 -53 -30q-20 -7 -44 -7z" />
    <glyph glyph-name="Jcircumflex" unicode="&#x134;" horiz-adv-x="392" 
d="M162 -10l1 -4q-71 0 -113 24t-42 64q0 22 15 36q14 13 35 13q20 0 33 -13q13 -14 21 -45q1 -6 4 -17.5t4 -15.5q3 -13 9 -22t14 -12q7 -3 21 -3q18 0 32 15q14 16 14 52v475q0 81 -1 107q-2 40 -6 59q-5 20 -13 27q-9 8 -24 12v7h213v-7q-15 -4 -24 -12q-8 -7 -13 -27
t-6 -58q-1 -26 -1 -106v-373q0 -44 -15 -77q-15 -32 -39 -55t-55 -33q-33 -11 -64 -11zM273 899l127 -119l-3 -6l-124 39l-124 -39l-3 6z" />
    <glyph glyph-name="jcircumflex" unicode="&#x135;" horiz-adv-x="209" 
d="M-29 -139l-3 -3q-20 0 -33 12t-13 32q0 18 11 27t24 9t24 -8q9 -7 18 -17q10 -12 15 -17q8 -8 15 -8q5 0 9 4q5 4 7 24q1 13 1 66v299v54q0 19 -3 30t-11 14q-9 4 -21 5v7l147 85v-392q0 -30 -3 -55q-3 -27 -13 -48q-11 -23 -28 -43q-18 -21 -46 -40q-31 -22 -53 -30
q-20 -7 -44 -7zM100 694l110 -177l-6 -5l-104 71l-104 -71l-6 5z" />
    <glyph glyph-name="uni0136" unicode="&#x136;" horiz-adv-x="556" 
d="M17 7v-4q16 4 25 12q8 7 13 27q4 19 6 59q1 26 1 107v330q0 80 -1 106q-2 40 -6 59q-5 20 -13 27q-9 8 -25 12v7h214v-7q-16 -4 -25 -12q-8 -7 -13 -27q-4 -19 -6 -59q-1 -26 -1 -106v-140l229 257q19 22 26 36q8 16 8 25q0 11 -7 17q-7 5 -19 10v6h106v-6
q-11 -5 -19 -10q-9 -6 -21 -15t-25 -22q-14 -14 -30 -33l-156 -174l226 -412q12 -23 18 -32q7 -11 14 -20q6 -7 12 -12q4 -3 14 -7v-6h-206v6q23 6 23 21q0 16 -21 56l-172 311v-184q0 -80 1 -106q1 -38 6 -58t13 -27q9 -8 25 -12v-7h-214v7zM314 -120q-4 -5 -15 -13
q-10 -7 -28 -7q-19 0 -35 14q-15 14 -15 36q0 25 17 39t38 14q25 0 45 -17t20 -54q0 -39 -24 -63q-23 -23 -66 -28l-3 7q38 6 54 24q17 19 17 35q0 10 -5 13z" />
    <glyph glyph-name="uni0137" unicode="&#x137;" horiz-adv-x="431" 
d="M14 6h-1q11 4 19 9t11 17t3 35v60v470q0 37 -1 49q-2 20 -4 26q-3 8 -10 9q-8 2 -19 3v7l146 84v-649v-60q0 -21 5 -34t12 -17q7 -5 21 -9v-6h-182v6zM255 6l4 2q18 4 21 15t-12 39l-103 187v6l150 147q29 30 21 44t-30 17v6h109v-6q-12 -3 -19 -7t-19 -12
q-13 -10 -24 -19q-13 -12 -33 -30l-77 -75l150 -265q13 -24 23 -36q8 -10 18 -13v-6h-179v6zM261 -114q-4 -5 -15 -13q-10 -7 -28 -7q-19 0 -35 14q-15 14 -15 36q0 25 17 39t38 14q25 0 45 -17t20 -54q0 -39 -24 -63q-23 -23 -66 -28l-3 7q37 6 54 24q17 19 17 35
q0 10 -5 13z" />
    <glyph glyph-name="Lacute" unicode="&#x139;" horiz-adv-x="479" 
d="M17 7l-2 -5q16 4 25 12q8 7 13 27q4 19 6 59q1 26 1 107v330q0 80 -1 106q-2 40 -6 59q-5 20 -13 27q-9 8 -25 12v7h218v-7q-17 -5 -26 -12q-8 -7 -13 -27q-4 -19 -6 -59q-1 -26 -1 -106v-531h62q48 0 81 6q34 6 57 22q25 17 41 45q18 31 32 73h9l-24 -135q-3 -14 -7 -15
q-6 -2 -12 -2h-409v7zM36 780l115 91q25 19 51 19q18 0 28 -12q10 -11 10 -25q0 -19 -12 -33t-43 -21l-147 -25z" />
    <glyph glyph-name="lacute" unicode="&#x13a;" horiz-adv-x="211" 
d="M14 7l-1 -4q13 3 21 9t11 18t3 35v60v469v48q0 18 -3 27t-11 12q-6 2 -21 4v8l148 83v-648v-60q0 -21 5 -34q4 -12 12 -18t21 -9v-7h-185v7zM14 781l115 91q25 19 51 19q18 0 28 -12q10 -11 10 -25q0 -20 -12 -33q-12 -14 -43 -21l-147 -25z" />
    <glyph glyph-name="uni013B" unicode="&#x13b;" horiz-adv-x="479" 
d="M17 7l-2 -5q16 4 25 12q8 7 13 27q4 19 6 59q1 26 1 107v330q0 80 -1 106q-2 40 -6 59q-5 20 -13 27q-9 8 -25 12v7h218v-7q-17 -5 -26 -12q-8 -7 -13 -27q-4 -19 -6 -59q-1 -26 -1 -106v-531h62q48 0 81 6q34 6 57 22q25 17 41 45q18 31 32 73h9l-24 -135q-3 -14 -7 -15
q-6 -2 -12 -2h-409v7zM281 -121q-4 -5 -15 -13q-10 -7 -28 -7q-19 0 -35 14q-15 13 -15 36q0 25 17 39t38 14q25 0 45 -17t20 -54q0 -39 -24 -63q-23 -23 -66 -28l-3 7q37 6 54 24q17 19 17 35q0 10 -5 13z" />
    <glyph glyph-name="uni013C" unicode="&#x13c;" horiz-adv-x="211" 
d="M14 7l-1 -4q13 3 21 9t11 18t3 35v60v469v48q0 18 -3 27t-11 12q-6 2 -21 4v8l148 83v-648v-60q0 -21 5 -34q4 -12 12 -18t21 -9v-7h-185v7zM138 -120q-4 -5 -15 -13q-10 -7 -28 -7q-19 0 -35 14q-15 14 -15 36q0 25 17 39t38 14q25 0 45 -17t20 -54q0 -39 -24 -63
q-23 -23 -66 -28l-3 7q38 6 54 24q17 19 17 35q0 10 -5 13z" />
    <glyph glyph-name="Lcaron" unicode="&#x13d;" horiz-adv-x="479" 
d="M17 7l-2 -5q16 4 25 12q8 7 13 27q4 19 6 59q1 26 1 107v330q0 80 -1 106q-2 40 -6 59q-5 20 -13 27q-9 8 -25 12v7h218v-7q-17 -5 -26 -12q-8 -7 -13 -27q-4 -19 -6 -59q-1 -26 -1 -106v-531h62q48 0 81 6q34 6 57 22q25 17 41 45q18 31 32 73h9l-24 -135q-3 -14 -7 -15
q-6 -2 -12 -2h-409v7zM250 547l6 140q3 68 43 68q37 0 37 -40q0 -10 -3 -22q-3 -10 -8 -21l-68 -127z" />
    <glyph glyph-name="lcaron" unicode="&#x13e;" horiz-adv-x="211" 
d="M14 7l-1 -4q13 3 21 9t11 18t3 35v60v469v48q0 18 -3 27t-11 12q-6 2 -21 4v8l148 83v-648v-60q0 -21 5 -34q4 -12 12 -18t21 -9v-7h-185v7zM186 553l6 140q3 68 43 68q37 0 37 -40q0 -10 -3 -22q-3 -10 -8 -21l-68 -127z" />
    <glyph glyph-name="Ldot" unicode="&#x13f;" horiz-adv-x="479" 
d="M362 322q-28 0 -48 18q-19 18 -19 47t19 48t48 19t47 -19t18 -48t-18 -47t-47 -18zM17 7l-2 -5q16 4 25 12q8 7 13 27q4 19 6 59q1 26 1 107v330q0 80 -1 106q-2 40 -6 59q-5 20 -13 27q-9 8 -25 12v7h218v-7q-17 -5 -26 -12q-8 -7 -13 -27q-4 -19 -6 -59q-1 -26 -1 -106
v-531h62q48 0 81 6q34 6 57 22q25 17 41 45q18 31 32 73h9l-24 -135q-3 -14 -7 -15q-6 -2 -12 -2h-409v7z" />
    <glyph glyph-name="ldot" unicode="&#x140;" horiz-adv-x="300" 
d="M254 303l-1 -1q-29 0 -48 18t-19 47t19 47t48 18t47 -18t18 -46q0 -29 -18 -47t-46 -18zM13 6l-1 -4q14 3 21 9q8 7 11 18q3 12 3 35v60v469v48q0 18 -3 27t-11 12q-6 2 -21 4v8l148 83v-648v-60q0 -21 5 -34q5 -12 12 -18t21 -9v-7h-185v7z" />
    <glyph glyph-name="Lslash" unicode="&#x141;" horiz-adv-x="468" 
d="M-8 266l-4 7l350 202l5 -7zM17 7l-2 -5q16 4 25 12q8 7 13 27q4 19 6 59q1 26 1 107v330q0 80 -1 106q-2 40 -6 59q-5 20 -13 27q-9 8 -25 12v7h218v-7q-17 -5 -26 -12q-8 -7 -13 -27q-4 -19 -6 -59q-1 -26 -1 -106v-531h62q48 0 81 6q34 6 57 22q25 17 41 45
q18 31 32 73h9l-24 -135q-3 -14 -7 -15q-6 -2 -12 -2h-409v7z" />
    <glyph glyph-name="lslash" unicode="&#x142;" horiz-adv-x="211" 
d="M-13 311l-5 7l241 165l5 -8zM14 7l-1 -4q13 3 21 9t11 18t3 35v60v469v48q0 18 -3 27t-11 12q-6 2 -21 4v8l148 83v-648v-60q0 -21 5 -34q4 -12 12 -18t21 -9v-7h-185v7z" />
    <glyph glyph-name="Nacute" unicode="&#x143;" horiz-adv-x="545" 
d="M17 7h1q15 8 25 18q8 8 13 30q5 21 6 58q1 25 1 102v325q0 80 -1 106q-2 39 -6 60q-5 21 -13 27q-11 7 -25 11v7h163q9 0 12 -1q6 -2 8 -4q5 -5 8 -9q5 -6 9 -15l264 -485v299q0 77 -1 102q-1 37 -6 58t-15 30q-11 10 -28 18v7h105v-7q-15 -8 -25 -18q-8 -8 -13 -30
q-5 -21 -6 -58q-1 -25 -1 -102v-539h-26l-394 728v-510q0 -77 1 -102q1 -37 6 -58t15 -30q11 -10 28 -18v-7h-105v7zM225 785l115 91q25 19 51 19q17 0 28 -12q10 -11 10 -25q0 -20 -12 -33q-12 -14 -43 -21l-147 -25z" />
    <glyph glyph-name="nacute" unicode="&#x144;" horiz-adv-x="463" 
d="M14 7h-5q11 3 19 9t11 18t3 35v60v155q0 43 -1 56q-2 22 -4 30q-3 10 -11 13q-9 4 -21 5v7l148 85v-100l11 11q40 42 72 63t72 21q16 0 36 -6q21 -6 35 -19q16 -14 26 -36q11 -24 11 -57v-231v-60q0 -22 3 -34t10 -18q8 -6 19 -9v-7h-184v7q14 3 21 9t12 18q4 12 6 35
q1 15 1 60v263q0 34 -12 46t-26 12t-36 -15q-24 -16 -60 -55l-11 -11v-239v-60q0 -21 5 -34q4 -12 12 -18t21 -9v-7h-183v7zM174 522l73 126q13 22 26 33t30 11q19 0 30 -11t11 -27q0 -20 -10 -33t-27 -24l-127 -79z" />
    <glyph glyph-name="uni0145" unicode="&#x145;" horiz-adv-x="545" 
d="M17 7h1q15 8 25 18q8 8 13 30q5 21 6 58q1 25 1 102v325q0 80 -1 106q-2 39 -6 60q-5 21 -13 27q-11 7 -25 11v7h163q9 0 12 -1q6 -2 8 -4q5 -5 8 -9q5 -6 9 -15l264 -485v299q0 77 -1 102q-1 37 -6 58t-15 30q-11 10 -28 18v7h105v-7q-15 -8 -25 -18q-8 -8 -13 -30
q-5 -21 -6 -58q-1 -25 -1 -102v-539h-26l-394 728v-510q0 -77 1 -102q1 -37 6 -58t15 -30q11 -10 28 -18v-7h-105v7zM306 -116q-4 -5 -15 -13q-10 -7 -28 -7q-19 0 -35 14q-15 14 -15 36q0 25 17 39t38 14q25 0 45 -17t20 -54q0 -39 -24 -63q-23 -23 -66 -28l-3 7
q38 6 54 24q17 19 17 35q0 10 -5 13z" />
    <glyph glyph-name="uni0146" unicode="&#x146;" horiz-adv-x="463" 
d="M14 7h-5q11 3 19 9t11 18t3 35v60v155q0 43 -1 56q-2 22 -4 30q-3 10 -11 13q-9 4 -21 5v7l148 85v-100l11 11q40 42 72 63t72 21q16 0 36 -6q21 -6 35 -19q16 -14 26 -36q11 -24 11 -57v-231v-60q0 -22 3 -34t10 -18q8 -6 19 -9v-7h-184v7q14 3 21 9t12 18q4 12 6 35
q1 15 1 60v263q0 34 -12 46t-26 12t-36 -15q-24 -16 -60 -55l-11 -11v-239v-60q0 -21 5 -34q4 -12 12 -18t21 -9v-7h-183v7zM260 -116q-4 -5 -15 -13q-10 -7 -28 -7q-19 0 -35 14q-15 14 -15 36q0 25 17 39t38 14q25 0 45 -17t20 -54q0 -39 -24 -63q-23 -23 -66 -28l-3 7
q38 6 54 24q17 19 17 35q0 10 -5 13z" />
    <glyph glyph-name="Ncaron" unicode="&#x147;" horiz-adv-x="545" 
d="M17 7h1q15 8 25 18q8 8 13 30q5 21 6 58q1 25 1 102v325q0 80 -1 106q-2 39 -6 60q-5 21 -13 27q-11 7 -25 11v7h163q9 0 12 -1q6 -2 8 -4q5 -5 8 -9q5 -6 9 -15l264 -485v299q0 77 -1 102q-1 37 -6 58t-15 30q-11 10 -28 18v7h105v-7q-15 -8 -25 -18q-8 -8 -13 -30
q-5 -21 -6 -58q-1 -25 -1 -102v-539h-26l-394 728v-510q0 -77 1 -102q1 -37 6 -58t15 -30q11 -10 28 -18v-7h-105v7zM190 909l124 -39l124 39l3 -6l-127 -119l-127 119z" />
    <glyph glyph-name="ncaron" unicode="&#x148;" horiz-adv-x="463" 
d="M14 7h-5q11 3 19 9t11 18t3 35v60v155q0 43 -1 56q-2 22 -4 30q-3 10 -11 13q-9 4 -21 5v7l148 85v-100l11 11q40 42 72 63t72 21q16 0 36 -6q21 -6 35 -19q16 -14 26 -36q11 -24 11 -57v-231v-60q0 -22 3 -34t10 -18q8 -6 19 -9v-7h-184v7q14 3 21 9t12 18q4 12 6 35
q1 15 1 60v263q0 34 -12 46t-26 12t-36 -15q-24 -16 -60 -55l-11 -11v-239v-60q0 -21 5 -34q4 -12 12 -18t21 -9v-7h-183v7zM132 702l104 -71l104 71l6 -4l-110 -178l-110 178z" />
    <glyph glyph-name="napostrophe" unicode="&#x149;" horiz-adv-x="463" 
d="M14 7h-5q11 3 19 9t11 18t3 35v60v155q0 43 -1 56q-2 22 -4 30q-3 10 -11 13q-9 4 -21 5v7l148 85v-100l11 11q40 42 72 63t72 21q16 0 36 -6q21 -6 35 -19q16 -14 26 -36q11 -24 11 -57v-231v-60q0 -22 3 -34t10 -18q8 -6 19 -9v-7h-184v7q14 3 21 9t12 18q4 12 6 35
q1 15 1 60v263q0 34 -12 46t-26 12t-36 -15q-24 -16 -60 -55l-11 -11v-239v-60q0 -21 5 -34q4 -12 12 -18t21 -9v-7h-183v7zM20 669v-1q-5 -8 -15 -14q-11 -6 -27 -6q-21 0 -36 16t-15 40q0 26 18 43q17 16 42 16q24 0 46 -19t22 -61q0 -53 -28 -87q-29 -35 -70 -54l-4 6
q37 19 57 44t20 53q0 17 -10 24z" />
    <glyph glyph-name="Eng" unicode="&#x14a;" horiz-adv-x="545" 
d="M17 7l2 -4q15 8 25 18q8 8 13 30q5 21 6 58q1 25 1 102v325q0 80 -1 106q-1 39 -6 60t-13 27q-11 7 -25 11v7h163q16 0 21 -4q7 -5 17 -24l264 -472v286q0 77 -1 102q-1 37 -6 58t-15 30t-27 18v7h103v-7q-15 -8 -25 -18q-8 -8 -13 -30q-5 -21 -6 -58q-1 -25 -1 -102
v-562q0 -49 -27 -79t-76 -30q-30 0 -55 6t-45 18t-30 27q-11 16 -11 35q0 20 12 32t32 12q23 0 33 -12q11 -12 18 -43q7 -30 17 -48q9 -16 29 -16q43 0 67 29q24 28 24 75v5l-409 743v-510q0 -77 1 -102q1 -37 6 -58t15 -30q11 -10 28 -18v-7h-105v7z" />
    <glyph glyph-name="eng" unicode="&#x14b;" horiz-adv-x="463" 
d="M14 7l-5 -4q11 3 19 9t11 18t3 35v60v155q0 43 -1 56q-2 22 -4 30q-3 10 -11 13q-9 4 -21 5v7l148 85v-100l11 11q40 42 72 63t72 21q16 0 36 -6q21 -6 35 -19q16 -14 26 -36q11 -24 11 -57v-273q0 -32 -4 -55q-4 -25 -15 -48t-28 -43q-18 -21 -46 -40q-31 -22 -53 -30
q-20 -7 -44 -7q-20 0 -33 12t-13 32q0 18 11 27t24 9t24 -8q9 -7 18 -17q10 -12 15 -17q8 -8 15 -8q5 0 9 4q6 6 7 25q1 13 1 66v408q0 34 -12 46t-26 12t-36 -15q-24 -16 -60 -55l-11 -11v-239v-60q0 -21 5 -34q4 -12 12 -18t21 -9v-7h-183v7z" />
    <glyph glyph-name="Omacron" unicode="&#x14c;" horiz-adv-x="625" 
d="M312 -12v-1q-54 0 -105 27t-90 78t-63 123t-24 161q0 90 24 161t63 120q38 49 90 76q51 27 105 27q55 0 106 -27q52 -27 90 -76q39 -49 63 -120q24 -70 24 -161q0 -88 -24 -160t-63 -123t-90 -78t-106 -27zM312 -4v-2q68 0 107 93q38 92 40 286q0 97 -12 167
q-12 73 -31 117q-20 47 -46 69q-28 23 -57 23q-31 0 -57 -22t-46 -69q-19 -44 -31 -117q-12 -71 -12 -166q0 -193 39 -286t106 -93zM416 795h-207v48h207v-48z" />
    <glyph glyph-name="omacron" unicode="&#x14d;" horiz-adv-x="447" 
d="M224 -7l-2 -2q-28 0 -63 12q-34 12 -66 41q-30 27 -52 74q-21 45 -21 111q0 67 21 114q21 46 53 75q32 28 66 42q33 13 63 13t65 -13q36 -14 66 -42t51 -75t21 -114q0 -66 -21 -111q-21 -44 -51 -73q-29 -28 -66 -40q-36 -12 -64 -12zM222 0l-1 -2q19 0 35 11
q15 10 27 38q12 27 18 71t6 110q0 68 -6 113t-18 72t-27 39t-34 12q-18 0 -34 -12q-16 -11 -28 -39q-12 -27 -18 -72t-6 -113q0 -66 6 -110q6 -43 18 -70t28 -37q17 -11 34 -11zM318 604v-47h-194v47h194z" />
    <glyph glyph-name="Obreve" unicode="&#x14e;" horiz-adv-x="625" 
d="M312 -12v-1q-54 0 -105 27t-90 78t-63 123t-24 161q0 90 24 161t63 120q38 49 90 76q51 27 105 27q55 0 106 -27q52 -27 90 -76q39 -49 63 -120q24 -70 24 -161q0 -88 -24 -160t-63 -123t-90 -78t-106 -27zM312 -4v-2q68 0 107 93q38 92 40 286q0 97 -12 167
q-12 73 -31 117q-20 47 -46 69q-28 23 -57 23q-31 0 -57 -22t-46 -69q-19 -44 -31 -117q-12 -71 -12 -166q0 -193 39 -286t106 -93zM314 849l2 1q34 0 54 12q19 12 30 35h9q-2 -53 -25 -84q-24 -31 -69 -31t-69 30q-23 29 -25 84h9q11 -23 30 -35q20 -12 54 -12z" />
    <glyph glyph-name="obreve" unicode="&#x14f;" horiz-adv-x="447" 
d="M224 -7l-2 -2q-28 0 -63 12q-34 12 -66 41q-30 27 -52 74q-21 45 -21 111q0 67 21 114q21 46 53 75q32 28 66 42q33 13 63 13t65 -13q36 -14 66 -42t51 -75t21 -114q0 -66 -21 -111q-21 -44 -51 -73q-29 -28 -66 -40q-36 -12 -64 -12zM222 0l-1 -2q19 0 35 11
q15 10 27 38q12 27 18 71t6 110q0 68 -6 113t-18 72t-27 39t-34 12q-18 0 -34 -12q-16 -11 -28 -39q-12 -27 -18 -72t-6 -113q0 -66 6 -110q6 -43 18 -70t28 -37q17 -11 34 -11zM222 591l-3 -2q38 0 55 16q19 17 26 36h9q0 -20 -5 -43q-5 -21 -16 -37q-12 -17 -28 -27
t-39 -10q-25 0 -41 10t-28 27q-11 15 -16 38t-5 44h9q6 -19 25 -35q20 -17 57 -17z" />
    <glyph glyph-name="Ohungarumlaut" unicode="&#x150;" horiz-adv-x="625" 
d="M312 -12v-1q-54 0 -105 27t-90 78t-63 123t-24 161q0 90 24 161t63 120q38 49 90 76q51 27 105 27q55 0 106 -27q52 -27 90 -76q39 -49 63 -120q24 -70 24 -161q0 -88 -24 -160t-63 -123t-90 -78t-106 -27zM312 -4v-2q68 0 107 93q38 92 40 286q0 97 -12 167
q-12 73 -31 117q-20 47 -46 69q-28 23 -57 23q-31 0 -57 -22t-46 -69q-19 -44 -31 -117q-12 -71 -12 -166q0 -193 39 -286t106 -93zM343 790l50 80q13 20 24 33q10 13 30 13q17 0 26 -12t9 -23q0 -16 -11 -27q-11 -10 -24 -18l-99 -51zM223 791l50 79q12 18 24 34
q10 13 30 13q18 0 27 -12t9 -23q0 -16 -11 -27q-10 -11 -24 -18l-100 -51z" />
    <glyph glyph-name="ohungarumlaut" unicode="&#x151;" horiz-adv-x="447" 
d="M224 -7l-2 -2q-28 0 -63 12q-34 12 -66 41q-30 27 -52 74q-21 45 -21 111q0 67 21 114q21 46 53 75q32 28 66 42q33 13 63 13t65 -13q36 -14 66 -42t51 -75t21 -114q0 -66 -21 -111q-21 -44 -51 -73q-29 -28 -66 -40q-36 -12 -64 -12zM222 0l-1 -2q19 0 35 11
q15 10 27 38q12 27 18 71t6 110q0 68 -6 113t-18 72t-27 39t-34 12q-18 0 -34 -12q-16 -11 -28 -39q-12 -27 -18 -72t-6 -113q0 -66 6 -110q6 -43 18 -70t28 -37q17 -11 34 -11zM272 527l32 127q4 22 15 36t31 14q17 0 26 -10t9 -27q0 -12 -4 -21q-5 -10 -12 -18l-91 -104z
M149 526l31 127q6 23 16 36q11 14 30 14q18 0 27 -10q9 -11 9 -27q0 -12 -4 -21q-4 -11 -12 -18l-91 -104z" />
    <glyph glyph-name="OE" unicode="&#x152;" horiz-adv-x="832" 
d="M658 327l1 -3q-6 22 -9 32q-4 15 -15 27t-30 18t-54 6h-11v-401h61q46 0 84 5q35 5 57 18q23 14 38 38q16 25 26 65h9l-13 -117q-2 -13 -6 -15q-6 -2 -12 -2h-442q-65 0 -122 24q-56 24 -99 71q-42 47 -66 117t-24 165q0 89 24 160q24 70 66 118t99 72t122 24h416
q8 0 11 -3t6 -18l18 -101h-9q-12 35 -27 56q-16 22 -37 35q-22 14 -54 18q-35 5 -78 5h-49v-322h11q34 0 54 6t30 18t15 27q3 10 9 32h7v-175h-7zM344 738v1q-93 0 -135 -90t-42 -276q0 -187 48 -277t128 -90q25 0 39 6t20 27q7 23 8 62q2 54 2 110v318q0 57 -2 113
q-1 40 -8 63q-6 21 -20 27q-13 6 -38 6z" />
    <glyph glyph-name="oe" unicode="&#x153;" horiz-adv-x="692" 
d="M225 -6h-1q-29 0 -65 12q-35 12 -67 39q-31 26 -52 72q-21 45 -21 111q0 68 21 114q21 47 52 75q32 29 67 42t65 13q34 0 74 -17q39 -17 71 -56q28 37 66 55q37 18 69 18q43 0 74 -14t50 -36q21 -24 29 -49q10 -29 11 -53h-239q-3 -32 -3 -72q0 -52 6 -96t21 -75
q14 -30 38 -49q23 -18 56 -18q38 0 62 12t43 28l6 -7q-19 -16 -50 -33q-29 -16 -82 -16q-45 0 -88 17q-41 16 -70 51q-31 -35 -71 -52q-38 -16 -72 -16zM505 466l2 1q-27 0 -48 -30q-20 -29 -28 -106h139q-5 65 -16 99q-12 36 -49 36zM226 4v-2q19 0 36 11q15 10 28 38
q12 27 18 70t6 110q0 68 -6 113t-18 72q-12 28 -28 39q-16 12 -36 12t-36 -12q-16 -11 -28 -39q-12 -27 -18 -72t-6 -113q0 -65 6 -109q6 -43 18 -70t28 -37q17 -11 36 -11z" />
    <glyph glyph-name="Racute" unicode="&#x154;" horiz-adv-x="547" 
d="M17 7l-4 1q16 4 25 12q8 7 13 27q4 19 6 59q1 26 1 107v330q0 80 -1 106q-2 40 -6 59q-5 20 -13 27q-9 8 -25 12v7h217q140 0 207 -42q68 -42 68 -136q0 -49 -19 -84q-19 -36 -52 -61t-78 -39t-96 -15q34 -3 59 -13q28 -11 48 -31q21 -21 36 -54q14 -31 25 -84
q12 -61 19 -87q9 -33 18 -55q9 -20 20 -30q11 -9 24 -9t23 5q8 4 16 12l6 -5q-8 -10 -28 -21q-21 -12 -58 -12q-34 0 -63 8q-26 7 -46 29q-19 21 -33 57q-13 34 -22 91q-10 63 -20 108q-9 38 -20 59q-10 19 -26 24q-17 5 -38 5h-12v-164q0 -80 1 -106q1 -38 6 -58t13 -27
q9 -8 25 -12v-7h-216v7zM185 742v-359h55q80 0 113 47q33 46 33 132q0 96 -36 138t-124 42h-41zM179 786l115 91q25 19 51 19q17 0 28 -12q10 -11 10 -25q0 -19 -12 -33t-43 -21l-147 -25z" />
    <glyph glyph-name="racute" unicode="&#x155;" horiz-adv-x="337" 
d="M14 7l5 -2q11 3 19 9t11 18t3 35v60v166q0 37 -1 49q-2 20 -4 27q-3 9 -11 12q-9 4 -21 5v7l148 85v-92l2 2q23 28 39 45q18 18 30 26q14 9 25 12q12 3 24 3q23 0 36 -12q14 -12 14 -34q0 -25 -13 -37t-31 -12q-15 0 -25 6t-18 15q-5 6 -14 15q-6 6 -15 6q-6 0 -9 -1
q-4 -1 -10 -6q-4 -3 -15 -14q-9 -9 -21 -24l-2 -2v-246v-60q0 -21 5 -34q5 -12 12 -18t21 -9v-7h-184v7zM133 520l73 126q13 22 26 33t30 11q19 0 30 -11t11 -27q0 -20 -10 -33q-11 -13 -27 -24l-127 -79z" />
    <glyph glyph-name="uni0156" unicode="&#x156;" horiz-adv-x="547" 
d="M17 7l-4 1q16 4 25 12q8 7 13 27q4 19 6 59q1 26 1 107v330q0 80 -1 106q-2 40 -6 59q-5 20 -13 27q-9 8 -25 12v7h217q140 0 207 -42q68 -42 68 -136q0 -49 -19 -84q-19 -36 -52 -61t-78 -39t-96 -15q34 -3 59 -13q28 -11 48 -31q21 -21 36 -54q14 -31 25 -84
q12 -61 19 -87q9 -33 18 -55q9 -20 20 -30q11 -9 24 -9t23 5q8 4 16 12l6 -5q-8 -10 -28 -21q-21 -12 -58 -12q-34 0 -63 8q-26 7 -46 29q-19 21 -33 57q-13 34 -22 91q-10 63 -20 108q-9 38 -20 59q-10 19 -26 24q-17 5 -38 5h-12v-164q0 -80 1 -106q1 -38 6 -58t13 -27
q9 -8 25 -12v-7h-216v7zM185 742v-359h55q80 0 113 47q33 46 33 132q0 96 -36 138t-124 42h-41zM314 -115q-4 -5 -15 -13q-10 -7 -28 -7q-19 0 -35 14q-15 13 -15 36q0 25 17 39t38 14q25 0 45 -17t20 -54q0 -39 -24 -63q-23 -23 -66 -28l-3 7q38 6 54 24q17 19 17 35
q0 10 -5 13z" />
    <glyph glyph-name="uni0157" unicode="&#x157;" horiz-adv-x="337" 
d="M14 7l5 -2q11 3 19 9t11 18t3 35v60v166q0 37 -1 49q-2 20 -4 27q-3 9 -11 12q-9 4 -21 5v7l148 85v-92l2 2q23 28 39 45q18 18 30 26q14 9 25 12q12 3 24 3q23 0 36 -12q14 -12 14 -34q0 -25 -13 -37t-31 -12q-15 0 -25 6t-18 15q-5 6 -14 15q-6 6 -15 6q-6 0 -9 -1
q-4 -1 -10 -6q-4 -3 -15 -14q-9 -9 -21 -24l-2 -2v-246v-60q0 -21 5 -34q5 -12 12 -18t21 -9v-7h-184v7zM143 -118q-4 -5 -15 -13q-10 -7 -28 -7q-19 0 -35 14q-15 14 -15 36q0 25 17 39t38 14q25 0 45 -17t20 -54q0 -39 -24 -63q-23 -23 -66 -28l-3 7q37 6 54 24
q17 19 17 35q0 10 -5 13z" />
    <glyph glyph-name="Rcaron" unicode="&#x158;" horiz-adv-x="547" 
d="M17 7l-4 1q16 4 25 12q8 7 13 27q4 19 6 59q1 26 1 107v330q0 80 -1 106q-2 40 -6 59q-5 20 -13 27q-9 8 -25 12v7h217q140 0 207 -42q68 -42 68 -136q0 -49 -19 -84q-19 -36 -52 -61t-78 -39t-96 -15q34 -3 59 -13q28 -11 48 -31q21 -21 36 -54q14 -31 25 -84
q12 -61 19 -87q9 -33 18 -55q9 -20 20 -30q11 -9 24 -9t23 5q8 4 16 12l6 -5q-8 -10 -28 -21q-21 -12 -58 -12q-34 0 -63 8q-26 7 -46 29q-19 21 -33 57q-13 34 -22 91q-10 63 -20 108q-9 38 -20 59q-10 19 -26 24q-17 5 -38 5h-12v-164q0 -80 1 -106q1 -38 6 -58t13 -27
q9 -8 25 -12v-7h-216v7zM185 742v-359h55q80 0 113 47q33 46 33 132q0 96 -36 138t-124 42h-41zM144 910l124 -39l124 39l3 -6l-127 -119l-127 119z" />
    <glyph glyph-name="rcaron" unicode="&#x159;" horiz-adv-x="337" 
d="M14 7l5 -2q11 3 19 9t11 18t3 35v60v166q0 37 -1 49q-2 20 -4 27q-3 9 -11 12q-9 4 -21 5v7l148 85v-92l2 2q23 28 39 45q18 18 30 26q14 9 25 12q12 3 24 3q23 0 36 -12q14 -12 14 -34q0 -25 -13 -37t-31 -12q-15 0 -25 6t-18 15q-5 6 -14 15q-6 6 -15 6q-6 0 -9 -1
q-4 -1 -10 -6q-4 -3 -15 -14q-9 -9 -21 -24l-2 -2v-246v-60q0 -21 5 -34q5 -12 12 -18t21 -9v-7h-184v7zM93 700l104 -71l104 71l6 -4l-110 -178l-110 178z" />
    <glyph glyph-name="Sacute" unicode="&#x15a;" horiz-adv-x="464" 
d="M215 -9v-2q-36 0 -63 8q-22 6 -43 17q-14 7 -32 17q-14 8 -30 8q-13 0 -18 -21h-8v195h9q13 -105 59 -160q45 -54 125 -54q69 0 102 30t33 93q0 34 -11 62q-10 27 -32 53q-21 26 -53 53q-33 28 -74 59q-31 25 -59 50q-26 23 -46 51q-19 27 -30 59q-11 33 -11 72t13 69
q14 32 38 56q23 23 59 37t78 14q30 0 51 -6q19 -5 37 -12t29 -12q12 -6 23 -6q17 0 21 25h8v-153h-9q-15 80 -57 118q-41 37 -105 37q-55 0 -81 -26t-26 -71q0 -51 36 -94q35 -42 102 -94q22 -16 73 -56q35 -27 60 -57q24 -28 40 -65q15 -35 15 -78q0 -57 -19 -96
q-19 -40 -51 -67q-31 -26 -72 -40q-39 -13 -81 -13zM131 783l115 91q25 19 51 19q17 0 28 -12q10 -11 10 -25q0 -20 -12 -33q-12 -14 -43 -21l-147 -25z" />
    <glyph glyph-name="sacute" unicode="&#x15b;" horiz-adv-x="330" 
d="M169 3l-2 -11q41 0 57 21q17 22 17 51q0 32 -22 60t-78 61q-28 16 -54 35q-22 16 -36 35q-13 18 -21 41q-7 21 -7 51q0 26 9 47t26 38q16 16 39 25t50 9q19 0 32 -3q18 -4 26 -7q5 -2 23 -7q10 -3 24 -3t18 16h8v-122h-8q-19 62 -51 91q-31 28 -69 28q-34 0 -51 -15
q-16 -15 -16 -42q0 -17 6 -29t18 -24q11 -11 32 -24q35 -22 45 -28q34 -19 59 -38q23 -17 39 -38q14 -18 22 -42q7 -21 7 -51q0 -32 -12 -57q-11 -24 -32 -43q-19 -18 -45 -27t-53 -9q-25 0 -43 6q-22 7 -32 13l-25 13q-11 6 -21 6q-7 0 -11 -4q-5 -4 -6 -12h-9v146h9
q21 -79 54 -118t84 -39zM96 511l73 126q13 22 26 33t30 11q19 0 30 -11t11 -27q0 -20 -10 -33q-10 -14 -27 -24l-127 -79z" />
    <glyph glyph-name="Scircumflex" unicode="&#x15c;" horiz-adv-x="464" 
d="M215 -9v-2q-36 0 -63 8q-22 6 -43 17q-14 7 -32 17q-14 8 -30 8q-13 0 -18 -21h-8v195h9q13 -105 59 -160q45 -54 125 -54q69 0 102 30t33 93q0 34 -11 62q-10 27 -32 53q-21 26 -53 53q-33 28 -74 59q-31 25 -59 50q-26 23 -46 51q-19 27 -30 59q-11 33 -11 72t13 69
q14 32 38 56q23 23 59 37t78 14q30 0 51 -6q19 -5 37 -12t29 -12q12 -6 23 -6q17 0 21 25h8v-153h-9q-15 80 -57 118q-41 37 -105 37q-55 0 -81 -26t-26 -71q0 -51 36 -94q35 -42 102 -94q22 -16 73 -56q35 -27 60 -57q24 -28 40 -65q15 -35 15 -78q0 -57 -19 -96
q-19 -40 -51 -67q-31 -26 -72 -40q-39 -13 -81 -13zM223 901l127 -119l-3 -6l-124 39l-124 -39l-3 6z" />
    <glyph glyph-name="scircumflex" unicode="&#x15d;" horiz-adv-x="330" 
d="M169 3l-2 -11q41 0 57 21q17 22 17 51q0 32 -22 60t-78 61q-28 16 -54 35q-22 16 -36 35q-13 18 -21 41q-7 21 -7 51q0 26 9 47t26 38q16 16 39 25t50 9q19 0 32 -3q18 -4 26 -7q5 -2 23 -7q10 -3 24 -3t18 16h8v-122h-8q-19 62 -51 91q-31 28 -69 28q-34 0 -51 -15
q-16 -15 -16 -42q0 -17 6 -29t18 -24q11 -11 32 -24q35 -22 45 -28q34 -19 59 -38q23 -17 39 -38q14 -18 22 -42q7 -21 7 -51q0 -32 -12 -57q-11 -24 -32 -43q-19 -18 -45 -27t-53 -9q-25 0 -43 6q-22 7 -32 13l-25 13q-11 6 -21 6q-7 0 -11 -4q-5 -4 -6 -12h-9v146h9
q21 -79 54 -118t84 -39zM156 686l110 -177l-6 -5l-104 71l-104 -71l-6 5z" />
    <glyph glyph-name="uni015E" unicode="&#x15e;" horiz-adv-x="464" 
d="M211 -4l-19 -40q37 -4 63 -23q26 -18 26 -47q0 -74 -159 -76l-1 7q39 8 63 19q26 12 26 29q0 15 -16 24q-18 10 -42 11l-3 4l51 92h11zM215 -12v-2q-36 0 -63 8q-22 6 -43 17q-14 7 -32 17q-14 8 -30 8q-13 0 -18 -21h-8v195h9q13 -105 59 -160q45 -54 125 -54
q69 0 102 30t33 93q0 34 -11 62q-10 27 -32 53q-21 26 -53 53q-33 28 -74 59q-31 25 -59 50q-26 23 -46 51q-19 27 -30 59q-11 33 -11 72t13 69q14 31 38 56q23 23 59 37t78 14q30 0 51 -6q19 -5 37 -12t29 -12q12 -6 23 -6q17 0 21 25h8v-153h-9q-15 80 -57 118
q-41 37 -105 37q-55 0 -81 -26t-26 -71q0 -50 36 -94q35 -42 102 -94q22 -16 73 -56q35 -27 60 -57q24 -28 40 -65q15 -34 15 -78q0 -57 -19 -96q-19 -40 -51 -67q-31 -26 -72 -40q-39 -13 -81 -13z" />
    <glyph glyph-name="uni015F" unicode="&#x15f;" horiz-adv-x="330" 
d="M157 1l-21 -45q37 -4 63 -23q26 -18 26 -47q0 -74 -159 -76l-1 7q39 8 63 19q26 12 26 29q0 15 -17 24q-18 10 -42 11l-2 4l53 97h11zM170 0l-2 -11q40 0 57 21q17 22 17 51q0 32 -22 60t-78 61q-28 16 -54 35q-22 16 -36 35q-13 18 -21 41q-7 21 -7 51q0 26 9 47t26 38
q16 16 39 25q22 9 50 9q18 0 32 -3q18 -4 26 -7q5 -2 23 -7q11 -3 24 -3q14 0 18 16h8v-122h-8q-19 62 -51 91q-31 28 -69 28q-35 0 -51 -15t-16 -42q0 -17 6 -29t18 -24q11 -11 32 -24q35 -22 45 -28q34 -19 59 -38q23 -17 39 -38q14 -18 22 -42q7 -21 7 -51q0 -31 -12 -57
q-11 -24 -32 -43q-20 -18 -45 -27t-53 -9q-25 0 -43 6q-21 7 -32 13l-25 13q-10 6 -21 6q-7 0 -11 -4q-4 -5 -6 -12h-9v146h9q21 -79 54 -118t84 -39z" />
    <glyph glyph-name="Scaron" unicode="&#x160;" horiz-adv-x="464" 
d="M215 -9v-2q-36 0 -63 8q-22 6 -43 17q-14 7 -32 17q-14 8 -30 8q-13 0 -18 -21h-8v195h9q13 -105 59 -160q45 -54 125 -54q69 0 102 30t33 93q0 34 -11 62q-10 27 -32 53q-21 26 -53 53q-33 28 -74 59q-31 25 -59 50q-26 23 -46 51q-19 27 -30 59q-11 33 -11 72t13 69
q14 32 38 56q23 23 59 37t78 14q30 0 51 -6q19 -5 37 -12t29 -12q12 -6 23 -6q17 0 21 25h8v-153h-9q-15 80 -57 118q-41 37 -105 37q-55 0 -81 -26t-26 -71q0 -51 36 -94q35 -42 102 -94q22 -16 73 -56q35 -27 60 -57q24 -28 40 -65q15 -35 15 -78q0 -57 -19 -96
q-19 -40 -51 -67q-31 -26 -72 -40q-39 -13 -81 -13zM100 907l124 -39l124 39l3 -6l-127 -119l-127 119z" />
    <glyph glyph-name="scaron" unicode="&#x161;" horiz-adv-x="330" 
d="M169 3l-2 -11q41 0 57 21q17 22 17 51q0 32 -22 60t-78 61q-28 16 -54 35q-22 16 -36 35q-13 18 -21 41q-7 21 -7 51q0 26 9 47t26 38q16 16 39 25t50 9q19 0 32 -3q18 -4 26 -7q5 -2 23 -7q10 -3 24 -3t18 16h8v-122h-8q-19 62 -51 91q-31 28 -69 28q-34 0 -51 -15
q-16 -15 -16 -42q0 -17 6 -29t18 -24q11 -11 32 -24q35 -22 45 -28q34 -19 59 -38q23 -17 39 -38q14 -18 22 -42q7 -21 7 -51q0 -32 -12 -57q-11 -24 -32 -43q-19 -18 -45 -27t-53 -9q-25 0 -43 6q-22 7 -32 13l-25 13q-11 6 -21 6q-7 0 -11 -4q-5 -4 -6 -12h-9v146h9
q21 -79 54 -118t84 -39zM53 691l104 -71l104 71l6 -4l-110 -178l-110 178z" />
    <glyph glyph-name="Tcommaaccent" unicode="&#x162;" horiz-adv-x="540" 
d="M161 7l-1 -2q16 4 25 12q9 7 13 28t6 59q1 25 1 105v531h-16q-43 0 -72 -6t-48 -22q-21 -17 -32 -43q-11 -25 -22 -70h-9l12 131q1 15 5 19q3 3 11 3h470q8 0 11 -3q4 -4 5 -19l14 -131h-9q-11 42 -24 69q-14 28 -33 44q-20 17 -48 23t-70 6h-18v-531q0 -80 1 -105
q1 -37 6 -58q4 -20 14 -28q9 -7 24 -12v-7h-216v7zM302 -118q-4 -5 -15 -13q-10 -7 -28 -7q-19 0 -35 14q-15 14 -15 36q0 25 17 39t38 14q25 0 45 -17t20 -54q0 -39 -24 -63q-23 -23 -66 -28l-3 7q38 6 54 24q17 19 17 35q0 10 -5 13z" />
    <glyph glyph-name="tcommaaccent" unicode="&#x163;" horiz-adv-x="264" 
d="M169 -8l-1 -4q-57 0 -87 30t-30 80v355h-41v9q22 3 44 15t42 33q21 22 35 51q16 32 23 69h9v-164h89v-10h-89v-340q0 -57 8 -83q7 -24 38 -24q15 0 26 6q9 5 18 14l5 -6l-10 -10q-5 -6 -16 -10q-12 -5 -26 -8q-15 -3 -37 -3zM181 -120q-4 -5 -15 -13q-10 -7 -28 -7
q-19 0 -35 14q-15 14 -15 36q0 25 17 39t38 14q25 0 45 -17t20 -54q0 -39 -24 -63q-23 -23 -66 -28l-3 7q37 6 54 24q17 19 17 35q0 10 -5 13z" />
    <glyph glyph-name="Tcaron" unicode="&#x164;" horiz-adv-x="540" 
d="M161 7l-1 -2q16 4 25 12q9 7 13 28t6 59q1 25 1 105v531h-16q-43 0 -72 -6t-48 -22q-21 -17 -32 -43q-11 -25 -22 -70h-9l12 131q1 15 5 19q3 3 11 3h470q8 0 11 -3q4 -4 5 -19l14 -131h-9q-11 42 -24 69q-14 28 -33 44q-20 17 -48 23t-70 6h-18v-531q0 -80 1 -105
q1 -37 6 -58q4 -20 14 -28q9 -7 24 -12v-7h-216v7zM145 907l124 -39l124 39l3 -6l-127 -119l-127 119z" />
    <glyph glyph-name="tcaron" unicode="&#x165;" horiz-adv-x="264" 
d="M169 -8l-1 -4q-57 0 -87 30t-30 80v355h-41v9q22 3 44 15t42 33q21 22 35 51q16 32 23 69h9v-164h89v-10h-89v-340q0 -57 8 -83q7 -24 38 -24q15 0 26 6q9 5 18 14l5 -6l-10 -10q-5 -6 -16 -10q-12 -5 -26 -8q-15 -3 -37 -3zM198 520l6 140q3 68 43 68q37 0 37 -40
q0 -10 -3 -22q-3 -10 -8 -21l-68 -127z" />
    <glyph glyph-name="Tbar" unicode="&#x166;" horiz-adv-x="540" 
d="M89 429h361v-9h-361v9zM161 7l-1 -2q16 4 25 12q9 7 13 28t6 59q1 25 1 105v531h-16q-43 0 -72 -6t-48 -22q-21 -17 -32 -43q-11 -25 -22 -70h-9l12 131q1 15 5 19q3 3 11 3h470q8 0 11 -3q4 -4 5 -19l14 -131h-9q-11 42 -24 69q-14 28 -33 44q-20 17 -48 23t-70 6h-18
v-531q0 -80 1 -105q1 -37 6 -58q4 -20 14 -28q9 -7 24 -12v-7h-216v7z" />
    <glyph glyph-name="tbar" unicode="&#x167;" horiz-adv-x="264" 
d="M13 310h237v-9h-237v9zM169 -8l-1 -4q-57 0 -87 30t-30 80v355h-41v9q22 3 44 15t42 33q21 22 35 51q16 32 23 69h9v-164h89v-10h-89v-340q0 -57 8 -83q7 -24 38 -24q15 0 26 6q9 5 18 14l5 -6l-10 -10q-5 -6 -16 -10q-12 -5 -26 -8q-15 -3 -37 -3z" />
    <glyph glyph-name="Utilde" unicode="&#x168;" horiz-adv-x="551" 
d="M294 -12l2 -2q-110 0 -175 56q-64 55 -64 171v325q0 80 -1 106q-2 40 -6 59q-5 20 -13 27q-9 8 -24 12v7h211v-7q-15 -4 -24 -12q-8 -7 -13 -27q-4 -19 -6 -59q-1 -26 -1 -106v-342q0 -50 3 -87t17 -62q14 -24 39 -36t67 -12q83 0 131 50q48 49 48 162v324q0 77 -1 102
q-1 37 -6 58q-4 21 -15 30q-11 10 -28 18v7h106v-7q-15 -8 -25 -18q-8 -8 -13 -30q-5 -21 -6 -58q-1 -25 -1 -102v-324q0 -118 -52 -170q-53 -53 -150 -53zM285 869l1 -1q21 0 53 -2t44 -2q24 0 54 40l7 -2q-10 -48 -29 -76q-18 -27 -42 -27q-18 0 -48 2t-48 2q-11 0 -24 -8
t-26 -30l-7 2q14 54 30 78t35 24z" />
    <glyph glyph-name="utilde" unicode="&#x169;" 
d="M153 -8l4 -4q-17 0 -36 6q-20 6 -36 19q-17 13 -27 36q-10 21 -10 55v188v49q0 18 -3 27t-11 12q-9 4 -21 5v7l148 85v-396q0 -36 12 -51t26 -15q29 0 93 69v209v49q0 18 -3 27t-11 12q-9 4 -21 5v7l147 85v-350v-60q0 -22 3 -34t9 -18t17 -9v-7h-142v74q-25 -25 -36 -35
q-15 -13 -33 -25q-15 -9 -33 -16q-17 -6 -36 -6zM202 631q30 0 51 -4t44 -4q14 0 24 10q12 12 27 31l7 -3q-10 -46 -27 -76q-16 -30 -42 -30q-21 0 -46 5t-48 5q-12 0 -22 -9q-10 -8 -27 -32l-6 3q15 51 30 77q15 27 35 27z" />
    <glyph glyph-name="Umacron" unicode="&#x16a;" horiz-adv-x="551" 
d="M294 -12l2 -2q-110 0 -175 56q-64 55 -64 171v325q0 80 -1 106q-2 40 -6 59q-5 20 -13 27q-9 8 -24 12v7h211v-7q-15 -4 -24 -12q-8 -7 -13 -27q-4 -19 -6 -59q-1 -26 -1 -106v-342q0 -50 3 -87t17 -62q14 -24 39 -36t67 -12q83 0 131 50q48 49 48 162v324q0 77 -1 102
q-1 37 -6 58q-4 21 -15 30q-11 10 -28 18v7h106v-7q-15 -8 -25 -18q-8 -8 -13 -30q-5 -21 -6 -58q-1 -25 -1 -102v-324q0 -118 -52 -170q-53 -53 -150 -53zM426 796h-207v48h207v-48z" />
    <glyph glyph-name="umacron" unicode="&#x16b;" 
d="M153 -8l4 -4q-17 0 -36 6q-20 6 -36 19q-17 13 -27 36q-10 21 -10 55v188v49q0 18 -3 27t-11 12q-9 4 -21 5v7l148 85v-396q0 -36 12 -51t26 -15q29 0 93 69v209v49q0 18 -3 27t-11 12q-9 4 -21 5v7l147 85v-350v-60q0 -22 3 -34t9 -18t17 -9v-7h-142v74q-25 -25 -36 -35
q-15 -13 -33 -25q-15 -9 -33 -16q-17 -6 -36 -6zM339 604v-47h-194v47h194z" />
    <glyph glyph-name="Ubreve" unicode="&#x16c;" horiz-adv-x="551" 
d="M294 -12l2 -2q-110 0 -175 56q-64 55 -64 171v325q0 80 -1 106q-2 40 -6 59q-5 20 -13 27q-9 8 -24 12v7h211v-7q-15 -4 -24 -12q-8 -7 -13 -27q-4 -19 -6 -59q-1 -26 -1 -106v-342q0 -50 3 -87t17 -62q14 -24 39 -36t67 -12q83 0 131 50q48 49 48 162v324q0 77 -1 102
q-1 37 -6 58q-4 21 -15 30q-11 10 -28 18v7h106v-7q-15 -8 -25 -18q-8 -8 -13 -30q-5 -21 -6 -58q-1 -25 -1 -102v-324q0 -118 -52 -170q-53 -53 -150 -53zM324 850l2 1q34 0 54 12q19 12 30 35h9q-2 -53 -25 -84q-24 -31 -69 -31t-69 30q-23 29 -25 84h9q11 -23 30 -35
q20 -12 54 -12z" />
    <glyph glyph-name="ubreve" unicode="&#x16d;" 
d="M153 -8l4 -4q-17 0 -36 6q-20 6 -36 19q-17 13 -27 36q-10 21 -10 55v188v49q0 18 -3 27t-11 12q-9 4 -21 5v7l148 85v-396q0 -36 12 -51t26 -15q29 0 93 69v209v49q0 18 -3 27t-11 12q-9 4 -21 5v7l147 85v-350v-60q0 -22 3 -34t9 -18t17 -9v-7h-142v74q-25 -25 -36 -35
q-15 -13 -33 -25q-15 -9 -33 -16q-17 -6 -36 -6zM244 591l-3 -2q38 0 55 16q19 17 26 36h9q0 -20 -5 -43q-5 -21 -16 -37q-12 -17 -28 -27t-39 -10q-25 0 -41 10t-28 27q-11 15 -16 38t-5 44h9q6 -19 25 -35q20 -17 57 -17z" />
    <glyph glyph-name="Uring" unicode="&#x16e;" horiz-adv-x="551" 
d="M294 -12l2 -2q-110 0 -175 56q-64 55 -64 171v325q0 80 -1 106q-2 40 -6 59q-5 20 -13 27q-9 8 -24 12v7h211v-7q-15 -4 -24 -12q-8 -7 -13 -27q-4 -19 -6 -59q-1 -26 -1 -106v-342q0 -50 3 -87t17 -62q14 -24 39 -36t67 -12q83 0 131 50q48 49 48 162v324q0 77 -1 102
q-1 37 -6 58q-4 21 -15 30q-11 10 -28 18v7h106v-7q-15 -8 -25 -18q-8 -8 -13 -30q-5 -21 -6 -58q-1 -25 -1 -102v-324q0 -118 -52 -170q-53 -53 -150 -53zM245 830l-2 1q0 32 24 53t61 21q38 0 60 -21q23 -21 23 -53q0 -33 -23 -54q-22 -21 -60 -21q-37 0 -60 20t-23 54z
M289 831h-1q0 -65 38 -65q39 0 39 65q0 32 -10 48q-11 17 -28 17t-28 -17q-10 -16 -10 -48z" />
    <glyph glyph-name="uring" unicode="&#x16f;" 
d="M153 -8l4 -4q-17 0 -36 6q-20 6 -36 19q-17 13 -27 36q-10 21 -10 55v188v49q0 18 -3 27t-11 12q-9 4 -21 5v7l148 85v-396q0 -36 12 -51t26 -15q29 0 93 69v209v49q0 18 -3 27t-11 12q-9 4 -21 5v7l147 85v-350v-60q0 -22 3 -34t9 -18t17 -9v-7h-142v74q-25 -25 -36 -35
q-15 -13 -33 -25q-15 -9 -33 -16q-17 -6 -36 -6zM160 596h-2q0 32 24 53t59 21t59 -21t24 -53q0 -31 -23 -52t-59 -21t-59 20t-23 53zM203 596v-1q0 -65 37 -65t37 65q0 32 -10 48q-11 17 -27 17q-17 0 -27 -16t-10 -48z" />
    <glyph glyph-name="Uhungarumlaut" unicode="&#x170;" horiz-adv-x="551" 
d="M294 -12l2 -2q-110 0 -175 56q-64 55 -64 171v325q0 80 -1 106q-2 40 -6 59q-5 20 -13 27q-9 8 -24 12v7h211v-7q-15 -4 -24 -12q-8 -7 -13 -27q-4 -19 -6 -59q-1 -26 -1 -106v-342q0 -50 3 -87t17 -62q14 -24 39 -36t67 -12q83 0 131 50q48 49 48 162v324q0 77 -1 102
q-1 37 -6 58q-4 21 -15 30q-11 10 -28 18v7h106v-7q-15 -8 -25 -18q-8 -8 -13 -30q-5 -21 -6 -58q-1 -25 -1 -102v-324q0 -118 -52 -170q-53 -53 -150 -53zM349 791l50 80q13 19 24 33q10 13 30 13q17 0 26 -12t9 -23q0 -16 -11 -27t-24 -18l-99 -51zM229 792l50 79
q12 18 24 34q10 13 30 13q18 0 27 -12t9 -23q0 -16 -11 -27q-10 -10 -24 -18l-100 -51z" />
    <glyph glyph-name="uhungarumlaut" unicode="&#x171;" 
d="M153 -8l4 -4q-17 0 -36 6q-20 6 -36 19q-17 13 -27 36q-10 21 -10 55v188v49q0 18 -3 27t-11 12q-9 4 -21 5v7l148 85v-396q0 -36 12 -51t26 -15q29 0 93 69v209v49q0 18 -3 27t-11 12q-9 4 -21 5v7l147 85v-350v-60q0 -22 3 -34t9 -18t17 -9v-7h-142v74q-25 -25 -36 -35
q-15 -13 -33 -25q-15 -9 -33 -16q-17 -6 -36 -6zM290 527l32 127q4 22 15 36t31 14q17 0 26 -10t9 -27q0 -12 -4 -21q-5 -10 -12 -18l-91 -104zM167 526l31 127q6 23 16 36q11 14 30 14q18 0 27 -10q9 -11 9 -27q0 -12 -4 -21q-4 -11 -12 -18l-91 -104z" />
    <glyph glyph-name="Uogonek" unicode="&#x172;" horiz-adv-x="551" 
d="M319 -176l3 -7q-38 0 -63 18t-25 49q0 19 11 35t27 29q18 15 36 23t38 15q-20 -4 -50 -4q-110 0 -175 56q-64 55 -64 171v325q0 80 -1 106q-2 40 -6 59q-5 20 -13 27q-9 8 -24 12v7h211v-7q-15 -4 -24 -12q-8 -7 -13 -27q-4 -19 -6 -59q-1 -26 -1 -106v-342q0 -50 3 -87
t17 -62q14 -24 39 -36t67 -12q83 0 131 50q48 49 48 162v324q0 77 -1 102q-1 37 -6 58q-4 21 -15 30q-11 10 -28 18v7h106v-7q-15 -8 -25 -18q-8 -8 -13 -30q-5 -21 -6 -58q-1 -25 -1 -102v-324q0 -81 -25 -130q-26 -50 -73 -72q-12 -5 -23 -12q-13 -8 -21 -19
q-9 -12 -15 -28t-6 -39t12 -36q12 -14 33 -14q10 0 18 5q8 4 15 12l4 -6l-12 -12q-7 -8 -18 -15t-27 -12q-18 -5 -39 -5z" />
    <glyph glyph-name="uogonek" unicode="&#x173;" 
d="M153 -8l8 -7q-17 0 -36 6q-20 6 -36 19q-17 14 -27 36q-10 21 -10 55v188v49q0 18 -3 27t-11 12q-9 4 -21 5v7l148 85v-396q0 -36 12 -51t26 -15q29 0 93 69v209v49q0 18 -3 27t-11 12q-9 4 -21 5v7l147 85v-350v-60q0 -22 3 -34t9 -18t17 -9v-7h-131q-9 -12 -17 -33
q-9 -22 -9 -57q0 -23 12 -36q12 -14 32 -14q10 0 18 5q8 4 15 12l4 -6q-4 -6 -10 -12q-8 -8 -19 -15q-12 -8 -28 -12q-18 -5 -39 -5q-38 0 -64 18q-25 18 -25 49q0 23 13 40q15 20 31 32q19 14 38 23q23 11 33 14v74q-25 -25 -36 -35q-15 -13 -33 -25q-15 -9 -33 -16
q-17 -6 -36 -6z" />
    <glyph glyph-name="Wcircumflex" unicode="&#x174;" horiz-adv-x="767" 
d="M66 623l-6 -2q-7 21 -15 47q-6 20 -12 33t-14 23q-8 9 -20 17v7h191v-7q-23 -6 -24 -22t12 -58l147 -485l59 192l-78 254q-7 21 -15 47q-6 19 -12 33q-6 13 -14 23q-7 9 -21 15v7h189v-7q-21 -6 -21 -22t12 -60l40 -141l31 104q4 14 10 40q4 17 4 34q0 15 -6 27t-22 19v7
h91v-7q-12 -5 -18 -10q-8 -6 -15 -18t-15 -33t-18 -57l-36 -121l94 -327l122 448q4 14 10 40q4 19 3 34q-1 14 -11 27q-8 11 -30 19v7h105v-7q-12 -6 -17 -10q-8 -6 -15 -18q-8 -13 -15 -34q-9 -26 -18 -58l-171 -628h-23l-110 356l-109 -356h-23zM408 901l127 -119l-3 -6
l-124 39l-124 -39l-3 6z" />
    <glyph glyph-name="wcircumflex" unicode="&#x175;" horiz-adv-x="574" 
d="M55 355l-2 -3q-4 13 -10 31.5t-7 22.5q-5 15 -11 30q-5 10 -9 15q-4 4 -12 7v6h166v-6q-10 -1 -16 -6q-5 -4 -7 -15q-1 -11 3 -30t15 -51l72 -219l50 137l-25 79q-4 13 -10 31.5t-7 22.5q-6 19 -12 30q-7 12 -10 15q-4 4 -12 7v6h167v-6q-11 -2 -17 -6q-7 -5 -8 -15
q-1 -9 2 -30q3 -17 14 -51l66 -212l60 190q14 43 17 65q3 24 0 36q-3 13 -13 17q-11 5 -25 6v6h101v-6q-12 -3 -18 -7q-8 -5 -15 -16q-6 -10 -16 -36q-6 -16 -22 -64l-107 -341h-22l-83 265l-97 -265h-22zM296 694l110 -177l-6 -5l-104 71l-104 -71l-6 5z" />
    <glyph glyph-name="Ycircumflex" unicode="&#x176;" horiz-adv-x="516" 
d="M158 7l-2 -2q15 5 24 12q10 8 14 28q4 21 6 59q1 25 1 105v168l-117 248q-20 45 -36 72t-45 45v6h207v-6q-21 -8 -24 -25t11 -49l124 -269l96 223q8 18 19 50q7 20 7 34q0 12 -8 22q-7 9 -26 15v6h103v-6q-10 -4 -20 -11q-9 -6 -18 -18q-11 -14 -20 -33q-13 -27 -26 -57
l-102 -234v-180q0 -80 1 -105q1 -37 6 -58q4 -21 13 -28q9 -8 25 -12v-7h-213v7zM302 901l127 -119l-3 -6l-124 39l-124 -39l-3 6z" />
    <glyph glyph-name="ycircumflex" unicode="&#x177;" horiz-adv-x="397" 
d="M77 -171v3q-25 0 -39 12q-13 12 -13 29q0 19 11 27t24 8q14 0 21 -4l15 -9q10 -6 15 -8q7 -3 18 -3q6 0 12 3q7 3 14 12q7 8 15 26q8 17 18 42l8 23l-141 368q-9 24 -20 51q-10 23 -13 29q-6 10 -12 15q-5 4 -13 7v6h179v-6q-10 -2 -18 -6t-9 -15q-2 -11 3 -29
q3 -13 17 -49l81 -219l69 195q14 41 18 64q5 25 2 36q-3 13 -12 17t-23 6v6h95v-6q-11 -3 -16 -7q-6 -5 -14 -17q-6 -10 -16 -36q-15 -40 -23 -64l-132 -371q-27 -73 -54 -105q-27 -31 -67 -31zM232 700l110 -177l-6 -5l-104 71l-104 -71l-6 5z" />
    <glyph glyph-name="Ydieresis" unicode="&#x178;" horiz-adv-x="516" 
d="M158 7l-2 -2q15 5 24 12q10 8 14 28q4 21 6 59q1 25 1 105v168l-117 248q-20 45 -36 72t-45 45v6h207v-6q-21 -8 -24 -25t11 -49l124 -269l96 223q8 18 19 50q7 20 7 34q0 12 -8 22q-7 9 -26 15v6h103v-6q-10 -4 -20 -11q-9 -6 -18 -18q-11 -14 -20 -33q-13 -27 -26 -57
l-102 -234v-180q0 -80 1 -105q1 -37 6 -58q4 -21 13 -28q9 -8 25 -12v-7h-213v7zM382 783l-2 -2q-23 0 -40 17q-16 16 -16 42q0 23 16 39q17 17 40 17q25 0 41 -16q17 -17 17 -39q0 -26 -16 -42t-40 -16zM220 781l-4 -2q-23 0 -40 17q-16 16 -16 42q0 22 17 39t41 17
q25 0 41 -16q17 -17 17 -39q0 -26 -16 -42t-40 -16z" />
    <glyph glyph-name="Zacute" unicode="&#x179;" horiz-adv-x="501" 
d="M324 742l-83 -2q-48 0 -81 -9q-31 -8 -55 -26q-21 -15 -37 -41q-13 -21 -30 -53h-8l26 138h410l-312 -742h104q56 0 94 9t61 28q24 20 39 49q14 29 30 74h8l-22 -167h-453zM170 783l115 91q25 19 51 19q18 0 28 -12q10 -11 10 -25q0 -20 -12 -33q-12 -14 -43 -21
l-147 -25z" />
    <glyph glyph-name="zacute" unicode="&#x17a;" horiz-adv-x="367" 
d="M334 -10l1 1q-7 4 -15 5t-23 3q-18 2 -36 2h-55h-195l221 458h-43q-44 0 -69 -7q-26 -7 -43 -21t-26 -33q-10 -22 -18 -43h-8l22 122q17 -7 45 -9q19 -1 84 -1h174l-224 -458h58q41 0 70 8q25 7 43 23q16 15 27 38q10 22 21 51h8zM136 523l73 126q13 22 26 33t30 11
q19 0 30 -11t11 -27q0 -20 -10 -33q-10 -14 -27 -24l-127 -79z" />
    <glyph glyph-name="Zdotaccent" unicode="&#x17b;" horiz-adv-x="501" 
d="M324 742l-83 -2q-48 0 -81 -9q-31 -8 -55 -26q-21 -15 -37 -41q-13 -21 -30 -53h-8l26 138h410l-312 -742h104q56 0 94 9t61 28q24 20 39 49q14 29 30 74h8l-22 -167h-453zM256 783v-1q-26 0 -44 18t-18 44t18 44t44 18t44 -18t18 -43q0 -26 -18 -44t-44 -18z" />
    <glyph glyph-name="zdotaccent" unicode="&#x17c;" horiz-adv-x="367" 
d="M334 -10l1 1q-7 4 -15 5t-23 3q-18 2 -36 2h-55h-195l221 458h-43q-44 0 -69 -7q-26 -7 -43 -21t-26 -33q-10 -22 -18 -43h-8l22 122q17 -7 45 -9q19 -1 84 -1h174l-224 -458h58q41 0 70 8q25 7 43 23q16 15 27 38q10 22 21 51h8zM198 531v-1q-26 0 -44 18t-18 44t18 44
t44 18t44 -18t18 -43q0 -26 -18 -44t-44 -18z" />
    <glyph glyph-name="Zcaron" unicode="&#x17d;" horiz-adv-x="501" 
d="M324 742l-83 -2q-48 0 -81 -9q-31 -8 -55 -26q-21 -15 -37 -41q-13 -21 -30 -53h-8l26 138h410l-312 -742h104q56 0 94 9t61 28q24 20 39 49q14 29 30 74h8l-22 -167h-453zM132 907l124 -39l124 39l3 -6l-127 -119l-127 119z" />
    <glyph glyph-name="zcaron" unicode="&#x17e;" horiz-adv-x="367" 
d="M334 -10l1 1q-7 4 -15 5t-23 3q-18 2 -36 2h-55h-195l221 458h-43q-44 0 -69 -7q-26 -7 -43 -21t-26 -33q-10 -22 -18 -43h-8l22 122q17 -7 45 -9q19 -1 84 -1h174l-224 -458h58q41 0 70 8q25 7 43 23q16 15 27 38q10 22 21 51h8zM94 703l104 -71l104 71l6 -4l-110 -178
l-110 178z" />
    <glyph glyph-name="uni0192" unicode="&#x192;" horiz-adv-x="389" 
d="M70 466h59l13 106q6 53 23 90t39 59q23 23 48 32q26 9 50 9q43 0 73 -15t30 -47q0 -12 -9 -24t-29 -12q-23 0 -32 11q-8 10 -13 32q-5 29 -9 38q-5 9 -15 9q-9 0 -15 -6q-7 -7 -11 -19q-4 -13 -9 -38t-9 -61l-19 -163h85v-10h-86l-36 -319q-7 -66 -26 -116
q-18 -48 -42 -78t-54 -45t-60 -15q-22 0 -41 3t-35 11q-14 7 -24 20q-9 12 -9 28q0 14 9 26t30 12q23 0 32 -12q8 -11 13 -33q4 -28 11 -38q6 -9 20 -9q12 0 21 9q8 8 16 35q7 25 15 71q7 44 15 116l40 333h-59v10z" />
    <glyph glyph-name="Aringacute" unicode="&#x1fa;" horiz-adv-x="550" 
d="M4 6l-3 -1q10 5 17 12q8 7 15 21q5 10 16 38q11 29 20 63l138 497l-14 45q-10 37 -21 49q-10 11 -27 16v6h146q8 0 11 -3t6 -12l178 -609q16 -56 27 -84t33 -36v-7h-188v7q20 5 23 21q3 17 -9 57l-42 141h-225l-24 -89q-9 -32 -12 -54t0 -37q3 -14 14 -25q10 -10 30 -16
v-6h-109v6zM325 234l-114 382l-105 -382h219zM151 849l-2 1q0 32 24 53t61 21q38 0 60 -21q23 -21 23 -53q0 -33 -23 -54q-22 -21 -60 -21q-37 0 -60 20t-23 54zM195 850h-1q0 -65 38 -65q39 0 39 65q0 32 -10 48q-11 17 -28 17t-28 -17q-10 -16 -10 -48zM142 938l115 91
q25 19 51 19q18 0 28 -12q10 -11 10 -25q0 -19 -12 -33t-43 -21l-147 -25z" />
    <glyph glyph-name="aringacute" unicode="&#x1fb;" horiz-adv-x="404" 
d="M128 -8l5 -3q-48 0 -78 27t-30 77q0 35 15 56q16 22 39 35q24 14 54 24t57 24l7 3q12 6 21 12q10 7 15 13q6 7 9 20q3 12 3 31v79q0 42 -18 56q-19 14 -42 14q-22 0 -34 -12q-13 -12 -23 -41q-8 -19 -16 -31q-9 -13 -30 -13q-19 0 -30 11t-11 26q0 29 39 50t105 21
q32 0 62 -6q31 -6 54 -19q24 -13 39 -38q15 -24 15 -62v-218q0 -47 1 -62q2 -26 4 -35q3 -11 9 -16q5 -4 15 -4q6 0 12 2q4 1 9 6l3 -6q-8 -5 -24 -12q-18 -8 -51 -8q-77 0 -87 58q-29 -30 -52 -44q-26 -15 -66 -15zM137 114l-1 -1q0 -100 49 -100q12 0 28 11q11 8 37 32
q-1 3 -1 12v200q-6 -14 -18 -21q-16 -10 -31 -17l-7 -3q-33 -19 -44 -43q-12 -26 -12 -70zM114 596h-2q0 32 24 53t59 21t59 -21t24 -53q0 -31 -23 -52t-59 -21t-59 20t-23 53zM157 596v-1q0 -65 37 -65t37 65q0 32 -10 48q-11 17 -27 17q-17 0 -27 -16t-10 -48zM107 691
l115 91q25 19 51 19q17 0 28 -12q10 -11 10 -25q0 -20 -12 -33q-12 -14 -43 -21l-147 -25z" />
    <glyph glyph-name="AEacute" unicode="&#x1fc;" horiz-adv-x="762" 
d="M589 327l-2 -3q-6 22 -9 32q-4 15 -15 27t-30 18t-54 6h-12v-401h61q47 0 85 5q34 4 58 18q24 13 39 38q16 25 26 65h9l-12 -117q-1 -13 -6 -15q-6 -2 -12 -2h-416v7q15 5 24 12q10 8 14 28q4 21 6 59q1 25 1 105v22h-210l-46 -107q-23 -56 -24 -82q-1 -27 27 -37v-6h-94
v6q10 5 17 12q8 8 17 20q11 14 20 33q16 32 26 54l239 555q14 35 8 46q-6 13 -36 17v7h400q8 0 11 -3t6 -18l18 -101h-9q-12 35 -27 56q-16 22 -37 35q-22 14 -54 18q-35 5 -77 5h-50v-322h12q35 0 54 6t30 18t15 27q3 10 9 32h7v-175h-7zM341 237v480l-207 -480h207z
M421 782l115 91q25 19 51 19q17 0 28 -12q10 -11 10 -25q0 -19 -12 -33t-43 -21l-147 -25z" />
    <glyph glyph-name="aeacute" unicode="&#x1fd;" horiz-adv-x="620" 
d="M129 -8l7 -2q-48 0 -78 27t-30 77q0 35 15 56q16 22 39 35q24 13 54 24t57 24l7 3q12 6 21 12q10 7 15 13q6 7 9 20q3 12 3 31v79q0 43 -18 56q-19 14 -42 14q-22 0 -34 -12t-23 -41q-8 -19 -16 -31q-9 -13 -30 -13q-19 0 -30 11t-11 26q0 29 39 50t105 21q40 0 78 -9
q37 -9 63 -35q25 22 54 33q30 11 54 11q42 0 73 -14q29 -13 49 -36q19 -22 28 -49q10 -29 11 -53h-234q-3 -32 -3 -72q0 -52 6 -96q6 -42 20 -75q13 -31 36 -49t54 -18q37 0 60 12q24 13 42 28l5 -7q-20 -17 -48 -33t-79 -16q-53 0 -99 21t-76 67l-27 -27q-12 -12 -30 -28
q-12 -11 -27 -19q-14 -8 -30 -12q-15 -4 -39 -4zM441 464l-1 1q-26 0 -45 -30q-20 -30 -27 -106h134q-3 61 -14 99q-11 36 -47 36zM138 116l1 -1q0 -100 49 -100q13 0 30 11q16 10 42 36l25 24q-18 30 -26 64q-9 36 -9 83v37q-6 -14 -18 -21q-16 -10 -31 -17l-7 -3
q-33 -19 -44 -43q-12 -26 -12 -70zM261 520l73 126q13 22 26 33t30 11q19 0 30 -11t11 -27q0 -20 -10 -33q-11 -13 -27 -24l-127 -79z" />
    <glyph glyph-name="Oslashacute" unicode="&#x1fe;" horiz-adv-x="625" 
d="M312 -12v-1q-72 0 -137 48l-31 -76l-9 4l32 78q-60 48 -99 134q-39 85 -39 201q0 90 24 161t63 120q38 49 90 76q51 27 105 27q68 0 130 -41l27 66l10 -4l-28 -68q64 -47 104 -132q41 -87 41 -205q0 -88 -24 -160t-63 -123t-90 -78t-106 -27zM167 375l2 -1q0 -81 8 -150
q7 -64 21 -111l219 540q-20 49 -46 72q-27 24 -58 24t-57 -22t-46 -69q-19 -44 -31 -117q-12 -71 -12 -166zM314 -5l-3 -1q68 0 107 93q38 92 40 286q0 88 -9 154q-9 65 -26 113l-220 -540q37 -105 111 -105zM222 782l115 91q25 19 51 19q18 0 28 -12q10 -11 10 -25
q0 -19 -12 -33t-43 -21l-147 -25z" />
    <glyph glyph-name="oslashacute" unicode="&#x1ff;" horiz-adv-x="447" 
d="M296 385l23 57l-8 4l22 50l8 -5l-22 -49q21 -14 39 -33q19 -20 33 -46q15 -27 24 -60t9 -75q0 -66 -21 -111q-21 -44 -51 -73q-29 -28 -66 -40q-36 -12 -64 -12q-20 0 -44 6q-22 6 -48 20l23 53l-4 15l142 312q-10 37 -28 52t-40 15q-17 0 -34 -12q-16 -11 -28 -39
q-12 -27 -18 -72t-6 -113q0 -46 3 -82q3 -35 9 -61l-28 -63q3 -1 9 -6l-26 -57l-9 5l26 57q-21 14 -38 33q-19 21 -32 45t-22 58q-9 33 -9 73q0 67 21 114q21 46 53 75q32 28 66 42q33 13 63 13q20 0 44 -6q22 -6 48 -20l-23 -50zM220 -1l-1 -1q19 0 35 11q15 10 27 38
q12 27 18 71t6 110q0 52 -3 89q-3 41 -10 65l-142 -313q12 -37 30 -54q17 -16 40 -16zM157 518l73 126q13 22 26 33t30 11q19 0 30 -11t11 -27q0 -20 -10 -33q-11 -13 -27 -24l-127 -79z" />
    <glyph glyph-name="uni0218" unicode="&#x218;" horiz-adv-x="464" 
d="M215 -9v-2q-36 0 -63 8q-22 6 -43 17q-14 7 -32 17q-14 8 -30 8q-13 0 -18 -21h-8v195h9q13 -105 59 -160q45 -54 125 -54q69 0 102 30t33 93q0 34 -11 62q-10 27 -32 53q-21 26 -53 53q-33 28 -74 59q-31 25 -59 50q-26 23 -46 51q-19 27 -30 59q-11 33 -11 72t13 69
q14 32 38 56q23 23 59 37t78 14q30 0 51 -6q19 -5 37 -12t29 -12q12 -6 23 -6q17 0 21 25h8v-153h-9q-15 80 -57 118q-41 37 -105 37q-55 0 -81 -26t-26 -71q0 -51 36 -94q35 -42 102 -94q22 -16 73 -56q35 -27 60 -57q24 -28 40 -65q15 -35 15 -78q0 -57 -19 -96
q-19 -40 -51 -67q-31 -26 -72 -40q-39 -13 -81 -13zM252 -118q-4 -5 -15 -13q-10 -7 -28 -7q-19 0 -35 14q-15 14 -15 36q0 25 17 39t38 14q25 0 45 -17t20 -54q0 -39 -24 -63q-23 -23 -66 -28l-3 7q38 6 54 24q17 19 17 35q0 10 -5 13z" />
    <glyph glyph-name="uni0219" unicode="&#x219;" horiz-adv-x="330" 
d="M169 3l-2 -11q41 0 57 21q17 22 17 51q0 32 -22 60t-78 61q-28 16 -54 35q-22 16 -36 35q-13 18 -21 41q-7 21 -7 51q0 26 9 47t26 38q16 16 39 25t50 9q19 0 32 -3q18 -4 26 -7q5 -2 23 -7q10 -3 24 -3t18 16h8v-122h-8q-19 62 -51 91q-31 28 -69 28q-34 0 -51 -15
q-16 -15 -16 -42q0 -17 6 -29t18 -24q11 -11 32 -24q35 -22 45 -28q34 -19 59 -38q23 -17 39 -38q14 -18 22 -42q7 -21 7 -51q0 -32 -12 -57q-11 -24 -32 -43q-19 -18 -45 -27t-53 -9q-25 0 -43 6q-22 7 -32 13l-25 13q-11 6 -21 6q-7 0 -11 -4q-5 -4 -6 -12h-9v146h9
q21 -79 54 -118t84 -39zM192 -127q-4 -5 -15 -13q-10 -7 -28 -7q-19 0 -35 14q-15 13 -15 36q0 25 17 39t38 14q25 0 45 -17t20 -54q0 -39 -24 -63q-23 -23 -66 -28l-3 7q38 6 54 24q17 19 17 35q0 10 -5 13z" />
    <glyph glyph-name="uni021A" unicode="&#x21a;" horiz-adv-x="540" 
d="M161 7l-1 -2q16 4 25 12q9 7 13 28t6 59q1 25 1 105v531h-16q-43 0 -72 -6t-48 -22q-21 -17 -32 -43q-11 -25 -22 -70h-9l12 131q1 15 5 19q3 3 11 3h470q8 0 11 -3q4 -4 5 -19l14 -131h-9q-11 42 -24 69q-14 28 -33 44q-20 17 -48 23t-70 6h-18v-531q0 -80 1 -105
q1 -37 6 -58q4 -20 14 -28q9 -7 24 -12v-7h-216v7zM302 -118q-4 -5 -15 -13q-10 -7 -28 -7q-19 0 -35 14q-15 14 -15 36q0 25 17 39t38 14q25 0 45 -17t20 -54q0 -39 -24 -63q-23 -23 -66 -28l-3 7q38 6 54 24q17 19 17 35q0 10 -5 13z" />
    <glyph glyph-name="uni021B" unicode="&#x21b;" horiz-adv-x="264" 
d="M169 -8l-1 -4q-57 0 -87 30t-30 80v355h-41v9q22 3 44 15t42 33q21 22 35 51q16 32 23 69h9v-164h89v-10h-89v-340q0 -57 8 -83q7 -24 38 -24q15 0 26 6q9 5 18 14l5 -6l-10 -10q-5 -6 -16 -10q-12 -5 -26 -8q-15 -3 -37 -3zM181 -120q-4 -5 -15 -13q-10 -7 -28 -7
q-19 0 -35 14q-15 14 -15 36q0 25 17 39t38 14q25 0 45 -17t20 -54q0 -39 -24 -63q-23 -23 -66 -28l-3 7q37 6 54 24q17 19 17 35q0 10 -5 13z" />
    <glyph glyph-name="uni0237" unicode="&#x237;" horiz-adv-x="209" 
d="M-29 -139l-3 -3q-20 0 -33 12t-13 32q0 18 11 27t24 9t24 -8q9 -7 18 -17q10 -12 15 -17q8 -8 15 -8q5 0 9 4q5 4 7 24q1 13 1 66v299v54q0 19 -3 30t-11 14q-9 4 -21 5v7l147 85v-392q0 -30 -3 -55q-3 -27 -13 -48q-11 -23 -28 -43q-18 -21 -46 -40q-31 -22 -53 -30
q-20 -7 -44 -7z" />
    <glyph glyph-name="circumflex" unicode="&#x2c6;" 
d="M228 697l110 -177l-6 -5l-104 71l-104 -71l-6 5z" />
    <glyph glyph-name="caron" unicode="&#x2c7;" 
d="M124 702l104 -71l104 71l6 -4l-110 -178l-110 178z" />
    <glyph glyph-name="breve" unicode="&#x2d8;" 
d="M223 595l-3 -2q38 0 55 16q19 17 26 36h9q0 -20 -5 -43q-5 -21 -16 -37q-12 -17 -28 -27t-39 -10q-25 0 -41 10t-28 27q-11 15 -16 38t-5 44h9q6 -19 25 -35q20 -17 57 -17z" />
    <glyph glyph-name="dotaccent" unicode="&#x2d9;" 
d="M222 530v-1q-26 0 -44 18t-18 44t18 44t44 18t44 -18t18 -43q0 -26 -18 -44t-44 -18z" />
    <glyph glyph-name="ring" unicode="&#x2da;" 
d="M149 600h-2q0 32 24 53t59 21t59 -21t24 -53q0 -31 -23 -52q-22 -21 -59 -21q-36 0 -59 20t-23 53zM192 600v-1q0 -65 37 -65t37 65q0 32 -10 48q-11 17 -27 17q-17 0 -27 -16t-10 -48z" />
    <glyph glyph-name="ogonek" unicode="&#x2db;" 
d="M229 -176l-1 -2q-38 0 -63 18t-25 49q0 21 14 40t33 32q21 15 42 23q27 11 40 14h12q-14 -13 -27 -34q-13 -22 -13 -57q0 -23 12 -36q12 -14 32 -14q12 0 20 5q7 4 15 12l5 -6l-12 -12q-7 -8 -18 -15t-27 -12q-18 -5 -39 -5z" />
    <glyph glyph-name="tilde" unicode="&#x2dc;" 
d="M178 635q30 0 51 -4t44 -4q14 0 24 10q12 12 27 31l7 -3q-10 -46 -27 -76q-16 -30 -42 -30q-21 0 -46 5t-48 5q-12 0 -22 -9q-10 -8 -27 -32l-6 3q15 51 30 77q15 27 35 27z" />
    <glyph glyph-name="hungarumlaut" unicode="&#x2dd;" 
d="M239 531l32 127q5 22 15 36q11 14 31 14q17 0 26 -10t9 -27q0 -12 -4 -21q-4 -10 -12 -18l-91 -104zM116 530l31 127q6 23 16 36q11 14 30 14q18 0 27 -10q9 -11 9 -27q0 -12 -4 -21q-5 -11 -12 -18l-91 -104z" />
    <glyph glyph-name="Wgrave" unicode="&#x1e80;" horiz-adv-x="767" 
d="M66 623l-6 -2q-7 21 -15 47q-6 20 -12 33t-14 23q-8 9 -20 17v7h191v-7q-23 -6 -24 -22t12 -58l147 -485l59 192l-78 254q-7 21 -15 47q-6 19 -12 33q-6 13 -14 23q-7 9 -21 15v7h189v-7q-21 -6 -21 -22t12 -60l40 -141l31 104q4 14 10 40q4 17 4 34q0 15 -6 27t-22 19v7
h91v-7q-12 -5 -18 -10q-8 -6 -15 -18t-15 -33t-18 -57l-36 -121l94 -327l122 448q4 14 10 40q4 19 3 34q-1 14 -11 27q-8 11 -30 19v7h105v-7q-12 -6 -17 -10q-8 -6 -15 -18q-8 -13 -15 -34q-9 -26 -18 -58l-171 -628h-23l-110 356l-109 -356h-23zM351 802v-2q-31 8 -45 21
q-13 13 -13 33q0 13 11 26q10 12 29 12q26 0 51 -19l116 -90l-3 -6z" />
    <glyph glyph-name="wgrave" unicode="&#x1e81;" horiz-adv-x="574" 
d="M55 355l-2 -3q-4 13 -10 31.5t-7 22.5q-5 15 -11 30q-5 10 -9 15q-4 4 -12 7v6h166v-6q-10 -1 -16 -6q-5 -4 -7 -15q-1 -11 3 -30t15 -51l72 -219l50 137l-25 79q-4 13 -10 31.5t-7 22.5q-6 19 -12 30q-7 12 -10 15q-4 4 -12 7v6h167v-6q-11 -2 -17 -6q-7 -5 -8 -15
q-1 -9 2 -30q3 -17 14 -51l66 -212l60 190q14 43 17 65q3 24 0 36q-3 13 -13 17q-11 5 -25 6v6h101v-6q-12 -3 -18 -7q-8 -5 -15 -16q-6 -10 -16 -36q-6 -16 -22 -64l-107 -341h-22l-83 265l-97 -265h-22zM228 594l-3 -1q-17 11 -27 24t-10 33q0 16 11 27t30 11q17 0 30 -11
t26 -33l76 -125l-6 -4z" />
    <glyph glyph-name="Wacute" unicode="&#x1e82;" horiz-adv-x="767" 
d="M66 623l-6 -2q-7 21 -15 47q-6 20 -12 33t-14 23q-8 9 -20 17v7h191v-7q-23 -6 -24 -22t12 -58l147 -485l59 192l-78 254q-7 21 -15 47q-6 19 -12 33q-6 13 -14 23q-7 9 -21 15v7h189v-7q-21 -6 -21 -22t12 -60l40 -141l31 104q4 14 10 40q4 17 4 34q0 15 -6 27t-22 19v7
h91v-7q-12 -5 -18 -10q-8 -6 -15 -18t-15 -33t-18 -57l-36 -121l94 -327l122 448q4 14 10 40q4 19 3 34q-1 14 -11 27q-8 11 -30 19v7h105v-7q-12 -6 -17 -10q-8 -6 -15 -18q-8 -13 -15 -34q-9 -26 -18 -58l-171 -628h-23l-110 356l-109 -356h-23zM320 783l115 91
q25 19 51 19q18 0 28 -12q10 -11 10 -25q0 -20 -12 -33q-12 -14 -43 -21l-147 -25z" />
    <glyph glyph-name="wacute" unicode="&#x1e83;" horiz-adv-x="574" 
d="M55 355l-2 -3q-4 13 -10 31.5t-7 22.5q-5 15 -11 30q-5 10 -9 15q-4 4 -12 7v6h166v-6q-10 -1 -16 -6q-5 -4 -7 -15q-1 -11 3 -30t15 -51l72 -219l50 137l-25 79q-4 13 -10 31.5t-7 22.5q-6 19 -12 30q-7 12 -10 15q-4 4 -12 7v6h167v-6q-11 -2 -17 -6q-7 -5 -8 -15
q-1 -9 2 -30q3 -17 14 -51l66 -212l60 190q14 43 17 65q3 24 0 36q-3 13 -13 17q-11 5 -25 6v6h101v-6q-12 -3 -18 -7q-8 -5 -15 -16q-6 -10 -16 -36q-6 -16 -22 -64l-107 -341h-22l-83 265l-97 -265h-22zM235 519l73 126q13 22 26 33t30 11q19 0 30 -11t11 -27
q0 -20 -10 -33q-11 -14 -27 -24l-127 -79z" />
    <glyph glyph-name="Wdieresis" unicode="&#x1e84;" horiz-adv-x="767" 
d="M66 623l-6 -2q-7 21 -15 47q-6 20 -12 33t-14 23q-8 9 -20 17v7h191v-7q-23 -6 -24 -22t12 -58l147 -485l59 192l-78 254q-7 21 -15 47q-6 19 -12 33q-6 13 -14 23q-7 9 -21 15v7h189v-7q-21 -6 -21 -22t12 -60l40 -141l31 104q4 14 10 40q4 17 4 34q0 15 -6 27t-22 19v7
h91v-7q-12 -5 -18 -10q-8 -6 -15 -18t-15 -33t-18 -57l-36 -121l94 -327l122 448q4 14 10 40q4 19 3 34q-1 14 -11 27q-8 11 -30 19v7h105v-7q-12 -6 -17 -10q-8 -6 -15 -18q-8 -13 -15 -34q-9 -26 -18 -58l-171 -628h-23l-110 356l-109 -356h-23zM489 783l-2 -2
q-23 0 -40 17q-16 16 -16 42q0 23 16 39q17 17 40 17q25 0 41 -16q17 -17 17 -39q0 -26 -16 -42t-40 -16zM327 781l-4 -2q-23 0 -40 17q-16 16 -16 42q0 22 17 39t41 17q25 0 41 -16q17 -17 17 -39q0 -26 -16 -42t-40 -16z" />
    <glyph glyph-name="wdieresis" unicode="&#x1e85;" horiz-adv-x="574" 
d="M55 355l-2 -3q-4 13 -10 31.5t-7 22.5q-5 15 -11 30q-5 10 -9 15q-4 4 -12 7v6h166v-6q-10 -1 -16 -6q-5 -4 -7 -15q-1 -11 3 -30t15 -51l72 -219l50 137l-25 79q-4 13 -10 31.5t-7 22.5q-6 19 -12 30q-7 12 -10 15q-4 4 -12 7v6h167v-6q-11 -2 -17 -6q-7 -5 -8 -15
q-1 -9 2 -30q3 -17 14 -51l66 -212l60 190q14 43 17 65q3 24 0 36q-3 13 -13 17q-11 5 -25 6v6h101v-6q-12 -3 -18 -7q-8 -5 -15 -16q-6 -10 -16 -36q-6 -16 -22 -64l-107 -341h-22l-83 265l-97 -265h-22zM374 528v-2q-25 0 -42 17q-16 16 -16 42q0 23 16 39q17 17 42 17
q24 0 40 -16t16 -39q0 -26 -16 -42t-40 -16zM216 526v-2q-23 0 -40 17q-16 16 -16 42q0 23 16 39q17 17 40 17q26 0 42 -16t16 -39q0 -26 -16 -42t-42 -16z" />
    <glyph glyph-name="Ygrave" unicode="&#x1ef2;" horiz-adv-x="516" 
d="M158 7l-2 -2q15 5 24 12q10 8 14 28q4 21 6 59q1 25 1 105v168l-117 248q-20 45 -36 72t-45 45v6h207v-6q-21 -8 -24 -25t11 -49l124 -269l96 223q8 18 19 50q7 20 7 34q0 12 -8 22q-7 9 -26 15v6h103v-6q-10 -4 -20 -11q-9 -6 -18 -18q-11 -14 -20 -33q-13 -27 -26 -57
l-102 -234v-180q0 -80 1 -105q1 -37 6 -58q4 -21 13 -28q9 -8 25 -12v-7h-213v7zM245 802v-2q-31 8 -45 21q-13 13 -13 33q0 13 11 26q10 12 29 12q26 0 51 -19l116 -90l-3 -6z" />
    <glyph glyph-name="ygrave" unicode="&#x1ef3;" horiz-adv-x="397" 
d="M77 -171v3q-25 0 -39 12q-13 12 -13 29q0 19 11 27t24 8q14 0 21 -4l15 -9q10 -6 15 -8q7 -3 18 -3q6 0 12 3q7 3 14 12q7 8 15 26q8 17 18 42l8 23l-141 368q-9 24 -20 51q-10 23 -13 29q-6 10 -12 15q-5 4 -13 7v6h179v-6q-10 -2 -18 -6t-9 -15q-2 -11 3 -29
q3 -13 17 -49l81 -219l69 195q14 41 18 64q5 25 2 36q-3 13 -12 17t-23 6v6h95v-6q-11 -3 -16 -7q-6 -5 -14 -17q-6 -10 -16 -36q-15 -40 -23 -64l-132 -371q-27 -73 -54 -105q-27 -31 -67 -31zM173 600l-3 -1q-16 11 -27 24q-10 13 -10 33q0 16 11 27t30 11q17 0 30 -11
t26 -33l76 -125l-6 -4z" />
    <glyph glyph-name="uni2009" unicode="&#x2009;" horiz-adv-x="64" 
 />
    <glyph glyph-name="endash" unicode="&#x2013;" horiz-adv-x="459" 
d="M41 287h378v-12h-378v12z" />
    <glyph glyph-name="emdash" unicode="&#x2014;" horiz-adv-x="827" 
d="M41 287h746v-12h-746v12z" />
    <glyph glyph-name="quoteleft" unicode="&#x2018;" horiz-adv-x="200" 
d="M70 655l4 -1q5 8 15 14q11 6 27 6q21 0 36 -16t15 -40q0 -26 -18 -43q-17 -16 -42 -16q-26 0 -48 19t-22 61q0 53 28 87q29 35 70 54l4 -6q-36 -19 -58 -44q-21 -24 -21 -52q0 -8 3 -14t7 -9z" />
    <glyph glyph-name="quoteright" unicode="&#x2019;" horiz-adv-x="200" 
d="M129 669v-1q-5 -8 -15 -14t-27 -6q-21 0 -36 16t-15 40q0 26 18 43q17 16 42 16q24 0 46 -19t22 -61q0 -53 -28 -87q-29 -35 -70 -54l-4 6q37 19 57 44t20 53q0 17 -10 24z" />
    <glyph glyph-name="quotesinglbase" unicode="&#x201a;" horiz-adv-x="197" 
d="M125 12v-1q-5 -8 -15 -14t-27 -6q-21 0 -36 16t-15 40q0 27 18 43q17 16 42 16q24 0 46 -19t22 -61q0 -53 -28 -87q-29 -35 -70 -54l-4 6q37 19 57 44t20 53q0 17 -10 24z" />
    <glyph glyph-name="quotedblleft" unicode="&#x201c;" horiz-adv-x="354" 
d="M70 655l4 -1q5 8 15 14q11 6 27 6q21 0 36 -16t15 -40q0 -26 -18 -43q-17 -16 -42 -16q-26 0 -48 19t-22 61q0 53 28 87q29 35 70 54l4 -6q-36 -19 -58 -44q-21 -24 -21 -52q0 -8 3 -14t7 -9zM229 654l-2 -1q5 8 15 14t27 6q20 0 36 -16t16 -40q0 -27 -18 -43
q-17 -16 -42 -16q-26 0 -46 19q-21 19 -21 61q0 53 28 87q29 35 70 54l4 -6q-37 -19 -57 -44t-20 -52q0 -8 3 -14q3 -7 7 -9z" />
    <glyph glyph-name="quotedblright" unicode="&#x201d;" horiz-adv-x="354" 
d="M284 669v-2q-5 -8 -15 -14q-11 -6 -27 -6q-20 0 -36 16t-16 40q0 27 18 43q17 16 41 16q26 0 48 -19t22 -61q0 -53 -28 -87q-29 -35 -70 -54l-4 6q37 19 57 44t20 53q0 8 -3 14q-4 8 -7 11zM129 667v-1q-5 -8 -15 -14t-27 -6q-21 0 -36 16t-15 40q0 26 18 43q17 16 42 16
q24 0 46 -19t22 -61q0 -53 -28 -87q-29 -35 -70 -54l-4 6q37 19 57 44t20 53q0 17 -10 24z" />
    <glyph glyph-name="quotedblbase" unicode="&#x201e;" horiz-adv-x="352" 
d="M283 12v-2q-5 -8 -15 -14t-27 -6q-20 0 -36 16t-16 40q0 26 18 43q17 16 41 16q26 0 48 -19t22 -61q0 -53 -28 -87q-29 -35 -70 -54l-4 6q37 19 57 44t20 53q0 8 -3 14q-4 8 -7 11zM128 10v-1q-5 -8 -15 -14q-11 -6 -27 -6q-21 0 -36 16q-15 17 -15 40q0 27 18 43
q17 16 42 16q24 0 46 -19t22 -61q0 -53 -28 -87q-29 -35 -70 -54l-4 6q37 19 57 44t20 53q0 17 -10 24z" />
    <glyph glyph-name="dagger" unicode="&#x2020;" horiz-adv-x="360" 
d="M177 -2l5 -9q-1 21 -5 86q-3 45 -9 94q-4 32 -12 94q-6 47 -12 84q-1 7 -4.5 30t-5.5 33q-4 26 -6 33q18 19 33 51t15 63q-15 0 -26 -7q-16 -10 -24 -16q-11 -8 -25 -16q-13 -7 -30 -7q-28 0 -43 16q-15 17 -15 36q0 21 15 36t43 15q17 0 30 -7q14 -8 25 -16q8 -6 24 -16
q11 -7 26 -7q0 13 -8 27q-9 16 -18 29q-10 14 -18 32t-8 35q0 23 15 41t41 18t42 -18q16 -17 16 -41q0 -16 -8 -34q-7 -15 -18 -31q-9 -13 -18 -29q-8 -14 -8 -27q13 0 26 8q8 5 24 17t25 17q14 8 31 8q27 0 42 -15t15 -36q0 -19 -15 -36q-15 -16 -42 -16q-17 0 -31 8
t-25 16q-8 6 -24 16q-13 8 -25 8q0 -31 15 -63t33 -51q-1 -7 -6 -33t-9 -63q0 -3 -4 -34.5t-6 -49.5q-4 -34 -10 -94q-3 -32 -9 -94q-5 -47 -6 -85h-8z" />
    <glyph glyph-name="daggerdbl" unicode="&#x2021;" horiz-adv-x="366" 
d="M183 -8l-2 -17q-25 0 -42 18q-16 17 -16 41q0 17 8 35t18 32q9 13 18 29q8 14 8 27q-15 0 -26 -7q-16 -10 -24 -16q-11 -8 -25 -16q-13 -7 -30 -7q-28 0 -43 15t-15 36q0 20 15 36t43 16q17 0 30 -7q14 -8 25 -16q8 -6 24 -16q11 -7 26 -7q0 59 -16 107q-18 53 -37 86
q20 35 37 87q16 48 16 105q-15 0 -26 -7q-16 -10 -24 -16q-11 -8 -25 -16q-13 -7 -30 -7q-28 0 -43 16q-15 17 -15 36q0 21 15 36t43 15q17 0 30 -7q14 -8 25 -16q8 -6 24 -16q11 -7 26 -7q0 13 -8 27q-9 16 -18 29q-10 14 -18 32t-8 35q0 24 16 41q17 18 42 18q26 0 41 -18
t15 -41q0 -16 -8 -34q-7 -15 -18 -31q-9 -13 -18 -29q-8 -14 -8 -27q14 0 27 8q8 5 24 17t25 17q14 8 31 8q28 0 43 -15t15 -36q0 -19 -15 -36q-15 -16 -43 -16q-17 0 -31 8t-25 16q-8 6 -24 16q-13 8 -25 8q0 -54 17 -105q16 -50 36 -87q-20 -37 -36 -87q-16 -48 -16 -105
q13 0 26 8q16 10 24 16q11 8 25 16t31 8q28 0 43 -16q15 -17 15 -36q0 -21 -15 -36t-43 -15q-17 0 -31 8q-9 5 -25 17t-24 17q-13 8 -27 8q0 -13 8 -27q9 -16 18 -29q11 -16 18 -31q8 -18 8 -34q0 -23 -15 -41t-41 -18z" />
    <glyph glyph-name="bullet" unicode="&#x2022;" horiz-adv-x="344" 
d="M172 415q57 0 93 -36t36 -92q0 -28 -9 -52t-27 -42t-42 -27t-52 -9t-52 9q-23 9 -40 27q-17 19 -26 42q-9 24 -9 52q0 56 36 92t92 36z" />
    <glyph glyph-name="ellipsis" unicode="&#x2026;" horiz-adv-x="616" 
d="M513 -14q-29 0 -48 19t-19 48t19 47t48 18t47 -18t18 -47t-18 -48t-47 -19zM310 -14q-29 0 -48 19t-19 48t19 47q20 18 48 18q29 0 47 -18t18 -47t-18 -48t-47 -19zM107 -14q-29 0 -48 19t-19 48t19 47t48 18t47 -18t18 -47t-18 -48t-47 -19z" />
    <glyph glyph-name="perthousand" unicode="&#x2030;" horiz-adv-x="976" 
d="M168 379v-2q-27 0 -55 14q-26 13 -48 38q-21 24 -33 59q-12 34 -12 77t12 77t33 60t48 39q28 14 55 14q29 0 55 -13q27 -14 48 -39t33 -60q12 -34 12 -76q0 -43 -12 -77q-12 -35 -33 -59q-22 -25 -48 -38q-28 -14 -55 -14zM109 1l411 752l12 -7l-411 -752zM168 386v-1
q26 0 45 42q19 41 19 138q0 44 -5 82q-4 34 -14 56q-9 22 -21 32q-11 10 -24 10q-24 0 -42 -41q-18 -40 -18 -138q0 -96 18 -138t42 -42zM473 -9v-2q-27 0 -55 14q-26 13 -48 38q-21 24 -33 59t-12 77q0 43 12 77t33 60t48 39q28 14 55 14q29 0 55 -13q27 -14 48 -39t33 -60
t12 -76q0 -43 -12 -77q-12 -35 -33 -59q-22 -25 -48 -38q-28 -14 -55 -14zM807 -11v-2q-27 0 -55 14q-26 13 -48 38q-21 24 -33 59q-12 34 -12 77q0 42 12 77q12 34 33 60t48 39q28 14 55 14q29 0 55 -13q27 -14 48 -39t33 -60t12 -76q0 -43 -12 -77q-12 -35 -33 -59
q-22 -25 -48 -38q-28 -14 -55 -14zM473 -4h-2q25 0 45 42q19 41 19 138q0 98 -18 138q-18 41 -44 41q-24 0 -42 -41q-18 -40 -18 -138q0 -96 18 -138t42 -42zM805 -4h-1q26 0 44 42t18 138q0 98 -18 138q-18 41 -43 41q-23 0 -43 -41q-19 -39 -19 -138q0 -97 19 -138
q20 -42 43 -42z" />
    <glyph glyph-name="uni2032" unicode="&#x2032;" horiz-adv-x="160" 
d="M35 547v-6q5 41 3 78q-1 25 -1 69q0 34 14 51t38 17q22 0 36 -14q13 -13 13 -35q0 -16 -11 -36q-9 -18 -29 -42q-20 -26 -29 -39q-13 -20 -27 -45z" />
    <glyph glyph-name="uni2033" unicode="&#x2033;" horiz-adv-x="289" 
d="M161 547v-6q5 41 3 78q-1 25 -1 69q0 34 14 51t38 17q22 0 36 -14q13 -13 13 -35q0 -16 -11 -36q-9 -18 -29 -42q-20 -26 -29 -39q-13 -20 -27 -45zM38 541v-6q4 41 3 78q-1 25 -1 69q0 34 14 51t38 17q22 0 36 -14q13 -13 13 -35q0 -16 -11 -36q-9 -18 -29 -42
q-20 -26 -29 -39q-14 -20 -27 -45z" />
    <glyph glyph-name="guilsinglleft" unicode="&#x2039;" horiz-adv-x="212" 
d="M25 226v8l155 162l6 -4l-67 -162l68 -162l-6 -4z" />
    <glyph glyph-name="guilsinglright" unicode="&#x203a;" horiz-adv-x="212" 
d="M25 68l68 162l-67 162l6 4l155 -162v-8l-156 -162z" />
    <glyph glyph-name="fraction" unicode="&#x2044;" horiz-adv-x="447" 
d="M52 379h343v-8h-343v8z" />
    <glyph glyph-name="Euro" unicode="&#x20ac;" horiz-adv-x="507" 
d="M8 348l55 -4v28v22q0 14 1 21h-58v11h59q6 85 30 146q24 62 60 102t80 60q45 20 89 20q36 0 64 -7q30 -8 52 -22q24 -16 35 -34q12 -19 12 -44q0 -19 -12 -36q-12 -16 -35 -16t-37 13t-19 42q-2 13 -4 40q-1 17 -6 31q-4 13 -15 21q-10 7 -33 7q-60 0 -93 -77
q-32 -75 -37 -243h168v-11h-168v-70h168v-11h-167q3 -89 14 -156q11 -64 30 -101q19 -38 45 -54q25 -16 56 -16q50 0 80 24q29 23 51 53l7 -6q-12 -18 -22 -29q-11 -12 -32 -28q-16 -12 -44 -22q-25 -9 -58 -9q-54 0 -100 21q-45 20 -79 65q-33 43 -54 108q-20 63 -25 150
h-58v11z" />
    <glyph glyph-name="trademark" unicode="&#x2122;" horiz-adv-x="601" 
d="M98 463v-1q7 2 11 5q3 3 5 11q2 10 2 23v41v202h-7q-32 0 -47 -12t-22 -46h-5l6 56q1 5 3 7q1 1 4 1h194q4 0 5 -1q2 -2 3 -7l6 -56h-5q-8 33 -22 45q-15 12 -49 12h-5v-202v-41q0 -12 2 -22q1 -6 5 -10t11 -5v-5h-95v5zM280 461q9 3 11 7q4 6 5 12q2 10 2 23v41v119v42
q0 13 -2 23q-2 8 -6 11q-6 4 -10 5v4h75q2 0 3 -1q2 -2 3 -7l57 -189l59 197l4 -1v1h72v-4q-5 -1 -9 -5q-3 -3 -6 -11t-3 -23v-42v-120v-42q0 -15 3 -23q3 -9 7 -11q6 -4 12 -5v-4h-94v4q5 1 9 5q4 3 5 11q2 10 2 23v42v182l-82 -269l-4 1v-1h-2l-85 280v-192v-41
q0 -13 2 -23q2 -8 6 -12t12 -7v-4h-46v4z" />
    <glyph glyph-name="onethird" unicode="&#x2153;" horiz-adv-x="447" 
d="M52 379h343v-8h-343v8zM158 465v6q10 1 17 5q6 3 9 13q2 8 4 30q1 13 1 52v143q0 36 -5 48q-4 10 -27 9v6l105 68v-274v-52q0 -19 3 -30q3 -10 9 -13q7 -4 17 -5v-6h-133zM136 270l-3 -4q3 12 4 13q1 3 6 3h188v-4l-142 -144q6 4 18 7q11 3 21 3q48 0 79 -25t31 -87
q0 -57 -36 -90t-99 -33q-46 0 -71 19q-26 20 -26 42q0 10 8 20q8 9 24 9q28 0 31 -28q1 -6 1 -18q0 -9 3 -17q3 -7 9 -13t20 -6q32 0 47 30t15 86q0 52 -7 77q-7 27 -33 27q-20 0 -35 -9q-17 -10 -27 -19l-5 4l110 110h-66q-30 0 -39 -1q-15 -2 -21 -4q-9 -3 -11 -7
q-1 -2 -3.5 -6t-3.5 -6h-6z" />
    <glyph glyph-name="twothirds" unicode="&#x2154;" horiz-adv-x="447" 
d="M52 379h343v-8h-343v8zM136 270l-3 -4q3 12 4 13q1 3 6 3h188v-4l-142 -144q6 4 18 7q11 3 21 3q48 0 79 -25t31 -87q0 -57 -36 -90t-99 -33q-46 0 -71 19q-26 20 -26 42q0 10 8 20q8 9 24 9q28 0 31 -28q1 -6 1 -18q0 -9 3 -17q3 -7 9 -13t20 -6q32 0 47 30t15 86
q0 52 -7 77q-7 27 -33 27q-20 0 -35 -9q-17 -10 -27 -19l-5 4l110 110h-66q-30 0 -39 -1q-15 -2 -21 -4q-9 -3 -11 -7q-1 -2 -3.5 -6t-3.5 -6h-6zM228 523l-2 2h54q20 0 30 3q11 3 15 7q5 5 8 12h6l-17 -70q-2 -9 -3 -12t-6 -3h-215l82 105q40 50 57 92t17 87q0 83 -48 83
q-13 0 -18 -4q-6 -5 -9 -12t-3 -17q0 -12 -1 -19q-1 -13 -9 -22t-24 -9q-13 0 -21 8t-8 21q0 23 25 42t70 19q22 0 41 -4q21 -4 39 -15q19 -11 30 -28q12 -18 12 -46q0 -46 -33 -88t-87 -90l-53 -42h71z" />
    <glyph glyph-name="oneeighth" unicode="&#x215b;" horiz-adv-x="447" 
d="M339 11l-2 -3q0 -44 -33 -72q-32 -28 -82 -28q-26 0 -46 7q-19 7 -37 20q-15 11 -25 29q-9 16 -9 36q0 34 21 57t57 39q-35 26 -48 48q-14 23 -14 54q0 20 9 37t24 27q16 11 33 17q18 6 38 6q49 0 75 -22q27 -23 27 -54t-21 -51t-46 -30q21 -14 36 -27t24 -27
q10 -14 14 -29q5 -17 5 -34zM222 -85l-1 -3q33 0 45 18t12 42q0 20 -4 32q-5 16 -13 26q-9 12 -24 24q-23 18 -34 26q-3 1 -7 5t-7 6q-29 -29 -29 -94q0 -37 14 -60q13 -22 48 -22zM252 127h-1q14 14 18 31q5 20 5 46q0 38 -13 54q-14 17 -39 17q-26 0 -39 -12
q-14 -12 -14 -36q0 -29 18 -49q17 -19 56 -45zM48 373h343v-8h-343v8zM152 459v6q10 1 17 5q6 3 9 13q2 8 4 30q1 13 1 52v143q0 36 -5 48q-4 10 -27 9v6l105 68v-274v-52q0 -19 3 -30q3 -10 9 -13q7 -4 17 -5v-6h-133z" />
    <glyph glyph-name="threeeighths" unicode="&#x215c;" horiz-adv-x="447" 
d="M339 11l-1 -2q0 -43 -33 -72q-32 -28 -82 -28q-26 0 -46 7q-19 7 -37 20q-15 11 -25 29q-9 17 -9 36q0 35 21 57t57 39q-34 25 -48 48t-14 54q0 21 9 37t24 27q16 11 33 17q18 6 38 6q49 0 75 -22q27 -22 27 -54t-21 -51q-20 -19 -46 -31q42 -28 60 -54t18 -63zM223 -84
l-1 -3q33 0 45 18t12 42q0 20 -4 32q-5 16 -13 26q-9 12 -24 24q-23 18 -34 26q-3 1 -7 5t-7 6q-29 -29 -29 -94q0 -37 14 -60q13 -22 48 -22zM253 128h-1q14 14 18 31q5 20 5 46q0 38 -13 54q-14 17 -39 17t-39 -12t-14 -36q0 -30 19 -49q21 -21 55 -45zM49 374h343v-8
h-343v8zM132 816l-3 -4q3 12 4 13q1 3 6 3h188v-4l-142 -144q6 4 18 7q11 3 21 3q48 0 79 -25t31 -87q0 -57 -36 -90t-99 -33q-46 0 -71 19q-26 20 -26 42q0 10 8 20q8 9 24 9q28 0 31 -28q1 -6 1 -18q0 -9 3 -17q3 -7 9 -13t20 -6q32 0 47 30t15 86q0 52 -7 77
q-7 27 -33 27q-20 0 -35 -9q-17 -10 -27 -19l-5 4l110 110h-66q-30 0 -39 -1q-15 -2 -21 -4q-9 -3 -11 -7q-1 -2 -3.5 -6t-3.5 -6h-6z" />
    <glyph glyph-name="fiveeighths" unicode="&#x215d;" horiz-adv-x="447" 
d="M339 11l-1 -2q0 -43 -33 -72q-32 -28 -82 -28q-26 0 -46 7q-19 7 -37 20q-15 11 -25 29q-9 17 -9 36q0 35 21 57t57 39q-34 25 -48 48t-14 54q0 21 9 37t24 27q16 11 33 17q18 6 38 6q49 0 75 -22q27 -22 27 -54t-21 -51q-20 -19 -46 -31q42 -28 60 -54t18 -63zM165 774
l-25 -96q11 10 30 16q18 6 38 6q24 0 47 -6q24 -6 41 -19q18 -13 28 -34q11 -22 11 -52q0 -31 -10 -54q-11 -24 -29 -41q-19 -17 -44 -26q-26 -9 -54 -9q-37 0 -64 18t-27 42q0 13 9 21q10 8 22 8q13 0 21 -8q7 -8 9 -21q1 -6 1 -18q0 -7 2 -17q1 -7 8 -12t20 -5q32 0 47 36
t15 90q0 47 -12 74t-40 27q-22 0 -41 -8q-17 -7 -28 -18l-5 2l35 164h163l-17 -52q-2 -8 -8 -8h-143zM219 -86l-1 -3q33 0 45 18t12 42q0 20 -4 32q-5 16 -13 26q-9 12 -24 24q-23 18 -34 26q-3 1 -7 5t-7 6q-29 -29 -29 -94q0 -37 14 -60q13 -22 48 -22zM249 126h-1
q14 14 18 31q5 20 5 46q0 38 -13 54q-14 17 -39 17t-40 -12t-15 -36q0 -30 19 -49t57 -45zM45 372h343v-8h-343v8z" />
    <glyph glyph-name="seveneighths" unicode="&#x215e;" horiz-adv-x="447" 
d="M339 11l-1 -2q0 -43 -33 -72q-32 -28 -82 -28q-26 0 -46 7q-19 7 -37 20q-15 11 -25 29q-9 17 -9 36q0 35 21 57t57 39q-34 25 -48 48t-14 54q0 21 9 37t24 27q16 11 33 17q18 6 38 6q49 0 75 -22q27 -22 27 -54t-21 -51q-20 -19 -46 -31q42 -28 60 -54t18 -63zM223 -84
l-1 -3q33 0 45 18t12 42q0 20 -4 32q-5 16 -13 26q-9 12 -24 24q-23 18 -34 26q-3 1 -7 5t-7 6q-29 -29 -29 -94q0 -37 14 -60q13 -22 48 -22zM204 460l-8 1l111 310h-105q-27 0 -35 -1q-11 -1 -19 -3q-7 -1 -10 -6q-1 -2 -3.5 -6t-3.5 -6h-7l21 74q1 5 3 6q2 2 6 2h182v-4z
M253 129h-1q14 14 18 31q5 20 5 46q0 38 -13 54q-14 17 -39 17t-39 -12t-14 -36q0 -30 19 -49q21 -21 55 -45zM49 375h343v-8h-343v8z" />
    <glyph glyph-name="arrowleft" unicode="&#x2190;" horiz-adv-x="774" 
d="M37 361l-1 2q36 8 78 28q41 20 87 50q42 27 81 65q39 37 59 75l8 -3q-13 -85 -44 -137q-30 -50 -75 -79h499v-10h-499q45 -29 75 -79q31 -52 44 -137l-8 -3q-22 40 -58 75q-37 36 -81 66q-46 31 -87 50q-43 20 -78 27v10z" />
    <glyph glyph-name="arrowright" unicode="&#x2192;" horiz-adv-x="774" 
d="M45 361l499 -3q-45 29 -75 79q-31 52 -44 137l8 3q20 -38 59 -75q39 -38 81 -65q46 -30 87 -50q42 -20 78 -28v-10q-34 -7 -78 -27q-46 -20 -87 -49q-43 -30 -81 -66q-36 -35 -58 -75l-8 3q13 85 44 137q30 50 75 79h-500v10z" />
    <glyph glyph-name="minus" unicode="&#x2212;" horiz-adv-x="395" 
d="M37 357h321v-12h-321v12z" />
    <glyph glyph-name="uni24C5" unicode="&#x24c5;" horiz-adv-x="682" 
d="M342 759h-2q64 0 120 -28q57 -28 100 -79t69 -122q25 -69 25 -156t-25 -156q-26 -71 -69 -122t-100 -79q-56 -28 -120 -28q-65 0 -121 28q-57 28 -100 79t-69 122q-25 69 -25 156t25 156q26 71 69 122q42 50 101 79q56 28 122 28zM340 -2l-1 -4q61 0 117 27q54 26 97 77
q42 49 66 119q24 69 24 154t-24 154q-24 70 -66 119q-43 51 -97 77q-56 27 -117 27t-117 -27q-55 -27 -97 -76q-41 -49 -67 -118q-25 -68 -25 -154t25 -154q26 -69 67 -118q41 -48 98 -76q55 -27 117 -27zM207 154l-3 -2q10 4 14 7q5 5 8 16q3 12 3 35v62v192v62q0 23 -3 35
q-3 11 -8 16q-4 3 -14 7v6h144q34 0 63 -6q30 -6 50 -19q21 -14 33 -34q12 -21 12 -52q0 -33 -12 -57q-12 -23 -33 -40t-49 -24q-27 -7 -61 -7h-32v-79v-61q0 -22 3 -34q3 -11 9 -16q5 -4 16 -7v-6h-140v6zM316 581l1 -223h30q35 0 56 25t21 88q0 32 -6 53q-6 22 -16 33
q-10 12 -24 18t-30 6h-32z" />
    <glyph glyph-name="space_uni0326" horiz-adv-x="500" 
d="M288 -116q-4 -5 -15 -13q-10 -7 -28 -7q-19 0 -35 14q-15 14 -15 36q0 25 17 39t38 14q25 0 45 -17t20 -54q0 -39 -24 -63q-23 -23 -66 -28l-3 7q38 6 54 24q17 19 17 35q0 10 -5 13z" />
    <glyph glyph-name="A.alt" horiz-adv-x="524" 
d="M460 137q10 -35 18 -57q6 -18 14 -38q6 -16 12 -23t17 -12v-6h-196q-2 0 -2 3t2 3q20 5 26 21t-9 63l-41 136h-197l-29 -99q-9 -30 -12 -51t0 -35q3 -13 12 -22q9 -8 25 -13v-6h-97v6q11 5 18 12q8 8 14 21q8 17 14 35q4 12 16 51l184 629h22zM300 235l-98 325l-95 -325
h193z" />
    <glyph glyph-name="G.alt" horiz-adv-x="596" 
d="M328 -12l-6 -6q-65 0 -119 27q-53 27 -94 78t-63 123q-22 70 -22 164q0 98 27 170q26 70 71 118q44 47 97 69t106 22q31 0 52 -6t36 -12q20 -8 29 -12q14 -6 30 -6t24 27h8v-174h-8q-18 85 -62 129t-111 44q-36 0 -66 -18t-51 -60t-33 -111t-12 -169q0 -103 12 -178
t33 -123q21 -47 51 -70q29 -22 68 -22q58 0 77 28q20 29 20 78v61q0 63 -2 119q-2 45 -7 65q-6 23 -16 29q-12 7 -28 11v7h174v-374h-8q-1 10 -8 22q-6 10 -19 10q-14 0 -30 -9t-39 -21q-22 -12 -50 -21q-27 -9 -61 -9z" />
    <glyph glyph-name="J.alt" horiz-adv-x="244" 
d="M-47 -156l1 -5q-34 0 -49 17q-15 16 -15 36t13 32t30 12q18 0 29 -10q12 -10 22 -22q7 -8 19 -22q9 -10 20 -10q8 0 12 4q5 4 9 12q5 8 9 22q4 13 7 40q3 26 3 64v523q0 81 -1 107q-2 40 -6 59q-5 20 -13 27q-9 8 -24 12v7h213v-7q-16 -4 -25 -12q-8 -7 -13 -27t-6 -58
q-1 -26 -1 -106v-396q0 -61 -17 -107q-17 -47 -40 -77q-24 -31 -48 -51q-35 -29 -37 -30q-26 -20 -49 -27q-22 -7 -43 -7z" />
    <glyph glyph-name="J.alt1" horiz-adv-x="456" 
d="M271 540h-1q0 81 -1 107q-2 40 -6 59q-5 20 -13 27q-9 7 -24 12v7h214v-7q-15 -5 -24 -12q-8 -7 -13 -27t-6 -58q-1 -26 -1 -106v-340q0 -58 -21 -99t-52 -66t-69 -36q-39 -11 -72 -11q-32 0 -66 8q-32 8 -56 21q-24 14 -38 35q-14 22 -14 47q0 23 15 36q14 13 36 13
q25 0 39 -13q15 -13 18 -45q4 -47 18 -70q13 -22 48 -22q20 0 36 6q17 6 29 24t18 48t6 78v384z" />
    <glyph glyph-name="K.alt" horiz-adv-x="557" 
d="M17 7v-4q16 4 25 12q8 7 13 27q4 19 6 59q1 26 1 107v330q0 80 -1 106q-2 40 -6 59q-5 20 -13 27q-9 8 -25 12v7h214v-7q-16 -4 -25 -12q-8 -7 -13 -27q-4 -19 -6 -59q-1 -26 -1 -106v-136l221 253q19 21 27 36t6 26q-1 10 -9 16t-16 9v6h108v-6q-15 -4 -40 -23
q-26 -20 -56 -55l-225 -256q13 7 29 12q17 5 35 5q78 0 123 -49q45 -50 66 -162q9 -51 18 -97q7 -38 15 -61t17 -32t23 -9q12 0 21 6t17 14l5 -5q-10 -13 -31 -25t-55 -12q-33 0 -59 9q-25 9 -45 32q-19 22 -33 60q-12 35 -22 95q-4 29 -16 113q-6 40 -14 69q-8 27 -19 35
q-12 9 -31 9q-31 0 -60 -26v-179q0 -80 1 -106q1 -38 6 -58t13 -27q9 -8 25 -12v-7h-214v7z" />
    <glyph glyph-name="Q.alt" horiz-adv-x="625" 
d="M312 -12v-1q-54 0 -105 27t-90 78t-63 123t-24 161q0 90 24 161t63 120q38 49 90 76q51 27 105 27q55 0 106 -27q52 -27 90 -76q39 -49 63 -120q24 -70 24 -161q0 -93 -25 -165q-26 -74 -67 -124l33 -39q20 -21 29 -29q9 -7 23 -12v-6h-116q-4 0 -10 2q-4 1 -12 9l-13 15
q-59 -39 -125 -39zM312 -4q69 0 102 57l-133 156q-12 15 -23 24q-10 8 -23 11v6h120q5 0 9 -2q2 -1 9 -8l73 -87q7 38 10 95q3 52 3 117q0 99 -12 171q-12 74 -31 120q-19 48 -46 70q-28 23 -57 23q-31 0 -57 -22t-46 -69q-19 -44 -31 -117q-12 -71 -12 -166q0 -193 39 -286
t106 -93z" />
    <glyph glyph-name="R.alt" horiz-adv-x="558" 
d="M17 7l-1 -4q16 4 25 12q8 7 13 27q4 19 6 59q1 26 1 107v330q0 80 -1 106q-2 40 -6 59q-5 20 -13 27q-9 8 -25 12v7h225q56 0 104 -9t84 -30q37 -21 56 -57q20 -37 20 -88q0 -35 -12 -63t-33 -51t-48 -39q-26 -16 -60 -25l140 -301q10 -23 20 -38q5 -8 17 -22
q7 -8 15 -13q6 -4 18 -7v-6h-166l-176 375h-32v-165q0 -54 2 -106q1 -38 6 -58q4 -19 14 -27q9 -8 25 -12v-7h-218v7zM188 737l1 -354h67q74 0 102 48q29 49 29 132q0 50 -7 81q-8 33 -24 54t-45 30t-72 9h-51z" />
    <glyph glyph-name="W.alt" horiz-adv-x="776" 
d="M66 623l-5 -1q-7 21 -15 47q-6 19 -12 33q-6 13 -14 23q-8 9 -20 17v7h191v-7q-23 -6 -24 -22t12 -58l148 -487l64 206l-74 242q-4 15 -14 47q-6 20 -12 33t-14 23q-7 9 -21 15v7h188v-7q-21 -6 -22 -22q-1 -15 11 -60l139 -487l122 449q2 9 10 42q4 19 3 34
q-1 14 -11 27q-8 11 -29 19v7h104v-7q-9 -5 -16 -10q-7 -6 -15 -18q-8 -13 -15 -34q-9 -26 -18 -58l-172 -628h-23l-113 370l-114 -370h-23z" />
    <glyph glyph-name="s.alt" horiz-adv-x="334" 
d="M170 -6l-13 -2q-36 0 -63 7t-48 20q-19 12 -30 29t-11 34t10 27t28 10q26 0 35 -15q10 -16 14 -39q6 -30 19 -46t48 -16q43 0 62 21q20 22 20 53q0 33 -25 59q-27 28 -81 59q-35 20 -54 34q-22 16 -37 34q-14 17 -22 39q-7 20 -7 50q0 27 10 48q11 23 28 39q18 17 43 27
q24 10 55 10t58 -6q28 -6 46 -16q20 -11 30 -25q11 -16 11 -33q0 -12 -9 -21t-25 -9q-22 0 -33 14t-15 33q-8 30 -19 41q-12 12 -41 12q-40 0 -60 -18q-19 -18 -19 -46q0 -17 7 -28q8 -12 21 -24t33 -24q35 -22 45 -28q34 -19 59 -38q26 -19 41 -36q16 -18 24 -41
q8 -24 8 -51q0 -32 -12 -57q-11 -24 -32 -43q-19 -17 -45 -28q-24 -10 -54 -10z" />
    <glyph glyph-name="t.alt" horiz-adv-x="258" 
d="M16 7l-1 -1q11 3 19 9q7 5 10 18q2 9 4 35q1 15 1 60v328h-34v9q21 3 42 15t39 33q17 20 33 50q14 27 22 65h10v-162h90v-10h-90v-328q0 -45 1 -60q1 -22 6 -34q4 -12 15 -18q10 -6 29 -9v-7h-196v7z" />
    </font>
</defs>
</svg>
