<?xml version="1.0" standalone="no"?>
<!DOCTYPE svg PUBLIC "-//W3C//DTD SVG 1.1//EN" "http://www.w3.org/Graphics/SVG/1.1/DTD/svg11.dtd" >
<svg xmlns="http://www.w3.org/2000/svg" xmlns:xlink="http://www.w3.org/1999/xlink" version="1.1">
<metadata>
Created by FontForge 20170731 at Sat Sep  1 00:24:53 2018
 By Aleksey,,,
Copyright (c) 2018 Commercial Type, Inc.. All rights reserved.
</metadata>
<defs>
<font id="SchnyderCondXLLight" horiz-adv-x="436" >
  <font-face 
    font-family="Schnyder Cond XL Light"
    font-weight="300"
    font-stretch="condensed"
    units-per-em="1000"
    panose-1="0 0 0 0 0 0 0 0 0 0"
    ascent="800"
    descent="-200"
    x-height="460"
    cap-height="750"
    bbox="-94 -296 934 1014"
    underline-thickness="16"
    underline-position="-124"
    unicode-range="U+000D-FB04"
  />
<missing-glyph horiz-adv-x="192" 
 />
    <glyph glyph-name="f_f" unicode="ff" horiz-adv-x="390" 
d="M214 3l-1 -3q11 3 19 9q8 7 11 19q3 14 3 39v67v320h-120v-320q0 -50 1 -67q1 -25 6 -39q4 -12 14 -19q9 -6 26 -9v-3h-153v3q12 3 18 9t9 19q3 14 3 39v67v320h-41v4q26 3 34 17q7 13 7 47v30q0 54 14 94t36 62q23 23 49 33q28 11 53 11q32 0 54 -9t30 -26q18 22 40 31
t45 9q29 0 49 -10q21 -11 21 -30q0 -11 -6 -18q-6 -8 -20 -8q-25 0 -30 26q-5 25 -7 29q-3 8 -16 8q-10 0 -18 -6t-12 -21q-5 -18 -8 -40q-3 -25 -3 -63v-163h83v-4h-83v-320q0 -50 1 -67q2 -26 6 -39t13 -19t26 -9v-3h-153v3zM247 457v115q0 35 6 62q6 28 15 47
q-25 0 -28 26q-4 23 -12 30q-8 8 -27 8q-17 0 -30 -6q-14 -6 -23 -24t-15 -49q-6 -32 -6 -79v-130h120z" />
    <glyph glyph-name="f_i" unicode="fi" horiz-adv-x="377" 
d="M21 3l-4 1q12 3 18 9t9 19q3 14 3 39v67v320h-41v4q12 1 21 5q7 3 12 12t6 24q2 20 2 39v35q0 53 12 87q12 35 30 56t41 30q22 9 44 9q30 0 50 -10q21 -11 21 -30q0 -11 -6 -18q-6 -8 -19 -8q-14 0 -22 6q-7 6 -9 20q-5 25 -7 29q-3 8 -16 8q-10 0 -18 -6t-12 -21
q-5 -18 -8 -40q-3 -25 -3 -63v-163h88l106 11v-335v-67q0 -24 5 -39q4 -13 12 -19t21 -9v-3h-145v3q11 3 19 9q8 7 11 19q3 13 3 39v67v235v48q0 16 -3 24t-9 9q-8 2 -18 2h-88v-320q0 -50 1 -67q2 -26 6 -39q4 -12 14 -19q9 -6 26 -9v-3h-153v3zM280 552q-18 0 -30 12
t-12 30t12 30t30 12t30 -12t12 -30t-12 -30t-30 -12z" />
    <glyph glyph-name="f_l" unicode="fl" horiz-adv-x="377" 
d="M21 3v-3q12 3 18 9t9 19q3 14 3 39v67v320h-41v4q12 1 21 5q7 3 12 12t6 24q2 20 2 39v31q0 53 12 87q12 35 30 56t42 30t48 9q32 0 53 -12t21 -32q0 -10 -5 -18q-4 -7 -18 -7q-25 0 -28 26q-3 25 -7 32q-5 9 -24 9q-12 0 -21 -6t-15 -20q-6 -13 -9 -38q-3 -24 -3 -61
v-163h75v-4h-75v-320q0 -50 1 -67q2 -26 6 -39q4 -12 14 -19q9 -6 26 -9v-3h-153v3zM214 0l-1 1q11 3 19 9q8 7 11 19q3 13 3 39v67v448q0 55 -1 72q-2 29 -4 38q-3 12 -11 14q-10 2 -21 2v2l112 58v-635v-67q0 -24 5 -39q4 -13 12 -19t21 -9v-3h-145v3z" />
    <glyph glyph-name="f_f_i" unicode="ffi" horiz-adv-x="571" 
d="M21 3v-1q12 3 18 9t9 19q3 14 3 39v67v320h-41v4q26 3 34 17q7 13 7 47v30q0 54 14 94t36 62q23 23 49 33q28 11 53 11q31 0 54 -9q22 -9 30 -26q18 22 40 31q23 9 45 9q29 0 49 -10q21 -11 21 -30q0 -11 -6 -18q-6 -8 -20 -8q-25 0 -30 26q-5 25 -7 29q-3 8 -16 8
q-11 0 -18 -6t-12 -21q-5 -18 -8 -40q-3 -25 -3 -63v-163h87l106 11v-335v-67q0 -24 5 -39q4 -13 12 -19t21 -9v-3h-145v3q12 3 18 9t9 19t3 39v67v235v48q0 16 -3 24t-9 9q-8 2 -18 2h-87v-320q0 -50 1 -67q2 -26 6 -39t13 -19t26 -9v-3h-153v3q11 3 19 9q8 7 11 19
q3 13 3 39v67v320h-120v-320q0 -50 1 -67q2 -26 6 -39q4 -12 14 -19q9 -6 26 -9v-3h-153v3zM248 459v115q0 35 6 62q6 28 15 47q-25 0 -28 26q-5 23 -12 30q-8 8 -27 8q-16 0 -30 -6t-23 -24t-15 -49q-6 -32 -6 -79v-130h120zM477 551q-18 0 -30 12t-12 30t12 30t30 12
t30 -12t12 -30t-12 -30t-30 -12z" />
    <glyph glyph-name="f_f_l" unicode="ffl" horiz-adv-x="571" 
d="M214 3l-2 -6q11 3 19 9q8 7 11 19q3 13 3 39v67v320h-120v-320q0 -50 1 -67q2 -26 6 -39q4 -12 14 -19q9 -6 26 -9v-3h-153v3q12 3 18 9t9 19t3 39v67v320h-41v4q26 3 34 17q7 13 7 47v30q0 54 14 94t36 62t50 33t54 11q36 0 57 -10q23 -11 27 -28q19 22 43 31t48 9
q32 0 53 -12t21 -32q0 -11 -4 -18t-18 -7q-25 0 -30 26q-3 25 -7 32q-5 9 -24 9q-12 0 -21 -6t-15 -20q-6 -13 -9 -38q-3 -24 -3 -61v-163h75v-4h-75v-320q0 -50 1 -67q2 -26 6 -39t13 -19t26 -9v-3h-153v3zM246 454l1 111q0 72 22 113h-2q-25 0 -28 26q-5 23 -10 30
q-6 8 -27 8q-16 0 -30 -6t-24 -24q-10 -17 -16 -49q-6 -31 -6 -79v-130h120zM407 -2l-1 1q11 3 19 9q8 7 11 19q3 13 3 39v67v448q0 55 -1 72q-2 29 -4 38q-3 12 -11 14q-10 2 -21 2v2l112 58v-635v-67q0 -24 5 -39q4 -13 12 -19q7 -6 21 -9v-3h-145v3z" />
    <glyph glyph-name="f_b" unicode="fb" horiz-adv-x="645" 
d="M21 3v-3q12 3 18 9t9 19q3 14 3 39v67v320h-41v4q12 1 21 5q7 3 12 12t6 24q2 20 2 39v31q0 53 12 87q12 35 30 56t42 30t48 9q32 0 53 -12t21 -32q0 -10 -5 -18q-4 -7 -18 -7q-25 0 -28 26q-3 25 -7 32q-5 9 -24 9q-12 0 -21 -6t-15 -20q-6 -13 -9 -38q-3 -24 -3 -61
v-163h75v-4h-75v-320q0 -50 1 -67q2 -26 6 -39q4 -12 14 -19q9 -6 26 -9v-3h-153v3zM421 -10l-6 -5q-30 0 -54 8q-20 7 -39 17q-6 3 -16 9t-14 8q-14 8 -25 8t-15 -6t-6 -11h-2v576q0 53 -1 69q-2 26 -4 34q-3 10 -11 12q-5 1 -21 1v2l112 54v-394l12 14q22 25 36 38
q16 14 32 24q15 9 28 12q14 3 25 3q31 0 62 -14q30 -13 54 -42t39 -70q15 -42 15 -97q0 -63 -16 -108q-16 -46 -45 -78t-64 -48t-76 -16zM333 14l3 1q14 -11 33 -18q18 -7 48 -7q25 0 47 13t39 42t27 72q11 46 11 105q0 64 -9 108t-24 71t-33 39t-37 12q-8 0 -19 -3
q-12 -4 -24 -10q-15 -8 -30 -22q-14 -13 -37 -39l-12 -14v-291q0 -23 3 -37q3 -12 14 -22z" />
    <glyph glyph-name="f_f_b" unicode="ffb" horiz-adv-x="838" 
d="M214 3l-2 -2q11 3 19 9q8 7 11 19q3 13 3 39v67v320h-120v-320q0 -50 1 -67q2 -26 6 -39q4 -12 14 -19q9 -6 26 -9v-3h-153v3q12 3 18 9t9 19t3 39v67v320h-41v4q26 3 34 17q7 13 7 47v30q0 54 14 93q13 38 36 60q23 23 49 33q28 11 54 11q36 0 57 -10q23 -11 29 -27
q21 21 43 29q24 9 47 9q32 0 53 -12t21 -32q0 -11 -4 -18t-18 -7q-25 0 -30 26q-3 25 -7 32q-5 9 -24 9q-12 0 -21 -6t-15 -20q-6 -13 -9 -38q-3 -24 -3 -61v-163h75v-4h-75v-320q0 -50 1 -67q2 -26 6 -39t13 -19t26 -9v-3h-153v3zM246 458l1 108q0 71 22 112h-1
q-25 0 -28 28q-3 23 -10 30q-8 8 -30 8q-16 0 -30 -6t-23 -24t-15 -48t-6 -78v-130h120zM614 -11l-6 -5q-30 0 -54 8q-20 7 -39 17q-6 3 -16 9t-14 8q-14 8 -25 8q-10 0 -15 -6q-4 -6 -6 -11h-2v576q0 53 -1 69q-2 26 -4 34q-3 10 -11 12q-5 1 -21 1v2l112 54v-394l12 14
q22 25 36 38q16 14 32 24q15 9 28 12q14 3 25 3q31 0 62 -14q30 -14 54 -42q24 -29 39 -70q15 -42 15 -97q0 -63 -16 -108q-17 -47 -45 -78q-29 -32 -64 -48t-76 -16zM526 13l3 1q13 -10 33 -18q18 -7 48 -7q25 0 47 13q23 14 39 42t27 72q11 46 11 105q0 65 -9 108
q-9 44 -24 71t-33 39t-37 12q-9 0 -19 -3q-12 -4 -24 -10q-15 -8 -30 -22q-14 -13 -37 -39l-12 -14v-291q0 -23 3 -37q3 -12 14 -22z" />
    <glyph glyph-name="f_f_h" unicode="ffh" horiz-adv-x="826" 
d="M214 3l-2 -2q11 3 19 9q8 7 11 19q3 13 3 39v67v320h-120v-320q0 -50 1 -67q2 -26 6 -39q4 -12 14 -19q9 -6 26 -9v-3h-153v3q12 3 18 9t9 19t3 39v67v320h-41v4q26 3 34 17q7 13 7 47v30q0 54 14 93q13 38 36 60q23 23 49 33q28 11 54 11q36 0 57 -10q23 -11 29 -27
q21 21 43 29q24 9 47 9q32 0 53 -12t21 -32q0 -11 -4 -18t-18 -7q-25 0 -30 26q-3 25 -7 32q-5 9 -24 9q-12 0 -21 -6t-15 -20q-6 -13 -9 -38q-3 -24 -3 -61v-163h75v-4h-75v-320q0 -50 1 -67q2 -26 6 -39t13 -19t26 -9v-3h-153v3zM246 458l1 108q0 71 22 112h-1
q-25 0 -28 28q-3 23 -10 30q-8 8 -30 8q-16 0 -30 -6t-23 -24t-15 -48t-6 -78v-130h120zM407 -1h-4q11 3 19 9q8 7 11 19q3 13 3 39v67v460q0 51 -1 66q-2 25 -4 33q-3 11 -10 12q-10 2 -19 2v2l108 59v-396l14 14q22 22 44 39q19 14 38 24q18 9 33 12t29 3q20 0 40 -6
t33 -19q15 -15 23 -34q9 -21 9 -51v-221v-67q0 -25 3 -39q3 -13 10 -19q8 -6 19 -9v-3h-145v3q14 3 21 9q8 6 12 19q5 15 5 39v67v234q0 48 -14 68t-39 20q-9 0 -19 -3q-12 -4 -24 -10q-15 -9 -32 -21q-16 -12 -42 -38l-14 -14v-235v-67q0 -24 5 -39q4 -13 12 -19
q7 -6 21 -9v-3h-145v3z" />
    <glyph glyph-name="f_f_j" unicode="ffj" horiz-adv-x="569" 
d="M214 3l-1 -3q11 3 19 9q8 7 11 19q3 14 3 39v67v320h-120v-320q0 -50 1 -67q1 -25 6 -39q4 -12 14 -19q9 -6 26 -9v-3h-153v3q12 3 18 9t9 19q3 14 3 39v67v320h-41v4q26 3 34 17q7 13 7 47v30q0 54 14 94t36 62q23 23 49 33q28 11 53 11q32 0 54 -9t30 -26q18 22 40 31
t45 9q29 0 49 -10q21 -11 21 -30q0 -11 -6 -18q-6 -8 -20 -8q-25 0 -30 26q-5 25 -7 29q-3 8 -16 8q-10 0 -18 -6t-12 -21q-5 -18 -8 -40q-3 -25 -3 -63v-163h87l106 12v-420q0 -30 -8 -56q-7 -23 -21 -43q-13 -20 -28 -34q-13 -13 -30 -25q-23 -17 -37 -21q-13 -4 -30 -4
q-16 0 -27 7q-12 7 -12 21t9 21q8 7 21 7q10 0 18 -5q7 -5 14 -11q8 -8 12 -11q7 -5 14 -5q5 0 13 5q3 1 6 8q4 7 5 21q2 16 3 40q2 34 2 64v309v65q0 23 -3 35q-3 13 -9 14q-8 2 -18 2h-87v-320q0 -50 1 -67q2 -26 6 -39t13 -19t26 -9v-3h-153v3zM247 457v115q0 35 6 62
q6 28 15 47q-25 0 -28 26q-4 23 -12 30q-8 8 -27 8q-17 0 -30 -6q-14 -6 -23 -24t-15 -49q-6 -32 -6 -79v-130h120zM476 549q-18 0 -30 12t-12 30t12 30t30 12t30 -12t12 -30t-12 -30t-30 -12z" />
    <glyph glyph-name="f_f_k" unicode="ffk" horiz-adv-x="779" 
d="M214 3l-2 -2q11 3 19 9q8 7 11 19q3 13 3 39v67v320h-120v-320q0 -50 1 -67q2 -26 6 -39q4 -12 14 -19q9 -6 26 -9v-3h-153v3q12 3 18 9t9 19t3 39v67v320h-41v4q26 3 34 17q7 13 7 47v30q0 54 14 93q13 38 36 60q23 23 49 33q28 11 54 11q36 0 57 -10q23 -11 29 -27
q21 21 43 29q24 9 47 9q32 0 53 -12t21 -32q0 -11 -4 -18t-18 -7q-25 0 -30 26q-3 25 -7 32q-5 9 -24 9q-12 0 -21 -6t-15 -20q-6 -13 -9 -38q-3 -24 -3 -61v-163h75v-4h-75v-320q0 -50 1 -67q2 -26 6 -39t13 -19t26 -9v-3h-153v3zM246 458l1 108q0 71 22 112h-1
q-25 0 -28 28q-3 23 -10 30q-8 8 -30 8q-16 0 -30 -6t-23 -24t-15 -48t-6 -78v-130h120zM407 -2l-5 3q11 3 19 9q8 7 11 19q3 13 3 39v67v449q0 57 -1 74q-2 29 -4 38q-3 12 -11 14q-10 2 -21 2v3l112 58v-526l162 154q29 27 21 41t-30 17v2h104v-2q-14 -4 -20 -7
q-7 -4 -19 -12q-8 -6 -22 -18q-16 -14 -29 -27l-111 -105l172 -239q20 -27 30 -36q11 -9 19 -12v-4h-143v4q3 1 11 5q7 3 8 9q2 7 -1 15q-4 11 -13 23l-135 181v-104v-67q0 -24 5 -39q4 -13 12 -19q7 -6 21 -9v-2h-145v2z" />
    <glyph glyph-name="f_h" unicode="fh" horiz-adv-x="632" 
d="M21 3v-3q12 3 18 9t9 19q3 14 3 39v67v320h-41v4q12 1 21 5q7 3 12 12t6 24q2 20 2 39v31q0 53 12 87q12 35 30 56t42 30t48 9q32 0 53 -12t21 -32q0 -10 -5 -18q-4 -7 -18 -7q-25 0 -28 26q-3 25 -7 32q-5 9 -24 9q-12 0 -21 -6t-15 -20q-6 -13 -9 -38q-3 -24 -3 -61
v-163h75v-4h-75v-320q0 -50 1 -67q2 -26 6 -39q4 -12 14 -19q9 -6 26 -9v-3h-153v3zM214 0h-4q11 3 19 9q8 7 11 19q3 14 3 39v67v460q0 51 -1 66q-2 25 -4 33q-3 11 -10 12q-10 2 -19 2v2l108 59v-396l14 14q22 22 44 39q19 14 38 24q18 9 33 12t29 3q21 0 40 -6
q20 -6 33 -19q15 -15 23 -34q9 -21 9 -51v-221v-67q0 -26 3 -39t10 -19q8 -6 19 -9v-3h-145v3q13 3 21 9t12 19q5 15 5 39v67v234q0 48 -14 68t-39 20q-8 0 -19 -3q-12 -4 -24 -10q-15 -9 -32 -21q-16 -12 -42 -38l-14 -14v-235v-67q0 -24 5 -39q4 -13 12 -19t21 -9v-3h-145
v3z" />
    <glyph glyph-name="f_j" unicode="fj" horiz-adv-x="376" 
d="M21 3l-4 -1q12 3 18 9t9 19q3 14 3 39v67v320h-41v4q12 1 21 5q7 3 12 12t6 24q2 20 2 39v35q0 53 12 87q12 35 30 56t41 30q22 9 44 9q30 0 50 -10q21 -11 21 -30q0 -11 -6 -18q-6 -8 -19 -8q-14 0 -22 6q-7 6 -9 20q-5 25 -7 29q-3 8 -16 8q-10 0 -18 -6t-12 -21
q-5 -18 -8 -40q-3 -25 -3 -63v-163h88l106 12v-420q0 -32 -9 -56q-9 -23 -21 -43q-11 -18 -27 -34q-13 -13 -30 -25q-23 -17 -37 -21q-13 -4 -30 -4q-14 0 -25 7q-12 7 -12 21t9 21q8 7 21 7q10 0 18 -5t14 -11q8 -8 12 -11q7 -5 14 -5q5 0 13 5q3 1 6 8q4 7 5 21q2 16 3 40
q2 34 2 64v309v65q0 23 -3 35q-3 13 -9 14q-8 2 -18 2h-88v-320q0 -50 1 -67q2 -26 6 -39q4 -12 14 -19q9 -6 26 -9v-3h-153v3zM280 550q-18 0 -30 12t-12 30t12 30t30 12t30 -12t12 -30t-12 -30t-30 -12z" />
    <glyph glyph-name="f_k" unicode="fk" horiz-adv-x="586" 
d="M21 3v-3q12 3 18 9t9 19q3 14 3 39v67v320h-41v4q12 1 21 5q7 3 12 12t6 24q2 20 2 39v31q0 53 12 87q12 35 30 56t42 30t48 9q32 0 53 -12t21 -32q0 -10 -5 -18q-4 -7 -18 -7q-25 0 -28 26q-3 25 -7 32q-5 9 -24 9q-12 0 -21 -6t-15 -20q-6 -13 -9 -38q-3 -24 -3 -61
v-163h75v-4h-75v-320q0 -50 1 -67q2 -26 6 -39q4 -12 14 -19q9 -6 26 -9v-3h-153v3zM214 -1l-5 3q11 3 19 9q8 7 11 19q3 14 3 39v67v449q0 57 -1 74q-2 29 -4 38q-3 12 -11 14q-10 2 -21 2v3l112 58v-526l162 154q29 27 21 41t-30 17v2h104v-2q-14 -4 -20 -7q-7 -4 -19 -12
q-8 -6 -22 -18q-16 -14 -29 -27l-111 -105l172 -239q19 -27 30 -36t19 -12v-4h-143v4q3 1 11 5q7 3 8 9q2 7 -1 15q-4 11 -13 23l-135 181v-104v-67q0 -24 5 -39q4 -13 12 -19t21 -9v-2h-145v2z" />
    <glyph glyph-name="g_j" unicode="gj" horiz-adv-x="564" 
d="M472 551q-18 0 -30 12t-12 30t12 30t30 12t30 -12t12 -30t-12 -30t-30 -12zM363 -131l-5 -4q-10 0 -18 5q-7 4 -7 15q0 4 3 10l6 12q3 6 7 10t7 4q7 0 12 -4q8 -6 12 -10t12 -10q5 -4 13 -4q5 0 13 5q3 1 6 8q4 7 5 21q2 16 3 40q2 34 2 64v258v65q0 23 -3 35
q-3 13 -9 14q-8 2 -18 2v3l106 64v-420q0 -32 -9 -56q-9 -23 -21 -43q-11 -18 -27 -34q-13 -13 -30 -25q-23 -16 -36 -21q-12 -4 -24 -4zM178 150l4 -4q-44 0 -81 22l-9 -6q-14 -8 -21 -18q-8 -11 -8 -24t11 -21q10 -7 41 -15l144 -30q48 -11 79 -34q31 -24 31 -69
q0 -29 -14 -54q-13 -24 -39 -42q-24 -17 -60 -28q-33 -10 -77 -10q-31 0 -61 6t-54 18t-39 30t-15 42q0 19 9 34t24 27q13 10 33 22q12 7 36 19q-39 9 -58 29q-18 20 -18 45q0 29 16 45q17 17 34 27l11 7q-30 17 -52 50q-21 31 -21 80q0 37 14 68q14 30 36 51q23 22 50 32
q28 11 54 11q42 0 80 -23q30 22 48 29q21 8 36 8q24 0 24 -26q0 -11 -6 -17t-16 -6q-11 0 -24 8t-32 8q-9 0 -13 -1l-12 -3q31 -19 52 -54q21 -34 21 -82q0 -37 -15 -66t-37 -48t-51 -28q-28 -9 -55 -9zM182 150h-1q37 0 61 34t24 115t-24 119t-61 38q-34 0 -58 -38
t-24 -119t24 -115t59 -34zM56 -80l-1 -2q0 -52 33 -75q34 -23 87 -23q41 0 73 9t52 22t31 30q10 16 10 33t-8 30q-8 12 -20 20q-12 7 -29 12l-33 9l-133 26q-33 -19 -47 -37q-15 -20 -15 -54z" />
    <glyph glyph-name=".notdef" horiz-adv-x="192" 
 />
    <glyph glyph-name=".null" horiz-adv-x="0" 
 />
    <glyph glyph-name="nonmarkingreturn" unicode="&#xd;" horiz-adv-x="192" 
 />
    <glyph glyph-name="NULL" horiz-adv-x="0" 
 />
    <glyph glyph-name="NULL" horiz-adv-x="0" 
 />
    <glyph glyph-name="space" unicode=" " horiz-adv-x="192" 
 />
    <glyph glyph-name="exclam" unicode="!" horiz-adv-x="178" 
d="M87 190v-1q-3 113 -10 188q-8 86 -15 149q-5 41 -14 108q-6 44 -6 63q0 27 12 42t35 15t35 -15t12 -42q0 -19 -6 -63q-3 -20 -13 -108q-7 -63 -15 -149q-7 -76 -10 -187h-5zM90 -11q-20 0 -33 13t-13 33t13 33t33 13t33 -13t13 -33t-13 -33t-33 -13z" />
    <glyph glyph-name="quotedbl" unicode="&#x22;" horiz-adv-x="209" 
d="M144 579l-2 -1q-4 40 -17 75q-12 33 -12 62q0 19 8 30t24 11t24 -11t8 -30q0 -28 -12 -61q-13 -35 -17 -75h-4zM59 578l-2 -1q-4 40 -17 75q-12 33 -12 62q0 19 8 30t24 11t24 -11t8 -30q0 -28 -12 -61q-13 -35 -17 -75h-4z" />
    <glyph glyph-name="numbersign" unicode="#" horiz-adv-x="361" 
d="M12 278h89l38 244h-87v8h88l35 220h8l-35 -220h109l35 220h7l-35 -220h92v-8h-93l-38 -244h91v-8h-93l-42 -269h-7l42 269h-109l-42 -269h-8l42 269h-87v8zM218 278l38 244h-109l-38 -244h109z" />
    <glyph glyph-name="dollar" unicode="$" horiz-adv-x="408" 
d="M175 827l-9 -73q3 1 11 1h11h15q10 0 15 -1v72h6v-73q64 -8 99 -34q36 -27 36 -55q0 -12 -6 -21t-19 -9q-28 0 -35 33q-1 9 -5 27q-3 15 -10 24q-8 10 -21 18q-15 8 -36 11v-325q35 -27 63 -51q30 -25 50 -51q21 -27 33 -60t12 -75q0 -37 -12 -70q-12 -32 -33 -58
q-21 -25 -50 -42q-28 -17 -63 -21v-83h-6v82q-3 -1 -11 -1h-11h-14q-8 0 -13 1v-82h-6v83q-37 5 -64 16q-29 12 -49 28q-21 16 -31 34q-11 19 -11 36q0 14 6 23t20 9q17 0 24 -9q8 -9 12 -25q4 -17 11 -39q6 -18 16 -31q11 -14 27 -23q15 -8 42 -13v379q-28 21 -61 50
q-26 23 -45 50q-18 25 -27 54t-9 63q0 32 11 60t30 47q20 19 45 33q25 13 56 18v73h6zM323 141l2 -2q0 31 -6 57q-6 27 -19 48q-14 24 -33 44q-19 21 -45 42v-331q53 9 77 48t24 94zM70 639l-1 -1q0 -52 24 -90q23 -36 69 -76v275q-44 -8 -68 -36q-24 -29 -24 -72zM195 -6
h10q8 0 11 1v337q-7 5 -21 17q-11 9 -24 18l-4 3v-375q4 -1 13 -1h15zM204 434l-1 -1l6 -3l6 -3v321h-15h-15h-10q-7 0 -10 -1v-281z" />
    <glyph glyph-name="percent" unicode="%" horiz-adv-x="620" 
d="M160 379v-2q-25 0 -51 14q-24 13 -46 38q-21 24 -33 59q-12 34 -12 77t12 77t33 60t46 39q26 14 51 14q26 0 51 -13t46 -39q20 -24 34 -60q13 -33 13 -76q0 -44 -13 -77q-14 -36 -34 -59q-22 -25 -46 -38q-26 -14 -51 -14zM102 -2l406 754l8 -4l-406 -754zM160 381v-2
q14 0 30 11q15 10 27 33q13 24 20 57q8 37 8 83t-8 83q-7 33 -20 57q-12 23 -27 33q-16 11 -30 11t-30 -11q-15 -10 -27 -33q-13 -24 -20 -57q-8 -37 -8 -82t8 -82q7 -33 20 -57q12 -23 27 -33q16 -11 30 -11zM459 -10v-2q-25 0 -51 14q-24 13 -46 38q-21 24 -33 59
q-12 34 -12 77q0 42 12 77t33 60q21 26 46 39q26 14 51 14q26 0 51 -13t46 -39q20 -24 34 -60q13 -33 13 -76q0 -44 -13 -77q-14 -36 -34 -59q-22 -25 -46 -38q-26 -14 -51 -14zM459 -8v-2q14 0 30 11q15 11 27 33q13 24 20 57q8 37 8 83t-8 83q-7 33 -20 57q-12 22 -27 33
q-16 11 -30 11q-13 0 -29 -11q-15 -11 -27 -33q-13 -24 -20 -57q-8 -37 -8 -82t8 -82q7 -33 20 -57q12 -22 27 -33q16 -11 29 -11z" />
    <glyph glyph-name="ampersand" unicode="&#x26;" horiz-adv-x="622" 
d="M439 228l-3 -5q17 -26 43.5 -65t28.5 -41q25 -38 48 -67q18 -23 35 -37q14 -11 30 -16v-3h-111l-105 146q-31 -78 -75 -117t-103 -39q-45 0 -85 14q-39 14 -66 39t-42 62q-15 36 -15 81q0 50 18 87t47 66q28 28 61 49t63 36q-5 8 -15 23.5t-15 22.5q-15 23 -23 42
q-10 23 -14 44q-5 25 -5 48q0 36 11 67t30 50q20 20 43 30q25 11 50 11q24 0 48 -8q23 -8 41 -24t28 -40q11 -25 11 -57q0 -36 -12 -63t-30 -48t-39 -36q-25 -18 -40 -26l20 -29l123 -174l15 -21l34 92q13 36 21 60t9 39q2 16 -7 23q-9 8 -28 12v2h130v-2q-18 -4 -33 -9
q-16 -5 -29 -18q-14 -14 -27 -37q-14 -25 -30 -67zM99 190l1 -2q0 -45 9 -81t26 -62q16 -25 42 -40q25 -15 57 -15q53 0 94 37q42 38 75 118l-171 238l-22 31q-51 -33 -81 -86q-30 -52 -30 -138zM193 638l-1 -1q0 -49 24 -93q27 -49 58 -92q12 10 24 24q11 13 22 34
q10 19 16 48q6 27 6 64q0 38 -6 63t-15 39t-23 20t-30 6q-39 0 -57 -31t-18 -81z" />
    <glyph glyph-name="quotesingle" unicode="'" horiz-adv-x="126" 
d="M61 579l-2 -1q-4 40 -17 75q-12 33 -12 62q0 19 8 30t24 11t24 -11t8 -30q0 -28 -12 -61q-13 -35 -17 -75h-4z" />
    <glyph glyph-name="parenleft" unicode="(" horiz-adv-x="249" 
d="M247 -106l-5 -4q-27 26 -60 66q-32 39 -61 96q-28 55 -48 128q-19 70 -19 161q0 87 20 161q20 73 48 128q28 54 62 96q33 40 60 66l2 -2q-22 -22 -46 -58t-45 -90q-20 -51 -34 -128q-13 -71 -13 -171q0 -95 14 -171q13 -72 35 -128q21 -54 45 -90q22 -33 47 -58z" />
    <glyph glyph-name="parenright" unicode=")" horiz-adv-x="249" 
d="M1 -104l-3 2q23 23 47 59t45 90q20 51 34 128q14 76 14 171q0 100 -13 171q-14 77 -34 128q-21 54 -45 90q-26 39 -46 59l2 2q27 -26 60 -66q34 -42 62 -96q28 -55 48 -128q19 -70 19 -161t-19 -161q-20 -73 -48 -128q-29 -57 -61 -96q-33 -40 -60 -66z" />
    <glyph glyph-name="asterisk" unicode="*" horiz-adv-x="251" 
d="M143 552l-6 -2q0 -25 -17 -25t-17 25q0 16 6 39q5 17 10 48q-17 -23 -27 -42q-11 -21 -21 -32q-19 -17 -30 -6t6 30q11 11 32 23q24 14 41 28q-31 -5 -49 -10q-23 -6 -37 -6q-25 0 -25 17t25 17q16 0 38 -6q17 -5 48 -10q-22 16 -42 27q-18 10 -31 21q-17 20 -6 30t30 -6
q11 -11 23 -32q14 -24 28 -41q-6 33 -10 50q-6 23 -6 38q0 25 17 25t17 -25q0 -15 -6 -39q-5 -18 -10 -49q16 21 27 42t21 33q7 7 17 9q9 2 15 -4q4 -4 3 -13q-1 -8 -9 -16q-13 -11 -31 -21t-40 -27q31 5 48 10q21 6 38 6q25 0 25 -17t-25 -17q-17 0 -39 6q-17 5 -48 10
q20 -16 41 -27t32 -21q8 -8 9 -16q2 -9 -4 -15q-4 -4 -13 -3q-8 1 -16 9q-10 11 -21 32t-27 41q5 -31 10 -49q6 -23 6 -39z" />
    <glyph glyph-name="plus" unicode="+" horiz-adv-x="397" 
d="M195 183v164h-159v7h159v166h8v-166h158v-7h-158v-164h-8z" />
    <glyph glyph-name="comma" unicode="," horiz-adv-x="148" 
d="M104 9l1 -3q-5 -6 -13 -8q-9 -3 -22 -3q-15 0 -28 11q-12 10 -12 30t12 32t29 12q21 0 37 -15t16 -43q0 -46 -19 -72t-51 -43l-3 4q29 17 44 39q15 23 15 43q0 10 -6 16z" />
    <glyph glyph-name="hyphen" unicode="-" horiz-adv-x="234" 
d="M44 304h158l-12 -45h-158z" />
    <glyph glyph-name="period" unicode="." horiz-adv-x="148" 
d="M74 -10q-20 0 -33 13t-13 33t13 33t33 13t33 -13t13 -33t-13 -33t-33 -13z" />
    <glyph glyph-name="slash" unicode="/" horiz-adv-x="337" 
d="M327 795l-346 -964l-8 1l346 965z" />
    <glyph glyph-name="zero" unicode="0" horiz-adv-x="545" 
d="M272 756l-2 -1q42 0 83 -25q44 -26 77 -73q34 -48 57 -119q22 -69 22 -162t-22 -162q-23 -70 -57 -120q-34 -49 -77 -75q-41 -25 -83 -25q-39 0 -82 26t-77 75q-35 49 -57 120q-22 69 -22 162q0 90 23 162q23 71 57 119q33 47 77 73q41 25 83 25zM270 751l-2 -1
q-28 0 -57 -23t-51 -69t-36 -117q-13 -68 -13 -165q0 -92 14 -165q13 -71 36 -117q22 -46 51 -70q28 -24 57 -24t58 24q28 24 51 71q22 47 36 117q14 73 14 165q0 97 -13 165q-13 70 -36 117t-51 69q-29 23 -58 23z" />
    <glyph glyph-name="one" unicode="1" horiz-adv-x="231" 
d="M17 0v3q22 3 33 10q12 7 18 29q7 23 8 63q2 56 2 116v297q0 56 -1 74q-2 28 -7 42q-6 15 -18 18q-13 3 -34 2v3l140 103v-540q0 -88 1 -116q2 -44 7 -63q6 -20 18 -28q11 -7 33 -10v-3h-200z" />
    <glyph glyph-name="two" unicode="2" horiz-adv-x="447" 
d="M250 64l-5 -5q70 0 92 1q33 2 51 6q18 5 26 14q8 10 14 24h3l-21 -76q-5 -20 -9 -26q-5 -6 -15 -6h-377l153 187q42 57 71 104t48 95q18 46 27 93t9 96q0 39 -6 72t-21 57t-37 37t-57 13q-30 0 -47 -11t-26 -26t-12 -30q-1 -4 -2.5 -12.5t-2.5 -11.5q-5 -14 -13 -24
q-9 -10 -26 -10q-16 0 -24 11q-7 10 -7 24q0 15 11 32q10 16 31 31t51 24t71 9t77 -9q38 -9 65 -31q28 -22 45 -57q17 -36 17 -84q0 -53 -15 -99q-14 -45 -44 -93q-30 -49 -70 -96q-12 -14 -43 -51t-50 -59l-112 -113h180z" />
    <glyph glyph-name="three" unicode="3" horiz-adv-x="447" 
d="M171 0l-1 -4q44 0 75 21q31 20 52 57q21 36 30 81t9 93q0 50 -6 90t-21 69t-37 45t-54 16q-41 0 -64 -19q-26 -21 -45 -43l-3 3l236 275h-132q-71 0 -93 -1q-33 -1 -51 -6q-18 -4 -25 -13q-8 -10 -15 -25h-3l21 79q4 18 8 24q3 5 11 5h334v-4l-256 -298q13 10 32 18t44 8
q43 0 78 -13q36 -14 63 -42q28 -30 44 -70q16 -41 16 -99q0 -51 -18 -97t-51 -81q-32 -34 -78 -55q-45 -21 -101 -21q-38 0 -68 9t-51 24t-33 33t-12 35q0 14 7 24q8 11 24 11q18 0 27 -9t12 -25q2 -11 6 -27q4 -14 14 -31q9 -16 27 -26q19 -11 48 -11z" />
    <glyph glyph-name="four" unicode="4" horiz-adv-x="494" 
d="M375 170v-1q0 -45 2 -87q1 -32 6 -48q4 -16 13 -22q7 -5 23 -10v-3h-167v3q16 5 23 10q8 5 13 23q4 17 6 48q2 42 2 87h-278v4l339 580h18v-531h109l-29 -53h-80zM296 222v413l31 58l-275 -471h244z" />
    <glyph glyph-name="five" unicode="5" horiz-adv-x="452" 
d="M118 686l-57 -258q20 25 54 41q36 17 81 17q39 0 78 -12t69 -39t48 -70t18 -106q0 -61 -18 -111q-18 -49 -50 -84q-31 -34 -77 -54q-44 -19 -98 -19q-39 0 -68 10t-51 26q-21 15 -33 33t-12 36q0 14 7 24q8 11 24 11q17 0 26 -9t12 -26q1 -10 3 -27q1 -15 11 -33
q9 -16 28 -28t55 -12q39 0 69 21t51 57q22 37 32 84q11 50 11 104q0 110 -33 167t-99 57q-53 0 -85 -19q-33 -19 -52 -40l-3 2l68 321h274l-16 -47q-1 -3 -2.5 -6l-2.5 -5t-1 -3q-1 -3 -9 -3h-252z" />
    <glyph glyph-name="six" unicode="6" horiz-adv-x="517" 
d="M307 751l-8 -3q-42 0 -75 -21q-32 -20 -55 -60q-23 -39 -36 -96q-14 -57 -18 -127q25 31 64 52t90 21q44 0 84 -17q39 -16 69 -48q29 -31 46 -79q17 -49 17 -108q0 -67 -21 -118t-52 -85t-69 -52q-37 -18 -74 -18q-41 0 -83 21q-41 21 -76 66q-35 46 -56 116
q-21 71 -21 170q0 87 21 159q21 71 59 123t87 80q50 29 105 29q39 0 69 -9t49 -22q20 -14 30 -28t10 -28t-7 -22q-8 -9 -21 -9q-16 0 -25 9q-8 8 -13 24q-2 17 -4 24q-3 16 -10 26q-8 12 -25 21q-18 9 -51 9zM110 363l-2 -4q0 -92 12 -161q12 -68 33 -115t49 -69
q29 -23 62 -23q59 0 96 67q38 68 38 201q0 72 -12 120t-32 77q-20 30 -43 41q-24 12 -46 12q-50 0 -89 -21t-65 -53q-1 -11 -1 -35v-37z" />
    <glyph glyph-name="seven" unicode="7" horiz-adv-x="430" 
d="M152 0l-5 1l236 687h-202q-64 0 -85 -1q-33 -2 -48 -7q-17 -6 -23 -18q-5 -9 -13 -31h-5l29 102q2 11 5 14t12 3h355v-4z" />
    <glyph glyph-name="eight" unicode="8" horiz-adv-x="465" 
d="M439 185l-9 3q0 -42 -15 -78q-15 -37 -42 -62q-26 -24 -65 -40q-38 -15 -81 -15q-45 0 -84 14q-38 14 -65 39q-27 26 -42 58q-15 33 -15 71q0 37 15 69t39 57t54 45q29 19 59 33q-36 25 -63 48q-26 21 -46 48q-19 24 -28 54q-9 29 -9 65q0 42 16 71q16 30 42 51
q27 22 57 32q33 11 65 11q86 0 135 -43q50 -44 50 -118q0 -27 -11 -54q-10 -26 -30 -48q-21 -24 -43 -42t-51 -34q38 -27 65 -48q31 -25 53 -51q22 -27 36 -60q13 -32 13 -76zM226 -3v-3q39 0 65 13t45 35q18 21 27 50q9 28 9 58q0 38 -12 66q-12 29 -33 53q-22 25 -51 47
q-35 26 -67 48l-22 15q-49 -31 -82 -81t-33 -121q0 -42 10 -73q10 -33 30 -57q19 -23 48 -37q27 -13 66 -13zM261 423l-1 -1q38 28 63 69q26 41 26 105q0 86 -33 123q-33 38 -102 38q-54 0 -90 -33t-36 -93q0 -30 11 -57q11 -26 30 -48q17 -20 47 -43q23 -18 62 -45z" />
    <glyph glyph-name="nine" unicode="9" horiz-adv-x="518" 
d="M211 -2l-3 -2q82 0 129 81q46 81 57 224q-23 -31 -63 -52q-39 -21 -90 -21q-46 0 -86 17t-68 48t-45 80q-16 47 -16 108q0 67 21 118q20 49 53 85q31 34 69 52t74 18q41 0 83 -21q43 -21 77 -66q36 -46 56 -115q21 -71 21 -169q0 -87 -21 -159q-21 -73 -58 -123t-87 -79
q-49 -28 -105 -28q-39 0 -69 9q-29 9 -49 21q-19 12 -30 27q-10 14 -10 28q0 13 8 23q7 9 21 9q16 0 25 -9q8 -8 13 -24q1 -4 5 -24q3 -13 11 -26q7 -12 26 -21q18 -9 51 -9zM107 482l-3 1q0 -72 12 -120q12 -46 32 -76q19 -27 44 -40q24 -12 48 -12q50 0 89 21t65 53
q2 22 2 35v38q0 92 -12 161q-12 68 -33 115t-49 69q-29 23 -61 23q-59 0 -96 -67q-38 -68 -38 -201z" />
    <glyph glyph-name="colon" unicode=":" horiz-adv-x="154" 
d="M77 360q-20 0 -33 13t-13 33t13 33t33 13t33 -13t13 -33t-13 -33t-33 -13zM77 -10q-20 0 -33 13t-13 33t13 33t33 13t33 -13t13 -33t-13 -33t-33 -13z" />
    <glyph glyph-name="semicolon" unicode=";" horiz-adv-x="154" 
d="M77 360q-20 0 -33 13t-13 33t13 33t33 13t33 -13t13 -33t-13 -33t-33 -13zM107 9l1 -3q-6 -6 -13 -8q-9 -3 -22 -3q-15 0 -28 11q-12 10 -12 30t12 32t29 12q20 0 37 -15q16 -15 16 -43q0 -46 -19 -72t-51 -43l-3 4q29 17 44 39q15 23 15 43q0 10 -6 16z" />
    <glyph glyph-name="less" unicode="&#x3c;" horiz-adv-x="384" 
d="M37 355l310 125v-8l-300 -121l300 -121v-8l-310 125v8z" />
    <glyph glyph-name="equal" unicode="=" horiz-adv-x="401" 
d="M38 407h325v-8h-325v8zM38 301h325v-8h-325v8z" />
    <glyph glyph-name="greater" unicode="&#x3e;" horiz-adv-x="384" 
d="M347 347l-310 -125v8l300 121l-300 121v8l310 -125v-8z" />
    <glyph glyph-name="question" unicode="?" horiz-adv-x="337" 
d="M122 190l-2 1q2 78 19 132q18 55 39 102q19 43 39 92q18 45 18 101q0 42 -7 66q-8 27 -19 41q-12 15 -29 21q-16 6 -38 6q-21 0 -34 -10q-14 -10 -21 -30q-3 -7 -7 -19q-2 -6 -8 -16q-4 -6 -11 -10q-6 -3 -17 -3q-14 2 -21 12t-6 24q1 22 32 40q30 18 96 18q33 0 63 -9
t54 -27t38 -47q14 -30 14 -69q0 -35 -13 -64q-13 -30 -33 -60q-20 -31 -43 -61q-24 -31 -45 -66t-36 -75t-18 -90h-4zM133 -9q-20 0 -33 13t-13 33t13 33t33 13t33 -13t13 -33t-13 -33t-33 -13z" />
    <glyph glyph-name="at" unicode="@" horiz-adv-x="727" 
d="M604 -53l-4 1q-15 -16 -39 -36t-57 -36q-33 -17 -76 -27q-41 -10 -96 -10q-61 0 -119 20q-57 19 -101 62q-43 42 -69 107q-26 66 -26 155q0 97 33 180q33 82 87 142t126 93t152 33q64 0 119 -20q53 -19 91 -57q36 -36 58 -92q21 -54 21 -123q0 -65 -18 -125t-55 -106
t-94 -73q-56 -27 -135 -25l16 94l-8 -8q-30 -34 -34 -39q-15 -17 -27 -27q-11 -9 -24 -16q-12 -6 -26 -6q-49 0 -82 42t-33 123q0 64 21 118t54 93t73 60t78 21q20 0 33 -6q15 -7 23 -12l18 -12q9 -6 20 -6q14 0 26 6t20 20h2l-46 -272q-11 -62 -14 -82q-4 -33 -3 -51
t10 -22q9 -5 29 3q75 27 116 98t41 197q0 64 -20 119t-55 93q-36 39 -84 60t-105 21q-79 0 -147 -27t-117 -81t-78 -132q-28 -77 -28 -178q0 -87 23 -156q22 -66 62 -112t90 -68q52 -23 110 -23q51 0 97 11q43 10 76 27q33 16 56 35q21 17 36 35zM258 145l-1 -1
q0 -64 13 -96q14 -33 39 -33q19 0 41 20q18 17 58 63l7 8l45 269q6 34 -5 60q-10 25 -48 25q-28 0 -54 -25q-27 -25 -48 -69q-20 -42 -34 -100q-13 -55 -13 -121z" />
    <glyph glyph-name="A" unicode="A" horiz-adv-x="515" 
d="M-1 2l-5 -2q9 4 18 11q7 6 15 20q7 13 15 36q9 26 18 58l151 547l-3 11q-5 20 -10 31t-12 19q-5 7 -12 10q-7 4 -14 5v2h102q9 0 11 -8l180 -615q3 -10 8 -26.5t6 -21.5q6 -21 12 -36q5 -12 14 -25q7 -10 21 -16v-2h-135v2q17 5 20 21q3 17 -9 57l-45 151h-249l-30 -107
q-14 -54 -14 -81q0 -29 30 -41v-2h-83v2zM339 234l-128 427l-118 -427h246z" />
    <glyph glyph-name="B" unicode="B" horiz-adv-x="496" 
d="M12 3l-1 -6q16 4 25 12q8 7 13 29q5 21 6 63q1 28 1 116v306q0 88 -1 116q-1 42 -6 63q-5 22 -13 29q-9 8 -25 12v3h222q102 0 158 -43q57 -44 57 -127q0 -31 -10 -58q-11 -29 -31 -51q-21 -23 -57 -39t-87 -21v-1q67 -8 107 -25q41 -18 66 -44t35 -56q10 -29 10 -60
q0 -60 -22 -101q-23 -43 -58 -69q-36 -27 -84 -39t-100 -12h-205v3zM134 740l1 -336h94q43 0 71 9t45 29t24 51q8 34 8 75q0 83 -34 127q-35 45 -111 45h-98zM135 400v-405h77q41 0 78 8q34 8 59 32q25 25 38 66q13 40 13 109q0 39 -5 77q-5 35 -22 60q-18 26 -52 39
q-36 14 -93 14h-93z" />
    <glyph glyph-name="C" unicode="C" horiz-adv-x="501" 
d="M305 -5h-5q-54 0 -106 23q-50 22 -88 69t-60 120q-22 72 -22 175t25 174q26 73 64 117q40 46 87 65q49 20 95 20q32 0 53 -6q23 -7 36 -13q3 -2 9 -4.5t10 -4.5t7 -4q10 -6 24 -6q22 0 29 28h5v-146h-5q-7 44 -24 72t-39 45q-23 17 -49 24q-29 8 -55 8q-40 0 -75 -20
t-59 -63q-25 -45 -38 -112q-14 -72 -14 -166q0 -106 17 -182q17 -74 45 -119q29 -45 65 -65q37 -20 77 -20q31 0 60 8t47 19q19 12 35 26q17 15 26 27l3 -3q-10 -13 -26 -29t-37 -27q-22 -12 -51 -21t-66 -9z" />
    <glyph glyph-name="D" unicode="D" horiz-adv-x="554" 
d="M12 3l2 -2q16 4 25 12q8 7 13 29q4 21 6 63q1 28 1 116v306q0 88 -1 116q-2 42 -6 63q-5 22 -13 29q-9 8 -25 12v3h147q179 0 273 -90q95 -90 95 -276q0 -88 -21 -160q-21 -71 -66 -121q-45 -49 -115 -76q-71 -27 -168 -27h-147v3zM137 744l-2 -744h24q72 0 126 21t90 66
t54 119t18 178q0 112 -22 179q-23 70 -60 110q-38 41 -90 56q-53 15 -114 15h-24z" />
    <glyph glyph-name="E" unicode="E" horiz-adv-x="455" 
d="M12 3l-3 -3q16 4 25 12q8 7 13 29q5 21 6 63q1 28 1 116v306q0 88 -1 116q-1 42 -6 63q-5 22 -13 29q-9 8 -25 12v3h385q4 0 8 -2t5 -12l15 -83h-5q-13 56 -48 75q-35 20 -90 20h-146v-333h78q27 0 42 6t23 17q8 12 11 24q2 9 6 25h4v-148h-4l-6 24q-3 12 -11 23
q-7 10 -23 18q-14 7 -42 7h-78v-405h165q30 0 54 3q23 3 42 14q18 10 30 32q11 19 19 56h5l-11 -100q-2 -8 -4 -9t-6 -1h-415v3z" />
    <glyph glyph-name="F" unicode="F" horiz-adv-x="441" 
d="M12 3l-3 -4q16 4 25 12q8 7 13 29q5 21 6 63q1 28 1 116v306q0 88 -1 116q-1 42 -6 63q-5 22 -13 29q-9 8 -25 12v3h398q4 0 8 -2t5 -12l12 -83h-5q-13 55 -48 75t-90 20h-155v-321h76q27 0 42 6t23 17q8 12 11 24q2 9 6 25h3v-148h-3l-6 24q-3 12 -11 23q-7 10 -23 18
q-14 7 -42 7h-76v-199q0 -88 1 -116q1 -42 6 -63q4 -20 14 -28q9 -7 24 -12v-3h-167v3z" />
    <glyph glyph-name="G" unicode="G" horiz-adv-x="554" 
d="M302 -6l-1 -7q-65 0 -116 27q-52 27 -86 78q-35 51 -54 123q-19 70 -19 160q0 97 24 168t63 117t89 69q48 22 101 22q33 0 55 -6q21 -6 38 -14q5 -3 14 -7t13 -6q12 -6 25 -6q19 0 26 28h4v-146h-4q-7 43 -24 73q-16 30 -39 48q-23 19 -50 26q-29 8 -57 8q-41 0 -77 -18
q-37 -18 -62 -60q-26 -43 -41 -111q-15 -69 -15 -171q0 -103 14 -181q13 -75 39 -123t60 -69t77 -21q39 0 65 9q27 9 41 28q15 20 21 51t6 76v16q0 57 -1 75q-1 27 -6 42t-13 21q-8 5 -24 10v3h161v-3q-16 -5 -24 -10q-9 -6 -13 -19t-6 -41q-1 -18 -1 -75v-72
q-11 -21 -28 -39q-18 -19 -42 -36t-57 -27q-31 -10 -76 -10z" />
    <glyph glyph-name="H" unicode="H" horiz-adv-x="567" 
d="M12 3l-3 -4q16 4 25 12q8 7 13 29q5 21 6 63q1 28 1 116v306q0 88 -1 116q-1 42 -6 63q-5 22 -13 29q-9 8 -25 12v3h167v-3q-15 -5 -24 -12t-13 -28q-5 -21 -6 -63q-1 -28 -1 -116v-115h297v115q0 88 -1 116q-2 42 -6 63q-5 22 -13 29q-9 8 -24 12v3h167v-3
q-15 -4 -24 -12q-9 -7 -13 -28q-5 -21 -6 -63q-1 -28 -1 -116v-306q0 -88 1 -116q1 -42 6 -63q4 -20 14 -28q9 -8 24 -12v-3h-167v3q15 4 24 12t14 29q4 21 6 63q1 28 1 116v187h-297v-187q0 -88 1 -116q1 -42 6 -63q4 -20 14 -28q9 -7 24 -12v-3h-167v3z" />
    <glyph glyph-name="I" unicode="I" horiz-adv-x="191" 
d="M12 3l-1 -2q16 4 25 12q8 7 13 29q5 21 6 63q1 28 1 116v306q0 88 -1 116q-1 42 -6 63q-5 22 -13 29q-9 8 -25 12v3h167v-3q-15 -5 -24 -12t-13 -28q-5 -21 -6 -63q-1 -28 -1 -116v-306q0 -88 1 -116q1 -42 6 -63q4 -20 14 -28q9 -7 24 -12v-3h-167v3z" />
    <glyph glyph-name="J" unicode="J" horiz-adv-x="312" 
d="M125 -9l1 -1q-64 0 -96 20t-32 48q0 18 9 26q10 8 23 8q17 0 28 -9t15 -31q7 -30 17 -44q9 -14 35 -14q23 0 38 17t15 54v462q0 88 -1 116q-1 42 -6 63q-5 22 -13 29q-9 7 -24 12v3h167v-3q-16 -4 -25 -12q-9 -7 -13 -28q-5 -21 -6 -63q-1 -28 -1 -116v-401
q0 -30 -11 -57q-10 -24 -29 -43q-18 -18 -42 -27t-49 -9z" />
    <glyph glyph-name="K" unicode="K" horiz-adv-x="507" 
d="M353 2l-1 -1q22 7 22 26q0 17 -23 55l-212 332l226 239q24 25 36 42q13 17 14 27t-6 16q-6 5 -21 10v2h91v-2q-10 -4 -15 -7q-9 -6 -17 -12q-3 -3 -10.5 -10t-11.5 -10q-13 -12 -31 -31l-195 -206l246 -394q21 -34 36 -52q13 -16 30 -24v-2h-158v2zM11 2l-1 -2
q16 4 25 12q8 7 13 29q4 21 6 63q1 28 1 116v306q0 88 -1 116q-2 42 -6 63q-5 22 -13 29q-9 8 -25 12v3h167v-3q-15 -4 -24 -12q-9 -7 -13 -28t-6 -63q-1 -28 -1 -116v-306q0 -88 1 -116q2 -42 6 -63q4 -20 14 -28q9 -8 24 -12v-3h-167v3z" />
    <glyph glyph-name="L" unicode="L" horiz-adv-x="429" 
d="M12 3l-2 -1q16 4 25 12q8 7 13 29q4 21 6 63q1 28 1 116v306q0 88 -1 116q-2 42 -6 63q-5 22 -13 29q-9 8 -25 12v3h167v-3q-15 -4 -24 -12q-9 -7 -13 -28t-6 -63q-1 -28 -1 -116v-524h142q30 0 54 3t42 15q19 13 32 36q14 26 23 63h4l-16 -112q-2 -8 -4 -9t-6 -1h-392v3
z" />
    <glyph glyph-name="M" unicode="M" horiz-adv-x="644" 
d="M12 3l-3 -3q16 4 25 12q8 7 13 29q5 21 6 63q1 28 1 116v306q0 88 -1 116q-1 42 -6 63q-5 22 -13 29q-9 8 -25 12v3h115q4 0 8 -2q2 -1 7 -14l180 -608l189 624h121v-3q-15 -4 -24 -12q-9 -7 -13 -28t-6 -63q-1 -28 -1 -116v-306q0 -88 1 -116q2 -42 6 -63q4 -20 14 -28
q9 -8 24 -12v-3h-167v3q16 4 25 12q8 7 13 29q5 21 6 63q1 28 1 116v502l-220 -727h-6l-222 730v-505q0 -88 1 -116q1 -42 6 -63q4 -20 14 -28q9 -7 24 -12v-3h-93v3z" />
    <glyph glyph-name="N" unicode="N" horiz-adv-x="518" 
d="M12 3l1 -3q16 4 25 12q8 7 13 29q5 21 6 63q1 28 1 116v306q0 88 -1 116q-1 42 -6 63q-5 22 -13 29q-9 8 -25 12v3h112q11 0 15 -4q6 -6 14 -21l305 -569v372q0 88 -1 116q-2 42 -6 63q-5 22 -13 29q-9 7 -24 12v3h93v-3q-16 -4 -25 -12q-9 -7 -13 -28t-6 -63
q-1 -28 -1 -116v-531h-9l-394 732v-507q0 -88 1 -116q1 -42 6 -63q4 -20 14 -28q9 -7 24 -12v-3h-93v3z" />
    <glyph glyph-name="O" unicode="O" horiz-adv-x="588" 
d="M294 -6l-4 -1q-50 0 -99 26q-47 25 -85 75t-60 120q-22 69 -22 162q0 90 23 162q23 71 60 119q36 47 86 73q47 25 99 25t99 -25q50 -26 86 -73q37 -48 60 -119q23 -72 23 -162q0 -93 -22 -162q-22 -70 -60 -120t-85 -75t-99 -25zM290 -3l-1 -1q39 0 72 24t57 71
q25 48 38 117q14 73 14 165q0 97 -13 165q-13 69 -38 117q-24 47 -57 69q-34 23 -72 23t-72 -23q-33 -22 -57 -69q-25 -48 -38 -117q-14 -73 -14 -165t14 -165q13 -69 38 -117q24 -46 57 -70t72 -24z" />
    <glyph glyph-name="P" unicode="P" horiz-adv-x="467" 
d="M12 3l-1 -3q16 4 25 12q8 7 13 29q5 21 6 63q1 28 1 116v306q0 88 -1 116q-1 42 -6 63q-5 22 -13 29q-9 8 -25 12v3h203q52 0 95 -9q44 -9 77 -30t51 -58t18 -94t-19 -96q-19 -40 -53 -66t-78 -38q-45 -12 -94 -12h-77v-124q0 -88 1 -116q1 -42 6 -63q4 -20 14 -28
q9 -7 24 -12v-3h-167v3zM134 742l-3 -396h74q27 0 57 6q29 6 55 27q25 21 42 60q17 40 17 106q0 69 -16 107q-17 40 -40 59t-53 25q-29 6 -54 6h-79z" />
    <glyph glyph-name="Q" unicode="Q" horiz-adv-x="588" 
d="M294 -6l-2 -1q-53 0 -101 27q-46 26 -85 77q-38 49 -60 120q-22 69 -22 158q0 90 23 162q23 71 60 119q36 47 86 73q47 25 99 25t99 -25q50 -26 86 -73q37 -48 60 -119q23 -72 23 -162q0 -65 -12 -121q-12 -55 -33 -100q-20 -44 -50 -78q-27 -31 -62 -52l8 -25
q15 -48 22 -66q11 -30 22 -49q12 -20 27 -31q14 -10 38 -10q20 0 30 6t18 15l3 -2q-11 -14 -29 -23t-44 -9q-24 0 -48 6q-22 6 -43 23q-19 17 -36 48t-27 81q-1 2 -1 6v6q-24 -6 -49 -6zM292 751l-2 1q-38 0 -72 -23q-33 -23 -57 -69q-25 -48 -38 -117q-14 -73 -14 -165
q0 -288 102 -357q-21 19 -21 54q0 33 21 51t53 18q52 0 80 -27t48 -72q38 43 59 123q21 81 21 209q0 97 -13 165q-13 69 -38 117q-24 47 -57 69q-34 23 -72 23zM193 72l1 1q0 -39 27 -57t69 -18q21 0 47 8q-8 38 -16 61q-9 24 -18 40q-9 15 -21 21t-25 6q-25 0 -45 -15
q-19 -15 -19 -47z" />
    <glyph glyph-name="R" unicode="R" horiz-adv-x="509" 
d="M12 3l-2 -8q16 4 25 12q8 7 13 29q4 21 6 63q1 28 1 116v306q0 88 -1 116q-2 42 -6 63q-5 22 -13 29q-9 8 -25 12v3h209q61 0 107 -9q47 -9 80 -30q34 -22 50 -55q17 -36 17 -84q0 -51 -19 -86q-20 -36 -51 -60q-32 -24 -73 -36q-42 -12 -87 -12l-30 1q30 -3 57 -14
q26 -11 45 -33q18 -21 34 -57q15 -35 24 -84q17 -96 39 -138t62 -42q20 0 30 6q11 6 20 17l3 -2q-11 -14 -30 -24t-51 -10q-24 0 -48 8q-22 8 -42 27q-19 19 -36 56q-16 36 -27 92q-16 83 -22 112q-9 41 -21 60t-30 24q-20 5 -52 5h-34v-154q0 -88 1 -116q1 -42 6 -63
q4 -20 14 -28q9 -7 24 -12v-3h-167v3zM133 738l1 -366h110q82 0 117 47t35 135q0 97 -41 141q-40 43 -138 43h-84z" />
    <glyph glyph-name="S" unicode="S" horiz-adv-x="427" 
d="M214 -6l-3 -2q-38 0 -67 8q-25 7 -45 17q-4 2 -31 17q-14 8 -28 8q-17 0 -21 -22h-4v166h4q11 -90 60 -141t134 -51q34 0 59 11q24 11 39 30q16 21 23 45t7 57q0 38 -9 68q-9 31 -28 57q-19 27 -49 52q-30 26 -69 54q-15 11 -67 53q-28 22 -49 50q-19 25 -30 56
q-10 29 -10 67q0 36 14 67q13 29 38 51t56 32q33 11 68 11q32 0 57 -5q19 -4 37 -11q6 -2 14.5 -6t10.5 -5q12 -5 22 -5q17 0 24 28h5v-129h-5q-14 72 -56 101q-43 29 -107 29q-59 0 -90 -29q-30 -29 -30 -77q0 -31 9 -58q9 -26 26 -51q16 -23 42 -46q25 -23 60 -48
q39 -29 72 -54q34 -26 57 -55q25 -31 38 -66q14 -37 14 -82q0 -40 -15 -76t-40 -61t-61 -40t-76 -15z" />
    <glyph glyph-name="T" unicode="T" horiz-adv-x="505" 
d="M169 3v-4q15 5 24 12q9 8 14 29t6 63q1 28 1 116v524h-66q-32 0 -53 -6q-22 -6 -36 -19q-16 -15 -26 -37q-12 -28 -20 -58h-4l15 110q2 11 3 12q2 2 6 2h442q4 0 6 -2q1 -1 3 -12l14 -110h-4q-9 33 -20 59q-11 24 -26 38q-16 14 -37 20q-23 6 -54 6h-66v-524
q0 -88 1 -116q2 -42 6 -63q4 -20 14 -28q9 -7 24 -12v-3h-167v3z" />
    <glyph glyph-name="U" unicode="U" horiz-adv-x="527" 
d="M292 -7v-3q-114 0 -178 53q-63 53 -63 167v316q0 88 -1 116q-2 42 -6 63q-5 22 -13 29q-9 8 -25 12v3h167v-3q-15 -4 -24 -12q-9 -7 -13 -28t-6 -63q-1 -28 -1 -116v-324q0 -44 8 -84q7 -37 27 -64t51 -42t81 -15q38 0 69 12t54 38t36 66q13 39 13 98v314q0 88 -1 116
q-1 42 -6 63q-5 22 -13 29q-9 8 -24 12v3h94v-3q-16 -4 -25 -12q-9 -7 -13 -28t-6 -63q-1 -28 -1 -116v-314q0 -60 -13 -100q-13 -41 -38 -69q-24 -27 -57 -39t-73 -12z" />
    <glyph glyph-name="V" unicode="V" horiz-adv-x="511" 
d="M62 623l2 -3q-9 28 -15 48q-7 22 -12 35q-6 14 -15 25t-22 18v2h143v-2q-19 -6 -21 -24q-1 -18 9 -55l167 -540l144 495q8 28 11 41q5 19 3 36q-1 16 -9 28q-8 13 -24 20v2h89v-2q-12 -5 -18 -10q-8 -6 -15 -18q-7 -11 -15 -35q-8 -22 -18 -60l-183 -628h-6z" />
    <glyph glyph-name="W" unicode="W" horiz-adv-x="740" 
d="M63 623l-6 -7q-9 27 -15 48q-7 23 -13 36q-7 13 -15 25q-8 11 -21 18v2h139v-2q-20 -6 -21 -24t9 -55l171 -548l81 261l-74 241q-3 10 -8 26.5t-6 21.5q-7 23 -13 36q-8 15 -16 25q-9 11 -22 18v2h138v-2q-20 -6 -20 -24q0 -16 11 -55l59 -194l44 149q8 28 11 41
q4 17 4 36q0 16 -6 28q-6 13 -22 20v2h89v-2q-12 -5 -18 -10q-7 -6 -15 -18q-7 -11 -15 -35q-7 -23 -18 -60l-46 -156l104 -341l135 496q3 10 10 41q4 17 4 36q0 16 -8 29t-24 20v2h90v-2q-12 -6 -17 -10q-8 -6 -15 -19q-8 -13 -15 -36t-18 -60l-171 -627h-6l-116 378
l-117 -378h-6z" />
    <glyph glyph-name="X" unicode="X" horiz-adv-x="505" 
d="M4 2q5 3 13.5 9t12.5 9q9 7 19 18q9 10 18 27q12 22 23 44l130 244l-141 284q-4 8 -12 24.5t-11 23.5q-8 18 -18 31q-8 11 -18 19q-9 7 -21 12v2h161v-2q-27 -6 -26 -28q2 -23 27 -75l112 -227l117 226q22 48 21 72q-2 25 -34 32v2h104v-2q-17 -7 -27 -15q-10 -7 -19 -19
t-18 -30l-23 -46l-117 -227l144 -291l23 -46q9 -19 18 -33t20 -23q10 -9 24 -15v-2h-168v2q27 11 27 34q0 25 -28 80l-115 233l-130 -243q-22 -45 -18 -70t36 -34v-2h-106v2z" />
    <glyph glyph-name="Y" unicode="Y" horiz-adv-x="488" 
d="M166 3l-5 -4q16 4 25 12q8 7 13 29q5 21 6 63q1 28 1 116v161l-127 243l-25 50q-13 26 -19 35q-10 15 -18 23q-9 9 -22 15v2h151v-2q-21 -4 -21 -21q0 -16 20 -56l138 -273l110 227q4 8 22 47q8 18 10 35q1 14 -5 25q-6 10 -24 18v2h91v-2q-7 -3 -19 -11q-8 -6 -18 -20
q-9 -13 -21 -36q-17 -32 -29 -57l-112 -230v-172q0 -88 1 -116q1 -42 6 -63q4 -20 14 -28q9 -7 24 -12v-3h-167v3z" />
    <glyph glyph-name="Z" unicode="Z" horiz-adv-x="474" 
d="M358 746h-163q-37 0 -63 -9q-27 -10 -44 -25q-18 -16 -30 -41q-12 -23 -21 -56h-4l23 135h386l-345 -746h183q45 0 75 9q31 9 50 28q18 18 31 50q12 30 21 72h4l-17 -163h-429z" />
    <glyph glyph-name="bracketleft" unicode="[" horiz-adv-x="199" 
d="M192 793v-4h-87v-891h87v-4h-131v899h131z" />
    <glyph glyph-name="backslash" unicode="\" horiz-adv-x="337" 
d="M365 -168l-9 -1l-346 964l8 2z" />
    <glyph glyph-name="bracketright" unicode="]" horiz-adv-x="199" 
d="M138 -106h-131v4h87v891h-87v4h131v-899z" />
    <glyph glyph-name="asciicircum" unicode="^" horiz-adv-x="322" 
d="M160 756h2l134 -254l-3 -1l-132 250l-132 -250l-3 1z" />
    <glyph glyph-name="underscore" unicode="_" horiz-adv-x="323" 
d="M-5 -65h333v-7h-333v7z" />
    <glyph glyph-name="grave" unicode="`" horiz-adv-x="446" 
d="M156 636l-1 -2q-10 10 -16 19t-6 20q0 10 8 20q8 9 20 9q11 0 21 -8t17 -24l80 -137l-2 -2z" />
    <glyph glyph-name="a" unicode="a" horiz-adv-x="368" 
d="M118 -4l-2 -5q-42 0 -71 24t-29 73q0 29 12 47q11 16 32 31q20 14 45 24t51 24l22 10q37 18 50 39q14 22 14 45v63q0 28 -6 46t-15 27t-22 12t-28 3q-31 0 -42 -8q-11 -7 -18 -27q-7 -17 -17 -31q-9 -12 -26 -12q-14 0 -20 8q-6 7 -6 18q0 22 38 39q39 17 95 17
q33 0 56 -4q27 -5 45 -16q20 -12 32 -33t12 -55v-219q0 -33 2 -69q1 -23 5 -40q3 -13 9 -18q7 -5 16 -5q18 0 31 10l1 -2q-5 -5 -18 -11q-14 -6 -40 -6q-45 0 -63 21t-18 48l-7 -7q-28 -30 -54 -46q-26 -15 -66 -15zM92 101l-2 -2q0 -97 56 -97q19 0 39 11q18 10 49 42l7 7
v223q-5 -17 -19 -33q-15 -16 -43 -31l-22 -10q-41 -23 -53 -49q-12 -27 -12 -61z" />
    <glyph glyph-name="b" unicode="b" horiz-adv-x="440" 
d="M216 -7l-6 -5q-30 0 -54 8q-20 7 -39 17q-6 3 -16 9t-14 8q-14 8 -25 8q-10 0 -15 -6q-4 -6 -6 -11h-2v576q0 53 -1 69q-2 26 -4 34q-3 10 -11 12q-5 1 -21 1v2l112 54v-394l12 14q22 25 36 38q16 14 32 24q15 9 28 12t25 3q31 0 62 -14q30 -14 54 -42q24 -29 39 -70
q15 -42 15 -97q0 -63 -16 -108q-17 -47 -45 -78q-29 -32 -64 -48t-76 -16zM128 17l3 1q13 -10 33 -18q18 -7 48 -7q25 0 47 13q23 14 39 42t27 72q11 46 11 105q0 65 -9 108q-9 44 -24 71t-33 39t-37 12q-9 0 -19 -3q-12 -4 -24 -10q-15 -8 -30 -22q-14 -13 -37 -39l-12 -14
v-291q0 -24 3 -37q3 -12 14 -22z" />
    <glyph glyph-name="c" unicode="c" horiz-adv-x="357" 
d="M224 -5l-4 -2q-41 0 -77 15q-37 15 -65 45t-45 75q-16 44 -16 103q0 55 18 99q18 43 47 74q27 29 65 46q35 16 71 16q23 0 43 -4q22 -4 40 -12q19 -8 30 -19q12 -12 12 -27q0 -14 -7 -22q-8 -9 -24 -9q-18 0 -25 13q-7 12 -13 36q-4 19 -17 30q-11 10 -36 10
q-24 0 -49 -14q-23 -13 -40 -42t-27 -70q-10 -40 -10 -99q0 -123 39 -180t102 -57q38 0 65 15q28 16 44 37l3 -2q-16 -22 -48 -39q-31 -16 -76 -16z" />
    <glyph glyph-name="d" unicode="d" horiz-adv-x="453" 
d="M197 -6v1q-31 0 -64 14q-31 13 -55 42t-39 72t-15 102q0 63 16 108q17 47 43 76q27 30 62 45t72 15q25 0 52 -12t56 -38v184q0 51 -1 66q-2 25 -4 33q-3 10 -11 12q-10 2 -21 2v2l112 54v-635v-67q0 -24 5 -39q4 -13 13 -19t25 -9v-3h-116v79l-6 -8q-32 -41 -60 -59
q-29 -18 -64 -18zM103 237l-1 -4q0 -70 11 -117q11 -46 27 -71t36 -34t36 -9q25 0 51 14q25 13 60 59l6 8v327q-33 30 -58 41q-27 12 -51 12q-23 0 -43 -10t-37 -36q-16 -25 -27 -69q-10 -41 -10 -111z" />
    <glyph glyph-name="e" unicode="e" horiz-adv-x="375" 
d="M235 -6l-2 -9q-43 0 -80 15t-66 45q-28 29 -46 75q-18 45 -18 105q0 59 18 104t45 75t60 45t63 15q53 0 95 -36q43 -37 56 -108h-256q-2 -16 -3 -36q-1 -13 -1 -42q0 -64 11 -113q11 -47 30 -75t47 -42q26 -13 59 -13t60 12q25 11 46 29l3 -3q-20 -17 -49 -30t-72 -13z
M208 456v-1q-14 0 -29 -6t-30 -21t-27 -42t-18 -67h192q-3 71 -30 104t-58 33z" />
    <glyph glyph-name="f" unicode="f" horiz-adv-x="197" 
d="M21 3l-2 -1q12 3 18 9t9 19q3 14 3 39v67v320h-41v4q12 1 21 5q7 3 12 12t6 24q2 20 2 39v35q0 53 12 87q12 35 30 56t41 30q22 9 44 9q30 0 50 -10q21 -11 21 -30q0 -11 -6 -18q-6 -8 -19 -8q-14 0 -22 6q-7 6 -9 20q-5 25 -7 29q-3 8 -16 8q-10 0 -18 -6t-12 -21
q-5 -18 -8 -40q-3 -25 -3 -63v-163h83v-4h-83v-320q0 -50 1 -67q2 -26 6 -39q4 -12 14 -19q9 -6 26 -9v-3h-153v3z" />
    <glyph glyph-name="g" unicode="g" horiz-adv-x="368" 
d="M183 154l4 -4q-44 0 -81 22l-9 -6q-13 -8 -21 -18q-8 -11 -8 -24t11 -21q10 -7 41 -15l144 -30q48 -11 79 -34q31 -24 31 -69q0 -29 -14 -54q-14 -24 -39 -42q-24 -17 -60 -28q-33 -10 -77 -10q-31 0 -61 6t-54 18t-39 30t-15 42q0 19 9 34t24 27q13 10 33 22q12 7 36 19
q-39 9 -58 29q-18 20 -18 45q0 29 16 45q17 17 34 27l11 7q-30 17 -52 50q-21 32 -21 80q0 37 14 68q13 30 36 51q23 22 50 32q28 11 54 11q42 0 80 -23q30 22 48 29q21 8 36 8q24 0 24 -26q0 -11 -6 -17t-16 -6q-11 0 -24 8t-32 8q-9 0 -13 -1l-12 -3q31 -19 52 -54t21 -82
q0 -37 -15 -66t-37 -48t-51 -28t-55 -9zM187 154h-1q37 0 61 34t24 115t-24 119t-61 38q-34 0 -58 -38t-24 -119t24 -115t59 -34zM61 -76l-1 -2q0 -52 33 -75q34 -23 87 -23q41 0 73 9t52 22t31 30q10 16 10 33t-8 30q-8 12 -20 20q-12 7 -29 12l-33 9l-133 26
q-33 -19 -47 -37q-15 -20 -15 -54z" />
    <glyph glyph-name="h" unicode="h" horiz-adv-x="437" 
d="M19 3h-4q11 3 19 9q8 7 11 19q3 13 3 39v67v460q0 51 -1 66q-2 25 -4 33q-3 11 -10 12q-10 2 -19 2v2l108 59v-396l14 14q22 22 44 39q19 14 38 24q18 9 33 12t29 3q20 0 40 -6t33 -19q15 -15 23 -34q9 -21 9 -51v-221v-67q0 -25 3 -39q3 -13 10 -19q8 -6 19 -9v-3h-145
v3q14 3 21 9q8 6 12 19q5 15 5 39v67v234q0 48 -14 68t-39 20q-9 0 -19 -3q-12 -4 -24 -10q-15 -9 -32 -21q-16 -12 -42 -38l-14 -14v-235v-67q0 -24 5 -39q4 -13 12 -19q7 -6 21 -9v-3h-145v3z" />
    <glyph glyph-name="i" unicode="i" horiz-adv-x="182" 
d="M89 551q-18 0 -30 12t-12 30t12 30t30 12t30 -12t12 -30t-12 -30t-30 -12zM19 3l-2 -1q11 3 19 9q8 7 11 19q3 14 3 39v67v154v65q0 23 -3 35q-3 13 -9 14q-8 2 -18 2v3l106 64v-336v-67q0 -24 5 -39q4 -13 12 -19q7 -6 21 -9v-3h-145v3z" />
    <glyph glyph-name="j" unicode="j" horiz-adv-x="181" 
d="M89 551q-18 0 -30 12t-12 30t12 30t30 12t30 -12t12 -30t-12 -30t-30 -12zM-27 -130q-16 0 -27 7q-12 7 -12 21t9 21q8 7 21 7q10 0 18 -5q7 -5 14 -11q8 -8 12 -11q7 -5 14 -5q4 0 12 5q3 1 6 8q3 6 6 21q2 12 4 40q2 34 2 64v258q0 50 -1 65q-2 26 -4 35q-3 13 -9 14
q-8 2 -18 2v3l107 64v-420q0 -32 -9 -56q-9 -23 -21 -43q-11 -18 -27 -34q-13 -13 -30 -25q-23 -17 -37 -21q-13 -4 -30 -4z" />
    <glyph glyph-name="k" unicode="k" horiz-adv-x="391" 
d="M19 2l-5 3q11 3 19 9q8 7 11 19q3 13 3 39v67v449q0 57 -1 74q-2 29 -4 38q-3 12 -11 14q-10 2 -21 2v3l112 58v-526l162 154q29 27 21 41t-30 17v2h104v-2q-14 -4 -20 -7q-7 -4 -19 -12q-8 -6 -22 -18q-16 -14 -29 -27l-111 -105l172 -239q20 -27 30 -36q11 -9 19 -12
v-4h-143v4q3 1 11 5q7 3 8 9q2 7 -1 15q-4 11 -13 23l-135 181v-104v-67q0 -24 5 -39q4 -13 12 -19q7 -6 21 -9v-2h-145v2z" />
    <glyph glyph-name="l" unicode="l" horiz-adv-x="182" 
d="M19 3l-1 1q11 3 19 9q8 7 11 19q3 14 3 39v67v448q0 55 -1 72q-2 29 -4 38q-3 12 -11 14q-10 2 -21 2v2l112 58v-635v-67q0 -24 5 -39q4 -13 12 -19q7 -6 21 -9v-3h-145v3z" />
    <glyph glyph-name="m" unicode="m" horiz-adv-x="669" 
d="M19 3l-7 -5q11 3 19 9q8 7 11 19q3 14 3 39v67v154v65q0 23 -3 33q-3 11 -9 14t-18 3v3l106 64v-90l9 9q26 24 45 39q20 16 35 23q16 8 29 11t27 3q42 0 69 -21t33 -66l11 11q26 26 43 39q20 16 35 23q16 8 29 11q14 3 27 3q42 0 72 -24t30 -85v-221v-67q0 -26 3 -39
q3 -12 11 -19q7 -6 21 -9v-3h-145v3q13 3 21 9q8 7 11 19q3 13 3 39v67v234q0 49 -13 68q-14 20 -36 20q-5 0 -17 -2q-8 -1 -22 -9t-30 -21q-17 -14 -41 -38l-10 -10v-240v-67q0 -26 3 -39t10 -19q8 -6 21 -9v-3h-144v3q13 3 21 9q8 7 11 19q3 13 3 39v67v234q0 48 -14 68
t-36 20q-5 0 -17 -2q-9 -1 -21 -9t-30 -21q-13 -10 -43 -38l-9 -9v-241v-67q0 -24 5 -39q4 -13 12 -19q7 -6 21 -9v-3h-145v3z" />
    <glyph glyph-name="n" unicode="n" 
d="M19 3l-4 -2q11 3 19 9q8 7 11 19q3 13 3 39v67v154v65q0 22 -3 33t-9 14t-18 3v3l105 64v-96l15 14q22 22 44 39q20 15 36 24t32 12q15 3 29 3q21 0 40 -6q20 -6 33 -19q14 -14 21 -34q8 -22 8 -51v-221v-67q0 -25 3 -39q3 -13 10 -19q8 -6 21 -9v-3h-144v3q13 3 21 9
t12 19q5 15 5 39v67v234q0 47 -14 67q-13 19 -39 19q-8 0 -19 -3q-12 -4 -24 -10t-31 -21q-18 -14 -42 -36l-15 -14v-235v-67q0 -24 5 -39q4 -13 12 -19t21 -9v-3h-144v3z" />
    <glyph glyph-name="o" unicode="o" 
d="M218 -8v-1q-32 0 -66 15t-63 44t-47 72q-18 44 -18 102q0 59 18 104q18 44 47 75t63 47q33 16 66 16t66 -16q35 -17 63 -46q29 -31 47 -75q18 -45 18 -104t-18 -102t-47 -72t-63 -44t-66 -15zM218 -5v-3q22 0 43 12q20 12 37 39q16 27 27 71q10 41 10 108q0 70 -10 113
q-11 46 -27 74q-17 30 -37 41q-21 12 -43 12t-43 -12t-37 -40q-17 -29 -27 -73q-10 -43 -10 -112q0 -67 10 -108q11 -44 27 -71q17 -27 37 -39q21 -12 43 -12z" />
    <glyph glyph-name="p" unicode="p" horiz-adv-x="449" 
d="M15 -167l-5 -3q11 3 19 9q8 7 11 19q3 14 3 39v67v324v65q0 23 -3 33q-3 11 -9 14t-18 3v3l106 64v-96l14 16q35 39 63 57t57 18q30 0 60 -12t54 -39t39 -69t15 -101q0 -60 -15 -106t-42 -79q-26 -32 -63 -49q-35 -16 -79 -16q-22 0 -48 9q-27 9 -51 28v-64q0 -50 1 -67
q1 -22 5 -39q3 -12 11 -19q7 -6 23 -9v-3h-148v3zM118 368v-338q28 -22 51 -29q26 -8 49 -8q26 0 48 12t39 39q16 27 27 71q10 41 10 110q0 70 -9 115q-9 44 -24 70t-33 35t-36 9q-22 0 -48 -15q-26 -16 -60 -55z" />
    <glyph glyph-name="q" unicode="q" horiz-adv-x="449" 
d="M290 -167v-3q14 3 21 9q8 6 12 19q5 15 5 39v67v116l-15 -18q-31 -37 -57 -53q-28 -17 -64 -17q-28 0 -58 12t-54 39t-39 71t-15 108q0 61 17 107q16 45 44 77q27 32 62 47t72 15q31 0 51 -7q22 -8 37 -16q5 -3 15 -8t15 -8q13 -7 29 -7q25 0 32 34h2v-489v-67
q0 -26 3 -39q3 -12 11 -19q8 -6 21 -9v-3h-147v3zM104 233l-4 -1q0 -74 9 -119q9 -44 24 -70q15 -25 33 -34t38 -9q25 0 50 14t56 51l15 18v288q0 40 -29 63q-14 10 -33 18q-21 8 -42 8q-22 0 -44 -11t-38 -36q-17 -27 -26 -69q-9 -44 -9 -111z" />
    <glyph glyph-name="r" unicode="r" horiz-adv-x="291" 
d="M19 3l-2 -3q11 3 19 9q8 7 11 19q3 14 3 39v67v142v72q0 26 -3 38t-9 15t-18 3v3l106 64v-107l33 35q29 30 51 49q19 16 44 16q21 0 29 -11t8 -24t-9 -22t-22 -9q-11 0 -18 4q-10 6 -14 10t-12 10q-5 4 -13 4q-11 0 -18 -6t-24 -24l-33 -35v-224v-67q0 -24 5 -39
q4 -13 12 -19q7 -6 21 -9v-3h-147v3z" />
    <glyph glyph-name="s" unicode="s" horiz-adv-x="312" 
d="M160 -2l-5 1q29 0 44 7q18 8 26 19q9 12 12 27t3 31q0 19 -6 36t-19 31q-14 16 -34 30q-25 18 -49 33q-52 33 -82 68q-28 32 -28 79q0 26 9 47t26 35q16 13 38 21t47 8q26 0 39 -4q17 -5 26 -9q3 -1 9 -4t9 -4q7 -3 18 -3q6 0 11 6t6 13h4v-99l-4 1q-18 57 -47 78t-69 21
q-37 0 -58 -18t-21 -50q0 -17 6 -30t18 -27t30 -27t45 -30q60 -38 92 -74q32 -37 32 -87q0 -60 -36 -94q-35 -34 -94 -34q-29 0 -47 6q-16 5 -31 12q-12 5 -22 12q-9 6 -19 6q-5 0 -10 -6t-6 -13h-4v130h4q17 -77 51 -111t86 -34z" />
    <glyph glyph-name="t" unicode="t" horiz-adv-x="221" 
d="M141 -5h-2q-38 0 -65 24t-27 74v364h-41v4q17 3 37 11q17 7 33 23t26 39q10 24 15 59h5v-133h89v-4h-89v-347q0 -51 6 -78t33 -27q20 0 33 7q15 8 24 16l2 -3q-6 -7 -26 -19q-17 -10 -53 -10z" />
    <glyph glyph-name="u" unicode="u" horiz-adv-x="433" 
d="M157 -7l-6 -3q-47 0 -78 26q-30 26 -30 87v173v72q0 26 -3 38t-9 15t-18 3v3l106 64v-393q0 -44 15 -60t41 -16q4 0 18 2q11 2 24 9q17 9 32 22q22 19 44 39l10 10v194v72q0 26 -3 38t-9 15t-18 3v3l106 64v-336v-67q0 -24 5 -39q4 -13 12 -19q7 -6 23 -9v-3h-114v79
l-10 -10q-25 -24 -45 -39q-21 -16 -36 -23q-19 -8 -30 -11q-14 -3 -27 -3z" />
    <glyph glyph-name="v" unicode="v" horiz-adv-x="365" 
d="M54 355v-1q-10 30 -18 52q-9 22 -13 30q-6 10 -12 15q-5 4 -15 7v2h135v-2q-11 -2 -17 -6q-5 -4 -7 -15q-1 -11 3 -30t15 -51l89 -260l80 236q14 42 18 66q5 25 2 36q-3 13 -12 17q-9 5 -24 6v2h94v-2q-13 -3 -19 -7q-8 -5 -15 -16q-6 -10 -16 -36q-15 -40 -23 -64
l-115 -338h-6z" />
    <glyph glyph-name="w" unicode="w" horiz-adv-x="547" 
d="M55 355l-4 -1q-10 30 -18 52q-6 17 -14 30q-6 10 -14 15q-6 4 -16 7v2h139v-2q-10 -1 -16 -6q-5 -4 -7 -15q-1 -11 3 -30t15 -51l83 -260l67 185l-23 72q-10 35 -18 54q-9 22 -13 30q-6 11 -12 14t-15 6v2h135v-2q-11 -2 -17 -6q-5 -4 -7 -15t3 -29q5 -20 15 -50l81 -254
l72 232q14 42 18 66q4 23 1 36q-3 12 -13 15q-13 4 -25 5v2h99v-2q-13 -3 -20 -6q-8 -3 -15 -15q-6 -9 -16 -35q-6 -14 -22 -65l-106 -340h-6l-90 279l-103 -279h-6z" />
    <glyph glyph-name="x" unicode="x" horiz-adv-x="368" 
d="M1 2l3 -1q15 6 24 12q8 5 18 17q11 13 20 28q2 4 11.5 19.5t15.5 26.5l66 109l-78 141q-16 29 -30 52q-12 20 -21 30t-15 15q-4 3 -14 7v2h141v-2q-10 -1 -16 -6q-6 -4 -4 -15q2 -12 10 -30q5 -11 26 -51l50 -93l56 93q20 34 26 51q8 21 8 30q0 11 -7 15t-18 6v2h82v-2
q-13 -4 -21 -9q-6 -4 -16 -15q-10 -12 -21 -28q-1 -1 -31 -50l-57 -95l84 -156q17 -31 27 -51t18 -30t15 -15q6 -4 16 -7v-2h-138v2q11 2 17 6q6 5 5 15q-2 12 -10 30q-10 22 -25 49l-59 107l-66 -106q-17 -27 -24 -45q-7 -17 -7 -30q0 -12 6 -18q7 -7 16 -8v-2h-83v2z" />
    <glyph glyph-name="y" unicode="y" horiz-adv-x="369" 
d="M71 -175h-3q-15 0 -25 8q-9 7 -9 18q0 12 8 20t24 8q14 0 24 -5t18 -5q11 0 22 18q9 15 28 63l17 48l-124 356l-20 52q-6 17 -14 30q-6 10 -12 15q-5 4 -15 7v2h138v-2q-10 -1 -16 -6q-5 -4 -7 -15q-1 -11 3 -30t15 -51l89 -257l82 233q16 43 20 65q5 25 2 36
q-3 13 -12 17t-23 6v2h94v-2q-13 -3 -19 -7q-8 -5 -15 -16q-6 -10 -16 -36q-2 -5 -6.5 -16.5t-9 -23.5t-8.5 -24l-135 -383q-26 -66 -47 -96q-20 -29 -48 -29z" />
    <glyph glyph-name="z" unicode="z" horiz-adv-x="341" 
d="M322 -8l-2 -3q-12 5 -36 6q-32 2 -78 2h-203l240 457h-118q-24 0 -39 -7q-16 -7 -28 -21t-21 -30q-6 -11 -18 -35h-3l19 104q17 -5 43 -6q18 -1 71 -1h171l-243 -457h132q30 0 52 8q20 7 34 23q13 14 22 36q11 26 17 46h3z" />
    <glyph glyph-name="braceleft" unicode="{" horiz-adv-x="233" 
d="M226 -106l-3 -12q-37 0 -66 7q-32 8 -55 22q-25 16 -38 37q-14 23 -14 54q0 29 12 62t27 66q14 30 27 65q12 31 12 59q0 14 -3 27t-14 26q-11 12 -32 20q-22 8 -58 8v4q36 0 58 8q21 8 32 20q11 13 14 26t3 27q0 27 -12 59q-13 35 -27 65q-15 33 -27 66t-12 62
q0 31 14 54q13 21 38 37q23 14 55 22q29 7 68 7v-3q-62 0 -93 -25q-32 -26 -32 -84q0 -30 9 -62t21 -63q13 -33 21 -61q9 -30 9 -57q0 -39 -28 -64t-81 -30q53 -5 81 -30t28 -64q0 -27 -9 -57q-10 -32 -21 -62q-12 -32 -21 -63q-9 -32 -9 -61q0 -58 33 -84q32 -25 93 -25v-3
z" />
    <glyph glyph-name="bar" unicode="|" horiz-adv-x="215" 
d="M111 820v-926h-8v926h8z" />
    <glyph glyph-name="braceright" unicode="}" horiz-adv-x="233" 
d="M7 -103l-3 2q61 0 93 25q33 26 33 84q0 30 -9 62t-21 63q-11 30 -21 62q-9 30 -9 57q0 40 28 65t81 30q-53 5 -81 30t-28 65q0 27 9 57q10 32 21 62q12 31 21 63t9 62q0 58 -32 84t-93 26v3q39 0 68 -7q32 -8 55 -22q25 -16 38 -37q14 -23 14 -54q0 -28 -12 -61t-27 -66
q-16 -36 -27 -64q-12 -32 -12 -58q0 -14 3 -27t14 -26q11 -12 32 -20q22 -8 58 -8v-4q-36 0 -58 -8q-21 -8 -32 -20q-11 -13 -14 -26t-3 -27q0 -28 12 -59q11 -28 27 -64q15 -33 27 -66t12 -61q0 -31 -14 -54q-13 -21 -38 -37q-23 -14 -55 -22q-29 -7 -66 -7v3z" />
    <glyph glyph-name="asciitilde" unicode="~" horiz-adv-x="315" 
d="M113 407h1q11 0 26 -3q10 -2 32 -6t32 -6q15 -3 25 -3t21 8q10 7 24 35l3 -1q-15 -49 -31 -66q-16 -18 -33 -18q-11 0 -26 3q-20 4 -31 6q-22 4 -32 6q-15 3 -25 3q-11 0 -24 -7q-13 -8 -33 -39l-3 1q16 44 38 66q21 21 36 21z" />
    <glyph glyph-name="uni00A0" unicode="&#xa0;" horiz-adv-x="192" 
 />
    <glyph glyph-name="exclamdown" unicode="&#xa1;" horiz-adv-x="178" 
d="M87 272h5q3 -111 10 -187q8 -86 15 -149q10 -88 13 -108q6 -44 6 -63q0 -27 -12 -42t-35 -15t-35 15t-12 42q0 19 6 63q9 67 14 108q7 63 15 149q7 76 10 187zM90 472q20 0 33 -13t13 -33t-13 -33t-33 -13t-33 13t-13 33t13 33t33 13z" />
    <glyph glyph-name="cent" unicode="&#xa2;" horiz-adv-x="360" 
d="M216 -5l-5 -82h-6v82q-37 3 -73 20q-34 16 -60 47t-41 74q-15 44 -15 99q0 51 17 94q16 41 44 72t61 47q36 17 69 20v81h6v-80h8q24 0 44 -4q23 -5 41 -12t30 -18t12 -26q0 -13 -8 -24q-7 -10 -24 -10t-25 14q-7 12 -13 36q-5 20 -17 29t-37 9h-9v-461q3 -1 11 -1h12
q38 0 66 15q29 15 45 37l3 -3q-16 -22 -48 -39q-31 -16 -78 -16h-10zM91 237l-1 -1q0 -109 30 -166q30 -56 84 -67v459q-50 -8 -81 -63q-32 -56 -32 -162z" />
    <glyph glyph-name="sterling" unicode="&#xa3;" horiz-adv-x="413" 
d="M72 52h-5q28 28 45 62t17 77q0 22 -3 43t-9 42h-107v6h105q-9 30 -21 60h-84v6h81q-16 42 -37 100q-18 51 -18 108q0 51 16 87q17 38 43 63q27 25 62 39q33 13 72 13q35 0 63 -9t48 -24t30 -33q11 -19 11 -36q0 -14 -7 -24t-22 -10q-16 0 -25 9q-10 10 -11 24
q-2 22 -4 32q-3 17 -12 32t-26 24q-16 9 -45 9q-61 0 -88 -49t-27 -127q0 -68 13 -123q3 -11 11.5 -49t13.5 -57h167v-6h-166q7 -31 12 -60h154v-6h-153q2 -12 2 -18v-17q0 -35 -7 -60q-8 -29 -19 -48q-13 -22 -27 -38q-20 -22 -28 -30h155q61 0 81 1q26 1 46 5q16 3 24 11
q7 7 13 21h3l-19 -70q-5 -20 -9 -26q-5 -6 -15 -6h-344z" />
    <glyph glyph-name="yen" unicode="&#xa5;" horiz-adv-x="453" 
d="M150 3l-3 -2q15 5 24 12q9 8 14 29t6 63q1 28 1 116v99h-148v6h148v60h-148v6h146l-107 233q-13 30 -24 51q-13 26 -19 35q-10 15 -18 23q-9 9 -22 15v2h152v-2q-22 -4 -22 -21q0 -16 18 -57l120 -267l91 221q14 34 20 50q7 21 9 35q1 13 -5 23q-6 9 -23 17v2h90v-2
q-7 -3 -19 -11q-9 -6 -19 -19q-10 -14 -21 -36q-14 -30 -26 -60l-93 -225v-6h148v-6h-148v-60h148v-6h-148v-99q0 -88 1 -116q1 -42 6 -63q4 -20 14 -28q9 -7 24 -12v-3h-167v3z" />
    <glyph glyph-name="brokenbar" unicode="&#xa6;" horiz-adv-x="215" 
d="M111 820v-380h-8v380h8zM111 -106h-8v380h8v-380z" />
    <glyph glyph-name="section" unicode="&#xa7;" horiz-adv-x="429" 
d="M192 -148l-7 1q55 0 80 34q26 35 26 90q0 24 -8 48q-7 23 -24 48q-15 23 -42 55q-25 30 -62 68q-42 44 -57 59q-24 24 -42 50q-17 25 -26 50t-9 59q0 26 6 47q5 19 17 37q10 15 24 28q15 13 27 20q-7 17 -12 38q-4 17 -4 42q0 36 12 63t33 45t48 27t57 9q31 0 57 -9
q24 -9 43 -21q18 -12 27 -27t9 -27q0 -11 -7 -18t-21 -7q-15 0 -23 8q-7 7 -12 23q-4 16 -7 25q-5 13 -12 24q-7 10 -20 18q-11 7 -32 7q-47 0 -74 -27t-27 -76q0 -25 6 -45q6 -18 20 -39q10 -14 35 -43q14 -16 53 -55q13 -13 38 -38.5t36 -37.5q33 -34 51 -61
q19 -28 30 -57q10 -27 10 -63t-21 -72q-22 -37 -52 -63q13 -30 13 -69q0 -38 -12 -69t-33 -54t-51 -36q-29 -13 -64 -13q-33 0 -61 11t-47 27t-30 38t-11 40q0 11 7 18q8 8 18 8q17 0 24 -9q7 -8 10 -22l11 -44q4 -17 14 -34q8 -14 26 -22q15 -7 42 -7zM196 263v-2
q45 -48 85 -93q33 -38 48 -75q11 16 18 34t7 39q0 32 -9 57q-10 28 -28 53q-21 30 -49 60q-30 33 -73 76q-35 37 -61 67q-24 29 -40 60q-14 -11 -23 -27t-9 -48q0 -24 8 -46q7 -20 24 -43q15 -20 42 -49q26 -27 60 -63z" />
    <glyph glyph-name="dieresis" unicode="&#xa8;" horiz-adv-x="446" 
d="M294 551q-17 0 -29 12t-12 30q0 17 12 29t29 12t29 -12t12 -29q0 -18 -12 -30t-29 -12zM152 551q-17 0 -29 12t-12 30q0 17 12 29t29 12t29 -12t12 -29q0 -18 -12 -30t-29 -12z" />
    <glyph glyph-name="copyright" unicode="&#xa9;" horiz-adv-x="678" 
d="M340 758v-2q64 0 120 -28q57 -28 100 -79q44 -51 69 -121q25 -69 25 -156t-25 -156q-25 -70 -69 -121q-43 -51 -100 -79q-56 -28 -120 -28q-65 0 -121 28q-57 28 -100 79t-69 122q-25 69 -25 156t25 156q26 71 69 122t100 79q56 28 121 28zM340 -8q62 0 117 27
q56 27 98 77q41 48 67 120q25 69 25 156t-25 156q-26 72 -67 120q-42 50 -98 77q-55 27 -117 27t-117 -27t-99 -77t-69 -120q-25 -69 -25 -156t25 -156q25 -70 69 -120t99 -77t117 -27zM358 148l4 -2q-33 0 -66 14q-30 13 -55 41q-23 26 -37 71t-14 103q0 60 15 102
q15 43 39 68q25 26 54 38q30 12 59 12q20 0 32 -3q14 -4 21 -7q3 -2 8 -4t7 -3q6 -3 14 -3q12 0 17 17h3v-94h-3q-14 54 -40 74q-27 21 -61 21q-23 0 -42 -12q-20 -12 -33 -37q-14 -26 -21 -66q-7 -38 -7 -97q0 -63 9 -106t24 -70t36 -39t42 -12q40 0 63 16q25 17 38 33
l2 -3q-6 -9 -15 -18q-11 -11 -22 -17q-14 -8 -31 -12q-20 -5 -40 -5z" />
    <glyph glyph-name="ordfeminine" unicode="&#xaa;" horiz-adv-x="301" 
d="M95 391l-1 -5q-32 0 -54 18t-22 57q0 22 9 37q8 14 24 25q14 10 35 18q20 7 39 18l16 7q29 15 39 30q11 16 11 33v49q0 24 -4 36q-5 14 -12 21t-18 10q-10 3 -22 3q-23 0 -30 -6t-12 -21q-7 -18 -15 -27t-21 -9q-10 0 -16 6t-6 15q0 19 29 33q30 14 74 14q24 0 45 -3
q20 -3 37 -12t26 -26t9 -43v-170v-51q0 -20 3 -30q3 -11 7 -15t10 -4q13 0 24 8l1 -2q-3 -3 -15 -10q-11 -6 -31 -6q-35 0 -48 16t-13 39l-5 -5q-22 -24 -42 -36t-51 -12zM80 471l1 -1q0 -73 39 -73q15 0 31 8t38 33l5 5v169q-8 -26 -51 -48l-16 -7q-29 -17 -38 -37
q-9 -21 -9 -49z" />
    <glyph glyph-name="guillemotleft" unicode="&#xab;" horiz-adv-x="296" 
d="M140 228v4l119 161l3 -2l-69 -161l70 -161l-3 -2zM35 228v4l120 161l3 -2l-70 -161l71 -161l-3 -2z" />
    <glyph glyph-name="registered" unicode="&#xae;" horiz-adv-x="427" 
d="M215 756l-1 -2q39 0 72 -16q35 -17 60 -46q27 -31 41 -70q15 -40 15 -87t-15 -87q-14 -39 -41 -70q-25 -29 -60 -46q-33 -16 -72 -16q-37 0 -73 17q-34 16 -61 46t-42 70q-15 41 -15 87t15 87q15 40 42 70t61 46q36 17 74 17zM214 321l-2 -1q39 0 71 16q34 17 59 45
q26 29 41 68t15 86t-15 86q-16 41 -40 68q-25 28 -59 45q-32 16 -70 16q-39 0 -72 -16q-34 -16 -60 -45t-41 -68t-15 -85q0 -47 15 -86t41 -68q26 -28 60 -45q33 -16 72 -16zM138 428l-3 -5q6 2 8 4t4 9q2 8 2 20v36v94v36q0 11 -2 21q-2 8 -4 9q-4 2 -7 3v3h75q39 0 62 -12
t23 -43q0 -32 -24 -47t-54 -15h-6q20 -3 32 -15q11 -11 19 -44q5 -29 12 -41t19 -12q11 0 18 7l1 -2q-11 -12 -33 -12q-17 0 -30 11t-20 48q-1 5 -2.5 13t-2.5 13t-2 9q-3 12 -6 18q-3 7 -9 8q-8 2 -16 2h-7v-47v-36q0 -12 2 -20q1 -5 5 -9q2 -2 8 -4v-3h-62v3zM182 654
v-113h36q22 0 33 15q10 14 10 42t-12 42t-40 14h-27z" />
    <glyph glyph-name="macron" unicode="&#xaf;" horiz-adv-x="446" 
d="M312 604v-32h-173v32h173z" />
    <glyph glyph-name="degree" unicode="&#xb0;" horiz-adv-x="211" 
d="M105 759q35 0 57 -24q23 -25 23 -59t-23 -59q-22 -24 -57 -24t-57 24q-23 25 -23 59t23 59q22 24 57 24zM31 676l-1 -1q0 -31 21 -54q21 -22 53 -22t53 23q21 22 21 54t-21 54t-53 22q-31 0 -52 -22t-21 -54z" />
    <glyph glyph-name="twosuperior" unicode="&#xb2;" horiz-adv-x="359" 
d="M196 510l3 -1h45q17 0 26 3t12 8q3 4 6 12h3l-13 -51q-1 -3 -2.5 -6l-2.5 -5t-1 -3q-2 -3 -8 -3h-197l75 93q37 52 57 98q19 44 19 95q0 39 -10 62q-10 24 -39 24q-13 0 -21 -6q-7 -6 -12 -14q-4 -8 -6 -15t-3 -12q-1 -9 -8 -16q-6 -6 -17 -6t-17 7q-6 8 -6 16
q0 17 23 35q22 18 66 18q42 0 73 -21t31 -70q0 -26 -9 -48q-10 -24 -25 -45q-16 -23 -39 -48q-5 -6 -49 -57l-45 -44h91z" />
    <glyph glyph-name="threesuperior" unicode="&#xb3;" horiz-adv-x="351" 
d="M92 821l-6 -1q2 7 5 13q1 3 6 3h169v-4l-121 -144q13 9 33 9q42 0 72 -27t30 -82q0 -26 -9 -48q-8 -21 -26 -40q-16 -17 -39 -28q-21 -10 -51 -10q-40 0 -63 17t-23 35q0 8 6 14t17 6q10 0 15 -6t6 -16q1 -6 3 -15q1 -8 6 -16q4 -7 12 -12t21 -5q19 0 32 9q14 9 23 26
q8 15 13 39q4 20 4 48q0 51 -10 78q-11 29 -36 29q-19 0 -31 -9q-11 -8 -22 -21l-2 3l105 123h-63h-45q-13 0 -25 -2q-9 -1 -12 -6t-6 -12h-3z" />
    <glyph glyph-name="acute" unicode="&#xb4;" horiz-adv-x="446" 
d="M167 533l79 137q7 16 17 24t21 8q12 0 20 -9q8 -10 8 -19q0 -10 -6 -19t-16 -19l-121 -105z" />
    <glyph glyph-name="paragraph" unicode="&#xb6;" horiz-adv-x="427" 
d="M202 419l-3 -3q-39 0 -75 11q-34 10 -60 32q-24 20 -40 53q-15 32 -15 72q0 42 15 72t41 50q25 20 60 30q33 10 75 10h214v-3q-16 -4 -25 -12q-9 -7 -13 -28t-6 -63q-1 -28 -1 -116v-340q0 -80 -12 -134t-36 -87q-25 -34 -57 -47q-34 -14 -74 -14q-32 0 -50 12t-18 31
q0 14 9 23t23 9t25 -9q7 -6 19 -20t18 -20q9 -9 26 -9q15 0 29 11q13 10 24 36q10 24 16 67q6 42 6 103v609h-60v-326h-55z" />
    <glyph glyph-name="periodcentered" unicode="&#xb7;" horiz-adv-x="150" 
d="M75 232q-20 0 -33 13t-13 33t13 33t33 13t33 -13t13 -33t-13 -33t-33 -13z" />
    <glyph glyph-name="cedilla" unicode="&#xb8;" horiz-adv-x="446" 
d="M237 0l-29 -52q36 -3 65 -20t29 -48q0 -32 -33 -51t-106 -18l-1 3q49 3 72 20t23 36q0 20 -22 29q-24 10 -48 11l-2 3l48 87h4z" />
    <glyph glyph-name="onesuperior" unicode="&#xb9;" horiz-adv-x="262" 
d="M78 465l-1 2q10 1 17 5q6 3 9 15q4 15 5 34q1 15 1 62v121v40q0 14 -3 22t-9 9q-8 2 -18 2v3l86 61v-258q0 -46 1 -61q2 -25 4 -34q3 -12 9 -15q7 -4 17 -5v-3h-118z" />
    <glyph glyph-name="ordmasculine" unicode="&#xba;" horiz-adv-x="337" 
d="M168 386v-1q-25 0 -52 12t-49 34t-37 57q-15 34 -15 80t15 81q16 36 37 59q23 24 49 36q27 12 52 12t52 -12q26 -12 49 -36q21 -23 37 -59q15 -35 15 -81q0 -44 -15 -79t-37 -57t-49 -34t-52 -12zM168 389h-2q17 0 32 9t27 30q13 23 20 55q8 37 8 84q0 53 -7 87
q-8 37 -19 57q-12 21 -27 30t-32 9t-32 -9t-27 -30q-11 -20 -19 -57q-7 -34 -7 -87q0 -52 7 -84q8 -35 19 -55q12 -21 27 -30t32 -9z" />
    <glyph glyph-name="guillemotright" unicode="&#xbb;" horiz-adv-x="296" 
d="M32 69l71 161l-70 161l3 2l120 -161v-4l-121 -161zM137 69l71 161l-70 161l3 2l120 -161v-4l-121 -161z" />
    <glyph glyph-name="onequarter" unicode="&#xbc;" horiz-adv-x="453" 
d="M291 -3h-1q0 -31 1 -41q2 -17 4 -23q3 -9 7 -11q6 -4 12 -5v-3h-101v3q6 1 12 5q5 3 8 11q2 6 4 23q1 10 1 41h-137v3l176 287h14v-251h57l-19 -39h-38zM237 36v180l6 11l-117 -191h111zM58 377h335v-4h-335v4zM167 465l-1 2q10 1 17 5q6 3 9 15q4 15 5 34q1 15 1 62v121
v40q0 14 -3 22t-9 9q-8 2 -18 2v3l86 61v-258q0 -46 1 -61q2 -25 4 -34q3 -12 9 -15q7 -4 17 -5v-3h-118z" />
    <glyph glyph-name="onehalf" unicode="&#xbd;" horiz-adv-x="453" 
d="M59 377h335v-4h-335v4zM168 465l-1 2q10 1 17 5q6 3 9 15q4 15 5 34q1 15 1 62v121v40q0 14 -3 22t-9 9q-8 2 -18 2v3l86 61v-258q0 -46 1 -61q2 -25 4 -34q3 -12 9 -15q7 -4 17 -5v-3h-118zM245 -43l3 -1h45q17 0 26 3t12 8t6 12h3l-13 -51q-1 -3 -2.5 -6l-2.5 -5t-1 -3
q-1 -3 -8 -3h-197l75 93q37 52 57 98q19 44 19 95q0 39 -10 62q-11 24 -39 24q-14 0 -21 -6t-12 -14q-5 -7 -6 -15t-3 -12q-1 -9 -8 -16q-6 -6 -17 -6t-17 7t-6 16q0 17 23 35t66 18q41 0 73 -21q31 -21 31 -70q0 -25 -9 -48q-10 -24 -25 -45q-17 -22 -39 -48q-5 -6 -49 -57
l-45 -44h91z" />
    <glyph glyph-name="threequarters" unicode="&#xbe;" horiz-adv-x="453" 
d="M291 -3h-1q0 -31 1 -41q2 -17 4 -23q3 -9 7 -11q6 -4 12 -5v-3h-101v3q6 1 12 5q5 3 8 11q2 6 4 23q1 10 1 41h-137v3l176 287h14v-251h57l-19 -39h-38zM237 36v180l6 11l-117 -191h111zM58 377h335v-4h-335v4zM139 821l-6 -1q2 7 5 13q2 3 6 3h169v-4l-121 -144
q14 9 33 9q42 0 72 -27t30 -82q0 -26 -9 -48q-8 -21 -26 -40q-16 -17 -39 -28q-21 -10 -51 -10q-40 0 -63 17t-23 35q0 8 6 14t17 6t15 -6q5 -6 6 -16q2 -6 3 -15q1 -8 6 -16q5 -7 12 -12q8 -5 21 -5q18 0 32 9t23 26q8 15 13 39q4 20 4 48q0 51 -10 78q-11 29 -36 29
q-19 0 -31 -9q-11 -8 -22 -21l-2 3l105 123h-63h-45q-13 0 -25 -2q-9 -1 -12 -6t-6 -12h-3z" />
    <glyph glyph-name="questiondown" unicode="&#xbf;" horiz-adv-x="337" 
d="M215 272v-3q-2 -78 -19 -132q-18 -55 -39 -102q-19 -43 -39 -92q-18 -45 -18 -100q0 -42 7 -66q8 -27 19 -41q12 -15 29 -21t38 -6t34 10q13 11 21 30q7 18 8 19q2 6 8 16q5 8 11 11t17 3q14 -2 21 -12t6 -24q-1 -22 -31 -40t-96 -18q-33 0 -63 9t-54 27t-38 47
q-14 30 -14 69q0 35 13 64q14 30 33 60q20 31 43 61q24 31 45 66t36 75t18 90h4zM202 469q20 0 33 -13t13 -33t-13 -33t-33 -13t-33 13t-13 33t13 33t33 13z" />
    <glyph glyph-name="Agrave" unicode="&#xc0;" horiz-adv-x="515" 
d="M-1 2l-5 -2q9 4 18 11q7 6 15 20q7 13 15 36q9 26 18 58l151 547l-3 11q-5 20 -10 31t-12 19q-5 7 -12 10q-7 4 -14 5v2h102q9 0 11 -8l180 -615q3 -10 8 -26.5t6 -21.5q6 -21 12 -36q5 -12 14 -25q7 -10 21 -16v-2h-135v2q17 5 20 21q3 17 -9 57l-45 151h-249l-30 -107
q-14 -54 -14 -81q0 -29 30 -41v-2h-83v2zM339 234l-128 427l-118 -427h246zM165 814l1 -1q-18 4 -28 14q-9 9 -9 22q0 9 6 17t18 8q11 0 18 -4q1 -1 7 -4.5t10 -5.5l131 -86l-1 -2z" />
    <glyph glyph-name="Aacute" unicode="&#xc1;" horiz-adv-x="515" 
d="M-1 2l-5 -2q9 4 18 11q7 6 15 20q7 13 15 36q9 26 18 58l151 547l-3 11q-5 20 -10 31t-12 19q-5 7 -12 10q-7 4 -14 5v2h102q9 0 11 -8l180 -615q3 -10 8 -26.5t6 -21.5q6 -21 12 -36q5 -12 14 -25q7 -10 21 -16v-2h-135v2q17 5 20 21q3 17 -9 57l-45 151h-249l-30 -107
q-14 -54 -14 -81q0 -29 30 -41v-2h-83v2zM339 234l-128 427l-118 -427h246zM151 774l132 85q4 2 10 5.5t7 4.5q7 4 18 4q12 0 18 -7t6 -16q0 -13 -9 -22q-10 -10 -28 -14l-153 -42z" />
    <glyph glyph-name="Acircumflex" unicode="&#xc2;" horiz-adv-x="515" 
d="M-1 2l-5 -2q9 4 18 11q7 6 15 20q7 13 15 36q9 26 18 58l151 547l-3 11q-5 20 -10 31t-12 19q-5 7 -12 10q-7 4 -14 5v2h102q9 0 11 -8l180 -615q3 -10 8 -26.5t6 -21.5q6 -21 12 -36q5 -12 14 -25q7 -10 21 -16v-2h-135v2q17 5 20 21q3 17 -9 57l-45 151h-249l-30 -107
q-14 -54 -14 -81q0 -29 30 -41v-2h-83v2zM339 234l-128 427l-118 -427h246zM232 878l117 -106l-3 -1l-114 50l-114 -50l-3 1z" />
    <glyph glyph-name="Atilde" unicode="&#xc3;" horiz-adv-x="515" 
d="M-1 2l-5 -2q9 4 18 11q7 6 15 20q7 13 15 36q9 26 18 58l151 547l-3 11q-5 20 -10 31t-12 19q-5 7 -12 10q-7 4 -14 5v2h102q9 0 11 -8l180 -615q3 -10 8 -26.5t6 -21.5q6 -21 12 -36q5 -12 14 -25q7 -10 21 -16v-2h-135v2q17 5 20 21q3 17 -9 57l-45 151h-249l-30 -107
q-14 -54 -14 -81q0 -29 30 -41v-2h-83v2zM339 234l-128 427l-118 -427h246zM198 851h-2q12 0 21 -1q18 -2 27 -4t27 -4q9 -1 21 -1q7 0 18 8q10 7 27 33l3 -1q-14 -48 -28 -66q-15 -19 -28 -19q-4 0 -22 2t-27 4q-8 2 -26 4q-16 2 -20 2q-10 0 -21 -7t-31 -36l-3 1
q13 42 32 64q18 21 32 21z" />
    <glyph glyph-name="Adieresis" unicode="&#xc4;" horiz-adv-x="515" 
d="M-1 2l-5 -2q9 4 18 11q7 6 15 20q7 13 15 36q9 26 18 58l151 547l-3 11q-5 20 -10 31t-12 19q-5 7 -12 10q-7 4 -14 5v2h102q9 0 11 -8l180 -615q3 -10 8 -26.5t6 -21.5q6 -21 12 -36q5 -12 14 -25q7 -10 21 -16v-2h-135v2q17 5 20 21q3 17 -9 57l-45 151h-249l-30 -107
q-14 -54 -14 -81q0 -29 30 -41v-2h-83v2zM339 234l-128 427l-118 -427h246zM316 777q-17 0 -29 12t-12 30q0 17 12 29t29 12t29 -12t12 -29q0 -18 -12 -30t-29 -12zM148 777q-17 0 -29 12t-12 30q0 17 12 29t29 12t29 -12t12 -29q0 -18 -12 -30t-29 -12z" />
    <glyph glyph-name="Aring" unicode="&#xc5;" horiz-adv-x="515" 
d="M-1 2l-5 -2q9 4 18 11q7 6 15 20q7 13 15 36q9 26 18 58l151 547l-3 11q-5 20 -10 31t-12 19q-5 7 -12 10q-7 4 -14 5v2h102q9 0 11 -8l180 -615q3 -10 8 -26.5t6 -21.5q6 -21 12 -36q5 -12 14 -25q7 -10 21 -16v-2h-135v2q17 5 20 21q3 17 -9 57l-45 151h-249l-30 -107
q-14 -54 -14 -81q0 -29 30 -41v-2h-83v2zM339 234l-128 427l-118 -427h246zM158 843q0 30 23 51t51 21q30 0 52 -21t22 -51q0 -32 -22 -51q-23 -20 -52 -20t-52 20q-22 19 -22 51zM191 843l-1 -1q0 -28 11 -48q10 -19 30 -19q19 0 30 20t11 48t-10 48q-10 21 -30 21t-30 -21
q-11 -22 -11 -48z" />
    <glyph glyph-name="AE" unicode="&#xc6;" horiz-adv-x="725" 
d="M567 337l-3 -1l-6 24q-3 12 -11 23q-7 10 -23 18q-14 7 -42 7h-64v-405h150q30 0 54 3q23 3 42 14q18 10 30 32q11 19 19 56h5l-11 -100q-2 -8 -4 -9t-6 -1h-400v3q16 4 25 12q8 7 13 29q5 21 6 63q1 28 1 116v10h-214l-48 -107q-21 -47 -28 -80q-6 -30 24 -42v-2h-83v2
q9 4 18 12t18 21q10 15 20 35q9 18 24 53l248 556q16 37 9 49q-8 13 -37 17v3h374q4 0 8 -2t5 -12l15 -83h-5q-14 55 -48 75q-35 20 -90 20h-131v-333h64q27 0 42 6t23 17q8 12 11 24q2 9 6 25h3v-148h-3zM338 235v478l-213 -478h213z" />
    <glyph glyph-name="Ccedilla" unicode="&#xc7;" horiz-adv-x="501" 
d="M305 -5h-5q-54 0 -106 23q-50 22 -88 69t-60 120q-22 72 -22 175t25 174q26 73 64 117q40 46 87 65q49 20 95 20q32 0 53 -6q23 -7 36 -13q3 -2 9 -4.5t10 -4.5t7 -4q10 -6 24 -6q22 0 29 28h5v-146h-5q-7 44 -24 72t-39 45q-23 17 -49 24q-29 8 -55 8q-40 0 -75 -20
t-59 -63q-25 -45 -38 -112q-14 -72 -14 -166q0 -106 17 -182q17 -74 45 -119q29 -45 65 -65q37 -20 77 -20q31 0 60 8t47 19q19 12 35 26q17 15 26 27l3 -3q-10 -13 -26 -29t-37 -27q-22 -12 -51 -21t-66 -9zM279 0l-29 -52q36 -3 65 -20t29 -48q0 -32 -33 -51t-106 -18
l-1 3q49 3 72 20t23 36q0 20 -22 29q-24 10 -48 11l-2 3l48 87h4z" />
    <glyph glyph-name="Egrave" unicode="&#xc8;" horiz-adv-x="455" 
d="M12 3l-3 -3q16 4 25 12q8 7 13 29q5 21 6 63q1 28 1 116v306q0 88 -1 116q-1 42 -6 63q-5 22 -13 29q-9 8 -25 12v3h385q4 0 8 -2t5 -12l15 -83h-5q-13 56 -48 75q-35 20 -90 20h-146v-333h78q27 0 42 6t23 17q8 12 11 24q2 9 6 25h4v-148h-4l-6 24q-3 12 -11 23
q-7 10 -23 18q-14 7 -42 7h-78v-405h165q30 0 54 3q23 3 42 14q18 10 30 32q11 19 19 56h5l-11 -100q-2 -8 -4 -9t-6 -1h-415v3zM173 813l1 -1q-18 4 -28 14q-9 9 -9 22q0 10 6 17q6 8 18 8q11 0 18 -4q1 -1 7 -4.5t10 -5.5l131 -86l-1 -2z" />
    <glyph glyph-name="Eacute" unicode="&#xc9;" horiz-adv-x="455" 
d="M12 3l-3 -3q16 4 25 12q8 7 13 29q5 21 6 63q1 28 1 116v306q0 88 -1 116q-1 42 -6 63q-5 22 -13 29q-9 8 -25 12v3h385q4 0 8 -2t5 -12l15 -83h-5q-13 56 -48 75q-35 20 -90 20h-146v-333h78q27 0 42 6t23 17q8 12 11 24q2 9 6 25h4v-148h-4l-6 24q-3 12 -11 23
q-7 10 -23 18q-14 7 -42 7h-78v-405h165q30 0 54 3q23 3 42 14q18 10 30 32q11 19 19 56h5l-11 -100q-2 -8 -4 -9t-6 -1h-415v3zM159 773l132 85q4 2 10 5.5t7 4.5q7 4 18 4q12 0 18 -7t6 -16q0 -13 -9 -22q-10 -10 -28 -14l-153 -42z" />
    <glyph glyph-name="Ecircumflex" unicode="&#xca;" horiz-adv-x="455" 
d="M12 3l-3 -3q16 4 25 12q8 7 13 29q5 21 6 63q1 28 1 116v306q0 88 -1 116q-1 42 -6 63q-5 22 -13 29q-9 8 -25 12v3h385q4 0 8 -2t5 -12l15 -83h-5q-13 56 -48 75q-35 20 -90 20h-146v-333h78q27 0 42 6t23 17q8 12 11 24q2 9 6 25h4v-148h-4l-6 24q-3 12 -11 23
q-7 10 -23 18q-14 7 -42 7h-78v-405h165q30 0 54 3q23 3 42 14q18 10 30 32q11 19 19 56h5l-11 -100q-2 -8 -4 -9t-6 -1h-415v3zM240 877l117 -106l-3 -1l-114 50l-114 -50l-3 1z" />
    <glyph glyph-name="Edieresis" unicode="&#xcb;" horiz-adv-x="455" 
d="M12 3l-3 -3q16 4 25 12q8 7 13 29q5 21 6 63q1 28 1 116v306q0 88 -1 116q-1 42 -6 63q-5 22 -13 29q-9 8 -25 12v3h385q4 0 8 -2t5 -12l15 -83h-5q-13 56 -48 75q-35 20 -90 20h-146v-333h78q27 0 42 6t23 17q8 12 11 24q2 9 6 25h4v-148h-4l-6 24q-3 12 -11 23
q-7 10 -23 18q-14 7 -42 7h-78v-405h165q30 0 54 3q23 3 42 14q18 10 30 32q11 19 19 56h5l-11 -100q-2 -8 -4 -9t-6 -1h-415v3zM323 776q-17 0 -29 12t-12 30q0 17 12 29t29 12t29 -12t12 -29q0 -18 -12 -30t-29 -12zM155 776q-17 0 -29 12t-12 30q0 17 12 29t29 12t29 -12
t12 -29q0 -18 -12 -30t-29 -12z" />
    <glyph glyph-name="Igrave" unicode="&#xcc;" horiz-adv-x="191" 
d="M12 3l-1 -2q16 4 25 12q8 7 13 29q5 21 6 63q1 28 1 116v306q0 88 -1 116q-1 42 -6 63q-5 22 -13 29q-9 8 -25 12v3h167v-3q-15 -5 -24 -12t-13 -28q-5 -21 -6 -63q-1 -28 -1 -116v-306q0 -88 1 -116q1 -42 6 -63q4 -20 14 -28q9 -7 24 -12v-3h-167v3zM28 814l1 -1
q-18 4 -28 14q-9 9 -9 22q0 9 6 17t18 8q11 0 18 -4q1 -1 7 -4.5t10 -5.5l131 -86l-1 -2z" />
    <glyph glyph-name="Iacute" unicode="&#xcd;" horiz-adv-x="191" 
d="M12 3l-1 -2q16 4 25 12q8 7 13 29q5 21 6 63q1 28 1 116v306q0 88 -1 116q-1 42 -6 63q-5 22 -13 29q-9 8 -25 12v3h167v-3q-15 -5 -24 -12t-13 -28q-5 -21 -6 -63q-1 -28 -1 -116v-306q0 -88 1 -116q1 -42 6 -63q4 -20 14 -28q9 -7 24 -12v-3h-167v3zM14 774l132 85
q4 2 10 5.5t7 4.5q7 4 18 4q12 0 18 -7q6 -8 6 -16q0 -13 -9 -22q-10 -10 -28 -14l-153 -42z" />
    <glyph glyph-name="Icircumflex" unicode="&#xce;" horiz-adv-x="191" 
d="M12 3l-1 -2q16 4 25 12q8 7 13 29q5 21 6 63q1 28 1 116v306q0 88 -1 116q-1 42 -6 63q-5 22 -13 29q-9 8 -25 12v3h167v-3q-15 -5 -24 -12t-13 -28q-5 -21 -6 -63q-1 -28 -1 -116v-306q0 -88 1 -116q1 -42 6 -63q4 -20 14 -28q9 -7 24 -12v-3h-167v3zM95 878l117 -106
l-3 -1l-114 50l-114 -50l-3 1z" />
    <glyph glyph-name="Idieresis" unicode="&#xcf;" horiz-adv-x="191" 
d="M153 779q-17 0 -29 12t-12 30q0 17 12 29t29 12t29 -12t12 -29q0 -18 -12 -30t-29 -12zM39 779q-17 0 -29 12t-12 30q0 17 12 29t29 12t29 -12t12 -29q0 -18 -12 -30t-29 -12zM12 3l-1 -2q16 4 25 12q8 7 13 29q5 21 6 63q1 28 1 116v306q0 88 -1 116q-1 42 -6 63
q-5 22 -13 29q-9 8 -25 12v3h167v-3q-15 -5 -24 -12t-13 -28q-5 -21 -6 -63q-1 -28 -1 -116v-306q0 -88 1 -116q1 -42 6 -63q4 -20 14 -28q9 -7 24 -12v-3h-167v3z" />
    <glyph glyph-name="Eth" unicode="&#xd0;" horiz-adv-x="556" 
d="M14 3l2 -2q16 4 25 12q8 7 13 29q4 21 6 63q1 28 1 116v168h-64v4h64v134q0 88 -1 116q-2 42 -6 63q-5 22 -13 29q-9 8 -25 12v3h147q179 0 273 -90q95 -90 95 -276q0 -88 -21 -160q-21 -71 -66 -121q-45 -49 -115 -76q-71 -27 -168 -27h-147v3zM139 1l22 -1q72 0 126 21
t90 66t54 119t18 178q0 112 -22 179q-23 70 -60 110q-38 41 -90 56q-53 15 -114 15h-24v-352h127v-4h-127v-387z" />
    <glyph glyph-name="Ntilde" unicode="&#xd1;" horiz-adv-x="518" 
d="M12 3l1 -3q16 4 25 12q8 7 13 29q5 21 6 63q1 28 1 116v306q0 88 -1 116q-1 42 -6 63q-5 22 -13 29q-9 8 -25 12v3h112q11 0 15 -4q6 -6 14 -21l305 -569v372q0 88 -1 116q-2 42 -6 63q-5 22 -13 29q-9 7 -24 12v3h93v-3q-16 -4 -25 -12q-9 -7 -13 -28t-6 -63
q-1 -28 -1 -116v-531h-9l-394 732v-507q0 -88 1 -116q1 -42 6 -63q4 -20 14 -28q9 -7 24 -12v-3h-93v3zM252 850h-2q12 0 21 -1q18 -2 27 -4t27 -4q9 -1 21 -1q7 0 18 8q10 8 27 33l3 -1q-14 -48 -28 -66q-15 -19 -28 -19q-4 0 -22 2t-27 4q-8 2 -26 4q-16 2 -20 2
q-10 0 -21 -7t-31 -36l-3 1q13 42 32 64q18 21 32 21z" />
    <glyph glyph-name="Ograve" unicode="&#xd2;" horiz-adv-x="588" 
d="M294 -6l-4 -1q-50 0 -99 26q-47 25 -85 75t-60 120q-22 69 -22 162q0 90 23 162q23 71 60 119q36 47 86 73q47 25 99 25t99 -25q50 -26 86 -73q37 -48 60 -119q23 -72 23 -162q0 -93 -22 -162q-22 -70 -60 -120t-85 -75t-99 -25zM290 -3l-1 -1q39 0 72 24t57 71
q25 48 38 117q14 73 14 165q0 97 -13 165q-13 69 -38 117q-24 47 -57 69q-34 23 -72 23t-72 -23q-33 -22 -57 -69q-25 -48 -38 -117q-14 -73 -14 -165t14 -165q13 -69 38 -117q24 -46 57 -70t72 -24zM222 814l1 -1q-18 4 -28 14q-9 9 -9 22q0 9 6 17t18 8q11 0 18 -4
q1 -1 7 -4.5t10 -5.5l131 -86l-1 -2z" />
    <glyph glyph-name="Oacute" unicode="&#xd3;" horiz-adv-x="588" 
d="M294 -6l-4 -1q-50 0 -99 26q-47 25 -85 75t-60 120q-22 69 -22 162q0 90 23 162q23 71 60 119q36 47 86 73q47 25 99 25t99 -25q50 -26 86 -73q37 -48 60 -119q23 -72 23 -162q0 -93 -22 -162q-22 -70 -60 -120t-85 -75t-99 -25zM290 -3l-1 -1q39 0 72 24t57 71
q25 48 38 117q14 73 14 165q0 97 -13 165q-13 69 -38 117q-24 47 -57 69q-34 23 -72 23t-72 -23q-33 -22 -57 -69q-25 -48 -38 -117q-14 -73 -14 -165t14 -165q13 -69 38 -117q24 -46 57 -70t72 -24zM208 774l132 85q4 2 10 5.5t7 4.5q7 4 18 4q12 0 18 -7t6 -16
q0 -13 -9 -22q-10 -10 -28 -14l-153 -42z" />
    <glyph glyph-name="Ocircumflex" unicode="&#xd4;" horiz-adv-x="588" 
d="M294 -6l-4 -1q-50 0 -99 26q-47 25 -85 75t-60 120q-22 69 -22 162q0 90 23 162q23 71 60 119q36 47 86 73q47 25 99 25t99 -25q50 -26 86 -73q37 -48 60 -119q23 -72 23 -162q0 -93 -22 -162q-22 -70 -60 -120t-85 -75t-99 -25zM290 -3l-1 -1q39 0 72 24t57 71
q25 48 38 117q14 73 14 165q0 97 -13 165q-13 69 -38 117q-24 47 -57 69q-34 23 -72 23t-72 -23q-33 -22 -57 -69q-25 -48 -38 -117q-14 -73 -14 -165t14 -165q13 -69 38 -117q24 -46 57 -70t72 -24zM289 878l117 -106l-3 -1l-114 50l-114 -50l-3 1z" />
    <glyph glyph-name="Otilde" unicode="&#xd5;" horiz-adv-x="588" 
d="M294 -6l-4 -1q-50 0 -99 26q-47 25 -85 75t-60 120q-22 69 -22 162q0 90 23 162q23 71 60 119q36 47 86 73q47 25 99 25t99 -25q50 -26 86 -73q37 -48 60 -119q23 -72 23 -162q0 -93 -22 -162q-22 -70 -60 -120t-85 -75t-99 -25zM290 -3l-1 -1q39 0 72 24t57 71
q25 48 38 117q14 73 14 165q0 97 -13 165q-13 69 -38 117q-24 47 -57 69q-34 23 -72 23t-72 -23q-33 -22 -57 -69q-25 -48 -38 -117q-14 -73 -14 -165t14 -165q13 -69 38 -117q24 -46 57 -70t72 -24zM255 851h-2q12 0 21 -1q18 -2 27 -4t27 -4q9 -1 21 -1q7 0 18 8
q11 7 27 33l3 -1q-14 -48 -28 -66q-15 -19 -28 -19q-4 0 -22 2t-27 4q-8 2 -26 4q-16 2 -20 2q-10 0 -21 -7t-31 -36l-3 1q13 42 32 64q18 21 32 21z" />
    <glyph glyph-name="Odieresis" unicode="&#xd6;" horiz-adv-x="588" 
d="M294 -6l-4 -1q-50 0 -99 26q-47 25 -85 75t-60 120q-22 69 -22 162q0 90 23 162q23 71 60 119q36 47 86 73q47 25 99 25t99 -25q50 -26 86 -73q37 -48 60 -119q23 -72 23 -162q0 -93 -22 -162q-22 -70 -60 -120t-85 -75t-99 -25zM290 -3l-1 -1q39 0 72 24t57 71
q25 48 38 117q14 73 14 165q0 97 -13 165q-13 69 -38 117q-24 47 -57 69q-34 23 -72 23t-72 -23q-33 -22 -57 -69q-25 -48 -38 -117q-14 -73 -14 -165t14 -165q13 -69 38 -117q24 -46 57 -70t72 -24zM373 777q-17 0 -29 12t-12 30q0 17 12 29t29 12t29 -12t12 -29
q0 -18 -12 -30t-29 -12zM205 777q-17 0 -29 12t-12 30q0 17 12 29t29 12t29 -12t12 -29q0 -18 -12 -30t-29 -12z" />
    <glyph glyph-name="multiply" unicode="&#xd7;" horiz-adv-x="337" 
d="M165 353l-130 133l5 5l130 -133l128 131l5 -5l-128 -131l128 -131l-5 -6l-128 131l-127 -130l-6 5z" />
    <glyph glyph-name="Oslash" unicode="&#xd8;" horiz-adv-x="589" 
d="M294 -6l-3 1q-71 0 -132 46l-31 -81l-4 2l32 82q-58 45 -96 129q-37 83 -37 204q0 90 23 162q23 71 60 119q36 47 86 73q47 25 99 25q67 0 126 -41l28 71l4 -2l-28 -72q29 -22 55 -54t44 -74q19 -45 29 -94q11 -55 11 -114q0 -93 -22 -162q-22 -70 -60 -120t-85 -75
t-99 -25zM108 377l-3 -4q0 -105 16 -178q16 -74 45 -121l236 610q-23 34 -51 50q-29 17 -62 17q-38 0 -72 -23q-33 -22 -57 -69q-25 -48 -38 -117q-14 -73 -14 -165zM288 -5h1q39 0 72 24t57 71q25 48 38 117q14 73 14 165q2 110 -16 184q-18 78 -49 123l-236 -611
q48 -73 119 -73z" />
    <glyph glyph-name="Ugrave" unicode="&#xd9;" horiz-adv-x="527" 
d="M292 -7v-3q-114 0 -178 53q-63 53 -63 167v316q0 88 -1 116q-2 42 -6 63q-5 22 -13 29q-9 8 -25 12v3h167v-3q-15 -4 -24 -12q-9 -7 -13 -28t-6 -63q-1 -28 -1 -116v-324q0 -44 8 -84q7 -37 27 -64t51 -42t81 -15q38 0 69 12t54 38t36 66q13 39 13 98v314q0 88 -1 116
q-1 42 -6 63q-5 22 -13 29q-9 8 -24 12v3h94v-3q-16 -4 -25 -12q-9 -7 -13 -28t-6 -63q-1 -28 -1 -116v-314q0 -60 -13 -100q-13 -41 -38 -69q-24 -27 -57 -39t-73 -12zM232 813l1 -1q-18 4 -28 14q-9 9 -9 22q0 10 6 17q6 8 18 8q11 0 18 -4q1 -1 7 -4.5t10 -5.5l131 -86
l-1 -2z" />
    <glyph glyph-name="Uacute" unicode="&#xda;" horiz-adv-x="527" 
d="M292 -7v-3q-114 0 -178 53q-63 53 -63 167v316q0 88 -1 116q-2 42 -6 63q-5 22 -13 29q-9 8 -25 12v3h167v-3q-15 -4 -24 -12q-9 -7 -13 -28t-6 -63q-1 -28 -1 -116v-324q0 -44 8 -84q7 -37 27 -64t51 -42t81 -15q38 0 69 12t54 38t36 66q13 39 13 98v314q0 88 -1 116
q-1 42 -6 63q-5 22 -13 29q-9 8 -24 12v3h94v-3q-16 -4 -25 -12q-9 -7 -13 -28t-6 -63q-1 -28 -1 -116v-314q0 -60 -13 -100q-13 -41 -38 -69q-24 -27 -57 -39t-73 -12zM218 773l132 85q4 2 10 5.5t7 4.5q7 4 18 4q12 0 18 -7t6 -16q0 -13 -9 -22q-10 -10 -28 -14l-153 -42z
" />
    <glyph glyph-name="Ucircumflex" unicode="&#xdb;" horiz-adv-x="527" 
d="M292 -7v-3q-114 0 -178 53q-63 53 -63 167v316q0 88 -1 116q-2 42 -6 63q-5 22 -13 29q-9 8 -25 12v3h167v-3q-15 -4 -24 -12q-9 -7 -13 -28t-6 -63q-1 -28 -1 -116v-324q0 -44 8 -84q7 -37 27 -64t51 -42t81 -15q38 0 69 12t54 38t36 66q13 39 13 98v314q0 88 -1 116
q-1 42 -6 63q-5 22 -13 29q-9 8 -24 12v3h94v-3q-16 -4 -25 -12q-9 -7 -13 -28t-6 -63q-1 -28 -1 -116v-314q0 -60 -13 -100q-13 -41 -38 -69q-24 -27 -57 -39t-73 -12zM299 877l117 -106l-3 -1l-114 50l-114 -50l-3 1z" />
    <glyph glyph-name="Udieresis" unicode="&#xdc;" horiz-adv-x="527" 
d="M292 -7v-3q-114 0 -178 53q-63 53 -63 167v316q0 88 -1 116q-2 42 -6 63q-5 22 -13 29q-9 8 -25 12v3h167v-3q-15 -4 -24 -12q-9 -7 -13 -28t-6 -63q-1 -28 -1 -116v-324q0 -44 8 -84q7 -37 27 -64t51 -42t81 -15q38 0 69 12t54 38t36 66q13 39 13 98v314q0 88 -1 116
q-1 42 -6 63q-5 22 -13 29q-9 8 -24 12v3h94v-3q-16 -4 -25 -12q-9 -7 -13 -28t-6 -63q-1 -28 -1 -116v-314q0 -60 -13 -100q-13 -41 -38 -69q-24 -27 -57 -39t-73 -12zM383 776q-17 0 -29 12t-12 30q0 17 12 29t29 12t29 -12t12 -29q0 -18 -12 -30t-29 -12zM215 776
q-17 0 -29 12t-12 30q0 17 12 29t29 12t29 -12t12 -29q0 -18 -12 -30t-29 -12z" />
    <glyph glyph-name="Yacute" unicode="&#xdd;" horiz-adv-x="488" 
d="M166 3l-5 -4q16 4 25 12q8 7 13 29q5 21 6 63q1 28 1 116v161l-127 243l-25 50q-13 26 -19 35q-10 15 -18 23q-9 9 -22 15v2h151v-2q-21 -4 -21 -21q0 -16 20 -56l138 -273l110 227q4 8 22 47q8 18 10 35q1 14 -5 25q-6 10 -24 18v2h91v-2q-7 -3 -19 -11q-8 -6 -18 -20
q-9 -13 -21 -36q-17 -32 -29 -57l-112 -230v-172q0 -88 1 -116q1 -42 6 -63q4 -20 14 -28q9 -7 24 -12v-3h-167v3zM193 772l132 85q4 2 10 5.5t7 4.5q7 4 18 4q12 0 18 -7q6 -8 6 -16q0 -13 -9 -22q-10 -10 -28 -14l-153 -42z" />
    <glyph glyph-name="Thorn" unicode="&#xde;" horiz-adv-x="467" 
d="M12 3l-1 -1q16 4 25 12q8 7 13 29q5 21 6 63q1 28 1 116v306q0 88 -1 116q-1 42 -6 63q-5 22 -13 29q-9 8 -25 12v3h167v-3q-13 -3 -22 -9q-8 -6 -13 -21t-6 -42q-1 -26 -3 -74h80q52 0 95 -9q44 -9 77 -30t51 -57t18 -91t-19 -93q-20 -39 -53 -65q-32 -25 -78 -37
q-45 -12 -94 -12h-77q0 -82 1 -108q1 -39 6 -60q4 -21 14 -27q8 -5 24 -10v-3h-167v3zM208 211l-3 -2q27 0 57 6q28 6 55 26q25 19 42 59t17 105q0 67 -16 105q-16 39 -40 58t-53 24q-32 5 -54 5h-79v-386h74z" />
    <glyph glyph-name="germandbls" unicode="&#xdf;" horiz-adv-x="442" 
d="M128 136v-10v-67q0 -25 3 -39q3 -12 11 -19q8 -6 21 -9v-3h-143v3q12 3 18 9t9 19q3 14 3 39v67v320h-41v4q13 2 21 6q8 5 12 13q4 9 6 24q2 20 2 39v24q0 52 15 90t39 60t54 33q31 11 60 11q68 0 110 -30t42 -87q0 -27 -12 -49q-13 -25 -28 -41q-18 -20 -34 -33
q-20 -16 -30 -28q-16 -19 -31 -39q-12 -17 -12 -39q0 -16 8 -30q7 -14 21 -27q8 -8 32 -28q8 -6 39 -31q30 -25 47 -42q20 -20 33 -39q15 -21 20 -40q6 -21 6 -46q0 -32 -10 -55q-11 -25 -28 -42q-18 -18 -42 -27t-49 -9q-23 0 -40 5q-13 4 -25 9q-11 4 -18 9q-8 5 -18 5
q-5 0 -10 -6t-6 -13h-4v123h4q7 -37 18 -61q10 -23 26 -39q15 -15 34 -21t42 -6q21 0 39 8q16 7 27 20q10 12 15 29q5 18 5 33q0 22 -6 40t-18 33q-14 18 -31 32l-45 36q-35 28 -41 33q-15 13 -31 32q-13 16 -19 34t-6 39q0 20 8 39q8 18 18 33q9 13 24 28q18 18 26 27
q19 22 33 56q13 32 13 77q0 59 -22 94q-22 36 -70 36q-49 0 -71 -31q-23 -32 -23 -108v-477z" />
    <glyph glyph-name="agrave" unicode="&#xe0;" horiz-adv-x="368" 
d="M118 -4l-2 -5q-42 0 -71 24t-29 73q0 29 12 47q11 16 32 31q20 14 45 24t51 24l22 10q37 18 50 39q14 22 14 45v63q0 28 -6 46t-15 27t-22 12t-28 3q-31 0 -42 -8q-11 -7 -18 -27q-7 -17 -17 -31q-9 -12 -26 -12q-14 0 -20 8q-6 7 -6 18q0 22 38 39q39 17 95 17
q33 0 56 -4q27 -5 45 -16q20 -12 32 -33t12 -55v-219q0 -33 2 -69q1 -23 5 -40q3 -13 9 -18q7 -5 16 -5q18 0 31 10l1 -2q-5 -5 -18 -11q-14 -6 -40 -6q-45 0 -63 21t-18 48l-7 -7q-28 -30 -54 -46q-26 -15 -66 -15zM92 101l-2 -2q0 -97 56 -97q19 0 39 11q18 10 49 42l7 7
v223q-5 -17 -19 -33q-15 -16 -43 -31l-22 -10q-41 -23 -53 -49q-12 -27 -12 -61zM110 629l-1 -2q-10 10 -16 19t-6 20q0 10 8 20q7 9 20 9q11 0 21 -8t17 -24l80 -137l-2 -2z" />
    <glyph glyph-name="aacute" unicode="&#xe1;" horiz-adv-x="368" 
d="M118 -4l-2 -5q-42 0 -71 24t-29 73q0 29 12 47q11 16 32 31q20 14 45 24t51 24l22 10q37 18 50 39q14 22 14 45v63q0 28 -6 46t-15 27t-22 12t-28 3q-31 0 -42 -8q-11 -7 -18 -27q-7 -17 -17 -31q-9 -12 -26 -12q-14 0 -20 8q-6 7 -6 18q0 22 38 39q39 17 95 17
q33 0 56 -4q27 -5 45 -16q20 -12 32 -33t12 -55v-219q0 -33 2 -69q1 -23 5 -40q3 -13 9 -18q7 -5 16 -5q18 0 31 10l1 -2q-5 -5 -18 -11q-14 -6 -40 -6q-45 0 -63 21t-18 48l-7 -7q-28 -30 -54 -46q-26 -15 -66 -15zM92 101l-2 -2q0 -97 56 -97q19 0 39 11q18 10 49 42l7 7
v223q-5 -17 -19 -33q-15 -16 -43 -31l-22 -10q-41 -23 -53 -49q-12 -27 -12 -61zM138 526l79 137q7 16 17 24t21 8q13 0 20 -9q8 -10 8 -19q0 -10 -6 -19t-16 -19l-121 -105z" />
    <glyph glyph-name="acircumflex" unicode="&#xe2;" horiz-adv-x="368" 
d="M118 -4l-2 -5q-42 0 -71 24t-29 73q0 29 12 47q11 16 32 31q20 14 45 24t51 24l22 10q37 18 50 39q14 22 14 45v63q0 28 -6 46t-15 27t-22 12t-28 3q-31 0 -42 -8q-11 -7 -18 -27q-7 -17 -17 -31q-9 -12 -26 -12q-14 0 -20 8q-6 7 -6 18q0 22 38 39q39 17 95 17
q33 0 56 -4q27 -5 45 -16q20 -12 32 -33t12 -55v-219q0 -33 2 -69q1 -23 5 -40q3 -13 9 -18q7 -5 16 -5q18 0 31 10l1 -2q-5 -5 -18 -11q-14 -6 -40 -6q-45 0 -63 21t-18 48l-7 -7q-28 -30 -54 -46q-26 -15 -66 -15zM92 101l-2 -2q0 -97 56 -97q19 0 39 11q18 10 49 42l7 7
v223q-5 -17 -19 -33q-15 -16 -43 -31l-22 -10q-41 -23 -53 -49q-12 -27 -12 -61zM178 699l101 -174l-3 -1l-98 100l-98 -100l-3 1z" />
    <glyph glyph-name="atilde" unicode="&#xe3;" horiz-adv-x="368" 
d="M118 -4l-2 -5q-42 0 -71 24t-29 73q0 29 12 47q11 16 32 31q20 14 45 24t51 24l22 10q37 18 50 39q14 22 14 45v63q0 28 -6 46t-15 27t-22 12t-28 3q-31 0 -42 -8q-11 -7 -18 -27q-7 -17 -17 -31q-9 -12 -26 -12q-14 0 -20 8q-6 7 -6 18q0 22 38 39q39 17 95 17
q33 0 56 -4q27 -5 45 -16q20 -12 32 -33t12 -55v-219q0 -33 2 -69q1 -23 5 -40q3 -13 9 -18q7 -5 16 -5q18 0 31 10l1 -2q-5 -5 -18 -11q-14 -6 -40 -6q-45 0 -63 21t-18 48l-7 -7q-28 -30 -54 -46q-26 -15 -66 -15zM92 101l-2 -2q0 -97 56 -97q19 0 39 11q18 10 49 42l7 7
v223q-5 -17 -19 -33q-15 -16 -43 -31l-22 -10q-41 -23 -53 -49q-12 -27 -12 -61zM142 620l2 -3q12 0 21 -1l27 -3l27 -3q9 -1 21 -1q7 0 18 8t26 33l3 -1q-10 -44 -27 -64q-16 -19 -27 -19q-5 0 -23 2l-28 3l-27 3q-18 2 -21 2q-10 0 -21 -7q-12 -7 -30 -36l-3 1
q14 42 31 64q18 22 31 22z" />
    <glyph glyph-name="adieresis" unicode="&#xe4;" horiz-adv-x="368" 
d="M118 -4l-2 -5q-42 0 -71 24t-29 73q0 29 12 47q11 16 32 31q20 14 45 24t51 24l22 10q37 18 50 39q14 22 14 45v63q0 28 -6 46t-15 27t-22 12t-28 3q-31 0 -42 -8q-11 -7 -18 -27q-7 -17 -17 -31q-9 -12 -26 -12q-14 0 -20 8q-6 7 -6 18q0 22 38 39q39 17 95 17
q33 0 56 -4q27 -5 45 -16q20 -12 32 -33t12 -55v-219q0 -33 2 -69q1 -23 5 -40q3 -13 9 -18q7 -5 16 -5q18 0 31 10l1 -2q-5 -5 -18 -11q-14 -6 -40 -6q-45 0 -63 21t-18 48l-7 -7q-28 -30 -54 -46q-26 -15 -66 -15zM92 101l-2 -2q0 -97 56 -97q19 0 39 11q18 10 49 42l7 7
v223q-5 -17 -19 -33q-15 -16 -43 -31l-22 -10q-41 -23 -53 -49q-12 -27 -12 -61zM249 544q-17 0 -29 12t-12 30q0 17 12 29t29 12t29 -12t12 -29q0 -18 -12 -30t-29 -12zM107 544q-17 0 -29 12t-12 30q0 17 12 29t29 12t29 -12t12 -29q0 -18 -12 -30t-29 -12z" />
    <glyph glyph-name="aring" unicode="&#xe5;" horiz-adv-x="368" 
d="M118 -4l-2 -5q-42 0 -71 24t-29 73q0 29 12 47q11 16 32 31q20 14 45 24t51 24l22 10q37 18 50 39q14 22 14 45v63q0 28 -6 46t-15 27t-22 12t-28 3q-31 0 -42 -8q-11 -7 -18 -27q-7 -17 -17 -31q-9 -12 -26 -12q-14 0 -20 8q-6 7 -6 18q0 22 38 39q39 17 95 17
q33 0 56 -4q27 -5 45 -16q20 -12 32 -33t12 -55v-219q0 -33 2 -69q1 -23 5 -40q3 -13 9 -18q7 -5 16 -5q18 0 31 10l1 -2q-5 -5 -18 -11q-14 -6 -40 -6q-45 0 -63 21t-18 48l-7 -7q-28 -30 -54 -46q-26 -15 -66 -15zM92 101l-2 -2q0 -97 56 -97q19 0 39 11q18 10 49 42l7 7
v223q-5 -17 -19 -33q-15 -16 -43 -31l-22 -10q-41 -23 -53 -49q-12 -27 -12 -61zM100 597q0 30 23 51t54 21t54 -21t23 -51q0 -31 -23 -51t-54 -20t-54 20t-23 51zM133 597l-1 -1q0 -28 12 -48q12 -19 34 -19t34 20q12 19 12 48q0 27 -12 48t-34 21q-21 0 -33 -21t-12 -48z
" />
    <glyph glyph-name="ae" unicode="&#xe6;" horiz-adv-x="593" 
d="M118 -4l-7 -9q-43 0 -71 24q-29 24 -29 73q0 29 12 47q11 16 32 31q19 14 45 24t51 24l22 10q37 18 50 39q14 22 14 45v63q0 28 -6 46t-15 27t-22 12q-14 3 -28 3q-31 0 -42 -8q-10 -7 -18 -27q-7 -17 -17 -31q-9 -12 -26 -12q-14 0 -20 8q-6 7 -6 18q0 22 38 39
q39 17 95 17q45 0 83 -11q37 -11 53 -45q28 29 60 44q33 15 62 15q54 0 96 -36q41 -35 55 -108h-256q-1 -16 -3 -36q-1 -13 -1 -42q0 -66 12 -113q12 -48 31 -75q19 -28 47 -42q26 -13 58 -13q34 0 61 12q26 12 45 29l3 -3q-20 -17 -48 -30q-27 -13 -72 -13q-53 0 -102 26
q-48 26 -77 77l-39 -39q-28 -30 -54 -45t-66 -15zM424 456h-1q-14 0 -29 -6t-30 -21t-27 -42t-18 -67h192q-2 37 -9 62q-7 24 -20 42q-12 16 -27 24q-16 8 -31 8zM86 97l-2 -2q0 -97 56 -97q19 0 39 11q19 11 48 42l37 38q-13 25 -21 59q-8 35 -8 74v59q-5 -17 -19 -33
q-15 -16 -43 -31l-22 -10q-41 -23 -53 -49q-12 -27 -12 -61z" />
    <glyph glyph-name="ccedilla" unicode="&#xe7;" horiz-adv-x="357" 
d="M224 -5l-4 -2q-41 0 -77 15q-37 15 -65 45t-45 75q-16 44 -16 103q0 55 18 99q18 43 47 74q27 29 65 46q35 16 71 16q23 0 43 -4q22 -4 40 -12q19 -8 30 -19q12 -12 12 -27q0 -14 -7 -22q-8 -9 -24 -9q-18 0 -25 13q-7 12 -13 36q-4 19 -17 30q-11 10 -36 10
q-24 0 -49 -14q-23 -13 -40 -42t-27 -70q-10 -40 -10 -99q0 -123 39 -180t102 -57q38 0 65 15q28 16 44 37l3 -2q-16 -22 -48 -39q-31 -16 -76 -16zM186 -2l-29 -52q36 -3 65 -20t29 -48q0 -32 -33 -51t-106 -18l-1 3q49 3 72 20t23 36q0 20 -22 29q-24 10 -48 11l-2 3
l48 87h4z" />
    <glyph glyph-name="egrave" unicode="&#xe8;" horiz-adv-x="375" 
d="M235 -6l-2 -9q-43 0 -80 15t-66 45q-28 29 -46 75q-18 45 -18 105q0 59 18 104t45 75t60 45t63 15q53 0 95 -36q43 -37 56 -108h-256q-2 -16 -3 -36q-1 -13 -1 -42q0 -64 11 -113q11 -47 30 -75t47 -42q26 -13 59 -13t60 12q25 11 46 29l3 -3q-20 -17 -49 -30t-72 -13z
M208 456v-1q-14 0 -29 -6t-30 -21t-27 -42t-18 -67h192q-3 71 -30 104t-58 33zM140 626l-1 -2q-10 10 -16 19t-6 20q0 10 8 20q7 9 20 9q11 0 21 -8t17 -24l80 -137l-2 -2z" />
    <glyph glyph-name="eacute" unicode="&#xe9;" horiz-adv-x="375" 
d="M235 -6l-2 -9q-43 0 -80 15t-66 45q-28 29 -46 75q-18 45 -18 105q0 59 18 104t45 75t60 45t63 15q53 0 95 -36q43 -37 56 -108h-256q-2 -16 -3 -36q-1 -13 -1 -42q0 -64 11 -113q11 -47 30 -75t47 -42q26 -13 59 -13t60 12q25 11 46 29l3 -3q-20 -17 -49 -30t-72 -13z
M208 456v-1q-14 0 -29 -6t-30 -21t-27 -42t-18 -67h192q-3 71 -30 104t-58 33zM168 523l79 137q7 16 17 24t21 8q13 0 20 -9q8 -10 8 -19q0 -10 -6 -19t-16 -19l-121 -105z" />
    <glyph glyph-name="ecircumflex" unicode="&#xea;" horiz-adv-x="375" 
d="M235 -6l-2 -9q-43 0 -80 15t-66 45q-28 29 -46 75q-18 45 -18 105q0 59 18 104t45 75t60 45t63 15q53 0 95 -36q43 -37 56 -108h-256q-2 -16 -3 -36q-1 -13 -1 -42q0 -64 11 -113q11 -47 30 -75t47 -42q26 -13 59 -13t60 12q25 11 46 29l3 -3q-20 -17 -49 -30t-72 -13z
M208 456v-1q-14 0 -29 -6t-30 -21t-27 -42t-18 -67h192q-3 71 -30 104t-58 33zM208 696l101 -174l-3 -1l-98 100l-98 -100l-3 1z" />
    <glyph glyph-name="edieresis" unicode="&#xeb;" horiz-adv-x="375" 
d="M235 -6l-2 -9q-43 0 -80 15t-66 45q-28 29 -46 75q-18 45 -18 105q0 59 18 104t45 75t60 45t63 15q53 0 95 -36q43 -37 56 -108h-256q-2 -16 -3 -36q-1 -13 -1 -42q0 -64 11 -113q11 -47 30 -75t47 -42q26 -13 59 -13t60 12q25 11 46 29l3 -3q-20 -17 -49 -30t-72 -13z
M208 456v-1q-14 0 -29 -6t-30 -21t-27 -42t-18 -67h192q-3 71 -30 104t-58 33zM279 541q-17 0 -29 12t-12 30q0 17 12 29t29 12t29 -12t12 -29q0 -18 -12 -30t-29 -12zM137 541q-17 0 -29 12t-12 30q0 17 12 29t29 12t29 -12t12 -29q0 -18 -12 -30t-29 -12z" />
    <glyph glyph-name="igrave" unicode="&#xec;" horiz-adv-x="182" 
d="M19 3l-2 -1q11 3 19 9q8 7 11 19q3 14 3 39v67v154v65q0 23 -3 35q-3 13 -9 14q-8 2 -18 2v3l106 64v-336v-67q0 -24 5 -39q4 -13 12 -19q7 -6 21 -9v-3h-145v3zM21 635l-1 -2q-10 10 -16 19t-6 20q0 10 8 20q8 9 20 9q11 0 21 -8t17 -24l80 -137l-2 -2z" />
    <glyph glyph-name="iacute" unicode="&#xed;" horiz-adv-x="182" 
d="M19 3l-2 -1q11 3 19 9q8 7 11 19q3 14 3 39v67v154v65q0 23 -3 35q-3 13 -9 14q-8 2 -18 2v3l106 64v-336v-67q0 -24 5 -39q4 -13 12 -19q7 -6 21 -9v-3h-145v3zM49 532l79 137q7 16 17 24t21 8q12 0 20 -9q8 -10 8 -19q0 -10 -6 -19t-16 -19l-121 -105z" />
    <glyph glyph-name="icircumflex" unicode="&#xee;" horiz-adv-x="182" 
d="M19 3l-2 -1q11 3 19 9q8 7 11 19q3 14 3 39v67v154v65q0 23 -3 35q-3 13 -9 14q-8 2 -18 2v3l106 64v-336v-67q0 -24 5 -39q4 -13 12 -19q7 -6 21 -9v-3h-145v3zM89 705l101 -174l-3 -1l-98 100l-98 -100l-3 1z" />
    <glyph glyph-name="idieresis" unicode="&#xef;" horiz-adv-x="182" 
d="M146 551q-17 0 -29 12t-12 30q0 17 12 29t29 12t29 -12t12 -29q0 -18 -12 -30t-29 -12zM32 551q-17 0 -29 12t-12 30q0 17 12 29t29 12t29 -12t12 -29q0 -18 -12 -30t-29 -12zM19 3l-2 -1q11 3 19 9q8 7 11 19q3 14 3 39v67v154v65q0 23 -3 35q-3 13 -9 14q-8 2 -18 2v3
l106 64v-336v-67q0 -24 5 -39q4 -13 12 -19q7 -6 21 -9v-3h-145v3z" />
    <glyph glyph-name="eth" unicode="&#xf0;" horiz-adv-x="437" 
d="M412 277l2 2q0 -79 -18 -133q-18 -53 -47 -87q-29 -33 -63 -48t-66 -15t-66 15t-63 44t-47 72t-18 102t18 104q18 44 47 75t63 47q33 16 66 16q22 0 48 -9q27 -9 54 -31q-12 55 -33 101q-20 44 -47 87l-100 -45l-2 3l100 45q-28 44 -63 78t-69 57l3 1q56 -26 96 -55
q45 -32 74 -64l104 47l1 -3l-102 -46q39 -41 62 -82q24 -43 39 -90t21 -94q6 -48 6 -94zM220 -2v-3q22 0 43 12q20 12 37 39q16 27 27 71q10 41 10 108q0 70 -10 113q-11 46 -27 74q-17 30 -37 41q-21 12 -43 12t-43 -12t-37 -40q-17 -29 -27 -73q-10 -43 -10 -112
q0 -67 10 -108q11 -44 27 -71q17 -27 37 -39q21 -12 43 -12z" />
    <glyph glyph-name="ntilde" unicode="&#xf1;" 
d="M19 3l-4 -2q11 3 19 9q8 7 11 19q3 13 3 39v67v154v65q0 22 -3 33t-9 14t-18 3v3l105 64v-96l15 14q22 22 44 39q20 15 36 24t32 12q15 3 29 3q21 0 40 -6q20 -6 33 -19q14 -14 21 -34q8 -22 8 -51v-221v-67q0 -25 3 -39q3 -13 10 -19q8 -6 21 -9v-3h-144v3q13 3 21 9
t12 19q5 15 5 39v67v234q0 47 -14 67q-13 19 -39 19q-8 0 -19 -3q-12 -4 -24 -10t-31 -21q-18 -14 -42 -36l-15 -14v-235v-67q0 -24 5 -39q4 -13 12 -19t21 -9v-3h-144v3zM177 625l2 -3q12 0 21 -1l27 -3l27 -3q9 -1 21 -1q7 0 18 8t26 33l3 -1q-10 -44 -27 -64
q-16 -19 -27 -19q-5 0 -23 2l-28 3l-27 3q-18 2 -21 2q-10 0 -21 -7q-12 -8 -30 -36l-3 1q14 42 31 64q18 22 31 22z" />
    <glyph glyph-name="ograve" unicode="&#xf2;" 
d="M218 -8v-1q-32 0 -66 15t-63 44t-47 72q-18 44 -18 102q0 59 18 104q18 44 47 75t63 47q33 16 66 16t66 -16q35 -17 63 -46q29 -31 47 -75q18 -45 18 -104t-18 -102t-47 -72t-63 -44t-66 -15zM218 -5v-3q22 0 43 12q20 12 37 39q16 27 27 71q10 41 10 108q0 70 -10 113
q-11 46 -27 74q-17 30 -37 41q-21 12 -43 12t-43 -12t-37 -40q-17 -29 -27 -73q-10 -43 -10 -112q0 -67 10 -108q11 -44 27 -71q17 -27 37 -39q21 -12 43 -12zM150 632l-1 -2q-10 10 -16 19t-6 20q0 10 8 20q7 9 20 9q11 0 21 -8t17 -24l80 -137l-2 -2z" />
    <glyph glyph-name="oacute" unicode="&#xf3;" 
d="M218 -8v-1q-32 0 -66 15t-63 44t-47 72q-18 44 -18 102q0 59 18 104q18 44 47 75t63 47q33 16 66 16t66 -16q35 -17 63 -46q29 -31 47 -75q18 -45 18 -104t-18 -102t-47 -72t-63 -44t-66 -15zM218 -5v-3q22 0 43 12q20 12 37 39q16 27 27 71q10 41 10 108q0 70 -10 113
q-11 46 -27 74q-17 30 -37 41q-21 12 -43 12t-43 -12t-37 -40q-17 -29 -27 -73q-10 -43 -10 -112q0 -67 10 -108q11 -44 27 -71q17 -27 37 -39q21 -12 43 -12zM178 529l79 137q7 16 17 24t21 8q13 0 20 -9q8 -10 8 -19q0 -10 -6 -19t-16 -19l-121 -105z" />
    <glyph glyph-name="ocircumflex" unicode="&#xf4;" 
d="M218 -8v-1q-32 0 -66 15t-63 44t-47 72q-18 44 -18 102q0 59 18 104q18 44 47 75t63 47q33 16 66 16t66 -16q35 -17 63 -46q29 -31 47 -75q18 -45 18 -104t-18 -102t-47 -72t-63 -44t-66 -15zM218 -5v-3q22 0 43 12q20 12 37 39q16 27 27 71q10 41 10 108q0 70 -10 113
q-11 46 -27 74q-17 30 -37 41q-21 12 -43 12t-43 -12t-37 -40q-17 -29 -27 -73q-10 -43 -10 -112q0 -67 10 -108q11 -44 27 -71q17 -27 37 -39q21 -12 43 -12zM218 702l101 -174l-3 -1l-98 100l-98 -100l-3 1z" />
    <glyph glyph-name="otilde" unicode="&#xf5;" 
d="M218 -8v-1q-32 0 -66 15t-63 44t-47 72q-18 44 -18 102q0 59 18 104q18 44 47 75t63 47q33 16 66 16t66 -16q35 -17 63 -46q29 -31 47 -75q18 -45 18 -104t-18 -102t-47 -72t-63 -44t-66 -15zM218 -5v-3q22 0 43 12q20 12 37 39q16 27 27 71q10 41 10 108q0 70 -10 113
q-11 46 -27 74q-17 30 -37 41q-21 12 -43 12t-43 -12t-37 -40q-17 -29 -27 -73q-10 -43 -10 -112q0 -67 10 -108q11 -44 27 -71q17 -27 37 -39q21 -12 43 -12zM182 623l2 -3q12 0 21 -1l27 -3l27 -3q9 -1 21 -1q7 0 18 8t26 33l3 -1q-10 -44 -27 -64q-16 -19 -27 -19
q-5 0 -23 2l-28 3l-27 3q-18 2 -21 2q-10 0 -21 -7q-12 -8 -30 -36l-3 1q14 42 31 64q18 22 31 22z" />
    <glyph glyph-name="odieresis" unicode="&#xf6;" 
d="M218 -8v-1q-32 0 -66 15t-63 44t-47 72q-18 44 -18 102q0 59 18 104q18 44 47 75t63 47q33 16 66 16t66 -16q35 -17 63 -46q29 -31 47 -75q18 -45 18 -104t-18 -102t-47 -72t-63 -44t-66 -15zM218 -5v-3q22 0 43 12q20 12 37 39q16 27 27 71q10 41 10 108q0 70 -10 113
q-11 46 -27 74q-17 30 -37 41q-21 12 -43 12t-43 -12t-37 -40q-17 -29 -27 -73q-10 -43 -10 -112q0 -67 10 -108q11 -44 27 -71q17 -27 37 -39q21 -12 43 -12zM289 547q-17 0 -29 12t-12 30q0 17 12 29t29 12t29 -12t12 -29q0 -18 -12 -30t-29 -12zM147 547q-17 0 -29 12
t-12 30q0 17 12 29t29 12t29 -12t12 -29q0 -18 -12 -30t-29 -12z" />
    <glyph glyph-name="divide" unicode="&#xf7;" horiz-adv-x="397" 
d="M155 488q0 18 13 30q14 12 31 12t31 -12q13 -12 13 -30t-13 -30q-14 -12 -31 -12t-31 12q-13 12 -13 30zM36 355h325v-8h-325v8zM155 211q0 18 13 30q14 12 31 12t31 -12q13 -12 13 -30t-13 -30q-14 -12 -31 -12t-31 12q-13 12 -13 30z" />
    <glyph glyph-name="oslash" unicode="&#xf8;" 
d="M218 -4v-6q22 0 43 12q20 12 37 39q16 27 27 71q10 41 10 108q0 70 -10 114q-11 46 -27 75l11 26q-2 2 -3 2l22 54l4 -1l-22 -55q42 -28 73 -82q31 -53 31 -132q0 -59 -18 -102t-47 -72t-63 -44t-66 -15q-40 0 -84 23l9 22l-2 4l152 377q-17 26 -36 36q-20 11 -40 11
q-22 0 -43 -12t-37 -40q-17 -29 -27 -73q-10 -43 -10 -112q0 -66 11 -113q10 -44 29 -72l-10 -24q1 0 3 -2l-24 -60l-4 1l25 61q-22 13 -42 33q-19 19 -34 46t-24 60t-9 72q0 59 18 104q18 44 47 75t63 47q33 16 66 16q44 0 86 -27l-10 -24l3 -4l-153 -377q16 -22 36 -31
q19 -9 39 -9z" />
    <glyph glyph-name="ugrave" unicode="&#xf9;" horiz-adv-x="433" 
d="M157 -7l-6 -3q-47 0 -78 26q-30 26 -30 87v173v72q0 26 -3 38t-9 15t-18 3v3l106 64v-393q0 -44 15 -60t41 -16q4 0 18 2q11 2 24 9q17 9 32 22q22 19 44 39l10 10v194v72q0 26 -3 38t-9 15t-18 3v3l106 64v-336v-67q0 -24 5 -39q4 -13 12 -19q7 -6 23 -9v-3h-114v79
l-10 -10q-25 -24 -45 -39q-21 -16 -36 -23q-19 -8 -30 -11q-14 -3 -27 -3zM145 633l-1 -2q-10 10 -16 19t-6 20q0 10 8 20q8 9 20 9q11 0 21 -8t17 -24l80 -137l-2 -2z" />
    <glyph glyph-name="uacute" unicode="&#xfa;" horiz-adv-x="433" 
d="M157 -7l-6 -3q-47 0 -78 26q-30 26 -30 87v173v72q0 26 -3 38t-9 15t-18 3v3l106 64v-393q0 -44 15 -60t41 -16q4 0 18 2q11 2 24 9q17 9 32 22q22 19 44 39l10 10v194v72q0 26 -3 38t-9 15t-18 3v3l106 64v-336v-67q0 -24 5 -39q4 -13 12 -19q7 -6 23 -9v-3h-114v79
l-10 -10q-25 -24 -45 -39q-21 -16 -36 -23q-19 -8 -30 -11q-14 -3 -27 -3zM173 530l79 137q7 16 17 24t21 8q12 0 20 -9q8 -10 8 -19q0 -10 -6 -19t-16 -19l-121 -105z" />
    <glyph glyph-name="ucircumflex" unicode="&#xfb;" horiz-adv-x="433" 
d="M157 -7l-6 -3q-47 0 -78 26q-30 26 -30 87v173v72q0 26 -3 38t-9 15t-18 3v3l106 64v-393q0 -44 15 -60t41 -16q4 0 18 2q11 2 24 9q17 9 32 22q22 19 44 39l10 10v194v72q0 26 -3 38t-9 15t-18 3v3l106 64v-336v-67q0 -24 5 -39q4 -13 12 -19q7 -6 23 -9v-3h-114v79
l-10 -10q-25 -24 -45 -39q-21 -16 -36 -23q-19 -8 -30 -11q-14 -3 -27 -3zM213 703l101 -174l-3 -1l-98 100l-98 -100l-3 1z" />
    <glyph glyph-name="udieresis" unicode="&#xfc;" horiz-adv-x="433" 
d="M157 -7l-6 -3q-47 0 -78 26q-30 26 -30 87v173v72q0 26 -3 38t-9 15t-18 3v3l106 64v-393q0 -44 15 -60t41 -16q4 0 18 2q11 2 24 9q17 9 32 22q22 19 44 39l10 10v194v72q0 26 -3 38t-9 15t-18 3v3l106 64v-336v-67q0 -24 5 -39q4 -13 12 -19q7 -6 23 -9v-3h-114v79
l-10 -10q-25 -24 -45 -39q-21 -16 -36 -23q-19 -8 -30 -11q-14 -3 -27 -3zM284 548q-17 0 -29 12t-12 30q0 17 12 29t29 12t29 -12t12 -29q0 -18 -12 -30t-29 -12zM142 548q-17 0 -29 12t-12 30q0 17 12 29t29 12t29 -12t12 -29q0 -18 -12 -30t-29 -12z" />
    <glyph glyph-name="yacute" unicode="&#xfd;" horiz-adv-x="369" 
d="M71 -175h-3q-15 0 -25 8q-9 7 -9 18q0 12 8 20t24 8q14 0 24 -5t18 -5q11 0 22 18q9 15 28 63l17 48l-124 356l-20 52q-6 17 -14 30q-6 10 -12 15q-5 4 -15 7v2h138v-2q-10 -1 -16 -6q-5 -4 -7 -15q-1 -11 3 -30t15 -51l89 -257l82 233q16 43 20 65q5 25 2 36
q-3 13 -12 17t-23 6v2h94v-2q-13 -3 -19 -7q-8 -5 -15 -16q-6 -10 -16 -36q-2 -5 -6.5 -16.5t-9 -23.5t-8.5 -24l-135 -383q-26 -66 -47 -96q-20 -29 -48 -29zM168 533l79 137q7 16 17 24t21 8q13 0 20 -9q8 -10 8 -19q0 -10 -6 -19t-16 -19l-121 -105z" />
    <glyph glyph-name="thorn" unicode="&#xfe;" horiz-adv-x="444" 
d="M9 -167l-4 -4q11 3 19 9q8 7 11 19q3 13 3 39v67v634q0 53 -1 69q-2 26 -4 34q-3 10 -11 12q-5 1 -21 1v2l112 54v-396l15 17q34 39 63 57t57 18q30 0 60 -12t54 -39t39 -69t15 -101q0 -60 -15 -106t-42 -79q-26 -32 -63 -49q-35 -16 -79 -16q-23 0 -48 9q-24 9 -51 29
v-65v-67q0 -24 5 -39q4 -13 12 -19q7 -6 21 -9v-3h-147v3zM113 366v-336q29 -23 52 -30q26 -8 49 -8q26 0 48 12t39 39q16 27 27 71q10 41 10 110q0 70 -9 115q-9 44 -24 70t-33 35t-36 9q-22 0 -48 -15q-26 -16 -60 -55z" />
    <glyph glyph-name="ydieresis" unicode="&#xff;" horiz-adv-x="369" 
d="M71 -175h-3q-15 0 -25 8q-9 7 -9 18q0 12 8 20t24 8q14 0 24 -5t18 -5q11 0 22 18q9 15 28 63l17 48l-124 356l-20 52q-6 17 -14 30q-6 10 -12 15q-5 4 -15 7v2h138v-2q-10 -1 -16 -6q-5 -4 -7 -15q-1 -11 3 -30t15 -51l89 -257l82 233q16 43 20 65q5 25 2 36
q-3 13 -12 17t-23 6v2h94v-2q-13 -3 -19 -7q-8 -5 -15 -16q-6 -10 -16 -36q-2 -5 -6.5 -16.5t-9 -23.5t-8.5 -24l-135 -383q-26 -66 -47 -96q-20 -29 -48 -29zM279 551q-17 0 -29 12t-12 30q0 17 12 29t29 12t29 -12t12 -29q0 -18 -12 -30t-29 -12zM137 551q-17 0 -29 12
t-12 30q0 17 12 29t29 12t29 -12t12 -29q0 -18 -12 -30t-29 -12z" />
    <glyph glyph-name="Amacron" unicode="&#x100;" horiz-adv-x="515" 
d="M-1 2l-5 -2q9 4 18 11q7 6 15 20q7 13 15 36q9 26 18 58l151 547l-3 11q-5 20 -10 31t-12 19q-5 7 -12 10q-7 4 -14 5v2h102q9 0 11 -8l180 -615q3 -10 8 -26.5t6 -21.5q6 -21 12 -36q5 -12 14 -25q7 -10 21 -16v-2h-135v2q17 5 20 21q3 17 -9 57l-45 151h-249l-30 -107
q-14 -54 -14 -81q0 -29 30 -41v-2h-83v2zM339 234l-128 427l-118 -427h246zM324 787h-183v32h183v-32z" />
    <glyph glyph-name="amacron" unicode="&#x101;" horiz-adv-x="368" 
d="M118 -4l-2 -5q-42 0 -71 24t-29 73q0 29 12 47q11 16 32 31q20 14 45 24t51 24l22 10q37 18 50 39q14 22 14 45v63q0 28 -6 46t-15 27t-22 12t-28 3q-31 0 -42 -8q-11 -7 -18 -27q-7 -17 -17 -31q-9 -12 -26 -12q-14 0 -20 8q-6 7 -6 18q0 22 38 39q39 17 95 17
q33 0 56 -4q27 -5 45 -16q20 -12 32 -33t12 -55v-219q0 -33 2 -69q1 -23 5 -40q3 -13 9 -18q7 -5 16 -5q18 0 31 10l1 -2q-5 -5 -18 -11q-14 -6 -40 -6q-45 0 -63 21t-18 48l-7 -7q-28 -30 -54 -46q-26 -15 -66 -15zM92 101l-2 -2q0 -97 56 -97q19 0 39 11q18 10 49 42l7 7
v223q-5 -17 -19 -33q-15 -16 -43 -31l-22 -10q-41 -23 -53 -49q-12 -27 -12 -61zM265 597v-32h-173v32h173z" />
    <glyph glyph-name="Abreve" unicode="&#x102;" horiz-adv-x="515" 
d="M-1 2l-5 -2q9 4 18 11q7 6 15 20q7 13 15 36q9 26 18 58l151 547l-3 11q-5 20 -10 31t-12 19q-5 7 -12 10q-7 4 -14 5v2h102q9 0 11 -8l180 -615q3 -10 8 -26.5t6 -21.5q6 -21 12 -36q5 -12 14 -25q7 -10 21 -16v-2h-135v2q17 5 20 21q3 17 -9 57l-45 151h-249l-30 -107
q-14 -54 -14 -81q0 -29 30 -41v-2h-83v2zM339 234l-128 427l-118 -427h246zM233 820l-2 1q38 0 56 15t26 35h4q-1 -14 -6 -31q-5 -16 -15 -30q-11 -14 -26 -23t-37 -9q-23 0 -38 9t-26 23q-10 12 -16 30q-5 14 -7 32h4q6 -19 26 -36q19 -16 57 -16z" />
    <glyph glyph-name="abreve" unicode="&#x103;" horiz-adv-x="368" 
d="M118 -4l-2 -5q-42 0 -71 24t-29 73q0 29 12 47q11 16 32 31q20 14 45 24t51 24l22 10q37 18 50 39q14 22 14 45v63q0 28 -6 46t-15 27t-22 12t-28 3q-31 0 -42 -8q-11 -7 -18 -27q-7 -17 -17 -31q-9 -12 -26 -12q-14 0 -20 8q-6 7 -6 18q0 22 38 39q39 17 95 17
q33 0 56 -4q27 -5 45 -16q20 -12 32 -33t12 -55v-219q0 -33 2 -69q1 -23 5 -40q3 -13 9 -18q7 -5 16 -5q18 0 31 10l1 -2q-5 -5 -18 -11q-14 -6 -40 -6q-45 0 -63 21t-18 48l-7 -7q-28 -30 -54 -46q-26 -15 -66 -15zM92 101l-2 -2q0 -97 56 -97q19 0 39 11q18 10 49 42l7 7
v223q-5 -17 -19 -33q-15 -16 -43 -31l-22 -10q-41 -23 -53 -49q-12 -27 -12 -61zM179 578l2 -4q35 0 53 18q19 18 26 47h4q-2 -22 -7 -40q-6 -20 -16 -34q-11 -16 -25 -24q-15 -9 -36 -9t-36 9q-16 10 -26 24q-10 15 -15 35t-6 42h4q4 -28 24 -46q19 -18 54 -18z" />
    <glyph glyph-name="Aogonek" unicode="&#x104;" horiz-adv-x="515" 
d="M-1 2l-10 -1q9 4 18 11q7 6 15 20t15 36q9 26 18 58l151 547l-3 11q-3 9 -11 31q-5 12 -10 19t-12 10q-7 4 -14 5v2h102q9 0 11 -8l180 -615q3 -10 8 -26.5t6 -21.5q6 -21 12 -36q5 -12 14 -25q7 -10 21 -16v-2h-82q-15 0 -31 -8q-14 -7 -25 -21q-12 -15 -17 -31
q-6 -18 -6 -37t11 -33q10 -13 30 -13q25 0 42 14l2 -2l-9 -12t-15 -15t-21 -12q-13 -5 -28 -5q-31 0 -48 17t-17 45q0 24 13 41q14 19 33 32q20 13 39 24t33 15l-69 231h-249l-30 -107q-14 -54 -14 -81q0 -29 30 -41v-2h-83v2zM334 235l-128 427l-118 -427h246z" />
    <glyph glyph-name="aogonek" unicode="&#x105;" horiz-adv-x="368" 
d="M118 -4l-5 -6q-43 0 -71 24q-29 24 -29 73q0 29 12 47q11 16 32 31q19 13 45 24t51 24l22 10q37 18 50 39q14 22 14 45v63q0 28 -6 46t-15 27t-22 12q-14 3 -28 3q-31 0 -42 -8q-10 -8 -18 -27q-7 -17 -17 -31q-9 -12 -26 -12q-14 0 -20 8t-6 18q0 22 38 39q39 17 95 17
q33 0 56 -4q27 -5 45 -16q20 -12 32 -33t12 -55v-219q0 -33 2 -69q1 -23 5 -40q3 -14 9 -18q7 -5 16 -5q18 0 31 10l1 -2q-3 -3 -9 -6q-2 -1 -7 -3t-8 -4q-29 -10 -48 -36q-19 -25 -19 -60q0 -21 10 -32q10 -12 30 -12q25 0 42 14l2 -2l-9 -12t-15 -15t-21 -12
q-13 -5 -28 -5q-33 0 -50 17t-17 45q0 22 12 38q13 18 28 30q16 14 36 24q17 9 36 16q-3 -1 -9 -1h-11q-45 0 -63 21t-18 48l-7 -7q-28 -30 -54 -46q-26 -15 -66 -15zM89 100l-2 -2q0 -97 56 -97q19 0 39 11q18 10 49 42l7 7v223q-5 -17 -19 -33q-15 -16 -43 -31l-22 -10
q-41 -23 -53 -49q-12 -27 -12 -61z" />
    <glyph glyph-name="Cacute" unicode="&#x106;" horiz-adv-x="501" 
d="M305 -5h-5q-54 0 -106 23q-50 22 -88 69t-60 120q-22 72 -22 175t25 174q26 73 64 117q40 46 87 65q49 20 95 20q32 0 53 -6q23 -7 36 -13q3 -2 9 -4.5t10 -4.5t7 -4q10 -6 24 -6q22 0 29 28h5v-146h-5q-7 44 -24 72t-39 45q-23 17 -49 24q-29 8 -55 8q-40 0 -75 -20
t-59 -63q-25 -45 -38 -112q-14 -72 -14 -166q0 -106 17 -182q17 -74 45 -119q29 -45 65 -65q37 -20 77 -20q31 0 60 8t47 19q19 12 35 26q17 15 26 27l3 -3q-10 -13 -26 -29t-37 -27q-22 -12 -51 -21t-66 -9zM211 776l132 85q4 2 10 5.5t7 4.5q7 4 18 4q12 0 18 -7t6 -16
q0 -13 -9 -22q-10 -10 -28 -14l-153 -42z" />
    <glyph glyph-name="cacute" unicode="&#x107;" horiz-adv-x="357" 
d="M224 -5l-4 -2q-41 0 -77 15q-37 15 -65 45t-45 75q-16 44 -16 103q0 55 18 99q18 43 47 74q27 29 65 46q35 16 71 16q23 0 43 -4q22 -4 40 -12q19 -8 30 -19q12 -12 12 -27q0 -14 -7 -22q-8 -9 -24 -9q-18 0 -25 13q-7 12 -13 36q-4 19 -17 30q-11 10 -36 10
q-24 0 -49 -14q-23 -13 -40 -42t-27 -70q-10 -40 -10 -99q0 -123 39 -180t102 -57q38 0 65 15q28 16 44 37l3 -2q-16 -22 -48 -39q-31 -16 -76 -16zM178 531l79 137q7 16 17 24t21 8q13 0 20 -9q8 -10 8 -19q0 -10 -6 -19t-16 -19l-121 -105z" />
    <glyph glyph-name="Ccircumflex" unicode="&#x108;" horiz-adv-x="501" 
d="M305 -5h-5q-54 0 -106 23q-50 22 -88 69t-60 120q-22 72 -22 175t25 174q26 73 64 117q40 46 87 65q49 20 95 20q32 0 53 -6q23 -7 36 -13q3 -2 9 -4.5t10 -4.5t7 -4q10 -6 24 -6q22 0 29 28h5v-146h-5q-7 44 -24 72t-39 45q-23 17 -49 24q-29 8 -55 8q-40 0 -75 -20
t-59 -63q-25 -45 -38 -112q-14 -72 -14 -166q0 -106 17 -182q17 -74 45 -119q29 -45 65 -65q37 -20 77 -20q31 0 60 8t47 19q19 12 35 26q17 15 26 27l3 -3q-10 -13 -26 -29t-37 -27q-22 -12 -51 -21t-66 -9zM292 880l117 -106l-3 -1l-114 50l-114 -50l-3 1z" />
    <glyph glyph-name="ccircumflex" unicode="&#x109;" horiz-adv-x="357" 
d="M224 -5l-4 -2q-41 0 -77 15q-37 15 -65 45t-45 75q-16 44 -16 103q0 55 18 99q18 43 47 74q27 29 65 46q35 16 71 16q23 0 43 -4q22 -4 40 -12q19 -8 30 -19q12 -12 12 -27q0 -14 -7 -22q-8 -9 -24 -9q-18 0 -25 13q-7 12 -13 36q-4 19 -17 30q-11 10 -36 10
q-24 0 -49 -14q-23 -13 -40 -42t-27 -70q-10 -40 -10 -99q0 -123 39 -180t102 -57q38 0 65 15q28 16 44 37l3 -2q-16 -22 -48 -39q-31 -16 -76 -16zM218 704l101 -174l-3 -1l-98 100l-98 -100l-3 1z" />
    <glyph glyph-name="Cdotaccent" unicode="&#x10a;" horiz-adv-x="501" 
d="M305 -5h-5q-54 0 -106 23q-50 22 -88 69t-60 120q-22 72 -22 175t25 174q26 73 64 117q40 46 87 65q49 20 95 20q32 0 53 -6q23 -7 36 -13q3 -2 9 -4.5t10 -4.5t7 -4q10 -6 24 -6q22 0 29 28h5v-146h-5q-7 44 -24 72t-39 45q-23 17 -49 24q-29 8 -55 8q-40 0 -75 -20
t-59 -63q-25 -45 -38 -112q-14 -72 -14 -166q0 -106 17 -182q17 -74 45 -119q29 -45 65 -65q37 -20 77 -20q31 0 60 8t47 19q19 12 35 26q17 15 26 27l3 -3q-10 -13 -26 -29t-37 -27q-22 -12 -51 -21t-66 -9zM291 779q-18 0 -30 12t-12 30t12 30t30 12t30 -12t12 -30
t-12 -30t-30 -12z" />
    <glyph glyph-name="cdotaccent" unicode="&#x10b;" horiz-adv-x="357" 
d="M224 -5l-4 -2q-41 0 -77 15q-37 15 -65 45t-45 75q-16 44 -16 103q0 55 18 99q18 43 47 74q27 29 65 46q35 16 71 16q23 0 43 -4q22 -4 40 -12q19 -8 30 -19q12 -12 12 -27q0 -14 -7 -22q-8 -9 -24 -9q-18 0 -25 13q-7 12 -13 36q-4 19 -17 30q-11 10 -36 10
q-24 0 -49 -14q-23 -13 -40 -42t-27 -70q-10 -40 -10 -99q0 -123 39 -180t102 -57q38 0 65 15q28 16 44 37l3 -2q-16 -22 -48 -39q-31 -16 -76 -16zM218 549q-18 0 -30 12t-12 30t12 30t30 12t30 -12t12 -30t-12 -30t-30 -12z" />
    <glyph glyph-name="Ccaron" unicode="&#x10c;" horiz-adv-x="501" 
d="M305 -5h-5q-54 0 -106 23q-50 22 -88 69t-60 120q-22 72 -22 175t25 174q26 73 64 117q40 46 87 65q49 20 95 20q32 0 53 -6q23 -7 36 -13q3 -2 9 -4.5t10 -4.5t7 -4q10 -6 24 -6q22 0 29 28h5v-146h-5q-7 44 -24 72t-39 45q-23 17 -49 24q-29 8 -55 8q-40 0 -75 -20
t-59 -63q-25 -45 -38 -112q-14 -72 -14 -166q0 -106 17 -182q17 -74 45 -119q29 -45 65 -65q37 -20 77 -20q31 0 60 8t47 19q19 12 35 26q17 15 26 27l3 -3q-10 -13 -26 -29t-37 -27q-22 -12 -51 -21t-66 -9zM178 884l114 -50l114 50l3 -1l-117 -106l-117 106z" />
    <glyph glyph-name="ccaron" unicode="&#x10d;" horiz-adv-x="357" 
d="M224 -5l-4 -2q-41 0 -77 15q-37 15 -65 45t-45 75q-16 44 -16 103q0 55 18 99q18 43 47 74q27 29 65 46q35 16 71 16q23 0 43 -4q22 -4 40 -12q19 -8 30 -19q12 -12 12 -27q0 -14 -7 -22q-8 -9 -24 -9q-18 0 -25 13q-7 12 -13 36q-4 19 -17 30q-11 10 -36 10
q-24 0 -49 -14q-23 -13 -40 -42t-27 -70q-10 -40 -10 -99q0 -123 39 -180t102 -57q38 0 65 15q28 16 44 37l3 -2q-16 -22 -48 -39q-31 -16 -76 -16zM120 707l98 -100l98 100l3 -1l-101 -174l-101 174z" />
    <glyph glyph-name="Dcaron" unicode="&#x10e;" horiz-adv-x="554" 
d="M12 3l2 -2q16 4 25 12q8 7 13 29q4 21 6 63q1 28 1 116v306q0 88 -1 116q-2 42 -6 63q-5 22 -13 29q-9 8 -25 12v3h147q179 0 273 -90q95 -90 95 -276q0 -88 -21 -160q-21 -71 -66 -121q-45 -49 -115 -76q-71 -27 -168 -27h-147v3zM137 744l-2 -744h24q72 0 126 21t90 66
t54 119t18 178q0 112 -22 179q-23 70 -60 110q-38 41 -90 56q-53 15 -114 15h-24zM124 881l114 -50l114 50l3 -1l-117 -106l-117 106z" />
    <glyph glyph-name="dcaron" unicode="&#x10f;" horiz-adv-x="453" 
d="M197 -6v1q-31 0 -64 14q-31 13 -55 42t-39 72t-15 102q0 63 16 108q17 47 43 76q27 30 62 45t72 15q25 0 52 -12t56 -38v184q0 51 -1 66q-2 25 -4 33q-3 10 -11 12q-10 2 -21 2v2l112 54v-635v-67q0 -24 5 -39q4 -13 13 -19t25 -9v-3h-116v79l-6 -8q-32 -41 -60 -59
q-29 -18 -64 -18zM103 237l-1 -4q0 -70 11 -117q11 -46 27 -71t36 -34t36 -9q25 0 51 14q25 13 60 59l6 8v327q-33 30 -58 41q-27 12 -51 12q-23 0 -43 -10t-37 -36q-16 -25 -27 -69q-10 -41 -10 -111zM424 578l11 130q2 23 9 35q8 12 22 12q12 0 19 -7t7 -18q0 -13 -9 -34
l-56 -119z" />
    <glyph glyph-name="Dcroat" unicode="&#x110;" horiz-adv-x="556" 
d="M14 3l2 -2q16 4 25 12q8 7 13 29q4 21 6 63q1 28 1 116v168h-64v4h64v134q0 88 -1 116q-2 42 -6 63q-5 22 -13 29q-9 8 -25 12v3h147q179 0 273 -90q95 -90 95 -276q0 -88 -21 -160q-21 -71 -66 -121q-45 -49 -115 -76q-71 -27 -168 -27h-147v3zM139 1l22 -1q72 0 126 21
t90 66t54 119t18 178q0 112 -22 179q-23 70 -60 110q-38 41 -90 56q-53 15 -114 15h-24v-352h127v-4h-127v-387z" />
    <glyph glyph-name="dcroat" unicode="&#x111;" horiz-adv-x="453" 
d="M214 573h249v-4h-249v4zM197 -6v1q-31 0 -64 14q-31 13 -55 42t-39 72t-15 102q0 63 16 108q17 47 43 76q27 30 62 45t72 15q25 0 52 -12t56 -38v184q0 51 -1 66q-2 25 -4 33q-3 10 -11 12q-10 2 -21 2v2l112 54v-635v-67q0 -24 5 -39q4 -13 13 -19t25 -9v-3h-116v79
l-6 -8q-32 -41 -60 -59q-29 -18 -64 -18zM103 237l-1 -4q0 -70 11 -117q11 -46 27 -71t36 -34t36 -9q25 0 51 14q25 13 60 59l6 8v327q-33 30 -58 41q-27 12 -51 12q-23 0 -43 -10t-37 -36q-16 -25 -27 -69q-10 -41 -10 -111z" />
    <glyph glyph-name="Emacron" unicode="&#x112;" horiz-adv-x="455" 
d="M12 3l-3 -3q16 4 25 12q8 7 13 29q5 21 6 63q1 28 1 116v306q0 88 -1 116q-1 42 -6 63q-5 22 -13 29q-9 8 -25 12v3h385q4 0 8 -2t5 -12l15 -83h-5q-13 56 -48 75q-35 20 -90 20h-146v-333h78q27 0 42 6t23 17q8 12 11 24q2 9 6 25h4v-148h-4l-6 24q-3 12 -11 23
q-7 10 -23 18q-14 7 -42 7h-78v-405h165q30 0 54 3q23 3 42 14q18 10 30 32q11 19 19 56h5l-11 -100q-2 -8 -4 -9t-6 -1h-415v3zM331 786h-183v32h183v-32z" />
    <glyph glyph-name="emacron" unicode="&#x113;" horiz-adv-x="375" 
d="M235 -6l-2 -9q-43 0 -80 15t-66 45q-28 29 -46 75q-18 45 -18 105q0 59 18 104t45 75t60 45t63 15q53 0 95 -36q43 -37 56 -108h-256q-2 -16 -3 -36q-1 -13 -1 -42q0 -64 11 -113q11 -47 30 -75t47 -42q26 -13 59 -13t60 12q25 11 46 29l3 -3q-20 -17 -49 -30t-72 -13z
M208 456v-1q-14 0 -29 -6t-30 -21t-27 -42t-18 -67h192q-3 71 -30 104t-58 33zM295 594v-32h-173v32h173z" />
    <glyph glyph-name="Ebreve" unicode="&#x114;" horiz-adv-x="455" 
d="M12 3l-3 -3q16 4 25 12q8 7 13 29q5 21 6 63q1 28 1 116v306q0 88 -1 116q-1 42 -6 63q-5 22 -13 29q-9 8 -25 12v3h385q4 0 8 -2t5 -12l15 -83h-5q-13 56 -48 75q-35 20 -90 20h-146v-333h78q27 0 42 6t23 17q8 12 11 24q2 9 6 25h4v-148h-4l-6 24q-3 12 -11 23
q-7 10 -23 18q-14 7 -42 7h-78v-405h165q30 0 54 3q23 3 42 14q18 10 30 32q11 19 19 56h5l-11 -100q-2 -8 -4 -9t-6 -1h-415v3zM240 819l-2 1q38 0 56 15t26 35h4q-1 -14 -6 -31q-4 -17 -15 -30q-11 -14 -26 -23t-37 -9q-23 0 -38 9t-26 23q-10 12 -16 30q-5 14 -7 32h4
q6 -19 26 -36q19 -16 57 -16z" />
    <glyph glyph-name="ebreve" unicode="&#x115;" horiz-adv-x="375" 
d="M235 -6l-2 -9q-43 0 -80 15t-66 45q-28 29 -46 75q-18 45 -18 105q0 59 18 104t45 75t60 45t63 15q53 0 95 -36q43 -37 56 -108h-256q-2 -16 -3 -36q-1 -13 -1 -42q0 -64 11 -113q11 -47 30 -75t47 -42q26 -13 59 -13t60 12q25 11 46 29l3 -3q-20 -17 -49 -30t-72 -13z
M208 456v-1q-14 0 -29 -6t-30 -21t-27 -42t-18 -67h192q-3 71 -30 104t-58 33zM209 575l2 -4q35 0 53 18q18 19 26 47h4q-2 -22 -7 -40q-6 -20 -16 -34q-11 -16 -25 -24q-15 -9 -36 -9t-36 9q-16 10 -26 24q-10 15 -15 35q-5 19 -6 42h4q4 -28 24 -46q19 -18 54 -18z" />
    <glyph glyph-name="Edotaccent" unicode="&#x116;" horiz-adv-x="455" 
d="M12 3l-3 -3q16 4 25 12q8 7 13 29q5 21 6 63q1 28 1 116v306q0 88 -1 116q-1 42 -6 63q-5 22 -13 29q-9 8 -25 12v3h385q4 0 8 -2t5 -12l15 -83h-5q-13 56 -48 75q-35 20 -90 20h-146v-333h78q27 0 42 6t23 17q8 12 11 24q2 9 6 25h4v-148h-4l-6 24q-3 12 -11 23
q-7 10 -23 18q-14 7 -42 7h-78v-405h165q30 0 54 3q23 3 42 14q18 10 30 32q11 19 19 56h5l-11 -100q-2 -8 -4 -9t-6 -1h-415v3zM239 776q-18 0 -30 12t-12 30t12 30t30 12t30 -12t12 -30t-12 -30t-30 -12z" />
    <glyph glyph-name="edotaccent" unicode="&#x117;" horiz-adv-x="375" 
d="M235 -6l-2 -9q-43 0 -80 15t-66 45q-28 29 -46 75q-18 45 -18 105q0 59 18 104t45 75t60 45t63 15q53 0 95 -36q43 -37 56 -108h-256q-2 -16 -3 -36q-1 -13 -1 -42q0 -64 11 -113q11 -47 30 -75t47 -42q26 -13 59 -13t60 12q25 11 46 29l3 -3q-20 -17 -49 -30t-72 -13z
M208 456v-1q-14 0 -29 -6t-30 -21t-27 -42t-18 -67h192q-3 71 -30 104t-58 33zM208 541q-18 0 -30 12t-12 30t12 30t30 12t30 -12t12 -30t-12 -30t-30 -12z" />
    <glyph glyph-name="Eogonek" unicode="&#x118;" horiz-adv-x="455" 
d="M12 3l-3 -3q16 4 25 12q8 7 13 29q5 21 6 63q1 28 1 116v306q0 88 -1 116q-1 42 -6 63q-5 22 -13 29q-9 8 -25 12v3h385q4 0 8 -2t5 -12l15 -83h-5q-13 56 -48 75q-35 20 -90 20h-146v-333h78q27 0 42 6t23 17q8 12 11 24q2 9 6 25h4v-148h-4l-6 24q-3 12 -11 23
q-7 10 -23 18q-14 7 -42 7h-78v-405h165q30 0 54 3q23 3 42 14q18 10 30 32q11 19 19 56h5l-11 -100q-2 -8 -4 -9t-6 -1h-415v3zM319 -177l-3 1q-31 0 -48 17t-17 45q0 23 12 41q13 19 30 32q21 15 37 23l31 16h4q-22 -13 -40 -39q-18 -25 -18 -60q0 -19 11 -32
q10 -12 30 -12q25 0 42 14l2 -2q-3 -5 -9 -12t-15 -15t-21 -12q-13 -5 -28 -5z" />
    <glyph glyph-name="eogonek" unicode="&#x119;" horiz-adv-x="375" 
d="M311 -130l-8 -10l-9 -12t-15 -15t-21 -12q-13 -5 -28 -5q-31 0 -48 17t-17 45q0 21 11 40q10 17 27 31q17 13 36 24t36 18q-20 -6 -44 -6q-43 0 -80 15t-66 45q-28 29 -46 75q-18 45 -18 105q0 59 18 104t45 75t60 45t63 15q53 0 95 -36q43 -37 56 -108h-256
q-2 -16 -3 -36q-1 -13 -1 -42q0 -64 11 -113q11 -47 30 -75t47 -42q26 -13 59 -13t60 12q25 11 46 29l3 -3q-21 -15 -24 -17q-15 -10 -28 -14q-12 -4 -27 -14q-14 -10 -24 -22q-11 -14 -18 -30q-7 -15 -7 -38q0 -19 11 -32q11 -12 30 -12q25 0 42 14zM202 455v-1
q-14 0 -29 -6t-30 -21t-27 -42t-18 -67h192q-3 71 -30 104t-58 33z" />
    <glyph glyph-name="Ecaron" unicode="&#x11a;" horiz-adv-x="455" 
d="M12 3l-3 -3q16 4 25 12q8 7 13 29q5 21 6 63q1 28 1 116v306q0 88 -1 116q-1 42 -6 63q-5 22 -13 29q-9 8 -25 12v3h385q4 0 8 -2t5 -12l15 -83h-5q-13 56 -48 75q-35 20 -90 20h-146v-333h78q27 0 42 6t23 17q8 12 11 24q2 9 6 25h4v-148h-4l-6 24q-3 12 -11 23
q-7 10 -23 18q-14 7 -42 7h-78v-405h165q30 0 54 3q23 3 42 14q18 10 30 32q11 19 19 56h5l-11 -100q-2 -8 -4 -9t-6 -1h-415v3zM126 881l114 -50l114 50l3 -1l-117 -106l-117 106z" />
    <glyph glyph-name="ecaron" unicode="&#x11b;" horiz-adv-x="375" 
d="M235 -6l-2 -9q-43 0 -80 15t-66 45q-28 29 -46 75q-18 45 -18 105q0 59 18 104t45 75t60 45t63 15q53 0 95 -36q43 -37 56 -108h-256q-2 -16 -3 -36q-1 -13 -1 -42q0 -64 11 -113q11 -47 30 -75t47 -42q26 -13 59 -13t60 12q25 11 46 29l3 -3q-20 -17 -49 -30t-72 -13z
M208 456v-1q-14 0 -29 -6t-30 -21t-27 -42t-18 -67h192q-3 71 -30 104t-58 33zM110 699l98 -100l98 100l3 -1l-101 -174l-101 174z" />
    <glyph glyph-name="Gcircumflex" unicode="&#x11c;" horiz-adv-x="554" 
d="M302 -6l-1 -7q-65 0 -116 27q-52 27 -86 78q-35 51 -54 123q-19 70 -19 160q0 97 24 168t63 117t89 69q48 22 101 22q33 0 55 -6q21 -6 38 -14q5 -3 14 -7t13 -6q12 -6 25 -6q19 0 26 28h4v-146h-4q-7 43 -24 73q-16 30 -39 48q-23 19 -50 26q-29 8 -57 8q-41 0 -77 -18
q-37 -18 -62 -60q-26 -43 -41 -111q-15 -69 -15 -171q0 -103 14 -181q13 -75 39 -123t60 -69t77 -21q39 0 65 9q27 9 41 28q15 20 21 51t6 76v16q0 57 -1 75q-1 27 -6 42t-13 21q-8 5 -24 10v3h161v-3q-16 -5 -24 -10q-9 -6 -13 -19t-6 -41q-1 -18 -1 -75v-72
q-11 -21 -28 -39q-18 -19 -42 -36t-57 -27q-31 -10 -76 -10zM301 873l117 -106l-3 -1l-114 50l-114 -50l-3 1z" />
    <glyph glyph-name="gcircumflex" unicode="&#x11d;" horiz-adv-x="368" 
d="M183 154l4 -4q-44 0 -81 22l-9 -6q-13 -8 -21 -18q-8 -11 -8 -24t11 -21q10 -7 41 -15l144 -30q48 -11 79 -34q31 -24 31 -69q0 -29 -14 -54q-14 -24 -39 -42q-24 -17 -60 -28q-33 -10 -77 -10q-31 0 -61 6t-54 18t-39 30t-15 42q0 19 9 34t24 27q13 10 33 22q12 7 36 19
q-39 9 -58 29q-18 20 -18 45q0 29 16 45q17 17 34 27l11 7q-30 17 -52 50q-21 32 -21 80q0 37 14 68q13 30 36 51q23 22 50 32q28 11 54 11q42 0 80 -23q30 22 48 29q21 8 36 8q24 0 24 -26q0 -11 -6 -17t-16 -6q-11 0 -24 8t-32 8q-9 0 -13 -1l-12 -3q31 -19 52 -54t21 -82
q0 -37 -15 -66t-37 -48t-51 -28t-55 -9zM187 154h-1q37 0 61 34t24 115t-24 119t-61 38q-34 0 -58 -38t-24 -119t24 -115t59 -34zM61 -76l-1 -2q0 -52 33 -75q34 -23 87 -23q41 0 73 9t52 22t31 30q10 16 10 33t-8 30q-8 12 -20 20q-12 7 -29 12l-33 9l-133 26
q-33 -19 -47 -37q-15 -20 -15 -54zM198 700l101 -174l-3 -1l-98 100l-98 -100l-3 1z" />
    <glyph glyph-name="Gbreve" unicode="&#x11e;" horiz-adv-x="554" 
d="M302 -6l-1 -7q-65 0 -116 27q-52 27 -86 78q-35 51 -54 123q-19 70 -19 160q0 97 24 168t63 117t89 69q48 22 101 22q33 0 55 -6q21 -6 38 -14q5 -3 14 -7t13 -6q12 -6 25 -6q19 0 26 28h4v-146h-4q-7 43 -24 73q-16 30 -39 48q-23 19 -50 26q-29 8 -57 8q-41 0 -77 -18
q-37 -18 -62 -60q-26 -43 -41 -111q-15 -69 -15 -171q0 -103 14 -181q13 -75 39 -123t60 -69t77 -21q39 0 65 9q27 9 41 28q15 20 21 51t6 76v16q0 57 -1 75q-1 27 -6 42t-13 21q-8 5 -24 10v3h161v-3q-16 -5 -24 -10q-9 -6 -13 -19t-6 -41q-1 -18 -1 -75v-72
q-11 -21 -28 -39q-18 -19 -42 -36t-57 -27q-31 -10 -76 -10zM302 815l-2 1q38 0 56 15t26 35h4q-1 -14 -6 -31q-4 -17 -15 -30q-11 -14 -26 -23t-37 -9q-23 0 -38 9t-26 23q-10 12 -16 30q-5 14 -7 32h4q6 -19 26 -36q19 -16 57 -16z" />
    <glyph glyph-name="gbreve" unicode="&#x11f;" horiz-adv-x="368" 
d="M183 154l4 -4q-44 0 -81 22l-9 -6q-13 -8 -21 -18q-8 -11 -8 -24t11 -21q10 -7 41 -15l144 -30q48 -11 79 -34q31 -24 31 -69q0 -29 -14 -54q-14 -24 -39 -42q-24 -17 -60 -28q-33 -10 -77 -10q-31 0 -61 6t-54 18t-39 30t-15 42q0 19 9 34t24 27q13 10 33 22q12 7 36 19
q-39 9 -58 29q-18 20 -18 45q0 29 16 45q17 17 34 27l11 7q-30 17 -52 50q-21 32 -21 80q0 37 14 68q13 30 36 51q23 22 50 32q28 11 54 11q42 0 80 -23q30 22 48 29q21 8 36 8q24 0 24 -26q0 -11 -6 -17t-16 -6q-11 0 -24 8t-32 8q-9 0 -13 -1l-12 -3q31 -19 52 -54t21 -82
q0 -37 -15 -66t-37 -48t-51 -28t-55 -9zM187 154h-1q37 0 61 34t24 115t-24 119t-61 38q-34 0 -58 -38t-24 -119t24 -115t59 -34zM61 -76l-1 -2q0 -52 33 -75q34 -23 87 -23q41 0 73 9t52 22t31 30q10 16 10 33t-8 30q-8 12 -20 20q-12 7 -29 12l-33 9l-133 26
q-33 -19 -47 -37q-15 -20 -15 -54zM199 579l2 -4q35 0 53 18t26 47h4q-2 -22 -7 -40q-6 -20 -16 -34q-11 -16 -25 -24q-15 -9 -36 -9t-36 9q-16 10 -26 24q-10 15 -15 35q-5 19 -6 42h4q4 -28 24 -46q19 -18 54 -18z" />
    <glyph glyph-name="Gdotaccent" unicode="&#x120;" horiz-adv-x="554" 
d="M302 -6l-1 -7q-65 0 -116 27q-52 27 -86 78q-35 51 -54 123q-19 70 -19 160q0 97 24 168t63 117t89 69q48 22 101 22q33 0 55 -6q21 -6 38 -14q5 -3 14 -7t13 -6q12 -6 25 -6q19 0 26 28h4v-146h-4q-7 43 -24 73q-16 30 -39 48q-23 19 -50 26q-29 8 -57 8q-41 0 -77 -18
q-37 -18 -62 -60q-26 -43 -41 -111q-15 -69 -15 -171q0 -103 14 -181q13 -75 39 -123t60 -69t77 -21q39 0 65 9q27 9 41 28q15 20 21 51t6 76v16q0 57 -1 75q-1 27 -6 42t-13 21q-8 5 -24 10v3h161v-3q-16 -5 -24 -10q-9 -6 -13 -19t-6 -41q-1 -18 -1 -75v-72
q-11 -21 -28 -39q-18 -19 -42 -36t-57 -27q-31 -10 -76 -10zM301 772q-18 0 -30 12t-12 30t12 30t30 12t30 -12t12 -30t-12 -30t-30 -12z" />
    <glyph glyph-name="gdotaccent" unicode="&#x121;" horiz-adv-x="368" 
d="M183 154l4 -4q-44 0 -81 22l-9 -6q-13 -8 -21 -18q-8 -11 -8 -24t11 -21q10 -7 41 -15l144 -30q48 -11 79 -34q31 -24 31 -69q0 -29 -14 -54q-14 -24 -39 -42q-24 -17 -60 -28q-33 -10 -77 -10q-31 0 -61 6t-54 18t-39 30t-15 42q0 19 9 34t24 27q13 10 33 22q12 7 36 19
q-39 9 -58 29q-18 20 -18 45q0 29 16 45q17 17 34 27l11 7q-30 17 -52 50q-21 32 -21 80q0 37 14 68q13 30 36 51q23 22 50 32q28 11 54 11q42 0 80 -23q30 22 48 29q21 8 36 8q24 0 24 -26q0 -11 -6 -17t-16 -6q-11 0 -24 8t-32 8q-9 0 -13 -1l-12 -3q31 -19 52 -54t21 -82
q0 -37 -15 -66t-37 -48t-51 -28t-55 -9zM187 154h-1q37 0 61 34t24 115t-24 119t-61 38q-34 0 -58 -38t-24 -119t24 -115t59 -34zM61 -76l-1 -2q0 -52 33 -75q34 -23 87 -23q41 0 73 9t52 22t31 30q10 16 10 33t-8 30q-8 12 -20 20q-12 7 -29 12l-33 9l-133 26
q-33 -19 -47 -37q-15 -20 -15 -54zM198 545q-18 0 -30 12t-12 30t12 30t30 12t30 -12t12 -30t-12 -30t-30 -12z" />
    <glyph glyph-name="uni0122" unicode="&#x122;" horiz-adv-x="554" 
d="M302 -6l-1 -7q-65 0 -116 27q-52 27 -86 78q-35 51 -54 123q-19 70 -19 160q0 97 24 168t63 117t89 69q48 22 101 22q33 0 55 -6q21 -6 38 -14q5 -3 14 -7t13 -6q12 -6 25 -6q19 0 26 28h4v-146h-4q-7 43 -24 73q-16 30 -39 48q-23 19 -50 26q-29 8 -57 8q-41 0 -77 -18
q-37 -18 -62 -60q-26 -43 -41 -111q-15 -69 -15 -171q0 -103 14 -181q13 -75 39 -123t60 -69t77 -21q39 0 65 9q27 9 41 28q15 20 21 51t6 76v16q0 57 -1 75q-1 27 -6 42t-13 21q-8 5 -24 10v3h161v-3q-16 -5 -24 -10q-9 -6 -13 -19t-6 -41q-1 -18 -1 -75v-72
q-11 -21 -28 -39q-18 -19 -42 -36t-57 -27q-31 -10 -76 -10zM317 -124l-2 -4q-3 -2 -10 -7q-7 -4 -19 -4q-16 0 -27 10q-12 11 -12 28q0 19 12 30q11 10 29 10q20 0 33 -13q14 -14 14 -39q0 -19 -6 -33t-15 -23q-8 -8 -21 -13q-12 -5 -25 -6l-2 5q23 4 40 15q16 10 16 30
q0 9 -5 14z" />
    <glyph glyph-name="uni0123" unicode="&#x123;" horiz-adv-x="368" 
d="M183 154l4 -4q-44 0 -81 22l-9 -6q-13 -8 -21 -18q-8 -11 -8 -24t11 -21q10 -7 41 -15l144 -30q48 -11 79 -34q31 -24 31 -69q0 -29 -14 -54q-14 -24 -39 -42q-24 -17 -60 -28q-33 -10 -77 -10q-31 0 -61 6t-54 18t-39 30t-15 42q0 19 9 34t24 27q13 10 33 22q12 7 36 19
q-39 9 -58 29q-18 20 -18 45q0 29 16 45q17 17 34 27l11 7q-30 17 -52 50q-21 32 -21 80q0 37 14 68q13 30 36 51q23 22 50 32q28 11 54 11q42 0 80 -23q30 22 48 29q21 8 36 8q24 0 24 -26q0 -11 -6 -17t-16 -6q-11 0 -24 8t-32 8q-9 0 -13 -1l-12 -3q31 -19 52 -54t21 -82
q0 -37 -15 -66t-37 -48t-51 -28t-55 -9zM187 154h-1q37 0 61 34t24 115t-24 119t-61 38q-34 0 -58 -38t-24 -119t24 -115t59 -34zM61 -76l-1 -2q0 -52 33 -75q34 -23 87 -23q41 0 73 9t52 22t31 30q10 16 10 33t-8 30q-8 12 -20 20q-12 7 -29 12l-33 9l-133 26
q-33 -19 -47 -37q-15 -20 -15 -54zM170 603h-2q4 3 11 8q8 5 20 5q16 0 27 -10q12 -10 12 -28q0 -20 -12 -30q-11 -10 -29 -10q-19 0 -33 14q-13 13 -13 39q0 19 6 33t15 23q10 10 21 14q12 4 26 6l2 -5q-23 -4 -40 -15q-16 -10 -16 -30q0 -9 5 -14z" />
    <glyph glyph-name="Hcircumflex" unicode="&#x124;" horiz-adv-x="567" 
d="M12 3l-3 -4q16 4 25 12q8 7 13 29q5 21 6 63q1 28 1 116v306q0 88 -1 116q-1 42 -6 63q-5 22 -13 29q-9 8 -25 12v3h167v-3q-15 -5 -24 -12t-13 -28q-5 -21 -6 -63q-1 -28 -1 -116v-115h297v115q0 88 -1 116q-2 42 -6 63q-5 22 -13 29q-9 8 -24 12v3h167v-3
q-15 -4 -24 -12q-9 -7 -13 -28q-5 -21 -6 -63q-1 -28 -1 -116v-306q0 -88 1 -116q1 -42 6 -63q4 -20 14 -28q9 -8 24 -12v-3h-167v3q15 4 24 12t14 29q4 21 6 63q1 28 1 116v187h-297v-187q0 -88 1 -116q1 -42 6 -63q4 -20 14 -28q9 -7 24 -12v-3h-167v3zM281 876l117 -106
l-3 -1l-114 50l-114 -50l-3 1z" />
    <glyph glyph-name="hcircumflex" unicode="&#x125;" horiz-adv-x="437" 
d="M19 3h-4q11 3 19 9q8 7 11 19q3 13 3 39v67v460q0 51 -1 66q-2 25 -4 33q-3 11 -10 12q-10 2 -19 2v2l108 59v-396l14 14q22 22 44 39q19 14 38 24q18 9 33 12t29 3q20 0 40 -6t33 -19q15 -15 23 -34q9 -21 9 -51v-221v-67q0 -25 3 -39q3 -13 10 -19q8 -6 19 -9v-3h-145
v3q14 3 21 9q8 6 12 19q5 15 5 39v67v234q0 48 -14 68t-39 20q-9 0 -19 -3q-12 -4 -24 -10q-15 -9 -32 -21q-16 -12 -42 -38l-14 -14v-235v-67q0 -24 5 -39q4 -13 12 -19q7 -6 21 -9v-3h-145v3zM224 906l117 -106l-3 -1l-114 50l-114 -50l-3 1z" />
    <glyph glyph-name="Hbar" unicode="&#x126;" horiz-adv-x="579" 
d="M-8 575h595v-4h-595v4zM18 3l-3 -4q16 4 25 12q8 7 13 29q5 21 6 63q1 28 1 116v306q0 88 -1 116q-1 42 -6 63q-5 22 -13 29q-9 8 -25 12v3h167v-3q-15 -5 -24 -12t-13 -28q-5 -21 -6 -63q-1 -28 -1 -116v-115h297v115q0 88 -1 116q-2 42 -6 63q-5 22 -13 29q-9 8 -24 12
v3h167v-3q-15 -4 -24 -12q-9 -7 -13 -28q-5 -21 -6 -63q-1 -28 -1 -116v-306q0 -88 1 -116q1 -42 6 -63q4 -20 14 -28q9 -8 24 -12v-3h-167v3q15 4 24 12t14 29q4 21 6 63q1 28 1 116v187h-297v-187q0 -88 1 -116q1 -42 6 -63q4 -20 14 -28q9 -7 24 -12v-3h-167v3z" />
    <glyph glyph-name="hbar" unicode="&#x127;" 
d="M-10 569v4h250v-4h-250zM19 3h-4q11 3 19 9q8 7 11 19q3 13 3 39v67v460q0 51 -1 66q-2 25 -4 33q-3 11 -10 12q-10 2 -19 2v2l108 59v-396l14 14q22 22 44 39q19 14 38 24q18 9 33 12t29 3q20 0 40 -6t33 -19q15 -15 23 -34q9 -21 9 -51v-221v-67q0 -25 3 -39
q3 -13 10 -19q8 -6 19 -9v-3h-145v3q14 3 21 9q8 6 12 19q5 15 5 39v67v234q0 48 -14 68t-39 20q-9 0 -19 -3q-12 -4 -24 -10q-15 -9 -32 -21q-16 -12 -42 -38l-14 -14v-235v-67q0 -24 5 -39q4 -13 12 -19q7 -6 21 -9v-3h-145v3z" />
    <glyph glyph-name="Itilde" unicode="&#x128;" horiz-adv-x="191" 
d="M12 3l-1 -2q16 4 25 12q8 7 13 29q5 21 6 63q1 28 1 116v306q0 88 -1 116q-1 42 -6 63q-5 22 -13 29q-9 8 -25 12v3h167v-3q-15 -5 -24 -12t-13 -28q-5 -21 -6 -63q-1 -28 -1 -116v-306q0 -88 1 -116q1 -42 6 -63q4 -20 14 -28q9 -7 24 -12v-3h-167v3zM61 851h-2
q12 0 21 -1q18 -2 27 -4t27 -4q9 -1 21 -1q7 0 18 8q11 7 27 33l3 -1q-14 -48 -28 -66q-15 -19 -28 -19q-4 0 -22 2t-27 4q-8 2 -26 4q-16 2 -20 2q-10 0 -21 -7t-31 -36l-3 1q13 42 32 64q18 21 32 21z" />
    <glyph glyph-name="itilde" unicode="&#x129;" horiz-adv-x="182" 
d="M19 3l-2 -1q11 3 19 9q8 7 11 19q3 14 3 39v67v154v65q0 23 -3 35q-3 13 -9 14q-8 2 -18 2v3l106 64v-336v-67q0 -24 5 -39q4 -13 12 -19q7 -6 21 -9v-3h-145v3zM54 626l2 -3q12 0 21 -1l27 -3l27 -3q9 -1 21 -1q7 0 18 8t26 33l3 -1q-10 -44 -27 -64q-16 -19 -27 -19
q-5 0 -23 2l-28 3l-27 3q-18 2 -21 2q-10 0 -21 -7q-12 -7 -30 -36l-3 1q14 42 31 64q18 22 31 22z" />
    <glyph glyph-name="Imacron" unicode="&#x12a;" horiz-adv-x="191" 
d="M12 3l-1 -2q16 4 25 12q8 7 13 29q5 21 6 63q1 28 1 116v306q0 88 -1 116q-1 42 -6 63q-5 22 -13 29q-9 8 -25 12v3h167v-3q-15 -5 -24 -12t-13 -28q-5 -21 -6 -63q-1 -28 -1 -116v-306q0 -88 1 -116q1 -42 6 -63q4 -20 14 -28q9 -7 24 -12v-3h-167v3zM187 787h-183v32
h183v-32z" />
    <glyph glyph-name="imacron" unicode="&#x12b;" horiz-adv-x="182" 
d="M19 3l-2 -1q11 3 19 9q8 7 11 19q3 14 3 39v67v154v65q0 23 -3 35q-3 13 -9 14q-8 2 -18 2v3l106 64v-336v-67q0 -24 5 -39q4 -13 12 -19q7 -6 21 -9v-3h-145v3zM176 603v-32h-173v32h173z" />
    <glyph glyph-name="Ibreve" unicode="&#x12c;" horiz-adv-x="191" 
d="M12 3l-1 -2q16 4 25 12q8 7 13 29q5 21 6 63q1 28 1 116v306q0 88 -1 116q-1 42 -6 63q-5 22 -13 29q-9 8 -25 12v3h167v-3q-15 -5 -24 -12t-13 -28q-5 -21 -6 -63q-1 -28 -1 -116v-306q0 -88 1 -116q1 -42 6 -63q4 -20 14 -28q9 -7 24 -12v-3h-167v3zM96 820l-2 1
q38 0 56 15t26 35h4q-1 -14 -6 -31q-4 -16 -15 -30t-26 -23t-37 -9q-23 0 -38 9t-26 23q-10 12 -16 30q-5 14 -7 32h4q6 -19 26 -36q19 -16 57 -16z" />
    <glyph glyph-name="ibreve" unicode="&#x12d;" horiz-adv-x="182" 
d="M19 3l-2 -1q11 3 19 9q8 7 11 19q3 14 3 39v67v154v65q0 23 -3 35q-3 13 -9 14q-8 2 -18 2v3l106 64v-336v-67q0 -24 5 -39q4 -13 12 -19q7 -6 21 -9v-3h-145v3zM90 584l2 -4q35 0 53 18q19 18 26 47h4q-2 -22 -7 -40q-6 -20 -16 -34q-11 -16 -25 -24q-15 -9 -36 -9
t-36 9q-16 10 -26 24q-10 15 -15 35q-4 20 -6 42h4q4 -28 24 -46t54 -18z" />
    <glyph glyph-name="Iogonek" unicode="&#x12e;" horiz-adv-x="191" 
d="M12 3l-1 -2q16 4 25 12q8 7 13 29q5 21 6 63q1 28 1 116v306q0 88 -1 116q-1 42 -6 63q-5 22 -13 29q-9 8 -25 12v3h167v-3q-15 -5 -24 -12t-13 -28q-5 -21 -6 -63q-1 -28 -1 -116v-306q0 -88 1 -116q1 -42 6 -63q4 -20 14 -28q9 -7 24 -12v-3h-167v3zM90 -176l-3 1
q-31 0 -48 17t-17 45q0 23 12 41q13 19 30 32q21 15 37 23l31 16h4q-22 -13 -40 -39t-18 -60q0 -19 11 -32q11 -12 30 -12q25 0 42 14l2 -2l-9 -12t-15 -15t-21 -12q-13 -5 -28 -5z" />
    <glyph glyph-name="iogonek" unicode="&#x12f;" horiz-adv-x="182" 
d="M89 551q-18 0 -30 12t-12 30t12 30t30 12t30 -12t12 -30t-12 -30t-30 -12zM19 3l-2 -1q11 3 19 9q8 7 11 19q3 14 3 39v67v154v65q0 23 -3 35q-3 13 -9 14q-8 2 -18 2v3l106 64v-336v-67q0 -24 5 -39q4 -13 12 -19q7 -6 21 -9v-3h-145v3zM81 -175l-3 1q-31 0 -48 17
t-17 45q0 23 12 41q13 19 30 32q21 15 37 23l31 16h4q-22 -13 -40 -39q-18 -25 -18 -60q0 -19 11 -32q10 -12 30 -12q25 0 42 14l2 -2q-3 -5 -9 -12t-15 -15t-21 -12q-13 -5 -28 -5z" />
    <glyph glyph-name="Idotaccent" unicode="&#x130;" horiz-adv-x="191" 
d="M12 3l-1 -2q16 4 25 12q8 7 13 29q5 21 6 63q1 28 1 116v306q0 88 -1 116q-1 42 -6 63q-5 22 -13 29q-9 8 -25 12v3h167v-3q-15 -5 -24 -12t-13 -28q-5 -21 -6 -63q-1 -28 -1 -116v-306q0 -88 1 -116q1 -42 6 -63q4 -20 14 -28q9 -7 24 -12v-3h-167v3zM95 777
q-18 0 -30 12t-12 30t12 30t30 12t30 -12t12 -30t-12 -30t-30 -12z" />
    <glyph glyph-name="dotlessi" unicode="&#x131;" horiz-adv-x="182" 
d="M19 3l-2 -1q11 3 19 9q8 7 11 19q3 14 3 39v67v154v65q0 23 -3 35q-3 13 -9 14q-8 2 -18 2v3l106 64v-336v-67q0 -24 5 -39q4 -13 12 -19q7 -6 21 -9v-3h-145v3z" />
    <glyph glyph-name="IJ" unicode="&#x132;" horiz-adv-x="503" 
d="M12 3l-1 -2q16 4 25 12q8 7 13 29q5 21 6 63q1 28 1 116v306q0 88 -1 116q-1 42 -6 63q-5 22 -13 29q-9 8 -25 12v3h167v-3q-15 -5 -24 -12t-13 -28q-5 -21 -6 -63q-1 -28 -1 -116v-306q0 -88 1 -116q1 -42 6 -63q4 -20 14 -28q9 -7 24 -12v-3h-167v3zM315 -11l1 -1
q-64 0 -96 20t-32 48q0 18 9 26q10 8 23 8q18 0 28 -9q11 -9 15 -31q7 -30 17 -44q9 -14 35 -14q23 0 38 17t15 54v462q0 88 -1 116q-1 42 -6 63q-5 22 -13 29q-9 7 -24 12v3h167v-3q-16 -4 -25 -12q-9 -7 -13 -28q-5 -21 -6 -63q-1 -28 -1 -116v-401q0 -30 -11 -57
q-10 -24 -29 -43q-18 -18 -42 -27t-49 -9z" />
    <glyph glyph-name="ij" unicode="&#x133;" horiz-adv-x="363" 
d="M89 551q-18 0 -30 12t-12 30t12 30t30 12t30 -12t12 -30t-12 -30t-30 -12zM19 3l-2 -1q11 3 19 9q8 7 11 19q3 14 3 39v67v154v65q0 23 -3 35q-3 13 -9 14q-8 2 -18 2v3l106 64v-336v-67q0 -24 5 -39q4 -13 12 -19q7 -6 21 -9v-3h-145v3zM269 550q-18 0 -30 12t-12 30
t12 30t30 12t30 -12t12 -30t-12 -30t-30 -12zM153 -131q-16 0 -27 7q-12 8 -12 21t9 21q8 7 21 7q10 0 18 -5q7 -4 14 -11q8 -8 12 -11q7 -5 14 -5q4 0 12 5q3 1 6 8q3 6 6 21q2 12 4 40q2 34 2 64v258q0 50 -1 65q-2 26 -4 35q-3 13 -9 14q-8 2 -18 2v3l107 64v-420
q0 -32 -9 -56q-9 -23 -21 -43q-11 -18 -27 -34q-13 -13 -30 -25q-23 -17 -37 -21q-13 -4 -30 -4z" />
    <glyph glyph-name="Jcircumflex" unicode="&#x134;" horiz-adv-x="312" 
d="M125 -9l1 -1q-64 0 -96 20t-32 48q0 18 9 26q10 8 23 8q17 0 28 -9t15 -31q7 -30 17 -44q9 -14 35 -14q23 0 38 17t15 54v462q0 88 -1 116q-1 42 -6 63q-5 22 -13 29q-9 7 -24 12v3h167v-3q-16 -4 -25 -12q-9 -7 -13 -28q-5 -21 -6 -63q-1 -28 -1 -116v-401
q0 -30 -11 -57q-10 -24 -29 -43q-18 -18 -42 -27t-49 -9zM218 879l117 -106l-3 -1l-114 50l-114 -50l-3 1z" />
    <glyph glyph-name="jcircumflex" unicode="&#x135;" horiz-adv-x="180" 
d="M-27 -130h1q-16 0 -27 7q-12 7 -12 21t9 21q8 7 21 7q10 0 18 -5t14 -11q8 -8 12 -11q7 -5 14 -5q4 0 12 5q3 1 6 8q3 6 6 21q2 12 4 40q2 34 2 64v258q0 50 -1 65q-2 26 -4 35q-3 13 -9 14q-8 2 -18 2v3l106 64v-420q0 -30 -8 -56q-7 -23 -21 -43t-28 -34
q-13 -13 -30 -25q-23 -17 -37 -21q-13 -4 -30 -4zM93 706l101 -174l-3 -1l-98 100l-98 -100l-3 1z" />
    <glyph glyph-name="uni0136" unicode="&#x136;" horiz-adv-x="507" 
d="M353 2l-1 -1q22 7 22 26q0 17 -23 55l-212 332l226 239q24 25 36 42q13 17 14 27t-6 16q-6 5 -21 10v2h91v-2q-10 -4 -15 -7q-9 -6 -17 -12q-3 -3 -10.5 -10t-11.5 -10q-13 -12 -31 -31l-195 -206l246 -394q21 -34 36 -52q13 -16 30 -24v-2h-158v2zM11 2l-1 -2
q16 4 25 12q8 7 13 29q4 21 6 63q1 28 1 116v306q0 88 -1 116q-2 42 -6 63q-5 22 -13 29q-9 8 -25 12v3h167v-3q-15 -4 -24 -12q-9 -7 -13 -28t-6 -63q-1 -28 -1 -116v-306q0 -88 1 -116q2 -42 6 -63q4 -20 14 -28q9 -8 24 -12v-3h-167v3zM272 -120l-2 -4q-2 -2 -10 -7
q-7 -4 -19 -4q-16 0 -27 10q-12 10 -12 28q0 19 12 30q11 10 29 10q20 0 33 -13q14 -14 14 -39q0 -19 -6 -33t-15 -23q-8 -8 -21 -13q-12 -5 -25 -6l-2 5q23 4 40 15q16 10 16 30q0 9 -5 14z" />
    <glyph glyph-name="uni0137" unicode="&#x137;" horiz-adv-x="391" 
d="M19 2l-5 3q11 3 19 9q8 7 11 19q3 13 3 39v67v449q0 57 -1 74q-2 29 -4 38q-3 12 -11 14q-10 2 -21 2v3l112 58v-526l162 154q29 27 21 41t-30 17v2h104v-2q-14 -4 -20 -7q-7 -4 -19 -12q-8 -6 -22 -18q-16 -14 -29 -27l-111 -105l172 -239q20 -27 30 -36q11 -9 19 -12
v-4h-143v4q3 1 11 5q7 3 8 9q2 7 -1 15q-4 11 -13 23l-135 181v-104v-67q0 -24 5 -39q4 -13 12 -19q7 -6 21 -9v-2h-145v2zM217 -114l-2 -4q-3 -2 -10 -7q-7 -4 -19 -4q-16 0 -27 10q-12 11 -12 28q0 19 12 30q11 10 29 10q20 0 33 -13q14 -14 14 -39q0 -19 -6 -33t-15 -23
q-8 -8 -21 -13q-12 -5 -25 -6l-2 5q23 4 40 15q16 10 16 30q0 9 -5 14z" />
    <glyph glyph-name="Lacute" unicode="&#x139;" horiz-adv-x="429" 
d="M12 3l-2 -1q16 4 25 12q8 7 13 29q4 21 6 63q1 28 1 116v306q0 88 -1 116q-2 42 -6 63q-5 22 -13 29q-9 8 -25 12v3h167v-3q-15 -4 -24 -12q-9 -7 -13 -28t-6 -63q-1 -28 -1 -116v-524h142q30 0 54 3t42 15q19 13 32 36q14 26 23 63h4l-16 -112q-2 -8 -4 -9t-6 -1h-392v3
zM11 775l132 85q4 2 10 5.5t7 4.5q7 4 18 4q12 0 18 -7t6 -16q0 -13 -9 -22q-10 -10 -28 -14l-153 -42z" />
    <glyph glyph-name="lacute" unicode="&#x13a;" horiz-adv-x="182" 
d="M20 3l-1 1q11 3 19 9q8 7 11 19q3 14 3 39v67v448q0 55 -1 72q-2 29 -4 38q-3 12 -11 14q-10 2 -21 2v2l112 58v-635v-67q0 -24 5 -39q4 -13 12 -19t21 -9v-3h-145v3zM9 777l132 85q4 2 10 5.5t7 4.5q7 4 18 4q12 0 18 -7t6 -16q0 -13 -9 -22q-10 -10 -28 -14l-153 -42z
" />
    <glyph glyph-name="uni013B" unicode="&#x13b;" horiz-adv-x="429" 
d="M12 3l-2 -1q16 4 25 12q8 7 13 29q4 21 6 63q1 28 1 116v306q0 88 -1 116q-2 42 -6 63q-5 22 -13 29q-9 8 -25 12v3h167v-3q-15 -4 -24 -12q-9 -7 -13 -28t-6 -63q-1 -28 -1 -116v-524h142q30 0 54 3t42 15q19 13 32 36q14 26 23 63h4l-16 -112q-2 -8 -4 -9t-6 -1h-392v3
zM253 -118l-2 -4q-3 -2 -10 -7q-7 -4 -19 -4q-16 0 -27 10q-12 11 -12 28q0 19 12 30q11 10 29 10q20 0 33 -13q14 -14 14 -39q0 -19 -6 -33t-15 -23q-8 -8 -21 -13q-12 -5 -25 -6l-2 5q23 4 40 15q16 10 16 30q0 9 -5 14z" />
    <glyph glyph-name="uni013C" unicode="&#x13c;" horiz-adv-x="182" 
d="M19 3l-1 1q11 3 19 9q8 7 11 19q3 14 3 39v67v448q0 55 -1 72q-2 29 -4 38q-3 12 -11 14q-10 2 -21 2v2l112 58v-635v-67q0 -24 5 -39q4 -13 12 -19q7 -6 21 -9v-3h-145v3zM111 -116l-2 -4q-3 -3 -10 -7t-19 -4q-16 0 -27 10q-12 11 -12 28q0 19 12 30q11 10 29 10
q20 0 33 -13q14 -14 14 -39q0 -19 -6 -33t-15 -23q-8 -8 -21 -13q-12 -5 -25 -6l-2 5q23 4 40 15q16 10 16 30q0 9 -5 14z" />
    <glyph glyph-name="Lcaron" unicode="&#x13d;" horiz-adv-x="429" 
d="M12 3l-2 -1q16 4 25 12q8 7 13 29q4 21 6 63q1 28 1 116v306q0 88 -1 116q-2 42 -6 63q-5 22 -13 29q-9 8 -25 12v3h167v-3q-15 -4 -24 -12q-9 -7 -13 -28t-6 -63q-1 -28 -1 -116v-524h142q30 0 54 3t42 15q19 13 32 36q14 26 23 63h4l-16 -112q-2 -8 -4 -9t-6 -1h-392v3
zM190 583l11 130q2 23 9 35q8 12 22 12q12 0 19 -7t7 -18q0 -13 -9 -34l-56 -119z" />
    <glyph glyph-name="lcaron" unicode="&#x13e;" horiz-adv-x="182" 
d="M19 3l-1 1q11 3 19 9q8 7 11 19q3 14 3 39v67v448q0 55 -1 72q-2 29 -4 38q-3 12 -11 14q-10 2 -21 2v2l112 58v-635v-67q0 -24 5 -39q4 -13 12 -19q7 -6 21 -9v-3h-145v3zM167 582l11 130q2 23 9 35t22 12q12 0 19 -7t7 -18q0 -13 -9 -34l-56 -119z" />
    <glyph glyph-name="Ldot" unicode="&#x13f;" horiz-adv-x="429" 
d="M309 344q-20 0 -33 13t-13 33t13 33t33 13t33 -13t13 -33t-13 -33t-33 -13zM12 3l-2 -1q16 4 25 12q8 7 13 29q4 21 6 63q1 28 1 116v306q0 88 -1 116q-2 42 -6 63q-5 22 -13 29q-9 8 -25 12v3h167v-3q-15 -4 -24 -12q-9 -7 -13 -28t-6 -63q-1 -28 -1 -116v-524h142
q30 0 54 3t42 15q19 13 32 36q14 26 23 63h4l-16 -112q-2 -8 -4 -9t-6 -1h-392v3z" />
    <glyph glyph-name="ldot" unicode="&#x140;" horiz-adv-x="243" 
d="M213 319q-20 0 -33 13t-13 33t13 33t33 13t33 -13t13 -33t-13 -33t-33 -13zM19 3l-1 1q11 3 19 9q8 7 11 19q3 14 3 39v67v448q0 55 -1 72q-2 29 -4 38q-3 12 -11 14q-10 2 -21 2v2l112 58v-635v-67q0 -24 5 -39q4 -13 12 -19q7 -6 21 -9v-3h-145v3z" />
    <glyph glyph-name="Lslash" unicode="&#x141;" horiz-adv-x="429" 
d="M-12 280l-2 3l282 174l2 -3zM12 3l-2 -1q16 4 25 12q8 7 13 29q4 21 6 63q1 28 1 116v306q0 88 -1 116q-2 42 -6 63q-5 22 -13 29q-9 8 -25 12v3h167v-3q-15 -4 -24 -12q-9 -7 -13 -28t-6 -63q-1 -28 -1 -116v-524h142q30 0 54 3t42 15q19 13 32 36q14 26 23 63h4
l-16 -112q-2 -8 -4 -9t-6 -1h-392v3z" />
    <glyph glyph-name="lslash" unicode="&#x142;" horiz-adv-x="182" 
d="M-11 312l-3 2l205 153l3 -2zM19 3l-1 1q11 3 19 9q8 7 11 19q3 14 3 39v67v448q0 55 -1 72q-2 29 -4 38q-3 12 -11 14q-10 2 -21 2v2l112 58v-635v-67q0 -24 5 -39q4 -13 12 -19q7 -6 21 -9v-3h-145v3z" />
    <glyph glyph-name="Nacute" unicode="&#x143;" horiz-adv-x="518" 
d="M12 3l1 -3q16 4 25 12q8 7 13 29q5 21 6 63q1 28 1 116v306q0 88 -1 116q-1 42 -6 63q-5 22 -13 29q-9 8 -25 12v3h112q11 0 15 -4q6 -6 14 -21l305 -569v372q0 88 -1 116q-2 42 -6 63q-5 22 -13 29q-9 7 -24 12v3h93v-3q-16 -4 -25 -12q-9 -7 -13 -28t-6 -63
q-1 -28 -1 -116v-531h-9l-394 732v-507q0 -88 1 -116q1 -42 6 -63q4 -20 14 -28q9 -7 24 -12v-3h-93v3zM205 773l132 85q4 2 10 5.5t7 4.5q7 4 18 4q12 0 18 -7t6 -16q0 -13 -9 -22q-10 -10 -28 -14l-153 -42z" />
    <glyph glyph-name="nacute" unicode="&#x144;" 
d="M19 3l-4 -2q11 3 19 9q8 7 11 19q3 13 3 39v67v154v65q0 22 -3 33t-9 14t-18 3v3l105 64v-96l15 14q22 22 44 39q20 15 36 24t32 12q15 3 29 3q21 0 40 -6q20 -6 33 -19q14 -14 21 -34q8 -22 8 -51v-221v-67q0 -25 3 -39q3 -13 10 -19q8 -6 21 -9v-3h-144v3q13 3 21 9
t12 19q5 15 5 39v67v234q0 47 -14 67q-13 19 -39 19q-8 0 -19 -3q-12 -4 -24 -10t-31 -21q-18 -14 -42 -36l-15 -14v-235v-67q0 -24 5 -39q4 -13 12 -19t21 -9v-3h-144v3zM173 531l79 137q7 16 17 24t21 8q12 0 20 -9q8 -10 8 -19q0 -10 -6 -19t-16 -19l-121 -105z" />
    <glyph glyph-name="uni0145" unicode="&#x145;" horiz-adv-x="518" 
d="M12 3l1 -3q16 4 25 12q8 7 13 29q5 21 6 63q1 28 1 116v306q0 88 -1 116q-1 42 -6 63q-5 22 -13 29q-9 8 -25 12v3h112q11 0 15 -4q6 -6 14 -21l305 -569v372q0 88 -1 116q-2 42 -6 63q-5 22 -13 29q-9 7 -24 12v3h93v-3q-16 -4 -25 -12q-9 -7 -13 -28t-6 -63
q-1 -28 -1 -116v-531h-9l-394 732v-507q0 -88 1 -116q1 -42 6 -63q4 -20 14 -28q9 -7 24 -12v-3h-93v3zM276 -120l-2 -4q-3 -2 -10 -7q-7 -4 -19 -4q-16 0 -27 10q-12 10 -12 28q0 19 12 30q11 10 29 10q20 0 33 -13q14 -14 14 -39q0 -19 -6 -33t-15 -23q-8 -8 -21 -13
q-12 -5 -25 -6l-2 5q23 4 40 15q16 10 16 30q0 9 -5 14z" />
    <glyph glyph-name="uni0146" unicode="&#x146;" 
d="M19 3l-4 -2q11 3 19 9q8 7 11 19q3 13 3 39v67v154v65q0 22 -3 33t-9 14t-18 3v3l105 64v-96l15 14q22 22 44 39q20 15 36 24t32 12q15 3 29 3q21 0 40 -6q20 -6 33 -19q14 -14 21 -34q8 -22 8 -51v-221v-67q0 -25 3 -39q3 -13 10 -19q8 -6 21 -9v-3h-144v3q13 3 21 9
t12 19q5 15 5 39v67v234q0 47 -14 67q-13 19 -39 19q-8 0 -19 -3q-12 -4 -24 -10t-31 -21q-18 -14 -42 -36l-15 -14v-235v-67q0 -24 5 -39q4 -13 12 -19t21 -9v-3h-144v3zM233 -119l-2 -4q-3 -3 -10 -7t-19 -4q-16 0 -27 10q-12 11 -12 28q0 20 12 30q11 10 29 10
q20 0 33 -13q14 -14 14 -39q0 -20 -6 -33q-6 -14 -15 -23q-8 -8 -21 -13q-12 -5 -25 -6l-2 5q23 4 40 15q16 10 16 30q0 9 -5 14z" />
    <glyph glyph-name="Ncaron" unicode="&#x147;" horiz-adv-x="518" 
d="M12 3l1 -3q16 4 25 12q8 7 13 29q5 21 6 63q1 28 1 116v306q0 88 -1 116q-1 42 -6 63q-5 22 -13 29q-9 8 -25 12v3h112q11 0 15 -4q6 -6 14 -21l305 -569v372q0 88 -1 116q-2 42 -6 63q-5 22 -13 29q-9 7 -24 12v3h93v-3q-16 -4 -25 -12q-9 -7 -13 -28t-6 -63
q-1 -28 -1 -116v-531h-9l-394 732v-507q0 -88 1 -116q1 -42 6 -63q4 -20 14 -28q9 -7 24 -12v-3h-93v3zM172 881l114 -50l114 50l3 -1l-117 -106l-117 106z" />
    <glyph glyph-name="ncaron" unicode="&#x148;" 
d="M19 3l-4 -2q11 3 19 9q8 7 11 19q3 13 3 39v67v154v65q0 22 -3 33t-9 14t-18 3v3l105 64v-96l15 14q22 22 44 39q20 15 36 24t32 12q15 3 29 3q21 0 40 -6q20 -6 33 -19q14 -14 21 -34q8 -22 8 -51v-221v-67q0 -25 3 -39q3 -13 10 -19q8 -6 21 -9v-3h-144v3q13 3 21 9
t12 19q5 15 5 39v67v234q0 47 -14 67q-13 19 -39 19q-8 0 -19 -3q-12 -4 -24 -10t-31 -21q-18 -14 -42 -36l-15 -14v-235v-67q0 -24 5 -39q4 -13 12 -19t21 -9v-3h-144v3zM115 707l98 -100l98 100l3 -1l-101 -174l-101 174z" />
    <glyph glyph-name="napostrophe" unicode="&#x149;" horiz-adv-x="435" 
d="M19 3l-4 -2q11 3 19 9q8 7 11 19q3 13 3 39v67v154v65q0 22 -3 33t-9 14t-18 3v3l105 64v-96l15 14q22 22 44 39q20 15 36 24t32 12q15 3 29 3q21 0 40 -6q20 -6 33 -19q14 -14 21 -34q8 -22 8 -51v-221v-67q0 -25 3 -39q3 -13 10 -19q8 -6 21 -9v-3h-144v3q13 3 21 9
t12 19q5 15 5 39v67v234q0 47 -14 67q-13 19 -39 19q-8 0 -19 -3q-12 -4 -24 -10t-31 -21q-18 -14 -42 -36l-15 -14v-235v-67q0 -24 5 -39q4 -13 12 -19t21 -9v-3h-144v3zM27 687l1 1q-4 -4 -12 -9q-7 -4 -21 -4t-27 11q-12 10 -12 30t12 30q13 11 29 11q20 0 35 -15t15 -46
q0 -42 -18 -69q-19 -28 -46 -44l-3 4q25 16 39 38t14 44q0 12 -6 18z" />
    <glyph glyph-name="Eng" unicode="&#x14a;" horiz-adv-x="518" 
d="M12 3l-2 -5q16 4 25 12q8 7 13 29q4 21 6 63q1 28 1 116v306q0 88 -1 116q-2 42 -6 63q-5 22 -13 29q-9 8 -25 12v3h112q11 0 15 -4q6 -6 14 -21l305 -569v372q0 88 -1 116q-1 42 -6 63q-5 22 -13 29q-9 7 -24 12v3h93v-3q-16 -4 -25 -12q-9 -7 -13 -28q-5 -21 -6 -63
q-1 -28 -1 -116v-551q0 -54 -28 -81t-69 -27q-55 0 -89 23q-33 22 -33 54q0 16 9 24q10 8 23 8q17 0 26 -9q10 -10 14 -31q7 -32 15 -48q7 -16 36 -16q42 0 68 27q26 28 26 80v10l-398 740l-1 -507q0 -88 1 -116q2 -42 6 -63q4 -20 14 -28q9 -7 24 -12l1 -3h-93v3z" />
    <glyph glyph-name="eng" unicode="&#x14b;" horiz-adv-x="432" 
d="M19 3l-4 -1q11 3 19 9q8 7 11 19q3 14 3 39v67v154v65q0 23 -3 33q-3 11 -9 14t-18 3v3l105 64v-96l15 14q22 22 44 39q20 15 36 24t32 12q15 3 29 3q21 0 40 -6q20 -6 33 -19q14 -14 21 -34q8 -22 8 -51v-305q0 -32 -9 -56q-9 -23 -21 -43q-11 -18 -27 -34
q-13 -13 -30 -25q-23 -17 -37 -21q-13 -4 -30 -4q-14 0 -25 7q-12 7 -12 21t9 21q8 7 21 7q10 0 18 -5t14 -11q8 -8 12 -11q7 -5 14 -5q5 0 13 5q3 1 6 8q3 6 6 21q2 12 4 40q2 34 2 64v338q0 47 -14 67q-13 19 -39 19q-8 0 -19 -3q-12 -4 -24 -10t-31 -21q-18 -14 -42 -36
l-15 -14v-235v-67q0 -24 5 -39q4 -13 12 -19t21 -9v-3h-144v3z" />
    <glyph glyph-name="Omacron" unicode="&#x14c;" horiz-adv-x="588" 
d="M294 -6l-4 -1q-50 0 -99 26q-47 25 -85 75t-60 120q-22 69 -22 162q0 90 23 162q23 71 60 119q36 47 86 73q47 25 99 25t99 -25q50 -26 86 -73q37 -48 60 -119q23 -72 23 -162q0 -93 -22 -162q-22 -70 -60 -120t-85 -75t-99 -25zM290 -3l-1 -1q39 0 72 24t57 71
q25 48 38 117q14 73 14 165q0 97 -13 165q-13 69 -38 117q-24 47 -57 69q-34 23 -72 23t-72 -23q-33 -22 -57 -69q-25 -48 -38 -117q-14 -73 -14 -165t14 -165q13 -69 38 -117q24 -46 57 -70t72 -24zM381 787h-183v32h183v-32z" />
    <glyph glyph-name="omacron" unicode="&#x14d;" 
d="M218 -8v-1q-32 0 -66 15t-63 44t-47 72q-18 44 -18 102q0 59 18 104q18 44 47 75t63 47q33 16 66 16t66 -16q35 -17 63 -46q29 -31 47 -75q18 -45 18 -104t-18 -102t-47 -72t-63 -44t-66 -15zM218 -5v-3q22 0 43 12q20 12 37 39q16 27 27 71q10 41 10 108q0 70 -10 113
q-11 46 -27 74q-17 30 -37 41q-21 12 -43 12t-43 -12t-37 -40q-17 -29 -27 -73q-10 -43 -10 -112q0 -67 10 -108q11 -44 27 -71q17 -27 37 -39q21 -12 43 -12zM305 600v-32h-173v32h173z" />
    <glyph glyph-name="Obreve" unicode="&#x14e;" horiz-adv-x="588" 
d="M294 -6l-4 -1q-50 0 -99 26q-47 25 -85 75t-60 120q-22 69 -22 162q0 90 23 162q23 71 60 119q36 47 86 73q47 25 99 25t99 -25q50 -26 86 -73q37 -48 60 -119q23 -72 23 -162q0 -93 -22 -162q-22 -70 -60 -120t-85 -75t-99 -25zM290 -3l-1 -1q39 0 72 24t57 71
q25 48 38 117q14 73 14 165q0 97 -13 165q-13 69 -38 117q-24 47 -57 69q-34 23 -72 23t-72 -23q-33 -22 -57 -69q-25 -48 -38 -117q-14 -73 -14 -165t14 -165q13 -69 38 -117q24 -46 57 -70t72 -24zM290 820l-2 1q38 0 56 15t26 35h4q-1 -14 -6 -31q-4 -16 -15 -30t-26 -23
t-37 -9q-23 0 -38 9t-26 23q-10 12 -16 30q-5 14 -7 32h4q6 -19 26 -36q19 -16 57 -16z" />
    <glyph glyph-name="obreve" unicode="&#x14f;" 
d="M218 -8v-1q-32 0 -66 15t-63 44t-47 72q-18 44 -18 102q0 59 18 104q18 44 47 75t63 47q33 16 66 16t66 -16q35 -17 63 -46q29 -31 47 -75q18 -45 18 -104t-18 -102t-47 -72t-63 -44t-66 -15zM218 -5v-3q22 0 43 12q20 12 37 39q16 27 27 71q10 41 10 108q0 70 -10 113
q-11 46 -27 74q-17 30 -37 41q-21 12 -43 12t-43 -12t-37 -40q-17 -29 -27 -73q-10 -43 -10 -112q0 -67 10 -108q11 -44 27 -71q17 -27 37 -39q21 -12 43 -12zM219 581l2 -4q35 0 53 18q18 19 26 47h4q-2 -22 -7 -40q-6 -20 -16 -34q-11 -16 -25 -24q-15 -9 -36 -9t-36 9
q-16 10 -26 24q-10 15 -15 35q-5 19 -6 42h4q4 -28 24 -46q19 -18 54 -18z" />
    <glyph glyph-name="Ohungarumlaut" unicode="&#x150;" horiz-adv-x="588" 
d="M294 -6l-4 -1q-50 0 -99 26q-47 25 -85 75t-60 120q-22 69 -22 162q0 90 23 162q23 71 60 119q36 47 86 73q47 25 99 25t99 -25q50 -26 86 -73q37 -48 60 -119q23 -72 23 -162q0 -93 -22 -162q-22 -70 -60 -120t-85 -75t-99 -25zM290 -3l-1 -1q39 0 72 24t57 71
q25 48 38 117q14 73 14 165q0 97 -13 165q-13 69 -38 117q-24 47 -57 69q-34 23 -72 23t-72 -23q-33 -22 -57 -69q-25 -48 -38 -117q-14 -73 -14 -165t14 -165q13 -69 38 -117q24 -46 57 -70t72 -24zM340 768l53 86q7 14 15 21q8 8 21 8q11 0 17 -6t6 -16q0 -11 -6 -18
q-7 -9 -15 -14l-88 -63zM212 767l53 86q7 13 15 21t21 8q11 0 17 -6t6 -16q0 -17 -21 -32l-88 -63z" />
    <glyph glyph-name="ohungarumlaut" unicode="&#x151;" 
d="M218 -8v-1q-32 0 -66 15t-63 44t-47 72q-18 44 -18 102q0 59 18 104q18 44 47 75t63 47q33 16 66 16t66 -16q35 -17 63 -46q29 -31 47 -75q18 -45 18 -104t-18 -102t-47 -72t-63 -44t-66 -15zM218 -5v-3q22 0 43 12q20 12 37 39q16 27 27 71q10 41 10 108q0 70 -10 113
q-11 46 -27 74q-17 30 -37 41q-21 12 -43 12t-43 -12t-37 -40q-17 -29 -27 -73q-10 -43 -10 -112q0 -67 10 -108q11 -44 27 -71q17 -27 37 -39q21 -12 43 -12zM263 531l35 132q5 20 12 29q8 9 22 9q11 0 17 -7q6 -8 6 -18q0 -8 -3 -15q-2 -5 -8 -15l-78 -116zM155 530
l35 132q5 20 12 29q8 9 21 9q12 0 18 -7t6 -18q0 -7 -3 -15q-2 -5 -8 -15l-78 -116z" />
    <glyph glyph-name="OE" unicode="&#x152;" horiz-adv-x="791" 
d="M632 337l-3 -3l-6 24q-3 12 -11 23q-7 10 -23 18q-14 7 -42 7h-63v-405h149q30 0 54 3q23 3 42 14q18 10 30 32q11 19 19 56h5l-11 -100q-2 -8 -4 -9t-6 -1h-426q-64 0 -119 24q-56 24 -98 72t-66 118t-24 164t24 165t66 117t98 69q57 23 119 23h396q4 0 8 -2t5 -12
l15 -83h-5q-13 55 -48 75t-90 20h-130v-333h63q27 0 42 6t23 17q8 12 11 24q2 9 6 25h3v-148h-3zM333 743l-3 -1q-52 0 -94 -21q-41 -21 -70 -66q-29 -46 -44 -115q-15 -70 -15 -168t15 -168t44 -116q28 -45 71 -66q42 -21 94 -21q26 0 41 6t21 29q7 25 8 66q2 58 2 117v306
q0 88 -1 117q-1 41 -8 66q-6 23 -21 29t-40 6z" />
    <glyph glyph-name="oe" unicode="&#x153;" horiz-adv-x="679" 
d="M215 -8l-4 -6q-29 0 -64 15q-34 15 -63 44q-28 28 -46 72q-18 43 -18 102t18 104q18 44 47 75t63 47q33 16 64 16q38 0 80 -24t71 -71q29 48 69 72t78 24q52 0 94 -36q43 -37 56 -108h-252q-2 -16 -3 -36q-1 -13 -1 -42q0 -64 11 -113q11 -47 30 -75q20 -29 46 -42
t58 -13t59 12q26 12 45 29l3 -3q-20 -17 -48 -30q-27 -13 -69 -13q-50 0 -96 23t-74 69q-29 -46 -72 -69q-44 -23 -82 -23zM511 459v-1q-13 0 -28 -6q-16 -6 -29 -21q-14 -16 -26 -42q-12 -27 -18 -67h188q-3 71 -30 104t-57 33zM211 -11v-3q21 0 42 12q20 12 37 39
q16 27 27 71q10 41 10 108q0 70 -10 113q-11 46 -27 74q-17 30 -37 41q-21 12 -42 12t-41 -12t-36 -40q-17 -29 -27 -73q-10 -43 -10 -112q0 -67 10 -108q11 -44 27 -71t36 -39t41 -12z" />
    <glyph glyph-name="Racute" unicode="&#x154;" horiz-adv-x="509" 
d="M12 3l-2 -8q16 4 25 12q8 7 13 29q4 21 6 63q1 28 1 116v306q0 88 -1 116q-2 42 -6 63q-5 22 -13 29q-9 8 -25 12v3h209q61 0 107 -9q47 -9 80 -30q34 -22 50 -55q17 -36 17 -84q0 -51 -19 -86q-20 -36 -51 -60q-32 -24 -73 -36q-42 -12 -87 -12l-30 1q30 -3 57 -14
q26 -11 45 -33q18 -21 34 -57q15 -35 24 -84q17 -96 39 -138t62 -42q20 0 30 6q11 6 20 17l3 -2q-11 -14 -30 -24t-51 -10q-24 0 -48 8q-22 8 -42 27q-19 19 -36 56q-16 36 -27 92q-16 83 -22 112q-9 41 -21 60t-30 24q-20 5 -52 5h-34v-154q0 -88 1 -116q1 -42 6 -63
q4 -20 14 -28q9 -7 24 -12v-3h-167v3zM133 738l1 -366h110q82 0 117 47t35 135q0 97 -41 141q-40 43 -138 43h-84zM163 768l132 85q4 2 10 5.5t7 4.5q7 4 18 4q12 0 18 -7q6 -8 6 -16q0 -13 -9 -22q-10 -10 -28 -14l-153 -42z" />
    <glyph glyph-name="racute" unicode="&#x155;" horiz-adv-x="291" 
d="M19 3l-2 -3q11 3 19 9q8 7 11 19q3 14 3 39v67v142v72q0 26 -3 38t-9 15t-18 3v3l106 64v-107l33 35q29 30 51 49q19 16 44 16q21 0 29 -11t8 -24t-9 -22t-22 -9q-11 0 -18 4q-10 6 -14 10t-12 10q-5 4 -13 4q-11 0 -18 -6t-24 -24l-33 -35v-224v-67q0 -24 5 -39
q4 -13 12 -19q7 -6 21 -9v-3h-147v3zM136 530l79 137q7 16 17 24t21 8q13 0 20 -9q8 -10 8 -19q0 -10 -6 -19t-16 -19l-121 -105z" />
    <glyph glyph-name="uni0156" unicode="&#x156;" horiz-adv-x="509" 
d="M12 3l-2 -8q16 4 25 12q8 7 13 29q4 21 6 63q1 28 1 116v306q0 88 -1 116q-2 42 -6 63q-5 22 -13 29q-9 8 -25 12v3h209q61 0 107 -9q47 -9 80 -30q34 -22 50 -55q17 -36 17 -84q0 -51 -19 -86q-20 -36 -51 -60q-32 -24 -73 -36q-42 -12 -87 -12l-30 1q30 -3 57 -14
q26 -11 45 -33q18 -21 34 -57q15 -35 24 -84q17 -96 39 -138t62 -42q20 0 30 6q11 6 20 17l3 -2q-11 -14 -30 -24t-51 -10q-24 0 -48 8q-22 8 -42 27q-19 19 -36 56q-16 36 -27 92q-16 83 -22 112q-9 41 -21 60t-30 24q-20 5 -52 5h-34v-154q0 -88 1 -116q1 -42 6 -63
q4 -20 14 -28q9 -7 24 -12v-3h-167v3zM133 738l1 -366h110q82 0 117 47t35 135q0 97 -41 141q-40 43 -138 43h-84zM273 -125l-2 -4q-3 -3 -10 -7t-19 -4q-16 0 -27 10q-12 11 -12 28q0 20 12 30q11 10 29 10q20 0 33 -13q14 -14 14 -39q0 -20 -6 -33q-6 -14 -15 -23
q-8 -8 -21 -13q-12 -5 -25 -6l-2 5q23 4 40 15q16 10 16 30q0 9 -5 14z" />
    <glyph glyph-name="uni0157" unicode="&#x157;" horiz-adv-x="291" 
d="M19 3l-2 -3q11 3 19 9q8 7 11 19q3 14 3 39v67v142v72q0 26 -3 38t-9 15t-18 3v3l106 64v-107l33 35q29 30 51 49q19 16 44 16q21 0 29 -11t8 -24t-9 -22t-22 -9q-11 0 -18 4q-10 6 -14 10t-12 10q-5 4 -13 4q-11 0 -18 -6t-24 -24l-33 -35v-224v-67q0 -24 5 -39
q4 -13 12 -19q7 -6 21 -9v-3h-147v3zM108 -120l-2 -4q-2 -2 -10 -7q-7 -4 -19 -4q-16 0 -27 10q-12 10 -12 28q0 19 12 30q11 10 29 10q20 0 33 -13q14 -14 14 -39q0 -19 -6 -33t-15 -23q-8 -8 -21 -13q-12 -5 -25 -6l-2 5q23 4 40 15q16 10 16 30q0 9 -5 14z" />
    <glyph glyph-name="Rcaron" unicode="&#x158;" horiz-adv-x="509" 
d="M12 3l-2 -8q16 4 25 12q8 7 13 29q4 21 6 63q1 28 1 116v306q0 88 -1 116q-2 42 -6 63q-5 22 -13 29q-9 8 -25 12v3h209q61 0 107 -9q47 -9 80 -30q34 -22 50 -55q17 -36 17 -84q0 -51 -19 -86q-20 -36 -51 -60q-32 -24 -73 -36q-42 -12 -87 -12l-30 1q30 -3 57 -14
q26 -11 45 -33q18 -21 34 -57q15 -35 24 -84q17 -96 39 -138t62 -42q20 0 30 6q11 6 20 17l3 -2q-11 -14 -30 -24t-51 -10q-24 0 -48 8q-22 8 -42 27q-19 19 -36 56q-16 36 -27 92q-16 83 -22 112q-9 41 -21 60t-30 24q-20 5 -52 5h-34v-154q0 -88 1 -116q1 -42 6 -63
q4 -20 14 -28q9 -7 24 -12v-3h-167v3zM133 738l1 -366h110q82 0 117 47t35 135q0 97 -41 141q-40 43 -138 43h-84zM130 876l114 -50l114 50l3 -1l-117 -106l-117 106z" />
    <glyph glyph-name="rcaron" unicode="&#x159;" horiz-adv-x="291" 
d="M19 3l-2 -3q11 3 19 9q8 7 11 19q3 14 3 39v67v142v72q0 26 -3 38t-9 15t-18 3v3l106 64v-107l33 35q29 30 51 49q19 16 44 16q21 0 29 -11t8 -24t-9 -22t-22 -9q-11 0 -18 4q-10 6 -14 10t-12 10q-5 4 -13 4q-11 0 -18 -6t-24 -24l-33 -35v-224v-67q0 -24 5 -39
q4 -13 12 -19q7 -6 21 -9v-3h-147v3zM78 706l98 -100l98 100l3 -1l-101 -174l-101 174z" />
    <glyph glyph-name="Sacute" unicode="&#x15a;" horiz-adv-x="427" 
d="M214 -6l-3 -2q-38 0 -67 8q-25 7 -45 17q-4 2 -31 17q-14 8 -28 8q-17 0 -21 -22h-4v166h4q11 -90 60 -141t134 -51q34 0 59 11q24 11 39 30q16 21 23 45t7 57q0 38 -9 68q-9 31 -28 57q-19 27 -49 52q-30 26 -69 54q-15 11 -67 53q-28 22 -49 50q-19 25 -30 56
q-10 29 -10 67q0 36 14 67q13 29 38 51t56 32q33 11 68 11q32 0 57 -5q19 -4 37 -11q6 -2 14.5 -6t10.5 -5q12 -5 22 -5q17 0 24 28h5v-129h-5q-14 72 -56 101q-43 29 -107 29q-59 0 -90 -29q-30 -29 -30 -77q0 -31 9 -58q9 -26 26 -51q16 -23 42 -46q25 -23 60 -48
q39 -29 72 -54q34 -26 57 -55q25 -31 38 -66q14 -37 14 -82q0 -40 -15 -76t-40 -61t-61 -40t-76 -15zM132 774l132 85q4 2 10 5.5t7 4.5q7 4 18 4q12 0 18 -7q6 -8 6 -16q0 -13 -9 -22q-10 -10 -28 -14l-153 -42z" />
    <glyph glyph-name="sacute" unicode="&#x15b;" horiz-adv-x="312" 
d="M160 -2l-5 1q29 0 44 7q18 8 26 19q9 12 12 27t3 31q0 19 -6 36t-19 31q-14 16 -34 30q-25 18 -49 33q-52 33 -82 68q-28 32 -28 79q0 26 9 47t26 35q16 13 38 21t47 8q26 0 39 -4q17 -5 26 -9q3 -1 9 -4t9 -4q7 -3 18 -3q6 0 11 6t6 13h4v-99l-4 1q-18 57 -47 78t-69 21
q-37 0 -58 -18t-21 -50q0 -17 6 -30t18 -27t30 -27t45 -30q60 -38 92 -74q32 -37 32 -87q0 -60 -36 -94q-35 -34 -94 -34q-29 0 -47 6q-16 5 -31 12q-12 5 -22 12q-9 6 -19 6q-5 0 -10 -6t-6 -13h-4v130h4q17 -77 51 -111t86 -34zM112 534l79 137q7 16 17 24t21 8
q13 0 20 -9q8 -10 8 -19q0 -10 -6 -19t-16 -19l-121 -105z" />
    <glyph glyph-name="Scircumflex" unicode="&#x15c;" horiz-adv-x="427" 
d="M214 -6l-3 -2q-38 0 -67 8q-25 7 -45 17q-4 2 -31 17q-14 8 -28 8q-17 0 -21 -22h-4v166h4q11 -90 60 -141t134 -51q34 0 59 11q24 11 39 30q16 21 23 45t7 57q0 38 -9 68q-9 31 -28 57q-19 27 -49 52q-30 26 -69 54q-15 11 -67 53q-28 22 -49 50q-19 25 -30 56
q-10 29 -10 67q0 36 14 67q13 29 38 51t56 32q33 11 68 11q32 0 57 -5q19 -4 37 -11q6 -2 14.5 -6t10.5 -5q12 -5 22 -5q17 0 24 28h5v-129h-5q-14 72 -56 101q-43 29 -107 29q-59 0 -90 -29q-30 -29 -30 -77q0 -31 9 -58q9 -26 26 -51q16 -23 42 -46q25 -23 60 -48
q39 -29 72 -54q34 -26 57 -55q25 -31 38 -66q14 -37 14 -82q0 -40 -15 -76t-40 -61t-61 -40t-76 -15zM212 878l117 -106l-3 -1l-114 50l-114 -50l-3 1z" />
    <glyph glyph-name="scircumflex" unicode="&#x15d;" horiz-adv-x="312" 
d="M160 -2l-5 1q29 0 44 7q18 8 26 19q9 12 12 27t3 31q0 19 -6 36t-19 31q-14 16 -34 30q-25 18 -49 33q-52 33 -82 68q-28 32 -28 79q0 26 9 47t26 35q16 13 38 21t47 8q26 0 39 -4q17 -5 26 -9q3 -1 9 -4t9 -4q7 -3 18 -3q6 0 11 6t6 13h4v-99l-4 1q-18 57 -47 78t-69 21
q-37 0 -58 -18t-21 -50q0 -17 6 -30t18 -27t30 -27t45 -30q60 -38 92 -74q32 -37 32 -87q0 -60 -36 -94q-35 -34 -94 -34q-29 0 -47 6q-16 5 -31 12q-12 5 -22 12q-9 6 -19 6q-5 0 -10 -6t-6 -13h-4v130h4q17 -77 51 -111t86 -34zM152 707l101 -174l-3 -1l-98 100l-98 -100
l-3 1z" />
    <glyph glyph-name="uni015E" unicode="&#x15e;" horiz-adv-x="427" 
d="M193 -3l-27 -49q19 -2 35 -6q18 -5 30 -13q13 -9 21 -21q8 -13 8 -28q0 -32 -33 -51t-106 -18l-1 3q49 3 72 20t23 36q0 20 -22 29q-24 10 -48 11l-2 3l46 84h4zM212 -8l-3 -2q-38 0 -67 8q-25 7 -45 17q-4 2 -31 17q-14 8 -28 8q-17 0 -21 -22h-4v166h4q11 -90 60 -141
t134 -51q34 0 59 11q24 11 39 30q16 21 23 45t7 57q0 38 -9 68q-9 31 -28 57q-19 27 -49 52q-30 26 -69 54q-15 11 -67 53q-28 22 -49 50q-19 25 -30 56q-10 29 -10 67q0 36 14 67q13 29 38 51t56 32q33 11 68 11q32 0 57 -5q19 -4 37 -11q6 -2 14.5 -6t10.5 -5q12 -5 22 -5
q17 0 24 28h5v-129h-5q-14 72 -56 101q-43 29 -107 29q-59 0 -90 -29q-30 -29 -30 -77q0 -31 9 -58q9 -26 26 -51q16 -23 42 -46q25 -23 60 -48q39 -29 72 -54q34 -26 57 -55q25 -31 38 -66q14 -37 14 -82q0 -40 -15 -76t-40 -61t-61 -40t-76 -15z" />
    <glyph glyph-name="uni015F" unicode="&#x15f;" horiz-adv-x="312" 
d="M136 -1l-29 -51q19 -2 35 -6q18 -5 30 -13q14 -9 21 -21q8 -13 8 -28q0 -32 -33 -51t-106 -18l-1 3q51 3 74 20t23 36q0 20 -22 29q-24 10 -48 11l-2 3l46 86h4zM157 -4l-5 1q29 0 44 7q18 8 26 19q9 12 12 27t3 31q0 19 -6 36t-19 31q-14 16 -34 30q-25 18 -49 33
q-52 33 -82 68q-28 32 -28 79q0 26 9 47t26 35q16 13 38 21t47 8q26 0 39 -4q17 -5 26 -9q3 -1 9 -4t9 -4q8 -3 18 -3q6 0 11 6t6 13h4v-99l-4 1q-18 57 -47 78q-28 21 -69 21q-37 0 -58 -18t-21 -50q0 -17 6 -30t18 -27t30 -27t45 -30q60 -38 92 -74q32 -37 32 -87
q0 -60 -36 -94q-35 -34 -94 -34q-29 0 -47 6q-16 5 -31 12q-12 5 -22 12q-9 6 -19 6q-6 0 -10 -6q-5 -6 -6 -13h-4v130h4q16 -77 51 -111q34 -34 86 -34z" />
    <glyph glyph-name="Scaron" unicode="&#x160;" horiz-adv-x="427" 
d="M214 -6l-3 -2q-38 0 -67 8q-25 7 -45 17q-4 2 -31 17q-14 8 -28 8q-17 0 -21 -22h-4v166h4q11 -90 60 -141t134 -51q34 0 59 11q24 11 39 30q16 21 23 45t7 57q0 38 -9 68q-9 31 -28 57q-19 27 -49 52q-30 26 -69 54q-15 11 -67 53q-28 22 -49 50q-19 25 -30 56
q-10 29 -10 67q0 36 14 67q13 29 38 51t56 32q33 11 68 11q32 0 57 -5q19 -4 37 -11q6 -2 14.5 -6t10.5 -5q12 -5 22 -5q17 0 24 28h5v-129h-5q-14 72 -56 101q-43 29 -107 29q-59 0 -90 -29q-30 -29 -30 -77q0 -31 9 -58q9 -26 26 -51q16 -23 42 -46q25 -23 60 -48
q39 -29 72 -54q34 -26 57 -55q25 -31 38 -66q14 -37 14 -82q0 -40 -15 -76t-40 -61t-61 -40t-76 -15zM98 882l114 -50l114 50l3 -1l-117 -106l-117 106z" />
    <glyph glyph-name="scaron" unicode="&#x161;" horiz-adv-x="312" 
d="M160 -2l-5 1q29 0 44 7q18 8 26 19q9 12 12 27t3 31q0 19 -6 36t-19 31q-14 16 -34 30q-25 18 -49 33q-52 33 -82 68q-28 32 -28 79q0 26 9 47t26 35q16 13 38 21t47 8q26 0 39 -4q17 -5 26 -9q3 -1 9 -4t9 -4q7 -3 18 -3q6 0 11 6t6 13h4v-99l-4 1q-18 57 -47 78t-69 21
q-37 0 -58 -18t-21 -50q0 -17 6 -30t18 -27t30 -27t45 -30q60 -38 92 -74q32 -37 32 -87q0 -60 -36 -94q-35 -34 -94 -34q-29 0 -47 6q-16 5 -31 12q-12 5 -22 12q-9 6 -19 6q-5 0 -10 -6t-6 -13h-4v130h4q17 -77 51 -111t86 -34zM54 710l98 -100l98 100l3 -1l-101 -174
l-101 174z" />
    <glyph glyph-name="Tcommaaccent" unicode="&#x162;" horiz-adv-x="505" 
d="M169 3v-4q15 5 24 12q9 8 14 29t6 63q1 28 1 116v524h-66q-32 0 -53 -6q-22 -6 -36 -19q-16 -15 -26 -37q-12 -28 -20 -58h-4l15 110q2 11 3 12q2 2 6 2h442q4 0 6 -2q1 -1 3 -12l14 -110h-4q-9 33 -20 59q-11 24 -26 38q-16 14 -37 20q-23 6 -54 6h-66v-524
q0 -88 1 -116q2 -42 6 -63q4 -20 14 -28q9 -7 24 -12v-3h-167v3zM275 -121l-2 -4q-3 -2 -10 -7q-7 -4 -19 -4q-16 0 -27 10q-12 10 -12 28q0 20 12 30q11 10 29 10q20 0 33 -13q14 -14 14 -39q0 -20 -6 -33q-6 -14 -15 -23q-8 -8 -21 -13q-12 -5 -25 -6l-2 5q23 4 40 15
q16 10 16 30q0 9 -5 14z" />
    <glyph glyph-name="tcommaaccent" unicode="&#x163;" horiz-adv-x="221" 
d="M141 -5h-2q-38 0 -65 24t-27 74v364h-41v4q17 3 37 11q17 7 33 23t26 39q10 24 15 59h5v-133h89v-4h-89v-347q0 -51 6 -78t33 -27q20 0 33 7q15 8 24 16l2 -3q-6 -7 -26 -19q-17 -10 -53 -10zM147 -117l-2 -4q-3 -3 -10 -7t-19 -4q-16 0 -27 10q-12 10 -12 28q0 20 12 30
q11 10 29 10q20 0 33 -13q14 -14 14 -39q0 -20 -6 -33q-6 -14 -15 -23q-8 -8 -21 -13q-12 -5 -25 -6l-2 5q23 4 40 15q16 10 16 30q0 9 -5 14z" />
    <glyph glyph-name="Tcaron" unicode="&#x164;" horiz-adv-x="505" 
d="M169 3v-4q15 5 24 12q9 8 14 29t6 63q1 28 1 116v524h-66q-32 0 -53 -6q-22 -6 -36 -19q-16 -15 -26 -37q-12 -28 -20 -58h-4l15 110q2 11 3 12q2 2 6 2h442q4 0 6 -2q1 -1 3 -12l14 -110h-4q-9 33 -20 59q-11 24 -26 38q-16 14 -37 20q-23 6 -54 6h-66v-524
q0 -88 1 -116q2 -42 6 -63q4 -20 14 -28q9 -7 24 -12v-3h-167v3zM139 880l114 -50l114 50l3 -1l-117 -106l-117 106z" />
    <glyph glyph-name="tcaron" unicode="&#x165;" horiz-adv-x="221" 
d="M141 -5h-2q-38 0 -65 24t-27 74v364h-41v4q17 3 37 11q17 7 33 23t26 39q10 24 15 59h5v-133h89v-4h-89v-347q0 -51 6 -78t33 -27q20 0 33 7q15 8 24 16l2 -3q-6 -7 -26 -19q-17 -10 -53 -10zM171 523l11 130q2 23 9 35t22 12q12 0 19 -7t7 -18q0 -13 -9 -34l-56 -119z
" />
    <glyph glyph-name="Tbar" unicode="&#x166;" horiz-adv-x="505" 
d="M95 428h315v-4h-315v4zM169 3v-4q15 5 24 12q9 8 14 29t6 63q1 28 1 116v524h-66q-32 0 -53 -6q-22 -6 -36 -19q-16 -15 -26 -37q-12 -28 -20 -58h-4l15 110q2 11 3 12q2 2 6 2h442q4 0 6 -2q1 -1 3 -12l14 -110h-4q-9 33 -20 59q-11 24 -26 38q-16 14 -37 20
q-23 6 -54 6h-66v-524q0 -88 1 -116q2 -42 6 -63q4 -20 14 -28q9 -7 24 -12v-3h-167v3z" />
    <glyph glyph-name="tbar" unicode="&#x167;" horiz-adv-x="221" 
d="M11 310h198v-4h-198v4zM141 -5h-2q-38 0 -65 24t-27 74v364h-41v4q17 3 37 11q17 7 33 23t26 39q10 24 15 59h5v-133h89v-4h-89v-347q0 -51 6 -78t33 -27q20 0 33 7q15 8 24 16l2 -3q-6 -7 -26 -19q-17 -10 -53 -10z" />
    <glyph glyph-name="Utilde" unicode="&#x168;" horiz-adv-x="527" 
d="M292 -7v-3q-114 0 -178 53q-63 53 -63 167v316q0 88 -1 116q-2 42 -6 63q-5 22 -13 29q-9 8 -25 12v3h167v-3q-15 -4 -24 -12q-9 -7 -13 -28t-6 -63q-1 -28 -1 -116v-324q0 -44 8 -84q7 -37 27 -64t51 -42t81 -15q38 0 69 12t54 38t36 66q13 39 13 98v314q0 88 -1 116
q-1 42 -6 63q-5 22 -13 29q-9 8 -24 12v3h94v-3q-16 -4 -25 -12q-9 -7 -13 -28t-6 -63q-1 -28 -1 -116v-314q0 -60 -13 -100q-13 -41 -38 -69q-24 -27 -57 -39t-73 -12zM265 850h-2q12 0 21 -1q18 -2 27 -4t27 -4q9 -1 21 -1q7 0 18 8t27 33l3 -1q-14 -48 -28 -66
q-15 -19 -28 -19q-4 0 -22 2t-27 4q-8 2 -26 4q-16 2 -20 2q-10 0 -21 -7t-31 -36l-3 1q13 42 32 64q18 21 32 21z" />
    <glyph glyph-name="utilde" unicode="&#x169;" horiz-adv-x="433" 
d="M157 -7l-6 -3q-47 0 -78 26q-30 26 -30 87v173v72q0 26 -3 38t-9 15t-18 3v3l106 64v-393q0 -44 15 -60t41 -16q4 0 18 2q11 2 24 9q17 9 32 22q22 19 44 39l10 10v194v72q0 26 -3 38t-9 15t-18 3v3l106 64v-336v-67q0 -24 5 -39q4 -13 12 -19q7 -6 23 -9v-3h-114v79
l-10 -10q-25 -24 -45 -39q-21 -16 -36 -23q-19 -8 -30 -11q-14 -3 -27 -3zM177 624l2 -3q12 0 21 -1l27 -3l27 -3q9 -1 21 -1q7 0 18 8t26 33l3 -1q-10 -44 -27 -64q-16 -19 -27 -19q-5 0 -23 2l-28 3l-27 3q-18 2 -21 2q-10 0 -21 -7q-12 -7 -30 -36l-3 1q14 42 31 64
q18 22 31 22z" />
    <glyph glyph-name="Umacron" unicode="&#x16a;" horiz-adv-x="527" 
d="M292 -7v-3q-114 0 -178 53q-63 53 -63 167v316q0 88 -1 116q-2 42 -6 63q-5 22 -13 29q-9 8 -25 12v3h167v-3q-15 -4 -24 -12q-9 -7 -13 -28t-6 -63q-1 -28 -1 -116v-324q0 -44 8 -84q7 -37 27 -64t51 -42t81 -15q38 0 69 12t54 38t36 66q13 39 13 98v314q0 88 -1 116
q-1 42 -6 63q-5 22 -13 29q-9 8 -24 12v3h94v-3q-16 -4 -25 -12q-9 -7 -13 -28t-6 -63q-1 -28 -1 -116v-314q0 -60 -13 -100q-13 -41 -38 -69q-24 -27 -57 -39t-73 -12zM391 786h-183v32h183v-32z" />
    <glyph glyph-name="umacron" unicode="&#x16b;" horiz-adv-x="433" 
d="M157 -7l-6 -3q-47 0 -78 26q-30 26 -30 87v173v72q0 26 -3 38t-9 15t-18 3v3l106 64v-393q0 -44 15 -60t41 -16q4 0 18 2q11 2 24 9q17 9 32 22q22 19 44 39l10 10v194v72q0 26 -3 38t-9 15t-18 3v3l106 64v-336v-67q0 -24 5 -39q4 -13 12 -19q7 -6 23 -9v-3h-114v79
l-10 -10q-25 -24 -45 -39q-21 -16 -36 -23q-19 -8 -30 -11q-14 -3 -27 -3zM300 601v-32h-173v32h173z" />
    <glyph glyph-name="Ubreve" unicode="&#x16c;" horiz-adv-x="527" 
d="M292 -7v-3q-114 0 -178 53q-63 53 -63 167v316q0 88 -1 116q-2 42 -6 63q-5 22 -13 29q-9 8 -25 12v3h167v-3q-15 -4 -24 -12q-9 -7 -13 -28t-6 -63q-1 -28 -1 -116v-324q0 -44 8 -84q7 -37 27 -64t51 -42t81 -15q38 0 69 12t54 38t36 66q13 39 13 98v314q0 88 -1 116
q-1 42 -6 63q-5 22 -13 29q-9 8 -24 12v3h94v-3q-16 -4 -25 -12q-9 -7 -13 -28t-6 -63q-1 -28 -1 -116v-314q0 -60 -13 -100q-13 -41 -38 -69q-24 -27 -57 -39t-73 -12zM300 819l-2 1q38 0 56 15t26 35h4q-1 -14 -6 -31q-4 -17 -15 -30q-11 -14 -26 -23t-37 -9q-23 0 -38 9
t-26 23q-10 12 -16 30q-5 14 -7 32h4q6 -19 26 -36q19 -16 57 -16z" />
    <glyph glyph-name="ubreve" unicode="&#x16d;" horiz-adv-x="433" 
d="M157 -7l-6 -3q-47 0 -78 26q-30 26 -30 87v173v72q0 26 -3 38t-9 15t-18 3v3l106 64v-393q0 -44 15 -60t41 -16q4 0 18 2q11 2 24 9q17 9 32 22q22 19 44 39l10 10v194v72q0 26 -3 38t-9 15t-18 3v3l106 64v-336v-67q0 -24 5 -39q4 -13 12 -19q7 -6 23 -9v-3h-114v79
l-10 -10q-25 -24 -45 -39q-21 -16 -36 -23q-19 -8 -30 -11q-14 -3 -27 -3zM214 582l2 -4q35 0 53 18q19 18 26 47h4q-2 -22 -7 -40q-6 -20 -16 -34q-11 -16 -25 -24q-15 -9 -36 -9t-36 9q-16 10 -26 24q-10 15 -15 35q-4 20 -6 42h4q4 -28 24 -46t54 -18z" />
    <glyph glyph-name="Uring" unicode="&#x16e;" horiz-adv-x="527" 
d="M292 -7v-3q-114 0 -178 53q-63 53 -63 167v316q0 88 -1 116q-2 42 -6 63q-5 22 -13 29q-9 8 -25 12v3h167v-3q-15 -4 -24 -12q-9 -7 -13 -28t-6 -63q-1 -28 -1 -116v-324q0 -44 8 -84q7 -37 27 -64t51 -42t81 -15q38 0 69 12t54 38t36 66q13 39 13 98v314q0 88 -1 116
q-1 42 -6 63q-5 22 -13 29q-9 8 -24 12v3h94v-3q-16 -4 -25 -12q-9 -7 -13 -28t-6 -63q-1 -28 -1 -116v-314q0 -60 -13 -100q-13 -41 -38 -69q-24 -27 -57 -39t-73 -12zM225 830q0 30 23 51q22 21 51 21t52 -21q22 -21 22 -51q0 -32 -22 -51q-23 -20 -52 -20t-52 20
q-22 19 -22 51zM258 830l-1 -1q0 -28 11 -48q10 -19 30 -19q19 0 30 20t11 48t-10 48q-11 21 -30 21t-30 -21q-11 -22 -11 -48z" />
    <glyph glyph-name="uring" unicode="&#x16f;" horiz-adv-x="433" 
d="M157 -7l-6 -3q-47 0 -78 26q-30 26 -30 87v173v72q0 26 -3 38t-9 15t-18 3v3l106 64v-393q0 -44 15 -60t41 -16q4 0 18 2q11 2 24 9q17 9 32 22q22 19 44 39l10 10v194v72q0 26 -3 38t-9 15t-18 3v3l106 64v-336v-67q0 -24 5 -39q4 -13 12 -19q7 -6 23 -9v-3h-114v79
l-10 -10q-25 -24 -45 -39q-21 -16 -36 -23q-19 -8 -30 -11q-14 -3 -27 -3zM135 601q0 30 23 51q22 21 54 21t54 -21q23 -21 23 -51q0 -31 -23 -51t-54 -20t-54 20t-23 51zM168 601l-1 -1q0 -28 12 -48q12 -19 34 -19t34 20q12 19 12 48q0 27 -12 48t-34 21q-21 0 -33 -21
t-12 -48z" />
    <glyph glyph-name="Uhungarumlaut" unicode="&#x170;" horiz-adv-x="527" 
d="M292 -7v-3q-114 0 -178 53q-63 53 -63 167v316q0 88 -1 116q-2 42 -6 63q-5 22 -13 29q-9 8 -25 12v3h167v-3q-15 -4 -24 -12q-9 -7 -13 -28t-6 -63q-1 -28 -1 -116v-324q0 -44 8 -84q7 -37 27 -64t51 -42t81 -15q38 0 69 12t54 38t36 66q13 39 13 98v314q0 88 -1 116
q-1 42 -6 63q-5 22 -13 29q-9 8 -24 12v3h94v-3q-16 -4 -25 -12q-9 -7 -13 -28t-6 -63q-1 -28 -1 -116v-314q0 -60 -13 -100q-13 -41 -38 -69q-24 -27 -57 -39t-73 -12zM350 767l53 86q7 13 15 21t21 8q11 0 17 -6t6 -16t-6 -18q-7 -9 -15 -14l-88 -63zM222 766l53 86
q7 14 15 21q8 8 21 8q11 0 17 -6t6 -16q0 -17 -21 -32l-88 -63z" />
    <glyph glyph-name="uhungarumlaut" unicode="&#x171;" horiz-adv-x="433" 
d="M157 -7l-6 -3q-47 0 -78 26q-30 26 -30 87v173v72q0 26 -3 38t-9 15t-18 3v3l106 64v-393q0 -44 15 -60t41 -16q4 0 18 2q11 2 24 9q17 9 32 22q22 19 44 39l10 10v194v72q0 26 -3 38t-9 15t-18 3v3l106 64v-336v-67q0 -24 5 -39q4 -13 12 -19q7 -6 23 -9v-3h-114v79
l-10 -10q-25 -24 -45 -39q-21 -16 -36 -23q-19 -8 -30 -11q-14 -3 -27 -3zM258 532l35 132q5 20 12 29t22 9q11 0 17 -7t6 -18q0 -7 -3 -15q-2 -5 -8 -15l-78 -116zM150 531l35 132q5 20 12 29t21 9q12 0 18 -7q6 -8 6 -18q0 -8 -3 -15q-2 -5 -8 -15l-78 -116z" />
    <glyph glyph-name="Uogonek" unicode="&#x172;" horiz-adv-x="527" 
d="M306 -174v-8q-31 0 -48 17t-17 45q0 22 12 40q13 20 28 32t35 24q8 5 32 18q-15 -4 -27 -5q-20 -2 -28 -2q-114 0 -178 53q-63 52 -63 167v316q0 88 -1 116q-1 42 -6 63q-5 22 -13 29q-9 8 -25 12v3h167v-3q-15 -5 -24 -12t-13 -28q-5 -21 -6 -63q-1 -28 -1 -116v-324
q0 -44 8 -84q7 -37 27 -64q19 -27 51 -42t81 -15q37 0 69 12q31 12 54 38q22 25 36 66q13 39 13 98v314q0 88 -1 116q-2 42 -6 63q-5 22 -13 29q-9 7 -24 12v3h94v-3q-16 -4 -25 -12q-9 -7 -13 -28q-5 -21 -6 -63q-1 -28 -1 -116v-314q0 -82 -27 -132t-70 -69
q-15 -6 -26 -13q-15 -10 -26 -21q-12 -12 -21 -30t-9 -43q0 -21 10 -32q11 -12 30 -12q25 0 42 14l2 -2l-9 -12t-15 -15t-21 -12q-13 -5 -28 -5z" />
    <glyph glyph-name="uogonek" unicode="&#x173;" horiz-adv-x="433" 
d="M157 -7l-11 -1q-47 0 -78 26q-30 26 -30 87v173v72q0 26 -3 38t-9 15t-18 3v3l106 64v-393q0 -44 15 -60t41 -16q4 0 18 2q10 2 24 9q17 9 32 22q22 19 44 39l10 10v194v72q0 26 -3 38t-9 15t-18 3v3l106 64v-336v-67q0 -24 5 -39q4 -13 12 -19q7 -6 23 -9v-3h-110
q-15 -13 -34 -39q-18 -25 -18 -60q0 -19 11 -32q11 -12 30 -12q25 0 42 14l2 -2q-3 -5 -9 -12t-15 -15t-21 -12q-13 -5 -28 -5q-31 0 -48 17t-17 45q0 23 12 41q13 19 30 32q20 15 36 23q14 7 28 15v79l-10 -10q-25 -24 -45 -39q-21 -16 -36 -23q-19 -8 -30 -11
q-14 -3 -27 -3z" />
    <glyph glyph-name="Wcircumflex" unicode="&#x174;" horiz-adv-x="740" 
d="M63 623l-6 -7q-9 27 -15 48q-7 23 -13 36q-7 13 -15 25q-8 11 -21 18v2h139v-2q-20 -6 -21 -24t9 -55l171 -548l81 261l-74 241q-3 10 -8 26.5t-6 21.5q-7 23 -13 36q-8 15 -16 25q-9 11 -22 18v2h138v-2q-20 -6 -20 -24q0 -16 11 -55l59 -194l44 149q8 28 11 41
q4 17 4 36q0 16 -6 28q-6 13 -22 20v2h89v-2q-12 -5 -18 -10q-7 -6 -15 -18q-7 -11 -15 -35q-7 -23 -18 -60l-46 -156l104 -341l135 496q3 10 10 41q4 17 4 36q0 16 -8 29t-24 20v2h90v-2q-12 -6 -17 -10q-8 -6 -15 -19q-8 -13 -15 -36t-18 -60l-171 -627h-6l-116 378
l-117 -378h-6zM394 873l117 -106l-3 -1l-114 50l-114 -50l-3 1z" />
    <glyph glyph-name="wcircumflex" unicode="&#x175;" horiz-adv-x="547" 
d="M55 355l-4 -1q-10 30 -18 52q-6 17 -14 30q-6 10 -14 15q-6 4 -16 7v2h139v-2q-10 -1 -16 -6q-5 -4 -7 -15q-1 -11 3 -30t15 -51l83 -260l67 185l-23 72q-10 35 -18 54q-9 22 -13 30q-6 11 -12 14t-15 6v2h135v-2q-11 -2 -17 -6q-5 -4 -7 -15t3 -29q5 -20 15 -50l81 -254
l72 232q14 42 18 66q4 23 1 36q-3 12 -13 15q-13 4 -25 5v2h99v-2q-13 -3 -20 -6q-8 -3 -15 -15q-6 -9 -16 -35q-6 -14 -22 -65l-106 -340h-6l-90 279l-103 -279h-6zM266 705l101 -174l-3 -1l-98 100l-98 -100l-3 1z" />
    <glyph glyph-name="Ycircumflex" unicode="&#x176;" horiz-adv-x="488" 
d="M166 3l-5 -4q16 4 25 12q8 7 13 29q5 21 6 63q1 28 1 116v161l-127 243l-25 50q-13 26 -19 35q-10 15 -18 23q-9 9 -22 15v2h151v-2q-21 -4 -21 -21q0 -16 20 -56l138 -273l110 227q4 8 22 47q8 18 10 35q1 14 -5 25q-6 10 -24 18v2h91v-2q-7 -3 -19 -11q-8 -6 -18 -20
q-9 -13 -21 -36q-17 -32 -29 -57l-112 -230v-172q0 -88 1 -116q1 -42 6 -63q4 -20 14 -28q9 -7 24 -12v-3h-167v3zM274 876l117 -106l-3 -1l-114 50l-114 -50l-3 1z" />
    <glyph glyph-name="ycircumflex" unicode="&#x177;" horiz-adv-x="369" 
d="M71 -175h-3q-15 0 -25 8q-9 7 -9 18q0 12 8 20t24 8q14 0 24 -5t18 -5q11 0 22 18q9 15 28 63l17 48l-124 356l-20 52q-6 17 -14 30q-6 10 -12 15q-5 4 -15 7v2h138v-2q-10 -1 -16 -6q-5 -4 -7 -15q-1 -11 3 -30t15 -51l89 -257l82 233q16 43 20 65q5 25 2 36
q-3 13 -12 17t-23 6v2h94v-2q-13 -3 -19 -7q-8 -5 -15 -16q-6 -10 -16 -36q-2 -5 -6.5 -16.5t-9 -23.5t-8.5 -24l-135 -383q-26 -66 -47 -96q-20 -29 -48 -29zM208 706l101 -174l-3 -1l-98 100l-98 -100l-3 1z" />
    <glyph glyph-name="Ydieresis" unicode="&#x178;" horiz-adv-x="488" 
d="M166 3l-5 -4q16 4 25 12q8 7 13 29q5 21 6 63q1 28 1 116v161l-127 243l-25 50q-13 26 -19 35q-10 15 -18 23q-9 9 -22 15v2h151v-2q-21 -4 -21 -21q0 -16 20 -56l138 -273l110 227q4 8 22 47q8 18 10 35q1 14 -5 25q-6 10 -24 18v2h91v-2q-7 -3 -19 -11q-8 -6 -18 -20
q-9 -13 -21 -36q-17 -32 -29 -57l-112 -230v-172q0 -88 1 -116q1 -42 6 -63q4 -20 14 -28q9 -7 24 -12v-3h-167v3zM358 775q-17 0 -29 12t-12 30q0 17 12 29t29 12t29 -12t12 -29q0 -18 -12 -30t-29 -12zM190 775q-17 0 -29 12t-12 30q0 17 12 29t29 12t29 -12t12 -29
q0 -18 -12 -30t-29 -12z" />
    <glyph glyph-name="Zacute" unicode="&#x179;" horiz-adv-x="474" 
d="M358 746h-163q-37 0 -63 -9q-27 -10 -44 -25q-18 -16 -30 -41q-12 -23 -21 -56h-4l23 135h386l-345 -746h183q45 0 75 9q31 9 50 28q18 18 31 50q12 30 21 72h4l-17 -163h-429zM163 776l132 85q4 2 10 5.5t7 4.5q7 4 18 4q12 0 18 -7t6 -16q0 -13 -9 -22q-10 -10 -28 -14
l-153 -42z" />
    <glyph glyph-name="zacute" unicode="&#x17a;" horiz-adv-x="341" 
d="M322 -8l-2 -3q-12 5 -36 6q-32 2 -78 2h-203l240 457h-118q-24 0 -39 -7q-16 -7 -28 -21t-21 -30q-6 -11 -18 -35h-3l19 104q17 -5 43 -6q18 -1 71 -1h171l-243 -457h132q30 0 52 8q20 7 34 23q13 14 22 36q11 26 17 46h3zM140 530l79 137q7 16 17 24t21 8q13 0 20 -9
q8 -10 8 -19q0 -10 -6 -19t-16 -19l-121 -105z" />
    <glyph glyph-name="Zdotaccent" unicode="&#x17b;" horiz-adv-x="474" 
d="M358 746h-163q-37 0 -63 -9q-27 -10 -44 -25q-18 -16 -30 -41q-12 -23 -21 -56h-4l23 135h386l-345 -746h183q45 0 75 9q31 9 50 28q18 18 31 50q12 30 21 72h4l-17 -163h-429zM243 779q-18 0 -30 12t-12 30t12 30t30 12t30 -12t12 -30t-12 -30t-30 -12z" />
    <glyph glyph-name="zdotaccent" unicode="&#x17c;" horiz-adv-x="341" 
d="M322 -8l-2 -3q-12 5 -36 6q-32 2 -78 2h-203l240 457h-118q-24 0 -39 -7q-16 -7 -28 -21t-21 -30q-6 -11 -18 -35h-3l19 104q17 -5 43 -6q18 -1 71 -1h171l-243 -457h132q30 0 52 8q20 7 34 23q13 14 22 36q11 26 17 46h3zM180 548q-18 0 -30 12t-12 30t12 30t30 12
t30 -12t12 -30t-12 -30t-30 -12z" />
    <glyph glyph-name="Zcaron" unicode="&#x17d;" horiz-adv-x="474" 
d="M358 746h-163q-37 0 -63 -9q-27 -10 -44 -25q-18 -16 -30 -41q-12 -23 -21 -56h-4l23 135h386l-345 -746h183q45 0 75 9q31 9 50 28q18 18 31 50q12 30 21 72h4l-17 -163h-429zM129 884l114 -50l114 50l3 -1l-117 -106l-117 106z" />
    <glyph glyph-name="zcaron" unicode="&#x17e;" horiz-adv-x="341" 
d="M322 -8l-2 -3q-12 5 -36 6q-32 2 -78 2h-203l240 457h-118q-24 0 -39 -7q-16 -7 -28 -21t-21 -30q-6 -11 -18 -35h-3l19 104q17 -5 43 -6q18 -1 71 -1h171l-243 -457h132q30 0 52 8q20 7 34 23q13 14 22 36q11 26 17 46h3zM82 706l98 -100l98 100l3 -1l-101 -174
l-101 174z" />
    <glyph glyph-name="uni0192" unicode="&#x192;" horiz-adv-x="302" 
d="M44 460l52 -2l14 108q8 57 24 93q17 37 37 57q21 21 45 30t45 9q30 0 50 -10q21 -11 21 -30q0 -11 -6 -18q-6 -8 -20 -8q-25 0 -30 26q-3 14 -6 29q-2 8 -15 8q-10 0 -19 -6t-16 -19q-8 -15 -14 -38q-7 -28 -11 -61l-22 -169h80v-4h-81l-41 -316q-10 -81 -29 -134
q-18 -50 -39 -79q-20 -28 -44 -37q-23 -9 -43 -9q-26 0 -48 12t-22 33q0 11 6 18q6 8 20 8t20 -7q7 -8 8 -21q4 -18 8 -31q3 -9 16 -9q14 0 25 8q10 7 19 38q9 30 18 87q4 28 22 155l36 285h-60v4z" />
    <glyph glyph-name="Aringacute" unicode="&#x1fa;" horiz-adv-x="515" 
d="M-1 2l-5 -2q9 4 18 11q7 6 15 20q7 13 15 36q9 26 18 58l151 547l-3 11q-5 20 -10 31t-12 19q-5 7 -12 10q-7 4 -14 5v2h102q9 0 11 -8l180 -615q3 -10 8 -26.5t6 -21.5q6 -21 12 -36q5 -12 14 -25q7 -10 21 -16v-2h-135v2q17 5 20 21q3 17 -9 57l-45 151h-249l-30 -107
q-14 -54 -14 -81q0 -29 30 -41v-2h-83v2zM339 234l-128 427l-118 -427h246zM158 843q0 30 23 51t51 21q30 0 52 -21t22 -51q0 -32 -22 -51q-23 -20 -52 -20t-52 20q-22 19 -22 51zM191 843l-1 -1q0 -28 11 -48q10 -19 30 -19q19 0 30 20t11 48t-10 48q-10 21 -30 21t-30 -21
q-11 -22 -11 -48zM151 915l132 85q4 2 10 5.5t7 4.5q7 4 18 4q12 0 18 -7q6 -8 6 -16q0 -13 -9 -22q-10 -10 -28 -14l-153 -42z" />
    <glyph glyph-name="aringacute" unicode="&#x1fb;" horiz-adv-x="368" 
d="M118 -4l-2 -5q-42 0 -71 24t-29 73q0 29 12 47q11 16 32 31q20 14 45 24t51 24l22 10q37 18 50 39q14 22 14 45v63q0 28 -6 46t-15 27t-22 12t-28 3q-31 0 -42 -8q-11 -7 -18 -27q-7 -17 -17 -31q-9 -12 -26 -12q-14 0 -20 8q-6 7 -6 18q0 22 38 39q39 17 95 17
q33 0 56 -4q27 -5 45 -16q20 -12 32 -33t12 -55v-219q0 -33 2 -69q1 -23 5 -40q3 -13 9 -18q7 -5 16 -5q18 0 31 10l1 -2q-5 -5 -18 -11q-14 -6 -40 -6q-45 0 -63 21t-18 48l-7 -7q-28 -30 -54 -46q-26 -15 -66 -15zM92 101l-2 -2q0 -97 56 -97q19 0 39 11q18 10 49 42l7 7
v223q-5 -17 -19 -33q-15 -16 -43 -31l-22 -10q-41 -23 -53 -49q-12 -27 -12 -61zM100 597q0 30 23 51t54 21t54 -21t23 -51q0 -31 -23 -51t-54 -20t-54 20t-23 51zM133 597l-1 -1q0 -28 12 -48q12 -19 34 -19t34 20q12 19 12 48q0 27 -12 48t-34 21q-21 0 -33 -21t-12 -48z
M96 696l132 85q4 2 10 5.5t7 4.5q7 4 18 4q12 0 18 -7t6 -16q0 -13 -9 -22q-10 -10 -28 -14l-153 -42z" />
    <glyph glyph-name="AEacute" unicode="&#x1fc;" horiz-adv-x="725" 
d="M567 337l-3 -1l-6 24q-3 12 -11 23q-7 10 -23 18q-14 7 -42 7h-64v-405h150q30 0 54 3q23 3 42 14q18 10 30 32q11 19 19 56h5l-11 -100q-2 -8 -4 -9t-6 -1h-400v3q16 4 25 12q8 7 13 29q5 21 6 63q1 28 1 116v10h-214l-48 -107q-21 -47 -28 -80q-6 -30 24 -42v-2h-83v2
q9 4 18 12t18 21q10 15 20 35q9 18 24 53l248 556q16 37 9 49q-8 13 -37 17v3h374q4 0 8 -2t5 -12l15 -83h-5q-14 55 -48 75q-35 20 -90 20h-131v-333h64q27 0 42 6t23 17q8 12 11 24q2 9 6 25h3v-148h-3zM338 235v478l-213 -478h213zM407 775l132 85q4 2 10 5.5t7 4.5
q7 4 18 4q12 0 18 -7q6 -8 6 -16q0 -13 -9 -22q-10 -10 -28 -14l-153 -42z" />
    <glyph glyph-name="aeacute" unicode="&#x1fd;" horiz-adv-x="593" 
d="M118 -4l-7 -9q-43 0 -71 24q-29 24 -29 73q0 29 12 47q11 16 32 31q19 14 45 24t51 24l22 10q37 18 50 39q14 22 14 45v63q0 28 -6 46t-15 27t-22 12q-14 3 -28 3q-31 0 -42 -8q-10 -7 -18 -27q-7 -17 -17 -31q-9 -12 -26 -12q-14 0 -20 8q-6 7 -6 18q0 22 38 39
q39 17 95 17q45 0 83 -11q37 -11 53 -45q28 29 60 44q33 15 62 15q54 0 96 -36q41 -35 55 -108h-256q-1 -16 -3 -36q-1 -13 -1 -42q0 -66 12 -113q12 -48 31 -75q19 -28 47 -42q26 -13 58 -13q34 0 61 12q26 12 45 29l3 -3q-20 -17 -48 -30q-27 -13 -72 -13q-53 0 -102 26
q-48 26 -77 77l-39 -39q-28 -30 -54 -45t-66 -15zM424 456h-1q-14 0 -29 -6t-30 -21t-27 -42t-18 -67h192q-2 37 -9 62q-7 24 -20 42q-12 16 -27 24q-16 8 -31 8zM86 97l-2 -2q0 -97 56 -97q19 0 39 11q19 11 48 42l37 38q-13 25 -21 59q-8 35 -8 74v59q-5 -17 -19 -33
q-15 -16 -43 -31l-22 -10q-41 -23 -53 -49q-12 -27 -12 -61zM282 522l79 137q7 16 17 24t21 8q13 0 20 -9q8 -10 8 -19q0 -10 -6 -19t-16 -19l-121 -105z" />
    <glyph glyph-name="Oslashacute" unicode="&#x1fe;" horiz-adv-x="589" 
d="M294 -6l-3 1q-71 0 -132 46l-31 -81l-4 2l32 82q-58 45 -96 129q-37 83 -37 204q0 90 23 162q23 71 60 119q36 47 86 73q47 25 99 25q67 0 126 -41l28 71l4 -2l-28 -72q29 -22 55 -54t44 -74q19 -45 29 -94q11 -55 11 -114q0 -93 -22 -162q-22 -70 -60 -120t-85 -75
t-99 -25zM108 377l-3 -4q0 -105 16 -178q16 -74 45 -121l236 610q-23 34 -51 50q-29 17 -62 17q-38 0 -72 -23q-33 -22 -57 -69q-25 -48 -38 -117q-14 -73 -14 -165zM288 -5h1q39 0 72 24t57 71q25 48 38 117q14 73 14 165q2 110 -16 184q-18 78 -49 123l-236 -611
q48 -73 119 -73zM208 773l132 85q4 2 10 5.5t7 4.5q7 4 18 4q12 0 18 -7t6 -16q0 -13 -9 -22q-10 -10 -28 -14l-153 -42z" />
    <glyph glyph-name="oslashacute" unicode="&#x1ff;" 
d="M218 -4v-6q22 0 43 12q20 12 37 39q16 27 27 71q10 41 10 108q0 70 -10 114q-11 46 -27 75l11 26q-2 2 -3 2l22 54l4 -1l-22 -55q42 -28 73 -82q31 -53 31 -132q0 -59 -18 -102t-47 -72t-63 -44t-66 -15q-40 0 -84 23l9 22l-2 4l152 377q-17 26 -36 36q-20 11 -40 11
q-22 0 -43 -12t-37 -40q-17 -29 -27 -73q-10 -43 -10 -112q0 -66 11 -113q10 -44 29 -72l-10 -24q1 0 3 -2l-24 -60l-4 1l25 61q-22 13 -42 33q-19 19 -34 46t-24 60t-9 72q0 59 18 104q18 44 47 75t63 47q33 16 66 16q44 0 86 -27l-10 -24l3 -4l-153 -377q16 -22 36 -31
q19 -9 39 -9zM178 527l79 137q7 16 17 24t21 8q13 0 20 -9q8 -10 8 -19q0 -10 -6 -19t-16 -19l-121 -105z" />
    <glyph glyph-name="uni0218" unicode="&#x218;" horiz-adv-x="427" 
d="M214 -6l-3 -2q-38 0 -67 8q-25 7 -45 17q-4 2 -31 17q-14 8 -28 8q-17 0 -21 -22h-4v166h4q11 -90 60 -141t134 -51q34 0 59 11q24 11 39 30q16 21 23 45t7 57q0 38 -9 68q-9 31 -28 57q-19 27 -49 52q-30 26 -69 54q-15 11 -67 53q-28 22 -49 50q-19 25 -30 56
q-10 29 -10 67q0 36 14 67q13 29 38 51t56 32q33 11 68 11q32 0 57 -5q19 -4 37 -11q6 -2 14.5 -6t10.5 -5q12 -5 22 -5q17 0 24 28h5v-129h-5q-14 72 -56 101q-43 29 -107 29q-59 0 -90 -29q-30 -29 -30 -77q0 -31 9 -58q9 -26 26 -51q16 -23 42 -46q25 -23 60 -48
q39 -29 72 -54q34 -26 57 -55q25 -31 38 -66q14 -37 14 -82q0 -40 -15 -76t-40 -61t-61 -40t-76 -15zM220 -119l-2 -4q-2 -3 -10 -7q-7 -4 -19 -4q-16 0 -27 10q-12 11 -12 28q0 20 12 30q11 10 29 10q20 0 33 -13q14 -14 14 -39q0 -20 -6 -33q-6 -14 -15 -23q-8 -8 -21 -13
q-12 -5 -25 -6l-2 5q23 4 40 15q16 10 16 30q0 9 -5 14z" />
    <glyph glyph-name="uni0219" unicode="&#x219;" horiz-adv-x="312" 
d="M160 -2l-5 1q29 0 44 7q18 8 26 19q9 12 12 27t3 31q0 19 -6 36t-19 31q-14 16 -34 30q-25 18 -49 33q-52 33 -82 68q-28 32 -28 79q0 26 9 47t26 35q16 13 38 21t47 8q26 0 39 -4q17 -5 26 -9q3 -1 9 -4t9 -4q7 -3 18 -3q6 0 11 6t6 13h4v-99l-4 1q-18 57 -47 78t-69 21
q-37 0 -58 -18t-21 -50q0 -17 6 -30t18 -27t30 -27t45 -30q60 -38 92 -74q32 -37 32 -87q0 -60 -36 -94q-35 -34 -94 -34q-29 0 -47 6q-16 5 -31 12q-12 5 -22 12q-9 6 -19 6q-5 0 -10 -6t-6 -13h-4v130h4q17 -77 51 -111t86 -34zM168 -116l-2 -4q-2 -3 -10 -7q-7 -4 -19 -4
q-16 0 -27 10q-12 11 -12 28q0 19 12 30q11 10 29 10q20 0 33 -13q14 -14 14 -39q0 -19 -6 -33t-15 -23q-8 -8 -21 -13q-12 -5 -25 -6l-2 5q23 4 40 15q16 10 16 30q0 9 -5 14z" />
    <glyph glyph-name="uni021A" unicode="&#x21a;" horiz-adv-x="505" 
d="M169 3v-4q15 5 24 12q9 8 14 29t6 63q1 28 1 116v524h-66q-32 0 -53 -6q-22 -6 -36 -19q-16 -15 -26 -37q-12 -28 -20 -58h-4l15 110q2 11 3 12q2 2 6 2h442q4 0 6 -2q1 -1 3 -12l14 -110h-4q-9 33 -20 59q-11 24 -26 38q-16 14 -37 20q-23 6 -54 6h-66v-524
q0 -88 1 -116q2 -42 6 -63q4 -20 14 -28q9 -7 24 -12v-3h-167v3zM275 -121l-2 -4q-3 -2 -10 -7q-7 -4 -19 -4q-16 0 -27 10q-12 10 -12 28q0 20 12 30q11 10 29 10q20 0 33 -13q14 -14 14 -39q0 -20 -6 -33q-6 -14 -15 -23q-8 -8 -21 -13q-12 -5 -25 -6l-2 5q23 4 40 15
q16 10 16 30q0 9 -5 14z" />
    <glyph glyph-name="uni021B" unicode="&#x21b;" horiz-adv-x="221" 
d="M141 -5h-2q-38 0 -65 24t-27 74v364h-41v4q17 3 37 11q17 7 33 23t26 39q10 24 15 59h5v-133h89v-4h-89v-347q0 -51 6 -78t33 -27q20 0 33 7q15 8 24 16l2 -3q-6 -7 -26 -19q-17 -10 -53 -10zM147 -117l-2 -4q-3 -3 -10 -7t-19 -4q-16 0 -27 10q-12 10 -12 28q0 20 12 30
q11 10 29 10q20 0 33 -13q14 -14 14 -39q0 -20 -6 -33q-6 -14 -15 -23q-8 -8 -21 -13q-12 -5 -25 -6l-2 5q23 4 40 15q16 10 16 30q0 9 -5 14z" />
    <glyph glyph-name="uni0237" unicode="&#x237;" horiz-adv-x="180" 
d="M-27 -130h1q-16 0 -27 7q-12 7 -12 21t9 21q8 7 21 7q10 0 18 -5t14 -11q8 -8 12 -11q7 -5 14 -5q4 0 12 5q3 1 6 8q3 6 6 21q2 12 4 40q2 34 2 64v258q0 50 -1 65q-2 26 -4 35q-3 13 -9 14q-8 2 -18 2v3l106 64v-420q0 -30 -8 -56q-7 -23 -21 -43t-28 -34
q-13 -13 -30 -25q-23 -17 -37 -21q-13 -4 -30 -4z" />
    <glyph glyph-name="circumflex" unicode="&#x2c6;" horiz-adv-x="446" 
d="M228 706l101 -174l-3 -1l-98 100l-98 -100l-3 1z" />
    <glyph glyph-name="caron" unicode="&#x2c7;" horiz-adv-x="446" 
d="M130 709l98 -100l98 100l3 -1l-101 -174l-101 174z" />
    <glyph glyph-name="breve" unicode="&#x2d8;" horiz-adv-x="446" 
d="M223 585l2 -4q35 0 53 18q19 18 26 47h4q-2 -22 -7 -40q-6 -20 -16 -34q-11 -16 -25 -24q-15 -9 -36 -9t-36 9q-16 10 -26 24q-10 15 -15 35q-5 19 -6 42h4q4 -28 24 -46q19 -18 54 -18z" />
    <glyph glyph-name="dotaccent" unicode="&#x2d9;" horiz-adv-x="446" 
d="M222 551q-18 0 -30 12t-12 30t12 30t30 12t30 -12t12 -30t-12 -30t-30 -12z" />
    <glyph glyph-name="ring" unicode="&#x2da;" horiz-adv-x="446" 
d="M153 604q0 30 23 51q22 21 54 21t54 -21q23 -21 23 -51q0 -31 -23 -51t-54 -20t-54 20t-23 51zM186 604l-1 -1q0 -29 12 -48t34 -19t34 20t12 48q0 27 -12 48t-34 21q-21 0 -33 -21t-12 -48z" />
    <glyph glyph-name="ogonek" unicode="&#x2db;" horiz-adv-x="446" 
d="M228 -174l-3 1q-31 0 -48 17t-17 45q0 23 12 41q13 19 30 32q21 15 37 23l31 16h4q-22 -13 -40 -39t-18 -60q0 -19 11 -32q11 -12 30 -12q25 0 42 14l2 -2l-9 -12t-15 -15t-21 -12q-13 -5 -28 -5z" />
    <glyph glyph-name="tilde" unicode="&#x2dc;" horiz-adv-x="446" 
d="M182 627l2 -3q12 0 21 -1l27 -3l27 -3q9 -1 21 -1q7 0 18 8t26 33l3 -1q-10 -44 -27 -64q-16 -19 -27 -19q-5 0 -23 2l-28 3l-27 3q-18 2 -21 2q-10 0 -21 -7q-12 -8 -30 -36l-3 1q14 42 31 64q18 22 31 22z" />
    <glyph glyph-name="hungarumlaut" unicode="&#x2dd;" horiz-adv-x="446" 
d="M244 535l35 132q5 20 12 29t22 9q11 0 17 -7q6 -8 6 -18q0 -8 -3 -15q-2 -5 -8 -15l-78 -116zM136 534l35 132q5 20 12 29t21 9q12 0 18 -7t6 -18q0 -7 -3 -15q-2 -5 -8 -15l-78 -116z" />
    <glyph glyph-name="Wgrave" unicode="&#x1e80;" horiz-adv-x="740" 
d="M63 623l-6 -7q-9 27 -15 48q-7 23 -13 36q-7 13 -15 25q-8 11 -21 18v2h139v-2q-20 -6 -21 -24t9 -55l171 -548l81 261l-74 241q-3 10 -8 26.5t-6 21.5q-7 23 -13 36q-8 15 -16 25q-9 11 -22 18v2h138v-2q-20 -6 -20 -24q0 -16 11 -55l59 -194l44 149q8 28 11 41
q4 17 4 36q0 16 -6 28q-6 13 -22 20v2h89v-2q-12 -5 -18 -10q-7 -6 -15 -18q-7 -11 -15 -35q-7 -23 -18 -60l-46 -156l104 -341l135 496q3 10 10 41q4 17 4 36q0 16 -8 29t-24 20v2h90v-2q-12 -6 -17 -10q-8 -6 -15 -19q-8 -13 -15 -36t-18 -60l-171 -627h-6l-116 378
l-117 -378h-6zM327 809l1 -1q-18 4 -28 14q-9 9 -9 22q0 10 6 17q6 8 18 8q11 0 18 -4q1 -1 7 -4.5t10 -5.5l131 -86l-1 -2z" />
    <glyph glyph-name="wgrave" unicode="&#x1e81;" horiz-adv-x="547" 
d="M55 355l-4 -1q-10 30 -18 52q-6 17 -14 30q-6 10 -14 15q-6 4 -16 7v2h139v-2q-10 -1 -16 -6q-5 -4 -7 -15q-1 -11 3 -30t15 -51l83 -260l67 185l-23 72q-10 35 -18 54q-9 22 -13 30q-6 11 -12 14t-15 6v2h135v-2q-11 -2 -17 -6q-5 -4 -7 -15t3 -29q5 -20 15 -50l81 -254
l72 232q14 42 18 66q4 23 1 36q-3 12 -13 15q-13 4 -25 5v2h99v-2q-13 -3 -20 -6q-8 -3 -15 -15q-6 -9 -16 -35q-6 -14 -22 -65l-106 -340h-6l-90 279l-103 -279h-6zM198 635l-1 -2q-10 10 -16 19t-6 20q0 10 8 20q8 9 20 9q11 0 21 -8t17 -24l80 -137l-2 -2z" />
    <glyph glyph-name="Wacute" unicode="&#x1e82;" horiz-adv-x="740" 
d="M63 623l-6 -7q-9 27 -15 48q-7 23 -13 36q-7 13 -15 25q-8 11 -21 18v2h139v-2q-20 -6 -21 -24t9 -55l171 -548l81 261l-74 241q-3 10 -8 26.5t-6 21.5q-7 23 -13 36q-8 15 -16 25q-9 11 -22 18v2h138v-2q-20 -6 -20 -24q0 -16 11 -55l59 -194l44 149q8 28 11 41
q4 17 4 36q0 16 -6 28q-6 13 -22 20v2h89v-2q-12 -5 -18 -10q-7 -6 -15 -18q-7 -11 -15 -35q-7 -23 -18 -60l-46 -156l104 -341l135 496q3 10 10 41q4 17 4 36q0 16 -8 29t-24 20v2h90v-2q-12 -6 -17 -10q-8 -6 -15 -19q-8 -13 -15 -36t-18 -60l-171 -627h-6l-116 378
l-117 -378h-6zM313 769l132 85q4 2 10 5.5t7 4.5q7 4 18 4q12 0 18 -7t6 -16q0 -13 -9 -22q-10 -10 -28 -14l-153 -42z" />
    <glyph glyph-name="wacute" unicode="&#x1e83;" horiz-adv-x="547" 
d="M55 355l-4 -1q-10 30 -18 52q-6 17 -14 30q-6 10 -14 15q-6 4 -16 7v2h139v-2q-10 -1 -16 -6q-5 -4 -7 -15q-1 -11 3 -30t15 -51l83 -260l67 185l-23 72q-10 35 -18 54q-9 22 -13 30q-6 11 -12 14t-15 6v2h135v-2q-11 -2 -17 -6q-5 -4 -7 -15t3 -29q5 -20 15 -50l81 -254
l72 232q14 42 18 66q4 23 1 36q-3 12 -13 15q-13 4 -25 5v2h99v-2q-13 -3 -20 -6q-8 -3 -15 -15q-6 -9 -16 -35q-6 -14 -22 -65l-106 -340h-6l-90 279l-103 -279h-6zM226 532l79 137q7 16 17 24t21 8q13 0 20 -9q8 -10 8 -19q0 -10 -6 -19t-16 -19l-121 -105z" />
    <glyph glyph-name="Wdieresis" unicode="&#x1e84;" horiz-adv-x="740" 
d="M63 623l-6 -7q-9 27 -15 48q-7 23 -13 36q-7 13 -15 25q-8 11 -21 18v2h139v-2q-20 -6 -21 -24t9 -55l171 -548l81 261l-74 241q-3 10 -8 26.5t-6 21.5q-7 23 -13 36q-8 15 -16 25q-9 11 -22 18v2h138v-2q-20 -6 -20 -24q0 -16 11 -55l59 -194l44 149q8 28 11 41
q4 17 4 36q0 16 -6 28q-6 13 -22 20v2h89v-2q-12 -5 -18 -10q-7 -6 -15 -18q-7 -11 -15 -35q-7 -23 -18 -60l-46 -156l104 -341l135 496q3 10 10 41q4 17 4 36q0 16 -8 29t-24 20v2h90v-2q-12 -6 -17 -10q-8 -6 -15 -19q-8 -13 -15 -36t-18 -60l-171 -627h-6l-116 378
l-117 -378h-6zM478 772q-17 0 -29 12t-12 30q0 17 12 29t29 12t29 -12t12 -29q0 -18 -12 -30t-29 -12zM310 772q-17 0 -29 12t-12 30q0 17 12 29t29 12t29 -12t12 -29q0 -18 -12 -30t-29 -12z" />
    <glyph glyph-name="wdieresis" unicode="&#x1e85;" horiz-adv-x="547" 
d="M55 355l-4 -1q-10 30 -18 52q-6 17 -14 30q-6 10 -14 15q-6 4 -16 7v2h139v-2q-10 -1 -16 -6q-5 -4 -7 -15q-1 -11 3 -30t15 -51l83 -260l67 185l-23 72q-10 35 -18 54q-9 22 -13 30q-6 11 -12 14t-15 6v2h135v-2q-11 -2 -17 -6q-5 -4 -7 -15t3 -29q5 -20 15 -50l81 -254
l72 232q14 42 18 66q4 23 1 36q-3 12 -13 15q-13 4 -25 5v2h99v-2q-13 -3 -20 -6q-8 -3 -15 -15q-6 -9 -16 -35q-6 -14 -22 -65l-106 -340h-6l-90 279l-103 -279h-6zM337 550q-17 0 -29 12t-12 30q0 17 12 29t29 12t29 -12t12 -29q0 -18 -12 -30t-29 -12zM195 550
q-17 0 -29 12t-12 30q0 17 12 29t29 12t29 -12t12 -29q0 -18 -12 -30t-29 -12z" />
    <glyph glyph-name="Ygrave" unicode="&#x1ef2;" horiz-adv-x="488" 
d="M166 3l-5 -4q16 4 25 12q8 7 13 29q5 21 6 63q1 28 1 116v161l-127 243l-25 50q-13 26 -19 35q-10 15 -18 23q-9 9 -22 15v2h151v-2q-21 -4 -21 -21q0 -16 20 -56l138 -273l110 227q4 8 22 47q8 18 10 35q1 14 -5 25q-6 10 -24 18v2h91v-2q-7 -3 -19 -11q-8 -6 -18 -20
q-9 -13 -21 -36q-17 -32 -29 -57l-112 -230v-172q0 -88 1 -116q1 -42 6 -63q4 -20 14 -28q9 -7 24 -12v-3h-167v3zM207 812l1 -1q-18 4 -28 14q-9 9 -9 22q0 9 6 17t18 8q11 0 18 -4q1 -1 7 -4.5t10 -5.5l131 -86l-1 -2z" />
    <glyph glyph-name="ygrave" unicode="&#x1ef3;" horiz-adv-x="369" 
d="M71 -175h-3q-15 0 -25 8q-9 7 -9 18q0 12 8 20t24 8q14 0 24 -5t18 -5q11 0 22 18q9 15 28 63l17 48l-124 356l-20 52q-6 17 -14 30q-6 10 -12 15q-5 4 -15 7v2h138v-2q-10 -1 -16 -6q-5 -4 -7 -15q-1 -11 3 -30t15 -51l89 -257l82 233q16 43 20 65q5 25 2 36
q-3 13 -12 17t-23 6v2h94v-2q-13 -3 -19 -7q-8 -5 -15 -16q-6 -10 -16 -36q-2 -5 -6.5 -16.5t-9 -23.5t-8.5 -24l-135 -383q-26 -66 -47 -96q-20 -29 -48 -29zM140 636l-1 -2q-10 10 -16 19t-6 20q0 10 8 20q7 9 20 9q11 0 21 -8t17 -24l80 -137l-2 -2z" />
    <glyph glyph-name="uni2009" unicode="&#x2009;" horiz-adv-x="52" 
 />
    <glyph glyph-name="endash" unicode="&#x2013;" horiz-adv-x="449" 
d="M39 285h371v-8h-371v8z" />
    <glyph glyph-name="emdash" unicode="&#x2014;" horiz-adv-x="810" 
d="M39 285h733v-8h-733v8z" />
    <glyph glyph-name="quoteleft" unicode="&#x2018;" horiz-adv-x="138" 
d="M44 666l-3 -3q5 5 12 9t21 4q16 0 27 -10q12 -10 12 -30t-12 -30q-13 -11 -28 -11q-20 0 -35 15t-15 47q0 42 18 69t47 44l3 -4q-25 -16 -39 -38t-14 -44q0 -12 6 -18z" />
    <glyph glyph-name="quoteright" unicode="&#x2019;" horiz-adv-x="138" 
d="M94 689l1 1q-5 -4 -12 -9q-7 -4 -21 -4t-27 11q-12 10 -12 30t12 30q13 11 29 11q20 0 35 -15t15 -46q0 -42 -18 -69q-19 -28 -46 -44l-3 4q25 16 39 38t14 44q0 12 -6 18z" />
    <glyph glyph-name="quotesinglbase" unicode="&#x201a;" horiz-adv-x="138" 
d="M94 13l1 1q-5 -4 -12 -9q-7 -4 -21 -4t-27 11q-12 10 -12 30t12 30q13 11 29 11q20 0 35 -15t15 -46q0 -42 -18 -69q-19 -28 -46 -44l-3 4q25 16 39 38t14 44q0 12 -6 18z" />
    <glyph glyph-name="quotedblleft" unicode="&#x201c;" horiz-adv-x="246" 
d="M44 666l-3 -3q5 5 12 9t21 4q16 0 27 -10q12 -10 12 -30t-12 -30q-13 -11 -28 -11q-20 0 -35 15t-15 47q0 42 18 69t47 44l3 -4q-25 -16 -39 -38t-14 -44q0 -12 6 -18zM149 663l-3 -3q4 4 12 9q7 4 21 4q16 0 27 -10q12 -11 12 -30t-12 -30q-13 -11 -28 -11q-20 0 -35 15
t-15 47q0 42 18 69t47 44l3 -4q-25 -16 -39 -38t-14 -44q0 -12 6 -18z" />
    <glyph glyph-name="quotedblright" unicode="&#x201d;" horiz-adv-x="246" 
d="M202 689l1 1q-5 -4 -12 -9q-7 -4 -21 -4t-27 11q-12 10 -12 30t12 30q13 11 29 11q20 0 35 -15t15 -46q0 -42 -18 -69q-19 -28 -46 -44l-3 4q25 16 39 38t14 44q0 12 -6 18zM95 690l1 1q-4 -5 -12 -9q-7 -4 -21 -4t-27 11q-12 11 -12 30t12 30q13 11 29 11q20 0 35 -15
t15 -46q0 -42 -18 -69q-19 -28 -46 -44l-3 4q25 16 39 38t14 44q0 12 -6 18z" />
    <glyph glyph-name="quotedblbase" unicode="&#x201e;" horiz-adv-x="246" 
d="M202 13l1 1q-5 -4 -12 -9q-7 -4 -21 -4t-27 11q-12 10 -12 30t12 30q13 11 29 11q20 0 35 -15t15 -46q0 -42 -18 -69q-19 -28 -46 -44l-3 4q25 16 39 38t14 44q0 12 -6 18zM95 14l1 1q-4 -5 -12 -9q-7 -4 -21 -4t-27 11q-12 11 -12 30t12 30q13 11 29 11q20 0 35 -15
t15 -46q0 -42 -18 -69q-19 -28 -46 -44l-3 4q25 16 39 38t14 44q0 12 -6 18z" />
    <glyph glyph-name="dagger" unicode="&#x2020;" horiz-adv-x="293" 
d="M146 -2l-4 -5q0 16 -2 78q-1 26 -5 99l-6 105q-3 53 -6 96q-3 42 -6 73q-3 30 -3 36q14 42 17 52q9 30 9 61q-15 0 -27 -4q-15 -5 -25 -10q-8 -4 -24 -10q-11 -4 -25 -4q-19 0 -28 9t-9 20t9 20t28 9q15 0 26 -4q8 -3 26 -9l27 -9q12 -4 27 -4q0 12 -6 27q-4 10 -12 32
t-12 32q-6 15 -6 26q0 19 10 29q11 11 27 11t27 -11q10 -10 10 -29q0 -11 -6 -26q-8 -20 -12 -31q-8 -22 -12 -32q-6 -15 -6 -27q12 0 27 5q18 6 26 9l24 9q13 5 26 5q19 0 28 -9t9 -20t-9 -20t-28 -9q-14 0 -25 4q-16 6 -25 10t-25 10q-11 4 -25 4q0 -31 9 -61
q3 -10 17 -52q-1 -6 -3 -35q0 -8 -1 -19t-2 -27t-2 -26q-3 -44 -6 -96l-6 -105q-2 -32 -4 -99q-2 -62 -2 -78h-4z" />
    <glyph glyph-name="daggerdbl" unicode="&#x2021;" horiz-adv-x="309" 
d="M155 -8l-10 -7q-16 0 -27 11q-10 10 -10 29q0 11 6 26q4 10 12 32t12 32q6 15 6 27q-15 0 -27 -4l-27 -9q-9 -3 -25 -9q-11 -4 -25 -4q-19 0 -28 9t-9 20t9 20t28 9q15 0 26 -4q16 -6 24 -10t26 -10q12 -4 27 -4q0 50 -3 84t-6 60q-2 21 -8 43q-6 24 -9 35q6 22 9 34
q6 22 8 43q3 25 6 60t3 86q-15 0 -27 -4q-15 -5 -25 -10q-8 -4 -24 -10q-11 -4 -25 -4q-19 0 -28 9t-9 20t9 20t28 9q15 0 26 -4q8 -3 26 -9l27 -9q12 -4 27 -4q0 12 -6 27q-4 10 -12 32t-12 32q-6 15 -6 26q0 19 10 29q11 11 27 11t27 -11q10 -10 10 -29q0 -11 -6 -26
q-8 -20 -12 -31q-8 -22 -12 -32q-6 -15 -6 -27q12 0 27 5q18 6 26 9l24 9q13 5 26 5q19 0 28 -9t9 -20t-9 -20t-28 -9q-14 0 -25 4q-16 6 -25 10t-25 10q-11 4 -25 4q0 -39 2 -85q1 -35 6 -60q4 -24 9 -43q3 -12 9 -34q-6 -22 -9 -34q-5 -19 -9 -43q-5 -25 -6 -60
q-2 -46 -2 -85q15 0 26 4q22 8 26 10t26 10q11 4 26 4q19 0 28 -9t9 -20t-9 -20t-28 -9q-12 0 -25 5l-24 9q-16 6 -25 9q-15 5 -27 5q0 -12 6 -27q4 -10 12 -32q4 -11 12 -31q6 -15 6 -26q0 -19 -10 -29q-11 -11 -27 -11z" />
    <glyph glyph-name="bullet" unicode="&#x2022;" horiz-adv-x="291" 
d="M145 397l-1 -1q22 0 42 -9t35 -24t24 -35t9 -42t-9 -42q-9 -19 -24 -34t-35 -24t-42 -9t-42 9q-19 9 -34 24t-24 35q-9 19 -9 42t9 42q9 20 24 35t35 24q19 9 42 9z" />
    <glyph glyph-name="ellipsis" unicode="&#x2026;" horiz-adv-x="476" 
d="M395 -10q-20 0 -33 13t-13 33t13 33t33 13t33 -13t13 -33t-13 -33t-33 -13zM238 -10q-20 0 -33 13t-13 33t13 33t33 13t33 -13t13 -33t-13 -33t-33 -13zM81 -10q-20 0 -33 13t-13 33t13 33t33 13t33 -13t13 -33t-13 -33t-33 -13z" />
    <glyph glyph-name="perthousand" unicode="&#x2030;" horiz-adv-x="950" 
d="M160 379v-2q-25 0 -51 14q-24 13 -46 38q-21 24 -33 59q-12 34 -12 77t12 77t33 60t46 39q26 14 51 14q26 0 51 -13t46 -39q20 -24 34 -60q13 -33 13 -76q0 -44 -13 -77q-14 -36 -34 -59q-22 -25 -46 -38q-26 -14 -51 -14zM102 -2l406 754l8 -4l-406 -754zM160 381v-2
q14 0 30 11q15 10 27 33q13 24 20 57q8 37 8 83t-8 83q-7 33 -20 57q-12 23 -27 33q-16 11 -30 11t-30 -11q-15 -10 -27 -33q-13 -24 -20 -57q-8 -37 -8 -82t8 -82q7 -33 20 -57q12 -23 27 -33q16 -11 30 -11zM459 -10v-2q-25 0 -51 14q-24 13 -46 38q-21 24 -33 59
q-12 34 -12 77q0 42 12 77t33 60q21 26 46 39q26 14 51 14q26 0 51 -13t46 -39q20 -24 34 -60q13 -33 13 -76q0 -44 -13 -77q-14 -36 -34 -59q-22 -25 -46 -38q-26 -14 -51 -14zM790 -12v-2q-25 0 -51 14q-24 13 -46 38q-21 24 -33 59t-12 77t12 77t33 60q21 26 46 39
q26 14 51 14q26 0 51 -13t46 -39q20 -24 34 -60q13 -33 13 -76q0 -44 -13 -77q-14 -36 -34 -59q-22 -25 -46 -38q-26 -14 -51 -14zM459 -10v-2q14 0 30 11q15 11 27 33q13 24 20 57q8 37 8 83t-8 83q-7 33 -20 57q-12 22 -27 33q-16 11 -30 11q-13 0 -29 -11
q-15 -11 -27 -33q-13 -24 -20 -57q-8 -37 -8 -82t8 -82q7 -33 20 -57q12 -22 27 -33q16 -11 29 -11zM790 -12v-2q14 0 30 11q15 11 27 33q13 24 20 57q8 37 8 83t-8 83q-7 33 -20 57q-12 22 -27 33q-16 11 -30 11t-30 -11q-15 -11 -27 -33q-13 -24 -20 -57q-8 -37 -8 -82
t8 -82q7 -33 20 -57q12 -22 27 -33q16 -11 30 -11z" />
    <glyph glyph-name="uni2032" unicode="&#x2032;" horiz-adv-x="121" 
d="M26 583q6 27 6 50v52q0 71 38 71q17 0 23 -10t6 -24t-6 -29q-5 -12 -17 -31q-18 -26 -26 -40q-14 -25 -20 -40z" />
    <glyph glyph-name="uni2033" unicode="&#x2033;" horiz-adv-x="209" 
d="M26 583q6 27 6 50v52q0 71 38 71q17 0 23 -10t6 -24t-6 -29q-5 -12 -17 -31q-18 -26 -26 -40q-14 -25 -20 -40zM114 583q6 27 6 50v52q0 71 38 71q17 0 23 -10t6 -24t-6 -29q-5 -12 -17 -31q-18 -26 -26 -40q-14 -25 -20 -40z" />
    <glyph glyph-name="guilsinglleft" unicode="&#x2039;" horiz-adv-x="191" 
d="M35 228v4l120 161l3 -2l-64 -161l65 -161l-3 -2z" />
    <glyph glyph-name="guilsinglright" unicode="&#x203a;" horiz-adv-x="191" 
d="M36 69l64 161l-63 161l3 2l120 -161v-4l-121 -161z" />
    <glyph glyph-name="fraction" unicode="&#x2044;" horiz-adv-x="453" 
d="M59 377h335v-4h-335v4z" />
    <glyph glyph-name="Euro" unicode="&#x20ac;" horiz-adv-x="496" 
d="M2 355l56 -8v21v20q0 13 1 20h-62v6h62q6 83 30 146q24 64 58 105q35 42 76 63q42 21 82 21q38 0 67 -10q32 -11 50 -25q19 -15 30 -32t11 -30t-6 -22t-19 -9q-16 0 -24 9q-8 10 -11 24q-4 20 -6 31q-3 17 -12 30q-9 14 -27 23t-52 9q-70 0 -114 -81t-48 -249h209v-6
h-209v-60h209v-6h-208q3 -103 19 -167q17 -67 40 -105q24 -38 54 -55q29 -16 60 -16q32 0 53 7q25 8 41 19q18 12 31 25t24 27l3 -3q-8 -10 -24 -28q-14 -15 -33 -27q-21 -13 -45 -20q-27 -8 -60 -8q-49 0 -93 23q-42 22 -76 68t-53 111q-20 68 -23 153h-61v6z" />
    <glyph glyph-name="trademark" unicode="&#x2122;" horiz-adv-x="555" 
d="M84 460v-2q7 2 11 5q4 4 5 12q2 12 2 25v47v199h-27q-25 0 -37 -12q-11 -12 -19 -40h-3l7 49q2 5 3 5h3h192h2q1 -2 2 -5l7 -49h-3q-8 29 -18 41q-11 12 -36 12h-27v-199v-46q0 -13 2 -25q2 -9 6 -12q6 -4 12 -5v-2h-84v2zM258 458v-3q9 2 11 4q4 4 5 12q2 12 2 26v45
v112v47q0 13 -2 25q-1 8 -5 12t-10 5v2h63q2 0 3 -1l3 -6l69 -211l-6 -20l80 238l1 -1v1h61v-2q-5 -1 -9 -5t-5 -12q-2 -12 -2 -25v-45v-112v-45q0 -13 2 -25q1 -8 5 -12t9 -5v-2h-81v2q4 1 10 5q4 3 6 12q2 12 2 26v45v188l-94 -279h-3l-93 281v-190v-45q0 -14 2 -26
q2 -9 6 -12q4 -2 10 -4v-2h-40v2z" />
    <glyph glyph-name="onethird" unicode="&#x2153;" horiz-adv-x="453" 
d="M59 377h335v-4h-335v4zM168 465l-1 2q10 1 17 5q6 3 9 15q4 15 5 34q1 15 1 62v121v40q0 14 -3 22t-9 9q-8 2 -18 2v3l86 61v-258q0 -46 1 -61q2 -25 4 -34q3 -12 9 -15q7 -4 17 -5v-3h-118zM139 269l-6 -1q2 7 5 13q2 3 6 3h169v-4l-121 -144q14 9 33 9q42 0 72 -27
t30 -82q0 -26 -9 -48q-8 -21 -26 -40q-16 -17 -39 -28q-21 -10 -51 -10q-40 0 -63 17t-23 35q0 8 6 14t17 6t15 -6q5 -6 6 -16q2 -6 3 -15q1 -8 6 -16q5 -7 12 -12q8 -5 21 -5q18 0 32 9t23 26q8 15 13 39q4 20 4 48q0 51 -10 78q-11 29 -36 29q-19 0 -31 -9q-11 -8 -22 -21
l-2 3l105 123h-63h-45q-13 0 -25 -2q-9 -1 -12 -6t-6 -12h-3z" />
    <glyph glyph-name="twothirds" unicode="&#x2154;" horiz-adv-x="453" 
d="M59 377h335v-4h-335v4zM140 270l-6 -1q2 7 5 13q1 3 6 3h169v-4l-121 -144q13 9 33 9q42 0 72 -27t30 -82q0 -25 -9 -48q-8 -21 -26 -40q-16 -17 -39 -28q-21 -10 -51 -10q-40 0 -63 17t-23 35q0 8 6 14t17 6q10 0 15 -6t6 -16q1 -6 3 -15q1 -8 6 -16q4 -8 12 -12
q8 -5 21 -5q19 0 32 9q14 9 23 26q8 15 13 39q4 20 4 48q0 51 -10 78q-11 29 -36 29q-19 0 -31 -9q-11 -8 -22 -21l-2 3l105 123h-63h-45q-13 0 -25 -2q-9 -2 -12 -6t-6 -12h-3zM240 509l3 -1h45q17 0 26 3t12 8t6 12h3l-13 -51l-6 -14q-2 -3 -8 -3h-197l75 93q37 52 57 98
q19 44 19 95q0 39 -10 62q-10 24 -39 24q-13 0 -21 -6q-7 -6 -12 -14q-4 -7 -6 -15l-3 -12q-1 -9 -8 -16q-6 -6 -17 -6t-17 7q-6 8 -6 16q0 17 23 35q22 18 66 18q42 0 73 -21t31 -70q0 -25 -9 -48q-10 -24 -25 -45q-16 -22 -39 -48q-5 -6 -49 -57l-45 -44h91z" />
    <glyph glyph-name="oneeighth" unicode="&#x215b;" horiz-adv-x="453" 
d="M334 16l-3 -5q0 -45 -30 -75t-75 -30q-51 0 -80 26t-29 66q0 19 7 33q8 16 19 27q12 12 27 21q20 12 30 17q-38 26 -54 48t-16 55q0 21 8 39q8 16 21 27q15 11 30 17q17 6 35 6q44 0 69 -21t25 -55q0 -26 -21 -48t-46 -37q22 -13 35 -24q17 -13 26 -24q10 -11 16 -27
q6 -15 6 -36zM225 -91h-1q31 0 48 23q16 22 16 54q0 34 -21 55t-57 45l-12 8q-20 -14 -33 -37t-13 -58q0 -42 18 -66t55 -24zM236 130v-1q1 -1 5 -3t5 -3q34 28 34 81q0 76 -60 76q-26 0 -42 -15t-16 -44q0 -30 20 -48q17 -15 54 -43zM55 371h335v-4h-335v4zM158 459l-1 2
q10 1 17 5q6 3 9 15q4 15 5 34q1 15 1 62v121v40q0 14 -3 22t-9 9q-8 2 -18 2v3l86 61v-258q0 -46 1 -61q2 -25 4 -34q3 -12 9 -15q7 -4 17 -5v-3h-118z" />
    <glyph glyph-name="threeeighths" unicode="&#x215c;" horiz-adv-x="453" 
d="M334 16l-3 -5q0 -45 -30 -75t-75 -30q-51 0 -80 26t-29 66q0 19 7 33q8 16 19 27q12 12 27 21q20 12 30 17q-38 26 -54 48t-16 55q0 21 8 39q8 16 21 27q15 11 30 17q17 6 35 6q44 0 69 -21t25 -55q0 -26 -21 -48t-46 -37q22 -13 35 -24q17 -13 26 -24q10 -11 16 -27
q6 -15 6 -36zM225 -91h-1q31 0 48 23q16 22 16 54q0 34 -21 55t-57 45l-12 8q-20 -14 -33 -37t-13 -58q0 -42 18 -66t55 -24zM236 130v-1q1 -1 5 -3t5 -3q34 28 34 81q0 76 -60 76q-26 0 -42 -15t-16 -44q0 -30 20 -48q17 -15 54 -43zM55 371h335v-4h-335v4zM137 815l-6 -1
q2 7 5 13q2 3 6 3h169v-4l-121 -144q14 9 33 9q42 0 72 -27t30 -82q0 -26 -9 -48q-8 -21 -26 -40q-16 -17 -39 -28q-21 -10 -51 -10q-40 0 -63 17t-23 35q0 8 6 14t17 6t15 -6q5 -6 6 -16q2 -6 3 -15q1 -8 6 -16q5 -7 12 -12q8 -5 21 -5q18 0 32 9t23 26q8 15 13 39
q4 20 4 48q0 51 -10 78q-11 29 -36 29q-19 0 -31 -9q-11 -8 -22 -21l-2 3l105 123h-63h-45q-13 0 -25 -2q-9 -1 -12 -6t-6 -12h-3z" />
    <glyph glyph-name="fiveeighths" unicode="&#x215d;" horiz-adv-x="453" 
d="M334 16l-5 -3q0 -23 -9 -42q-9 -20 -22 -34t-33 -22q-21 -8 -42 -8q-50 0 -79 26q-28 25 -28 66q0 19 7 33q8 16 19 27q12 12 27 21q20 12 30 17q-37 25 -54 48q-16 22 -16 55q0 21 8 39q7 17 21 27q15 11 30 17q17 6 35 6q44 0 68 -21t24 -55q0 -13 -6 -25t-15 -24
t-21 -21q-8 -6 -22 -16q22 -13 35 -24q17 -13 26 -24q10 -11 16 -27q6 -15 6 -36zM171 787l-31 -110q10 12 29 21q18 9 41 9q22 0 41 -6t36 -20t26 -36q9 -23 9 -54q0 -59 -35 -96q-35 -36 -90 -36q-39 0 -64 17q-24 16 -24 35q0 9 6 15t17 6q20 0 23 -25q1 -5 3 -12t6 -15
q4 -7 13 -13t24 -6q35 0 53 36t18 95q0 53 -14 83q-14 29 -42 29q-26 0 -42 -10t-27 -21l-3 1l34 158h145l-12 -38q-1 -4 -3 -6q-1 -1 -6 -1h-131zM214 -91q32 0 49 23q16 22 16 54q0 34 -21 55t-57 45l-13 8q-20 -14 -33 -37t-13 -58q0 -42 18 -66t54 -24zM227 130l-2 -2
q1 -1 5 -3t5 -3q33 30 33 82q0 76 -59 76q-25 0 -42 -15q-16 -15 -16 -44q0 -30 20 -48q16 -14 56 -43zM44 370h335v-4h-335v4z" />
    <glyph glyph-name="seveneighths" unicode="&#x215e;" horiz-adv-x="453" 
d="M334 16l-3 -5q0 -45 -30 -75t-75 -30q-51 0 -80 26t-29 66q0 19 7 33q8 16 19 27q12 12 27 21q20 12 30 17q-38 26 -54 48t-16 55q0 21 8 39q8 16 21 27q15 11 30 17q17 6 35 6q44 0 69 -21t25 -55q0 -26 -21 -48t-46 -37q22 -13 35 -24q17 -13 26 -24q10 -11 16 -27
q6 -15 6 -36zM225 -91h-1q31 0 48 23q16 22 16 54q0 34 -21 55t-57 45l-12 8q-20 -14 -33 -37t-13 -58q0 -42 18 -66t55 -24zM236 130v-1q1 -1 5 -3t5 -3q34 28 34 81q0 76 -60 76q-26 0 -42 -15t-16 -44q0 -30 20 -48q17 -15 54 -43zM200 459l-1 -2l113 326h-96
q-32 0 -42 -1q-17 -2 -24 -4q-8 -3 -13 -9q-5 -7 -9 -16h-3l18 66q2 6 3 8q2 3 6 3h176v-3zM58 369h335v-4h-335v4z" />
    <glyph glyph-name="arrowleft" unicode="&#x2190;" horiz-adv-x="752" 
d="M33 359l-2 -3q32 8 74 28q45 21 90 51t84 66q40 37 56 75l5 -2q-16 -51 -36 -87t-40 -61q-22 -26 -43 -42q-23 -16 -45 -27h535v-6h-535q22 -11 45 -27q21 -16 43 -42q23 -28 41 -61q19 -36 36 -87l-5 -2q-17 40 -55 75q-39 36 -84 66t-90 51q-47 22 -74 29v6z" />
    <glyph glyph-name="arrowright" unicode="&#x2192;" horiz-adv-x="752" 
d="M41 359h533q-22 11 -45 27q-21 16 -43 42q-19 23 -40 62q-20 36 -36 87l5 2q16 -38 56 -75q39 -36 84 -66t90 -51q42 -20 74 -28v-6q-32 -8 -74 -28q-45 -21 -90 -51t-84 -66q-38 -35 -55 -75l-5 2q17 51 36 87t41 62t43 42q23 16 45 27h-535v6z" />
    <glyph glyph-name="minus" unicode="&#x2212;" horiz-adv-x="379" 
d="M36 355h308v-8h-308v8z" />
    <glyph glyph-name="uni24C5" unicode="&#x24c5;" horiz-adv-x="678" 
d="M340 758v-2q64 0 120 -28q57 -28 100 -79q44 -51 69 -121q25 -69 25 -156t-25 -156q-25 -70 -69 -121q-43 -51 -100 -79q-56 -28 -120 -28q-65 0 -121 28q-57 28 -100 79t-69 122q-25 69 -25 156t25 156q26 71 69 122t100 79q56 28 121 28zM340 -8q62 0 117 27
q56 27 98 77q41 48 67 120q25 69 25 156t-25 156q-26 72 -67 120q-42 50 -98 77q-55 27 -117 27t-117 -27t-99 -77t-69 -120q-25 -69 -25 -156t25 -156q25 -70 69 -120t99 -77t117 -27zM220 153l-3 -1q10 1 16 6q6 4 9 18t3 39v69v174v69q0 25 -3 39t-9 18q-6 5 -16 6v3h134
q27 0 57 -5q27 -4 48 -18t33 -36q12 -23 12 -55q0 -31 -12 -55t-33 -39q-22 -16 -48 -23q-25 -7 -56 -7h-42v-70v-69q0 -26 3 -39t9 -18t15 -6v-3h-117v3zM307 587l-1 -231h41q15 0 31 3t30 15q12 11 22 35q9 23 9 62q0 41 -9 63q-10 24 -22 35q-14 12 -28 15q-15 3 -30 3
h-43z" />
    <glyph glyph-name="space_uni0326" horiz-adv-x="500" 
d="M276 -117l-2 -4q-3 -3 -10 -7t-19 -4q-16 0 -27 10q-12 10 -12 28q0 20 12 30q11 10 29 10q20 0 33 -13q14 -14 14 -39q0 -20 -6 -33q-6 -14 -15 -23q-8 -8 -21 -13q-12 -5 -25 -6l-2 5q23 4 40 15q16 10 16 30q0 9 -5 14z" />
    <glyph glyph-name="A.alt" horiz-adv-x="505" 
d="M446 127l-4 -2q11 -33 15 -49q6 -21 12 -36q6 -14 14 -24q7 -9 20 -15v-2h-137q2 0 2 1t-2 1q20 5 21 21t-9 57l-47 151h-234l-31 -107q-8 -27 -12 -46q-4 -21 -3 -36q1 -13 8 -25q6 -10 21 -16v-2h-83v2q9 4 18 11q7 6 15 20q8 13 15 36q9 26 18 58l185 631h5zM328 234
l-119 384l-112 -384h231z" />
    <glyph glyph-name="G.alt" horiz-adv-x="543" 
d="M301 -6l-2 -3q-66 0 -117 27q-52 27 -86 78q-34 50 -52 123q-18 72 -18 160q0 97 24 168t63 117t89 69q48 22 102 22q32 0 55 -6q21 -6 38 -14q5 -3 14 -7t13 -6q12 -6 25 -6q19 0 26 28h4v-146h-4q-7 43 -24 73t-39 48q-23 19 -50 26q-29 8 -57 8q-42 0 -78 -18
q-35 -18 -61 -60q-26 -43 -41 -111q-15 -69 -15 -171q0 -109 13 -181q13 -75 39 -123t60 -69t78 -21q23 0 48 5q22 4 39 15t26 27t9 39v46q0 107 -1 140q-1 49 -6 75q-4 25 -14 33q-9 8 -25 12v3h121v-381h-3q-2 17 -8 20t-19 3t-28 -6t-33 -15t-44 -15t-61 -6z" />
    <glyph glyph-name="J.alt" horiz-adv-x="191" 
d="M-41 -160l-2 -7q-29 0 -39 13q-11 14 -11 27q0 16 9 25t26 9q11 0 21 -8q9 -8 17 -17q10 -12 15 -17q8 -8 17 -8q4 0 9 3q6 4 9 5q4 3 9 11t9 24t6 44q2 36 2 69v511q0 88 -1 116q-1 42 -6 63q-5 22 -13 29q-9 8 -25 12v3h167v-3q-15 -4 -24 -12q-9 -7 -13 -28
q-5 -21 -6 -63q-1 -28 -1 -116v-490q0 -34 -10 -60q-11 -29 -25 -48q-15 -21 -33 -36q-22 -18 -33 -26q-22 -16 -41 -21q-16 -4 -33 -4z" />
    </font>
</defs>
</svg>
