<?xml version="1.0" standalone="no"?>
<!DOCTYPE svg PUBLIC "-//W3C//DTD SVG 1.1//EN" "http://www.w3.org/Graphics/SVG/1.1/DTD/svg11.dtd" >
<svg xmlns="http://www.w3.org/2000/svg" xmlns:xlink="http://www.w3.org/1999/xlink" version="1.1">
<metadata>
Created by FontForge 20170731 at Sat Sep  1 00:23:11 2018
 By Aleksey,,,
Copyright (c) 2018 Commercial Type, Inc.. All rights reserved.
</metadata>
<defs>
<font id="SchnyderCondSBold" horiz-adv-x="581" >
  <font-face 
    font-family="Schnyder Cond S Bold"
    font-weight="700"
    font-stretch="condensed"
    units-per-em="1000"
    panose-1="0 0 0 0 0 0 0 0 0 0"
    ascent="800"
    descent="-200"
    x-height="473"
    cap-height="750"
    bbox="-113 -296 968 1081"
    underline-thickness="16"
    underline-position="-124"
    unicode-range="U+000D-FB04"
  />
<missing-glyph horiz-adv-x="164" 
 />
    <glyph glyph-name="f_f" unicode="ff" horiz-adv-x="538" 
d="M278 13l-8 -3q12 5 19 10q7 6 10 16q2 8 4 29q1 12 1 48v340h-128v-340q0 -36 1 -48q2 -20 7 -29q6 -10 18 -16q10 -5 32 -10v-13h-209v13q12 5 19 10q8 7 11 16q3 10 3 29v48v340h-58v14q36 5 48 15t12 42v67q0 49 18 82q18 32 45 52q27 19 57 27q32 8 54 8q46 0 74 -15
q29 -15 38 -37q29 32 64 45q37 14 65 14q52 0 84 -19q33 -20 33 -54q0 -12 -9 -24t-32 -12q-25 0 -36 11q-10 10 -15 35q-6 31 -12 40t-16 9q-9 0 -17 -5t-14 -18q-6 -14 -9 -36q-3 -23 -3 -58v-161h91v-19h-91v-340q0 -36 1 -48q2 -20 7 -29q6 -10 18 -16q10 -5 32 -10v-13
h-209v13zM304 472v118q0 30 8 59h-3q-24 0 -33 12q-10 13 -14 34q-7 29 -12 40q-4 10 -19 10q-25 0 -40 -24t-15 -84v-165h128z" />
    <glyph glyph-name="f_i" unicode="fi" horiz-adv-x="486" 
d="M31 13l-1 -3q12 5 19 10q8 7 11 16q3 10 3 29v48v340h-58v14q37 5 48 15q11 11 11 26v83q0 49 17 83q17 33 42 54t54 30t51 9q46 0 75 -18t29 -49q0 -14 -9 -26t-31 -12q-23 0 -32 11q-8 10 -13 33q-5 28 -9 36q-5 8 -12 8q-9 0 -17 -5t-14 -18t-9 -36t-3 -57v-161h85
l162 14v-373v-48q0 -17 5 -29q4 -10 12 -16q6 -5 21 -10v-13h-195v13q15 5 21 10q8 6 12 16q5 12 5 29v48v215q0 50 -1 66q-2 24 -6 36q-5 13 -13 17q-11 5 -24 8h-85v-340q0 -36 1 -48q2 -20 7 -29q6 -10 18 -16q10 -5 32 -10v-13h-209v13zM373 528l-1 -2q-28 0 -48 20
q-19 19 -19 48q0 27 19 46t48 19q28 0 48 -18t20 -45q0 -29 -19 -48q-20 -20 -48 -20z" />
    <glyph glyph-name="f_l" unicode="fl" horiz-adv-x="488" 
d="M31 13l-3 -1q12 5 19 10q8 7 11 16q3 10 3 29v48v340h-58v14q37 5 48 15q11 11 11 26v66q0 54 18 90q18 37 45 59q26 22 58 31q31 9 57 9q48 0 77 -18t29 -46q0 -12 -10 -25t-31 -13q-24 0 -33 12q-10 13 -14 36q-4 27 -11 34q-6 6 -10 6q-23 0 -39 -27q-16 -26 -16 -90
v-159h73v-19h-73v-340q0 -36 1 -48q2 -20 7 -29q6 -10 18 -16q10 -5 32 -10v-13h-209v13zM270 12h1q15 5 21 10q7 6 12 17q5 12 5 29v48v502q0 25 -1 32q-2 11 -6 17q-5 7 -13 8q-9 1 -24 3v15l161 88v-666q0 -36 1 -48q1 -16 5 -29q3 -10 12 -16q8 -5 24 -10v-13h-198v13z
" />
    <glyph glyph-name="f_f_i" unicode="ffi" horiz-adv-x="733" 
d="M31 13l-8 -3q12 5 19 10q8 7 11 16q3 10 3 29v48v340h-58v14q36 5 48 15t12 42v67q0 49 18 82q18 32 45 52q27 19 57 27q32 8 54 8q46 0 74 -15q29 -15 39 -37q27 32 63 45q37 14 64 14q46 0 76 -18t30 -49q0 -14 -9 -26t-31 -12q-23 0 -32 11q-8 10 -13 33q-5 28 -9 36
q-5 8 -12 8q-9 0 -17 -5t-14 -18t-9 -36t-3 -57v-161h85l162 14v-373v-48q0 -17 5 -29q4 -10 12 -16q6 -5 21 -10v-13h-195v13q15 5 21 10q8 6 12 16q5 12 5 29v48v215q0 50 -1 66q-2 24 -6 36q-5 13 -13 17q-11 5 -24 8h-85v-340q0 -36 1 -48q2 -20 7 -29q6 -10 18 -16
q10 -5 32 -10v-13h-209v13q12 5 19 10q8 7 11 16q3 11 3 29v48v340h-128v-340q0 -36 1 -48q2 -20 7 -29q6 -10 18 -16q10 -5 32 -10v-13h-209v13zM304 472v116q0 34 9 61h-4q-24 0 -33 12q-10 13 -14 34q-7 29 -12 40q-4 10 -19 10q-25 0 -40 -24t-15 -84v-165h128zM613 528
l-1 -2q-28 0 -48 20q-19 19 -19 48q0 27 19 46t48 19q28 0 48 -18t20 -45q0 -29 -19 -48q-20 -20 -48 -20z" />
    <glyph glyph-name="f_f_l" unicode="ffl" horiz-adv-x="735" 
d="M278 13l-2 -2q12 5 19 10q8 7 11 16q3 10 3 29v48v340h-128v-340q0 -36 1 -48q2 -20 7 -29q6 -10 18 -16q10 -5 32 -10v-13h-209v13q12 5 19 10q8 7 11 16q3 10 3 29v48v340h-58v14q36 4 48 15t12 42v66q0 48 18 81q17 31 44 52q25 19 56 27q32 8 54 8q48 0 78 -15
t38 -41q29 35 66 48q39 14 68 14q49 0 77 -18q29 -18 29 -46q0 -12 -10 -25t-31 -13q-24 0 -33 12q-10 13 -14 36q-4 27 -11 34q-6 6 -10 6q-22 0 -39 -27q-16 -26 -16 -90v-159h73v-19h-73v-340q0 -36 1 -48q2 -20 7 -29q6 -10 18 -16q10 -5 32 -10v-13h-209v13zM310 473
l-2 100q0 43 12 75h-6q-23 0 -32 12q-10 13 -14 33q-8 31 -13 40q-6 10 -21 10q-25 0 -39 -23q-13 -22 -13 -83v-164h128zM516 12h1q15 5 21 10q7 6 12 17q5 12 5 29v48v502q0 25 -1 32q-2 11 -6 17q-5 7 -13 8q-9 1 -24 3v15l161 88v-666q0 -36 1 -48q1 -16 5 -29
q3 -10 12 -16q8 -5 24 -10v-13h-198v13z" />
    <glyph glyph-name="f_b" unicode="fb" horiz-adv-x="746" 
d="M31 13l-3 -1q12 5 19 10q8 7 11 16q3 10 3 29v48v340h-58v14q37 5 48 15q11 11 11 26v66q0 54 18 90q18 37 45 59q26 22 58 31q31 9 57 9q48 0 77 -18t29 -46q0 -12 -10 -25t-31 -13q-24 0 -33 12q-10 13 -14 36q-4 27 -11 34q-6 6 -10 6q-23 0 -39 -27q-16 -26 -16 -90
v-159h73v-19h-73v-340q0 -36 1 -48q2 -20 7 -29q6 -10 18 -16q10 -5 32 -10v-13h-209v13zM496 -8h-5q-23 0 -43 6t-36 15q-15 8 -32 15q-15 6 -30 6q-16 0 -22 -9q-5 -8 -7 -16h-14v597q0 29 -1 38q-2 14 -6 21q-5 8 -12 11q-9 4 -21 5v14l159 85v-377q7 9 23 27
q14 15 27 26q14 11 34 19q21 8 45 8q25 0 54 -12t51 -39q23 -28 38 -71t15 -108q0 -64 -16 -111q-17 -48 -45 -81t-69 -51t-87 -18zM451 24h-4q6 -6 14 -12q5 -4 23 -4q53 0 74 60t21 167q0 65 -4 102q-5 45 -13 68q-9 26 -21 38t-28 12q-14 0 -26 -6q-14 -7 -23 -16
q-10 -11 -21 -24l-21 -27v-258q0 -43 8 -67q8 -23 21 -33z" />
    <glyph glyph-name="f_f_b" unicode="ffb" horiz-adv-x="993" 
d="M278 13l-2 -1q12 5 19 10q8 7 11 16q3 10 3 29v48v340h-128v-340q0 -36 1 -48q2 -20 7 -29q6 -10 18 -16q10 -5 32 -10v-13h-209v13q12 5 19 10q8 7 11 16q3 10 3 29v48v340h-58v14q36 5 48 15t12 42v66q0 50 18 81t45 51t57 27q32 8 54 8q49 0 77 -16q28 -17 36 -42
q28 34 66 49t69 15q49 0 77 -18q29 -18 29 -46q0 -12 -10 -25t-31 -13q-24 0 -33 12q-10 13 -14 36q-4 27 -11 34q-6 6 -10 6q-22 0 -39 -27q-16 -26 -16 -90v-159h73v-19h-73v-340q0 -36 1 -48q2 -20 7 -29q6 -10 18 -16q10 -5 32 -10v-13h-209v13zM310 474v97q0 23 3 42
t9 36q-2 -1 -8 -1q-24 0 -33 12q-10 13 -14 32q-7 32 -12 42q-5 11 -18 11q-25 0 -40 -23q-15 -22 -15 -84v-164h128zM744 -10h-5q-23 0 -43 6t-36 15q-15 8 -32 15q-15 6 -30 6q-16 0 -22 -9q-5 -8 -7 -16h-14v597q0 29 -1 38q-2 14 -6 21q-5 8 -12 11q-9 4 -21 5v14
l159 85v-377q7 9 23 27q14 15 27 26q14 11 34 19q21 8 45 8q25 0 54 -12t51 -39q23 -28 38 -71t15 -108q0 -64 -16 -111q-17 -48 -45 -81t-69 -51t-87 -18zM699 22h-4q6 -6 14 -12q5 -4 23 -4q53 0 74 60t21 167q0 65 -4 102q-5 45 -13 68q-9 26 -21 38t-28 12q-14 0 -26 -6
q-14 -7 -23 -16q-10 -11 -21 -24l-21 -27v-258q0 -43 8 -67q8 -23 21 -33z" />
    <glyph glyph-name="f_f_h" unicode="ffh" horiz-adv-x="993" 
d="M278 13l-2 -1q12 5 19 10q8 7 11 16q3 10 3 29v48v340h-128v-340q0 -36 1 -48q2 -20 7 -29q6 -10 18 -16q10 -5 32 -10v-13h-209v13q12 5 19 10q8 7 11 16q3 10 3 29v48v340h-58v14q36 5 48 15t12 42v66q0 50 18 81t45 51t57 27q32 8 54 8q49 0 77 -16q28 -17 36 -42
q28 34 66 49t69 15q49 0 77 -18q29 -18 29 -46q0 -12 -10 -25t-31 -13q-24 0 -33 12q-10 13 -14 36q-4 27 -11 34q-6 6 -10 6q-22 0 -39 -27q-16 -26 -16 -90v-159h73v-19h-73v-340q0 -36 1 -48q2 -20 7 -29q6 -10 18 -16q10 -5 32 -10v-13h-209v13zM310 474v97q0 23 3 42
t9 36q-2 -1 -8 -1q-24 0 -33 12q-10 13 -14 32q-7 32 -12 42q-5 11 -18 11q-25 0 -40 -23q-15 -22 -15 -84v-164h128zM523 10l-4 -1q12 5 19 10q8 7 11 16q3 11 3 29v48v486q0 32 -1 42q-1 14 -6 22t-13 9q-10 2 -25 3v15l163 88v-400l16 16q37 40 71 63t76 23q13 0 33 -5
q18 -4 33 -18q14 -13 25 -36q10 -21 10 -57v-250v-48q0 -19 3 -29t10 -16q6 -5 21 -10v-13h-191v13q15 5 21 10q8 6 12 16t6 29q1 12 1 48v284q0 25 -9 35q-9 11 -23 11q-15 0 -37 -16q-22 -17 -57 -54l-16 -16v-244v-48q0 -17 5 -29q4 -10 12 -16q6 -5 21 -10v-13h-190v13z
" />
    <glyph glyph-name="f_f_j" unicode="ffj" horiz-adv-x="736" 
d="M278 13l-10 -4q12 5 19 10q8 7 11 16q3 11 3 29v48v340h-128v-340q0 -36 1 -48q2 -20 7 -29q6 -10 18 -16q10 -5 32 -10v-13h-209v13q12 5 19 10q8 7 11 16q3 11 3 29v48v340h-58v14q36 4 48 15t12 42v67q0 49 18 82q18 32 45 52t57 27q32 8 54 8q45 0 74 -15t39 -37
q27 31 63 45q37 14 64 14q46 0 76 -18t30 -49q0 -14 -9 -26t-31 -12q-23 0 -32 11q-8 10 -13 33q-4 29 -9 36q-5 8 -12 8q-9 0 -17 -5t-14 -18q-6 -14 -9 -36t-3 -57v-161h85l162 13v-407q0 -30 -3 -56q-3 -25 -12 -49t-27 -45q-20 -23 -46 -41q-36 -25 -61 -34
q-24 -9 -49 -9q-19 0 -34 12t-15 35q0 21 12 31q11 10 27 10q14 0 24 -7q11 -8 20 -17l17 -17q7 -7 15 -7q5 0 9 4q6 4 6 21v59v402q0 32 -1 42q-1 15 -6 24q-4 9 -13 13q-7 4 -24 7h-85v-340q0 -36 1 -48q2 -20 7 -29q6 -10 18 -16q10 -5 32 -10v-13h-209v13zM302 471v116
q0 34 9 61h-4q-24 0 -33 12q-10 13 -14 34q-7 29 -12 40q-4 10 -19 10q-25 0 -40 -24t-15 -84v-165h128zM611 527l-1 -2q-28 0 -48 20q-19 19 -19 48q0 27 19 46t48 19q28 0 48 -18t20 -45q0 -29 -19 -48q-20 -20 -48 -20z" />
    <glyph glyph-name="f_f_k" unicode="ffk" horiz-adv-x="966" 
d="M278 13l-2 -1q12 5 19 10q8 7 11 16q3 10 3 29v48v340h-128v-340q0 -36 1 -48q2 -20 7 -29q6 -10 18 -16q10 -5 32 -10v-13h-209v13q12 5 19 10q8 7 11 16q3 10 3 29v48v340h-58v14q36 5 48 15t12 42v66q0 50 18 81t45 51t57 27q32 8 54 8q49 0 77 -16q28 -17 36 -42
q28 34 66 49t69 15q49 0 77 -18q29 -18 29 -46q0 -12 -10 -25t-31 -13q-24 0 -33 12q-10 13 -14 36q-4 27 -11 34q-6 6 -10 6q-22 0 -39 -27q-16 -26 -16 -90v-159h73v-19h-73v-340q0 -36 1 -48q2 -20 7 -29q6 -10 18 -16q10 -5 32 -10v-13h-209v13zM310 474v97q0 23 3 42
t9 36q-2 -1 -8 -1q-24 0 -33 12q-10 13 -14 32q-7 32 -12 42q-5 11 -18 11q-25 0 -40 -23q-15 -22 -15 -84v-164h128zM523 10q12 5 19 10q8 7 11 16q3 11 3 29v48v502q0 25 -1 32q-2 11 -6 17q-5 7 -12 8q-7 2 -21 3v15l159 89v-666v-48q0 -17 5 -29q4 -10 12 -16
q6 -5 21 -10v-13h-190v13zM771 8l-2 -2q23 4 24 15t-12 36l-95 189v12l137 135q16 16 22 28t3 20t-10 12t-20 6v13h118v-13q-10 -4 -16 -7q-9 -5 -19 -13q-1 -1 -10.5 -9t-15.5 -13q-10 -9 -37 -36l-65 -63l144 -263q13 -26 23 -35q9 -9 17 -12v-11h-186v11z" />
    <glyph glyph-name="f_h" unicode="fh" horiz-adv-x="746" 
d="M31 13l-3 -1q12 5 19 10q8 7 11 16q3 10 3 29v48v340h-58v14q37 5 48 15q11 11 11 26v66q0 54 18 90q18 37 45 59q26 22 58 31q31 9 57 9q48 0 77 -18t29 -46q0 -12 -10 -25t-31 -13q-24 0 -33 12q-10 13 -14 36q-4 27 -11 34q-6 6 -10 6q-23 0 -39 -27q-16 -26 -16 -90
v-159h73v-19h-73v-340q0 -36 1 -48q2 -20 7 -29q6 -10 18 -16q10 -5 32 -10v-13h-209v13zM275 12l-4 -1q12 5 19 10q8 7 11 16q3 10 3 29v48v486q0 32 -1 42q-1 14 -6 22t-13 9q-10 2 -25 3v15l163 88v-400l16 16q37 40 71 63t76 23q13 0 33 -5q18 -4 33 -18q14 -13 25 -36
q10 -21 10 -57v-250v-48q0 -19 3 -29t10 -16q6 -5 21 -10v-13h-191v13q15 5 21 10q8 6 12 16t6 29q1 12 1 48v284q0 25 -9 35q-9 11 -23 11q-15 0 -37 -16q-22 -17 -57 -54l-16 -16v-244v-48q0 -17 5 -29q4 -10 12 -16q6 -5 21 -10v-13h-190v13z" />
    <glyph glyph-name="f_j" unicode="fj" horiz-adv-x="488" 
d="M31 13l-3 -4q12 5 19 10q8 7 11 16q3 11 3 29v48v340h-58v14q37 4 48 15t11 26v83q0 49 17 83q17 33 42 54t54 30t51 9q46 0 75 -18t29 -49q0 -14 -9 -26t-31 -12q-23 0 -32 11q-8 10 -13 33q-5 29 -9 36q-5 8 -12 8q-9 0 -17 -5t-14 -18q-6 -14 -9 -36t-3 -57v-161h85
l162 13v-407q0 -30 -3 -56q-3 -25 -12 -49t-27 -45q-20 -23 -46 -41q-36 -25 -61 -34q-24 -9 -49 -9q-19 0 -34 12t-15 35q0 21 12 31q11 10 27 10q14 0 24 -7q11 -8 20 -17l17 -17q7 -7 15 -7q5 0 9 4q6 4 6 21v59v402q0 32 -1 42q-2 15 -6 24t-13 13q-7 4 -24 7h-85v-340
q0 -36 1 -48q2 -20 7 -29q6 -10 18 -16q10 -5 32 -10v-13h-209v13zM371 527l-1 -2q-28 0 -48 20q-19 19 -19 48q0 27 19 46t48 19q28 0 48 -18t20 -45q0 -29 -19 -48q-20 -20 -48 -20z" />
    <glyph glyph-name="f_k" unicode="fk" horiz-adv-x="719" 
d="M31 13l-3 -1q12 5 19 10q8 7 11 16q3 10 3 29v48v340h-58v14q37 5 48 15q11 11 11 26v66q0 54 18 90q18 37 45 59q26 22 58 31q31 9 57 9q48 0 77 -18t29 -46q0 -12 -10 -25t-31 -13q-24 0 -33 12q-10 13 -14 36q-4 27 -11 34q-6 6 -10 6q-23 0 -39 -27q-16 -26 -16 -90
v-159h73v-19h-73v-340q0 -36 1 -48q2 -20 7 -29q6 -10 18 -16q10 -5 32 -10v-13h-209v13zM275 12q12 5 19 10q8 7 11 16q3 10 3 29v48v502q0 25 -1 32q-2 11 -6 17q-5 7 -12 8q-7 2 -21 3v15l159 89v-666v-48q0 -17 5 -29q4 -10 12 -16q6 -5 21 -10v-13h-190v13zM523 10
l-2 -2q23 4 24 15t-12 36l-95 189v12l137 135q16 16 22 28t3 20t-10 12t-20 6v13h118v-13q-10 -4 -16 -7q-9 -5 -19 -13q-1 -1 -10.5 -9t-15.5 -13q-10 -9 -37 -36l-65 -63l144 -263q14 -25 23 -35q9 -9 17 -12v-11h-186v11z" />
    <glyph glyph-name="g_j" unicode="gj" horiz-adv-x="674" 
d="M556 540h-2q-28 0 -48 20q-19 19 -19 48q0 27 20 47t48 20q29 0 48 -19q20 -20 20 -48q0 -29 -19 -48q-20 -20 -48 -20zM410 -151l-2 -3q-20 0 -34 8q-13 7 -13 24q0 10 4 18q5 9 10 16q6 8 13 12q8 5 12 5q13 0 23 -7q14 -10 20 -16t18 -16q8 -7 18 -7q6 0 10 4
q7 6 7 21v57v332q0 32 -1 43q-1 16 -6 25q-4 9 -13 13q-7 4 -24 7v15l161 87v-410q0 -29 -3 -54t-12 -48t-27 -44q-20 -23 -46 -41q-38 -26 -64 -33q-29 -8 -51 -8zM195 169l-6 -4q-22 0 -41 4q-22 5 -41 12l-11 -9q-14 -13 -18 -19q-5 -8 -5 -15t6 -13t35 -12l145 -20
q40 -6 69 -17q27 -10 44 -26q17 -15 23 -35q6 -19 6 -42q0 -37 -16 -63q-17 -27 -45 -45t-66 -27t-81 -9q-37 0 -71 6t-63 18q-28 12 -46 30t-18 44q0 14 8 27q8 12 20 23q13 11 29 20q11 6 33 16q-34 12 -48 32t-14 45q0 30 18 52q17 21 41 42l9 7q-31 17 -54 48t-21 81
q0 41 17 72t42 50q26 20 56 29t59 9q17 0 42 -5q23 -5 44 -15q25 22 50 36t42 14q22 0 35 -11q12 -11 12 -30q0 -18 -10 -28t-21 -10t-20 6q-6 4 -16 12q-5 4 -13 12q-6 6 -12 6q-9 0 -17 -3q-10 -4 -15 -7q32 -20 54 -52t22 -82q0 -41 -17 -72q-16 -30 -42 -48
q-27 -19 -55 -26q-32 -8 -58 -8zM189 181q11 0 21 7q11 8 20 24t15 42q6 25 6 65q0 76 -20 111q-19 34 -44 34q-26 0 -45 -34t-19 -111q0 -39 6 -65t15 -42t21 -24q11 -7 24 -7zM64 -72l-2 1q0 -36 33 -61q32 -25 98 -25q73 0 112 24t39 60q0 13 -4 21q-4 9 -16 16
q-12 8 -31 12t-51 9l-104 15l-18 3q-6 1 -16 3q-22 -13 -31 -33q-9 -19 -9 -45z" />
    <glyph glyph-name=".notdef" horiz-adv-x="164" 
 />
    <glyph glyph-name=".null" horiz-adv-x="0" 
 />
    <glyph glyph-name="nonmarkingreturn" unicode="&#xd;" horiz-adv-x="164" 
 />
    <glyph glyph-name="NULL" horiz-adv-x="0" 
 />
    <glyph glyph-name="NULL" horiz-adv-x="0" 
 />
    <glyph glyph-name="space" unicode=" " horiz-adv-x="164" 
 />
    <glyph glyph-name="exclam" unicode="!" horiz-adv-x="253" 
d="M117 218h-2q-8 111 -19 180q-14 90 -22 128q-10 52 -18 87q-8 37 -8 60q0 41 21 62t57 21q37 0 58 -21t21 -62q0 -23 -8 -60q-17 -79 -19 -87q-12 -51 -24 -128q-11 -69 -19 -180h-18zM125 -15l-2 -2q-31 0 -52 21t-21 53t21 53t53 21t53 -21t21 -52t-21 -52t-52 -21z
" />
    <glyph glyph-name="quotedbl" unicode="&#x22;" horiz-adv-x="376" 
d="M265 506l-1 -1q-5 27 -13 52l-18 57q-3 10 -8.5 28t-7.5 25q-7 22 -7 41q0 28 15 45t47 17q31 0 48 -17q16 -16 16 -45q0 -19 -7 -41q-2 -7 -7.5 -24.5t-8.5 -27.5l-18 -57q-10 -33 -14 -52h-16zM93 505l-1 -1q-4 19 -14 52l-18 57q-3 10 -8.5 28t-7.5 25q-7 22 -7 41
q0 29 16 45q17 17 48 17q32 0 47 -17q15 -16 15 -45q0 -19 -7 -41q-2 -7 -7.5 -24.5t-8.5 -27.5l-18 -57q-8 -25 -13 -52h-16z" />
    <glyph glyph-name="numbersign" unicode="#" horiz-adv-x="412" 
d="M13 284h96l36 232h-92v20h95l34 214h23l-34 -214h105l34 214h23l-34 -214h97v-20h-100l-36 -232h96v-20h-100l-41 -263h-23l41 263h-105l-41 -263h-23l41 263h-92v20zM237 284l36 232h-105l-36 -232h105z" />
    <glyph glyph-name="dollar" unicode="$" horiz-adv-x="455" 
d="M200 827l-9 -69q4 1 12 1h14h13q8 0 12 -1v70h22v-72q64 -7 107 -38q42 -30 42 -78q0 -24 -13 -38q-14 -15 -34 -15q-29 0 -44 18q-16 19 -20 51q-4 34 -9 54t-27 27v-282l1 -1q35 -26 63 -54q30 -30 50 -60q21 -32 33 -66t12 -75q0 -86 -43 -138q-44 -53 -115 -66v-84
h-22v81q-4 -1 -12 -1h-13h-12q-8 0 -12 1v-81h-22v83q-35 5 -65 15q-29 10 -51 26q-21 15 -33 36t-12 46q0 29 18 44t44 15q25 0 42 -15t18 -46q0 -31 1 -43q2 -18 6 -30q4 -11 12 -19q7 -7 23 -10v339q-35 27 -59 48q-24 22 -46 50q-20 26 -30 57q-10 30 -10 71
q0 72 41 118q41 45 105 57v74h22zM217 743l-2 -1h-13q-8 0 -12 -1v-232q10 -9 24 -18q9 -6 27 -20v271q-3 1 -11 1h-13zM108 637v-1q0 -36 15 -61q14 -25 44 -51v208q-30 -12 -44 -37q-15 -25 -15 -58zM214 8h14q4 0 12 2v287q-10 9 -24 18q-9 6 -27 20v-326q3 -1 11 -1h14z
M333 138h-1q0 35 -15 68q-16 35 -55 71v-262q71 26 71 123z" />
    <glyph glyph-name="percent" unicode="%" horiz-adv-x="663" 
d="M177 379l-2 -2q-27 0 -55 14q-25 13 -46 38q-20 25 -32 59t-12 77t12 77q12 33 32 60q19 25 47 39t56 14q29 0 55 -13q27 -14 48 -39t33 -60q12 -34 12 -76q0 -43 -12 -77q-12 -35 -33 -59q-22 -25 -48 -38q-28 -14 -55 -14zM111 7l418 747l19 -12l-418 -748zM175 393h1
q22 0 39 39q16 38 16 134q0 52 -4 81q-5 34 -12 53q-8 20 -18 29t-22 9q-23 0 -38 -38t-15 -134q0 -95 15 -134t38 -39zM483 -8l-1 -2q-27 0 -55 14q-25 13 -46 38q-20 25 -32 59t-12 77t12 77q12 33 32 60q19 25 47 39t55 14q29 0 55 -13q27 -13 48 -39t33 -60
q12 -35 12 -76q0 -42 -12 -77t-33 -59q-22 -25 -48 -38q-28 -14 -55 -14zM482 6q24 0 39 39t15 134q0 97 -15 134q-15 38 -39 38q-23 0 -38 -38t-15 -134q0 -95 15 -134t38 -39z" />
    <glyph glyph-name="ampersand" unicode="&#x26;" horiz-adv-x="661" 
d="M143 599l-9 -4q0 39 16 68q16 30 42 51q25 21 59 33q33 12 67 12q29 0 56 -9q29 -10 50 -25q22 -17 36 -42q14 -26 14 -58q0 -35 -16 -61q-16 -27 -39 -48t-48 -36q-17 -10 -47 -25l9 -16l147 -221l45 107q13 30 22 57q8 23 6 38q-1 15 -12 24t-33 15v13h149v-13
q-18 -4 -34 -11q-13 -6 -25 -21q-13 -16 -24 -40q-14 -31 -30 -67l-51 -120q38 -60 66 -100q23 -32 41 -54q15 -17 26 -24q14 -8 21 -11v-13h-177l-46 74q-36 -46 -78 -66q-41 -19 -93 -19q-48 0 -90 14q-39 13 -70 41q-29 26 -46 66q-16 38 -16 88q0 51 18 89t45 65
q28 28 57 47q30 19 54 33q-35 56 -48 94q-14 40 -14 75zM159 203h-1q0 -103 24 -151t72 -48q43 0 80 19q38 20 72 64l-171 277q-12 18 -17 26q-10 16 -15 23q-11 -11 -18 -27q-9 -19 -14 -42q-6 -26 -9 -60t-3 -81zM242 656l1 -1q0 -29 6 -54q5 -22 17 -49q12 -28 22 -45
q8 -14 24 -40q15 11 26 21q15 13 26 30q13 19 20 42q8 26 8 59q0 40 -7 62q-8 26 -19 38q-12 14 -25 18q-15 5 -24 5q-33 0 -54 -25t-21 -61z" />
    <glyph glyph-name="quotesingle" unicode="'" horiz-adv-x="204" 
d="M94 506l-1 -1q-4 19 -14 52l-18 57q-3 10 -8.5 28t-7.5 25q-7 22 -7 41q0 29 16 45q17 17 48 17q32 0 47 -17t15 -45q0 -19 -7 -41q-2 -7 -7.5 -24.5t-8.5 -27.5l-18 -57q-8 -25 -13 -52h-16z" />
    <glyph glyph-name="parenleft" unicode="(" horiz-adv-x="290" 
d="M267 -106l-1 -1q-28 23 -69 63q-41 41 -78 97t-64 130q-27 73 -27 162t27 162q26 71 65 130q38 57 78 96q43 42 69 62l10 -11q-15 -16 -36 -49q-22 -33 -43 -88q-21 -54 -36 -129t-15 -172q0 -98 15 -173t36 -129q21 -55 43 -88q23 -34 36 -51z" />
    <glyph glyph-name="parenright" unicode=")" horiz-adv-x="290" 
d="M13 -95l-1 -1q14 16 36 51q21 32 43 89q21 54 36 129t15 173q0 97 -15 172t-36 129q-22 57 -43 89q-21 33 -36 49l10 11q26 -20 69 -62q41 -39 78 -96q39 -59 65 -130q27 -74 27 -162t-27 -162t-64 -130t-78 -97q-40 -41 -69 -63z" />
    <glyph glyph-name="asterisk" unicode="*" horiz-adv-x="350" 
d="M206 486l-10 -8q0 -37 -31 -37q-32 0 -32 37q0 24 12 51t18 61q-23 -28 -33 -57t-27 -45q-13 -13 -27 -13q-13 0 -24 11t-11 24q0 14 15 27q18 16 47 27q30 11 56 30q-36 -5 -63 -16q-28 -12 -51 -12q-37 0 -37 32q0 31 37 31q12 0 24 -3q2 0 27 -8l30 -9q10 -3 32 -7
q-14 10 -27 18q-18 10 -27 14t-25 12q-12 6 -21 15q-14 12 -14 26q0 13 11 24q23 23 48 -4q15 -17 27 -45t33 -57q-6 37 -18 64t-12 50q0 37 32 37q31 0 31 -37q0 -23 -12 -51q-11 -27 -16 -63q21 30 32 57q12 28 29 45q12 14 25 14t24 -11t11 -24t-14 -25q-9 -9 -21 -15
l-24 -12l-26 -13q-14 -7 -27 -18q34 4 62 17q27 12 50 12q38 0 38 -31q0 -32 -38 -32q-23 0 -50 12q-29 13 -61 17q29 -20 55 -30q27 -10 45 -27q14 -12 15 -25q1 -14 -9 -24q-11 -11 -24 -11t-25 14q-9 10 -14 21q-8 16 -12 25q-2 4 -4 8.5t-5 10.5t-5 9q-8 16 -18 29
q4 -35 17 -62q12 -25 12 -50z" />
    <glyph glyph-name="plus" unicode="+" horiz-adv-x="421" 
d="M200 173v168h-160v19h160v170h22v-170h159v-19h-159v-168h-22z" />
    <glyph glyph-name="comma" unicode="," horiz-adv-x="266" 
d="M161 20h-1q-7 -12 -16 -17q-10 -6 -30 -6q-25 0 -43 18t-18 47q0 30 21 50q22 20 48 20q15 0 30 -6q16 -6 27 -19q13 -14 20 -33q8 -21 8 -48q0 -61 -40 -102q-40 -42 -100 -61l-6 10q51 20 80 50q29 31 29 68q0 20 -9 29z" />
    <glyph glyph-name="hyphen" unicode="-" horiz-adv-x="295" 
d="M66 314h186l-23 -87h-187z" />
    <glyph glyph-name="period" unicode="." horiz-adv-x="252" 
d="M127 -15v-2q-32 0 -53 21t-21 53t21 53t53 21q31 0 51 -21q20 -22 20 -52t-20 -52q-20 -21 -51 -21z" />
    <glyph glyph-name="slash" unicode="/" horiz-adv-x="367" 
d="M357 795l-346 -961l-23 8l346 961z" />
    <glyph glyph-name="zero" unicode="0" horiz-adv-x="598" 
d="M302 761l-3 -3q53 0 99 -27q48 -28 83 -76q36 -50 57 -121q21 -72 21 -160t-21 -160q-21 -71 -56 -123q-34 -51 -81 -78t-99 -27t-100 27t-84 78t-57 123t-21 160q0 89 21 161q21 73 57 122q37 50 84 77q48 27 100 27zM299 742l-2 -2q-60 0 -90 -90t-30 -279
q0 -186 26 -279q25 -91 95 -91q34 0 57 23q23 22 36 69q13 46 18 116q5 77 5 164q2 189 -27 279t-88 90z" />
    <glyph glyph-name="one" unicode="1" horiz-adv-x="320" 
d="M38 0l-3 11q20 3 32 9t18 24q7 20 8 51q2 44 2 92v325q0 38 -1 51q-2 19 -9 30t-21 12q-16 2 -38 -1v14l204 147v-576q0 -70 1 -92q2 -35 7 -51q6 -18 18 -24t32 -9v-13h-250z" />
    <glyph glyph-name="two" unicode="2" horiz-adv-x="470" 
d="M223 114l2 10q54 0 106 2q37 1 60 8q20 6 30 17t17 29h18l-33 -124q-7 -31 -14 -39q-6 -7 -24 -7h-383l141 191q38 53 66 104t44 93q17 45 24 90q8 48 8 95q0 89 -18 129t-59 40q-23 0 -33 -7t-16 -21t-9 -33t-6 -45q-5 -32 -19 -48q-15 -17 -44 -17q-27 0 -45 18t-18 44
q0 24 12 45q12 22 36 38t60 27q34 10 82 10q26 0 63 -9q39 -9 72 -31q35 -23 59 -60t24 -96q0 -49 -15 -94q-15 -46 -43 -91q-28 -46 -72 -96t-102 -108l-86 -64h115z" />
    <glyph glyph-name="three" unicode="3" horiz-adv-x="512" 
d="M216 7l-3 -3q65 0 93 63q28 62 28 179q0 57 -1 81q-2 38 -7 61q-6 25 -20 39t-37 14q-29 0 -45 -4q-19 -5 -32 -12q-12 -7 -25 -18q-8 -7 -24 -23l-10 11l213 243h-115q-49 0 -78 -3t-44 -9t-23 -17q-7 -10 -15 -29h-18l33 131q8 27 12 33t18 6h341v-14l-254 -291
q13 6 30 9t40 3q37 0 76 -11q37 -10 66 -35q27 -23 46 -65q18 -40 18 -99q0 -60 -18 -108q-18 -49 -52 -81q-35 -33 -82 -51q-48 -18 -108 -18q-40 0 -76 11q-33 10 -58 29q-24 18 -36 41q-12 22 -12 48q0 23 15 41t42 18q62 0 66 -60q3 -23 3 -42q0 -18 5 -35q4 -15 15 -24
t33 -9z" />
    <glyph glyph-name="four" unicode="4" horiz-adv-x="540" 
d="M416 188l-2 -1q0 -68 1 -90q1 -33 6 -51q4 -18 14 -24q8 -5 24 -10v-13h-222v13q14 4 24 11q10 6 14 24q5 18 6 51q1 22 1 90h-271v14l357 558h48v-484h112l-42 -88h-70zM280 275v313l-198 -313h198z" />
    <glyph glyph-name="five" unicode="5" horiz-adv-x="497" 
d="M130 641l-46 -207q27 20 60 32q34 12 69 12q44 0 90 -11q45 -11 77 -37q33 -27 54 -70q21 -44 21 -110q0 -67 -22 -115q-22 -49 -58 -82q-35 -32 -83 -49q-45 -16 -96 -16q-37 0 -70 9q-31 8 -58 26q-24 16 -40 41q-15 24 -15 53q0 23 18 40q17 16 43 16t42 -15
q17 -15 18 -40q3 -30 3 -51q0 -23 4 -35q4 -13 16 -19t38 -6q31 0 53 18q23 19 38 51q16 35 23 78q8 48 8 99q0 99 -23 156q-23 56 -77 56q-41 0 -79 -15q-37 -15 -60 -38l-11 8l67 329h316l-27 -87q-4 -14 -8 -18q-3 -3 -14 -3h-271z" />
    <glyph glyph-name="six" unicode="6" horiz-adv-x="571" 
d="M333 744l2 1q-37 0 -64 -18t-45 -51q-17 -32 -28 -82q-10 -50 -15 -111q20 16 47 27q24 10 54 10q56 0 101 -16q47 -16 81 -48q35 -32 54 -79q20 -49 20 -111q0 -68 -24 -119q-24 -52 -60 -86q-35 -34 -78 -52q-42 -18 -80 -18q-42 0 -90 23q-46 22 -85 69
q-38 45 -64 117q-25 69 -25 165q0 87 27 159q28 74 70 125q43 53 96 81q53 29 105 29q36 0 70 -8q32 -7 54 -21q22 -13 34 -33q12 -19 12 -42q0 -27 -16 -42t-39 -15q-25 0 -45 12t-21 45q-3 29 -8 50q-4 17 -11 27q-6 8 -14 10q-10 2 -15 2zM181 367v-3q0 -98 11 -170
q10 -69 27 -111q16 -41 38 -60q21 -18 42 -18q34 0 54 17q19 16 30 50q11 35 14 81q3 48 3 110q0 71 -9 117t-24 73q-16 28 -37 38q-24 11 -48 11q-30 0 -54 -10q-25 -10 -46 -30q-1 -15 -1 -46v-49z" />
    <glyph glyph-name="seven" unicode="7" horiz-adv-x="460" 
d="M186 0l-19 -1l218 638h-207q-33 0 -65 -2q-23 -1 -37 -6t-21 -12t-15 -20h-14l35 124q5 19 9 24q5 5 18 5h353v-14z" />
    <glyph glyph-name="eight" unicode="8" horiz-adv-x="523" 
d="M491 201v-7q0 -48 -19 -86t-51 -67q-31 -28 -72 -43t-84 -15q-49 0 -94 14t-75 37q-31 23 -49 57q-18 33 -18 71q0 40 13 70q13 31 36 55q23 25 52 42q30 18 63 33q-33 26 -57 48q-23 22 -39 47q-14 23 -22 51q-7 25 -7 60q0 47 18 83q18 35 47 60q28 24 65 36
q36 12 72 12q44 0 80 -12q37 -12 62 -33q26 -22 41 -51q15 -30 15 -66q0 -30 -12 -56q-13 -28 -31 -47q-22 -23 -43 -38q-24 -16 -48 -27q78 -55 118 -108q39 -53 39 -120zM266 -1v2q33 0 57 8q23 8 36 22q14 15 18 37q5 25 5 51q0 39 -10 66q-11 29 -30 53q-20 25 -46 45
q-29 23 -59 44l-34 24q-30 -23 -45 -63t-15 -119q0 -32 5 -67q4 -32 18 -54q13 -22 38 -36q23 -13 62 -13zM320 433v-3q26 23 38 58q12 36 12 101q0 37 -8 67q-7 28 -21 46q-13 18 -32 27q-18 9 -38 9q-57 0 -81 -25t-24 -81q0 -57 36 -99q34 -40 101 -88z" />
    <glyph glyph-name="nine" unicode="9" horiz-adv-x="569" 
d="M237 6l-1 -1q46 0 75 18t45 52q17 36 23 84q7 55 8 113q-23 -18 -51 -30t-61 -12q-49 0 -94 15t-79 46q-35 32 -54 79q-20 49 -20 114q0 68 24 119t60 84q37 34 78 50q43 17 79 17q49 0 96 -24q46 -24 84 -71q37 -46 60 -116q22 -67 22 -160q0 -84 -21 -156
q-21 -73 -60 -125q-38 -52 -93 -82q-54 -30 -121 -30q-35 0 -69 8q-31 7 -56 23q-23 14 -37 35q-13 19 -13 44q0 26 15 42t40 16q28 0 45 -13q19 -14 20 -46q1 -23 5 -46q3 -17 9 -28q6 -10 17 -15q9 -4 25 -4zM169 490l1 -4q0 -61 3 -106q3 -43 14 -75q11 -30 33 -45
t58 -15q33 0 63 14q27 13 49 33v90q0 104 -12 173q-12 68 -30 109q-18 40 -39 57q-22 17 -39 17q-49 0 -75 -59q-26 -60 -26 -189z" />
    <glyph glyph-name="colon" unicode=":" horiz-adv-x="260" 
d="M131 298v-2q-32 0 -53 21t-21 53t21 53t53 21q31 0 51 -21q20 -22 20 -52t-20 -52q-20 -21 -51 -21zM131 -17v-2q-32 0 -53 21t-21 53t21 53t53 21q31 0 51 -21q20 -22 20 -52t-20 -52q-20 -21 -51 -21z" />
    <glyph glyph-name="semicolon" unicode=";" horiz-adv-x="273" 
d="M135 298l-1 -2q-31 0 -52 21t-21 53t21 53t52 21q32 0 53 -21t21 -52t-21 -52t-52 -21zM163 18v-1q-7 -12 -16 -17q-11 -6 -30 -6q-25 0 -43 18t-18 47q0 31 21 50q22 20 48 20q15 0 30 -6q16 -6 27 -19q13 -14 20 -33q8 -21 8 -48q0 -61 -40 -102q-40 -42 -100 -61
l-7 10q52 19 81 50t29 68q0 10 -3 18t-7 12z" />
    <glyph glyph-name="less" unicode="&#x3c;" horiz-adv-x="406" 
d="M48 363l310 138v-24l-284 -126l284 -127v-24l-310 138v25z" />
    <glyph glyph-name="equal" unicode="=" horiz-adv-x="425" 
d="M42 416h341v-19h-341v19zM42 295h341v-20h-341v20z" />
    <glyph glyph-name="greater" unicode="&#x3e;" horiz-adv-x="406" 
d="M48 200v24l284 127l-284 126v24l310 -138v-25z" />
    <glyph glyph-name="question" unicode="?" horiz-adv-x="397" 
d="M143 204l-7 -8q-3 56 3 99q7 48 16 80q9 33 23 68q20 53 23 61q11 32 18 58q8 30 8 62q0 64 -13 89q-14 26 -51 26q-17 0 -22 -9t-9 -31q-5 -31 -16 -51q-12 -21 -43 -20q-22 1 -37 15q-15 13 -13 33q1 33 38 57q36 24 105 24q98 0 147 -40q50 -41 50 -109q0 -40 -15 -72
q-15 -31 -38 -59q-25 -30 -49 -54q-27 -27 -49 -58q-24 -34 -38 -70q-15 -39 -15 -91h-16zM156 -23l-1 -2q-31 0 -52 21t-21 53t21 53t52 21q32 0 53 -21t21 -52t-21 -52t-52 -21z" />
    <glyph glyph-name="at" unicode="@" horiz-adv-x="798" 
d="M659 -56h-1q-16 -15 -45 -37q-25 -19 -60 -36t-78 -27q-41 -10 -96 -10q-67 0 -132 20q-62 19 -111 62q-47 41 -76 107q-28 63 -28 155q0 94 36 177t96 144q60 62 136 96q78 35 159 35q68 0 126 -20q56 -19 97 -57q40 -37 63 -92t23 -123q0 -64 -24 -126t-70 -108
t-114 -73t-156 -21l8 51q-26 -29 -46 -42t-52 -13q-22 0 -45 9t-39 30q-17 21 -27 52q-10 30 -10 75q0 63 23 118t58 93q36 39 79 60t86 21q19 0 33 -6q18 -8 26 -12t22 -12q10 -6 24 -6q11 0 20 6q10 7 20 18h14l-53 -314q-7 -38 -8 -54q-2 -22 1 -31q3 -11 10 -12t23 5
q28 10 56 32t47 54q20 35 32 78q12 45 12 103q0 70 -21 124t-58 91q-37 38 -90 57q-51 19 -115 19q-70 0 -132 -28q-65 -29 -110 -79q-46 -51 -75 -125q-28 -72 -28 -165q0 -86 21 -152t60 -111q40 -46 93 -68q55 -23 122 -23q47 0 88 9q40 9 73 24q34 16 59 33q25 18 45 36
zM318 145v-2q0 -61 8 -88q7 -25 23 -25q12 0 27 12t41 41l46 275q2 20 3 31q2 17 0 30q-1 13 -8 21q-6 8 -20 8q-16 0 -37 -23t-39 -63q-17 -38 -31 -96q-13 -53 -13 -121z" />
    <glyph glyph-name="A" unicode="A" 
d="M12 13v-4q9 4 18 11q8 6 15 21q7 14 15 38q8 23 18 60l139 496l-11 37q-11 34 -23 47q-11 11 -27 16v13h153q11 0 14 -4q4 -6 8 -18l176 -601q17 -58 28 -81q12 -26 34 -30v-15h-210v15q23 3 28 20t-6 59l-38 127h-222l-22 -78q-9 -36 -11 -54q-3 -23 1 -37q5 -15 16 -24
q13 -10 34 -14v-13h-127v13zM338 232l-109 369l-104 -369h213z" />
    <glyph glyph-name="B" unicode="B" horiz-adv-x="558" 
d="M26 13l-6 -3q16 4 25 12q9 7 13 25t6 51q1 22 1 91v366q0 69 -1 91q-2 33 -6 51t-13 25q-9 8 -25 12v13h204q131 0 194 -42t63 -127q0 -31 -10 -58q-11 -28 -33 -51q-22 -22 -59 -39q-35 -16 -88 -22v-3q114 -13 175 -65q60 -51 60 -127q0 -57 -22 -97q-23 -41 -61 -66
q-40 -26 -95 -38q-56 -12 -123 -12h-199v13zM201 731l-1 -319h18q45 0 71 10q28 11 44 30t22 49t6 69q0 44 -6 74q-6 31 -22 50t-43 28t-67 9h-22zM200 396l-3 -382h13q48 0 81 9t54 30t30 56t9 87q0 47 -8 87q-8 37 -27 63q-20 26 -51 38q-32 12 -80 12h-18z" />
    <glyph glyph-name="C" unicode="C" horiz-adv-x="555" 
d="M340 -15v-3q-55 0 -110 23q-52 22 -97 71q-43 47 -70 123q-27 75 -27 180q0 102 27 174q27 73 69 119q41 46 93 67q51 21 97 21q29 0 48 -4q24 -5 36 -10q5 -2 29 -10q12 -4 27 -4q27 0 33 27h16v-184h-16q-32 92 -77 131t-94 39q-29 0 -54 -19q-26 -20 -45 -61
q-19 -42 -30 -110q-11 -71 -11 -165q0 -103 14 -178q13 -71 39 -115q25 -43 60 -63q34 -19 75 -19t78 20q36 20 62 50l12 -11q-12 -15 -27 -29q-18 -16 -39 -29t-52 -22q-30 -9 -66 -9z" />
    <glyph glyph-name="D" unicode="D" horiz-adv-x="640" 
d="M26 13v-1q16 4 25 12q9 7 13 25t6 51q1 22 1 91v366q0 69 -1 91q-2 33 -6 51t-13 25q-9 8 -25 12v13h217q77 0 140 -22q66 -23 113 -67t76 -114q28 -68 28 -162q0 -89 -25 -160t-72 -121q-46 -49 -112 -76t-148 -27h-217v13zM207 733l-2 -717h36q53 0 92 18t65 62t39 114
q13 68 13 176q0 107 -17 177q-17 67 -45 105t-66 51q-39 14 -79 14h-36z" />
    <glyph glyph-name="E" unicode="E" horiz-adv-x="520" 
d="M26 13l1 -2q16 4 25 12q9 7 13 25q5 18 6 51q1 22 1 91v366q0 69 -1 91q-1 33 -6 51q-4 18 -13 25q-9 8 -25 12v13h403q11 0 15 -4q5 -5 9 -25l20 -110h-18q-13 37 -29 62q-15 25 -39 38q-23 13 -58 19q-34 6 -87 6h-35v-306q37 1 60 8q20 6 33 17q11 10 16 26q5 15 9 33
h14v-185h-14q-4 18 -9 33q-5 16 -16 26q-13 11 -33 17q-23 7 -60 8v-396h45q59 0 96 6q38 6 62 21t39 42t27 70h18l-14 -123q-1 -22 -8 -27q-5 -4 -22 -4h-425v13z" />
    <glyph glyph-name="F" unicode="F" horiz-adv-x="505" 
d="M26 13l-3 -2q16 4 25 12q9 7 13 25q5 18 6 51q1 22 1 92v366q0 70 -1 92q-1 33 -6 51q-4 18 -13 25q-9 8 -25 12v13h422q11 0 15 -4q5 -5 8 -25l17 -117h-17q-14 38 -27 63q-13 24 -38 40q-24 15 -63 21t-103 6h-32v-309h20q42 0 66 6t36 18q13 13 17 28q6 22 9 34h14
v-186h-14q-5 18 -9 33q-5 16 -16 27q-12 12 -36 18t-66 6h-20v-217q0 -69 1 -91q1 -33 6 -51q4 -17 14 -25q9 -7 24 -12v-13h-225v13z" />
    <glyph glyph-name="G" unicode="G" horiz-adv-x="638" 
d="M346 -15l-2 -6q-66 0 -124 29q-57 28 -99 81q-42 52 -66 125q-24 72 -24 161q0 97 30 169t75 120t98 71q54 23 99 23q32 0 51 -4q25 -5 39 -10q3 -1 33 -10q13 -4 33 -4t27 25h15v-184h-15q-22 83 -68 128q-45 45 -113 45q-35 0 -63 -19q-29 -20 -48 -61t-31 -109
q-12 -67 -12 -165q0 -204 39 -297t125 -93q38 0 65 37t27 121v28q0 44 -3 72t-9 45t-16 24q-9 7 -24 10v13h231v-13q-15 -2 -23 -10q-9 -9 -15 -31t-9 -65q-3 -42 -3 -112v-36q-20 -22 -49 -39q-28 -17 -61 -31q-32 -14 -61 -21q-28 -7 -49 -7z" />
    <glyph glyph-name="H" unicode="H" horiz-adv-x="647" 
d="M26 13l-2 -4q16 4 25 12q9 7 13 25t6 51q1 22 1 92v366q0 70 -1 92q-2 33 -6 51t-13 25q-9 8 -25 12v13h223v-13q-16 -4 -25 -12q-9 -7 -13 -25q-5 -18 -6 -51q-1 -22 -1 -91v-139h238v139q0 70 -1 92q-1 33 -6 51q-4 18 -13 25q-9 8 -24 12v13h222v-13q-15 -4 -24 -12
q-9 -7 -13 -25q-5 -18 -6 -51q-1 -22 -1 -91v-366q0 -69 1 -91q1 -33 6 -51q4 -17 14 -25q9 -8 24 -12v-13h-222v13q15 4 24 12q10 8 14 25q5 18 6 51q1 22 1 92v211h-238v-211q0 -69 1 -91q1 -33 6 -51q4 -18 13 -25q9 -8 25 -12v-13h-223v13z" />
    <glyph glyph-name="I" unicode="I" horiz-adv-x="275" 
d="M26 13v-1q16 4 25 12q9 7 13 25t6 51q1 22 1 91v366q0 70 -1 92q-2 33 -6 51t-13 25q-9 8 -25 12v13h223v-13q-16 -4 -25 -12q-9 -7 -13 -25q-5 -18 -6 -51q-1 -22 -1 -91v-366q0 -69 1 -91q1 -33 6 -51q4 -18 13 -25q9 -8 25 -12v-13h-223v13z" />
    <glyph glyph-name="J" unicode="J" horiz-adv-x="432" 
d="M184 -10v-5q-74 0 -121 24q-46 24 -46 68q0 26 17 41q16 15 39 15q24 0 38 -13q16 -14 26 -48q4 -16 9 -31q5 -14 10 -22q6 -9 14 -12t21 -3q18 0 30 14t12 51v487q0 70 -1 92q-2 33 -6 51q-5 18 -13 24q-11 7 -25 11v13h223v-13q-17 -5 -25 -10q-8 -6 -13 -24t-6 -51
q-1 -22 -1 -92v-377q0 -46 -15 -82t-39 -60t-57 -36t-71 -12z" />
    <glyph glyph-name="K" unicode="K" 
d="M361 13l-1 2q26 5 27 18t-18 51l-163 315l234 256q19 20 27 35q7 14 6 24t-10 16t-22 9v13h122v-13q-13 -3 -24 -10q-13 -8 -24 -19q-17 -17 -27 -28q-26 -28 -35 -39l-141 -154l216 -410q10 -21 18 -33q8 -13 13 -18t11 -9q3 -2 11 -6v-13h-220v13zM25 15v-2q16 4 25 12
q9 7 13 25q5 18 6 51q1 22 1 92v366q0 70 -1 92q-1 33 -6 51q-4 18 -13 25q-9 8 -25 12v13h223v-13q-16 -4 -25 -12q-9 -7 -13 -25t-6 -51q-1 -22 -1 -91v-366q0 -69 1 -91q2 -33 6 -51t13 -25q9 -8 25 -12v-13h-223v13z" />
    <glyph glyph-name="L" unicode="L" horiz-adv-x="509" 
d="M26 13l-2 -4q16 4 25 12q9 7 13 25t6 51q1 22 1 92v366q0 70 -1 92q-2 33 -6 51t-13 25q-9 8 -25 12v13h231v-13q-17 -4 -28 -12t-15 -25q-4 -18 -6 -51q-1 -22 -1 -91v-542h36q55 0 93 6q36 6 63 23q25 16 42 47q16 29 33 77h17l-26 -138q-2 -12 -3 -17t-5 -9
q-3 -3 -8 -3h-12h-409v13z" />
    <glyph glyph-name="M" unicode="M" horiz-adv-x="714" 
d="M26 13l-1 -1q15 10 25 21q8 10 13 30t6 52q1 22 1 89v355q0 69 -1 91q-1 33 -6 51q-4 18 -13 25q-9 8 -25 12v13h178q10 0 15 -5q4 -4 12 -30l128 -469l134 504h192v-13q-15 -4 -24 -12q-9 -7 -13 -25q-5 -18 -6 -51q-1 -22 -1 -91v-366q0 -69 1 -91q1 -33 6 -51
q4 -17 14 -25q9 -8 24 -12v-13h-227v13q15 4 24 12q10 8 14 25q4 18 6 51q1 22 1 92v517l-189 -712h-20l-206 715v-509q0 -45 2 -89q1 -31 8 -52q6 -20 18 -30t33 -21v-13h-123v13z" />
    <glyph glyph-name="N" unicode="N" horiz-adv-x="582" 
d="M26 13l-1 -5q15 10 25 21q8 9 13 29q5 18 6 51q1 22 1 90v355q0 69 -1 91q-1 33 -6 51q-4 18 -13 25q-9 8 -25 12v13h172q13 0 17 -1q8 -2 11 -4q5 -3 9 -9q5 -7 11 -17l255 -474v305q0 68 -1 90q-2 34 -7 52q-6 20 -18 29q-14 10 -33 20v13h122v-13q-17 -12 -24 -19
q-9 -8 -13 -28q-5 -20 -6 -52q-1 -22 -1 -90v-551h-37l-394 724v-518q0 -46 2 -90q1 -31 8 -51q6 -17 18 -28q12 -10 33 -21v-13h-123v13z" />
    <glyph glyph-name="O" unicode="O" horiz-adv-x="654" 
d="M327 -16v-2q-53 0 -105 28t-93 80q-41 51 -66 123q-25 71 -25 161t25 161q25 72 66 123t93 78t105 27t105 -27t93 -78t66 -123q25 -71 25 -161q0 -89 -25 -160q-25 -72 -66 -123q-40 -50 -93 -79q-52 -28 -105 -28zM327 -2v-1q66 0 102 95q35 93 37 282q0 89 -11 163
q-10 68 -29 117q-18 46 -44 69t-54 23t-54 -23t-45 -69t-30 -117q-10 -67 -10 -163q0 -188 36 -282t102 -94z" />
    <glyph glyph-name="P" unicode="P" horiz-adv-x="534" 
d="M26 13l-2 -1q16 4 25 12q9 7 13 25t6 51q1 22 1 92v366q0 70 -1 92q-2 33 -6 51t-13 25q-9 8 -25 12v13h243q58 0 101 -10q45 -11 78 -33q33 -23 51 -58q18 -36 18 -88q0 -57 -19 -96q-19 -40 -52 -67q-32 -26 -79 -40q-45 -13 -99 -13h-60v-154q0 -69 1 -91q2 -35 7 -51
q6 -18 16 -25q11 -8 28 -12v-13h-232v13zM205 733l-1 -373h57q58 0 91 43t33 144q0 51 -9 87q-9 35 -24 58q-16 23 -37 32q-23 9 -49 9h-61z" />
    <glyph glyph-name="Q" unicode="Q" horiz-adv-x="654" 
d="M327 -15v-2q-55 0 -108 29q-53 28 -93 81q-40 52 -64 124t-24 158q0 92 24 164t65 122q40 49 93 76q52 27 106 27t105 -27q53 -28 92 -76q40 -49 66 -122q25 -71 25 -163q0 -115 -37 -198t-96 -133q5 -9 13 -29q7 -18 11 -33q13 -54 35 -90q21 -34 52 -34q16 0 31 9
q17 11 23 16l8 -8l-10 -10q-7 -7 -16 -12q-10 -6 -27 -9t-42 -3t-55 5q-27 4 -50 20q-22 15 -42 45q-19 28 -31 80q-24 -7 -54 -7zM327 745v1q-61 0 -100 -92t-39 -279q0 -167 21 -255t63 -112q-14 14 -22 33q-7 17 -7 33q0 32 24 58q24 25 68 25q33 0 60 -13q29 -14 51 -42
q10 42 15 108q5 73 5 164q0 188 -39 279q-39 92 -100 92zM264 75l1 -2q0 -30 17 -52q16 -21 45 -21q32 0 50 7v2q-11 49 -13 56q-6 23 -15 36q-10 15 -19 20q-10 6 -27 6q-15 0 -27 -13q-12 -14 -12 -39z" />
    <glyph glyph-name="R" unicode="R" horiz-adv-x="570" 
d="M26 13l-8 -6q16 4 25 12q9 7 13 25t6 51q1 22 1 92v366q0 70 -1 92q-2 33 -6 51t-13 25q-9 8 -25 12v13h210q70 0 124 -9q53 -9 91 -30t57 -55t19 -84q0 -47 -18 -83q-18 -35 -51 -61t-78 -39q-47 -14 -98 -17q35 -5 59 -13q27 -9 48 -27t36 -49q16 -33 26 -78
q12 -55 21 -90t18 -54t18 -27q8 -7 21 -7q12 0 22 5t14 9l9 -9q-3 -4 -10 -10q-8 -7 -19 -12q-10 -5 -28 -10q-15 -4 -39 -4q-36 0 -62 9t-44 32q-18 22 -30 59q-11 33 -19 90q-9 68 -19 102q-10 38 -24 57q-14 20 -28 24q-17 5 -34 5h-4v-178q0 -69 1 -91q1 -33 6 -51
q4 -17 14 -25q9 -7 24 -12v-13h-225v13zM199 728v-348h41q83 0 114 43q32 44 32 132q0 96 -37 134q-37 39 -123 39h-27z" />
    <glyph glyph-name="S" unicode="S" horiz-adv-x="494" 
d="M221 -11l-2 -3q-30 0 -56 8q-21 7 -42 17q-6 3 -17 9t-16 8q-16 8 -27 8q-5 0 -9 -6t-6 -14h-14v209h16q16 -105 57 -165t117 -60q67 0 102 29t35 93q0 33 -11 63q-10 27 -32 54q-21 25 -54 51q-42 32 -75 56q-43 36 -57 49q-26 23 -46 51q-18 25 -31 59q-12 31 -12 72
q0 42 13 74t38 57t60 38q37 14 82 14q25 0 46 -6q23 -7 38 -12q16 -6 30 -12t24 -6q11 0 14 6q4 8 5 15h14v-161h-16q-18 81 -57 120t-97 39q-57 0 -81 -25q-24 -26 -24 -69t36 -87q35 -42 101 -93q41 -29 75 -57t60 -60q27 -33 41 -67q15 -36 15 -76q0 -61 -22 -102
q-23 -43 -57 -68q-36 -27 -76 -38q-42 -12 -82 -12z" />
    <glyph glyph-name="T" unicode="T" horiz-adv-x="556" 
d="M165 13h2q15 5 24 12q10 8 14 25q5 18 6 51q1 22 1 91v542q-49 0 -78 -7q-31 -7 -52 -24t-33 -45q-13 -31 -20 -70h-17l9 131q1 23 6 27q4 4 18 4h466q14 0 18 -4q5 -4 6 -27l11 -131h-17q-9 41 -21 70q-12 28 -33 45t-52 24q-29 7 -78 7v-542q0 -69 1 -91q2 -33 6 -51
q4 -17 14 -25q9 -7 24 -12v-13h-225v13z" />
    <glyph glyph-name="U" unicode="U" horiz-adv-x="571" 
d="M300 -16l-3 -4q-52 0 -97 14q-44 14 -75 42t-48 72q-17 45 -17 104v343q0 70 -1 92q-1 33 -6 51q-4 17 -12 25q-7 7 -21 12v13h219v-13q-15 -5 -24 -12t-13 -25t-6 -51q-1 -22 -1 -91v-365q0 -57 4 -89q5 -38 16 -59q12 -22 35 -33q21 -10 59 -10q93 0 134 48
q41 49 41 152v346q0 68 -1 90q-2 35 -7 51q-6 19 -18 29t-33 21v13h122v-13q-15 -11 -24 -21q-8 -10 -13 -28q-4 -18 -6 -51q-1 -22 -1 -90v-346q0 -108 -47 -163q-46 -54 -156 -54z" />
    <glyph glyph-name="V" unicode="V" horiz-adv-x="554" 
d="M80 597l3 -2q-3 10 -8 24.5t-8 24t-6 17.5q-10 27 -16 40q-8 16 -15 23q-8 8 -18 12v13h220v-13q-14 -3 -22 -7q-9 -5 -12 -15q-3 -11 0 -29q3 -20 13 -49l129 -437l123 424q8 30 11 47q3 21 -1 33q-5 14 -16 21q-12 8 -34 12v13h120v-13q-11 -4 -18 -9q-7 -4 -13 -16
q-4 -8 -13 -33q-7 -21 -18 -57l-183 -628h-33z" />
    <glyph glyph-name="W" unicode="W" horiz-adv-x="796" 
d="M72 623l-2 -9q-12 38 -15 47q-7 20 -12 32q-6 14 -13 21q-9 9 -18 14v14h204v-14q-13 -3 -19 -7q-8 -5 -9 -13t2 -24q2 -11 11 -39l138 -467l58 187l-77 252q-7 21 -15 47q-6 20 -12 33t-14 21q-7 8 -18 12v14h202v-14q-13 -3 -18 -7q-6 -4 -7 -13q-1 -8 2 -24
q2 -11 11 -41l32 -117l27 92q13 46 14 72q2 29 -28 42v14h92v-14q-12 -5 -17 -9q-6 -5 -12 -16q-6 -13 -12 -31q-2 -6 -7 -24t-9 -30l-37 -124l87 -318l120 441q6 22 9 41q3 18 0 33q-3 14 -14 24q-10 9 -33 15v14h119v-14q-12 -6 -17 -9q-8 -5 -15 -16q-8 -12 -15 -33
q-6 -17 -16 -55l-171 -630h-34l-106 349l-107 -349h-33z" />
    <glyph glyph-name="X" unicode="X" horiz-adv-x="574" 
d="M21 13l-1 -6q14 5 24 12t21 21t24 36q5 8 31 56l107 209l-117 276q-21 43 -28 56q-13 23 -22 33q-11 13 -21 17q-14 6 -22 9v13h235v-13q-14 -1 -22 -6q-7 -4 -7 -16q0 -10 8 -31q6 -16 23 -53l70 -167l77 155q32 61 32 87t-38 34v13h123v-13q-15 -4 -27 -11
q-10 -6 -19 -18q-8 -11 -21 -35l-32 -60l-85 -173l126 -300q11 -23 27 -55q10 -20 21 -34q10 -13 21 -21t27 -15v-13h-237v13q17 5 25 10q9 6 9 18t-9 33q-16 38 -25 57l-82 193l-98 -193q-15 -29 -21 -49t-4 -34q1 -13 12 -22q9 -8 29 -13v-13h-134v13z" />
    <glyph glyph-name="Y" unicode="Y" horiz-adv-x="530" 
d="M160 13l-3 -2q15 5 24 12q10 8 14 25q5 18 6 51q1 22 1 91v180l-115 254q-16 41 -33 67q-16 25 -45 45v13h222v-13q-23 -8 -27 -24t6 -43l116 -266l91 220q11 28 18 50q6 18 4 32q-2 13 -12 20q-11 7 -30 12v13h120v-13q-11 -5 -18 -9q-6 -4 -16 -15q-8 -10 -19 -31
q-9 -18 -25 -58l-102 -240v-192q0 -69 1 -91q2 -33 6 -51q4 -17 14 -25q9 -7 24 -12v-13h-222v13z" />
    <glyph glyph-name="Z" unicode="Z" horiz-adv-x="525" 
d="M322 734l-46 -1q-59 0 -95 -9q-37 -9 -60 -25q-25 -17 -39 -40q-11 -17 -31 -54h-15l27 144h415l-301 -734h60q64 0 109 8q41 7 69 26t44 48q17 30 33 75h15l-26 -172h-457z" />
    <glyph glyph-name="bracketleft" unicode="[" horiz-adv-x="289" 
d="M262 793v-16h-95v-867h95v-16h-205v899h205z" />
    <glyph glyph-name="backslash" unicode="\" horiz-adv-x="367" 
d="M379 -158l-24 -8l-346 961l23 8z" />
    <glyph glyph-name="bracketright" unicode="]" horiz-adv-x="289" 
d="M232 -106h-205v16h94v867h-94v16h205v-899z" />
    <glyph glyph-name="asciicircum" unicode="^" horiz-adv-x="368" 
d="M176 756h16l147 -256l-16 -10l-139 243l-139 -243l-16 10z" />
    <glyph glyph-name="underscore" unicode="_" horiz-adv-x="323" 
d="M-6 -82h335v-20h-335v20z" />
    <glyph glyph-name="grave" unicode="`" horiz-adv-x="446" 
d="M163 586l1 -2q-18 10 -31 26q-12 15 -12 36q0 19 11 32q11 12 32 12q20 0 32 -12t29 -38l74 -116l-11 -10z" />
    <glyph glyph-name="a" unicode="a" horiz-adv-x="434" 
d="M138 -10l-7 -7q-48 0 -79 29q-30 28 -30 81q0 35 15 58q14 21 41 37q26 15 57 27q29 11 61 27l2 1l18 9q10 5 17 12q7 8 12 21q5 15 5 36v78q0 37 -14 51t-42 14q-20 0 -33 -15q-12 -14 -25 -44q-6 -20 -16 -30q-11 -11 -33 -11q-20 0 -32 12t-12 29q0 31 39 54
q40 23 111 23q39 0 72 -6t57 -21q23 -15 37 -39q14 -25 14 -60v-238q0 -40 1 -53q2 -22 4 -30q3 -10 9 -13t14 -3t14 3q4 2 10 6l5 -11q-8 -6 -27 -15t-58 -9q-74 0 -86 59l-1 -1q-24 -24 -51 -43q-25 -18 -69 -18zM140 114h-3q0 -97 49 -97q11 0 26 12q11 9 36 32v197
q-7 -13 -21 -19q-13 -6 -30 -15h-2q-31 -16 -43 -40t-12 -70z" />
    <glyph glyph-name="b" unicode="b" horiz-adv-x="496" 
d="M249 -7h-5q-24 0 -43 6t-36 15q-15 8 -32 15q-15 6 -30 6q-16 0 -22 -9q-5 -8 -7 -16h-14v597q0 29 -1 38q-1 13 -6 21t-12 11q-9 4 -21 5v14l159 85v-377q7 9 23 27q14 15 27 26q14 11 34 19q21 8 45 8q26 0 54 -12t51 -39q23 -28 38 -71q15 -44 15 -108t-16 -111
q-16 -48 -45 -81t-69 -51t-87 -18zM204 25h-4q6 -6 14 -12q5 -4 23 -4q53 0 74 60t21 167q0 65 -4 102q-5 45 -13 68q-9 26 -21 38t-28 12q-14 0 -26 -6q-14 -7 -23 -16q-11 -10 -21 -24l-21 -27v-258q0 -43 8 -67q7 -22 21 -33z" />
    <glyph glyph-name="c" unicode="c" horiz-adv-x="399" 
d="M241 -8l-5 -8q-44 0 -82 16q-37 16 -67 47q-28 30 -45 74q-16 42 -16 99q0 62 20 111q20 48 51 81t67 49q37 17 68 17q58 0 96 -21t38 -58q0 -18 -12 -27t-30 -9q-28 0 -42 15q-13 15 -21 47q-5 23 -9 32t-18 9q-38 0 -59 -51t-21 -157q0 -119 31 -178q31 -60 82 -60
q37 0 59 13t42 33l12 -12q-21 -22 -54 -42q-34 -20 -85 -20z" />
    <glyph glyph-name="d" unicode="d" horiz-adv-x="490" 
d="M186 -9l4 -1q-28 0 -58 14q-28 14 -51 42t-36 72q-13 42 -13 104q0 66 18 116q17 48 47 82q28 32 66 49q39 17 78 17q25 0 44 -9q21 -10 33 -19v150q0 32 -1 42q-1 14 -6 22t-12 9t-23 3v15l160 84v-666v-48q0 -19 3 -29q3 -9 11 -16q6 -5 21 -10v-13h-155v76l-2 -2
q-33 -37 -61 -60q-30 -24 -67 -24zM157 231l-3 -1q0 -109 18 -160t51 -51q18 0 38 19q24 23 56 57l2 2v338q-14 12 -33 22q-18 9 -42 9q-39 0 -63 -57t-24 -178z" />
    <glyph glyph-name="e" unicode="e" horiz-adv-x="418" 
d="M242 -8l4 -6q-42 0 -82 14t-69 43q-30 30 -48 77q-18 46 -18 114q0 62 20 110q19 47 50 77q30 30 63 45t60 15q45 0 75 -13q32 -14 51 -37q19 -24 30 -56q10 -31 12 -68h-239q-1 -8 -1 -25v-27q0 -51 6 -94q6 -45 19 -75q13 -31 36 -49t57 -18q39 0 59 10q24 12 41 25
l9 -13q-4 -3 -11.5 -8.5t-10.5 -8.5q-11 -8 -28 -16t-37 -12q-19 -4 -48 -4zM223 463l-1 -1q-13 0 -25 -6t-21 -23q-9 -16 -15 -44q-6 -27 -9 -68h125q-1 32 -3 61t-7 45q-6 19 -16 27q-11 9 -28 9z" />
    <glyph glyph-name="f" unicode="f" horiz-adv-x="291" 
d="M31 13l-5 -3q12 5 19 10q8 7 11 16q3 10 3 29v48v340h-58v14q37 5 48 15q11 11 11 26v83q0 49 17 83q17 33 42 54q26 21 55 30q30 9 54 9q52 0 84 -19q33 -20 33 -54q0 -12 -9 -24t-32 -12q-25 0 -36 11q-10 10 -15 35q-6 31 -12 40t-16 9q-9 0 -17 -5t-14 -18
q-6 -14 -9 -36t-3 -58v-161h91v-19h-91v-340q0 -36 1 -48q2 -20 7 -29q6 -10 18 -16q10 -5 32 -10v-13h-209v13z" />
    <glyph glyph-name="g" unicode="g" horiz-adv-x="429" 
d="M199 172l-6 -4q-22 0 -41 4q-22 5 -41 12l-11 -9q-14 -13 -18 -19q-5 -8 -5 -15t6 -13t35 -12l145 -20q40 -6 69 -17q27 -10 44 -26q17 -15 23 -35t6 -42q0 -37 -16 -63q-17 -27 -45 -45t-66 -27t-81 -9q-37 0 -71 6t-63 18q-28 12 -46 30t-18 44q0 14 8 27q8 12 20 23
q13 11 29 20q11 6 33 16q-34 12 -48 32t-14 45q0 29 18 52q17 21 41 42l9 7q-31 16 -54 48t-21 81q0 41 17 72t42 50q26 20 56 29t59 9q17 0 42 -5q23 -5 44 -15q25 22 50 36t42 14q22 0 35 -11q12 -10 12 -30q0 -18 -10 -28t-21 -10t-20 6q-6 4 -16 12q-5 4 -13 12
q-6 6 -12 6q-9 0 -17 -3q-10 -4 -15 -7q32 -20 54 -52t22 -82q0 -41 -17 -72q-16 -30 -42 -48q-27 -19 -55 -26q-32 -8 -58 -8zM193 184q11 0 21 7q11 8 20 24q9 17 15 42t6 65q0 76 -20 111q-19 34 -44 34q-26 0 -45 -34t-19 -111q0 -40 6 -65t15 -42t21 -24q11 -7 24 -7z
M68 -69l-2 1q0 -35 33 -61q32 -25 98 -25q73 0 112 24t39 60q0 13 -4 21q-4 9 -16 16q-12 8 -31 12q-19 5 -51 9l-104 15l-18 3q-6 1 -16 3q-22 -13 -31 -33t-9 -45z" />
    <glyph glyph-name="h" unicode="h" horiz-adv-x="490" 
d="M21 13l-4 -1q12 5 19 10q8 7 11 16q3 10 3 29v48v486q0 32 -1 42q-1 14 -6 22t-13 9q-10 2 -25 3v15l163 88v-400l16 16q37 40 71 63t76 23q13 0 33 -5q18 -5 33 -18q14 -13 25 -36q10 -21 10 -57v-250v-48q0 -18 3 -29q3 -10 10 -16q6 -5 21 -10v-13h-191v13q15 5 21 10
q8 6 12 16t6 29q1 12 1 48v284q0 24 -9 35t-23 11q-15 0 -37 -16t-57 -54l-16 -16v-244v-48q0 -17 5 -29q4 -10 12 -16q6 -5 21 -10v-13h-190v13z" />
    <glyph glyph-name="i" unicode="i" horiz-adv-x="233" 
d="M116 540h-2q-28 0 -48 20q-19 19 -19 48q0 27 20 47t48 20q29 0 48 -19q20 -20 20 -46q0 -29 -19 -49q-20 -21 -48 -21zM18 13l2 1q15 5 21 10q8 6 12 16q5 12 5 29v48v186q0 31 -1 41q-2 16 -6 23q-5 8 -13 12q-7 4 -24 7v15l161 87v-372v-48q0 -17 5 -29q4 -10 12 -16
q6 -5 21 -10v-13h-195v13z" />
    <glyph glyph-name="j" unicode="j" horiz-adv-x="233" 
d="M115 540h-2q-28 0 -48 20q-19 19 -19 48q0 27 20 47t48 20q29 0 48 -19q20 -20 20 -46q0 -29 -19 -49q-19 -21 -48 -21zM-26 -153l2 -1q-19 0 -34 12t-15 35q0 21 12 31q11 10 27 10q14 0 24 -7t20 -17l17 -17q7 -7 15 -7q5 0 9 4q6 4 6 21v59v330q0 32 -1 42
q-2 15 -6 24t-13 13q-7 4 -24 7v15l161 87v-407q0 -31 -3 -56q-3 -26 -13 -49q-11 -25 -28 -45q-20 -23 -46 -41q-36 -25 -61 -34q-24 -9 -49 -9z" />
    <glyph glyph-name="k" unicode="k" horiz-adv-x="463" 
d="M21 13q12 5 19 10q8 7 11 16q3 10 3 29v48v502q0 25 -1 32q-2 11 -6 17q-5 7 -12 8l-21 3v15l159 89v-666v-48q0 -17 5 -29q4 -10 12 -16q6 -5 21 -10v-13h-190v13zM269 11l-2 -2q23 5 24 15t-12 36l-95 189v12l137 135q16 16 22 28t3 20t-10 12t-20 6v13h118v-13
q-10 -4 -16 -7q-9 -5 -19 -13q-1 -1 -10.5 -9t-15.5 -13q-10 -9 -37 -36l-65 -63l144 -263q14 -25 23 -35q9 -9 17 -12v-11h-186v11z" />
    <glyph glyph-name="l" unicode="l" horiz-adv-x="236" 
d="M21 13h1q15 5 21 10q7 6 12 17q5 12 5 29v48v502q0 25 -1 32q-2 11 -6 17q-5 7 -13 8q-9 2 -24 3v15l161 88v-666q0 -36 1 -48q1 -16 5 -29q3 -10 12 -16q8 -5 24 -10v-13h-198v13z" />
    <glyph glyph-name="m" unicode="m" horiz-adv-x="709" 
d="M20 13l-5 -4q12 5 19 10q8 7 11 16q3 11 3 29v48v186q0 32 -1 42q-2 16 -6 23q-5 8 -13 11q-9 3 -24 6v15l162 87v-87q11 12 32 33q14 14 32 27q16 12 35 18q18 6 41 6q34 0 62 -19q29 -20 36 -67l1 1q32 34 66 61q31 25 77 25q14 0 34 -5q18 -5 33 -18t24 -36t9 -57
v-250v-48q0 -18 3 -29q3 -9 11 -16q6 -5 21 -10v-13h-190v13q12 5 19 10q8 6 12 16t6 29q1 12 1 48v284q0 24 -9 35t-23 11q-17 0 -40 -18q-24 -19 -51 -49v-13h1v-249v-48q0 -19 3 -29q3 -9 11 -16q6 -5 21 -10v-13h-191v13q14 5 20 10q8 6 12 16t6 29q1 12 1 48v284
q0 25 -9 35q-9 11 -23 11q-16 0 -38 -17q-23 -18 -50 -48v-264v-48q0 -17 5 -29q4 -10 12 -16q6 -5 21 -10v-13h-190v13z" />
    <glyph glyph-name="n" unicode="n" horiz-adv-x="492" 
d="M21 13q12 5 19 10q8 7 11 16q3 10 3 29v48v186q0 32 -1 42q-2 16 -6 23q-5 8 -13 11q-9 3 -24 6v15l162 87v-108l18 18q37 40 71 63t76 23q13 0 33 -5q18 -5 33 -18q16 -14 26 -36q10 -21 10 -57v-250v-48q0 -18 3 -29q3 -10 10 -16q7 -5 19 -10v-13h-192v13q14 5 20 10
q8 6 12 16t6 29q2 24 2 48v284q0 24 -9 34t-23 10q-15 0 -37 -16q-24 -18 -57 -52l-18 -18v-242v-48q0 -17 5 -29q4 -10 12 -16q6 -5 21 -10v-13h-192v13z" />
    <glyph glyph-name="o" unicode="o" horiz-adv-x="466" 
d="M233 -7l-2 -3q-28 0 -65 14q-35 13 -67 42t-53 75q-21 47 -21 113q0 67 21 115t53 77q31 28 68 42t65 14q30 0 65 -13q37 -14 68 -42q33 -30 53 -76q21 -48 21 -115q0 -66 -21 -113q-21 -46 -53 -75t-67 -42t-65 -13zM231 6v-2q20 0 35 12q16 13 26 39q10 25 16 71
q6 43 6 107q0 65 -6 108q-6 46 -16 71q-10 26 -26 39q-15 12 -35 12q-19 0 -36 -12t-27 -39q-10 -25 -16 -71q-6 -43 -6 -108q0 -63 6 -106q6 -45 16 -70q10 -27 27 -39t36 -12z" />
    <glyph glyph-name="p" unicode="p" horiz-adv-x="487" 
d="M24 -147l3 2q12 5 19 10q8 7 11 16q3 11 3 29v48v346q0 32 -1 42q-2 16 -6 23q-5 8 -13 11q-9 3 -24 6v15l161 87v-83q30 35 57 57q28 23 68 23q24 0 52 -12t52 -39q23 -26 40 -70q16 -42 16 -108q0 -63 -16 -111q-16 -49 -45 -84q-28 -33 -68 -52q-39 -18 -87 -18
q-22 0 -39 7q-20 8 -29 16v-58v-48q0 -18 3 -29q3 -9 11 -16q7 -5 19 -10v-13h-187v13zM270 457l-4 -1q-20 0 -39 -19q-23 -23 -50 -54v-348q11 -11 27 -18q15 -7 39 -7q47 0 72 58q25 57 25 171q0 116 -18 167t-52 51z" />
    <glyph glyph-name="q" unicode="q" horiz-adv-x="484" 
d="M279 -147q13 5 18 10q6 6 9 16q3 11 3 29v48v112q-26 -32 -56 -55q-27 -21 -62 -21q-24 0 -55 11q-30 10 -55 37t-42 71q-16 42 -16 110q0 63 18 111t48 81t71 51q40 18 84 18q30 0 50 -6q17 -5 34 -12q15 -6 27 -12t27 -6q13 0 21 5q7 5 12 18h16v-513v-48q0 -18 3 -29
q3 -9 11 -16q6 -5 21 -10v-13h-187v13zM150 228v-1q0 -57 6 -97q6 -38 17 -64q11 -25 24 -35q14 -11 27 -11q19 0 40 18q19 16 49 51v280q0 32 -2 52q-1 14 -12 25q-5 6 -17 13q-10 6 -33 6q-45 0 -72 -57t-27 -180z" />
    <glyph glyph-name="r" unicode="r" horiz-adv-x="369" 
d="M21 13l1 -2q12 5 19 10q8 7 11 16q3 10 3 29v48v202q0 25 -1 33q-1 11 -6 19q-4 7 -13 10t-24 6v15l161 87v-87q24 25 42 42q15 14 32 27q14 11 26 14t26 3q25 0 39 -13q15 -14 15 -36q0 -29 -16 -42q-17 -14 -36 -14q-16 0 -25 6t-17 14l-14 14q-6 6 -16 6q-6 0 -9 -1
q-4 -1 -10 -6t-15 -12t-21 -21v-264q0 -36 1 -48q1 -16 5 -29q3 -10 12 -16q8 -5 24 -10v-13h-194v13z" />
    <glyph glyph-name="s" unicode="s" horiz-adv-x="353" 
d="M180 9l-1 -8q32 0 50 20q18 19 18 54q0 17 -4 29q-5 14 -15 27q-8 11 -29 28q-17 14 -47 30q-35 18 -59 35q-23 16 -36 36q-13 18 -19 42q-6 22 -6 53q0 25 9 47t26 39t39 27q21 10 48 10q16 0 30 -3q18 -4 26 -7t24 -7q12 -3 25 -3q14 0 17 14h15v-130h-15
q-16 62 -50 93q-33 30 -71 30q-62 0 -62 -58q0 -17 6 -29t18 -24t30 -24q12 -8 44 -25q41 -21 66 -39q27 -19 41 -39q15 -21 21 -45t6 -56q0 -30 -13 -55t-34 -43q-20 -17 -48 -28q-26 -10 -52 -10q-24 0 -42 6q-22 7 -32 13q-4 2 -12 6.5t-12 6.5q-10 6 -19 6
q-14 0 -17 -17h-16v149h15q21 -69 53 -111q31 -40 84 -40z" />
    <glyph glyph-name="t" unicode="t" horiz-adv-x="296" 
d="M186 -10l-2 -2q-58 0 -90 30q-31 30 -31 81v355h-41v16q24 3 45 16q23 14 42 37q21 25 35 57q16 35 23 75h15v-181h90v-19h-90v-334q0 -57 8 -83q8 -24 39 -24q14 0 24 5t17 12l9 -10l-10 -10q-5 -5 -17 -10q-13 -5 -27 -8q-17 -3 -39 -3z" />
    <glyph glyph-name="u" unicode="u" horiz-adv-x="469" 
d="M157 -9l5 -5q-17 0 -35 6q-19 6 -33 19t-25 36q-10 21 -10 57v211q0 25 -1 33q-1 11 -6 19q-4 7 -13 10t-24 6v15l161 87v-395q0 -32 9 -47t23 -15q18 0 41 21q20 18 51 53v215q0 25 -1 33q-1 11 -6 19q-4 7 -13 10t-24 6v15l161 87v-372v-48q0 -19 3 -29t9 -16
q5 -5 18 -10v-13h-151v81q-36 -39 -67 -64t-72 -25z" />
    <glyph glyph-name="v" unicode="v" horiz-adv-x="413" 
d="M65 355l-5 -4q-7 18 -20 53q-7 18 -15 31q-7 12 -13 16q-8 6 -13 8v13h194v-13q-13 -1 -21 -6t-9 -15t3 -30t15 -51l69 -220l67 196q15 45 20 65q6 22 4 37q-1 13 -11 18q-11 5 -24 8v13h102v-13q-7 -3 -14 -8q-4 -3 -13 -17t-17 -36q-9 -24 -24 -66l-117 -341h-31z" />
    <glyph glyph-name="w" unicode="w" horiz-adv-x="596" 
d="M60 355l-2 -2q-3 9 -9 27.5t-8 25.5q-5 15 -11 30q-4 10 -9 15t-12 8v13h177v-13q-11 -2 -17 -6q-5 -4 -7 -15q-2 -10 3 -30t15 -51l68 -214l49 135l-23 76q-4 12 -9 30t-7 24q-5 15 -11 30q-5 10 -9 15q-4 4 -12 7v13h180v-13q-10 -2 -18 -6q-7 -4 -10 -15t0 -30t12 -51
l57 -203l56 181q11 37 16 64q4 23 1 37t-13 18q-11 5 -25 6v13h104v-13q-10 -3 -15 -7q-6 -4 -12 -17q-7 -15 -14 -36q-10 -32 -21 -65l-106 -343h-33l-78 258l-94 -258h-31z" />
    <glyph glyph-name="x" unicode="x" horiz-adv-x="417" 
d="M15 13l-7 -7q12 5 22 12q8 5 18 17q11 13 20 28q4 6 12.5 22t14.5 25l56 97l-72 146q-4 9 -13.5 28t-12.5 26q-9 19 -15 30t-12 14t-15 6v13h197v-13q-12 -1 -21 -5q-7 -3 -9 -11t3 -23t15 -39l43 -88l39 67q18 32 24 51q6 21 5 30q-1 11 -9 15t-18 6v13h105v-13l-24 -12
q-7 -4 -16 -14q-7 -9 -18 -27q-3 -5 -28 -51l-47 -84l75 -155q17 -35 27 -54t18 -30q7 -10 14 -15q5 -4 13 -7v-13h-195v13q12 1 21 5q7 3 9 12t-3 24q-6 19 -16 41l-49 99l-48 -82q-15 -26 -22 -47q-6 -19 -5 -29t9 -15t21 -6v-13h-106v13z" />
    <glyph glyph-name="y" unicode="y" horiz-adv-x="420" 
d="M79 -165l2 -1q-32 0 -48 14q-15 14 -15 35t11 30t26 9q13 0 23 -5q12 -6 17 -10t15 -10q8 -5 20 -5q8 0 15 3q9 4 17 13q10 12 20 30t24 53l-144 370q-17 41 -21 52q-9 22 -13 30q-7 12 -10 15q-4 4 -12 7v13h190v-13q-10 -1 -18 -6t-9 -15q-1 -9 2 -30q3 -20 15 -51
l76 -215l67 191q13 39 18 63q5 25 2 37q-3 13 -12 18q-9 4 -23 6v13h97v-13q-7 -1 -13 -6t-12 -18q-7 -16 -15 -37l-24 -64l-125 -353q-16 -43 -33 -72q-15 -26 -35 -46q-17 -17 -36 -25q-17 -7 -39 -7z" />
    <glyph glyph-name="z" unicode="z" horiz-adv-x="390" 
d="M349 -13l-4 -3q-5 3 -17 7q-7 2 -25 4q-22 2 -43 2h-69h-178l219 459h-26q-46 0 -75 -6t-45 -18q-17 -12 -26 -32t-18 -45h-15l24 132q6 -4 19 -7q9 -2 30 -4q24 -2 43 -2h63h161l-223 -459h41q44 0 71 6t45 21t30 39q9 18 25 59h15z" />
    <glyph glyph-name="braceleft" unicode="{" horiz-adv-x="271" 
d="M245 -106h-5q-92 0 -139 34q-48 34 -48 96q0 33 9 63q8 25 20 59q14 38 20 57q9 29 9 55q0 16 -3 29t-12 24t-29 17q-19 6 -54 6v16q35 0 54 6q20 6 29 17t12 24t3 29q0 26 -9 55q-6 19 -20 57q-7 19 -19 59q-9 30 -9 63q0 62 48 96q47 34 139 34v-17q-44 0 -60 -22
t-16 -73q0 -23 5 -53q3 -18 11 -56t11 -57q5 -32 5 -54q0 -20 -9 -39t-26 -36q-15 -15 -41 -28q-23 -11 -54 -13q31 -2 54 -13q26 -13 41 -28q17 -17 26 -36t9 -39q0 -29 -4 -54q-6 -38 -10 -57q-3 -15 -10 -56q-4 -24 -4 -53q0 -51 16 -73t60 -22v-17z" />
    <glyph glyph-name="bar" unicode="|" horiz-adv-x="287" 
d="M156 820v-926h-26v926h26z" />
    <glyph glyph-name="braceright" unicode="}" horiz-adv-x="271" 
d="M27 -89l-3 -4q44 0 60 22q17 23 17 73q0 23 -5 53q-7 41 -10 56q-4 19 -10 57q-5 32 -5 54q0 20 9 39t27 36q19 18 42 29q25 13 54 14q-29 1 -54 14q-23 11 -42 29q-18 17 -27 36t-9 39q0 22 5 54q3 19 11 57t11 56q5 30 5 53q0 51 -16 73t-60 22v17q91 0 138 -34
q48 -34 48 -96q0 -33 -9 -63q-8 -25 -20 -59q-14 -38 -20 -57q-9 -29 -9 -55q0 -11 2 -29q1 -13 12 -24t30 -17t54 -6v-16q-35 0 -54 -6t-30 -17t-12 -24q-2 -18 -2 -29q0 -26 9 -55q6 -19 20 -57q12 -34 20 -59q9 -30 9 -63q0 -62 -48 -96q-47 -34 -138 -34v17z" />
    <glyph glyph-name="asciitilde" unicode="~" horiz-adv-x="316" 
d="M106 418l-1 -2q35 0 62 -7t54 -7q11 0 24 8q12 8 26 35l13 -5q-12 -50 -30 -78t-46 -28q-29 0 -58 8t-58 8q-14 0 -24 -7q-11 -8 -24 -34l-13 5q16 53 33 79q16 25 42 25z" />
    <glyph glyph-name="uni00A0" unicode="&#xa0;" horiz-adv-x="164" 
 />
    <glyph glyph-name="exclamdown" unicode="&#xa1;" horiz-adv-x="253" 
d="M115 243h2h18q8 -111 19 -180q12 -77 24 -128q2 -8 19 -87q8 -37 8 -60q0 -41 -21 -62t-58 -21q-36 0 -57 21t-21 62q0 23 8 60q8 34 18 87q8 38 22 128q11 69 19 180zM123 476h2q31 0 52 -21t21 -52t-21 -52t-53 -21t-53 21t-21 52t21 52t52 21z" />
    <glyph glyph-name="cent" unicode="&#xa2;" horiz-adv-x="402" 
d="M251 566l-4 -83q55 -1 90 -23q34 -21 34 -56q0 -16 -12 -27q-11 -10 -30 -10q-28 0 -42 14q-13 13 -21 45l-2.5 10t-2.5 9.5t-2 6.5q-3 9 -11 14v-445q14 -2 18 -2q37 0 62 14q24 13 44 32l12 -11q-20 -22 -51 -42t-81 -21v-78h-22v78q-41 3 -78 20q-35 16 -63 47
q-27 30 -42 74t-15 99q0 59 18 106q18 46 47 78t63 50q36 19 69 20v81h22zM150 254l-2 -1q0 -96 20 -153q20 -56 56 -74v439q-34 -6 -54 -57q-20 -52 -20 -154z" />
    <glyph glyph-name="sterling" unicode="&#xa3;" horiz-adv-x="454" 
d="M63 51l-3 1q20 24 29 36q11 15 21 35q8 16 13 39t5 51q0 18 -3 36q-4 24 -7 35h-94v18h89q-10 33 -13 41q-10 28 -15 41h-60v18h53q-12 31 -22 69q-9 35 -9 72q0 52 20 94q19 39 50 67q30 27 66 39t69 12t65 -8q30 -7 53 -23q23 -15 36 -37t13 -52q0 -25 -15 -42
q-15 -16 -39 -16q-27 0 -43 14q-14 13 -19 39q-4 25 -4 49q0 21 -3 34q-3 14 -13 20q-11 6 -34 6q-45 0 -57 -41q-12 -40 -12 -119q0 -49 9 -94q10 -51 19 -85h142v-18h-137q5 -22 9 -42t6 -39h121v-18h-120v-4q0 -33 -10 -57q-12 -28 -25 -47t-30 -37q-15 -16 -27 -27h147
q28 0 60 2q26 2 41 7q17 6 27 15q10 8 16 26h18l-30 -114q-8 -28 -17 -38q-9 -9 -35 -9h-338z" />
    <glyph glyph-name="yen" unicode="&#xa5;" horiz-adv-x="466" 
d="M129 13l-6 -3q16 4 25 12q8 7 13 26q5 18 6 51q1 22 1 92v112h-135v18h135v80h-135v18h130l-100 203q-14 32 -19 42q-11 22 -16 31q-6 11 -17 22t-22 17v13h213v-13q-25 -8 -29 -19q-5 -12 12 -47l109 -231l61 173q15 38 21 60t3 36q-3 13 -15 19q-11 5 -31 10v13h113
v-13q-12 -5 -17 -10q-6 -6 -12 -19q-7 -16 -15 -37q-19 -52 -25 -66l-66 -182h131v-18h-135v-80h135v-18h-135v-112q0 -69 1 -91q2 -33 6 -51q5 -19 13 -26q9 -8 25 -12v-13h-223v13z" />
    <glyph glyph-name="brokenbar" unicode="&#xa6;" horiz-adv-x="287" 
d="M156 820v-380h-26v380h26zM156 -106h-26v380h26v-380z" />
    <glyph glyph-name="section" unicode="&#xa7;" horiz-adv-x="467" 
d="M217 -141l-1 4q42 0 60 24t18 66q0 29 -9 54q-9 26 -28 52q-18 25 -51 58q-32 31 -78 72q-31 29 -48 49q-18 21 -31 45t-17 45q-5 25 -5 51q0 56 29 96q28 39 68 60q-18 36 -18 82q0 39 12 69t33 51q22 22 48 32q28 11 59 11q34 0 63 -9t50 -24q22 -15 33 -34
q12 -19 12 -39q0 -17 -10 -28q-10 -12 -30 -12q-41 0 -51 49q-3 11 -7 31q-3 14 -9 25t-18 17t-31 6q-38 0 -59 -22t-21 -57q0 -22 6 -40q6 -17 21 -37t42 -45q2 -2 68 -63q34 -31 63 -62q27 -29 41 -51q15 -24 21 -48t6 -53q0 -56 -26 -96q-26 -39 -65 -71q11 -20 15 -40
q4 -19 4 -45q0 -40 -12 -75t-33 -60t-51 -39q-31 -14 -64 -14q-36 0 -69 9t-59 26t-41 41t-15 52q0 20 14 32t35 12q26 0 38 -15q13 -16 14 -36q1 -25 6 -45q5 -21 13 -33q9 -13 24 -21q14 -7 41 -7zM217 279l3 -1q57 -54 84 -82q32 -34 48 -61q17 17 23 33t6 39
q0 27 -10 48t-30 46q-23 28 -46 50q-36 34 -62 60q-22 21 -58 57q-25 26 -42 51q-15 -10 -25 -28q-10 -17 -10 -44q0 -23 6 -39q5 -14 20 -34q12 -16 36 -40q11 -11 57 -55z" />
    <glyph glyph-name="dieresis" unicode="&#xa8;" horiz-adv-x="446" 
d="M308 543v-1q-28 0 -46 18t-18 47q0 26 18 44t46 18q26 0 44 -18t18 -43q0 -29 -18 -47t-44 -18zM138 542v-1q-26 0 -44 18t-18 47q0 26 18 44t44 18q28 0 46 -18t18 -43q0 -29 -18 -47t-46 -18z" />
    <glyph glyph-name="copyright" unicode="&#xa9;" horiz-adv-x="692" 
d="M347 761l-3 -4q65 0 121 -28q57 -28 100 -79t69 -122q26 -72 26 -156q0 -87 -25 -156q-26 -71 -69 -122t-100 -79q-56 -28 -121 -28q-64 0 -122 29q-55 28 -100 80q-43 51 -69 122q-25 69 -25 156q0 84 26 156q26 71 69 122q44 51 101 80q58 29 122 29zM344 0l-2 2
q60 0 114 27q55 27 95 75q41 49 65 116t24 152t-24 152q-25 69 -64 116q-41 48 -94 75q-54 27 -114 27t-114 -27t-96 -75t-66 -117t-24 -153t24 -152t66 -116t96 -75t114 -27zM362 146l-2 -6q-35 0 -67 13q-33 13 -60 42q-26 28 -43 72q-16 42 -16 105q0 59 17 102
q17 42 42 69t57 39t60 12t46 -8t31 -8q17 0 21 16h10v-111h-10q-17 56 -42 77q-26 21 -54 21q-18 0 -32 -10q-16 -11 -26 -34q-11 -26 -17 -63q-6 -39 -6 -94q0 -58 8 -101q7 -41 21 -66t33 -36q20 -11 44 -11q29 0 50 12q20 11 36 29l8 -8q-8 -10 -16 -17q-12 -10 -24 -17
q-11 -6 -30 -13q-17 -6 -39 -6z" />
    <glyph glyph-name="ordfeminine" unicode="&#xaa;" horiz-adv-x="340" 
d="M112 391l-3 -5q-37 0 -61 21t-24 59q0 28 12 44t30 27q20 12 42 20q21 8 47 20h1l15 6q7 3 13 9t9 16t3 27v58q0 29 -9 39t-28 10q-16 0 -27 -11q-10 -10 -19 -33q-3 -12 -12 -21t-25 -9t-27 11q-10 10 -10 23q0 20 30 37q29 16 84 16q62 0 98 -21t36 -74v-177
q0 -20 2 -38q2 -15 4 -21q3 -8 7 -9q6 -2 11 -2q10 0 18 5l4 -8q-7 -6 -21 -11q-15 -6 -45 -6q-57 0 -68 42q-15 -17 -36 -31q-19 -13 -51 -13zM118 484l-2 -1q0 -70 33 -70q17 0 45 30v143q-8 -8 -16 -12q-6 -3 -20 -11h-2q-23 -12 -30 -28q-8 -18 -8 -51z" />
    <glyph glyph-name="guillemotleft" unicode="&#xab;" horiz-adv-x="363" 
d="M173 222v16l156 159l11 -7l-72 -160l73 -160l-11 -7zM22 222v16l156 159l11 -7l-73 -160l74 -160l-11 -7z" />
    <glyph glyph-name="registered" unicode="&#xae;" horiz-adv-x="437" 
d="M220 761l-1 -6q41 0 74 -16q36 -17 62 -46q27 -30 42 -70t15 -88q0 -49 -15 -89q-15 -41 -42 -71t-61 -46q-33 -16 -74 -16q-39 0 -76 17q-35 16 -63 47q-27 30 -42 71q-15 40 -15 89t15 89q15 41 42 71q28 31 63 47q37 17 76 17zM219 326v1q37 0 68 15q32 15 56 42
q25 28 38 65q14 39 14 83t-14 83q-13 37 -38 65q-24 27 -56 42t-68 15t-69 -15t-57 -42t-39 -65q-15 -37 -15 -83t15 -84t39 -65t57 -42t69 -15zM136 431l-2 -2q6 2 8 4t4 9q2 8 2 16v28v114v28q0 8 -2 16q-2 7 -4 8q-4 2 -7 3v7h73q47 0 72 -13t25 -45q0 -26 -23 -43
q-22 -17 -54 -18q22 -1 36 -14q14 -12 18 -40q5 -22 11 -43q3 -10 11 -10q4 0 5 1l3 3l4 -4q-6 -6 -10 -9q-5 -4 -22 -4q-21 0 -33 13q-11 13 -16 46q-3 21 -6 33t-6 18q-3 7 -7 8q-6 2 -10 2h-8v-55v-28q0 -8 2 -16q2 -7 4 -9t8 -4v-6h-76v6zM196 651v-103h10q30 0 41 14
t11 39q0 29 -12 39q-13 11 -44 11h-6z" />
    <glyph glyph-name="macron" unicode="&#xaf;" horiz-adv-x="446" 
d="M328 615v-51h-206v51h206z" />
    <glyph glyph-name="degree" unicode="&#xb0;" horiz-adv-x="251" 
d="M126 757l-1 -3q37 0 65 -26q27 -26 27 -66t-27 -66q-28 -26 -64 -26q-39 0 -66 27t-27 67q0 39 27 66t66 27zM53 662q0 -32 21 -55q21 -22 52 -22q32 0 51 22q20 23 20 55q0 31 -20 54q-19 22 -51 22q-31 0 -52 -22t-21 -54z" />
    <glyph glyph-name="twosuperior" unicode="&#xb2;" horiz-adv-x="341" 
d="M172 529v1h54q16 0 30 2q10 2 15 6q4 4 7 12h11l-17 -72q-3 -14 -11 -14h-223l77 95q20 25 39 53q18 26 26 46q10 25 14 44q5 23 5 47q0 77 -51 77q-19 0 -22 -14q-4 -17 -5 -32q-3 -31 -36 -31q-12 0 -22 8q-9 7 -9 23q0 20 24 39q23 19 71 19q22 0 42 -4q23 -4 42 -15
q20 -11 32 -29t12 -46q0 -22 -8 -44q-7 -20 -24 -43t-40 -46q-24 -24 -55 -52l-44 -30h66z" />
    <glyph glyph-name="threesuperior" unicode="&#xb3;" horiz-adv-x="317" 
d="M80 820l-1 -4l6 14q1 3 6 3h191v-6l-135 -139q15 6 35 6q50 0 79 -26q28 -25 28 -84q0 -57 -37 -90q-38 -33 -100 -33q-48 0 -74 19q-27 20 -27 40q0 10 8 21q7 10 24 10q14 0 21 -7q8 -8 9 -19q2 -10 2 -17q0 -8 3 -16q3 -7 11 -12t21 -5q32 0 45 27q14 28 14 84
q0 46 -6 72t-32 26q-19 0 -35 -8t-26 -18l-8 6l108 109h-64q-27 0 -36 -1q-15 -2 -21 -4q-7 -3 -10 -7q-1 -2 -3.5 -6t-3.5 -6h-12z" />
    <glyph glyph-name="acute" unicode="&#xb4;" horiz-adv-x="446" 
d="M147 524l75 116q16 26 29 38q12 12 32 12q21 0 32 -12q11 -13 11 -31q0 -21 -12 -36t-31 -25l-125 -72z" />
    <glyph glyph-name="paragraph" unicode="&#xb6;" horiz-adv-x="510" 
d="M240 372l-6 -7q-45 0 -83 13q-40 14 -68 39q-29 26 -45 61q-17 37 -17 80q0 45 17 81t46 59q30 24 69 36t84 12h244v-13q-15 -5 -24 -12t-13 -25t-6 -54q-1 -24 -1 -97v-362q0 -80 -15 -134q-15 -53 -44 -87t-69 -47q-42 -14 -90 -14q-52 0 -79 18t-27 47q0 17 12 29
t32 12t35 -12q13 -11 28 -27q14 -15 27 -27t30 -12q12 0 23 7q13 8 23 30q11 22 18 63q7 38 7 107v597h-78v-361h-30z" />
    <glyph glyph-name="periodcentered" unicode="&#xb7;" horiz-adv-x="255" 
d="M128 227v-2q-32 0 -53 21t-21 53t21 53t53 21t51 -21q20 -22 20 -52t-20 -52q-19 -21 -51 -21z" />
    <glyph glyph-name="cedilla" unicode="&#xb8;" horiz-adv-x="446" 
d="M255 0l-20 -39q35 -6 57 -24q23 -18 23 -42q0 -74 -161 -79l-2 15q36 7 61 15q24 8 24 23q0 14 -14 20q-15 7 -39 8l-4 7l53 96h22z" />
    <glyph glyph-name="onesuperior" unicode="&#xb9;" horiz-adv-x="228" 
d="M54 465l-3 10q7 1 15 5q6 3 9 12q2 7 4 25q1 11 1 45v156q0 29 -5 39q-5 9 -27 8v11l109 69v-282v-45q0 -16 3 -25t9 -12q7 -4 15 -5v-11h-130z" />
    <glyph glyph-name="ordmasculine" unicode="&#xba;" horiz-adv-x="358" 
d="M179 387l-4 -2q-22 0 -49 9q-26 9 -51 32t-41 57q-16 33 -16 84q0 50 17 87q17 36 41 59t51 33q26 10 50 10t51 -10q28 -10 52 -33q25 -24 41 -58q17 -37 17 -87q0 -51 -16 -84q-17 -35 -40 -57t-52 -31q-28 -9 -51 -9zM175 398h-4q28 0 45 38q17 39 17 132q0 53 -4 84
q-5 34 -12 54q-8 21 -19 29q-12 9 -25 9t-25 -9q-11 -8 -19 -29q-7 -20 -12 -54q-5 -38 -5 -84q0 -44 5 -81q4 -32 12 -52q7 -18 20 -28q12 -9 26 -9z" />
    <glyph glyph-name="guillemotright" unicode="&#xbb;" horiz-adv-x="363" 
d="M22 70l73 160l-72 160l11 7l156 -159v-16l-157 -159zM174 70l73 160l-72 160l11 7l156 -159v-16l-157 -159z" />
    <glyph glyph-name="onequarter" unicode="&#xbc;" horiz-adv-x="463" 
d="M303 -5l-2 -1q0 -19 2 -37q2 -15 4 -21q3 -7 7 -10q3 -2 12 -4v-11h-123v11q9 2 12 4q4 3 7 10q2 6 4 21q2 18 2 38h-150v7l202 285h23v-238h58l-22 -54h-36zM226 48v140l-99 -140h99zM52 380h355v-12h-355v12zM166 464l-3 10q7 1 15 5q6 3 9 12q2 7 4 25q1 11 1 45v156
q0 29 -5 39q-5 9 -27 8v11l109 69v-282v-45q0 -16 3 -25t9 -12q7 -4 15 -5v-11h-130z" />
    <glyph glyph-name="onehalf" unicode="&#xbd;" horiz-adv-x="463" 
d="M54 381h355v-12h-355v12zM168 465l-3 10q7 1 15 5q6 3 9 12q2 7 4 25q1 11 1 45v156q0 29 -5 39q-5 9 -27 8v11l109 69v-282v-45q0 -16 3 -25t9 -12q7 -4 15 -5v-11h-130zM237 -24v1h54q16 0 30 2q11 1 15 6q4 4 7 12h11l-17 -72q-3 -14 -11 -14h-223l77 95q20 25 39 53
q18 26 26 46q10 25 14 44q5 23 5 47q0 77 -51 77q-19 0 -22 -14q-4 -17 -5 -32q-3 -31 -36 -31q-12 0 -22 8q-9 7 -9 23q0 19 24 39q23 19 71 19q22 0 42 -4q22 -5 42 -15q20 -11 32 -29t12 -46q0 -22 -8 -44q-7 -20 -24 -43q-16 -22 -40 -46q-23 -24 -55 -52l-44 -30h66z
" />
    <glyph glyph-name="threequarters" unicode="&#xbe;" horiz-adv-x="463" 
d="M303 -5l-2 -1q0 -19 2 -37q2 -15 4 -21q3 -7 7 -10q3 -2 12 -4v-11h-123v11q9 2 12 4q4 3 7 10q2 6 4 21q2 18 2 38h-150v7l202 285h23v-238h58l-22 -54h-36zM226 48v140l-99 -140h99zM52 380h355v-12h-355v12zM141 819l-1 -4l6 14q2 3 6 3h191v-6l-135 -139q15 6 35 6
q50 0 79 -26q28 -25 28 -84q0 -57 -37 -90t-100 -33q-48 0 -74 19q-27 19 -27 40q0 10 8 21q7 10 24 10q14 0 21 -7q8 -8 9 -19q2 -10 2 -17q0 -9 3 -16t11 -12t21 -5q31 0 45 27q14 28 14 84q0 47 -6 72q-6 26 -32 26q-19 0 -35 -8t-26 -18l-8 6l108 109h-64q-27 0 -36 -1
q-15 -2 -21 -4q-7 -3 -10 -7q-1 -2 -3.5 -6t-3.5 -6h-12z" />
    <glyph glyph-name="questiondown" unicode="&#xbf;" horiz-adv-x="397" 
d="M254 257l2 4q3 -55 -3 -99q-7 -48 -16 -80q-12 -39 -22 -67q-20 -53 -23 -61q-11 -32 -18 -58q-7 -27 -7 -61q0 -63 13 -88t51 -25q17 0 22 9t9 31q5 31 16 51q12 21 43 20q22 -1 37 -15t14 -33q-2 -33 -37 -57q-36 -24 -105 -24q-98 0 -147 40t-49 109q0 41 15 72t38 59
q25 30 49 54q27 27 49 58q24 34 38 70q15 39 15 91h16zM236 480q31 0 52 -21t21 -52t-21 -52t-52 -21t-52 21t-21 52t21 52t52 21z" />
    <glyph glyph-name="Agrave" unicode="&#xc0;" 
d="M12 13v-4q9 4 18 11q8 6 15 21q7 14 15 38q8 23 18 60l139 496l-11 37q-11 34 -23 47q-11 11 -27 16v13h153q11 0 14 -4q4 -6 8 -18l176 -601q17 -58 28 -81q12 -26 34 -30v-15h-210v15q23 3 28 20t-6 59l-38 127h-222l-22 -78q-9 -36 -11 -54q-3 -23 1 -37q5 -15 16 -24
q13 -10 34 -14v-13h-127v13zM338 232l-109 369l-104 -369h213zM194 807l-1 -1q-35 6 -49 23q-13 16 -13 38q0 17 12 30t32 13q15 0 28 -6q15 -7 27 -16l112 -88l-5 -13z" />
    <glyph glyph-name="Aacute" unicode="&#xc1;" 
d="M12 13v-4q9 4 18 11q8 6 15 21q7 14 15 38q8 23 18 60l139 496l-11 37q-11 34 -23 47q-11 11 -27 16v13h153q11 0 14 -4q4 -6 8 -18l176 -601q17 -58 28 -81q12 -26 34 -30v-15h-210v15q23 3 28 20t-6 59l-38 127h-222l-22 -78q-9 -36 -11 -54q-3 -23 1 -37q5 -15 16 -24
q13 -10 34 -14v-13h-127v13zM338 232l-109 369l-104 -369h213zM156 800l112 86q15 12 27 17q13 6 28 6q20 0 32 -13q12 -14 12 -30q0 -20 -14 -37q-13 -16 -48 -22l-144 -20z" />
    <glyph glyph-name="Acircumflex" unicode="&#xc2;" 
d="M12 13v-4q9 4 18 11q8 6 15 21q7 14 15 38q8 23 18 60l139 496l-11 37q-11 34 -23 47q-11 11 -27 16v13h153q11 0 14 -4q4 -6 8 -18l176 -601q17 -58 28 -81q12 -26 34 -30v-15h-210v15q23 3 28 20t-6 59l-38 127h-222l-22 -78q-9 -36 -11 -54q-3 -23 1 -37q5 -15 16 -24
q13 -10 34 -14v-13h-127v13zM338 232l-109 369l-104 -369h213zM249 923l131 -126l-5 -13l-126 42l-126 -42l-5 13z" />
    <glyph glyph-name="Atilde" unicode="&#xc3;" 
d="M12 13v-4q9 4 18 11q8 6 15 21q7 14 15 38q8 23 18 60l139 496l-11 37q-11 34 -23 47q-11 11 -27 16v13h153q11 0 14 -4q4 -6 8 -18l176 -601q17 -58 28 -81q12 -26 34 -30v-15h-210v15q23 3 28 20t-6 59l-38 127h-222l-22 -78q-9 -36 -11 -54q-3 -23 1 -37q5 -15 16 -24
q13 -10 34 -14v-13h-127v13zM338 232l-109 369l-104 -369h213zM209 885v-4q39 0 54 -1t42 -1q13 0 27 9q12 8 28 29l12 -4q-9 -50 -28 -79q-20 -30 -48 -30q-22 0 -48 2t-46 2q-14 0 -25 -7t-25 -27l-12 4q13 56 30 82q16 25 39 25z" />
    <glyph glyph-name="Adieresis" unicode="&#xc4;" 
d="M12 13v-4q9 4 18 11q8 6 15 21q7 14 15 38q8 23 18 60l139 496l-11 37q-11 34 -23 47q-11 11 -27 16v13h153q11 0 14 -4q4 -6 8 -18l176 -601q17 -58 28 -81q12 -26 34 -30v-15h-210v15q23 3 28 20t-6 59l-38 127h-222l-22 -78q-9 -36 -11 -54q-3 -23 1 -37q5 -15 16 -24
q13 -10 34 -14v-13h-127v13zM338 232l-109 369l-104 -369h213zM333 791v-1q-27 0 -45 18t-18 47q0 26 18 44t45 18q26 0 44 -18t18 -43q0 -29 -18 -47t-44 -18zM165 790v-1q-26 0 -44 18t-18 47q0 26 18 44t44 18q27 0 45 -18t18 -43q0 -29 -18 -47t-45 -18z" />
    <glyph glyph-name="Aring" unicode="&#xc5;" 
d="M12 13v-4q9 4 18 11q8 6 15 21q7 14 15 38q8 23 18 60l139 496l-11 37q-11 34 -23 47q-11 11 -27 16v13h153q11 0 14 -4q4 -6 8 -18l176 -601q17 -58 28 -81q12 -26 34 -30v-15h-210v15q23 3 28 20t-6 59l-38 127h-222l-22 -78q-9 -36 -11 -54q-3 -23 1 -37q5 -15 16 -24
q13 -10 34 -14v-13h-127v13zM338 232l-109 369l-104 -369h213zM162 860q0 35 24 56t62 21t62 -21t24 -56t-24 -56t-62 -21t-62 21t-24 56zM207 860q0 -61 42 -61t42 61t-42 61t-42 -61z" />
    <glyph glyph-name="AE" unicode="&#xc6;" horiz-adv-x="780" 
d="M592 327l2 -4q-4 18 -9 33t-15 27t-30 18q-21 7 -54 8v-396h30q58 0 96 6t62 21t39 42t27 70h18l-14 -123q-1 -22 -8 -27q-5 -4 -22 -4h-411v13q16 4 25 12q9 7 13 25q5 18 6 51q1 22 1 91v40h-201l-43 -107q-14 -31 -18 -51q-5 -21 -2 -32t12 -19q9 -7 23 -12v-12h-111
v12q12 6 17 9q7 4 15 15q7 9 18 32q13 25 26 56l225 555q11 29 6 41q-5 13 -34 17v13h410q11 0 15 -4q5 -5 9 -25l20 -110h-18q-13 37 -29 62q-15 25 -39 38q-23 13 -58 19t-87 6h-20v-306q34 1 54 9t30 18t15 26q3 10 9 32h14v-185h-14zM347 244v480l-194 -480h194z" />
    <glyph glyph-name="Ccedilla" unicode="&#xc7;" horiz-adv-x="555" 
d="M340 -15v-3q-55 0 -110 23q-52 22 -97 71q-43 47 -70 123q-27 75 -27 180q0 102 27 174q27 73 69 119q41 46 93 67q51 21 97 21q29 0 48 -4q24 -5 36 -10q5 -2 29 -10q12 -4 27 -4q27 0 33 27h16v-184h-16q-32 92 -77 131t-94 39q-29 0 -54 -19q-26 -20 -45 -61
q-19 -42 -30 -110q-11 -71 -11 -165q0 -103 14 -178q13 -71 39 -115q25 -43 60 -63q34 -19 75 -19t78 20q36 20 62 50l12 -11q-12 -15 -27 -29q-18 -16 -39 -29t-52 -22q-30 -9 -66 -9zM273 -3l-20 -39q35 -6 57 -24q23 -18 23 -42q0 -74 -161 -79l-2 15q36 7 61 15
q24 7 24 23q0 14 -14 20q-15 7 -39 8l-4 7l53 96h22z" />
    <glyph glyph-name="Egrave" unicode="&#xc8;" horiz-adv-x="520" 
d="M26 13l1 -2q16 4 25 12q9 7 13 25q5 18 6 51q1 22 1 91v366q0 69 -1 91q-1 33 -6 51q-4 18 -13 25q-9 8 -25 12v13h403q11 0 15 -4q5 -5 9 -25l20 -110h-18q-13 37 -29 62q-15 25 -39 38q-23 13 -58 19q-34 6 -87 6h-35v-306q37 1 60 8q20 6 33 17q11 10 16 26q5 15 9 33
h14v-185h-14q-4 18 -9 33q-5 16 -16 26q-13 11 -33 17q-23 7 -60 8v-396h45q59 0 96 6q38 6 62 21t39 42t27 70h18l-14 -123q-1 -22 -8 -27q-5 -4 -22 -4h-425v13zM198 809l-1 -1q-35 6 -49 23q-13 16 -13 38q0 17 12 30t32 13q15 0 28 -6q15 -7 27 -16l112 -88l-5 -13z" />
    <glyph glyph-name="Eacute" unicode="&#xc9;" horiz-adv-x="520" 
d="M26 13l1 -2q16 4 25 12q9 7 13 25q5 18 6 51q1 22 1 91v366q0 69 -1 91q-1 33 -6 51q-4 18 -13 25q-9 8 -25 12v13h403q11 0 15 -4q5 -5 9 -25l20 -110h-18q-13 37 -29 62q-15 25 -39 38q-23 13 -58 19q-34 6 -87 6h-35v-306q37 1 60 8q20 6 33 17q11 10 16 26q5 15 9 33
h14v-185h-14q-4 18 -9 33q-5 16 -16 26q-13 11 -33 17q-23 7 -60 8v-396h45q59 0 96 6q38 6 62 21t39 42t27 70h18l-14 -123q-1 -22 -8 -27q-5 -4 -22 -4h-425v13zM159 802l112 86q15 12 27 17q14 6 28 6q20 0 32 -13q12 -14 12 -30q0 -20 -14 -37q-13 -16 -48 -22l-144 -20
z" />
    <glyph glyph-name="Ecircumflex" unicode="&#xca;" horiz-adv-x="520" 
d="M26 13l1 -2q16 4 25 12q9 7 13 25q5 18 6 51q1 22 1 91v366q0 69 -1 91q-1 33 -6 51q-4 18 -13 25q-9 8 -25 12v13h403q11 0 15 -4q5 -5 9 -25l20 -110h-18q-13 37 -29 62q-15 25 -39 38q-23 13 -58 19q-34 6 -87 6h-35v-306q37 1 60 8q20 6 33 17q11 10 16 26q5 15 9 33
h14v-185h-14q-4 18 -9 33q-5 16 -16 26q-13 11 -33 17q-23 7 -60 8v-396h45q59 0 96 6q38 6 62 21t39 42t27 70h18l-14 -123q-1 -22 -8 -27q-5 -4 -22 -4h-425v13zM253 925l131 -126l-5 -13l-126 42l-126 -42l-5 13z" />
    <glyph glyph-name="Edieresis" unicode="&#xcb;" horiz-adv-x="520" 
d="M26 13l1 -2q16 4 25 12q9 7 13 25q5 18 6 51q1 22 1 91v366q0 69 -1 91q-1 33 -6 51q-4 18 -13 25q-9 8 -25 12v13h403q11 0 15 -4q5 -5 9 -25l20 -110h-18q-13 37 -29 62q-15 25 -39 38q-23 13 -58 19q-34 6 -87 6h-35v-306q37 1 60 8q20 6 33 17q11 10 16 26q5 15 9 33
h14v-185h-14q-4 18 -9 33q-5 16 -16 26q-13 11 -33 17q-23 7 -60 8v-396h45q59 0 96 6q38 6 62 21t39 42t27 70h18l-14 -123q-1 -22 -8 -27q-5 -4 -22 -4h-425v13zM336 793v-1q-27 0 -45 18t-18 47q0 26 18 44t45 18q26 0 44 -18t18 -43q0 -29 -18 -47t-44 -18zM168 792v-1
q-26 0 -44 18t-18 47q0 26 18 44t44 18q27 0 45 -18t18 -43q0 -29 -18 -47t-45 -18z" />
    <glyph glyph-name="Igrave" unicode="&#xcc;" horiz-adv-x="275" 
d="M26 13v-1q16 4 25 12q9 7 13 25t6 51q1 22 1 91v366q0 70 -1 92q-2 33 -6 51t-13 25q-9 8 -25 12v13h223v-13q-16 -4 -25 -12q-9 -7 -13 -25q-5 -18 -6 -51q-1 -22 -1 -91v-366q0 -69 1 -91q1 -33 6 -51q4 -18 13 -25q9 -8 25 -12v-13h-223v13zM83 810l-1 -1
q-35 6 -49 23q-13 16 -13 38q0 16 12 30q12 13 32 13q14 0 28 -6q15 -7 27 -16l112 -88l-5 -13z" />
    <glyph glyph-name="Iacute" unicode="&#xcd;" horiz-adv-x="275" 
d="M26 13v-1q16 4 25 12q9 7 13 25t6 51q1 22 1 91v366q0 70 -1 92q-2 33 -6 51t-13 25q-9 8 -25 12v13h223v-13q-16 -4 -25 -12q-9 -7 -13 -25q-5 -18 -6 -51q-1 -22 -1 -91v-366q0 -69 1 -91q1 -33 6 -51q4 -18 13 -25q9 -8 25 -12v-13h-223v13zM44 803l112 86
q15 12 27 17q14 6 28 6q20 0 32 -13t12 -30q0 -20 -14 -37q-13 -16 -48 -22l-144 -20z" />
    <glyph glyph-name="Icircumflex" unicode="&#xce;" horiz-adv-x="275" 
d="M26 13v-1q16 4 25 12q9 7 13 25t6 51q1 22 1 91v366q0 70 -1 92q-2 33 -6 51t-13 25q-9 8 -25 12v13h223v-13q-16 -4 -25 -12q-9 -7 -13 -25q-5 -18 -6 -51q-1 -22 -1 -91v-366q0 -69 1 -91q1 -33 6 -51q4 -18 13 -25q9 -8 25 -12v-13h-223v13zM138 926l131 -126l-5 -13
l-126 42l-126 -42l-5 13z" />
    <glyph glyph-name="Idieresis" unicode="&#xcf;" horiz-adv-x="275" 
d="M222 795v-1q-27 0 -45 18t-18 47q0 26 18 44t45 18q26 0 44 -18t18 -43q0 -29 -18 -47t-44 -18zM54 794v-1q-26 0 -44 18t-18 47q0 26 18 44t44 18q27 0 45 -18t18 -43q0 -29 -18 -47t-45 -18zM26 11v-1q16 4 25 12q9 7 13 25t6 51q1 22 1 91v366q0 70 -1 92q-2 33 -6 51
t-13 25q-9 8 -25 12v13h223v-13q-16 -4 -25 -12q-9 -7 -13 -25q-5 -18 -6 -51q-1 -22 -1 -91v-366q0 -69 1 -91q1 -33 6 -51q4 -18 13 -25q9 -8 25 -12v-13h-223v13z" />
    <glyph glyph-name="Eth" unicode="&#xd0;" horiz-adv-x="639" 
d="M25 13l-2 1q16 4 25 12q9 7 13 25q5 18 6 51q1 22 1 91v191h-74v16h74v-16h137v-368h36q53 0 92 18t65 62t39 114q13 68 13 176q0 107 -17 177q-17 67 -45 105t-66 51q-39 14 -79 14h-36v-335h115v-16h-115v16h-137v159q0 69 -1 91q-1 33 -6 51q-4 18 -13 25q-9 8 -25 12
v13h217q77 0 140 -22q66 -23 113 -67t76 -114q28 -68 28 -162q0 -89 -25 -160t-72 -121q-46 -49 -112 -76t-148 -27h-217v13z" />
    <glyph glyph-name="Ntilde" unicode="&#xd1;" horiz-adv-x="582" 
d="M26 13l-1 -5q15 10 25 21q8 9 13 29q5 18 6 51q1 22 1 90v355q0 69 -1 91q-1 33 -6 51q-4 18 -13 25q-9 8 -25 12v13h172q13 0 17 -1q8 -2 11 -4q5 -3 9 -9q5 -7 11 -17l255 -474v305q0 68 -1 90q-2 34 -7 52q-6 20 -18 29q-14 10 -33 20v13h122v-13q-17 -12 -24 -19
q-9 -8 -13 -28q-5 -20 -6 -52q-1 -22 -1 -90v-551h-37l-394 724v-518q0 -46 2 -90q1 -31 8 -51q6 -17 18 -28q12 -10 33 -21v-13h-123v13zM289 884v-4q39 0 54 -1t42 -1q13 0 27 9q12 8 28 29l12 -4q-9 -50 -28 -79q-20 -30 -48 -30q-22 0 -48 2t-46 2q-14 0 -25 -7t-25 -27
l-12 4q13 56 30 82q16 25 39 25z" />
    <glyph glyph-name="Ograve" unicode="&#xd2;" horiz-adv-x="654" 
d="M327 -16v-2q-53 0 -105 28t-93 80q-41 51 -66 123q-25 71 -25 161t25 161q25 72 66 123t93 78t105 27t105 -27t93 -78t66 -123q25 -71 25 -161q0 -89 -25 -160q-25 -72 -66 -123q-40 -50 -93 -79q-52 -28 -105 -28zM327 -2v-1q66 0 102 95q35 93 37 282q0 89 -11 163
q-10 68 -29 117q-18 46 -44 69t-54 23t-54 -23t-45 -69t-30 -117q-10 -67 -10 -163q0 -188 36 -282t102 -94zM273 808l-1 -1q-35 6 -49 23q-13 16 -13 38q0 16 12 30q12 13 32 13q14 0 28 -6q15 -7 27 -16l112 -88l-5 -13z" />
    <glyph glyph-name="Oacute" unicode="&#xd3;" horiz-adv-x="654" 
d="M327 -16v-2q-53 0 -105 28t-93 80q-41 51 -66 123q-25 71 -25 161t25 161q25 72 66 123t93 78t105 27t105 -27t93 -78t66 -123q25 -71 25 -161q0 -89 -25 -160q-25 -72 -66 -123q-40 -50 -93 -79q-52 -28 -105 -28zM327 -2v-1q66 0 102 95q35 93 37 282q0 89 -11 163
q-10 68 -29 117q-18 46 -44 69t-54 23t-54 -23t-45 -69t-30 -117q-10 -67 -10 -163q0 -188 36 -282t102 -94zM234 801l112 86q15 12 27 17q14 6 28 6q20 0 32 -13t12 -30q0 -20 -14 -37q-13 -16 -48 -22l-144 -20z" />
    <glyph glyph-name="Ocircumflex" unicode="&#xd4;" horiz-adv-x="654" 
d="M327 -16v-2q-53 0 -105 28t-93 80q-41 51 -66 123q-25 71 -25 161t25 161q25 72 66 123t93 78t105 27t105 -27t93 -78t66 -123q25 -71 25 -161q0 -89 -25 -160q-25 -72 -66 -123q-40 -50 -93 -79q-52 -28 -105 -28zM327 -2v-1q66 0 102 95q35 93 37 282q0 89 -11 163
q-10 68 -29 117q-18 46 -44 69t-54 23t-54 -23t-45 -69t-30 -117q-10 -67 -10 -163q0 -188 36 -282t102 -94zM328 924l131 -126l-5 -13l-126 42l-126 -42l-5 13z" />
    <glyph glyph-name="Otilde" unicode="&#xd5;" horiz-adv-x="654" 
d="M327 -16v-2q-53 0 -105 28t-93 80q-41 51 -66 123q-25 71 -25 161t25 161q25 72 66 123t93 78t105 27t105 -27t93 -78t66 -123q25 -71 25 -161q0 -89 -25 -160q-25 -72 -66 -123q-40 -50 -93 -79q-52 -28 -105 -28zM327 -2v-1q66 0 102 95q35 93 37 282q0 89 -11 163
q-10 68 -29 117q-18 46 -44 69t-54 23t-54 -23t-45 -69t-30 -117q-10 -67 -10 -163q0 -188 36 -282t102 -94zM287 886v-4q39 0 54 -1t42 -1q13 0 27 9q12 8 28 29l12 -4q-9 -50 -28 -79q-20 -30 -48 -30q-22 0 -48 2t-46 2q-14 0 -25 -7t-25 -27l-12 4q13 56 30 82
q16 25 39 25z" />
    <glyph glyph-name="Odieresis" unicode="&#xd6;" horiz-adv-x="654" 
d="M327 -16v-2q-53 0 -105 28t-93 80q-41 51 -66 123q-25 71 -25 161t25 161q25 72 66 123t93 78t105 27t105 -27t93 -78t66 -123q25 -71 25 -161q0 -89 -25 -160q-25 -72 -66 -123q-40 -50 -93 -79q-52 -28 -105 -28zM327 -2v-1q66 0 102 95q35 93 37 282q0 89 -11 163
q-10 68 -29 117q-18 46 -44 69t-54 23t-54 -23t-45 -69t-30 -117q-10 -67 -10 -163q0 -188 36 -282t102 -94zM411 792v-1q-27 0 -45 18t-18 47q0 26 18 44t45 18q26 0 44 -18t18 -43q0 -29 -18 -47t-44 -18zM243 791v-1q-26 0 -44 18t-18 47q0 26 18 44t44 18q27 0 45 -18
t18 -43q0 -29 -18 -47t-45 -18z" />
    <glyph glyph-name="multiply" unicode="&#xd7;" horiz-adv-x="367" 
d="M169 353l-129 143l14 16l129 -143l131 145l14 -15l-131 -145l131 -146l-15 -15l-131 145l-129 -143l-14 14z" />
    <glyph glyph-name="Oslash" unicode="&#xd8;" horiz-adv-x="654" 
d="M327 -16l-3 -3q-36 0 -73 14q-36 13 -69 39l-33 -76l-16 8l35 79q-56 50 -94 135q-37 83 -37 193q0 90 25 161q26 72 66 123t93 78t105 27q73 0 138 -47l29 66l16 -8l-30 -69q60 -51 98 -133q39 -84 39 -197q0 -89 -25 -160q-25 -72 -66 -123q-40 -50 -93 -79
q-52 -28 -105 -28zM185 373v1q0 -144 23 -236l220 501q-20 55 -46 80q-28 26 -58 26q-28 0 -54 -23q-26 -22 -45 -69t-30 -117q-10 -67 -10 -163zM324 -2l1 -2q66 0 102 95q35 93 37 282q0 79 -7 135q-7 60 -21 105l-221 -502q36 -113 109 -113z" />
    <glyph glyph-name="Ugrave" unicode="&#xd9;" horiz-adv-x="571" 
d="M300 -16l-3 -4q-52 0 -97 14q-44 14 -75 42t-48 72q-17 45 -17 104v343q0 70 -1 92q-1 33 -6 51q-4 17 -12 25q-7 7 -21 12v13h219v-13q-15 -5 -24 -12t-13 -25t-6 -51q-1 -22 -1 -91v-365q0 -57 4 -89q5 -38 16 -59q12 -22 35 -33q21 -10 59 -10q93 0 134 48
q41 49 41 152v346q0 68 -1 90q-2 35 -7 51q-6 19 -18 29t-33 21v13h122v-13q-15 -11 -24 -21q-8 -10 -13 -28q-4 -18 -6 -51q-1 -22 -1 -90v-346q0 -108 -47 -163q-46 -54 -156 -54zM267 807l-1 -1q-35 6 -49 23q-13 16 -13 38q0 17 12 30t32 13q14 0 28 -6q15 -7 27 -16
l112 -88l-5 -13z" />
    <glyph glyph-name="Uacute" unicode="&#xda;" horiz-adv-x="571" 
d="M300 -16l-3 -4q-52 0 -97 14q-44 14 -75 42t-48 72q-17 45 -17 104v343q0 70 -1 92q-1 33 -6 51q-4 17 -12 25q-7 7 -21 12v13h219v-13q-15 -5 -24 -12t-13 -25t-6 -51q-1 -22 -1 -91v-365q0 -57 4 -89q5 -38 16 -59q12 -22 35 -33q21 -10 59 -10q93 0 134 48
q41 49 41 152v346q0 68 -1 90q-2 35 -7 51q-6 19 -18 29t-33 21v13h122v-13q-15 -11 -24 -21q-8 -10 -13 -28q-4 -18 -6 -51q-1 -22 -1 -90v-346q0 -108 -47 -163q-46 -54 -156 -54zM228 800l112 86q15 12 27 17q13 6 28 6q20 0 32 -13q12 -14 12 -30q0 -20 -14 -37
q-13 -16 -48 -22l-144 -20z" />
    <glyph glyph-name="Ucircumflex" unicode="&#xdb;" horiz-adv-x="571" 
d="M300 -16l-3 -4q-52 0 -97 14q-44 14 -75 42t-48 72q-17 45 -17 104v343q0 70 -1 92q-1 33 -6 51q-4 17 -12 25q-7 7 -21 12v13h219v-13q-15 -5 -24 -12t-13 -25t-6 -51q-1 -22 -1 -91v-365q0 -57 4 -89q5 -38 16 -59q12 -22 35 -33q21 -10 59 -10q93 0 134 48
q41 49 41 152v346q0 68 -1 90q-2 35 -7 51q-6 19 -18 29t-33 21v13h122v-13q-15 -11 -24 -21q-8 -10 -13 -28q-4 -18 -6 -51q-1 -22 -1 -90v-346q0 -108 -47 -163q-46 -54 -156 -54zM321 923l131 -126l-5 -13l-126 42l-126 -42l-5 13z" />
    <glyph glyph-name="Udieresis" unicode="&#xdc;" horiz-adv-x="571" 
d="M300 -16l-3 -4q-52 0 -97 14q-44 14 -75 42t-48 72q-17 45 -17 104v343q0 70 -1 92q-1 33 -6 51q-4 17 -12 25q-7 7 -21 12v13h219v-13q-15 -5 -24 -12t-13 -25t-6 -51q-1 -22 -1 -91v-365q0 -57 4 -89q5 -38 16 -59q12 -22 35 -33q21 -10 59 -10q93 0 134 48
q41 49 41 152v346q0 68 -1 90q-2 35 -7 51q-6 19 -18 29t-33 21v13h122v-13q-15 -11 -24 -21q-8 -10 -13 -28q-4 -18 -6 -51q-1 -22 -1 -90v-346q0 -108 -47 -163q-46 -54 -156 -54zM405 791v-1q-27 0 -45 18t-18 47q0 26 18 44t45 18q26 0 44 -18t18 -43q0 -29 -18 -47
t-44 -18zM237 790v-1q-26 0 -44 18t-18 47q0 26 18 44t44 18q27 0 45 -18t18 -43q0 -29 -18 -47t-45 -18z" />
    <glyph glyph-name="Yacute" unicode="&#xdd;" horiz-adv-x="530" 
d="M160 13l-3 -2q15 5 24 12q10 8 14 25q5 18 6 51q1 22 1 91v180l-115 254q-16 41 -33 67q-16 25 -45 45v13h222v-13q-23 -8 -27 -24t6 -43l116 -266l91 220q11 28 18 50q6 18 4 32q-2 13 -12 20q-11 7 -30 12v13h120v-13q-11 -5 -18 -9q-6 -4 -16 -15q-8 -10 -19 -31
q-9 -18 -25 -58l-102 -240v-192q0 -69 1 -91q2 -33 6 -51q4 -17 14 -25q9 -7 24 -12v-13h-222v13zM219 802l112 86q15 12 27 17q13 6 28 6q20 0 32 -13q12 -14 12 -30q0 -20 -14 -37q-13 -16 -48 -22l-144 -20z" />
    <glyph glyph-name="Thorn" unicode="&#xde;" horiz-adv-x="530" 
d="M26 13l-3 -1q16 4 25 12q9 7 13 25q5 18 6 51q1 22 1 91v366q0 70 -1 92q-1 33 -6 51q-4 18 -13 25q-9 8 -25 12v13h223v-13q-14 -5 -22 -10q-9 -6 -13 -19q-5 -14 -6 -39q-2 -34 -2 -67h64q56 0 101 -9q46 -9 78 -31q33 -23 51 -58q18 -36 18 -87q0 -55 -19 -93
q-20 -40 -52 -65q-33 -26 -79 -39q-45 -13 -99 -13h-62v-15q0 -69 1 -91q1 -33 6 -51q4 -18 13 -25q9 -8 25 -12v-13h-223v13zM261 222l-1 3q58 0 91 42t33 140q0 49 -9 84t-24 56t-37 30t-49 9h-63v-364h59z" />
    <glyph glyph-name="germandbls" unicode="&#xdf;" horiz-adv-x="528" 
d="M184 116l-3 -4v-48q0 -18 3 -29q3 -10 9 -16t16 -10v-13h-180v13q12 5 19 10q8 7 11 16q3 11 3 29v48v340h-58v14q16 3 31 8q12 4 18 12q7 8 8 18q2 14 2 26v24q0 54 20 96q19 39 50 67q30 27 66 39t71 12q33 0 63 -9q32 -10 53 -25q22 -16 36 -39t14 -50q0 -26 -11 -46
q-11 -19 -27 -36t-36 -33q-17 -15 -37 -36q-20 -25 -22 -41q-1 -10 -1 -28q0 -31 20 -60t66 -66q37 -30 57 -52q23 -24 36 -45t18 -41q5 -22 5 -41q0 -32 -13 -55q-13 -24 -34 -40q-20 -16 -46 -25q-25 -9 -51 -9q-18 0 -33 5q-12 4 -22 9q-6 3 -16 9q-8 5 -15 5
q-13 0 -16 -13h-16v128h15q6 -28 15 -50t21 -39q12 -16 29 -27q16 -10 37 -10t35 18q14 19 14 45q0 13 -3 27t-12 29q-8 13 -26 33q-19 20 -43 42q-27 22 -45 42q-19 20 -29 38t-15 36q-4 16 -4 36q0 25 7 43q8 19 18 36q12 18 24 32q9 10 25 32q29 35 35 65t6 65
q0 36 -1 52q-1 23 -9 40q-7 16 -22 25t-40 9q-42 0 -66 -32q-24 -31 -24 -108v-497z" />
    <glyph glyph-name="agrave" unicode="&#xe0;" horiz-adv-x="434" 
d="M138 -10l-7 -7q-48 0 -79 29q-30 28 -30 81q0 35 15 58q14 21 41 37q26 15 57 27q29 11 61 27l2 1l18 9q10 5 17 12q7 8 12 21q5 15 5 36v78q0 37 -14 51t-42 14q-20 0 -33 -15q-12 -14 -25 -44q-6 -20 -16 -30q-11 -11 -33 -11q-20 0 -32 12t-12 29q0 31 39 54
q40 23 111 23q39 0 72 -6t57 -21q23 -15 37 -39q14 -25 14 -60v-238q0 -40 1 -53q2 -22 4 -30q3 -10 9 -13t14 -3t14 3q4 2 10 6l5 -11q-8 -6 -27 -15t-58 -9q-74 0 -86 59l-1 -1q-24 -24 -51 -43q-25 -18 -69 -18zM140 114h-3q0 -97 49 -97q11 0 26 12q11 9 36 32v197
q-7 -13 -21 -19q-13 -6 -30 -15h-2q-31 -16 -43 -40t-12 -70zM133 579l1 -2q-18 10 -31 26q-12 15 -12 36q0 19 11 32q10 12 32 12q20 0 32 -12q13 -13 29 -38l74 -116l-11 -10z" />
    <glyph glyph-name="aacute" unicode="&#xe1;" horiz-adv-x="434" 
d="M138 -10l-7 -7q-48 0 -79 29q-30 28 -30 81q0 35 15 58q14 21 41 37q26 15 57 27q29 11 61 27l2 1l18 9q10 5 17 12q7 8 12 21q5 15 5 36v78q0 37 -14 51t-42 14q-20 0 -33 -15q-12 -14 -25 -44q-6 -20 -16 -30q-11 -11 -33 -11q-20 0 -32 12t-12 29q0 31 39 54
q40 23 111 23q39 0 72 -6t57 -21q23 -15 37 -39q14 -25 14 -60v-238q0 -40 1 -53q2 -22 4 -30q3 -10 9 -13t14 -3t14 3q4 2 10 6l5 -11q-8 -6 -27 -15t-58 -9q-74 0 -86 59l-1 -1q-24 -24 -51 -43q-25 -18 -69 -18zM140 114h-3q0 -97 49 -97q11 0 26 12q11 9 36 32v197
q-7 -13 -21 -19q-13 -6 -30 -15h-2q-31 -16 -43 -40t-12 -70zM120 517l75 116q17 25 29 38q12 12 32 12q22 0 32 -12q11 -13 11 -31q0 -21 -12 -36t-31 -25l-125 -72z" />
    <glyph glyph-name="acircumflex" unicode="&#xe2;" horiz-adv-x="434" 
d="M138 -10l-7 -7q-48 0 -79 29q-30 28 -30 81q0 35 15 58q14 21 41 37q26 15 57 27q29 11 61 27l2 1l18 9q10 5 17 12q7 8 12 21q5 15 5 36v78q0 37 -14 51t-42 14q-20 0 -33 -15q-12 -14 -25 -44q-6 -20 -16 -30q-11 -11 -33 -11q-20 0 -32 12t-12 29q0 31 39 54
q40 23 111 23q39 0 72 -6t57 -21q23 -15 37 -39q14 -25 14 -60v-238q0 -40 1 -53q2 -22 4 -30q3 -10 9 -13t14 -3t14 3q4 2 10 6l5 -11q-8 -6 -27 -15t-58 -9q-74 0 -86 59l-1 -1q-24 -24 -51 -43q-25 -18 -69 -18zM140 114h-3q0 -97 49 -97q11 0 26 12q11 9 36 32v197
q-7 -13 -21 -19q-13 -6 -30 -15h-2q-31 -16 -43 -40t-12 -70zM195 690l118 -175l-11 -9l-107 64l-107 -64l-11 9z" />
    <glyph glyph-name="atilde" unicode="&#xe3;" horiz-adv-x="434" 
d="M138 -10l-7 -7q-48 0 -79 29q-30 28 -30 81q0 35 15 58q14 21 41 37q26 15 57 27q29 11 61 27l2 1l18 9q10 5 17 12q7 8 12 21q5 15 5 36v78q0 37 -14 51t-42 14q-20 0 -33 -15q-12 -14 -25 -44q-6 -20 -16 -30q-11 -11 -33 -11q-20 0 -32 12t-12 29q0 31 39 54
q40 23 111 23q39 0 72 -6t57 -21q23 -15 37 -39q14 -25 14 -60v-238q0 -40 1 -53q2 -22 4 -30q3 -10 9 -13t14 -3t14 3q4 2 10 6l5 -11q-8 -6 -27 -15t-58 -9q-74 0 -86 59l-1 -1q-24 -24 -51 -43q-25 -18 -69 -18zM140 114h-3q0 -97 49 -97q11 0 26 12q11 9 36 32v197
q-7 -13 -21 -19q-13 -6 -30 -15h-2q-31 -16 -43 -40t-12 -70zM150 640l-2 -5q11 0 27 -2t23 -3l21 -3q14 -2 22 -2q13 0 24 9q9 8 27 29l12 -6q-11 -42 -29 -76q-16 -31 -48 -31q-10 0 -24 2t-21 4t-21 4t-24 2q-14 0 -23 -9q-15 -15 -26 -28l-12 6q16 50 32 80q15 29 42 29
z" />
    <glyph glyph-name="adieresis" unicode="&#xe4;" horiz-adv-x="434" 
d="M138 -10l-7 -7q-48 0 -79 29q-30 28 -30 81q0 35 15 58q14 21 41 37q26 15 57 27q29 11 61 27l2 1l18 9q10 5 17 12q7 8 12 21q5 15 5 36v78q0 37 -14 51t-42 14q-20 0 -33 -15q-12 -14 -25 -44q-6 -20 -16 -30q-11 -11 -33 -11q-20 0 -32 12t-12 29q0 31 39 54
q40 23 111 23q39 0 72 -6t57 -21q23 -15 37 -39q14 -25 14 -60v-238q0 -40 1 -53q2 -22 4 -30q3 -10 9 -13t14 -3t14 3q4 2 10 6l5 -11q-8 -6 -27 -15t-58 -9q-74 0 -86 59l-1 -1q-24 -24 -51 -43q-25 -18 -69 -18zM140 114h-3q0 -97 49 -97q11 0 26 12q11 9 36 32v197
q-7 -13 -21 -19q-13 -6 -30 -15h-2q-31 -16 -43 -40t-12 -70zM280 536v-1q-28 0 -46 18t-18 47q0 26 18 44t46 18q26 0 44 -18t18 -43q0 -29 -18 -47t-44 -18zM110 535v-1q-26 0 -44 18t-18 47q0 26 18 44t44 18q28 0 46 -18t18 -43q0 -29 -18 -47t-46 -18z" />
    <glyph glyph-name="aring" unicode="&#xe5;" horiz-adv-x="434" 
d="M138 -10l-7 -7q-48 0 -79 29q-30 28 -30 81q0 35 15 58q14 21 41 37q26 15 57 27q29 11 61 27l2 1l18 9q10 5 17 12q7 8 12 21q5 15 5 36v78q0 37 -14 51t-42 14q-20 0 -33 -15q-12 -14 -25 -44q-6 -20 -16 -30q-11 -11 -33 -11q-20 0 -32 12t-12 29q0 31 39 54
q40 23 111 23q39 0 72 -6t57 -21q23 -15 37 -39q14 -25 14 -60v-238q0 -40 1 -53q2 -22 4 -30q3 -10 9 -13t14 -3t14 3q4 2 10 6l5 -11q-8 -6 -27 -15t-58 -9q-74 0 -86 59l-1 -1q-24 -24 -51 -43q-25 -18 -69 -18zM140 114h-3q0 -97 49 -97q11 0 26 12q11 9 36 32v197
q-7 -13 -21 -19q-13 -6 -30 -15h-2q-31 -16 -43 -40t-12 -70zM113 596q0 35 24 56t58 21t58 -21t24 -56t-24 -56t-58 -21t-58 21t-24 56zM158 596v1q0 -61 37 -61t37 61q0 31 -10 45q-10 15 -27 15q-37 0 -37 -61z" />
    <glyph glyph-name="ae" unicode="&#xe6;" horiz-adv-x="650" 
d="M142 -10v-9q-52 0 -84 29q-31 28 -31 81q0 35 15 58q14 21 41 37q25 15 57 27q29 11 61 27l2 1l18 9q10 5 17 12q8 8 12 21q5 15 5 36v78q0 37 -14 51t-42 14q-19 0 -33 -15q-12 -14 -25 -44q-6 -20 -16 -30q-11 -11 -33 -11q-20 0 -32 12t-12 29q0 31 39 54
q40 23 111 23q48 0 84 -10q38 -10 60 -33q26 23 54 33q30 11 51 11q45 0 74 -13q31 -14 50 -37q20 -25 29 -56q10 -33 11 -68h-233q-1 -8 -1 -25v-27q0 -51 6 -94q6 -45 19 -75q13 -31 36 -49q22 -18 57 -18q38 0 57 10q22 12 39 25l9 -13q-4 -3 -11.5 -8.5t-10.5 -8.5
q-10 -8 -27 -16q-15 -7 -35 -12q-17 -4 -47 -4q-51 0 -97 20q-45 20 -74 65l-23 -22q-21 -21 -30 -29q-15 -13 -27 -20q-14 -8 -31 -12q-16 -4 -45 -4zM448 460l-2 -1q-14 0 -24 -6q-11 -6 -20 -23q-9 -16 -15 -44q-6 -27 -9 -68h119q-1 32 -3 61q-2 27 -6 45q-4 17 -14 27
q-9 9 -26 9zM145 111l-1 -1q0 -97 48 -97q13 0 32 11t44 36l19 19q-15 27 -25 65q-9 36 -9 84v27q-7 -13 -21 -19t-30 -15h-2q-31 -16 -43 -40t-12 -70z" />
    <glyph glyph-name="ccedilla" unicode="&#xe7;" horiz-adv-x="399" 
d="M241 -8l-5 -8q-44 0 -82 16q-37 16 -67 47q-28 30 -45 74q-16 42 -16 99q0 62 20 111q20 48 51 81t67 49q37 17 68 17q58 0 96 -21t38 -58q0 -18 -12 -27t-30 -9q-28 0 -42 15q-13 15 -21 47q-5 23 -9 32t-18 9q-38 0 -59 -51t-21 -157q0 -119 31 -178q31 -60 82 -60
q37 0 59 13t42 33l12 -12q-21 -22 -54 -42q-34 -20 -85 -20zM226 -8l-20 -39q34 -6 57 -24t23 -42q0 -74 -161 -79l-2 15q36 7 61 15q24 8 24 23q0 14 -14 20q-15 7 -39 8l-4 7l53 96h22z" />
    <glyph glyph-name="egrave" unicode="&#xe8;" horiz-adv-x="418" 
d="M242 -8l4 -6q-42 0 -82 14t-69 43q-30 30 -48 77q-18 46 -18 114q0 62 20 110q19 47 50 77q30 30 63 45t60 15q45 0 75 -13q32 -14 51 -37q19 -24 30 -56q10 -31 12 -68h-239q-1 -8 -1 -25v-27q0 -51 6 -94q6 -45 19 -75q13 -31 36 -49t57 -18q39 0 59 10q24 12 41 25
l9 -13q-4 -3 -11.5 -8.5t-10.5 -8.5q-11 -8 -28 -16t-37 -12q-19 -4 -48 -4zM223 463l-1 -1q-13 0 -25 -6t-21 -23q-9 -16 -15 -44q-6 -27 -9 -68h125q-1 32 -3 61t-7 45q-6 19 -16 27q-11 9 -28 9zM166 579l1 -2q-18 10 -31 26q-12 15 -12 36q0 19 11 32q10 12 32 12
q20 0 32 -12q13 -13 29 -38l74 -116l-11 -10z" />
    <glyph glyph-name="eacute" unicode="&#xe9;" horiz-adv-x="418" 
d="M242 -8l4 -6q-42 0 -82 14t-69 43q-30 30 -48 77q-18 46 -18 114q0 62 20 110q19 47 50 77q30 30 63 45t60 15q45 0 75 -13q32 -14 51 -37q19 -24 30 -56q10 -31 12 -68h-239q-1 -8 -1 -25v-27q0 -51 6 -94q6 -45 19 -75q13 -31 36 -49t57 -18q39 0 59 10q24 12 41 25
l9 -13q-4 -3 -11.5 -8.5t-10.5 -8.5q-11 -8 -28 -16t-37 -12q-19 -4 -48 -4zM223 463l-1 -1q-13 0 -25 -6t-21 -23q-9 -16 -15 -44q-6 -27 -9 -68h125q-1 32 -3 61t-7 45q-6 19 -16 27q-11 9 -28 9zM153 517l75 116q17 25 29 38q12 12 32 12q21 0 32 -12q11 -13 11 -31
q0 -21 -12 -36t-31 -25l-125 -72z" />
    <glyph glyph-name="ecircumflex" unicode="&#xea;" horiz-adv-x="418" 
d="M242 -8l4 -6q-42 0 -82 14t-69 43q-30 30 -48 77q-18 46 -18 114q0 62 20 110q19 47 50 77q30 30 63 45t60 15q45 0 75 -13q32 -14 51 -37q19 -24 30 -56q10 -31 12 -68h-239q-1 -8 -1 -25v-27q0 -51 6 -94q6 -45 19 -75q13 -31 36 -49t57 -18q39 0 59 10q24 12 41 25
l9 -13q-4 -3 -11.5 -8.5t-10.5 -8.5q-11 -8 -28 -16t-37 -12q-19 -4 -48 -4zM223 463l-1 -1q-13 0 -25 -6t-21 -23q-9 -16 -15 -44q-6 -27 -9 -68h125q-1 32 -3 61t-7 45q-6 19 -16 27q-11 9 -28 9zM228 690l118 -175l-11 -9l-107 64l-107 -64l-11 9z" />
    <glyph glyph-name="edieresis" unicode="&#xeb;" horiz-adv-x="418" 
d="M242 -8l4 -6q-42 0 -82 14t-69 43q-30 30 -48 77q-18 46 -18 114q0 62 20 110q19 47 50 77q30 30 63 45t60 15q45 0 75 -13q32 -14 51 -37q19 -24 30 -56q10 -31 12 -68h-239q-1 -8 -1 -25v-27q0 -51 6 -94q6 -45 19 -75q13 -31 36 -49t57 -18q39 0 59 10q24 12 41 25
l9 -13q-4 -3 -11.5 -8.5t-10.5 -8.5q-11 -8 -28 -16t-37 -12q-19 -4 -48 -4zM223 463l-1 -1q-13 0 -25 -6t-21 -23q-9 -16 -15 -44q-6 -27 -9 -68h125q-1 32 -3 61t-7 45q-6 19 -16 27q-11 9 -28 9zM313 536v-1q-28 0 -46 18t-18 47q0 26 18 44t46 18q26 0 44 -18t18 -43
q0 -29 -18 -47t-44 -18zM143 535v-1q-26 0 -44 18t-18 47q0 26 18 44t44 18q28 0 46 -18t18 -43q0 -29 -18 -47t-46 -18z" />
    <glyph glyph-name="igrave" unicode="&#xec;" horiz-adv-x="230" 
d="M20 13l2 1q15 5 21 10q8 6 12 16q5 12 5 29v48v186q0 31 -1 41q-2 16 -6 23q-5 8 -13 12q-7 4 -24 7v15l161 87v-372v-48q0 -17 5 -29q4 -10 12 -16q6 -5 21 -10v-13h-195v13zM56 587l1 -2q-18 10 -31 26q-12 15 -12 36q0 19 11 32q10 12 32 12q20 0 32 -12
q12 -13 29 -38l74 -116l-11 -10z" />
    <glyph glyph-name="iacute" unicode="&#xed;" horiz-adv-x="230" 
d="M20 13l2 1q15 5 21 10q8 6 12 16q5 12 5 29v48v186q0 31 -1 41q-2 16 -6 23q-5 8 -13 12q-7 4 -24 7v15l161 87v-372v-48q0 -17 5 -29q4 -10 12 -16q6 -5 21 -10v-13h-195v13zM43 525l75 116q17 25 29 38q12 12 32 12q21 0 32 -12q11 -13 11 -31q0 -21 -12 -36t-31 -25
l-125 -72z" />
    <glyph glyph-name="icircumflex" unicode="&#xee;" horiz-adv-x="230" 
d="M20 13l2 1q15 5 21 10q8 6 12 16q5 12 5 29v48v186q0 31 -1 41q-2 16 -6 23q-5 8 -13 12q-7 4 -24 7v15l161 87v-372v-48q0 -17 5 -29q4 -10 12 -16q6 -5 21 -10v-13h-195v13zM117 698l118 -175l-11 -9l-107 64l-107 -64l-11 9z" />
    <glyph glyph-name="idieresis" unicode="&#xef;" horiz-adv-x="230" 
d="M192 543v-1q-27 0 -45 18t-18 47q0 26 18 44t45 18q26 0 44 -18t18 -43q0 -29 -18 -47t-44 -18zM38 542v-1q-26 0 -44 18t-18 47q0 26 18 44t44 18q27 0 45 -18t18 -43q0 -29 -18 -47t-45 -18zM20 11l2 1q15 5 21 10q8 6 12 16q5 12 5 29v48v186q0 31 -1 41q-2 16 -6 23
q-5 8 -13 12q-7 4 -24 7v15l161 87v-372v-48q0 -17 5 -29q4 -10 12 -16q6 -5 21 -10v-13h-195v13z" />
    <glyph glyph-name="eth" unicode="&#xf0;" horiz-adv-x="467" 
d="M440 297v2q0 -87 -21 -145q-21 -59 -52 -94q-32 -36 -67 -51q-36 -15 -67 -15q-28 0 -65 14q-35 13 -67 42t-53 75q-21 47 -21 113q0 67 21 115t53 77q31 28 68 42t65 14q17 0 39 -5q19 -5 36 -15q-8 46 -25 88q-18 44 -45 84l-110 -58l-8 15l108 57q-27 34 -55 60
q-31 29 -67 51l10 7q46 -19 87 -44q42 -26 71 -52l94 50l8 -15l-89 -47q43 -40 71 -84q29 -46 47 -92q19 -48 26 -95q8 -51 8 -94zM233 11v-2q20 0 35 12q16 13 26 39q10 25 16 71q6 44 6 107q0 64 -6 108q-6 46 -16 71q-10 26 -26 39q-15 12 -35 12q-19 0 -36 -12t-27 -39
q-10 -25 -16 -71q-6 -44 -6 -108q0 -62 6 -106q6 -45 16 -70q10 -27 27 -39t36 -12z" />
    <glyph glyph-name="ntilde" unicode="&#xf1;" horiz-adv-x="492" 
d="M21 13q12 5 19 10q8 7 11 16q3 10 3 29v48v186q0 32 -1 42q-2 16 -6 23q-5 8 -13 11q-9 3 -24 6v15l162 87v-108l18 18q37 40 71 63t76 23q13 0 33 -5q18 -5 33 -18q16 -14 26 -36q10 -21 10 -57v-250v-48q0 -18 3 -29q3 -10 10 -16q7 -5 19 -10v-13h-192v13q14 5 20 10
q8 6 12 16t6 29q2 24 2 48v284q0 24 -9 34t-23 10q-15 0 -37 -16q-24 -18 -57 -52l-18 -18v-242v-48q0 -17 5 -29q4 -10 12 -16q6 -5 21 -10v-13h-192v13zM216 647l-2 -5q11 0 27 -2t23 -3l21 -3q14 -2 22 -2q13 0 24 9q9 8 27 29l12 -6q-11 -42 -29 -76q-16 -31 -48 -31
q-10 0 -24 2t-21 4t-21 4t-24 2q-14 0 -23 -9q-15 -15 -26 -28l-12 6q16 50 32 80q15 29 42 29z" />
    <glyph glyph-name="ograve" unicode="&#xf2;" horiz-adv-x="466" 
d="M233 -7l-2 -3q-28 0 -65 14q-35 13 -67 42t-53 75q-21 47 -21 113q0 67 21 115t53 77q31 28 68 42t65 14q30 0 65 -13q37 -14 68 -42q33 -30 53 -76q21 -48 21 -115q0 -66 -21 -113q-21 -46 -53 -75t-67 -42t-65 -13zM231 6v-2q20 0 35 12q16 13 26 39q10 25 16 71
q6 43 6 107q0 65 -6 108q-6 46 -16 71q-10 26 -26 39q-15 12 -35 12q-19 0 -36 -12t-27 -39q-10 -25 -16 -71q-6 -43 -6 -108q0 -63 6 -106q6 -45 16 -70q10 -27 27 -39t36 -12zM169 581l1 -2q-18 10 -31 26q-12 15 -12 36q0 19 11 32q10 12 32 12q20 0 32 -12
q13 -12 29 -38l74 -116l-11 -10z" />
    <glyph glyph-name="oacute" unicode="&#xf3;" horiz-adv-x="466" 
d="M233 -7l-2 -3q-28 0 -65 14q-35 13 -67 42t-53 75q-21 47 -21 113q0 67 21 115t53 77q31 28 68 42t65 14q30 0 65 -13q37 -14 68 -42q33 -30 53 -76q21 -48 21 -115q0 -66 -21 -113q-21 -46 -53 -75t-67 -42t-65 -13zM231 6v-2q20 0 35 12q16 13 26 39q10 25 16 71
q6 43 6 107q0 65 -6 108q-6 46 -16 71q-10 26 -26 39q-15 12 -35 12q-19 0 -36 -12t-27 -39q-10 -25 -16 -71q-6 -43 -6 -108q0 -63 6 -106q6 -45 16 -70q10 -27 27 -39t36 -12zM156 519l75 116q17 26 29 38t32 12q22 0 32 -12q11 -13 11 -31q0 -21 -12 -36t-31 -25
l-125 -72z" />
    <glyph glyph-name="ocircumflex" unicode="&#xf4;" horiz-adv-x="466" 
d="M233 -7l-2 -3q-28 0 -65 14q-35 13 -67 42t-53 75q-21 47 -21 113q0 67 21 115t53 77q31 28 68 42t65 14q30 0 65 -13q37 -14 68 -42q33 -30 53 -76q21 -48 21 -115q0 -66 -21 -113q-21 -46 -53 -75t-67 -42t-65 -13zM231 6v-2q20 0 35 12q16 13 26 39q10 25 16 71
q6 43 6 107q0 65 -6 108q-6 46 -16 71q-10 26 -26 39q-15 12 -35 12q-19 0 -36 -12t-27 -39q-10 -25 -16 -71q-6 -43 -6 -108q0 -63 6 -106q6 -45 16 -70q10 -27 27 -39t36 -12zM231 692l118 -175l-11 -9l-107 64l-107 -64l-11 9z" />
    <glyph glyph-name="otilde" unicode="&#xf5;" horiz-adv-x="466" 
d="M233 -7l-2 -3q-28 0 -65 14q-35 13 -67 42t-53 75q-21 47 -21 113q0 67 21 115t53 77q31 28 68 42t65 14q30 0 65 -13q37 -14 68 -42q33 -30 53 -76q21 -48 21 -115q0 -66 -21 -113q-21 -46 -53 -75t-67 -42t-65 -13zM231 6v-2q20 0 35 12q16 13 26 39q10 25 16 71
q6 43 6 107q0 65 -6 108q-6 46 -16 71q-10 26 -26 39q-15 12 -35 12q-19 0 -36 -12t-27 -39q-10 -25 -16 -71q-6 -43 -6 -108q0 -63 6 -106q6 -45 16 -70q10 -27 27 -39t36 -12zM186 642l-2 -5q11 0 27 -2t23 -3l21 -3q14 -2 22 -2q13 0 24 9q9 8 27 29l12 -6
q-11 -42 -29 -76q-16 -31 -48 -31q-10 0 -24 2t-21 4t-21 4t-24 2q-14 0 -23 -9q-15 -15 -26 -28l-12 6q16 50 32 80q15 29 42 29z" />
    <glyph glyph-name="odieresis" unicode="&#xf6;" horiz-adv-x="466" 
d="M233 -7l-2 -3q-28 0 -65 14q-35 13 -67 42t-53 75q-21 47 -21 113q0 67 21 115t53 77q31 28 68 42t65 14q30 0 65 -13q37 -14 68 -42q33 -30 53 -76q21 -48 21 -115q0 -66 -21 -113q-21 -46 -53 -75t-67 -42t-65 -13zM231 6v-2q20 0 35 12q16 13 26 39q10 25 16 71
q6 43 6 107q0 65 -6 108q-6 46 -16 71q-10 26 -26 39q-15 12 -35 12q-19 0 -36 -12t-27 -39q-10 -25 -16 -71q-6 -43 -6 -108q0 -63 6 -106q6 -45 16 -70q10 -27 27 -39t36 -12zM316 538v-1q-28 0 -46 18t-18 47q0 26 18 44t46 18q26 0 44 -18t18 -43q0 -29 -18 -47t-44 -18
zM146 537v-1q-26 0 -44 18t-18 47q0 26 18 44t44 18q28 0 46 -18t18 -43q0 -29 -18 -47t-46 -18z" />
    <glyph glyph-name="divide" unicode="&#xf7;" horiz-adv-x="419" 
d="M144 498h-2q0 27 20 47t48 20t48 -20t20 -47q0 -29 -19 -48q-20 -20 -48 -20t-48 20q-19 19 -19 48zM38 361h341v-20h-341v20zM142 203h-2q0 28 20 48t48 20t48 -20t20 -48t-19 -47q-20 -20 -48 -20t-48 20q-19 19 -19 47z" />
    <glyph glyph-name="oslash" unicode="&#xf8;" horiz-adv-x="466" 
d="M306 380l-144 -290q11 -44 28 -63q18 -19 43 -19q20 0 35 12q16 13 26 39q10 25 16 71q6 43 6 107q0 45 -3 81q-4 42 -7 62zM299 405v-1q-10 34 -27 49q-16 15 -39 15q-19 0 -36 -12t-27 -39q-10 -25 -16 -71q-6 -44 -6 -108q0 -26 2 -66q2 -30 6 -54zM103 -29l-16 7
l27 55q-37 28 -63 77t-26 123q0 67 21 115t53 77q31 28 68 42t65 14q20 0 44 -6q23 -6 47 -20l22 43l15 -9l-22 -44q41 -28 71 -78q30 -51 30 -132q0 -67 -21 -113t-53 -75t-67 -42t-65 -13q-21 0 -50 8q-28 8 -53 24z" />
    <glyph glyph-name="ugrave" unicode="&#xf9;" horiz-adv-x="469" 
d="M157 -9l5 -5q-17 0 -35 6q-19 6 -33 19t-25 36q-10 21 -10 57v211q0 25 -1 33q-1 11 -6 19q-4 7 -13 10t-24 6v15l161 87v-395q0 -32 9 -47t23 -15q18 0 41 21q20 18 51 53v215q0 25 -1 33q-1 11 -6 19q-4 7 -13 10t-24 6v15l161 87v-372v-48q0 -19 3 -29t9 -16
q5 -5 18 -10v-13h-151v81q-36 -39 -67 -64t-72 -25zM197 581l1 -2q-18 10 -31 26q-12 15 -12 36q0 19 11 32q10 12 32 12q20 0 32 -12t29 -38l74 -116l-11 -10z" />
    <glyph glyph-name="uacute" unicode="&#xfa;" horiz-adv-x="469" 
d="M157 -9l5 -5q-17 0 -35 6q-19 6 -33 19t-25 36q-10 21 -10 57v211q0 25 -1 33q-1 11 -6 19q-4 7 -13 10t-24 6v15l161 87v-395q0 -32 9 -47t23 -15q18 0 41 21q20 18 51 53v215q0 25 -1 33q-1 11 -6 19q-4 7 -13 10t-24 6v15l161 87v-372v-48q0 -19 3 -29t9 -16
q5 -5 18 -10v-13h-151v81q-36 -39 -67 -64t-72 -25zM184 519l75 116q17 26 29 38t32 12q22 0 32 -12q11 -13 11 -31q0 -21 -12 -36t-31 -25l-125 -72z" />
    <glyph glyph-name="ucircumflex" unicode="&#xfb;" horiz-adv-x="469" 
d="M157 -9l5 -5q-17 0 -35 6q-19 6 -33 19t-25 36q-10 21 -10 57v211q0 25 -1 33q-1 11 -6 19q-4 7 -13 10t-24 6v15l161 87v-395q0 -32 9 -47t23 -15q18 0 41 21q20 18 51 53v215q0 25 -1 33q-1 11 -6 19q-4 7 -13 10t-24 6v15l161 87v-372v-48q0 -19 3 -29t9 -16
q5 -5 18 -10v-13h-151v81q-36 -39 -67 -64t-72 -25zM259 692l118 -175l-11 -9l-107 64l-107 -64l-11 9z" />
    <glyph glyph-name="udieresis" unicode="&#xfc;" horiz-adv-x="469" 
d="M157 -9l5 -5q-17 0 -35 6q-19 6 -33 19t-25 36q-10 21 -10 57v211q0 25 -1 33q-1 11 -6 19q-4 7 -13 10t-24 6v15l161 87v-395q0 -32 9 -47t23 -15q18 0 41 21q20 18 51 53v215q0 25 -1 33q-1 11 -6 19q-4 7 -13 10t-24 6v15l161 87v-372v-48q0 -19 3 -29t9 -16
q5 -5 18 -10v-13h-151v81q-36 -39 -67 -64t-72 -25zM344 538v-1q-28 0 -46 18t-18 47q0 26 18 44t46 18q26 0 44 -18t18 -43q0 -29 -18 -47t-44 -18zM174 537v-1q-26 0 -44 18t-18 47q0 26 18 44t44 18q28 0 46 -18t18 -43q0 -29 -18 -47t-46 -18z" />
    <glyph glyph-name="yacute" unicode="&#xfd;" horiz-adv-x="420" 
d="M79 -165l2 -1q-32 0 -48 14q-15 14 -15 35t11 30t26 9q13 0 23 -5q12 -6 17 -10t15 -10q8 -5 20 -5q8 0 15 3q9 4 17 13q10 12 20 30t24 53l-144 370q-17 41 -21 52q-9 22 -13 30q-7 12 -10 15q-4 4 -12 7v13h190v-13q-10 -1 -18 -6t-9 -15q-1 -9 2 -30q3 -20 15 -51
l76 -215l67 191q13 39 18 63q5 25 2 37q-3 13 -12 18q-9 4 -23 6v13h97v-13q-7 -1 -13 -6t-12 -18q-7 -16 -15 -37l-24 -64l-125 -353q-16 -43 -33 -72q-15 -26 -35 -46q-17 -17 -36 -25q-17 -7 -39 -7zM179 523l75 116q17 25 29 38q12 12 32 12q21 0 32 -12q11 -13 11 -31
q0 -21 -12 -36t-31 -25l-125 -72z" />
    <glyph glyph-name="thorn" unicode="&#xfe;" horiz-adv-x="491" 
d="M28 -147l2 2q12 5 19 10q8 7 11 16q3 11 3 29v48v651q0 29 -1 38q-2 13 -6 21q-5 8 -12 11q-9 4 -21 5v14l159 85v-378q30 35 57 57q28 23 68 23q24 0 52 -12t52 -39q23 -26 40 -70q16 -42 16 -108q0 -63 -16 -111q-17 -49 -45 -84q-28 -33 -68 -52q-39 -18 -87 -18
q-20 0 -39 8q-18 7 -30 15v-58v-48q0 -18 3 -29q3 -9 11 -16q7 -5 19 -10v-13h-187v13zM274 457l-2 -1q-21 0 -41 -19q-23 -21 -50 -54v-348q13 -11 28 -18t39 -7q47 0 71 58t24 171q0 116 -18 167t-51 51z" />
    <glyph glyph-name="ydieresis" unicode="&#xff;" horiz-adv-x="420" 
d="M79 -165l2 -1q-32 0 -48 14q-15 14 -15 35t11 30t26 9q13 0 23 -5q12 -6 17 -10t15 -10q8 -5 20 -5q8 0 15 3q9 4 17 13q10 12 20 30t24 53l-144 370q-17 41 -21 52q-9 22 -13 30q-7 12 -10 15q-4 4 -12 7v13h190v-13q-10 -1 -18 -6t-9 -15q-1 -9 2 -30q3 -20 15 -51
l76 -215l67 191q13 39 18 63q5 25 2 37q-3 13 -12 18q-9 4 -23 6v13h97v-13q-7 -1 -13 -6t-12 -18q-7 -16 -15 -37l-24 -64l-125 -353q-16 -43 -33 -72q-15 -26 -35 -46q-17 -17 -36 -25q-17 -7 -39 -7zM327 542v-1q-28 0 -46 18t-18 47q0 26 18 44t46 18q26 0 44 -18
t18 -43q0 -29 -18 -47t-44 -18zM157 541v-1q-26 0 -44 18t-18 47q0 26 18 44t44 18q28 0 46 -18t18 -43q0 -29 -18 -47t-46 -18z" />
    <glyph glyph-name="Amacron" unicode="&#x100;" 
d="M12 13v-4q9 4 18 11q8 6 15 21q7 14 15 38q8 23 18 60l139 496l-11 37q-11 34 -23 47q-11 11 -27 16v13h153q11 0 14 -4q4 -6 8 -18l176 -601q17 -58 28 -81q12 -26 34 -30v-15h-210v15q23 3 28 20t-6 59l-38 127h-222l-22 -78q-9 -36 -11 -54q-3 -23 1 -37q5 -15 16 -24
q13 -10 34 -14v-13h-127v13zM338 232l-109 369l-104 -369h213zM359 806h-219v53h219v-53z" />
    <glyph glyph-name="amacron" unicode="&#x101;" horiz-adv-x="434" 
d="M138 -10l-7 -7q-48 0 -79 29q-30 28 -30 81q0 35 15 58q14 21 41 37q26 15 57 27q29 11 61 27l2 1l18 9q10 5 17 12q7 8 12 21q5 15 5 36v78q0 37 -14 51t-42 14q-20 0 -33 -15q-12 -14 -25 -44q-6 -20 -16 -30q-11 -11 -33 -11q-20 0 -32 12t-12 29q0 31 39 54
q40 23 111 23q39 0 72 -6t57 -21q23 -15 37 -39q14 -25 14 -60v-238q0 -40 1 -53q2 -22 4 -30q3 -10 9 -13t14 -3t14 3q4 2 10 6l5 -11q-8 -6 -27 -15t-58 -9q-74 0 -86 59l-1 -1q-24 -24 -51 -43q-25 -18 -69 -18zM140 114h-3q0 -97 49 -97q11 0 26 12q11 9 36 32v197
q-7 -13 -21 -19q-13 -6 -30 -15h-2q-31 -16 -43 -40t-12 -70zM298 608v-51h-206v51h206z" />
    <glyph glyph-name="Abreve" unicode="&#x102;" 
d="M12 13v-4q9 4 18 11q8 6 15 21q7 14 15 38q8 23 18 60l139 496l-11 37q-11 34 -23 47q-11 11 -27 16v13h153q11 0 14 -4q4 -6 8 -18l176 -601q17 -58 28 -81q12 -26 34 -30v-15h-210v15q23 3 28 20t-6 59l-38 127h-222l-22 -78q-9 -36 -11 -54q-3 -23 1 -37q5 -15 16 -24
q13 -10 34 -14v-13h-127v13zM338 232l-109 369l-104 -369h213zM250 874l1 -1q36 0 54 9q19 9 29 33h16q0 -55 -26 -87t-74 -32q-47 0 -74 32t-26 89h16q10 -23 30 -33q19 -10 54 -10z" />
    <glyph glyph-name="abreve" unicode="&#x103;" horiz-adv-x="434" 
d="M138 -10l-7 -7q-48 0 -79 29q-30 28 -30 81q0 35 15 58q14 21 41 37q26 15 57 27q29 11 61 27l2 1l18 9q10 5 17 12q7 8 12 21q5 15 5 36v78q0 37 -14 51t-42 14q-20 0 -33 -15q-12 -14 -25 -44q-6 -20 -16 -30q-11 -11 -33 -11q-20 0 -32 12t-12 29q0 31 39 54
q40 23 111 23q39 0 72 -6t57 -21q23 -15 37 -39q14 -25 14 -60v-238q0 -40 1 -53q2 -22 4 -30q3 -10 9 -13t14 -3t14 3q4 2 10 6l5 -11q-8 -6 -27 -15t-58 -9q-74 0 -86 59l-1 -1q-24 -24 -51 -43q-25 -18 -69 -18zM140 114h-3q0 -97 49 -97q11 0 26 12q11 9 36 32v197
q-7 -13 -21 -19q-13 -6 -30 -15h-2q-31 -16 -43 -40t-12 -70zM196 599l-1 -2q37 0 53 15t24 32h16q1 -21 -5 -43t-18 -38q-12 -17 -30 -27q-17 -10 -41 -10q-23 0 -42 11q-18 11 -30 27t-18 38q-6 20 -4 44h16q6 -17 24 -32t56 -15z" />
    <glyph glyph-name="Aogonek" unicode="&#x104;" 
d="M12 13l-1 -8q9 4 18 11q7 6 15 21q7 14 15 38q7 23 18 60l139 496l-11 37q-11 34 -23 47q-11 11 -27 16v13h153q11 0 14 -4q4 -6 8 -18l176 -601q17 -58 28 -81q12 -26 34 -30v-15h-111q-39 0 -54 -26q-15 -25 -15 -60q0 -23 10 -36t30 -13q10 0 18 5q5 3 15 11l9 -10
q-1 -1 -5 -4.5t-6 -5.5q-6 -6 -18 -12q-15 -7 -28 -11q-15 -4 -39 -4q-42 0 -69 18t-27 47q0 20 11 39q10 16 29 31q18 14 42 24q21 9 48 16l-64 216h-223l-22 -78q-9 -36 -11 -54q-3 -23 1 -37q5 -15 16 -24q13 -10 34 -14v-13h-127v13zM338 228l-110 370l-104 -370h214z
" />
    <glyph glyph-name="aogonek" unicode="&#x105;" horiz-adv-x="434" 
d="M138 -10l-5 -10q-48 0 -79 29q-30 29 -30 81q0 35 15 58q14 21 41 37q26 15 57 27q29 11 61 27l2 1l18 9q10 5 17 12t12 21q5 15 5 36v78q0 37 -14 51t-42 14q-20 0 -33 -15q-12 -14 -25 -44q-6 -20 -16 -30q-11 -11 -33 -11q-20 0 -32 12t-12 29q0 32 39 54
q40 23 111 23q39 0 72 -6t57 -21q23 -15 37 -39q14 -25 14 -60v-238q0 -40 1 -53q2 -22 4 -30q3 -10 9 -13t14 -3t14 3q4 2 10 6l5 -11q-4 -2 -7 -4l-12 -7q-6 -5 -15 -12q-11 -9 -17 -19q-9 -14 -14 -27q-6 -15 -6 -36q0 -49 40 -49q10 0 17 5q4 3 14 11l8 -10
q-2 -2 -12 -10q-8 -6 -18 -12q-12 -7 -27 -11t-39 -4q-17 0 -37 5q-16 4 -31 14q-14 9 -21 21q-8 13 -8 27q0 18 9 33t24 27q16 13 34 21q20 9 39 15q-1 1 -6 1h-6q-34 0 -55 15t-27 44l-1 -1q-24 -24 -51 -43q-25 -18 -69 -18zM142 111h-3q0 -97 49 -97q11 0 26 12
q11 9 36 32v197q-7 -13 -21 -19q-13 -6 -30 -15h-2q-31 -16 -43 -40t-12 -70z" />
    <glyph glyph-name="Cacute" unicode="&#x106;" horiz-adv-x="555" 
d="M340 -15v-3q-55 0 -110 23q-52 22 -97 71q-43 47 -70 123q-27 75 -27 180q0 102 27 174q27 73 69 119q41 46 93 67q51 21 97 21q29 0 48 -4q24 -5 36 -10q5 -2 29 -10q12 -4 27 -4q27 0 33 27h16v-184h-16q-32 92 -77 131t-94 39q-29 0 -54 -19q-26 -20 -45 -61
q-19 -42 -30 -110q-11 -71 -11 -165q0 -103 14 -178q13 -71 39 -115q25 -43 60 -63q34 -19 75 -19t78 20q36 20 62 50l12 -11q-12 -15 -27 -29q-18 -16 -39 -29t-52 -22q-30 -9 -66 -9zM229 801l112 86q15 12 27 17q14 6 28 6q20 0 32 -13t12 -30q0 -20 -14 -37
q-13 -16 -48 -22l-144 -20z" />
    <glyph glyph-name="cacute" unicode="&#x107;" horiz-adv-x="399" 
d="M241 -8l-5 -8q-44 0 -82 16q-37 16 -67 47q-28 30 -45 74q-16 42 -16 99q0 62 20 111q20 48 51 81t67 49q37 17 68 17q58 0 96 -21t38 -58q0 -18 -12 -27t-30 -9q-28 0 -42 15q-13 15 -21 47q-5 23 -9 32t-18 9q-38 0 -59 -51t-21 -157q0 -119 31 -178q31 -60 82 -60
q37 0 59 13t42 33l12 -12q-21 -22 -54 -42q-34 -20 -85 -20zM150 516l75 116q16 26 29 38q12 12 32 12q22 0 32 -12q11 -13 11 -31q0 -21 -12 -36t-31 -25l-125 -72z" />
    <glyph glyph-name="Ccircumflex" unicode="&#x108;" horiz-adv-x="555" 
d="M340 -15v-3q-55 0 -110 23q-52 22 -97 71q-43 47 -70 123q-27 75 -27 180q0 102 27 174q27 73 69 119q41 46 93 67q51 21 97 21q29 0 48 -4q24 -5 36 -10q5 -2 29 -10q12 -4 27 -4q27 0 33 27h16v-184h-16q-32 92 -77 131t-94 39q-29 0 -54 -19q-26 -20 -45 -61
q-19 -42 -30 -110q-11 -71 -11 -165q0 -103 14 -178q13 -71 39 -115q25 -43 60 -63q34 -19 75 -19t78 20q36 20 62 50l12 -11q-12 -15 -27 -29q-18 -16 -39 -29t-52 -22q-30 -9 -66 -9zM323 924l131 -126l-5 -13l-126 42l-126 -42l-5 13z" />
    <glyph glyph-name="ccircumflex" unicode="&#x109;" horiz-adv-x="399" 
d="M241 -8l-5 -8q-44 0 -82 16q-37 16 -67 47q-28 30 -45 74q-16 42 -16 99q0 62 20 111q20 48 51 81t67 49q37 17 68 17q58 0 96 -21t38 -58q0 -18 -12 -27t-30 -9q-28 0 -42 15q-13 15 -21 47q-5 23 -9 32t-18 9q-38 0 -59 -51t-21 -157q0 -119 31 -178q31 -60 82 -60
q37 0 59 13t42 33l12 -12q-21 -22 -54 -42q-34 -20 -85 -20zM224 689l118 -175l-11 -9l-107 64l-107 -64l-11 9z" />
    <glyph glyph-name="Cdotaccent" unicode="&#x10a;" horiz-adv-x="555" 
d="M340 -15v-3q-55 0 -110 23q-52 22 -97 71q-43 47 -70 123q-27 75 -27 180q0 102 27 174q27 73 69 119q41 46 93 67q51 21 97 21q29 0 48 -4q24 -5 36 -10q5 -2 29 -10q12 -4 27 -4q27 0 33 27h16v-184h-16q-32 92 -77 131t-94 39q-29 0 -54 -19q-26 -20 -45 -61
q-19 -42 -30 -110q-11 -71 -11 -165q0 -103 14 -178q13 -71 39 -115q25 -43 60 -63q34 -19 75 -19t78 20q36 20 62 50l12 -11q-12 -15 -27 -29q-18 -16 -39 -29t-52 -22q-30 -9 -66 -9zM323 791l-2 2q-28 0 -48 20q-19 19 -19 48q0 27 20 47t48 20q29 0 48 -19
q20 -20 20 -48q0 -29 -19 -49q-19 -21 -48 -21z" />
    <glyph glyph-name="cdotaccent" unicode="&#x10b;" horiz-adv-x="399" 
d="M241 -8l-5 -8q-44 0 -82 16q-37 16 -67 47q-28 30 -45 74q-16 42 -16 99q0 62 20 111q20 48 51 81t67 49q37 17 68 17q58 0 96 -21t38 -58q0 -18 -12 -27t-30 -9q-28 0 -42 15q-13 15 -21 47q-5 23 -9 32t-18 9q-38 0 -59 -51t-21 -157q0 -119 31 -178q31 -60 82 -60
q37 0 59 13t42 33l12 -12q-21 -22 -54 -42q-34 -20 -85 -20zM225 533l-2 -3q-28 0 -48 20q-19 19 -19 48q0 28 20 48t48 20q29 0 48 -19q20 -20 20 -46q0 -29 -19 -48q-20 -20 -48 -20z" />
    <glyph glyph-name="Ccaron" unicode="&#x10c;" horiz-adv-x="555" 
d="M340 -15v-3q-55 0 -110 23q-52 22 -97 71q-43 47 -70 123q-27 75 -27 180q0 102 27 174q27 73 69 119q41 46 93 67q51 21 97 21q29 0 48 -4q24 -5 36 -10q5 -2 29 -10q12 -4 27 -4q27 0 33 27h16v-184h-16q-32 92 -77 131t-94 39q-29 0 -54 -19q-26 -20 -45 -61
q-19 -42 -30 -110q-11 -71 -11 -165q0 -103 14 -178q13 -71 39 -115q25 -43 60 -63q34 -19 75 -19t78 20q36 20 62 50l12 -11q-12 -15 -27 -29q-18 -16 -39 -29t-52 -22q-30 -9 -66 -9zM197 934l126 -42l126 42l5 -13l-131 -126l-131 126z" />
    <glyph glyph-name="ccaron" unicode="&#x10d;" horiz-adv-x="399" 
d="M241 -8l-5 -8q-44 0 -82 16q-37 16 -67 47q-28 30 -45 74q-16 42 -16 99q0 62 20 111q20 48 51 81t67 49q37 17 68 17q58 0 96 -21t38 -58q0 -18 -12 -27t-30 -9q-28 0 -42 15q-13 15 -21 47q-5 23 -9 32t-18 9q-38 0 -59 -51t-21 -157q0 -119 31 -178q31 -60 82 -60
q37 0 59 13t42 33l12 -12q-21 -22 -54 -42q-34 -20 -85 -20zM117 696l107 -64l107 64l11 -9l-118 -174l-118 174z" />
    <glyph glyph-name="Dcaron" unicode="&#x10e;" horiz-adv-x="640" 
d="M26 13v-1q16 4 25 12q9 7 13 25t6 51q1 22 1 91v366q0 69 -1 91q-2 33 -6 51t-13 25q-9 8 -25 12v13h217q77 0 140 -22q66 -23 113 -67t76 -114q28 -68 28 -162q0 -89 -25 -160t-72 -121q-46 -49 -112 -76t-148 -27h-217v13zM207 733l-2 -717h36q53 0 92 18t65 62t39 114
q13 68 13 176q0 107 -17 177q-17 67 -45 105t-66 51q-39 14 -79 14h-36zM141 938l126 -42l126 42l5 -13l-131 -126l-131 126z" />
    <glyph glyph-name="dcaron" unicode="&#x10f;" horiz-adv-x="490" 
d="M186 -9l4 -1q-28 0 -58 14q-28 14 -51 42t-36 72q-13 42 -13 104q0 66 18 116q17 48 47 82q28 32 66 49q39 17 78 17q25 0 44 -9q21 -10 33 -19v150q0 32 -1 42q-1 14 -6 22t-12 9t-23 3v15l160 84v-666v-48q0 -19 3 -29q3 -9 11 -16q6 -5 21 -10v-13h-155v76l-2 -2
q-33 -37 -61 -60q-30 -24 -67 -24zM157 231l-3 -1q0 -109 18 -160t51 -51q18 0 38 19q24 23 56 57l2 2v338q-14 12 -33 22q-18 9 -42 9q-39 0 -63 -57t-24 -178zM481 557l4 138q1 40 14 57q12 17 34 17q19 0 30 -12q11 -13 11 -32q0 -12 -4 -23q-6 -16 -10 -23l-67 -125z
" />
    <glyph glyph-name="Dcroat" unicode="&#x110;" horiz-adv-x="639" 
d="M25 13l-2 1q16 4 25 12q9 7 13 25q5 18 6 51q1 22 1 91v191h-74v16h74v-16h137v-368h36q53 0 92 18t65 62t39 114q13 68 13 176q0 107 -17 177q-17 67 -45 105t-66 51q-39 14 -79 14h-36v-335h115v-16h-115v16h-137v159q0 69 -1 91q-1 33 -6 51q-4 18 -13 25q-9 8 -25 12
v13h217q77 0 140 -22q66 -23 113 -67t76 -114q28 -68 28 -162q0 -89 -25 -160t-72 -121q-46 -49 -112 -76t-148 -27h-217v13z" />
    <glyph glyph-name="dcroat" unicode="&#x111;" horiz-adv-x="490" 
d="M198 580h304v-16h-304v16zM186 -9l4 -1q-28 0 -58 14q-28 14 -51 42t-36 72q-13 42 -13 104q0 66 18 116q17 48 47 82q28 32 66 49q39 17 78 17q25 0 44 -9q21 -10 33 -19v150q0 32 -1 42q-1 14 -6 22t-12 9t-23 3v15l160 84v-666v-48q0 -19 3 -29q3 -9 11 -16
q6 -5 21 -10v-13h-155v76l-2 -2q-33 -37 -61 -60q-30 -24 -67 -24zM157 231l-3 -1q0 -109 18 -160t51 -51q18 0 38 19q24 23 56 57l2 2v338q-14 12 -33 22q-18 9 -42 9q-39 0 -63 -57t-24 -178z" />
    <glyph glyph-name="Emacron" unicode="&#x112;" horiz-adv-x="520" 
d="M26 13l1 -2q16 4 25 12q9 7 13 25q5 18 6 51q1 22 1 91v366q0 69 -1 91q-1 33 -6 51q-4 18 -13 25q-9 8 -25 12v13h403q11 0 15 -4q5 -5 9 -25l20 -110h-18q-13 37 -29 62q-15 25 -39 38q-23 13 -58 19q-34 6 -87 6h-35v-306q37 1 60 8q20 6 33 17q11 10 16 26q5 15 9 33
h14v-185h-14q-4 18 -9 33q-5 16 -16 26q-13 11 -33 17q-23 7 -60 8v-396h45q59 0 96 6q38 6 62 21t39 42t27 70h18l-14 -123q-1 -22 -8 -27q-5 -4 -22 -4h-425v13zM362 808h-219v53h219v-53z" />
    <glyph glyph-name="emacron" unicode="&#x113;" horiz-adv-x="418" 
d="M242 -8l4 -6q-42 0 -82 14t-69 43q-30 30 -48 77q-18 46 -18 114q0 62 20 110q19 47 50 77q30 30 63 45t60 15q45 0 75 -13q32 -14 51 -37q19 -24 30 -56q10 -31 12 -68h-239q-1 -8 -1 -25v-27q0 -51 6 -94q6 -45 19 -75q13 -31 36 -49t57 -18q39 0 59 10q24 12 41 25
l9 -13q-4 -3 -11.5 -8.5t-10.5 -8.5q-11 -8 -28 -16t-37 -12q-19 -4 -48 -4zM223 463l-1 -1q-13 0 -25 -6t-21 -23q-9 -16 -15 -44q-6 -27 -9 -68h125q-1 32 -3 61t-7 45q-6 19 -16 27q-11 9 -28 9zM331 608v-51h-206v51h206z" />
    <glyph glyph-name="Ebreve" unicode="&#x114;" horiz-adv-x="520" 
d="M26 13l1 -2q16 4 25 12q9 7 13 25q5 18 6 51q1 22 1 91v366q0 69 -1 91q-1 33 -6 51q-4 18 -13 25q-9 8 -25 12v13h403q11 0 15 -4q5 -5 9 -25l20 -110h-18q-13 37 -29 62q-15 25 -39 38q-23 13 -58 19q-34 6 -87 6h-35v-306q37 1 60 8q20 6 33 17q11 10 16 26q5 15 9 33
h14v-185h-14q-4 18 -9 33q-5 16 -16 26q-13 11 -33 17q-23 7 -60 8v-396h45q59 0 96 6q38 6 62 21t39 42t27 70h18l-14 -123q-1 -22 -8 -27q-5 -4 -22 -4h-425v13zM253 876l1 -1q36 0 54 9q19 9 29 33h16q0 -55 -26 -87t-74 -32q-47 0 -74 32t-26 89h16q11 -23 30 -33
t54 -10z" />
    <glyph glyph-name="ebreve" unicode="&#x115;" horiz-adv-x="418" 
d="M242 -8l4 -6q-42 0 -82 14t-69 43q-30 30 -48 77q-18 46 -18 114q0 62 20 110q19 47 50 77q30 30 63 45t60 15q45 0 75 -13q32 -14 51 -37q19 -24 30 -56q10 -31 12 -68h-239q-1 -8 -1 -25v-27q0 -51 6 -94q6 -45 19 -75q13 -31 36 -49t57 -18q39 0 59 10q24 12 41 25
l9 -13q-4 -3 -11.5 -8.5t-10.5 -8.5q-11 -8 -28 -16t-37 -12q-19 -4 -48 -4zM223 463l-1 -1q-13 0 -25 -6t-21 -23q-9 -16 -15 -44q-6 -27 -9 -68h125q-1 32 -3 61t-7 45q-6 19 -16 27q-11 9 -28 9zM229 599l-1 -2q36 0 53 15q16 15 24 32h16q1 -21 -5 -43t-18 -38
q-12 -17 -30 -27q-17 -10 -41 -10q-23 0 -42 11q-18 11 -30 27t-18 38q-6 20 -4 44h16q6 -17 24 -32t56 -15z" />
    <glyph glyph-name="Edotaccent" unicode="&#x116;" horiz-adv-x="520" 
d="M26 13l1 -2q16 4 25 12q9 7 13 25q5 18 6 51q1 22 1 91v366q0 69 -1 91q-1 33 -6 51q-4 18 -13 25q-9 8 -25 12v13h403q11 0 15 -4q5 -5 9 -25l20 -110h-18q-13 37 -29 62q-15 25 -39 38q-23 13 -58 19q-34 6 -87 6h-35v-306q37 1 60 8q20 6 33 17q11 10 16 26q5 15 9 33
h14v-185h-14q-4 18 -9 33q-5 16 -16 26q-13 11 -33 17q-23 7 -60 8v-396h45q59 0 96 6q38 6 62 21t39 42t27 70h18l-14 -123q-1 -22 -8 -27q-5 -4 -22 -4h-425v13zM253 792l-2 2q-28 0 -48 20q-19 19 -19 48q0 27 20 47t48 20q29 0 48 -19q20 -20 20 -48q0 -29 -19 -49
q-19 -21 -48 -21z" />
    <glyph glyph-name="edotaccent" unicode="&#x117;" horiz-adv-x="418" 
d="M242 -8l4 -6q-42 0 -82 14t-69 43q-30 30 -48 77q-18 46 -18 114q0 62 20 110q19 47 50 77q30 30 63 45t60 15q45 0 75 -13q32 -14 51 -37q19 -24 30 -56q10 -31 12 -68h-239q-1 -8 -1 -25v-27q0 -51 6 -94q6 -45 19 -75q13 -31 36 -49t57 -18q39 0 59 10q24 12 41 25
l9 -13q-4 -3 -11.5 -8.5t-10.5 -8.5q-11 -8 -28 -16t-37 -12q-19 -4 -48 -4zM223 463l-1 -1q-13 0 -25 -6t-21 -23q-9 -16 -15 -44q-6 -27 -9 -68h125q-1 32 -3 61t-7 45q-6 19 -16 27q-11 9 -28 9zM228 534l-2 -3q-28 0 -48 20q-19 19 -19 48q0 28 20 48t48 20q29 0 48 -19
q20 -20 20 -46q0 -29 -19 -48q-20 -20 -48 -20z" />
    <glyph glyph-name="Eogonek" unicode="&#x118;" horiz-adv-x="520" 
d="M26 13l1 -2q16 4 25 12q9 7 13 25q5 18 6 51q1 22 1 91v366q0 69 -1 91q-1 33 -6 51q-4 18 -13 25q-9 8 -25 12v13h403q11 0 15 -4q5 -5 9 -25l20 -110h-18q-13 37 -29 62q-15 25 -39 38q-23 13 -58 19q-34 6 -87 6h-35v-306q37 1 60 8q20 6 33 17q11 10 16 26q5 15 9 33
h14v-185h-14q-4 18 -9 33q-5 16 -16 26q-13 11 -33 17q-23 7 -60 8v-396h45q59 0 96 6q38 6 62 21t39 42t27 70h18l-14 -123q-1 -22 -8 -27q-5 -4 -22 -4h-425v13zM337 -172l-3 -2q-38 0 -66 18t-28 47q0 23 13 39t32 30q16 12 39 22q25 11 37 14h24q-10 -12 -22 -34
q-12 -21 -12 -54q0 -22 11 -36q10 -13 29 -13q10 0 17 5q4 3 14 11l9 -10q-1 -1 -5 -4.5t-6 -5.5q-5 -5 -17 -12t-27 -11t-39 -4z" />
    <glyph glyph-name="eogonek" unicode="&#x119;" horiz-adv-x="418" 
d="M352 -131l5 -10q-2 -2 -12 -10q-7 -6 -18 -12q-12 -7 -27 -11t-39 -4q-17 0 -37 5q-16 4 -31 14q-13 9 -21 21q-8 13 -8 27q0 19 9 34t24 27t33 21q17 8 35 15h-23q-42 0 -82 14t-69 43q-30 30 -48 77q-18 46 -18 114q0 62 20 110q20 47 50 77t63 45t60 15q45 0 75 -13
q32 -14 51 -37q19 -24 30 -56q10 -31 12 -68h-239q-1 -8 -1 -25v-27q0 -51 6 -94q6 -45 19 -75q13 -31 36 -49t57 -18q39 0 59 10q24 12 41 25l9 -13q-7 -7 -16 -13q-16 -11 -22 -14q-6 -4 -20 -14q-9 -7 -21 -20q-9 -11 -16 -29q-6 -17 -6 -39t11 -36q10 -13 29 -13
q10 0 17 5q4 3 14 11zM224 459l-1 -1q-13 0 -25 -6t-21 -23q-9 -16 -15 -44q-6 -27 -9 -68h125q-1 32 -3 61t-7 45q-6 19 -16 27q-10 9 -28 9z" />
    <glyph glyph-name="Ecaron" unicode="&#x11a;" horiz-adv-x="520" 
d="M26 13l1 -2q16 4 25 12q9 7 13 25q5 18 6 51q1 22 1 91v366q0 69 -1 91q-1 33 -6 51q-4 18 -13 25q-9 8 -25 12v13h403q11 0 15 -4q5 -5 9 -25l20 -110h-18q-13 37 -29 62q-15 25 -39 38q-23 13 -58 19q-34 6 -87 6h-35v-306q37 1 60 8q20 6 33 17q11 10 16 26q5 15 9 33
h14v-185h-14q-4 18 -9 33q-5 16 -16 26q-13 11 -33 17q-23 7 -60 8v-396h45q59 0 96 6q38 6 62 21t39 42t27 70h18l-14 -123q-1 -22 -8 -27q-5 -4 -22 -4h-425v13zM127 935l126 -42l126 42l5 -13l-131 -126l-131 126z" />
    <glyph glyph-name="ecaron" unicode="&#x11b;" horiz-adv-x="418" 
d="M242 -8l4 -6q-42 0 -82 14t-69 43q-30 30 -48 77q-18 46 -18 114q0 62 20 110q19 47 50 77q30 30 63 45t60 15q45 0 75 -13q32 -14 51 -37q19 -24 30 -56q10 -31 12 -68h-239q-1 -8 -1 -25v-27q0 -51 6 -94q6 -45 19 -75q13 -31 36 -49t57 -18q39 0 59 10q24 12 41 25
l9 -13q-4 -3 -11.5 -8.5t-10.5 -8.5q-11 -8 -28 -16t-37 -12q-19 -4 -48 -4zM223 463l-1 -1q-13 0 -25 -6t-21 -23q-9 -16 -15 -44q-6 -27 -9 -68h125q-1 32 -3 61t-7 45q-6 19 -16 27q-11 9 -28 9zM121 697l107 -64l107 64l11 -9l-118 -174l-118 174z" />
    <glyph glyph-name="Gcircumflex" unicode="&#x11c;" horiz-adv-x="638" 
d="M346 -15l-2 -6q-66 0 -124 29q-57 28 -99 81q-42 52 -66 125q-24 72 -24 161q0 97 30 169t75 120t98 71q54 23 99 23q32 0 51 -4q25 -5 39 -10q3 -1 33 -10q13 -4 33 -4t27 25h15v-184h-15q-22 83 -68 128q-45 45 -113 45q-35 0 -63 -19q-29 -20 -48 -61t-31 -109
q-12 -67 -12 -165q0 -204 39 -297t125 -93q38 0 65 37t27 121v28q0 44 -3 72t-9 45t-16 24q-9 7 -24 10v13h231v-13q-15 -2 -23 -10q-9 -9 -15 -31t-9 -65q-3 -42 -3 -112v-36q-20 -22 -49 -39q-28 -17 -61 -31q-32 -14 -61 -21q-28 -7 -49 -7zM338 921l131 -126l-5 -13
l-126 42l-126 -42l-5 13z" />
    <glyph glyph-name="gcircumflex" unicode="&#x11d;" horiz-adv-x="429" 
d="M199 172l-6 -4q-22 0 -41 4q-22 5 -41 12l-11 -9q-14 -13 -18 -19q-5 -8 -5 -15t6 -13t35 -12l145 -20q40 -6 69 -17q27 -10 44 -26q17 -15 23 -35t6 -42q0 -37 -16 -63q-17 -27 -45 -45t-66 -27t-81 -9q-37 0 -71 6t-63 18q-28 12 -46 30t-18 44q0 14 8 27q8 12 20 23
q13 11 29 20q11 6 33 16q-34 12 -48 32t-14 45q0 29 18 52q17 21 41 42l9 7q-31 16 -54 48t-21 81q0 41 17 72t42 50q26 20 56 29t59 9q17 0 42 -5q23 -5 44 -15q25 22 50 36t42 14q22 0 35 -11q12 -10 12 -30q0 -18 -10 -28t-21 -10t-20 6q-6 4 -16 12q-5 4 -13 12
q-6 6 -12 6q-9 0 -17 -3q-10 -4 -15 -7q32 -20 54 -52t22 -82q0 -41 -17 -72q-16 -30 -42 -48q-27 -19 -55 -26q-32 -8 -58 -8zM193 184q11 0 21 7q11 8 20 24q9 17 15 42t6 65q0 76 -20 111q-19 34 -44 34q-26 0 -45 -34t-19 -111q0 -40 6 -65t15 -42t21 -24q11 -7 24 -7z
M68 -69l-2 1q0 -35 33 -61q32 -25 98 -25q73 0 112 24t39 60q0 13 -4 21q-4 9 -16 16q-12 8 -31 12q-19 5 -51 9l-104 15l-18 3q-6 1 -16 3q-22 -13 -31 -33t-9 -45zM189 694l118 -175l-11 -9l-107 64l-107 -64l-11 9z" />
    <glyph glyph-name="Gbreve" unicode="&#x11e;" horiz-adv-x="638" 
d="M346 -15l-2 -6q-66 0 -124 29q-57 28 -99 81q-42 52 -66 125q-24 72 -24 161q0 97 30 169t75 120t98 71q54 23 99 23q32 0 51 -4q25 -5 39 -10q3 -1 33 -10q13 -4 33 -4t27 25h15v-184h-15q-22 83 -68 128q-45 45 -113 45q-35 0 -63 -19q-29 -20 -48 -61t-31 -109
q-12 -67 -12 -165q0 -204 39 -297t125 -93q38 0 65 37t27 121v28q0 44 -3 72t-9 45t-16 24q-9 7 -24 10v13h231v-13q-15 -2 -23 -10q-9 -9 -15 -31t-9 -65q-3 -42 -3 -112v-36q-20 -22 -49 -39q-28 -17 -61 -31q-32 -14 -61 -21q-28 -7 -49 -7zM339 872l1 -1q36 0 54 9
q19 9 29 33h16q0 -55 -26 -87t-74 -32q-47 0 -74 32t-26 89h16q11 -23 30 -33t54 -10z" />
    <glyph glyph-name="gbreve" unicode="&#x11f;" horiz-adv-x="429" 
d="M199 172l-6 -4q-22 0 -41 4q-22 5 -41 12l-11 -9q-14 -13 -18 -19q-5 -8 -5 -15t6 -13t35 -12l145 -20q40 -6 69 -17q27 -10 44 -26q17 -15 23 -35t6 -42q0 -37 -16 -63q-17 -27 -45 -45t-66 -27t-81 -9q-37 0 -71 6t-63 18q-28 12 -46 30t-18 44q0 14 8 27q8 12 20 23
q13 11 29 20q11 6 33 16q-34 12 -48 32t-14 45q0 29 18 52q17 21 41 42l9 7q-31 16 -54 48t-21 81q0 41 17 72t42 50q26 20 56 29t59 9q17 0 42 -5q23 -5 44 -15q25 22 50 36t42 14q22 0 35 -11q12 -10 12 -30q0 -18 -10 -28t-21 -10t-20 6q-6 4 -16 12q-5 4 -13 12
q-6 6 -12 6q-9 0 -17 -3q-10 -4 -15 -7q32 -20 54 -52t22 -82q0 -41 -17 -72q-16 -30 -42 -48q-27 -19 -55 -26q-32 -8 -58 -8zM193 184q11 0 21 7q11 8 20 24q9 17 15 42t6 65q0 76 -20 111q-19 34 -44 34q-26 0 -45 -34t-19 -111q0 -40 6 -65t15 -42t21 -24q11 -7 24 -7z
M68 -69l-2 1q0 -35 33 -61q32 -25 98 -25q73 0 112 24t39 60q0 13 -4 21q-4 9 -16 16q-12 8 -31 12q-19 5 -51 9l-104 15l-18 3q-6 1 -16 3q-22 -13 -31 -33t-9 -45zM190 603l-1 -2q37 0 53 15t24 32h16q1 -21 -5 -43t-18 -38q-12 -17 -30 -27q-17 -10 -41 -10q-23 0 -42 11
q-18 11 -30 27t-18 38q-6 20 -4 44h16q6 -17 24 -32t56 -15z" />
    <glyph glyph-name="Gdotaccent" unicode="&#x120;" horiz-adv-x="638" 
d="M346 -15l-2 -6q-66 0 -124 29q-57 28 -99 81q-42 52 -66 125q-24 72 -24 161q0 97 30 169t75 120t98 71q54 23 99 23q32 0 51 -4q25 -5 39 -10q3 -1 33 -10q13 -4 33 -4t27 25h15v-184h-15q-22 83 -68 128q-45 45 -113 45q-35 0 -63 -19q-29 -20 -48 -61t-31 -109
q-12 -67 -12 -165q0 -204 39 -297t125 -93q38 0 65 37t27 121v28q0 44 -3 72t-9 45t-16 24q-9 7 -24 10v13h231v-13q-15 -2 -23 -10q-9 -9 -15 -31t-9 -65q-3 -42 -3 -112v-36q-20 -22 -49 -39q-28 -17 -61 -31q-32 -14 -61 -21q-28 -7 -49 -7zM339 788l-2 2q-28 0 -48 20
q-19 19 -19 48q0 27 20 47t48 20q29 0 48 -19q20 -20 20 -48q0 -29 -19 -49q-19 -21 -48 -21z" />
    <glyph glyph-name="gdotaccent" unicode="&#x121;" horiz-adv-x="429" 
d="M199 172l-6 -4q-22 0 -41 4q-22 5 -41 12l-11 -9q-14 -13 -18 -19q-5 -8 -5 -15t6 -13t35 -12l145 -20q40 -6 69 -17q27 -10 44 -26q17 -15 23 -35t6 -42q0 -37 -16 -63q-17 -27 -45 -45t-66 -27t-81 -9q-37 0 -71 6t-63 18q-28 12 -46 30t-18 44q0 14 8 27q8 12 20 23
q13 11 29 20q11 6 33 16q-34 12 -48 32t-14 45q0 29 18 52q17 21 41 42l9 7q-31 16 -54 48t-21 81q0 41 17 72t42 50q26 20 56 29t59 9q17 0 42 -5q23 -5 44 -15q25 22 50 36t42 14q22 0 35 -11q12 -10 12 -30q0 -18 -10 -28t-21 -10t-20 6q-6 4 -16 12q-5 4 -13 12
q-6 6 -12 6q-9 0 -17 -3q-10 -4 -15 -7q32 -20 54 -52t22 -82q0 -41 -17 -72q-16 -30 -42 -48q-27 -19 -55 -26q-32 -8 -58 -8zM193 184q11 0 21 7q11 8 20 24q9 17 15 42t6 65q0 76 -20 111q-19 34 -44 34q-26 0 -45 -34t-19 -111q0 -40 6 -65t15 -42t21 -24q11 -7 24 -7z
M68 -69l-2 1q0 -35 33 -61q32 -25 98 -25q73 0 112 24t39 60q0 13 -4 21q-4 9 -16 16q-12 8 -31 12q-19 5 -51 9l-104 15l-18 3q-6 1 -16 3q-22 -13 -31 -33t-9 -45zM189 538l-2 -3q-28 0 -48 20q-19 19 -19 48q0 28 20 48t48 20q29 0 48 -19q20 -20 20 -46q0 -29 -19 -48
q-20 -20 -48 -20z" />
    <glyph glyph-name="uni0122" unicode="&#x122;" horiz-adv-x="638" 
d="M346 -15l-2 -6q-66 0 -124 29q-57 28 -99 81q-42 52 -66 125q-24 72 -24 161q0 97 30 169t75 120t98 71q54 23 99 23q32 0 51 -4q25 -5 39 -10q3 -1 33 -10q13 -4 33 -4t27 25h15v-184h-15q-22 83 -68 128q-45 45 -113 45q-35 0 -63 -19q-29 -20 -48 -61t-31 -109
q-12 -67 -12 -165q0 -204 39 -297t125 -93q38 0 65 37t27 121v28q0 44 -3 72t-9 45t-16 24q-9 7 -24 10v13h231v-13q-15 -2 -23 -10q-9 -9 -15 -31t-9 -65q-3 -42 -3 -112v-36q-20 -22 -49 -39q-28 -17 -61 -31q-32 -14 -61 -21q-28 -7 -49 -7zM369 -123l-5 -3
q-1 -5 -11 -13q-8 -7 -27 -7q-20 0 -36 14q-15 13 -15 38t18 40t41 15q15 0 26 -4q12 -4 23 -14q10 -8 16 -24q6 -15 6 -34q0 -41 -25 -66q-26 -25 -72 -33l-5 12q42 9 57 29q15 19 15 36q0 13 -6 14z" />
    <glyph glyph-name="uni0123" unicode="&#x123;" horiz-adv-x="429" 
d="M199 172l-6 -4q-22 0 -41 4q-22 5 -41 12l-11 -9q-14 -13 -18 -19q-5 -8 -5 -15t6 -13t35 -12l145 -20q40 -6 69 -17q27 -10 44 -26q17 -15 23 -35t6 -42q0 -37 -16 -63q-17 -27 -45 -45t-66 -27t-81 -9q-37 0 -71 6t-63 18q-28 12 -46 30t-18 44q0 14 8 27q8 12 20 23
q13 11 29 20q11 6 33 16q-34 12 -48 32t-14 45q0 29 18 52q17 21 41 42l9 7q-31 16 -54 48t-21 81q0 41 17 72t42 50q26 20 56 29t59 9q17 0 42 -5q23 -5 44 -15q25 22 50 36t42 14q22 0 35 -11q12 -10 12 -30q0 -18 -10 -28t-21 -10t-20 6q-6 4 -16 12q-5 4 -13 12
q-6 6 -12 6q-9 0 -17 -3q-10 -4 -15 -7q32 -20 54 -52t22 -82q0 -41 -17 -72q-16 -30 -42 -48q-27 -19 -55 -26q-32 -8 -58 -8zM193 184q11 0 21 7q11 8 20 24q9 17 15 42t6 65q0 76 -20 111q-19 34 -44 34q-26 0 -45 -34t-19 -111q0 -40 6 -65t15 -42t21 -24q11 -7 24 -7z
M68 -69l-2 1q0 -35 33 -61q32 -25 98 -25q73 0 112 24t39 60q0 13 -4 21q-4 9 -16 16q-12 8 -31 12q-19 5 -51 9l-104 15l-18 3q-6 1 -16 3q-22 -13 -31 -33t-9 -45zM154 622v-1q2 6 11 14q10 8 27 8q21 0 37 -14q15 -13 15 -38t-18 -40t-40 -15q-12 0 -25 5q-10 4 -22 14
q-10 8 -16 24q-6 15 -6 35q0 40 26 66q25 26 72 33l5 -12q-42 -9 -57 -29t-15 -36q0 -12 6 -14z" />
    <glyph glyph-name="Hcircumflex" unicode="&#x124;" horiz-adv-x="647" 
d="M26 13l-2 -4q16 4 25 12q9 7 13 25t6 51q1 22 1 92v366q0 70 -1 92q-2 33 -6 51t-13 25q-9 8 -25 12v13h223v-13q-16 -4 -25 -12q-9 -7 -13 -25q-5 -18 -6 -51q-1 -22 -1 -91v-139h238v139q0 70 -1 92q-1 33 -6 51q-4 18 -13 25q-9 8 -24 12v13h222v-13q-15 -4 -24 -12
q-9 -7 -13 -25q-5 -18 -6 -51q-1 -22 -1 -91v-366q0 -69 1 -91q1 -33 6 -51q4 -17 14 -25q9 -8 24 -12v-13h-222v13q15 4 24 12q10 8 14 25q5 18 6 51q1 22 1 92v211h-238v-211q0 -69 1 -91q1 -33 6 -51q4 -18 13 -25q9 -8 25 -12v-13h-223v13zM321 923l131 -126l-5 -13
l-126 42l-126 -42l-5 13z" />
    <glyph glyph-name="hcircumflex" unicode="&#x125;" horiz-adv-x="490" 
d="M21 13l-4 -1q12 5 19 10q8 7 11 16q3 10 3 29v48v486q0 32 -1 42q-1 14 -6 22t-13 9q-10 2 -25 3v15l163 88v-400l16 16q37 40 71 63t76 23q13 0 33 -5q18 -5 33 -18q14 -13 25 -36q10 -21 10 -57v-250v-48q0 -18 3 -29q3 -10 10 -16q6 -5 21 -10v-13h-191v13q15 5 21 10
q8 6 12 16t6 29q1 12 1 48v284q0 24 -9 35t-23 11q-15 0 -37 -16t-57 -54l-16 -16v-244v-48q0 -17 5 -29q4 -10 12 -16q6 -5 21 -10v-13h-190v13zM257 945l131 -126l-5 -13l-126 42l-126 -42l-5 13z" />
    <glyph glyph-name="Hbar" unicode="&#x126;" horiz-adv-x="637" 
d="M-7 581h651v-16h-651v16zM21 13l-2 -4q16 4 25 12q9 7 13 25q5 18 6 51q1 22 1 92v366q0 70 -1 92q-1 33 -6 51q-4 18 -13 25q-9 8 -25 12v13h223v-13q-16 -4 -25 -12q-9 -7 -13 -25t-6 -51q-1 -22 -1 -91v-139h238v139q0 70 -1 92q-2 33 -6 51t-13 25q-9 8 -24 12v13
h222v-13q-15 -4 -24 -12q-9 -7 -13 -25t-6 -51q-1 -22 -1 -91v-366q0 -69 1 -91q2 -33 6 -51q4 -17 14 -25q9 -8 24 -12v-13h-222v13q15 4 24 12q10 8 14 25q4 18 6 51q1 22 1 92v211h-238v-211q0 -69 1 -91q2 -33 6 -51t13 -25q9 -8 25 -12v-13h-223v13z" />
    <glyph glyph-name="hbar" unicode="&#x127;" horiz-adv-x="489" 
d="M-13 564v16h304v-16h-304zM21 13l-4 -1q12 5 19 10q8 7 11 16q3 10 3 29v48v486q0 32 -1 42q-1 14 -6 22t-13 9q-10 2 -25 3v15l163 88v-400l16 16q37 40 71 63t76 23q13 0 33 -5q18 -5 33 -18q14 -13 25 -36q10 -21 10 -57v-250v-48q0 -18 3 -29q3 -10 10 -16
q6 -5 21 -10v-13h-191v13q15 5 21 10q8 6 12 16t6 29q1 12 1 48v284q0 24 -9 35t-23 11q-15 0 -37 -16t-57 -54l-16 -16v-244v-48q0 -17 5 -29q4 -10 12 -16q6 -5 21 -10v-13h-190v13z" />
    <glyph glyph-name="Itilde" unicode="&#x128;" horiz-adv-x="275" 
d="M26 13v-1q16 4 25 12q9 7 13 25t6 51q1 22 1 91v366q0 70 -1 92q-2 33 -6 51t-13 25q-9 8 -25 12v13h223v-13q-16 -4 -25 -12q-9 -7 -13 -25q-5 -18 -6 -51q-1 -22 -1 -91v-366q0 -69 1 -91q1 -33 6 -51q4 -18 13 -25q9 -8 25 -12v-13h-223v13zM97 888v-4q39 0 54 -1
t42 -1q13 0 27 9q12 8 28 29l12 -4q-9 -50 -28 -79q-20 -30 -48 -30q-22 0 -48 2t-46 2q-14 0 -25 -7t-25 -27l-12 4q13 56 30 82q16 25 39 25z" />
    <glyph glyph-name="itilde" unicode="&#x129;" horiz-adv-x="230" 
d="M20 13l2 1q15 5 21 10q8 6 12 16q5 12 5 29v48v186q0 31 -1 41q-2 16 -6 23q-5 8 -13 12q-7 4 -24 7v15l161 87v-372v-48q0 -17 5 -29q4 -10 12 -16q6 -5 21 -10v-13h-195v13zM72 648l-2 -5q11 0 27 -2t23 -3l21 -3q14 -2 22 -2q13 0 24 9q9 8 27 29l12 -6
q-11 -42 -29 -76q-16 -31 -48 -31q-10 0 -24 2t-21 4t-21 4t-24 2q-14 0 -23 -9q-15 -15 -26 -28l-12 6q16 50 32 80q15 29 42 29z" />
    <glyph glyph-name="Imacron" unicode="&#x12a;" horiz-adv-x="275" 
d="M26 13v-1q16 4 25 12q9 7 13 25t6 51q1 22 1 91v366q0 70 -1 92q-2 33 -6 51t-13 25q-9 8 -25 12v13h223v-13q-16 -4 -25 -12q-9 -7 -13 -25q-5 -18 -6 -51q-1 -22 -1 -91v-366q0 -69 1 -91q1 -33 6 -51q4 -18 13 -25q9 -8 25 -12v-13h-223v13zM247 809h-219v53h219v-53z
" />
    <glyph glyph-name="imacron" unicode="&#x12b;" horiz-adv-x="230" 
d="M20 13l2 1q15 5 21 10q8 6 12 16q5 12 5 29v48v186q0 31 -1 41q-2 16 -6 23q-5 8 -13 12q-7 4 -24 7v15l161 87v-372v-48q0 -17 5 -29q4 -10 12 -16q6 -5 21 -10v-13h-195v13zM220 616v-51h-206v51h206z" />
    <glyph glyph-name="Ibreve" unicode="&#x12c;" horiz-adv-x="275" 
d="M26 13v-1q16 4 25 12q9 7 13 25t6 51q1 22 1 91v366q0 70 -1 92q-2 33 -6 51t-13 25q-9 8 -25 12v13h223v-13q-16 -4 -25 -12q-9 -7 -13 -25q-5 -18 -6 -51q-1 -22 -1 -91v-366q0 -69 1 -91q1 -33 6 -51q4 -18 13 -25q9 -8 25 -12v-13h-223v13zM138 877l1 -1q36 0 54 9
q19 9 29 33h16q0 -55 -26 -87t-74 -32q-47 0 -74 32t-26 89h16q10 -22 30 -33q19 -10 54 -10z" />
    <glyph glyph-name="ibreve" unicode="&#x12d;" horiz-adv-x="230" 
d="M20 13l2 1q15 5 21 10q8 6 12 16q5 12 5 29v48v186q0 31 -1 41q-2 16 -6 23q-5 8 -13 12q-7 4 -24 7v15l161 87v-372v-48q0 -17 5 -29q4 -10 12 -16q6 -5 21 -10v-13h-195v13zM118 607l-1 -2q37 0 53 15t24 32h16q1 -21 -5 -43t-18 -38q-12 -17 -30 -27q-17 -10 -41 -10
q-23 0 -42 11q-18 11 -30 27t-18 38q-6 20 -4 44h16q6 -17 24 -32t56 -15z" />
    <glyph glyph-name="Iogonek" unicode="&#x12e;" horiz-adv-x="275" 
d="M26 13v-1q16 4 25 12q9 7 13 25t6 51q1 22 1 91v366q0 70 -1 92q-2 33 -6 51t-13 25q-9 8 -25 12v13h223v-13q-16 -4 -25 -12q-9 -7 -13 -25q-5 -18 -6 -51q-1 -22 -1 -91v-366q0 -69 1 -91q1 -33 6 -51q4 -18 13 -25q9 -8 25 -12v-13h-223v13zM149 -171l-3 -2
q-38 0 -66 18t-28 47q0 23 13 39t32 30q16 12 39 22q25 11 37 14h24q-10 -12 -22 -34q-12 -21 -12 -54q0 -22 11 -36q10 -13 29 -13q10 0 17 5q4 3 14 11l9 -10q-1 -1 -5 -4.5t-6 -5.5q-5 -5 -17 -12t-27 -11t-39 -4z" />
    <glyph glyph-name="iogonek" unicode="&#x12f;" horiz-adv-x="233" 
d="M116 540h-2q-28 0 -48 20q-19 19 -19 48q0 27 20 47t48 20q29 0 48 -19q20 -20 20 -46q0 -29 -19 -49q-20 -21 -48 -21zM18 13l2 1q15 5 21 10q8 6 12 16q5 12 5 29v48v186q0 31 -1 41q-2 16 -6 23q-5 8 -13 12q-7 4 -24 7v15l161 87v-372v-48q0 -17 5 -29q4 -10 12 -16
q6 -5 21 -10v-13h-195v13zM123 -169l-3 -2q-38 0 -66 18t-28 47q0 23 13 39t32 30q16 12 39 22q25 11 37 14h24q-10 -12 -22 -34q-12 -21 -12 -54q0 -22 11 -36q10 -13 29 -13q10 0 17 5q4 3 14 11l9 -10q-1 -1 -5 -4.5t-6 -5.5q-5 -5 -17 -12t-27 -11t-39 -4z" />
    <glyph glyph-name="Idotaccent" unicode="&#x130;" horiz-adv-x="275" 
d="M26 13v-1q16 4 25 12q9 7 13 25t6 51q1 22 1 91v366q0 70 -1 92q-2 33 -6 51t-13 25q-9 8 -25 12v13h223v-13q-16 -4 -25 -12q-9 -7 -13 -25q-5 -18 -6 -51q-1 -22 -1 -91v-366q0 -69 1 -91q1 -33 6 -51q4 -18 13 -25q9 -8 25 -12v-13h-223v13zM138 793l-2 2
q-28 0 -48 20q-19 19 -19 48q0 27 20 47t48 20q29 0 48 -19q20 -20 20 -48q0 -29 -19 -49q-20 -21 -48 -21z" />
    <glyph glyph-name="dotlessi" unicode="&#x131;" horiz-adv-x="233" 
d="M20 13l2 1q15 5 21 10q8 6 12 16q5 12 5 29v48v186q0 31 -1 41q-2 16 -6 23q-5 8 -13 12q-7 4 -24 7v15l161 87v-372v-48q0 -17 5 -29q4 -10 12 -16q6 -5 21 -10v-13h-195v13z" />
    <glyph glyph-name="IJ" unicode="&#x132;" horiz-adv-x="707" 
d="M26 13v-1q16 4 25 12q9 7 13 25t6 51q1 22 1 91v366q0 70 -1 92q-2 33 -6 51t-13 25q-9 8 -25 12v13h223v-13q-16 -4 -25 -12q-9 -7 -13 -25q-5 -18 -6 -51q-1 -22 -1 -91v-366q0 -69 1 -91q1 -33 6 -51q4 -18 13 -25q9 -8 25 -12v-13h-223v13zM459 -11v-5q-75 0 -121 24
t-46 68q0 26 17 41t39 15q24 0 38 -13q16 -14 26 -48q4 -16 9 -31q5 -14 10 -22q6 -9 14 -12q7 -3 21 -3q18 0 30 14q12 13 12 51v487q0 70 -1 92q-1 33 -6 51t-13 24q-11 7 -25 11v13h223v-13q-17 -5 -25 -10q-8 -6 -13 -24q-4 -18 -6 -51q-1 -22 -1 -92v-377
q0 -46 -15 -82t-39 -60t-57 -36t-71 -12z" />
    <glyph glyph-name="ij" unicode="&#x133;" horiz-adv-x="456" 
d="M116 540h-2q-28 0 -48 20q-19 19 -19 48q0 27 20 47t48 20q29 0 48 -19q20 -20 20 -46q0 -29 -19 -49q-20 -21 -48 -21zM18 13l2 1q15 5 21 10q8 6 12 16q5 12 5 29v48v186q0 31 -1 41q-2 16 -6 23q-5 8 -13 12q-7 4 -24 7v15l161 87v-372v-48q0 -17 5 -29q4 -10 12 -16
q6 -5 21 -10v-13h-195v13zM338 541h-2q-28 0 -48 20q-19 19 -19 48q0 27 20 47t48 20q29 0 48 -19q20 -20 20 -46q0 -29 -19 -49q-20 -21 -48 -21zM197 -152l2 -1q-19 0 -34 12t-15 35q0 20 12 31q11 10 27 10q14 0 24 -7q11 -8 20 -17l17 -17q7 -7 15 -7q5 0 9 4q6 5 6 21
v59v330q0 32 -1 42q-1 15 -6 24q-4 9 -13 13q-7 4 -24 7v15l161 87v-407q0 -30 -3 -56t-13 -49q-11 -25 -28 -45q-20 -23 -46 -41q-36 -25 -61 -34q-24 -9 -49 -9z" />
    <glyph glyph-name="Jcircumflex" unicode="&#x134;" horiz-adv-x="432" 
d="M184 -10v-5q-74 0 -121 24q-46 24 -46 68q0 26 17 41q16 15 39 15q24 0 38 -13q16 -14 26 -48q4 -16 9 -31q5 -14 10 -22q6 -9 14 -12t21 -3q18 0 30 14t12 51v487q0 70 -1 92q-2 33 -6 51q-5 18 -13 24q-11 7 -25 11v13h223v-13q-17 -5 -25 -10q-8 -6 -13 -24t-6 -51
q-1 -22 -1 -92v-377q0 -46 -15 -82t-39 -60t-57 -36t-71 -12zM301 922l131 -126l-5 -13l-126 42l-126 -42l-5 13z" />
    <glyph glyph-name="jcircumflex" unicode="&#x135;" horiz-adv-x="232" 
d="M-24 -153l1 -1q-19 0 -34 12t-15 35q0 21 12 31q11 10 27 10q14 0 24 -7q11 -7 20 -17l17 -17q7 -7 15 -7q5 0 9 4q6 4 6 21v59v330q0 32 -1 42q-1 15 -6 24q-4 9 -13 13q-7 4 -24 7v15l160 87v-407q0 -31 -3 -56t-12 -49t-27 -45q-20 -23 -46 -41q-36 -25 -61 -34
q-24 -9 -49 -9zM116 696l118 -175l-11 -9l-107 64l-107 -64l-11 9z" />
    <glyph glyph-name="uni0136" unicode="&#x136;" 
d="M361 13l-1 2q26 5 27 18t-18 51l-163 315l234 256q19 20 27 35q7 14 6 24t-10 16t-22 9v13h122v-13q-13 -3 -24 -10q-13 -8 -24 -19q-17 -17 -27 -28q-26 -28 -35 -39l-141 -154l216 -410q10 -21 18 -33q8 -13 13 -18t11 -9q3 -2 11 -6v-13h-220v13zM25 15v-2q16 4 25 12
q9 7 13 25q5 18 6 51q1 22 1 92v366q0 70 -1 92q-1 33 -6 51q-4 18 -13 25q-9 8 -25 12v13h223v-13q-16 -4 -25 -12q-9 -7 -13 -25t-6 -51q-1 -22 -1 -91v-366q0 -69 1 -91q2 -33 6 -51t13 -25q9 -8 25 -12v-13h-223v13zM317 -117l-5 -3q-1 -5 -11 -13q-8 -7 -27 -7
q-20 0 -36 14q-15 14 -15 38q0 25 18 40t41 15q15 0 26 -4q12 -4 23 -14q10 -8 16 -24q6 -15 6 -34q0 -41 -25 -66q-26 -25 -72 -33l-5 12q42 9 57 29q15 19 15 36q0 13 -6 14z" />
    <glyph glyph-name="uni0137" unicode="&#x137;" horiz-adv-x="463" 
d="M21 13q12 5 19 10q8 7 11 16q3 10 3 29v48v502q0 25 -1 32q-2 11 -6 17q-5 7 -12 8l-21 3v15l159 89v-666v-48q0 -17 5 -29q4 -10 12 -16q6 -5 21 -10v-13h-190v13zM269 11l-2 -2q23 5 24 15t-12 36l-95 189v12l137 135q16 16 22 28t3 20t-10 12t-20 6v13h118v-13
q-10 -4 -16 -7q-9 -5 -19 -13q-1 -1 -10.5 -9t-15.5 -13q-10 -9 -37 -36l-65 -63l144 -263q14 -25 23 -35q9 -9 17 -12v-11h-186v11zM270 -119l-5 -3q-1 -5 -11 -13q-8 -7 -27 -7q-20 0 -36 14q-15 14 -15 38q0 25 18 40t41 15q15 0 26 -4q12 -4 23 -14q10 -8 16 -24
q6 -15 6 -34q0 -41 -25 -66t-72 -33l-5 12q42 9 57 29q15 19 15 36q0 13 -6 14z" />
    <glyph glyph-name="Lacute" unicode="&#x139;" horiz-adv-x="509" 
d="M26 13l-2 -4q16 4 25 12q9 7 13 25t6 51q1 22 1 92v366q0 70 -1 92q-2 33 -6 51t-13 25q-9 8 -25 12v13h231v-13q-17 -4 -28 -12t-15 -25q-4 -18 -6 -51q-1 -22 -1 -91v-542h36q55 0 93 6q36 6 63 23q25 16 42 47q16 29 33 77h17l-26 -138q-2 -12 -3 -17t-5 -9
q-3 -3 -8 -3h-12h-409v13zM49 800l112 86q15 12 27 17q13 6 28 6q20 0 32 -13q12 -14 12 -30q0 -20 -14 -37q-13 -16 -48 -22l-144 -20z" />
    <glyph glyph-name="lacute" unicode="&#x13a;" horiz-adv-x="236" 
d="M22 13h1q15 5 21 10q7 6 12 17q5 12 5 29v48v502q0 25 -1 32q-2 11 -6 17q-5 7 -13 8q-9 2 -24 3v15l161 88v-666q0 -36 1 -48q1 -16 5 -29q3 -10 12 -16q8 -5 24 -10v-13h-198v13zM25 804l112 86q15 12 27 17q14 6 28 6q20 0 32 -13q12 -14 12 -30q0 -20 -14 -37
q-13 -16 -48 -22l-144 -20z" />
    <glyph glyph-name="uni013B" unicode="&#x13b;" horiz-adv-x="509" 
d="M26 13l-2 -4q16 4 25 12q9 7 13 25t6 51q1 22 1 92v366q0 70 -1 92q-2 33 -6 51t-13 25q-9 8 -25 12v13h231v-13q-17 -4 -28 -12t-15 -25q-4 -18 -6 -51q-1 -22 -1 -91v-542h36q55 0 93 6q36 6 63 23q25 16 42 47q16 29 33 77h17l-26 -138q-2 -12 -3 -17t-5 -9
q-3 -3 -8 -3h-12h-409v13zM285 -121l-5 -3q-1 -5 -11 -13q-8 -7 -27 -7q-20 0 -36 14q-15 14 -15 38q0 25 18 40t41 15q15 0 26 -4q12 -4 23 -14q10 -8 16 -24q6 -15 6 -34q0 -41 -25 -66q-26 -25 -72 -33l-5 12q42 9 57 29q15 19 15 36q0 13 -6 14z" />
    <glyph glyph-name="uni013C" unicode="&#x13c;" horiz-adv-x="236" 
d="M21 13h1q15 5 21 10q7 6 12 17q5 12 5 29v48v502q0 25 -1 32q-2 11 -6 17q-5 7 -13 8q-9 2 -24 3v15l161 88v-666q0 -36 1 -48q1 -16 5 -29q3 -10 12 -16q8 -5 24 -10v-13h-198v13zM146 -117l-5 -3q-1 -5 -11 -13q-8 -7 -27 -7q-20 0 -36 14q-15 14 -15 38q0 25 18 40
t41 15q15 0 26 -4q12 -4 23 -14q10 -8 16 -24q6 -15 6 -34q0 -41 -25 -66t-72 -33l-5 12q42 9 57 29q15 19 15 36q0 13 -6 14z" />
    <glyph glyph-name="Lcaron" unicode="&#x13d;" horiz-adv-x="509" 
d="M26 13l-2 -4q16 4 25 12q9 7 13 25t6 51q1 22 1 92v366q0 70 -1 92q-2 33 -6 51t-13 25q-9 8 -25 12v13h231v-13q-17 -4 -28 -12t-15 -25q-4 -18 -6 -51q-1 -22 -1 -91v-542h36q55 0 93 6q36 6 63 23q25 16 42 47q16 29 33 77h17l-26 -138q-2 -12 -3 -17t-5 -9
q-3 -3 -8 -3h-12h-409v13zM287 541l4 138q1 40 14 57q12 17 34 17q19 0 30 -12q11 -13 11 -32q0 -12 -4 -23q-6 -16 -10 -23l-67 -125z" />
    <glyph glyph-name="lcaron" unicode="&#x13e;" horiz-adv-x="236" 
d="M21 13h1q15 5 21 10q7 6 12 17q5 12 5 29v48v502q0 25 -1 32q-2 11 -6 17q-5 7 -13 8q-9 2 -24 3v15l161 88v-666q0 -36 1 -48q1 -16 5 -29q3 -10 12 -16q8 -5 24 -10v-13h-198v13zM205 559l4 138q1 40 14 57q12 17 34 17q19 0 30 -12q11 -13 11 -32q0 -12 -4 -23
q-6 -16 -10 -23l-67 -125z" />
    <glyph glyph-name="Ldot" unicode="&#x13f;" horiz-adv-x="509" 
d="M392 316h-1q-30 0 -52 20q-21 20 -21 51q0 32 21 53t52 21q32 0 53 -21t21 -53q0 -31 -21 -51q-22 -20 -52 -20zM25 13l-2 -4q16 4 25 12q9 7 13 25q5 18 6 51q1 22 1 92v366q0 70 -1 92q-1 33 -6 51q-4 18 -13 25q-9 8 -25 12v13h231v-13q-17 -4 -28 -12t-15 -25
q-5 -18 -6 -51q-1 -22 -1 -91v-542h36q56 0 93 6q36 6 63 23q25 16 42 47q16 29 33 77h17l-26 -138q-2 -12 -3 -17t-5 -9q-3 -3 -8 -3h-12h-409v13z" />
    <glyph glyph-name="ldot" unicode="&#x140;" horiz-adv-x="324" 
d="M278 295l-1 -1q-30 0 -52 20q-21 20 -21 53q0 32 21 53t52 21q32 0 53 -21t21 -52q0 -34 -21 -53q-22 -20 -52 -20zM20 12h1q15 5 21 10q7 6 12 17q5 12 5 29v48v502q0 25 -1 32q-2 11 -6 17q-5 7 -13 8q-9 1 -24 3v15l161 88v-666q0 -36 1 -48q1 -16 5 -29q3 -10 12 -16
q8 -5 24 -10v-13h-198v13z" />
    <glyph glyph-name="Lslash" unicode="&#x141;" horiz-adv-x="482" 
d="M0 257l-8 14l376 211l8 -14zM26 13l-2 -4q16 4 25 12q9 7 13 25t6 51q1 22 1 92v366q0 70 -1 92q-2 33 -6 51t-13 25q-9 8 -25 12v13h231v-13q-17 -4 -28 -12t-15 -25q-4 -18 -6 -51q-1 -22 -1 -91v-542h36q55 0 93 6q36 6 63 23q25 16 42 47q16 29 33 77h17l-26 -138
q-2 -12 -3 -17t-5 -9q-3 -3 -8 -3h-12h-409v13z" />
    <glyph glyph-name="lslash" unicode="&#x142;" horiz-adv-x="236" 
d="M-8 307l-9 14l264 171l9 -14zM21 13h1q15 5 21 10q7 6 12 17q5 12 5 29v48v502q0 25 -1 32q-2 11 -6 17q-5 7 -13 8q-9 2 -24 3v15l161 88v-666q0 -36 1 -48q1 -16 5 -29q3 -10 12 -16q8 -5 24 -10v-13h-198v13z" />
    <glyph glyph-name="Nacute" unicode="&#x143;" horiz-adv-x="582" 
d="M26 13l-1 -5q15 10 25 21q8 9 13 29q5 18 6 51q1 22 1 90v355q0 69 -1 91q-1 33 -6 51q-4 18 -13 25q-9 8 -25 12v13h172q13 0 17 -1q8 -2 11 -4q5 -3 9 -9q5 -7 11 -17l255 -474v305q0 68 -1 90q-2 34 -7 52q-6 20 -18 29q-14 10 -33 20v13h122v-13q-17 -12 -24 -19
q-9 -8 -13 -28q-5 -20 -6 -52q-1 -22 -1 -90v-551h-37l-394 724v-518q0 -46 2 -90q1 -31 8 -51q6 -17 18 -28q12 -10 33 -21v-13h-123v13zM236 799l112 86q15 12 27 17q13 6 28 6q20 0 32 -13t12 -30q0 -20 -14 -37q-13 -16 -48 -22l-144 -20z" />
    <glyph glyph-name="nacute" unicode="&#x144;" horiz-adv-x="492" 
d="M21 13q12 5 19 10q8 7 11 16q3 10 3 29v48v186q0 32 -1 42q-2 16 -6 23q-5 8 -13 11q-9 3 -24 6v15l162 87v-108l18 18q37 40 71 63t76 23q13 0 33 -5q18 -5 33 -18q16 -14 26 -36q10 -21 10 -57v-250v-48q0 -18 3 -29q3 -10 10 -16q7 -5 19 -10v-13h-192v13q14 5 20 10
q8 6 12 16t6 29q2 24 2 48v284q0 24 -9 34t-23 10q-15 0 -37 -16q-24 -18 -57 -52l-18 -18v-242v-48q0 -17 5 -29q4 -10 12 -16q6 -5 21 -10v-13h-192v13zM187 524l75 116q16 26 29 38q12 12 32 12q21 0 32 -12q11 -13 11 -31q0 -21 -12 -36t-31 -25l-125 -72z" />
    <glyph glyph-name="uni0145" unicode="&#x145;" horiz-adv-x="582" 
d="M26 13l-1 -5q15 10 25 21q8 9 13 29q5 18 6 51q1 22 1 90v355q0 69 -1 91q-1 33 -6 51q-4 18 -13 25q-9 8 -25 12v13h172q13 0 17 -1q8 -2 11 -4q5 -3 9 -9q5 -7 11 -17l255 -474v305q0 68 -1 90q-2 34 -7 52q-6 20 -18 29q-14 10 -33 20v13h122v-13q-17 -12 -24 -19
q-9 -8 -13 -28q-5 -20 -6 -52q-1 -22 -1 -90v-551h-37l-394 724v-518q0 -46 2 -90q1 -31 8 -51q6 -17 18 -28q12 -10 33 -21v-13h-123v13zM323 -122l-5 -3q-1 -5 -11 -13q-8 -7 -27 -7q-20 0 -36 14q-15 13 -15 38t18 40t41 15q15 0 26 -4q12 -4 23 -14q10 -8 16 -24
q6 -15 6 -34q0 -41 -25 -66q-26 -26 -72 -33l-5 12q42 9 57 29t15 36q0 12 -6 14z" />
    <glyph glyph-name="uni0146" unicode="&#x146;" horiz-adv-x="492" 
d="M21 13q12 5 19 10q8 7 11 16q3 10 3 29v48v186q0 32 -1 42q-2 16 -6 23q-5 8 -13 11q-9 3 -24 6v15l162 87v-108l18 18q37 40 71 63t76 23q13 0 33 -5q18 -5 33 -18q16 -14 26 -36q10 -21 10 -57v-250v-48q0 -18 3 -29q3 -10 10 -16q7 -5 19 -10v-13h-192v13q14 5 20 10
q8 6 12 16t6 29q2 24 2 48v284q0 24 -9 34t-23 10q-15 0 -37 -16q-24 -18 -57 -52l-18 -18v-242v-48q0 -17 5 -29q4 -10 12 -16q6 -5 21 -10v-13h-192v13zM275 -117l-5 -3q-1 -5 -11 -13q-8 -7 -27 -7q-20 0 -36 14q-15 14 -15 38q0 25 18 40t41 15q15 0 26 -4q12 -4 23 -14
q10 -8 16 -24q6 -15 6 -34q0 -41 -25 -66q-26 -25 -72 -33l-5 12q42 9 57 29q15 19 15 36q0 13 -6 14z" />
    <glyph glyph-name="Ncaron" unicode="&#x147;" horiz-adv-x="582" 
d="M26 13l-1 -5q15 10 25 21q8 9 13 29q5 18 6 51q1 22 1 90v355q0 69 -1 91q-1 33 -6 51q-4 18 -13 25q-9 8 -25 12v13h172q13 0 17 -1q8 -2 11 -4q5 -3 9 -9q5 -7 11 -17l255 -474v305q0 68 -1 90q-2 34 -7 52q-6 20 -18 29q-14 10 -33 20v13h122v-13q-17 -12 -24 -19
q-9 -8 -13 -28q-5 -20 -6 -52q-1 -22 -1 -90v-551h-37l-394 724v-518q0 -46 2 -90q1 -31 8 -51q6 -17 18 -28q12 -10 33 -21v-13h-123v13zM204 932l126 -42l126 42l5 -13l-131 -126l-131 126z" />
    <glyph glyph-name="ncaron" unicode="&#x148;" horiz-adv-x="492" 
d="M21 13q12 5 19 10q8 7 11 16q3 10 3 29v48v186q0 32 -1 42q-2 16 -6 23q-5 8 -13 11q-9 3 -24 6v15l162 87v-108l18 18q37 40 71 63t76 23q13 0 33 -5q18 -5 33 -18q16 -14 26 -36q10 -21 10 -57v-250v-48q0 -18 3 -29q3 -10 10 -16q7 -5 19 -10v-13h-192v13q14 5 20 10
q8 6 12 16t6 29q2 24 2 48v284q0 24 -9 34t-23 10q-15 0 -37 -16q-24 -18 -57 -52l-18 -18v-242v-48q0 -17 5 -29q4 -10 12 -16q6 -5 21 -10v-13h-192v13zM154 704l107 -64l107 64l11 -9l-118 -174l-118 174z" />
    <glyph glyph-name="napostrophe" unicode="&#x149;" horiz-adv-x="492" 
d="M21 13q12 5 19 10q8 7 11 16q3 10 3 29v48v186q0 32 -1 42q-2 16 -6 23q-5 8 -13 11q-9 3 -24 6v15l162 87v-108l18 18q37 40 71 63t76 23q13 0 33 -5q18 -5 33 -18q16 -14 26 -36q10 -21 10 -57v-250v-48q0 -18 3 -29q3 -10 10 -16q7 -5 19 -10v-13h-192v13q14 5 20 10
q8 6 12 16t6 29q2 24 2 48v284q0 24 -9 34t-23 10q-15 0 -37 -16q-24 -18 -57 -52l-18 -18v-242v-48q0 -17 5 -29q4 -10 12 -16q6 -5 21 -10v-13h-192v13zM28 668l1 -4q-6 -9 -15 -15t-25 -6q-25 0 -42 17q-16 16 -16 42q0 31 20 49q19 18 48 18q12 0 27 -5q14 -5 24 -16
q11 -13 18 -28t7 -41q0 -55 -33 -94q-32 -38 -84 -64l-6 11q87 50 87 108q0 20 -11 28z" />
    <glyph glyph-name="Eng" unicode="&#x14a;" horiz-adv-x="582" 
d="M26 13l-7 -6q15 10 25 21q8 9 13 29q5 18 6 51q1 22 1 90v355q0 69 -1 91q-1 33 -6 51q-4 18 -13 25q-9 8 -25 12v13h172q13 0 17 -1q8 -2 11 -4q5 -3 9 -9q2 -2 6 -8l6 -9l255 -453v284q0 68 -1 90q-2 34 -7 52q-6 21 -16 29q-12 10 -30 20v13h117v-13q-17 -12 -24 -19
q-8 -8 -13 -28t-6 -52q-1 -22 -1 -90v-566q0 -27 -7 -48q-7 -23 -21 -39q-14 -17 -35 -26t-49 -9q-30 0 -57 6t-48 18q-20 12 -33 29q-12 16 -12 38q0 24 14 36t36 12q25 0 37 -13q11 -13 22 -48q11 -32 19 -46q9 -15 29 -15q46 0 68 31q23 32 23 78v6l-412 731l-1 -519
q0 -46 2 -90q1 -31 8 -51q6 -17 18 -28q12 -10 33 -21l1 -13h-123v13z" />
    <glyph glyph-name="eng" unicode="&#x14b;" horiz-adv-x="494" 
d="M21 13l-2 -3q12 5 19 10q8 7 11 16q3 10 3 29v48v186q0 32 -1 42q-2 16 -6 23q-5 8 -13 11q-9 3 -24 6v15l162 87v-108l18 18q37 40 71 63t76 23q13 0 33 -5q18 -4 33 -18q16 -14 26 -36q10 -21 10 -57v-285q0 -30 -3 -56q-3 -25 -12 -49t-27 -45q-20 -23 -46 -41
q-36 -25 -61 -34q-24 -9 -49 -9q-19 0 -34 12t-15 35q0 21 12 31q11 10 27 10q14 0 24 -7q11 -8 20 -17l17 -17q7 -7 15 -7q5 0 9 4q5 5 5 21v60v431q0 24 -9 34t-23 10q-15 0 -37 -16q-24 -18 -57 -52l-18 -18v-242v-48q0 -17 5 -29q4 -10 12 -16q6 -5 21 -10v-13h-192v13z
" />
    <glyph glyph-name="Omacron" unicode="&#x14c;" horiz-adv-x="654" 
d="M327 -16v-2q-53 0 -105 28t-93 80q-41 51 -66 123q-25 71 -25 161t25 161q25 72 66 123t93 78t105 27t105 -27t93 -78t66 -123q25 -71 25 -161q0 -89 -25 -160q-25 -72 -66 -123q-40 -50 -93 -79q-52 -28 -105 -28zM327 -2v-1q66 0 102 95q35 93 37 282q0 89 -11 163
q-10 68 -29 117q-18 46 -44 69t-54 23t-54 -23t-45 -69t-30 -117q-10 -67 -10 -163q0 -188 36 -282t102 -94zM437 807h-219v53h219v-53z" />
    <glyph glyph-name="omacron" unicode="&#x14d;" horiz-adv-x="466" 
d="M233 -7l-2 -3q-28 0 -65 14q-35 13 -67 42t-53 75q-21 47 -21 113q0 67 21 115t53 77q31 28 68 42t65 14q30 0 65 -13q37 -14 68 -42q33 -30 53 -76q21 -48 21 -115q0 -66 -21 -113q-21 -46 -53 -75t-67 -42t-65 -13zM231 6v-2q20 0 35 12q16 13 26 39q10 25 16 71
q6 43 6 107q0 65 -6 108q-6 46 -16 71q-10 26 -26 39q-15 12 -35 12q-19 0 -36 -12t-27 -39q-10 -25 -16 -71q-6 -43 -6 -108q0 -63 6 -106q6 -45 16 -70q10 -27 27 -39t36 -12zM334 610v-51h-206v51h206z" />
    <glyph glyph-name="Obreve" unicode="&#x14e;" horiz-adv-x="654" 
d="M327 -16v-2q-53 0 -105 28t-93 80q-41 51 -66 123q-25 71 -25 161t25 161q25 72 66 123t93 78t105 27t105 -27t93 -78t66 -123q25 -71 25 -161q0 -89 -25 -160q-25 -72 -66 -123q-40 -50 -93 -79q-52 -28 -105 -28zM327 -2v-1q66 0 102 95q35 93 37 282q0 89 -11 163
q-10 68 -29 117q-18 46 -44 69t-54 23t-54 -23t-45 -69t-30 -117q-10 -67 -10 -163q0 -188 36 -282t102 -94zM328 875l1 -1q36 0 54 9q19 9 29 33h16q0 -55 -26 -87t-74 -32q-47 0 -74 32t-26 89h16q10 -22 30 -33q19 -10 54 -10z" />
    <glyph glyph-name="obreve" unicode="&#x14f;" horiz-adv-x="466" 
d="M233 -7l-2 -3q-28 0 -65 14q-35 13 -67 42t-53 75q-21 47 -21 113q0 67 21 115t53 77q31 28 68 42t65 14q30 0 65 -13q37 -14 68 -42q33 -30 53 -76q21 -48 21 -115q0 -66 -21 -113q-21 -46 -53 -75t-67 -42t-65 -13zM231 6v-2q20 0 35 12q16 13 26 39q10 25 16 71
q6 43 6 107q0 65 -6 108q-6 46 -16 71q-10 26 -26 39q-15 12 -35 12q-19 0 -36 -12t-27 -39q-10 -25 -16 -71q-6 -43 -6 -108q0 -63 6 -106q6 -45 16 -70q10 -27 27 -39t36 -12zM232 601l-1 -2q37 0 53 15t24 32h16q1 -21 -5 -43t-18 -38q-12 -17 -30 -27q-17 -10 -41 -10
q-23 0 -42 11q-18 11 -30 27t-18 38q-6 20 -4 44h16q6 -17 24 -32t56 -15z" />
    <glyph glyph-name="Ohungarumlaut" unicode="&#x150;" horiz-adv-x="654" 
d="M327 -16v-2q-53 0 -105 28t-93 80q-41 51 -66 123q-25 71 -25 161t25 161q25 72 66 123t93 78t105 27t105 -27t93 -78t66 -123q25 -71 25 -161q0 -89 -25 -160q-25 -72 -66 -123q-40 -50 -93 -79q-52 -28 -105 -28zM327 -2v-1q66 0 102 95q35 93 37 282q0 89 -11 163
q-10 68 -29 117q-18 46 -44 69t-54 23t-54 -23t-45 -69t-30 -117q-10 -67 -10 -163q0 -188 36 -282t102 -94zM362 816l49 75q17 24 27 35q12 14 32 14t29 -13t9 -24q0 -18 -12 -30t-30 -21l-96 -47zM236 815l51 75q13 21 26 35q12 14 33 14q20 0 29 -13q9 -14 9 -24
q0 -18 -13 -30t-30 -21l-97 -47z" />
    <glyph glyph-name="ohungarumlaut" unicode="&#x151;" horiz-adv-x="466" 
d="M233 -7l-2 -3q-28 0 -65 14q-35 13 -67 42t-53 75q-21 47 -21 113q0 67 21 115t53 77q31 28 68 42t65 14q30 0 65 -13q37 -14 68 -42q33 -30 53 -76q21 -48 21 -115q0 -66 -21 -113q-21 -46 -53 -75t-67 -42t-65 -13zM231 6v-2q20 0 35 12q16 13 26 39q10 25 16 71
q6 43 6 107q0 65 -6 108q-6 46 -16 71q-10 26 -26 39q-15 12 -35 12q-19 0 -36 -12t-27 -39q-10 -25 -16 -71q-6 -43 -6 -108q0 -63 6 -106q6 -45 16 -70q10 -27 27 -39t36 -12zM280 528l33 125q6 25 16 39q11 15 33 15q20 0 30 -12q10 -11 10 -28q0 -24 -21 -45l-91 -99z
M152 527l33 125q6 25 16 39q11 15 33 15q20 0 30 -12q10 -11 10 -28q0 -26 -21 -45l-91 -99z" />
    <glyph glyph-name="OE" unicode="&#x152;" horiz-adv-x="858" 
d="M667 327l-2 -4q-5 18 -9 33t-15 27t-30 18q-21 7 -54 8v-396h33q58 0 96 6t63 21t40 42t27 70h17l-13 -123q-1 -22 -8 -27q-5 -4 -22 -4h-438q-67 0 -124 24t-99 72t-66 118t-24 162q0 87 24 156t66 117q43 49 99 74q58 26 125 26h417q11 0 15 -4q5 -5 9 -25l19 -110h-17
q-14 39 -30 62q-17 25 -40 38t-58 19q-34 6 -87 6h-22v-306q35 1 54 9t30 18q10 10 15 26q3 10 9 32h14v-185h-14zM350 730v-3q-46 0 -78 -23q-31 -22 -51 -68q-19 -44 -28 -112t-9 -156q0 -180 44 -270q44 -89 122 -89q26 0 39 6q14 6 20 25q7 21 8 56q2 48 2 99v337
q0 53 -2 105q-1 39 -9 60t-21 27t-37 6z" />
    <glyph glyph-name="oe" unicode="&#x153;" horiz-adv-x="720" 
d="M235 -6l-3 -5q-31 0 -66 13q-38 14 -68 43q-33 31 -53 76q-21 47 -21 113q0 68 21 114q21 47 53 77q30 29 68 43q35 13 66 13q34 0 75 -18t72 -57q29 38 66 56t69 18q47 0 77 -13q33 -14 53 -37t31 -56q10 -31 12 -68h-246q-1 -8 -1 -25v-27q0 -50 6 -94q6 -42 20 -75
q13 -30 38 -49q24 -18 59 -18q42 0 63 10q24 11 42 25l9 -13q-4 -3 -11.5 -8.5t-10.5 -8.5q-11 -8 -28 -16t-37 -12q-19 -4 -49 -4q-49 0 -92 17t-71 54q-31 -36 -70 -52q-38 -16 -73 -16zM514 464l-2 -1q-14 0 -26 -6t-21 -23q-9 -16 -15 -44q-6 -27 -9 -68h132
q-2 41 -4 61q-3 27 -9 45q-6 19 -16 27q-10 9 -30 9zM230 4l-1 -2q23 0 39 12t27 39q10 27 15 71q5 48 5 107q0 60 -5 108q-5 44 -15 71q-11 27 -27 39t-39 12q-21 0 -37 -12t-27 -39q-10 -25 -16 -71q-6 -43 -6 -108q0 -63 6 -106q6 -45 16 -70q11 -27 27 -39t38 -12z" />
    <glyph glyph-name="Racute" unicode="&#x154;" horiz-adv-x="570" 
d="M26 13l-8 -6q16 4 25 12q9 7 13 25t6 51q1 22 1 92v366q0 70 -1 92q-2 33 -6 51t-13 25q-9 8 -25 12v13h210q70 0 124 -9q53 -9 91 -30t57 -55t19 -84q0 -47 -18 -83q-18 -35 -51 -61t-78 -39q-47 -14 -98 -17q35 -5 59 -13q27 -9 48 -27t36 -49q16 -33 26 -78
q12 -55 21 -90t18 -54t18 -27q8 -7 21 -7q12 0 22 5t14 9l9 -9q-3 -4 -10 -10q-8 -7 -19 -12q-10 -5 -28 -10q-15 -4 -39 -4q-36 0 -62 9t-44 32q-18 22 -30 59q-11 33 -19 90q-9 68 -19 102q-10 38 -24 57q-14 20 -28 24q-17 5 -34 5h-4v-178q0 -69 1 -91q1 -33 6 -51
q4 -17 14 -25q9 -7 24 -12v-13h-225v13zM199 728v-348h41q83 0 114 43q32 44 32 132q0 96 -37 134q-37 39 -123 39h-27zM186 798l112 86q15 12 27 17q14 6 28 6q20 0 32 -13q12 -14 12 -30q0 -20 -14 -37q-13 -16 -48 -22l-144 -20z" />
    <glyph glyph-name="racute" unicode="&#x155;" horiz-adv-x="369" 
d="M21 13l1 -2q12 5 19 10q8 7 11 16q3 10 3 29v48v202q0 25 -1 33q-1 11 -6 19q-4 7 -13 10t-24 6v15l161 87v-87q24 25 42 42q15 14 32 27q14 11 26 14t26 3q25 0 39 -13q15 -14 15 -36q0 -29 -16 -42q-17 -14 -36 -14q-16 0 -25 6t-17 14l-14 14q-6 6 -16 6q-6 0 -9 -1
q-4 -1 -10 -6t-15 -12t-21 -21v-264q0 -36 1 -48q1 -16 5 -29q3 -10 12 -16q8 -5 24 -10v-13h-194v13zM129 522l75 116q16 25 29 38q12 12 32 12q21 0 32 -12q11 -13 11 -31q0 -21 -12 -36t-31 -25l-125 -72z" />
    <glyph glyph-name="uni0156" unicode="&#x156;" horiz-adv-x="570" 
d="M26 13l-8 -6q16 4 25 12q9 7 13 25t6 51q1 22 1 92v366q0 70 -1 92q-2 33 -6 51t-13 25q-9 8 -25 12v13h210q70 0 124 -9q53 -9 91 -30t57 -55t19 -84q0 -47 -18 -83q-18 -35 -51 -61t-78 -39q-47 -14 -98 -17q35 -5 59 -13q27 -9 48 -27t36 -49q16 -33 26 -78
q12 -55 21 -90t18 -54t18 -27q8 -7 21 -7q12 0 22 5t14 9l9 -9q-3 -4 -10 -10q-8 -7 -19 -12q-10 -5 -28 -10q-15 -4 -39 -4q-36 0 -62 9t-44 32q-18 22 -30 59q-11 33 -19 90q-9 68 -19 102q-10 38 -24 57q-14 20 -28 24q-17 5 -34 5h-4v-178q0 -69 1 -91q1 -33 6 -51
q4 -17 14 -25q9 -7 24 -12v-13h-225v13zM199 728v-348h41q83 0 114 43q32 44 32 132q0 96 -37 134q-37 39 -123 39h-27zM320 -123l-5 -3q-1 -5 -11 -13q-8 -7 -27 -7q-20 0 -36 14q-15 13 -15 38t18 40t41 15q15 0 26 -4q12 -4 23 -14q10 -8 16 -24q6 -15 6 -34
q0 -41 -25 -66t-72 -33l-5 12q42 9 57 29q15 19 15 36q0 13 -6 14z" />
    <glyph glyph-name="uni0157" unicode="&#x157;" horiz-adv-x="369" 
d="M21 13l1 -2q12 5 19 10q8 7 11 16q3 10 3 29v48v202q0 25 -1 33q-1 11 -6 19q-4 7 -13 10t-24 6v15l161 87v-87q24 25 42 42q15 14 32 27q14 11 26 14t26 3q25 0 39 -13q15 -14 15 -36q0 -29 -16 -42q-17 -14 -36 -14q-16 0 -25 6t-17 14l-14 14q-6 6 -16 6q-6 0 -9 -1
q-4 -1 -10 -6t-15 -12t-21 -21v-264q0 -36 1 -48q1 -16 5 -29q3 -10 12 -16q8 -5 24 -10v-13h-194v13zM148 -119l-5 -3q-1 -5 -11 -13q-8 -7 -27 -7q-20 0 -36 14q-15 14 -15 38q0 25 18 40t41 15q15 0 26 -4q12 -4 23 -14q10 -8 16 -24q6 -15 6 -34q0 -41 -25 -66t-72 -33
l-5 12q42 9 57 29q15 19 15 36q0 13 -6 14z" />
    <glyph glyph-name="Rcaron" unicode="&#x158;" horiz-adv-x="570" 
d="M26 13l-8 -6q16 4 25 12q9 7 13 25t6 51q1 22 1 92v366q0 70 -1 92q-2 33 -6 51t-13 25q-9 8 -25 12v13h210q70 0 124 -9q53 -9 91 -30t57 -55t19 -84q0 -47 -18 -83q-18 -35 -51 -61t-78 -39q-47 -14 -98 -17q35 -5 59 -13q27 -9 48 -27t36 -49q16 -33 26 -78
q12 -55 21 -90t18 -54t18 -27q8 -7 21 -7q12 0 22 5t14 9l9 -9q-3 -4 -10 -10q-8 -7 -19 -12q-10 -5 -28 -10q-15 -4 -39 -4q-36 0 -62 9t-44 32q-18 22 -30 59q-11 33 -19 90q-9 68 -19 102q-10 38 -24 57q-14 20 -28 24q-17 5 -34 5h-4v-178q0 -69 1 -91q1 -33 6 -51
q4 -17 14 -25q9 -7 24 -12v-13h-225v13zM199 728v-348h41q83 0 114 43q32 44 32 132q0 96 -37 134q-37 39 -123 39h-27zM154 931l126 -42l126 42l5 -13l-131 -126l-131 126z" />
    <glyph glyph-name="rcaron" unicode="&#x159;" horiz-adv-x="369" 
d="M21 13l1 -2q12 5 19 10q8 7 11 16q3 10 3 29v48v202q0 25 -1 33q-1 11 -6 19q-4 7 -13 10t-24 6v15l161 87v-87q24 25 42 42q15 14 32 27q14 11 26 14t26 3q25 0 39 -13q15 -14 15 -36q0 -29 -16 -42q-17 -14 -36 -14q-16 0 -25 6t-17 14l-14 14q-6 6 -16 6q-6 0 -9 -1
q-4 -1 -10 -6t-15 -12t-21 -21v-264q0 -36 1 -48q1 -16 5 -29q3 -10 12 -16q8 -5 24 -10v-13h-194v13zM97 702l107 -64l107 64l11 -9l-118 -174l-118 174z" />
    <glyph glyph-name="Sacute" unicode="&#x15a;" horiz-adv-x="494" 
d="M221 -11l-2 -3q-30 0 -56 8q-21 7 -42 17q-6 3 -17 9t-16 8q-16 8 -27 8q-5 0 -9 -6t-6 -14h-14v209h16q16 -105 57 -165t117 -60q67 0 102 29t35 93q0 33 -11 63q-10 27 -32 54q-21 25 -54 51q-42 32 -75 56q-43 36 -57 49q-26 23 -46 51q-18 25 -31 59q-12 31 -12 72
q0 42 13 74t38 57t60 38q37 14 82 14q25 0 46 -6q23 -7 38 -12q16 -6 30 -12t24 -6q11 0 14 6q4 8 5 15h14v-161h-16q-18 81 -57 120t-97 39q-57 0 -81 -25q-24 -26 -24 -69t36 -87q35 -42 101 -93q41 -29 75 -57t60 -60q27 -33 41 -67q15 -36 15 -76q0 -61 -22 -102
q-23 -43 -57 -68q-36 -27 -76 -38q-42 -12 -82 -12zM138 801l112 86q15 12 27 17q13 6 28 6q20 0 32 -13t12 -30q0 -20 -14 -37q-13 -16 -48 -22l-144 -20z" />
    <glyph glyph-name="sacute" unicode="&#x15b;" horiz-adv-x="353" 
d="M180 9l-1 -8q32 0 50 20q18 19 18 54q0 17 -4 29q-5 14 -15 27q-8 11 -29 28q-17 14 -47 30q-35 18 -59 35q-23 16 -36 36q-13 18 -19 42q-6 22 -6 53q0 25 9 47t26 39t39 27q21 10 48 10q16 0 30 -3q18 -4 26 -7t24 -7q12 -3 25 -3q14 0 17 14h15v-130h-15
q-16 62 -50 93q-33 30 -71 30q-62 0 -62 -58q0 -17 6 -29t18 -24t30 -24q12 -8 44 -25q41 -21 66 -39q27 -19 41 -39q15 -21 21 -45t6 -56q0 -30 -13 -55t-34 -43q-20 -17 -48 -28q-26 -10 -52 -10q-24 0 -42 6q-22 7 -32 13q-4 2 -12 6.5t-12 6.5q-10 6 -19 6
q-14 0 -17 -17h-16v149h15q21 -69 53 -111q31 -40 84 -40zM93 516l75 116q16 26 29 38q12 12 32 12q21 0 32 -12q11 -13 11 -31q0 -21 -12 -36t-31 -25l-125 -72z" />
    <glyph glyph-name="Scircumflex" unicode="&#x15c;" horiz-adv-x="494" 
d="M221 -11l-2 -3q-30 0 -56 8q-21 7 -42 17q-6 3 -17 9t-16 8q-16 8 -27 8q-5 0 -9 -6t-6 -14h-14v209h16q16 -105 57 -165t117 -60q67 0 102 29t35 93q0 33 -11 63q-10 27 -32 54q-21 25 -54 51q-42 32 -75 56q-43 36 -57 49q-26 23 -46 51q-18 25 -31 59q-12 31 -12 72
q0 42 13 74t38 57t60 38q37 14 82 14q25 0 46 -6q23 -7 38 -12q16 -6 30 -12t24 -6q11 0 14 6q4 8 5 15h14v-161h-16q-18 81 -57 120t-97 39q-57 0 -81 -25q-24 -26 -24 -69t36 -87q35 -42 101 -93q41 -29 75 -57t60 -60q27 -33 41 -67q15 -36 15 -76q0 -61 -22 -102
q-23 -43 -57 -68q-36 -27 -76 -38q-42 -12 -82 -12zM231 924l131 -126l-5 -13l-126 42l-126 -42l-5 13z" />
    <glyph glyph-name="scircumflex" unicode="&#x15d;" horiz-adv-x="353" 
d="M180 9l-1 -8q32 0 50 20q18 19 18 54q0 17 -4 29q-5 14 -15 27q-8 11 -29 28q-17 14 -47 30q-35 18 -59 35q-23 16 -36 36q-13 18 -19 42q-6 22 -6 53q0 25 9 47t26 39t39 27q21 10 48 10q16 0 30 -3q18 -4 26 -7t24 -7q12 -3 25 -3q14 0 17 14h15v-130h-15
q-16 62 -50 93q-33 30 -71 30q-62 0 -62 -58q0 -17 6 -29t18 -24t30 -24q12 -8 44 -25q41 -21 66 -39q27 -19 41 -39q15 -21 21 -45t6 -56q0 -30 -13 -55t-34 -43q-20 -17 -48 -28q-26 -10 -52 -10q-24 0 -42 6q-22 7 -32 13q-4 2 -12 6.5t-12 6.5q-10 6 -19 6
q-14 0 -17 -17h-16v149h15q21 -69 53 -111q31 -40 84 -40zM168 689l118 -175l-11 -9l-107 64l-107 -64l-11 9z" />
    <glyph glyph-name="uni015E" unicode="&#x15e;" horiz-adv-x="494" 
d="M237 -2l-21 -38q34 -6 57 -24t23 -42q0 -38 -39 -57t-122 -21l-2 15q39 8 62 15q24 8 24 23q0 14 -14 20q-15 7 -38 8l-4 7l52 94h22zM220 -12l-2 -3q-30 0 -56 8q-21 7 -42 17q-6 3 -17 9t-16 8q-16 8 -27 8q-4 0 -9 -6q-4 -6 -6 -14h-14v209h16q17 -105 57 -165
t117 -60q67 0 102 29t35 93q0 33 -11 63q-10 27 -32 54q-21 26 -54 51q-42 32 -75 56q-43 36 -57 49q-26 23 -46 51q-18 25 -31 59q-12 32 -12 72q0 42 13 74t38 57t60 38q37 14 82 14q25 0 46 -6q23 -7 38 -12q17 -6 30 -12t24 -6t14 6q4 7 5 15h14v-161h-16
q-18 81 -57 120t-97 39q-57 0 -81 -25t-24 -69t36 -87q35 -42 101 -93q40 -28 75 -57t60 -60q27 -33 41 -67q15 -36 15 -76q0 -61 -22 -102q-23 -43 -57 -68q-36 -27 -76 -38q-42 -12 -82 -12z" />
    <glyph glyph-name="uni015F" unicode="&#x15f;" horiz-adv-x="353" 
d="M180 2l-22 -41q34 -6 57 -24t23 -42q0 -74 -161 -79l-2 15q36 7 61 15q24 8 24 23q0 14 -14 20q-15 7 -39 8l-4 7l55 98h22zM180 9l-1 -8q32 0 50 20q18 19 18 54q0 17 -4 29q-5 14 -15 27q-8 11 -29 28q-17 14 -47 30q-35 18 -59 35q-23 16 -36 36q-13 18 -19 42
q-6 22 -6 53q0 25 9 47t26 39t39 27q21 10 48 10q16 0 30 -3q18 -4 26 -7t24 -7q12 -3 25 -3q14 0 17 14h15v-130h-15q-16 62 -50 93q-33 30 -71 30q-62 0 -62 -58q0 -17 6 -29t18 -24t30 -24q12 -8 44 -25q41 -21 66 -39q27 -19 41 -39q15 -21 21 -45t6 -56q0 -30 -13 -55
t-34 -43q-20 -17 -48 -28q-26 -10 -52 -10q-24 0 -42 6q-22 7 -32 13q-4 2 -12 6.5t-12 6.5q-10 6 -19 6q-14 0 -17 -17h-16v149h15q21 -69 53 -111q31 -40 84 -40z" />
    <glyph glyph-name="Scaron" unicode="&#x160;" horiz-adv-x="494" 
d="M221 -11l-2 -3q-30 0 -56 8q-21 7 -42 17q-6 3 -17 9t-16 8q-16 8 -27 8q-5 0 -9 -6t-6 -14h-14v209h16q16 -105 57 -165t117 -60q67 0 102 29t35 93q0 33 -11 63q-10 27 -32 54q-21 25 -54 51q-42 32 -75 56q-43 36 -57 49q-26 23 -46 51q-18 25 -31 59q-12 31 -12 72
q0 42 13 74t38 57t60 38q37 14 82 14q25 0 46 -6q23 -7 38 -12q16 -6 30 -12t24 -6q11 0 14 6q4 8 5 15h14v-161h-16q-18 81 -57 120t-97 39q-57 0 -81 -25q-24 -26 -24 -69t36 -87q35 -42 101 -93q41 -29 75 -57t60 -60q27 -33 41 -67q15 -36 15 -76q0 -61 -22 -102
q-23 -43 -57 -68q-36 -27 -76 -38q-42 -12 -82 -12zM105 934l126 -42l126 42l5 -13l-131 -126l-131 126z" />
    <glyph glyph-name="scaron" unicode="&#x161;" horiz-adv-x="353" 
d="M180 9l-1 -8q32 0 50 20q18 19 18 54q0 17 -4 29q-5 14 -15 27q-8 11 -29 28q-17 14 -47 30q-35 18 -59 35q-23 16 -36 36q-13 18 -19 42q-6 22 -6 53q0 25 9 47t26 39t39 27q21 10 48 10q16 0 30 -3q18 -4 26 -7t24 -7q12 -3 25 -3q14 0 17 14h15v-130h-15
q-16 62 -50 93q-33 30 -71 30q-62 0 -62 -58q0 -17 6 -29t18 -24t30 -24q12 -8 44 -25q41 -21 66 -39q27 -19 41 -39q15 -21 21 -45t6 -56q0 -30 -13 -55t-34 -43q-20 -17 -48 -28q-26 -10 -52 -10q-24 0 -42 6q-22 7 -32 13q-4 2 -12 6.5t-12 6.5q-10 6 -19 6
q-14 0 -17 -17h-16v149h15q21 -69 53 -111q31 -40 84 -40zM61 696l107 -64l107 64l11 -9l-118 -174l-118 174z" />
    <glyph glyph-name="Tcommaaccent" unicode="&#x162;" horiz-adv-x="556" 
d="M165 13h2q15 5 24 12q10 8 14 25q5 18 6 51q1 22 1 91v542q-49 0 -78 -7q-31 -7 -52 -24t-33 -45q-13 -31 -20 -70h-17l9 131q1 23 6 27q4 4 18 4h466q14 0 18 -4q5 -4 6 -27l11 -131h-17q-9 41 -21 70q-12 28 -33 45t-52 24q-29 7 -78 7v-542q0 -69 1 -91q2 -33 6 -51
q4 -17 14 -25q9 -7 24 -12v-13h-225v13zM310 -117l-5 -3q-1 -5 -11 -13q-8 -7 -27 -7q-20 0 -36 14q-15 14 -15 38q0 25 18 40t41 15q15 0 26 -4q12 -4 23 -14q10 -8 16 -24q6 -15 6 -34q0 -41 -25 -66t-72 -33l-5 12q42 9 57 29q15 19 15 36q0 13 -6 14z" />
    <glyph glyph-name="tcommaaccent" unicode="&#x163;" horiz-adv-x="296" 
d="M186 -10l-2 -2q-58 0 -90 30q-31 30 -31 81v355h-41v16q24 3 45 16q23 14 42 37q21 25 35 57q16 35 23 75h15v-181h90v-19h-90v-334q0 -57 8 -83q8 -24 39 -24q14 0 24 5t17 12l9 -10l-10 -10q-5 -5 -17 -10q-13 -5 -27 -8q-17 -3 -39 -3zM180 -119l-5 -3q-1 -5 -11 -13
q-8 -7 -27 -7q-20 0 -36 14q-15 14 -15 38q0 25 18 40t41 15q15 0 26 -4q12 -4 23 -14q10 -8 16 -24q6 -15 6 -34q0 -41 -25 -66t-72 -33l-5 12q42 9 57 29q15 19 15 36q0 13 -6 14z" />
    <glyph glyph-name="Tcaron" unicode="&#x164;" horiz-adv-x="556" 
d="M165 13h2q15 5 24 12q10 8 14 25q5 18 6 51q1 22 1 91v542q-49 0 -78 -7q-31 -7 -52 -24t-33 -45q-13 -31 -20 -70h-17l9 131q1 23 6 27q4 4 18 4h466q14 0 18 -4q5 -4 6 -27l11 -131h-17q-9 41 -21 70q-12 28 -33 45t-52 24q-29 7 -78 7v-542q0 -69 1 -91q2 -33 6 -51
q4 -17 14 -25q9 -7 24 -12v-13h-225v13zM155 937l126 -42l126 42l5 -13l-131 -126l-131 126z" />
    <glyph glyph-name="tcaron" unicode="&#x165;" horiz-adv-x="296" 
d="M186 -10l-2 -2q-58 0 -90 30q-31 30 -31 81v355h-41v16q24 3 45 16q23 14 42 37q21 25 35 57q16 35 23 75h15v-181h90v-19h-90v-334q0 -57 8 -83q8 -24 39 -24q14 0 24 5t17 12l9 -10l-10 -10q-5 -5 -17 -10q-13 -5 -27 -8q-17 -3 -39 -3zM215 536l4 138q1 40 14 57
q12 17 34 17q19 0 30 -12q11 -13 11 -32q0 -12 -4 -23q-6 -16 -10 -23l-67 -125z" />
    <glyph glyph-name="Tbar" unicode="&#x166;" horiz-adv-x="556" 
d="M89 430h377v-16h-377v16zM165 13h2q15 5 24 12q10 8 14 25q5 18 6 51q1 22 1 91v542q-49 0 -78 -7q-31 -7 -52 -24t-33 -45q-13 -31 -20 -70h-17l9 131q1 23 6 27q4 4 18 4h466q14 0 18 -4q5 -4 6 -27l11 -131h-17q-9 41 -21 70q-12 28 -33 45t-52 24q-29 7 -78 7v-542
q0 -69 1 -91q2 -33 6 -51q4 -17 14 -25q9 -7 24 -12v-13h-225v13z" />
    <glyph glyph-name="tbar" unicode="&#x167;" horiz-adv-x="296" 
d="M23 311h248v-17h-248v17zM186 -10l-2 -2q-58 0 -90 30q-31 30 -31 81v355h-41v16q24 3 45 16q23 14 42 37q21 25 35 57q16 35 23 75h15v-181h90v-19h-90v-334q0 -57 8 -83q8 -24 39 -24q14 0 24 5t17 12l9 -10l-10 -10q-5 -5 -17 -10q-13 -5 -27 -8q-17 -3 -39 -3z" />
    <glyph glyph-name="Utilde" unicode="&#x168;" horiz-adv-x="571" 
d="M300 -16l-3 -4q-52 0 -97 14q-44 14 -75 42t-48 72q-17 45 -17 104v343q0 70 -1 92q-1 33 -6 51q-4 17 -12 25q-7 7 -21 12v13h219v-13q-15 -5 -24 -12t-13 -25t-6 -51q-1 -22 -1 -91v-365q0 -57 4 -89q5 -38 16 -59q12 -22 35 -33q21 -10 59 -10q93 0 134 48
q41 49 41 152v346q0 68 -1 90q-2 35 -7 51q-6 19 -18 29t-33 21v13h122v-13q-15 -11 -24 -21q-8 -10 -13 -28q-4 -18 -6 -51q-1 -22 -1 -90v-346q0 -108 -47 -163q-46 -54 -156 -54zM281 885v-4q39 0 54 -1t42 -1q13 0 27 9q12 8 28 29l12 -4q-9 -50 -28 -79
q-20 -30 -48 -30q-22 0 -48 2t-46 2q-14 0 -25 -7t-25 -27l-12 4q13 56 30 82q16 25 39 25z" />
    <glyph glyph-name="utilde" unicode="&#x169;" horiz-adv-x="469" 
d="M157 -9l5 -5q-17 0 -35 6q-19 6 -33 19t-25 36q-10 21 -10 57v211q0 25 -1 33q-1 11 -6 19q-4 7 -13 10t-24 6v15l161 87v-395q0 -32 9 -47t23 -15q18 0 41 21q20 18 51 53v215q0 25 -1 33q-1 11 -6 19q-4 7 -13 10t-24 6v15l161 87v-372v-48q0 -19 3 -29t9 -16
q5 -5 18 -10v-13h-151v81q-36 -39 -67 -64t-72 -25zM213 642l-2 -5q11 0 27 -2t23 -3l21 -3q14 -2 22 -2q14 0 24 9q9 8 27 29l12 -6q-11 -42 -29 -76q-16 -31 -48 -31q-10 0 -24 2t-21 4t-21 4t-24 2q-14 0 -23 -9q-15 -15 -26 -28l-12 6q16 50 32 80q15 29 42 29z" />
    <glyph glyph-name="Umacron" unicode="&#x16a;" horiz-adv-x="571" 
d="M300 -16l-3 -4q-52 0 -97 14q-44 14 -75 42t-48 72q-17 45 -17 104v343q0 70 -1 92q-1 33 -6 51q-4 17 -12 25q-7 7 -21 12v13h219v-13q-15 -5 -24 -12t-13 -25t-6 -51q-1 -22 -1 -91v-365q0 -57 4 -89q5 -38 16 -59q12 -22 35 -33q21 -10 59 -10q93 0 134 48
q41 49 41 152v346q0 68 -1 90q-2 35 -7 51q-6 19 -18 29t-33 21v13h122v-13q-15 -11 -24 -21q-8 -10 -13 -28q-4 -18 -6 -51q-1 -22 -1 -90v-346q0 -108 -47 -163q-46 -54 -156 -54zM431 806h-219v53h219v-53z" />
    <glyph glyph-name="umacron" unicode="&#x16b;" horiz-adv-x="469" 
d="M157 -9l5 -5q-17 0 -35 6q-19 6 -33 19t-25 36q-10 21 -10 57v211q0 25 -1 33q-1 11 -6 19q-4 7 -13 10t-24 6v15l161 87v-395q0 -32 9 -47t23 -15q18 0 41 21q20 18 51 53v215q0 25 -1 33q-1 11 -6 19q-4 7 -13 10t-24 6v15l161 87v-372v-48q0 -19 3 -29t9 -16
q5 -5 18 -10v-13h-151v81q-36 -39 -67 -64t-72 -25zM362 610v-51h-206v51h206z" />
    <glyph glyph-name="Ubreve" unicode="&#x16c;" horiz-adv-x="571" 
d="M300 -16l-3 -4q-52 0 -97 14q-44 14 -75 42t-48 72q-17 45 -17 104v343q0 70 -1 92q-1 33 -6 51q-4 17 -12 25q-7 7 -21 12v13h219v-13q-15 -5 -24 -12t-13 -25t-6 -51q-1 -22 -1 -91v-365q0 -57 4 -89q5 -38 16 -59q12 -22 35 -33q21 -10 59 -10q93 0 134 48
q41 49 41 152v346q0 68 -1 90q-2 35 -7 51q-6 19 -18 29t-33 21v13h122v-13q-15 -11 -24 -21q-8 -10 -13 -28q-4 -18 -6 -51q-1 -22 -1 -90v-346q0 -108 -47 -163q-46 -54 -156 -54zM322 874l1 -1q36 0 54 9q19 9 29 33h16q0 -55 -26 -87t-74 -32q-47 0 -74 32t-26 89h16
q10 -23 30 -33q19 -10 54 -10z" />
    <glyph glyph-name="ubreve" unicode="&#x16d;" horiz-adv-x="469" 
d="M157 -9l5 -5q-17 0 -35 6q-19 6 -33 19t-25 36q-10 21 -10 57v211q0 25 -1 33q-1 11 -6 19q-4 7 -13 10t-24 6v15l161 87v-395q0 -32 9 -47t23 -15q18 0 41 21q20 18 51 53v215q0 25 -1 33q-1 11 -6 19q-4 7 -13 10t-24 6v15l161 87v-372v-48q0 -19 3 -29t9 -16
q5 -5 18 -10v-13h-151v81q-36 -39 -67 -64t-72 -25zM260 601l-1 -2q37 0 53 15t24 32h16q1 -21 -5 -43t-18 -38q-12 -17 -30 -27q-17 -10 -41 -10q-23 0 -42 11q-18 11 -30 27t-18 38q-6 20 -4 44h16q6 -17 24 -32t56 -15z" />
    <glyph glyph-name="Uring" unicode="&#x16e;" horiz-adv-x="571" 
d="M300 -16l-3 -4q-52 0 -97 14q-44 14 -75 42t-48 72q-17 45 -17 104v343q0 70 -1 92q-1 33 -6 51q-4 17 -12 25q-7 7 -21 12v13h219v-13q-15 -5 -24 -12t-13 -25t-6 -51q-1 -22 -1 -91v-365q0 -57 4 -89q5 -38 16 -59q12 -22 35 -33q21 -10 59 -10q93 0 134 48
q41 49 41 152v346q0 68 -1 90q-2 35 -7 51q-6 19 -18 29t-33 21v13h122v-13q-15 -11 -24 -21q-8 -10 -13 -28q-4 -18 -6 -51q-1 -22 -1 -90v-346q0 -108 -47 -163q-46 -54 -156 -54zM242 838q0 35 24 56t62 21t62 -21t24 -56t-24 -56t-62 -21t-62 21t-24 56zM287 838
q0 -61 42 -61t42 61t-42 61t-42 -61z" />
    <glyph glyph-name="uring" unicode="&#x16f;" horiz-adv-x="469" 
d="M157 -9l5 -5q-17 0 -35 6q-19 6 -33 19t-25 36q-10 21 -10 57v211q0 25 -1 33q-1 11 -6 19q-4 7 -13 10t-24 6v15l161 87v-395q0 -32 9 -47t23 -15q18 0 41 21q20 18 51 53v215q0 25 -1 33q-1 11 -6 19q-4 7 -13 10t-24 6v15l161 87v-372v-48q0 -19 3 -29t9 -16
q5 -5 18 -10v-13h-151v81q-36 -39 -67 -64t-72 -25zM177 598q0 35 24 56t58 21t58 -21t24 -56t-24 -56t-58 -21t-58 21t-24 56zM222 598v1q0 -61 37 -61t37 61q0 31 -10 45q-10 15 -27 15q-37 0 -37 -61z" />
    <glyph glyph-name="Uhungarumlaut" unicode="&#x170;" horiz-adv-x="571" 
d="M300 -16l-3 -4q-52 0 -97 14q-44 14 -75 42t-48 72q-17 45 -17 104v343q0 70 -1 92q-1 33 -6 51q-4 17 -12 25q-7 7 -21 12v13h219v-13q-15 -5 -24 -12t-13 -25t-6 -51q-1 -22 -1 -91v-365q0 -57 4 -89q5 -38 16 -59q12 -22 35 -33q21 -10 59 -10q93 0 134 48
q41 49 41 152v346q0 68 -1 90q-2 35 -7 51q-6 19 -18 29t-33 21v13h122v-13q-15 -11 -24 -21q-8 -10 -13 -28q-4 -18 -6 -51q-1 -22 -1 -90v-346q0 -108 -47 -163q-46 -54 -156 -54zM356 815l49 75q17 24 27 35q12 14 32 14t29 -13q9 -14 9 -24q0 -18 -12 -30t-30 -21
l-96 -47zM230 814l51 75q13 21 26 35q12 14 33 14q20 0 29 -13t9 -24q0 -18 -13 -30t-30 -21l-97 -47z" />
    <glyph glyph-name="uhungarumlaut" unicode="&#x171;" horiz-adv-x="469" 
d="M157 -9l5 -5q-17 0 -35 6q-19 6 -33 19t-25 36q-10 21 -10 57v211q0 25 -1 33q-1 11 -6 19q-4 7 -13 10t-24 6v15l161 87v-395q0 -32 9 -47t23 -15q18 0 41 21q20 18 51 53v215q0 25 -1 33q-1 11 -6 19q-4 7 -13 10t-24 6v15l161 87v-372v-48q0 -19 3 -29t9 -16
q5 -5 18 -10v-13h-151v81q-36 -39 -67 -64t-72 -25zM307 528l33 125q6 25 16 39q10 15 33 15q19 0 30 -12q10 -11 10 -28q0 -24 -21 -45l-91 -99zM179 527l33 125q6 25 16 39q10 15 33 15q19 0 30 -12q10 -11 10 -28q0 -26 -21 -45l-91 -99z" />
    <glyph glyph-name="Uogonek" unicode="&#x172;" horiz-adv-x="571" 
d="M340 -170l-5 -9q-37 0 -66 18q-28 18 -28 47q0 16 9 30t23 26q13 11 32 21q18 9 36 15q-12 -3 -22 -3h-21q-52 0 -97 14q-43 13 -75 42t-48 72q-17 45 -17 104v343q0 70 -1 92q-2 33 -6 51q-4 17 -12 25t-21 12v13h219v-13q-15 -4 -24 -12q-9 -7 -13 -25q-5 -18 -6 -51
q-1 -22 -1 -91v-365q0 -57 4 -89q5 -38 16 -59q12 -22 35 -33q21 -10 59 -10q94 0 134 48q41 49 41 152v346q0 68 -1 90q-2 35 -7 51q-6 19 -18 29q-12 11 -33 21v13h122v-13q-15 -10 -24 -21q-8 -10 -13 -28t-6 -51q-1 -22 -1 -90v-346q0 -74 -21 -122q-21 -49 -69 -71
q-24 -11 -42 -33t-18 -60q0 -22 11 -36q10 -13 29 -13q10 0 17 5q4 3 14 11l9 -10q-1 -1 -5 -4.5t-6 -5.5q-5 -5 -17 -12t-27 -11t-39 -4z" />
    <glyph glyph-name="uogonek" unicode="&#x173;" horiz-adv-x="469" 
d="M157 -9l6 -6q-17 0 -35 6q-19 6 -33 19t-25 36q-10 21 -10 57v211q0 25 -1 33q-1 11 -6 19q-4 7 -13 10t-24 6v15l161 87v-395q0 -32 9 -47t23 -15q19 0 41 21q20 18 51 53v215q0 25 -1 33q-1 11 -6 19q-4 7 -13 10t-24 6v15l161 87v-372v-48q0 -18 3 -29q3 -10 9 -16
q5 -5 18 -10v-13h-130q-10 -13 -16 -34t-6 -54q0 -22 11 -36q10 -13 29 -13q10 0 17 5q4 3 14 11l9 -10q-1 -1 -5 -4.5t-6 -5.5q-5 -5 -17 -12t-27 -11t-39 -4q-42 0 -69 18t-27 47q0 21 12 39q12 17 29 30q17 12 36 21q23 11 33 14v81q-36 -39 -67 -64t-72 -25z" />
    <glyph glyph-name="Wcircumflex" unicode="&#x174;" horiz-adv-x="796" 
d="M72 623l-2 -9q-12 38 -15 47q-7 20 -12 32q-6 14 -13 21q-9 9 -18 14v14h204v-14q-13 -3 -19 -7q-8 -5 -9 -13t2 -24q2 -11 11 -39l138 -467l58 187l-77 252q-7 21 -15 47q-6 20 -12 33t-14 21q-7 8 -18 12v14h202v-14q-13 -3 -18 -7q-6 -4 -7 -13q-1 -8 2 -24
q2 -11 11 -41l32 -117l27 92q13 46 14 72q2 29 -28 42v14h92v-14q-12 -5 -17 -9q-6 -5 -12 -16q-6 -13 -12 -31q-2 -6 -7 -24t-9 -30l-37 -124l87 -318l120 441q6 22 9 41q3 18 0 33q-3 14 -14 24q-10 9 -33 15v14h119v-14q-12 -6 -17 -9q-8 -5 -15 -16q-8 -12 -15 -33
q-6 -17 -16 -55l-171 -630h-34l-106 349l-107 -349h-33zM415 918l131 -126l-5 -13l-126 42l-126 -42l-5 13z" />
    <glyph glyph-name="wcircumflex" unicode="&#x175;" horiz-adv-x="596" 
d="M60 355l-2 -2q-3 9 -9 27.5t-8 25.5q-5 15 -11 30q-4 10 -9 15t-12 8v13h177v-13q-11 -2 -17 -6q-5 -4 -7 -15q-2 -10 3 -30t15 -51l68 -214l49 135l-23 76q-4 12 -9 30t-7 24q-5 15 -11 30q-5 10 -9 15q-4 4 -12 7v13h180v-13q-10 -2 -18 -6q-7 -4 -10 -15t0 -30t12 -51
l57 -203l56 181q11 37 16 64q4 23 1 37t-13 18q-11 5 -25 6v13h104v-13q-10 -3 -15 -7q-6 -4 -12 -17q-7 -15 -14 -36q-10 -32 -21 -65l-106 -343h-33l-78 258l-94 -258h-31zM316 695l118 -175l-11 -9l-107 64l-107 -64l-11 9z" />
    <glyph glyph-name="Ycircumflex" unicode="&#x176;" horiz-adv-x="530" 
d="M160 13l-3 -2q15 5 24 12q10 8 14 25q5 18 6 51q1 22 1 91v180l-115 254q-16 41 -33 67q-16 25 -45 45v13h222v-13q-23 -8 -27 -24t6 -43l116 -266l91 220q11 28 18 50q6 18 4 32q-2 13 -12 20q-11 7 -30 12v13h120v-13q-11 -5 -18 -9q-6 -4 -16 -15q-8 -10 -19 -31
q-9 -18 -25 -58l-102 -240v-192q0 -69 1 -91q2 -33 6 -51q4 -17 14 -25q9 -7 24 -12v-13h-222v13zM306 925l131 -126l-5 -13l-126 42l-126 -42l-5 13z" />
    <glyph glyph-name="ycircumflex" unicode="&#x177;" horiz-adv-x="420" 
d="M79 -165l2 -1q-32 0 -48 14q-15 14 -15 35t11 30t26 9q13 0 23 -5q12 -6 17 -10t15 -10q8 -5 20 -5q8 0 15 3q9 4 17 13q10 12 20 30t24 53l-144 370q-17 41 -21 52q-9 22 -13 30q-7 12 -10 15q-4 4 -12 7v13h190v-13q-10 -1 -18 -6t-9 -15q-1 -9 2 -30q3 -20 15 -51
l76 -215l67 191q13 39 18 63q5 25 2 37q-3 13 -12 18q-9 4 -23 6v13h97v-13q-7 -1 -13 -6t-12 -18q-7 -16 -15 -37l-24 -64l-125 -353q-16 -43 -33 -72q-15 -26 -35 -46q-17 -17 -36 -25q-17 -7 -39 -7zM242 696l118 -175l-11 -9l-107 64l-107 -64l-11 9z" />
    <glyph glyph-name="Ydieresis" unicode="&#x178;" horiz-adv-x="530" 
d="M160 13l-3 -2q15 5 24 12q10 8 14 25q5 18 6 51q1 22 1 91v180l-115 254q-16 41 -33 67q-16 25 -45 45v13h222v-13q-23 -8 -27 -24t6 -43l116 -266l91 220q11 28 18 50q6 18 4 32q-2 13 -12 20q-11 7 -30 12v13h120v-13q-11 -5 -18 -9q-6 -4 -16 -15q-8 -10 -19 -31
q-9 -18 -25 -58l-102 -240v-192q0 -69 1 -91q2 -33 6 -51q4 -17 14 -25q9 -7 24 -12v-13h-222v13zM390 793v-1q-27 0 -45 18t-18 47q0 26 18 44t45 18q26 0 44 -18t18 -43q0 -29 -18 -47t-44 -18zM222 792v-1q-26 0 -44 18t-18 47q0 26 18 44t44 18q27 0 45 -18t18 -43
q0 -29 -18 -47t-45 -18z" />
    <glyph glyph-name="Zacute" unicode="&#x179;" horiz-adv-x="525" 
d="M322 734l-46 -1q-59 0 -95 -9q-37 -9 -60 -25q-25 -17 -39 -40q-11 -17 -31 -54h-15l27 144h415l-301 -734h60q64 0 109 8q41 7 69 26t44 48q17 30 33 75h15l-26 -172h-457zM174 803l112 86q15 12 27 17q13 6 28 6q20 0 32 -13t12 -30q0 -20 -14 -37q-13 -16 -48 -22
l-144 -20z" />
    <glyph glyph-name="zacute" unicode="&#x17a;" horiz-adv-x="390" 
d="M349 -13l-4 -3q-5 3 -17 7q-7 2 -25 4q-22 2 -43 2h-69h-178l219 459h-26q-46 0 -75 -6t-45 -18q-17 -12 -26 -32t-18 -45h-15l24 132q6 -4 19 -7q9 -2 30 -4q24 -2 43 -2h63h161l-223 -459h41q44 0 71 6t45 21t30 39q9 18 25 59h15zM125 521l75 116q16 25 29 38
q12 12 32 12q21 0 32 -12q11 -13 11 -31q0 -21 -12 -36t-31 -25l-125 -72z" />
    <glyph glyph-name="Zdotaccent" unicode="&#x17b;" horiz-adv-x="525" 
d="M322 734l-46 -1q-59 0 -95 -9q-37 -9 -60 -25q-25 -17 -39 -40q-11 -17 -31 -54h-15l27 144h415l-301 -734h60q64 0 109 8q41 7 69 26t44 48q17 30 33 75h15l-26 -172h-457zM257 793l-2 2q-28 0 -48 20q-19 19 -19 48q0 27 20 47t48 20q29 0 48 -19q20 -20 20 -48
q0 -29 -19 -49q-19 -21 -48 -21z" />
    <glyph glyph-name="zdotaccent" unicode="&#x17c;" horiz-adv-x="390" 
d="M349 -13l-4 -3q-5 3 -17 7q-7 2 -25 4q-22 2 -43 2h-69h-178l219 459h-26q-46 0 -75 -6t-45 -18q-17 -12 -26 -32t-18 -45h-15l24 132q6 -4 19 -7q9 -2 30 -4q24 -2 43 -2h63h161l-223 -459h41q44 0 71 6t45 21t30 39q9 18 25 59h15zM200 538l-2 -3q-28 0 -48 20
q-19 19 -19 48q0 28 20 48t48 20q29 0 48 -19q20 -20 20 -46q0 -29 -19 -48q-20 -20 -48 -20z" />
    <glyph glyph-name="Zcaron" unicode="&#x17d;" horiz-adv-x="525" 
d="M322 734l-46 -1q-59 0 -95 -9q-37 -9 -60 -25q-25 -17 -39 -40q-11 -17 -31 -54h-15l27 144h415l-301 -734h60q64 0 109 8q41 7 69 26t44 48q17 30 33 75h15l-26 -172h-457zM131 936l126 -42l126 42l5 -13l-131 -126l-131 126z" />
    <glyph glyph-name="zcaron" unicode="&#x17e;" horiz-adv-x="390" 
d="M349 -13l-4 -3q-5 3 -17 7q-7 2 -25 4q-22 2 -43 2h-69h-178l219 459h-26q-46 0 -75 -6t-45 -18q-17 -12 -26 -32t-18 -45h-15l24 132q6 -4 19 -7q9 -2 30 -4q24 -2 43 -2h63h161l-223 -459h41q44 0 71 6t45 21t30 39q9 18 25 59h15zM92 701l107 -64l107 64l11 -9
l-118 -174l-118 174z" />
    <glyph glyph-name="uni0192" unicode="&#x192;" horiz-adv-x="440" 
d="M86 475l60 -2l11 90q8 59 25 97q18 39 42 63q25 25 51 35q28 11 53 11q48 0 79 -18t31 -53q0 -12 -10 -25t-33 -13q-26 0 -35 11q-10 11 -14 35q-6 28 -11 38q-5 9 -14 9q-17 0 -27 -25q-10 -26 -18 -93l-19 -162h86v-19h-88l-36 -318q-7 -67 -24 -115q-16 -46 -41 -79
q-24 -32 -54 -45q-31 -14 -61 -14q-23 0 -42 4q-22 5 -37 13q-17 9 -27 22t-10 30q0 14 9 27q9 14 32 14q26 0 35 -12q10 -13 14 -36q5 -27 12 -36t20 -9q11 0 18 9t15 32q8 25 14 62q6 40 12 100l42 353h-60v19z" />
    <glyph glyph-name="Aringacute" unicode="&#x1fa;" 
d="M12 13v-4q9 4 18 11q8 6 15 21q7 14 15 38q8 23 18 60l139 496l-11 37q-11 34 -23 47q-11 11 -27 16v13h153q11 0 14 -4q4 -6 8 -18l176 -601q17 -58 28 -81q12 -26 34 -30v-15h-210v15q23 3 28 20t-6 59l-38 127h-222l-22 -78q-9 -36 -11 -54q-3 -23 1 -37q5 -15 16 -24
q13 -10 34 -14v-13h-127v13zM338 232l-109 369l-104 -369h213zM162 860q0 35 24 56t62 21t62 -21t24 -56t-24 -56t-62 -21t-62 21t-24 56zM207 860q0 -61 42 -61t42 61t-42 61t-42 -61zM154 966l112 86q15 12 27 17q13 6 28 6q20 0 32 -13q12 -14 12 -30q0 -20 -14 -37
q-13 -16 -48 -22l-144 -20z" />
    <glyph glyph-name="aringacute" unicode="&#x1fb;" horiz-adv-x="434" 
d="M138 -10l-7 -7q-48 0 -79 29q-30 28 -30 81q0 35 15 58q14 21 41 37q26 15 57 27q29 11 61 27l2 1l18 9q10 5 17 12q7 8 12 21q5 15 5 36v78q0 37 -14 51t-42 14q-20 0 -33 -15q-12 -14 -25 -44q-6 -20 -16 -30q-11 -11 -33 -11q-20 0 -32 12t-12 29q0 31 39 54
q40 23 111 23q39 0 72 -6t57 -21q23 -15 37 -39q14 -25 14 -60v-238q0 -40 1 -53q2 -22 4 -30q3 -10 9 -13t14 -3t14 3q4 2 10 6l5 -11q-8 -6 -27 -15t-58 -9q-74 0 -86 59l-1 -1q-24 -24 -51 -43q-25 -18 -69 -18zM140 114h-3q0 -97 49 -97q11 0 26 12q11 9 36 32v197
q-7 -13 -21 -19q-13 -6 -30 -15h-2q-31 -16 -43 -40t-12 -70zM113 596q0 35 24 56t58 21t58 -21t24 -56t-24 -56t-58 -21t-58 21t-24 56zM158 596v1q0 -61 37 -61t37 61q0 31 -10 45q-10 15 -27 15q-37 0 -37 -61zM102 701l112 86q15 12 27 17q13 6 28 6q20 0 32 -13t12 -30
q0 -20 -14 -37q-13 -16 -48 -22l-144 -20z" />
    <glyph glyph-name="AEacute" unicode="&#x1fc;" horiz-adv-x="780" 
d="M592 327l2 -4q-4 18 -9 33t-15 27t-30 18q-21 7 -54 8v-396h30q58 0 96 6t62 21t39 42t27 70h18l-14 -123q-1 -22 -8 -27q-5 -4 -22 -4h-411v13q16 4 25 12q9 7 13 25q5 18 6 51q1 22 1 91v40h-201l-43 -107q-14 -31 -18 -51q-5 -21 -2 -32t12 -19q9 -7 23 -12v-12h-111
v12q12 6 17 9q7 4 15 15q7 9 18 32q13 25 26 56l225 555q11 29 6 41q-5 13 -34 17v13h410q11 0 15 -4q5 -5 9 -25l20 -110h-18q-13 37 -29 62q-15 25 -39 38q-23 13 -58 19t-87 6h-20v-306q34 1 54 9t30 18t15 26q3 10 9 32h14v-185h-14zM347 244v480l-194 -480h194z
M421 800l112 86q15 12 27 17q14 6 28 6q20 0 32 -13q12 -14 12 -30q0 -20 -14 -37q-13 -16 -48 -22l-144 -20z" />
    <glyph glyph-name="aeacute" unicode="&#x1fd;" horiz-adv-x="650" 
d="M142 -10v-9q-52 0 -84 29q-31 28 -31 81q0 35 15 58q14 21 41 37q25 15 57 27q29 11 61 27l2 1l18 9q10 5 17 12q8 8 12 21q5 15 5 36v78q0 37 -14 51t-42 14q-19 0 -33 -15q-12 -14 -25 -44q-6 -20 -16 -30q-11 -11 -33 -11q-20 0 -32 12t-12 29q0 31 39 54
q40 23 111 23q48 0 84 -10q38 -10 60 -33q26 23 54 33q30 11 51 11q45 0 74 -13q31 -14 50 -37q20 -25 29 -56q10 -33 11 -68h-233q-1 -8 -1 -25v-27q0 -51 6 -94q6 -45 19 -75q13 -31 36 -49q22 -18 57 -18q38 0 57 10q22 12 39 25l9 -13q-4 -3 -11.5 -8.5t-10.5 -8.5
q-10 -8 -27 -16q-15 -7 -35 -12q-17 -4 -47 -4q-51 0 -97 20q-45 20 -74 65l-23 -22q-21 -21 -30 -29q-15 -13 -27 -20q-14 -8 -31 -12q-16 -4 -45 -4zM448 460l-2 -1q-14 0 -24 -6q-11 -6 -20 -23q-9 -16 -15 -44q-6 -27 -9 -68h119q-1 32 -3 61q-2 27 -6 45q-4 17 -14 27
q-9 9 -26 9zM145 111l-1 -1q0 -97 48 -97q13 0 32 11t44 36l19 19q-15 27 -25 65q-9 36 -9 84v27q-7 -13 -21 -19t-30 -15h-2q-31 -16 -43 -40t-12 -70zM240 513l75 116q16 26 29 38q12 12 32 12q22 0 32 -12q11 -13 11 -31q0 -21 -12 -36t-31 -25l-125 -72z" />
    <glyph glyph-name="Oslashacute" unicode="&#x1fe;" horiz-adv-x="654" 
d="M327 -16l-3 -3q-36 0 -73 14q-36 13 -69 39l-33 -76l-16 8l35 79q-56 50 -94 135q-37 83 -37 193q0 90 25 161q26 72 66 123t93 78t105 27q73 0 138 -47l29 66l16 -8l-30 -69q60 -51 98 -133q39 -84 39 -197q0 -89 -25 -160q-25 -72 -66 -123q-40 -50 -93 -79
q-52 -28 -105 -28zM185 373v1q0 -144 23 -236l220 501q-20 55 -46 80q-28 26 -58 26q-28 0 -54 -23q-26 -22 -45 -69t-30 -117q-10 -67 -10 -163zM324 -2l1 -2q66 0 102 95q35 93 37 282q0 79 -7 135q-7 60 -21 105l-221 -502q36 -113 109 -113zM232 800l112 86q15 12 27 17
q14 6 28 6q20 0 32 -13q12 -14 12 -30q0 -20 -14 -37q-13 -16 -48 -22l-144 -20z" />
    <glyph glyph-name="oslashacute" unicode="&#x1ff;" horiz-adv-x="466" 
d="M306 380l-144 -290q11 -44 28 -63q18 -19 43 -19q20 0 35 12q16 13 26 39q10 25 16 71q6 43 6 107q0 45 -3 81q-4 42 -7 62zM299 405v-1q-10 34 -27 49q-16 15 -39 15q-19 0 -36 -12t-27 -39q-10 -25 -16 -71q-6 -44 -6 -108q0 -26 2 -66q2 -30 6 -54zM103 -29l-16 7
l27 55q-37 28 -63 77t-26 123q0 67 21 115t53 77q31 28 68 42t65 14q20 0 44 -6q23 -6 47 -20l22 43l15 -9l-22 -44q41 -28 71 -78q30 -51 30 -132q0 -67 -21 -113t-53 -75t-67 -42t-65 -13q-21 0 -50 8q-28 8 -53 24zM157 520l75 116q17 26 29 38t32 12q21 0 32 -12
q11 -13 11 -31q0 -21 -12 -36t-31 -25l-125 -72z" />
    <glyph glyph-name="uni0218" unicode="&#x218;" horiz-adv-x="494" 
d="M221 -11l-2 -3q-30 0 -56 8q-21 7 -42 17q-6 3 -17 9t-16 8q-16 8 -27 8q-5 0 -9 -6t-6 -14h-14v209h16q16 -105 57 -165t117 -60q67 0 102 29t35 93q0 33 -11 63q-10 27 -32 54q-21 25 -54 51q-42 32 -75 56q-43 36 -57 49q-26 23 -46 51q-18 25 -31 59q-12 31 -12 72
q0 42 13 74t38 57t60 38q37 14 82 14q25 0 46 -6q23 -7 38 -12q16 -6 30 -12t24 -6q11 0 14 6q4 8 5 15h14v-161h-16q-18 81 -57 120t-97 39q-57 0 -81 -25q-24 -26 -24 -69t36 -87q35 -42 101 -93q41 -29 75 -57t60 -60q27 -33 41 -67q15 -36 15 -76q0 -61 -22 -102
q-23 -43 -57 -68q-36 -27 -76 -38q-42 -12 -82 -12zM262 -120l-5 -3q-1 -5 -11 -13q-8 -7 -27 -7q-20 0 -36 14q-15 13 -15 38t18 40t41 15q15 0 26 -4q12 -4 23 -14q10 -8 16 -24q6 -15 6 -34q0 -41 -25 -66q-25 -26 -72 -33l-5 12q42 9 57 29t15 36q0 12 -6 14z" />
    <glyph glyph-name="uni0219" unicode="&#x219;" horiz-adv-x="353" 
d="M180 9l-1 -8q32 0 50 20q18 19 18 54q0 17 -4 29q-5 14 -15 27q-8 11 -29 28q-17 14 -47 30q-35 18 -59 35q-23 16 -36 36q-13 18 -19 42q-6 22 -6 53q0 25 9 47t26 39t39 27q21 10 48 10q16 0 30 -3q18 -4 26 -7t24 -7q12 -3 25 -3q14 0 17 14h15v-130h-15
q-16 62 -50 93q-33 30 -71 30q-62 0 -62 -58q0 -17 6 -29t18 -24t30 -24q12 -8 44 -25q41 -21 66 -39q27 -19 41 -39q15 -21 21 -45t6 -56q0 -30 -13 -55t-34 -43q-20 -17 -48 -28q-26 -10 -52 -10q-24 0 -42 6q-22 7 -32 13q-4 2 -12 6.5t-12 6.5q-10 6 -19 6
q-14 0 -17 -17h-16v149h15q21 -69 53 -111q31 -40 84 -40zM196 -125l-5 -3q-1 -5 -11 -13q-8 -7 -27 -7q-20 0 -36 14q-15 14 -15 38q0 25 18 40t41 15q15 0 26 -4q12 -4 23 -14q10 -8 16 -24q6 -15 6 -34q0 -41 -25 -66t-72 -33l-5 12q42 9 57 29q15 19 15 36q0 13 -6 14z
" />
    <glyph glyph-name="uni021A" unicode="&#x21a;" horiz-adv-x="556" 
d="M165 13h2q15 5 24 12q10 8 14 25q5 18 6 51q1 22 1 91v542q-49 0 -78 -7q-31 -7 -52 -24t-33 -45q-13 -31 -20 -70h-17l9 131q1 23 6 27q4 4 18 4h466q14 0 18 -4q5 -4 6 -27l11 -131h-17q-9 41 -21 70q-12 28 -33 45t-52 24q-29 7 -78 7v-542q0 -69 1 -91q2 -33 6 -51
q4 -17 14 -25q9 -7 24 -12v-13h-225v13zM310 -117l-5 -3q-1 -5 -11 -13q-8 -7 -27 -7q-20 0 -36 14q-15 14 -15 38q0 25 18 40t41 15q15 0 26 -4q12 -4 23 -14q10 -8 16 -24q6 -15 6 -34q0 -41 -25 -66t-72 -33l-5 12q42 9 57 29q15 19 15 36q0 13 -6 14z" />
    <glyph glyph-name="uni021B" unicode="&#x21b;" horiz-adv-x="296" 
d="M186 -10l-2 -2q-58 0 -90 30q-31 30 -31 81v355h-41v16q24 3 45 16q23 14 42 37q21 25 35 57q16 35 23 75h15v-181h90v-19h-90v-334q0 -57 8 -83q8 -24 39 -24q14 0 24 5t17 12l9 -10l-10 -10q-5 -5 -17 -10q-13 -5 -27 -8q-17 -3 -39 -3zM180 -119l-5 -3q-1 -5 -11 -13
q-8 -7 -27 -7q-20 0 -36 14q-15 14 -15 38q0 25 18 40t41 15q15 0 26 -4q12 -4 23 -14q10 -8 16 -24q6 -15 6 -34q0 -41 -25 -66t-72 -33l-5 12q42 9 57 29q15 19 15 36q0 13 -6 14z" />
    <glyph glyph-name="uni0237" unicode="&#x237;" horiz-adv-x="232" 
d="M-24 -153l1 -1q-19 0 -34 12t-15 35q0 21 12 31q11 10 27 10q14 0 24 -7q11 -7 20 -17l17 -17q7 -7 15 -7q5 0 9 4q6 4 6 21v59v330q0 32 -1 42q-1 15 -6 24q-4 9 -13 13q-7 4 -24 7v15l160 87v-407q0 -31 -3 -56t-12 -49t-27 -45q-20 -23 -46 -41q-36 -25 -61 -34
q-24 -9 -49 -9z" />
    <glyph glyph-name="circumflex" unicode="&#x2c6;" horiz-adv-x="446" 
d="M228 697l118 -175l-11 -9l-107 64l-107 -64l-11 9z" />
    <glyph glyph-name="caron" unicode="&#x2c7;" horiz-adv-x="446" 
d="M121 704l107 -64l107 64l11 -9l-118 -174l-118 174z" />
    <glyph glyph-name="breve" unicode="&#x2d8;" horiz-adv-x="446" 
d="M223 606l-1 -2q36 0 53 15q16 15 24 32h16q1 -21 -5 -43t-18 -38t-30 -27q-17 -10 -41 -10q-23 0 -42 11q-18 10 -30 27q-12 16 -18 38q-6 20 -4 44h16q6 -17 24 -32t56 -15z" />
    <glyph glyph-name="dotaccent" unicode="&#x2d9;" horiz-adv-x="446" 
d="M223 541l-2 -3q-28 0 -48 20q-19 19 -19 48q0 28 20 48t48 20q29 0 48 -19q20 -20 20 -46q0 -29 -19 -48q-20 -20 -48 -20z" />
    <glyph glyph-name="ring" unicode="&#x2da;" horiz-adv-x="446" 
d="M149 603q0 35 24 56t58 21t58 -21t24 -56t-24 -56t-58 -21t-58 21t-24 56zM194 603v1q0 -61 37 -61t37 61q0 31 -10 45q-10 15 -27 15q-37 0 -37 -61z" />
    <glyph glyph-name="ogonek" unicode="&#x2db;" horiz-adv-x="446" 
d="M237 -170l-3 -2q-38 0 -66 18t-28 47q0 23 13 39t32 30q16 12 39 22q25 11 37 14h24q-10 -12 -22 -34q-12 -21 -12 -54q0 -22 11 -36q10 -13 29 -13q10 0 17 5q4 3 14 11l9 -10q-1 -1 -5 -4.5t-6 -5.5q-5 -5 -17 -12t-27 -11t-39 -4z" />
    <glyph glyph-name="tilde" unicode="&#x2dc;" horiz-adv-x="446" 
d="M179 647l-2 -5q11 0 27 -2t23 -3l21 -3q14 -2 22 -2q14 0 24 9q9 8 27 29l12 -6q-11 -42 -29 -76q-16 -31 -48 -31q-10 0 -24 2t-21 4t-21 4t-24 2q-14 0 -23 -9q-15 -15 -26 -28l-12 6q16 50 32 80q15 29 42 29z" />
    <glyph glyph-name="hungarumlaut" unicode="&#x2dd;" horiz-adv-x="446" 
d="M236 533l33 125q6 25 16 39q11 15 33 15q20 0 30 -12q10 -11 10 -28q0 -24 -21 -45l-91 -99zM108 532l33 125q6 25 16 39q11 15 33 15q20 0 30 -12q10 -11 10 -28q0 -25 -21 -45l-91 -99z" />
    <glyph glyph-name="Wgrave" unicode="&#x1e80;" horiz-adv-x="796" 
d="M72 623l-2 -9q-12 38 -15 47q-7 20 -12 32q-6 14 -13 21q-9 9 -18 14v14h204v-14q-13 -3 -19 -7q-8 -5 -9 -13t2 -24q2 -11 11 -39l138 -467l58 187l-77 252q-7 21 -15 47q-6 20 -12 33t-14 21q-7 8 -18 12v14h202v-14q-13 -3 -18 -7q-6 -4 -7 -13q-1 -8 2 -24
q2 -11 11 -41l32 -117l27 92q13 46 14 72q2 29 -28 42v14h92v-14q-12 -5 -17 -9q-6 -5 -12 -16q-6 -13 -12 -31q-2 -6 -7 -24t-9 -30l-37 -124l87 -318l120 441q6 22 9 41q3 18 0 33q-3 14 -14 24q-10 9 -33 15v14h119v-14q-12 -6 -17 -9q-8 -5 -15 -16q-8 -12 -15 -33
q-6 -17 -16 -55l-171 -630h-34l-106 349l-107 -349h-33zM361 802l-1 -1q-35 6 -49 23q-13 16 -13 38q0 16 12 30q12 13 32 13q14 0 28 -6q15 -7 27 -16l112 -88l-5 -13z" />
    <glyph glyph-name="wgrave" unicode="&#x1e81;" horiz-adv-x="596" 
d="M60 355l-2 -2q-3 9 -9 27.5t-8 25.5q-5 15 -11 30q-4 10 -9 15t-12 8v13h177v-13q-11 -2 -17 -6q-5 -4 -7 -15q-2 -10 3 -30t15 -51l68 -214l49 135l-23 76q-4 12 -9 30t-7 24q-5 15 -11 30q-5 10 -9 15q-4 4 -12 7v13h180v-13q-10 -2 -18 -6q-7 -4 -10 -15t0 -30t12 -51
l57 -203l56 181q11 37 16 64q4 23 1 37t-13 18q-11 5 -25 6v13h104v-13q-10 -3 -15 -7q-6 -4 -12 -17q-7 -15 -14 -36q-10 -32 -21 -65l-106 -343h-33l-78 258l-94 -258h-31zM253 584l1 -2q-18 10 -31 26q-12 15 -12 36q0 19 11 32q10 12 32 12q20 0 32 -12q12 -13 29 -38
l74 -116l-11 -10z" />
    <glyph glyph-name="Wacute" unicode="&#x1e82;" horiz-adv-x="796" 
d="M72 623l-2 -9q-12 38 -15 47q-7 20 -12 32q-6 14 -13 21q-9 9 -18 14v14h204v-14q-13 -3 -19 -7q-8 -5 -9 -13t2 -24q2 -11 11 -39l138 -467l58 187l-77 252q-7 21 -15 47q-6 20 -12 33t-14 21q-7 8 -18 12v14h202v-14q-13 -3 -18 -7q-6 -4 -7 -13q-1 -8 2 -24
q2 -11 11 -41l32 -117l27 92q13 46 14 72q2 29 -28 42v14h92v-14q-12 -5 -17 -9q-6 -5 -12 -16q-6 -13 -12 -31q-2 -6 -7 -24t-9 -30l-37 -124l87 -318l120 441q6 22 9 41q3 18 0 33q-3 14 -14 24q-10 9 -33 15v14h119v-14q-12 -6 -17 -9q-8 -5 -15 -16q-8 -12 -15 -33
q-6 -17 -16 -55l-171 -630h-34l-106 349l-107 -349h-33zM322 795l112 86q15 12 27 17q14 6 28 6q20 0 32 -13t12 -30q0 -20 -14 -37q-13 -16 -48 -22l-144 -20z" />
    <glyph glyph-name="wacute" unicode="&#x1e83;" horiz-adv-x="596" 
d="M60 355l-2 -2q-3 9 -9 27.5t-8 25.5q-5 15 -11 30q-4 10 -9 15t-12 8v13h177v-13q-11 -2 -17 -6q-5 -4 -7 -15q-2 -10 3 -30t15 -51l68 -214l49 135l-23 76q-4 12 -9 30t-7 24q-5 15 -11 30q-5 10 -9 15q-4 4 -12 7v13h180v-13q-10 -2 -18 -6q-7 -4 -10 -15t0 -30t12 -51
l57 -203l56 181q11 37 16 64q4 23 1 37t-13 18q-11 5 -25 6v13h104v-13q-10 -3 -15 -7q-6 -4 -12 -17q-7 -15 -14 -36q-10 -32 -21 -65l-106 -343h-33l-78 258l-94 -258h-31zM239 522l75 116q16 25 29 38q12 12 32 12q21 0 32 -12q11 -13 11 -31q0 -21 -12 -36t-31 -25
l-125 -72z" />
    <glyph glyph-name="Wdieresis" unicode="&#x1e84;" horiz-adv-x="796" 
d="M72 623l-2 -9q-12 38 -15 47q-7 20 -12 32q-6 14 -13 21q-9 9 -18 14v14h204v-14q-13 -3 -19 -7q-8 -5 -9 -13t2 -24q2 -11 11 -39l138 -467l58 187l-77 252q-7 21 -15 47q-6 20 -12 33t-14 21q-7 8 -18 12v14h202v-14q-13 -3 -18 -7q-6 -4 -7 -13q-1 -8 2 -24
q2 -11 11 -41l32 -117l27 92q13 46 14 72q2 29 -28 42v14h92v-14q-12 -5 -17 -9q-6 -5 -12 -16q-6 -13 -12 -31q-2 -6 -7 -24t-9 -30l-37 -124l87 -318l120 441q6 22 9 41q3 18 0 33q-3 14 -14 24q-10 9 -33 15v14h119v-14q-12 -6 -17 -9q-8 -5 -15 -16q-8 -12 -15 -33
q-6 -17 -16 -55l-171 -630h-34l-106 349l-107 -349h-33zM499 786v-1q-27 0 -45 18t-18 47q0 26 18 44t45 18q26 0 44 -18t18 -43q0 -29 -18 -47t-44 -18zM331 785v-1q-26 0 -44 18t-18 47q0 26 18 44t44 18q27 0 45 -18t18 -43q0 -29 -18 -47t-45 -18z" />
    <glyph glyph-name="wdieresis" unicode="&#x1e85;" horiz-adv-x="596" 
d="M60 355l-2 -2q-3 9 -9 27.5t-8 25.5q-5 15 -11 30q-4 10 -9 15t-12 8v13h177v-13q-11 -2 -17 -6q-5 -4 -7 -15q-2 -10 3 -30t15 -51l68 -214l49 135l-23 76q-4 12 -9 30t-7 24q-5 15 -11 30q-5 10 -9 15q-4 4 -12 7v13h180v-13q-10 -2 -18 -6q-7 -4 -10 -15t0 -30t12 -51
l57 -203l56 181q11 37 16 64q4 23 1 37t-13 18q-11 5 -25 6v13h104v-13q-10 -3 -15 -7q-6 -4 -12 -17q-7 -15 -14 -36q-10 -32 -21 -65l-106 -343h-33l-78 258l-94 -258h-31zM401 541v-1q-28 0 -46 18t-18 47q0 26 18 44t46 18q26 0 44 -18t18 -43q0 -29 -18 -47t-44 -18z
M231 540v-1q-26 0 -44 18t-18 47q0 26 18 44t44 18q28 0 46 -18t18 -43q0 -29 -18 -47t-46 -18z" />
    <glyph glyph-name="Ygrave" unicode="&#x1ef2;" horiz-adv-x="530" 
d="M160 13l-3 -2q15 5 24 12q10 8 14 25q5 18 6 51q1 22 1 91v180l-115 254q-16 41 -33 67q-16 25 -45 45v13h222v-13q-23 -8 -27 -24t6 -43l116 -266l91 220q11 28 18 50q6 18 4 32q-2 13 -12 20q-11 7 -30 12v13h120v-13q-11 -5 -18 -9q-6 -4 -16 -15q-8 -10 -19 -31
q-9 -18 -25 -58l-102 -240v-192q0 -69 1 -91q2 -33 6 -51q4 -17 14 -25q9 -7 24 -12v-13h-222v13zM249 809l-1 -1q-35 6 -49 23q-13 16 -13 38q0 17 12 30t32 13q14 0 28 -6q15 -7 27 -16l112 -88l-5 -13z" />
    <glyph glyph-name="ygrave" unicode="&#x1ef3;" horiz-adv-x="420" 
d="M79 -165l2 -1q-32 0 -48 14q-15 14 -15 35t11 30t26 9q13 0 23 -5q12 -6 17 -10t15 -10q8 -5 20 -5q8 0 15 3q9 4 17 13q10 12 20 30t24 53l-144 370q-17 41 -21 52q-9 22 -13 30q-7 12 -10 15q-4 4 -12 7v13h190v-13q-10 -1 -18 -6t-9 -15q-1 -9 2 -30q3 -20 15 -51
l76 -215l67 191q13 39 18 63q5 25 2 37q-3 13 -12 18q-9 4 -23 6v13h97v-13q-7 -1 -13 -6t-12 -18q-7 -16 -15 -37l-24 -64l-125 -353q-16 -43 -33 -72q-15 -26 -35 -46q-17 -17 -36 -25q-17 -7 -39 -7zM181 585l1 -2q-18 10 -31 26q-12 15 -12 36q0 19 11 32q11 12 32 12
q20 0 32 -12q13 -13 29 -38l74 -116l-11 -10z" />
    <glyph glyph-name="uni2009" unicode="&#x2009;" horiz-adv-x="82" 
 />
    <glyph glyph-name="endash" unicode="&#x2013;" horiz-adv-x="475" 
d="M44 291h387v-20h-387v20z" />
    <glyph glyph-name="emdash" unicode="&#x2014;" horiz-adv-x="852" 
d="M44 291h765v-20h-765v20z" />
    <glyph glyph-name="quoteleft" unicode="&#x2018;" horiz-adv-x="245" 
d="M97 648l-3 1q5 8 15 14q11 6 27 6q25 0 42 -17t17 -42q0 -30 -20 -48q-19 -18 -48 -18q-12 0 -27 5q-14 5 -24 15t-18 29q-7 17 -7 42q0 54 32 94q32 39 83 65l7 -11q-87 -51 -87 -108q0 -19 11 -27z" />
    <glyph glyph-name="quoteright" unicode="&#x2019;" horiz-adv-x="245" 
d="M148 668l1 -4q-6 -9 -15 -15t-25 -6q-25 0 -42 17q-16 16 -16 42q0 31 20 49q19 18 48 18q12 0 27 -5q14 -5 24 -16q11 -13 18 -28t7 -41q0 -55 -33 -94q-32 -38 -84 -64l-6 11q87 50 87 108q0 20 -11 28z" />
    <glyph glyph-name="quotesinglbase" unicode="&#x201a;" horiz-adv-x="244" 
d="M147 40l1 -4q-6 -9 -15 -15t-25 -6q-25 0 -42 17q-16 16 -16 42q0 31 20 49t48 18q12 0 27 -5q14 -5 24 -16q11 -13 18 -28t7 -41q0 -55 -33 -94q-32 -38 -84 -64l-6 11q87 50 87 108q0 20 -11 28z" />
    <glyph glyph-name="quotedblleft" unicode="&#x201c;" horiz-adv-x="423" 
d="M97 648l-3 1q5 8 15 14q11 6 27 6q25 0 42 -17t17 -42q0 -30 -20 -48q-19 -18 -48 -18q-12 0 -27 5q-14 5 -24 15t-18 29q-7 17 -7 42q0 54 32 94q32 39 83 65l7 -11q-87 -51 -87 -108q0 -19 11 -27zM273 649l-2 1q5 8 14 14t26 6q24 0 41 -17t17 -42q0 -30 -20 -48
q-19 -18 -48 -18q-12 0 -27 5q-14 4 -24 15q-10 10 -18 29q-7 17 -7 42q0 55 33 94q34 40 84 65l6 -11q-87 -52 -87 -108q0 -20 12 -27z" />
    <glyph glyph-name="quotedblright" unicode="&#x201d;" horiz-adv-x="423" 
d="M326 668l1 -3q-5 -9 -15 -15t-27 -6q-24 0 -41 17t-17 42q0 31 21 49t49 18q27 0 51 -21t24 -69q0 -54 -32 -94q-30 -38 -83 -64l-6 11q86 50 86 107q0 20 -11 28zM149 665l1 -4q-6 -9 -15 -15t-25 -6q-25 0 -42 17q-16 16 -16 42q0 31 20 49t48 18q12 0 27 -5
q14 -5 24 -16q11 -13 18 -28t7 -41q0 -55 -33 -94q-32 -38 -84 -64l-6 11q87 49 87 108q0 20 -11 28z" />
    <glyph glyph-name="quotedblbase" unicode="&#x201e;" horiz-adv-x="423" 
d="M325 40l1 -3q-4 -9 -15 -15t-27 -6q-24 0 -41 17t-17 42q0 31 21 49t49 18q27 0 51 -21t24 -69q0 -54 -32 -94q-30 -38 -83 -64l-6 11q86 50 86 107q0 20 -11 28zM148 37l1 -4q-6 -9 -15 -15t-25 -6q-25 0 -42 17q-16 16 -16 42q0 31 20 49q19 18 48 18q12 0 27 -5
q14 -5 24 -16q11 -13 18 -28t7 -41q0 -55 -33 -94q-32 -38 -84 -64l-6 11q87 49 87 108q0 20 -11 28z" />
    <glyph glyph-name="dagger" unicode="&#x2020;" horiz-adv-x="408" 
d="M197 -2l-4 -2q-3 81 -10 143q-9 80 -16 130q-9 60 -18 102q-11 53 -13 59q22 20 39 51q17 32 17 66q-14 0 -27 -8q-8 -5 -24 -17q-13 -10 -26 -17q-14 -8 -31 -8q-28 0 -45 18q-16 17 -16 41q0 25 16 42q17 18 45 18q18 0 32 -8q15 -8 26 -18q12 -10 24 -18q13 -8 27 -8
q0 17 -8 33q-7 15 -18 30q-11 16 -18 31q-8 18 -8 36q0 25 17 45q16 19 44 19t44 -19q17 -20 17 -45q0 -18 -8 -36q-7 -15 -18 -31q-11 -15 -18 -30q-8 -16 -8 -33q14 0 27 8q12 8 24 18q11 10 26 18q14 8 32 8q28 0 45 -18q16 -17 16 -42q0 -24 -16 -41q-17 -18 -45 -18
q-18 0 -32 8q-13 7 -26 17q-16 12 -24 17q-13 8 -27 8q0 -34 17 -66q16 -31 39 -51q-5 -15 -12 -57q-11 -59 -17 -102q-7 -50 -16 -130q-7 -70 -9 -143h-16z" />
    <glyph glyph-name="daggerdbl" unicode="&#x2021;" horiz-adv-x="424" 
d="M212 -8l-9 -3q-28 0 -44 19q-17 20 -17 45q0 18 8 36q7 15 18 31q10 15 18 30q8 16 8 33q-15 0 -28 -8q-12 -7 -24 -18q-13 -11 -25 -18q-14 -8 -31 -8q-28 0 -45 18q-16 17 -16 42q0 24 16 41q17 18 45 18q18 0 32 -8q13 -7 26 -17q16 -12 24 -17q13 -8 29 -8
q0 22 -6 46q-6 25 -15 47q-10 24 -21 44q-10 17 -26 37q14 17 26 38q11 20 21 44q9 22 15 47q6 24 6 45q-15 0 -28 -8q-8 -5 -24 -17t-25 -17q-14 -8 -31 -8q-29 0 -45 18q-16 17 -16 41q0 25 16 42q16 18 45 18q18 0 32 -8q15 -8 26 -18q12 -11 24 -18q13 -8 29 -8
q0 17 -8 33q-8 15 -18 30q-11 16 -18 31q-8 18 -8 36q0 25 17 45q16 19 44 19t44 -19q17 -20 17 -45q0 -18 -8 -36q-7 -15 -18 -31q-10 -15 -18 -30q-8 -16 -8 -33q16 0 29 8q12 7 24 18q11 10 26 18q14 8 32 8q29 0 45 -18q16 -17 16 -42q0 -24 -16 -41q-16 -18 -45 -18
q-18 0 -32 8q-13 7 -26 17q-16 12 -24 17q-13 8 -28 8q0 -21 6 -45q6 -23 15 -46q10 -24 21 -44q10 -17 26 -37q-14 -17 -26 -38q-11 -20 -21 -44q-9 -23 -15 -46q-6 -24 -6 -45q15 0 28 8q8 5 24 17q13 10 26 17q14 8 32 8q29 0 45 -18q16 -17 16 -41q0 -25 -16 -42
q-16 -18 -45 -18q-17 0 -31 8q-12 7 -25 18q-12 10 -24 18q-13 8 -28 8q0 -17 8 -33q7 -15 18 -30q11 -16 18 -31q8 -18 8 -36q0 -25 -17 -45q-16 -19 -44 -19z" />
    <glyph glyph-name="bullet" unicode="&#x2022;" horiz-adv-x="381" 
d="M191 419v-1q30 0 53 -10q25 -11 42 -28t28 -42q10 -23 10 -52q0 -30 -10 -53q-11 -25 -28 -42t-42 -28q-23 -10 -53 -10t-53 10q-25 11 -42 28t-28 42q-10 23 -10 53t10 53q11 25 28 42t42 28q23 10 53 10z" />
    <glyph glyph-name="ellipsis" unicode="&#x2026;" horiz-adv-x="729" 
d="M602 -14v-2q-32 0 -53 21t-21 53t21 53t53 21t51 -21q20 -22 20 -52t-20 -52q-19 -21 -51 -21zM366 -17v-2q-32 0 -53 21t-21 53t21 53t53 21t51 -21q20 -22 20 -52t-20 -52q-19 -21 -51 -21zM129 -19v-2q-32 0 -53 21t-21 53t21 53t53 21q31 0 51 -21q20 -22 20 -52
t-20 -52q-20 -21 -51 -21z" />
    <glyph glyph-name="perthousand" unicode="&#x2030;" horiz-adv-x="1001" 
d="M177 379l-2 -2q-27 0 -55 14q-25 13 -46 38q-20 25 -32 59t-12 77t12 77q12 33 32 60q19 25 47 39t56 14q29 0 55 -13q27 -14 48 -39t33 -60q12 -34 12 -76q0 -43 -12 -77q-12 -35 -33 -59q-22 -25 -48 -38q-28 -14 -55 -14zM111 7l418 747l19 -12l-418 -748zM175 393h1
q22 0 39 39q16 38 16 134q0 52 -4 81q-5 34 -12 53q-8 20 -18 29t-22 9q-23 0 -38 -38t-15 -134q0 -95 15 -134t38 -39zM483 -8l-1 -2q-27 0 -55 14q-25 13 -46 38q-20 25 -32 59t-12 77t12 77q12 33 32 60q19 25 47 39t55 14q29 0 55 -13q27 -13 48 -39t33 -60
q12 -35 12 -76q0 -42 -12 -77t-33 -59q-22 -25 -48 -38q-28 -14 -55 -14zM820 -10l-1 -2q-27 0 -55 14q-25 13 -46 38q-20 25 -32 59t-12 77q0 42 12 77q12 33 32 60q19 25 47 39t55 14q29 0 55 -13q27 -13 48 -39t33 -60q12 -35 12 -76q0 -42 -12 -77t-33 -59
q-22 -25 -48 -38q-28 -14 -55 -14zM481 4q24 0 39 39t15 134q0 97 -15 134q-15 38 -39 38q-23 0 -38 -38t-15 -134q0 -95 15 -134t38 -39zM819 4q24 0 39 39t15 134q0 97 -15 134q-15 38 -39 38q-23 0 -38 -38t-15 -134q0 -95 15 -134t38 -39z" />
    <glyph glyph-name="uni2032" unicode="&#x2032;" horiz-adv-x="173" 
d="M35 543l-1 -1q4 39 6 78q2 52 2 72q0 68 53 68q24 0 38 -15q14 -16 14 -37q0 -17 -11 -37q-10 -18 -30 -43q-10 -13 -30 -41q-16 -22 -29 -47z" />
    <glyph glyph-name="uni2033" unicode="&#x2033;" horiz-adv-x="314" 
d="M168 543l-1 -1q5 39 6 78q2 52 2 72q0 68 53 68q24 0 38 -15q14 -16 14 -37q0 -17 -11 -37q-10 -18 -30 -43q-10 -13 -30 -41q-16 -22 -29 -47zM42 542l-1 -1q5 39 6 78q2 52 2 72q0 68 53 68q25 0 38 -15q14 -16 14 -37q0 -17 -11 -37q-10 -18 -30 -43q-10 -13 -30 -41
q-16 -22 -29 -47z" />
    <glyph glyph-name="guilsinglleft" unicode="&#x2039;" horiz-adv-x="218" 
d="M22 222v16l162 159l11 -7l-72 -160l73 -160l-11 -7z" />
    <glyph glyph-name="guilsinglright" unicode="&#x203a;" horiz-adv-x="218" 
d="M23 70l72 160l-71 160l11 7l162 -159v-16l-163 -159z" />
    <glyph glyph-name="fraction" unicode="&#x2044;" horiz-adv-x="463" 
d="M54 381h355v-12h-355v12z" />
    <glyph glyph-name="Euro" unicode="&#x20ac;" horiz-adv-x="524" 
d="M18 340l55 5q-1 6 -1 18v18v21v21h-56v18h58q8 78 33 138q25 58 62 100q36 41 80 62t89 21q34 0 62 -7q32 -8 53 -22q23 -15 36 -36q14 -22 14 -49q0 -20 -14 -40q-13 -19 -42 -19q-26 0 -44 15q-17 15 -22 51q-1 7 -4 42q-2 19 -4 27q-3 10 -11 15t-23 5q-61 0 -90 -75
q-29 -76 -32 -229h141v-18h-142v-29v-26q0 -16 1 -24h141v-18h-141q3 -89 12 -147q9 -56 26 -94q16 -36 41 -51q24 -15 55 -15q48 0 78 21q28 20 52 53l12 -10q-6 -11 -20 -30q-12 -16 -31 -31q-20 -15 -46 -24q-27 -9 -61 -9q-115 0 -182 85t-78 249h-57v18z" />
    <glyph glyph-name="trademark" unicode="&#x2122;" horiz-adv-x="637" 
d="M109 466l-2 -3q8 3 11 6q4 4 5 9q2 8 2 20v38v202q-35 0 -51 -12t-21 -44h-8l3 55q2 10 4 11q4 2 8 2h193q7 0 9 -1q3 -1 4 -10l4 -55h-9q-6 33 -22 44q-17 12 -52 12v-202v-37q0 -14 3 -20q3 -7 7 -9q5 -3 12 -6v-8h-100v8zM299 463l-2 -4q8 3 12 7q5 4 6 12q2 10 2 21
v38v124v39q0 11 -2 21q-1 6 -5 10q-3 3 -10 6v8h81q4 0 5 -1q2 -2 3 -9l52 -181l54 191l8 -1v1h76v-8q-4 -1 -10 -5q-5 -3 -6 -10q-1 -8 -3 -21q-1 -9 -1 -38v-126q0 -30 1 -39l3 -21t6 -10q3 -2 11 -4v-8h-98v8q4 1 10 5q5 3 6 10q2 10 2 21v39v182l-76 -266l-10 1v-1h-2
l-83 280v-194v-37q0 -13 3 -21q3 -7 8 -12q3 -4 14 -7v-8h-55v8z" />
    <glyph glyph-name="onethird" unicode="&#x2153;" horiz-adv-x="463" 
d="M54 381h355v-12h-355v12zM168 465l-3 10q7 1 15 5q6 3 9 12q2 7 4 25q1 11 1 45v156q0 29 -5 39q-5 9 -27 8v11l109 69v-282v-45q0 -16 3 -25t9 -12q7 -4 15 -5v-11h-130zM140 268l-1 -4l6 14q1 3 6 3h191v-6l-135 -139q15 6 35 6q50 0 79 -26q28 -25 28 -84
q0 -57 -37 -90q-38 -33 -100 -33q-48 0 -74 19q-27 20 -27 40q0 10 8 21q7 10 24 10q14 0 21 -7q8 -8 9 -19q2 -10 2 -17q0 -8 3 -16q3 -7 11 -12t21 -5q32 0 45 27q14 28 14 84q0 46 -6 72t-32 26q-19 0 -35 -8t-26 -18l-8 6l108 109h-64q-27 0 -36 -1q-15 -2 -21 -4
q-7 -3 -10 -7q-1 -2 -3.5 -6t-3.5 -6h-12z" />
    <glyph glyph-name="twothirds" unicode="&#x2154;" horiz-adv-x="463" 
d="M54 381h355v-12h-355v12zM143 269l-1 -4l6 14q2 3 6 3h191v-6l-135 -139q15 6 35 6q50 0 79 -26q28 -25 28 -84q0 -57 -37 -90t-100 -33q-48 0 -74 19q-27 19 -27 40q0 10 8 21q7 10 24 10q14 0 21 -7q8 -8 9 -19q2 -10 2 -17q0 -9 3 -16t11 -12t21 -5q31 0 45 27
q14 28 14 84q0 47 -6 72q-6 26 -32 26q-19 0 -35 -8t-26 -18l-8 6l108 109h-64q-27 0 -36 -1q-15 -2 -21 -4q-7 -3 -10 -7q-1 -2 -3.5 -6t-3.5 -6h-12zM237 525v1h54q16 0 30 2q11 2 15 6t7 12h11l-17 -72q-3 -14 -11 -14h-223l77 95q20 25 39 53q18 26 26 46q10 25 14 44
q5 23 5 47q0 77 -51 77q-19 0 -22 -14q-4 -17 -5 -32q-3 -31 -36 -31q-12 0 -22 8q-9 7 -9 23q0 20 24 39q23 19 71 19q22 0 42 -4q22 -4 42 -15t32 -29t12 -46q0 -22 -8 -44q-7 -20 -24 -43q-16 -22 -40 -46q-23 -24 -55 -52l-44 -30h66z" />
    <glyph glyph-name="oneeighth" unicode="&#x215b;" horiz-adv-x="463" 
d="M350 12l1 -6q0 -43 -32 -72q-31 -28 -83 -28q-24 0 -48 8q-22 8 -39 21q-16 13 -25 30q-9 16 -9 35q0 35 18 59q17 23 56 40q-33 24 -45 45t-12 51q0 21 9 38q9 16 24 28t33 18t38 6q50 0 78 -23q27 -22 27 -54q0 -29 -19 -48q-20 -20 -45 -32q41 -28 57 -54
q16 -25 16 -62zM236 -83l-1 -3q35 0 45 18q11 19 11 40q0 37 -19 57q-21 22 -57 47l-15 10q-17 -14 -23 -36t-6 -54q0 -30 14 -55q13 -24 51 -24zM264 127v-1q13 12 18 29q5 18 5 41q0 36 -14 53t-39 17t-40 -12t-15 -31q0 -29 20 -47q22 -20 57 -44zM54 371h355v-12h-355
v12zM162 455l-3 10q7 1 15 5q6 3 9 12q2 7 4 25q1 11 1 45v156q0 29 -5 39q-5 9 -27 8v11l109 69v-282v-45q0 -16 3 -25t9 -12q7 -4 15 -5v-11h-130z" />
    <glyph glyph-name="threeeighths" unicode="&#x215c;" horiz-adv-x="463" 
d="M350 12l-1 -6q0 -43 -32 -72q-31 -28 -83 -28q-24 0 -48 8q-22 8 -39 21q-16 13 -25 30q-9 16 -9 35q0 36 19 59t57 40q-33 24 -45 45t-12 51q0 21 9 38q9 16 24 28t33 18t38 6q50 0 78 -23q27 -22 27 -54q0 -29 -19 -48q-20 -20 -45 -32q41 -28 57 -54q16 -25 16 -62z
M234 -83l-1 -3q35 0 45 18q11 19 11 40q0 37 -19 57q-21 22 -57 47l-15 10q-17 -14 -23 -36t-6 -54q0 -30 14 -55q13 -24 51 -24zM262 127v-1q13 12 18 29q5 18 5 41q0 36 -14 53t-39 17t-40 -12t-15 -31q0 -29 20 -47q22 -20 57 -44zM52 371h355v-12h-355v12zM141 810
l-1 -4q1 3 2.5 6l2.5 5t1 3q2 3 6 3h191v-6l-135 -139q15 6 35 6q50 0 79 -26q28 -25 28 -84q0 -57 -37 -90t-100 -33q-48 0 -74 19q-27 20 -27 40q0 10 8 21q7 10 24 10q14 0 21 -7q8 -8 9 -19q2 -10 2 -17q0 -8 3 -16q3 -7 11 -12t21 -5q31 0 45 27q14 28 14 84
q0 46 -6 72t-32 26q-19 0 -35 -8t-26 -18l-8 6l108 109h-64q-27 0 -36 -1q-15 -2 -21 -4q-7 -3 -10 -7q-1 -2 -3.5 -6t-3.5 -6h-12z" />
    <glyph glyph-name="fiveeighths" unicode="&#x215d;" horiz-adv-x="463" 
d="M350 12l1 -5q0 -43 -33 -72q-32 -28 -84 -28q-24 0 -48 8q-22 7 -39 21q-16 13 -25 30q-9 16 -9 35q0 35 18 59q17 23 56 40q-33 24 -45 45t-12 51q0 22 9 38t24 28t33 18t38 6q49 0 78 -23q28 -22 28 -54q0 -29 -19 -48t-45 -33q40 -28 57 -54t17 -62zM178 768l-24 -94
q26 18 59 18q26 0 50 -6t42 -18q19 -12 29 -33q11 -22 11 -52q0 -28 -11 -53t-30 -41q-21 -17 -45 -26q-25 -9 -54 -9q-37 0 -64 18t-27 44q0 14 9 21q10 8 23 8q28 0 31 -28q1 -6 1 -18q0 -6 2 -16q1 -7 8 -12q5 -4 18 -4q32 0 47 33t15 87q0 96 -53 96q-22 0 -39 -7
t-25 -18l-9 4l36 168h166l-17 -54q-1 -4 -3 -6t-6 -2h-140zM231 -87l-2 -3q34 0 46 18t12 40q0 37 -19 57q-21 22 -57 47l-15 10q-17 -14 -23 -36t-6 -54q0 -30 14 -55q13 -24 50 -24zM259 123v-1q14 12 18 28q5 18 5 42q0 36 -14 53t-39 17t-40 -12t-15 -31q0 -29 19 -47
q23 -21 58 -44zM49 367h355v-12h-355v12z" />
    <glyph glyph-name="seveneighths" unicode="&#x215e;" horiz-adv-x="463" 
d="M350 12l-1 -6q0 -43 -32 -72q-31 -28 -83 -28q-24 0 -48 8q-22 8 -39 21q-16 13 -25 30q-9 16 -9 35q0 36 19 59t57 40q-33 24 -45 45t-12 51q0 21 9 38q9 16 24 28t33 18t38 6q50 0 78 -23q27 -22 27 -54q0 -29 -19 -48q-20 -20 -45 -32q41 -28 57 -54q16 -25 16 -62z
M214 459l-15 1l109 308h-95h-34q-10 0 -18 -2q-6 -2 -9 -6q-1 -2 -3.5 -6t-3.5 -6h-12l21 74l3 6q2 2 6 2h181v-5zM233 -82l-1 -3q34 0 45 18q11 19 11 40q0 37 -19 57q-21 22 -57 47l-15 10q-17 -14 -23 -36q-6 -23 -6 -54q0 -30 14 -55q14 -24 51 -24zM261 128v-1
q13 12 18 29q5 18 5 41q0 36 -14 53t-39 17t-40 -12t-15 -31q0 -29 20 -47q22 -20 57 -44zM51 372h355v-12h-355v12z" />
    <glyph glyph-name="arrowleft" unicode="&#x2190;" horiz-adv-x="806" 
d="M44 363v1q36 8 78 28q44 21 87 51t81 66t60 75l12 -5q-12 -81 -42 -132q-30 -52 -72 -80h509v-16h-509q42 -28 72 -80q30 -51 42 -132l-12 -5q-22 39 -60 75q-39 38 -81 65q-43 28 -87 48t-78 27v14z" />
    <glyph glyph-name="arrowright" unicode="&#x2192;" horiz-adv-x="806" 
d="M52 364l508 -1q-42 28 -72 80q-30 51 -42 132l12 5q20 -38 59 -75q37 -36 81 -66t87 -51q42 -20 78 -28v-14q-35 -8 -78 -27t-87 -48q-42 -27 -81 -65q-36 -35 -58 -75l-12 5q12 81 42 132q30 52 72 80h-509v16z" />
    <glyph glyph-name="minus" unicode="&#x2212;" horiz-adv-x="419" 
d="M40 361h340v-20h-340v20z" />
    </font>
</defs>
</svg>
