<?xml version="1.0" standalone="no"?>
<!DOCTYPE svg PUBLIC "-//W3C//DTD SVG 1.1//EN" "http://www.w3.org/Graphics/SVG/1.1/DTD/svg11.dtd" >
<svg xmlns="http://www.w3.org/2000/svg" xmlns:xlink="http://www.w3.org/1999/xlink" version="1.1">
<metadata>
Created by FontForge 20170731 at Sat Sep  1 00:22:51 2018
 By Aleksey,,,
Copyright (c) 2018 Commercial Type, Inc.. All rights reserved.
</metadata>
<defs>
<font id="SchnyderCondMLight" horiz-adv-x="451" >
  <font-face 
    font-family="Schnyder Cond M Light"
    font-weight="300"
    font-stretch="condensed"
    units-per-em="1000"
    panose-1="0 0 0 0 0 0 0 0 0 0"
    ascent="800"
    descent="-200"
    x-height="468"
    cap-height="751"
    bbox="-91 -296 950 1036"
    underline-thickness="16"
    underline-position="-124"
    unicode-range="U+000D-FB04"
  />
<missing-glyph horiz-adv-x="192" 
 />
    <glyph glyph-name="f_f" unicode="ff" horiz-adv-x="444" 
d="M242 9l2 -5q12 4 18 9q6 4 9 17q3 12 3 33v56v333h-135v-333q0 -41 1 -55q2 -22 7 -33q6 -13 16 -17q11 -4 30 -9v-9h-163v9q12 5 18 9t9 17q3 12 3 33v56v333h-54v10q33 5 45 18t12 53v37q0 53 15 87q15 35 37 57q23 23 50 32t54 9q36 0 61 -11q24 -11 32 -29
q19 25 44 36t47 11q35 0 58 -13q24 -14 24 -36q0 -13 -7 -21q-8 -9 -24 -9t-24 8q-7 7 -10 23q-4 23 -9 30q-5 8 -15 8q-20 0 -32 -25q-12 -26 -12 -97v-161h92v-14h-92v-333q0 -41 1 -55q1 -21 6 -33q5 -13 15 -17t30 -9v-9h-162v9zM277 465l-3 114q0 31 4 51q5 23 12 41
q-16 0 -24 8q-7 7 -10 23q-4 21 -11 31q-6 9 -27 9q-16 0 -30 -6q-13 -6 -24 -23q-10 -15 -16 -44q-6 -27 -6 -70v-134h135z" />
    <glyph glyph-name="f_i" unicode="fi" horiz-adv-x="415" 
d="M30 9h-4q12 5 18 9t9 17q3 12 3 33v56v333h-54v10q19 3 27 7q11 5 17 12q6 8 9 21t3 35v45q0 49 12 84t31 55q19 21 42 30t44 9q35 0 57 -13q23 -14 23 -36q0 -13 -7 -21q-8 -9 -22 -9q-16 0 -24 8q-7 7 -10 23q-4 23 -9 30q-5 8 -15 8q-20 0 -32 -25q-12 -26 -12 -97
v-161h96l116 9v-356v-55q0 -20 5 -33t12 -17t21 -9v-9h-152v9q14 5 21 9t12 17t5 33v56v235q0 39 -1 51q-2 20 -4 27q-3 9 -11 12q-9 4 -21 5h-96v-333q0 -41 1 -55q2 -22 7 -33q6 -13 16 -17q11 -4 30 -9v-9h-163v9zM307 560v-1q-19 0 -33 14q-13 13 -13 33t13 33t33 13
t33 -13t13 -33t-13 -33t-33 -13z" />
    <glyph glyph-name="f_l" unicode="fl" horiz-adv-x="415" 
d="M30 9l-2 -3q12 4 18 9q6 4 9 17q3 12 3 33v56v333h-54v10q19 3 27 7q11 5 17 12t9 21t3 35v36q0 51 14 88q13 35 35 57q21 21 47 30q25 9 50 9q37 0 59 -13q23 -14 23 -34q0 -11 -6 -20t-20 -9q-17 0 -23 9q-5 7 -10 23q-4 21 -11 28q-6 6 -17 6q-26 0 -44 -27t-18 -100
v-152h78v-14h-78v-333q0 -41 1 -55q2 -22 7 -33q6 -13 16 -17q11 -4 30 -9v-9h-163v9zM235 6l3 -3q14 5 21 9t12 17t5 33v56v495q0 39 -1 51q-1 18 -6 27q-5 10 -13 11q-12 2 -24 2v10l118 61v-655v-55q0 -20 5 -33t12 -17q7 -5 21 -9v-9h-153v9z" />
    <glyph glyph-name="f_f_i" unicode="ffi" horiz-adv-x="627" 
d="M30 9v-3q12 4 18 9q6 4 9 17q3 12 3 33v56v333h-54v10q33 4 45 18t12 53v37q0 52 15 87t37 57q23 23 50 32t54 9q36 0 61 -11q24 -11 32 -29q19 25 44 36t47 11q35 0 58 -13q24 -13 24 -36q0 -13 -7 -21q-8 -9 -24 -9t-24 8q-7 7 -10 23q-4 22 -9 30t-15 8q-20 0 -32 -25
t-12 -97v-161h96l116 9v-356v-55q0 -20 5 -33t12 -17q7 -5 21 -9v-9h-153v9q13 4 21 9q7 4 12 17t5 33v56v235q0 39 -1 51q-2 20 -4 27q-3 9 -11 12q-9 4 -21 5h-96v-333q0 -41 1 -55q1 -21 6 -33q5 -13 15 -17q10 -5 30 -9v-9h-162v9q12 4 18 9q6 4 9 17q3 12 3 33v56v333
h-135v-333q0 -41 1 -55q2 -22 7 -33q6 -13 16 -17q11 -4 30 -9v-9h-163v9zM275 467l-3 114q0 31 4 51q5 23 12 41q-16 0 -24 8q-7 7 -10 23q-4 21 -11 31q-6 9 -27 9q-16 0 -30 -6q-13 -6 -24 -23q-10 -15 -16 -44q-6 -27 -6 -70v-134h135zM520 556l-1 -1q-19 0 -33 14
q-13 13 -13 33q0 19 14 33q13 13 33 13t33 -13t13 -33t-13 -33t-33 -13z" />
    <glyph glyph-name="f_f_l" unicode="ffl" horiz-adv-x="627" 
d="M242 9l4 -6q12 5 18 9t9 17q3 12 3 33v56v333h-135v-333q0 -41 1 -55q2 -22 7 -33q6 -13 16 -17q11 -5 30 -9v-9h-163v9q12 4 18 9q6 4 9 17q3 12 3 33v56v333h-54v10q33 4 45 18t12 53v37q0 52 15 87t37 57q23 23 50 32t54 9q41 0 66 -13q25 -14 30 -33q23 26 51 38
t54 12q35 0 57 -13q23 -14 23 -34q0 -11 -6 -20t-20 -9q-17 0 -23 9q-5 7 -10 23q-6 22 -12 28t-18 6q-25 0 -43 -27t-18 -100v-152h78v-14h-78v-333q0 -41 1 -55q1 -21 6 -33q5 -13 15 -17t30 -9v-9h-162v9zM279 464l-2 106q0 29 5 56q4 23 14 44h-4q-16 0 -24 8
q-7 7 -10 23q-4 21 -11 31q-6 9 -27 9q-16 0 -30 -6q-13 -6 -24 -23q-10 -15 -16 -44q-6 -27 -6 -70v-134h135zM451 3l3 -3q14 4 21 9q7 4 12 17t5 33v56v495q0 39 -1 51q-1 18 -6 27q-5 10 -13 11q-12 2 -24 2v10l118 61v-655v-55q0 -20 5 -33t12 -17t21 -9v-9h-153v9z" />
    <glyph glyph-name="f_b" unicode="fb" horiz-adv-x="684" 
d="M30 9l-2 -3q12 4 18 9q6 4 9 17q3 12 3 33v56v333h-54v10q19 3 27 7q11 5 17 12t9 21t3 35v36q0 51 14 88q13 35 35 57q21 21 47 30q25 9 50 9q37 0 59 -13q23 -14 23 -34q0 -11 -6 -20t-20 -9q-17 0 -23 9q-5 7 -10 23q-4 21 -11 28q-6 6 -17 6q-26 0 -44 -27t-18 -100
v-152h78v-14h-78v-333q0 -41 1 -55q2 -22 7 -33q6 -13 16 -17q11 -4 30 -9v-9h-163v9zM441 -10h-5q-26 0 -45 6q-18 6 -35 14q-3 2 -9 5t-10.5 5t-8.5 4q-14 6 -27 6q-11 0 -15 -6t-6 -11h-11v604q0 39 -1 51q-2 20 -4 27q-3 9 -11 11q-10 2 -23 2v10l117 57v-388l8 9
q35 41 66 61q29 19 60 19q33 0 62 -13q30 -13 54 -42t39 -72t15 -102q0 -64 -16 -111q-17 -48 -45 -81t-67 -49q-38 -16 -82 -16zM370 24l-3 -5q14 -11 29 -17t37 -6q26 0 51 14q24 14 42 42q17 27 28 72q10 41 10 104q0 64 -9 108t-22 70q-14 28 -31 39q-18 12 -37 12
q-22 0 -48 -17q-25 -16 -63 -62l-8 -9v-277q0 -28 6 -43q6 -14 18 -25z" />
    <glyph glyph-name="f_f_b" unicode="ffb" horiz-adv-x="895" 
d="M242 9l4 -6q12 5 18 9t9 17q3 12 3 33v56v333h-135v-333q0 -41 1 -55q2 -22 7 -33q6 -13 16 -17q11 -5 30 -9v-9h-163v9q12 4 18 9q6 4 9 17q3 12 3 33v56v333h-54v10q33 4 45 18t12 53v37q0 52 15 87t37 57q23 23 50 32t54 9q41 0 66 -13q25 -14 30 -33q23 26 51 38
t54 12q35 0 57 -13q23 -14 23 -34q0 -11 -6 -20t-20 -9q-17 0 -23 9q-5 7 -10 23q-6 22 -12 28t-18 6q-25 0 -43 -27t-18 -100v-152h78v-14h-78v-333q0 -41 1 -55q1 -21 6 -33q5 -13 15 -17t30 -9v-9h-162v9zM279 464v106q0 29 5 56q4 23 14 44h-4q-16 0 -24 8q-7 7 -10 23
q-4 21 -11 31q-6 9 -27 9q-16 0 -31 -6q-14 -6 -25 -23q-10 -15 -16 -44q-6 -27 -6 -70v-134h135zM659 -13h-5q-26 0 -45 6q-18 6 -35 14q-3 2 -9 5t-10.5 5t-8.5 4q-14 6 -27 6q-11 0 -15 -6t-6 -11h-11v604q0 39 -1 51q-2 20 -4 27q-3 9 -11 11q-10 2 -23 2v10l117 57
v-388l8 9q35 41 66 61q29 19 60 19q33 0 62 -13q30 -14 54 -42t39 -72t15 -102q0 -64 -16 -111q-17 -48 -45 -81t-67 -49q-38 -16 -82 -16zM588 21l-3 -5q14 -11 29 -17t37 -6q26 0 51 14q24 13 42 42q17 27 28 72q10 41 10 104q0 65 -9 108q-9 44 -22 70q-14 27 -31 39
q-18 12 -37 12q-22 0 -48 -17q-25 -16 -63 -62l-8 -9v-277q0 -28 6 -43q6 -14 18 -25z" />
    <glyph glyph-name="f_f_h" unicode="ffh" horiz-adv-x="889" 
d="M242 9l4 -6q12 5 18 9t9 17q3 12 3 33v56v333h-135v-333q0 -41 1 -55q2 -22 7 -33q6 -13 16 -17q11 -5 30 -9v-9h-163v9q12 4 18 9q6 4 9 17q3 12 3 33v56v333h-54v10q33 4 45 18t12 53v37q0 52 15 87t37 57q23 23 50 32t54 9q41 0 66 -13q25 -14 30 -33q23 26 51 38
t54 12q35 0 57 -13q23 -14 23 -34q0 -11 -6 -20t-20 -9q-17 0 -23 9q-5 7 -10 23q-6 22 -12 28t-18 6q-25 0 -43 -27t-18 -100v-152h78v-14h-78v-333q0 -41 1 -55q1 -21 6 -33q5 -13 15 -17t30 -9v-9h-162v9zM279 464v106q0 29 5 56q4 23 14 44h-4q-16 0 -24 8q-7 7 -10 23
q-4 21 -11 31q-6 9 -27 9q-16 0 -31 -6q-14 -6 -25 -23q-10 -15 -16 -44q-6 -27 -6 -70v-134h135zM457 3l-1 -3q11 4 19 9t11 17t3 33v56v494q0 39 -1 51q-2 18 -6 27q-5 10 -12 11q-10 2 -23 2v10l117 61v-399l21 20q42 42 77 61q33 18 65 18q21 0 40 -6q20 -6 34 -19
q15 -14 24 -34q9 -21 9 -52v-244v-55q0 -21 3 -33q3 -13 10 -17q8 -5 19 -9v-9h-148v9q14 4 21 9q8 5 11 17q4 15 5 33q1 14 1 56v261q0 40 -14 57t-38 17q-17 0 -44 -15q-26 -14 -73 -60l-21 -20v-240v-55q0 -20 5 -33t12 -17t21 -9v-9h-147v9z" />
    <glyph glyph-name="f_f_j" unicode="ffj" horiz-adv-x="626" 
d="M242 9l-3 -3q12 4 18 9q6 4 9 17q3 12 3 33v56v333h-135v-333q0 -41 1 -55q2 -22 7 -33q6 -13 16 -17t30 -9v-9h-163v9q12 5 18 9t9 17q3 12 3 33v56v333h-54v10q33 5 45 18t12 53v37q0 53 15 87q15 35 37 57q23 23 50 32t54 9q36 0 61 -11q24 -11 32 -29q19 25 44 36
t47 11q35 0 58 -13q24 -14 24 -36q0 -13 -7 -21q-7 -9 -24 -9q-16 0 -24 8q-7 7 -10 23q-5 23 -9 30q-5 8 -15 8q-20 0 -32 -25q-12 -26 -12 -97v-161h96l116 9v-438q0 -34 -7 -56q-8 -25 -19 -42q-12 -18 -27 -33q-13 -13 -30 -25q-26 -18 -43 -24q-18 -6 -34 -6t-29 8
q-12 7 -12 24q0 15 10 24t24 9q10 0 20 -5q6 -3 16 -11t14 -11q7 -5 14 -5q8 0 12 4q2 2 6 8q3 4 6 18q2 10 4 36q1 15 1 60v346q0 38 -1 50q-2 20 -4 27q-3 9 -11 12q-9 4 -21 5h-96v-333q0 -41 1 -55q1 -21 6 -33q5 -13 15 -17t30 -9v-9h-162v9zM272 467l-3 114q0 31 4 51
q5 23 12 41q-16 0 -24 8q-7 7 -10 23q-4 21 -11 31q-6 9 -27 9q-17 0 -30 -6t-24 -23q-10 -15 -16 -44q-6 -27 -6 -70v-134h135zM517 556l-1 -1q-19 0 -33 14q-13 13 -13 33q0 19 14 33q13 13 33 13t33 -13t13 -33t-13 -33t-33 -13z" />
    <glyph glyph-name="f_f_k" unicode="ffk" horiz-adv-x="838" 
d="M242 9l4 -6q12 5 18 9t9 17q3 12 3 33v56v333h-135v-333q0 -41 1 -55q2 -22 7 -33q6 -13 16 -17q11 -5 30 -9v-9h-163v9q12 4 18 9q6 4 9 17q3 12 3 33v56v333h-54v10q33 4 45 18t12 53v37q0 52 15 87t37 57q23 23 50 32t54 9q41 0 66 -13q25 -14 30 -33q23 26 51 38
t54 12q35 0 57 -13q23 -14 23 -34q0 -11 -6 -20t-20 -9q-17 0 -23 9q-5 7 -10 23q-6 22 -12 28t-18 6q-25 0 -43 -27t-18 -100v-152h78v-14h-78v-333q0 -41 1 -55q1 -21 6 -33q5 -13 15 -17t30 -9v-9h-162v9zM279 464v106q0 29 5 56q4 23 14 44h-4q-16 0 -24 8q-7 7 -10 23
q-4 21 -11 31q-6 9 -27 9q-16 0 -31 -6q-14 -6 -25 -23q-10 -15 -16 -44q-6 -27 -6 -70v-134h135zM457 3l1 -3q11 4 19 9t11 17t3 33v56v495q0 39 -1 51q-2 18 -6 27q-5 10 -12 11q-10 2 -23 2v10l117 61v-655v-55q0 -20 5 -33t12 -17t21 -9v-9h-147v9zM691 0l-2 -3
q13 3 21 14t-9 36l-127 186l1 8l155 150q14 13 18 24q4 10 1 18q-3 7 -11 12t-18 6v9h109v-9q-17 -6 -36 -21q-16 -12 -54 -47l-108 -103l164 -239q16 -24 25 -31q8 -7 18 -10v-9h-147v9z" />
    <glyph glyph-name="f_h" unicode="fh" horiz-adv-x="677" 
d="M30 9l-2 -3q12 4 18 9q6 4 9 17q3 12 3 33v56v333h-54v10q19 3 27 7q11 5 17 12t9 21t3 35v36q0 51 14 88q13 35 35 57q21 21 47 30q25 9 50 9q37 0 59 -13q23 -14 23 -34q0 -11 -6 -20t-20 -9q-17 0 -23 9q-5 7 -10 23q-4 21 -11 28q-6 6 -17 6q-26 0 -44 -27t-18 -100
v-152h78v-14h-78v-333q0 -41 1 -55q2 -22 7 -33q6 -13 16 -17q11 -4 30 -9v-9h-163v9zM240 6l-1 -3q11 4 19 9t11 17t3 33v56v494q0 39 -1 51q-1 18 -6 27q-5 10 -12 11q-10 2 -23 2v10l117 61v-399l21 20q42 42 77 61q33 18 65 18q20 0 40 -6t34 -19q15 -14 24 -34
q9 -21 9 -52v-244v-55q0 -21 3 -33q3 -13 10 -17q8 -5 19 -9v-9h-148v9q13 5 21 9q8 5 11 17q4 15 5 33q1 14 1 56v261q0 40 -14 57t-38 17q-17 0 -44 -15q-26 -14 -73 -60l-21 -20v-240v-55q0 -20 5 -33t12 -17q8 -5 21 -9v-9h-147v9z" />
    <glyph glyph-name="f_j" unicode="fj" horiz-adv-x="414" 
d="M30 9h-8q12 5 18 9t9 17q3 12 3 33v56v333h-54v10q19 3 27 7q11 5 17 12q6 8 9 21t3 35v45q0 49 12 84t31 55q19 21 42 30t44 9q35 0 57 -13q23 -14 23 -36q0 -13 -7 -21q-8 -9 -22 -9q-16 0 -24 8q-7 7 -10 23q-4 23 -9 30q-5 8 -15 8q-20 0 -32 -25q-12 -26 -12 -97
v-161h96l116 9v-438q0 -34 -7 -56q-8 -25 -19 -42q-12 -18 -27 -33q-13 -13 -30 -25q-25 -18 -42 -24t-33 -6t-29 8q-12 7 -12 24q0 15 10 24q11 9 24 9q10 0 20 -5q6 -3 16 -11t14 -11q7 -5 14 -5q8 0 12 4q2 2 6 8q3 4 6 18q2 10 4 36q1 15 1 60v346q0 38 -1 50
q-2 20 -4 27q-3 9 -11 12q-9 4 -21 5h-96v-333q0 -41 1 -55q2 -22 7 -33q6 -13 16 -17q11 -4 30 -9v-9h-163v9zM303 560v-1q-19 0 -33 14q-13 13 -13 33t13 33t33 13t33 -13t13 -33t-13 -33t-33 -13z" />
    <glyph glyph-name="f_k" unicode="fk" horiz-adv-x="626" 
d="M30 9l-2 -3q12 4 18 9q6 4 9 17q3 12 3 33v56v333h-54v10q19 3 27 7q11 5 17 12t9 21t3 35v36q0 51 14 88q13 35 35 57q21 21 47 30q25 9 50 9q37 0 59 -13q23 -14 23 -34q0 -11 -6 -20t-20 -9q-17 0 -23 9q-5 7 -10 23q-4 21 -11 28q-6 6 -17 6q-26 0 -44 -27t-18 -100
v-152h78v-14h-78v-333q0 -41 1 -55q2 -22 7 -33q6 -13 16 -17q11 -4 30 -9v-9h-163v9zM240 6l1 -3q11 4 19 9t11 17t3 33v56v495q0 39 -1 51q-1 18 -6 27q-5 10 -12 11q-10 2 -23 2v10l117 61v-655v-55q0 -20 5 -33t12 -17q8 -5 21 -9v-9h-147v9zM474 3l-2 -3q13 3 21 14
q7 10 -9 36l-127 186l1 8l155 150q13 14 18 24q4 10 1 18q-3 7 -11 12q-7 4 -18 6v9h109v-9q-16 -6 -36 -21q-16 -12 -54 -47l-108 -103l164 -239q16 -24 25 -31q8 -7 18 -10v-9h-147v9z" />
    <glyph glyph-name="g_j" unicode="gj" horiz-adv-x="612" 
d="M509 560v-1q-19 0 -33 14q-13 13 -13 33t13 33t33 13t33 -13t13 -33t-13 -33t-33 -13zM386 -143l-3 5q-16 0 -28 6t-12 20q0 11 10 21q11 11 18 11q8 0 18 -5q9 -4 17 -11t17 -11q10 -5 18 -5q9 0 15 6q3 2 7 8q4 5 5 18q2 14 3 36q1 15 1 60v293v50q0 19 -4 27
q-4 9 -12 12q-9 4 -21 5v11l115 63v-438q0 -31 -7 -55q-8 -27 -19 -45q-12 -19 -27 -33t-30 -24q-25 -16 -45 -21q-17 -4 -36 -4zM186 170h-7q-20 0 -37 4q-20 4 -36 12l-11 -7q-14 -9 -21 -19q-8 -11 -8 -21q0 -11 9 -18q8 -7 35 -13l157 -28q57 -10 84 -36t27 -70
q0 -32 -15 -57t-40 -43q-25 -17 -61 -28q-34 -10 -78 -10q-34 0 -67 6q-32 6 -58 18t-41 30t-15 44q0 18 9 33q10 16 22 27q15 14 30 23q16 10 35 18q-35 10 -51 29q-15 18 -15 44q0 29 18 47q19 18 35 29l11 7q-32 17 -53 50t-21 83q0 41 15 71q15 31 39 50q24 20 52 30
q27 10 55 10q20 0 41 -6q24 -7 41 -16q25 19 50 30t42 11q29 0 29 -30q0 -12 -7 -19t-18 -7q-14 0 -26 9t-29 9q-7 0 -16 -3q-10 -3 -16 -7q29 -19 51 -53q21 -33 21 -81q0 -40 -15 -69t-39 -47t-52 -27q-29 -9 -55 -9zM179 182l-1 -1q17 0 33 8q15 7 27 24q11 15 19 44
q7 25 7 65q0 78 -25 113q-25 36 -60 36t-60 -36q-25 -35 -25 -113q0 -40 7 -65q8 -29 19 -44q12 -17 27 -24q14 -7 32 -7zM50 -61l-1 -3q0 -45 36 -69t96 -24q36 0 66 8q29 7 48 21q20 14 30 31t10 37q0 16 -6 27t-16 18q-11 8 -25 12q-15 5 -33 9l-144 26q-35 -20 -48 -39
t-13 -54z" />
    <glyph glyph-name=".notdef" horiz-adv-x="192" 
 />
    <glyph glyph-name=".null" horiz-adv-x="0" 
 />
    <glyph glyph-name="nonmarkingreturn" unicode="&#xd;" horiz-adv-x="192" 
 />
    <glyph glyph-name="NULL" horiz-adv-x="0" 
 />
    <glyph glyph-name="NULL" horiz-adv-x="0" 
 />
    <glyph glyph-name="space" unicode=" " horiz-adv-x="192" 
 />
    <glyph glyph-name="exclam" unicode="!" horiz-adv-x="208" 
d="M97 192l-2 -1q-3 111 -10 187q-7 84 -15 147q-5 40 -14 107q-6 43 -6 65q0 29 15 45t38 16t38 -16t15 -45q0 -21 -6 -64q-2 -14 -13 -107q-7 -63 -15 -147q-7 -76 -10 -187h-15zM103 -12q-22 0 -37 15t-15 37t15 36q16 14 37 14t37 -14q15 -14 15 -36t-15 -37t-37 -15z
" />
    <glyph glyph-name="quotedbl" unicode="&#x22;" horiz-adv-x="259" 
d="M178 567h1q-1 9 -8 40l-10 42q-3 14 -9 40q-4 17 -4 33q0 20 9 32t28 12q18 0 27 -12t9 -32q0 -16 -4 -33q-6 -26 -9 -40l-10 -42q-7 -31 -8 -40h-12zM70 567h1q-1 9 -8 40l-10 42q-3 14 -9 40q-4 17 -4 33q0 20 9 32t27 12q20 0 29 -12t9 -32q0 -16 -4 -33
q-6 -26 -10 -40t-10 -42q-7 -31 -8 -40h-12z" />
    <glyph glyph-name="numbersign" unicode="#" horiz-adv-x="395" 
d="M12 282h93l37 236h-90v16h93l34 216h18l-34 -216h106l34 216h18l-34 -216h95v-16h-98l-37 -236h95v-16h-97l-42 -265h-18l42 265h-106l-42 -265h-18l42 265h-91v16zM229 282l37 236h-106l-37 -236h106z" />
    <glyph glyph-name="dollar" unicode="$" horiz-adv-x="426" 
d="M184 827l-7 -78q4 1 12 1h12h15q9 0 14 -1v71h16v-73q59 -9 97 -36q37 -27 37 -59q0 -14 -7 -24t-21 -10q-18 0 -27 10q-10 11 -14 30q-1 11 -5 26q-3 14 -10 23q-8 11 -19 18q-12 7 -30 12v-323q37 -29 60 -49q28 -25 47 -51q19 -27 30 -59q11 -33 11 -72q0 -36 -11 -69
q-11 -32 -30 -56q-20 -24 -47 -41q-27 -16 -59 -24v-84h-16v82q-4 -1 -12 -1h-12h-13q-8 0 -12 1v-81h-16v83q-33 4 -63 17q-30 12 -48 28q-20 16 -30 36q-11 20 -11 39q0 17 9 26t23 9q34 0 40 -38q3 -26 7 -40q4 -17 12 -31q7 -12 23 -22q13 -8 38 -13v376q-35 29 -57 49
q-26 24 -42 48q-17 25 -26 53t-9 63q0 31 11 59q10 26 29 48q17 20 42 34q22 13 53 19v74h16zM330 135h-1q0 57 -21 97t-65 81v-309q45 10 66 45t21 86zM202 -2h13q4 0 12 2v325q-14 12 -22 18q-16 12 -25 19l-4 3v-366q4 -1 12 -1h14zM227 424v313q-4 1 -13 1h-15h-12
q-8 0 -11 -1v-271q3 -2 9.5 -7.5t10.5 -8.5l21 -18zM84 629v-1q0 -50 19 -82q20 -34 57 -68v254q-38 -11 -57 -37t-19 -66z" />
    <glyph glyph-name="percent" unicode="%" horiz-adv-x="643" 
d="M168 379l-1 -2q-25 0 -51 14q-24 13 -46 38q-21 24 -33 59q-12 34 -12 77t12 77t33 60t46 39q26 14 51 14q26 0 51 -13q26 -14 47 -39q20 -24 34 -60q13 -33 13 -76q0 -44 -13 -77q-14 -36 -34 -59q-22 -25 -46 -38q-26 -14 -51 -14zM106 3l413 751l16 -10l-414 -750z
M167 389h-2q16 0 30 10q15 11 27 31q11 20 19 54q7 31 7 81t-7 81q-8 34 -19 54q-12 21 -27 30t-30 9q-13 0 -27 -9q-13 -8 -25 -30q-11 -20 -19 -54q-7 -31 -7 -81q0 -46 8 -81q8 -34 19 -54q11 -19 26 -31q13 -10 27 -10zM470 -8l-1 -2q-25 0 -51 14q-24 13 -46 38
q-21 24 -33 59q-12 34 -12 77t12 77q12 35 33 60q21 26 46 39q26 14 51 14q26 0 51 -13q26 -14 47 -39q20 -24 34 -60q13 -33 13 -76q0 -44 -13 -77q-14 -36 -34 -59q-22 -25 -46 -38q-26 -14 -51 -14zM469 2h-3q16 0 30 10q15 11 27 31q11 20 19 54q8 35 8 81q0 50 -7 81
q-8 34 -19 54q-12 21 -27 30t-30 9q-13 0 -27 -9q-13 -8 -25 -30q-11 -20 -19 -54q-7 -31 -7 -81q0 -46 8 -81q8 -34 19 -54q11 -19 26 -31q13 -10 27 -10z" />
    <glyph glyph-name="ampersand" unicode="&#x26;" horiz-adv-x="636" 
d="M456 217l-4 -4q11 -15 36 -50t35 -50q24 -35 45 -61q17 -21 32 -33q14 -11 27 -15v-9h-114l-94 133q-37 -76 -85 -109t-105 -33q-44 0 -82 15q-37 15 -65 41q-27 26 -42 63t-15 83q0 50 18 87t45 66q28 30 60 50q31 19 62 36q-33 52 -50 90q-18 41 -18 81q0 37 12 67
q13 32 31 50q19 19 44 30t50 11q26 0 50 -9q25 -9 42 -25q18 -17 29 -41q11 -25 11 -57q0 -34 -12 -61t-30 -48q-19 -22 -40 -36q-26 -18 -42 -26l12 -15l12 -15l121 -171l15 -22l35 97q14 36 21 60t6 39q-2 16 -12 23q-11 7 -33 12v9h142v-9q-22 -5 -33 -10q-15 -7 -26 -19
q-12 -14 -24 -39q-9 -20 -28 -69zM109 196v1q0 -90 32 -143t95 -53q50 0 93 33q44 33 78 109l-169 239l-25 36q-22 -15 -43 -36q-20 -20 -33 -45t-21 -60q-7 -32 -7 -81zM201 645l-1 -3q0 -49 23 -93q23 -43 54 -90q8 7 25 24q13 13 24 32q10 17 18 44q7 24 7 60q0 38 -6 62
t-17 38q-10 13 -24 19t-28 6q-33 0 -54 -27t-21 -72z" />
    <glyph glyph-name="quotesingle" unicode="'" horiz-adv-x="151" 
d="M69 567h1q-1 9 -8 40l-10 42q-3 14 -9 40q-4 17 -4 33q0 20 9 32t27 12q20 0 29 -12t9 -32q0 -16 -4 -33q-6 -26 -10 -40t-10 -42q-7 -31 -8 -40h-12z" />
    <glyph glyph-name="parenleft" unicode="(" horiz-adv-x="262" 
d="M247 -106v3q-29 25 -63 66t-66 96q-30 53 -52 128q-21 72 -21 161t21 161q22 75 52 128q32 55 66 96t63 66l7 -8q-21 -25 -45 -58q-26 -37 -48 -88q-22 -50 -37 -126q-15 -73 -15 -171t15 -171q15 -75 37 -127q23 -54 48 -90q24 -33 45 -58z" />
    <glyph glyph-name="parenright" unicode=")" horiz-adv-x="262" 
d="M8 -98l-1 -4q20 22 46 58q27 38 47 90q21 55 36 127q15 73 15 171t-15 171t-36 126q-22 55 -46 89q-26 36 -46 58l8 8q28 -26 63 -66q36 -42 65 -96q30 -55 51 -128q21 -72 21 -161t-21 -161q-21 -73 -51 -128q-29 -54 -65 -96q-35 -40 -63 -66z" />
    <glyph glyph-name="asterisk" unicode="*" horiz-adv-x="298" 
d="M171 525h1q0 -31 -22 -31q-21 0 -21 31q0 18 8 44q7 23 12 53q-20 -25 -30 -46q-11 -22 -24 -36q-23 -22 -39 -6q-8 8 -6 18q1 10 14 21q16 14 37 24t45 29q-30 -4 -54 -12q-22 -7 -43 -7q-31 0 -31 21q0 22 31 22q18 0 44 -8q23 -7 53 -12q-25 20 -46 30t-37 24
q-21 22 -6 39q13 13 36 -9q15 -15 26 -37q11 -23 30 -46q-4 31 -12 55q-7 22 -7 43q0 31 21 31q22 0 22 -31q0 -21 -7 -43q-8 -24 -12 -54q16 23 27 47q11 23 24 36q23 23 39 6q8 -7 6 -18t-12 -21q-16 -13 -38 -24t-44 -30q31 5 53 12q24 8 42 8q31 0 31 -22q0 -21 -31 -21
q-21 0 -43 7q-25 8 -52 12q20 -16 44 -28q22 -11 38 -24q10 -10 12 -21t-6 -18t-18 -6t-21 12q-14 16 -24 37q-11 22 -30 45q5 -31 12 -54q8 -24 8 -42z" />
    <glyph glyph-name="plus" unicode="+" horiz-adv-x="413" 
d="M198 177v166h-160v15h160v169h17v-169h159v-15h-159v-166h-17z" />
    <glyph glyph-name="comma" unicode="," horiz-adv-x="199" 
d="M122 10l-1 -3q-5 -6 -12 -9t-22 -3q-17 0 -30 12t-13 33q0 23 15 35t34 12q23 0 42 -16t19 -54q0 -47 -26 -81q-26 -33 -65 -50l-5 8q34 18 52 45t18 53q0 12 -6 18z" />
    <glyph glyph-name="hyphen" unicode="-" horiz-adv-x="268" 
d="M56 302h171l-15 -54h-171z" />
    <glyph glyph-name="period" unicode="." horiz-adv-x="192" 
d="M96 -11q-21 0 -36 15t-15 37q0 23 15 36q16 14 36 14q21 0 37 -14q15 -13 15 -36q0 -22 -15 -37t-37 -15z" />
    <glyph glyph-name="slash" unicode="/" horiz-adv-x="356" 
d="M347 795l-347 -962l-18 6l347 962z" />
    <glyph glyph-name="zero" unicode="0" horiz-adv-x="558" 
d="M280 759v-2q42 0 85 -25q44 -26 78 -73q35 -49 56 -120q21 -72 21 -165q0 -92 -21 -164q-20 -70 -56 -121q-35 -49 -78 -75q-43 -25 -85 -25q-43 0 -87 26q-43 25 -78 75t-57 121q-22 70 -22 164q0 95 22 165q22 72 57 120q35 49 78 74t87 25zM280 745l-1 -1
q-30 0 -58 -22t-49 -69q-20 -45 -34 -117q-13 -68 -13 -165q0 -95 12 -165t33 -117q21 -46 50 -69t60 -23t59 23q27 22 48 69q20 45 34 117q13 68 13 165t-13 165q-14 72 -34 117q-21 47 -49 69q-29 23 -58 23z" />
    <glyph glyph-name="one" unicode="1" horiz-adv-x="250" 
d="M28 0l-3 7q19 4 32 11q12 6 18 26q7 21 8 57q2 50 2 102v332q0 45 -1 60q-2 23 -7 34q-6 13 -19 14t-37 0v9l147 111v-560q0 -52 2 -102q2 -39 7 -57q6 -19 18 -25q10 -5 32 -10v-9h-199z" />
    <glyph glyph-name="two" unicode="2" horiz-adv-x="455" 
d="M241 65v-1q46 0 90 2q35 2 51 7q19 6 27 16q9 11 15 27h13l-21 -75q-7 -26 -12 -34q-4 -7 -21 -7h-373l153 188q39 53 69 104q28 47 48 95q19 44 28 93q9 46 9 96q0 80 -27 126q-27 47 -92 47q-29 0 -45 -10t-25 -24q-9 -13 -12 -29l-5 -25q-4 -17 -15 -28
q-10 -10 -28 -10q-17 0 -26 12t-9 26q0 15 11 34q10 17 32 33q21 15 51 24t71 9q40 0 76 -10q38 -11 66 -33t46 -57t18 -84q0 -53 -15 -99q-14 -44 -44 -94q-29 -48 -69 -99q-33 -42 -92 -111l-106 -109h163z" />
    <glyph glyph-name="three" unicode="3" horiz-adv-x="466" 
d="M186 5h1q41 0 72 20q30 20 50 53q20 34 29 77t9 93q0 97 -25 151q-25 55 -90 55q-18 0 -35 -5q-15 -5 -27 -12q-11 -7 -22 -18q-7 -7 -21 -23l-8 8l227 279h-123q-66 0 -87 -1q-32 -2 -48 -6t-24 -14q-7 -8 -15 -26h-13l22 80q6 22 11 31q3 6 14 6h326v-10l-236 -291
q12 8 27 12q17 5 35 5q43 0 78 -13q37 -14 63 -40q27 -27 42 -69t15 -99q0 -52 -18 -99q-18 -46 -50 -81q-31 -34 -78 -55t-102 -21q-39 0 -69 9q-29 9 -52 24q-21 14 -34 35q-12 20 -12 39q0 14 9 26t26 12q20 0 30 -10t13 -28q0 -2 5 -28q3 -16 12 -31q8 -14 26 -25
q16 -10 47 -10z" />
    <glyph glyph-name="four" unicode="4" horiz-adv-x="506" 
d="M382 182h-2q0 -68 1 -90q1 -33 6 -51q4 -18 14 -24q8 -5 24 -10v-9h-171v9q16 5 24 10q8 6 13 24t6 51q2 44 2 90h-274v9l335 566h22v-518h110l-31 -57h-79zM297 239v389l-230 -389h230z" />
    <glyph glyph-name="five" unicode="5" horiz-adv-x="466" 
d="M132 683l-51 -242q22 21 53 33q30 12 71 12q39 0 78 -12t69 -39q31 -28 50 -70t19 -106q0 -61 -18 -111t-51 -84t-78 -54q-44 -19 -98 -19q-38 0 -68 9q-29 9 -52 24q-21 14 -34 35q-12 19 -12 39q0 14 9 26t27 12t27 -10q9 -11 12 -28l6 -33q3 -15 11 -30q7 -13 24 -22
q16 -9 48 -9q37 0 68 20q30 20 51 54q20 33 31 82q11 50 11 103q0 103 -32 159t-98 56q-52 0 -82 -18q-29 -17 -49 -39l-8 6l68 323h278l-15 -47q-5 -15 -7 -17q-3 -3 -13 -3h-245z" />
    <glyph glyph-name="six" unicode="6" horiz-adv-x="528" 
d="M311 746l-5 1q-82 0 -127 -77q-46 -77 -56 -216q26 29 63 47q38 18 84 18q45 0 87 -17q40 -16 70 -48q31 -33 47 -79q17 -49 17 -108q0 -67 -21 -118q-20 -49 -53 -85q-31 -34 -70 -52t-75 -18q-41 0 -83 21q-41 21 -76 66q-34 45 -57 116q-22 69 -22 170q0 89 22 159
q22 72 60 123q38 52 87 80q50 29 105 29q39 0 69 -9q32 -10 50 -22q19 -13 30 -30q10 -16 10 -31q0 -14 -9 -24t-23 -10q-16 0 -27 11q-10 10 -13 27q-4 20 -7 29q-5 14 -13 24q-10 11 -24 17q-15 6 -40 6zM120 367l-2 -1q0 -101 13 -167t35 -112q21 -43 48 -63
q28 -20 56 -20q64 0 98 67q35 68 35 195q0 70 -12 117q-12 46 -32 74t-43 38q-25 11 -48 11q-46 0 -84 -20t-63 -51q-1 -11 -1 -33v-35z" />
    <glyph glyph-name="seven" unicode="7" horiz-adv-x="441" 
d="M159 0l-14 -2l234 684h-187q-63 0 -83 -1q-31 -2 -46 -7q-17 -6 -23 -17q-4 -8 -13 -30h-13l27 97q4 15 8 21q3 5 15 5h349v-10z" />
    <glyph glyph-name="eight" unicode="8" horiz-adv-x="476" 
d="M446 187l-1 2q0 -43 -15 -79q-15 -37 -43 -63q-29 -27 -66 -42t-81 -15q-45 0 -85 14q-38 13 -67 39q-28 25 -43 58t-15 71t14 72t36 59q24 27 51 47q30 22 57 35q-32 22 -60 47q-25 22 -42 47q-16 23 -25 51q-9 27 -9 61q0 43 16 74t42 54t58 33q35 11 66 11
q46 0 80 -12q35 -12 58 -34q24 -23 36 -52q12 -30 12 -64q0 -29 -12 -56q-13 -28 -31 -51q-19 -24 -43 -43q-25 -21 -46 -33q34 -24 63 -48q30 -25 50 -51q21 -27 33 -58t12 -74zM240 4h-1q39 0 66 12t44 32t24 45q8 27 8 54q0 36 -11 67q-10 28 -32 55q-21 25 -51 48
q-35 26 -67 48l-23 16q-49 -32 -74 -81q-26 -50 -26 -122q0 -77 35 -126q34 -48 108 -48zM277 425l-2 -1q15 12 31 30q16 17 27 37q11 19 19 47q7 24 7 60q0 81 -33 117t-93 36q-54 0 -88 -31t-34 -87q0 -31 9 -57t27 -48q17 -21 45 -43q23 -18 62 -45z" />
    <glyph glyph-name="nine" unicode="9" horiz-adv-x="531" 
d="M218 3l-7 -6q84 0 129 77q44 76 55 216q-25 -28 -63 -46t-86 -18q-46 0 -86 17q-39 17 -69 48q-29 30 -46 80q-16 47 -16 108q0 67 21 118q21 50 54 85q32 34 72 52q39 18 75 18q42 0 83 -22q43 -23 77 -67q36 -46 56 -115q21 -70 21 -168q0 -86 -21 -158t-58 -124
t-87 -81t-105 -29q-39 0 -69 9t-50 23t-30 30t-10 30q0 16 9 26q9 11 23 11q33 0 41 -38q1 -6 5 -25q3 -13 12 -25t25 -19q15 -7 45 -7zM112 478v3q0 -71 12 -117q12 -48 31 -74q20 -27 43 -39q24 -12 48 -12q48 0 86 20q38 19 63 51q2 22 2 33v35q0 97 -13 162
q-14 68 -36 111q-23 45 -49 65q-27 21 -54 21q-59 0 -96 -63q-37 -62 -37 -196z" />
    <glyph glyph-name="colon" unicode=":" horiz-adv-x="199" 
d="M100 334q-21 0 -37 14q-15 14 -15 36q0 21 15 36t37 15q21 0 36 -15t15 -36q0 -22 -15 -36q-16 -14 -36 -14zM100 -11q-22 0 -37 15t-15 37q0 23 15 36q16 14 37 14q20 0 36 -14q15 -13 15 -36q0 -22 -15 -37t-36 -15z" />
    <glyph glyph-name="semicolon" unicode=";" horiz-adv-x="206" 
d="M102 334q-20 0 -36 14q-15 14 -15 36q0 21 15 36t36 15q22 0 37 -15t15 -36q0 -22 -15 -36q-16 -14 -37 -14zM125 10l-1 -3q-4 -6 -12 -9t-21 -3q-17 0 -30 12t-13 33q0 23 15 35t34 12q23 0 42 -16t19 -54q0 -47 -26 -81q-26 -33 -65 -50l-6 8q35 18 53 45t18 53
q0 11 -7 18z" />
    <glyph glyph-name="less" unicode="&#x3c;" horiz-adv-x="399" 
d="M44 360l310 133v-18l-289 -124l289 -125v-18l-310 133v19z" />
    <glyph glyph-name="equal" unicode="=" horiz-adv-x="417" 
d="M40 413h336v-16h-336v16zM40 297h336v-16h-336v16z" />
    <glyph glyph-name="greater" unicode="&#x3e;" horiz-adv-x="399" 
d="M44 208v18l289 125l-289 124v18l310 -133v-19z" />
    <glyph glyph-name="question" unicode="?" horiz-adv-x="360" 
d="M129 191l-6 -3q1 75 20 132t39 104q21 48 39 93t18 100q0 38 -6 62q-6 25 -18 38q-11 12 -29 19q-17 6 -38 6q-20 0 -31 -9q-10 -9 -18 -26q-6 -14 -8 -20t-8 -16q-4 -7 -12 -10q-7 -3 -18 -3q-17 2 -24 12t-6 24q1 22 33 42q31 19 98 19q34 0 66 -9q31 -9 55 -27
q25 -19 38 -46q14 -30 14 -67q0 -36 -13 -66t-33 -61q-22 -33 -43 -60q-23 -28 -45 -65q-21 -34 -36 -75t-18 -88h-10zM137 -14q-22 0 -37 15t-15 37t15 36q16 14 37 14q20 0 36 -14q15 -14 15 -36t-15 -37t-36 -15z" />
    <glyph glyph-name="at" unicode="@" horiz-adv-x="765" 
d="M637 -52l-5 2q-18 -18 -43 -37q-24 -18 -60 -34q-37 -16 -78 -26t-96 -10q-65 0 -127 20q-59 19 -105 62q-45 42 -72 106t-27 155q0 98 33 180t89 143q56 60 129 93t153 33q63 0 120 -20q56 -19 96 -57q40 -37 63 -92t23 -123q0 -65 -21 -125t-61 -106t-100 -73t-138 -24
l15 87l-2 -2q-37 -45 -63 -66t-57 -21q-45 0 -78 42t-33 123q0 64 21 118t54 93t74 60q40 21 80 21q19 0 33 -6t24 -12q7 -4 19 -12q9 -6 20 -6q24 0 37 25h10l-46 -272q-9 -58 -11 -81q-3 -32 0 -48t12 -19q8 -3 27 5q34 14 63 36q29 23 50 57q21 35 33 81t12 106
q0 68 -21 122q-21 55 -60 92q-40 39 -91 59q-53 21 -112 21q-70 0 -133 -28q-65 -28 -114 -81q-49 -52 -79 -129q-30 -76 -30 -174q0 -85 24 -151q24 -67 64 -111q40 -45 94 -67q55 -23 114 -23q52 0 94 9t75 24q32 14 58 33q24 17 43 36zM274 147l-2 -1q0 -63 12 -93
t37 -30q19 0 42 21q25 23 59 63l7 8l42 251q6 38 -3 63t-47 25q-27 0 -53 -24q-26 -25 -47 -66q-20 -40 -34 -98q-13 -53 -13 -119z" />
    <glyph glyph-name="A" unicode="A" horiz-adv-x="545" 
d="M8 9l-4 -1q10 4 18 12q7 7 15 20q7 12 15 33q10 27 17 54l156 557q-11 35 -21 44q-11 10 -26 14v9h101q9 0 12 -3q2 -2 7 -14l177 -606q5 -17 14 -48q6 -20 12 -33q5 -11 14 -22q7 -9 21 -15v-10h-146v10q22 4 25 20t-7 51l-43 143h-253l-27 -97q-1 -4 -10 -43
q-4 -19 -3 -34q1 -14 9 -25q7 -10 26 -16v-9h-99v9zM358 235l-128 424l-118 -424h246z" />
    <glyph glyph-name="B" unicode="B" horiz-adv-x="516" 
d="M21 9l-4 -2q16 4 25 12q8 7 13 27q4 19 6 56q1 24 1 99v344q0 75 -1 99q-2 37 -6 56q-5 20 -13 27q-9 8 -25 12v9h215q107 0 165 -43q59 -44 59 -127q0 -30 -9 -58t-30 -51t-52 -39q-32 -17 -76 -21v-3q59 -8 97 -25q38 -18 63 -44q23 -25 34 -55q10 -29 10 -61
q0 -59 -21 -101q-21 -41 -59 -69q-37 -27 -87 -39t-107 -12h-198v9zM144 736l1 -324h83q86 0 119 39t33 122q0 82 -34 122q-35 41 -115 41h-87zM145 400v-392h66q45 0 83 8q36 8 60 30t36 63t12 103q0 42 -6 77t-24 59t-53 38q-36 14 -92 14h-82z" />
    <glyph glyph-name="C" unicode="C" horiz-adv-x="530" 
d="M317 -8l-5 -3q-57 0 -109 23q-50 22 -90 71q-38 47 -61 121q-22 72 -22 176q0 101 26 174q26 72 66 117t89 66q48 21 93 21q30 0 53 -5q18 -4 36 -11q4 -2 13 -5.5t14 -5.5q13 -5 24 -5q23 0 30 28h12v-158h-12q-12 44 -30 72q-17 27 -39 46q-20 17 -47 25t-52 8
q-40 0 -72 -19q-33 -19 -58 -61q-25 -40 -40 -110q-15 -67 -15 -165q0 -107 18 -179q18 -71 47 -117q28 -44 66 -64q37 -19 76 -19q32 0 56 6q23 6 44 17t35 24q14 12 27 29l9 -9q-10 -14 -26 -29q-14 -15 -37 -28q-21 -13 -52 -22q-30 -9 -67 -9z" />
    <glyph glyph-name="D" unicode="D" horiz-adv-x="583" 
d="M21 9l1 -1q16 4 25 12q8 7 13 27q4 19 6 56q1 24 1 99v344q0 75 -1 99q-2 37 -6 56q-5 20 -13 27q-9 8 -25 12v9h153q91 0 158 -22q70 -23 117 -67t73 -114q25 -68 25 -162q0 -90 -22 -160q-22 -71 -69 -121q-46 -49 -117 -76q-70 -27 -166 -27h-153v9zM149 737l-1 -730
h26q72 0 123 19q54 20 89 64q36 45 54 117t18 177q0 111 -22 178q-23 70 -61 108q-40 40 -90 53q-53 14 -110 14h-26z" />
    <glyph glyph-name="E" unicode="E" horiz-adv-x="475" 
d="M21 9l-4 -2q16 4 25 12q8 7 13 27q4 19 6 56q1 24 1 99v344q0 75 -1 99q-2 37 -6 56q-5 20 -13 27q-9 8 -25 12v9h381q9 0 14 -3t8 -21l17 -95h-14q-11 33 -24 54t-33 33q-21 13 -43 17q-27 5 -55 5h-122v-315h42q34 0 51 7q18 8 27 18t12 24l6 27h10v-164h-10l-6 27
q-3 14 -12 24t-27 18q-17 7 -51 7h-42v-399h141q33 0 58 3t45 15t33 36t24 65h13l-12 -108q-2 -17 -6 -20t-15 -3h-406v9z" />
    <glyph glyph-name="F" unicode="F" horiz-adv-x="462" 
d="M21 9l-4 -4q16 4 25 12q8 7 13 27t6 57q1 25 1 100v344q0 75 -1 100q-1 37 -6 57t-13 27q-9 8 -25 12v9h397q10 0 14 -3t6 -20l14 -96h-14q-10 33 -24 54t-33 33q-20 13 -47 17q-30 5 -64 5h-119v-311h54q34 0 51 7q18 8 27 18t12 24l6 27h10v-164h-10l-6 27
q-3 14 -12 24t-27 18q-17 7 -51 7h-54v-212q0 -75 1 -100q2 -37 6 -57q4 -19 14 -27q9 -7 24 -12v-9h-171v9z" />
    <glyph glyph-name="G" unicode="G" horiz-adv-x="577" 
d="M314 -9v1q-65 0 -117 28q-53 29 -90 79q-37 51 -57 123q-20 74 -20 160q0 96 26 168q26 70 66 117t90 69q51 23 99 23q33 0 54 -6t36 -12t27 -12t27 -6q19 0 26 28h11v-158h-11q-19 83 -66 117q-47 35 -106 35q-41 0 -75 -18t-60 -60q-26 -43 -41 -110t-15 -167
q0 -101 14 -177q14 -73 39 -120q25 -46 62 -69q35 -22 80 -22q61 0 94 34t33 118v21q0 57 -1 76q-1 29 -6 45q-4 16 -13 22t-24 9v10h167v-10q-12 -3 -21 -9t-15 -24q-5 -16 -7 -52q-2 -46 -2 -93v-57q-17 -20 -38 -38q-22 -19 -47 -32q-23 -12 -56 -22q-30 -9 -63 -9z" />
    <glyph glyph-name="H" unicode="H" horiz-adv-x="596" 
d="M21 9h-2q16 4 25 12q8 7 13 27t6 57q1 25 1 100v344q0 75 -1 100q-1 37 -6 57t-13 27q-9 8 -25 12v9h171v-9q-15 -5 -24 -12q-8 -7 -13 -27t-6 -57q-1 -25 -1 -100v-130h300v130q0 75 -1 100q-1 37 -6 57t-13 27q-9 7 -24 12v9h171v-9q-16 -4 -25 -12q-8 -7 -13 -27
t-6 -57q-1 -25 -1 -100v-344q0 -75 1 -100q1 -37 6 -57t13 -27q9 -8 25 -12v-9h-171v9q15 5 24 12q10 8 14 27q4 20 6 57q1 25 1 100v202h-300v-202q0 -75 1 -100q2 -37 6 -57q4 -19 14 -27q9 -7 24 -12v-9h-171v9z" />
    <glyph glyph-name="I" unicode="I" horiz-adv-x="214" 
d="M21 9l-1 -1q16 4 25 12q8 7 13 27q4 19 6 56q1 24 1 99v344q0 77 -1 101q-2 37 -6 56q-5 20 -13 27q-9 8 -25 12v9h171v-9q-15 -4 -24 -12q-8 -7 -13 -27q-4 -19 -6 -56q-1 -24 -1 -100v-344q0 -75 1 -99q2 -37 6 -56t14 -27q9 -7 24 -12v-9h-171v9z" />
    <glyph glyph-name="J" unicode="J" horiz-adv-x="342" 
d="M141 -9l-2 -3q-68 0 -101 21t-33 52q0 19 11 28q10 9 27 9q20 0 30 -10q11 -10 18 -33q7 -26 18 -40q10 -13 33 -13t38 17t15 54v473q0 77 -1 102q-2 38 -6 57q-5 20 -13 27q-9 8 -25 12v9h171v-9q-15 -4 -24 -12q-8 -7 -13 -27q-4 -19 -6 -57q-1 -25 -1 -102v-409
q0 -33 -10 -59q-11 -27 -28 -46q-18 -20 -43 -30q-27 -11 -55 -11z" />
    <glyph glyph-name="K" unicode="K" horiz-adv-x="528" 
d="M357 9l1 -3q24 8 24 24q0 18 -19 50l-209 330l233 242q20 22 30 38q9 15 9 26q0 10 -7 16q-8 7 -21 8v9h109v-9q-9 -2 -18 -6q-10 -5 -20 -15q-3 -3 -12 -11.5t-14 -13.5q-4 -4 -16.5 -17t-20.5 -21l-186 -193l239 -386q11 -18 18 -30q7 -11 15 -19q9 -9 13 -12
q5 -4 13 -7v-9h-161v9zM22 6h-1q16 4 25 12q8 7 13 27q5 19 6 57q1 25 1 100v344q0 75 -1 100q-1 38 -6 57q-5 20 -13 27q-9 8 -25 12v9h171v-9q-15 -4 -24 -12q-8 -7 -13 -27q-5 -19 -6 -57q-1 -25 -1 -100v-344q0 -75 1 -100q1 -38 6 -57q4 -19 14 -27q9 -8 24 -12v-9
h-171v9z" />
    <glyph glyph-name="L" unicode="L" 
d="M21 9l-2 -2q16 4 25 12q8 7 13 27t6 57q1 25 1 100v344q0 75 -1 100q-1 37 -6 57t-13 27q-9 8 -25 12v9h174v-9q-17 -5 -26 -12q-10 -8 -14 -27q-5 -20 -6 -57q-1 -25 -1 -100v-535h120q32 0 58 3q25 3 45 17t35 39q16 27 29 71h12l-18 -119q-2 -17 -6 -20q-5 -3 -15 -3
h-385v9z" />
    <glyph glyph-name="M" unicode="M" horiz-adv-x="666" 
d="M21 9h-3q17 7 25 16q8 8 13 29q4 19 6 56q1 24 1 101v337q0 75 -1 99q-2 37 -6 56q-5 20 -13 27q-9 8 -25 12v9h120q10 0 14 -4q5 -5 11 -24l169 -584l179 612h132v-9q-16 -4 -25 -12q-8 -7 -13 -27q-5 -19 -6 -57q-1 -25 -1 -100v-344q0 -75 1 -100q1 -38 6 -57
q5 -20 13 -27q9 -8 25 -12v-9h-171v9q15 4 24 12q10 8 14 27t6 57q1 25 1 100v513l-210 -719h-15l-214 723v-510q0 -76 1 -100q2 -38 7 -56q6 -19 16 -28q9 -8 30 -16v-9h-111v9z" />
    <glyph glyph-name="N" unicode="N" horiz-adv-x="556" 
d="M21 9l-1 -4q17 7 25 16q8 8 13 29q4 19 6 56q1 24 1 101v337q0 75 -1 99q-2 37 -6 56q-5 20 -13 27q-9 8 -25 12v9h115q16 0 24 -5q7 -4 18 -24l300 -555v376q0 77 -1 101q-2 37 -6 56t-15 28q-9 8 -30 16v9h110v-9q-16 -8 -24 -16t-13 -28q-4 -19 -6 -56q-1 -24 -1 -100
v-544h-19l-394 728v-515q0 -76 1 -100q2 -38 7 -56q6 -19 16 -28q9 -8 30 -16v-9h-111v9z" />
    <glyph glyph-name="O" unicode="O" horiz-adv-x="614" 
d="M307 -9l-1 -1q-48 0 -96 27q-49 27 -87 76q-39 50 -63 121q-24 72 -24 162q0 91 24 163q24 71 63 121t87 75q49 26 96 26q51 0 98 -25q48 -26 87 -75q39 -50 63 -121q24 -72 24 -163q0 -90 -24 -162q-24 -71 -63 -121q-38 -49 -87 -76q-48 -27 -97 -27zM306 2l-2 -2
q38 0 72 23q33 23 57 69q25 48 38 117q14 73 14 165q0 98 -13 164q-13 68 -38 116q-24 46 -57 69q-34 23 -72 23q-37 0 -71 -23q-33 -23 -57 -69q-25 -48 -38 -115q-14 -72 -14 -163q0 -92 14 -165q13 -69 38 -117q24 -46 57 -69q34 -23 72 -23z" />
    <glyph glyph-name="P" unicode="P" horiz-adv-x="485" 
d="M21 9v-1q16 4 25 12q8 7 13 27q5 19 6 57q1 25 1 100v344q0 75 -1 100q-1 38 -6 57q-5 20 -13 27q-9 8 -25 12v9h206q51 0 95 -9t76 -31q33 -23 51 -60t18 -93q0 -57 -19 -96q-20 -41 -52 -66q-34 -26 -78 -38q-45 -12 -94 -12h-76v-143q0 -75 1 -100q1 -37 6 -57
q4 -19 14 -27q9 -7 26 -12v-9h-174v9zM148 737v-382h73q27 0 57 6t54 27t39 58q15 38 15 101q0 65 -15 102t-39 57q-23 19 -52 25q-28 6 -54 6h-78z" />
    <glyph glyph-name="Q" unicode="Q" horiz-adv-x="614" 
d="M307 -8l1 -5q-50 0 -99 27t-87 78q-37 50 -61 121t-24 158q0 91 24 163q24 71 63 121q39 49 87 75q49 26 96 26q51 0 98 -25q48 -25 87 -75t63 -121q24 -72 24 -163q0 -61 -12 -115q-11 -51 -32 -97q-19 -42 -48 -76q-27 -32 -60 -55q1 -3 3 -11l3 -12q11 -38 21 -66
t21 -48q10 -19 26 -30q14 -10 37 -10q17 0 29 6q13 6 21 16l6 -6q-10 -13 -28 -22t-45 -9q-25 0 -49 6q-23 6 -43 24q-19 18 -36 50q-17 33 -29 84q-28 -9 -57 -9zM308 742l-4 -4q-37 0 -71 -23q-33 -23 -57 -69q-25 -48 -38 -115q-14 -72 -14 -163q0 -147 28 -234
q28 -88 79 -121q-24 23 -24 55q0 35 25 56q26 21 60 21q50 0 78 -24t48 -68q32 43 52 121q19 76 19 196q0 92 -14 164q-13 68 -38 116q-24 46 -57 69q-34 23 -72 23zM221 68v1q0 -34 26 -54q25 -19 57 -19q30 0 54 11q-8 35 -15 57q-8 24 -16 36q-9 14 -21 20t-28 6
q-22 0 -39 -13q-18 -13 -18 -45z" />
    <glyph glyph-name="R" unicode="R" horiz-adv-x="529" 
d="M21 9l-2 -9q16 4 25 12q8 7 13 27q5 19 6 57q1 25 1 100v344q0 75 -1 100q-1 38 -6 57q-5 20 -13 27q-9 8 -25 12v9h207q124 0 191 -40q68 -41 68 -138q0 -50 -19 -87q-20 -39 -52 -62q-33 -24 -75 -36t-88 -12l-12 1q30 -3 51 -13q23 -11 41 -30q17 -18 31 -51
q13 -30 22 -76q10 -54 21 -90q11 -38 22 -57q12 -20 26 -30q13 -9 32 -9q20 0 30 7q11 8 18 15l7 -7q-10 -13 -31 -25t-60 -12q-24 0 -48 8q-22 7 -40 27q-18 19 -33 56q-14 33 -25 92q-13 72 -24 111q-11 40 -24 59q-14 20 -34 24q-19 4 -54 4h-20v-169q0 -75 1 -100
q2 -37 6 -57q4 -19 14 -27q9 -7 24 -12v-9h-171v9zM146 729l-2 -353h105q82 0 118 47t36 132q0 48 -9 81t-30 54t-56 30q-34 9 -84 9h-78z" />
    <glyph glyph-name="S" unicode="S" horiz-adv-x="452" 
d="M217 -8h-10q-35 0 -62 8t-44 18q-28 16 -31 18q-14 8 -24 8q-13 0 -19 -20h-10v178h11q15 -95 60 -146t121 -51q71 0 102 39q32 40 32 101q0 37 -9 67q-10 32 -28 56q-21 27 -48 50q-32 27 -69 53q-15 11 -67 53q-28 22 -49 50q-19 26 -30 54q-11 30 -11 66q0 41 15 71
q15 31 40 51t58 31q35 11 70 11q28 0 51 -5q18 -4 36 -11q4 -2 13.5 -5.5t13.5 -5.5q13 -5 23 -5t15 6t6 16h11v-136h-11q-19 74 -60 105q-40 31 -97 31q-59 0 -89 -27t-30 -75q0 -28 9 -54q9 -25 27 -49t43 -46q26 -23 60 -48q41 -30 73 -55q35 -27 60 -57q26 -30 39 -64
q14 -36 14 -78q0 -46 -16 -82q-16 -37 -45 -64t-66 -42t-78 -15z" />
    <glyph glyph-name="T" unicode="T" horiz-adv-x="520" 
d="M175 9l-3 -1q15 4 24 12q10 8 14 27t6 56q1 24 1 99v535h-38q-37 0 -63 -6t-43 -19q-18 -13 -30 -38q-12 -24 -21 -61h-13l12 111q1 18 6 21t15 3h433q11 0 14 -3q4 -4 5 -21l12 -111h-13q-9 37 -21 61q-12 25 -30 38q-19 14 -44 20q-26 6 -63 6h-34v-535q0 -75 1 -99
q2 -37 6 -56q5 -20 13 -27q9 -8 25 -12v-9h-171v9z" />
    <glyph glyph-name="U" unicode="U" horiz-adv-x="544" 
d="M296 -11l2 -2q-58 0 -101 12q-44 12 -74 39q-29 26 -46 69q-16 41 -16 101v336q0 75 -1 100q-2 38 -6 57q-5 20 -13 27q-9 8 -22 12v9h168v-9q-16 -4 -25 -12q-8 -7 -13 -27q-5 -19 -6 -57q-1 -25 -1 -100v-346q0 -102 36 -149t124 -47q80 0 123 46q44 47 44 153v337
q0 77 -1 101q-2 38 -7 56q-6 21 -16 29t-28 16v9h110v-9q-16 -8 -24 -16q-9 -8 -13 -28q-4 -19 -6 -56q-1 -24 -1 -100v-337q0 -112 -48 -163t-139 -51z" />
    <glyph glyph-name="V" unicode="V" horiz-adv-x="532" 
d="M74 606l-2 -3q-12 40 -18 59q-8 24 -15 38q-7 15 -15 24t-18 15v9h155v-9q-23 -5 -27 -21t11 -66l159 -521l144 492q15 51 12 78t-41 38v9h104v-9q-9 -4 -16 -9q-6 -4 -13 -16q-8 -12 -15 -33q-7 -19 -18 -59l-182 -628h-16z" />
    <glyph glyph-name="W" unicode="W" horiz-adv-x="770" 
d="M70 623l-2 -3q-7 21 -15 47q-6 19 -12 33t-13 22q-7 9 -19 16v10h147v-10q-22 -6 -25 -22q-3 -15 11 -61l164 -535l82 267l-72 234q-7 21 -15 47q-6 20 -12 33q-5 11 -14 22q-7 9 -20 15v10h145v-10q-10 -3 -17 -8q-5 -4 -7 -14q-1 -8 2 -24q4 -20 10 -38l51 -171l41 139
q2 7 10 39q4 16 4 33q0 16 -6 26t-21 18v10h91v-10q-10 -4 -18 -9q-6 -4 -13 -17q-8 -16 -14 -33q-7 -21 -18 -57l-48 -160l102 -339l135 498q6 22 9 41q3 20 2 33q-2 16 -10 26q-10 11 -27 17v10h103v-10q-6 -3 -16 -9q-8 -5 -15 -16q-8 -12 -15 -33t-18 -57l-172 -629h-15
l-114 372l-114 -372h-16z" />
    <glyph glyph-name="X" unicode="X" horiz-adv-x="533" 
d="M15 9l-4 -1q15 6 26 14t21 21q8 10 22 33q15 25 29 51l120 231l-133 269q-20 40 -27 53q-13 24 -19 32q-9 12 -18 18q-7 5 -21 10v9h170v-9q-13 -3 -21 -9q-7 -6 -7 -18q0 -10 8 -31q5 -13 23 -49l102 -207l100 199q28 55 27 81q-2 26 -37 33v9h117v-9q-18 -7 -27 -13
q-10 -7 -19 -19q-11 -14 -20 -33q-16 -32 -28 -55l-106 -208l139 -280q22 -42 27 -52q8 -16 20 -34q9 -13 19 -22q10 -8 25 -16v-9h-175v9q16 5 24 12q7 7 7 21q0 13 -9 34q-12 29 -25 53l-108 219l-114 -222q-28 -54 -24 -79q5 -25 39 -36v-9h-123v9z" />
    <glyph glyph-name="Y" unicode="Y" horiz-adv-x="505" 
d="M173 9h-3q15 5 24 12q10 8 14 27t6 56q1 24 1 99v172l-127 251l-22 44q-10 20 -18 32q-10 15 -18 23t-22 16v9h159v-9q-23 -6 -24 -21q-2 -15 15 -50l133 -270l106 224q27 57 27 82q0 26 -37 36v9h106v-9q-12 -5 -18 -10t-16 -18q-11 -14 -20 -33q-11 -21 -27 -57
l-113 -237v-184q0 -75 1 -99q2 -37 6 -56q5 -20 13 -27q9 -8 25 -12v-9h-171v9z" />
    <glyph glyph-name="Z" unicode="Z" horiz-adv-x="497" 
d="M361 739l-126 1q-45 0 -74 -9t-48 -25t-33 -41q-16 -29 -29 -57h-10l24 143h389l-339 -739h145q54 0 87 9q34 9 56 27q23 18 36 48q12 27 25 72h11l-19 -168h-431z" />
    <glyph glyph-name="bracketleft" unicode="[" horiz-adv-x="237" 
d="M217 793v-12h-100v-875h100v-12h-156v899h156z" />
    <glyph glyph-name="backslash" unicode="\" horiz-adv-x="356" 
d="M374 -161l-18 -6l-347 962l19 6z" />
    <glyph glyph-name="bracketright" unicode="]" horiz-adv-x="237" 
d="M176 -106h-156v12h100v875h-100v12h156v-899z" />
    <glyph glyph-name="asciicircum" unicode="^" horiz-adv-x="352" 
d="M170 756h12l142 -255l-11 -7l-137 245l-137 -245l-11 7z" />
    <glyph glyph-name="underscore" unicode="_" horiz-adv-x="323" 
d="M-6 -76h335v-16h-335v16z" />
    <glyph glyph-name="grave" unicode="`" horiz-adv-x="446" 
d="M156 633h-2q-12 10 -17 18q-6 9 -6 20q0 12 8 20t21 8q14 0 22 -7t19 -24l82 -131l-7 -7z" />
    <glyph glyph-name="a" unicode="a" horiz-adv-x="392" 
d="M129 -6l-1 5q-44 0 -72 25q-29 26 -29 75q0 31 12 51q12 19 32 33q19 13 45 24q28 12 53 24l23 9q34 19 48 38t14 44v67q0 25 -6 42q-6 16 -15 25t-21 12t-25 3q-25 0 -39 -12t-24 -31q-7 -14 -18 -25q-10 -10 -27 -10q-15 0 -22 9q-7 8 -7 20q0 13 10 23q11 11 28 18
q18 7 42 12q27 5 53 5q32 0 56 -4q29 -5 47 -16q20 -12 32 -33t12 -56v-230q0 -33 2 -67q1 -22 5 -39q3 -13 9 -18q5 -4 17 -4q18 0 30 9l4 -7l-20 -12q-13 -7 -42 -7q-47 0 -63 21q-17 22 -17 50l-8 -8q-13 -15 -27 -27t-27 -21q-12 -8 -29 -13q-13 -4 -35 -4zM104 113v-1
q0 -48 15 -70t43 -22q21 0 38 13q20 15 48 43l8 8v200q-8 -14 -22 -27q-16 -14 -40 -27l-23 -9q-21 -11 -33 -22q-14 -12 -21 -25q-7 -12 -10 -28q-3 -15 -3 -33z" />
    <glyph glyph-name="b" unicode="b" horiz-adv-x="467" 
d="M226 -7h-5q-25 0 -45 6q-18 6 -35 14q-3 2 -9 5t-10.5 5t-8.5 4q-13 6 -27 6q-10 0 -15 -6q-4 -6 -6 -11h-11v604q0 39 -1 51q-2 20 -4 27q-3 9 -11 11q-10 2 -23 2v10l117 57v-388l8 9q35 41 66 61q29 19 60 19q33 0 62 -13q30 -14 54 -42t39 -72t15 -102
q0 -64 -16 -111q-16 -48 -45 -81q-28 -33 -67 -49q-38 -16 -82 -16zM155 27l-3 -5q14 -11 29 -17t37 -6q26 0 51 14q24 13 42 42q17 27 28 72q10 41 10 104q0 65 -9 108q-9 44 -22 70q-14 27 -31 39q-18 12 -37 12q-22 0 -48 -17q-25 -16 -63 -62l-8 -9v-277q0 -28 6 -43
q6 -14 18 -25z" />
    <glyph glyph-name="c" unicode="c" horiz-adv-x="383" 
d="M238 -7l-3 -4q-42 0 -78 16q-37 16 -66 47q-28 30 -45 77q-17 48 -17 106q0 57 19 101t48 76q28 31 65 48t70 17q23 0 43 -4q22 -4 40 -12q17 -7 30 -20q12 -12 12 -28q0 -13 -9 -24q-9 -10 -26 -10q-21 0 -29 14q-8 15 -14 36q-4 20 -14 29q-9 9 -32 9q-51 0 -87 -55
t-36 -169q0 -121 39 -177t102 -56q36 0 62 15q24 14 45 35l8 -9q-19 -22 -49 -40t-78 -18z" />
    <glyph glyph-name="d" unicode="d" horiz-adv-x="470" 
d="M203 -8l-4 2q-30 0 -63 14q-31 13 -55 42t-39 73q-15 45 -15 106q0 63 17 111q16 46 45 78q30 33 64 47q36 15 74 15q23 0 50 -12q29 -13 53 -37v190q0 39 -1 51q-1 18 -6 27q-5 10 -13 11q-12 2 -25 2v10l120 57v-655q0 -41 1 -55q2 -21 6 -33q5 -13 13 -17q9 -5 24 -9
v-9h-119v80l-4 -5q-34 -42 -63 -63t-60 -21zM107 243l-2 -1q0 -71 10 -114q10 -44 27 -70q16 -25 35 -36q17 -10 36 -10q23 0 48 18q27 19 62 63l4 5v319q-30 27 -54 38q-25 12 -49 12q-21 0 -43 -11q-20 -10 -37 -36q-16 -26 -27 -69q-10 -41 -10 -108z" />
    <glyph glyph-name="e" unicode="e" horiz-adv-x="396" 
d="M239 -8l-2 -1q-41 0 -78 15t-66 45q-28 29 -46 76t-18 111q0 59 18 104q18 44 47 75q30 31 61 47q32 16 62 16q57 0 99 -39q43 -40 53 -126h-256q-1 -13 -3 -30q-1 -11 -1 -36q0 -63 11 -110q11 -46 30 -74q20 -29 45 -42t57 -13q33 0 60 11q26 11 45 27l7 -10
q-19 -16 -49 -31t-76 -15zM215 467v-1q-14 0 -29 -6t-30 -21t-27 -42t-18 -68h183q-2 78 -24 108t-55 30z" />
    <glyph glyph-name="f" unicode="f" horiz-adv-x="232" 
d="M30 9l-1 -2q12 5 18 9t9 17q3 12 3 33v56v333h-54v10q19 3 27 7q11 5 17 12q6 8 9 21t3 35v45q0 49 12 84t31 55q20 21 42 30t44 9q35 0 57 -13q23 -14 23 -36q0 -13 -7 -21q-8 -9 -22 -9q-16 0 -24 8q-7 7 -10 23q-5 23 -9 30q-5 8 -15 8q-20 0 -32 -25q-12 -26 -12 -97
v-161h93v-14h-93v-333q0 -41 1 -55q2 -22 7 -33q6 -13 16 -17q11 -4 30 -9v-9h-163v9z" />
    <glyph glyph-name="g" unicode="g" horiz-adv-x="396" 
d="M189 166h-7q-20 0 -37 4q-19 4 -36 12l-11 -7q-14 -9 -21 -19q-8 -11 -8 -21q0 -11 9 -18q8 -7 35 -13l157 -28q57 -10 84 -36q27 -25 27 -70q0 -32 -15 -57t-40 -43q-25 -17 -61 -28q-34 -10 -78 -10q-34 0 -67 6q-32 6 -58 18t-41 30t-15 44q0 18 9 33q10 16 22 27
q15 14 30 23q16 10 35 18q-35 10 -51 29q-15 18 -15 44q0 29 18 47t35 29l11 7q-32 17 -53 50t-21 83q0 41 15 71q15 31 39 50q24 20 52 30q27 10 55 10q20 0 41 -6q24 -7 41 -16q25 19 50 30t42 11q29 0 29 -30q0 -12 -7 -19t-18 -7q-14 0 -26 9t-29 9q-7 0 -16 -3
q-10 -3 -16 -7q29 -19 51 -53q21 -33 21 -81q0 -40 -15 -69t-39 -47t-52 -27t-55 -9zM182 178l-1 -1q17 0 33 8q15 7 27 24q11 15 19 44q7 25 7 65q0 78 -25 113q-26 36 -60 36t-60 -36q-25 -35 -25 -113q0 -40 7 -65q8 -29 19 -44q12 -17 27 -24q14 -7 32 -7zM53 -65l-1 -3
q0 -45 36 -69t96 -24q36 0 66 8q28 7 48 21t30 31t10 37q0 16 -6 27t-16 18q-11 8 -25 12q-15 5 -33 9l-144 26q-34 -20 -48 -39q-13 -19 -13 -54z" />
    <glyph glyph-name="h" unicode="h" horiz-adv-x="463" 
d="M27 9l-1 -3q11 4 19 9t11 17t3 33v56v494q0 39 -1 51q-2 18 -6 27q-5 10 -12 11q-10 2 -23 2v10l117 61v-399l21 20q42 42 77 61q33 18 65 18q21 0 40 -6q20 -6 34 -19q15 -14 24 -34q9 -21 9 -52v-244v-55q0 -21 3 -33q3 -13 10 -17q8 -5 19 -9v-9h-148v9q14 4 21 9
q8 5 11 17q4 15 5 33q1 14 1 56v261q0 40 -14 57t-38 17q-17 0 -44 -15q-26 -14 -73 -60l-21 -20v-240v-55q0 -20 5 -33t12 -17t21 -9v-9h-147v9z" />
    <glyph glyph-name="i" unicode="i" horiz-adv-x="204" 
d="M100 560l-1 -1q-19 0 -33 14q-13 13 -13 33q0 19 14 33q13 13 33 13t33 -13t13 -33t-13 -33t-33 -13zM25 8h-1q14 4 21 9q7 4 12 17t5 33v56v187q0 38 -1 50q-2 20 -4 27q-3 9 -11 12q-9 4 -21 5v11l115 63v-356v-55q0 -20 5 -33t12 -17q7 -5 21 -9v-9h-153v9z" />
    <glyph glyph-name="j" unicode="j" horiz-adv-x="201" 
d="M98 560v-1q-19 0 -33 14q-13 13 -13 33t13 33t33 13t33 -13t13 -33t-13 -33t-33 -13zM-22 -146l-4 4q-15 0 -28 8q-12 8 -12 24q0 15 10 24t24 9q12 0 20 -5q5 -3 15 -11t14 -11q7 -5 14 -5q8 0 12 4q2 2 6 8q4 5 5 18q2 13 3 36q1 15 1 60v293v50q0 19 -4 27
q-4 9 -12 12q-9 4 -21 5v11l115 63v-438q0 -34 -7 -56q-8 -25 -19 -42q-12 -18 -27 -33q-13 -13 -30 -25q-25 -18 -42 -24t-33 -6z" />
    <glyph glyph-name="k" unicode="k" horiz-adv-x="412" 
d="M27 9l1 -3q11 4 19 9t11 17t3 33v56v495q0 39 -1 51q-2 18 -6 27q-5 10 -12 11q-10 2 -23 2v10l117 61v-655v-55q0 -20 5 -33t12 -17t21 -9v-9h-147v9zM261 6l-2 -3q13 3 21 14t-9 36l-127 186l1 8l155 150q14 13 18 24q4 10 1 18q-3 7 -11 12t-18 6v9h109v-9
q-17 -6 -36 -21q-16 -12 -54 -47l-108 -103l164 -239q16 -24 25 -31q8 -7 18 -10v-9h-147v9z" />
    <glyph glyph-name="l" unicode="l" horiz-adv-x="204" 
d="M26 9l3 -3q13 4 21 9q7 4 12 17t5 33v56v495q0 39 -1 51q-2 18 -6 27q-5 10 -13 11q-12 2 -24 2v10l118 61v-655v-55q0 -20 5 -33t12 -17q8 -4 21 -9v-9h-153v9z" />
    <glyph glyph-name="m" unicode="m" horiz-adv-x="683" 
d="M27 9l-9 -4q11 4 19 9t11 17t3 33v56v187q0 38 -1 50q-2 20 -4 27q-3 9 -11 12q-9 4 -21 5v11l115 63v-82l2 2q43 41 74 60q30 18 63 18q40 0 68 -20t35 -63l5 5q40 41 72 60q31 19 63 19q21 0 40 -6q20 -6 34 -19q15 -14 24 -34q9 -21 9 -52v-244v-55q0 -21 3 -33
q3 -13 10 -17t21 -9v-9h-148v9q14 5 21 9q8 5 11 17q4 15 5 33q1 14 1 56v261q0 40 -14 57t-36 17q-18 0 -43 -15q-27 -16 -69 -58l-3 -3v-257v-55q0 -21 3 -33t11 -17q7 -5 21 -9v-9h-148v9q14 4 21 9q8 5 11 17q4 15 5 33q1 14 1 56v261q0 40 -15 57t-37 17q-16 0 -42 -15
q-24 -14 -70 -60l-2 -2v-258v-55q0 -20 5 -33t12 -17t21 -9v-9h-147v9z" />
    <glyph glyph-name="n" unicode="n" horiz-adv-x="462" 
d="M27 9l-3 -1q11 4 19 9t11 17t3 33v56v187q0 38 -1 50q-2 20 -4 27q-3 9 -11 12q-9 4 -21 5v11l115 63v-100l21 20q42 42 77 61q33 18 65 18q21 0 39 -6q19 -6 33 -19q15 -14 24 -34q9 -21 9 -52v-244v-55q0 -21 3 -33q3 -13 10 -17q8 -5 21 -9v-9h-148v9q13 4 21 9t11 17
q4 15 5 33q1 14 1 56v261q0 40 -14 57t-39 17q-16 0 -43 -15q-26 -14 -73 -60l-21 -20v-240v-55q0 -20 5 -33t12 -17q8 -4 21 -9v-9h-148v9z" />
    <glyph glyph-name="o" unicode="o" horiz-adv-x="453" 
d="M226 -8v-1q-34 0 -68 15t-63 47q-30 33 -47 76q-18 45 -18 104t18 106q18 46 47 78q29 31 63 48q33 16 68 16q34 0 69 -16t64 -48t47 -78t18 -106q0 -59 -18 -104q-17 -43 -47 -76q-28 -31 -64 -46t-69 -15zM226 2l-1 -2q26 0 47 12t36 41t24 72q9 44 9 107q0 64 -9 109
t-24 72t-36 39t-46 12t-46 -12t-36 -39t-24 -72t-9 -109q0 -62 9 -106t24 -72t36 -40t46 -12z" />
    <glyph glyph-name="p" unicode="p" horiz-adv-x="467" 
d="M26 -154h-1q11 4 19 9t11 17t3 33v55v351q0 38 -1 50q-2 20 -4 27q-3 9 -11 12q-9 4 -21 5v11l116 63v-92l9 10q38 43 66 63q29 20 57 20q30 0 59 -13q31 -14 54 -40q24 -27 39 -71t15 -105q0 -62 -15 -110t-42 -81q-28 -34 -64 -50q-39 -17 -81 -17q-49 0 -98 39v-72
v-55q0 -20 5 -33t12 -17q7 -5 21 -9v-10h-148v10zM136 370l-3 -327q25 -21 50 -30q24 -9 49 -9q26 0 48 12t39 39q17 28 26 71q9 44 9 108q0 68 -9 111q-9 45 -22 69q-14 26 -31 36t-36 10q-22 0 -48 -18q-24 -17 -63 -62z" />
    <glyph glyph-name="q" unicode="q" horiz-adv-x="466" 
d="M297 -154h1q14 4 21 9q8 5 11 17t3 33v55v121l-3 -4q-35 -43 -64 -63q-30 -21 -61 -21q-28 0 -58 12q-31 12 -56 39t-42 72q-17 46 -17 113q0 59 17 107q17 46 45 78q29 32 64 48q37 17 75 17q29 0 48 -6q18 -6 35 -14l27 -13q12 -6 27 -6q10 0 18 5t12 21h11v-506v-55
q0 -21 3 -33t11 -17t19 -9v-10h-147v10zM113 241l-2 -1q0 -72 10 -115t26 -70q15 -26 35 -35t37 -9q24 0 50 20q24 19 60 62l3 4v279q0 42 -27 65q-13 10 -32 18t-41 8q-23 0 -44 -12q-22 -12 -38 -39q-17 -27 -27 -70q-10 -41 -10 -105z" />
    <glyph glyph-name="r" unicode="r" horiz-adv-x="312" 
d="M27 9l-7 -1q11 4 19 9t11 17t3 33v56v188q0 38 -1 50q-2 20 -4 27q-3 9 -11 12q-9 4 -21 5v11l115 63v-102l31 35q32 35 53 50t43 15t31 -12t9 -25q0 -16 -9 -27q-9 -10 -24 -10q-9 0 -16 3q-5 2 -13 8l-12 9q-5 4 -15 4q-9 0 -18 -6t-25 -25l-31 -35v-238q0 -41 1 -55
q2 -21 6 -33q5 -13 13 -17q9 -4 24 -9v-9h-152v9z" />
    <glyph glyph-name="s" unicode="s" horiz-adv-x="337" 
d="M173 5l-2 -9q47 0 65 25t18 60q0 19 -6 36q-6 16 -18 31t-32 29q-23 16 -46 30q-64 34 -91 69q-27 34 -27 82q0 30 10 50q10 21 27 36q17 16 39 23q24 8 46 8t35 -3q16 -4 24 -7q3 -1 20 -7q9 -3 20 -3q14 0 17 15h11v-110l-11 1q-16 58 -47 81t-68 23q-33 0 -53 -16
q-21 -17 -21 -51q0 -15 5 -30q4 -14 17 -26q12 -12 30 -24q9 -6 45 -28q71 -39 99 -76q29 -38 29 -90q0 -27 -11 -52q-10 -23 -29 -42q-18 -18 -43 -27t-52 -9t-45 6q-16 5 -31 12q-12 5 -22 12q-9 6 -18 6q-13 0 -16 -18h-12v136h11q17 -68 49 -105q33 -38 84 -38z" />
    <glyph glyph-name="t" unicode="t" horiz-adv-x="243" 
d="M154 -8h-2q-42 0 -69 24t-27 74v365h-41v12q19 3 37 12t33 27t24 45q10 29 14 66h12v-148h89v-14h-89v-341q0 -54 7 -79q8 -27 37 -27q17 0 27 6q9 5 18 14l7 -7q-7 -9 -25 -19q-17 -10 -52 -10z" />
    <glyph glyph-name="u" unicode="u" 
d="M167 -8l-4 -3q-23 0 -42 6q-18 6 -34 20q-15 13 -24 35q-9 21 -9 53v206q0 38 -1 50q-2 20 -4 27q-3 9 -11 12q-9 4 -21 5v11l116 63v-391q0 -42 14 -59t39 -17q10 0 20 3q9 2 24 11q13 7 32 23q18 15 41 38l8 8v217v50q0 19 -4 27q-5 9 -12 12q-9 4 -21 5v11l115 63
v-356v-55q0 -20 5 -33t12 -17t23 -9v-9h-116v78l-8 -8q-43 -43 -75 -60t-63 -17z" />
    <glyph glyph-name="v" unicode="v" horiz-adv-x="385" 
d="M61 355v-1q-11 36 -18 53q-6 17 -14 30q-6 11 -12 15q-8 6 -13 8v9h144v-9q-11 -1 -19 -6q-7 -4 -9 -15t3 -30t15 -51l85 -262l80 238q13 42 18 66q5 25 2 37q-3 13 -12 18t-24 6v9h98v-9q-10 -3 -16 -7q-7 -4 -15 -18q-7 -12 -16 -37q-12 -32 -23 -65l-115 -340h-15z
" />
    <glyph glyph-name="w" unicode="w" horiz-adv-x="562" 
d="M59 355l-3 -2q-11 36 -18 53q-9 22 -13 30q-6 10 -12 15q-7 5 -15 8v9h139v-9q-10 -1 -16 -6t-6 -15q0 -13 4 -30q5 -20 15 -51l79 -257l68 189l-20 65q-11 34 -18 54q-9 22 -13 30q-6 10 -12 15q-4 3 -14 7v9h142v-9q-11 -2 -17 -6q-5 -4 -7 -15q-1 -9 2 -30
q3 -19 12 -51l74 -246l69 224q13 42 18 66q5 25 2 36q-3 13 -12 17q-9 5 -24 6v9h98v-9q-12 -3 -18 -7q-7 -4 -13 -16q-7 -15 -14 -36q-8 -24 -21 -66l-106 -342h-15l-85 275l-100 -275h-14z" />
    <glyph glyph-name="x" unicode="x" horiz-adv-x="389" 
d="M13 9l2 -3q15 7 23 12t18 17q7 8 19 27q11 16 27 45l64 110l-76 136q-6 12 -16 29t-13 23q-11 19 -18 30q-7 10 -14 15q-5 4 -15 7v9h147v-9q-11 -1 -19 -6q-7 -4 -7 -13q0 -8 6 -25q4 -11 20 -43l54 -99l50 86q20 34 26 51q8 21 8 30q0 11 -7 15q-8 5 -18 6v9h91v-9
q-17 -7 -21 -10q-5 -3 -16 -14q-8 -8 -19 -27q-11 -18 -30 -51l-54 -96l81 -148q16 -31 27 -51q9 -16 18 -31q6 -10 14 -16q4 -3 14 -7v-9h-143v9q12 2 18 6t6 15t-6 27q-5 13 -20 42l-63 113l-59 -101q-17 -30 -24 -46q-8 -19 -8 -30q0 -12 6 -18q5 -5 18 -7v-9h-91v9z" />
    <glyph glyph-name="y" unicode="y" horiz-adv-x="387" 
d="M71 -169l2 -1q-23 0 -33 9t-10 23q0 31 34 31q17 0 26 -6t20 -6q6 0 13 3t15 14q10 14 17 28q12 23 20 46l10 28l-125 357q-17 48 -19 52q-9 22 -13 30q-6 11 -12 15q-4 3 -14 7v9h142v-9q-11 -2 -17 -6q-5 -4 -7 -15q-2 -10 3 -30t15 -51l84 -258l83 234q14 41 18 64
q5 25 2 37q-3 14 -12 18t-23 6v9h95v-9q-10 -3 -15 -7q-4 -3 -13 -17q-6 -10 -16 -36q-15 -40 -23 -64l-129 -364q-17 -42 -31 -67q-13 -24 -29 -43q-14 -17 -28 -24t-30 -7z" />
    <glyph glyph-name="z" unicode="z" horiz-adv-x="360" 
d="M331 -11l4 -5q-10 4 -16 6q-7 2 -24 4q-20 2 -39 2h-61h-179l237 458h-85q-35 0 -56 -6q-22 -6 -35 -18q-12 -11 -22 -29q-8 -15 -18 -38h-10l21 116q15 -7 45 -9q20 -1 93 -1h148l-241 -459h103q38 0 60 6q23 6 38 21t24 37q12 30 20 54h11z" />
    <glyph glyph-name="braceleft" unicode="{" horiz-adv-x="249" 
d="M230 -106l-5 -4q-33 0 -67 8q-29 7 -55 23q-24 15 -38 38t-14 54t12 63t27 63q16 34 27 61q12 30 12 57q0 13 -3 27q-3 15 -13 26q-11 13 -33 20q-24 8 -61 8v12q37 0 61 8q22 7 33 20t14 26q3 14 3 27q0 27 -12 57q-11 27 -27 61q-15 31 -27 63t-12 63t14 54t38 38
q25 16 56 23q34 8 68 8v-12q-61 0 -90 -23q-28 -22 -28 -77q0 -30 9 -61t21 -63q13 -33 21 -61q9 -30 9 -57q0 -39 -30 -66q-31 -28 -76 -32q46 -4 77 -32q30 -27 30 -66q0 -27 -9 -57q-8 -28 -21 -61q-12 -32 -21 -63q-9 -32 -9 -61q0 -54 29 -77t90 -23v-12z" />
    <glyph glyph-name="bar" unicode="|" horiz-adv-x="262" 
d="M141 820v-926h-20v926h20z" />
    <glyph glyph-name="braceright" unicode="}" horiz-adv-x="249" 
d="M20 -94l-3 -6q60 0 89 23t29 77q0 30 -9 62q-6 21 -20 63q-17 51 -20 61q-9 30 -9 57q0 39 29 66q29 28 75 32q-46 4 -75 32q-29 27 -29 66q0 27 9 57q3 10 20 61q14 42 20 63q9 32 9 62q0 55 -28 77q-29 23 -90 23v12q39 0 68 -7q32 -8 55 -22q24 -15 38 -38t14 -54
t-12 -63t-27 -63q-16 -34 -27 -61q-12 -30 -12 -57q0 -13 3 -27q3 -13 14 -26q10 -11 33 -19q21 -7 61 -7v-12q-40 0 -61 -7q-23 -8 -33 -19t-13 -26q-3 -14 -3 -27q0 -27 12 -57q11 -27 27 -61q15 -31 27 -63t12 -63t-14 -54t-38 -38q-23 -14 -55 -22q-29 -7 -66 -7v12z
" />
    <glyph glyph-name="asciitilde" unicode="~" horiz-adv-x="315" 
d="M112 409h-5q11 0 26 -3q20 -4 30 -7t30 -7q15 -3 25 -3t24 8q13 7 27 35l9 -4q-14 -46 -30 -66q-16 -19 -36 -19q-12 0 -27 3q-20 4 -30 7t-30 7q-15 3 -25 3q-11 0 -24 -7q-14 -8 -30 -39l-9 5q17 45 36 66t39 21z" />
    <glyph glyph-name="uni00A0" unicode="&#xa0;" horiz-adv-x="192" 
 />
    <glyph glyph-name="exclamdown" unicode="&#xa1;" horiz-adv-x="208" 
d="M95 270h2h15q3 -111 10 -187q8 -84 15 -147q11 -93 13 -107q6 -43 6 -64q0 -29 -15 -45t-38 -16t-38 16t-15 45q0 21 6 64q9 67 14 107q8 63 15 147q7 76 10 187zM103 473q22 0 37 -15t15 -37q0 -23 -15 -36q-16 -14 -37 -14t-37 14q-15 13 -15 36q0 22 15 37t37 15z" />
    <glyph glyph-name="cent" unicode="&#xa2;" horiz-adv-x="386" 
d="M233 -7v-83h-16v80q-40 5 -73 22q-35 18 -60 49q-25 30 -40 75q-15 44 -15 99q0 51 17 96q16 42 44 75q26 31 60 49q32 17 66 22v82h16v-81h1q25 0 45 -4q23 -5 41 -12q17 -7 30 -20q12 -12 12 -28q0 -14 -9 -24t-26 -10q-23 0 -30 13q-8 15 -14 36q-5 20 -15 29
q-11 9 -33 9h-1v-457q3 -1 9 -1h10q38 0 65 15q26 14 45 35l9 -8q-19 -22 -51 -40t-79 -18h-8zM109 240h-2q0 -104 29 -160q28 -55 80 -69v452q-47 -8 -77 -63q-30 -56 -30 -160z" />
    <glyph glyph-name="sterling" unicode="&#xa3;" horiz-adv-x="433" 
d="M82 55h-5q27 30 44 60q18 31 18 77q0 40 -12 78h-106v14h102q-5 18 -12 36l-15 36h-75v14h70q-14 36 -31 88q-15 45 -15 95q0 48 17 87q16 37 44 63q27 25 62 39q36 14 69 14q37 0 65 -9t48 -24t30 -34q11 -20 11 -39q0 -14 -7 -25q-7 -12 -25 -12q-34 0 -40 37
q-2 24 -4 35q-3 18 -10 29q-8 12 -23 20q-16 8 -43 8q-59 0 -84 -45q-26 -46 -26 -123q0 -56 11 -109q9 -43 23 -96h169v-14h-165q3 -13 9 -37q4 -18 6 -35h149v-14h-147q2 -10 2 -15v-15q0 -33 -7 -58q-8 -29 -19 -48q-14 -25 -25 -38q-18 -22 -25 -29h158q32 0 66 2
q25 1 40 6q14 4 24 14q9 9 15 24h12l-18 -71q-8 -26 -13 -33q-6 -8 -25 -8h-334z" />
    <glyph glyph-name="yen" unicode="&#xa5;" horiz-adv-x="461" 
d="M153 9l-2 1q15 4 24 12q10 8 14 27t6 56q1 24 1 99v99h-148v14h148v73h-148v14h144l-103 223q-12 27 -21 45q-10 20 -18 32t-18 22q-8 9 -22 16v9h159v-9q-22 -6 -25 -21t12 -50l114 -251l85 205q11 28 18 50q6 19 6 33t-9 21q-9 8 -28 12v9h106v-9q-12 -5 -18 -10
t-16 -18q-8 -11 -19 -34q-7 -15 -25 -60l-89 -216h145v-14h-147v-73h147v-14h-147v-99q0 -75 1 -99q2 -37 6 -56q5 -20 13 -27q9 -8 25 -12v-9h-171v9z" />
    <glyph glyph-name="brokenbar" unicode="&#xa6;" horiz-adv-x="262" 
d="M141 820v-380h-20v380h20zM141 -106h-20v380h20v-380z" />
    <glyph glyph-name="section" unicode="&#xa7;" horiz-adv-x="450" 
d="M210 -144l1 -12q51 0 75 33t24 87q0 24 -8 48q-8 22 -24 48q-18 27 -43 54q-27 28 -63 66q-42 44 -57 59q-24 24 -42 50q-17 25 -26 50t-9 59q0 53 24 86q25 34 52 50q-16 33 -16 80q0 38 12 66t33 48q22 20 48 29q27 9 57 9q32 0 57 -9q28 -10 44 -22t28 -29
q10 -14 10 -29q0 -9 -8 -19q-7 -9 -21 -9q-28 0 -39 33q-6 16 -9 25q-4 13 -12 24q-7 10 -20 18q-11 7 -31 7q-46 0 -72 -25q-27 -25 -27 -72q0 -25 6 -45q6 -18 20 -39q10 -14 35 -43q21 -24 52 -55q54 -54 75 -76q28 -29 52 -62q20 -27 31 -57q10 -27 10 -63
q0 -37 -21 -73t-53 -62q12 -32 12 -68q0 -37 -12 -70t-33 -57t-49 -37q-27 -13 -61 -13q-35 0 -66 11q-29 10 -51 29q-21 18 -33 40q-12 23 -12 45q0 13 9 22t23 9q16 0 24 -9t9 -24q5 -29 10 -45q6 -21 16 -33q11 -14 27 -21q15 -7 42 -7zM216 249l-2 -1q52 -53 83 -89
q31 -35 48 -71q13 13 21 32q7 17 7 38q0 30 -9 56q-10 28 -28 53q-23 31 -49 59q-40 42 -72 74q-38 38 -59 63q-24 29 -39 57q-13 -8 -24 -24q-11 -17 -11 -48q0 -24 8 -46q7 -20 24 -43q16 -23 42 -48q14 -14 60 -62z" />
    <glyph glyph-name="dieresis" unicode="&#xa8;" horiz-adv-x="446" 
d="M300 562v-1q-20 0 -33 12t-13 32t13 32t33 12q18 0 30 -12t12 -31q0 -20 -12 -32t-30 -12zM146 561v-1q-18 0 -30 12t-12 32t12 32t30 12q20 0 33 -12t13 -31q0 -20 -13 -32t-33 -12z" />
    <glyph glyph-name="copyright" unicode="&#xa9;" horiz-adv-x="687" 
d="M345 760h-2q64 0 120 -28q57 -28 100 -79t69 -122q26 -72 26 -156q0 -87 -25 -156q-26 -71 -69 -122t-100 -79q-56 -28 -120 -28q-66 0 -122 28q-57 28 -100 79t-69 122q-25 69 -25 156t25 156q26 71 69 122q42 50 101 79q56 28 122 28zM343 0v1q60 0 114 27q55 27 96 76
q42 50 66 118q24 69 24 153t-24 153q-24 68 -66 118q-41 49 -96 76q-54 27 -114 27q-61 0 -117 -27q-55 -27 -97 -76q-42 -50 -66 -118q-24 -69 -24 -154q0 -84 24 -153q24 -68 66 -118q42 -49 97 -76q56 -27 117 -27zM361 151l-1 -7q-35 0 -69 14q-33 14 -57 42
q-25 29 -38 72q-14 45 -14 102q0 61 16 102q17 43 42 68q27 27 55 38q30 12 59 12q18 0 30 -3t21 -6t15 -6t14 -3q13 0 17 16h8v-100h-8q-14 55 -40 74q-28 20 -58 20q-20 0 -40 -11q-19 -10 -33 -35q-14 -24 -21 -63q-8 -42 -8 -95q0 -64 10 -104q10 -41 27 -67
q16 -25 37 -37t43 -12q38 0 60 15q22 14 36 32l5 -6q-6 -9 -15 -18q-11 -11 -22 -17q-14 -8 -31 -12q-20 -5 -40 -5z" />
    <glyph glyph-name="ordfeminine" unicode="&#xaa;" horiz-adv-x="316" 
d="M105 391l-4 -2q-35 0 -57 19t-22 57q0 24 9 39q10 16 24 26q12 8 35 19q39 18 41 19l17 7q28 13 39 27q10 13 10 33v51q0 20 -4 31q-5 12 -12 18q-8 7 -16 8q-12 2 -19 2q-20 0 -29 -9q-7 -7 -16 -23q-5 -13 -12 -20q-8 -8 -21 -8t-19 7q-6 8 -6 16q0 20 30 33
q31 14 75 14q23 0 44 -3t36 -12t24 -25q9 -17 9 -43v-173q0 -38 1 -50q2 -20 4 -28q3 -9 8 -13q4 -3 12 -3q13 0 24 8l2 -6q-3 -3 -15 -10q-11 -6 -32 -6q-37 0 -50 15q-14 16 -14 36l-5 -5q-21 -21 -42 -34q-20 -12 -49 -12zM84 475q0 -69 40 -69q15 0 30 9t38 32l5 5v148
q-5 -9 -17 -19q-10 -9 -30 -18l-18 -7q-30 -17 -39 -34q-9 -18 -9 -47z" />
    <glyph glyph-name="guillemotleft" unicode="&#xab;" horiz-adv-x="307" 
d="M148 224v12l122 157l9 -5l-75 -158l76 -158l-9 -5zM32 224v12l123 157l8 -5l-75 -158l76 -158l-8 -5z" />
    <glyph glyph-name="registered" unicode="&#xae;" horiz-adv-x="433" 
d="M218 759v-5q41 0 74 -16q35 -17 60 -46q27 -31 41 -70q15 -41 15 -88q0 -48 -15 -88q-14 -39 -41 -70q-25 -29 -60 -46q-36 -17 -74 -17t-75 17q-35 16 -63 47q-27 30 -42 71q-15 40 -15 89t15 89t42 70q26 29 63 46t75 17zM218 323v-2q36 0 69 15q32 15 57 44
q24 29 39 67q15 39 15 85t-15 84t-39 66q-25 29 -57 44q-33 15 -69 15t-69 -15t-58 -43q-25 -27 -40 -66q-15 -37 -15 -84q0 -46 15 -85t40 -67t58 -43t69 -15zM143 426l-4 -5q6 2 8 3t4 8q2 8 2 18v32v107v31q0 10 -2 18q-2 7 -4 9q-3 3 -7 4v5h72q42 0 66 -12t24 -43
q0 -17 -7 -28q-8 -13 -18 -20q-11 -7 -24 -12q-12 -4 -29 -4q18 -3 30 -15q13 -13 17 -39q6 -31 12 -42t17 -11q5 0 9 2t5 3l3 -3q-5 -4 -12 -9q-7 -4 -21 -4q-15 0 -28 11q-12 10 -18 47q-3 15 -8 35q-3 13 -7 18q-4 6 -10 7q-4 1 -16 1h-6v-52v-31q0 -10 2 -18q2 -7 4 -8
t8 -3v-5h-62v5zM187 647v-109h29q27 0 39 15t12 41q0 29 -13 41q-14 12 -45 12h-22z" />
    <glyph glyph-name="macron" unicode="&#xaf;" horiz-adv-x="446" 
d="M316 607v-36h-181v36h181z" />
    <glyph glyph-name="degree" unicode="&#xb0;" horiz-adv-x="237" 
d="M118 758v-2q38 0 63 -25q26 -26 26 -63q0 -21 -7 -36q-7 -16 -19 -28q-11 -12 -28 -19q-15 -7 -36 -7q-19 0 -34 7q-17 7 -28 19q-11 11 -19 29q-7 15 -7 36q0 37 26 63t63 26zM46 667v-2q0 -33 21 -55t52 -22q32 0 53 23t21 56q0 31 -21 54q-21 22 -53 22q-31 0 -52 -22
q-21 -23 -21 -54z" />
    <glyph glyph-name="twosuperior" unicode="&#xb2;" horiz-adv-x="360" 
d="M195 511l-1 -3q34 0 44 1q17 2 24 4q9 3 13 7t7 12h8l-15 -52q-3 -9 -5 -14q-2 -3 -9 -3h-197l74 93q37 52 57 98q19 44 19 95q0 37 -9 59q-9 23 -38 23q-11 0 -19 -5q-8 -4 -12 -12t-6 -15t-3 -12q-3 -11 -9 -17t-19 -6q-12 0 -18 6t-6 17q0 17 23 35q22 18 66 18
q18 0 40 -5q19 -4 34 -15t24 -28q9 -18 9 -42t-8 -48q-7 -21 -23 -45q-15 -23 -36 -48q-16 -20 -48 -55l-44 -43h83z" />
    <glyph glyph-name="threesuperior" unicode="&#xb3;" horiz-adv-x="351" 
d="M92 821l-4 -3q2 7 5 13q1 3 6 3h168v-5l-111 -138q3 1 11 3q4 1 13 1q43 0 73 -27t30 -82q0 -26 -9 -48q-8 -21 -26 -40q-16 -17 -39 -28q-21 -10 -51 -10q-40 0 -63 17t-23 35q0 9 6 15t17 6t15 -6t6 -18q2 -8 3 -13q1 -7 6 -13q5 -7 12 -11t21 -4q38 0 54 33
q17 34 17 83q0 48 -10 74q-11 27 -36 27q-19 0 -32 -8t-20 -18l-6 4l100 124h-57h-42q-13 0 -23 -2q-8 -2 -11 -6q-1 -2 -3.5 -6t-3.5 -6h-8z" />
    <glyph glyph-name="acute" unicode="&#xb4;" horiz-adv-x="446" 
d="M163 537l81 130q9 17 18 24q10 8 22 8q13 0 21 -8t8 -20q0 -11 -6 -20q-5 -8 -17 -18l-119 -103z" />
    <glyph glyph-name="paragraph" unicode="&#xb6;" horiz-adv-x="449" 
d="M213 416h1q-39 0 -75 11q-35 11 -60 33t-40 54t-15 72q0 42 15 73q14 30 41 52q25 20 60 31q33 10 75 10h215v-9q-15 -5 -24 -12q-8 -7 -13 -27t-6 -57q-1 -25 -1 -103v-354q0 -82 -13 -134q-13 -54 -39 -87q-26 -34 -61 -47q-37 -14 -79 -14q-35 0 -54 13t-19 34
q0 15 9 24t24 9q16 0 27 -9q12 -10 20 -21t20 -21q11 -9 27 -9q15 0 30 9q16 9 26 33q11 26 17 64q6 40 6 102v601h-61v-321h-53z" />
    <glyph glyph-name="periodcentered" unicode="&#xb7;" horiz-adv-x="194" 
d="M97 231q-21 0 -36 15t-15 37q0 23 15 36q16 14 36 14q21 0 37 -14q15 -13 15 -36q0 -22 -15 -37t-37 -15z" />
    <glyph glyph-name="cedilla" unicode="&#xb8;" horiz-adv-x="446" 
d="M249 0l-25 -47q32 -5 57 -21t25 -45t-33 -49t-108 -21l-1 11q49 4 70 18t21 31q0 19 -19 26q-20 7 -45 9l-4 5l46 83h16z" />
    <glyph glyph-name="onesuperior" unicode="&#xb9;" horiz-adv-x="263" 
d="M79 465l-1 8q10 1 17 5q6 3 9 14q2 8 4 32q1 14 1 59v121v38q0 14 -3 20q-3 7 -9 8q-8 2 -18 2v8l87 61v-258v-59q0 -22 3 -32q3 -11 9 -14q7 -4 17 -5v-8h-116z" />
    <glyph glyph-name="ordmasculine" unicode="&#xba;" horiz-adv-x="348" 
d="M174 386v-1q-25 0 -52 12t-49 34t-37 57q-15 34 -15 80t15 81q16 36 37 59q23 24 49 36q27 12 52 12t52 -12q26 -12 49 -36q21 -23 37 -59q15 -35 15 -81q0 -44 -15 -79t-37 -57t-49 -34t-52 -12zM174 394h-2q16 0 33 9q15 8 28 29q13 20 20 53q8 35 8 81q0 52 -7 84
q-8 35 -19 55q-12 21 -28 30q-17 9 -33 9q-17 0 -32 -9t-27 -30q-11 -20 -19 -55q-7 -32 -7 -84q0 -50 7 -81q8 -35 19 -53q12 -20 27 -29t32 -9z" />
    <glyph glyph-name="guillemotright" unicode="&#xbb;" horiz-adv-x="307" 
d="M27 72l76 158l-75 158l8 5l123 -157v-12l-124 -157zM143 72l76 158l-75 158l8 5l123 -157v-12l-124 -157z" />
    <glyph glyph-name="onequarter" unicode="&#xbc;" horiz-adv-x="460" 
d="M291 -5l-4 -1q0 -29 1 -38q2 -15 4 -21q3 -7 7 -10q3 -2 12 -4v-8h-98v8q9 2 12 4q4 2 7 11q2 6 4 21q1 9 1 38h-138v5l177 287h15v-251h57l-20 -41h-37zM233 35v170l-104 -170h104zM52 379h348v-10h-348v10zM169 464l-1 8q10 1 17 5q6 3 9 14q2 8 4 32q1 14 1 59v121v38
q0 14 -3 20q-3 7 -9 8q-8 2 -18 2v8l87 61v-258v-59q0 -21 3 -32t9 -14q7 -4 17 -5v-8h-116z" />
    <glyph glyph-name="onehalf" unicode="&#xbd;" horiz-adv-x="460" 
d="M56 380h348v-10h-348v10zM173 465l-1 8q10 1 17 5q6 3 9 14q2 8 4 32q1 14 1 59v121v38q0 14 -3 20q-3 7 -9 8q-8 2 -18 2v8l87 61v-258v-59q0 -22 3 -32q3 -11 9 -14q7 -4 17 -5v-8h-116zM247 -41l-1 -3q34 0 44 1q17 2 24 4q9 3 13 7t7 12h8l-15 -52q-3 -9 -5 -14
q-2 -3 -9 -3h-197l74 93q37 52 57 98q19 44 19 95q0 37 -9 59q-9 23 -38 23q-11 0 -19 -5q-8 -4 -12 -12t-6 -15t-3 -12q-3 -11 -9 -17t-19 -6q-12 0 -18 6t-6 17q0 17 23 35q22 18 66 18q18 0 40 -5q19 -4 34 -15t24 -28q9 -18 9 -42t-8 -48q-7 -21 -23 -45
q-15 -23 -36 -48q-16 -20 -48 -55l-44 -43h83z" />
    <glyph glyph-name="threequarters" unicode="&#xbe;" horiz-adv-x="460" 
d="M291 -5l-4 -1q0 -29 1 -38q2 -15 4 -21q3 -7 7 -10q3 -2 12 -4v-8h-98v8q9 2 12 4q4 2 7 11q2 6 4 21q1 9 1 38h-138v5l177 287h15v-251h57l-20 -41h-37zM233 35v170l-104 -170h104zM52 379h348v-10h-348v10zM139 820l-4 -3q2 7 5 13q2 3 6 3h168v-5l-111 -138q3 1 11 3
q4 1 13 1q43 0 73 -27t30 -82q0 -25 -9 -48q-8 -21 -26 -40q-16 -17 -39 -28q-21 -10 -51 -10q-40 0 -63 17t-23 35q0 9 6 15t17 6q10 0 15 -6t6 -18q2 -8 3 -13q1 -7 6 -13q5 -7 12 -11t21 -4q37 0 54 33q17 34 17 83q0 48 -10 74q-10 27 -36 27q-19 0 -32 -8t-20 -18l-6 4
l100 124h-57h-42q-13 0 -23 -2q-8 -2 -11 -6q-1 -2 -3.5 -6t-3.5 -6h-8z" />
    <glyph glyph-name="questiondown" unicode="&#xbf;" horiz-adv-x="360" 
d="M231 271l4 1q-2 -78 -19 -132t-39 -103q-21 -48 -39 -93t-18 -100q0 -37 6 -61q6 -25 18 -38q11 -12 29 -19q17 -6 38 -6t31 9t18 26q6 14 8 20t8 16q4 7 12 10t18 3q16 -2 24 -12t6 -24q-2 -22 -33 -42q-31 -19 -97 -19q-34 0 -66 9q-31 9 -55 27q-25 19 -38 46
q-14 30 -14 67q0 36 13 66t33 61q22 33 43 60q23 28 45 65q21 34 36 75t18 88h10zM221 474q22 0 37 -15t15 -37t-15 -36q-16 -14 -37 -14q-20 0 -36 14q-15 14 -15 36t15 37t36 15z" />
    <glyph glyph-name="Agrave" unicode="&#xc0;" horiz-adv-x="545" 
d="M8 9l-4 -1q10 4 18 12q7 7 15 20q7 12 15 33q10 27 17 54l156 557q-11 35 -21 44q-11 10 -26 14v9h101q9 0 12 -3q2 -2 7 -14l177 -606q5 -17 14 -48q6 -20 12 -33q5 -11 14 -22q7 -9 21 -15v-10h-146v10q22 4 25 20t-7 51l-43 143h-253l-27 -97q-1 -4 -10 -43
q-4 -19 -3 -34q1 -14 9 -25q7 -10 26 -16v-9h-99v9zM358 235l-128 424l-118 -424h246zM175 823l-1 1q-21 6 -30 15t-9 23q0 11 7 18q8 8 21 8q11 0 18 -4q3 -2 9 -5t9 -5l131 -82l-3 -9z" />
    <glyph glyph-name="Aacute" unicode="&#xc1;" horiz-adv-x="545" 
d="M8 9l-4 -1q10 4 18 12q7 7 15 20q7 12 15 33q10 27 17 54l156 557q-11 35 -21 44q-11 10 -26 14v9h101q9 0 12 -3q2 -2 7 -14l177 -606q5 -17 14 -48q6 -20 12 -33q5 -11 14 -22q7 -9 21 -15v-10h-146v10q22 4 25 20t-7 51l-43 143h-253l-27 -97q-1 -4 -10 -43
q-4 -19 -3 -34q1 -14 9 -25q7 -10 26 -16v-9h-99v9zM358 235l-128 424l-118 -424h246zM161 792l130 81q3 2 9 5t9 5q7 4 18 4q13 0 21 -8q7 -7 7 -18q0 -14 -9 -23t-30 -15l-152 -40z" />
    <glyph glyph-name="Acircumflex" unicode="&#xc2;" horiz-adv-x="545" 
d="M8 9l-4 -1q10 4 18 12q7 7 15 20q7 12 15 33q10 27 17 54l156 557q-11 35 -21 44q-11 10 -26 14v9h101q9 0 12 -3q2 -2 7 -14l177 -606q5 -17 14 -48q6 -20 12 -33q5 -11 14 -22q7 -9 21 -15v-10h-146v10q22 4 25 20t-7 51l-43 143h-253l-27 -97q-1 -4 -10 -43
q-4 -19 -3 -34q1 -14 9 -25q7 -10 26 -16v-9h-99v9zM358 235l-128 424l-118 -424h246zM243 896l119 -106l-5 -8l-114 51l-114 -51l-5 8z" />
    <glyph glyph-name="Atilde" unicode="&#xc3;" horiz-adv-x="545" 
d="M8 9l-4 -1q10 4 18 12q7 7 15 20q7 12 15 33q10 27 17 54l156 557q-11 35 -21 44q-11 10 -26 14v9h101q9 0 12 -3q2 -2 7 -14l177 -606q5 -17 14 -48q6 -20 12 -33q5 -11 14 -22q7 -9 21 -15v-10h-146v10q22 4 25 20t-7 51l-43 143h-253l-27 -97q-1 -4 -10 -43
q-4 -19 -3 -34q1 -14 9 -25q7 -10 26 -16v-9h-99v9zM358 235l-128 424l-118 -424h246zM209 865l-1 -2q13 0 22 -1q18 -2 27 -4q8 -2 26 -4q8 -1 20 -1q7 0 20 8q11 7 28 33l9 -3q-12 -46 -29 -66q-16 -19 -33 -19q-4 0 -22 2t-27 4t-27 4t-21 2q-11 0 -21 -7q-11 -8 -30 -34
l-9 3q13 45 32 65q18 20 36 20z" />
    <glyph glyph-name="Adieresis" unicode="&#xc4;" horiz-adv-x="545" 
d="M8 9l-4 -1q10 4 18 12q7 7 15 20q7 12 15 33q10 27 17 54l156 557q-11 35 -21 44q-11 10 -26 14v9h101q9 0 12 -3q2 -2 7 -14l177 -606q5 -17 14 -48q6 -20 12 -33q5 -11 14 -22q7 -9 21 -15v-10h-146v10q22 4 25 20t-7 51l-43 143h-253l-27 -97q-1 -4 -10 -43
q-4 -19 -3 -34q1 -14 9 -25q7 -10 26 -16v-9h-99v9zM358 235l-128 424l-118 -424h246zM330 788h-1q-19 0 -31 13t-12 33q0 18 12 31t32 13q18 0 30 -13q12 -14 12 -31q0 -20 -12 -33t-30 -13zM155 788q-18 0 -30 13t-12 33q0 18 12 31t30 13q20 0 33 -13t13 -31
q0 -20 -13 -33t-33 -13z" />
    <glyph glyph-name="Aring" unicode="&#xc5;" horiz-adv-x="545" 
d="M8 9l-4 -1q10 4 18 12q7 7 15 20q7 12 15 33q10 27 17 54l156 557q-11 35 -21 44q-11 10 -26 14v9h101q9 0 12 -3q2 -2 7 -14l177 -606q5 -17 14 -48q6 -20 12 -33q5 -11 14 -22q7 -9 21 -15v-10h-146v10q22 4 25 20t-7 51l-43 143h-253l-27 -97q-1 -4 -10 -43
q-4 -19 -3 -34q1 -14 9 -25q7 -10 26 -16v-9h-99v9zM358 235l-128 424l-118 -424h246zM164 855l-2 -1q0 32 24 53t56 21t56 -21t24 -53q0 -33 -24 -54t-55 -21t-55 21t-24 55zM198 854v-1q0 -30 11 -47t32 -17t32 18q11 19 11 47q0 27 -12 45t-31 18t-31 -18t-12 -45z" />
    <glyph glyph-name="AE" unicode="&#xc6;" horiz-adv-x="740" 
d="M562 335l-8 -5l-6 27q-3 13 -12 24t-27 18q-17 7 -51 7h-36v-399h127q33 0 58 3t45 15t33 36t24 65h13l-12 -108q-2 -17 -6 -20t-15 -3h-392v9q15 4 24 12q10 8 14 27t6 56q1 24 1 99v29h-206l-45 -107q-12 -28 -18 -48q-6 -18 -4 -33q1 -13 9 -21q7 -7 23 -12v-8h-101v8
q9 4 17 11q9 7 17 18q8 10 19 33q16 32 26 55l233 555q14 32 9 44t-35 17v9h382q10 0 14 -3q5 -3 8 -21l17 -95h-14q-11 33 -24 54t-33 33q-21 13 -43 17q-27 5 -55 5h-108v-315h36q34 0 51 7q18 8 27 18t12 24l6 27h10v-164h-10zM336 239v480l-201 -480h201z" />
    <glyph glyph-name="Ccedilla" unicode="&#xc7;" horiz-adv-x="530" 
d="M317 -8l-5 -3q-57 0 -109 23q-50 22 -90 71q-38 47 -61 121q-22 72 -22 176q0 101 26 174q26 72 66 117t89 66q48 21 93 21q30 0 53 -5q18 -4 36 -11q4 -2 13 -5.5t14 -5.5q13 -5 24 -5q23 0 30 28h12v-158h-12q-12 44 -30 72q-17 27 -39 46q-20 17 -47 25t-52 8
q-40 0 -72 -19q-33 -19 -58 -61q-25 -40 -40 -110q-15 -67 -15 -165q0 -107 18 -179q18 -71 47 -117q28 -44 66 -64q37 -19 76 -19q32 0 56 6q23 6 44 17t35 24q14 12 27 29l9 -9q-10 -14 -26 -29q-14 -15 -37 -28q-21 -13 -52 -22q-30 -9 -67 -9zM279 -3l-25 -47
q32 -4 57 -21q25 -16 25 -45q0 -30 -33 -49t-108 -21l-1 11q49 4 70 18q21 13 21 31q0 19 -19 26q-20 8 -45 9l-4 5l46 83h16z" />
    <glyph glyph-name="Egrave" unicode="&#xc8;" horiz-adv-x="475" 
d="M21 9l-4 -2q16 4 25 12q8 7 13 27q4 19 6 56q1 24 1 99v344q0 75 -1 99q-2 37 -6 56q-5 20 -13 27q-9 8 -25 12v9h381q9 0 14 -3t8 -21l17 -95h-14q-11 33 -24 54t-33 33q-21 13 -43 17q-27 5 -55 5h-122v-315h42q34 0 51 7q18 8 27 18t12 24l6 27h10v-164h-10l-6 27
q-3 14 -12 24t-27 18q-17 7 -51 7h-42v-399h141q33 0 58 3t45 15t33 36t24 65h13l-12 -108q-2 -17 -6 -20t-15 -3h-406v9zM169 822l-1 1q-21 6 -30 15t-9 23q0 11 7 18q8 8 21 8q11 0 18 -4q3 -2 9 -5t9 -5l131 -82l-3 -9z" />
    <glyph glyph-name="Eacute" unicode="&#xc9;" horiz-adv-x="475" 
d="M21 9l-4 -2q16 4 25 12q8 7 13 27q4 19 6 56q1 24 1 99v344q0 75 -1 99q-2 37 -6 56q-5 20 -13 27q-9 8 -25 12v9h381q9 0 14 -3t8 -21l17 -95h-14q-11 33 -24 54t-33 33q-21 13 -43 17q-27 5 -55 5h-122v-315h42q34 0 51 7q18 8 27 18t12 24l6 27h10v-164h-10l-6 27
q-3 14 -12 24t-27 18q-17 7 -51 7h-42v-399h141q33 0 58 3t45 15t33 36t24 65h13l-12 -108q-2 -17 -6 -20t-15 -3h-406v9zM155 791l130 81q3 2 9 5t9 5q7 4 18 4q13 0 21 -8q7 -7 7 -18q0 -14 -9 -23t-30 -15l-152 -40z" />
    <glyph glyph-name="Ecircumflex" unicode="&#xca;" horiz-adv-x="475" 
d="M21 9l-4 -2q16 4 25 12q8 7 13 27q4 19 6 56q1 24 1 99v344q0 75 -1 99q-2 37 -6 56q-5 20 -13 27q-9 8 -25 12v9h381q9 0 14 -3t8 -21l17 -95h-14q-11 33 -24 54t-33 33q-21 13 -43 17q-27 5 -55 5h-122v-315h42q34 0 51 7q18 8 27 18t12 24l6 27h10v-164h-10l-6 27
q-3 14 -12 24t-27 18q-17 7 -51 7h-42v-399h141q33 0 58 3t45 15t33 36t24 65h13l-12 -108q-2 -17 -6 -20t-15 -3h-406v9zM237 895l119 -106l-5 -8l-114 51l-114 -51l-5 8z" />
    <glyph glyph-name="Edieresis" unicode="&#xcb;" horiz-adv-x="475" 
d="M21 9l-4 -2q16 4 25 12q8 7 13 27q4 19 6 56q1 24 1 99v344q0 75 -1 99q-2 37 -6 56q-5 20 -13 27q-9 8 -25 12v9h381q9 0 14 -3t8 -21l17 -95h-14q-11 33 -24 54t-33 33q-21 13 -43 17q-27 5 -55 5h-122v-315h42q34 0 51 7q18 8 27 18t12 24l6 27h10v-164h-10l-6 27
q-3 14 -12 24t-27 18q-17 7 -51 7h-42v-399h141q33 0 58 3t45 15t33 36t24 65h13l-12 -108q-2 -17 -6 -20t-15 -3h-406v9zM324 787h-1q-19 0 -31 13q-12 14 -12 33q0 17 12 31q12 13 32 13q18 0 30 -13q12 -14 12 -31q0 -19 -12 -33q-12 -13 -30 -13zM149 787q-18 0 -30 13
q-12 14 -12 33q0 17 12 31q12 13 30 13q20 0 33 -13t13 -31q0 -20 -13 -33t-33 -13z" />
    <glyph glyph-name="Igrave" unicode="&#xcc;" horiz-adv-x="214" 
d="M21 9l-1 -1q16 4 25 12q8 7 13 27q4 19 6 56q1 24 1 99v344q0 77 -1 101q-2 37 -6 56q-5 20 -13 27q-9 8 -25 12v9h171v-9q-15 -4 -24 -12q-8 -7 -13 -27q-4 -19 -6 -56q-1 -24 -1 -100v-344q0 -75 1 -99q2 -37 6 -56t14 -27q9 -7 24 -12v-9h-171v9zM37 823l-1 1
q-21 6 -30 15t-9 23q0 11 7 18q8 8 21 8q11 0 18 -4q3 -2 9 -5t9 -5l131 -82l-3 -9z" />
    <glyph glyph-name="Iacute" unicode="&#xcd;" horiz-adv-x="214" 
d="M21 9l-1 -1q16 4 25 12q8 7 13 27q4 19 6 56q1 24 1 99v344q0 77 -1 101q-2 37 -6 56q-5 20 -13 27q-9 8 -25 12v9h171v-9q-15 -4 -24 -12q-8 -7 -13 -27q-4 -19 -6 -56q-1 -24 -1 -100v-344q0 -75 1 -99q2 -37 6 -56t14 -27q9 -7 24 -12v-9h-171v9zM23 792l130 81
q3 2 9 5t9 5q7 4 18 4q13 0 21 -8q7 -7 7 -18q0 -14 -9 -23t-30 -15l-152 -40z" />
    <glyph glyph-name="Icircumflex" unicode="&#xce;" horiz-adv-x="214" 
d="M21 9l-1 -1q16 4 25 12q8 7 13 27q4 19 6 56q1 24 1 99v344q0 77 -1 101q-2 37 -6 56q-5 20 -13 27q-9 8 -25 12v9h171v-9q-15 -4 -24 -12q-8 -7 -13 -27q-4 -19 -6 -56q-1 -24 -1 -100v-344q0 -75 1 -99q2 -37 6 -56t14 -27q9 -7 24 -12v-9h-171v9zM106 896l119 -106
l-5 -8l-114 51l-114 -51l-5 8z" />
    <glyph glyph-name="Idieresis" unicode="&#xcf;" horiz-adv-x="214" 
d="M171 789h-1q-19 0 -31 13q-12 14 -12 33q0 17 12 31q12 13 32 13q18 0 30 -13q12 -14 12 -31q0 -19 -12 -33q-12 -13 -30 -13zM42 789h-1q-18 0 -30 13q-12 14 -12 33q0 17 12 31q12 13 30 13q20 0 32 -13q12 -14 12 -31q0 -19 -12 -33q-12 -13 -31 -13zM19 9l-1 -1
q16 4 25 12q8 7 13 27q4 19 6 56q1 24 1 99v344q0 77 -1 101q-2 37 -6 56q-5 20 -13 27q-9 8 -25 12v9h171v-9q-15 -4 -24 -12q-8 -7 -13 -27q-4 -19 -6 -56q-1 -24 -1 -100v-344q0 -75 1 -99q2 -37 6 -56t14 -27q9 -7 24 -12v-9h-171v9z" />
    <glyph glyph-name="Eth" unicode="&#xd0;" horiz-adv-x="583" 
d="M21 9v-4q16 4 25 12q8 7 13 27q4 19 6 56q1 24 1 99v183h-65v12h65v-12h83v-375h26q72 0 123 19q54 20 89 64q36 45 54 117t18 177q0 111 -22 178q-23 70 -61 108q-40 40 -90 53q-53 14 -110 14h-26v-340h128v-12h-128v12h-83v149q0 75 -1 99q-2 37 -6 56q-5 20 -13 27
q-9 8 -25 12v9h153q91 0 158 -22q70 -23 117 -67t73 -114q25 -68 25 -162q0 -90 -22 -160q-22 -71 -69 -121q-46 -49 -117 -76q-70 -27 -166 -27h-153v9z" />
    <glyph glyph-name="Ntilde" unicode="&#xd1;" horiz-adv-x="556" 
d="M21 9l-1 -4q17 7 25 16q8 8 13 29q4 19 6 56q1 24 1 101v337q0 75 -1 99q-2 37 -6 56q-5 20 -13 27q-9 8 -25 12v9h115q16 0 24 -5q7 -4 18 -24l300 -555v376q0 77 -1 101q-2 37 -6 56t-15 28q-9 8 -30 16v9h110v-9q-16 -8 -24 -16t-13 -28q-4 -19 -6 -56q-1 -24 -1 -100
v-544h-19l-394 728v-515q0 -76 1 -100q2 -38 7 -56q6 -19 16 -28q9 -8 30 -16v-9h-111v9zM268 862l-1 -2q13 0 22 -1q18 -2 27 -4q8 -2 26 -4q8 -1 20 -1q7 0 20 8q11 7 28 33l9 -3q-12 -46 -29 -66q-16 -19 -33 -19q-4 0 -22 2t-27 4t-27 4t-21 2q-11 0 -21 -7
q-11 -8 -30 -34l-9 3q13 45 32 65q18 20 36 20z" />
    <glyph glyph-name="Ograve" unicode="&#xd2;" horiz-adv-x="614" 
d="M307 -9l-1 -1q-48 0 -96 27q-49 27 -87 76q-39 50 -63 121q-24 72 -24 162q0 91 24 163q24 71 63 121t87 75q49 26 96 26q51 0 98 -25q48 -26 87 -75q39 -50 63 -121q24 -72 24 -163q0 -90 -24 -162q-24 -71 -63 -121q-38 -49 -87 -76q-48 -27 -97 -27zM306 2l-2 -2
q38 0 72 23q33 23 57 69q25 48 38 117q14 73 14 165q0 98 -13 164q-13 68 -38 116q-24 46 -57 69q-34 23 -72 23q-37 0 -71 -23q-33 -23 -57 -69q-25 -48 -38 -115q-14 -72 -14 -163q0 -92 14 -165q13 -69 38 -117q24 -46 57 -69q34 -23 72 -23zM236 821l-1 1q-21 6 -30 15
t-9 23q0 11 7 18q8 8 21 8q11 0 18 -4q3 -2 9 -5t9 -5l131 -82l-3 -9z" />
    <glyph glyph-name="Oacute" unicode="&#xd3;" horiz-adv-x="614" 
d="M307 -9l-1 -1q-48 0 -96 27q-49 27 -87 76q-39 50 -63 121q-24 72 -24 162q0 91 24 163q24 71 63 121t87 75q49 26 96 26q51 0 98 -25q48 -26 87 -75q39 -50 63 -121q24 -72 24 -163q0 -90 -24 -162q-24 -71 -63 -121q-38 -49 -87 -76q-48 -27 -97 -27zM306 2l-2 -2
q38 0 72 23q33 23 57 69q25 48 38 117q14 73 14 165q0 98 -13 164q-13 68 -38 116q-24 46 -57 69q-34 23 -72 23q-37 0 -71 -23q-33 -23 -57 -69q-25 -48 -38 -115q-14 -72 -14 -163q0 -92 14 -165q13 -69 38 -117q24 -46 57 -69q34 -23 72 -23zM222 790l130 81q3 2 9 5t9 5
q7 4 18 4q13 0 21 -8q7 -7 7 -18q0 -14 -9 -23t-30 -15l-152 -40z" />
    <glyph glyph-name="Ocircumflex" unicode="&#xd4;" horiz-adv-x="614" 
d="M307 -9l-1 -1q-48 0 -96 27q-49 27 -87 76q-39 50 -63 121q-24 72 -24 162q0 91 24 163q24 71 63 121t87 75q49 26 96 26q51 0 98 -25q48 -26 87 -75q39 -50 63 -121q24 -72 24 -163q0 -90 -24 -162q-24 -71 -63 -121q-38 -49 -87 -76q-48 -27 -97 -27zM306 2l-2 -2
q38 0 72 23q33 23 57 69q25 48 38 117q14 73 14 165q0 98 -13 164q-13 68 -38 116q-24 46 -57 69q-34 23 -72 23q-37 0 -71 -23q-33 -23 -57 -69q-25 -48 -38 -115q-14 -72 -14 -163q0 -92 14 -165q13 -69 38 -117q24 -46 57 -69q34 -23 72 -23zM304 894l119 -106l-5 -8
l-114 51l-114 -51l-5 8z" />
    <glyph glyph-name="Otilde" unicode="&#xd5;" horiz-adv-x="614" 
d="M307 -9l-1 -1q-48 0 -96 27q-49 27 -87 76q-39 50 -63 121q-24 72 -24 162q0 91 24 163q24 71 63 121t87 75q49 26 96 26q51 0 98 -25q48 -26 87 -75q39 -50 63 -121q24 -72 24 -163q0 -90 -24 -162q-24 -71 -63 -121q-38 -49 -87 -76q-48 -27 -97 -27zM306 2l-2 -2
q38 0 72 23q33 23 57 69q25 48 38 117q14 73 14 165q0 98 -13 164q-13 68 -38 116q-24 46 -57 69q-34 23 -72 23q-37 0 -71 -23q-33 -23 -57 -69q-25 -48 -38 -115q-14 -72 -14 -163q0 -92 14 -165q13 -69 38 -117q24 -46 57 -69q34 -23 72 -23zM270 863l-1 -2q13 0 22 -1
q18 -2 27 -4q8 -2 26 -4q8 -1 20 -1q7 0 20 8q11 7 28 33l9 -3q-12 -46 -29 -66q-16 -19 -33 -19q-4 0 -22 2t-27 4t-27 4t-21 2q-11 0 -21 -7q-11 -8 -30 -34l-9 3q13 45 32 65q18 20 36 20z" />
    <glyph glyph-name="Odieresis" unicode="&#xd6;" horiz-adv-x="614" 
d="M307 -9l-1 -1q-48 0 -96 27q-49 27 -87 76q-39 50 -63 121q-24 72 -24 162q0 91 24 163q24 71 63 121t87 75q49 26 96 26q51 0 98 -25q48 -26 87 -75q39 -50 63 -121q24 -72 24 -163q0 -90 -24 -162q-24 -71 -63 -121q-38 -49 -87 -76q-48 -27 -97 -27zM306 2l-2 -2
q38 0 72 23q33 23 57 69q25 48 38 117q14 73 14 165q0 98 -13 164q-13 68 -38 116q-24 46 -57 69q-34 23 -72 23q-37 0 -71 -23q-33 -23 -57 -69q-25 -48 -38 -115q-14 -72 -14 -163q0 -92 14 -165q13 -69 38 -117q24 -46 57 -69q34 -23 72 -23zM391 786h-1q-19 0 -31 13
t-12 33q0 18 12 31t32 13q18 0 30 -13t12 -31q0 -20 -12 -33t-30 -13zM216 786q-18 0 -30 13t-12 33q0 18 12 31t30 13q20 0 33 -13t13 -31q0 -20 -13 -33t-33 -13z" />
    <glyph glyph-name="multiply" unicode="&#xd7;" horiz-adv-x="357" 
d="M167 352l-129 140l11 12l129 -139l130 140l11 -11l-130 -141l130 -140l-12 -12l-129 140l-129 -139l-11 11z" />
    <glyph glyph-name="Oslash" unicode="&#xd8;" horiz-adv-x="615" 
d="M307 -9v-3q-69 0 -134 51l-33 -81l-12 5l35 85q-54 48 -90 131t-36 195q0 91 24 163q24 71 63 121t87 75q49 26 96 26q30 0 65 -11q33 -10 63 -33l29 70l12 -5l-30 -73q26 -21 52 -56q24 -33 42 -75q17 -40 28 -91q10 -47 10 -108q0 -90 -24 -162q-24 -71 -63 -121
q-38 -49 -87 -76q-48 -27 -97 -27zM126 373l-1 -3q0 -93 14 -166q13 -70 39 -117l241 588q-23 35 -51 51q-29 17 -62 17q-37 0 -71 -23q-33 -22 -57 -69q-25 -48 -38 -115q-14 -72 -14 -163zM306 -3l1 -3q38 0 72 23q33 23 57 69q25 48 38 117q14 73 14 165q2 101 -15 173
q-17 74 -43 119l-242 -589q23 -38 53 -56t65 -18z" />
    <glyph glyph-name="Ugrave" unicode="&#xd9;" horiz-adv-x="544" 
d="M296 -11l2 -2q-58 0 -101 12q-44 12 -74 39q-29 26 -46 69q-16 41 -16 101v336q0 75 -1 100q-2 38 -6 57q-5 20 -13 27q-9 8 -22 12v9h168v-9q-16 -4 -25 -12q-8 -7 -13 -27q-5 -19 -6 -57q-1 -25 -1 -100v-346q0 -102 36 -149t124 -47q80 0 123 46q44 47 44 153v337
q0 77 -1 101q-2 38 -7 56q-6 21 -16 29t-28 16v9h110v-9q-16 -8 -24 -16q-9 -8 -13 -28q-4 -19 -6 -56q-1 -24 -1 -100v-337q0 -112 -48 -163t-139 -51zM233 822l-1 1q-21 6 -30 15t-9 23q0 11 7 18q8 8 21 8q11 0 18 -4q3 -2 9 -5t9 -5l131 -82l-3 -9z" />
    <glyph glyph-name="Uacute" unicode="&#xda;" horiz-adv-x="544" 
d="M296 -11l2 -2q-58 0 -101 12q-44 12 -74 39q-29 26 -46 69q-16 41 -16 101v336q0 75 -1 100q-2 38 -6 57q-5 20 -13 27q-9 8 -22 12v9h168v-9q-16 -4 -25 -12q-8 -7 -13 -27q-5 -19 -6 -57q-1 -25 -1 -100v-346q0 -102 36 -149t124 -47q80 0 123 46q44 47 44 153v337
q0 77 -1 101q-2 38 -7 56q-6 21 -16 29t-28 16v9h110v-9q-16 -8 -24 -16q-9 -8 -13 -28q-4 -19 -6 -56q-1 -24 -1 -100v-337q0 -112 -48 -163t-139 -51zM219 791l130 81q3 2 9 5t9 5q7 4 18 4q13 0 21 -8q7 -7 7 -18q0 -14 -9 -23t-30 -15l-152 -40z" />
    <glyph glyph-name="Ucircumflex" unicode="&#xdb;" horiz-adv-x="544" 
d="M296 -11l2 -2q-58 0 -101 12q-44 12 -74 39q-29 26 -46 69q-16 41 -16 101v336q0 75 -1 100q-2 38 -6 57q-5 20 -13 27q-9 8 -22 12v9h168v-9q-16 -4 -25 -12q-8 -7 -13 -27q-5 -19 -6 -57q-1 -25 -1 -100v-346q0 -102 36 -149t124 -47q80 0 123 46q44 47 44 153v337
q0 77 -1 101q-2 38 -7 56q-6 21 -16 29t-28 16v9h110v-9q-16 -8 -24 -16q-9 -8 -13 -28q-4 -19 -6 -56q-1 -24 -1 -100v-337q0 -112 -48 -163t-139 -51zM302 895l119 -106l-5 -8l-114 51l-114 -51l-5 8z" />
    <glyph glyph-name="Udieresis" unicode="&#xdc;" horiz-adv-x="544" 
d="M296 -11l2 -2q-58 0 -101 12q-44 12 -74 39q-29 26 -46 69q-16 41 -16 101v336q0 75 -1 100q-2 38 -6 57q-5 20 -13 27q-9 8 -22 12v9h168v-9q-16 -4 -25 -12q-8 -7 -13 -27q-5 -19 -6 -57q-1 -25 -1 -100v-346q0 -102 36 -149t124 -47q80 0 123 46q44 47 44 153v337
q0 77 -1 101q-2 38 -7 56q-6 21 -16 29t-28 16v9h110v-9q-16 -8 -24 -16q-9 -8 -13 -28q-4 -19 -6 -56q-1 -24 -1 -100v-337q0 -112 -48 -163t-139 -51zM388 787h-1q-19 0 -31 13q-12 14 -12 33q0 17 12 31q12 13 32 13q18 0 30 -13q12 -14 12 -31q0 -19 -12 -33
q-12 -13 -30 -13zM213 787q-18 0 -30 13q-12 14 -12 33q0 17 12 31q12 13 30 13q20 0 33 -13t13 -31q0 -20 -13 -33t-33 -13z" />
    <glyph glyph-name="Yacute" unicode="&#xdd;" horiz-adv-x="505" 
d="M173 9h-3q15 5 24 12q10 8 14 27t6 56q1 24 1 99v172l-127 251l-22 44q-10 20 -18 32q-10 15 -18 23t-22 16v9h159v-9q-23 -6 -24 -21q-2 -15 15 -50l133 -270l106 224q27 57 27 82q0 26 -37 36v9h106v-9q-12 -5 -18 -10t-16 -18q-11 -14 -20 -33q-11 -21 -27 -57
l-113 -237v-184q0 -75 1 -99q2 -37 6 -56q5 -20 13 -27q9 -8 25 -12v-9h-171v9zM197 793l130 81q3 2 9 5t9 5q7 4 18 4q13 0 21 -8q7 -7 7 -18q0 -14 -9 -23t-30 -15l-152 -40z" />
    <glyph glyph-name="Thorn" unicode="&#xde;" horiz-adv-x="482" 
d="M21 9l-4 -5q16 4 25 12q8 7 13 27q4 19 6 56q1 24 1 99v344q0 77 -1 101q-2 37 -6 56q-5 20 -13 27q-9 8 -25 12v9h171v-9q-15 -5 -21 -10q-8 -6 -12 -19q-5 -13 -6 -39q-2 -34 -2 -69h79q52 0 95 -9t76 -30t51 -57t18 -91t-19 -93q-20 -40 -52 -65t-78 -37
q-45 -12 -94 -12h-76v-4q0 -75 1 -99q2 -37 6 -56t14 -27q9 -7 24 -12v-9h-171v9zM217 214v-2q27 0 57 6q29 6 54 26q24 20 39 57t15 99q0 63 -15 99q-15 37 -39 56q-23 19 -52 25q-28 6 -54 6h-78v-372h73z" />
    <glyph glyph-name="germandbls" unicode="&#xdf;" horiz-adv-x="473" 
d="M140 123l-8 -3q0 -41 1 -55q2 -24 4 -33q3 -13 9 -17q5 -4 17 -9v-9h-141v9q12 4 18 9q6 4 9 17q3 12 3 33v56v333h-54v11q16 1 27 6t17 12t9 21t3 35v23q0 54 16 90q16 38 42 63q25 25 57 37q31 12 63 12t61 -9t49 -25q21 -16 33 -39t12 -51t-12 -51q-13 -25 -28 -41
q-16 -18 -34 -34q-23 -21 -32 -31q-19 -23 -27 -39q-8 -18 -8 -38q0 -31 26 -57q23 -23 68 -60q27 -23 48 -42q20 -18 34 -39q14 -20 21 -40t7 -47q0 -31 -12 -55q-12 -25 -30 -41q-17 -15 -41 -25q-23 -9 -45 -9q-21 0 -36 5q-16 5 -24 10q-3 2 -9 5t-9 5q-8 5 -15 5
q-11 0 -15 -16h-12v121h12q12 -64 40 -93q28 -30 69 -30q38 0 57 25q20 26 20 58q0 18 -5 36t-16 32q-13 17 -30 32q-8 8 -44 37q-47 36 -72 66q-25 29 -25 74q0 22 6 40q5 15 17 34q9 15 23 30l24 27q23 25 39 56q15 30 15 74q0 58 -22 93q-22 36 -70 36q-49 0 -75 -32
q-25 -31 -25 -108v-490z" />
    <glyph glyph-name="agrave" unicode="&#xe0;" horiz-adv-x="392" 
d="M129 -6l-1 5q-44 0 -72 25q-29 26 -29 75q0 31 12 51q12 19 32 33q19 13 45 24q28 12 53 24l23 9q34 19 48 38t14 44v67q0 25 -6 42q-6 16 -15 25t-21 12t-25 3q-25 0 -39 -12t-24 -31q-7 -14 -18 -25q-10 -10 -27 -10q-15 0 -22 9q-7 8 -7 20q0 13 10 23q11 11 28 18
q18 7 42 12q27 5 53 5q32 0 56 -4q29 -5 47 -16q20 -12 32 -33t12 -56v-230q0 -33 2 -67q1 -22 5 -39q3 -13 9 -18q5 -4 17 -4q18 0 30 9l4 -7l-20 -12q-13 -7 -42 -7q-47 0 -63 21q-17 22 -17 50l-8 -8q-13 -15 -27 -27t-27 -21q-12 -8 -29 -13q-13 -4 -35 -4zM104 113v-1
q0 -48 15 -70t43 -22q21 0 38 13q20 15 48 43l8 8v200q-8 -14 -22 -27q-16 -14 -40 -27l-23 -9q-21 -11 -33 -22q-14 -12 -21 -25q-7 -12 -10 -28q-3 -15 -3 -33zM122 637h-2q-12 10 -17 18q-6 9 -6 20q0 12 8 20t21 8q14 0 22 -7t19 -24l82 -131l-7 -7z" />
    <glyph glyph-name="aacute" unicode="&#xe1;" horiz-adv-x="392" 
d="M129 -6l-1 5q-44 0 -72 25q-29 26 -29 75q0 31 12 51q12 19 32 33q19 13 45 24q28 12 53 24l23 9q34 19 48 38t14 44v67q0 25 -6 42q-6 16 -15 25t-21 12t-25 3q-25 0 -39 -12t-24 -31q-7 -14 -18 -25q-10 -10 -27 -10q-15 0 -22 9q-7 8 -7 20q0 13 10 23q11 11 28 18
q18 7 42 12q27 5 53 5q32 0 56 -4q29 -5 47 -16q20 -12 32 -33t12 -56v-230q0 -33 2 -67q1 -22 5 -39q3 -13 9 -18q5 -4 17 -4q18 0 30 9l4 -7l-20 -12q-13 -7 -42 -7q-47 0 -63 21q-17 22 -17 50l-8 -8q-13 -15 -27 -27t-27 -21q-12 -8 -29 -13q-13 -4 -35 -4zM104 113v-1
q0 -48 15 -70t43 -22q21 0 38 13q20 15 48 43l8 8v200q-8 -14 -22 -27q-16 -14 -40 -27l-23 -9q-21 -11 -33 -22q-14 -12 -21 -25q-7 -12 -10 -28q-3 -15 -3 -33zM144 541l81 130q9 17 18 24q10 8 22 8q13 0 21 -8t8 -20q0 -11 -6 -20q-5 -8 -17 -18l-119 -103z" />
    <glyph glyph-name="acircumflex" unicode="&#xe2;" horiz-adv-x="392" 
d="M129 -6l-1 5q-44 0 -72 25q-29 26 -29 75q0 31 12 51q12 19 32 33q19 13 45 24q28 12 53 24l23 9q34 19 48 38t14 44v67q0 25 -6 42q-6 16 -15 25t-21 12t-25 3q-25 0 -39 -12t-24 -31q-7 -14 -18 -25q-10 -10 -27 -10q-15 0 -22 9q-7 8 -7 20q0 13 10 23q11 11 28 18
q18 7 42 12q27 5 53 5q32 0 56 -4q29 -5 47 -16q20 -12 32 -33t12 -56v-230q0 -33 2 -67q1 -22 5 -39q3 -13 9 -18q5 -4 17 -4q18 0 30 9l4 -7l-20 -12q-13 -7 -42 -7q-47 0 -63 21q-17 22 -17 50l-8 -8q-13 -15 -27 -27t-27 -21q-12 -8 -29 -13q-13 -4 -35 -4zM104 113v-1
q0 -48 15 -70t43 -22q21 0 38 13q20 15 48 43l8 8v200q-8 -14 -22 -27q-16 -14 -40 -27l-23 -9q-21 -11 -33 -22q-14 -12 -21 -25q-7 -12 -10 -28q-3 -15 -3 -33zM192 709l107 -170l-8 -6l-99 92l-99 -92l-8 6z" />
    <glyph glyph-name="atilde" unicode="&#xe3;" horiz-adv-x="392" 
d="M129 -6l-1 5q-44 0 -72 25q-29 26 -29 75q0 31 12 51q12 19 32 33q19 13 45 24q28 12 53 24l23 9q34 19 48 38t14 44v67q0 25 -6 42q-6 16 -15 25t-21 12t-25 3q-25 0 -39 -12t-24 -31q-7 -14 -18 -25q-10 -10 -27 -10q-15 0 -22 9q-7 8 -7 20q0 13 10 23q11 11 28 18
q18 7 42 12q27 5 53 5q32 0 56 -4q29 -5 47 -16q20 -12 32 -33t12 -56v-230q0 -33 2 -67q1 -22 5 -39q3 -13 9 -18q5 -4 17 -4q18 0 30 9l4 -7l-20 -12q-13 -7 -42 -7q-47 0 -63 21q-17 22 -17 50l-8 -8q-13 -15 -27 -27t-27 -21q-12 -8 -29 -13q-13 -4 -35 -4zM104 113v-1
q0 -48 15 -70t43 -22q21 0 38 13q20 15 48 43l8 8v200q-8 -14 -22 -27q-16 -14 -40 -27l-23 -9q-21 -11 -33 -22q-14 -12 -21 -25q-7 -12 -10 -28q-3 -15 -3 -33zM156 637l-1 -5q5 0 21 -2t25 -3t25 -3t20 -2q8 0 18 9q11 9 26 35l9 -5q-11 -46 -27 -65q-17 -20 -33 -20
q-6 0 -22 2t-24 4t-24 4t-21 2q-10 0 -21 -7q-12 -7 -30 -36l-9 4q13 42 32 66q18 22 36 22z" />
    <glyph glyph-name="adieresis" unicode="&#xe4;" horiz-adv-x="392" 
d="M129 -6l-1 5q-44 0 -72 25q-29 26 -29 75q0 31 12 51q12 19 32 33q19 13 45 24q28 12 53 24l23 9q34 19 48 38t14 44v67q0 25 -6 42q-6 16 -15 25t-21 12t-25 3q-25 0 -39 -12t-24 -31q-7 -14 -18 -25q-10 -10 -27 -10q-15 0 -22 9q-7 8 -7 20q0 13 10 23q11 11 28 18
q18 7 42 12q27 5 53 5q32 0 56 -4q29 -5 47 -16q20 -12 32 -33t12 -56v-230q0 -33 2 -67q1 -22 5 -39q3 -13 9 -18q5 -4 17 -4q18 0 30 9l4 -7l-20 -12q-13 -7 -42 -7q-47 0 -63 21q-17 22 -17 50l-8 -8q-13 -15 -27 -27t-27 -21q-12 -8 -29 -13q-13 -4 -35 -4zM104 113v-1
q0 -48 15 -70t43 -22q21 0 38 13q20 15 48 43l8 8v200q-8 -14 -22 -27q-16 -14 -40 -27l-23 -9q-21 -11 -33 -22q-14 -12 -21 -25q-7 -12 -10 -28q-3 -15 -3 -33zM269 566v-1q-19 0 -33 12q-13 12 -13 32t13 32q14 12 33 12q18 0 30 -12t12 -31q0 -20 -12 -32t-30 -12z
M115 565v-1q-18 0 -30 12t-12 32t12 32t30 12q19 0 33 -12q13 -12 13 -31q0 -20 -13 -32q-14 -12 -33 -12z" />
    <glyph glyph-name="aring" unicode="&#xe5;" horiz-adv-x="392" 
d="M129 -6l-1 5q-44 0 -72 25q-29 26 -29 75q0 31 12 51q12 19 32 33q19 13 45 24q28 12 53 24l23 9q34 19 48 38t14 44v67q0 25 -6 42q-6 16 -15 25t-21 12t-25 3q-25 0 -39 -12t-24 -31q-7 -14 -18 -25q-10 -10 -27 -10q-15 0 -22 9q-7 8 -7 20q0 13 10 23q11 11 28 18
q18 7 42 12q27 5 53 5q32 0 56 -4q29 -5 47 -16q20 -12 32 -33t12 -56v-230q0 -33 2 -67q1 -22 5 -39q3 -13 9 -18q5 -4 17 -4q18 0 30 9l4 -7l-20 -12q-13 -7 -42 -7q-47 0 -63 21q-17 22 -17 50l-8 -8q-13 -15 -27 -27t-27 -21q-12 -8 -29 -13q-13 -4 -35 -4zM104 113v-1
q0 -48 15 -70t43 -22q21 0 38 13q20 15 48 43l8 8v200q-8 -14 -22 -27q-16 -14 -40 -27l-23 -9q-21 -11 -33 -22q-14 -12 -21 -25q-7 -12 -10 -28q-3 -15 -3 -33zM113 608h-2q0 32 24 53t56 21t56 -21t24 -53q0 -33 -24 -54t-55 -21t-55 21t-24 54zM147 608h-2q0 -30 12 -46
t32 -16t32 17t12 45t-12 46t-31 18t-31 -18t-12 -46z" />
    <glyph glyph-name="ae" unicode="&#xe6;" horiz-adv-x="619" 
d="M131 -6v6q-46 0 -74 25q-29 26 -29 75q0 32 12 51t32 33t45 24q28 12 53 24l23 9q34 19 48 38t14 44v67q0 26 -6 42t-15 25t-21 12t-25 3q-26 0 -39 -12q-14 -12 -24 -31q-7 -14 -18 -25q-10 -10 -27 -10q-14 0 -22 9q-7 8 -7 20q0 13 10 23q11 11 28 18q18 8 42 12
q27 5 53 5q44 0 82 -12t54 -46q29 29 60 44q32 15 60 15q56 0 96 -39q41 -40 53 -126h-252q-2 -20 -3 -31t-1 -36q0 -63 11 -110q10 -45 29 -74q18 -28 44 -42q25 -13 57 -13q34 0 59 11t44 27l7 -10q-18 -15 -48 -31q-28 -15 -73 -15q-53 0 -99 24t-75 75l-27 -28
q-18 -20 -33 -33q-13 -12 -30 -22q-15 -9 -31 -12t-37 -3zM442 474v-1q-14 0 -29 -6q-16 -6 -29 -21q-13 -14 -25 -42q-12 -27 -18 -68h179q-2 78 -24 108t-54 30zM105 113l1 -2q0 -48 15 -70t42 -22q24 0 44 13q21 14 51 45l27 28q-14 27 -21 61q-7 32 -7 76v42
q-8 -14 -22 -27q-16 -14 -40 -27l-23 -9q-21 -11 -33 -22q-14 -12 -21 -25q-7 -12 -10 -28q-3 -15 -3 -33z" />
    <glyph glyph-name="ccedilla" unicode="&#xe7;" horiz-adv-x="383" 
d="M238 -7l-3 -4q-42 0 -78 16q-37 16 -66 47q-28 30 -45 77q-17 48 -17 106q0 57 19 101t48 76q28 31 65 48t70 17q23 0 43 -4q22 -4 40 -12q17 -7 30 -20q12 -12 12 -28q0 -13 -9 -24q-9 -10 -26 -10q-21 0 -29 14q-8 15 -14 36q-4 20 -14 29q-9 9 -32 9q-51 0 -87 -55
t-36 -169q0 -121 39 -177t102 -56q36 0 62 15q24 14 45 35l8 -9q-19 -22 -49 -40t-78 -18zM217 -4l-25 -47q32 -5 57 -21t25 -45t-33 -49t-108 -21l-1 11q49 4 70 18t21 31q0 19 -19 26q-20 7 -45 9l-4 5l46 83h16z" />
    <glyph glyph-name="egrave" unicode="&#xe8;" horiz-adv-x="396" 
d="M239 -8l-2 -1q-41 0 -78 15t-66 45q-28 29 -46 76t-18 111q0 59 18 104q18 44 47 75q30 31 61 47q32 16 62 16q57 0 99 -39q43 -40 53 -126h-256q-1 -13 -3 -30q-1 -11 -1 -36q0 -63 11 -110q11 -46 30 -74q20 -29 45 -42t57 -13q33 0 60 11q26 11 45 27l7 -10
q-19 -16 -49 -31t-76 -15zM215 467v-1q-14 0 -29 -6t-30 -21t-27 -42t-18 -68h183q-2 78 -24 108t-55 30zM147 631h-2q-12 10 -17 18q-6 9 -6 20q0 12 8 20t21 8q14 0 22 -7t19 -24l82 -131l-7 -7z" />
    <glyph glyph-name="eacute" unicode="&#xe9;" horiz-adv-x="396" 
d="M239 -8l-2 -1q-41 0 -78 15t-66 45q-28 29 -46 76t-18 111q0 59 18 104q18 44 47 75q30 31 61 47q32 16 62 16q57 0 99 -39q43 -40 53 -126h-256q-1 -13 -3 -30q-1 -11 -1 -36q0 -63 11 -110q11 -46 30 -74q20 -29 45 -42t57 -13q33 0 60 11q26 11 45 27l7 -10
q-19 -16 -49 -31t-76 -15zM215 467v-1q-14 0 -29 -6t-30 -21t-27 -42t-18 -68h183q-2 78 -24 108t-55 30zM169 535l81 130q9 17 18 24q10 8 22 8q13 0 21 -8t8 -20q0 -11 -6 -20q-5 -8 -17 -18l-119 -103z" />
    <glyph glyph-name="ecircumflex" unicode="&#xea;" horiz-adv-x="396" 
d="M239 -8l-2 -1q-41 0 -78 15t-66 45q-28 29 -46 76t-18 111q0 59 18 104q18 44 47 75q30 31 61 47q32 16 62 16q57 0 99 -39q43 -40 53 -126h-256q-1 -13 -3 -30q-1 -11 -1 -36q0 -63 11 -110q11 -46 30 -74q20 -29 45 -42t57 -13q33 0 60 11q26 11 45 27l7 -10
q-19 -16 -49 -31t-76 -15zM215 467v-1q-14 0 -29 -6t-30 -21t-27 -42t-18 -68h183q-2 78 -24 108t-55 30zM217 703l107 -170l-8 -6l-99 92l-99 -92l-8 6z" />
    <glyph glyph-name="edieresis" unicode="&#xeb;" horiz-adv-x="396" 
d="M239 -8l-2 -1q-41 0 -78 15t-66 45q-28 29 -46 76t-18 111q0 59 18 104q18 44 47 75q30 31 61 47q32 16 62 16q57 0 99 -39q43 -40 53 -126h-256q-1 -13 -3 -30q-1 -11 -1 -36q0 -63 11 -110q11 -46 30 -74q20 -29 45 -42t57 -13q33 0 60 11q26 11 45 27l7 -10
q-19 -16 -49 -31t-76 -15zM215 467v-1q-14 0 -29 -6t-30 -21t-27 -42t-18 -68h183q-2 78 -24 108t-55 30zM294 560v-1q-20 0 -33 12t-13 32t13 32t33 12q18 0 30 -12t12 -31q0 -20 -12 -32t-30 -12zM140 559v-1q-18 0 -30 12t-12 32t12 32t30 12q20 0 33 -12t13 -31
q0 -20 -13 -32t-33 -12z" />
    <glyph glyph-name="igrave" unicode="&#xec;" horiz-adv-x="204" 
d="M26 9h-1q13 5 21 9q7 4 12 17t5 33v56v187q0 38 -1 50q-2 20 -4 27q-3 9 -11 12q-9 4 -21 5v11l115 63v-356v-55q0 -20 5 -33t12 -17q8 -4 21 -9v-9h-153v9zM30 633h-2q-12 10 -17 18q-6 9 -6 20q0 12 8 20t21 8q14 0 22 -7t19 -24l82 -131l-7 -7z" />
    <glyph glyph-name="iacute" unicode="&#xed;" horiz-adv-x="204" 
d="M26 9h-1q13 5 21 9q7 4 12 17t5 33v56v187q0 38 -1 50q-2 20 -4 27q-3 9 -11 12q-9 4 -21 5v11l115 63v-356v-55q0 -20 5 -33t12 -17q8 -4 21 -9v-9h-153v9zM52 537l81 130q9 17 18 24q10 8 22 8q13 0 21 -8t8 -20q0 -11 -6 -20q-5 -8 -17 -18l-119 -103z" />
    <glyph glyph-name="icircumflex" unicode="&#xee;" horiz-adv-x="204" 
d="M26 9h-1q13 5 21 9q7 4 12 17t5 33v56v187q0 38 -1 50q-2 20 -4 27q-3 9 -11 12q-9 4 -21 5v11l115 63v-356v-55q0 -20 5 -33t12 -17q8 -4 21 -9v-9h-153v9zM100 705l107 -170l-8 -6l-99 92l-99 -92l-8 6z" />
    <glyph glyph-name="idieresis" unicode="&#xef;" horiz-adv-x="204" 
d="M163 562l-2 -1q-19 0 -31 12t-12 32t12 32t32 12t32 -12t12 -31q0 -20 -12 -32t-31 -12zM33 561l-1 -1q-17 0 -31 12q-13 12 -13 32t13 32q14 12 31 12q20 0 32 -12t12 -31q0 -20 -12 -32t-31 -12zM23 7h-1q14 5 21 9t12 17t5 33v56v187q0 38 -1 50q-2 20 -4 27
q-3 9 -11 12q-9 4 -21 5v11l115 63v-356v-55q0 -20 5 -33t12 -17t21 -9v-9h-153v9z" />
    <glyph glyph-name="eth" unicode="&#xf0;" horiz-adv-x="454" 
d="M424 286l-3 -7q0 -77 -18 -133q-17 -54 -47 -91q-28 -36 -64 -52q-35 -16 -69 -16q-33 0 -68 15q-34 15 -63 47q-30 33 -47 76q-18 45 -18 104q0 60 18 106t47 78q28 31 63 48q33 16 68 16q25 0 50 -9t50 -26q-10 48 -29 96t-43 83l-105 -48l-5 11l103 47q-27 41 -60 72
q-34 32 -71 56l5 5q103 -47 167 -114l105 48l5 -12l-101 -45q73 -79 101 -169q29 -93 29 -186zM223 -4l-1 -2q26 0 47 12t36 41t24 72q9 44 9 107q0 64 -9 109t-24 72t-36 39t-46 12t-46 -12t-36 -39t-24 -72t-9 -109q0 -62 9 -106t24 -72t36 -40t46 -12z" />
    <glyph glyph-name="ntilde" unicode="&#xf1;" horiz-adv-x="462" 
d="M27 9l-3 -1q11 4 19 9t11 17t3 33v56v187q0 38 -1 50q-2 20 -4 27q-3 9 -11 12q-9 4 -21 5v11l115 63v-100l21 20q42 42 77 61q33 18 65 18q21 0 39 -6q19 -6 33 -19q15 -14 24 -34q9 -21 9 -52v-244v-55q0 -21 3 -33q3 -13 10 -17q8 -5 21 -9v-9h-148v9q13 4 21 9t11 17
q4 15 5 33q1 14 1 56v261q0 40 -14 57t-39 17q-16 0 -43 -15q-26 -14 -73 -60l-21 -20v-240v-55q0 -20 5 -33t12 -17q8 -4 21 -9v-9h-148v9zM192 632l-1 -5q5 0 21 -2t25 -3t25 -3t20 -2q8 0 18 9q11 9 26 35l9 -5q-11 -46 -27 -65q-17 -20 -33 -20q-6 0 -22 2t-24 4t-24 4
t-21 2q-10 0 -21 -7q-12 -8 -30 -36l-9 4q13 42 32 66q18 22 36 22z" />
    <glyph glyph-name="ograve" unicode="&#xf2;" horiz-adv-x="453" 
d="M226 -8v-1q-34 0 -68 15t-63 47q-30 33 -47 76q-18 45 -18 104t18 106q18 46 47 78q29 31 63 48q33 16 68 16q34 0 69 -16t64 -48t47 -78t18 -106q0 -59 -18 -104q-17 -43 -47 -76q-28 -31 -64 -46t-69 -15zM226 2l-1 -2q26 0 47 12t36 41t24 72q9 44 9 107q0 64 -9 109
t-24 72t-36 39t-46 12t-46 -12t-36 -39t-24 -72t-9 -109q0 -62 9 -106t24 -72t36 -40t46 -12zM155 630h-2q-12 10 -17 18q-6 9 -6 20q0 12 8 20t21 8q14 0 22 -7t19 -24l82 -131l-7 -7z" />
    <glyph glyph-name="oacute" unicode="&#xf3;" horiz-adv-x="453" 
d="M226 -8v-1q-34 0 -68 15t-63 47q-30 33 -47 76q-18 45 -18 104t18 106q18 46 47 78q29 31 63 48q33 16 68 16q34 0 69 -16t64 -48t47 -78t18 -106q0 -59 -18 -104q-17 -43 -47 -76q-28 -31 -64 -46t-69 -15zM226 2l-1 -2q26 0 47 12t36 41t24 72q9 44 9 107q0 64 -9 109
t-24 72t-36 39t-46 12t-46 -12t-36 -39t-24 -72t-9 -109q0 -62 9 -106t24 -72t36 -40t46 -12zM177 534l81 130q9 16 18 24q10 8 22 8q13 0 21 -8t8 -20q0 -11 -6 -20q-5 -8 -17 -18l-119 -103z" />
    <glyph glyph-name="ocircumflex" unicode="&#xf4;" horiz-adv-x="453" 
d="M226 -8v-1q-34 0 -68 15t-63 47q-30 33 -47 76q-18 45 -18 104t18 106q18 46 47 78q29 31 63 48q33 16 68 16q34 0 69 -16t64 -48t47 -78t18 -106q0 -59 -18 -104q-17 -43 -47 -76q-28 -31 -64 -46t-69 -15zM226 2l-1 -2q26 0 47 12t36 41t24 72q9 44 9 107q0 64 -9 109
t-24 72t-36 39t-46 12t-46 -12t-36 -39t-24 -72t-9 -109q0 -62 9 -106t24 -72t36 -40t46 -12zM225 702l107 -170l-8 -6l-99 92l-99 -92l-8 6z" />
    <glyph glyph-name="otilde" unicode="&#xf5;" horiz-adv-x="453" 
d="M226 -8v-1q-34 0 -68 15t-63 47q-30 33 -47 76q-18 45 -18 104t18 106q18 46 47 78q29 31 63 48q33 16 68 16q34 0 69 -16t64 -48t47 -78t18 -106q0 -59 -18 -104q-17 -43 -47 -76q-28 -31 -64 -46t-69 -15zM226 2l-1 -2q26 0 47 12t36 41t24 72q9 44 9 107q0 64 -9 109
t-24 72t-36 39t-46 12t-46 -12t-36 -39t-24 -72t-9 -109q0 -62 9 -106t24 -72t36 -40t46 -12zM189 630l-1 -5q5 0 21 -2t25 -3t25 -3t20 -2q7 0 18 9t26 35l9 -5q-11 -46 -27 -65q-17 -20 -33 -20q-6 0 -22 2t-24 4t-24 4t-21 2q-10 0 -21 -7q-12 -8 -30 -36l-9 4
q13 42 32 66q18 22 36 22z" />
    <glyph glyph-name="odieresis" unicode="&#xf6;" horiz-adv-x="453" 
d="M226 -8v-1q-34 0 -68 15t-63 47q-30 33 -47 76q-18 45 -18 104t18 106q18 46 47 78q29 31 63 48q33 16 68 16q34 0 69 -16t64 -48t47 -78t18 -106q0 -59 -18 -104q-17 -43 -47 -76q-28 -31 -64 -46t-69 -15zM226 2l-1 -2q26 0 47 12t36 41t24 72q9 44 9 107q0 64 -9 109
t-24 72t-36 39t-46 12t-46 -12t-36 -39t-24 -72t-9 -109q0 -62 9 -106t24 -72t36 -40t46 -12zM302 559v-1q-20 0 -33 12t-13 32t13 32t33 12q18 0 30 -12t12 -31q0 -20 -12 -32t-30 -12zM148 558v-1q-18 0 -30 12t-12 32t12 32t30 12q20 0 33 -12t13 -31q0 -20 -13 -32
t-33 -12z" />
    <glyph glyph-name="divide" unicode="&#xf7;" horiz-adv-x="411" 
d="M162 488l-2 -2q0 20 13 33t33 13q19 0 32 -13q14 -14 14 -33q0 -18 -13 -31t-31 -13q-19 0 -33 14q-13 13 -13 32zM36 357h336v-16h-336v16zM160 209l-2 -2q0 19 13 32q14 14 33 14t32 -13q14 -14 14 -31q0 -20 -13 -33t-31 -13q-20 0 -33 13t-13 33z" />
    <glyph glyph-name="oslash" unicode="&#xf8;" horiz-adv-x="453" 
d="M305 423l-2 -2q-15 25 -36 35q-22 11 -43 11q-25 0 -46 -12t-36 -39t-24 -72t-9 -109q0 -55 8 -100q7 -41 21 -70zM104 -36l-11 2l27 58q-39 28 -66 80q-27 51 -27 123q0 59 18 106q18 46 47 78q28 31 63 48q33 16 68 16q25 0 47 -7q23 -7 46 -21l23 48l11 -6l-23 -49
q42 -31 68 -82q27 -53 27 -127q0 -59 -18 -104q-17 -43 -47 -76q-28 -31 -64 -46t-69 -15q-49 0 -94 30zM144 45l-1 -2q15 -25 36 -37t45 -12q26 0 47 12t36 41t24 72q9 44 9 107q0 59 -8 105q-8 43 -21 72z" />
    <glyph glyph-name="ugrave" unicode="&#xf9;" 
d="M167 -8l-4 -3q-23 0 -42 6q-18 6 -34 20q-15 13 -24 35q-9 21 -9 53v206q0 38 -1 50q-2 20 -4 27q-3 9 -11 12q-9 4 -21 5v11l116 63v-391q0 -42 14 -59t39 -17q10 0 20 3q9 2 24 11q13 7 32 23q18 15 41 38l8 8v217v50q0 19 -4 27q-5 9 -12 12q-9 4 -21 5v11l115 63
v-356v-55q0 -20 5 -33t12 -17t23 -9v-9h-116v78l-8 -8q-43 -43 -75 -60t-63 -17zM154 630h-2q-12 10 -17 18q-6 9 -6 20q0 12 8 20t21 8q14 0 22 -7t19 -24l82 -131l-7 -7z" />
    <glyph glyph-name="uacute" unicode="&#xfa;" 
d="M167 -8l-4 -3q-23 0 -42 6q-18 6 -34 20q-15 13 -24 35q-9 21 -9 53v206q0 38 -1 50q-2 20 -4 27q-3 9 -11 12q-9 4 -21 5v11l116 63v-391q0 -42 14 -59t39 -17q10 0 20 3q9 2 24 11q13 7 32 23q18 15 41 38l8 8v217v50q0 19 -4 27q-5 9 -12 12q-9 4 -21 5v11l115 63
v-356v-55q0 -20 5 -33t12 -17t23 -9v-9h-116v78l-8 -8q-43 -43 -75 -60t-63 -17zM177 534l81 130q9 16 18 24q10 8 22 8q13 0 21 -8t8 -20q0 -11 -6 -20q-5 -8 -17 -18l-119 -103z" />
    <glyph glyph-name="ucircumflex" unicode="&#xfb;" 
d="M167 -8l-4 -3q-23 0 -42 6q-18 6 -34 20q-15 13 -24 35q-9 21 -9 53v206q0 38 -1 50q-2 20 -4 27q-3 9 -11 12q-9 4 -21 5v11l116 63v-391q0 -42 14 -59t39 -17q10 0 20 3q9 2 24 11q13 7 32 23q18 15 41 38l8 8v217v50q0 19 -4 27q-5 9 -12 12q-9 4 -21 5v11l115 63
v-356v-55q0 -20 5 -33t12 -17t23 -9v-9h-116v78l-8 -8q-43 -43 -75 -60t-63 -17zM225 702l107 -170l-8 -6l-99 92l-99 -92l-8 6z" />
    <glyph glyph-name="udieresis" unicode="&#xfc;" 
d="M167 -8l-4 -3q-23 0 -42 6q-18 6 -34 20q-15 13 -24 35q-9 21 -9 53v206q0 38 -1 50q-2 20 -4 27q-3 9 -11 12q-9 4 -21 5v11l116 63v-391q0 -42 14 -59t39 -17q10 0 20 3q9 2 24 11q13 7 32 23q18 15 41 38l8 8v217v50q0 19 -4 27q-5 9 -12 12q-9 4 -21 5v11l115 63
v-356v-55q0 -20 5 -33t12 -17t23 -9v-9h-116v78l-8 -8q-43 -43 -75 -60t-63 -17zM302 559v-1q-20 0 -33 12t-13 32t13 32t33 12q18 0 30 -12t12 -31q0 -20 -12 -32t-30 -12zM148 558v-1q-18 0 -30 12t-12 32t12 32t30 12q20 0 33 -12t13 -31q0 -20 -13 -32t-33 -12z" />
    <glyph glyph-name="yacute" unicode="&#xfd;" horiz-adv-x="387" 
d="M71 -169l2 -1q-23 0 -33 9t-10 23q0 31 34 31q17 0 26 -6t20 -6q6 0 13 3t15 14q10 14 17 28q12 23 20 46l10 28l-125 357q-17 48 -19 52q-9 22 -13 30q-6 11 -12 15q-4 3 -14 7v9h142v-9q-11 -2 -17 -6q-5 -4 -7 -15q-2 -10 3 -30t15 -51l84 -258l83 234q14 41 18 64
q5 25 2 37q-3 14 -12 18t-23 6v9h95v-9q-10 -3 -15 -7q-4 -3 -13 -17q-6 -10 -16 -36q-15 -40 -23 -64l-129 -364q-17 -42 -31 -67q-13 -24 -29 -43q-14 -17 -28 -24t-30 -7zM170 536l81 130q9 16 18 24q10 8 22 8q13 0 21 -8t8 -20q0 -11 -6 -20q-5 -8 -17 -18l-119 -103z
" />
    <glyph glyph-name="thorn" unicode="&#xfe;" horiz-adv-x="467" 
d="M25 -154l1 -2q12 4 18 9q6 4 9 17q3 12 3 33v55v662q0 39 -1 51q-2 20 -4 27q-3 9 -11 11q-10 2 -23 2v10l117 57v-393l10 12q38 43 66 63q29 20 59 20t59 -13q31 -14 54 -40q24 -27 39 -71t15 -105q0 -62 -15 -110t-42 -81q-28 -34 -64 -50q-39 -17 -81 -17
q-25 0 -51 10t-49 30v-73v-55q0 -20 5 -33t12 -17q7 -5 21 -9v-10h-147v10zM136 366l-1 -324q24 -21 50 -31q24 -9 50 -9q25 0 48 12t39 39q17 28 26 71q9 44 9 108q0 68 -9 111q-9 45 -22 69q-13 25 -32 36q-17 10 -36 10q-22 0 -48 -18q-23 -16 -64 -62z" />
    <glyph glyph-name="ydieresis" unicode="&#xff;" horiz-adv-x="387" 
d="M71 -169l2 -1q-23 0 -33 9t-10 23q0 31 34 31q17 0 26 -6t20 -6q6 0 13 3t15 14q10 14 17 28q12 23 20 46l10 28l-125 357q-17 48 -19 52q-9 22 -13 30q-6 11 -12 15q-4 3 -14 7v9h142v-9q-11 -2 -17 -6q-5 -4 -7 -15q-2 -10 3 -30t15 -51l84 -258l83 234q14 41 18 64
q5 25 2 37q-3 14 -12 18t-23 6v9h95v-9q-10 -3 -15 -7q-4 -3 -13 -17q-6 -10 -16 -36q-15 -40 -23 -64l-129 -364q-17 -42 -31 -67q-13 -24 -29 -43q-14 -17 -28 -24t-30 -7zM295 561v-1q-19 0 -33 12q-13 12 -13 32t13 32q14 12 33 12q18 0 30 -12t12 -31q0 -20 -12 -32
t-30 -12zM141 560v-1q-18 0 -30 12t-12 32t12 32t30 12q19 0 33 -12q13 -12 13 -31q0 -20 -13 -32q-14 -12 -33 -12z" />
    <glyph glyph-name="Amacron" unicode="&#x100;" horiz-adv-x="545" 
d="M8 9l-4 -1q10 4 18 12q7 7 15 20q7 12 15 33q10 27 17 54l156 557q-11 35 -21 44q-11 10 -26 14v9h101q9 0 12 -3q2 -2 7 -14l177 -606q5 -17 14 -48q6 -20 12 -33q5 -11 14 -22q7 -9 21 -15v-10h-146v10q22 4 25 20t-7 51l-43 143h-253l-27 -97q-1 -4 -10 -43
q-4 -19 -3 -34q1 -14 9 -25q7 -10 26 -16v-9h-99v9zM358 235l-128 424l-118 -424h246zM339 798h-191v37h191v-37z" />
    <glyph glyph-name="amacron" unicode="&#x101;" horiz-adv-x="392" 
d="M129 -6l-1 5q-44 0 -72 25q-29 26 -29 75q0 31 12 51q12 19 32 33q19 13 45 24q28 12 53 24l23 9q34 19 48 38t14 44v67q0 25 -6 42q-6 16 -15 25t-21 12t-25 3q-25 0 -39 -12t-24 -31q-7 -14 -18 -25q-10 -10 -27 -10q-15 0 -22 9q-7 8 -7 20q0 13 10 23q11 11 28 18
q18 7 42 12q27 5 53 5q32 0 56 -4q29 -5 47 -16q20 -12 32 -33t12 -56v-230q0 -33 2 -67q1 -22 5 -39q3 -13 9 -18q5 -4 17 -4q18 0 30 9l4 -7l-20 -12q-13 -7 -42 -7q-47 0 -63 21q-17 22 -17 50l-8 -8q-13 -15 -27 -27t-27 -21q-12 -8 -29 -13q-13 -4 -35 -4zM104 113v-1
q0 -48 15 -70t43 -22q21 0 38 13q20 15 48 43l8 8v200q-8 -14 -22 -27q-16 -14 -40 -27l-23 -9q-21 -11 -33 -22q-14 -12 -21 -25q-7 -12 -10 -28q-3 -15 -3 -33zM283 611v-36h-181v36h181z" />
    <glyph glyph-name="Abreve" unicode="&#x102;" horiz-adv-x="545" 
d="M8 9l-4 -1q10 4 18 12q7 7 15 20q7 12 15 33q10 27 17 54l156 557q-11 35 -21 44q-11 10 -26 14v9h101q9 0 12 -3q2 -2 7 -14l177 -606q5 -17 14 -48q6 -20 12 -33q5 -11 14 -22q7 -9 21 -15v-10h-146v10q22 4 25 20t-7 51l-43 143h-253l-27 -97q-1 -4 -10 -43
q-4 -19 -3 -34q1 -14 9 -25q7 -10 26 -16v-9h-99v9zM358 235l-128 424l-118 -424h246zM244 835l-3 1q36 0 55 14q17 13 25 33h12q-2 -18 -7 -33q-6 -15 -17 -30q-10 -13 -27 -22q-16 -9 -39 -9t-39 9q-15 8 -28 23q-12 13 -18 30q-5 15 -7 33h12q4 -19 24 -34q19 -15 57 -15
z" />
    <glyph glyph-name="abreve" unicode="&#x103;" horiz-adv-x="392" 
d="M129 -6l-1 5q-44 0 -72 25q-29 26 -29 75q0 31 12 51q12 19 32 33q19 13 45 24q28 12 53 24l23 9q34 19 48 38t14 44v67q0 25 -6 42q-6 16 -15 25t-21 12t-25 3q-25 0 -39 -12t-24 -31q-7 -14 -18 -25q-10 -10 -27 -10q-15 0 -22 9q-7 8 -7 20q0 13 10 23q11 11 28 18
q18 7 42 12q27 5 53 5q32 0 56 -4q29 -5 47 -16q20 -12 32 -33t12 -56v-230q0 -33 2 -67q1 -22 5 -39q3 -13 9 -18q5 -4 17 -4q18 0 30 9l4 -7l-20 -12q-13 -7 -42 -7q-47 0 -63 21q-17 22 -17 50l-8 -8q-13 -15 -27 -27t-27 -21q-12 -8 -29 -13q-13 -4 -35 -4zM104 113v-1
q0 -48 15 -70t43 -22q21 0 38 13q20 15 48 43l8 8v200q-8 -14 -22 -27q-16 -14 -40 -27l-23 -9q-21 -11 -33 -22q-14 -12 -21 -25q-7 -12 -10 -28q-3 -15 -3 -33zM193 593l4 -2q35 0 51 16q17 17 24 43h12q-2 -22 -7 -40q-6 -20 -16 -34q-11 -15 -27 -24t-37 -9q-23 0 -39 9
t-28 24t-18 35q-5 17 -7 41h12q4 -25 23 -42t53 -17z" />
    <glyph glyph-name="Aogonek" unicode="&#x104;" horiz-adv-x="545" 
d="M8 9v-3q10 4 18 12q7 7 15 20q7 12 15 33q10 27 17 54l156 557q-11 35 -21 44q-11 10 -26 14v9h101q9 0 12 -3q2 -2 7 -14l177 -606q5 -17 14 -48q6 -20 12 -33q5 -11 14 -22q7 -9 21 -15v-10h-77q-17 0 -33 -8q-14 -7 -25 -21q-10 -12 -16 -30q-6 -17 -6 -33
q0 -20 9 -33t29 -13q13 0 22 6q6 4 16 12l7 -7q-3 -5 -9 -12t-16 -13q-13 -7 -24 -11q-15 -5 -30 -5q-31 0 -51 18q-19 18 -19 45q0 22 12 40q11 16 29 31q16 14 36 24l36 18l-65 218h-253l-27 -97q-1 -4 -10 -43q-4 -19 -3 -34q1 -14 9 -25q7 -10 26 -16v-9h-99v9zM361 233
l-127 424l-118 -424h245z" />
    <glyph glyph-name="aogonek" unicode="&#x105;" horiz-adv-x="392" 
d="M129 -6l-3 3q-44 0 -72 25q-29 26 -29 75q0 31 12 51q12 19 32 33q19 13 45 24q28 12 53 24l23 9q34 19 48 38t14 44v67q0 25 -6 42q-6 16 -15 25t-21 12t-25 3q-25 0 -39 -12t-24 -31q-7 -14 -18 -25q-10 -10 -27 -10q-15 0 -22 9q-7 8 -7 20q0 13 10 23q11 11 28 18
q18 7 42 12q27 5 53 5q32 0 56 -4q29 -5 47 -16q20 -12 32 -33t12 -56v-230q0 -33 2 -67q1 -22 5 -39q3 -13 9 -18q5 -4 17 -4q18 0 30 9l4 -7q-5 -5 -21 -12q-30 -14 -47 -37q-18 -24 -18 -56q0 -18 10 -31t30 -13q14 0 23 6q12 8 17 12l7 -7q-3 -5 -9 -12t-16 -13
q-13 -7 -24 -11q-15 -5 -30 -5q-32 0 -50 18t-18 45q0 20 9 35q8 14 23 27q13 12 30 21q15 8 32 15h-12q-40 0 -58 21t-18 51l-8 -8q-13 -15 -27 -27t-27 -21q-12 -8 -29 -13q-13 -4 -35 -4zM102 111v-1q0 -48 15 -70t43 -22q21 0 38 13q20 15 48 43l8 8v200q-8 -14 -22 -27
q-16 -14 -40 -27l-23 -9q-21 -11 -33 -22q-14 -12 -21 -25q-7 -12 -10 -28q-3 -15 -3 -33z" />
    <glyph glyph-name="Cacute" unicode="&#x106;" horiz-adv-x="530" 
d="M317 -8l-5 -3q-57 0 -109 23q-50 22 -90 71q-38 47 -61 121q-22 72 -22 176q0 101 26 174q26 72 66 117t89 66q48 21 93 21q30 0 53 -5q18 -4 36 -11q4 -2 13 -5.5t14 -5.5q13 -5 24 -5q23 0 30 28h12v-158h-12q-12 44 -30 72q-17 27 -39 46q-20 17 -47 25t-52 8
q-40 0 -72 -19q-33 -19 -58 -61q-25 -40 -40 -110q-15 -67 -15 -165q0 -107 18 -179q18 -71 47 -117q28 -44 66 -64q37 -19 76 -19q32 0 56 6q23 6 44 17t35 24q14 12 27 29l9 -9q-10 -14 -26 -29q-14 -15 -37 -28q-21 -13 -52 -22q-30 -9 -67 -9zM217 790l130 81q3 2 9 5
t9 5q7 4 18 4q13 0 21 -8q7 -7 7 -18q0 -14 -9 -23t-30 -15l-152 -40z" />
    <glyph glyph-name="cacute" unicode="&#x107;" horiz-adv-x="383" 
d="M238 -7l-3 -4q-42 0 -78 16q-37 16 -66 47q-28 30 -45 77q-17 48 -17 106q0 57 19 101t48 76q28 31 65 48t70 17q23 0 43 -4q22 -4 40 -12q17 -7 30 -20q12 -12 12 -28q0 -13 -9 -24q-9 -10 -26 -10q-21 0 -29 14q-8 15 -14 36q-4 20 -14 29q-9 9 -32 9q-51 0 -87 -55
t-36 -169q0 -121 39 -177t102 -56q36 0 62 15q24 14 45 35l8 -9q-19 -22 -49 -40t-78 -18zM178 533l81 130q9 17 18 24q10 8 22 8q13 0 21 -8t8 -20q0 -11 -6 -20q-5 -8 -17 -18l-119 -103z" />
    <glyph glyph-name="Ccircumflex" unicode="&#x108;" horiz-adv-x="530" 
d="M317 -8l-5 -3q-57 0 -109 23q-50 22 -90 71q-38 47 -61 121q-22 72 -22 176q0 101 26 174q26 72 66 117t89 66q48 21 93 21q30 0 53 -5q18 -4 36 -11q4 -2 13 -5.5t14 -5.5q13 -5 24 -5q23 0 30 28h12v-158h-12q-12 44 -30 72q-17 27 -39 46q-20 17 -47 25t-52 8
q-40 0 -72 -19q-33 -19 -58 -61q-25 -40 -40 -110q-15 -67 -15 -165q0 -107 18 -179q18 -71 47 -117q28 -44 66 -64q37 -19 76 -19q32 0 56 6q23 6 44 17t35 24q14 12 27 29l9 -9q-10 -14 -26 -29q-14 -15 -37 -28q-21 -13 -52 -22q-30 -9 -67 -9zM299 894l119 -106l-5 -8
l-114 51l-114 -51l-5 8z" />
    <glyph glyph-name="ccircumflex" unicode="&#x109;" horiz-adv-x="383" 
d="M238 -7l-3 -4q-42 0 -78 16q-37 16 -66 47q-28 30 -45 77q-17 48 -17 106q0 57 19 101t48 76q28 31 65 48t70 17q23 0 43 -4q22 -4 40 -12q17 -7 30 -20q12 -12 12 -28q0 -13 -9 -24q-9 -10 -26 -10q-21 0 -29 14q-8 15 -14 36q-4 20 -14 29q-9 9 -32 9q-51 0 -87 -55
t-36 -169q0 -121 39 -177t102 -56q36 0 62 15q24 14 45 35l8 -9q-19 -22 -49 -40t-78 -18zM226 701l107 -170l-8 -6l-99 92l-99 -92l-8 6z" />
    <glyph glyph-name="Cdotaccent" unicode="&#x10a;" horiz-adv-x="530" 
d="M317 -8l-5 -3q-57 0 -109 23q-50 22 -90 71q-38 47 -61 121q-22 72 -22 176q0 101 26 174q26 72 66 117t89 66q48 21 93 21q30 0 53 -5q18 -4 36 -11q4 -2 13 -5.5t14 -5.5q13 -5 24 -5q23 0 30 28h12v-158h-12q-12 44 -30 72q-17 27 -39 46q-20 17 -47 25t-52 8
q-40 0 -72 -19q-33 -19 -58 -61q-25 -40 -40 -110q-15 -67 -15 -165q0 -107 18 -179q18 -71 47 -117q28 -44 66 -64q37 -19 76 -19q32 0 56 6q23 6 44 17t35 24q14 12 27 29l9 -9q-10 -14 -26 -29q-14 -15 -37 -28q-21 -13 -52 -22q-30 -9 -67 -9zM299 786l-1 -1
q-19 0 -33 14q-13 13 -13 33t13 33t33 13t33 -13q14 -14 14 -33q0 -20 -13 -33t-33 -13z" />
    <glyph glyph-name="cdotaccent" unicode="&#x10b;" horiz-adv-x="383" 
d="M238 -7l-3 -4q-42 0 -78 16q-37 16 -66 47q-28 30 -45 77q-17 48 -17 106q0 57 19 101t48 76q28 31 65 48t70 17q23 0 43 -4q22 -4 40 -12q17 -7 30 -20q12 -12 12 -28q0 -13 -9 -24q-9 -10 -26 -10q-21 0 -29 14q-8 15 -14 36q-4 20 -14 29q-9 9 -32 9q-51 0 -87 -55
t-36 -169q0 -121 39 -177t102 -56q36 0 62 15q24 14 45 35l8 -9q-19 -22 -49 -40t-78 -18zM226 557l-1 -1q-19 0 -33 14q-13 13 -13 33q0 19 14 33q13 13 33 13t33 -13t13 -33t-13 -33t-33 -13z" />
    <glyph glyph-name="Ccaron" unicode="&#x10c;" horiz-adv-x="530" 
d="M317 -8l-5 -3q-57 0 -109 23q-50 22 -90 71q-38 47 -61 121q-22 72 -22 176q0 101 26 174q26 72 66 117t89 66q48 21 93 21q30 0 53 -5q18 -4 36 -11q4 -2 13 -5.5t14 -5.5q13 -5 24 -5q23 0 30 28h12v-158h-12q-12 44 -30 72q-17 27 -39 46q-20 17 -47 25t-52 8
q-40 0 -72 -19q-33 -19 -58 -61q-25 -40 -40 -110q-15 -67 -15 -165q0 -107 18 -179q18 -71 47 -117q28 -44 66 -64q37 -19 76 -19q32 0 56 6q23 6 44 17t35 24q14 12 27 29l9 -9q-10 -14 -26 -29q-14 -15 -37 -28q-21 -13 -52 -22q-30 -9 -67 -9zM185 898l114 -50l114 50
l5 -7l-119 -106l-119 106z" />
    <glyph glyph-name="ccaron" unicode="&#x10d;" horiz-adv-x="383" 
d="M238 -7l-3 -4q-42 0 -78 16q-37 16 -66 47q-28 30 -45 77q-17 48 -17 106q0 57 19 101t48 76q28 31 65 48t70 17q23 0 43 -4q22 -4 40 -12q17 -7 30 -20q12 -12 12 -28q0 -13 -9 -24q-9 -10 -26 -10q-21 0 -29 14q-8 15 -14 36q-4 20 -14 29q-9 9 -32 9q-51 0 -87 -55
t-36 -169q0 -121 39 -177t102 -56q36 0 62 15q24 14 45 35l8 -9q-19 -22 -49 -40t-78 -18zM127 706l99 -92l99 92l8 -6l-107 -170l-107 170z" />
    <glyph glyph-name="Dcaron" unicode="&#x10e;" horiz-adv-x="583" 
d="M21 9l1 -1q16 4 25 12q8 7 13 27q4 19 6 56q1 24 1 99v344q0 75 -1 99q-2 37 -6 56q-5 20 -13 27q-9 8 -25 12v9h153q91 0 158 -22q70 -23 117 -67t73 -114q25 -68 25 -162q0 -90 -22 -160q-22 -71 -69 -121q-46 -49 -117 -76q-70 -27 -166 -27h-153v9zM149 737l-1 -730
h26q72 0 123 19q54 20 89 64q36 45 54 117t18 177q0 111 -22 178q-23 70 -61 108q-40 40 -90 53q-53 14 -110 14h-26zM121 897l114 -50l114 50l5 -7l-119 -106l-119 106z" />
    <glyph glyph-name="dcaron" unicode="&#x10f;" horiz-adv-x="470" 
d="M203 -8l-4 2q-30 0 -63 14q-31 13 -55 42t-39 73q-15 45 -15 106q0 63 17 111q16 46 45 78q30 33 64 47q36 15 74 15q23 0 50 -12q29 -13 53 -37v190q0 39 -1 51q-1 18 -6 27q-5 10 -13 11q-12 2 -25 2v10l120 57v-655q0 -41 1 -55q2 -21 6 -33q5 -13 13 -17q9 -5 24 -9
v-9h-119v80l-4 -5q-34 -42 -63 -63t-60 -21zM107 243l-2 -1q0 -71 10 -114q10 -44 27 -70q16 -25 35 -36q17 -10 36 -10q23 0 48 18q27 19 62 63l4 5v319q-30 27 -54 38q-25 12 -49 12q-21 0 -43 -11q-20 -10 -37 -36q-16 -26 -27 -69q-10 -41 -10 -108zM441 588l10 130
q1 24 9 36t24 12q14 0 21 -7t7 -18q0 -14 -9 -35l-53 -120z" />
    <glyph glyph-name="Dcroat" unicode="&#x110;" horiz-adv-x="583" 
d="M21 9v-4q16 4 25 12q8 7 13 27q4 19 6 56q1 24 1 99v183h-65v12h65v-12h83v-375h26q72 0 123 19q54 20 89 64q36 45 54 117t18 177q0 111 -22 178q-23 70 -61 108q-40 40 -90 53q-53 14 -110 14h-26v-340h128v-12h-128v12h-83v149q0 75 -1 99q-2 37 -6 56q-5 20 -13 27
q-9 8 -25 12v9h153q91 0 158 -22q70 -23 117 -67t73 -114q25 -68 25 -162q0 -90 -22 -160q-22 -71 -69 -121q-46 -49 -117 -76q-70 -27 -166 -27h-153v9z" />
    <glyph glyph-name="dcroat" unicode="&#x111;" horiz-adv-x="470" 
d="M203 581h275v-12h-275v12zM203 -8l-4 2q-30 0 -63 14q-31 13 -55 42t-39 73q-15 45 -15 106q0 63 17 111q16 46 45 78q30 33 64 47q36 15 74 15q23 0 50 -12q29 -13 53 -37v190q0 39 -1 51q-1 18 -6 27q-5 10 -13 11q-12 2 -25 2v10l120 57v-655q0 -41 1 -55q2 -21 6 -33
q5 -13 13 -17q9 -5 24 -9v-9h-119v80l-4 -5q-34 -42 -63 -63t-60 -21zM107 243l-2 -1q0 -71 10 -114q10 -44 27 -70q16 -25 35 -36q17 -10 36 -10q23 0 48 18q27 19 62 63l4 5v319q-30 27 -54 38q-25 12 -49 12q-21 0 -43 -11q-20 -10 -37 -36q-16 -26 -27 -69
q-10 -41 -10 -108z" />
    <glyph glyph-name="Emacron" unicode="&#x112;" horiz-adv-x="475" 
d="M21 9l-4 -2q16 4 25 12q8 7 13 27q4 19 6 56q1 24 1 99v344q0 75 -1 99q-2 37 -6 56q-5 20 -13 27q-9 8 -25 12v9h381q9 0 14 -3t8 -21l17 -95h-14q-11 33 -24 54t-33 33q-21 13 -43 17q-27 5 -55 5h-122v-315h42q34 0 51 7q18 8 27 18t12 24l6 27h10v-164h-10l-6 27
q-3 14 -12 24t-27 18q-17 7 -51 7h-42v-399h141q33 0 58 3t45 15t33 36t24 65h13l-12 -108q-2 -17 -6 -20t-15 -3h-406v9zM333 797h-191v37h191v-37z" />
    <glyph glyph-name="emacron" unicode="&#x113;" horiz-adv-x="396" 
d="M239 -8l-2 -1q-41 0 -78 15t-66 45q-28 29 -46 76t-18 111q0 59 18 104q18 44 47 75q30 31 61 47q32 16 62 16q57 0 99 -39q43 -40 53 -126h-256q-1 -13 -3 -30q-1 -11 -1 -36q0 -63 11 -110q11 -46 30 -74q20 -29 45 -42t57 -13q33 0 60 11q26 11 45 27l7 -10
q-19 -16 -49 -31t-76 -15zM215 467v-1q-14 0 -29 -6t-30 -21t-27 -42t-18 -68h183q-2 78 -24 108t-55 30zM308 605v-36h-181v36h181z" />
    <glyph glyph-name="Ebreve" unicode="&#x114;" horiz-adv-x="475" 
d="M21 9l-4 -2q16 4 25 12q8 7 13 27q4 19 6 56q1 24 1 99v344q0 75 -1 99q-2 37 -6 56q-5 20 -13 27q-9 8 -25 12v9h381q9 0 14 -3t8 -21l17 -95h-14q-11 33 -24 54t-33 33q-21 13 -43 17q-27 5 -55 5h-122v-315h42q34 0 51 7q18 8 27 18t12 24l6 27h10v-164h-10l-6 27
q-3 14 -12 24t-27 18q-17 7 -51 7h-42v-399h141q33 0 58 3t45 15t33 36t24 65h13l-12 -108q-2 -17 -6 -20t-15 -3h-406v9zM238 834l-3 1q36 0 55 14q17 13 25 33h12q-2 -18 -7 -33q-6 -15 -17 -30q-10 -13 -27 -22q-16 -9 -39 -9t-39 9q-15 8 -28 23q-12 14 -18 30
q-5 15 -7 33h12q4 -19 24 -34q19 -15 57 -15z" />
    <glyph glyph-name="ebreve" unicode="&#x115;" horiz-adv-x="396" 
d="M239 -8l-2 -1q-41 0 -78 15t-66 45q-28 29 -46 76t-18 111q0 59 18 104q18 44 47 75q30 31 61 47q32 16 62 16q57 0 99 -39q43 -40 53 -126h-256q-1 -13 -3 -30q-1 -11 -1 -36q0 -63 11 -110q11 -46 30 -74q20 -29 45 -42t57 -13q33 0 60 11q26 11 45 27l7 -10
q-19 -16 -49 -31t-76 -15zM215 467v-1q-14 0 -29 -6t-30 -21t-27 -42t-18 -68h183q-2 78 -24 108t-55 30zM218 587l4 -2q35 0 51 16q17 17 24 43h12q-2 -22 -7 -40q-6 -20 -16 -34q-10 -15 -27 -24t-37 -9q-22 0 -39 9q-16 9 -28 24t-18 35q-5 17 -7 41h12q4 -25 23 -42
t53 -17z" />
    <glyph glyph-name="Edotaccent" unicode="&#x116;" horiz-adv-x="475" 
d="M21 9l-4 -2q16 4 25 12q8 7 13 27q4 19 6 56q1 24 1 99v344q0 75 -1 99q-2 37 -6 56q-5 20 -13 27q-9 8 -25 12v9h381q9 0 14 -3t8 -21l17 -95h-14q-11 33 -24 54t-33 33q-21 13 -43 17q-27 5 -55 5h-122v-315h42q34 0 51 7q18 8 27 18t12 24l6 27h10v-164h-10l-6 27
q-3 14 -12 24t-27 18q-17 7 -51 7h-42v-399h141q33 0 58 3t45 15t33 36t24 65h13l-12 -108q-2 -17 -6 -20t-15 -3h-406v9zM237 787l-1 -1q-19 0 -33 14q-13 13 -13 33t13 33t33 13t33 -13q14 -14 14 -33q0 -20 -13 -33t-33 -13z" />
    <glyph glyph-name="edotaccent" unicode="&#x117;" horiz-adv-x="396" 
d="M239 -8l-2 -1q-41 0 -78 15t-66 45q-28 29 -46 76t-18 111q0 59 18 104q18 44 47 75q30 31 61 47q32 16 62 16q57 0 99 -39q43 -40 53 -126h-256q-1 -13 -3 -30q-1 -11 -1 -36q0 -63 11 -110q11 -46 30 -74q20 -29 45 -42t57 -13q33 0 60 11q26 11 45 27l7 -10
q-19 -16 -49 -31t-76 -15zM215 467v-1q-14 0 -29 -6t-30 -21t-27 -42t-18 -68h183q-2 78 -24 108t-55 30zM217 559l-1 -1q-19 0 -33 14q-13 13 -13 33q0 19 14 33q13 13 33 13t33 -13t13 -33t-13 -33t-33 -13z" />
    <glyph glyph-name="Eogonek" unicode="&#x118;" horiz-adv-x="475" 
d="M21 9l-4 -2q16 4 25 12q8 7 13 27q4 19 6 56q1 24 1 99v344q0 75 -1 99q-2 37 -6 56q-5 20 -13 27q-9 8 -25 12v9h381q9 0 14 -3t8 -21l17 -95h-14q-11 33 -24 54t-33 33q-21 13 -43 17q-27 5 -55 5h-122v-315h42q34 0 51 7q18 8 27 18t12 24l6 27h10v-164h-10l-6 27
q-3 14 -12 24t-27 18q-17 7 -51 7h-42v-399h141q33 0 58 3t45 15t33 36t24 65h13l-12 -108q-2 -17 -6 -20t-15 -3h-406v9zM319 -171l2 -3q-32 0 -50 18t-18 45q0 22 12 40q11 16 29 31q15 12 33 22q21 11 27 14h18q-22 -13 -40 -37t-18 -56q0 -17 9 -31q9 -13 29 -13
q13 0 22 6q12 8 17 12l7 -7l-9 -12q-6 -7 -16 -13q-13 -7 -24 -11q-15 -5 -30 -5z" />
    <glyph glyph-name="eogonek" unicode="&#x119;" horiz-adv-x="396" 
d="M330 -127l-3 -4q-3 -5 -9 -12t-16 -13q-13 -7 -24 -11q-15 -5 -30 -5q-32 0 -50 18t-18 45q0 19 9 36t23 29t30 21t30 15q-16 -3 -36 -3q-40 0 -78 15t-66 45q-28 29 -46 76t-18 111q0 59 18 104q18 44 47 75q30 31 61 47q32 16 62 16q57 0 99 -39q43 -40 53 -126h-256
q-2 -20 -3 -31t-1 -36q0 -63 11 -110q11 -46 30 -74t45 -42q25 -13 57 -13q33 0 60 11q25 10 45 27l7 -10q-12 -10 -19 -15q-9 -6 -24 -13q-28 -13 -51 -38t-23 -63q0 -18 9 -31t29 -13q13 0 22 6q6 4 16 12zM214 464v-1q-14 0 -29 -6t-30 -21t-27 -42t-18 -68h183
q-1 78 -24 108t-55 30z" />
    <glyph glyph-name="Ecaron" unicode="&#x11a;" horiz-adv-x="475" 
d="M21 9l-4 -2q16 4 25 12q8 7 13 27q4 19 6 56q1 24 1 99v344q0 75 -1 99q-2 37 -6 56q-5 20 -13 27q-9 8 -25 12v9h381q9 0 14 -3t8 -21l17 -95h-14q-11 33 -24 54t-33 33q-21 13 -43 17q-27 5 -55 5h-122v-315h42q34 0 51 7q18 8 27 18t12 24l6 27h10v-164h-10l-6 27
q-3 14 -12 24t-27 18q-17 7 -51 7h-42v-399h141q33 0 58 3t45 15t33 36t24 65h13l-12 -108q-2 -17 -6 -20t-15 -3h-406v9zM123 899l114 -50l114 50l5 -7l-119 -106l-119 106z" />
    <glyph glyph-name="ecaron" unicode="&#x11b;" horiz-adv-x="396" 
d="M239 -8l-2 -1q-41 0 -78 15t-66 45q-28 29 -46 76t-18 111q0 59 18 104q18 44 47 75q30 31 61 47q32 16 62 16q57 0 99 -39q43 -40 53 -126h-256q-1 -13 -3 -30q-1 -11 -1 -36q0 -63 11 -110q11 -46 30 -74q20 -29 45 -42t57 -13q33 0 60 11q26 11 45 27l7 -10
q-19 -16 -49 -31t-76 -15zM215 467v-1q-14 0 -29 -6t-30 -21t-27 -42t-18 -68h183q-2 78 -24 108t-55 30zM118 708l99 -92l99 92l8 -6l-107 -170l-107 170z" />
    <glyph glyph-name="Gcircumflex" unicode="&#x11c;" horiz-adv-x="577" 
d="M314 -9v1q-65 0 -117 28q-53 29 -90 79q-37 51 -57 123q-20 74 -20 160q0 96 26 168q26 70 66 117t90 69q51 23 99 23q33 0 54 -6t36 -12t27 -12t27 -6q19 0 26 28h11v-158h-11q-19 83 -66 117q-47 35 -106 35q-41 0 -75 -18t-60 -60q-26 -43 -41 -110t-15 -167
q0 -101 14 -177q14 -73 39 -120q25 -46 62 -69q35 -22 80 -22q61 0 94 34t33 118v21q0 57 -1 76q-1 29 -6 45q-4 16 -13 22t-24 9v10h167v-10q-12 -3 -21 -9t-15 -24q-5 -16 -7 -52q-2 -46 -2 -93v-57q-17 -20 -38 -38q-22 -19 -47 -32q-23 -12 -56 -22q-30 -9 -63 -9z
M308 898l119 -106l-5 -8l-114 51l-114 -51l-5 8z" />
    <glyph glyph-name="gcircumflex" unicode="&#x11d;" horiz-adv-x="396" 
d="M189 166h-7q-20 0 -37 4q-19 4 -36 12l-11 -7q-14 -9 -21 -19q-8 -11 -8 -21q0 -11 9 -18q8 -7 35 -13l157 -28q57 -10 84 -36q27 -25 27 -70q0 -32 -15 -57t-40 -43q-25 -17 -61 -28q-34 -10 -78 -10q-34 0 -67 6q-32 6 -58 18t-41 30t-15 44q0 18 9 33q10 16 22 27
q15 14 30 23q16 10 35 18q-35 10 -51 29q-15 18 -15 44q0 29 18 47t35 29l11 7q-32 17 -53 50t-21 83q0 41 15 71q15 31 39 50q24 20 52 30q27 10 55 10q20 0 41 -6q24 -7 41 -16q25 19 50 30t42 11q29 0 29 -30q0 -12 -7 -19t-18 -7q-14 0 -26 9t-29 9q-7 0 -16 -3
q-10 -3 -16 -7q29 -19 51 -53q21 -33 21 -81q0 -40 -15 -69t-39 -47t-52 -27t-55 -9zM182 178l-1 -1q17 0 33 8q15 7 27 24q11 15 19 44q7 25 7 65q0 78 -25 113q-26 36 -60 36t-60 -36q-25 -35 -25 -113q0 -40 7 -65q8 -29 19 -44q12 -17 27 -24q14 -7 32 -7zM53 -65l-1 -3
q0 -45 36 -69t96 -24q36 0 66 8q28 7 48 21t30 31t10 37q0 16 -6 27t-16 18q-11 8 -25 12q-15 5 -33 9l-144 26q-34 -20 -48 -39q-13 -19 -13 -54zM185 701l107 -170l-8 -6l-99 92l-99 -92l-8 6z" />
    <glyph glyph-name="Gbreve" unicode="&#x11e;" horiz-adv-x="577" 
d="M314 -9v1q-65 0 -117 28q-53 29 -90 79q-37 51 -57 123q-20 74 -20 160q0 96 26 168q26 70 66 117t90 69q51 23 99 23q33 0 54 -6t36 -12t27 -12t27 -6q19 0 26 28h11v-158h-11q-19 83 -66 117q-47 35 -106 35q-41 0 -75 -18t-60 -60q-26 -43 -41 -110t-15 -167
q0 -101 14 -177q14 -73 39 -120q25 -46 62 -69q35 -22 80 -22q61 0 94 34t33 118v21q0 57 -1 76q-1 29 -6 45q-4 16 -13 22t-24 9v10h167v-10q-12 -3 -21 -9t-15 -24q-5 -16 -7 -52q-2 -46 -2 -93v-57q-17 -20 -38 -38q-22 -19 -47 -32q-23 -12 -56 -22q-30 -9 -63 -9z
M309 837l-3 1q36 0 55 14q17 13 25 33h12q-2 -18 -7 -33q-6 -15 -17 -30q-10 -13 -27 -22t-39 -9t-39 9q-15 8 -28 23q-12 13 -18 30q-5 15 -7 33h12q4 -19 24 -34t57 -15z" />
    <glyph glyph-name="gbreve" unicode="&#x11f;" horiz-adv-x="396" 
d="M189 166h-7q-20 0 -37 4q-19 4 -36 12l-11 -7q-14 -9 -21 -19q-8 -11 -8 -21q0 -11 9 -18q8 -7 35 -13l157 -28q57 -10 84 -36q27 -25 27 -70q0 -32 -15 -57t-40 -43q-25 -17 -61 -28q-34 -10 -78 -10q-34 0 -67 6q-32 6 -58 18t-41 30t-15 44q0 18 9 33q10 16 22 27
q15 14 30 23q16 10 35 18q-35 10 -51 29q-15 18 -15 44q0 29 18 47t35 29l11 7q-32 17 -53 50t-21 83q0 41 15 71q15 31 39 50q24 20 52 30q27 10 55 10q20 0 41 -6q24 -7 41 -16q25 19 50 30t42 11q29 0 29 -30q0 -12 -7 -19t-18 -7q-14 0 -26 9t-29 9q-7 0 -16 -3
q-10 -3 -16 -7q29 -19 51 -53q21 -33 21 -81q0 -40 -15 -69t-39 -47t-52 -27t-55 -9zM182 178l-1 -1q17 0 33 8q15 7 27 24q11 15 19 44q7 25 7 65q0 78 -25 113q-26 36 -60 36t-60 -36q-25 -35 -25 -113q0 -40 7 -65q8 -29 19 -44q12 -17 27 -24q14 -7 32 -7zM53 -65l-1 -3
q0 -45 36 -69t96 -24q36 0 66 8q28 7 48 21t30 31t10 37q0 16 -6 27t-16 18q-11 8 -25 12q-15 5 -33 9l-144 26q-34 -20 -48 -39q-13 -19 -13 -54zM186 585l4 -2q35 0 51 16q17 17 24 43h12q-2 -22 -7 -40q-6 -20 -16 -34q-10 -15 -27 -24t-37 -9q-22 0 -39 9q-16 9 -28 24
t-18 35q-5 17 -7 41h12q4 -25 23 -42t53 -17z" />
    <glyph glyph-name="Gdotaccent" unicode="&#x120;" horiz-adv-x="577" 
d="M314 -9v1q-65 0 -117 28q-53 29 -90 79q-37 51 -57 123q-20 74 -20 160q0 96 26 168q26 70 66 117t90 69q51 23 99 23q33 0 54 -6t36 -12t27 -12t27 -6q19 0 26 28h11v-158h-11q-19 83 -66 117q-47 35 -106 35q-41 0 -75 -18t-60 -60q-26 -43 -41 -110t-15 -167
q0 -101 14 -177q14 -73 39 -120q25 -46 62 -69q35 -22 80 -22q61 0 94 34t33 118v21q0 57 -1 76q-1 29 -6 45q-4 16 -13 22t-24 9v10h167v-10q-12 -3 -21 -9t-15 -24q-5 -16 -7 -52q-2 -46 -2 -93v-57q-17 -20 -38 -38q-22 -19 -47 -32q-23 -12 -56 -22q-30 -9 -63 -9z
M307 790l-1 -1q-19 0 -33 14q-13 13 -13 33t13 33t33 13t33 -13q14 -14 14 -33q0 -20 -13 -33t-33 -13z" />
    <glyph glyph-name="gdotaccent" unicode="&#x121;" horiz-adv-x="396" 
d="M189 166h-7q-20 0 -37 4q-19 4 -36 12l-11 -7q-14 -9 -21 -19q-8 -11 -8 -21q0 -11 9 -18q8 -7 35 -13l157 -28q57 -10 84 -36q27 -25 27 -70q0 -32 -15 -57t-40 -43q-25 -17 -61 -28q-34 -10 -78 -10q-34 0 -67 6q-32 6 -58 18t-41 30t-15 44q0 18 9 33q10 16 22 27
q15 14 30 23q16 10 35 18q-35 10 -51 29q-15 18 -15 44q0 29 18 47t35 29l11 7q-32 17 -53 50t-21 83q0 41 15 71q15 31 39 50q24 20 52 30q27 10 55 10q20 0 41 -6q24 -7 41 -16q25 19 50 30t42 11q29 0 29 -30q0 -12 -7 -19t-18 -7q-14 0 -26 9t-29 9q-7 0 -16 -3
q-10 -3 -16 -7q29 -19 51 -53q21 -33 21 -81q0 -40 -15 -69t-39 -47t-52 -27t-55 -9zM182 178l-1 -1q17 0 33 8q15 7 27 24q11 15 19 44q7 25 7 65q0 78 -25 113q-26 36 -60 36t-60 -36q-25 -35 -25 -113q0 -40 7 -65q8 -29 19 -44q12 -17 27 -24q14 -7 32 -7zM53 -65l-1 -3
q0 -45 36 -69t96 -24q36 0 66 8q28 7 48 21t30 31t10 37q0 16 -6 27t-16 18q-11 8 -25 12q-15 5 -33 9l-144 26q-34 -20 -48 -39q-13 -19 -13 -54zM185 557l-1 -1q-19 0 -33 14q-13 13 -13 33q0 19 14 33q13 13 33 13t33 -13t13 -33t-13 -33t-33 -13z" />
    <glyph glyph-name="uni0122" unicode="&#x122;" horiz-adv-x="577" 
d="M314 -9v1q-65 0 -117 28q-53 29 -90 79q-37 51 -57 123q-20 74 -20 160q0 96 26 168q26 70 66 117t90 69q51 23 99 23q33 0 54 -6t36 -12t27 -12t27 -6q19 0 26 28h11v-158h-11q-19 83 -66 117q-47 35 -106 35q-41 0 -75 -18t-60 -60q-26 -43 -41 -110t-15 -167
q0 -101 14 -177q14 -73 39 -120q25 -46 62 -69q35 -22 80 -22q61 0 94 34t33 118v21q0 57 -1 76q-1 29 -6 45q-4 16 -13 22t-24 9v10h167v-10q-12 -3 -21 -9t-15 -24q-5 -16 -7 -52q-2 -46 -2 -93v-57q-17 -20 -38 -38q-22 -19 -47 -32q-23 -12 -56 -22q-30 -9 -63 -9z
M320 -116v1q-2 -5 -9 -9t-18 -4q-16 0 -27 11t-11 30q0 20 13 30q14 11 30 11q20 0 35 -15t15 -42q0 -41 -22 -60q-23 -20 -52 -27l-4 9q56 15 56 52q0 9 -6 13z" />
    <glyph glyph-name="uni0123" unicode="&#x123;" horiz-adv-x="396" 
d="M189 166h-7q-20 0 -37 4q-19 4 -36 12l-11 -7q-14 -9 -21 -19q-8 -11 -8 -21q0 -11 9 -18q8 -7 35 -13l157 -28q57 -10 84 -36q27 -25 27 -70q0 -32 -15 -57t-40 -43q-25 -17 -61 -28q-34 -10 -78 -10q-34 0 -67 6q-32 6 -58 18t-41 30t-15 44q0 18 9 33q10 16 22 27
q15 14 30 23q16 10 35 18q-35 10 -51 29q-15 18 -15 44q0 29 18 47t35 29l11 7q-32 17 -53 50t-21 83q0 41 15 71q15 31 39 50q24 20 52 30q27 10 55 10q20 0 41 -6q24 -7 41 -16q25 19 50 30t42 11q29 0 29 -30q0 -12 -7 -19t-18 -7q-14 0 -26 9t-29 9q-7 0 -16 -3
q-10 -3 -16 -7q29 -19 51 -53q21 -33 21 -81q0 -40 -15 -69t-39 -47t-52 -27t-55 -9zM182 178l-1 -1q17 0 33 8q15 7 27 24q11 15 19 44q7 25 7 65q0 78 -25 113q-26 36 -60 36t-60 -36q-25 -35 -25 -113q0 -40 7 -65q8 -29 19 -44q12 -17 27 -24q14 -7 32 -7zM53 -65l-1 -3
q0 -45 36 -69t96 -24q36 0 66 8q28 7 48 21t30 31t10 37q0 16 -6 27t-16 18q-11 8 -25 12q-15 5 -33 9l-144 26q-34 -20 -48 -39q-13 -19 -13 -54zM160 617l-2 -5q2 4 9 9q8 5 18 5q17 0 27 -10q11 -11 11 -28q0 -20 -13 -30q-14 -11 -30 -11q-20 0 -35 15t-15 43
q0 40 23 60q23 19 51 27l5 -9q-29 -7 -42 -21q-13 -13 -13 -30q0 -10 6 -15z" />
    <glyph glyph-name="Hcircumflex" unicode="&#x124;" horiz-adv-x="596" 
d="M21 9h-2q16 4 25 12q8 7 13 27t6 57q1 25 1 100v344q0 75 -1 100q-1 37 -6 57t-13 27q-9 8 -25 12v9h171v-9q-15 -5 -24 -12q-8 -7 -13 -27t-6 -57q-1 -25 -1 -100v-130h300v130q0 75 -1 100q-1 37 -6 57t-13 27q-9 7 -24 12v9h171v-9q-16 -4 -25 -12q-8 -7 -13 -27
t-6 -57q-1 -25 -1 -100v-344q0 -75 1 -100q1 -37 6 -57t13 -27q9 -8 25 -12v-9h-171v9q15 5 24 12q10 8 14 27q4 20 6 57q1 25 1 100v202h-300v-202q0 -75 1 -100q2 -37 6 -57q4 -19 14 -27q9 -7 24 -12v-9h-171v9zM296 897l119 -106l-5 -8l-114 51l-114 -51l-5 8z" />
    <glyph glyph-name="hcircumflex" unicode="&#x125;" horiz-adv-x="463" 
d="M27 9l-1 -3q11 4 19 9t11 17t3 33v56v494q0 39 -1 51q-2 18 -6 27q-5 10 -12 11q-10 2 -23 2v10l117 61v-399l21 20q42 42 77 61q33 18 65 18q21 0 40 -6q20 -6 34 -19q15 -14 24 -34q9 -21 9 -52v-244v-55q0 -21 3 -33q3 -13 10 -17q8 -5 19 -9v-9h-148v9q14 4 21 9
q8 5 11 17q4 15 5 33q1 14 1 56v261q0 40 -14 57t-38 17q-17 0 -44 -15q-26 -14 -73 -60l-21 -20v-240v-55q0 -20 5 -33t12 -17t21 -9v-9h-147v9zM240 920l119 -106l-5 -8l-114 51l-114 -51l-5 8z" />
    <glyph glyph-name="Hbar" unicode="&#x126;" horiz-adv-x="595" 
d="M-4 579h603v-12h-603v12zM21 9h-2q16 4 25 12q8 7 13 27t6 57q1 25 1 100v344q0 75 -1 100q-1 37 -6 57t-13 27q-9 8 -25 12v9h171v-9q-15 -5 -24 -12q-8 -7 -13 -27t-6 -57q-1 -25 -1 -100v-130h300v130q0 75 -1 100q-1 37 -6 57t-13 27q-9 7 -24 12v9h171v-9
q-16 -4 -25 -12q-8 -7 -13 -27t-6 -57q-1 -25 -1 -100v-344q0 -75 1 -100q1 -37 6 -57t13 -27q9 -8 25 -12v-9h-171v9q15 5 24 12q10 8 14 27q4 20 6 57q1 25 1 100v202h-300v-202q0 -75 1 -100q2 -37 6 -57q4 -19 14 -27q9 -7 24 -12v-9h-171v9z" />
    <glyph glyph-name="hbar" unicode="&#x127;" horiz-adv-x="462" 
d="M-8 569v12h274v-12h-274zM27 9l-1 -3q11 4 19 9t11 17t3 33v56v494q0 39 -1 51q-2 18 -6 27q-5 10 -12 11q-10 2 -23 2v10l117 61v-399l21 20q42 42 77 61q33 18 65 18q21 0 40 -6q20 -6 34 -19q15 -14 24 -34q9 -21 9 -52v-244v-55q0 -21 3 -33q3 -13 10 -17q8 -5 19 -9
v-9h-148v9q14 4 21 9q8 5 11 17q4 15 5 33q1 14 1 56v261q0 40 -14 57t-38 17q-17 0 -44 -15q-26 -14 -73 -60l-21 -20v-240v-55q0 -20 5 -33t12 -17t21 -9v-9h-147v9z" />
    <glyph glyph-name="Itilde" unicode="&#x128;" horiz-adv-x="214" 
d="M21 9l-1 -1q16 4 25 12q8 7 13 27q4 19 6 56q1 24 1 99v344q0 77 -1 101q-2 37 -6 56q-5 20 -13 27q-9 8 -25 12v9h171v-9q-15 -4 -24 -12q-8 -7 -13 -27q-4 -19 -6 -56q-1 -24 -1 -100v-344q0 -75 1 -99q2 -37 6 -56t14 -27q9 -7 24 -12v-9h-171v9zM71 865l-1 -2
q13 0 22 -1q18 -2 27 -4q8 -2 26 -4q8 -1 20 -1q7 0 20 8q11 7 28 33l9 -3q-12 -46 -29 -66q-16 -19 -33 -19q-4 0 -22 2t-27 4t-27 4t-21 2q-11 0 -21 -7q-11 -8 -30 -34l-9 3q13 45 32 65q18 20 36 20z" />
    <glyph glyph-name="itilde" unicode="&#x129;" horiz-adv-x="204" 
d="M26 9h-1q13 5 21 9q7 4 12 17t5 33v56v187q0 38 -1 50q-2 20 -4 27q-3 9 -11 12q-9 4 -21 5v11l115 63v-356v-55q0 -20 5 -33t12 -17q8 -4 21 -9v-9h-153v9zM64 633l-1 -5q5 0 21 -2t25 -3t25 -3t20 -2q8 0 18 9q11 9 26 35l9 -5q-11 -46 -27 -65q-17 -20 -33 -20
q-6 0 -22 2t-24 4t-24 4t-21 2q-10 0 -21 -7q-12 -7 -30 -36l-9 4q13 42 32 66q18 22 36 22z" />
    <glyph glyph-name="Imacron" unicode="&#x12a;" horiz-adv-x="214" 
d="M21 9l-1 -1q16 4 25 12q8 7 13 27q4 19 6 56q1 24 1 99v344q0 77 -1 101q-2 37 -6 56q-5 20 -13 27q-9 8 -25 12v9h171v-9q-15 -4 -24 -12q-8 -7 -13 -27q-4 -19 -6 -56q-1 -24 -1 -100v-344q0 -75 1 -99q2 -37 6 -56t14 -27q9 -7 24 -12v-9h-171v9zM202 798h-191v37h191
v-37z" />
    <glyph glyph-name="imacron" unicode="&#x12b;" horiz-adv-x="204" 
d="M26 9h-1q13 5 21 9q7 4 12 17t5 33v56v187q0 38 -1 50q-2 20 -4 27q-3 9 -11 12q-9 4 -21 5v11l115 63v-356v-55q0 -20 5 -33t12 -17q8 -4 21 -9v-9h-153v9zM191 607v-36h-181v36h181z" />
    <glyph glyph-name="Ibreve" unicode="&#x12c;" horiz-adv-x="214" 
d="M21 9l-1 -1q16 4 25 12q8 7 13 27q4 19 6 56q1 24 1 99v344q0 77 -1 101q-2 37 -6 56q-5 20 -13 27q-9 8 -25 12v9h171v-9q-15 -4 -24 -12q-8 -7 -13 -27q-4 -19 -6 -56q-1 -24 -1 -100v-344q0 -75 1 -99q2 -37 6 -56t14 -27q9 -7 24 -12v-9h-171v9zM107 835l-3 1
q36 0 55 14q17 13 25 33h12q-2 -18 -7 -33q-6 -15 -17 -30q-10 -13 -27 -22t-39 -9t-39 9q-15 8 -28 23q-12 13 -18 30q-5 15 -7 33h12q4 -19 24 -34t57 -15z" />
    <glyph glyph-name="ibreve" unicode="&#x12d;" horiz-adv-x="204" 
d="M26 9h-1q13 5 21 9q7 4 12 17t5 33v56v187q0 38 -1 50q-2 20 -4 27q-3 9 -11 12q-9 4 -21 5v11l115 63v-356v-55q0 -20 5 -33t12 -17q8 -4 21 -9v-9h-153v9zM101 589l4 -2q35 0 51 16q17 17 24 43h12q-2 -22 -7 -40q-6 -20 -16 -34q-11 -15 -27 -24q-17 -9 -37 -9
q-23 0 -39 9t-28 24t-18 35q-5 17 -7 41h12q4 -25 23 -42t53 -17z" />
    <glyph glyph-name="Iogonek" unicode="&#x12e;" horiz-adv-x="214" 
d="M21 9l-1 -1q16 4 25 12q8 7 13 27q4 19 6 56q1 24 1 99v344q0 77 -1 101q-2 37 -6 56q-5 20 -13 27q-9 8 -25 12v9h171v-9q-15 -4 -24 -12q-8 -7 -13 -27q-4 -19 -6 -56q-1 -24 -1 -100v-344q0 -75 1 -99q2 -37 6 -56t14 -27q9 -7 24 -12v-9h-171v9zM107 -170l2 -3
q-32 0 -50 18t-18 45q0 22 12 40q11 16 29 31q15 12 33 22q21 11 27 14h18q-22 -13 -40 -37t-18 -56q0 -17 9 -31q9 -13 29 -13q13 0 22 6q12 8 17 12l7 -7q-3 -5 -9 -12t-16 -13q-13 -7 -24 -11q-15 -5 -30 -5z" />
    <glyph glyph-name="iogonek" unicode="&#x12f;" horiz-adv-x="204" 
d="M100 560l-1 -1q-19 0 -33 14q-13 13 -13 33q0 19 14 33q13 13 33 13t33 -13t13 -33t-13 -33t-33 -13zM25 8h-1q14 4 21 9q7 4 12 17t5 33v56v187q0 38 -1 50q-2 20 -4 27q-3 9 -11 12q-9 4 -21 5v11l115 63v-356v-55q0 -20 5 -33t12 -17q7 -5 21 -9v-9h-153v9zM95 -170
l2 -3q-32 0 -50 18t-18 45q0 22 12 40q11 16 29 31q15 12 33 22q21 11 27 14h18q-22 -13 -40 -37t-18 -56q0 -17 9 -31q9 -13 29 -13q13 0 22 6q12 8 17 12l7 -7q-3 -5 -9 -12t-16 -13q-13 -7 -24 -11q-15 -5 -30 -5z" />
    <glyph glyph-name="Idotaccent" unicode="&#x130;" horiz-adv-x="214" 
d="M21 9l-1 -1q16 4 25 12q8 7 13 27q4 19 6 56q1 24 1 99v344q0 77 -1 101q-2 37 -6 56q-5 20 -13 27q-9 8 -25 12v9h171v-9q-15 -4 -24 -12q-8 -7 -13 -27q-4 -19 -6 -56q-1 -24 -1 -100v-344q0 -75 1 -99q2 -37 6 -56t14 -27q9 -7 24 -12v-9h-171v9zM105 788l-1 -1
q-19 0 -33 14q-13 13 -13 33t13 33t33 13t33 -13q14 -14 14 -33q0 -20 -13 -33t-33 -13z" />
    <glyph glyph-name="dotlessi" unicode="&#x131;" horiz-adv-x="204" 
d="M26 9h-1q13 5 21 9q7 4 12 17t5 33v56v187q0 38 -1 50q-2 20 -4 27q-3 9 -11 12q-9 4 -21 5v11l115 63v-356v-55q0 -20 5 -33t12 -17q8 -4 21 -9v-9h-153v9z" />
    <glyph glyph-name="IJ" unicode="&#x132;" horiz-adv-x="556" 
d="M21 9l-1 -1q16 4 25 12q8 7 13 27q4 19 6 56q1 24 1 99v344q0 77 -1 101q-2 37 -6 56q-5 20 -13 27q-9 8 -25 12v9h171v-9q-15 -4 -24 -12q-8 -7 -13 -27q-4 -19 -6 -56q-1 -24 -1 -100v-344q0 -75 1 -99q2 -37 6 -56t14 -27q9 -7 24 -12v-9h-171v9zM354 -10l-2 -3
q-68 0 -101 21t-33 52q0 19 11 28t27 9q20 0 30 -10q10 -11 18 -33q7 -26 18 -40q10 -13 33 -13t38 17q15 16 15 54v473q0 77 -1 102q-1 37 -6 57t-13 27q-9 8 -25 12v9h171v-9q-15 -5 -24 -12q-8 -7 -13 -27t-6 -57q-1 -25 -1 -102v-409q0 -33 -10 -59q-11 -27 -28 -46
q-18 -20 -43 -30q-27 -11 -55 -11z" />
    <glyph glyph-name="ij" unicode="&#x133;" horiz-adv-x="398" 
d="M100 560l-1 -1q-19 0 -33 14q-13 13 -13 33q0 19 14 33q13 13 33 13t33 -13t13 -33t-13 -33t-33 -13zM25 8h-1q14 4 21 9q7 4 12 17t5 33v56v187q0 38 -1 50q-2 20 -4 27q-3 9 -11 12q-9 4 -21 5v11l115 63v-356v-55q0 -20 5 -33t12 -17q7 -5 21 -9v-9h-153v9zM294 559
v-1q-19 0 -33 14q-13 13 -13 33t13 33t33 13t33 -13t13 -33t-13 -33t-33 -13zM174 -147l-4 4q-15 0 -28 8q-12 7 -12 24q0 15 10 24t24 9q12 0 20 -5q5 -3 15 -11t14 -11q7 -5 14 -5q8 0 12 4q2 2 6 8q4 5 5 18q2 14 3 36q1 15 1 60v293v50q0 19 -4 27q-4 9 -12 12
q-9 4 -21 5v11l115 63v-438q0 -34 -7 -56q-8 -25 -19 -42q-12 -18 -27 -33q-13 -13 -30 -25q-25 -18 -42 -24t-33 -6z" />
    <glyph glyph-name="Jcircumflex" unicode="&#x134;" horiz-adv-x="342" 
d="M141 -9l-2 -3q-68 0 -101 21t-33 52q0 19 11 28q10 9 27 9q20 0 30 -10q11 -10 18 -33q7 -26 18 -40q10 -13 33 -13t38 17t15 54v473q0 77 -1 102q-2 38 -6 57q-5 20 -13 27q-9 8 -25 12v9h171v-9q-15 -4 -24 -12q-8 -7 -13 -27q-4 -19 -6 -57q-1 -25 -1 -102v-409
q0 -33 -10 -59q-11 -27 -28 -46q-18 -20 -43 -30q-27 -11 -55 -11zM236 894l119 -106l-5 -8l-114 51l-114 -51l-5 8z" />
    <glyph glyph-name="jcircumflex" unicode="&#x135;" horiz-adv-x="200" 
d="M-22 -145l-3 4q-15 0 -28 8q-12 7 -12 24q0 15 10 24q11 9 24 9q12 0 20 -5q5 -3 15 -11t14 -11q7 -5 14 -5q8 0 12 4q2 2 6 8q4 5 5 18q1 14 3 36q1 15 1 60v293v50q0 19 -4 27q-5 9 -12 12q-9 4 -21 5v11l114 63v-438q0 -34 -7 -56q-8 -25 -19 -42q-12 -18 -27 -33
q-13 -13 -30 -25q-25 -18 -42 -24t-33 -6zM98 709l107 -170l-8 -6l-99 92l-99 -92l-8 6z" />
    <glyph glyph-name="uni0136" unicode="&#x136;" horiz-adv-x="528" 
d="M357 9l1 -3q24 8 24 24q0 18 -19 50l-209 330l233 242q20 22 30 38q9 15 9 26q0 10 -7 16q-8 7 -21 8v9h109v-9q-9 -2 -18 -6q-10 -5 -20 -15q-3 -3 -12 -11.5t-14 -13.5q-4 -4 -16.5 -17t-20.5 -21l-186 -193l239 -386q11 -18 18 -30q7 -11 15 -19q9 -9 13 -12
q5 -4 13 -7v-9h-161v9zM22 6h-1q16 4 25 12q8 7 13 27q5 19 6 57q1 25 1 100v344q0 75 -1 100q-1 38 -6 57q-5 20 -13 27q-9 8 -25 12v9h171v-9q-15 -4 -24 -12q-8 -7 -13 -27q-5 -19 -6 -57q-1 -25 -1 -100v-344q0 -75 1 -100q1 -38 6 -57q4 -19 14 -27q9 -8 24 -12v-9
h-171v9zM274 -120v1q-2 -5 -9 -9t-18 -4q-16 0 -27 11t-11 30q0 20 13 30q14 11 30 11q20 0 35 -15t15 -42q0 -41 -22 -60q-23 -20 -52 -27l-4 9q56 15 56 52q0 9 -6 13z" />
    <glyph glyph-name="uni0137" unicode="&#x137;" horiz-adv-x="412" 
d="M27 9l1 -3q11 4 19 9t11 17t3 33v56v495q0 39 -1 51q-2 18 -6 27q-5 10 -12 11q-10 2 -23 2v10l117 61v-655v-55q0 -20 5 -33t12 -17t21 -9v-9h-147v9zM261 6l-2 -3q13 3 21 14t-9 36l-127 186l1 8l155 150q14 13 18 24q4 10 1 18q-3 7 -11 12t-18 6v9h109v-9
q-17 -6 -36 -21q-16 -12 -54 -47l-108 -103l164 -239q16 -24 25 -31q8 -7 18 -10v-9h-147v9zM231 -123v1q-1 -4 -9 -9q-7 -4 -18 -4q-16 0 -27 11t-11 30q0 20 13 30q14 11 30 11q20 0 35 -15t15 -42q0 -41 -22 -60q-23 -20 -52 -27l-4 9q56 15 56 52q0 8 -6 13z" />
    <glyph glyph-name="Lacute" unicode="&#x139;" 
d="M21 9l-2 -2q16 4 25 12q8 7 13 27t6 57q1 25 1 100v344q0 75 -1 100q-1 37 -6 57t-13 27q-9 8 -25 12v9h174v-9q-17 -5 -26 -12q-10 -8 -14 -27q-5 -20 -6 -57q-1 -25 -1 -100v-535h120q32 0 58 3q25 3 45 17t35 39q16 27 29 71h12l-18 -119q-2 -17 -6 -20q-5 -3 -15 -3
h-385v9zM23 791l130 81q3 2 9 5t9 5q7 4 18 4q13 0 21 -8q7 -7 7 -18q0 -14 -9 -23t-30 -15l-152 -40z" />
    <glyph glyph-name="lacute" unicode="&#x13a;" horiz-adv-x="204" 
d="M27 9l3 -3q14 4 21 9q7 4 12 17t5 33v56v495q0 39 -1 51q-1 18 -6 27q-5 10 -13 11q-12 2 -24 2v10l118 61v-655v-55q0 -20 5 -33t12 -17t21 -9v-9h-153v9zM21 790l130 81q3 2 9 5t9 5q7 4 18 4q13 0 21 -8q7 -7 7 -18q0 -14 -9 -23t-30 -15l-152 -40z" />
    <glyph glyph-name="uni013B" unicode="&#x13b;" 
d="M21 9l-2 -2q16 4 25 12q8 7 13 27t6 57q1 25 1 100v344q0 75 -1 100q-1 37 -6 57t-13 27q-9 8 -25 12v9h174v-9q-17 -5 -26 -12q-10 -8 -14 -27q-5 -20 -6 -57q-1 -25 -1 -100v-535h120q32 0 58 3q25 3 45 17t35 39q16 27 29 71h12l-18 -119q-2 -17 -6 -20q-5 -3 -15 -3
h-385v9zM250 -119v1q-2 -4 -9 -9q-7 -4 -18 -4q-16 0 -27 11t-11 30q0 20 13 30q14 11 30 11q20 0 35 -15t15 -42q0 -41 -22 -60q-23 -20 -52 -27l-4 9q56 15 56 52q0 8 -6 13z" />
    <glyph glyph-name="uni013C" unicode="&#x13c;" horiz-adv-x="204" 
d="M26 9l3 -3q13 4 21 9q7 4 12 17t5 33v56v495q0 39 -1 51q-2 18 -6 27q-5 10 -13 11q-12 2 -24 2v10l118 61v-655v-55q0 -20 5 -33t12 -17q8 -4 21 -9v-9h-153v9zM118 -120v1q-2 -5 -9 -9t-18 -4q-16 0 -27 11t-11 30q0 20 13 30q14 11 30 11q20 0 35 -15t15 -42
q0 -41 -22 -60q-23 -20 -52 -27l-4 9q56 15 56 52q0 9 -6 13z" />
    <glyph glyph-name="Lcaron" unicode="&#x13d;" 
d="M21 9l-2 -2q16 4 25 12q8 7 13 27t6 57q1 25 1 100v344q0 75 -1 100q-1 37 -6 57t-13 27q-9 8 -25 12v9h174v-9q-17 -5 -26 -12q-10 -8 -14 -27q-5 -20 -6 -57q-1 -25 -1 -100v-535h120q32 0 58 3q25 3 45 17t35 39q16 27 29 71h12l-18 -119q-2 -17 -6 -20q-5 -3 -15 -3
h-385v9zM219 579l10 130q1 24 9 36t24 12q14 0 21 -7t7 -18q0 -14 -9 -35l-53 -120z" />
    <glyph glyph-name="lcaron" unicode="&#x13e;" horiz-adv-x="204" 
d="M26 9l3 -3q13 4 21 9q7 4 12 17t5 33v56v495q0 39 -1 51q-2 18 -6 27q-5 10 -13 11q-12 2 -24 2v10l118 61v-655v-55q0 -20 5 -33t12 -17q8 -4 21 -9v-9h-153v9zM183 584l10 130q1 24 9 36t24 12q14 0 21 -7t7 -18q0 -14 -9 -35l-53 -120z" />
    <glyph glyph-name="Ldot" unicode="&#x13f;" 
d="M333 342q-21 0 -37 14q-15 14 -15 36q0 21 15 36t37 15q21 0 36 -15t15 -36q0 -22 -15 -36q-16 -14 -36 -14zM21 9l-2 -2q16 4 25 12q8 7 13 27t6 57q1 25 1 100v344q0 75 -1 100q-1 37 -6 57t-13 27q-9 8 -25 12v9h174v-9q-17 -5 -26 -12q-10 -8 -14 -27q-5 -20 -6 -57
q-1 -25 -1 -100v-535h120q32 0 58 3q25 3 45 17t35 39q16 27 29 71h12l-18 -119q-2 -17 -6 -20q-5 -3 -15 -3h-385v9z" />
    <glyph glyph-name="ldot" unicode="&#x140;" horiz-adv-x="256" 
d="M231 314q-22 0 -37 15t-15 37t15 37t37 15q21 0 36 -15t15 -37t-15 -37t-36 -15zM26 9l3 -3q13 4 21 9q7 4 12 17t5 33v56v495q0 39 -1 51q-2 18 -6 27q-5 10 -13 11q-12 2 -24 2v10l118 61v-655v-55q0 -20 5 -33t12 -17q8 -4 21 -9v-9h-153v9z" />
    <glyph glyph-name="Lslash" unicode="&#x141;" 
d="M-3 271l-6 10l310 182l6 -11zM21 9l-2 -2q16 4 25 12q8 7 13 27t6 57q1 25 1 100v344q0 75 -1 100q-1 37 -6 57t-13 27q-9 8 -25 12v9h174v-9q-17 -5 -26 -12q-10 -8 -14 -27q-5 -20 -6 -57q-1 -25 -1 -100v-535h120q32 0 58 3q25 3 45 17t35 39q16 27 29 71h12l-18 -119
q-2 -17 -6 -20q-5 -3 -15 -3h-385v9z" />
    <glyph glyph-name="lslash" unicode="&#x142;" horiz-adv-x="204" 
d="M-1 304l-8 11l216 160l8 -10zM26 9l3 -3q13 4 21 9q7 4 12 17t5 33v56v495q0 39 -1 51q-2 18 -6 27q-5 10 -13 11q-12 2 -24 2v10l118 61v-655v-55q0 -20 5 -33t12 -17q8 -4 21 -9v-9h-153v9z" />
    <glyph glyph-name="Nacute" unicode="&#x143;" horiz-adv-x="556" 
d="M21 9l-1 -4q17 7 25 16q8 8 13 29q4 19 6 56q1 24 1 101v337q0 75 -1 99q-2 37 -6 56q-5 20 -13 27q-9 8 -25 12v9h115q16 0 24 -5q7 -4 18 -24l300 -555v376q0 77 -1 101q-2 37 -6 56t-15 28q-9 8 -30 16v9h110v-9q-16 -8 -24 -16t-13 -28q-4 -19 -6 -56q-1 -24 -1 -100
v-544h-19l-394 728v-515q0 -76 1 -100q2 -38 7 -56q6 -19 16 -28q9 -8 30 -16v-9h-111v9zM220 789l130 81q3 2 9 5t9 5q7 4 18 4q13 0 21 -8q7 -7 7 -18q0 -14 -9 -23t-30 -15l-152 -40z" />
    <glyph glyph-name="nacute" unicode="&#x144;" horiz-adv-x="462" 
d="M27 9l-3 -1q11 4 19 9t11 17t3 33v56v187q0 38 -1 50q-2 20 -4 27q-3 9 -11 12q-9 4 -21 5v11l115 63v-100l21 20q42 42 77 61q33 18 65 18q21 0 39 -6q19 -6 33 -19q15 -14 24 -34q9 -21 9 -52v-244v-55q0 -21 3 -33q3 -13 10 -17q8 -5 21 -9v-9h-148v9q13 4 21 9t11 17
q4 15 5 33q1 14 1 56v261q0 40 -14 57t-39 17q-16 0 -43 -15q-26 -14 -73 -60l-21 -20v-240v-55q0 -20 5 -33t12 -17q8 -4 21 -9v-9h-148v9zM181 536l81 130q9 16 18 24q10 8 22 8q13 0 21 -8t8 -20q0 -11 -6 -20q-5 -8 -17 -18l-119 -103z" />
    <glyph glyph-name="uni0145" unicode="&#x145;" horiz-adv-x="556" 
d="M21 9l-1 -4q17 7 25 16q8 8 13 29q4 19 6 56q1 24 1 101v337q0 75 -1 99q-2 37 -6 56q-5 20 -13 27q-9 8 -25 12v9h115q16 0 24 -5q7 -4 18 -24l300 -555v376q0 77 -1 101q-2 37 -6 56t-15 28q-9 8 -30 16v9h110v-9q-16 -8 -24 -16t-13 -28q-4 -19 -6 -56q-1 -24 -1 -100
v-544h-19l-394 728v-515q0 -76 1 -100q2 -38 7 -56q6 -19 16 -28q9 -8 30 -16v-9h-111v9zM289 -121v1q-1 -4 -9 -9q-7 -4 -18 -4q-16 0 -27 11t-11 30q0 20 13 30q14 11 30 11q20 0 35 -15t15 -42q0 -41 -22 -60q-23 -20 -52 -27l-4 9q56 15 56 52q0 9 -6 13z" />
    <glyph glyph-name="uni0146" unicode="&#x146;" horiz-adv-x="462" 
d="M27 9l-3 -1q11 4 19 9t11 17t3 33v56v187q0 38 -1 50q-2 20 -4 27q-3 9 -11 12q-9 4 -21 5v11l115 63v-100l21 20q42 42 77 61q33 18 65 18q21 0 39 -6q19 -6 33 -19q15 -14 24 -34q9 -21 9 -52v-244v-55q0 -21 3 -33q3 -13 10 -17q8 -5 21 -9v-9h-148v9q13 4 21 9t11 17
q4 15 5 33q1 14 1 56v261q0 40 -14 57t-39 17q-16 0 -43 -15q-26 -14 -73 -60l-21 -20v-240v-55q0 -20 5 -33t12 -17q8 -4 21 -9v-9h-148v9zM245 -118v1q-1 -5 -9 -9q-7 -4 -18 -4q-16 0 -27 11t-11 30q0 20 13 30q14 11 30 11q20 0 35 -15t15 -42q0 -41 -22 -60
q-23 -20 -52 -27l-4 9q56 15 56 52q0 9 -6 13z" />
    <glyph glyph-name="Ncaron" unicode="&#x147;" horiz-adv-x="556" 
d="M21 9l-1 -4q17 7 25 16q8 8 13 29q4 19 6 56q1 24 1 101v337q0 75 -1 99q-2 37 -6 56q-5 20 -13 27q-9 8 -25 12v9h115q16 0 24 -5q7 -4 18 -24l300 -555v376q0 77 -1 101q-2 37 -6 56t-15 28q-9 8 -30 16v9h110v-9q-16 -8 -24 -16t-13 -28q-4 -19 -6 -56q-1 -24 -1 -100
v-544h-19l-394 728v-515q0 -76 1 -100q2 -38 7 -56q6 -19 16 -28q9 -8 30 -16v-9h-111v9zM189 897l114 -50l114 50l5 -7l-119 -106l-119 106z" />
    <glyph glyph-name="ncaron" unicode="&#x148;" horiz-adv-x="462" 
d="M27 9l-3 -1q11 4 19 9t11 17t3 33v56v187q0 38 -1 50q-2 20 -4 27q-3 9 -11 12q-9 4 -21 5v11l115 63v-100l21 20q42 42 77 61q33 18 65 18q21 0 39 -6q19 -6 33 -19q15 -14 24 -34q9 -21 9 -52v-244v-55q0 -21 3 -33q3 -13 10 -17q8 -5 21 -9v-9h-148v9q13 4 21 9t11 17
q4 15 5 33q1 14 1 56v261q0 40 -14 57t-39 17q-16 0 -43 -15q-26 -14 -73 -60l-21 -20v-240v-55q0 -20 5 -33t12 -17q8 -4 21 -9v-9h-148v9zM130 709l99 -92l99 92l8 -6l-107 -170l-107 170z" />
    <glyph glyph-name="napostrophe" unicode="&#x149;" horiz-adv-x="462" 
d="M27 9l-3 -1q11 4 19 9t11 17t3 33v56v187q0 38 -1 50q-2 20 -4 27q-3 9 -11 12q-9 4 -21 5v11l115 63v-100l21 20q42 42 77 61q33 18 65 18q21 0 39 -6q19 -6 33 -19q15 -14 24 -34q9 -21 9 -52v-244v-55q0 -21 3 -33q3 -13 10 -17q8 -5 21 -9v-9h-148v9q13 4 21 9t11 17
q4 15 5 33q1 14 1 56v261q0 40 -14 57t-39 17q-16 0 -43 -15q-26 -14 -73 -60l-21 -20v-240v-55q0 -20 5 -33t12 -17q8 -4 21 -9v-9h-148v9zM32 690l1 -2q-3 -3 -11 -9q-5 -4 -18 -4q-16 0 -30 12q-13 12 -13 32q0 23 14 35q13 12 33 12q21 0 38 -16q18 -16 18 -54
q0 -43 -22 -74q-23 -32 -57 -53l-6 8q31 21 45 46q15 25 15 46q0 17 -7 21z" />
    <glyph glyph-name="Eng" unicode="&#x14a;" horiz-adv-x="556" 
d="M21 9l-3 -4q17 7 25 16q8 8 13 29q4 19 6 56q1 24 1 101v337q0 75 -1 99q-2 37 -6 56q-5 20 -13 27q-9 8 -25 12v9h115q16 0 24 -5q7 -4 18 -24l300 -551v372q0 77 -1 101q-2 37 -6 56t-15 28q-9 8 -30 16v9h110v-9q-16 -8 -24 -16q-9 -8 -13 -28q-4 -19 -6 -56
q-1 -24 -1 -100v-558q0 -53 -28 -85q-29 -33 -76 -33q-61 0 -96 23q-34 22 -34 54q0 19 11 28q10 9 27 9t26 -9t17 -35q7 -26 17 -43q9 -15 36 -15q41 0 65 30t24 79v6l-399 733v-515q0 -76 1 -100q2 -37 6 -56t15 -28q9 -8 30 -16l1 -9h-111v9z" />
    <glyph glyph-name="eng" unicode="&#x14b;" horiz-adv-x="461" 
d="M27 9l-9 1q11 4 19 9t11 17t3 33v56v187q0 38 -1 50q-2 20 -4 27q-3 9 -11 12q-9 4 -21 5v11l115 63v-100l21 20q42 42 77 61q33 18 65 18q21 0 39 -6q19 -6 33 -19q15 -14 24 -34q9 -21 9 -52v-326q0 -34 -7 -56q-8 -25 -19 -42q-12 -18 -27 -33q-13 -13 -30 -25
q-26 -18 -42 -24t-33 -6q-15 0 -28 8q-12 8 -12 24q0 15 10 24q11 9 24 9q11 0 21 -5q6 -3 16 -11t14 -11q7 -5 14 -5q8 0 12 4q2 2 6 8q3 5 6 18q2 10 4 36q1 15 1 60v369q0 40 -14 57t-39 17q-16 0 -43 -15q-26 -14 -73 -60l-21 -20v-240v-55q0 -20 5 -33t12 -17
q8 -4 21 -9v-9h-148v9z" />
    <glyph glyph-name="Omacron" unicode="&#x14c;" horiz-adv-x="614" 
d="M307 -9l-1 -1q-48 0 -96 27q-49 27 -87 76q-39 50 -63 121q-24 72 -24 162q0 91 24 163q24 71 63 121t87 75q49 26 96 26q51 0 98 -25q48 -26 87 -75q39 -50 63 -121q24 -72 24 -163q0 -90 -24 -162q-24 -71 -63 -121q-38 -49 -87 -76q-48 -27 -97 -27zM306 2l-2 -2
q38 0 72 23q33 23 57 69q25 48 38 117q14 73 14 165q0 98 -13 164q-13 68 -38 116q-24 46 -57 69q-34 23 -72 23q-37 0 -71 -23q-33 -23 -57 -69q-25 -48 -38 -115q-14 -72 -14 -163q0 -92 14 -165q13 -69 38 -117q24 -46 57 -69q34 -23 72 -23zM400 796h-191v37h191v-37z
" />
    <glyph glyph-name="omacron" unicode="&#x14d;" horiz-adv-x="453" 
d="M226 -8v-1q-34 0 -68 15t-63 47q-30 33 -47 76q-18 45 -18 104t18 106q18 46 47 78q29 31 63 48q33 16 68 16q34 0 69 -16t64 -48t47 -78t18 -106q0 -59 -18 -104q-17 -43 -47 -76q-28 -31 -64 -46t-69 -15zM226 2l-1 -2q26 0 47 12t36 41t24 72q9 44 9 107q0 64 -9 109
t-24 72t-36 39t-46 12t-46 -12t-36 -39t-24 -72t-9 -109q0 -62 9 -106t24 -72t36 -40t46 -12zM316 604v-36h-181v36h181z" />
    <glyph glyph-name="Obreve" unicode="&#x14e;" horiz-adv-x="614" 
d="M307 -9l-1 -1q-48 0 -96 27q-49 27 -87 76q-39 50 -63 121q-24 72 -24 162q0 91 24 163q24 71 63 121t87 75q49 26 96 26q51 0 98 -25q48 -26 87 -75q39 -50 63 -121q24 -72 24 -163q0 -90 -24 -162q-24 -71 -63 -121q-38 -49 -87 -76q-48 -27 -97 -27zM306 2l-2 -2
q38 0 72 23q33 23 57 69q25 48 38 117q14 73 14 165q0 98 -13 164q-13 68 -38 116q-24 46 -57 69q-34 23 -72 23q-37 0 -71 -23q-33 -23 -57 -69q-25 -48 -38 -115q-14 -72 -14 -163q0 -92 14 -165q13 -69 38 -117q24 -46 57 -69q34 -23 72 -23zM305 833l-3 1q36 0 55 14
q17 13 25 33h12q-2 -18 -7 -33q-6 -15 -17 -30q-10 -13 -27 -22t-39 -9t-39 9q-15 8 -28 23q-12 13 -18 30q-5 15 -7 33h12q4 -19 24 -34t57 -15z" />
    <glyph glyph-name="obreve" unicode="&#x14f;" horiz-adv-x="453" 
d="M226 -8v-1q-34 0 -68 15t-63 47q-30 33 -47 76q-18 45 -18 104t18 106q18 46 47 78q29 31 63 48q33 16 68 16q34 0 69 -16t64 -48t47 -78t18 -106q0 -59 -18 -104q-17 -43 -47 -76q-28 -31 -64 -46t-69 -15zM226 2l-1 -2q26 0 47 12t36 41t24 72q9 44 9 107q0 64 -9 109
t-24 72t-36 39t-46 12t-46 -12t-36 -39t-24 -72t-9 -109q0 -62 9 -106t24 -72t36 -40t46 -12zM226 586l4 -2q35 0 51 16q17 17 24 43h12q-2 -22 -7 -40q-6 -20 -16 -34q-10 -15 -27 -24t-37 -9q-22 0 -39 9q-16 9 -28 24t-18 35q-5 17 -7 41h12q4 -25 23 -42t53 -17z" />
    <glyph glyph-name="Ohungarumlaut" unicode="&#x150;" horiz-adv-x="614" 
d="M307 -9l-1 -1q-48 0 -96 27q-49 27 -87 76q-39 50 -63 121q-24 72 -24 162q0 91 24 163q24 71 63 121t87 75q49 26 96 26q51 0 98 -25q48 -26 87 -75q39 -50 63 -121q24 -72 24 -163q0 -90 -24 -162q-24 -71 -63 -121q-38 -49 -87 -76q-48 -27 -97 -27zM306 2l-2 -2
q38 0 72 23q33 23 57 69q25 48 38 117q14 73 14 165q0 98 -13 164q-13 68 -38 116q-24 46 -57 69q-34 23 -72 23q-37 0 -71 -23q-33 -23 -57 -69q-25 -48 -38 -115q-14 -72 -14 -163q0 -92 14 -165q13 -69 38 -117q24 -46 57 -69q34 -23 72 -23zM357 785l54 82q8 12 17 21
q8 8 21 8t19 -7t6 -18t-6 -18q-7 -8 -16 -15l-89 -61zM229 785l55 82q8 12 17 21q8 8 21 8t19 -7t6 -18t-6 -18q-7 -8 -16 -15l-89 -61z" />
    <glyph glyph-name="ohungarumlaut" unicode="&#x151;" horiz-adv-x="453" 
d="M226 -8v-1q-34 0 -68 15t-63 47q-30 33 -47 76q-18 45 -18 104t18 106q18 46 47 78q29 31 63 48q33 16 68 16q34 0 69 -16t64 -48t47 -78t18 -106q0 -59 -18 -104q-17 -43 -47 -76q-28 -31 -64 -46t-69 -15zM226 2l-1 -2q26 0 47 12t36 41t24 72q9 44 9 107q0 64 -9 109
t-24 72t-36 39t-46 12t-46 -12t-36 -39t-24 -72t-9 -109q0 -62 9 -106t24 -72t36 -40t46 -12zM276 534l37 132q6 19 14 29q7 9 23 9q11 0 17 -7t6 -18q0 -16 -11 -33l-78 -116zM164 536l38 131q5 20 12 29q8 9 21 9q14 0 20 -7q6 -8 6 -18q0 -17 -12 -32l-78 -116z" />
    <glyph glyph-name="OE" unicode="&#x152;" horiz-adv-x="815" 
d="M634 335l-4 -6l-6 27q-3 14 -12 24t-27 18q-17 7 -51 7h-36v-399h130q32 0 58 3t45 15t33 36q13 24 24 65h13l-12 -108q-2 -17 -6 -20q-5 -3 -15 -3h-421q-63 0 -119 24t-98 72t-66 118q-24 71 -24 164q0 94 24 165t66 117q41 45 98 70q55 24 119 24h396q9 0 14 -3t8 -21
l17 -95h-14q-10 33 -24 54t-33 33q-21 13 -43 17q-27 5 -55 5h-111v-315h36q34 0 51 7q18 8 27 18t12 24l6 27h10v-164h-10zM342 732l-1 2q-51 0 -92 -21t-69 -64q-29 -45 -44 -112q-15 -69 -15 -166t15 -166t44 -113q28 -43 69 -64t92 -21q25 0 40 6t21 26q7 21 8 59
q2 52 2 105v326q0 82 -1 109q-1 38 -8 61q-6 21 -21 27t-40 6z" />
    <glyph glyph-name="oe" unicode="&#x153;" horiz-adv-x="712" 
d="M226 -8l-3 -5q-33 0 -68 15q-34 15 -63 47q-30 33 -47 76q-18 45 -18 104q0 60 18 106t47 78q28 31 63 48q33 16 68 16q43 0 86 -25q43 -26 72 -75q29 49 69 75q41 26 78 26q58 0 100 -39q43 -40 53 -126h-256q-1 -13 -3 -30q-1 -11 -1 -36q0 -63 11 -110q11 -46 30 -74
q20 -29 45 -42t57 -13q34 0 61 11q25 11 45 27l7 -10q-18 -15 -48 -31q-29 -15 -75 -15q-54 0 -99 24t-74 74q-28 -48 -71 -72q-42 -24 -84 -24zM529 463v-1q-14 0 -29 -6t-30 -21t-27 -42t-18 -68h184q-1 78 -24 108t-56 30zM223 -3l-1 -2q26 0 47 12t36 41q15 28 24 72
t9 107q0 64 -9 109t-24 72t-36 39t-46 12t-46 -12t-36 -39t-24 -72t-9 -109q0 -63 9 -106t24 -72q15 -28 36 -40t46 -12z" />
    <glyph glyph-name="Racute" unicode="&#x154;" horiz-adv-x="529" 
d="M21 9l-2 -9q16 4 25 12q8 7 13 27q5 19 6 57q1 25 1 100v344q0 75 -1 100q-1 38 -6 57q-5 20 -13 27q-9 8 -25 12v9h207q124 0 191 -40q68 -41 68 -138q0 -50 -19 -87q-20 -39 -52 -62q-33 -24 -75 -36t-88 -12l-12 1q30 -3 51 -13q23 -11 41 -30q17 -18 31 -51
q13 -30 22 -76q10 -54 21 -90q11 -38 22 -57q12 -20 26 -30q13 -9 32 -9q20 0 30 7q11 8 18 15l7 -7q-10 -13 -31 -25t-60 -12q-24 0 -48 8q-22 7 -40 27q-18 19 -33 56q-14 33 -25 92q-13 72 -24 111q-11 40 -24 59q-14 20 -34 24q-19 4 -54 4h-20v-169q0 -75 1 -100
q2 -37 6 -57q4 -19 14 -27q9 -7 24 -12v-9h-171v9zM146 729l-2 -353h105q82 0 118 47t36 132q0 48 -9 81t-30 54t-56 30q-34 9 -84 9h-78zM171 785l130 81q3 2 9 5t9 5q7 4 18 4q13 0 21 -8q7 -7 7 -18q0 -14 -9 -23t-30 -15l-152 -40z" />
    <glyph glyph-name="racute" unicode="&#x155;" horiz-adv-x="312" 
d="M27 9l-7 -1q11 4 19 9t11 17t3 33v56v188q0 38 -1 50q-2 20 -4 27q-3 9 -11 12q-9 4 -21 5v11l115 63v-102l31 35q32 35 53 50t43 15t31 -12t9 -25q0 -16 -9 -27q-9 -10 -24 -10q-9 0 -16 3q-5 2 -13 8l-12 9q-5 4 -15 4q-9 0 -18 -6t-25 -25l-31 -35v-238q0 -41 1 -55
q2 -21 6 -33q5 -13 13 -17q9 -4 24 -9v-9h-152v9zM129 536l81 130q9 16 18 24q10 8 22 8q13 0 21 -8t8 -20q0 -11 -6 -20q-5 -8 -17 -18l-119 -103z" />
    <glyph glyph-name="uni0156" unicode="&#x156;" horiz-adv-x="529" 
d="M21 9l-2 -9q16 4 25 12q8 7 13 27q5 19 6 57q1 25 1 100v344q0 75 -1 100q-1 38 -6 57q-5 20 -13 27q-9 8 -25 12v9h207q124 0 191 -40q68 -41 68 -138q0 -50 -19 -87q-20 -39 -52 -62q-33 -24 -75 -36t-88 -12l-12 1q30 -3 51 -13q23 -11 41 -30q17 -18 31 -51
q13 -30 22 -76q10 -54 21 -90q11 -38 22 -57q12 -20 26 -30q13 -9 32 -9q20 0 30 7q11 8 18 15l7 -7q-10 -13 -31 -25t-60 -12q-24 0 -48 8q-22 7 -40 27q-18 19 -33 56q-14 33 -25 92q-13 72 -24 111q-11 40 -24 59q-14 20 -34 24q-19 4 -54 4h-20v-169q0 -75 1 -100
q2 -37 6 -57q4 -19 14 -27q9 -7 24 -12v-9h-171v9zM146 729l-2 -353h105q82 0 118 47t36 132q0 48 -9 81t-30 54t-56 30q-34 9 -84 9h-78zM279 -125v1q-1 -4 -9 -9q-7 -4 -18 -4q-16 0 -27 11t-11 30q0 20 13 30q14 11 30 11q20 0 35 -15t15 -42q0 -41 -22 -60
q-23 -20 -52 -27l-4 9q56 15 56 52q0 8 -6 13z" />
    <glyph glyph-name="uni0157" unicode="&#x157;" horiz-adv-x="312" 
d="M27 9l-7 -1q11 4 19 9t11 17t3 33v56v188q0 38 -1 50q-2 20 -4 27q-3 9 -11 12q-9 4 -21 5v11l115 63v-102l31 35q32 35 53 50t43 15t31 -12t9 -25q0 -16 -9 -27q-9 -10 -24 -10q-9 0 -16 3q-5 2 -13 8l-12 9q-5 4 -15 4q-9 0 -18 -6t-25 -25l-31 -35v-238q0 -41 1 -55
q2 -21 6 -33q5 -13 13 -17q9 -4 24 -9v-9h-152v9zM110 -118v1q-2 -5 -9 -9t-18 -4q-16 0 -27 11t-11 30q0 20 13 30q14 11 30 11q20 0 35 -15t15 -42q0 -41 -22 -60q-23 -20 -52 -27l-4 9q56 15 56 52q0 9 -6 13z" />
    <glyph glyph-name="Rcaron" unicode="&#x158;" horiz-adv-x="529" 
d="M21 9l-2 -9q16 4 25 12q8 7 13 27q5 19 6 57q1 25 1 100v344q0 75 -1 100q-1 38 -6 57q-5 20 -13 27q-9 8 -25 12v9h207q124 0 191 -40q68 -41 68 -138q0 -50 -19 -87q-20 -39 -52 -62q-33 -24 -75 -36t-88 -12l-12 1q30 -3 51 -13q23 -11 41 -30q17 -18 31 -51
q13 -30 22 -76q10 -54 21 -90q11 -38 22 -57q12 -20 26 -30q13 -9 32 -9q20 0 30 7q11 8 18 15l7 -7q-10 -13 -31 -25t-60 -12q-24 0 -48 8q-22 7 -40 27q-18 19 -33 56q-14 33 -25 92q-13 72 -24 111q-11 40 -24 59q-14 20 -34 24q-19 4 -54 4h-20v-169q0 -75 1 -100
q2 -37 6 -57q4 -19 14 -27q9 -7 24 -12v-9h-171v9zM146 729l-2 -353h105q82 0 118 47t36 132q0 48 -9 81t-30 54t-56 30q-34 9 -84 9h-78zM140 893l114 -50l114 50l5 -7l-119 -106l-119 106z" />
    <glyph glyph-name="rcaron" unicode="&#x159;" horiz-adv-x="312" 
d="M27 9l-7 -1q11 4 19 9t11 17t3 33v56v188q0 38 -1 50q-2 20 -4 27q-3 9 -11 12q-9 4 -21 5v11l115 63v-102l31 35q32 35 53 50t43 15t31 -12t9 -25q0 -16 -9 -27q-9 -10 -24 -10q-9 0 -16 3q-5 2 -13 8l-12 9q-5 4 -15 4q-9 0 -18 -6t-25 -25l-31 -35v-238q0 -41 1 -55
q2 -21 6 -33q5 -13 13 -17q9 -4 24 -9v-9h-152v9zM78 709l99 -92l99 92l8 -6l-107 -170l-107 170z" />
    <glyph glyph-name="Sacute" unicode="&#x15a;" horiz-adv-x="452" 
d="M217 -8h-10q-35 0 -62 8t-44 18q-28 16 -31 18q-14 8 -24 8q-13 0 -19 -20h-10v178h11q15 -95 60 -146t121 -51q71 0 102 39q32 40 32 101q0 37 -9 67q-10 32 -28 56q-21 27 -48 50q-32 27 -69 53q-15 11 -67 53q-28 22 -49 50q-19 26 -30 54q-11 30 -11 66q0 41 15 71
q15 31 40 51t58 31q35 11 70 11q28 0 51 -5q18 -4 36 -11q4 -2 13.5 -5.5t13.5 -5.5q13 -5 23 -5t15 6t6 16h11v-136h-11q-19 74 -60 105q-40 31 -97 31q-59 0 -89 -27t-30 -75q0 -28 9 -54q9 -25 27 -49t43 -46q26 -23 60 -48q41 -30 73 -55q35 -27 60 -57q26 -30 39 -64
q14 -36 14 -78q0 -46 -16 -82q-16 -37 -45 -64t-66 -42t-78 -15zM132 793l130 81q3 2 9 5t9 5q7 4 18 4q13 0 21 -8q7 -7 7 -18q0 -14 -9 -23t-30 -15l-152 -40z" />
    <glyph glyph-name="sacute" unicode="&#x15b;" horiz-adv-x="337" 
d="M173 5l-2 -9q47 0 65 25t18 60q0 19 -6 36q-6 16 -18 31t-32 29q-23 16 -46 30q-64 34 -91 69q-27 34 -27 82q0 30 10 50q10 21 27 36q17 16 39 23q24 8 46 8t35 -3q16 -4 24 -7q3 -1 20 -7q9 -3 20 -3q14 0 17 15h11v-110l-11 1q-16 58 -47 81t-68 23q-33 0 -53 -16
q-21 -17 -21 -51q0 -15 5 -30q4 -14 17 -26q12 -12 30 -24q9 -6 45 -28q71 -39 99 -76q29 -38 29 -90q0 -27 -11 -52q-10 -23 -29 -42q-18 -18 -43 -27t-52 -9t-45 6q-16 5 -31 12q-12 5 -22 12q-9 6 -18 6q-13 0 -16 -18h-12v136h11q17 -68 49 -105q33 -38 84 -38zM120 528
l81 130q9 16 18 24q10 8 22 8q13 0 21 -8t8 -20q0 -11 -6 -20q-5 -8 -17 -18l-119 -103z" />
    <glyph glyph-name="Scircumflex" unicode="&#x15c;" horiz-adv-x="452" 
d="M217 -8h-10q-35 0 -62 8t-44 18q-28 16 -31 18q-14 8 -24 8q-13 0 -19 -20h-10v178h11q15 -95 60 -146t121 -51q71 0 102 39q32 40 32 101q0 37 -9 67q-10 32 -28 56q-21 27 -48 50q-32 27 -69 53q-15 11 -67 53q-28 22 -49 50q-19 26 -30 54q-11 30 -11 66q0 41 15 71
q15 31 40 51t58 31q35 11 70 11q28 0 51 -5q18 -4 36 -11q4 -2 13.5 -5.5t13.5 -5.5q13 -5 23 -5t15 6t6 16h11v-136h-11q-19 74 -60 105q-40 31 -97 31q-59 0 -89 -27t-30 -75q0 -28 9 -54q9 -25 27 -49t43 -46q26 -23 60 -48q41 -30 73 -55q35 -27 60 -57q26 -30 39 -64
q14 -36 14 -78q0 -46 -16 -82q-16 -37 -45 -64t-66 -42t-78 -15zM215 897l119 -106l-5 -8l-114 51l-114 -51l-5 8z" />
    <glyph glyph-name="scircumflex" unicode="&#x15d;" horiz-adv-x="337" 
d="M173 5l-2 -9q47 0 65 25t18 60q0 19 -6 36q-6 16 -18 31t-32 29q-23 16 -46 30q-64 34 -91 69q-27 34 -27 82q0 30 10 50q10 21 27 36q17 16 39 23q24 8 46 8t35 -3q16 -4 24 -7q3 -1 20 -7q9 -3 20 -3q14 0 17 15h11v-110l-11 1q-16 58 -47 81t-68 23q-33 0 -53 -16
q-21 -17 -21 -51q0 -15 5 -30q4 -14 17 -26q12 -12 30 -24q9 -6 45 -28q71 -39 99 -76q29 -38 29 -90q0 -27 -11 -52q-10 -23 -29 -42q-18 -18 -43 -27t-52 -9t-45 6q-16 5 -31 12q-12 5 -22 12q-9 6 -18 6q-13 0 -16 -18h-12v136h11q17 -68 49 -105q33 -38 84 -38zM168 696
l107 -170l-8 -6l-99 92l-99 -92l-8 6z" />
    <glyph glyph-name="uni015E" unicode="&#x15e;" horiz-adv-x="452" 
d="M213 -2l-24 -45q31 -5 57 -21q25 -16 25 -45t-33 -49t-108 -21l-1 11q49 4 70 18t21 31q0 19 -19 26t-45 9l-4 5l45 81h16zM217 -10h-10q-35 0 -62 8t-44 18q-28 16 -31 18q-14 8 -24 8q-13 0 -19 -20h-10v178h11q15 -95 60 -146t121 -51q71 0 102 39q32 40 32 101
q0 37 -9 67q-10 32 -28 56q-21 27 -48 50q-32 27 -69 53q-15 11 -67 53q-28 22 -49 50q-19 26 -30 54q-11 30 -11 66q0 41 15 71q15 31 40 51t58 31q35 11 70 11q28 0 51 -5q18 -4 36 -11q4 -1 13.5 -5t13.5 -6q13 -5 23 -5t15 6t6 16h11v-136h-11q-19 74 -60 105
q-40 31 -97 31q-59 0 -89 -27t-30 -75q0 -28 9 -54q9 -25 27 -49t43 -46q26 -23 60 -48q41 -30 73 -55q35 -27 60 -57q26 -30 39 -64q14 -36 14 -78q0 -46 -16 -82q-16 -37 -45 -64t-66 -42t-78 -15z" />
    <glyph glyph-name="uni015F" unicode="&#x15f;" horiz-adv-x="337" 
d="M166 1l-25 -48q31 -5 57 -21q25 -16 25 -45t-33 -49t-108 -21l-1 11q49 4 70 18t21 31q0 19 -19 26t-45 9l-4 5l47 84h15zM173 3l-2 -9q47 0 65 25t18 60q0 19 -6 36q-6 16 -18 31t-32 29q-23 16 -46 30q-64 34 -91 69q-27 34 -27 82q0 30 10 50q10 21 27 36q17 16 39 23
q24 8 46 8t35 -3q16 -4 24 -7q3 -2 20 -7q9 -3 20 -3q14 0 17 15h11v-110l-11 1q-16 58 -47 81t-68 23q-33 0 -53 -16q-21 -17 -21 -51q0 -15 5 -30q4 -14 17 -26q12 -12 30 -24q9 -6 45 -28q71 -39 99 -76q29 -38 29 -90q0 -27 -11 -52q-10 -23 -29 -42q-18 -18 -43 -27
t-52 -9t-45 6q-16 5 -31 12q-12 5 -22 12q-9 6 -18 6q-13 0 -16 -18h-12v136h11q17 -68 49 -105q33 -38 84 -38z" />
    <glyph glyph-name="Scaron" unicode="&#x160;" horiz-adv-x="452" 
d="M217 -8h-10q-35 0 -62 8t-44 18q-28 16 -31 18q-14 8 -24 8q-13 0 -19 -20h-10v178h11q15 -95 60 -146t121 -51q71 0 102 39q32 40 32 101q0 37 -9 67q-10 32 -28 56q-21 27 -48 50q-32 27 -69 53q-15 11 -67 53q-28 22 -49 50q-19 26 -30 54q-11 30 -11 66q0 41 15 71
q15 31 40 51t58 31q35 11 70 11q28 0 51 -5q18 -4 36 -11q4 -2 13.5 -5.5t13.5 -5.5q13 -5 23 -5t15 6t6 16h11v-136h-11q-19 74 -60 105q-40 31 -97 31q-59 0 -89 -27t-30 -75q0 -28 9 -54q9 -25 27 -49t43 -46q26 -23 60 -48q41 -30 73 -55q35 -27 60 -57q26 -30 39 -64
q14 -36 14 -78q0 -46 -16 -82q-16 -37 -45 -64t-66 -42t-78 -15zM101 901l114 -50l114 50l5 -7l-119 -106l-119 106z" />
    <glyph glyph-name="scaron" unicode="&#x161;" horiz-adv-x="337" 
d="M173 5l-2 -9q47 0 65 25t18 60q0 19 -6 36q-6 16 -18 31t-32 29q-23 16 -46 30q-64 34 -91 69q-27 34 -27 82q0 30 10 50q10 21 27 36q17 16 39 23q24 8 46 8t35 -3q16 -4 24 -7q3 -1 20 -7q9 -3 20 -3q14 0 17 15h11v-110l-11 1q-16 58 -47 81t-68 23q-33 0 -53 -16
q-21 -17 -21 -51q0 -15 5 -30q4 -14 17 -26q12 -12 30 -24q9 -6 45 -28q71 -39 99 -76q29 -38 29 -90q0 -27 -11 -52q-10 -23 -29 -42q-18 -18 -43 -27t-52 -9t-45 6q-16 5 -31 12q-12 5 -22 12q-9 6 -18 6q-13 0 -16 -18h-12v136h11q17 -68 49 -105q33 -38 84 -38zM69 701
l99 -92l99 92l8 -6l-107 -170l-107 170z" />
    <glyph glyph-name="Tcommaaccent" unicode="&#x162;" horiz-adv-x="520" 
d="M175 9l-3 -1q15 4 24 12q10 8 14 27t6 56q1 24 1 99v535h-38q-37 0 -63 -6t-43 -19q-18 -13 -30 -38q-12 -24 -21 -61h-13l12 111q1 18 6 21t15 3h433q11 0 14 -3q4 -4 5 -21l12 -111h-13q-9 37 -21 61q-12 25 -30 38q-19 14 -44 20q-26 6 -63 6h-34v-535q0 -75 1 -99
q2 -37 6 -56q5 -20 13 -27q9 -8 25 -12v-9h-171v9zM273 -118v1q-1 -5 -9 -9q-7 -4 -18 -4q-16 0 -27 11t-11 30q0 20 13 30q14 11 30 11q20 0 35 -15t15 -42q0 -41 -22 -60q-23 -20 -52 -27l-4 9q56 15 56 52q0 9 -6 13z" />
    <glyph glyph-name="tcommaaccent" unicode="&#x163;" horiz-adv-x="243" 
d="M154 -8h-2q-42 0 -69 24t-27 74v365h-41v12q19 3 37 12t33 27t24 45q10 29 14 66h12v-148h89v-14h-89v-341q0 -54 7 -79q8 -27 37 -27q17 0 27 6q9 5 18 14l7 -7q-7 -9 -25 -19q-17 -10 -52 -10zM152 -117v1q-2 -4 -9 -9q-7 -4 -18 -4q-16 0 -27 11t-11 30q0 20 13 30
q14 11 30 11q20 0 35 -15t15 -42q0 -41 -22 -60q-23 -20 -52 -27l-4 9q56 15 56 52q0 8 -6 13z" />
    <glyph glyph-name="Tcaron" unicode="&#x164;" horiz-adv-x="520" 
d="M175 9l-3 -1q15 4 24 12q10 8 14 27t6 56q1 24 1 99v535h-38q-37 0 -63 -6t-43 -19q-18 -13 -30 -38q-12 -24 -21 -61h-13l12 111q1 18 6 21t15 3h433q11 0 14 -3q4 -4 5 -21l12 -111h-13q-9 37 -21 61q-12 25 -30 38q-19 14 -44 20q-26 6 -63 6h-34v-535q0 -75 1 -99
q2 -37 6 -56q5 -20 13 -27q9 -8 25 -12v-9h-171v9zM143 900l114 -50l114 50l5 -7l-119 -106l-119 106z" />
    <glyph glyph-name="tcaron" unicode="&#x165;" horiz-adv-x="243" 
d="M154 -8h-2q-42 0 -69 24t-27 74v365h-41v12q19 3 37 12t33 27t24 45q10 29 14 66h12v-148h89v-14h-89v-341q0 -54 7 -79q8 -27 37 -27q17 0 27 6q9 5 18 14l7 -7q-7 -9 -25 -19q-17 -10 -52 -10zM175 538l10 130q1 24 9 36t24 12q14 0 21 -7t7 -18q0 -14 -9 -35l-53 -120
z" />
    <glyph glyph-name="Tbar" unicode="&#x166;" horiz-adv-x="520" 
d="M98 428h324v-12h-324v12zM175 9l-3 -1q15 4 24 12q10 8 14 27t6 56q1 24 1 99v535h-38q-37 0 -63 -6t-43 -19q-18 -13 -30 -38q-12 -24 -21 -61h-13l12 111q1 18 6 21t15 3h433q11 0 14 -3q4 -4 5 -21l12 -111h-13q-9 37 -21 61q-12 25 -30 38q-19 14 -44 20q-26 6 -63 6
h-34v-535q0 -75 1 -99q2 -37 6 -56q5 -20 13 -27q9 -8 25 -12v-9h-171v9z" />
    <glyph glyph-name="tbar" unicode="&#x167;" horiz-adv-x="243" 
d="M18 307h204v-12h-204v12zM154 -8h-2q-42 0 -69 24t-27 74v365h-41v12q19 3 37 12t33 27t24 45q10 29 14 66h12v-148h89v-14h-89v-341q0 -54 7 -79q8 -27 37 -27q17 0 27 6q9 5 18 14l7 -7q-7 -9 -25 -19q-17 -10 -52 -10z" />
    <glyph glyph-name="Utilde" unicode="&#x168;" horiz-adv-x="544" 
d="M296 -11l2 -2q-58 0 -101 12q-44 12 -74 39q-29 26 -46 69q-16 41 -16 101v336q0 75 -1 100q-2 38 -6 57q-5 20 -13 27q-9 8 -22 12v9h168v-9q-16 -4 -25 -12q-8 -7 -13 -27q-5 -19 -6 -57q-1 -25 -1 -100v-346q0 -102 36 -149t124 -47q80 0 123 46q44 47 44 153v337
q0 77 -1 101q-2 38 -7 56q-6 21 -16 29t-28 16v9h110v-9q-16 -8 -24 -16q-9 -8 -13 -28q-4 -19 -6 -56q-1 -24 -1 -100v-337q0 -112 -48 -163t-139 -51zM267 864l-1 -2q13 0 22 -1q18 -2 27 -4q8 -2 26 -4q8 -1 20 -1q7 0 20 8q11 7 28 33l9 -3q-12 -46 -29 -66
q-16 -19 -33 -19q-4 0 -22 2t-27 4t-27 4t-21 2q-11 0 -21 -7q-11 -8 -30 -34l-9 3q13 45 32 65q18 20 36 20z" />
    <glyph glyph-name="utilde" unicode="&#x169;" 
d="M167 -8l-4 -3q-23 0 -42 6q-18 6 -34 20q-15 13 -24 35q-9 21 -9 53v206q0 38 -1 50q-2 20 -4 27q-3 9 -11 12q-9 4 -21 5v11l116 63v-391q0 -42 14 -59t39 -17q10 0 20 3q9 2 24 11q13 7 32 23q18 15 41 38l8 8v217v50q0 19 -4 27q-5 9 -12 12q-9 4 -21 5v11l115 63
v-356v-55q0 -20 5 -33t12 -17t23 -9v-9h-116v78l-8 -8q-43 -43 -75 -60t-63 -17zM188 630l-1 -5q5 0 21 -2t25 -3t25 -3t20 -2q8 0 18 9q11 9 26 35l9 -5q-11 -46 -27 -65q-17 -20 -33 -20q-6 0 -22 2t-24 4t-24 4t-21 2q-10 0 -21 -7q-12 -8 -30 -36l-9 4q13 42 32 66
q18 22 36 22z" />
    <glyph glyph-name="Umacron" unicode="&#x16a;" horiz-adv-x="544" 
d="M296 -11l2 -2q-58 0 -101 12q-44 12 -74 39q-29 26 -46 69q-16 41 -16 101v336q0 75 -1 100q-2 38 -6 57q-5 20 -13 27q-9 8 -22 12v9h168v-9q-16 -4 -25 -12q-8 -7 -13 -27q-5 -19 -6 -57q-1 -25 -1 -100v-346q0 -102 36 -149t124 -47q80 0 123 46q44 47 44 153v337
q0 77 -1 101q-2 38 -7 56q-6 21 -16 29t-28 16v9h110v-9q-16 -8 -24 -16q-9 -8 -13 -28q-4 -19 -6 -56q-1 -24 -1 -100v-337q0 -112 -48 -163t-139 -51zM397 797h-191v37h191v-37z" />
    <glyph glyph-name="umacron" unicode="&#x16b;" 
d="M167 -8l-4 -3q-23 0 -42 6q-18 6 -34 20q-15 13 -24 35q-9 21 -9 53v206q0 38 -1 50q-2 20 -4 27q-3 9 -11 12q-9 4 -21 5v11l116 63v-391q0 -42 14 -59t39 -17q10 0 20 3q9 2 24 11q13 7 32 23q18 15 41 38l8 8v217v50q0 19 -4 27q-5 9 -12 12q-9 4 -21 5v11l115 63
v-356v-55q0 -20 5 -33t12 -17t23 -9v-9h-116v78l-8 -8q-43 -43 -75 -60t-63 -17zM316 604v-36h-181v36h181z" />
    <glyph glyph-name="Ubreve" unicode="&#x16c;" horiz-adv-x="544" 
d="M296 -11l2 -2q-58 0 -101 12q-44 12 -74 39q-29 26 -46 69q-16 41 -16 101v336q0 75 -1 100q-2 38 -6 57q-5 20 -13 27q-9 8 -22 12v9h168v-9q-16 -4 -25 -12q-8 -7 -13 -27q-5 -19 -6 -57q-1 -25 -1 -100v-346q0 -102 36 -149t124 -47q80 0 123 46q44 47 44 153v337
q0 77 -1 101q-2 38 -7 56q-6 21 -16 29t-28 16v9h110v-9q-16 -8 -24 -16q-9 -8 -13 -28q-4 -19 -6 -56q-1 -24 -1 -100v-337q0 -112 -48 -163t-139 -51zM302 834l-3 1q36 0 55 14q17 13 25 33h12q-2 -18 -7 -33q-6 -15 -17 -30q-10 -13 -27 -22q-16 -9 -39 -9t-39 9
q-15 8 -28 23q-12 14 -18 30q-5 15 -7 33h12q4 -19 24 -34q19 -15 57 -15z" />
    <glyph glyph-name="ubreve" unicode="&#x16d;" 
d="M167 -8l-4 -3q-23 0 -42 6q-18 6 -34 20q-15 13 -24 35q-9 21 -9 53v206q0 38 -1 50q-2 20 -4 27q-3 9 -11 12q-9 4 -21 5v11l116 63v-391q0 -42 14 -59t39 -17q10 0 20 3q9 2 24 11q13 7 32 23q18 15 41 38l8 8v217v50q0 19 -4 27q-5 9 -12 12q-9 4 -21 5v11l115 63
v-356v-55q0 -20 5 -33t12 -17t23 -9v-9h-116v78l-8 -8q-43 -43 -75 -60t-63 -17zM226 586l4 -2q35 0 51 16q17 17 24 43h12q-2 -22 -7 -40q-6 -20 -16 -34q-10 -15 -27 -24t-37 -9q-22 0 -39 9q-16 9 -28 24t-18 35q-5 17 -7 41h12q4 -25 23 -42t53 -17z" />
    <glyph glyph-name="Uring" unicode="&#x16e;" horiz-adv-x="544" 
d="M296 -11l2 -2q-58 0 -101 12q-44 12 -74 39q-29 26 -46 69q-16 41 -16 101v336q0 75 -1 100q-2 38 -6 57q-5 20 -13 27q-9 8 -22 12v9h168v-9q-16 -4 -25 -12q-8 -7 -13 -27q-5 -19 -6 -57q-1 -25 -1 -100v-346q0 -102 36 -149t124 -47q80 0 123 46q44 47 44 153v337
q0 77 -1 101q-2 38 -7 56q-6 21 -16 29t-28 16v9h110v-9q-16 -8 -24 -16q-9 -8 -13 -28q-4 -19 -6 -56q-1 -24 -1 -100v-337q0 -112 -48 -163t-139 -51zM225 835l-2 -1q0 32 24 53t56 21t56 -21t24 -53q0 -33 -24 -54t-55 -21t-55 21t-24 55zM259 834v-1q0 -30 11 -47
t32 -17q22 0 32 18q11 19 11 47q0 27 -12 45t-31 18t-31 -18t-12 -45z" />
    <glyph glyph-name="uring" unicode="&#x16f;" 
d="M167 -8l-4 -3q-23 0 -42 6q-18 6 -34 20q-15 13 -24 35q-9 21 -9 53v206q0 38 -1 50q-2 20 -4 27q-3 9 -11 12q-9 4 -21 5v11l116 63v-391q0 -42 14 -59t39 -17q10 0 20 3q9 2 24 11q13 7 32 23q18 15 41 38l8 8v217v50q0 19 -4 27q-5 9 -12 12q-9 4 -21 5v11l115 63
v-356v-55q0 -20 5 -33t12 -17t23 -9v-9h-116v78l-8 -8q-43 -43 -75 -60t-63 -17zM146 601h-2q0 32 24 53t56 21t56 -21t24 -53q0 -33 -24 -54t-55 -21t-55 21t-24 54zM180 601h-2q0 -29 12 -46q12 -16 32 -16t32 17q12 16 12 45q0 28 -12 46t-31 18t-31 -18t-12 -46z" />
    <glyph glyph-name="Uhungarumlaut" unicode="&#x170;" horiz-adv-x="544" 
d="M296 -11l2 -2q-58 0 -101 12q-44 12 -74 39q-29 26 -46 69q-16 41 -16 101v336q0 75 -1 100q-2 38 -6 57q-5 20 -13 27q-9 8 -22 12v9h168v-9q-16 -4 -25 -12q-8 -7 -13 -27q-5 -19 -6 -57q-1 -25 -1 -100v-346q0 -102 36 -149t124 -47q80 0 123 46q44 47 44 153v337
q0 77 -1 101q-2 38 -7 56q-6 21 -16 29t-28 16v9h110v-9q-16 -8 -24 -16q-9 -8 -13 -28q-4 -19 -6 -56q-1 -24 -1 -100v-337q0 -112 -48 -163t-139 -51zM354 786l54 82q8 12 17 21q8 8 21 8t19 -7q6 -8 6 -18t-6 -18q-7 -8 -16 -15l-89 -61zM226 786l55 82q8 12 17 21
q8 8 21 8t19 -7q6 -8 6 -18t-6 -18q-7 -8 -16 -15l-89 -61z" />
    <glyph glyph-name="uhungarumlaut" unicode="&#x171;" 
d="M167 -8l-4 -3q-23 0 -42 6q-18 6 -34 20q-15 13 -24 35q-9 21 -9 53v206q0 38 -1 50q-2 20 -4 27q-3 9 -11 12q-9 4 -21 5v11l116 63v-391q0 -42 14 -59t39 -17q10 0 20 3q9 2 24 11q13 7 32 23q18 15 41 38l8 8v217v50q0 19 -4 27q-5 9 -12 12q-9 4 -21 5v11l115 63
v-356v-55q0 -20 5 -33t12 -17t23 -9v-9h-116v78l-8 -8q-43 -43 -75 -60t-63 -17zM275 534l37 132q6 19 14 29q8 9 23 9q11 0 17 -7t6 -18q0 -16 -11 -33l-78 -116zM163 536l38 131q5 20 12 29t21 9t20 -7q6 -8 6 -18q0 -17 -12 -32l-78 -116z" />
    <glyph glyph-name="Uogonek" unicode="&#x172;" horiz-adv-x="544" 
d="M316 -169l-1 -3q-32 0 -50 18t-18 45q0 18 9 33q10 16 22 27t29 21q20 12 29 17q-17 -4 -39 -4q-57 0 -101 12t-74 39q-29 26 -46 69q-16 41 -16 101v336q0 75 -1 100q-1 38 -6 57q-5 20 -13 27q-9 8 -22 12v9h168v-9q-16 -4 -25 -12q-8 -7 -13 -27q-4 -19 -6 -57
q-1 -25 -1 -100v-346q0 -103 36 -149q36 -47 124 -47q80 0 123 46q44 47 44 153v337q0 77 -1 101q-2 38 -7 56q-6 21 -16 29t-28 16v9h110v-9q-16 -8 -24 -16t-13 -28q-4 -19 -6 -56q-1 -24 -1 -100v-337q0 -78 -24 -126t-70 -69q-16 -6 -29 -15t-24 -21q-11 -13 -18 -28
t-7 -37q0 -17 9 -31q9 -13 29 -13q14 0 23 6q12 8 17 12l7 -7l-9 -12q-6 -7 -16 -13q-13 -7 -24 -11q-15 -5 -30 -5z" />
    <glyph glyph-name="uogonek" unicode="&#x173;" 
d="M167 -8l-1 -6q-22 0 -42 6q-18 6 -34 20q-15 13 -24 35q-9 21 -9 53v206q0 38 -1 50q-2 20 -4 27q-3 9 -11 12q-9 4 -21 5v11l116 63v-391q0 -42 14 -59t39 -17q9 0 20 3q9 2 24 11q13 7 32 23q18 15 41 38l8 8v217v50q0 19 -4 27q-4 9 -12 12q-9 4 -21 5v11l115 63v-356
v-55q0 -20 5 -33t12 -17t23 -9v-9h-100q-19 -13 -34 -37t-15 -56q0 -17 9 -31q9 -13 29 -13q12 0 21 6q12 8 17 12l7 -7l-9 -12q-6 -7 -16 -13q-13 -7 -24 -11q-15 -5 -30 -5q-31 0 -51 18q-19 18 -19 45q0 21 12 39q11 17 27 31t32 23q5 3 13.5 7.5t11.5 6.5v78l-8 -8
q-43 -43 -75 -60t-63 -17z" />
    <glyph glyph-name="Wcircumflex" unicode="&#x174;" horiz-adv-x="770" 
d="M70 623l-2 -3q-7 21 -15 47q-6 19 -12 33t-13 22q-7 9 -19 16v10h147v-10q-22 -6 -25 -22q-3 -15 11 -61l164 -535l82 267l-72 234q-7 21 -15 47q-6 20 -12 33q-5 11 -14 22q-7 9 -20 15v10h145v-10q-10 -3 -17 -8q-5 -4 -7 -14q-1 -8 2 -24q4 -20 10 -38l51 -171l41 139
q2 7 10 39q4 16 4 33q0 16 -6 26t-21 18v10h91v-10q-10 -4 -18 -9q-6 -4 -13 -17q-8 -16 -14 -33q-7 -21 -18 -57l-48 -160l102 -339l135 498q6 22 9 41q3 20 2 33q-2 16 -10 26q-10 11 -27 17v10h103v-10q-6 -3 -16 -9q-8 -5 -15 -16q-8 -12 -15 -33t-18 -57l-172 -629h-15
l-114 372l-114 -372h-16zM404 894l119 -106l-5 -8l-114 51l-114 -51l-5 8z" />
    <glyph glyph-name="wcircumflex" unicode="&#x175;" horiz-adv-x="562" 
d="M59 355l-3 -2q-11 36 -18 53q-9 22 -13 30q-6 10 -12 15q-7 5 -15 8v9h139v-9q-10 -1 -16 -6t-6 -15q0 -13 4 -30q5 -20 15 -51l79 -257l68 189l-20 65q-11 34 -18 54q-9 22 -13 30q-6 10 -12 15q-4 3 -14 7v9h142v-9q-11 -2 -17 -6q-5 -4 -7 -15q-1 -9 2 -30
q3 -19 12 -51l74 -246l69 224q13 42 18 66q5 25 2 36q-3 13 -12 17q-9 5 -24 6v9h98v-9q-12 -3 -18 -7q-7 -4 -13 -16q-7 -15 -14 -36q-8 -24 -21 -66l-106 -342h-15l-85 275l-100 -275h-14zM277 703l107 -170l-8 -6l-99 92l-99 -92l-8 6z" />
    <glyph glyph-name="Ycircumflex" unicode="&#x176;" horiz-adv-x="505" 
d="M173 9h-3q15 5 24 12q10 8 14 27t6 56q1 24 1 99v172l-127 251l-22 44q-10 20 -18 32q-10 15 -18 23t-22 16v9h159v-9q-23 -6 -24 -21q-2 -15 15 -50l133 -270l106 224q27 57 27 82q0 26 -37 36v9h106v-9q-12 -5 -18 -10t-16 -18q-11 -14 -20 -33q-11 -21 -27 -57
l-113 -237v-184q0 -75 1 -99q2 -37 6 -56q5 -20 13 -27q9 -8 25 -12v-9h-171v9zM280 897l119 -106l-5 -8l-114 51l-114 -51l-5 8z" />
    <glyph glyph-name="ycircumflex" unicode="&#x177;" horiz-adv-x="387" 
d="M71 -169l2 -1q-23 0 -33 9t-10 23q0 31 34 31q17 0 26 -6t20 -6q6 0 13 3t15 14q10 14 17 28q12 23 20 46l10 28l-125 357q-17 48 -19 52q-9 22 -13 30q-6 11 -12 15q-4 3 -14 7v9h142v-9q-11 -2 -17 -6q-5 -4 -7 -15q-2 -10 3 -30t15 -51l84 -258l83 234q14 41 18 64
q5 25 2 37q-3 14 -12 18t-23 6v9h95v-9q-10 -3 -15 -7q-4 -3 -13 -17q-6 -10 -16 -36q-15 -40 -23 -64l-129 -364q-17 -42 -31 -67q-13 -24 -29 -43q-14 -17 -28 -24t-30 -7zM218 704l107 -170l-8 -6l-99 92l-99 -92l-8 6z" />
    <glyph glyph-name="Ydieresis" unicode="&#x178;" horiz-adv-x="505" 
d="M173 9h-3q15 5 24 12q10 8 14 27t6 56q1 24 1 99v172l-127 251l-22 44q-10 20 -18 32q-10 15 -18 23t-22 16v9h159v-9q-23 -6 -24 -21q-2 -15 15 -50l133 -270l106 224q27 57 27 82q0 26 -37 36v9h106v-9q-12 -5 -18 -10t-16 -18q-11 -14 -20 -33q-11 -21 -27 -57
l-113 -237v-184q0 -75 1 -99q2 -37 6 -56q5 -20 13 -27q9 -8 25 -12v-9h-171v9zM367 789h-1q-19 0 -31 13q-12 14 -12 33q0 17 12 31q12 13 32 13q18 0 30 -13t12 -31q0 -19 -12 -33q-12 -13 -30 -13zM192 789q-18 0 -30 13q-12 14 -12 33q0 17 12 31q12 13 30 13
q20 0 33 -13t13 -31q0 -20 -13 -33t-33 -13z" />
    <glyph glyph-name="Zacute" unicode="&#x179;" horiz-adv-x="497" 
d="M361 739l-126 1q-45 0 -74 -9t-48 -25t-33 -41q-16 -29 -29 -57h-10l24 143h389l-339 -739h145q54 0 87 9q34 9 56 27q23 18 36 48q12 27 25 72h11l-19 -168h-431zM166 794l130 81q3 2 9 5t9 5q7 4 18 4q13 0 21 -8q7 -7 7 -18q0 -14 -9 -23t-30 -15l-152 -40z" />
    <glyph glyph-name="zacute" unicode="&#x17a;" horiz-adv-x="360" 
d="M331 -11l4 -5q-10 4 -16 6q-7 2 -24 4q-20 2 -39 2h-61h-179l237 458h-85q-35 0 -56 -6q-22 -6 -35 -18q-12 -11 -22 -29q-8 -15 -18 -38h-10l21 116q15 -7 45 -9q20 -1 93 -1h148l-241 -459h103q38 0 60 6q23 6 38 21t24 37q12 30 20 54h11zM142 532l81 130q9 16 18 24
q10 8 22 8q13 0 21 -8t8 -20q0 -11 -6 -20q-5 -8 -17 -18l-119 -103z" />
    <glyph glyph-name="Zdotaccent" unicode="&#x17b;" horiz-adv-x="497" 
d="M361 739l-126 1q-45 0 -74 -9t-48 -25t-33 -41q-16 -29 -29 -57h-10l24 143h389l-339 -739h145q54 0 87 9q34 9 56 27q23 18 36 48q12 27 25 72h11l-19 -168h-431zM248 790l-1 -1q-19 0 -33 14q-13 13 -13 33t13 33t33 13t33 -13q14 -14 14 -33q0 -20 -13 -33t-33 -13z
" />
    <glyph glyph-name="zdotaccent" unicode="&#x17c;" horiz-adv-x="360" 
d="M331 -11l4 -5q-10 4 -16 6q-7 2 -24 4q-20 2 -39 2h-61h-179l237 458h-85q-35 0 -56 -6q-22 -6 -35 -18q-12 -11 -22 -29q-8 -15 -18 -38h-10l21 116q15 -7 45 -9q20 -1 93 -1h148l-241 -459h103q38 0 60 6q23 6 38 21t24 37q12 30 20 54h11zM190 556l-1 -1q-19 0 -33 14
q-13 13 -13 33q0 19 14 33q13 13 33 13t33 -13t13 -33t-13 -33t-33 -13z" />
    <glyph glyph-name="Zcaron" unicode="&#x17d;" horiz-adv-x="497" 
d="M361 739l-126 1q-45 0 -74 -9t-48 -25t-33 -41q-16 -29 -29 -57h-10l24 143h389l-339 -739h145q54 0 87 9q34 9 56 27q23 18 36 48q12 27 25 72h11l-19 -168h-431zM135 902l114 -50l114 50l5 -7l-119 -106l-119 106z" />
    <glyph glyph-name="zcaron" unicode="&#x17e;" horiz-adv-x="360" 
d="M331 -11l4 -5q-10 4 -16 6q-7 2 -24 4q-20 2 -39 2h-61h-179l237 458h-85q-35 0 -56 -6q-22 -6 -35 -18q-12 -11 -22 -29q-8 -15 -18 -38h-10l21 116q15 -7 45 -9q20 -1 93 -1h148l-241 -459h103q38 0 60 6q23 6 38 21t24 37q12 30 20 54h11zM91 705l99 -92l99 92l8 -6
l-107 -170l-107 170z" />
    <glyph glyph-name="uni0192" unicode="&#x192;" horiz-adv-x="359" 
d="M65 470l61 -5l12 98q8 59 24 98q17 39 37 61t45 31q24 9 46 9q33 0 56 -13q24 -13 24 -36q0 -13 -7 -21q-7 -9 -24 -9q-16 0 -24 8q-7 7 -10 23q-5 22 -9 30q-5 8 -17 8q-9 0 -18 -6q-8 -5 -16 -20t-14 -38q-7 -28 -11 -61l-21 -159h82v-14h-84l-41 -316
q-10 -80 -29 -132q-18 -50 -39 -77t-44 -36t-44 -9q-30 0 -55 14q-24 14 -24 36q0 12 6 21t23 9t23 -8q6 -7 9 -23q4 -23 11 -31q6 -7 17 -7q13 0 24 8q10 7 19 36t18 84q9 57 21 148l36 285h-63v14z" />
    <glyph glyph-name="Aringacute" unicode="&#x1fa;" horiz-adv-x="545" 
d="M8 9l-4 -1q10 4 18 12q7 7 15 20q7 12 15 33q10 27 17 54l156 557q-11 35 -21 44q-11 10 -26 14v9h101q9 0 12 -3q2 -2 7 -14l177 -606q5 -17 14 -48q6 -20 12 -33q5 -11 14 -22q7 -9 21 -15v-10h-146v10q22 4 25 20t-7 51l-43 143h-253l-27 -97q-1 -4 -10 -43
q-4 -19 -3 -34q1 -14 9 -25q7 -10 26 -16v-9h-99v9zM358 235l-128 424l-118 -424h246zM164 855l-2 -1q0 32 24 53t56 21t56 -21t24 -53q0 -33 -24 -54t-55 -21t-55 21t-24 55zM198 854v-1q0 -30 11 -47t32 -17t32 18q11 19 11 47q0 27 -12 45t-31 18t-31 -18t-12 -45z
M159 941l130 81q3 2 9 5t9 5q7 4 18 4q13 0 21 -8q7 -7 7 -18q0 -14 -9 -23t-30 -15l-152 -40z" />
    <glyph glyph-name="aringacute" unicode="&#x1fb;" horiz-adv-x="392" 
d="M129 -6l-1 5q-44 0 -72 25q-29 26 -29 75q0 31 12 51q12 19 32 33q19 13 45 24q28 12 53 24l23 9q34 19 48 38t14 44v67q0 25 -6 42q-6 16 -15 25t-21 12t-25 3q-25 0 -39 -12t-24 -31q-7 -14 -18 -25q-10 -10 -27 -10q-15 0 -22 9q-7 8 -7 20q0 13 10 23q11 11 28 18
q18 7 42 12q27 5 53 5q32 0 56 -4q29 -5 47 -16q20 -12 32 -33t12 -56v-230q0 -33 2 -67q1 -22 5 -39q3 -13 9 -18q5 -4 17 -4q18 0 30 9l4 -7l-20 -12q-13 -7 -42 -7q-47 0 -63 21q-17 22 -17 50l-8 -8q-13 -15 -27 -27t-27 -21q-12 -8 -29 -13q-13 -4 -35 -4zM104 113v-1
q0 -48 15 -70t43 -22q21 0 38 13q20 15 48 43l8 8v200q-8 -14 -22 -27q-16 -14 -40 -27l-23 -9q-21 -11 -33 -22q-14 -12 -21 -25q-7 -12 -10 -28q-3 -15 -3 -33zM113 608h-2q0 32 24 53t56 21t56 -21t24 -53q0 -33 -24 -54t-55 -21t-55 21t-24 54zM147 608h-2q0 -30 12 -46
t32 -16t32 17t12 45t-12 46t-31 18t-31 -18t-12 -46zM106 711l130 81q3 2 9 5t9 5q7 4 18 4q13 0 21 -8q7 -7 7 -18q0 -14 -9 -23t-30 -15l-152 -40z" />
    <glyph glyph-name="AEacute" unicode="&#x1fc;" horiz-adv-x="740" 
d="M562 335l-8 -5l-6 27q-3 13 -12 24t-27 18q-17 7 -51 7h-36v-399h127q33 0 58 3t45 15t33 36t24 65h13l-12 -108q-2 -17 -6 -20t-15 -3h-392v9q15 4 24 12q10 8 14 27t6 56q1 24 1 99v29h-206l-45 -107q-12 -28 -18 -48q-6 -18 -4 -33q1 -13 9 -21q7 -7 23 -12v-8h-101v8
q9 4 17 11q9 7 17 18q8 10 19 33q16 32 26 55l233 555q14 32 9 44t-35 17v9h382q10 0 14 -3q5 -3 8 -21l17 -95h-14q-11 33 -24 54t-33 33q-21 13 -43 17q-27 5 -55 5h-108v-315h36q34 0 51 7q18 8 27 18t12 24l6 27h10v-164h-10zM336 239v480l-201 -480h201zM399 788
l130 81q3 2 9 5t9 5q7 4 18 4q13 0 21 -8q7 -7 7 -18q0 -14 -9 -23t-30 -15l-152 -40z" />
    <glyph glyph-name="aeacute" unicode="&#x1fd;" horiz-adv-x="619" 
d="M131 -6v6q-46 0 -74 25q-29 26 -29 75q0 32 12 51t32 33t45 24q28 12 53 24l23 9q34 19 48 38t14 44v67q0 26 -6 42t-15 25t-21 12t-25 3q-26 0 -39 -12q-14 -12 -24 -31q-7 -14 -18 -25q-10 -10 -27 -10q-14 0 -22 9q-7 8 -7 20q0 13 10 23q11 11 28 18q18 8 42 12
q27 5 53 5q44 0 82 -12t54 -46q29 29 60 44q32 15 60 15q56 0 96 -39q41 -40 53 -126h-252q-2 -20 -3 -31t-1 -36q0 -63 11 -110q10 -45 29 -74q18 -28 44 -42q25 -13 57 -13q34 0 59 11t44 27l7 -10q-18 -15 -48 -31q-28 -15 -73 -15q-53 0 -99 24t-75 75l-27 -28
q-18 -20 -33 -33q-13 -12 -30 -22q-15 -9 -31 -12t-37 -3zM442 474v-1q-14 0 -29 -6q-16 -6 -29 -21q-13 -14 -25 -42q-12 -27 -18 -68h179q-2 78 -24 108t-54 30zM105 113l1 -2q0 -48 15 -70t42 -22q24 0 44 13q21 14 51 45l27 28q-14 27 -21 61q-7 32 -7 76v42
q-8 -14 -22 -27q-16 -14 -40 -27l-23 -9q-21 -11 -33 -22q-14 -12 -21 -25q-7 -12 -10 -28q-3 -15 -3 -33zM281 540l81 130q9 16 18 24q10 8 22 8q13 0 21 -8t8 -20q0 -11 -6 -20q-5 -8 -17 -18l-119 -103z" />
    <glyph glyph-name="Oslashacute" unicode="&#x1fe;" horiz-adv-x="615" 
d="M307 -9v-3q-69 0 -134 51l-33 -81l-12 5l35 85q-54 48 -90 131t-36 195q0 91 24 163q24 71 63 121t87 75q49 26 96 26q30 0 65 -11q33 -10 63 -33l29 70l12 -5l-30 -73q26 -21 52 -56q24 -33 42 -75q17 -40 28 -91q10 -47 10 -108q0 -90 -24 -162q-24 -71 -63 -121
q-38 -49 -87 -76q-48 -27 -97 -27zM126 373l-1 -3q0 -93 14 -166q13 -70 39 -117l241 588q-23 35 -51 51q-29 17 -62 17q-37 0 -71 -23q-33 -22 -57 -69q-25 -48 -38 -115q-14 -72 -14 -163zM306 -3l1 -3q38 0 72 23q33 23 57 69q25 48 38 117q14 73 14 165q2 101 -15 173
q-17 74 -43 119l-242 -589q23 -38 53 -56t65 -18zM225 784l130 81q3 2 9 5t9 5q7 4 18 4q13 0 21 -8q7 -7 7 -18q0 -14 -9 -23t-30 -15l-152 -40z" />
    <glyph glyph-name="oslashacute" unicode="&#x1ff;" horiz-adv-x="453" 
d="M305 423l-2 -2q-15 25 -36 35q-22 11 -43 11q-25 0 -46 -12t-36 -39t-24 -72t-9 -109q0 -55 8 -100q7 -41 21 -70zM104 -36l-11 2l27 58q-39 28 -66 80q-27 51 -27 123q0 59 18 106q18 46 47 78q28 31 63 48q33 16 68 16q25 0 47 -7q23 -7 46 -21l23 48l11 -6l-23 -49
q42 -31 68 -82q27 -53 27 -127q0 -59 -18 -104q-17 -43 -47 -76q-28 -31 -64 -46t-69 -15q-49 0 -94 30zM144 45l-1 -2q15 -25 36 -37t45 -12q26 0 47 12t36 41t24 72q9 44 9 107q0 59 -8 105q-8 43 -21 72zM175 529l81 130q9 17 18 24q10 8 22 8q13 0 21 -8t8 -20
q0 -11 -6 -20q-5 -8 -17 -18l-119 -103z" />
    <glyph glyph-name="uni0218" unicode="&#x218;" horiz-adv-x="452" 
d="M217 -8h-10q-35 0 -62 8t-44 18q-28 16 -31 18q-14 8 -24 8q-13 0 -19 -20h-10v178h11q15 -95 60 -146t121 -51q71 0 102 39q32 40 32 101q0 37 -9 67q-10 32 -28 56q-21 27 -48 50q-32 27 -69 53q-15 11 -67 53q-28 22 -49 50q-19 26 -30 54q-11 30 -11 66q0 41 15 71
q15 31 40 51t58 31q35 11 70 11q28 0 51 -5q18 -4 36 -11q4 -2 13.5 -5.5t13.5 -5.5q13 -5 23 -5t15 6t6 16h11v-136h-11q-19 74 -60 105q-40 31 -97 31q-59 0 -89 -27t-30 -75q0 -28 9 -54q9 -25 27 -49t43 -46q26 -23 60 -48q41 -30 73 -55q35 -27 60 -57q26 -30 39 -64
q14 -36 14 -78q0 -46 -16 -82q-16 -37 -45 -64t-66 -42t-78 -15zM221 -117v1q-1 -4 -9 -9q-7 -4 -18 -4q-16 0 -27 11t-11 30q0 20 13 30q14 11 30 11q20 0 35 -15t15 -42q0 -41 -22 -60q-23 -20 -52 -27l-4 9q56 15 56 52q0 8 -6 13z" />
    <glyph glyph-name="uni0219" unicode="&#x219;" horiz-adv-x="337" 
d="M173 5l-2 -9q47 0 65 25t18 60q0 19 -6 36q-6 16 -18 31t-32 29q-23 16 -46 30q-64 34 -91 69q-27 34 -27 82q0 30 10 50q10 21 27 36q17 16 39 23q24 8 46 8t35 -3q16 -4 24 -7q3 -1 20 -7q9 -3 20 -3q14 0 17 15h11v-110l-11 1q-16 58 -47 81t-68 23q-33 0 -53 -16
q-21 -17 -21 -51q0 -15 5 -30q4 -14 17 -26q12 -12 30 -24q9 -6 45 -28q71 -39 99 -76q29 -38 29 -90q0 -27 -11 -52q-10 -23 -29 -42q-18 -18 -43 -27t-52 -9t-45 6q-16 5 -31 12q-12 5 -22 12q-9 6 -18 6q-13 0 -16 -18h-12v136h11q17 -68 49 -105q33 -38 84 -38z
M183 -126v1q-1 -5 -9 -9q-7 -4 -18 -4q-16 0 -27 11t-11 30q0 20 13 30q14 11 30 11q20 0 35 -15t15 -42q0 -41 -22 -60q-23 -20 -52 -27l-4 9q56 15 56 52q0 9 -6 13z" />
    <glyph glyph-name="uni021A" unicode="&#x21a;" horiz-adv-x="520" 
d="M175 9l-3 -1q15 4 24 12q10 8 14 27t6 56q1 24 1 99v535h-38q-37 0 -63 -6t-43 -19q-18 -13 -30 -38q-12 -24 -21 -61h-13l12 111q1 18 6 21t15 3h433q11 0 14 -3q4 -4 5 -21l12 -111h-13q-9 37 -21 61q-12 25 -30 38q-19 14 -44 20q-26 6 -63 6h-34v-535q0 -75 1 -99
q2 -37 6 -56q5 -20 13 -27q9 -8 25 -12v-9h-171v9zM273 -118v1q-1 -5 -9 -9q-7 -4 -18 -4q-16 0 -27 11t-11 30q0 20 13 30q14 11 30 11q20 0 35 -15t15 -42q0 -41 -22 -60q-23 -20 -52 -27l-4 9q56 15 56 52q0 9 -6 13z" />
    <glyph glyph-name="uni021B" unicode="&#x21b;" horiz-adv-x="243" 
d="M154 -8h-2q-42 0 -69 24t-27 74v365h-41v12q19 3 37 12t33 27t24 45q10 29 14 66h12v-148h89v-14h-89v-341q0 -54 7 -79q8 -27 37 -27q17 0 27 6q9 5 18 14l7 -7q-7 -9 -25 -19q-17 -10 -52 -10zM152 -117v1q-2 -4 -9 -9q-7 -4 -18 -4q-16 0 -27 11t-11 30q0 20 13 30
q14 11 30 11q20 0 35 -15t15 -42q0 -41 -22 -60q-23 -20 -52 -27l-4 9q56 15 56 52q0 8 -6 13z" />
    <glyph glyph-name="uni0237" unicode="&#x237;" horiz-adv-x="200" 
d="M-22 -145l-3 4q-15 0 -28 8q-12 7 -12 24q0 15 10 24q11 9 24 9q12 0 20 -5q5 -3 15 -11t14 -11q7 -5 14 -5q8 0 12 4q2 2 6 8q4 5 5 18q1 14 3 36q1 15 1 60v293v50q0 19 -4 27q-5 9 -12 12q-9 4 -21 5v11l114 63v-438q0 -34 -7 -56q-8 -25 -19 -42q-12 -18 -27 -33
q-13 -13 -30 -25q-25 -18 -42 -24t-33 -6z" />
    <glyph glyph-name="circumflex" unicode="&#x2c6;" horiz-adv-x="446" 
d="M228 705l107 -170l-8 -6l-99 92l-99 -92l-8 6z" />
    <glyph glyph-name="caron" unicode="&#x2c7;" horiz-adv-x="446" 
d="M129 710l99 -92l99 92l8 -6l-107 -170l-107 170z" />
    <glyph glyph-name="breve" unicode="&#x2d8;" horiz-adv-x="446" 
d="M223 589l4 -2q35 0 51 16q17 17 24 43h12q-2 -22 -7 -40q-6 -20 -16 -34q-11 -15 -27 -24t-37 -9q-23 0 -39 9t-28 24t-18 35q-5 17 -7 41h12q4 -25 23 -42t53 -17z" />
    <glyph glyph-name="dotaccent" unicode="&#x2d9;" horiz-adv-x="446" 
d="M222 561l-1 -1q-19 0 -33 14q-13 13 -13 33q0 19 14 33q13 13 33 13t33 -13t13 -33t-13 -33t-33 -13z" />
    <glyph glyph-name="ring" unicode="&#x2da;" horiz-adv-x="446" 
d="M152 604h-2q0 32 24 53t56 21t56 -21t24 -53q0 -33 -24 -54t-55 -21t-55 21t-24 54zM186 604h-2q0 -30 12 -46t32 -16t32 17t12 45t-12 46t-31 18t-31 -18t-12 -46z" />
    <glyph glyph-name="ogonek" unicode="&#x2db;" horiz-adv-x="446" 
d="M230 -169l2 -3q-32 0 -50 18t-18 45q0 22 12 40q11 16 29 31q15 12 33 22q21 11 27 14h18q-22 -13 -40 -37t-18 -56q0 -17 9 -31q9 -13 29 -13q13 0 22 6q12 8 17 12l7 -7l-9 -12q-6 -7 -16 -13q-13 -7 -24 -11q-15 -5 -30 -5z" />
    <glyph glyph-name="tilde" unicode="&#x2dc;" horiz-adv-x="446" 
d="M184 633l-1 -5q5 0 21 -2t25 -3t25 -3t20 -2q8 0 18 9q11 9 26 35l9 -5q-11 -46 -27 -65q-17 -20 -33 -20q-6 0 -22 2t-24 4t-24 4t-21 2q-10 0 -21 -7q-12 -7 -30 -36l-9 4q13 42 32 66q18 22 36 22z" />
    <glyph glyph-name="hungarumlaut" unicode="&#x2dd;" horiz-adv-x="446" 
d="M241 537l37 132q6 19 14 29q8 9 23 9q11 0 17 -7q6 -8 6 -18q0 -16 -11 -33l-78 -116zM129 539l38 131q5 20 12 29t21 9t20 -7t6 -18q0 -17 -12 -32l-78 -116z" />
    <glyph glyph-name="Wgrave" unicode="&#x1e80;" horiz-adv-x="770" 
d="M70 623l-2 -3q-7 21 -15 47q-6 19 -12 33t-13 22q-7 9 -19 16v10h147v-10q-22 -6 -25 -22q-3 -15 11 -61l164 -535l82 267l-72 234q-7 21 -15 47q-6 20 -12 33q-5 11 -14 22q-7 9 -20 15v10h145v-10q-10 -3 -17 -8q-5 -4 -7 -14q-1 -8 2 -24q4 -20 10 -38l51 -171l41 139
q2 7 10 39q4 16 4 33q0 16 -6 26t-21 18v10h91v-10q-10 -4 -18 -9q-6 -4 -13 -17q-8 -16 -14 -33q-7 -21 -18 -57l-48 -160l102 -339l135 498q6 22 9 41q3 20 2 33q-2 16 -10 26q-10 11 -27 17v10h103v-10q-6 -3 -16 -9q-8 -5 -15 -16q-8 -12 -15 -33t-18 -57l-172 -629h-15
l-114 372l-114 -372h-16zM336 821l-1 1q-21 6 -30 15t-9 23q0 11 7 18q8 8 21 8q11 0 18 -4q3 -2 9 -5t9 -5l131 -82l-3 -9z" />
    <glyph glyph-name="wgrave" unicode="&#x1e81;" horiz-adv-x="562" 
d="M59 355l-3 -2q-11 36 -18 53q-9 22 -13 30q-6 10 -12 15q-7 5 -15 8v9h139v-9q-10 -1 -16 -6t-6 -15q0 -13 4 -30q5 -20 15 -51l79 -257l68 189l-20 65q-11 34 -18 54q-9 22 -13 30q-6 10 -12 15q-4 3 -14 7v9h142v-9q-11 -2 -17 -6q-5 -4 -7 -15q-1 -9 2 -30
q3 -19 12 -51l74 -246l69 224q13 42 18 66q5 25 2 36q-3 13 -12 17q-9 5 -24 6v9h98v-9q-12 -3 -18 -7q-7 -4 -13 -16q-7 -15 -14 -36q-8 -24 -21 -66l-106 -342h-15l-85 275l-100 -275h-14zM207 631h-2q-12 10 -17 18q-6 9 -6 20q0 12 8 20t21 8q14 0 22 -7t19 -24l82 -131
l-7 -7z" />
    <glyph glyph-name="Wacute" unicode="&#x1e82;" horiz-adv-x="770" 
d="M70 623l-2 -3q-7 21 -15 47q-6 19 -12 33t-13 22q-7 9 -19 16v10h147v-10q-22 -6 -25 -22q-3 -15 11 -61l164 -535l82 267l-72 234q-7 21 -15 47q-6 20 -12 33q-5 11 -14 22q-7 9 -20 15v10h145v-10q-10 -3 -17 -8q-5 -4 -7 -14q-1 -8 2 -24q4 -20 10 -38l51 -171l41 139
q2 7 10 39q4 16 4 33q0 16 -6 26t-21 18v10h91v-10q-10 -4 -18 -9q-6 -4 -13 -17q-8 -16 -14 -33q-7 -21 -18 -57l-48 -160l102 -339l135 498q6 22 9 41q3 20 2 33q-2 16 -10 26q-10 11 -27 17v10h103v-10q-6 -3 -16 -9q-8 -5 -15 -16q-8 -12 -15 -33t-18 -57l-172 -629h-15
l-114 372l-114 -372h-16zM321 790l130 81q3 2 9 5t9 5q7 4 18 4q13 0 21 -8q7 -7 7 -18q0 -14 -9 -23t-30 -15l-152 -40z" />
    <glyph glyph-name="wacute" unicode="&#x1e83;" horiz-adv-x="562" 
d="M59 355l-3 -2q-11 36 -18 53q-9 22 -13 30q-6 10 -12 15q-7 5 -15 8v9h139v-9q-10 -1 -16 -6t-6 -15q0 -13 4 -30q5 -20 15 -51l79 -257l68 189l-20 65q-11 34 -18 54q-9 22 -13 30q-6 10 -12 15q-4 3 -14 7v9h142v-9q-11 -2 -17 -6q-5 -4 -7 -15q-1 -9 2 -30
q3 -19 12 -51l74 -246l69 224q13 42 18 66q5 25 2 36q-3 13 -12 17q-9 5 -24 6v9h98v-9q-12 -3 -18 -7q-7 -4 -13 -16q-7 -15 -14 -36q-8 -24 -21 -66l-106 -342h-15l-85 275l-100 -275h-14zM229 535l81 130q9 17 18 24q10 8 22 8q13 0 21 -8t8 -20q0 -11 -6 -20
q-5 -8 -17 -18l-119 -103z" />
    <glyph glyph-name="Wdieresis" unicode="&#x1e84;" horiz-adv-x="770" 
d="M70 623l-2 -3q-7 21 -15 47q-6 19 -12 33t-13 22q-7 9 -19 16v10h147v-10q-22 -6 -25 -22q-3 -15 11 -61l164 -535l82 267l-72 234q-7 21 -15 47q-6 20 -12 33q-5 11 -14 22q-7 9 -20 15v10h145v-10q-10 -3 -17 -8q-5 -4 -7 -14q-1 -8 2 -24q4 -20 10 -38l51 -171l41 139
q2 7 10 39q4 16 4 33q0 16 -6 26t-21 18v10h91v-10q-10 -4 -18 -9q-6 -4 -13 -17q-8 -16 -14 -33q-7 -21 -18 -57l-48 -160l102 -339l135 498q6 22 9 41q3 20 2 33q-2 16 -10 26q-10 11 -27 17v10h103v-10q-6 -3 -16 -9q-8 -5 -15 -16q-8 -12 -15 -33t-18 -57l-172 -629h-15
l-114 372l-114 -372h-16zM491 786h-1q-19 0 -31 13t-12 33q0 18 12 31t32 13q18 0 30 -13t12 -31q0 -20 -12 -33t-30 -13zM316 786q-18 0 -30 13t-12 33q0 18 12 31t30 13q20 0 33 -13t13 -31q0 -20 -13 -33t-33 -13z" />
    <glyph glyph-name="wdieresis" unicode="&#x1e85;" horiz-adv-x="562" 
d="M59 355l-3 -2q-11 36 -18 53q-9 22 -13 30q-6 10 -12 15q-7 5 -15 8v9h139v-9q-10 -1 -16 -6t-6 -15q0 -13 4 -30q5 -20 15 -51l79 -257l68 189l-20 65q-11 34 -18 54q-9 22 -13 30q-6 10 -12 15q-4 3 -14 7v9h142v-9q-11 -2 -17 -6q-5 -4 -7 -15q-1 -9 2 -30
q3 -19 12 -51l74 -246l69 224q13 42 18 66q5 25 2 36q-3 13 -12 17q-9 5 -24 6v9h98v-9q-12 -3 -18 -7q-7 -4 -13 -16q-7 -15 -14 -36q-8 -24 -21 -66l-106 -342h-15l-85 275l-100 -275h-14zM354 560v-1q-20 0 -33 12t-13 32t13 32t33 12q18 0 30 -12t12 -31q0 -20 -12 -32
t-30 -12zM200 559v-1q-18 0 -30 12t-12 32t12 32t30 12q20 0 33 -12t13 -31q0 -20 -13 -32t-33 -12z" />
    <glyph glyph-name="Ygrave" unicode="&#x1ef2;" horiz-adv-x="505" 
d="M173 9h-3q15 5 24 12q10 8 14 27t6 56q1 24 1 99v172l-127 251l-22 44q-10 20 -18 32q-10 15 -18 23t-22 16v9h159v-9q-23 -6 -24 -21q-2 -15 15 -50l133 -270l106 224q27 57 27 82q0 26 -37 36v9h106v-9q-12 -5 -18 -10t-16 -18q-11 -14 -20 -33q-11 -21 -27 -57
l-113 -237v-184q0 -75 1 -99q2 -37 6 -56q5 -20 13 -27q9 -8 25 -12v-9h-171v9zM211 824l-1 1q-21 6 -30 15t-9 23q0 11 7 18q8 8 21 8q11 0 18 -4q3 -2 9 -5t9 -5l131 -82l-3 -9z" />
    <glyph glyph-name="ygrave" unicode="&#x1ef3;" horiz-adv-x="387" 
d="M71 -169l2 -1q-23 0 -33 9t-10 23q0 31 34 31q17 0 26 -6t20 -6q6 0 13 3t15 14q10 14 17 28q12 23 20 46l10 28l-125 357q-17 48 -19 52q-9 22 -13 30q-6 11 -12 15q-4 3 -14 7v9h142v-9q-11 -2 -17 -6q-5 -4 -7 -15q-2 -10 3 -30t15 -51l84 -258l83 234q14 41 18 64
q5 25 2 37q-3 14 -12 18t-23 6v9h95v-9q-10 -3 -15 -7q-4 -3 -13 -17q-6 -10 -16 -36q-15 -40 -23 -64l-129 -364q-17 -42 -31 -67q-13 -24 -29 -43q-14 -17 -28 -24t-30 -7zM148 632h-2q-12 10 -17 18q-6 9 -6 20q0 12 8 20t21 8q14 0 22 -7t19 -24l82 -131l-7 -7z" />
    <glyph glyph-name="uni2009" unicode="&#x2009;" horiz-adv-x="72" 
 />
    <glyph glyph-name="endash" unicode="&#x2013;" horiz-adv-x="466" 
d="M42 289h382v-16h-382v16z" />
    <glyph glyph-name="emdash" unicode="&#x2014;" horiz-adv-x="838" 
d="M42 289h754v-16h-754v16z" />
    <glyph glyph-name="quoteleft" unicode="&#x2018;" horiz-adv-x="177" 
d="M69 663h-1q3 3 11 9q5 4 18 4q17 0 30 -12t13 -31q0 -21 -14 -33t-33 -12q-22 0 -39 16q-18 16 -18 54q0 42 23 74t57 54l6 -8q-30 -22 -45 -48t-15 -46q0 -14 7 -21z" />
    <glyph glyph-name="quoteright" unicode="&#x2019;" horiz-adv-x="177" 
d="M108 691l1 -2q-3 -3 -11 -9q-5 -4 -18 -4q-16 0 -30 12q-13 12 -13 32q0 23 14 35q13 12 33 12q21 0 38 -16q18 -17 18 -54q0 -43 -22 -74q-23 -32 -57 -53l-6 8q31 21 45 46q15 26 15 46q0 17 -7 21z" />
    <glyph glyph-name="quotesinglbase" unicode="&#x201a;" horiz-adv-x="177" 
d="M108 34l1 -2q-3 -3 -11 -9q-5 -4 -18 -4q-16 0 -30 12q-13 12 -13 32q0 23 14 35q13 12 33 12q21 0 38 -16q18 -16 18 -54q0 -43 -22 -74q-23 -32 -57 -53l-6 8q31 21 45 46q15 26 15 46q0 17 -7 21z" />
    <glyph glyph-name="quotedblleft" unicode="&#x201c;" horiz-adv-x="308" 
d="M69 663h-1q3 3 11 9q5 4 18 4q17 0 30 -12t13 -31q0 -21 -14 -33t-33 -12q-22 0 -39 16q-18 16 -18 54q0 42 23 74t57 54l6 -8q-30 -22 -45 -48t-15 -46q0 -14 7 -21zM199 663h-3q4 5 12 9q7 4 19 4q17 0 30 -12t13 -31q0 -21 -14 -33t-33 -12q-21 0 -38 16
q-18 16 -18 54q0 43 22 74q23 32 58 54l5 -8q-30 -22 -45 -48t-15 -46q0 -15 7 -21z" />
    <glyph glyph-name="quotedblright" unicode="&#x201d;" horiz-adv-x="308" 
d="M238 691l-1 -2q-6 -6 -10 -9q-5 -4 -18 -4q-18 0 -30 12t-12 32q0 23 14 35q13 12 33 12q22 0 39 -16q18 -17 18 -54q0 -43 -22 -74q-23 -32 -57 -53l-6 8q30 21 45 46q15 26 15 46q0 16 -8 21zM107 689l1 -2q-3 -3 -11 -9q-5 -4 -18 -4q-17 0 -30 12t-13 32q0 23 14 35
t33 12q21 0 38 -16q18 -17 18 -54q0 -43 -22 -74q-23 -32 -57 -53l-6 8q31 21 45 46q15 26 15 46q0 17 -7 21z" />
    <glyph glyph-name="quotedblbase" unicode="&#x201e;" horiz-adv-x="308" 
d="M238 34l-1 -2q-6 -6 -10 -9q-5 -4 -18 -4q-18 0 -30 12t-12 32q0 23 14 35q13 12 33 12q22 0 39 -16q18 -16 18 -54q0 -43 -22 -74q-23 -32 -57 -53l-6 8q30 21 45 46q15 26 15 46q0 16 -8 21zM107 32l1 -2q-3 -3 -11 -9q-5 -4 -18 -4q-17 0 -30 12t-13 32q0 23 14 35
t33 12q21 0 38 -16q18 -16 18 -54q0 -43 -22 -74q-23 -32 -57 -53l-6 8q30 21 45 46t15 46q0 17 -7 21z" />
    <glyph glyph-name="dagger" unicode="&#x2020;" horiz-adv-x="333" 
d="M162 -2l-3 -10q0 25 -2 89q-1 32 -5 98q-4 63 -7 96q-2 17 -7 84q-3 39 -6 65q-4 34 -4 35q12 21 20 51q9 32 9 64q-16 0 -28 -4q-9 -3 -25 -9l-24 -9q-11 -4 -25 -4q-19 0 -30 11q-10 10 -10 24t10 24q11 11 30 11q14 0 25 -4q16 -6 25 -10t27 -10q12 -4 27 -4
q0 12 -5 30q-3 11 -11 33t-11 32q-5 17 -5 26q0 18 11 31q10 12 29 12q17 0 27 -12q11 -13 11 -31q0 -9 -5 -26q-3 -10 -11 -32t-11 -33q-5 -18 -5 -30q14 0 27 5q8 3 24 11t24 11q13 5 26 5q20 0 29 -10t9 -24t-9 -24q-9 -11 -29 -11q-13 0 -26 5l-24 9q-16 6 -25 9
q-15 5 -27 5q0 -33 9 -64q8 -30 20 -51q0 -1 -4 -33q-3 -25 -6 -63q-3 -39 -6 -85q-4 -64 -6 -97t-4 -97t-2 -89h-11z" />
    <glyph glyph-name="daggerdbl" unicode="&#x2021;" horiz-adv-x="349" 
d="M175 -8l-5 -17q-18 0 -28 12q-10 11 -10 31q0 9 5 26q3 10 11 32t11 33q5 18 5 30q-15 0 -27 -4q-18 -6 -27 -10t-25 -10q-11 -4 -25 -4q-19 0 -30 11q-10 10 -10 24t10 24q11 11 30 11q14 0 25 -4l24 -9q8 -3 26 -9q12 -4 28 -4q0 43 -3 76t-9 57q-7 27 -13 42
q-8 20 -15 32q7 12 15 32q6 15 13 42q6 24 9 56t3 75q-16 0 -28 -4q-9 -3 -25 -9l-24 -9q-11 -4 -25 -4q-19 0 -30 11q-10 10 -10 24t10 24q11 11 30 11q14 0 25 -4q16 -6 25 -10t27 -10q12 -4 27 -4q0 12 -5 30q-3 11 -11 33t-11 32q-5 17 -5 26q0 18 11 31q10 12 29 12
q17 0 27 -12q11 -13 11 -31q0 -9 -5 -26q-3 -10 -11 -32t-11 -33q-5 -18 -5 -30q14 0 27 5q8 3 24 11t24 11q13 5 26 5q20 0 29 -10q9 -11 9 -24t-9 -24t-29 -11q-13 0 -26 5l-24 9q-16 6 -25 9q-15 5 -27 5q0 -44 3 -75q3 -32 9 -56t12 -42q5 -14 14 -31q-9 -16 -14 -31
q-6 -18 -12 -42t-9 -57t-3 -76q12 0 27 5q18 6 26 9l24 9q13 5 26 5q20 0 29 -11t9 -24t-9 -24q-9 -10 -29 -10q-13 0 -26 5q-8 3 -24 11t-24 11q-13 5 -27 5q0 -12 5 -30q3 -11 11 -33q10 -27 11 -31q5 -17 5 -26q0 -20 -10 -31q-10 -12 -27 -12z" />
    <glyph glyph-name="bullet" unicode="&#x2022;" horiz-adv-x="323" 
d="M161 398l-2 -2q23 0 44 -9t36 -24t24 -36t9 -43t-9 -43t-24 -36t-36 -24t-43 -9t-43 9t-36 24t-24 36t-9 44t9 44t24 36t36 24t44 9z" />
    <glyph glyph-name="ellipsis" unicode="&#x2026;" horiz-adv-x="580" 
d="M480 -10q-21 0 -36 15t-15 37t15 36q16 14 36 14q21 0 37 -14q15 -14 15 -36t-15 -37t-37 -15zM290 -11q-21 0 -36 15t-15 37q0 23 15 36q16 14 36 14q21 0 37 -14q15 -13 15 -36q0 -22 -15 -37t-37 -15zM101 -11q-21 0 -36 15t-15 37q0 23 15 36q16 14 36 14
q21 0 37 -14q15 -13 15 -36q0 -22 -15 -37t-37 -15z" />
    <glyph glyph-name="perthousand" unicode="&#x2030;" horiz-adv-x="980" 
d="M168 379l-1 -2q-25 0 -51 14q-24 13 -46 38q-21 24 -33 59q-12 34 -12 77t12 77t33 60t46 39q26 14 51 14q26 0 51 -13q26 -14 47 -39q20 -24 34 -60q13 -33 13 -76q0 -44 -13 -77q-14 -36 -34 -59q-22 -25 -46 -38q-26 -14 -51 -14zM106 3l413 751l16 -10l-414 -750z
M167 389h-2q16 0 30 10q15 11 27 31q11 20 19 54q7 31 7 81t-7 81q-8 34 -19 54q-12 21 -27 30t-30 9q-13 0 -27 -9q-13 -8 -25 -30q-11 -20 -19 -54q-7 -31 -7 -81q0 -46 8 -81q8 -34 19 -54q11 -19 26 -31q13 -10 27 -10zM470 -8l-1 -2q-25 0 -51 14q-24 13 -46 38
q-21 24 -33 59q-12 34 -12 77t12 77q12 35 33 60q21 26 46 39q26 14 51 14q26 0 51 -13q26 -14 47 -39q20 -24 34 -60q13 -33 13 -76q0 -44 -13 -77q-14 -36 -34 -59q-22 -25 -46 -38q-26 -14 -51 -14zM806 -10v-2q-25 0 -51 14q-24 13 -46 38q-21 24 -33 59q-12 34 -12 77
q0 42 12 77t33 60q21 26 46 39q26 14 51 14q26 0 51 -13t46 -39q20 -24 34 -60q13 -33 13 -76q0 -44 -13 -77q-14 -36 -34 -59q-22 -25 -46 -38q-26 -14 -51 -14zM469 0h-3q16 0 30 10q15 11 27 31q11 20 19 54q8 35 8 81q0 50 -7 81q-8 34 -19 54q-12 21 -27 30t-30 9
q-13 0 -27 -9q-13 -8 -25 -30q-11 -20 -19 -54q-7 -31 -7 -81q0 -46 8 -81q8 -34 19 -54q11 -19 26 -31q13 -10 27 -10zM803 0h-2q16 0 30 10q15 11 27 31q11 20 19 54q7 31 7 81t-7 81q-8 34 -19 54q-12 21 -27 30t-30 9q-13 0 -28 -9t-27 -30q-11 -20 -19 -54
q-7 -31 -7 -81q0 -46 8 -81q8 -34 19 -54q12 -20 27 -31q14 -10 29 -10z" />
    <glyph glyph-name="uni2032" unicode="&#x2032;" horiz-adv-x="130" 
d="M27 580l-2 -2q7 28 9 53q2 32 2 59q0 67 38 67q19 0 26 -10q8 -11 8 -24q0 -16 -7 -29q-7 -14 -18 -30q-18 -28 -27 -43q-14 -23 -21 -43z" />
    <glyph glyph-name="uni2033" unicode="&#x2033;" horiz-adv-x="230" 
d="M27 580l-2 -2q7 28 9 53q2 32 2 59q0 67 38 67q19 0 26 -10q8 -11 8 -24q0 -16 -7 -29q-7 -14 -18 -30q-18 -28 -27 -43q-14 -23 -21 -43zM125 578l-2 -2q7 28 9 53q2 32 2 59q0 67 38 67q19 0 26 -10q8 -11 8 -24q0 -16 -7 -29q-7 -14 -18 -30q-18 -28 -27 -43
q-14 -23 -21 -43z" />
    <glyph glyph-name="guilsinglleft" unicode="&#x2039;" horiz-adv-x="191" 
d="M32 224v12l123 157l8 -5l-69 -158l70 -158l-8 -5z" />
    <glyph glyph-name="guilsinglright" unicode="&#x203a;" horiz-adv-x="191" 
d="M29 72l70 158l-69 158l8 5l124 -157v-12l-125 -157z" />
    <glyph glyph-name="fraction" unicode="&#x2044;" horiz-adv-x="460" 
d="M56 380h348v-10h-348v10z" />
    <glyph glyph-name="Euro" unicode="&#x20ac;" horiz-adv-x="514" 
d="M12 345l57 -7q-1 5 -1 15v16v22q0 14 1 21h-61v14h62q8 82 31 142q24 60 59 102q35 41 75 62q41 21 81 21q38 0 65 -10q31 -11 50 -25q21 -15 33 -33t12 -34q0 -13 -9 -25t-24 -12q-36 0 -42 42q-4 22 -6 32q-3 14 -11 27q-8 12 -23 20q-16 8 -42 8q-70 0 -112 -77
q-43 -77 -47 -237h197v-14h-198v-27v-23q0 -15 1 -22h197v-14h-197q4 -95 21 -156q17 -62 40 -97q25 -37 52 -50q30 -14 59 -14q28 0 51 6q20 5 40 17q17 10 31 24q14 13 24 27l9 -8q-9 -12 -24 -27q-14 -14 -36 -28q-19 -12 -48 -22q-27 -9 -61 -9q-50 0 -91 22
q-42 22 -75 66t-54 106q-20 61 -25 145h-61v14z" />
    <glyph glyph-name="trademark" unicode="&#x2122;" horiz-adv-x="594" 
d="M276 463l2 -2q9 2 12 4q4 3 6 12q2 12 2 25v45v112v45q0 14 -2 24q-2 7 -5 11q-4 4 -10 5v6h66q2 0 3 -1q2 -1 3 -6l70 -211l74 218l4 -1v1h62v-6q-6 -2 -10 -4q-5 -3 -6 -10q-2 -10 -2 -24v-45v-112v-45q0 -16 3 -25t6 -12q2 -2 9 -4v-6h-83v6q7 2 9 4q3 3 6 12t3 25v45
v185l-93 -276h-9l-92 281v-190v-45q0 -13 2 -25q2 -9 6 -12q4 -2 10 -4v-5h-46v5zM99 462v-3q7 1 11 5t5 10q2 10 2 22v41v203h-16q-28 0 -42 -11q-13 -10 -21 -41h-5l5 49q2 7 3 9q2 2 6 2h188q5 0 6 -1t3 -9l5 -49h-6q-8 31 -21 41q-14 11 -45 11h-15v-203v-40
q0 -14 3 -22q3 -7 7 -10q3 -2 12 -4v-6h-85v6z" />
    <glyph glyph-name="onethird" unicode="&#x2153;" horiz-adv-x="460" 
d="M56 380h348v-10h-348v10zM173 465l-1 8q10 1 17 5q6 3 9 14q2 8 4 32q1 14 1 59v121v38q0 14 -3 20q-3 7 -9 8q-8 2 -18 2v8l87 61v-258v-59q0 -22 3 -32q3 -11 9 -14q7 -4 17 -5v-8h-116zM142 270l-4 -3q2 7 5 13q1 3 6 3h168v-5l-111 -138q3 1 11 3q4 1 13 1
q43 0 73 -27t30 -82q0 -25 -9 -48q-8 -21 -26 -40q-16 -17 -39 -28q-21 -10 -51 -10q-40 0 -63 17t-23 35q0 9 6 15t17 6t15 -6t6 -18q2 -8 3 -13q1 -7 6 -13q5 -7 12 -11t21 -4q38 0 54 33q17 34 17 83q0 48 -10 74q-11 27 -36 27q-19 0 -32 -8t-20 -18l-6 4l100 124h-57
h-42q-13 0 -23 -2q-8 -2 -11 -6q-1 -2 -3.5 -6t-3.5 -6h-8z" />
    <glyph glyph-name="twothirds" unicode="&#x2154;" horiz-adv-x="460" 
d="M56 380h348v-10h-348v10zM143 270l-4 -3q2 7 5 13q2 3 6 3h168v-5l-111 -138q3 1 11 3q4 1 13 1q43 0 73 -27t30 -82q0 -25 -9 -48q-8 -21 -26 -40q-16 -17 -39 -28q-21 -10 -51 -10q-40 0 -63 17t-23 35q0 9 6 15t17 6q10 0 15 -6t6 -18q2 -8 3 -13q1 -7 6 -13
q5 -7 12 -11t21 -4q37 0 54 33q17 34 17 83q0 48 -10 74q-10 27 -36 27q-19 0 -32 -8t-20 -18l-6 4l100 124h-57h-42q-13 0 -23 -2q-8 -2 -11 -6q-1 -2 -3.5 -6t-3.5 -6h-8zM244 508l-1 -3q34 0 44 1q17 2 24 4q9 3 13 7t7 12h8l-15 -52q-3 -9 -5 -14q-1 -3 -9 -3h-197
l74 93q37 52 57 98q19 44 19 95q0 36 -9 59t-38 23q-11 0 -19 -5q-7 -5 -12 -12t-6 -15t-3 -12q-3 -11 -9 -17t-19 -6q-12 0 -18 6t-6 17q0 17 23 35t66 18q18 0 40 -5q19 -4 34 -15t24 -28q9 -18 9 -42t-8 -48q-7 -21 -23 -45q-15 -22 -36 -48q-16 -20 -48 -55l-44 -43h83z
" />
    <glyph glyph-name="oneeighth" unicode="&#x215b;" horiz-adv-x="460" 
d="M338 16l-1 -3q0 -45 -30 -75t-75 -30q-51 0 -80 26t-29 66q0 37 23 63q22 25 51 39q-33 21 -49 44q-15 21 -15 53q0 21 8 39q7 16 21 27q15 11 30 17q16 6 35 6q43 0 69 -21q25 -21 25 -55q0 -26 -18 -48q-19 -23 -43 -39q37 -25 57 -46q21 -23 21 -63zM231 -83v-1
q32 0 47 21t15 48q0 34 -21 55q-22 22 -55 45l-15 10q-18 -13 -31 -38q-12 -24 -12 -58q0 -37 18 -60q18 -22 54 -22zM243 132v2q1 -1 5 -3t5 -3q33 27 33 81q0 70 -59 70q-25 0 -42 -15q-16 -15 -16 -40q0 -14 5 -27q4 -10 14 -22q8 -9 23 -21q6 -5 32 -22zM55 378h348v-10
h-348v10zM166 463l-1 8q10 1 17 5q6 3 9 14q2 8 4 32q1 14 1 59v121v38q0 14 -3 20q-3 7 -9 8q-8 2 -18 2v8l87 61v-258v-59q0 -22 3 -32q3 -11 9 -14q7 -4 17 -5v-8h-116z" />
    <glyph glyph-name="threeeighths" unicode="&#x215c;" horiz-adv-x="460" 
d="M338 16l-1 -3q0 -45 -30 -75t-75 -30q-51 0 -80 26t-29 66q0 37 23 63q22 25 51 39q-33 21 -49 44q-15 21 -15 53q0 21 8 39q7 16 21 27q15 11 30 17q16 6 35 6q43 0 69 -21q25 -21 25 -55q0 -26 -18 -48q-19 -23 -43 -39q37 -25 57 -46q21 -23 21 -63zM231 -83v-1
q32 0 47 21t15 48q0 34 -21 55q-22 22 -55 45l-15 10q-18 -13 -31 -38q-12 -24 -12 -58q0 -37 18 -60q18 -22 54 -22zM243 132v2q1 -1 5 -3t5 -3q33 27 33 81q0 70 -59 70q-25 0 -42 -15q-16 -15 -16 -40q0 -14 5 -27q4 -10 14 -22q8 -9 23 -21q6 -5 32 -22zM55 378h348v-10
h-348v10zM143 819l-4 -3q2 7 5 13q2 3 6 3h168v-5l-111 -138q3 1 11 3q4 1 13 1q43 0 73 -27t30 -82q0 -26 -9 -48q-8 -21 -26 -40q-16 -17 -39 -28q-21 -10 -51 -10q-40 0 -63 17t-23 35q0 9 6 15t17 6q10 0 15 -6t6 -18q2 -8 3 -13q1 -7 6 -13q5 -7 12 -11t21 -4
q37 0 54 33q17 34 17 83q0 48 -10 74q-10 27 -36 27q-19 0 -32 -8t-20 -18l-6 4l100 124h-57h-42q-13 0 -23 -2q-8 -2 -11 -6q-1 -2 -3.5 -6t-3.5 -6h-8z" />
    <glyph glyph-name="fiveeighths" unicode="&#x215d;" horiz-adv-x="460" 
d="M338 16l-2 -2q0 -22 -9 -42t-22 -34t-33 -22q-21 -8 -42 -8q-50 0 -79 26q-28 25 -28 66q0 37 23 63q22 25 51 39q-33 21 -49 44q-15 21 -15 53q0 21 8 39q7 16 21 27q15 11 30 17q16 6 35 6q44 0 68 -21t24 -55q0 -25 -17 -48q-16 -22 -42 -39q37 -25 57 -46
q21 -23 21 -63zM184 787l-25 -103q9 9 26 16q15 6 34 6q22 0 43 -6q19 -6 37 -20q17 -14 26 -36t9 -54q0 -59 -35 -96q-35 -36 -90 -36q-42 0 -66 18t-24 36q0 11 6 17t18 6q20 0 23 -25q2 -4 3 -12q1 -7 6 -13q5 -7 12 -11q8 -5 23 -5q33 0 51 34q18 35 18 91
q0 105 -59 105q-24 0 -40 -9t-24 -20l-6 3l34 161h147l-13 -39q-2 -8 -8 -8h-126zM226 -85v-1q32 0 48 21q16 20 16 48q0 34 -21 55q-22 22 -55 45l-15 10q-18 -13 -31 -38q-12 -24 -12 -58q0 -37 17 -60q16 -22 53 -22zM249 124v3q33 27 33 80q0 70 -59 70q-25 0 -42 -15
q-16 -15 -16 -40q0 -14 5 -27q4 -10 14 -22q8 -9 23 -21q6 -5 32 -22zM51 377h348v-10h-348v10z" />
    <glyph glyph-name="seveneighths" unicode="&#x215e;" horiz-adv-x="460" 
d="M338 16l-1 -3q0 -45 -30 -75t-75 -30q-51 0 -80 26t-29 66q0 37 23 63q22 25 51 39q-33 21 -49 44q-15 21 -15 53q0 21 8 39q7 16 21 27q15 11 30 17q16 6 35 6q43 0 69 -21q25 -21 25 -55q0 -26 -18 -48q-19 -23 -43 -39q37 -25 57 -46q21 -23 21 -63zM231 -83v-1
q32 0 47 21t15 48q0 34 -21 55q-22 22 -55 45l-15 10q-18 -13 -31 -38q-12 -24 -12 -58q0 -37 18 -60q18 -22 54 -22zM243 132v2q1 -1 5 -3t5 -3q33 27 33 81q0 70 -59 70q-25 0 -42 -15q-16 -15 -16 -40q0 -14 5 -27q4 -10 14 -22q8 -9 23 -21q6 -5 32 -22zM206 463h-10
l114 325h-88q-30 0 -40 -1q-17 -2 -24 -4q-9 -3 -12 -9q-1 -2 -7 -16h-8l18 66q3 10 10 10h177v-3zM55 378h348v-10h-348v10z" />
    <glyph glyph-name="arrowleft" unicode="&#x2190;" horiz-adv-x="787" 
d="M40 362l-2 3q32 8 74 28q45 21 90 51t84 66q40 37 56 75l9 -4q-17 -49 -36 -84q-21 -36 -40 -60q-22 -26 -43 -42q-20 -15 -45 -28h550v-12h-550q25 -13 45 -28q21 -16 43 -42q23 -28 41 -61q20 -37 36 -85l-9 -4q-17 40 -55 75q-41 38 -84 65q-45 29 -90 48
q-44 19 -74 27v12z" />
    <glyph glyph-name="arrowright" unicode="&#x2192;" horiz-adv-x="787" 
d="M48 362l548 -3q-25 13 -45 28q-21 16 -43 42q-19 24 -40 60q-20 35 -36 84l9 4q16 -38 56 -75q39 -36 84 -66t90 -51q42 -20 74 -28v-12q-30 -8 -74 -27q-45 -20 -90 -48q-43 -27 -84 -65q-38 -35 -55 -75l-9 4q16 48 36 85q18 33 41 61q22 26 43 42q20 15 45 28h-550v12
z" />
    <glyph glyph-name="minus" unicode="&#x2212;" horiz-adv-x="405" 
d="M38 359h329v-16h-329v16z" />
    <glyph glyph-name="uni24C5" unicode="&#x24c5;" horiz-adv-x="687" 
d="M345 760h-2q64 0 120 -28q57 -28 100 -79t69 -122q26 -72 26 -156q0 -87 -25 -156q-26 -71 -69 -122t-100 -79q-56 -28 -120 -28q-66 0 -122 28q-57 28 -100 79t-69 122q-25 69 -25 156t25 156q26 71 69 122q42 50 101 79q56 28 122 28zM343 0v1q60 0 114 27q55 27 96 76
q42 50 66 118q24 69 24 153t-24 153q-24 68 -66 118q-41 49 -96 76q-54 27 -114 27q-61 0 -117 -27q-55 -27 -97 -76q-42 -50 -66 -118q-24 -69 -24 -154q0 -84 24 -153q24 -68 66 -118q42 -49 97 -76q56 -27 117 -27zM223 161l2 -2q9 1 15 6t9 16q3 12 3 33v59v198v60
q0 22 -3 34q-3 11 -9 16t-15 6v8h129q28 0 60 -5q28 -4 49 -18t33 -36t12 -55q0 -32 -13 -55q-13 -24 -36 -39q-24 -16 -51 -23t-58 -7h-37v-82v-59q0 -21 3 -33q3 -11 9 -16q6 -4 17 -6v-8h-119v8zM315 583l-2 -218h35q16 0 34 3q17 3 31 15q14 13 23 33q9 21 9 57
q0 38 -9 59q-9 22 -22 33q-14 12 -30 15q-17 3 -31 3h-38z" />
    <glyph glyph-name="space_uni0326" horiz-adv-x="500" 
d="M272 -117v1q-2 -4 -9 -9q-7 -4 -18 -4q-16 0 -27 11t-11 30q0 20 13 30q14 11 30 11q20 0 35 -15t15 -42q0 -41 -22 -60q-23 -20 -52 -27l-4 9q56 15 56 52q0 8 -6 13z" />
    </font>
</defs>
</svg>
