<?xml version="1.0" standalone="no"?>
<!DOCTYPE svg PUBLIC "-//W3C//DTD SVG 1.1//EN" "http://www.w3.org/Graphics/SVG/1.1/DTD/svg11.dtd" >
<svg xmlns="http://www.w3.org/2000/svg" xmlns:xlink="http://www.w3.org/1999/xlink" version="1.1">
<metadata>
Created by FontForge 20170731 at Tue Aug 28 16:13:47 2018
 By Aleksey,,,
Copyright (c) 2018 Commercial Type, Inc.. All rights reserved.
</metadata>
<defs>
<font id="SchnyderWideLDemi" horiz-adv-x="558" >
  <font-face 
    font-family="Schnyder Wide L Demi"
    font-weight="400"
    font-stretch="normal"
    units-per-em="1000"
    panose-1="0 0 0 0 0 0 0 0 0 0"
    ascent="800"
    descent="-200"
    x-height="463"
    cap-height="749"
    bbox="-110 -298 1169 1061"
    underline-thickness="16"
    underline-position="-128"
    unicode-range="U+000D-FB04"
  />
<missing-glyph horiz-adv-x="214" 
 />
    <glyph glyph-name="f_f" unicode="ff" horiz-adv-x="524" 
d="M279 7l-10 -3q17 5 26 12q10 8 14 24q5 16 6 48q1 21 1 84v279h-159v-279q0 -42 2 -84q1 -30 8 -48q6 -16 20 -24q13 -7 38 -12v-7h-206v7q17 5 26 12q10 8 14 24q5 16 6 48q1 21 1 84v279h-49v8q33 5 42 21t9 57v14q0 56 16 92q17 38 42 62q26 25 57 35q33 11 63 11
q45 0 75 -12t39 -34q23 29 53 41t59 12q41 0 71 -14q29 -14 29 -42q0 -10 -8 -21t-26 -11q-22 0 -29 9t-12 27q-6 27 -11 36q-5 8 -20 8q-13 0 -22 -6t-15 -20q-6 -13 -9 -38q-3 -24 -3 -60v-162h100v-10h-100v-279q0 -42 2 -84q1 -30 8 -48q6 -16 20 -24q13 -7 38 -12v-7
h-206v7zM315 463l-2 115q0 42 11 78q-20 0 -27 9t-12 27q-6 32 -15 43q-9 10 -35 10q-35 0 -57 -28t-22 -105v-149h159z" />
    <glyph glyph-name="f_i" unicode="fi" horiz-adv-x="491" 
d="M26 7l-7 2q17 5 26 12q10 8 14 24q5 17 6 48q1 21 1 84v279h-49v8q14 3 27 8q9 4 16 14q5 8 7 26q2 22 2 42v27q0 48 14 84q13 35 35 56q21 21 47 30q25 9 51 9q42 0 68 -13q27 -13 27 -40q0 -10 -8 -21t-26 -11q-19 0 -27 9t-12 27q-4 25 -9 33t-18 8q-25 0 -37 -27
t-12 -99v-162h114l140 12v-301q0 -63 1 -84q1 -31 6 -48t15 -24t30 -12v-7h-194v7q18 5 27 12q10 8 14 24q5 17 6 48q1 21 1 84v140v77q0 26 -5 41q-5 14 -14 17q-7 2 -27 4h-112v-279q0 -42 2 -84q1 -30 8 -48q6 -16 20 -24q13 -7 38 -12v-7h-206v7zM364 547q-23 0 -38 15
t-15 38t15 38t38 15t38 -15t15 -38t-15 -38t-38 -15z" />
    <glyph glyph-name="f_l" unicode="fl" horiz-adv-x="492" 
d="M26 7l-7 -3q17 5 26 12q10 8 14 24q5 16 6 48q1 21 1 84v279h-49v8q14 3 27 8q10 4 16 15q5 9 7 26q2 20 2 39v25q0 52 15 86t39 57q25 23 53 32t56 9q45 0 75 -15t30 -45q0 -11 -6 -20t-24 -9q-19 0 -27 9t-12 28q-6 29 -13 36q-8 8 -27 8q-31 0 -48 -26
q-16 -25 -16 -98v-160h96v-10h-96v-279q0 -42 2 -84q1 -30 8 -48q6 -16 20 -24q13 -7 38 -12v-7h-206v7zM270 4l-2 -1q18 5 27 12q10 8 14 24q5 17 6 48q1 21 1 84v372v83q0 28 -5 45q-4 15 -14 18q-11 4 -27 5v8l142 69v-599q0 -63 1 -84q1 -32 6 -48t15 -24t30 -12v-7
h-194v7z" />
    <glyph glyph-name="f_f_i" unicode="ffi" horiz-adv-x="744" 
d="M26 7l-15 -1q17 5 26 12q10 8 14 24q5 16 6 48q1 21 1 84v279h-49v8q33 5 42 21t9 57v14q0 56 16 92q17 38 42 62q26 25 57 35q33 11 63 11q45 0 75 -12t39 -34q23 29 53 41t59 12q42 0 68 -13q27 -13 27 -40q0 -10 -8 -21t-26 -11q-19 0 -27 9q-8 10 -11 27q-5 25 -9 33
q-5 8 -18 8q-25 0 -37 -27t-12 -99v-162h113l141 12v-301q0 -63 1 -84q2 -31 6 -48t15 -24t30 -12v-7h-195v7q17 4 28 12q10 7 15 24t6 48q1 21 1 84v140v77q0 26 -5 41q-5 14 -14 17q-7 2 -27 4h-112v-279q0 -42 2 -84q1 -30 8 -48q6 -16 20 -24q13 -7 38 -12v-7h-206v7
q17 5 26 12q10 8 14 24q4 17 6 48q1 21 1 84v279h-159v-279q0 -42 2 -84q1 -30 8 -48q6 -16 20 -24q13 -7 38 -12v-7h-206v7zM310 465l-2 115q0 42 11 78q-19 0 -27 9t-12 27q-6 32 -15 42q-9 11 -35 11q-35 0 -57 -28t-22 -105v-149h159zM607 545q-23 0 -38 15t-15 38
t15 38t38 15t38 -15t15 -38t-15 -38t-38 -15z" />
    <glyph glyph-name="f_f_l" unicode="ffl" horiz-adv-x="744" 
d="M279 7l-10 -1q17 5 26 12q10 8 14 24q5 16 6 48q1 21 1 84v279h-159v-279q0 -42 2 -84q1 -30 8 -48q6 -16 20 -24q13 -7 38 -12v-7h-206v7q17 5 26 12q10 8 14 24q5 16 6 48q1 21 1 84v279h-49v8q33 5 42 21t9 59v13q0 56 16 92q17 38 42 62q26 25 57 35q33 11 63 11
q48 0 78 -13q32 -14 39 -37q26 29 58 42t64 13q46 0 75 -16q30 -17 30 -46q0 -11 -6 -20t-24 -9q-20 0 -27 9t-12 29q-6 29 -13 36q-8 8 -27 8q-31 0 -48 -27q-16 -26 -16 -99v-160h96v-10h-96v-279q0 -42 2 -84q1 -30 8 -48q6 -16 20 -24q13 -7 38 -12v-7h-206v7zM315 465
l-1 109q0 24 3 44q3 18 11 36h-2q-20 0 -27 9t-12 29q-6 32 -15 42q-9 11 -36 11q-18 0 -33 -6q-14 -6 -25 -21q-10 -14 -16 -41q-6 -25 -6 -63v-149h159zM519 5l-2 -1q18 4 27 12q10 8 14 24t6 48q1 21 1 84v372v83q0 28 -5 45q-4 15 -14 18q-11 4 -27 5v8l142 69v-599
q0 -63 1 -84q2 -31 6 -48t15 -24t30 -12v-7h-194v7z" />
    <glyph glyph-name="f_b" unicode="fb" horiz-adv-x="839" 
d="M26 7l-7 -1q17 5 26 12q10 8 14 24q5 16 6 48q1 21 1 84v279h-49v8q14 3 27 8q10 4 16 15q5 9 7 26q2 20 2 39v26q0 51 15 86t39 57q25 23 53 32t56 9q46 0 75 -16q30 -17 30 -46q0 -11 -6 -20t-24 -9q-19 0 -27 9q-7 9 -12 29q-6 29 -13 36q-8 8 -27 8q-32 0 -48 -27
q-16 -26 -16 -99v-160h96v-10h-96v-279q0 -42 2 -84q1 -30 8 -48q6 -16 20 -24q13 -7 38 -12v-7h-206v7zM544 -11l-3 -6q-36 0 -68 8q-34 9 -54 16q-36 14 -42 16q-19 8 -31 8q-14 0 -18 -7q-5 -8 -6 -13h-8v539v78q0 27 -5 42q-5 14 -13 17q-11 4 -26 5v9l139 71v-411
l22 24q31 35 72 60q41 26 93 26q40 0 78 -15t66 -45q30 -31 47 -73q18 -44 18 -99q0 -62 -22 -107q-23 -47 -58 -78q-36 -31 -83 -48q-48 -17 -98 -17zM437 15l-2 -1q14 -8 40 -16q24 -7 64 -7q31 0 61 9q29 9 52 35t36 70q14 47 14 114q0 77 -12 122t-30 69q-18 25 -42 32
q-26 8 -48 8q-41 0 -76 -23q-34 -23 -66 -57l-22 -24v-261q0 -27 6 -43q6 -17 25 -27z" />
    <glyph glyph-name="f_f_b" unicode="ffb" horiz-adv-x="1091" 
d="M279 7l-10 -1q17 5 26 12q10 8 14 24q5 16 6 48q1 21 1 84v279h-159v-279q0 -42 2 -84q1 -30 8 -48q6 -16 20 -24q13 -7 38 -12v-7h-206v7q17 5 26 12q10 8 14 24q5 16 6 48q1 21 1 84v279h-49v8q33 5 42 21t9 59v13q0 56 16 92q17 38 42 62q26 25 57 35q33 11 63 11
q48 0 78 -13q32 -14 39 -37q26 29 58 42t64 13q46 0 75 -16q30 -17 30 -46q0 -11 -6 -20t-24 -9q-20 0 -27 9t-12 29q-6 29 -13 36q-8 8 -27 8q-31 0 -48 -27q-16 -26 -16 -99v-160h96v-10h-96v-279q0 -42 2 -84q1 -30 8 -48q6 -16 20 -24q13 -7 38 -12v-7h-206v7zM315 465
l-1 109q0 24 3 44q3 18 11 36h-2q-20 0 -27 9t-12 29q-6 32 -15 42q-9 11 -36 11q-18 0 -33 -6q-14 -6 -25 -21q-10 -14 -16 -41q-6 -25 -6 -63v-149h159zM793 -12l-3 -6q-36 0 -68 8q-34 9 -54 16q-36 14 -42 16q-19 8 -31 8q-14 0 -18 -7q-5 -8 -6 -13h-8v539v78
q0 27 -5 42q-5 14 -13 17q-11 4 -26 5v9l139 71v-411l22 24q32 34 72 60q41 26 93 26q41 0 78 -15t66 -45q30 -31 47 -73q18 -43 18 -99q0 -62 -22 -107q-23 -47 -58 -78q-36 -31 -83 -48q-48 -17 -98 -17zM686 14l-2 -1q14 -8 40 -16q24 -7 64 -7q31 0 61 9q29 9 52 35
t36 70q14 47 14 114q0 77 -12 122t-30 69q-18 25 -42 32q-26 8 -48 8q-41 0 -76 -23q-35 -22 -66 -57l-22 -24v-261q0 -26 6 -43t25 -27z" />
    <glyph glyph-name="f_f_h" unicode="ffh" horiz-adv-x="1070" 
d="M279 7l-10 -1q17 5 26 12q10 8 14 24q5 16 6 48q1 21 1 84v279h-159v-279q0 -42 2 -84q1 -30 8 -48q6 -16 20 -24q13 -7 38 -12v-7h-206v7q17 5 26 12q10 8 14 24q5 16 6 48q1 21 1 84v279h-49v8q33 5 42 21t9 59v13q0 56 16 92q17 38 42 62q26 25 57 35q33 11 63 11
q48 0 78 -13q32 -14 39 -37q26 29 58 42t64 13q46 0 75 -16q30 -17 30 -46q0 -11 -6 -20t-24 -9q-20 0 -27 9t-12 29q-6 29 -13 36q-8 8 -27 8q-31 0 -48 -27q-16 -26 -16 -99v-160h96v-10h-96v-279q0 -42 2 -84q1 -30 8 -48q6 -16 20 -24q13 -7 38 -12v-7h-206v7zM315 465
l-1 109q0 24 3 44q3 18 11 36h-2q-20 0 -27 9t-12 29q-6 32 -15 42q-9 11 -36 11q-18 0 -33 -6q-14 -6 -25 -21q-10 -14 -16 -41q-6 -25 -6 -63v-149h159zM521 5l-3 -2q17 5 26 12q10 8 14 24q4 17 6 48q1 21 1 84v379v79q0 27 -5 42q-5 14 -13 17q-11 4 -25 5v8l139 69
v-420l38 35q17 16 37 31q21 16 40 27t42 19q20 7 45 7q28 0 52 -6q25 -6 42 -22t28 -42q10 -24 10 -63v-164v-84q0 -30 5 -48q4 -16 14 -24q9 -7 26 -12v-7h-192v7q19 5 29 12q11 8 15 24t6 48q1 21 1 84v191q0 48 -19 67t-49 19q-29 0 -60 -19q-33 -21 -72 -55l-38 -35
v-167q0 -63 1 -84q2 -31 6 -48t15 -24q10 -7 29 -12v-7h-191v7z" />
    <glyph glyph-name="f_f_j" unicode="ffj" horiz-adv-x="741" 
d="M279 7l-13 -1q17 5 26 12q10 8 14 24t6 48q1 21 1 84v279h-159v-279q0 -42 2 -84q1 -30 8 -48q6 -16 20 -24q13 -7 38 -12v-7h-206v7q17 5 26 12q10 8 14 24t6 48q1 21 1 84v279h-49v8q33 5 42 21t9 59v13q0 56 16 92q17 38 42 62q26 25 57 35q33 11 63 11q45 0 75 -12
q31 -12 41 -33q23 27 51 39t57 12q42 0 68 -13q27 -13 27 -40q0 -10 -8 -21t-26 -11q-20 0 -27 9q-8 10 -11 27q-4 25 -9 33t-18 8q-25 0 -37 -27t-12 -99v-162h113l141 12v-403q0 -60 -30 -105t-75 -78q-30 -21 -46 -26q-18 -6 -38 -6q-16 0 -28 9t-12 27q0 16 9 24
q10 8 23 8q12 0 21 -6q12 -8 17 -13t15 -13q8 -6 16 -6q7 0 12 5q5 3 9 10q4 6 7 21q4 17 5 36q2 30 2 59v296v77q0 26 -5 41q-5 14 -14 17q-7 2 -27 4h-112v-279q0 -42 2 -84q1 -30 8 -48q6 -16 20 -24q13 -7 38 -12v-7h-206v7zM312 465l-1 113q0 23 3 41q2 15 8 35
q-18 0 -26 9q-7 9 -12 29q-6 32 -15 42q-9 11 -36 11q-18 0 -33 -6q-14 -6 -25 -21q-10 -14 -16 -41q-6 -25 -6 -63v-149h159zM610 543q-23 0 -38 15t-15 38t15 38t38 15q22 0 39 -15q16 -15 16 -38t-16 -38q-17 -15 -39 -15z" />
    <glyph glyph-name="f_f_k" unicode="ffk" horiz-adv-x="1019" 
d="M279 7l-10 -1q17 5 26 12q10 8 14 24q5 16 6 48q1 21 1 84v279h-159v-279q0 -42 2 -84q1 -30 8 -48q6 -16 20 -24q13 -7 38 -12v-7h-206v7q17 5 26 12q10 8 14 24q5 16 6 48q1 21 1 84v279h-49v8q33 5 42 21t9 59v13q0 56 16 92q17 38 42 62q26 25 57 35q33 11 63 11
q48 0 78 -13q32 -14 39 -37q26 29 58 42t64 13q46 0 75 -16q30 -17 30 -46q0 -11 -6 -20t-24 -9q-20 0 -27 9t-12 29q-6 29 -13 36q-8 8 -27 8q-31 0 -48 -27q-16 -26 -16 -99v-160h96v-10h-96v-279q0 -42 2 -84q1 -30 8 -48q6 -16 20 -24q13 -7 38 -12v-7h-206v7zM315 465
l-1 109q0 24 3 44q3 18 11 36h-2q-20 0 -27 9t-12 29q-6 32 -15 42q-9 11 -36 11q-18 0 -33 -6q-14 -6 -25 -21q-10 -14 -16 -41q-6 -25 -6 -63v-149h159zM521 5h-3q17 5 26 12q10 8 14 24q4 17 6 48q1 21 1 84v381v78q0 27 -5 42q-5 14 -13 17q-11 4 -25 5v8l139 69v-525
l202 151q32 23 27 38q-4 15 -30 18v7h126v-7q-24 -7 -51 -21q-26 -13 -64 -42l-139 -104l222 -241q22 -25 35 -33t23 -11v-7h-192v7q23 3 27 16q5 13 -21 42l-165 178v-66q0 -63 1 -84q2 -31 6 -48t15 -24q10 -7 29 -12v-7h-191v7z" />
    <glyph glyph-name="f_h" unicode="fh" horiz-adv-x="817" 
d="M26 7l-7 -1q17 5 26 12q10 8 14 24q5 16 6 48q1 21 1 84v279h-49v8q14 3 27 8q10 4 16 15q5 9 7 26q2 20 2 39v26q0 51 15 86t39 57q25 23 53 32t56 9q46 0 75 -16q30 -17 30 -46q0 -11 -6 -20t-24 -9q-19 0 -27 9q-7 9 -12 29q-6 29 -13 36q-8 8 -27 8q-32 0 -48 -27
q-16 -26 -16 -99v-160h96v-10h-96v-279q0 -42 2 -84q1 -30 8 -48q6 -16 20 -24q13 -7 38 -12v-7h-206v7zM272 6l-3 -2q17 5 26 12q10 8 14 24q5 16 6 48q1 21 1 84v379v79q0 27 -5 42q-5 14 -13 17q-11 4 -25 5v8l139 69v-420l38 35q17 16 37 31q21 16 40 27t42 19
q20 7 45 7q28 0 52 -6q25 -6 42 -22t28 -42q10 -24 10 -63v-164v-84q0 -30 5 -48q4 -16 14 -24q9 -7 26 -12v-7h-192v7q19 5 29 12t15 24t6 48q1 21 1 84v191q0 48 -19 67t-49 19q-29 0 -60 -19q-33 -21 -72 -55l-38 -35v-167q0 -63 1 -84q1 -32 6 -48t15 -24q10 -7 29 -12
v-7h-191v7z" />
    <glyph glyph-name="f_j" unicode="fj" horiz-adv-x="488" 
d="M26 7l-8 2q17 5 26 12q10 8 14 24q4 17 6 48q1 21 1 84v279h-49v8q14 3 27 8q9 4 16 14q5 8 7 26q2 22 2 42v27q0 48 14 84q14 35 35 56t47 30t51 9q42 0 68 -13q27 -13 27 -40q0 -10 -8 -21t-26 -11q-20 0 -27 9t-12 27q-5 25 -9 33q-5 8 -18 8q-25 0 -37 -27t-12 -99
v-162h114l140 12v-403q0 -60 -30 -105t-75 -78q-30 -21 -46 -26q-18 -6 -38 -6q-16 0 -28 9t-12 27q0 16 9 24q10 8 23 8q12 0 21 -6q12 -8 17 -13t15 -13q7 -6 16 -6q7 0 12 5q5 3 9 10q4 6 7 21q4 17 5 36q2 30 2 59v296v77q0 26 -5 41q-5 14 -14 17q-7 2 -27 4h-112v-279
q0 -42 2 -84q1 -30 8 -48q6 -16 20 -24q13 -7 38 -12v-7h-206v7zM363 547q-23 0 -38 15t-15 38t15 38t38 15t39 -15t16 -38t-16 -38t-39 -15z" />
    <glyph glyph-name="f_k" unicode="fk" horiz-adv-x="766" 
d="M26 7l-7 -1q17 5 26 12q10 8 14 24q5 16 6 48q1 21 1 84v279h-49v8q14 3 27 8q10 4 16 15q5 9 7 26q2 20 2 39v26q0 51 15 86t39 57q25 23 53 32t56 9q46 0 75 -16q30 -17 30 -46q0 -11 -6 -20t-24 -9q-19 0 -27 9q-7 9 -12 29q-6 29 -13 36q-8 8 -27 8q-32 0 -48 -27
q-16 -26 -16 -99v-160h96v-10h-96v-279q0 -42 2 -84q1 -30 8 -48q6 -16 20 -24q13 -7 38 -12v-7h-206v7zM272 6h-3q17 5 26 12q10 8 14 24q5 16 6 48q1 21 1 84v381v78q0 27 -5 42q-5 14 -13 17q-11 4 -25 5v8l139 69v-525l202 151q32 23 27 38t-30 18v7h126v-7
q-24 -8 -51 -21q-26 -13 -64 -42l-139 -104l222 -241q22 -25 35 -33t23 -11v-7h-192v7q23 3 27 16q4 14 -21 42l-165 178v-66q0 -63 1 -84q1 -32 6 -48t15 -24q10 -7 29 -12v-7h-191v7z" />
    <glyph glyph-name="g_j" unicode="gj" horiz-adv-x="723" 
d="M607 547q-23 0 -39 15t-16 38t16 38t39 15t38 -15t15 -38t-15 -38t-38 -15zM466 -139l-3 -2q-19 0 -31 9t-12 26q0 13 8 24t24 11q12 0 21 -6q6 -4 18 -14q3 -2 8 -7t8 -7q7 -6 15 -6q5 0 13 5q5 4 9 12q4 6 7 21q2 10 4 36q2 30 2 57v231v81q0 30 -4 42q-5 14 -13 17
q-11 4 -26 5v8l140 73v-403q0 -59 -29 -105q-28 -43 -74 -76q-28 -20 -47 -26t-38 -6zM227 160l-4 -5q-25 0 -51 6q-23 5 -48 17l-12 -8q-19 -14 -26 -22q-9 -10 -9 -22t12 -19q11 -7 40 -10l184 -20q74 -7 109 -30q34 -22 34 -72q0 -33 -16 -59t-47 -48q-30 -21 -74 -33
q-43 -12 -97 -12q-38 0 -75 6q-38 6 -68 18q-31 12 -48 31q-18 20 -18 45q0 19 9 32t24 24q14 10 35 18q26 10 39 14q-34 7 -54 27q-19 19 -19 47q0 32 19 51q20 20 42 36l13 9q-35 20 -59 51q-24 32 -24 77q0 38 18 68t45 51q28 22 62 32q36 11 68 11q55 0 105 -26
q26 23 54 33q30 11 48 11q20 0 27 -9q8 -10 8 -23t-9 -21q-10 -8 -19 -8q-11 0 -19 4l-18 9l-18 9q-8 4 -20 4q-16 0 -32 -11q35 -19 60 -53q24 -33 24 -78q0 -38 -18 -66q-18 -29 -46 -48q-30 -20 -63 -29q-35 -9 -68 -9zM223 164l-2 -2q20 0 41 8q20 8 35 24t24 44
q9 27 9 68q0 40 -9 69t-24 47t-34 27t-42 9q-43 0 -73 -35t-30 -116q0 -41 9 -68t23 -44t33 -24q18 -7 40 -7zM66 -77h2q0 -48 41 -72t108 -24q51 0 89 9t62 24t36 33t12 34q0 17 -9 27q-10 11 -25 17q-16 6 -39 9q-30 4 -46 6l-160 18h-6h-5q-30 -10 -45 -30t-15 -51z" />
    <glyph glyph-name=".notdef" horiz-adv-x="214" 
 />
    <glyph glyph-name=".null" horiz-adv-x="0" 
 />
    <glyph glyph-name="nonmarkingreturn" unicode="&#xd;" horiz-adv-x="214" 
 />
    <glyph glyph-name="NULL" horiz-adv-x="0" 
 />
    <glyph glyph-name="NULL" horiz-adv-x="0" 
 />
    <glyph glyph-name="space" unicode=" " horiz-adv-x="214" 
 />
    <glyph glyph-name="exclam" unicode="!" horiz-adv-x="242" 
d="M116 203l-4 -1q-6 108 -15 189q-9 83 -18 140q-3 21 -8 54t-7 44q-6 39 -6 60q0 32 17 51q17 18 45 18t45 -18q17 -19 17 -51q0 -21 -6 -60q-2 -11 -7 -43.5t-8 -53.5q-5 -35 -19 -140q-10 -74 -16 -189h-10zM118 -13l-1 -1q-25 0 -41 16q-17 17 -17 42t17 42t41 17
q26 0 42 -16q17 -17 17 -42q0 -26 -16 -42t-42 -16z" />
    <glyph glyph-name="quotedbl" unicode="&#x22;" horiz-adv-x="304" 
d="M209 546l3 -2q-3 24 -10 46q-10 32 -15 47q-1 3 -13 42q-6 19 -6 33q0 22 12 36t35 14t35 -13t12 -36q0 -13 -6 -33q-12 -39 -13 -42q-10 -30 -15 -46q-7 -22 -10 -46h-9zM89 544l3 -2q-3 24 -10 46q-10 32 -15 47q-1 3 -13 42q-6 19 -6 33q0 22 12 36t35 14t35 -13
t12 -36q0 -13 -6 -33q-12 -39 -13 -42q-10 -30 -15 -46q-7 -22 -10 -46h-9z" />
    <glyph glyph-name="numbersign" unicode="#" horiz-adv-x="540" 
d="M22 280h138l45 240h-135v12h137l41 218h14l-41 -218h158l41 218h13l-41 -218h135v-12h-137l-45 -240h135v-12h-138l-50 -267h-14l51 267h-158l-50 -267h-14l50 267h-135v12zM331 280l45 240h-157l-45 -240h157z" />
    <glyph glyph-name="dollar" unicode="$" horiz-adv-x="562" 
d="M235 843l-4 -97q10 2 17 2h18h23q14 0 21 -1v88h12v-89q46 -5 79 -16q35 -12 57 -27q24 -16 35 -31q12 -16 12 -31q0 -17 -9 -27t-26 -10q-22 0 -34 14q-11 12 -19 38l-9 24q-4 12 -15 24t-27 21q-18 10 -45 14v-299q48 -16 86 -33q41 -19 68 -43q29 -26 45 -61t16 -85
q0 -40 -15 -77q-15 -38 -42 -68t-67 -51q-39 -20 -91 -28v-100h-12v99q-5 -1 -16 -1h-18h-23q-7 0 -21 2v-99h-13v100q-50 6 -90 21t-69 36q-27 20 -43 44q-15 22 -15 45q0 18 11 29t30 11q22 0 32 -12t15 -33q7 -24 15 -45t21 -39t36 -30q24 -13 60 -17v352q-97 31 -147 78
q-49 46 -49 122q0 41 15 74q15 34 42 59q27 26 63 42q34 16 77 22v89h13zM468 158l-2 -1q0 34 -7 56q-7 24 -24 42t-45 33q-31 16 -69 29v-320q38 6 67 21q28 15 46 36q19 22 26 48q8 29 8 56zM82 604v-2q0 -27 8 -48q8 -20 24 -35t42 -27t60 -24v266q-59 -9 -97 -42
q-37 -33 -37 -88zM274 -10l-1 -1h18q7 0 17 2v325l-59 19l-20 6v-350q7 -1 21 -1h24zM307 436v295q-14 2 -21 2h-24h-18q-11 0 -16 -1v-272q15 -5 26 -8q9 -2 27 -8z" />
    <glyph glyph-name="percent" unicode="%" horiz-adv-x="789" 
d="M203 379h-2q-30 0 -60 13q-32 14 -57 37q-25 24 -42 59q-17 36 -17 80t17 80q17 35 42 59q26 24 57 36t60 12q31 0 62 -12t58 -36t44 -59q17 -36 17 -80t-17 -80t-43 -59t-58 -37q-30 -13 -61 -13zM114 7l540 746l12 -9l-539 -745zM201 388l2 -2q18 0 36 9t33 30t24 56
t9 84t-9 84t-24 56t-33 30t-36 9q-17 0 -35 -9t-33 -30q-14 -20 -25 -55q-10 -33 -10 -84q0 -50 9 -84t24 -55t33 -30t35 -9zM585 -8h-2q-31 0 -61 13q-32 14 -57 37q-25 24 -42 59q-17 36 -17 80t17 80q17 35 42 59t57 36t62 12q28 0 60 -12q31 -12 58 -36t44 -59
q17 -36 17 -80t-17 -80t-43 -59t-58 -37q-30 -13 -60 -13zM583 1l2 -2q18 0 36 9t33 30t24 56q9 34 9 84q0 51 -10 84q-11 37 -25 56q-15 21 -33 30t-35 9t-35 -9t-33 -30q-14 -20 -25 -55q-10 -33 -10 -84q0 -49 9 -84q9 -34 24 -55t33 -30t36 -9z" />
    <glyph glyph-name="ampersand" unicode="&#x26;" horiz-adv-x="851" 
d="M181 590l-2 -6q0 36 15 67t41 54q25 23 60 36q33 13 72 13q36 0 66 -10q33 -11 54 -28q23 -18 36 -42q14 -25 14 -51q0 -36 -16 -62q-17 -27 -42 -48q-26 -22 -55 -36q-35 -17 -57 -26l14 -14l226 -233l1 -1l7 13l57 107q19 37 26 57q8 23 6 38q-1 15 -14 24
q-13 10 -35 14v7h156v-7q-17 -4 -33 -11q-14 -6 -27 -19q-14 -14 -29 -38q-11 -18 -37 -66l-58 -107l-10 -18l85 -84q27 -27 59 -57q20 -19 41 -34q15 -11 33 -16v-7h-154l-117 120q-105 -130 -252 -130q-64 0 -117 15t-90 42q-38 27 -57 64q-20 38 -20 81q0 53 24 92
q25 41 58 68q34 29 75 48q37 18 75 31q-36 42 -58 81q-21 37 -21 79zM133 189l3 3q0 -38 11 -76q10 -35 32 -63q21 -27 54 -42t78 -15q143 0 245 127l-253 258l-39 40q-27 -13 -51 -33t-42 -48q-17 -27 -28 -66q-10 -36 -10 -85zM264 628l-1 2q0 -26 9 -48q8 -19 23 -43
q11 -18 32 -40q24 -26 37 -39q24 12 41 25q20 15 35 35t24 45t9 57q0 64 -28 95q-29 32 -75 32q-26 0 -45 -9q-20 -9 -33 -25q-14 -17 -21 -39q-7 -21 -7 -48z" />
    <glyph glyph-name="quotesingle" unicode="'" horiz-adv-x="181" 
d="M86 546l3 -2q-3 24 -10 46q-10 32 -15 47q-1 3 -13 42q-6 19 -6 33q0 22 12 36t35 14t35 -13t12 -36q0 -13 -6 -33q-12 -39 -13 -42q-10 -30 -15 -46q-7 -22 -10 -46h-9z" />
    <glyph glyph-name="parenleft" unicode="(" horiz-adv-x="342" 
d="M322 -107l-3 -1q-40 30 -81 70q-42 41 -82 99q-38 55 -64 128q-26 72 -26 156t26 156q25 69 65 126q39 56 83 98q41 40 81 70l6 -7q-26 -21 -57 -59q-29 -35 -55 -90q-26 -54 -42 -127q-16 -71 -16 -168q0 -93 17 -167q16 -72 42 -126t55 -91q30 -38 57 -60z" />
    <glyph glyph-name="parenright" unicode=")" horiz-adv-x="342" 
d="M14 -100l-4 -2q27 22 57 60q31 38 56 92t42 126q17 74 17 167q0 97 -16 168q-16 73 -42 127q-26 55 -55 90q-31 38 -57 59l6 7q40 -30 81 -70q46 -45 83 -97q40 -57 65 -126q26 -72 26 -156t-26 -156q-26 -71 -64 -127q-40 -58 -82 -99q-41 -40 -81 -70z" />
    <glyph glyph-name="asterisk" unicode="*" horiz-adv-x="311" 
d="M179 527l-5 -2q0 -30 -23 -30q-24 0 -24 30q0 20 9 44q10 26 14 53q-20 -26 -30 -49t-24 -37q-22 -22 -39 -4q-17 17 4 38q13 13 38 24t47 27q-32 -5 -54 -13q-24 -9 -42 -9q-29 0 -29 23q0 24 29 24q18 0 43 -9q23 -8 54 -13q-23 19 -47 30q-22 10 -36 24q-21 22 -4 39
q16 16 39 -5q13 -14 24 -37q12 -23 29 -47q-5 32 -13 54q-9 24 -9 42q0 30 24 30q23 0 23 -30q0 -16 -8 -43q-7 -25 -12 -54q17 24 27 48q11 25 24 38q21 22 39 4q17 -17 -5 -38q-14 -13 -36 -24t-45 -30q27 4 53 14q24 9 43 9q30 0 30 -24q0 -23 -30 -23q-19 0 -43 9
q-21 8 -53 13q22 -16 47 -27t38 -24q10 -10 12 -21t-6 -18t-18 -6t-21 12q-13 13 -24 38q-11 24 -30 48q4 -31 12 -55q8 -26 8 -43z" />
    <glyph glyph-name="plus" unicode="+" horiz-adv-x="531" 
d="M259 140v205h-207v13h207v205h14v-205h206v-13h-206v-205h-14z" />
    <glyph glyph-name="comma" unicode="," horiz-adv-x="211" 
d="M135 14l-1 -2q-6 -8 -15 -12q-10 -5 -26 -5q-20 0 -35 15t-15 38q0 25 17 40q16 15 38 15q26 0 47 -18t21 -60q0 -51 -28 -85t-72 -51l-5 6q40 18 60 43q21 26 21 54q0 15 -7 22z" />
    <glyph glyph-name="hyphen" unicode="-" horiz-adv-x="291" 
d="M54 308h201l-17 -65h-201z" />
    <glyph glyph-name="period" unicode="." horiz-adv-x="205" 
d="M103 -12l-2 -1q-26 0 -42 16t-16 42q0 25 17 42t42 17q26 0 42 -16q17 -17 17 -42q0 -26 -16 -42t-42 -16z" />
    <glyph glyph-name="slash" unicode="/" horiz-adv-x="497" 
d="M473 795l-488 -963l-13 7l487 964z" />
    <glyph glyph-name="zero" unicode="0" horiz-adv-x="745" 
d="M375 758l-1 -1q57 0 117 -29q59 -29 107 -80t78 -121q30 -71 30 -153t-30 -153q-30 -70 -78 -121q-49 -52 -106 -80q-60 -29 -117 -29q-59 0 -120 29q-59 28 -108 80q-48 51 -78 122q-30 70 -30 153t30 153t78 121q49 52 108 80q61 29 120 29zM374 748v-1q-36 0 -78 -20
q-40 -19 -72 -63q-31 -42 -52 -114q-21 -70 -21 -174q0 -101 20 -175q19 -72 51 -117q31 -44 71 -64t80 -20q39 0 79 20q38 19 70 65q32 45 51 117q19 70 19 175q0 102 -20 174q-20 71 -51 114q-32 44 -70 63q-40 20 -77 20z" />
    <glyph glyph-name="one" unicode="1" horiz-adv-x="323" 
d="M26 0l-2 6q29 4 48 14q18 9 27 37q9 29 12 82q3 54 3 149v150q0 80 -1 105q-2 39 -10 56q-9 19 -27 20q-21 2 -49 -1v7l191 139v-476q0 -76 2 -148q2 -55 10 -82q9 -28 25 -37q18 -10 47 -14v-7h-276z" />
    <glyph glyph-name="two" unicode="2" horiz-adv-x="584" 
d="M294 88v-2q66 0 130 2q46 1 74 8q25 6 36 20q12 16 20 34h9l-31 -114q-6 -26 -10 -31q-4 -6 -19 -6h-493l223 199q59 52 96 99t60 90q23 45 32 84q9 41 9 81q0 91 -40 143q-41 53 -129 53q-40 0 -64 -12q-23 -12 -36 -29q-13 -18 -17 -36q-2 -6 -7 -34q-9 -47 -51 -47
q-22 0 -34 13t-12 34q0 17 12 38t39 39t69 30t102 12q47 0 99 -11q49 -10 89 -35t65 -63t25 -95q0 -49 -20 -95q-21 -47 -55 -89q-36 -43 -85 -85q-43 -36 -110 -85l-149 -110h173z" />
    <glyph glyph-name="three" unicode="3" horiz-adv-x="618" 
d="M252 3l-7 -2q59 0 102 20q42 20 68 53q26 34 38 78q12 45 12 96q0 47 -8 89q-7 39 -26 68q-18 29 -47 44q-28 15 -71 15q-26 0 -49 -5q-19 -4 -39 -14q-16 -8 -34 -21q-17 -12 -33 -27l-7 7l286 258h-136q-73 0 -139 -2q-50 -2 -75 -9q-26 -8 -35 -21q-10 -16 -17 -34h-9
l31 119q6 23 9 27q3 5 14 5h460v-8l-317 -286q19 9 39 14q23 6 49 6q53 0 103 -14q48 -13 84 -42q37 -29 56 -70q20 -43 20 -98q0 -46 -23 -94q-22 -45 -65 -82q-41 -35 -102 -58q-59 -22 -135 -22q-55 0 -99 12q-43 12 -74 32q-30 20 -47 44q-16 23 -16 47q0 17 11 31
q10 13 32 13q24 0 36 -12t17 -35q1 -5 4 -17.5t4 -18.5q4 -19 20 -40q15 -19 42 -33q26 -13 73 -13z" />
    <glyph glyph-name="four" unicode="4" horiz-adv-x="699" 
d="M528 191h-1q2 -67 4 -93q3 -36 10 -54q7 -20 18 -27q10 -7 29 -12v-7h-224v7q19 5 29 12q11 8 17 27q6 20 9 54q2 26 4 93h-400v7l478 558h27v-497h142l-34 -68h-108zM422 259v392l-335 -392h335z" />
    <glyph glyph-name="five" unicode="5" horiz-adv-x="629" 
d="M167 665l-73 -234q33 26 84 43q48 16 108 16q58 0 111 -15q52 -15 92 -44q39 -29 62 -71q23 -43 23 -95q0 -51 -23 -102q-22 -49 -65 -87q-42 -38 -102 -60q-59 -22 -134 -22q-54 0 -99 12q-44 12 -76 30q-31 18 -48 41t-17 45q0 17 11 30q11 12 30 12q23 0 35 -12
q13 -13 17 -34q1 -2 4.5 -15.5t5.5 -21.5q6 -21 21 -39t42 -30t75 -12q56 0 96 22q42 23 68 58t40 83q13 45 13 96q0 48 -11 90q-11 41 -33 69q-23 29 -57 44q-35 15 -81 15q-72 0 -120 -19q-49 -19 -79 -45l-7 4l102 334h377l-22 -58q-8 -21 -10 -24q-3 -4 -17 -4h-343z
" />
    <glyph glyph-name="six" unicode="6" horiz-adv-x="692" 
d="M402 748l-3 -1q-50 0 -92 -21q-43 -21 -75 -61q-33 -41 -54 -100q-21 -60 -27 -140q38 38 93 65q56 27 123 27q55 0 108 -18t93 -51q42 -34 65 -79q24 -47 24 -105q0 -63 -27 -114q-27 -52 -69 -86t-93 -54q-50 -19 -99 -19q-54 0 -110 22q-57 23 -105 69q-47 46 -79 117
q-31 69 -31 168q0 93 33 165q33 73 84 122q52 50 114 77q63 27 126 27q57 0 99 -9q41 -9 70 -24q28 -15 42 -33q14 -19 14 -34q0 -17 -10 -27q-11 -11 -27 -11q-20 0 -33 11t-20 36q-7 23 -13 35q-8 16 -22 26q-15 10 -39 15q-27 5 -60 5zM150 365v1q0 -89 17 -160
q17 -69 45 -114q29 -45 68 -68q38 -22 86 -22q82 0 132 66q49 65 49 197q0 71 -16 116q-17 47 -43 75q-28 29 -60 41q-33 12 -64 12q-69 0 -122 -28t-91 -69q-1 -7 -1 -23v-24z" />
    <glyph glyph-name="seven" unicode="7" horiz-adv-x="584" 
d="M221 0l-12 2l301 666h-272q-69 0 -108 -3q-41 -3 -60 -10q-20 -7 -28 -21t-15 -36h-10l32 117q5 19 9 27q5 8 19 8h480v-8z" />
    <glyph glyph-name="eight" unicode="8" horiz-adv-x="630" 
d="M592 212l-6 4q0 -48 -21 -88t-58 -70q-36 -29 -87 -46t-105 -17q-62 0 -113 15t-89 41q-37 25 -58 60t-21 72q0 35 15 66t42 57q26 25 62 45q35 19 75 33q-81 38 -123 81t-42 105q0 46 21 82q20 34 56 61q35 26 79 39q43 13 92 13q61 0 108 -15t78 -39q32 -25 47 -54
q15 -30 15 -61q0 -29 -13 -54q-14 -26 -36 -48q-20 -20 -53 -40q-30 -18 -63 -30q42 -18 78 -39q37 -22 63 -46q27 -25 42 -57t15 -70zM328 453l-2 -3q18 -6 27 -10l27 -12q46 21 78 60q31 38 31 105q0 36 -10 65q-11 30 -33 51t-57 33t-81 12q-38 0 -71 -9q-32 -9 -57 -26
q-23 -16 -37 -41q-13 -23 -13 -53q0 -29 14 -54t39 -44q26 -20 62 -38q34 -17 83 -36zM312 0v-2q50 0 86 12t60 33t36 50t12 60q0 39 -15 67q-15 29 -43 51q-28 23 -69 42q-34 17 -93 40q-9 3 -27 11t-27 11q-59 -25 -94 -72q-34 -46 -34 -119q0 -41 12 -74q11 -31 38 -58
q25 -25 65 -39q38 -13 93 -13z" />
    <glyph glyph-name="nine" unicode="9" horiz-adv-x="695" 
d="M292 1v-3q112 0 174 83t74 240q-38 -38 -93 -65t-123 -27q-55 0 -109 17q-51 16 -91 50q-39 33 -63 80q-24 46 -24 107q0 63 27 113q28 50 69 86q42 36 93 54t99 18q57 0 115 -21q59 -21 105 -64q47 -43 75 -111q29 -69 29 -164q0 -91 -30 -166q-29 -73 -80 -127
q-49 -53 -114 -81q-63 -28 -135 -28q-58 0 -100 9q-41 9 -70 24q-28 15 -42 33q-13 17 -13 35q0 17 12 29t30 12q37 0 51 -47q4 -18 12 -33t21 -27q12 -11 38 -19q22 -7 63 -7zM144 481l-1 -3q0 -64 15 -111t40 -76q25 -30 58 -43q34 -14 70 -14q68 0 123 28t91 69
q2 18 2 29v30q0 94 -16 158q-17 67 -45 110q-28 42 -68 64q-39 21 -86 21q-81 0 -132 -64q-51 -65 -51 -198z" />
    <glyph glyph-name="colon" unicode=":" horiz-adv-x="212" 
d="M106 329l-1 -1q-25 0 -41 16q-17 17 -17 42t17 42t41 17q26 0 42 -16q17 -17 17 -42q0 -26 -16 -42t-42 -16zM105 -13l-1 -1q-25 0 -41 16q-17 17 -17 42t17 42t41 17q26 0 42 -16q17 -17 17 -42q0 -26 -16 -42t-42 -16z" />
    <glyph glyph-name="semicolon" unicode=";" horiz-adv-x="216" 
d="M109 329v-1q-26 0 -42 16q-17 17 -17 42t17 42t42 17t41 -16q17 -17 17 -42t-17 -42q-16 -16 -41 -16zM138 13h-1q-6 -7 -15 -12q-10 -5 -26 -5q-19 0 -34 15t-15 38q0 25 17 40t38 15q14 0 25 -4q12 -4 21 -15t15 -25q6 -15 6 -36q0 -51 -28 -85q-29 -35 -72 -51l-5 6
q40 18 60 43q21 25 21 54q0 15 -7 22z" />
    <glyph glyph-name="less" unicode="&#x3c;" horiz-adv-x="503" 
d="M57 358l389 163v-14l-372 -156l372 -156v-15l-389 163v15z" />
    <glyph glyph-name="equal" unicode="=" horiz-adv-x="527" 
d="M50 427h427v-13h-427v13zM50 282h427v-13h-427v13z" />
    <glyph glyph-name="greater" unicode="&#x3e;" horiz-adv-x="503" 
d="M57 180v15l372 156l-372 156v14l389 -163v-15z" />
    <glyph glyph-name="question" unicode="?" horiz-adv-x="415" 
d="M133 197l-4 -6q2 47 12 86q11 39 27 72q18 36 36 65q20 32 36 63q17 32 27 64q11 35 11 73q0 73 -28 102q-28 30 -84 30q-24 0 -35 -11t-18 -30q-3 -8 -9 -22q-5 -11 -10 -19q-6 -8 -15 -13q-8 -4 -23 -4q-19 0 -30 11t-11 27q0 29 37 50q38 21 117 21q43 0 84 -11
q40 -11 68 -30q29 -19 45 -48q17 -29 17 -66q0 -39 -17 -73q-16 -33 -42 -63q-21 -25 -56 -58q-30 -29 -57 -60q-25 -29 -46 -68q-19 -35 -22 -82h-10zM148 -18v-1q-26 0 -42 16q-17 17 -17 42t17 42t42 17t41 -16q17 -17 17 -42t-17 -42q-16 -16 -41 -16z" />
    <glyph glyph-name="at" unicode="@" horiz-adv-x="899" 
d="M765 -61l-11 -7q-16 -15 -45 -33t-69 -33q-38 -14 -91 -25q-49 -10 -115 -10q-79 0 -156 20q-74 19 -133 63t-93 111q-35 68 -35 162q0 96 39 177t105 138t153 90t182 33q82 0 149 -22q70 -23 119 -63q50 -40 78 -99q29 -60 29 -132q0 -70 -27 -127q-28 -58 -76 -98
q-51 -42 -118 -62q-69 -21 -153 -18l14 86l-18 -18q-12 -12 -32 -30q-13 -12 -30 -22q-16 -10 -32 -14q-18 -5 -38 -5q-27 0 -55 11q-25 10 -46 32q-19 20 -31 52t-12 72q0 65 24 119q24 53 62 93q37 39 86 60q48 21 95 21q26 0 45 -6q23 -7 35 -13q5 -3 14 -7t13 -6
q12 -6 26 -6q29 0 45 28h7l-48 -286q-9 -52 -11 -74q-3 -29 0 -44t13 -18q11 -3 30 3q91 28 138 96t47 168q0 70 -27 129q-27 58 -75 100q-47 41 -112 64q-66 23 -139 23q-84 0 -160 -26q-75 -26 -132 -75t-90 -123t-33 -171q0 -90 29 -160q29 -69 80 -116q50 -45 119 -70
q68 -24 147 -24q65 0 114 10q54 11 90 25q37 14 66 32q27 16 44 32zM307 151v-1q0 -70 19 -102q20 -33 54 -33q23 0 48 14t59 48l21 21l43 259q3 16 1 35q-2 18 -10 29q-10 13 -25 20q-18 8 -42 8q-30 0 -60 -21t-54 -60t-39 -94q-15 -56 -15 -123z" />
    <glyph glyph-name="A" unicode="A" horiz-adv-x="780" 
d="M12 7q11 4 23 11q10 6 21 20q12 16 23 36q9 17 28 60l227 533l-5 12q-7 18 -15 30t-15 18q-8 6 -16 9q-12 4 -19 6v6h134q8 0 11 -3q2 -2 7 -12l268 -609q19 -44 36 -76q16 -29 48 -43v-7h-194v7q28 8 29 27q2 20 -16 60l-63 143h-363l-43 -102q-10 -24 -14 -37
q-6 -21 -5 -37q1 -17 11 -31q9 -13 32 -21v-7h-130v7zM520 246l-180 409l-175 -409h355z" />
    <glyph glyph-name="B" unicode="B" horiz-adv-x="672" 
d="M16 7l-3 -2q22 6 33 16q12 11 18 39q5 26 7 82q2 72 2 148v168q0 112 -1 148q-2 57 -7 83q-6 29 -18 38t-33 15v7h299q73 0 125 -13q55 -14 92 -36q38 -22 57 -54q19 -31 19 -66q0 -28 -10 -54q-10 -27 -36 -51t-69 -42t-111 -24v-1q78 -8 129 -27q52 -20 81 -46
q30 -27 42 -57t12 -57q0 -56 -27 -98t-73 -69q-48 -28 -111 -41q-62 -13 -143 -13h-274v7zM178 739v-328h126q58 0 97 9q40 9 63 28t34 50q10 29 10 75q0 35 -11 66q-11 30 -35 53q-25 24 -61 35q-37 12 -90 12h-133zM178 403l-3 -398h104q65 0 113 9t78 33t45 63t15 98
q0 45 -7 79q-7 35 -30 61q-22 25 -66 40q-43 15 -117 15h-132z" />
    <glyph glyph-name="C" unicode="C" horiz-adv-x="751" 
d="M427 -9l-5 -7q-86 0 -159 32q-72 32 -123 84q-50 51 -79 122q-28 68 -28 144q0 94 36 166q36 71 93 121q57 49 129 75q71 25 145 25q52 0 84 -7q39 -8 59 -16q8 -3 22.5 -8t21.5 -8q18 -7 39 -7q26 0 33 28h10v-164h-10q-10 44 -35 78q-24 33 -57 54q-34 22 -75 32
q-44 11 -90 11q-58 0 -111 -21q-51 -20 -91 -65q-38 -43 -61 -111q-22 -66 -22 -160q0 -103 24 -175q24 -71 65 -117q40 -45 95 -66q54 -21 114 -21q50 0 92 11q41 11 72 27q30 16 54 38q23 21 38 41l7 -6q-13 -18 -38 -42q-24 -23 -60 -42q-37 -20 -82 -33t-107 -13z" />
    <glyph glyph-name="D" unicode="D" horiz-adv-x="784" 
d="M16 7l1 -2q22 6 33 16q12 11 18 39q5 26 7 82q2 72 2 148v168q0 112 -1 148q-2 57 -7 83q-6 29 -18 38t-33 15v7h224q242 0 375 -92q132 -91 132 -273q0 -87 -31 -156q-31 -70 -94 -121q-62 -50 -159 -79q-94 -28 -225 -28h-224v7zM182 739l-1 -733h59q100 0 174 21
t122 66t72 117t24 173q0 106 -28 174q-28 69 -79 109t-123 57q-70 16 -161 16h-59z" />
    <glyph glyph-name="E" unicode="E" horiz-adv-x="649" 
d="M16 7l-1 -1q22 6 33 16q12 10 18 39q5 26 7 82q2 72 2 148v168q0 112 -1 148q-2 57 -7 83q-6 29 -18 38t-33 15v7h555q7 0 12 -3q4 -3 7 -19l17 -98h-9q-12 33 -27 54t-37 33q-24 13 -55 17q-37 5 -81 5h-217v-322h105q38 0 58 7t31 18q10 10 15 26l8 30h9v-170h-9l-9 30
q-5 16 -15 26q-11 11 -31 18t-58 7h-105v-401h238q49 0 82 3t56 17t36 37q14 25 26 65h10l-12 -113q-2 -13 -6 -15q-6 -2 -12 -2h-582v7z" />
    <glyph glyph-name="F" unicode="F" horiz-adv-x="645" 
d="M16 7l-1 -4q21 6 33 15t18 38q5 26 7 83q2 72 2 148v168q0 113 -1 149q-2 57 -7 83q-6 29 -18 38t-33 15v7h583q8 0 11 -3q4 -4 5 -19l15 -102h-10q-10 32 -24 55t-34 36t-53 19q-31 6 -81 6h-247v-316h116q37 0 57 7t31 18q10 10 15 26l8 30h9v-170h-9l-9 30
q-5 16 -15 26q-11 11 -31 18t-57 7h-116v-125q0 -76 2 -148q1 -51 8 -82q6 -29 18 -38t33 -15v-7h-225v7z" />
    <glyph glyph-name="G" unicode="G" horiz-adv-x="807" 
d="M432 -10l-1 -1q-89 0 -162 30t-126 83t-81 124q-29 73 -29 155q0 98 37 169t96 118q58 46 131 69q74 23 142 23q52 0 83 -7q33 -7 57 -15q27 -8 44 -15q18 -7 41 -7q12 0 20 7q10 8 14 21h10v-165h-10q-21 85 -89 129t-168 44q-59 0 -111 -18q-53 -18 -92 -60t-63 -111
t-24 -172q0 -104 20 -181q19 -74 57 -121t89 -68t114 -21q108 0 160 50q51 50 51 153v6q0 30 -2 60q-1 21 -8 34q-6 13 -18 17t-33 9v8h225v-8q-20 -5 -30 -10q-12 -6 -18 -22q-6 -17 -9 -46q-3 -30 -3 -81v-52q-15 -18 -43 -40q-29 -22 -69 -42q-41 -20 -91 -33
q-49 -13 -111 -13z" />
    <glyph glyph-name="H" unicode="H" horiz-adv-x="783" 
d="M16 7l-7 -8q21 6 33 15t18 38q5 26 7 83q2 72 2 148v168q0 113 -1 149q-2 57 -7 83q-6 29 -18 38t-33 15v7h224v-7q-21 -6 -33 -15t-18 -37q-5 -26 -7 -82q-1 -36 -1 -148v-44h422v44q0 113 -1 149q-2 57 -7 83q-6 29 -18 38t-33 15v7h225v-7q-21 -6 -33 -15t-18 -37
q-5 -26 -7 -82q-1 -36 -1 -148v-168q0 -76 2 -148q1 -51 8 -82q6 -29 18 -38t33 -15v-7h-225v7q21 6 33 15t18 38q7 31 8 83q2 72 2 148v116h-422v-116q0 -76 2 -148q1 -51 8 -82q6 -29 18 -38t33 -15v-7h-224v7z" />
    <glyph glyph-name="I" unicode="I" horiz-adv-x="256" 
d="M16 7l-3 -3q22 6 33 16q12 10 18 39q5 26 7 82q2 72 2 148v168q0 113 -1 149q-2 57 -7 83q-6 29 -18 38t-33 15v7h224v-7q-21 -6 -33 -15t-18 -37q-5 -26 -7 -82q-1 -36 -1 -148v-168q0 -76 2 -148q1 -51 8 -82q6 -28 18 -39q11 -10 33 -16v-7h-224v7z" />
    <glyph glyph-name="J" unicode="J" horiz-adv-x="433" 
d="M175 -10l-6 1q-32 0 -66 8q-31 7 -55 21q-22 13 -37 32q-13 17 -13 41q0 23 14 32t30 9q20 0 33 -11q12 -11 20 -41q5 -21 9 -36q5 -16 12 -26t20 -15t33 -5q35 0 59 21t24 72v366q0 113 -1 149q-2 56 -7 82q-6 29 -18 38t-33 15v7h224v-7q-21 -6 -33 -15t-18 -37
q-5 -26 -7 -82q-1 -36 -1 -149v-284q0 -44 -15 -78q-14 -33 -41 -58q-25 -23 -58 -37q-32 -13 -69 -13z" />
    <glyph glyph-name="K" unicode="K" horiz-adv-x="703" 
d="M16 7l-6 -5q21 6 33 15t18 38q5 26 7 83q2 72 2 148v168q0 113 -1 149q-2 57 -7 83q-6 29 -18 38t-33 15v7h224v-7q-21 -6 -33 -15t-18 -37q-5 -26 -7 -82q-1 -36 -1 -148v-40l320 238q50 37 57 57t-36 30v7h141v-7q-18 -5 -23 -7q-7 -3 -28 -14q-17 -9 -39 -24
q-12 -8 -54 -38l-255 -190l347 -389q4 -5 13 -14.5t13 -13.5q10 -12 21 -21t21 -15q9 -5 22 -10v-7h-219v7q35 8 29 28q-6 21 -35 53l-292 326v-123q0 -76 2 -148q1 -51 8 -82q6 -29 18 -38t33 -15v-7h-224v7z" />
    <glyph glyph-name="L" unicode="L" horiz-adv-x="607" 
d="M16 7l-5 -5q21 6 33 15t18 38q5 26 7 83q2 72 2 148v168q0 113 -1 149q-2 57 -7 83q-6 29 -18 38t-33 15v7h226v-7q-21 -6 -33 -15t-18 -37q-5 -26 -7 -82q-1 -36 -1 -148v-450h209q41 0 76 5q32 5 54 19q23 16 38 42q16 29 29 72h11l-21 -128q-1 -13 -6 -15
q-6 -2 -12 -2h-541v7z" />
    <glyph glyph-name="M" unicode="M" horiz-adv-x="926" 
d="M16 7l-7 -5q21 8 33 18t18 39q7 31 8 83q2 72 2 147v164q0 112 -1 148q-2 57 -7 83q-6 29 -18 38t-33 15v7h164q8 0 11 -3q4 -3 11 -20l266 -600l274 624h169v-7q-21 -6 -33 -15t-18 -37q-5 -26 -7 -82q-1 -36 -1 -148v-168q0 -76 2 -148q1 -51 8 -82q6 -29 18 -38
t33 -15v-7h-225v7q21 6 33 15t18 38q5 26 7 83q2 72 2 148v438l-321 -732h-12l-325 733v-435q0 -75 2 -147q1 -51 8 -82q6 -28 20 -39q13 -11 36 -18v-7h-135v7z" />
    <glyph glyph-name="N" unicode="N" horiz-adv-x="732" 
d="M16 7l-3 -1q21 8 33 18t18 39q5 26 7 83q2 72 2 147v164q0 112 -1 148q-2 57 -7 83q-6 29 -18 38t-33 15v7h172q9 0 16 -5t23 -27l425 -560v297q0 112 -1 148q-1 51 -8 82q-6 29 -19 39q-14 10 -36 18v7h135v-7q-21 -8 -33 -18t-18 -39q-5 -26 -7 -82q-1 -36 -1 -148
v-458h-21l-556 732v-434q0 -75 2 -147q1 -51 8 -82q6 -28 20 -39q13 -11 36 -18v-7h-135v7z" />
    <glyph glyph-name="O" unicode="O" horiz-adv-x="845" 
d="M422 -10l-2 -1q-75 0 -145 30t-124 81q-53 50 -85 122t-32 153q0 79 32 151q32 71 86 122t124 81q71 30 145 30q77 0 147 -30t124 -81q55 -52 86 -121q32 -72 32 -151q0 -81 -32 -153t-85 -122q-54 -51 -124 -81q-71 -30 -147 -30zM420 -3h-5q53 0 103 21t87 66t60 117
q22 70 22 174q0 101 -23 173q-23 71 -60 116q-38 45 -86 65q-49 20 -100 20q-49 0 -100 -20q-49 -19 -87 -65q-37 -45 -60 -116q-23 -72 -23 -173q0 -100 23 -174q23 -72 60 -117t87 -66t102 -21z" />
    <glyph glyph-name="P" unicode="P" horiz-adv-x="637" 
d="M16 7l-2 -2q21 6 33 15t18 38q5 26 7 83q2 72 2 148v168q0 113 -1 149q-2 57 -7 83q-6 29 -18 38t-33 15v7h300q67 0 123 -9q54 -9 96 -32q40 -22 63 -59t23 -90q0 -55 -24 -96q-24 -40 -64 -67t-96 -39t-118 -12h-138v-55q0 -76 2 -148q1 -51 8 -82q6 -29 18 -38t35 -15
v-7h-227v7zM179 739l-1 -389h135q41 0 78 9q38 9 66 31q29 22 45 60q17 39 17 96q0 62 -18 99q-19 39 -46 59q-28 20 -66 28q-35 7 -76 7h-134z" />
    <glyph glyph-name="Q" unicode="Q" horiz-adv-x="845" 
d="M418 -8l-4 -3q-75 2 -143 28q-69 27 -122 77t-84 120q-32 72 -32 158q0 81 32 153q32 71 84 122q53 52 123 80q72 29 147 29q78 0 147 -28q71 -29 124 -79q54 -51 85 -121q32 -72 32 -153q0 -62 -16 -114q-16 -53 -45 -97q-28 -44 -69 -78q-41 -35 -88 -57q11 -33 26 -68
q14 -33 30 -56q17 -25 39 -38q23 -14 54 -14q30 0 48 12q19 13 32 27l6 -5q-17 -20 -43 -36t-76 -16q-34 0 -63 7q-33 8 -60 25t-52 50q-24 31 -39 81q-35 -6 -69 -6h-4zM418 747l-2 -5q-52 0 -101 -20t-86 -64q-38 -45 -60 -115q-22 -69 -22 -174q0 -85 12 -148
q12 -62 35 -107q23 -44 56 -71t76 -39q-34 17 -50 43q-17 28 -17 61q0 22 9 42q9 19 26 33t37 21t45 7q40 0 72 -12t56 -33q25 -22 42 -52q18 -32 33 -69q51 41 80 118q30 78 30 209q0 105 -22 174q-23 71 -60 116q-38 46 -87 65q-51 20 -102 20zM268 106l-2 -1
q0 -29 12 -52q12 -22 32 -36t47 -20t57 -6q11 0 33 2q17 1 33 6l-9 39q-10 48 -19 75q-10 30 -24 48q-13 18 -31 25q-19 8 -40 8q-17 0 -33 -6q-17 -6 -28 -16q-13 -11 -20 -27q-8 -18 -8 -39z" />
    <glyph glyph-name="R" unicode="R" horiz-adv-x="712" 
d="M16 7l-4 -9q21 6 33 15t18 38q5 26 7 83q2 72 2 148v168q0 113 -1 149q-2 57 -7 83q-6 29 -18 38t-33 15v7h309q94 0 155 -13q64 -14 102 -37q39 -24 57 -57t18 -71q0 -53 -25 -88q-26 -36 -67 -60q-41 -23 -96 -34q-51 -10 -114 -10h-42q77 -10 126 -56q48 -45 71 -131
q11 -37 24 -69q14 -33 31 -54q18 -22 39 -36q20 -13 48 -13t43 9q14 8 27 23l5 -6q-14 -17 -39 -33t-70 -16q-35 0 -68 9q-34 9 -62 30t-51 59q-22 38 -36 96q-16 66 -30 106q-14 39 -31 58q-18 20 -43 24q-28 5 -66 5h-48v-87q0 -76 2 -148q1 -51 8 -82q6 -29 18 -38
t33 -15v-7h-225v7zM177 732l-1 -355h174q104 0 153 43t49 124q0 42 -10 75q-10 35 -36 60t-72 39q-48 14 -117 14h-140z" />
    <glyph glyph-name="S" unicode="S" horiz-adv-x="609" 
d="M311 -8l2 2q-56 0 -92 9q-32 8 -61 20q-10 4 -26 11t-20 9q-21 9 -46 9q-22 0 -30 -23h-11v175h11q4 -43 26 -82q21 -37 57 -64t84 -42t107 -15q50 0 86 12q37 12 59 33q23 21 33 51q11 31 11 65q0 38 -12 65t-39 48q-29 22 -70 38q-46 17 -106 36q-52 16 -97 36
q-41 18 -73 44q-29 23 -46 57q-16 32 -16 78q0 42 18 78t50 62q33 26 75 41q43 15 96 15q51 0 82 -7q37 -8 56 -16q32 -13 39 -16q15 -7 35 -7q26 0 32 24h10v-139h-10q-16 71 -81 112q-64 40 -162 40q-86 0 -129 -36q-44 -36 -44 -97q0 -28 9 -51q9 -22 32 -42
q22 -19 62 -36q39 -17 96 -33q63 -19 105 -34q51 -19 87 -43q39 -26 59 -61q21 -36 21 -88q0 -51 -20 -96q-19 -43 -56 -75q-35 -31 -85 -49q-49 -18 -108 -18z" />
    <glyph glyph-name="T" unicode="T" horiz-adv-x="712" 
d="M244 7l-1 -1q22 6 33 16q12 10 18 39q5 26 7 82q2 72 2 148v450h-81q-49 0 -78 -4q-34 -5 -57 -19q-24 -15 -39 -44q-14 -27 -25 -78h-12l17 133q1 15 5 19q3 3 11 3h619q8 0 11 -3q4 -4 5 -19l19 -133h-11q-11 49 -27 77q-17 29 -39 44q-24 16 -55 20q-37 5 -76 5h-82
v-450q0 -76 2 -148q2 -56 7 -82q6 -28 18 -39q11 -10 33 -16v-7h-224v7z" />
    <glyph glyph-name="U" unicode="U" horiz-adv-x="763" 
d="M411 -9l-2 -5q-161 0 -250 73q-90 73 -90 225v171q0 113 -1 149q-2 57 -7 83q-6 29 -18 38t-33 15v7h222v-7q-21 -6 -33 -15t-18 -37q-5 -26 -7 -82q-1 -36 -1 -148v-194q0 -62 9 -111t35 -84q25 -34 71 -52q45 -18 118 -18q60 0 110 15t86 48q37 34 56 87q20 55 20 134
v183q0 106 -1 140q-1 48 -8 78q-6 28 -19 38q-14 10 -36 18v7h135v-7q-21 -8 -33 -18t-18 -38q-5 -24 -7 -78q-1 -34 -1 -140v-183q0 -83 -21 -138q-21 -56 -58 -90t-88 -49t-112 -15z" />
    <glyph glyph-name="V" unicode="V" horiz-adv-x="754" 
d="M97 613l-2 -3q-21 49 -23 54q-8 21 -18 37t-19 24q-11 9 -25 15v7h189v-7q-22 -4 -25 -23q-3 -18 15 -60l236 -542l218 507q9 19 16 42q6 21 5 34q-2 16 -10 26q-10 11 -30 17v7h118v-7q-14 -5 -21 -10q-9 -6 -18 -18t-21 -33t-27 -57l-270 -628h-18z" />
    <glyph glyph-name="W" unicode="W" horiz-adv-x="1041" 
d="M92 623l-7 -6q-4 11 -10.5 27.5t-7.5 19.5q-7 20 -15 33t-18 24q-10 10 -27 16v7h186v-7q-22 -6 -25 -24q-3 -17 14 -61l220 -541l112 276l-95 230q-14 37 -19 47q-12 26 -16 34q-8 15 -18 24t-24 15v7h185v-7q-23 -6 -26 -24t15 -62l65 -161l54 128q19 44 21 75
q2 32 -34 45v7h109v-7q-14 -6 -20 -10q-9 -6 -18 -18q-11 -14 -20 -33q-13 -27 -26 -57l-60 -140l149 -368l198 507q8 23 12 42t3 34q-2 16 -10 27t-29 19v7h117v-7q-10 -4 -21 -11q-9 -6 -18 -18q-8 -10 -19 -33q-10 -19 -24 -56l-245 -628h-17l-160 386l-157 -386h-17z
" />
    <glyph glyph-name="X" unicode="X" horiz-adv-x="754" 
d="M12 7l4 -2q14 6 30 17q15 10 27 22q19 19 30 31q17 18 39 45l195 236l-204 276q-24 33 -37 48q-18 22 -30 32q-17 15 -25 20q-13 8 -25 12v7h222v-7q-29 -5 -29 -28t38 -75l161 -217l174 210q40 48 39 75q-2 28 -37 35v7h131v-7q-19 -9 -29 -16q-15 -11 -26 -21
q-12 -10 -30 -32q-5 -6 -18.5 -22t-21.5 -26l-178 -212l213 -287l36 -48q9 -12 29 -34q12 -14 26 -24q12 -9 27 -15v-7h-228v7q31 10 33 35q2 24 -39 77l-170 230l-192 -233q-38 -47 -35 -73q3 -27 37 -36v-7h-137v7z" />
    <glyph glyph-name="Y" unicode="Y" horiz-adv-x="722" 
d="M251 7h-2q22 6 33 16q12 11 18 39q5 26 7 82q2 72 2 148v67l-185 270q-7 10 -18 26t-13 19q-12 17 -26 33q-12 14 -26 23q-15 10 -30 14v7h217v-7q-23 -5 -29 -23t21 -58l190 -277l167 240q18 26 30 45t15 33t-4 24q-8 10 -27 18v7h119v-7q-12 -5 -23 -12q-12 -8 -27 -21
q-17 -15 -33 -34q-16 -18 -40 -54l-173 -249v-84q0 -76 2 -148q1 -51 8 -82q6 -28 18 -39q11 -10 33 -16v-7h-224v7z" />
    <glyph glyph-name="Z" unicode="Z" horiz-adv-x="700" 
d="M525 741h-270q-47 0 -84 -8q-35 -7 -57 -24q-22 -16 -37 -40q-14 -22 -25 -57h-9l25 139h584l-509 -741h312q55 0 93 8q36 7 59 26q23 18 36 48q15 33 26 75h9l-19 -167h-636z" />
    <glyph glyph-name="bracketleft" unicode="[" horiz-adv-x="298" 
d="M279 793v-9h-126v-881h126v-9h-201v899h201z" />
    <glyph glyph-name="backslash" unicode="\" horiz-adv-x="497" 
d="M526 -161l-13 -7l-487 963l13 8z" />
    <glyph glyph-name="bracketright" unicode="]" horiz-adv-x="297" 
d="M220 -106h-201v9h125v881h-125v9h201v-899z" />
    <glyph glyph-name="asciicircum" unicode="^" horiz-adv-x="419" 
d="M206 756h7l172 -267l-8 -5l-167 260l-168 -260l-8 5z" />
    <glyph glyph-name="underscore" unicode="_" horiz-adv-x="396" 
d="M-5 -76h406v-12h-406v12z" />
    <glyph glyph-name="grave" unicode="`" horiz-adv-x="446" 
d="M156 629q-14 9 -23 20t-9 26t9 25t26 10q15 0 26 -9q12 -10 23 -27l99 -139l-5 -6z" />
    <glyph glyph-name="a" unicode="a" horiz-adv-x="465" 
d="M152 -6l-2 -3q-58 0 -94 27t-36 76q0 28 11 47t30 32q21 15 48 26q11 4 33.5 13.5t31.5 13.5l57 24q47 20 60 39q14 20 14 36v58q0 24 -9 39q-9 16 -22 24q-14 9 -30 12t-31 3q-19 0 -33 -3q-13 -3 -22 -9q-10 -7 -15 -13t-10 -18q-12 -18 -22 -30q-12 -13 -31 -13
q-18 0 -27 10q-9 11 -9 24q0 15 14 27q14 13 36 20q22 8 54 12q28 4 66 4q34 0 63 -4q31 -4 60 -17q27 -12 45 -36t18 -61v-219q0 -33 2 -65q1 -23 6 -37q4 -13 12 -18q7 -4 20 -4q10 0 17 3q10 4 15 7l3 -6q-5 -4 -23 -12t-47 -8q-49 0 -72 20q-22 19 -25 54l-19 -17
q-25 -26 -57 -42q-31 -16 -80 -16zM115 106l-2 -1q0 -95 72 -95q30 0 53 13q27 15 47 34l20 19v217q-5 -11 -21 -24q-17 -14 -52 -30l-38 -16q-46 -19 -63 -47q-16 -26 -16 -70z" />
    <glyph glyph-name="b" unicode="b" horiz-adv-x="578" 
d="M290 -10l-3 -6q-36 0 -68 8q-34 9 -54 16q-36 14 -42 16q-19 8 -31 8q-14 0 -18 -7q-5 -8 -6 -13h-8v539v78q0 27 -5 42q-5 14 -13 17q-11 4 -26 5v9l139 71v-411l22 24q31 34 72 60t93 26q40 0 78 -15t66 -45q30 -31 47 -73q18 -43 18 -99q0 -62 -22 -107
q-23 -47 -58 -78q-36 -31 -83 -48q-48 -17 -98 -17zM183 16l-2 -1q14 -8 40 -16q24 -7 64 -7q31 0 61 9q29 9 52 35t36 70q14 47 14 114q0 77 -12 122t-30 69q-18 25 -42 32q-26 8 -48 8q-41 0 -76 -23q-34 -22 -66 -57l-22 -24v-261q0 -26 6 -43t25 -27z" />
    <glyph glyph-name="c" unicode="c" horiz-adv-x="472" 
d="M278 -8l2 1q-51 0 -96 18q-47 19 -80 49q-34 32 -54 75q-20 45 -20 96q0 57 24 102t62 77t84 48q48 17 90 17q30 0 63 -5q29 -4 53 -14q22 -9 36 -23t14 -30q0 -15 -9 -27t-29 -12q-14 0 -24 5q-8 4 -13 14q-5 9 -9 21q-1 2 -4.5 11.5t-5.5 15.5q-8 20 -22 27
q-16 8 -48 8q-29 0 -58 -10q-30 -10 -54 -36t-39 -67q-15 -42 -15 -107q0 -64 12 -109t35 -74q22 -28 56 -42q32 -13 73 -13q51 0 87 18q38 19 62 49l6 -7q-28 -34 -73 -55t-106 -21z" />
    <glyph glyph-name="d" unicode="d" horiz-adv-x="589" 
d="M251 -7l-2 -4q-39 0 -78 15q-37 14 -70 44q-31 28 -51 72q-19 42 -19 100t21 105t55 78q35 32 81 50t99 18q40 0 75 -13q37 -14 66 -37v132q0 59 -1 78q-1 29 -6 42q-5 14 -14 17q-11 4 -27 5v8l142 71v-599q0 -63 1 -84q1 -31 6 -48t15 -24t30 -12v-7h-148v89l-19 -20
q-29 -31 -66 -54q-37 -22 -90 -22zM130 235v-1q0 -75 13 -118q13 -45 33 -69q19 -24 44 -33q24 -9 48 -9q40 0 74 20t62 51l19 20v312q-31 26 -66 39q-36 14 -73 14q-32 0 -60 -12t-49 -39t-33 -70q-12 -44 -12 -105z" />
    <glyph glyph-name="e" unicode="e" horiz-adv-x="488" 
d="M283 -9v-1q-47 0 -93 15t-82 45q-37 31 -59 76t-22 109q0 60 24 105t60 75t78 45t78 15q41 0 77 -11q34 -10 60 -30q25 -19 42 -47q16 -27 21 -59h-332q-9 -40 -9 -93q0 -115 51 -171q51 -55 134 -55q45 0 81 14q34 13 60 38l6 -7q-30 -27 -72 -45t-103 -18zM265 466
l-1 -1q-40 0 -76 -30t-52 -100h243q-11 131 -114 131z" />
    <glyph glyph-name="f" unicode="f" horiz-adv-x="271" 
d="M26 7h-5q17 5 26 12q10 8 14 24q5 17 6 48q1 21 1 84v279h-49v8q14 3 27 8q9 4 16 14q5 8 7 26q2 22 2 42v27q0 48 14 84q13 34 35 56q21 21 48 30t53 9q39 0 69 -14q29 -14 29 -42q0 -11 -7 -21q-8 -11 -27 -11q-21 0 -29 9t-12 27q-5 29 -10 36q-6 8 -21 8
q-13 0 -22 -6t-15 -20q-6 -13 -9 -38q-3 -24 -3 -60v-162h100v-10h-100v-279q0 -42 2 -84q1 -30 8 -48q6 -16 20 -24q13 -7 38 -12v-7h-206v7z" />
    <glyph glyph-name="g" unicode="g" horiz-adv-x="476" 
d="M230 162l-4 -5q-26 0 -51 6q-23 5 -48 17l-12 -8q-19 -14 -26 -22q-9 -10 -9 -22t12 -19q11 -7 40 -10l184 -20q74 -7 109 -30q34 -22 34 -72q0 -33 -16 -59t-47 -48q-30 -21 -74 -33q-43 -12 -97 -12q-37 0 -75 6t-68 18q-31 12 -48 31q-18 20 -18 45q0 19 9 32t24 24
q14 10 35 18q26 10 39 14q-35 7 -54 27q-19 19 -19 47q0 32 19 51q19 20 42 36l13 9q-35 20 -59 51q-24 32 -24 77q0 38 18 68t45 51q28 22 62 32q36 11 68 11q55 0 105 -26q25 23 54 33q30 11 48 11q19 0 27 -9q8 -10 8 -23t-9 -21q-10 -8 -19 -8q-11 0 -19 4l-18 9l-18 9
q-8 4 -20 4q-16 0 -32 -11q35 -19 60 -53q24 -33 24 -78q0 -38 -18 -66q-18 -29 -46 -48q-30 -20 -63 -29q-34 -9 -68 -9zM226 166l-2 -2q20 0 41 8q20 8 35 24t24 44q9 27 9 68q0 40 -9 69t-24 47t-34 27q-20 9 -42 9q-43 0 -73 -35t-30 -116q0 -41 9 -68t23 -44
q13 -17 33 -24q18 -7 40 -7zM69 -75h2q0 -48 41 -72q40 -24 108 -24q52 0 89 9q38 9 62 24t36 33t12 34q0 17 -9 27q-10 11 -25 17q-17 6 -39 9q-30 4 -46 6l-160 18h-6h-5q-30 -10 -45 -30t-15 -51z" />
    <glyph glyph-name="h" unicode="h" 
d="M20 7l-3 -2q17 5 26 12q10 8 14 24q5 17 6 48q1 21 1 84v379v79q0 27 -5 42q-5 14 -13 17q-11 4 -25 5v8l139 69v-420l38 35q17 16 37 31q21 16 40 27t42 19q20 7 45 7q28 0 52 -6q25 -6 42 -22t28 -42q10 -24 10 -63v-164v-84q0 -30 5 -48q4 -16 14 -24q9 -7 26 -12v-7
h-192v7q19 5 29 12q10 8 15 24t6 48q1 21 1 84v191q0 48 -19 67t-49 19q-29 0 -60 -19q-33 -21 -72 -55l-38 -35v-167q0 -63 1 -84q1 -31 6 -48t15 -24t29 -12v-7h-191v7z" />
    <glyph glyph-name="i" unicode="i" horiz-adv-x="233" 
d="M113 547q-23 0 -38 15t-15 38t15 38t38 15t38 -15t15 -38t-15 -38t-38 -15zM19 7l-2 -1q18 4 27 12q10 8 14 24t6 48q1 21 1 84v76v81q0 27 -5 42q-5 14 -13 17q-11 4 -27 5v8l141 73v-301q0 -63 1 -84q2 -31 6 -48t15 -24t30 -12v-7h-194v7z" />
    <glyph glyph-name="j" unicode="j" horiz-adv-x="229" 
d="M113 547q-23 0 -39 15t-16 38t16 38t39 15t38 -15t15 -38t-15 -38t-38 -15zM-29 -139h-4q-16 0 -28 9t-12 27q0 17 9 24q10 8 23 8q12 0 21 -6q12 -8 17 -13t15 -13q7 -6 16 -6q7 0 12 5q5 3 9 10q4 6 7 21q4 17 5 36q2 30 2 59v231v81q0 30 -4 42q-5 14 -13 17
q-11 4 -26 5v8l140 73v-403q0 -60 -30 -105t-75 -78q-30 -21 -46 -26q-18 -6 -38 -6z" />
    <glyph glyph-name="k" unicode="k" horiz-adv-x="508" 
d="M20 7h-3q17 5 26 12q10 8 14 24q5 17 6 48q1 21 1 84v381v78q0 27 -5 42q-5 14 -13 17q-11 4 -25 5v8l139 69v-525l202 151q32 23 27 38t-30 18v7h126v-7q-24 -7 -51 -21q-26 -13 -64 -42l-139 -104l222 -241q22 -25 35 -33t23 -11v-7h-192v7q23 3 27 16t-21 42l-165 178
v-66q0 -63 1 -84q1 -31 6 -48t15 -24t29 -12v-7h-191v7z" />
    <glyph glyph-name="l" unicode="l" horiz-adv-x="235" 
d="M20 7l-2 -1q18 4 27 12q10 8 14 24q5 16 6 48q1 21 1 84v372v83q0 28 -5 45q-4 15 -14 18q-11 4 -27 5v8l142 69v-599q0 -63 1 -84q1 -31 6 -48t15 -24t30 -12v-7h-194v7z" />
    <glyph glyph-name="m" unicode="m" horiz-adv-x="841" 
d="M20 7l-4 -4q17 5 26 12q10 8 14 24q4 17 6 48q1 21 1 84v76v80q0 27 -5 42q-5 14 -14 17q-11 4 -26 5v8l141 73v-107l23 21q33 30 74 57q38 25 86 25q47 0 81 -22q35 -22 42 -81l24 22q39 34 76 57q39 24 85 24q28 0 50 -6q23 -6 39 -22q17 -17 26 -42q9 -26 9 -63v-164
v-84q0 -30 5 -48q4 -16 14 -24q9 -7 26 -12v-7h-190v7q19 5 29 12t15 24t6 48q1 21 1 84v191q0 48 -17 68t-45 20q-27 0 -58 -19q-30 -18 -70 -54l-23 -21v-183v-84q0 -30 5 -48q4 -16 14 -24q9 -7 26 -12v-7h-191v7q19 5 30 12t15 24t6 48q1 21 1 84v191q0 48 -18 68
t-45 20t-58 -19q-32 -19 -69 -54l-23 -21v-183q0 -63 1 -84q1 -31 6 -48t15 -24t29 -12v-7h-191v7z" />
    <glyph glyph-name="n" unicode="n" horiz-adv-x="557" 
d="M20 7l-3 -2q17 5 26 12q10 8 14 24q5 17 6 48q1 21 1 84v76v80q0 27 -5 42q-5 14 -14 17q-11 4 -26 5v8l141 73v-121l37 34q17 16 37 31q21 16 40 27t42 19q20 7 45 7q29 0 53 -6q25 -6 41 -22q17 -17 27 -42q10 -24 10 -63v-164v-84q0 -30 5 -48q4 -16 14 -24
q9 -7 26 -12v-7h-192v7q19 5 29 12q10 8 15 24t6 48q1 21 1 84v191q0 48 -19 67t-48 19t-60 -19q-33 -21 -72 -55l-37 -34v-168q0 -63 1 -84q1 -31 6 -48t15 -24t29 -12v-7h-191v7z" />
    <glyph glyph-name="o" unicode="o" 
d="M279 -11q-41 0 -84 15t-81 45q-38 31 -62 75q-24 45 -24 107q0 59 24 106q24 46 62 78q38 31 81 48q42 16 84 16t84 -16q43 -17 81 -48q38 -32 62 -78t24 -106q0 -62 -24 -107q-24 -44 -62 -75q-38 -30 -81 -45t-84 -15zM279 -2v-1q30 0 57 12t48 39t33 72t12 112
q0 65 -12 110q-12 46 -33 74t-48 42q-26 13 -57 13t-58 -13q-28 -13 -49 -42t-33 -73q-12 -45 -12 -110q0 -67 12 -112t33 -72t49 -39q29 -12 58 -12z" />
    <glyph glyph-name="p" unicode="p" horiz-adv-x="583" 
d="M18 -159l-3 -2q17 5 26 12q10 8 14 24q5 17 6 48q1 21 1 84v242v80q0 27 -5 42q-5 14 -14 17q-11 4 -26 5v8l141 73v-111l12 13q35 36 77 65q43 29 92 29q42 0 81 -15q41 -16 68 -43q29 -29 47 -72q18 -44 18 -102q0 -60 -20 -108q-19 -46 -54 -78q-34 -31 -79 -46
t-94 -15q-30 0 -69 11q-37 10 -78 42v-35q0 -63 1 -84q2 -31 6 -48t15 -24t30 -12v-7h-193v7zM156 354v-299q42 -35 78 -45q38 -11 68 -11q27 0 55 11q27 10 48 36q20 25 34 69q13 42 13 108q0 75 -12 120q-12 44 -30 70q-18 25 -42 33q-26 8 -49 8q-43 0 -78 -25
q-34 -24 -73 -63z" />
    <glyph glyph-name="q" unicode="q" horiz-adv-x="580" 
d="M370 -159v-1q20 4 30 12t15 24t6 48q1 21 1 84v76l-23 -24q-33 -31 -69 -50q-38 -20 -87 -20q-45 0 -83 16q-41 17 -68 46q-28 30 -45 72q-17 43 -17 93q0 59 20 108q19 47 56 81q36 33 83 51q46 18 101 18q38 0 70 -9t54 -18t39 -18t27 -9q11 0 19 11q7 10 10 27h8v-450
q0 -63 1 -84q2 -31 6 -48q5 -17 13 -24q9 -7 26 -12v-7h-193v7zM129 235l-2 -3q0 -70 12 -114q12 -45 31 -69q19 -25 44 -34q24 -9 50 -9q40 0 73 18q32 17 63 47l23 24v265q0 32 -7 49t-27 31q-17 10 -39 17q-26 8 -61 8q-31 0 -60 -12t-51 -39t-36 -71q-13 -42 -13 -108z
" />
    <glyph glyph-name="r" unicode="r" horiz-adv-x="371" 
d="M20 7l-3 -1q17 5 26 12q10 8 14 24q5 16 6 48q1 21 1 84v64v86q0 28 -5 45q-4 15 -14 18q-11 4 -26 5v8l141 73v-125l43 47q37 41 61 57q25 16 54 16q25 0 36 -11q10 -10 10 -27q0 -20 -10 -30t-27 -10q-13 0 -22 4q-11 5 -19 10q-6 4 -18 10q-8 4 -18 4q-12 0 -22 -7
q-9 -6 -25 -24l-43 -47v-165q0 -63 1 -84q1 -31 6 -48t15 -24t30 -12v-7h-192v7z" />
    <glyph glyph-name="s" unicode="s" horiz-adv-x="417" 
d="M202 0l-5 -8q32 0 58 8q24 8 39 21q14 12 22 32q7 17 7 38q0 24 -7 38q-8 15 -24 27t-42 21q-29 10 -63 17q-39 8 -68 18q-30 10 -51 27q-22 17 -32 39q-11 24 -11 54q0 31 14 57q13 25 36 43t54 27t68 9q31 0 48 -4q22 -5 35 -9l27 -9q11 -4 24 -4q15 0 18 16h9v-103h-9
q-19 55 -56 81t-95 26q-56 0 -88 -21q-31 -21 -31 -62q0 -40 34 -58q33 -17 99 -31q42 -9 75 -21t55 -28t34 -39q12 -22 12 -56t-15 -63q-15 -28 -40 -49t-60 -33t-73 -12q-32 0 -54 6q-25 7 -39 13q-6 3 -16 7t-14 6q-13 6 -25 6q-17 0 -20 -17h-10v129h9q16 -67 58 -103
t113 -36z" />
    <glyph glyph-name="t" unicode="t" horiz-adv-x="287" 
d="M178 -7l-2 -1q-56 0 -85 29q-28 28 -28 75v359h-42v8q18 3 39 14q20 11 38 30q17 18 31 48q13 27 19 66h9v-154h109v-10h-109v-336q0 -56 9 -83t44 -27q20 0 36 9q15 8 25 20l6 -5q-11 -12 -33 -27t-66 -15z" />
    <glyph glyph-name="u" unicode="u" horiz-adv-x="544" 
d="M195 -8l1 -3q-28 0 -52 6t-42 21q-17 14 -28 41q-10 24 -10 63v122v84q0 28 -5 45q-4 15 -14 18q-11 4 -26 5v8l141 73v-388q0 -47 19 -63t48 -16q25 0 59 17q31 15 79 59l20 18v140v84q0 28 -5 45q-4 15 -14 18q-11 4 -26 5v8l141 73v-301q0 -63 1 -84q2 -32 6 -48
t15 -24t30 -12v-7h-149v93l-20 -18q-43 -38 -82 -60q-40 -22 -87 -22z" />
    <glyph glyph-name="v" unicode="v" horiz-adv-x="486" 
d="M73 355v2q-13 31 -24 51t-18 30t-15 15q-9 5 -18 8v7h173v-7q-11 -1 -19 -6t-9 -15q-2 -12 4 -30q4 -14 20 -49l118 -264l108 240q19 43 23 64q4 24 0 36q-5 13 -15 17t-26 6v7h114v-7q-12 -3 -18 -7q-8 -5 -17 -18q-10 -15 -21 -37q-14 -28 -30 -64l-152 -339h-17z" />
    <glyph glyph-name="w" unicode="w" horiz-adv-x="719" 
d="M71 355l-5 -1q-20 47 -22 51q-9 19 -18 30q-10 11 -16 15q-10 6 -16 8v7h171v-7q-11 -1 -19 -6q-8 -4 -9 -15q-1 -9 5 -30q7 -24 19 -51l106 -262l87 186l-30 73q-20 47 -22 51q-8 18 -17 30q-7 10 -15 15q-9 5 -17 8v7h169v-7q-12 -1 -18 -6q-5 -4 -7 -15q-1 -9 5 -30
q5 -17 18 -49l104 -259l99 237q15 36 22 63q6 25 2 36q-5 13 -15 17q-12 5 -26 8v7h115v-7q-12 -3 -19 -7q-10 -5 -18 -16q-9 -12 -21 -36q-10 -21 -28 -64l-144 -341h-17l-111 274l-129 -274h-17z" />
    <glyph glyph-name="x" unicode="x" horiz-adv-x="499" 
d="M9 7l-2 -5q19 6 31 13q15 8 26 18q14 12 26 27q4 5 16 19t19 23l87 110l-100 143q-21 30 -36 48q-20 24 -25 29q-11 11 -19 15q-6 3 -18 7v7h183v-7q-12 -2 -18 -6t-6 -15q0 -9 8 -25q6 -13 24 -40l71 -102l69 89q21 27 33 47q11 19 11 29q0 11 -7 17q-8 7 -21 8v7h110
v-7q-17 -5 -27 -10q-13 -7 -24 -16q-14 -12 -27 -28t-37 -46l-76 -95l109 -157q19 -28 35 -47q15 -18 26 -29q10 -10 20 -15q12 -6 18 -8v-7h-184v7q11 1 19 6q7 4 7 15q0 12 -7 27q-7 17 -24 42l-81 115l-81 -103q-38 -49 -40 -72q-1 -22 26 -28v-7h-114v7z" />
    <glyph glyph-name="y" unicode="y" horiz-adv-x="487" 
d="M118 -171l-2 -7q-23 0 -34 10q-12 10 -12 25q0 17 9 26t26 9q11 0 18 -3l15 -6q5 -2 13 -6q6 -3 13 -3q13 0 28 18q16 19 38 71l11 24l-170 367q-15 32 -24 51t-18 30q-10 11 -16 15q-9 5 -18 8v7h176v-7q-11 -2 -18 -6t-9 -15t3 -29t18 -48l121 -266l108 242
q19 41 23 63q5 24 0 36q-5 13 -16 17q-12 4 -27 6v7h117v-7q-11 -2 -18 -6q-8 -5 -17 -18q-9 -14 -21 -36t-30 -63l-164 -370q-15 -34 -32 -63q-14 -23 -29 -42q-13 -16 -29 -24q-14 -7 -33 -7z" />
    <glyph glyph-name="z" unicode="z" horiz-adv-x="450" 
d="M416 -10l-2 -1q-10 4 -16 5q-9 2 -24 3q-20 2 -36 2h-54h-278l312 458h-141q-40 0 -64 -7q-25 -7 -40 -21q-15 -13 -25 -31q-10 -16 -19 -40h-7l21 117q18 -7 45 -8q38 -2 84 -2h256l-315 -458h156q41 0 68 8q26 8 42 22q17 15 27 37t21 51h7z" />
    <glyph glyph-name="braceleft" unicode="{" horiz-adv-x="315" 
d="M297 -106l-1 -5q-47 0 -90 8q-39 7 -69 23q-29 15 -44 38q-15 22 -15 54q0 29 11 62q11 32 24 63q14 34 24 61q11 31 11 56q0 14 -3 29q-3 16 -16 27q-15 13 -40 20q-29 8 -75 8v8q46 0 75 8q25 7 40 20q13 11 16 27q3 15 3 29q0 25 -11 56q-11 30 -24 60q-13 29 -24 62
t-11 62q0 62 60 93q59 31 159 31v-9q-72 -2 -106 -25q-34 -24 -34 -86q0 -27 7 -54q10 -38 16 -57t16 -57q7 -27 7 -54q0 -43 -31 -71q-32 -29 -100 -36q69 -8 100 -37q31 -30 31 -72q0 -27 -7 -54q-10 -38 -16 -57t-16 -57q-7 -27 -7 -54q0 -63 34 -87q35 -24 106 -24v-9z
" />
    <glyph glyph-name="bar" unicode="|" horiz-adv-x="257" 
d="M136 820v-926h-15v926h15z" />
    <glyph glyph-name="braceright" unicode="}" horiz-adv-x="315" 
d="M18 -97l-2 -2q71 0 106 24q34 24 34 87q0 27 -7 54q-10 38 -16 57t-16 57q-7 27 -7 54q0 42 32 72q31 29 101 37q-68 7 -100 36q-31 28 -31 71q0 27 7 54q10 38 16 57t16 57q7 27 7 54q0 62 -34 86q-35 25 -106 26v9q52 0 90 -7q39 -7 69 -23q29 -15 44 -38t15 -54
q0 -29 -11 -62q-9 -27 -23 -62q-16 -40 -23 -60q-11 -31 -11 -55q0 -14 3 -29q3 -16 16 -27q15 -13 40 -20q29 -8 75 -8v-8q-46 0 -75 -8q-25 -7 -40 -20q-13 -11 -16 -27q-3 -15 -3 -28q0 -24 11 -55q3 -8 23 -61q16 -42 23 -63q11 -33 11 -62q0 -32 -15 -54
q-15 -23 -44 -38q-30 -16 -69 -23q-38 -7 -90 -7v9z" />
    <glyph glyph-name="asciitilde" unicode="~" horiz-adv-x="382" 
d="M119 411l-6 -1q17 0 39 -3l45 -6q15 -2 43 -6q21 -3 35 -3q11 0 26 9q14 8 31 38l6 -3q-13 -48 -32 -75q-18 -25 -38 -25q-16 0 -39 3l-45 6q-15 2 -43 6q-21 3 -35 3q-9 0 -25 -8q-14 -7 -34 -39l-7 3q16 48 38 75q21 26 41 26z" />
    <glyph glyph-name="uni00A0" unicode="&#xa0;" horiz-adv-x="214" 
 />
    <glyph glyph-name="exclamdown" unicode="&#xa1;" horiz-adv-x="242" 
d="M112 257h4h10q6 -115 16 -189q14 -105 19 -140q3 -21 8 -53.5t7 -43.5q6 -39 6 -60q0 -32 -17 -51q-17 -18 -45 -18t-45 18q-17 19 -17 51q0 21 6 60q2 11 7 43.5t8 53.5q9 57 18 140q9 81 15 189zM117 472h1q26 0 42 -16t16 -42q0 -25 -17 -42q-16 -16 -42 -16
q-25 0 -41 16q-17 17 -17 42t17 42q16 16 41 16z" />
    <glyph glyph-name="cent" unicode="&#xa2;" horiz-adv-x="472" 
d="M277 571l2 -100h3q31 0 66 -5q29 -4 55 -14q22 -8 37 -23q14 -14 14 -30t-10 -27q-10 -12 -30 -12q-14 0 -24 5q-8 4 -13 14q-5 9 -9 21q-3 8 -9 26q-7 22 -23 30t-53 8h-3v-458q3 -1 8 -1h9q55 0 90 19q37 20 62 51l7 -7q-29 -36 -73 -56q-45 -21 -105 -21v-94h-12v94
q-48 1 -93 20q-42 17 -76 50q-32 31 -52 75q-19 42 -19 94q0 55 22 98q22 44 57 75q35 32 77 50t83 21v97h12zM125 242l-1 -1q0 -115 39 -171t104 -65v456q-24 -1 -51 -14q-25 -12 -46 -37q-21 -26 -33 -66t-12 -102z" />
    <glyph glyph-name="sterling" unicode="&#xa3;" horiz-adv-x="585" 
d="M91 55l-5 -3q34 32 54 63q19 31 19 69q0 25 -4 45q-5 23 -12 45h-106v10h103q-10 26 -16 39t-16 39h-70v11h65q-14 36 -27 77q-12 39 -12 86q0 50 21 89t59 68q39 29 87 44q49 15 103 15q51 0 93 -11q40 -10 67 -27q28 -17 41 -36q14 -20 14 -36q0 -20 -12 -33t-33 -13
q-25 0 -38 12q-14 12 -18 33q-1 3 -3 13t-4 17q-4 17 -15 34t-32 29t-59 12q-45 0 -76 -16t-51 -45q-19 -27 -28 -66q-9 -37 -9 -80q0 -45 9 -85q7 -32 20 -78h217v-11h-214q8 -26 11 -39l9 -39h194v-10h-193q3 -18 3 -37q0 -28 -9 -51q-9 -22 -23 -41q-13 -18 -30 -33
t-30 -27h187q56 0 114 2q46 2 69 7q24 6 37 17t20 30h9l-28 -107q-6 -21 -11 -30q-4 -7 -21 -7h-477z" />
    <glyph glyph-name="yen" unicode="&#xa5;" horiz-adv-x="638" 
d="M216 7l-2 -6q19 6 31 15t18 31t9 65q3 42 3 115h-190v11h190v78h-190v10h190v38l-158 258q-11 18 -32 51q-11 17 -26 34q-12 13 -24 21q-13 8 -25 12v7h201v-7q-11 -2 -18 -6q-8 -5 -9 -13q-2 -9 3 -23q5 -15 18 -35l169 -275l128 226q35 60 41 87q6 29 -29 41v7h114v-7
q-16 -6 -23 -10q-9 -5 -24 -20t-30 -37q-19 -27 -39 -61l-133 -234v-49h191v-10h-191v-78h191v-11h-191q0 -73 3 -115q3 -41 9 -64q6 -22 18 -31t31 -15v-7h-224v7z" />
    <glyph glyph-name="brokenbar" unicode="&#xa6;" horiz-adv-x="257" 
d="M136 820v-380h-15v380h15zM136 -106h-15v380h15v-380z" />
    <glyph glyph-name="section" unicode="&#xa7;" horiz-adv-x="571" 
d="M264 -146l-6 -5q40 0 66 10q28 11 45 28q18 18 27 41q9 22 9 48q0 25 -11 49q-10 21 -35 46q-23 23 -62 51q-31 22 -92 63q-45 31 -78 57q-32 24 -54 50q-22 25 -32 50q-11 27 -11 57q0 53 27 89q26 35 65 55q-13 27 -13 66q0 38 15 68q15 29 41 51q24 20 62 31t77 11
q44 0 78 -9t57 -24q22 -15 34 -31t12 -32q0 -14 -9 -23t-25 -9q-20 0 -29 10q-8 9 -16 30q-6 18 -9 28q-5 15 -15 27q-11 13 -28 20q-19 8 -49 8q-63 0 -100 -27t-37 -75q0 -24 8 -45q8 -20 27 -39q21 -21 52 -42q40 -27 82 -54q55 -37 96 -66q42 -29 66 -55q25 -26 37 -54
q12 -27 12 -61q0 -47 -24 -84q-25 -39 -64 -68q11 -27 11 -58q0 -41 -15 -75t-42 -60q-26 -25 -66 -40q-39 -15 -84 -15q-46 0 -84 12t-65 30q-26 18 -42 41q-15 22 -15 45q0 13 9 24t26 11q21 0 30 -12q8 -11 13 -28q7 -28 12 -47q6 -20 20 -36q14 -15 36 -24t60 -9z
M266 263l-4 -2q83 -58 122 -91q44 -38 62 -72q36 36 36 82q0 29 -12 53q-11 22 -38 49q-26 26 -66 54t-96 66t-91 67q-36 30 -54 65q-20 -12 -33 -31t-13 -49q0 -25 10 -44q11 -21 33 -41t58 -46q5 -4 86 -60z" />
    <glyph glyph-name="dieresis" unicode="&#xa8;" horiz-adv-x="446" 
d="M311 548h-1q-22 0 -37 15t-15 38q0 21 15 36t38 15q21 0 36 -15t15 -36q0 -23 -15 -38t-36 -15zM135 548q-22 0 -37 15t-15 38q0 21 15 36t37 15t37 -15t15 -36q0 -23 -15 -38t-37 -15z" />
    <glyph glyph-name="copyright" unicode="&#xa9;" horiz-adv-x="836" 
d="M419 759v-1q79 0 150 -30t123 -82q53 -53 83 -123q30 -71 30 -150t-30 -150q-30 -70 -83 -123t-123 -83q-71 -30 -150 -30t-150 30q-70 30 -123 83t-83 123q-30 71 -30 150t30 150q30 70 83 123t123 83q71 30 150 30zM419 -3l-1 -2q76 0 145 30t120 81t81 120t30 147
t-30 147t-81 120t-120 81t-145 30q-75 0 -145 -29q-68 -28 -120 -80q-51 -51 -81 -120t-30 -148t30 -148t81 -120q52 -52 120 -80q70 -29 146 -29zM431 147l-5 2q-46 0 -88 17q-40 17 -70 46q-29 29 -46 72q-16 41 -16 92q0 56 20 99q20 42 51 69q32 28 72 41q42 14 81 14
q29 0 45 -4t31 -9q14 -4 24 -9q9 -4 21 -4q13 0 18 17h7v-106h-7q-17 56 -52 81t-85 25q-30 0 -56 -12t-45 -37q-20 -26 -30 -64q-11 -41 -11 -93q0 -61 12 -103t33 -69t49 -39t60 -12q51 0 85 20t50 42l5 -5q-8 -12 -21 -23q-16 -14 -31 -23q-17 -10 -44 -18q-24 -7 -57 -7
z" />
    <glyph glyph-name="ordfeminine" unicode="&#xaa;" horiz-adv-x="363" 
d="M119 391l-10 -1q-43 0 -71 20q-27 20 -27 57q0 25 10 39q11 16 28 26q20 12 42 20q9 3 27 10.5t24 9.5l33 14q34 15 45 29t11 32v44q0 17 -6 27q-6 11 -15 17t-21 9t-24 3q-30 0 -41 -8t-20 -24q-8 -13 -15 -24q-7 -10 -24 -10q-28 0 -28 25q0 24 38 36q37 12 92 12
q25 0 50 -3q27 -3 47 -13q22 -11 35 -28q14 -19 14 -46v-177q0 -21 2 -43q1 -14 5 -25q3 -9 9 -12t15 -3q14 0 25 7l3 -6q-4 -3 -18 -9t-39 -6q-38 0 -56 15t-21 41l-13 -11q-17 -16 -44 -31q-23 -13 -62 -13zM87 479l1 -1q0 -73 52 -73q20 0 40 11q20 10 36 27l13 12v162
q-5 -8 -17 -17q-14 -11 -37 -20l-27 -12q-34 -15 -48 -35q-13 -19 -13 -54z" />
    <glyph glyph-name="guillemotleft" unicode="&#xab;" horiz-adv-x="391" 
d="M186 226v8l153 161l6 -4l-84 -161l85 -161l-6 -4zM52 226v8l152 161l6 -4l-83 -161l84 -161l-6 -4z" />
    <glyph glyph-name="registered" unicode="&#xae;" horiz-adv-x="510" 
d="M256 758q46 0 87 -18t71 -48t48 -71t18 -87t-18 -87t-48 -71t-71 -48t-87 -18t-87 18t-71 48t-48 71t-18 87t18 87t48 71t71 48t87 18zM256 319l-1 -3q43 0 83 17q41 17 68 46q28 30 45 69q17 40 17 84t-17 84t-45 68t-68 45t-83 17q-45 0 -83 -16q-39 -16 -69 -45
q-29 -27 -46 -68q-17 -40 -17 -84q0 -45 17 -85q17 -39 47 -68q30 -28 69 -45q38 -16 83 -16zM160 429l-2 -6q9 2 11 4q3 3 5 11q2 10 2 22v41v71v40q0 13 -2 23q-2 8 -6 11q-6 4 -10 5v4h97q51 0 74 -15t23 -40q0 -33 -26 -48t-60 -15h-4q22 -3 35 -15q14 -13 20 -39
q7 -25 15 -39q7 -13 21 -13q10 0 18 8l2 -3q-5 -4 -12 -9q-7 -4 -21 -4q-22 0 -39 11q-17 10 -24 45q-1 7 -8 33q-3 13 -7 18q-4 6 -10 7q-8 2 -16 2h-19v-34v-40q0 -12 2 -22q1 -7 6 -10q4 -2 10 -4v-3h-75v3zM215 647l-1 -109h49q27 0 39 14t12 39q0 26 -12 41t-48 15h-39
z" />
    <glyph glyph-name="macron" unicode="&#xaf;" horiz-adv-x="446" 
d="M335 613v-41h-219v41h219z" />
    <glyph glyph-name="degree" unicode="&#xb0;" horiz-adv-x="272" 
d="M135 758v-1q42 0 70 -28t28 -70q0 -44 -28 -72q-29 -29 -70 -29q-42 0 -69 30t-27 72q0 40 27 69t69 29zM51 658v-2q0 -18 6 -34q6 -17 18 -29q13 -13 27 -20t33 -7q37 0 61 27t24 64t-24 63t-61 26q-19 0 -33 -7q-16 -8 -27 -19q-12 -12 -18 -28t-6 -34z" />
    <glyph glyph-name="twosuperior" unicode="&#xb2;" horiz-adv-x="358" 
d="M193 519v4q45 0 59 1q18 1 33 5q13 3 17 9q4 5 9 17h7l-17 -68q-3 -9 -5 -14q-2 -3 -9 -3h-257l116 111q48 48 70 87q21 38 21 81q0 40 -16 63q-17 24 -57 24q-19 0 -31 -6t-18 -15q-7 -10 -8 -18q-1 -6 -3 -16q-2 -13 -9 -21q-7 -7 -22 -7q-28 0 -28 27q0 11 7 21
q8 12 22 20q15 9 37 15q23 6 53 6q23 0 51 -5q27 -5 45 -16q20 -13 32 -30q12 -18 12 -44q0 -25 -10 -46q-11 -23 -28 -43q-19 -22 -43 -42q-25 -21 -54 -42l-73 -55h97z" />
    <glyph glyph-name="threesuperior" unicode="&#xb3;" horiz-adv-x="371" 
d="M79 822l-2 -3q1 9 3 12t6 3h243v-5l-168 -143q7 4 21 7q12 3 26 3q62 0 99 -27q38 -27 38 -83q0 -22 -11 -46q-10 -21 -32 -40q-20 -17 -52 -28q-30 -10 -70 -10q-28 0 -51 6t-39 15t-25 21t-9 23t7 18q8 8 21 8t19 -7q7 -8 8 -18q3 -13 4 -18q3 -12 10 -21q7 -10 21 -16
t36 -6q27 0 46 10t31 27t18 37q6 21 6 44q0 46 -16 75q-16 30 -58 30q-25 0 -43 -9t-34 -22l-5 5l138 118h-91q-41 0 -54 -1q-22 -2 -30 -4q-10 -3 -15 -9t-9 -15h-6z" />
    <glyph glyph-name="acute" unicode="&#xb4;" horiz-adv-x="446" 
d="M140 535l98 139q11 17 23 27q10 9 26 9q17 0 26 -10t9 -25t-9 -26t-23 -20l-146 -100z" />
    <glyph glyph-name="paragraph" unicode="&#xb6;" horiz-adv-x="544" 
d="M258 353l-3 -6q-52 0 -94 13q-43 14 -75 39q-31 25 -49 63t-18 87t18 87q19 39 49 62q32 24 75 36t96 12h269v-7q-21 -6 -33 -15t-18 -38q-5 -26 -7 -83q-1 -36 -1 -150v-228q0 -95 -19 -155q-20 -62 -52 -99t-78 -52q-45 -15 -94 -15q-42 0 -67 14q-24 14 -24 38
q0 15 10 24q11 9 27 9q21 0 32 -10q8 -7 24 -23t25 -23q13 -10 33 -10q16 0 37 9t39 38q18 28 30 78q12 49 12 131v561h-90v-387h-54z" />
    <glyph glyph-name="periodcentered" unicode="&#xb7;" horiz-adv-x="202" 
d="M102 230l-2 -1q-26 0 -42 16t-16 42q0 25 17 42t42 17q26 0 42 -16q17 -17 17 -42q0 -26 -16 -42t-42 -16z" />
    <glyph glyph-name="cedilla" unicode="&#xb8;" horiz-adv-x="446" 
d="M251 0l-35 -55q43 -5 72 -25q30 -21 30 -51q0 -41 -42 -61t-123 -21l-1 8q51 4 79 20q27 15 27 34q0 20 -22 32q-24 13 -58 14l-2 4l64 101h11z" />
    <glyph glyph-name="onesuperior" unicode="&#xb9;" horiz-adv-x="261" 
d="M65 465l2 4q13 1 21 6t12 16q4 12 6 35q2 30 2 63v106q0 30 -1 40q-1 14 -6 22t-13 9q-12 2 -24 2v6l107 69v-253q0 -48 1 -63q1 -22 6 -34q4 -11 12 -16t21 -6v-6h-146z" />
    <glyph glyph-name="ordmasculine" unicode="&#xba;" horiz-adv-x="414" 
d="M206 387h-1q-27 0 -62 11q-34 11 -62 33q-29 23 -48 57t-19 81t19 81q20 35 48 59t62 36q33 12 62 12q30 0 65 -12q34 -12 63 -36q28 -24 48 -59q19 -34 19 -81t-19 -81t-48 -57t-63 -33q-36 -11 -64 -11zM205 394l-1 -1q22 0 43 9q20 8 37 29q17 20 26 53t9 84
q0 50 -9 84q-9 36 -25 56q-17 21 -37 30q-21 9 -43 9q-21 0 -42 -9t-36 -30t-24 -56q-9 -34 -9 -84q0 -51 9 -84q9 -34 24 -53q14 -19 36 -28q21 -9 42 -9z" />
    <glyph glyph-name="guillemotright" unicode="&#xbb;" horiz-adv-x="391" 
d="M45 69l84 161l-83 161l6 4l152 -161v-8l-153 -161zM179 69l85 161l-84 161l7 4l151 -161v-8l-152 -161z" />
    <glyph glyph-name="onequarter" unicode="&#xbc;" horiz-adv-x="503" 
d="M347 -2l-1 -2q0 -20 2 -40q1 -13 5 -22q3 -8 9 -11q8 -4 15 -5v-6h-125v6q7 1 15 5q6 3 9 11q4 9 5 23q2 20 2 41h-196v4l236 285h24v-243h75l-22 -46h-53zM282 42v183l-151 -183h151zM49 377h403v-8h-403v8zM178 463l2 4q14 1 21 6q8 5 12 16q4 12 6 35q2 30 2 63v106
q0 30 -1 40q-1 14 -6 22t-13 9q-12 2 -24 2v6l107 69v-253q0 -48 1 -63q1 -22 6 -34q4 -11 12 -16q7 -5 21 -6v-6h-146z" />
    <glyph glyph-name="onehalf" unicode="&#xbd;" horiz-adv-x="503" 
d="M50 378h403v-8h-403v8zM179 464l2 4q13 2 21 6q8 5 12 16q4 12 6 35q2 30 2 63v106q0 30 -1 40q-1 14 -6 22t-13 9q-12 2 -24 2v6l107 69v-253q0 -48 1 -63q1 -22 6 -34q4 -11 12 -16q8 -4 21 -6v-6h-146zM273 -36v4q45 0 59 1q18 1 33 5q13 3 17 9q4 5 9 17h7l-17 -68
q-3 -9 -5 -14q-2 -3 -9 -3h-257l116 111q48 48 70 87q21 37 21 81q0 40 -16 63q-17 24 -57 24q-19 0 -31 -6t-18 -15q-7 -10 -8 -18q-1 -6 -3 -16q-2 -14 -9 -21t-22 -7q-28 0 -28 27q0 11 7 21q8 12 22 20q15 9 37 15q23 6 53 6q23 0 51 -5q27 -5 45 -16q20 -13 32 -30
q12 -18 12 -44q0 -25 -10 -46q-11 -23 -28 -43q-19 -22 -43 -42q-25 -21 -54 -42l-73 -55h97z" />
    <glyph glyph-name="threequarters" unicode="&#xbe;" horiz-adv-x="503" 
d="M347 -2l-1 -2q0 -20 2 -40q1 -13 5 -22q3 -8 9 -11q8 -4 15 -5v-6h-125v6q7 1 15 5q6 3 9 11q4 9 5 23q2 20 2 41h-196v4l236 285h24v-243h75l-22 -46h-53zM282 42v183l-151 -183h151zM49 377h403v-8h-403v8zM130 820l-2 -3q2 9 3 12t6 3h243v-5l-168 -143q7 4 21 7
q12 3 26 3q61 0 99 -27t38 -83q0 -22 -11 -46q-10 -21 -32 -40q-20 -17 -52 -28q-30 -10 -70 -10q-29 0 -51 6t-39 15q-16 9 -25 21t-9 23t7 18q8 8 21 8t19 -7q7 -8 8 -18q3 -13 4 -18q3 -12 10 -21q7 -10 21 -16q13 -6 36 -6q27 0 46 10t31 27t18 37q6 21 6 44
q0 46 -16 75q-17 30 -58 30q-25 0 -43 -9t-34 -22l-5 5l138 118h-91q-41 0 -54 -1q-22 -2 -30 -4q-11 -3 -15 -9t-9 -15h-6z" />
    <glyph glyph-name="questiondown" unicode="&#xbf;" horiz-adv-x="415" 
d="M282 264l2 3q-2 -47 -12 -86t-27 -72q-15 -30 -36 -64q-19 -31 -36 -63t-27 -64q-11 -35 -11 -73q0 -73 28 -102q29 -30 84 -30q24 0 35 11q10 10 18 30q3 8 9 22q5 11 10 19t15 13t23 5q19 0 30 -11t11 -27q0 -28 -37 -49t-117 -21q-43 0 -84 11q-38 10 -67 30t-45 48
t-16 66q0 39 17 73q17 33 42 63q21 25 56 58q30 28 57 60q25 29 46 68q19 35 22 82h10zM265 476q26 0 42 -16q17 -17 17 -42t-17 -42q-16 -16 -42 -16q-25 0 -41 16q-17 17 -17 42t17 42q16 16 41 16z" />
    <glyph glyph-name="Agrave" unicode="&#xc0;" horiz-adv-x="780" 
d="M12 7q11 4 23 11q10 6 21 20q12 16 23 36q9 17 28 60l227 533l-5 12q-7 18 -15 30t-15 18q-8 6 -16 9q-12 4 -19 6v6h134q8 0 11 -3q2 -2 7 -12l268 -609q19 -44 36 -76q16 -29 48 -43v-7h-194v7q28 8 29 27q2 20 -16 60l-63 143h-363l-43 -102q-10 -24 -14 -37
q-6 -21 -5 -37q1 -17 11 -31q9 -13 32 -21v-7h-130v7zM520 246l-180 409l-175 -409h355zM277 818l1 -1q-28 6 -40 18t-12 29q0 12 9 23t24 11t24 -4q12 -5 20 -12l153 -98l-3 -6z" />
    <glyph glyph-name="Aacute" unicode="&#xc1;" horiz-adv-x="780" 
d="M12 7q11 4 23 11q10 6 21 20q12 16 23 36q9 17 28 60l227 533l-5 12q-7 18 -15 30t-15 18q-8 6 -16 9q-12 4 -19 6v6h134q8 0 11 -3q2 -2 7 -12l268 -609q19 -44 36 -76q16 -29 48 -43v-7h-194v7q28 8 29 27q2 20 -16 60l-63 143h-363l-43 -102q-10 -24 -14 -37
q-6 -21 -5 -37q1 -17 11 -31q9 -13 32 -21v-7h-130v7zM520 246l-180 409l-175 -409h355zM254 784l153 96q11 8 21 12q12 5 24 5q15 0 24 -10q9 -11 9 -22q0 -17 -12 -29t-40 -18l-176 -40z" />
    <glyph glyph-name="Acircumflex" unicode="&#xc2;" horiz-adv-x="780" 
d="M12 7q11 4 23 11q10 6 21 20q12 16 23 36q9 17 28 60l227 533l-5 12q-7 18 -15 30t-15 18q-8 6 -16 9q-12 4 -19 6v6h134q8 0 11 -3q2 -2 7 -12l268 -609q19 -44 36 -76q16 -29 48 -43v-7h-194v7q28 8 29 27q2 20 -16 60l-63 143h-363l-43 -102q-10 -24 -14 -37
q-6 -21 -5 -37q1 -17 11 -31q9 -13 32 -21v-7h-130v7zM520 246l-180 409l-175 -409h355zM357 897l137 -115l-3 -6l-134 48l-135 -48l-3 6z" />
    <glyph glyph-name="Atilde" unicode="&#xc3;" horiz-adv-x="780" 
d="M12 7q11 4 23 11q10 6 21 20q12 16 23 36q9 17 28 60l227 533l-5 12q-7 18 -15 30t-15 18q-8 6 -16 9q-12 4 -19 6v6h134q8 0 11 -3q2 -2 7 -12l268 -609q19 -44 36 -76q16 -29 48 -43v-7h-194v7q28 8 29 27q2 20 -16 60l-63 143h-363l-43 -102q-10 -24 -14 -37
q-6 -21 -5 -37q1 -17 11 -31q9 -13 32 -21v-7h-130v7zM520 246l-180 409l-175 -409h355zM311 876l-2 -3q18 0 29 -1q22 -2 34 -3q18 -1 33 -3q10 -1 26 -1q11 0 26 9t32 38l7 -2q-12 -49 -33 -76t-43 -27q-7 0 -29 2l-33 3l-33 3q-22 2 -27 2q-11 0 -26 -9q-16 -10 -35 -40
l-7 2q16 56 39 81q22 25 42 25z" />
    <glyph glyph-name="Adieresis" unicode="&#xc4;" horiz-adv-x="780" 
d="M12 7q11 4 23 11q10 6 21 20q12 16 23 36q9 17 28 60l227 533l-5 12q-7 18 -15 30t-15 18q-8 6 -16 9q-12 4 -19 6v6h134q8 0 11 -3q2 -2 7 -12l268 -609q19 -44 36 -76q16 -29 48 -43v-7h-194v7q28 8 29 27q2 20 -16 60l-63 143h-363l-43 -102q-10 -24 -14 -37
q-6 -21 -5 -37q1 -17 11 -31q9 -13 32 -21v-7h-130v7zM520 246l-180 409l-175 -409h355zM454 785q-22 0 -37 15t-15 38q0 21 15 36t37 15t37 -15t15 -36q0 -23 -15 -38t-37 -15zM253 785q-22 0 -37 15t-15 38q0 21 15 36t37 15t37 -15t15 -36q0 -23 -15 -38t-37 -15z" />
    <glyph glyph-name="Aring" unicode="&#xc5;" horiz-adv-x="780" 
d="M12 7q11 4 23 11q10 6 21 20q12 16 23 36q9 17 28 60l227 533l-5 12q-7 18 -15 30t-15 18q-8 6 -16 9q-12 4 -19 6v6h134q8 0 11 -3q2 -2 7 -12l268 -609q19 -44 36 -76q16 -29 48 -43v-7h-194v7q28 8 29 27q2 20 -16 60l-63 143h-363l-43 -102q-10 -24 -14 -37
q-6 -21 -5 -37q1 -17 11 -31q9 -13 32 -21v-7h-130v7zM520 246l-180 409l-175 -409h355zM275 856q0 34 24 57q25 23 59 23q36 0 59 -22q24 -22 24 -57t-24 -57q-23 -22 -59 -22q-35 0 -59 21t-24 57zM313 856h-2q0 -34 12 -52t33 -18q46 0 46 70q0 32 -12 52q-12 19 -33 19
q-20 0 -32 -19q-12 -20 -12 -52z" />
    <glyph glyph-name="AE" unicode="&#xc6;" horiz-adv-x="1094" 
d="M1017 750l-3 -1q8 0 12 -3t7 -19l17 -98h-9q-12 33 -27 54t-37 33q-24 13 -55 17q-37 5 -82 5h-201v-322h92q39 0 59 7q22 8 32 18t15 26q3 10 7 30h9v-170h-9q-4 20 -7 30q-5 16 -15 26q-11 11 -31 18t-59 7h-92v-401h222q50 0 83 3t56 17t36 37q14 25 26 65h10
l-12 -113q-1 -14 -6 -15q-6 -2 -12 -2h-568v7q19 6 31 15t18 33q7 26 8 68q2 58 2 120h-327l-79 -115q-12 -18 -21 -36t-12 -34t5 -30q7 -13 29 -21v-6h-124v6q11 4 21 12t24 21q12 12 30 35q13 16 39 53l380 552q12 18 15 29q3 10 -2 18t-16 11q-12 3 -27 6v7h548zM532 250
v464l-320 -464h320z" />
    <glyph glyph-name="Ccedilla" unicode="&#xc7;" horiz-adv-x="751" 
d="M427 -9l-5 -7q-86 0 -159 32q-72 32 -123 84q-50 51 -79 122q-28 68 -28 144q0 94 36 166q36 71 93 121q57 49 129 75q71 25 145 25q52 0 84 -7q39 -8 59 -16q8 -3 22.5 -8t21.5 -8q18 -7 39 -7q26 0 33 28h10v-164h-10q-10 44 -35 78q-24 33 -57 54q-34 22 -75 32
q-44 11 -90 11q-58 0 -111 -21q-51 -20 -91 -65q-38 -43 -61 -111q-22 -66 -22 -160q0 -103 24 -175q24 -71 65 -117q40 -45 95 -66q54 -21 114 -21q50 0 92 11q41 11 72 27q30 16 54 38q23 21 38 41l7 -6q-13 -18 -38 -42q-24 -23 -60 -42q-37 -20 -82 -33t-107 -13z
M395 -7l-35 -55q43 -5 72 -25q30 -21 30 -51q0 -42 -42 -61t-123 -21l-1 8q51 4 79 20q27 15 27 34q0 20 -22 32q-24 13 -58 14l-2 4l64 101h11z" />
    <glyph glyph-name="Egrave" unicode="&#xc8;" horiz-adv-x="649" 
d="M263 818l1 -1q-28 6 -40 18t-12 29q0 12 9 23t24 11t24 -4q12 -5 20 -12l153 -98l-3 -6zM17 6l-1 -1q22 6 33 16q12 11 18 39q5 26 7 82q2 72 2 148v168q0 112 -1 148q-2 57 -7 83q-6 29 -18 38t-33 15v7h555q8 0 12 -3t7 -19l17 -98h-9q-12 33 -27 54t-37 33
q-24 13 -55 17q-37 5 -81 5h-217v-322h105q38 0 58 7t31 18q10 10 15 26l8 30h9v-170h-9l-9 30q-5 16 -15 26q-11 11 -31 18t-58 7h-105v-401h238q49 0 82 3t56 17t36 37q14 25 26 65h10l-12 -113q-1 -14 -6 -15q-6 -2 -12 -2h-582v7z" />
    <glyph glyph-name="Eacute" unicode="&#xc9;" horiz-adv-x="649" 
d="M240 784l153 96q11 8 21 12q12 5 24 5q15 0 24 -10q9 -11 9 -22q0 -17 -12 -29t-40 -18l-176 -40zM17 5l-1 -1q22 6 33 16q12 10 18 39q5 26 7 82q2 72 2 148v168q0 112 -1 148q-2 57 -7 83q-6 29 -18 38t-33 15v7h555q8 0 12 -3t7 -19l17 -98h-9q-12 33 -27 54t-37 33
q-24 13 -55 17q-37 5 -81 5h-217v-322h105q38 0 58 7t31 18q10 10 15 26l8 30h9v-170h-9l-9 30q-5 16 -15 26q-11 11 -31 18t-58 7h-105v-401h238q49 0 82 3t56 17t36 37q14 25 26 65h10l-12 -113q-1 -13 -6 -15q-6 -2 -12 -2h-582v7z" />
    <glyph glyph-name="Ecircumflex" unicode="&#xca;" horiz-adv-x="649" 
d="M338 897l137 -115l-3 -6l-134 48l-135 -48l-3 6zM16 7l-1 -1q22 6 33 16q12 10 18 39q5 26 7 82q2 72 2 148v168q0 112 -1 148q-2 57 -7 83q-6 29 -18 38t-33 15v7h555q7 0 12 -3q4 -3 7 -19l17 -98h-9q-12 33 -27 54t-37 33q-24 13 -55 17q-37 5 -81 5h-217v-322h105
q38 0 58 7t31 18q10 10 15 26l8 30h9v-170h-9l-9 30q-5 16 -15 26q-11 11 -31 18t-58 7h-105v-401h238q49 0 82 3t56 17t36 37q14 25 26 65h10l-12 -113q-2 -13 -6 -15q-6 -2 -12 -2h-582v7z" />
    <glyph glyph-name="Edieresis" unicode="&#xcb;" horiz-adv-x="649" 
d="M16 7l-1 -1q22 6 33 16q12 10 18 39q5 26 7 82q2 72 2 148v168q0 112 -1 148q-2 57 -7 83q-6 29 -18 38t-33 15v7h555q7 0 12 -3q4 -3 7 -19l17 -98h-9q-12 33 -27 54t-37 33q-24 13 -55 17q-37 5 -81 5h-217v-322h105q38 0 58 7t31 18q10 10 15 26l8 30h9v-170h-9l-9 30
q-5 16 -15 26q-11 11 -31 18t-58 7h-105v-401h238q49 0 82 3t56 17t36 37q14 25 26 65h10l-12 -113q-2 -13 -6 -15q-6 -2 -12 -2h-582v7zM438 784q-22 0 -37 15t-15 38q0 21 15 36t37 15t37 -15t15 -36q0 -23 -15 -38t-37 -15zM237 784q-22 0 -37 15t-15 38q0 21 15 36
t37 15t37 -15t15 -36q0 -23 -15 -38t-37 -15z" />
    <glyph glyph-name="Igrave" unicode="&#xcc;" horiz-adv-x="256" 
d="M16 7l-3 -3q22 6 33 16q12 10 18 39q5 26 7 82q2 72 2 148v168q0 113 -1 149q-2 57 -7 83q-6 29 -18 38t-33 15v7h224v-7q-21 -6 -33 -15t-18 -37q-5 -26 -7 -82q-1 -36 -1 -148v-168q0 -76 2 -148q1 -51 8 -82q6 -28 18 -39q11 -10 33 -16v-7h-224v7zM49 815l1 -1
q-28 6 -40 18t-12 29q0 13 9 23q9 11 24 11t24 -4q12 -5 20 -12l153 -98l-3 -6z" />
    <glyph glyph-name="Iacute" unicode="&#xcd;" horiz-adv-x="256" 
d="M16 7l-3 -3q22 6 33 16q12 10 18 39q5 26 7 82q2 72 2 148v168q0 113 -1 149q-2 57 -7 83q-6 29 -18 38t-33 15v7h224v-7q-21 -6 -33 -15t-18 -37q-5 -26 -7 -82q-1 -36 -1 -148v-168q0 -76 2 -148q1 -51 8 -82q6 -28 18 -39q11 -10 33 -16v-7h-224v7zM27 781l153 96
q10 7 21 12q12 5 24 5q15 0 24 -10t9 -22q0 -17 -12 -29t-40 -18l-176 -40z" />
    <glyph glyph-name="Icircumflex" unicode="&#xce;" horiz-adv-x="256" 
d="M16 7l-3 -3q22 6 33 16q12 10 18 39q5 26 7 82q2 72 2 148v168q0 113 -1 149q-2 57 -7 83q-6 29 -18 38t-33 15v7h224v-7q-21 -6 -33 -15t-18 -37q-5 -26 -7 -82q-1 -36 -1 -148v-168q0 -76 2 -148q1 -51 8 -82q6 -28 18 -39q11 -10 33 -16v-7h-224v7zM125 894l137 -115
l-3 -6l-134 48l-135 -48l-3 6z" />
    <glyph glyph-name="Idieresis" unicode="&#xcf;" horiz-adv-x="256" 
d="M202 786q-22 0 -37 15t-15 38q0 21 15 36t37 15t37 -15t15 -36q0 -23 -15 -38t-37 -15zM54 786q-22 0 -37 15t-15 38q0 21 15 36t37 15t37 -15t15 -36q0 -23 -15 -38t-37 -15zM16 7l-3 -3q22 6 33 16q12 10 18 39q5 26 7 82q2 72 2 148v168q0 113 -1 149q-2 57 -7 83
q-6 29 -18 38t-33 15v7h224v-7q-21 -6 -33 -15t-18 -37q-5 -26 -7 -82q-1 -36 -1 -148v-168q0 -76 2 -148q1 -51 8 -82q6 -28 18 -39q11 -10 33 -16v-7h-224v7z" />
    <glyph glyph-name="Eth" unicode="&#xd0;" horiz-adv-x="784" 
d="M16 7l1 -2q22 6 33 16q12 11 18 39q5 26 7 82q2 72 2 148v96h-79v9h79v63q0 112 -1 148q-2 57 -7 83q-6 29 -18 38t-33 15v7h224q242 0 375 -92q132 -91 132 -273q0 -87 -31 -156q-31 -70 -94 -121q-62 -50 -159 -79q-94 -28 -225 -28h-224v7zM182 6h58q100 0 174 21
t122 66t72 117t24 173q0 106 -28 174q-28 69 -79 109t-123 57q-70 16 -161 16h-59v-345h169v-9h-169v-379z" />
    <glyph glyph-name="Ntilde" unicode="&#xd1;" horiz-adv-x="732" 
d="M363 876l-2 -3q18 0 29 -1q22 -2 34 -3q18 -1 33 -3q10 -1 26 -1q11 0 26 9t32 38l7 -2q-12 -49 -33 -76t-43 -27q-7 0 -29 2l-33 3l-33 3q-22 2 -27 2q-11 0 -26 -9q-16 -10 -35 -40l-7 2q16 56 39 81q22 25 42 25zM14 4l-3 -1q21 7 33 18t18 39q5 26 7 83q2 72 2 147
v164q0 112 -1 148q-2 57 -7 83q-6 29 -18 38t-33 15v7h172q9 0 16 -5t23 -27l425 -560v297q0 112 -1 148q-1 51 -8 82q-6 29 -19 39q-14 11 -36 18v7h135v-7q-21 -7 -33 -18t-18 -39q-5 -26 -7 -82q-1 -36 -1 -148v-458h-21l-556 732v-434q0 -75 2 -147q1 -51 8 -82
q6 -28 20 -39q13 -10 36 -18v-7h-135v7z" />
    <glyph glyph-name="Ograve" unicode="&#xd2;" horiz-adv-x="845" 
d="M351 818l1 -1q-28 6 -40 18t-12 29q0 12 9 23t24 11t24 -4q12 -5 20 -12l153 -98l-3 -6zM423 -11l-2 -1q-75 0 -145 30t-124 81q-53 50 -85 122t-32 153q0 79 32 151q32 71 86 122t124 81t145 30q76 0 147 -30q70 -30 124 -81q55 -52 86 -121q32 -72 32 -151
q0 -81 -32 -153t-85 -122q-54 -51 -124 -81t-147 -30zM421 -4h-5q54 0 103 21t87 66t60 117q22 70 22 174q0 101 -23 173q-23 71 -60 116q-38 45 -86 65q-49 20 -100 20q-49 0 -100 -20q-49 -19 -87 -65q-37 -45 -60 -116q-23 -72 -23 -173q0 -100 23 -174q22 -72 60 -117
t87 -66t102 -21z" />
    <glyph glyph-name="Oacute" unicode="&#xd3;" horiz-adv-x="845" 
d="M327 784l153 96q10 8 21 12q12 5 24 5q15 0 24 -10q9 -11 9 -22q0 -17 -12 -29t-40 -18l-176 -40zM423 -12l-2 -1q-75 0 -145 30t-124 81q-53 50 -85 122t-32 153q0 79 32 151q32 71 86 122t124 81t145 30q76 0 147 -30q70 -30 124 -81q55 -52 86 -121q32 -72 32 -151
q0 -81 -32 -153t-85 -122q-54 -51 -124 -81t-147 -30zM421 -5h-5q54 0 103 21t87 66t60 117q22 70 22 174q0 101 -23 173q-23 71 -60 116q-38 45 -86 65q-49 20 -100 20q-49 0 -100 -20q-49 -19 -87 -65q-37 -45 -60 -116q-23 -72 -23 -173q0 -100 23 -174q22 -72 60 -117
t87 -66t102 -21z" />
    <glyph glyph-name="Ocircumflex" unicode="&#xd4;" horiz-adv-x="845" 
d="M425 897l137 -115l-3 -6l-134 48l-135 -48l-3 6zM422 -10l-2 -1q-75 0 -145 30t-124 81q-53 50 -85 122t-32 153q0 79 32 151q32 71 86 122t124 81q71 30 145 30q77 0 147 -30t124 -81q55 -52 86 -121q32 -72 32 -151q0 -81 -32 -153t-85 -122q-54 -51 -124 -81
q-71 -30 -147 -30zM420 -3h-5q53 0 103 21t87 66t60 117q22 70 22 174q0 101 -23 173q-23 71 -60 116q-38 45 -86 65q-49 20 -100 20q-49 0 -100 -20q-49 -19 -87 -65q-37 -45 -60 -116q-23 -72 -23 -173q0 -100 23 -174q23 -72 60 -117t87 -66t102 -21z" />
    <glyph glyph-name="Otilde" unicode="&#xd5;" horiz-adv-x="845" 
d="M376 876l-2 -3q18 0 29 -1q22 -2 34 -3q18 -1 33 -3q10 -1 26 -1q11 0 26 9t32 38l7 -2q-12 -49 -33 -76t-43 -27q-7 0 -29 2l-33 3l-33 3q-22 2 -27 2q-11 0 -26 -9q-16 -10 -35 -40l-7 2q17 56 39 81t42 25zM420 -13l-2 -1q-74 0 -145 30q-70 30 -124 81
q-53 50 -85 122t-32 153q0 79 32 151q32 71 86 122t124 81q71 30 145 30q77 0 147 -30t124 -81q55 -52 86 -121q32 -72 32 -151q0 -81 -32 -153t-85 -122q-54 -51 -124 -81q-71 -30 -147 -30zM418 -6h-5q53 0 103 21t87 66t60 117q22 70 22 174q0 101 -23 173
q-23 71 -60 116q-38 45 -86 65q-49 20 -100 20q-49 0 -100 -20q-49 -19 -87 -65q-37 -45 -60 -116q-23 -72 -23 -173q0 -100 23 -174q23 -72 60 -117t87 -66t102 -21z" />
    <glyph glyph-name="Odieresis" unicode="&#xd6;" horiz-adv-x="845" 
d="M525 785q-22 0 -37 15t-15 38q0 21 15 36t37 15t37 -15t15 -36q0 -23 -15 -38t-37 -15zM324 785q-22 0 -37 15t-15 38q0 21 15 36t37 15t37 -15t15 -36q0 -23 -15 -38t-37 -15zM422 -10l-2 -1q-75 0 -145 30t-124 81q-53 50 -85 122t-32 153q0 79 32 151q32 71 86 122
t124 81q71 30 145 30q77 0 147 -30t124 -81q55 -52 86 -121q32 -72 32 -151q0 -81 -32 -153t-85 -122q-54 -51 -124 -81q-71 -30 -147 -30zM420 -3h-5q53 0 103 21t87 66t60 117q22 70 22 174q0 101 -23 173q-23 71 -60 116q-38 45 -86 65q-49 20 -100 20q-49 0 -100 -20
q-49 -19 -87 -65q-37 -45 -60 -116q-23 -72 -23 -173q0 -100 23 -174q23 -72 60 -117t87 -66t102 -21z" />
    <glyph glyph-name="multiply" unicode="&#xd7;" horiz-adv-x="444" 
d="M215 351l-162 168l9 9l162 -168l158 164l9 -9l-158 -165l158 -163l-9 -9l-158 163l-157 -164l-10 11z" />
    <glyph glyph-name="Oslash" unicode="&#xd8;" horiz-adv-x="845" 
d="M422 -10l-3 1q-51 0 -102 14q-49 13 -94 39l-60 -104l-8 5l60 104q-39 25 -73 60q-32 34 -57 77q-25 44 -38 90t-13 101q0 79 32 151q32 71 86 122t124 81q71 30 145 30q48 0 93 -12q47 -12 87 -34l54 94l9 -5l-54 -94q45 -25 81 -58q37 -34 63 -78q27 -45 41 -93
q15 -49 15 -105q0 -81 -32 -153t-85 -122q-54 -51 -124 -81q-71 -30 -147 -30zM148 377l-2 -2q0 -105 24 -177t63 -117l349 608q-35 32 -77 47t-87 15q-49 0 -100 -20q-49 -19 -87 -65q-37 -45 -60 -116q-23 -72 -23 -173zM417 -3l-1 -1q54 0 103 21t87 66t60 117
q22 70 22 174q0 112 -27 187q-27 76 -72 119l-350 -608q36 -39 82 -57q47 -18 96 -18z" />
    <glyph glyph-name="Ugrave" unicode="&#xd9;" horiz-adv-x="763" 
d="M353 818l1 -1q-28 6 -40 18t-12 29q0 12 9 23t24 11t24 -4q12 -5 20 -12l153 -98l-3 -6zM412 -10l-2 -5q-161 0 -250 73q-90 74 -90 225v171q0 113 -1 149q-2 57 -7 83q-6 29 -18 38t-33 15v7h222v-7q-21 -6 -33 -15t-18 -37q-5 -26 -7 -82q-1 -36 -1 -148v-194
q0 -61 9 -111q9 -49 35 -84q25 -34 71 -52q45 -18 118 -18q60 0 110 15t86 48q37 34 56 87q20 55 20 134v183q0 106 -1 140q-1 48 -8 78q-6 28 -19 38q-13 11 -36 18v7h135v-7q-21 -7 -33 -18q-12 -10 -18 -38q-5 -24 -7 -78q-1 -34 -1 -140v-183q0 -82 -21 -138t-58 -90
t-88 -49t-112 -15z" />
    <glyph glyph-name="Uacute" unicode="&#xda;" horiz-adv-x="763" 
d="M333 784l153 96q10 8 21 12q12 5 24 5q15 0 24 -10q9 -11 9 -22q0 -17 -12 -29t-40 -18l-176 -40zM412 -11l-2 -5q-161 0 -250 73q-90 73 -90 225v171q0 113 -1 149q-2 57 -7 83q-6 29 -18 38t-33 15v7h222v-7q-21 -6 -33 -15t-18 -37q-5 -26 -7 -82q-1 -36 -1 -148v-194
q0 -62 9 -111t35 -84q25 -34 71 -52q45 -18 118 -18q60 0 110 15t86 48q37 34 56 87q20 55 20 134v183q0 106 -1 140q-1 48 -8 78q-6 28 -19 38t-36 18v7h135v-7q-21 -8 -33 -18t-18 -38q-5 -24 -7 -78q-1 -34 -1 -140v-183q0 -83 -21 -138q-21 -56 -58 -90t-88 -49
t-112 -15z" />
    <glyph glyph-name="Ucircumflex" unicode="&#xdb;" horiz-adv-x="763" 
d="M431 897l137 -115l-3 -6l-134 48l-135 -48l-3 6zM411 -9l-2 -5q-161 0 -250 73q-90 73 -90 225v171q0 113 -1 149q-2 57 -7 83q-6 29 -18 38t-33 15v7h222v-7q-21 -6 -33 -15t-18 -37q-5 -26 -7 -82q-1 -36 -1 -148v-194q0 -62 9 -111t35 -84q25 -34 71 -52
q45 -18 118 -18q60 0 110 15t86 48q37 34 56 87q20 55 20 134v183q0 106 -1 140q-1 48 -8 78q-6 28 -19 38q-14 10 -36 18v7h135v-7q-21 -8 -33 -18t-18 -38q-5 -24 -7 -78q-1 -34 -1 -140v-183q0 -83 -21 -138q-21 -56 -58 -90t-88 -49t-112 -15z" />
    <glyph glyph-name="Udieresis" unicode="&#xdc;" horiz-adv-x="763" 
d="M411 -9l-2 -5q-161 0 -250 73q-90 73 -90 225v171q0 113 -1 149q-2 57 -7 83q-6 29 -18 38t-33 15v7h222v-7q-21 -6 -33 -15t-18 -37q-5 -26 -7 -82q-1 -36 -1 -148v-194q0 -62 9 -111t35 -84q25 -34 71 -52q45 -18 118 -18q60 0 110 15t86 48q37 34 56 87q20 55 20 134
v183q0 106 -1 140q-1 48 -8 78q-6 28 -19 38q-14 10 -36 18v7h135v-7q-21 -8 -33 -18t-18 -38q-5 -24 -7 -78q-1 -34 -1 -140v-183q0 -83 -21 -138q-21 -56 -58 -90t-88 -49t-112 -15zM528 780q-22 0 -37 15t-15 38q0 21 15 36t37 15t37 -15t15 -36q0 -23 -15 -38t-37 -15z
M327 780q-22 0 -37 15t-15 38q0 21 15 36t37 15t37 -15t15 -36q0 -23 -15 -38t-37 -15z" />
    <glyph glyph-name="Yacute" unicode="&#xdd;" horiz-adv-x="722" 
d="M251 7h-2q22 6 33 16q12 11 18 39q5 26 7 82q2 72 2 148v67l-185 270q-7 10 -18 26t-13 19q-12 17 -26 33q-12 14 -26 23q-15 10 -30 14v7h217v-7q-23 -5 -29 -23t21 -58l190 -277l167 240q18 26 30 45t15 33t-4 24q-8 10 -27 18v7h119v-7q-12 -5 -23 -12q-12 -8 -27 -21
q-17 -15 -33 -34q-16 -18 -40 -54l-173 -249v-84q0 -76 2 -148q1 -51 8 -82q6 -28 18 -39q11 -10 33 -16v-7h-224v7zM316 784l153 96q11 8 21 12q12 5 24 5q15 0 24 -10q9 -11 9 -22q0 -17 -12 -29t-40 -18l-176 -40z" />
    <glyph glyph-name="Thorn" unicode="&#xde;" horiz-adv-x="637" 
d="M16 7l-2 -4q22 6 33 16q12 11 18 39q5 26 7 82q2 72 2 148v168q0 113 -1 149q-2 57 -7 83q-6 29 -18 38t-33 15v7h224v-7q-18 -5 -27 -10q-10 -6 -18 -20q-7 -12 -10 -39q-2 -20 -4 -67h135q67 0 123 -9q54 -9 96 -32q40 -22 63 -59t23 -90q0 -55 -24 -96
q-24 -40 -64 -67t-96 -39t-118 -12h-139q2 -71 4 -99q3 -37 9 -56q6 -20 18 -27t30 -12v-7h-224v7zM314 208l-1 -3q41 0 78 9q38 9 66 31q29 23 45 60q17 39 17 96q0 61 -18 99q-19 39 -46 59q-28 20 -66 28q-35 7 -76 7h-134q-1 -18 -1 -61v-78v-247h136z" />
    <glyph glyph-name="germandbls" unicode="&#xdf;" horiz-adv-x="582" 
d="M167 177l-7 -5q0 -63 1 -84q1 -32 6 -48q4 -16 14 -24q9 -7 26 -12v-7h-187v7q17 5 26 12q10 8 14 24t6 48q1 21 1 84v279h-49v8q12 2 25 8q11 5 15 15q5 12 8 29q3 18 3 48q0 52 20 90t51 62t71 36q39 12 78 12q44 0 80 -9q37 -9 63 -25q27 -17 42 -39q15 -23 15 -49
q0 -29 -13 -49q-14 -21 -33 -39t-42 -33t-42 -30q-25 -21 -40 -39q-13 -16 -13 -41q0 -18 9 -31t26 -24t39 -21q7 -3 23 -10.5t25 -11.5q24 -11 55 -29q23 -14 43 -35q17 -19 28 -43q10 -23 10 -54q0 -37 -15 -65t-39 -49q-23 -20 -55 -31q-30 -10 -64 -10q-28 0 -51 5
q-18 4 -34 11q-4 2 -12 5.5t-12 5.5q-12 5 -19 5q-5 0 -10 -5q-4 -4 -6 -11h-9v120h9q13 -65 50 -96q36 -30 94 -30q27 0 47 9q19 9 33 23t20 32t6 38q0 25 -7 42q-8 19 -22 33q-16 16 -37 27q-31 17 -52 26q-56 24 -94 56q-36 30 -36 77q0 22 9 40t24 33q17 17 33 29
q24 18 35 27q32 26 48 57q17 32 17 78q0 55 -30 90q-30 34 -91 34q-58 0 -93 -32q-34 -31 -34 -108v-436z" />
    <glyph glyph-name="agrave" unicode="&#xe0;" horiz-adv-x="465" 
d="M152 -6l-2 -3q-58 0 -94 27t-36 76q0 28 11 47t30 32q21 15 48 26q11 4 33.5 13.5t31.5 13.5l57 24q47 20 60 39q14 20 14 36v58q0 24 -9 39q-9 16 -22 24q-14 9 -30 12t-31 3q-19 0 -33 -3q-13 -3 -22 -9q-10 -7 -15 -13t-10 -18q-12 -18 -22 -30q-12 -13 -31 -13
q-18 0 -27 10q-9 11 -9 24q0 15 14 27q14 13 36 20q22 8 54 12q28 4 66 4q34 0 63 -4q31 -4 60 -17q27 -12 45 -36t18 -61v-219q0 -33 2 -65q1 -23 6 -37q4 -13 12 -18q7 -4 20 -4q10 0 17 3q10 4 15 7l3 -6q-5 -4 -23 -12t-47 -8q-49 0 -72 20q-22 19 -25 54l-19 -17
q-25 -26 -57 -42q-31 -16 -80 -16zM115 106l-2 -1q0 -95 72 -95q30 0 53 13q27 15 47 34l20 19v217q-5 -11 -21 -24q-17 -14 -52 -30l-38 -16q-46 -19 -63 -47q-16 -26 -16 -70zM143 625q-14 9 -23 20q-9 10 -9 26q0 15 9 25t26 10q16 0 26 -9q12 -10 23 -27l99 -139l-5 -6z
" />
    <glyph glyph-name="aacute" unicode="&#xe1;" horiz-adv-x="465" 
d="M152 -6l-2 -3q-58 0 -94 27t-36 76q0 28 11 47t30 32q21 15 48 26q11 4 33.5 13.5t31.5 13.5l57 24q47 20 60 39q14 20 14 36v58q0 24 -9 39q-9 16 -22 24q-14 9 -30 12t-31 3q-19 0 -33 -3q-13 -3 -22 -9q-10 -7 -15 -13t-10 -18q-12 -18 -22 -30q-12 -13 -31 -13
q-18 0 -27 10q-9 11 -9 24q0 15 14 27q14 13 36 20q22 8 54 12q28 4 66 4q34 0 63 -4q31 -4 60 -17q27 -12 45 -36t18 -61v-219q0 -33 2 -65q1 -23 6 -37q4 -13 12 -18q7 -4 20 -4q10 0 17 3q10 4 15 7l3 -6q-5 -4 -23 -12t-47 -8q-49 0 -72 20q-22 19 -25 54l-19 -17
q-25 -26 -57 -42q-31 -16 -80 -16zM115 106l-2 -1q0 -95 72 -95q30 0 53 13q27 15 47 34l20 19v217q-5 -11 -21 -24q-17 -14 -52 -30l-38 -16q-46 -19 -63 -47q-16 -26 -16 -70zM174 531l98 139q11 17 23 27q11 9 26 9q17 0 26 -10t9 -25q0 -16 -9 -26q-9 -11 -23 -20
l-146 -100z" />
    <glyph glyph-name="acircumflex" unicode="&#xe2;" horiz-adv-x="465" 
d="M152 -6l-2 -3q-58 0 -94 27t-36 76q0 28 11 47t30 32q21 15 48 26q11 4 33.5 13.5t31.5 13.5l57 24q47 20 60 39q14 20 14 36v58q0 24 -9 39q-9 16 -22 24q-14 9 -30 12t-31 3q-19 0 -33 -3q-13 -3 -22 -9q-10 -7 -15 -13t-10 -18q-12 -18 -22 -30q-12 -13 -31 -13
q-18 0 -27 10q-9 11 -9 24q0 15 14 27q14 13 36 20q22 8 54 12q28 4 66 4q34 0 63 -4q31 -4 60 -17q27 -12 45 -36t18 -61v-219q0 -33 2 -65q1 -23 6 -37q4 -13 12 -18q7 -4 20 -4q10 0 17 3q10 4 15 7l3 -6q-5 -4 -23 -12t-47 -8q-49 0 -72 20q-22 19 -25 54l-19 -17
q-25 -26 -57 -42q-31 -16 -80 -16zM115 106l-2 -1q0 -95 72 -95q30 0 53 13q27 15 47 34l20 19v217q-5 -11 -21 -24q-17 -14 -52 -30l-38 -16q-46 -19 -63 -47q-16 -26 -16 -70zM221 708l120 -181l-6 -5l-114 94l-114 -94l-6 5z" />
    <glyph glyph-name="atilde" unicode="&#xe3;" horiz-adv-x="465" 
d="M152 -6l-2 -3q-58 0 -94 27t-36 76q0 28 11 47t30 32q21 15 48 26q11 4 33.5 13.5t31.5 13.5l57 24q47 20 60 39q14 20 14 36v58q0 24 -9 39q-9 16 -22 24q-14 9 -30 12t-31 3q-19 0 -33 -3q-13 -3 -22 -9q-10 -7 -15 -13t-10 -18q-12 -18 -22 -30q-12 -13 -31 -13
q-18 0 -27 10q-9 11 -9 24q0 15 14 27q14 13 36 20q22 8 54 12q28 4 66 4q34 0 63 -4q31 -4 60 -17q27 -12 45 -36t18 -61v-219q0 -33 2 -65q1 -23 6 -37q4 -13 12 -18q7 -4 20 -4q10 0 17 3q10 4 15 7l3 -6q-5 -4 -23 -12t-47 -8q-49 0 -72 20q-22 19 -25 54l-19 -17
q-25 -26 -57 -42q-31 -16 -80 -16zM115 106l-2 -1q0 -95 72 -95q30 0 53 13q27 15 47 34l20 19v217q-5 -11 -21 -24q-17 -14 -52 -30l-38 -16q-46 -19 -63 -47q-16 -26 -16 -70zM184 639l-2 -1q19 0 29 -1q20 -2 30 -4q9 -2 29 -4q9 -1 24 -1q10 0 24 9q13 9 30 38l7 -3
q-12 -49 -31 -75q-20 -27 -40 -27q-25 0 -58 6t-55 6q-11 0 -25 -9t-33 -40l-7 3q17 50 37 76q21 27 41 27z" />
    <glyph glyph-name="adieresis" unicode="&#xe4;" horiz-adv-x="465" 
d="M152 -6l-2 -3q-58 0 -94 27t-36 76q0 28 11 47t30 32q21 15 48 26q11 4 33.5 13.5t31.5 13.5l57 24q47 20 60 39q14 20 14 36v58q0 24 -9 39q-9 16 -22 24q-14 9 -30 12t-31 3q-19 0 -33 -3q-13 -3 -22 -9q-10 -7 -15 -13t-10 -18q-12 -18 -22 -30q-12 -13 -31 -13
q-18 0 -27 10q-9 11 -9 24q0 15 14 27q14 13 36 20q22 8 54 12q28 4 66 4q34 0 63 -4q31 -4 60 -17q27 -12 45 -36t18 -61v-219q0 -33 2 -65q1 -23 6 -37q4 -13 12 -18q7 -4 20 -4q10 0 17 3q10 4 15 7l3 -6q-5 -4 -23 -12t-47 -8q-49 0 -72 20q-22 19 -25 54l-19 -17
q-25 -26 -57 -42q-31 -16 -80 -16zM115 106l-2 -1q0 -95 72 -95q30 0 53 13q27 15 47 34l20 19v217q-5 -11 -21 -24q-17 -14 -52 -30l-38 -16q-46 -19 -63 -47q-16 -26 -16 -70zM309 544h-1q-22 0 -37 15t-15 38q0 21 15 36t38 15q21 0 36 -15t15 -36q0 -23 -15 -38t-36 -15
zM133 544q-22 0 -37 15t-15 38q0 21 15 36t37 15t37 -15t15 -36q0 -23 -15 -38t-37 -15z" />
    <glyph glyph-name="aring" unicode="&#xe5;" horiz-adv-x="465" 
d="M152 -6l-2 -3q-58 0 -94 27t-36 76q0 28 11 47t30 32q21 15 48 26q11 4 33.5 13.5t31.5 13.5l57 24q47 20 60 39q14 20 14 36v58q0 24 -9 39q-9 16 -22 24q-14 9 -30 12t-31 3q-19 0 -33 -3q-13 -3 -22 -9q-10 -7 -15 -13t-10 -18q-12 -18 -22 -30q-12 -13 -31 -13
q-18 0 -27 10q-9 11 -9 24q0 15 14 27q14 13 36 20q22 8 54 12q28 4 66 4q34 0 63 -4q31 -4 60 -17q27 -12 45 -36t18 -61v-219q0 -33 2 -65q1 -23 6 -37q4 -13 12 -18q7 -4 20 -4q10 0 17 3q10 4 15 7l3 -6q-5 -4 -23 -12t-47 -8q-49 0 -72 20q-22 19 -25 54l-19 -17
q-25 -26 -57 -42q-31 -16 -80 -16zM115 106l-2 -1q0 -95 72 -95q30 0 53 13q27 15 47 34l20 19v217q-5 -11 -21 -24q-17 -14 -52 -30l-38 -16q-46 -19 -63 -47q-16 -26 -16 -70zM134 608h-2q0 35 25 57t63 22q39 0 62 -22q24 -23 24 -57q0 -36 -24 -58q-23 -22 -62 -22
t-62 22q-24 22 -24 58zM171 608h-1q0 -71 48 -71q49 0 49 71q0 32 -13 51t-36 19t-35 -19t-12 -51z" />
    <glyph glyph-name="ae" unicode="&#xe6;" horiz-adv-x="767" 
d="M154 -6l-4 -6q-58 0 -96 27q-37 27 -37 76q0 27 11 46q10 17 30 31t48 24q22 8 65 26l57 24q49 20 62 39q14 20 14 36v62q0 24 -9 39q-9 16 -22 24q-13 9 -30 12q-16 3 -31 3q-20 0 -32 -3q-11 -3 -20 -8q-7 -4 -13 -12q-8 -10 -12 -16q-12 -18 -22 -30q-12 -13 -33 -13
q-17 0 -26 10q-9 11 -9 24q0 15 14 26q13 10 38 18q24 7 54 12q27 4 63 4q24 0 49 -3q28 -3 48 -10q22 -7 41 -20q19 -12 29 -33q38 35 82 51q46 17 84 17q41 0 77 -11q34 -10 60 -30t42 -46q16 -27 21 -59h-335q-9 -41 -9 -93q0 -55 14 -99q13 -41 39 -70t60 -42
q33 -13 75 -13q48 0 81 13q34 13 63 36l5 -6q-31 -28 -72 -44q-43 -17 -103 -17q-34 0 -63 7q-32 7 -60 21q-30 14 -54 34q-25 21 -43 49l-43 -40q-32 -30 -68 -49q-33 -18 -80 -18zM544 461l1 -1q-41 0 -78 -30t-54 -99h246q-5 67 -34 98q-30 32 -81 32zM114 103v3
q0 -48 19 -71q19 -24 54 -24q28 0 54 14q25 13 57 42l39 37q-15 26 -24 57t-9 69v57q-5 -11 -21 -26q-18 -16 -52 -29l-38 -17q-47 -18 -63 -45q-16 -26 -16 -67z" />
    <glyph glyph-name="ccedilla" unicode="&#xe7;" horiz-adv-x="472" 
d="M278 -8l2 1q-51 0 -96 18q-47 19 -80 49q-34 32 -54 75q-20 45 -20 96q0 57 24 102t62 77t84 48q48 17 90 17q30 0 63 -5q29 -4 53 -14q22 -9 36 -23t14 -30q0 -15 -9 -27t-29 -12q-14 0 -24 5q-8 4 -13 14q-5 9 -9 21q-1 2 -4.5 11.5t-5.5 15.5q-8 20 -22 27
q-16 8 -48 8q-29 0 -58 -10q-30 -10 -54 -36t-39 -67q-15 -42 -15 -107q0 -64 12 -109t35 -74q22 -28 56 -42q32 -13 73 -13q51 0 87 18q38 19 62 49l6 -7q-28 -34 -73 -55t-106 -21zM253 0l-35 -55q43 -5 72 -25q30 -21 30 -51q0 -41 -42 -61t-123 -21l-1 8q51 4 79 20
q27 15 27 34q0 20 -22 32q-24 13 -58 14l-2 4l64 101h11z" />
    <glyph glyph-name="egrave" unicode="&#xe8;" horiz-adv-x="488" 
d="M283 -9v-1q-47 0 -93 15t-82 45q-37 31 -59 76t-22 109q0 60 24 105t60 75t78 45t78 15q41 0 77 -11q34 -10 60 -30q25 -19 42 -47q16 -27 21 -59h-332q-9 -40 -9 -93q0 -115 51 -171q51 -55 134 -55q45 0 81 14q34 13 60 38l6 -7q-30 -27 -72 -45t-103 -18zM265 466
l-1 -1q-40 0 -76 -30t-52 -100h243q-11 131 -114 131zM198 627q-14 9 -23 20t-9 26t9 25t26 10q15 0 26 -9q12 -10 23 -27l99 -139l-5 -6z" />
    <glyph glyph-name="eacute" unicode="&#xe9;" horiz-adv-x="488" 
d="M222 535l98 139q11 17 23 27q11 9 26 9q17 0 26 -10t9 -25t-9 -26t-23 -20l-146 -100zM283 -9v-1q-47 0 -93 15t-82 45q-37 31 -59 76t-22 109q0 60 24 105t60 75t78 45t78 15q41 0 77 -11q34 -10 60 -30q25 -19 42 -47q16 -27 21 -59h-332q-9 -40 -9 -93q0 -115 51 -171
q51 -55 134 -55q45 0 81 14q34 13 60 38l6 -7q-30 -27 -72 -45t-103 -18zM265 466l-1 -1q-40 0 -76 -30t-52 -100h243q-11 131 -114 131z" />
    <glyph glyph-name="ecircumflex" unicode="&#xea;" horiz-adv-x="488" 
d="M273 712l120 -181l-6 -5l-114 94l-114 -94l-6 5zM283 -9v-1q-47 0 -93 15t-82 45q-37 31 -59 76t-22 109q0 60 24 105t60 75t78 45t78 15q41 0 77 -11q34 -10 60 -30q25 -19 42 -47q16 -27 21 -59h-332q-9 -40 -9 -93q0 -115 51 -171q51 -55 134 -55q45 0 81 14
q34 13 60 38l6 -7q-30 -27 -72 -45t-103 -18zM265 466l-1 -1q-40 0 -76 -30t-52 -100h243q-11 131 -114 131z" />
    <glyph glyph-name="edieresis" unicode="&#xeb;" horiz-adv-x="488" 
d="M361 548h-1q-22 0 -37 15t-15 38q0 21 15 36t38 15q21 0 36 -15t15 -36q0 -23 -15 -38t-36 -15zM185 548q-22 0 -37 15t-15 38q0 21 15 36t37 15t37 -15t15 -36q0 -23 -15 -38t-37 -15zM282 -9v-1q-46 0 -93 15q-46 15 -82 45q-37 31 -59 76t-22 109q0 60 24 105t60 75
t78 45t78 15q41 0 77 -11q35 -10 60 -30q25 -19 42 -47q16 -27 21 -59h-332q-9 -40 -9 -93q0 -115 51 -171q51 -55 134 -55q45 0 81 14q34 13 60 38l6 -7q-30 -27 -72 -45t-103 -18zM264 466l-1 -1q-40 0 -76 -30t-52 -100h243q-11 131 -114 131z" />
    <glyph glyph-name="igrave" unicode="&#xec;" horiz-adv-x="233" 
d="M19 7l-2 -1q18 4 27 12q10 8 14 24t6 48q1 21 1 84v76v81q0 27 -5 42q-5 14 -13 17q-11 4 -27 5v8l141 73v-301q0 -63 1 -84q2 -31 6 -48t15 -24t30 -12v-7h-194v7zM39 628q-14 9 -23 20q-9 10 -9 26q0 14 9 25q9 10 26 10q16 0 26 -9q12 -10 23 -27l99 -139l-5 -6z" />
    <glyph glyph-name="iacute" unicode="&#xed;" horiz-adv-x="233" 
d="M66 535l98 139q11 17 23 27q10 9 26 9q17 0 26 -10t9 -25t-9 -26t-23 -20l-146 -100zM19 7l-2 -1q18 4 27 12q10 8 14 24t6 48q1 21 1 84v76v81q0 27 -5 42q-5 14 -13 17q-11 4 -27 5v8l141 73v-301q0 -63 1 -84q2 -31 6 -48t15 -24t30 -12v-7h-194v7z" />
    <glyph glyph-name="icircumflex" unicode="&#xee;" horiz-adv-x="233" 
d="M116 712l120 -181l-6 -5l-114 94l-114 -94l-6 5zM19 7l-2 -1q18 4 27 12q10 8 14 24t6 48q1 21 1 84v76v81q0 27 -5 42q-5 14 -13 17q-11 4 -27 5v8l141 73v-301q0 -63 1 -84q2 -31 6 -48t15 -24t30 -12v-7h-194v7z" />
    <glyph glyph-name="idieresis" unicode="&#xef;" horiz-adv-x="233" 
d="M183 548q-22 0 -37 15t-15 38q0 21 15 36t37 15t37 -15t15 -36q0 -23 -15 -38t-37 -15zM43 548h-1q-21 0 -36 15t-15 38q0 21 15 36t36 15q23 0 38 -15t15 -36q0 -23 -15 -38t-37 -15zM18 7l-2 -1q18 4 27 12q10 8 14 24q5 16 6 48q1 21 1 84v76v81q0 27 -5 42
q-5 14 -13 17q-11 4 -27 5v8l141 73v-301q0 -63 1 -84q1 -31 6 -48t15 -24t30 -12v-7h-194v7z" />
    <glyph glyph-name="eth" unicode="&#xf0;" horiz-adv-x="559" 
d="M167 580l129 50q-39 43 -81 74q-45 33 -90 53l5 5q66 -22 123 -50q53 -26 97 -60l132 51l4 -8l-129 -49q48 -38 82 -84q34 -47 53 -93q21 -51 29 -97q9 -50 9 -99q0 -76 -24 -130q-24 -55 -60 -89t-81 -51q-44 -16 -87 -16q-40 0 -84 15t-81 45q-38 31 -62 75
q-24 45 -24 107q0 59 24 106q24 46 62 78q37 31 81 48q42 16 84 16q33 0 67 -10q37 -11 65 -30q-17 57 -43 101q-29 50 -61 86l-136 -52zM275 -3v-1q30 0 57 12t48 39t33 72t12 112q0 65 -12 110q-12 46 -33 74q-21 29 -48 42q-26 13 -57 13t-58 -13q-28 -13 -49 -42
t-33 -73q-12 -45 -12 -110q0 -67 12 -112t33 -72t49 -39q29 -12 58 -12z" />
    <glyph glyph-name="ntilde" unicode="&#xf1;" horiz-adv-x="557" 
d="M20 7l-3 -2q17 5 26 12q10 8 14 24q5 17 6 48q1 21 1 84v76v80q0 27 -5 42q-5 14 -14 17q-11 4 -26 5v8l141 73v-121l37 34q17 16 37 31q21 16 40 27t42 19q20 7 45 7q29 0 53 -6q25 -6 41 -22q17 -17 27 -42q10 -24 10 -63v-164v-84q0 -30 5 -48q4 -16 14 -24
q9 -7 26 -12v-7h-192v7q19 5 29 12q10 8 15 24t6 48q1 21 1 84v191q0 48 -19 67t-48 19t-60 -19q-33 -21 -72 -55l-37 -34v-168q0 -63 1 -84q1 -31 6 -48t15 -24t29 -12v-7h-191v7zM240 641l-2 -1q19 0 29 -1q20 -2 30 -4q9 -2 29 -4q9 -1 24 -1q10 0 24 9q13 9 30 38l7 -3
q-12 -49 -31 -75q-19 -27 -40 -27q-25 0 -58 6t-55 6q-11 0 -25 -9t-33 -40l-7 3q17 50 37 76q21 27 41 27z" />
    <glyph glyph-name="ograve" unicode="&#xf2;" 
d="M279 -11q-41 0 -84 15t-81 45q-38 31 -62 75q-24 45 -24 107q0 59 24 106q24 46 62 78q38 31 81 48q42 16 84 16t84 -16q43 -17 81 -48q38 -32 62 -78t24 -106q0 -62 -24 -107q-24 -44 -62 -75q-38 -30 -81 -45t-84 -15zM279 -2v-1q30 0 57 12t48 39t33 72t12 112
q0 65 -12 110q-12 46 -33 74t-48 42q-26 13 -57 13t-58 -13q-28 -13 -49 -42t-33 -73q-12 -45 -12 -110q0 -67 12 -112t33 -72t49 -39q29 -12 58 -12zM206 628q-14 9 -23 20q-9 10 -9 26q0 14 9 25q9 10 26 10q15 0 26 -9q12 -10 23 -27l99 -139l-5 -6z" />
    <glyph glyph-name="oacute" unicode="&#xf3;" 
d="M226 535l98 139q11 17 23 27q11 9 26 9q17 0 26 -10t9 -25t-9 -26t-23 -20l-146 -100zM279 -11q-41 0 -84 15t-81 45q-38 31 -62 75q-24 45 -24 107q0 59 24 106q24 46 62 78q38 31 81 48q42 16 84 16t84 -16q43 -17 81 -48q38 -32 62 -78t24 -106q0 -62 -24 -107
q-24 -44 -62 -75q-38 -30 -81 -45t-84 -15zM279 -2v-1q30 0 57 12t48 39t33 72t12 112q0 65 -12 110q-12 46 -33 74t-48 42q-26 13 -57 13t-58 -13q-28 -13 -49 -42t-33 -73q-12 -45 -12 -110q0 -67 12 -112t33 -72t49 -39q29 -12 58 -12z" />
    <glyph glyph-name="ocircumflex" unicode="&#xf4;" 
d="M279 712l120 -181l-6 -5l-114 94l-114 -94l-6 5zM279 -11q-41 0 -84 15t-81 45q-38 31 -62 75q-24 45 -24 107q0 59 24 106q24 46 62 78q38 31 81 48q42 16 84 16t84 -16q43 -17 81 -48q38 -32 62 -78t24 -106q0 -62 -24 -107q-24 -44 -62 -75q-38 -30 -81 -45t-84 -15z
M279 -2v-1q30 0 57 12t48 39t33 72t12 112q0 65 -12 110q-12 46 -33 74t-48 42q-26 13 -57 13t-58 -13q-28 -13 -49 -42t-33 -73q-12 -45 -12 -110q0 -67 12 -112t33 -72t49 -39q29 -12 58 -12z" />
    <glyph glyph-name="otilde" unicode="&#xf5;" 
d="M279 -11q-41 0 -84 15t-81 45q-38 31 -62 75q-24 45 -24 107q0 59 24 106q24 46 62 78q38 31 81 48q42 16 84 16t84 -16q43 -17 81 -48q38 -32 62 -78t24 -106q0 -62 -24 -107q-24 -44 -62 -75q-38 -30 -81 -45t-84 -15zM279 -2v-1q30 0 57 12t48 39t33 72t12 112
q0 65 -12 110q-12 46 -33 74t-48 42q-26 13 -57 13t-58 -13q-28 -13 -49 -42t-33 -73q-12 -45 -12 -110q0 -67 12 -112t33 -72t49 -39q29 -12 58 -12zM238 642l-2 -1q19 0 29 -1q20 -2 30 -4q9 -2 29 -4q9 -1 24 -1q10 0 24 9q13 9 30 38l7 -3q-12 -49 -31 -75
q-20 -27 -40 -27q-25 0 -58 6t-55 6q-12 0 -25 -9q-14 -9 -33 -40l-7 3q17 50 37 76q21 27 41 27z" />
    <glyph glyph-name="odieresis" unicode="&#xf6;" 
d="M367 548h-1q-22 0 -37 15t-15 38q0 21 15 36t38 15q21 0 36 -15t15 -36q0 -23 -15 -38t-36 -15zM191 548q-22 0 -37 15t-15 38q0 21 15 36t37 15t37 -15t15 -36q0 -23 -15 -38t-37 -15zM278 -11q-40 0 -84 15t-81 45q-38 31 -62 75q-24 45 -24 107q0 59 24 106
q24 46 62 78q37 31 81 48q42 16 84 16t84 -16q44 -17 81 -48q38 -32 62 -78t24 -106q0 -62 -24 -107q-24 -44 -62 -75q-37 -30 -81 -45t-84 -15zM278 -2v-1q30 0 57 12t48 39t33 72t12 112q0 65 -12 110q-12 46 -33 74t-48 42q-26 13 -57 13t-58 -13q-28 -13 -49 -42
t-33 -73q-12 -45 -12 -110q0 -67 12 -112t33 -72t49 -39t58 -12z" />
    <glyph glyph-name="divide" unicode="&#xf7;" horiz-adv-x="530" 
d="M210 506l-2 -2q0 22 17 39t39 17q23 0 39 -16q17 -17 17 -39q0 -23 -16 -39t-39 -16q-22 0 -39 17q-16 16 -16 39zM50 355h427v-12h-427v12zM208 192l-2 -2q0 22 17 39t39 17q23 0 39 -16q17 -17 17 -39q0 -23 -16 -39t-39 -16q-22 0 -39 17q-16 16 -16 39z" />
    <glyph glyph-name="oslash" unicode="&#xf8;" 
d="M279 -2l-2 -2q30 0 57 12t48 39t33 72t12 112q0 59 -11 105q-10 44 -30 72l18 32l-9 5l46 78l9 -5l-46 -78q52 -30 87 -82q36 -52 36 -126q0 -62 -24 -107q-24 -44 -62 -75q-37 -30 -81 -45t-84 -15q-30 0 -58 7q-33 8 -59 22l14 25l-6 8l213 367q-21 27 -48 39t-56 12
q-31 0 -58 -13q-28 -13 -49 -42t-33 -73q-12 -45 -12 -110q0 -64 12 -108q12 -43 32 -71l-17 -29l9 -4l-51 -87l-8 6l50 85q-25 14 -48 33t-39 45t-27 57q-10 30 -10 71q0 60 24 106t62 78q37 32 81 48q42 16 84 16q26 0 60 -8q32 -8 60 -24l-16 -27q4 -4 7 -10l-214 -365
q21 -26 48 -36q26 -10 56 -10z" />
    <glyph glyph-name="ugrave" unicode="&#xf9;" horiz-adv-x="544" 
d="M195 -8l1 -3q-28 0 -52 6t-42 21q-17 14 -28 41q-10 24 -10 63v122v84q0 28 -5 45q-4 15 -14 18q-11 4 -26 5v8l141 73v-388q0 -47 19 -63t48 -16q25 0 59 17q31 15 79 59l20 18v140v84q0 28 -5 45q-4 15 -14 18q-11 4 -26 5v8l141 73v-301q0 -63 1 -84q2 -32 6 -48
t15 -24t30 -12v-7h-149v93l-20 -18q-43 -38 -82 -60q-40 -22 -87 -22zM205 626q-14 9 -23 20q-9 10 -9 26q0 15 9 25t26 10q16 0 26 -9q12 -10 23 -27l99 -139l-5 -6z" />
    <glyph glyph-name="uacute" unicode="&#xfa;" horiz-adv-x="544" 
d="M235 535l98 139q11 17 23 27q10 9 26 9q17 0 26 -10t9 -25t-9 -26t-23 -20l-146 -100zM195 -8l1 -3q-28 0 -52 6t-42 21q-17 14 -28 41q-10 24 -10 63v122v84q0 28 -5 45q-4 15 -14 18q-11 4 -26 5v8l141 73v-388q0 -47 19 -63t48 -16q25 0 59 17q31 15 79 59l20 18v140
v84q0 28 -5 45q-4 15 -14 18q-11 4 -26 5v8l141 73v-301q0 -63 1 -84q2 -32 6 -48t15 -24t30 -12v-7h-149v93l-20 -18q-43 -38 -82 -60q-40 -22 -87 -22z" />
    <glyph glyph-name="ucircumflex" unicode="&#xfb;" horiz-adv-x="544" 
d="M284 712l120 -181l-6 -5l-114 94l-114 -94l-6 5zM195 -8l1 -3q-28 0 -52 6t-42 21q-17 14 -28 41q-10 24 -10 63v122v84q0 28 -5 45q-4 15 -14 18q-11 4 -26 5v8l141 73v-388q0 -47 19 -63t48 -16q25 0 59 17q31 15 79 59l20 18v140v84q0 28 -5 45q-4 15 -14 18
q-11 4 -26 5v8l141 73v-301q0 -63 1 -84q2 -32 6 -48t15 -24t30 -12v-7h-149v93l-20 -18q-43 -38 -82 -60q-40 -22 -87 -22z" />
    <glyph glyph-name="udieresis" unicode="&#xfc;" horiz-adv-x="544" 
d="M370 548h-1q-22 0 -37 15t-15 38q0 21 15 36t38 15q21 0 36 -15t15 -36q0 -23 -15 -38t-36 -15zM194 548q-22 0 -37 15t-15 38q0 21 15 36t37 15t37 -15t15 -36q0 -23 -15 -38t-37 -15zM194 -8l1 -3q-28 0 -52 6t-42 21q-17 14 -28 41q-10 24 -10 63v122v84q0 28 -5 45
q-4 15 -14 18q-11 4 -26 5v8l141 73v-388q0 -47 19 -63t48 -16q25 0 59 17q31 15 79 59l20 18v140v84q0 28 -5 45q-4 15 -14 18q-11 4 -26 5v8l141 73v-301q0 -63 1 -84q1 -32 6 -48t15 -24t30 -12v-7h-149v93l-20 -18q-43 -38 -82 -60q-40 -22 -87 -22z" />
    <glyph glyph-name="yacute" unicode="&#xfd;" horiz-adv-x="487" 
d="M118 -171l-2 -7q-23 0 -34 10q-12 10 -12 25q0 17 9 26t26 9q11 0 18 -3l15 -6q5 -2 13 -6q6 -3 13 -3q13 0 28 18q16 19 38 71l11 24l-170 367q-15 32 -24 51t-18 30q-10 11 -16 15q-9 5 -18 8v7h176v-7q-11 -2 -18 -6t-9 -15t3 -29t18 -48l121 -266l108 242
q19 41 23 63q5 24 0 36q-5 13 -16 17q-12 4 -27 6v7h117v-7q-11 -2 -18 -6q-8 -5 -17 -18q-9 -14 -21 -36t-30 -63l-164 -370q-15 -34 -32 -63q-14 -23 -29 -42q-13 -16 -29 -24q-14 -7 -33 -7zM232 528l98 139q11 17 23 27q11 9 26 9q17 0 26 -10q9 -11 9 -25q0 -16 -9 -26
q-9 -11 -23 -20l-146 -100z" />
    <glyph glyph-name="thorn" unicode="&#xfe;" horiz-adv-x="581" 
d="M16 -159l-3 -4q17 5 26 12q10 8 14 24q5 17 6 48q1 21 1 84v542v81q0 27 -5 42q-5 14 -14 17q-7 2 -27 4v9l142 72v-409l12 13q35 36 77 65q43 29 92 29q42 0 81 -15q41 -16 68 -43q29 -29 47 -72q18 -44 18 -102q0 -60 -20 -108q-19 -46 -54 -78q-34 -31 -79 -46
t-94 -15q-30 0 -69 11q-37 10 -78 42v-35q0 -63 1 -84q2 -31 6 -48t15 -24t30 -12v-7h-193v7zM154 352v-299q42 -35 78 -45q38 -11 68 -11q27 0 55 11q27 10 48 36q20 25 34 69q13 42 13 108q0 75 -12 120q-12 44 -30 70q-18 25 -42 33q-26 8 -49 8q-43 0 -78 -25
q-34 -24 -73 -63z" />
    <glyph glyph-name="ydieresis" unicode="&#xff;" horiz-adv-x="487" 
d="M118 -171l-2 -7q-23 0 -34 10q-12 10 -12 25q0 17 9 26t26 9q11 0 18 -3l15 -6q5 -2 13 -6q6 -3 13 -3q13 0 28 18q16 19 38 71l11 24l-170 367q-15 32 -24 51t-18 30q-10 11 -16 15q-9 5 -18 8v7h176v-7q-11 -2 -18 -6t-9 -15t3 -29t18 -48l121 -266l108 242
q19 41 23 63q5 24 0 36q-5 13 -16 17q-12 4 -27 6v7h117v-7q-11 -2 -18 -6q-8 -5 -17 -18q-9 -14 -21 -36t-30 -63l-164 -370q-15 -34 -32 -63q-14 -23 -29 -42q-13 -16 -29 -24q-14 -7 -33 -7zM360 541h-1q-22 0 -37 15t-15 38q0 21 15 36t38 15q21 0 36 -15t15 -36
q0 -23 -15 -38t-36 -15zM184 541q-22 0 -37 15t-15 38q0 21 15 36t37 15t37 -15t15 -36q0 -23 -15 -38t-37 -15z" />
    <glyph glyph-name="Amacron" unicode="&#x100;" horiz-adv-x="780" 
d="M12 7q11 4 23 11q10 6 21 20q12 16 23 36q9 17 28 60l227 533l-5 12q-7 18 -15 30t-15 18q-8 6 -16 9q-12 4 -19 6v6h134q8 0 11 -3q2 -2 7 -12l268 -609q19 -44 36 -76q16 -29 48 -43v-7h-194v7q28 8 29 27q2 20 -16 60l-63 143h-363l-43 -102q-10 -24 -14 -37
q-6 -21 -5 -37q1 -17 11 -31q9 -13 32 -21v-7h-130v7zM520 246l-180 409l-175 -409h355zM468 799h-232v41h232v-41z" />
    <glyph glyph-name="amacron" unicode="&#x101;" horiz-adv-x="465" 
d="M152 -6l-2 -3q-58 0 -94 27t-36 76q0 28 11 47t30 32q21 15 48 26q11 4 33.5 13.5t31.5 13.5l57 24q47 20 60 39q14 20 14 36v58q0 24 -9 39q-9 16 -22 24q-14 9 -30 12t-31 3q-19 0 -33 -3q-13 -3 -22 -9q-10 -7 -15 -13t-10 -18q-12 -18 -22 -30q-12 -13 -31 -13
q-18 0 -27 10q-9 11 -9 24q0 15 14 27q14 13 36 20q22 8 54 12q28 4 66 4q34 0 63 -4q31 -4 60 -17q27 -12 45 -36t18 -61v-219q0 -33 2 -65q1 -23 6 -37q4 -13 12 -18q7 -4 20 -4q10 0 17 3q10 4 15 7l3 -6q-5 -4 -23 -12t-47 -8q-49 0 -72 20q-22 19 -25 54l-19 -17
q-25 -26 -57 -42q-31 -16 -80 -16zM115 106l-2 -1q0 -95 72 -95q30 0 53 13q27 15 47 34l20 19v217q-5 -11 -21 -24q-17 -14 -52 -30l-38 -16q-46 -19 -63 -47q-16 -26 -16 -70zM332 609v-41h-219v41h219z" />
    <glyph glyph-name="Abreve" unicode="&#x102;" horiz-adv-x="780" 
d="M12 7q11 4 23 11q10 6 21 20q12 16 23 36q9 17 28 60l227 533l-5 12q-7 18 -15 30t-15 18q-8 6 -16 9q-12 4 -19 6v6h134q8 0 11 -3q2 -2 7 -12l268 -609q19 -44 36 -76q16 -29 48 -43v-7h-194v7q28 8 29 27q2 20 -16 60l-63 143h-363l-43 -102q-10 -24 -14 -37
q-6 -21 -5 -37q1 -17 11 -31q9 -13 32 -21v-7h-130v7zM520 246l-180 409l-175 -409h355zM354 837h-3q46 0 69 17q22 16 33 39h9q-1 -16 -8 -38q-6 -19 -20 -36t-33 -27t-48 -10t-51 11q-20 10 -34 27q-13 16 -19 36q-5 17 -7 39h9q7 -21 32 -40q24 -18 71 -18z" />
    <glyph glyph-name="abreve" unicode="&#x103;" horiz-adv-x="465" 
d="M152 -6l-2 -3q-58 0 -94 27t-36 76q0 28 11 47t30 32q21 15 48 26q11 4 33.5 13.5t31.5 13.5l57 24q47 20 60 39q14 20 14 36v58q0 24 -9 39q-9 16 -22 24q-14 9 -30 12t-31 3q-19 0 -33 -3q-13 -3 -22 -9q-10 -7 -15 -13t-10 -18q-12 -18 -22 -30q-12 -13 -31 -13
q-18 0 -27 10q-9 11 -9 24q0 15 14 27q14 13 36 20q22 8 54 12q28 4 66 4q34 0 63 -4q31 -4 60 -17q27 -12 45 -36t18 -61v-219q0 -33 2 -65q1 -23 6 -37q4 -13 12 -18q7 -4 20 -4q10 0 17 3q10 4 15 7l3 -6q-5 -4 -23 -12t-47 -8q-49 0 -72 20q-22 19 -25 54l-19 -17
q-25 -26 -57 -42q-31 -16 -80 -16zM115 106l-2 -1q0 -95 72 -95q30 0 53 13q27 15 47 34l20 19v217q-5 -11 -21 -24q-17 -14 -52 -30l-38 -16q-46 -19 -63 -47q-16 -26 -16 -70zM224 587l-3 -2q43 0 65 22q23 23 32 54h9q-2 -27 -7 -48q-6 -24 -18 -42t-32 -29t-46 -11
q-28 0 -48 11q-19 10 -33 29q-13 17 -19 42q-6 24 -6 50h9q7 -31 30 -54q22 -22 67 -22z" />
    <glyph glyph-name="Aogonek" unicode="&#x104;" horiz-adv-x="786" 
d="M12 6l-2 2q13 5 23 12q11 8 21 21q12 16 23 36q15 28 29 60l230 531l-1 2q-12 25 -19 36q-10 15 -16 21q-8 8 -17 11q-12 4 -19 6v7h136q8 0 11 -3q2 -2 7 -12l271 -609q22 -49 37 -76q17 -31 48 -44v-7h-110q-21 0 -35 -7q-15 -7 -27 -21t-18 -30t-6 -33q0 -21 12 -36
t36 -15q11 0 21 5q9 4 17 11l5 -5q-3 -5 -9 -12q-5 -7 -17 -15q-11 -8 -25 -12q-17 -5 -35 -5q-37 0 -61 18t-24 49q0 23 15 41q16 19 36 32q23 15 45 23q20 8 42 13l-105 234h-368l-44 -102q-9 -19 -15 -37q-6 -19 -6 -37t11 -32q11 -13 33 -21v-6h-130v6zM524 248
l-183 408l-177 -408h360z" />
    <glyph glyph-name="aogonek" unicode="&#x105;" horiz-adv-x="465" 
d="M152 -6l-1 -7q-58 0 -94 27t-36 76q0 28 11 47t30 32q21 15 48 26q11 4 33.5 13.5t31.5 13.5l57 24q46 20 60 39q14 20 14 36v58q0 24 -9 39q-9 16 -22 24q-13 9 -30 12q-16 3 -31 3q-20 0 -32 -3q-11 -3 -20 -8q-7 -4 -13 -12q-8 -10 -12 -16q-12 -18 -22 -30
q-12 -13 -31 -13q-18 0 -27 10q-9 11 -9 24q0 15 14 26q13 10 38 18q24 7 54 12q27 4 63 4q34 0 63 -4q31 -4 60 -17q27 -12 45 -36t18 -61v-219q0 -33 2 -65q1 -23 6 -37t12 -18t20 -4q9 0 17 3q10 4 15 7l3 -6q-11 -6 -21 -11q-18 -8 -27 -13q-14 -8 -24 -18t-16 -25
t-6 -34q0 -22 12 -37t35 -15q13 0 23 5q9 4 17 11l5 -5l-9 -12q-5 -7 -17 -15q-10 -7 -26 -12q-17 -5 -36 -5q-37 0 -61 18t-24 50q0 22 12 38q13 17 30 29q18 12 39 21q24 10 39 14q-3 -1 -9 -1h-9q-49 0 -72 20q-22 19 -25 54l-19 -17q-25 -26 -57 -42q-31 -16 -80 -16z
M116 102l-2 -1q0 -95 72 -95q30 0 53 13q27 15 47 34l20 19v217q-4 -11 -21 -24q-17 -14 -52 -30l-38 -16q-46 -19 -63 -47q-16 -26 -16 -70z" />
    <glyph glyph-name="Cacute" unicode="&#x106;" horiz-adv-x="751" 
d="M427 -9l-5 -7q-86 0 -159 32q-72 32 -123 84q-50 51 -79 122q-28 68 -28 144q0 94 36 166q36 71 93 121q57 49 129 75q71 25 145 25q52 0 84 -7q39 -8 59 -16q8 -3 22.5 -8t21.5 -8q18 -7 39 -7q26 0 33 28h10v-164h-10q-10 44 -35 78q-24 33 -57 54q-34 22 -75 32
q-44 11 -90 11q-58 0 -111 -21q-51 -20 -91 -65q-38 -43 -61 -111q-22 -66 -22 -160q0 -103 24 -175q24 -71 65 -117q40 -45 95 -66q54 -21 114 -21q50 0 92 11q41 11 72 27q30 16 54 38q23 21 38 41l7 -6q-13 -18 -38 -42q-24 -23 -60 -42q-37 -20 -82 -33t-107 -13z
M332 777l153 96q11 7 21 12q12 5 24 5q15 0 24 -10t9 -22q0 -17 -12 -29t-40 -18l-176 -40z" />
    <glyph glyph-name="cacute" unicode="&#x107;" horiz-adv-x="472" 
d="M232 535l98 139q11 17 23 27q11 9 26 9q17 0 26 -10t9 -25t-9 -26t-23 -20l-146 -100zM278 -8l2 1q-51 0 -96 18q-47 19 -80 49q-34 32 -54 75q-20 45 -20 96q0 57 24 102t62 77t84 48q48 17 90 17q30 0 63 -5q29 -4 53 -14q22 -9 36 -23t14 -30q0 -15 -9 -27t-29 -12
q-14 0 -24 5q-8 4 -13 14q-5 9 -9 21q-1 2 -4.5 11.5t-5.5 15.5q-8 20 -22 27q-16 8 -48 8q-29 0 -58 -10q-30 -10 -54 -36t-39 -67q-15 -42 -15 -107q0 -64 12 -109t35 -74q22 -28 56 -42q32 -13 73 -13q51 0 87 18q38 19 62 49l6 -7q-28 -34 -73 -55t-106 -21z" />
    <glyph glyph-name="Ccircumflex" unicode="&#x108;" horiz-adv-x="751" 
d="M433 897l137 -115l-3 -6l-134 48l-135 -48l-3 6zM427 -9l-5 -7q-86 0 -159 32q-72 32 -123 84q-50 51 -79 122q-28 68 -28 144q0 94 36 166q36 71 93 121q57 49 129 75q71 25 145 25q52 0 84 -7q39 -8 59 -16q8 -3 22.5 -8t21.5 -8q18 -7 39 -7q26 0 33 28h10v-164h-10
q-10 44 -35 78q-24 33 -57 54q-34 22 -75 32q-44 11 -90 11q-58 0 -111 -21q-51 -20 -91 -65q-38 -43 -61 -111q-22 -66 -22 -160q0 -103 24 -175q24 -71 65 -117q40 -45 95 -66q54 -21 114 -21q50 0 92 11q41 11 72 27q30 16 54 38q23 21 38 41l7 -6q-13 -18 -38 -42
q-24 -23 -60 -42q-37 -20 -82 -33t-107 -13z" />
    <glyph glyph-name="ccircumflex" unicode="&#x109;" horiz-adv-x="472" 
d="M284 712l120 -181l-6 -5l-114 94l-114 -94l-6 5zM278 -8l2 1q-51 0 -96 18q-47 19 -80 49q-34 32 -54 75q-20 45 -20 96q0 57 24 102t62 77t84 48q48 17 90 17q30 0 63 -5q29 -4 53 -14q22 -9 36 -23t14 -30q0 -15 -9 -27t-29 -12q-14 0 -24 5q-8 4 -13 14q-5 9 -9 21
q-1 2 -4.5 11.5t-5.5 15.5q-8 20 -22 27q-16 8 -48 8q-29 0 -58 -10q-30 -10 -54 -36t-39 -67q-15 -42 -15 -107q0 -64 12 -109t35 -74q22 -28 56 -42q32 -13 73 -13q51 0 87 18q38 19 62 49l6 -7q-28 -34 -73 -55t-106 -21z" />
    <glyph glyph-name="Cdotaccent" unicode="&#x10a;" horiz-adv-x="751" 
d="M427 -9l-5 -7q-86 0 -159 32q-72 32 -123 84q-50 51 -79 122q-28 68 -28 144q0 94 36 166q36 71 93 121q57 49 129 75q71 25 145 25q52 0 84 -7q39 -8 59 -16q8 -3 22.5 -8t21.5 -8q18 -7 39 -7q26 0 33 28h10v-164h-10q-10 44 -35 78q-24 33 -57 54q-34 22 -75 32
q-44 11 -90 11q-58 0 -111 -21q-51 -20 -91 -65q-38 -43 -61 -111q-22 -66 -22 -160q0 -103 24 -175q24 -71 65 -117q40 -45 95 -66q54 -21 114 -21q50 0 92 11q41 11 72 27q30 16 54 38q23 21 38 41l7 -6q-13 -18 -38 -42q-24 -23 -60 -42q-37 -20 -82 -33t-107 -13z
M430 777q-23 0 -38 16q-15 17 -15 39q0 23 15 38t38 15t38 -15t15 -38q0 -22 -15 -39q-15 -16 -38 -16z" />
    <glyph glyph-name="cdotaccent" unicode="&#x10b;" horiz-adv-x="472" 
d="M278 -8l2 1q-51 0 -96 18q-47 19 -80 49q-34 32 -54 75q-20 45 -20 96q0 57 24 102t62 77t84 48q48 17 90 17q30 0 63 -5q29 -4 53 -14q22 -9 36 -23t14 -30q0 -15 -9 -27t-29 -12q-14 0 -24 5q-8 4 -13 14q-5 9 -9 21q-1 2 -4.5 11.5t-5.5 15.5q-8 20 -22 27
q-16 8 -48 8q-29 0 -58 -10q-30 -10 -54 -36t-39 -67q-15 -42 -15 -107q0 -64 12 -109t35 -74q22 -28 56 -42q32 -13 73 -13q51 0 87 18q38 19 62 49l6 -7q-28 -34 -73 -55t-106 -21zM286 548v-1q-23 0 -38 15t-15 38t15 38t38 15t38 -15t15 -37q0 -23 -15 -38t-38 -15z" />
    <glyph glyph-name="Ccaron" unicode="&#x10c;" horiz-adv-x="751" 
d="M299 901l135 -48l134 48l3 -6l-137 -115l-138 115zM427 -9l-5 -7q-86 0 -159 32q-72 32 -123 84q-50 51 -79 122q-28 68 -28 144q0 94 36 166q36 71 93 121q57 49 129 75q71 25 145 25q52 0 84 -7q39 -8 59 -16q8 -3 22.5 -8t21.5 -8q18 -7 39 -7q26 0 33 28h10v-164h-10
q-10 44 -35 78q-24 33 -57 54q-34 22 -75 32q-44 11 -90 11q-58 0 -111 -21q-51 -20 -91 -65q-38 -43 -61 -111q-22 -66 -22 -160q0 -103 24 -175q24 -71 65 -117q40 -45 95 -66q54 -21 114 -21q50 0 92 11q41 11 72 27q30 16 54 38q23 21 38 41l7 -6q-13 -18 -38 -42
q-24 -23 -60 -42q-37 -20 -82 -33t-107 -13z" />
    <glyph glyph-name="ccaron" unicode="&#x10d;" horiz-adv-x="472" 
d="M170 721l114 -93l114 93l6 -4l-120 -182l-120 182zM278 -8l2 1q-51 0 -96 18q-47 19 -80 49q-34 32 -54 75q-20 45 -20 96q0 57 24 102t62 77t84 48q48 17 90 17q30 0 63 -5q29 -4 53 -14q22 -9 36 -23t14 -30q0 -15 -9 -27t-29 -12q-14 0 -24 5q-8 4 -13 14q-5 9 -9 21
q-1 2 -4.5 11.5t-5.5 15.5q-8 20 -22 27q-16 8 -48 8q-29 0 -58 -10q-30 -10 -54 -36t-39 -67q-15 -42 -15 -107q0 -64 12 -109t35 -74q22 -28 56 -42q32 -13 73 -13q51 0 87 18q38 19 62 49l6 -7q-28 -34 -73 -55t-106 -21z" />
    <glyph glyph-name="Dcaron" unicode="&#x10e;" horiz-adv-x="784" 
d="M191 901l135 -48l134 48l3 -6l-137 -115l-138 115zM16 7l1 -2q22 6 33 16q12 11 18 39q5 26 7 82q2 72 2 148v168q0 112 -1 148q-2 57 -7 83q-6 29 -18 38t-33 15v7h224q242 0 375 -92q132 -91 132 -273q0 -87 -31 -156q-31 -70 -94 -121q-62 -50 -159 -79
q-94 -28 -225 -28h-224v7zM182 739l-1 -733h59q100 0 174 21t122 66t72 117t24 173q0 106 -28 174q-28 69 -79 109t-123 57q-70 16 -161 16h-59z" />
    <glyph glyph-name="dcaron" unicode="&#x10f;" horiz-adv-x="589" 
d="M556 570l7 133q5 60 39 60q15 0 24 -9t9 -24t-11 -39l-61 -123zM249 -8l-2 -4q-39 0 -78 15q-37 14 -70 44q-31 29 -51 72q-19 42 -19 100q0 59 21 105q21 47 55 78q35 32 81 50t99 18q40 0 75 -13q37 -14 66 -37v132q0 59 -1 78q-1 28 -6 42t-14 17q-11 4 -27 5v8
l142 71v-599q0 -63 1 -84q1 -32 6 -48t15 -24t30 -12v-7h-148v89l-19 -20q-29 -32 -66 -54t-90 -22zM128 234v-1q0 -75 13 -118q13 -45 33 -69q19 -24 44 -33q24 -9 48 -9q40 0 74 20t62 51l19 20v312q-31 25 -66 39q-36 14 -73 14q-32 0 -60 -12t-49 -39t-33 -70t-12 -105z
" />
    <glyph glyph-name="Dcroat" unicode="&#x110;" horiz-adv-x="784" 
d="M16 7l1 -2q22 6 33 16q12 11 18 39q5 26 7 82q2 72 2 148v96h-79v9h79v63q0 112 -1 148q-2 57 -7 83q-6 29 -18 38t-33 15v7h224q242 0 375 -92q132 -91 132 -273q0 -87 -31 -156q-31 -70 -94 -121q-62 -50 -159 -79q-94 -28 -225 -28h-224v7zM182 6h58q100 0 174 21
t122 66t72 117t24 173q0 106 -28 174q-28 69 -79 109t-123 57q-70 16 -161 16h-59v-345h169v-9h-169v-379z" />
    <glyph glyph-name="dcroat" unicode="&#x111;" horiz-adv-x="589" 
d="M269 577h327v-9h-327v9zM251 -7l-2 -4q-39 0 -78 15q-37 14 -70 44q-31 28 -51 72q-19 42 -19 100t21 105t55 78q35 32 81 50t99 18q40 0 75 -13q37 -14 66 -37v132q0 59 -1 78q-1 29 -6 42q-5 14 -14 17q-11 4 -27 5v8l142 71v-599q0 -63 1 -84q1 -31 6 -48t15 -24
t30 -12v-7h-148v89l-19 -20q-29 -31 -66 -54q-37 -22 -90 -22zM130 235v-1q0 -75 13 -118q13 -45 33 -69q19 -24 44 -33q24 -9 48 -9q40 0 74 20t62 51l19 20v312q-31 26 -66 39q-36 14 -73 14q-32 0 -60 -12t-49 -39t-33 -70q-12 -44 -12 -105z" />
    <glyph glyph-name="Emacron" unicode="&#x112;" horiz-adv-x="649" 
d="M16 7l-1 -1q22 6 33 16q12 10 18 39q5 26 7 82q2 72 2 148v168q0 112 -1 148q-2 57 -7 83q-6 29 -18 38t-33 15v7h555q7 0 12 -3q4 -3 7 -19l17 -98h-9q-12 33 -27 54t-37 33q-24 13 -55 17q-37 5 -81 5h-217v-322h105q38 0 58 7t31 18q10 10 15 26l8 30h9v-170h-9l-9 30
q-5 16 -15 26q-11 11 -31 18t-58 7h-105v-401h238q49 0 82 3t56 17t36 37q14 25 26 65h10l-12 -113q-2 -13 -6 -15q-6 -2 -12 -2h-582v7zM453 798h-232v41h232v-41z" />
    <glyph glyph-name="emacron" unicode="&#x113;" horiz-adv-x="488" 
d="M283 -9v-1q-47 0 -93 15t-82 45q-37 31 -59 76t-22 109q0 60 24 105t60 75t78 45t78 15q41 0 77 -11q34 -10 60 -30q25 -19 42 -47q16 -27 21 -59h-332q-9 -40 -9 -93q0 -115 51 -171q51 -55 134 -55q45 0 81 14q34 13 60 38l6 -7q-30 -27 -72 -45t-103 -18zM265 466
l-1 -1q-40 0 -76 -30t-52 -100h243q-11 131 -114 131zM380 611v-41h-219v41h219z" />
    <glyph glyph-name="Ebreve" unicode="&#x114;" horiz-adv-x="649" 
d="M16 7l-1 -1q22 6 33 16q12 10 18 39q5 26 7 82q2 72 2 148v168q0 112 -1 148q-2 57 -7 83q-6 29 -18 38t-33 15v7h555q7 0 12 -3q4 -3 7 -19l17 -98h-9q-12 33 -27 54t-37 33q-24 13 -55 17q-37 5 -81 5h-217v-322h105q38 0 58 7t31 18q10 10 15 26l8 30h9v-170h-9l-9 30
q-5 16 -15 26q-11 11 -31 18t-58 7h-105v-401h238q49 0 82 3t56 17t36 37q14 25 26 65h10l-12 -113q-2 -13 -6 -15q-6 -2 -12 -2h-582v7zM338 836h-3q46 0 69 17q22 17 33 39h9q-1 -16 -8 -38q-6 -19 -20 -36q-14 -16 -33 -27q-19 -10 -48 -10t-51 11q-20 10 -34 27
q-13 16 -19 36q-5 17 -7 39h9q7 -21 32 -40q24 -18 71 -18z" />
    <glyph glyph-name="ebreve" unicode="&#x115;" horiz-adv-x="488" 
d="M283 -9v-1q-47 0 -93 15t-82 45q-37 31 -59 76t-22 109q0 60 24 105t60 75t78 45t78 15q41 0 77 -11q34 -10 60 -30q25 -19 42 -47q16 -27 21 -59h-332q-9 -40 -9 -93q0 -115 51 -171q51 -55 134 -55q45 0 81 14q34 13 60 38l6 -7q-30 -27 -72 -45t-103 -18zM265 466
l-1 -1q-40 0 -76 -30t-52 -100h243q-11 131 -114 131zM271 589l-3 -2q43 0 65 22q23 23 32 54h9q-2 -27 -7 -48q-6 -24 -18 -42t-32 -29t-46 -11q-28 0 -48 11q-19 10 -33 29q-13 17 -19 42q-6 24 -6 50h9q8 -31 30 -54q22 -22 67 -22z" />
    <glyph glyph-name="Edotaccent" unicode="&#x116;" horiz-adv-x="649" 
d="M337 784q-23 0 -38 16t-15 39t15 38t38 15t38 -15t15 -38t-15 -39t-38 -16zM16 7l-1 -1q22 6 33 16q12 10 18 39q5 26 7 82q2 72 2 148v168q0 112 -1 148q-2 57 -7 83q-6 29 -18 38t-33 15v7h555q7 0 12 -3q4 -3 7 -19l17 -98h-9q-12 33 -27 54t-37 33q-24 13 -55 17
q-37 5 -81 5h-217v-322h105q38 0 58 7t31 18q10 10 15 26l8 30h9v-170h-9l-9 30q-5 16 -15 26q-11 11 -31 18t-58 7h-105v-401h238q49 0 82 3t56 17t36 37q14 25 26 65h10l-12 -113q-2 -13 -6 -15q-6 -2 -12 -2h-582v7z" />
    <glyph glyph-name="edotaccent" unicode="&#x117;" horiz-adv-x="488" 
d="M283 -9v-1q-47 0 -93 15t-82 45q-37 31 -59 76t-22 109q0 60 24 105t60 75t78 45t78 15q41 0 77 -11q34 -10 60 -30q25 -19 42 -47q16 -27 21 -59h-332q-9 -40 -9 -93q0 -115 51 -171q51 -55 134 -55q45 0 81 14q34 13 60 38l6 -7q-30 -27 -72 -45t-103 -18zM265 466
l-1 -1q-40 0 -76 -30t-52 -100h243q-11 131 -114 131zM272 545v-1q-23 0 -38 15t-15 38t15 38t38 15t38 -15t15 -37q0 -23 -15 -38t-38 -15z" />
    <glyph glyph-name="Eogonek" unicode="&#x118;" horiz-adv-x="649" 
d="M472 -173h-2q-37 0 -61 18t-24 49q0 24 15 42q16 19 36 32q22 14 43 21q27 9 36 11h12q-22 -10 -42 -32q-19 -20 -19 -56q0 -22 12 -37t35 -15q13 0 23 5q9 4 17 11l5 -5q-3 -5 -9 -12q-5 -7 -17 -15q-11 -8 -25 -12q-17 -5 -35 -5zM14 7l-1 -1q22 6 33 16q12 10 18 39
q5 26 7 82q2 72 2 148v168q0 112 -1 148q-2 57 -7 83q-6 29 -18 38t-33 15v7h555q7 0 12 -3q4 -3 7 -19l17 -98h-9q-12 33 -27 54t-37 33q-24 13 -55 17q-37 5 -81 5h-217v-322h105q38 0 58 7t31 18q10 10 15 26l8 30h9v-170h-9l-9 30q-5 16 -15 26q-11 11 -31 18t-58 7
h-105v-401h238q49 0 82 3t56 17t36 37q14 25 26 65h10l-12 -113q-2 -13 -6 -15q-6 -2 -12 -2h-582v7z" />
    <glyph glyph-name="eogonek" unicode="&#x119;" horiz-adv-x="488" 
d="M403 -130l-3 -4l-9 -12q-7 -8 -16 -15q-11 -8 -25 -12q-17 -5 -35 -5q-38 0 -62 18t-24 49q0 21 12 37t30 30q20 15 39 23q28 12 41 17q-20 -5 -34 -6q-10 -1 -34 -1q-47 0 -93 15t-82 45q-37 31 -59 76t-22 109q0 60 24 105t60 75t78 45t78 15q41 0 77 -11
q34 -11 60 -30q25 -19 42 -47q16 -27 21 -59h-332q-9 -41 -9 -93q0 -116 51 -171t134 -55q45 0 81 14q34 13 60 38l6 -7q-11 -11 -29 -22q-17 -10 -34 -18q-12 -5 -28 -15q-15 -9 -27 -21q-13 -13 -20 -28q-8 -18 -8 -37q0 -22 12 -37t36 -15q23 0 38 15zM262 463l-1 -1
q-40 0 -76 -30t-52 -100h243q-11 131 -114 131z" />
    <glyph glyph-name="Ecaron" unicode="&#x11a;" horiz-adv-x="649" 
d="M203 901l135 -48l134 48l3 -6l-137 -115l-138 115zM16 7l-1 -1q22 6 33 16q12 10 18 39q5 26 7 82q2 72 2 148v168q0 112 -1 148q-2 57 -7 83q-6 29 -18 38t-33 15v7h555q7 0 12 -3q4 -3 7 -19l17 -98h-9q-12 33 -27 54t-37 33q-24 13 -55 17q-37 5 -81 5h-217v-322h105
q38 0 58 7t31 18q10 10 15 26l8 30h9v-170h-9l-9 30q-5 16 -15 26q-11 11 -31 18t-58 7h-105v-401h238q49 0 82 3t56 17t36 37q14 25 26 65h10l-12 -113q-2 -13 -6 -15q-6 -2 -12 -2h-582v7z" />
    <glyph glyph-name="ecaron" unicode="&#x11b;" horiz-adv-x="488" 
d="M157 721l114 -93l114 93l6 -4l-120 -182l-120 182zM283 -9v-1q-47 0 -93 15t-82 45q-37 31 -59 76t-22 109q0 60 24 105t60 75t78 45t78 15q41 0 77 -11q34 -10 60 -30q25 -19 42 -47q16 -27 21 -59h-332q-9 -40 -9 -93q0 -115 51 -171q51 -55 134 -55q45 0 81 14
q34 13 60 38l6 -7q-30 -27 -72 -45t-103 -18zM265 466l-1 -1q-40 0 -76 -30t-52 -100h243q-11 131 -114 131z" />
    <glyph glyph-name="Gcircumflex" unicode="&#x11c;" horiz-adv-x="807" 
d="M445 897l137 -115l-3 -6l-134 48l-135 -48l-3 6zM432 -10l-1 -1q-89 0 -162 30t-126 83t-81 124q-29 73 -29 155q0 98 37 169t96 118q58 46 131 69q74 23 142 23q52 0 83 -7q33 -7 57 -15q27 -8 44 -15q18 -7 41 -7q12 0 20 7q10 8 14 21h10v-165h-10q-21 85 -89 129
t-168 44q-59 0 -111 -18q-53 -18 -92 -60t-63 -111t-24 -172q0 -104 20 -181q19 -74 57 -121t89 -68t114 -21q108 0 160 50q51 50 51 153v6q0 30 -2 60q-1 21 -8 34q-6 13 -18 17t-33 9v8h225v-8q-20 -5 -30 -10q-12 -6 -18 -22q-6 -17 -9 -46q-3 -30 -3 -81v-52
q-15 -18 -43 -40q-29 -22 -69 -42q-41 -20 -91 -33q-49 -13 -111 -13z" />
    <glyph glyph-name="gcircumflex" unicode="&#x11d;" horiz-adv-x="476" 
d="M241 712l120 -181l-6 -5l-114 94l-114 -94l-6 5zM230 162l-4 -5q-26 0 -51 6q-23 5 -48 17l-12 -8q-19 -14 -26 -22q-9 -10 -9 -22t12 -19q11 -7 40 -10l184 -20q74 -7 109 -30q34 -22 34 -72q0 -33 -16 -59t-47 -48q-30 -21 -74 -33q-43 -12 -97 -12q-37 0 -75 6t-68 18
q-31 12 -48 31q-18 20 -18 45q0 19 9 32t24 24q14 10 35 18q26 10 39 14q-35 7 -54 27q-19 19 -19 47q0 32 19 51q19 20 42 36l13 9q-35 20 -59 51q-24 32 -24 77q0 38 18 68t45 51q28 22 62 32q36 11 68 11q55 0 105 -26q25 23 54 33q30 11 48 11q19 0 27 -9q8 -10 8 -23
t-9 -21q-10 -8 -19 -8q-11 0 -19 4l-18 9l-18 9q-8 4 -20 4q-16 0 -32 -11q35 -19 60 -53q24 -33 24 -78q0 -38 -18 -66q-18 -29 -46 -48q-30 -20 -63 -29q-34 -9 -68 -9zM226 166l-2 -2q20 0 41 8q20 8 35 24t24 44q9 27 9 68q0 40 -9 69t-24 47t-34 27q-20 9 -42 9
q-43 0 -73 -35t-30 -116q0 -41 9 -68t23 -44q13 -17 33 -24q18 -7 40 -7zM69 -75h2q0 -48 41 -72q40 -24 108 -24q52 0 89 9q38 9 62 24t36 33t12 34q0 17 -9 27q-10 11 -25 17q-17 6 -39 9q-30 4 -46 6l-160 18h-6h-5q-30 -10 -45 -30t-15 -51z" />
    <glyph glyph-name="Gbreve" unicode="&#x11e;" horiz-adv-x="807" 
d="M445 837h-3q46 0 69 17q23 16 33 39h9q-1 -16 -8 -38q-6 -19 -20 -36q-13 -17 -33 -27q-19 -10 -48 -10t-51 11q-20 10 -34 27q-13 16 -19 36q-5 17 -7 39h9q7 -21 32 -40q24 -18 71 -18zM429 -10l-1 -1q-88 0 -162 30q-73 30 -126 83t-81 124q-29 73 -29 155
q0 98 37 169t96 118q58 46 131 69q74 23 142 23q52 0 83 -7q33 -7 57 -15q27 -8 44 -15q18 -7 41 -7q12 0 20 7q10 8 14 21h10v-165h-10q-21 85 -89 129t-168 44q-58 0 -111 -18t-92 -60t-63 -111t-24 -172q0 -104 20 -181q19 -74 57 -121t89 -68t114 -21q108 0 160 50
q51 50 51 153v6q0 30 -2 60q-1 21 -8 34q-6 13 -18 17t-33 9v8h225v-8q-20 -5 -30 -10q-12 -6 -18 -22q-6 -17 -9 -46q-3 -30 -3 -81v-52q-15 -18 -43 -40t-69 -42t-91 -33q-49 -13 -111 -13z" />
    <glyph glyph-name="gbreve" unicode="&#x11f;" horiz-adv-x="476" 
d="M230 162l-4 -5q-26 0 -51 6q-23 5 -48 17l-12 -8q-19 -14 -26 -22q-9 -10 -9 -22t12 -19q11 -7 40 -10l184 -20q74 -7 109 -30q34 -22 34 -72q0 -33 -16 -59t-47 -48q-30 -21 -74 -33q-43 -12 -97 -12q-37 0 -75 6t-68 18q-31 12 -48 31q-18 20 -18 45q0 19 9 32t24 24
q14 10 35 18q26 10 39 14q-35 7 -54 27q-19 19 -19 47q0 32 19 51q19 20 42 36l13 9q-35 20 -59 51q-24 32 -24 77q0 38 18 68t45 51q28 22 62 32q36 11 68 11q55 0 105 -26q25 23 54 33q30 11 48 11q19 0 27 -9q8 -10 8 -23t-9 -21q-10 -8 -19 -8q-11 0 -19 4l-18 9l-18 9
q-8 4 -20 4q-16 0 -32 -11q35 -19 60 -53q24 -33 24 -78q0 -38 -18 -66q-18 -29 -46 -48q-30 -20 -63 -29q-34 -9 -68 -9zM226 166l-2 -2q20 0 41 8q20 8 35 24t24 44q9 27 9 68q0 40 -9 69t-24 47t-34 27q-20 9 -42 9q-43 0 -73 -35t-30 -116q0 -41 9 -68t23 -44
q13 -17 33 -24q18 -7 40 -7zM69 -75h2q0 -48 41 -72q40 -24 108 -24q52 0 89 9q38 9 62 24t36 33t12 34q0 17 -9 27q-10 11 -25 17q-17 6 -39 9q-30 4 -46 6l-160 18h-6h-5q-30 -10 -45 -30t-15 -51zM241 584l-3 -2q43 0 65 22q23 23 32 54h9q-2 -27 -7 -48q-6 -24 -18 -42
t-32 -29t-46 -11q-28 0 -48 11q-19 10 -33 29q-13 17 -19 42q-6 24 -6 50h9q8 -32 30 -54t67 -22z" />
    <glyph glyph-name="Gdotaccent" unicode="&#x120;" horiz-adv-x="807" 
d="M444 784q-23 0 -38 16t-15 39t15 38t38 15t38 -15t15 -38t-15 -39t-38 -16zM432 -10l-1 -1q-89 0 -162 30t-126 83t-81 124q-29 73 -29 155q0 98 37 169t96 118q58 46 131 69q74 23 142 23q52 0 83 -7q33 -7 57 -15q27 -8 44 -15q18 -7 41 -7q12 0 20 7q10 8 14 21h10
v-165h-10q-21 85 -89 129t-168 44q-59 0 -111 -18q-53 -18 -92 -60t-63 -111t-24 -172q0 -104 20 -181q19 -74 57 -121t89 -68t114 -21q108 0 160 50q51 50 51 153v6q0 30 -2 60q-1 21 -8 34q-6 13 -18 17t-33 9v8h225v-8q-20 -5 -30 -10q-12 -6 -18 -22q-6 -17 -9 -46
q-3 -30 -3 -81v-52q-15 -18 -43 -40q-29 -22 -69 -42q-41 -20 -91 -33q-49 -13 -111 -13z" />
    <glyph glyph-name="gdotaccent" unicode="&#x121;" horiz-adv-x="476" 
d="M230 162l-4 -5q-26 0 -51 6q-23 5 -48 17l-12 -8q-19 -14 -26 -22q-9 -10 -9 -22t12 -19q11 -7 40 -10l184 -20q74 -7 109 -30q34 -22 34 -72q0 -33 -16 -59t-47 -48q-30 -21 -74 -33q-43 -12 -97 -12q-37 0 -75 6t-68 18q-31 12 -48 31q-18 20 -18 45q0 19 9 32t24 24
q14 10 35 18q26 10 39 14q-35 7 -54 27q-19 19 -19 47q0 32 19 51q19 20 42 36l13 9q-35 20 -59 51q-24 32 -24 77q0 38 18 68t45 51q28 22 62 32q36 11 68 11q55 0 105 -26q25 23 54 33q30 11 48 11q19 0 27 -9q8 -10 8 -23t-9 -21q-10 -8 -19 -8q-11 0 -19 4l-18 9l-18 9
q-8 4 -20 4q-16 0 -32 -11q35 -19 60 -53q24 -33 24 -78q0 -38 -18 -66q-18 -29 -46 -48q-30 -20 -63 -29q-34 -9 -68 -9zM226 166l-2 -2q20 0 41 8q20 8 35 24t24 44q9 27 9 68q0 40 -9 69t-24 47t-34 27q-20 9 -42 9q-43 0 -73 -35t-30 -116q0 -41 9 -68t23 -44
q13 -17 33 -24q18 -7 40 -7zM69 -75h2q0 -48 41 -72q40 -24 108 -24q52 0 89 9q38 9 62 24t36 33t12 34q0 17 -9 27q-10 11 -25 17q-17 6 -39 9q-30 4 -46 6l-160 18h-6h-5q-30 -10 -45 -30t-15 -51zM239 540v-1q-23 0 -38 15t-15 38t15 38t38 15t38 -15t15 -37
q0 -23 -15 -38t-38 -15z" />
    <glyph glyph-name="uni0122" unicode="&#x122;" horiz-adv-x="807" 
d="M450 -125q-2 -4 -12 -10q-9 -6 -24 -6q-18 0 -31 12t-13 33q0 23 15 35t35 12q22 0 40 -15t18 -48q0 -40 -24 -61q-25 -22 -58 -26l-3 8q31 5 47 20q15 15 15 33q0 10 -5 13zM432 -10l-1 -1q-89 0 -162 30t-126 83t-81 124q-29 73 -29 155q0 98 37 169t96 118
q58 46 131 69q74 23 142 23q52 0 83 -7q33 -7 57 -15q27 -8 44 -15q18 -7 41 -7q12 0 20 7q10 8 14 21h10v-165h-10q-21 85 -89 129t-168 44q-59 0 -111 -18q-53 -18 -92 -60t-63 -111t-24 -172q0 -104 20 -181q19 -74 57 -121t89 -68t114 -21q108 0 160 50q51 50 51 153v6
q0 30 -2 60q-1 21 -8 34q-6 13 -18 17t-33 9v8h225v-8q-20 -5 -30 -10q-12 -6 -18 -22q-6 -17 -9 -46q-3 -30 -3 -81v-52q-15 -18 -43 -40q-29 -22 -69 -42q-41 -20 -91 -33q-49 -13 -111 -13z" />
    <glyph glyph-name="uni0123" unicode="&#x123;" horiz-adv-x="476" 
d="M211 615l-3 -2q4 5 12 11q9 6 24 6q18 0 32 -12t14 -32q0 -23 -15 -35t-34 -12q-22 0 -40 15t-18 47q0 41 24 62q25 22 59 26l4 -7q-32 -6 -48 -21t-16 -32q0 -12 5 -14zM227 160l-4 -5q-25 0 -51 6q-23 5 -48 17l-12 -8q-19 -14 -26 -22q-9 -10 -9 -22t12 -19
q11 -7 40 -10l184 -20q74 -7 109 -30q34 -22 34 -72q0 -33 -16 -59t-47 -48q-30 -21 -74 -33q-43 -12 -97 -12q-38 0 -75 6q-38 6 -68 18q-31 12 -48 31q-18 20 -18 45q0 19 9 32t24 24q14 10 35 18q26 10 39 14q-34 7 -54 27q-19 19 -19 47q0 32 19 51q20 20 42 36l13 9
q-35 20 -59 51q-24 32 -24 77q0 38 18 68t45 51q28 22 62 32q36 11 68 11q55 0 105 -26q26 23 54 33q30 11 48 11q20 0 27 -9q8 -10 8 -23t-9 -21q-10 -8 -19 -8q-11 0 -19 4l-18 9l-18 9q-8 4 -20 4q-16 0 -32 -11q35 -19 60 -53q24 -33 24 -78q0 -38 -18 -66
q-18 -29 -46 -48q-30 -20 -63 -29q-35 -9 -68 -9zM223 164l-2 -2q20 0 41 8q20 8 35 24t24 44q9 27 9 68q0 40 -9 69t-24 47t-34 27t-42 9q-43 0 -73 -35t-30 -116q0 -41 9 -68t23 -44t33 -24q18 -7 40 -7zM66 -77h2q0 -48 41 -72t108 -24q51 0 89 9t62 24t36 33t12 34
q0 17 -9 27q-10 11 -25 17q-16 6 -39 9q-30 4 -46 6l-160 18h-6h-5q-30 -10 -45 -30t-15 -51z" />
    <glyph glyph-name="Hcircumflex" unicode="&#x124;" horiz-adv-x="783" 
d="M16 7l-7 -8q21 6 33 15t18 38q5 26 7 83q2 72 2 148v168q0 113 -1 149q-2 57 -7 83q-6 29 -18 38t-33 15v7h224v-7q-21 -6 -33 -15t-18 -37q-5 -26 -7 -82q-1 -36 -1 -148v-44h422v44q0 113 -1 149q-2 57 -7 83q-6 29 -18 38t-33 15v7h225v-7q-21 -6 -33 -15t-18 -37
q-5 -26 -7 -82q-1 -36 -1 -148v-168q0 -76 2 -148q1 -51 8 -82q6 -29 18 -38t33 -15v-7h-225v7q21 6 33 15t18 38q7 31 8 83q2 72 2 148v116h-422v-116q0 -76 2 -148q1 -51 8 -82q6 -29 18 -38t33 -15v-7h-224v7zM384 889l137 -115l-3 -6l-134 48l-135 -48l-3 6z" />
    <glyph glyph-name="hcircumflex" unicode="&#x125;" 
d="M20 7l-3 -2q17 5 26 12q10 8 14 24q5 17 6 48q1 21 1 84v379v79q0 27 -5 42q-5 14 -13 17q-11 4 -25 5v8l139 69v-420l38 35q17 16 37 31q21 16 40 27t42 19q20 7 45 7q28 0 52 -6q25 -6 42 -22t28 -42q10 -24 10 -63v-164v-84q0 -30 5 -48q4 -16 14 -24q9 -7 26 -12v-7
h-192v7q19 5 29 12q10 8 15 24t6 48q1 21 1 84v191q0 48 -19 67t-49 19q-29 0 -60 -19q-33 -21 -72 -55l-38 -35v-167q0 -63 1 -84q1 -31 6 -48t15 -24t29 -12v-7h-191v7zM286 923l137 -115l-3 -6l-134 48l-135 -48l-3 6z" />
    <glyph glyph-name="Hbar" unicode="&#x126;" horiz-adv-x="783" 
d="M-4 576h790v-9h-790v9zM16 7l-7 -8q21 6 33 15t18 38q5 26 7 83q2 72 2 148v168q0 113 -1 149q-2 57 -7 83q-6 29 -18 38t-33 15v7h224v-7q-21 -6 -33 -15t-18 -37q-5 -26 -7 -82q-1 -36 -1 -148v-44h422v44q0 113 -1 149q-2 57 -7 83q-6 29 -18 38t-33 15v7h225v-7
q-21 -6 -33 -15t-18 -37q-5 -26 -7 -82q-1 -36 -1 -148v-168q0 -76 2 -148q1 -51 8 -82q6 -29 18 -38t33 -15v-7h-225v7q21 6 33 15t18 38q7 31 8 83q2 72 2 148v116h-422v-116q0 -76 2 -148q1 -51 8 -82q6 -29 18 -38t33 -15v-7h-224v7z" />
    <glyph glyph-name="hbar" unicode="&#x127;" 
d="M-8 568v9h326v-9h-326zM20 7l-3 -2q17 5 26 12q10 8 14 24q5 17 6 48q1 21 1 84v379v79q0 27 -5 42q-5 14 -13 17q-11 4 -25 5v8l139 69v-420l38 35q17 16 37 31q21 16 40 27t42 19q20 7 45 7q28 0 52 -6q25 -6 42 -22t28 -42q10 -24 10 -63v-164v-84q0 -30 5 -48
q4 -16 14 -24q9 -7 26 -12v-7h-192v7q19 5 29 12q10 8 15 24t6 48q1 21 1 84v191q0 48 -19 67t-49 19q-29 0 -60 -19q-33 -21 -72 -55l-38 -35v-167q0 -63 1 -84q1 -31 6 -48t15 -24t29 -12v-7h-191v7z" />
    <glyph glyph-name="Itilde" unicode="&#x128;" horiz-adv-x="256" 
d="M16 7l-3 -3q22 6 33 16q12 10 18 39q5 26 7 82q2 72 2 148v168q0 113 -1 149q-2 57 -7 83q-6 29 -18 38t-33 15v7h224v-7q-21 -6 -33 -15t-18 -37q-5 -26 -7 -82q-1 -36 -1 -148v-168q0 -76 2 -148q1 -51 8 -82q6 -28 18 -39q11 -10 33 -16v-7h-224v7zM78 873l-2 -3
q18 0 29 -1q22 -2 34 -3q18 -2 33 -3q10 -1 26 -1q11 0 26 9t32 38l7 -2q-12 -49 -33 -76t-43 -27q-7 0 -29 2l-33 3l-33 3q-22 2 -27 2q-11 0 -26 -9q-16 -10 -35 -40l-7 2q17 55 39 81q22 25 42 25z" />
    <glyph glyph-name="itilde" unicode="&#x129;" horiz-adv-x="233" 
d="M19 7l-2 -1q18 4 27 12q10 8 14 24t6 48q1 21 1 84v76v81q0 27 -5 42q-5 14 -13 17q-11 4 -27 5v8l141 73v-301q0 -63 1 -84q2 -31 6 -48t15 -24t30 -12v-7h-194v7zM73 642l-2 -1q19 0 29 -1q20 -2 30 -4q9 -2 29 -4q9 -1 24 -1q11 0 24 9t30 38l7 -3q-12 -49 -31 -75
q-19 -27 -40 -27q-25 0 -58 6t-55 6q-12 0 -25 -9q-14 -9 -33 -40l-7 3q17 50 37 76q21 27 41 27z" />
    <glyph glyph-name="Imacron" unicode="&#x12a;" horiz-adv-x="256" 
d="M16 7l-3 -3q22 6 33 16q12 10 18 39q5 26 7 82q2 72 2 148v168q0 113 -1 149q-2 57 -7 83q-6 29 -18 38t-33 15v7h224v-7q-21 -6 -33 -15t-18 -37q-5 -26 -7 -82q-1 -36 -1 -148v-168q0 -76 2 -148q1 -51 8 -82q6 -28 18 -39q11 -10 33 -16v-7h-224v7zM240 796h-232v41
h232v-41z" />
    <glyph glyph-name="imacron" unicode="&#x12b;" horiz-adv-x="233" 
d="M19 7l-2 -1q18 4 27 12q10 8 14 24t6 48q1 21 1 84v76v81q0 27 -5 42q-5 14 -13 17q-11 4 -27 5v8l141 73v-301q0 -63 1 -84q2 -31 6 -48t15 -24t30 -12v-7h-194v7zM223 612v-41h-219v41h219z" />
    <glyph glyph-name="Ibreve" unicode="&#x12c;" horiz-adv-x="256" 
d="M16 7l-3 -3q22 6 33 16q12 10 18 39q5 26 7 82q2 72 2 148v168q0 113 -1 149q-2 57 -7 83q-6 29 -18 38t-33 15v7h224v-7q-21 -6 -33 -15t-18 -37q-5 -26 -7 -82q-1 -36 -1 -148v-168q0 -76 2 -148q1 -51 8 -82q6 -28 18 -39q11 -10 33 -16v-7h-224v7zM125 834h-3
q46 0 69 17t33 39h9q-1 -16 -8 -38q-6 -19 -20 -36q-13 -16 -33 -27q-19 -10 -48 -10t-51 11q-20 10 -34 27q-13 16 -19 36q-5 17 -7 39h9q7 -21 32 -40q24 -18 71 -18z" />
    <glyph glyph-name="ibreve" unicode="&#x12d;" horiz-adv-x="233" 
d="M19 7l-2 -1q18 4 27 12q10 8 14 24t6 48q1 21 1 84v76v81q0 27 -5 42q-5 14 -13 17q-11 4 -27 5v8l141 73v-301q0 -63 1 -84q2 -31 6 -48t15 -24t30 -12v-7h-194v7zM115 590l-3 -2q43 0 65 22q23 23 32 54h9q-2 -27 -7 -48q-6 -24 -18 -42t-32 -29t-46 -11q-28 0 -48 11
q-19 10 -33 29q-13 17 -19 42q-6 24 -6 50h9q8 -32 30 -54t67 -22z" />
    <glyph glyph-name="Iogonek" unicode="&#x12e;" horiz-adv-x="256" 
d="M16 7l-3 -3q22 6 33 16q12 10 18 39q5 26 7 82q2 72 2 148v168q0 113 -1 149q-2 57 -7 83q-6 29 -18 38t-33 15v7h224v-7q-21 -6 -33 -15t-18 -37q-5 -26 -7 -82q-1 -36 -1 -148v-168q0 -76 2 -148q1 -51 8 -82q6 -28 18 -39q11 -10 33 -16v-7h-224v7zM132 -176h-2
q-37 0 -61 18t-24 49q0 24 15 42q16 19 36 32q22 14 43 21q27 9 36 11h12q-22 -10 -42 -32q-19 -20 -19 -56q0 -22 12 -37t35 -15q13 0 23 5q9 4 17 11l5 -5l-9 -12q-5 -7 -17 -15q-11 -8 -25 -12q-17 -5 -35 -5z" />
    <glyph glyph-name="iogonek" unicode="&#x12f;" horiz-adv-x="233" 
d="M113 547q-23 0 -38 15t-15 38t15 38t38 15t38 -15t15 -38t-15 -38t-38 -15zM19 7l-2 -1q18 4 27 12q10 8 14 24t6 48q1 21 1 84v76v81q0 27 -5 42q-5 14 -13 17q-11 4 -27 5v8l141 73v-301q0 -63 1 -84q2 -31 6 -48t15 -24t30 -12v-7h-194v7zM117 -174h-2q-37 0 -61 18
t-24 49q0 24 15 42q16 19 36 32q22 14 43 21q27 9 36 11h12q-22 -10 -42 -32q-19 -20 -19 -56q0 -22 12 -37t35 -15q13 0 23 5q9 4 17 11l5 -5l-9 -12q-5 -7 -17 -15q-11 -8 -25 -12q-17 -5 -35 -5z" />
    <glyph glyph-name="Idotaccent" unicode="&#x130;" horiz-adv-x="256" 
d="M16 7l-3 -3q22 6 33 16q12 10 18 39q5 26 7 82q2 72 2 148v168q0 113 -1 149q-2 57 -7 83q-6 29 -18 38t-33 15v7h224v-7q-21 -6 -33 -15t-18 -37q-5 -26 -7 -82q-1 -36 -1 -148v-168q0 -76 2 -148q1 -51 8 -82q6 -28 18 -39q11 -10 33 -16v-7h-224v7zM125 781
q-23 0 -38 16q-15 17 -15 39q0 23 15 38t38 15t38 -15t15 -38q0 -22 -15 -39q-15 -16 -38 -16z" />
    <glyph glyph-name="dotlessi" unicode="&#x131;" horiz-adv-x="233" 
d="M19 7l-2 -1q18 4 27 12q10 8 14 24t6 48q1 21 1 84v76v81q0 27 -5 42q-5 14 -13 17q-11 4 -27 5v8l141 73v-301q0 -63 1 -84q2 -31 6 -48t15 -24t30 -12v-7h-194v7z" />
    <glyph glyph-name="IJ" unicode="&#x132;" horiz-adv-x="689" 
d="M16 7l-3 -3q22 6 33 16q12 10 18 39q5 26 7 82q2 72 2 148v168q0 113 -1 149q-2 57 -7 83q-6 29 -18 38t-33 15v7h224v-7q-21 -6 -33 -15t-18 -37q-5 -26 -7 -82q-1 -36 -1 -148v-168q0 -76 2 -148q1 -51 8 -82q6 -28 18 -39q11 -10 33 -16v-7h-224v7zM428 -13l-6 1
q-32 0 -66 8q-31 7 -55 21q-22 13 -37 32q-13 17 -13 41q0 23 14 32q13 9 30 9q20 0 33 -11q12 -11 20 -41q4 -21 9 -36q5 -16 12 -26t20 -15t33 -5q35 0 59 21t24 72v366q0 113 -1 149q-2 56 -7 82q-6 29 -18 38t-33 15v7h224v-7q-21 -6 -33 -15t-18 -37q-5 -26 -7 -82
q-1 -36 -1 -149v-284q0 -43 -15 -78q-14 -33 -41 -58q-25 -23 -58 -37q-32 -13 -69 -13z" />
    <glyph glyph-name="ij" unicode="&#x133;" horiz-adv-x="458" 
d="M113 547q-23 0 -38 15t-15 38t15 38t38 15t38 -15t15 -38t-15 -38t-38 -15zM19 7l-2 -1q18 4 27 12q10 8 14 24t6 48q1 21 1 84v76v81q0 27 -5 42q-5 14 -13 17q-11 4 -27 5v8l141 73v-301q0 -63 1 -84q2 -31 6 -48t15 -24t30 -12v-7h-194v7zM340 546q-22 0 -39 15
q-16 15 -16 38t16 38q17 15 39 15q23 0 38 -15t15 -38t-15 -38t-38 -15zM198 -140h-4q-16 0 -28 9t-12 27q0 16 9 24q10 8 23 8q12 0 21 -6q12 -8 17 -13t15 -13q7 -6 16 -6q7 0 12 5q5 3 9 10q4 6 7 21q4 17 5 36q2 30 2 59v231v81q0 30 -4 42q-5 14 -13 17q-11 4 -26 5v8
l140 73v-403q0 -60 -30 -105t-75 -78q-30 -21 -46 -26q-18 -6 -38 -6z" />
    <glyph glyph-name="Jcircumflex" unicode="&#x134;" horiz-adv-x="433" 
d="M304 897l137 -115l-3 -6l-134 48l-135 -48l-3 6zM175 -10l-6 1q-32 0 -66 8q-31 7 -55 21q-22 13 -37 32q-13 17 -13 41q0 23 14 32t30 9q20 0 33 -11q12 -11 20 -41q5 -21 9 -36q5 -16 12 -26t20 -15t33 -5q35 0 59 21t24 72v366q0 113 -1 149q-2 56 -7 82q-6 29 -18 38
t-33 15v7h224v-7q-21 -6 -33 -15t-18 -37q-5 -26 -7 -82q-1 -36 -1 -149v-284q0 -44 -15 -78q-14 -33 -41 -58q-25 -23 -58 -37q-32 -13 -69 -13z" />
    <glyph glyph-name="jcircumflex" unicode="&#x135;" horiz-adv-x="229" 
d="M-29 -139l-4 2q-16 0 -28 9t-12 27q0 17 9 24q10 8 23 8q12 0 21 -6q12 -8 17 -13t15 -13q7 -6 16 -6q5 0 13 5q5 3 9 10q4 6 7 21q2 10 4 36q2 30 2 57v231v81q0 30 -4 42q-5 14 -13 17q-11 4 -26 5v8l140 73v-403q0 -60 -30 -105t-75 -78q-30 -21 -46 -26
q-18 -6 -38 -6zM112 714l120 -181l-6 -5l-114 94l-114 -94l-6 5z" />
    <glyph glyph-name="uni0136" unicode="&#x136;" horiz-adv-x="703" 
d="M369 -125q-2 -4 -12 -10q-9 -6 -24 -6q-17 0 -31 12q-13 12 -13 33q0 23 15 35t35 12q22 0 40 -15t18 -48q0 -40 -24 -61q-25 -22 -58 -26l-3 8q32 5 47 20t15 33q0 10 -5 13zM16 7l-6 -5q21 6 33 15t18 38q5 26 7 83q2 72 2 148v168q0 113 -1 149q-2 57 -7 83
q-6 29 -18 38t-33 15v7h224v-7q-21 -6 -33 -15t-18 -37q-5 -26 -7 -82q-1 -36 -1 -148v-40l320 238q50 37 57 57t-36 30v7h141v-7q-18 -5 -23 -7q-7 -3 -28 -14q-17 -9 -39 -24q-12 -8 -54 -38l-255 -190l347 -389q4 -5 13 -14.5t13 -13.5q10 -12 21 -21t21 -15q9 -5 22 -10
v-7h-219v7q35 8 29 28q-6 21 -35 53l-292 326v-123q0 -76 2 -148q1 -51 8 -82q6 -29 18 -38t33 -15v-7h-224v7z" />
    <glyph glyph-name="uni0137" unicode="&#x137;" horiz-adv-x="508" 
d="M284 -125q-2 -4 -12 -10q-9 -6 -24 -6q-18 0 -31 12t-13 33q0 23 15 35t35 12q22 0 40 -15t18 -48q0 -40 -24 -61q-25 -22 -58 -26l-3 8q31 5 47 20q15 15 15 33q0 10 -5 13zM20 7h-3q17 5 26 12q10 8 14 24q5 17 6 48q1 21 1 84v381v78q0 27 -5 42q-5 14 -13 17
q-11 4 -25 5v8l139 69v-525l202 151q32 23 27 38t-30 18v7h126v-7q-24 -7 -51 -21q-26 -13 -64 -42l-139 -104l222 -241q22 -25 35 -33t23 -11v-7h-192v7q23 3 27 16t-21 42l-165 178v-66q0 -63 1 -84q1 -31 6 -48t15 -24t29 -12v-7h-191v7z" />
    <glyph glyph-name="Lacute" unicode="&#x139;" horiz-adv-x="607" 
d="M29 784l153 96q10 8 21 12q12 5 24 5q15 0 24 -10q9 -11 9 -22q0 -17 -12 -29t-40 -18l-176 -40zM17 5l-5 -5q21 6 33 15t18 38q5 26 7 83q2 72 2 148v168q0 113 -1 149q-2 57 -7 83q-6 29 -18 38t-33 15v7h226v-7q-21 -6 -33 -15t-18 -37q-5 -26 -7 -82q-1 -36 -1 -148
v-450h209q41 0 76 5q32 5 54 19q23 16 38 42q16 29 29 72h11l-21 -128q-2 -13 -6 -15q-6 -2 -12 -2h-541v7z" />
    <glyph glyph-name="lacute" unicode="&#x13a;" horiz-adv-x="235" 
d="M16 784l153 96q11 8 21 12q12 5 24 5q15 0 24 -10q9 -11 9 -22q0 -17 -12 -29t-40 -18l-176 -40zM21 5l-2 -1q18 4 27 12q10 8 14 24t6 48q1 21 1 84v372v83q0 28 -5 45q-4 15 -14 18q-11 4 -27 5v8l142 69v-599q0 -63 1 -84q2 -31 6 -48t15 -24t30 -12v-7h-194v7z" />
    <glyph glyph-name="uni013B" unicode="&#x13b;" horiz-adv-x="607" 
d="M346 -125q-2 -4 -12 -10q-9 -6 -24 -6q-18 0 -31 12t-13 33q0 23 15 35t35 12q22 0 40 -15t18 -48q0 -40 -24 -61q-25 -22 -58 -26l-3 8q31 5 47 20q15 15 15 33q0 10 -5 13zM16 7l-5 -5q21 6 33 15t18 38q5 26 7 83q2 72 2 148v168q0 113 -1 149q-2 57 -7 83
q-6 29 -18 38t-33 15v7h226v-7q-21 -6 -33 -15t-18 -37q-5 -26 -7 -82q-1 -36 -1 -148v-450h209q41 0 76 5q32 5 54 19q23 16 38 42q16 29 29 72h11l-21 -128q-1 -13 -6 -15q-6 -2 -12 -2h-541v7z" />
    <glyph glyph-name="uni013C" unicode="&#x13c;" horiz-adv-x="235" 
d="M141 -125q-2 -4 -12 -10q-9 -6 -24 -6q-17 0 -31 12q-13 12 -13 33q0 23 15 35t35 12q22 0 40 -15t18 -48q0 -40 -24 -61q-25 -22 -58 -26l-3 8q31 5 47 20q15 15 15 33q0 10 -5 13zM20 7l-2 -1q18 4 27 12q10 8 14 24q5 16 6 48q1 21 1 84v372v83q0 28 -5 45
q-4 15 -14 18q-11 4 -27 5v8l142 69v-599q0 -63 1 -84q1 -31 6 -48t15 -24t30 -12v-7h-194v7z" />
    <glyph glyph-name="Lcaron" unicode="&#x13d;" horiz-adv-x="607" 
d="M267 568l7 133q4 60 39 60q15 0 24 -9t9 -24t-11 -39l-61 -123zM14 6l-5 -5q21 6 33 15t18 38q5 26 7 83q2 72 2 148v168q0 113 -1 149q-2 57 -7 83q-6 29 -18 38t-33 15v7h226v-7q-21 -6 -33 -15t-18 -37q-5 -26 -7 -82q-1 -36 -1 -148v-450h209q41 0 76 5q32 5 54 19
q23 16 38 42q16 29 29 72h11l-21 -128q-1 -14 -6 -15q-6 -2 -12 -2h-541v7z" />
    <glyph glyph-name="lcaron" unicode="&#x13e;" horiz-adv-x="235" 
d="M213 570l7 133q4 60 39 60q15 0 24 -9t9 -24t-11 -39l-61 -123zM18 6l-2 -1q18 5 27 12q10 8 14 24q5 17 6 48q1 21 1 84v372v83q0 28 -5 45q-4 15 -14 18q-11 4 -27 5v8l142 69v-599q0 -63 1 -84q1 -32 6 -48t15 -24t30 -12v-7h-194v7z" />
    <glyph glyph-name="Ldot" unicode="&#x13f;" horiz-adv-x="607" 
d="M432 333v-1q-25 0 -41 16q-17 17 -17 42t17 42t41 17q26 0 42 -16q17 -17 17 -42t-17 -42q-16 -16 -42 -16zM16 6l-5 -5q21 6 33 15t18 38q5 26 7 83q2 72 2 148v168q0 113 -1 149q-2 57 -7 83q-6 29 -18 38t-33 15v7h226v-7q-21 -6 -33 -15t-18 -37q-5 -26 -7 -82
q-1 -36 -1 -148v-450h209q41 0 76 5q32 5 54 19q23 16 38 42q16 29 29 72h11l-21 -128q-1 -14 -6 -15q-6 -2 -12 -2h-541v7z" />
    <glyph glyph-name="ldot" unicode="&#x140;" horiz-adv-x="301" 
d="M266 310l-1 -1q-25 0 -41 16q-17 17 -17 42t17 42t41 17q26 0 42 -16q17 -17 17 -42q0 -26 -16 -42t-42 -16zM19 6l-2 -1q18 5 27 12q10 8 14 24q4 17 6 48q1 21 1 84v372v83q0 28 -5 45q-4 15 -14 18q-11 4 -27 5v8l142 69v-599q0 -63 1 -84q2 -32 6 -48t15 -24t30 -12
v-7h-194v7z" />
    <glyph glyph-name="Lslash" unicode="&#x141;" horiz-adv-x="607" 
d="M-14 258l-4 8l410 215l4 -8zM16 7l-5 -5q21 6 33 15t18 38q5 26 7 83q2 72 2 148v168q0 113 -1 149q-2 57 -7 83q-6 29 -18 38t-33 15v7h226v-7q-21 -6 -33 -15t-18 -37q-5 -26 -7 -82q-1 -36 -1 -148v-450h209q41 0 76 5q32 5 54 19q23 16 38 42q16 29 29 72h11
l-21 -128q-1 -13 -6 -15q-6 -2 -12 -2h-541v7z" />
    <glyph glyph-name="lslash" unicode="&#x142;" horiz-adv-x="235" 
d="M-1 304l-6 7l243 168l6 -7zM20 7l-2 -1q18 4 27 12q10 8 14 24q5 16 6 48q1 21 1 84v372v83q0 28 -5 45q-4 15 -14 18q-11 4 -27 5v8l142 69v-599q0 -63 1 -84q1 -31 6 -48t15 -24t30 -12v-7h-194v7z" />
    <glyph glyph-name="Nacute" unicode="&#x143;" horiz-adv-x="732" 
d="M311 784l153 96q10 8 21 12q12 5 24 5q15 0 24 -10q9 -11 9 -22q0 -17 -12 -29t-40 -18l-176 -40zM17 5l-3 -1q21 8 33 18t18 39q5 26 7 83q2 72 2 147v164q0 112 -1 148q-2 57 -7 83q-6 29 -18 38t-33 15v7h172q9 0 16 -5t23 -27l425 -560v297q0 112 -1 148q-1 51 -8 82
q-6 29 -19 39t-36 18v7h135v-7q-21 -8 -33 -18t-18 -39q-5 -26 -7 -82q-1 -36 -1 -148v-458h-21l-556 732v-434q0 -75 2 -147q1 -51 8 -82q6 -28 20 -39t36 -18v-7h-135v7z" />
    <glyph glyph-name="nacute" unicode="&#x144;" horiz-adv-x="557" 
d="M230 535l98 139q11 17 23 27q11 9 26 9q17 0 26 -10t9 -25t-9 -26t-23 -20l-146 -100zM20 7l-3 -2q17 5 26 12q10 8 14 24q5 17 6 48q1 21 1 84v76v80q0 27 -5 42q-5 14 -14 17q-11 4 -26 5v8l141 73v-121l37 34q17 16 37 31q21 16 40 27t42 19q20 7 45 7q29 0 53 -6
q25 -6 41 -22q17 -17 27 -42q10 -24 10 -63v-164v-84q0 -30 5 -48q4 -16 14 -24q9 -7 26 -12v-7h-192v7q19 5 29 12q10 8 15 24t6 48q1 21 1 84v191q0 48 -19 67t-48 19t-60 -19q-33 -21 -72 -55l-37 -34v-168q0 -63 1 -84q1 -31 6 -48t15 -24t29 -12v-7h-191v7z" />
    <glyph glyph-name="uni0145" unicode="&#x145;" horiz-adv-x="732" 
d="M377 -125q-2 -4 -12 -10q-9 -6 -24 -6q-17 0 -31 12q-13 12 -13 33q0 23 15 35t35 12q22 0 40 -15t18 -48q0 -40 -24 -61q-25 -22 -58 -26l-3 8q31 5 47 20q15 15 15 33q0 10 -5 13zM16 7l-3 -1q21 8 33 18t18 39q5 26 7 83q2 72 2 147v164q0 112 -1 148q-2 57 -7 83
q-6 29 -18 38t-33 15v7h172q9 0 16 -5t23 -27l425 -560v297q0 112 -1 148q-1 51 -8 82q-6 29 -19 39q-14 10 -36 18v7h135v-7q-21 -8 -33 -18t-18 -39q-5 -26 -7 -82q-1 -36 -1 -148v-458h-21l-556 732v-434q0 -75 2 -147q1 -51 8 -82q6 -28 20 -39q13 -11 36 -18v-7h-135v7
z" />
    <glyph glyph-name="uni0146" unicode="&#x146;" horiz-adv-x="557" 
d="M302 -125q-2 -4 -12 -10q-9 -6 -24 -6q-18 0 -31 12t-13 33q0 23 15 35t35 12q22 0 40 -15t18 -48q0 -40 -24 -61q-25 -22 -58 -26l-3 8q31 5 47 20q15 15 15 33q0 10 -5 13zM20 7l-3 -2q17 5 26 12q10 8 14 24q5 17 6 48q1 21 1 84v76v80q0 27 -5 42q-5 14 -14 17
q-11 4 -26 5v8l141 73v-121l37 34q17 16 37 31q21 16 40 27t42 19q20 7 45 7q29 0 53 -6q25 -6 41 -22q17 -17 27 -42q10 -24 10 -63v-164v-84q0 -30 5 -48q4 -16 14 -24q9 -7 26 -12v-7h-192v7q19 5 29 12q10 8 15 24t6 48q1 21 1 84v191q0 48 -19 67t-48 19t-60 -19
q-33 -21 -72 -55l-37 -34v-168q0 -63 1 -84q1 -31 6 -48t15 -24t29 -12v-7h-191v7z" />
    <glyph glyph-name="Ncaron" unicode="&#x147;" horiz-adv-x="732" 
d="M272 901l135 -48l134 48l3 -6l-137 -115l-138 115zM16 7l-3 -1q21 8 33 18t18 39q5 26 7 83q2 72 2 147v164q0 112 -1 148q-2 57 -7 83q-6 29 -18 38t-33 15v7h172q9 0 16 -5t23 -27l425 -560v297q0 112 -1 148q-1 51 -8 82q-6 29 -19 39q-14 10 -36 18v7h135v-7
q-21 -8 -33 -18t-18 -39q-5 -26 -7 -82q-1 -36 -1 -148v-458h-21l-556 732v-434q0 -75 2 -147q1 -51 8 -82q6 -28 20 -39q13 -11 36 -18v-7h-135v7z" />
    <glyph glyph-name="ncaron" unicode="&#x148;" horiz-adv-x="557" 
d="M167 721l114 -93l114 93l6 -4l-120 -182l-120 182zM20 7l-3 -2q17 5 26 12q10 8 14 24q5 17 6 48q1 21 1 84v76v80q0 27 -5 42q-5 14 -14 17q-11 4 -26 5v8l141 73v-121l37 34q17 16 37 31q21 16 40 27t42 19q20 7 45 7q29 0 53 -6q25 -6 41 -22q17 -17 27 -42
q10 -24 10 -63v-164v-84q0 -30 5 -48q4 -16 14 -24q9 -7 26 -12v-7h-192v7q19 5 29 12q10 8 15 24t6 48q1 21 1 84v191q0 48 -19 67t-48 19t-60 -19q-33 -21 -72 -55l-37 -34v-168q0 -63 1 -84q1 -31 6 -48t15 -24t29 -12v-7h-191v7z" />
    <glyph glyph-name="napostrophe" unicode="&#x149;" horiz-adv-x="557" 
d="M20 7l-3 -2q17 5 26 12q10 8 14 24q5 17 6 48q1 21 1 84v76v80q0 27 -5 42q-5 14 -14 17q-11 4 -26 5v8l141 73v-121l37 34q17 16 37 31q21 16 40 27t42 19q20 7 45 7q29 0 53 -6q25 -6 41 -22q17 -17 27 -42q10 -24 10 -63v-164v-84q0 -30 5 -48q4 -16 14 -24
q9 -7 26 -12v-7h-192v7q19 5 29 12q10 8 15 24t6 48q1 21 1 84v191q0 48 -19 67t-48 19t-60 -19q-33 -21 -72 -55l-37 -34v-168q0 -63 1 -84q1 -31 6 -48t15 -24t29 -12v-7h-191v7zM39 677l-1 -2q-5 -8 -13 -12q-10 -5 -24 -5q-19 0 -33 14t-14 36q0 24 16 39q17 15 37 15
q23 0 42 -18q20 -18 20 -57q0 -47 -24 -80t-62 -53l-4 7q32 19 51 44q18 24 18 48q0 17 -9 24z" />
    <glyph glyph-name="Eng" unicode="&#x14a;" horiz-adv-x="732" 
d="M16 7l-6 -1q21 8 33 18t18 39q5 26 7 83q2 72 2 147v164q0 112 -1 148q-2 57 -7 83q-6 29 -18 38t-33 15v7h172q9 0 16 -5t23 -27l425 -547v284q0 112 -1 148q-1 51 -8 82q-6 29 -19 39t-36 18v7h135v-7q-21 -8 -33 -18t-18 -39q-5 -26 -7 -82q-1 -36 -1 -148v-465
q0 -60 -39 -92q-40 -32 -99 -32q-38 0 -66 7t-51 20q-20 12 -33 29q-12 16 -12 36t12 29t29 9q22 0 32 -10q11 -11 17 -39q5 -19 9 -33q4 -13 12 -22q7 -8 20 -13q11 -4 32 -4q57 0 93 30t36 87v4l-566 733v-434q0 -75 2 -147q1 -51 8 -82q6 -28 20 -39q13 -11 36 -18v-7
h-135v7z" />
    <glyph glyph-name="eng" unicode="&#x14b;" horiz-adv-x="557" 
d="M20 7l-3 -2q17 5 26 12q10 8 14 24q5 17 6 48q1 21 1 84v76v80q0 27 -5 42q-5 14 -14 17q-11 4 -26 5v8l141 73v-121l37 34q17 16 37 31q21 16 40 27t42 19q20 7 45 7q29 0 53 -6q25 -6 41 -22q17 -17 27 -42q10 -24 10 -63v-266q0 -60 -30 -105q-30 -46 -76 -78
q-28 -20 -45 -26q-18 -6 -38 -6q-17 0 -30 9t-13 27q0 17 10 24q11 8 24 8q12 0 21 -6t16 -13q5 -5 15 -13q8 -6 15 -6t12 5q5 3 9 10q4 6 7 21q4 17 5 36q2 30 2 59v347q0 48 -19 67t-48 19t-60 -19q-33 -21 -72 -55l-37 -34v-168q0 -63 1 -84q1 -31 6 -48t15 -24t29 -12
v-7h-191v7z" />
    <glyph glyph-name="Omacron" unicode="&#x14c;" horiz-adv-x="845" 
d="M540 799h-232v41h232v-41zM422 -10l-2 -1q-75 0 -145 30t-124 81q-53 50 -85 122t-32 153q0 79 32 151q32 71 86 122t124 81q71 30 145 30q77 0 147 -30t124 -81q55 -52 86 -121q32 -72 32 -151q0 -81 -32 -153t-85 -122q-54 -51 -124 -81q-71 -30 -147 -30zM420 -3h-5
q53 0 103 21t87 66t60 117q22 70 22 174q0 101 -23 173q-23 71 -60 116q-38 45 -86 65q-49 20 -100 20q-49 0 -100 -20q-49 -19 -87 -65q-37 -45 -60 -116q-23 -72 -23 -173q0 -100 23 -174q23 -72 60 -117t87 -66t102 -21z" />
    <glyph glyph-name="omacron" unicode="&#x14d;" 
d="M389 613v-41h-219v41h219zM279 -11q-41 0 -84 15t-81 45q-38 31 -62 75q-24 45 -24 107q0 59 24 106q24 46 62 78q38 31 81 48q42 16 84 16t84 -16q43 -17 81 -48q38 -32 62 -78t24 -106q0 -62 -24 -107q-24 -44 -62 -75q-38 -30 -81 -45t-84 -15zM279 -2v-1q30 0 57 12
t48 39t33 72t12 112q0 65 -12 110q-12 46 -33 74t-48 42q-26 13 -57 13t-58 -13q-28 -13 -49 -42t-33 -73q-12 -45 -12 -110q0 -67 12 -112t33 -72t49 -39q29 -12 58 -12z" />
    <glyph glyph-name="Obreve" unicode="&#x14e;" horiz-adv-x="845" 
d="M425 837h-3q46 0 69 17q23 16 33 39h9q-1 -16 -8 -38q-6 -19 -20 -36q-13 -17 -33 -27q-19 -10 -48 -10t-51 11q-20 10 -34 27q-13 16 -19 36q-5 17 -7 39h9q7 -21 32 -40q24 -18 71 -18zM419 -10l-2 -1q-75 0 -145 30t-124 81q-53 50 -85 122t-32 153q0 79 32 151
q32 71 86 122t124 81q71 30 145 30q76 0 147 -30q70 -30 124 -81q55 -52 86 -121q32 -72 32 -151q0 -81 -32 -153t-85 -122q-54 -51 -124 -81t-147 -30zM417 -3h-5q54 0 103 21t87 66t60 117q22 70 22 174q0 101 -23 173q-23 71 -60 116q-38 45 -86 65q-49 20 -100 20
q-49 0 -100 -20q-49 -19 -87 -65q-37 -45 -60 -116q-23 -72 -23 -173q0 -100 23 -174q22 -72 60 -117t87 -66t102 -21z" />
    <glyph glyph-name="obreve" unicode="&#x14f;" 
d="M279 -11q-41 0 -84 15t-81 45q-38 31 -62 75q-24 45 -24 107q0 59 24 106q24 46 62 78q38 31 81 48q42 16 84 16t84 -16q43 -17 81 -48q38 -32 62 -78t24 -106q0 -62 -24 -107q-24 -44 -62 -75q-38 -30 -81 -45t-84 -15zM279 -2v-1q30 0 57 12t48 39t33 72t12 112
q0 65 -12 110q-12 46 -33 74t-48 42q-26 13 -57 13t-58 -13q-28 -13 -49 -42t-33 -73q-12 -45 -12 -110q0 -67 12 -112t33 -72t49 -39q29 -12 58 -12zM280 590l-3 -2q43 0 65 22q23 23 32 54h9q-2 -27 -7 -48q-6 -24 -18 -42t-32 -29t-46 -11q-28 0 -48 11q-19 10 -33 29
q-13 17 -19 42q-6 24 -6 50h9q7 -32 30 -54q22 -22 67 -22z" />
    <glyph glyph-name="Ohungarumlaut" unicode="&#x150;" horiz-adv-x="845" 
d="M469 789l65 82q14 18 24 30t27 12t24 -9q7 -8 7 -20q0 -23 -29 -38l-113 -62zM320 787l66 84q20 24 24 29q10 12 27 12t24 -9q7 -8 7 -20q0 -23 -28 -39l-115 -62zM419 -13l-2 -1q-75 0 -145 30t-124 81q-53 50 -85 122t-32 153q0 79 32 151q32 71 86 122t124 81
q71 30 145 30q76 0 147 -30q70 -30 124 -81q55 -52 86 -121q32 -72 32 -151q0 -81 -32 -153t-85 -122q-54 -51 -124 -81t-147 -30zM417 -6h-5q54 0 103 21t87 66t60 117q22 70 22 174q0 101 -23 173q-23 71 -60 116q-38 45 -86 65q-49 20 -100 20q-49 0 -100 -20
q-49 -19 -87 -65q-37 -45 -60 -116q-23 -72 -23 -173q0 -100 23 -174q22 -72 60 -117t87 -66t102 -21z" />
    <glyph glyph-name="ohungarumlaut" unicode="&#x151;" 
d="M335 545l34 138q6 22 15 34t26 12q16 0 24 -9q8 -10 8 -23q0 -10 -4 -18q-6 -12 -10 -18l-87 -119zM205 544l36 139q5 20 14 34q7 12 26 12q17 0 24 -9q7 -8 7 -23q0 -19 -15 -37l-86 -119zM277 -12q-41 0 -84 15t-81 45q-38 31 -62 75q-24 45 -24 107q0 60 24 106t62 78
t81 48q42 16 84 16t84 -16q43 -16 81 -48t62 -78q24 -47 24 -106q0 -62 -24 -107q-24 -44 -62 -75q-38 -30 -81 -45t-84 -15zM277 -3v-1q30 0 57 12t48 39t33 72t12 112q0 65 -12 110q-12 46 -33 74q-21 29 -48 42q-26 13 -57 13t-58 -13q-28 -13 -49 -42t-33 -73
q-12 -45 -12 -110q0 -67 12 -112t33 -72t49 -39q29 -12 58 -12z" />
    <glyph glyph-name="OE" unicode="&#x152;" horiz-adv-x="1132" 
d="M1053 750l-1 -2q8 0 12 -3t7 -19l17 -98h-10q-11 34 -25 54q-15 21 -37 33q-24 13 -55 17q-37 5 -82 5h-196v-322h88q39 0 59 7q22 8 32 18t15 26q3 10 7 30h9v-170h-9q-4 20 -7 30q-5 16 -15 26q-11 11 -31 18t-59 7h-88v-401h217q50 0 83 3t56 17t36 37q14 25 26 65h9
l-12 -113q-1 -13 -6 -15q-6 -2 -12 -2h-596q-97 0 -181 26q-81 25 -142 74q-60 48 -93 119t-33 159q0 84 33 153q32 67 92 118q58 49 141 76t182 27h569zM484 739l-4 -4q-80 0 -141 -18q-62 -18 -105 -61q-44 -44 -66 -112q-22 -67 -22 -172q0 -104 24 -174t68 -114
q43 -43 105 -61q61 -18 137 -18q34 0 54 9q19 9 28 39q8 28 10 87q2 76 2 153v156q0 117 -1 155q-2 59 -10 87q-9 30 -27 39t-52 9z" />
    <glyph glyph-name="oe" unicode="&#x153;" horiz-adv-x="890" 
d="M277 -11l2 -1q-39 0 -82 15t-81 45q-38 31 -62 75q-24 45 -24 107q0 60 24 106t62 78t81 48q42 16 83 16q28 0 53 -7q27 -7 54 -21q28 -14 51 -34q24 -21 42 -48q17 28 39 47q23 19 48 33q27 15 52 20q27 6 51 6q86 0 138 -42q53 -42 63 -106h-332q-9 -40 -9 -93
q0 -55 14 -99q13 -40 38 -70q24 -28 59 -42q33 -13 75 -13q48 0 80 13q34 14 62 36l6 -6q-33 -28 -73 -44q-43 -17 -103 -17t-118 26q-56 25 -91 78q-19 -28 -42 -47q-24 -20 -51 -33q-29 -15 -55 -20q-29 -6 -54 -6zM279 -3v-1q30 0 57 12t48 39t33 72t12 112q0 65 -12 110
q-12 46 -33 74q-21 29 -48 42q-26 13 -57 13q-30 0 -56 -13q-27 -13 -48 -42t-33 -73q-12 -45 -12 -110q0 -67 12 -112t33 -72t48 -39t56 -12zM670 465l-2 -1q-39 0 -75 -30q-37 -31 -53 -99h243q-5 67 -33 98q-29 32 -80 32z" />
    <glyph glyph-name="Racute" unicode="&#x154;" horiz-adv-x="712" 
d="M248 784l153 96q11 8 21 12q12 5 24 5q15 0 24 -10q9 -11 9 -22q0 -17 -12 -29t-40 -18l-176 -40zM17 5l-4 -9q21 6 33 15t18 38q5 26 7 83q2 72 2 148v168q0 113 -1 149q-2 57 -7 83q-6 29 -18 38t-33 15v7h309q94 0 155 -13q64 -14 102 -37q39 -24 57 -57t18 -71
q0 -53 -25 -88q-26 -36 -67 -60q-41 -23 -96 -34q-51 -10 -114 -10h-42q77 -10 126 -56q48 -45 71 -131q10 -37 24 -69q14 -33 31 -54q18 -22 39 -36q20 -13 48 -13t43 9q14 8 27 23l5 -6q-13 -17 -39 -33q-25 -16 -70 -16q-35 0 -68 9q-34 9 -62 30t-51 59t-36 96
q-16 66 -30 106q-14 39 -31 58q-18 20 -43 24q-28 5 -66 5h-48v-87q0 -76 2 -148q1 -51 8 -82q6 -29 18 -38t33 -15v-7h-225v7zM178 730l-1 -355h174q104 0 153 43t49 124q0 42 -10 75q-11 35 -36 60t-72 39q-48 14 -117 14h-140z" />
    <glyph glyph-name="racute" unicode="&#x155;" horiz-adv-x="371" 
d="M162 535l98 139q11 17 23 27q11 9 26 9q17 0 26 -10t9 -25t-9 -26t-23 -20l-146 -100zM20 7l-3 -1q17 5 26 12q10 8 14 24q5 16 6 48q1 21 1 84v64v86q0 28 -5 45q-4 15 -14 18q-11 4 -26 5v8l141 73v-125l43 47q37 41 61 57q25 16 54 16q25 0 36 -11q10 -10 10 -27
q0 -20 -10 -30t-27 -10q-13 0 -22 4q-11 5 -19 10q-6 4 -18 10q-8 4 -18 4q-12 0 -22 -7q-9 -6 -25 -24l-43 -47v-165q0 -63 1 -84q1 -31 6 -48t15 -24t30 -12v-7h-192v7z" />
    <glyph glyph-name="uni0156" unicode="&#x156;" horiz-adv-x="712" 
d="M369 -125q-2 -4 -12 -10q-9 -6 -24 -6q-17 0 -31 12q-13 12 -13 33q0 23 15 35t35 12q22 0 40 -15t18 -48q0 -40 -24 -61q-25 -22 -58 -26l-3 8q32 5 47 20t15 33q0 10 -5 13zM16 7l-4 -9q21 6 33 15t18 38q5 26 7 83q2 72 2 148v168q0 113 -1 149q-2 57 -7 83
q-6 29 -18 38t-33 15v7h309q94 0 155 -13q64 -14 102 -37q39 -24 57 -57t18 -71q0 -53 -25 -88q-26 -36 -67 -60q-41 -23 -96 -34q-51 -10 -114 -10h-42q77 -10 126 -56q48 -45 71 -131q11 -37 24 -69q14 -33 31 -54q18 -22 39 -36q20 -13 48 -13t43 9q14 8 27 23l5 -6
q-14 -17 -39 -33t-70 -16q-35 0 -68 9q-34 9 -62 30t-51 59q-22 38 -36 96q-16 66 -30 106q-14 39 -31 58q-18 20 -43 24q-28 5 -66 5h-48v-87q0 -76 2 -148q1 -51 8 -82q6 -29 18 -38t33 -15v-7h-225v7zM177 732l-1 -355h174q104 0 153 43t49 124q0 42 -10 75
q-10 35 -36 60t-72 39q-48 14 -117 14h-140z" />
    <glyph glyph-name="uni0157" unicode="&#x157;" horiz-adv-x="371" 
d="M138 -125q-2 -4 -12 -10q-9 -6 -24 -6q-17 0 -31 12q-13 12 -13 33q0 23 15 35t35 12q22 0 40 -15t18 -48q0 -40 -24 -61q-25 -22 -58 -26l-3 8q31 5 47 20q15 15 15 33q0 10 -5 13zM20 7l-3 -1q17 5 26 12q10 8 14 24q5 16 6 48q1 21 1 84v64v86q0 28 -5 45
q-4 15 -14 18q-11 4 -26 5v8l141 73v-125l43 47q37 41 61 57q25 16 54 16q25 0 36 -11q10 -10 10 -27q0 -20 -10 -30t-27 -10q-13 0 -22 4q-11 5 -19 10q-6 4 -18 10q-8 4 -18 4q-12 0 -22 -7q-9 -6 -25 -24l-43 -47v-165q0 -63 1 -84q1 -31 6 -48t15 -24t30 -12v-7h-192v7z
" />
    <glyph glyph-name="Rcaron" unicode="&#x158;" horiz-adv-x="712" 
d="M210 901l135 -48l134 48l3 -6l-137 -115l-138 115zM16 7l-4 -9q21 6 33 15t18 38q5 26 7 83q2 72 2 148v168q0 113 -1 149q-2 57 -7 83q-6 29 -18 38t-33 15v7h309q94 0 155 -13q64 -14 102 -37q39 -24 57 -57t18 -71q0 -53 -25 -88q-26 -36 -67 -60q-41 -23 -96 -34
q-51 -10 -114 -10h-42q77 -10 126 -56q48 -45 71 -131q11 -37 24 -69q14 -33 31 -54q18 -22 39 -36q20 -13 48 -13t43 9q14 8 27 23l5 -6q-14 -17 -39 -33t-70 -16q-35 0 -68 9q-34 9 -62 30t-51 59q-22 38 -36 96q-16 66 -30 106q-14 39 -31 58q-18 20 -43 24q-28 5 -66 5
h-48v-87q0 -76 2 -148q1 -51 8 -82q6 -29 18 -38t33 -15v-7h-225v7zM177 732l-1 -355h174q104 0 153 43t49 124q0 42 -10 75q-10 35 -36 60t-72 39q-48 14 -117 14h-140z" />
    <glyph glyph-name="rcaron" unicode="&#x159;" horiz-adv-x="371" 
d="M99 721l114 -93l114 93l6 -4l-120 -182l-120 182zM20 7l-3 -1q17 5 26 12q10 8 14 24q5 16 6 48q1 21 1 84v64v86q0 28 -5 45q-4 15 -14 18q-11 4 -26 5v8l141 73v-125l43 47q37 41 61 57q25 16 54 16q25 0 36 -11q10 -10 10 -27q0 -20 -10 -30t-27 -10q-13 0 -22 4
q-11 5 -19 10q-6 4 -18 10q-8 4 -18 4q-12 0 -22 -7q-9 -6 -25 -24l-43 -47v-165q0 -63 1 -84q1 -31 6 -48t15 -24t30 -12v-7h-192v7z" />
    <glyph glyph-name="Sacute" unicode="&#x15a;" horiz-adv-x="609" 
d="M311 -8l2 2q-56 0 -92 9q-32 8 -61 20q-10 4 -26 11t-20 9q-21 9 -46 9q-22 0 -30 -23h-11v175h11q4 -43 26 -82q21 -37 57 -64t84 -42t107 -15q50 0 86 12q37 12 59 33q23 21 33 51q11 31 11 65q0 38 -12 65t-39 48q-29 22 -70 38q-46 17 -106 36q-52 16 -97 36
q-41 18 -73 44q-29 23 -46 57q-16 32 -16 78q0 42 18 78t50 62q33 26 75 41q43 15 96 15q51 0 82 -7q37 -8 56 -16q32 -13 39 -16q15 -7 35 -7q26 0 32 24h10v-139h-10q-16 71 -81 112q-64 40 -162 40q-86 0 -129 -36q-44 -36 -44 -97q0 -28 9 -51q9 -22 32 -42
q22 -19 62 -36q39 -17 96 -33q63 -19 105 -34q51 -19 87 -43q39 -26 59 -61q21 -36 21 -88q0 -51 -20 -96q-19 -43 -56 -75q-35 -31 -85 -49q-49 -18 -108 -18zM207 786l153 96q10 8 21 12q12 5 24 5q15 0 24 -10q9 -11 9 -22q0 -17 -12 -29t-40 -18l-176 -40z" />
    <glyph glyph-name="sacute" unicode="&#x15b;" horiz-adv-x="417" 
d="M148 535l98 139q11 17 23 27q11 9 26 9q17 0 26 -10t9 -25t-9 -26t-23 -20l-146 -100zM202 0l-5 -8q32 0 58 8q24 8 39 21q14 12 22 32q7 17 7 38q0 24 -7 38q-8 15 -24 27t-42 21q-29 10 -63 17q-39 8 -68 18q-30 10 -51 27q-22 17 -32 39q-11 24 -11 54q0 31 14 57
q13 25 36 43t54 27t68 9q31 0 48 -4q22 -5 35 -9l27 -9q11 -4 24 -4q15 0 18 16h9v-103h-9q-19 55 -56 81t-95 26q-56 0 -88 -21q-31 -21 -31 -62q0 -40 34 -58q33 -17 99 -31q42 -9 75 -21t55 -28t34 -39q12 -22 12 -56t-15 -63q-15 -28 -40 -49t-60 -33t-73 -12
q-32 0 -54 6q-25 7 -39 13q-6 3 -16 7t-14 6q-13 6 -25 6q-17 0 -20 -17h-10v129h9q16 -67 58 -103t113 -36z" />
    <glyph glyph-name="Scircumflex" unicode="&#x15c;" horiz-adv-x="609" 
d="M301 897l137 -115l-3 -6l-134 48l-135 -48l-3 6zM311 -8l2 2q-56 0 -92 9q-32 8 -61 20q-10 4 -26 11t-20 9q-21 9 -46 9q-22 0 -30 -23h-11v175h11q4 -43 26 -82q21 -37 57 -64t84 -42t107 -15q50 0 86 12q37 12 59 33q23 21 33 51q11 31 11 65q0 38 -12 65t-39 48
q-29 22 -70 38q-46 17 -106 36q-52 16 -97 36q-41 18 -73 44q-29 23 -46 57q-16 32 -16 78q0 42 18 78t50 62q33 26 75 41q43 15 96 15q51 0 82 -7q37 -8 56 -16q32 -13 39 -16q15 -7 35 -7q26 0 32 24h10v-139h-10q-16 71 -81 112q-64 40 -162 40q-86 0 -129 -36
q-44 -36 -44 -97q0 -28 9 -51q9 -22 32 -42q22 -19 62 -36q39 -17 96 -33q63 -19 105 -34q51 -19 87 -43q39 -26 59 -61q21 -36 21 -88q0 -51 -20 -96q-19 -43 -56 -75q-35 -31 -85 -49q-49 -18 -108 -18z" />
    <glyph glyph-name="scircumflex" unicode="&#x15d;" horiz-adv-x="417" 
d="M202 712l120 -181l-6 -5l-114 94l-114 -94l-6 5zM202 0l-5 -8q32 0 58 8q24 8 39 21q14 12 22 32q7 17 7 38q0 24 -7 38q-8 15 -24 27t-42 21q-29 10 -63 17q-39 8 -68 18q-30 10 -51 27q-22 17 -32 39q-11 24 -11 54q0 31 14 57q13 25 36 43t54 27t68 9q31 0 48 -4
q22 -5 35 -9l27 -9q11 -4 24 -4q15 0 18 16h9v-103h-9q-19 55 -56 81t-95 26q-56 0 -88 -21q-31 -21 -31 -62q0 -40 34 -58q33 -17 99 -31q42 -9 75 -21t55 -28t34 -39q12 -22 12 -56t-15 -63q-15 -28 -40 -49t-60 -33t-73 -12q-32 0 -54 6q-25 7 -39 13q-6 3 -16 7t-14 6
q-13 6 -25 6q-17 0 -20 -17h-10v129h9q16 -67 58 -103t113 -36z" />
    <glyph glyph-name="uni015E" unicode="&#x15e;" horiz-adv-x="609" 
d="M284 -2l-32 -54q43 -5 71 -25q29 -21 29 -51q0 -42 -42 -61t-122 -21l-1 8q51 4 79 20q27 15 27 34q0 20 -22 32q-24 13 -58 14l-3 4q16 28 30 51l12 18q2 2 5.5 7.5t5.5 8.5l10 15h11zM311 -10l2 2q-56 0 -92 9q-32 8 -61 20q-10 4 -26 11t-20 9q-21 9 -46 9
q-22 0 -30 -23h-11v175h11q4 -43 26 -82q21 -37 57 -64t84 -42t107 -15q50 0 86 12q37 12 59 33q23 21 33 51q11 31 11 65q0 38 -12 65t-39 48q-29 22 -70 38q-46 17 -106 36q-52 16 -97 36q-41 18 -73 44q-29 23 -46 57q-16 32 -16 78q0 42 18 78t50 62q33 26 75 41
q43 15 96 15q51 0 82 -7q37 -8 56 -16q32 -13 39 -16q15 -7 35 -7q26 0 32 24h10v-139h-10q-16 71 -81 112q-64 40 -162 40q-86 0 -129 -36q-44 -36 -44 -97q0 -28 9 -51q9 -22 32 -42q22 -19 62 -36q39 -17 96 -33q63 -19 105 -34q51 -19 87 -43q39 -26 59 -61
q21 -36 21 -88q0 -51 -20 -96q-19 -43 -56 -75q-35 -31 -85 -49q-49 -18 -108 -18z" />
    <glyph glyph-name="uni015F" unicode="&#x15f;" horiz-adv-x="417" 
d="M193 -3l-33 -52q43 -5 71 -25q29 -21 29 -51q0 -41 -42 -61q-42 -19 -122 -21l-1 8q51 4 79 20q27 15 27 34q0 20 -22 32q-24 13 -58 14l-3 4l63 98h12zM202 -1l-5 -8q32 0 58 8q24 7 39 21q14 12 22 32q7 17 7 38q0 24 -7 38q-8 15 -24 27t-42 21q-29 10 -63 17
q-39 8 -68 18q-30 11 -51 27q-22 17 -32 39q-11 24 -11 54q0 31 14 57q13 25 36 43t54 27t68 9q31 0 48 -4q22 -5 35 -9q15 -4 27 -9q11 -4 24 -4q15 0 18 16h9v-103h-9q-19 55 -56 81t-95 26q-56 0 -88 -21q-31 -21 -31 -62q0 -40 34 -58q33 -17 99 -31q42 -9 75 -21
t55 -28t34 -39t12 -56q0 -35 -15 -63t-40 -49t-60 -33t-73 -12q-32 0 -54 6q-25 7 -39 13q-6 3 -16 7t-14 6q-13 6 -25 6q-17 0 -20 -17h-10v129h9q16 -67 58 -103t113 -36z" />
    <glyph glyph-name="Scaron" unicode="&#x160;" horiz-adv-x="609" 
d="M166 901l135 -48l134 48l3 -6l-137 -115l-138 115zM311 -8l2 2q-56 0 -92 9q-32 8 -61 20q-10 4 -26 11t-20 9q-21 9 -46 9q-22 0 -30 -23h-11v175h11q4 -43 26 -82q21 -37 57 -64t84 -42t107 -15q50 0 86 12q37 12 59 33q23 21 33 51q11 31 11 65q0 38 -12 65t-39 48
q-29 22 -70 38q-46 17 -106 36q-52 16 -97 36q-41 18 -73 44q-29 23 -46 57q-16 32 -16 78q0 42 18 78t50 62q33 26 75 41q43 15 96 15q51 0 82 -7q37 -8 56 -16q32 -13 39 -16q15 -7 35 -7q26 0 32 24h10v-139h-10q-16 71 -81 112q-64 40 -162 40q-86 0 -129 -36
q-44 -36 -44 -97q0 -28 9 -51q9 -22 32 -42q22 -19 62 -36q39 -17 96 -33q63 -19 105 -34q51 -19 87 -43q39 -26 59 -61q21 -36 21 -88q0 -51 -20 -96q-19 -43 -56 -75q-35 -31 -85 -49q-49 -18 -108 -18z" />
    <glyph glyph-name="scaron" unicode="&#x161;" horiz-adv-x="417" 
d="M88 721l114 -93l114 93l6 -4l-120 -182l-120 182zM202 0l-5 -8q32 0 58 8q24 8 39 21q14 12 22 32q7 17 7 38q0 24 -7 38q-8 15 -24 27t-42 21q-29 10 -63 17q-39 8 -68 18q-30 10 -51 27q-22 17 -32 39q-11 24 -11 54q0 31 14 57q13 25 36 43t54 27t68 9q31 0 48 -4
q22 -5 35 -9l27 -9q11 -4 24 -4q15 0 18 16h9v-103h-9q-19 55 -56 81t-95 26q-56 0 -88 -21q-31 -21 -31 -62q0 -40 34 -58q33 -17 99 -31q42 -9 75 -21t55 -28t34 -39q12 -22 12 -56t-15 -63q-15 -28 -40 -49t-60 -33t-73 -12q-32 0 -54 6q-25 7 -39 13q-6 3 -16 7t-14 6
q-13 6 -25 6q-17 0 -20 -17h-10v129h9q16 -67 58 -103t113 -36z" />
    <glyph glyph-name="Tcommaaccent" unicode="&#x162;" horiz-adv-x="712" 
d="M381 -125q-2 -4 -12 -10q-9 -6 -24 -6q-17 0 -31 12q-13 12 -13 33q0 23 15 35t35 12q22 0 40 -15t18 -48q0 -40 -24 -61q-25 -22 -58 -26l-3 8q32 5 47 20t15 33q0 10 -5 13zM244 7l-1 -1q22 6 33 16q12 10 18 39q5 26 7 82q2 72 2 148v450h-81q-49 0 -78 -4
q-34 -5 -57 -19q-24 -15 -39 -44q-14 -27 -25 -78h-12l17 133q1 15 5 19q3 3 11 3h619q8 0 11 -3q4 -4 5 -19l19 -133h-11q-11 49 -27 77q-17 29 -39 44q-24 16 -55 20q-37 5 -76 5h-82v-450q0 -76 2 -148q2 -56 7 -82q6 -28 18 -39q11 -10 33 -16v-7h-224v7z" />
    <glyph glyph-name="tcommaaccent" unicode="&#x163;" horiz-adv-x="287" 
d="M196 -125q-2 -4 -12 -10q-9 -6 -24 -6q-18 0 -31 12t-13 33q0 23 15 35t35 12q22 0 40 -15t18 -48q0 -40 -24 -61q-25 -22 -58 -26l-3 8q31 5 47 20q15 15 15 33q0 10 -5 13zM178 -7l-2 -1q-56 0 -85 29q-28 28 -28 75v359h-42v8q18 3 39 14q20 11 38 30q17 18 31 48
q13 27 19 66h9v-154h109v-10h-109v-336q0 -56 9 -83t44 -27q20 0 36 9q15 8 25 20l6 -5q-11 -12 -33 -27t-66 -15z" />
    <glyph glyph-name="Tcaron" unicode="&#x164;" horiz-adv-x="712" 
d="M222 901l135 -48l134 48l3 -6l-137 -115l-138 115zM244 7l-1 -1q22 6 33 16q12 10 18 39q5 26 7 82q2 72 2 148v450h-81q-49 0 -78 -4q-34 -5 -57 -19q-24 -15 -39 -44q-14 -27 -25 -78h-12l17 133q1 15 5 19q3 3 11 3h619q8 0 11 -3q4 -4 5 -19l19 -133h-11
q-11 49 -27 77q-17 29 -39 44q-24 16 -55 20q-37 5 -76 5h-82v-450q0 -76 2 -148q2 -56 7 -82q6 -28 18 -39q11 -10 33 -16v-7h-224v7z" />
    <glyph glyph-name="tcaron" unicode="&#x165;" horiz-adv-x="287" 
d="M211 526l7 133q4 60 39 60q15 0 24 -9t9 -24t-11 -39l-61 -123zM176 -8l-2 -1q-56 0 -85 29q-28 28 -28 75v359h-42v8q18 3 39 14q20 11 38 30q17 18 31 48q13 27 19 66h9v-154h109v-10h-109v-336q0 -56 9 -83t44 -27q20 0 36 9q15 8 25 20l6 -5q-11 -12 -33 -27t-66 -15
z" />
    <glyph glyph-name="Tbar" unicode="&#x166;" horiz-adv-x="712" 
d="M150 429h411v-9h-411v9zM244 7l-1 -1q22 6 33 16q12 10 18 39q5 26 7 82q2 72 2 148v450h-81q-49 0 -78 -4q-34 -5 -57 -19q-24 -15 -39 -44q-14 -27 -25 -78h-12l17 133q1 15 5 19q3 3 11 3h619q8 0 11 -3q4 -4 5 -19l19 -133h-11q-11 49 -27 77q-17 29 -39 44
q-24 16 -55 20q-37 5 -76 5h-82v-450q0 -76 2 -148q2 -56 7 -82q6 -28 18 -39q11 -10 33 -16v-7h-224v7z" />
    <glyph glyph-name="tbar" unicode="&#x167;" horiz-adv-x="287" 
d="M24 311h239v-9h-239v9zM178 -7l-2 -1q-56 0 -85 29q-28 28 -28 75v359h-42v8q18 3 39 14q20 11 38 30q17 18 31 48q13 27 19 66h9v-154h109v-10h-109v-336q0 -56 9 -83t44 -27q20 0 36 9q15 8 25 20l6 -5q-11 -12 -33 -27t-66 -15z" />
    <glyph glyph-name="Utilde" unicode="&#x168;" horiz-adv-x="763" 
d="M411 -9l-2 -5q-161 0 -250 73q-90 73 -90 225v171q0 113 -1 149q-2 57 -7 83q-6 29 -18 38t-33 15v7h222v-7q-21 -6 -33 -15t-18 -37q-5 -26 -7 -82q-1 -36 -1 -148v-194q0 -62 9 -111t35 -84q25 -34 71 -52q45 -18 118 -18q60 0 110 15t86 48q37 34 56 87q20 55 20 134
v183q0 106 -1 140q-1 48 -8 78q-6 28 -19 38q-14 10 -36 18v7h135v-7q-21 -8 -33 -18t-18 -38q-5 -24 -7 -78q-1 -34 -1 -140v-183q0 -83 -21 -138q-21 -56 -58 -90t-88 -49t-112 -15zM382 871l-2 -3q18 0 29 -1q22 -2 34 -3q18 -2 33 -3q10 -1 26 -1q11 0 26 9t32 38l7 -2
q-12 -49 -33 -76t-43 -27q-7 0 -29 2l-33 3l-33 3q-22 2 -27 2q-11 0 -26 -9q-16 -10 -35 -40l-7 2q17 55 39 81q22 25 42 25z" />
    <glyph glyph-name="utilde" unicode="&#x169;" horiz-adv-x="544" 
d="M195 -8l1 -3q-28 0 -52 6t-42 21q-17 14 -28 41q-10 24 -10 63v122v84q0 28 -5 45q-4 15 -14 18q-11 4 -26 5v8l141 73v-388q0 -47 19 -63t48 -16q25 0 59 17q31 15 79 59l20 18v140v84q0 28 -5 45q-4 15 -14 18q-11 4 -26 5v8l141 73v-301q0 -63 1 -84q2 -32 6 -48
t15 -24t30 -12v-7h-149v93l-20 -18q-43 -38 -82 -60q-40 -22 -87 -22zM246 640l-2 -1q19 0 29 -1q20 -2 30 -4q9 -2 29 -4q9 -1 24 -1q10 0 24 9q13 9 30 38l7 -3q-12 -49 -31 -75q-20 -27 -40 -27q-25 0 -58 6t-55 6q-11 0 -25 -9t-33 -40l-7 3q17 50 37 76q21 27 41 27z
" />
    <glyph glyph-name="Umacron" unicode="&#x16a;" horiz-adv-x="763" 
d="M411 -9l-2 -5q-161 0 -250 73q-90 73 -90 225v171q0 113 -1 149q-2 57 -7 83q-6 29 -18 38t-33 15v7h222v-7q-21 -6 -33 -15t-18 -37q-5 -26 -7 -82q-1 -36 -1 -148v-194q0 -62 9 -111t35 -84q25 -34 71 -52q45 -18 118 -18q60 0 110 15t86 48q37 34 56 87q20 55 20 134
v183q0 106 -1 140q-1 48 -8 78q-6 28 -19 38q-14 10 -36 18v7h135v-7q-21 -8 -33 -18t-18 -38q-5 -24 -7 -78q-1 -34 -1 -140v-183q0 -83 -21 -138q-21 -56 -58 -90t-88 -49t-112 -15zM543 794h-232v41h232v-41z" />
    <glyph glyph-name="umacron" unicode="&#x16b;" horiz-adv-x="544" 
d="M195 -8l1 -3q-28 0 -52 6t-42 21q-17 14 -28 41q-10 24 -10 63v122v84q0 28 -5 45q-4 15 -14 18q-11 4 -26 5v8l141 73v-388q0 -47 19 -63t48 -16q25 0 59 17q31 15 79 59l20 18v140v84q0 28 -5 45q-4 15 -14 18q-11 4 -26 5v8l141 73v-301q0 -63 1 -84q2 -32 6 -48
t15 -24t30 -12v-7h-149v93l-20 -18q-43 -38 -82 -60q-40 -22 -87 -22zM395 610v-41h-219v41h219z" />
    <glyph glyph-name="Ubreve" unicode="&#x16c;" horiz-adv-x="763" 
d="M411 -9l-2 -5q-161 0 -250 73q-90 73 -90 225v171q0 113 -1 149q-2 57 -7 83q-6 29 -18 38t-33 15v7h222v-7q-21 -6 -33 -15t-18 -37q-5 -26 -7 -82q-1 -36 -1 -148v-194q0 -62 9 -111t35 -84q25 -34 71 -52q45 -18 118 -18q60 0 110 15t86 48q37 34 56 87q20 55 20 134
v183q0 106 -1 140q-1 48 -8 78q-6 28 -19 38q-14 10 -36 18v7h135v-7q-21 -8 -33 -18t-18 -38q-5 -24 -7 -78q-1 -34 -1 -140v-183q0 -83 -21 -138q-21 -56 -58 -90t-88 -49t-112 -15zM428 832h-3q46 0 69 17q22 17 33 39h9q-1 -16 -8 -38q-6 -19 -20 -36q-14 -16 -33 -27
q-19 -10 -48 -10t-51 11q-20 10 -34 27q-13 16 -19 36q-5 17 -7 39h9q7 -21 32 -40q24 -18 71 -18z" />
    <glyph glyph-name="ubreve" unicode="&#x16d;" horiz-adv-x="544" 
d="M195 -8l1 -3q-28 0 -52 6t-42 21q-17 14 -28 41q-10 24 -10 63v122v84q0 28 -5 45q-4 15 -14 18q-11 4 -26 5v8l141 73v-388q0 -47 19 -63t48 -16q25 0 59 17q31 15 79 59l20 18v140v84q0 28 -5 45q-4 15 -14 18q-11 4 -26 5v8l141 73v-301q0 -63 1 -84q2 -32 6 -48
t15 -24t30 -12v-7h-149v93l-20 -18q-43 -38 -82 -60q-40 -22 -87 -22zM285 588l-3 -2q43 0 65 22q23 23 32 54h9q-2 -27 -7 -48q-6 -24 -18 -42t-32 -29t-46 -11q-28 0 -48 11q-19 10 -33 29q-13 17 -19 42q-6 24 -6 50h9q8 -32 30 -54t67 -22z" />
    <glyph glyph-name="Uring" unicode="&#x16e;" horiz-adv-x="763" 
d="M411 -9l-2 -5q-161 0 -250 73q-90 73 -90 225v171q0 113 -1 149q-2 57 -7 83q-6 29 -18 38t-33 15v7h222v-7q-21 -6 -33 -15t-18 -37q-5 -26 -7 -82q-1 -36 -1 -148v-194q0 -62 9 -111t35 -84q25 -34 71 -52q45 -18 118 -18q60 0 110 15t86 48q37 34 56 87q20 55 20 134
v183q0 106 -1 140q-1 48 -8 78q-6 28 -19 38q-14 10 -36 18v7h135v-7q-21 -8 -33 -18t-18 -38q-5 -24 -7 -78q-1 -34 -1 -140v-183q0 -83 -21 -138q-21 -56 -58 -90t-88 -49t-112 -15zM348 820q0 34 24 57q25 23 59 23q36 0 59 -22q24 -22 24 -57t-24 -57q-23 -22 -59 -22
q-35 0 -59 21t-24 57zM386 820h-2q0 -34 12 -52t33 -18q46 0 46 70q0 32 -12 52q-12 19 -33 19q-20 0 -32 -19q-12 -20 -12 -52z" />
    <glyph glyph-name="uring" unicode="&#x16f;" horiz-adv-x="544" 
d="M199 612h-2q0 35 25 57t63 22q39 0 62 -22q24 -23 24 -57q0 -36 -24 -58q-23 -22 -62 -22t-62 22q-24 22 -24 58zM236 612h-1q0 -71 48 -71q49 0 49 71q0 32 -13 51t-36 19t-35 -19t-12 -51zM192 -8l1 -3q-28 0 -52 6t-42 21q-17 14 -28 41q-10 24 -10 63v122v84
q0 28 -5 45q-4 15 -14 18q-11 4 -26 5v8l141 73v-388q0 -47 19 -63t48 -16q25 0 59 17q31 15 79 59l20 18v140v84q0 28 -5 45q-4 15 -14 18q-11 4 -26 5v8l141 73v-301q0 -63 1 -84q1 -32 6 -48t15 -24t30 -12v-7h-149v93l-20 -18q-43 -38 -82 -60q-40 -22 -87 -22z" />
    <glyph glyph-name="Uhungarumlaut" unicode="&#x170;" horiz-adv-x="763" 
d="M478 789l65 82q13 18 24 30t27 12t24 -9q7 -8 7 -20q0 -23 -29 -38l-113 -62zM329 787l66 84q20 24 24 29q11 12 27 12t24 -9q7 -8 7 -20q0 -23 -28 -39l-115 -62zM408 -12l-2 -5q-161 0 -250 73q-90 74 -90 225v171q0 113 -1 149q-2 57 -7 83q-6 29 -18 38t-33 15v7h222
v-7q-21 -6 -33 -15t-18 -37q-5 -26 -7 -82q-1 -36 -1 -148v-194q0 -61 9 -111q9 -49 35 -84q25 -34 71 -52q45 -18 118 -18q61 0 110 15q50 15 86 48q37 34 56 87q20 55 20 134v183q0 106 -1 140q-1 48 -8 78q-6 28 -19 38q-13 11 -36 18v7h135v-7q-21 -7 -33 -18
q-12 -10 -18 -38q-5 -24 -7 -78q-1 -34 -1 -140v-183q0 -82 -21 -138t-58 -90t-88 -49t-112 -15z" />
    <glyph glyph-name="uhungarumlaut" unicode="&#x171;" horiz-adv-x="544" 
d="M195 -8l1 -3q-28 0 -52 6t-42 21q-17 14 -28 41q-10 24 -10 63v122v84q0 28 -5 45q-4 15 -14 18q-11 4 -26 5v8l141 73v-388q0 -47 19 -63t48 -16q25 0 59 17q31 15 79 59l20 18v140v84q0 28 -5 45q-4 15 -14 18q-11 4 -26 5v8l141 73v-301q0 -63 1 -84q2 -32 6 -48
t15 -24t30 -12v-7h-149v93l-20 -18q-43 -38 -82 -60q-40 -22 -87 -22zM337 542l34 138q6 22 15 34t26 12q16 0 24 -9q8 -10 8 -23q0 -10 -4 -18q-6 -12 -10 -18l-87 -119zM207 541l36 139q5 20 14 34q7 12 26 12q17 0 24 -9q7 -8 7 -23q0 -19 -15 -37l-86 -119z" />
    <glyph glyph-name="Uogonek" unicode="&#x172;" horiz-adv-x="763" 
d="M440 -173h-5q-37 0 -61 18t-24 49q0 20 12 36q13 17 30 29q18 12 39 21q20 8 41 15q-36 -6 -67 -6q-161 0 -249 73q-89 74 -89 225v171q0 113 -1 149q-2 57 -7 83q-6 29 -18 38t-33 15v7h222v-7q-21 -6 -33 -15t-18 -37q-5 -26 -7 -82q-1 -36 -1 -148v-194q0 -61 9 -111
q9 -49 35 -84q25 -34 71 -52q45 -18 118 -18q59 0 110 14q49 13 86 47t56 87q20 55 20 134v183q0 106 -1 140q-1 48 -8 78q-6 28 -19 38q-14 11 -36 18v7h135v-7q-21 -7 -33 -18q-12 -10 -18 -38q-5 -24 -7 -78q-1 -34 -1 -140v-183q0 -58 -11 -105q-11 -46 -31 -78
q-21 -33 -49 -55q-29 -22 -63 -36q-13 -5 -37 -15q-17 -7 -31 -18q-13 -10 -22 -25t-9 -40q0 -22 12 -37t36 -15q11 0 21 5q9 4 17 11l5 -5q-3 -5 -9 -12q-5 -7 -17 -15q-11 -8 -25 -12q-17 -5 -35 -5z" />
    <glyph glyph-name="uogonek" unicode="&#x173;" horiz-adv-x="544" 
d="M195 -8l-1 -5q-28 0 -52 6t-42 21q-17 14 -28 41q-10 24 -10 63v122v84q0 28 -5 45q-4 15 -14 18q-11 4 -26 5v8l141 73v-388q0 -47 19 -63t48 -16q25 0 59 17q31 15 79 59l20 18v140v84q0 28 -5 45q-4 15 -14 18q-11 4 -26 5v8l141 73v-301q0 -63 1 -84q2 -32 6 -48
t15 -24t30 -12v-7h-137q-16 -10 -33 -32q-16 -20 -16 -56q0 -22 12 -37t35 -15q10 0 22 5q9 4 18 11l5 -5l-9 -12q-5 -7 -17 -15q-11 -8 -25 -12q-17 -5 -35 -5q-37 0 -61 18t-24 50q0 24 15 42t34 31q17 12 39 22q20 9 30 12v93l-20 -18q-43 -38 -82 -60q-40 -22 -87 -22z
" />
    <glyph glyph-name="Wcircumflex" unicode="&#x174;" horiz-adv-x="1041" 
d="M556 897l137 -115l-3 -6l-134 48l-135 -48l-3 6zM92 623l-7 -6q-4 11 -10.5 27.5t-7.5 19.5q-7 20 -15 33t-18 24q-10 10 -27 16v7h186v-7q-22 -6 -25 -24q-3 -17 14 -61l220 -541l112 276l-95 230q-14 37 -19 47q-12 26 -16 34q-8 15 -18 24t-24 15v7h185v-7
q-23 -6 -26 -24t15 -62l65 -161l54 128q19 44 21 75q2 32 -34 45v7h109v-7q-14 -6 -20 -10q-9 -6 -18 -18q-11 -14 -20 -33q-13 -27 -26 -57l-60 -140l149 -368l198 507q8 23 12 42t3 34q-2 16 -10 27t-29 19v7h117v-7q-10 -4 -21 -11q-9 -6 -18 -18q-8 -10 -19 -33
q-10 -19 -24 -56l-245 -628h-17l-160 386l-157 -386h-17z" />
    <glyph glyph-name="wcircumflex" unicode="&#x175;" horiz-adv-x="719" 
d="M347 712l120 -181l-6 -5l-114 94l-114 -94l-6 5zM71 355l-5 -1q-20 47 -22 51q-9 19 -18 30q-10 11 -16 15q-10 6 -16 8v7h171v-7q-11 -1 -19 -6q-8 -4 -9 -15q-1 -9 5 -30q7 -24 19 -51l106 -262l87 186l-30 73q-20 47 -22 51q-8 18 -17 30q-7 10 -15 15q-9 5 -17 8v7
h169v-7q-12 -1 -18 -6q-5 -4 -7 -15q-1 -9 5 -30q5 -17 18 -49l104 -259l99 237q15 36 22 63q6 25 2 36q-5 13 -15 17q-12 5 -26 8v7h115v-7q-12 -3 -19 -7q-10 -5 -18 -16q-9 -12 -21 -36q-10 -21 -28 -64l-144 -341h-17l-111 274l-129 -274h-17z" />
    <glyph glyph-name="Ycircumflex" unicode="&#x176;" horiz-adv-x="722" 
d="M251 7h-2q22 6 33 16q12 11 18 39q5 26 7 82q2 72 2 148v67l-185 270q-7 10 -18 26t-13 19q-12 17 -26 33q-12 14 -26 23q-15 10 -30 14v7h217v-7q-23 -5 -29 -23t21 -58l190 -277l167 240q18 26 30 45t15 33t-4 24q-8 10 -27 18v7h119v-7q-12 -5 -23 -12q-12 -8 -27 -21
q-17 -15 -33 -34q-16 -18 -40 -54l-173 -249v-84q0 -76 2 -148q1 -51 8 -82q6 -28 18 -39q11 -10 33 -16v-7h-224v7zM413 897l137 -115l-3 -6l-134 48l-135 -48l-3 6z" />
    <glyph glyph-name="ycircumflex" unicode="&#x177;" horiz-adv-x="487" 
d="M118 -171l-2 -7q-23 0 -34 10q-12 10 -12 25q0 17 9 26t26 9q11 0 18 -3l15 -6q5 -2 13 -6q6 -3 13 -3q13 0 28 18q16 19 38 71l11 24l-170 367q-15 32 -24 51t-18 30q-10 11 -16 15q-9 5 -18 8v7h176v-7q-11 -2 -18 -6t-9 -15t3 -29t18 -48l121 -266l108 242
q19 41 23 63q5 24 0 36q-5 13 -16 17q-12 4 -27 6v7h117v-7q-11 -2 -18 -6q-8 -5 -17 -18q-9 -14 -21 -36t-30 -63l-164 -370q-15 -34 -32 -63q-14 -23 -29 -42q-13 -16 -29 -24q-14 -7 -33 -7zM274 705l120 -181l-6 -5l-114 94l-114 -94l-6 5z" />
    <glyph glyph-name="Ydieresis" unicode="&#x178;" horiz-adv-x="722" 
d="M251 7h-2q22 6 33 16q12 11 18 39q5 26 7 82q2 72 2 148v67l-185 270q-7 10 -18 26t-13 19q-12 17 -26 33q-12 14 -26 23q-15 10 -30 14v7h217v-7q-23 -5 -29 -23t21 -58l190 -277l167 240q18 26 30 45t15 33t-4 24q-8 10 -27 18v7h119v-7q-12 -5 -23 -12q-12 -8 -27 -21
q-17 -15 -33 -34q-16 -18 -40 -54l-173 -249v-84q0 -76 2 -148q1 -51 8 -82q6 -28 18 -39q11 -10 33 -16v-7h-224v7zM514 785q-22 0 -37 15t-15 38q0 21 15 36t37 15t37 -15t15 -36q0 -23 -15 -38t-37 -15zM313 785q-22 0 -37 15t-15 38q0 21 15 36t37 15t37 -15t15 -36
q0 -23 -15 -38t-37 -15z" />
    <glyph glyph-name="Zacute" unicode="&#x179;" horiz-adv-x="700" 
d="M254 784l153 96q11 8 21 12q12 5 24 5q15 0 24 -10q9 -11 9 -22q0 -17 -12 -29t-40 -18l-176 -40zM526 739h-270q-47 0 -84 -8q-34 -7 -57 -24q-22 -16 -37 -40q-14 -22 -25 -57h-9l25 139h584l-509 -741h312q55 0 93 8q36 7 59 26q22 18 36 48q15 33 26 75h9l-19 -167
h-636z" />
    <glyph glyph-name="zacute" unicode="&#x17a;" horiz-adv-x="450" 
d="M183 535l98 139q11 17 23 27q10 9 26 9q17 0 26 -10t9 -25t-9 -26t-23 -20l-146 -100zM416 -10l-2 -1q-10 4 -16 5q-9 2 -24 3q-20 2 -36 2h-54h-278l312 458h-141q-40 0 -64 -7q-25 -7 -40 -21q-15 -13 -25 -31q-10 -16 -19 -40h-7l21 117q18 -7 45 -8q38 -2 84 -2h256
l-315 -458h156q41 0 68 8q26 8 42 22q17 15 27 37t21 51h7z" />
    <glyph glyph-name="Zdotaccent" unicode="&#x17b;" horiz-adv-x="700" 
d="M525 741h-270q-47 0 -84 -8q-35 -7 -57 -24q-22 -16 -37 -40q-14 -22 -25 -57h-9l25 139h584l-509 -741h312q55 0 93 8q36 7 59 26q23 18 36 48q15 33 26 75h9l-19 -167h-636zM349 784q-23 0 -38 16t-15 39t15 38t38 15t38 -15t15 -38t-15 -39t-38 -16z" />
    <glyph glyph-name="zdotaccent" unicode="&#x17c;" horiz-adv-x="450" 
d="M416 -10l-2 -1q-10 4 -16 5q-9 2 -24 3q-20 2 -36 2h-54h-278l312 458h-141q-40 0 -64 -7q-25 -7 -40 -21q-15 -13 -25 -31q-10 -16 -19 -40h-7l21 117q18 -7 45 -8q38 -2 84 -2h256l-315 -458h156q41 0 68 8q26 8 42 22q17 15 27 37t21 51h7zM235 546v-1q-23 0 -38 15
t-15 38t15 38t38 15t38 -15t15 -37q0 -23 -15 -38t-38 -15z" />
    <glyph glyph-name="Zcaron" unicode="&#x17d;" horiz-adv-x="700" 
d="M215 901l135 -48l134 48l3 -6l-137 -115l-138 115zM525 741h-270q-47 0 -84 -8q-35 -7 -57 -24q-22 -16 -37 -40q-14 -22 -25 -57h-9l25 139h584l-509 -741h312q55 0 93 8q36 7 59 26q23 18 36 48q15 33 26 75h9l-19 -167h-636z" />
    <glyph glyph-name="zcaron" unicode="&#x17e;" horiz-adv-x="450" 
d="M119 721l114 -93l114 93l6 -4l-120 -182l-120 182zM416 -10l-2 -1q-10 4 -16 5q-9 2 -24 3q-20 2 -36 2h-54h-278l312 458h-141q-40 0 -64 -7q-25 -7 -40 -21q-15 -13 -25 -31q-10 -16 -19 -40h-7l21 117q18 -7 45 -8q38 -2 84 -2h256l-315 -458h156q41 0 68 8
q26 8 42 22q17 15 27 37t21 51h7z" />
    <glyph glyph-name="uni0192" unicode="&#x192;" horiz-adv-x="429" 
d="M82 466l78 -3l20 108q11 56 28 90q18 35 41 57q23 21 48 30t51 9q38 0 66 -14q27 -13 27 -39q0 -11 -8 -22q-7 -10 -26 -10t-27 9q-8 10 -11 27q-5 26 -9 35t-20 9q-11 0 -20 -6q-8 -6 -16 -21q-6 -13 -13 -39q-6 -25 -12 -61l-28 -160h101v-10h-103l-56 -317
q-14 -76 -33 -125q-20 -51 -43 -78q-25 -29 -51 -41q-27 -12 -55 -12q-38 0 -69 14q-30 14 -30 42q0 12 8 23t27 11t27 -9q8 -10 11 -26q4 -25 11 -35q6 -9 23 -9q15 0 24 9t18 39q8 26 19 87q1 6 11 60.5t17 92.5l50 275h-76v10z" />
    <glyph glyph-name="Aringacute" unicode="&#x1fa;" horiz-adv-x="780" 
d="M12 7q11 4 23 11q10 6 21 20q12 16 23 36q9 17 28 60l227 533l-5 12q-7 18 -15 30t-15 18q-8 6 -16 9q-12 4 -19 6v6h134q8 0 11 -3q2 -2 7 -12l268 -609q19 -44 36 -76q16 -29 48 -43v-7h-194v7q28 8 29 27q2 20 -16 60l-63 143h-363l-43 -102q-10 -24 -14 -37
q-6 -21 -5 -37q1 -17 11 -31q9 -13 32 -21v-7h-130v7zM520 246l-180 409l-175 -409h355zM257 948l153 96q10 8 21 12q12 5 24 5q15 0 24 -10q9 -11 9 -22q0 -17 -12 -29t-40 -18l-176 -40zM270 854q0 34 24 57q25 23 59 23q36 0 59 -22q24 -22 24 -57t-24 -57
q-23 -22 -59 -22q-35 0 -59 21t-24 57zM308 854h-2q0 -34 12 -52t33 -18q46 0 46 70q0 32 -12 52q-12 19 -33 19q-20 0 -32 -19q-12 -20 -12 -52z" />
    <glyph glyph-name="aringacute" unicode="&#x1fb;" horiz-adv-x="465" 
d="M152 -6l-2 -3q-58 0 -94 27t-36 76q0 28 11 47t30 32q21 15 48 26q11 4 33.5 13.5t31.5 13.5l57 24q47 20 60 39q14 20 14 36v58q0 24 -9 39q-9 16 -22 24q-14 9 -30 12t-31 3q-19 0 -33 -3q-13 -3 -22 -9q-10 -7 -15 -13t-10 -18q-12 -18 -22 -30q-12 -13 -31 -13
q-18 0 -27 10q-9 11 -9 24q0 15 14 27q14 13 36 20q22 8 54 12q28 4 66 4q34 0 63 -4q31 -4 60 -17q27 -12 45 -36t18 -61v-219q0 -33 2 -65q1 -23 6 -37q4 -13 12 -18q7 -4 20 -4q10 0 17 3q10 4 15 7l3 -6q-5 -4 -23 -12t-47 -8q-49 0 -72 20q-22 19 -25 54l-19 -17
q-25 -26 -57 -42q-31 -16 -80 -16zM115 106l-2 -1q0 -95 72 -95q30 0 53 13q27 15 47 34l20 19v217q-5 -11 -21 -24q-17 -14 -52 -30l-38 -16q-46 -19 -63 -47q-16 -26 -16 -70zM134 608h-2q0 35 25 57t63 22q39 0 62 -22q24 -23 24 -57q0 -36 -24 -58q-23 -22 -62 -22
t-62 22q-24 22 -24 58zM171 608h-1q0 -71 48 -71q49 0 49 71q0 32 -13 51t-36 19t-35 -19t-12 -51zM121 717l153 96q10 7 21 12q12 5 24 5q15 0 24 -10q9 -11 9 -22q0 -17 -12 -29t-40 -18l-176 -40z" />
    <glyph glyph-name="AEacute" unicode="&#x1fc;" horiz-adv-x="1094" 
d="M678 784l153 96q11 8 21 12q12 5 24 5q15 0 24 -10q9 -11 9 -22q0 -17 -12 -29t-40 -18l-176 -40zM1018 748l-3 -1q7 0 12 -3q4 -3 7 -19l17 -98h-9q-12 33 -27 54t-37 33q-24 13 -55 17q-37 5 -82 5h-201v-322h92q39 0 59 7q22 8 32 18t15 26q3 10 7 30h9v-170h-9
q-4 20 -7 30q-5 16 -15 26q-11 11 -31 18t-59 7h-92v-401h222q50 0 83 3t56 17t36 37q14 25 26 65h10l-12 -113q-2 -14 -6 -15q-6 -2 -12 -2h-568v7q19 6 31 15t18 33q7 26 8 68q2 58 2 120h-327l-79 -115q-12 -18 -21 -36t-12 -34t5 -30q7 -13 29 -21v-6h-124v6q10 4 21 12
t24 21q12 12 30 35q13 16 39 53l380 552q12 18 15 29q3 10 -2 18t-16 11q-12 3 -27 6v7h548zM533 248v464l-320 -464h320z" />
    <glyph glyph-name="aeacute" unicode="&#x1fd;" horiz-adv-x="767" 
d="M367 535l98 139q11 17 23 27q10 9 26 9q17 0 26 -10t9 -25t-9 -26t-23 -20l-146 -100zM154 -6l-4 -6q-58 0 -96 27q-37 27 -37 76q0 27 11 46q10 17 30 31t48 24q22 8 65 26l57 24q49 20 62 39q14 20 14 36v62q0 24 -9 39q-9 16 -22 24q-13 9 -30 12q-16 3 -31 3
q-20 0 -32 -3q-11 -3 -20 -8q-7 -4 -13 -12q-8 -10 -12 -16q-12 -18 -22 -30q-12 -13 -33 -13q-17 0 -26 10q-9 11 -9 24q0 15 14 26q13 10 38 18q24 7 54 12q27 4 63 4q24 0 49 -3q28 -3 48 -10q22 -7 41 -20q19 -12 29 -33q38 35 82 51q46 17 84 17q41 0 77 -11
q34 -10 60 -30t42 -46q16 -27 21 -59h-335q-9 -41 -9 -93q0 -55 14 -99q13 -41 39 -70t60 -42q33 -13 75 -13q48 0 81 13q34 13 63 36l5 -6q-31 -28 -72 -44q-43 -17 -103 -17q-34 0 -63 7q-32 7 -60 21q-30 14 -54 34q-25 21 -43 49l-43 -40q-32 -30 -68 -49
q-33 -18 -80 -18zM544 461l1 -1q-41 0 -78 -30t-54 -99h246q-5 67 -34 98q-30 32 -81 32zM114 103v3q0 -48 19 -71q19 -24 54 -24q28 0 54 14q25 13 57 42l39 37q-15 26 -24 57t-9 69v57q-5 -11 -21 -26q-18 -16 -52 -29l-38 -17q-47 -18 -63 -45q-16 -26 -16 -67z" />
    <glyph glyph-name="Oslashacute" unicode="&#x1fe;" horiz-adv-x="848" 
d="M422 -10l-3 1q-51 0 -102 14q-49 13 -94 39l-60 -104l-8 5l60 104q-39 25 -73 60q-32 34 -57 77q-25 44 -38 90t-13 101q0 79 32 151q32 71 86 122t124 81q71 30 145 30q48 0 93 -12q47 -12 87 -34l54 94l9 -5l-54 -94q45 -25 81 -58q37 -34 63 -78q27 -45 41 -93
q15 -49 15 -105q0 -81 -32 -153t-85 -122q-54 -51 -124 -81q-71 -30 -147 -30zM148 377l-2 -2q0 -105 24 -177t63 -117l349 608q-35 32 -77 47t-87 15q-49 0 -100 -20q-49 -19 -87 -65q-37 -45 -60 -116q-23 -72 -23 -173zM417 -3l-1 -1q54 0 103 21t87 66t60 117
q22 70 22 174q0 112 -27 187q-27 76 -72 119l-350 -608q36 -39 82 -57q47 -18 96 -18zM323 782l153 96q10 8 21 12q12 5 24 5q15 0 24 -10q9 -11 9 -22q0 -17 -12 -29t-40 -18l-176 -40z" />
    <glyph glyph-name="oslashacute" unicode="&#x1ff;" 
d="M279 -2l-2 -2q30 0 57 12t48 39t33 72t12 112q0 59 -11 105q-10 44 -30 72l18 32l-9 5l46 78l9 -5l-46 -78q52 -30 87 -82q36 -52 36 -126q0 -62 -24 -107q-24 -44 -62 -75q-37 -30 -81 -45t-84 -15q-30 0 -58 7q-33 8 -59 22l14 25l-6 8l213 367q-21 27 -48 39t-56 12
q-31 0 -58 -13q-28 -13 -49 -42t-33 -73q-12 -45 -12 -110q0 -64 12 -108q12 -43 32 -71l-17 -29l9 -4l-51 -87l-8 6l50 85q-25 14 -48 33t-39 45t-27 57q-10 30 -10 71q0 60 24 106t62 78q37 32 81 48q42 16 84 16q26 0 60 -8q32 -8 60 -24l-16 -27q4 -4 7 -10l-214 -365
q21 -26 48 -36q26 -10 56 -10zM232 533l98 139q11 17 23 27q11 9 26 9q17 0 26 -10t9 -25t-9 -26t-23 -20l-146 -100z" />
    <glyph glyph-name="uni0218" unicode="&#x218;" horiz-adv-x="609" 
d="M314 -125q-2 -4 -12 -10q-9 -6 -24 -6q-18 0 -31 12t-13 33q0 23 15 35t35 12q22 0 40 -15t18 -48q0 -40 -24 -61q-25 -22 -58 -26l-3 8q31 5 47 20q15 15 15 33q0 10 -5 13zM311 -8l2 2q-56 0 -92 9q-32 8 -61 20q-10 4 -26 11t-20 9q-21 9 -46 9q-22 0 -30 -23h-11v175
h11q4 -43 26 -82q21 -37 57 -64t84 -42t107 -15q50 0 86 12q37 12 59 33q23 21 33 51q11 31 11 65q0 38 -12 65t-39 48q-29 22 -70 38q-46 17 -106 36q-52 16 -97 36q-41 18 -73 44q-29 23 -46 57q-16 32 -16 78q0 42 18 78t50 62q33 26 75 41q43 15 96 15q51 0 82 -7
q37 -8 56 -16q32 -13 39 -16q15 -7 35 -7q26 0 32 24h10v-139h-10q-16 71 -81 112q-64 40 -162 40q-86 0 -129 -36q-44 -36 -44 -97q0 -28 9 -51q9 -22 32 -42q22 -19 62 -36q39 -17 96 -33q63 -19 105 -34q51 -19 87 -43q39 -26 59 -61q21 -36 21 -88q0 -51 -20 -96
q-19 -43 -56 -75q-35 -31 -85 -49q-49 -18 -108 -18z" />
    <glyph glyph-name="uni0219" unicode="&#x219;" horiz-adv-x="417" 
d="M221 -125q-2 -4 -12 -10q-9 -6 -24 -6q-17 0 -31 12q-13 12 -13 33q0 23 15 35t35 12q22 0 40 -15t18 -48q0 -40 -24 -61q-25 -22 -58 -26l-3 8q32 5 47 20t15 33q0 10 -5 13zM202 0l-5 -8q32 0 58 8q24 8 39 21q14 12 22 32q7 17 7 38q0 24 -7 38q-8 15 -24 27t-42 21
q-29 10 -63 17q-39 8 -68 18q-30 10 -51 27q-22 17 -32 39q-11 24 -11 54q0 31 14 57q13 25 36 43t54 27t68 9q31 0 48 -4q22 -5 35 -9l27 -9q11 -4 24 -4q15 0 18 16h9v-103h-9q-19 55 -56 81t-95 26q-56 0 -88 -21q-31 -21 -31 -62q0 -40 34 -58q33 -17 99 -31
q42 -9 75 -21t55 -28t34 -39q12 -22 12 -56t-15 -63q-15 -28 -40 -49t-60 -33t-73 -12q-32 0 -54 6q-25 7 -39 13q-6 3 -16 7t-14 6q-13 6 -25 6q-17 0 -20 -17h-10v129h9q16 -67 58 -103t113 -36z" />
    <glyph glyph-name="uni021A" unicode="&#x21a;" horiz-adv-x="712" 
d="M381 -125q-2 -4 -12 -10q-9 -6 -24 -6q-17 0 -31 12q-13 12 -13 33q0 23 15 35t35 12q22 0 40 -15t18 -48q0 -40 -24 -61q-25 -22 -58 -26l-3 8q32 5 47 20t15 33q0 10 -5 13zM244 7l-1 -1q22 6 33 16q12 10 18 39q5 26 7 82q2 72 2 148v450h-81q-49 0 -78 -4
q-34 -5 -57 -19q-24 -15 -39 -44q-14 -27 -25 -78h-12l17 133q1 15 5 19q3 3 11 3h619q8 0 11 -3q4 -4 5 -19l19 -133h-11q-11 49 -27 77q-17 29 -39 44q-24 16 -55 20q-37 5 -76 5h-82v-450q0 -76 2 -148q2 -56 7 -82q6 -28 18 -39q11 -10 33 -16v-7h-224v7z" />
    <glyph glyph-name="uni021B" unicode="&#x21b;" horiz-adv-x="287" 
d="M196 -125q-2 -4 -12 -10q-9 -6 -24 -6q-18 0 -31 12t-13 33q0 23 15 35t35 12q22 0 40 -15t18 -48q0 -40 -24 -61q-25 -22 -58 -26l-3 8q31 5 47 20q15 15 15 33q0 10 -5 13zM178 -7l-2 -1q-56 0 -85 29q-28 28 -28 75v359h-42v8q18 3 39 14q20 11 38 30q17 18 31 48
q13 27 19 66h9v-154h109v-10h-109v-336q0 -56 9 -83t44 -27q20 0 36 9q15 8 25 20l6 -5q-11 -12 -33 -27t-66 -15z" />
    <glyph glyph-name="uni0237" unicode="&#x237;" horiz-adv-x="229" 
d="M-29 -139l-4 2q-16 0 -28 9t-12 27q0 17 9 24q10 8 23 8q12 0 21 -6q12 -8 17 -13t15 -13q7 -6 16 -6q5 0 13 5q5 3 9 10q4 6 7 21q2 10 4 36q2 30 2 57v231v81q0 30 -4 42q-5 14 -13 17q-11 4 -26 5v8l140 73v-403q0 -60 -30 -105t-75 -78q-30 -21 -46 -26
q-18 -6 -38 -6z" />
    <glyph glyph-name="circumflex" unicode="&#x2c6;" horiz-adv-x="446" 
d="M228 712l120 -181l-6 -5l-114 94l-114 -94l-6 5z" />
    <glyph glyph-name="caron" unicode="&#x2c7;" horiz-adv-x="446" 
d="M114 721l114 -93l114 93l6 -4l-120 -182l-120 182z" />
    <glyph glyph-name="breve" unicode="&#x2d8;" horiz-adv-x="446" 
d="M223 591l-3 -2q43 0 65 22q23 23 32 54h9q-2 -27 -7 -48q-6 -24 -18 -42t-32 -29t-46 -11q-28 0 -48 11q-19 10 -33 29q-13 17 -19 42q-6 24 -6 50h9q8 -31 30 -54q22 -22 67 -22z" />
    <glyph glyph-name="dotaccent" unicode="&#x2d9;" horiz-adv-x="446" 
d="M222 547v-1q-23 0 -38 15t-15 38t15 38t38 15t38 -15t15 -37q0 -23 -15 -38t-38 -15z" />
    <glyph glyph-name="ring" unicode="&#x2da;" horiz-adv-x="446" 
d="M144 612h-2q0 35 25 57t63 22q39 0 62 -22q24 -23 24 -57q0 -36 -24 -58q-23 -22 -62 -22t-62 22q-24 22 -24 58zM181 612h-1q0 -71 48 -71q49 0 49 71q0 32 -13 51t-36 19t-35 -19t-12 -51z" />
    <glyph glyph-name="ogonek" unicode="&#x2db;" horiz-adv-x="446" 
d="M216 -173h-2q-37 0 -61 18t-24 49q0 24 15 42q16 19 36 32q22 14 43 21q27 9 36 11h12q-22 -10 -42 -32q-19 -20 -19 -56q0 -22 12 -37t35 -15q13 0 23 5q9 4 17 11l5 -5q-3 -5 -9 -12q-5 -7 -17 -15q-11 -8 -25 -12q-17 -5 -35 -5z" />
    <glyph glyph-name="tilde" unicode="&#x2dc;" horiz-adv-x="446" 
d="M172 643l-2 -1q19 0 29 -1q20 -2 30 -4q9 -2 29 -4q9 -1 24 -1q10 0 24 9q13 9 30 38l7 -3q-12 -49 -31 -75q-20 -27 -40 -27q-25 0 -58 6t-55 6q-11 0 -25 -9t-33 -40l-7 3q17 50 37 76q21 27 41 27z" />
    <glyph glyph-name="hungarumlaut" unicode="&#x2dd;" horiz-adv-x="446" 
d="M246 545l34 138q6 22 15 34t26 12t24 -9q8 -10 8 -23q0 -10 -4 -18q-6 -12 -10 -18l-87 -119zM116 544l36 139q5 20 14 34q8 12 26 12q16 0 24 -9q7 -8 7 -23q0 -19 -15 -37l-86 -119z" />
    <glyph glyph-name="Wgrave" unicode="&#x1e80;" horiz-adv-x="1041" 
d="M477 818l1 -1q-28 6 -40 18t-12 29q0 12 9 23t24 11t24 -4q12 -5 20 -12l153 -98l-3 -6zM93 622l-7 -6q-4 10 -10.5 27t-7.5 20q-8 19 -15 33t-18 24q-10 10 -27 16v7h186v-7q-22 -6 -25 -24q-3 -17 14 -61l220 -541l112 276l-95 230q-14 37 -19 47q-12 26 -16 34
q-7 15 -18 24t-24 15v7h185v-7q-23 -6 -26 -24t15 -62l65 -161l54 128q20 43 21 75q2 32 -34 45v7h109v-7q-14 -6 -20 -10q-9 -6 -18 -18q-10 -14 -20 -33q-13 -27 -26 -57l-60 -140l149 -368l198 507q7 22 12 42q4 19 3 34q-2 16 -10 27t-29 19v7h117v-7q-10 -4 -21 -11
q-9 -6 -18 -18q-7 -10 -19 -33q-10 -19 -24 -56l-245 -628h-17l-160 386l-157 -386h-17z" />
    <glyph glyph-name="wgrave" unicode="&#x1e81;" horiz-adv-x="719" 
d="M71 355l-5 -1q-20 47 -22 51q-9 19 -18 30q-10 11 -16 15q-10 6 -16 8v7h171v-7q-11 -1 -19 -6q-8 -4 -9 -15q-1 -9 5 -30q7 -24 19 -51l106 -262l87 186l-30 73q-20 47 -22 51q-8 18 -17 30q-7 10 -15 15q-9 5 -17 8v7h169v-7q-12 -1 -18 -6q-5 -4 -7 -15q-1 -9 5 -30
q5 -17 18 -49l104 -259l99 237q15 36 22 63q6 25 2 36q-5 13 -15 17q-12 5 -26 8v7h115v-7q-12 -3 -19 -7q-10 -5 -18 -16q-9 -12 -21 -36q-10 -21 -28 -64l-144 -341h-17l-111 274l-129 -274h-17zM267 628q-14 9 -23 20q-9 10 -9 26q0 14 9 25q9 10 26 10q16 0 26 -9
q12 -10 23 -27l99 -139l-5 -6z" />
    <glyph glyph-name="Wacute" unicode="&#x1e82;" horiz-adv-x="1041" 
d="M456 784l153 96q11 8 21 12q12 5 24 5q15 0 24 -10q9 -11 9 -22q0 -17 -12 -29t-40 -18l-176 -40zM93 621l-7 -6q-4 10 -10.5 27t-7.5 20q-8 20 -15 33t-18 24q-10 10 -27 16v7h186v-7q-22 -6 -25 -24q-3 -17 14 -61l220 -541l112 276l-95 230q-14 37 -19 47
q-12 26 -16 34q-7 15 -18 24t-24 15v7h185v-7q-23 -6 -26 -24t15 -62l65 -161l54 128q20 44 21 75q2 32 -34 45v7h109v-7q-14 -6 -20 -10q-9 -6 -18 -18q-10 -14 -20 -33q-13 -27 -26 -57l-60 -140l149 -368l198 507q7 23 12 42q4 19 3 34q-2 16 -10 27t-29 19v7h117v-7
q-10 -4 -21 -11q-9 -6 -18 -18q-7 -10 -19 -33q-10 -19 -24 -56l-245 -628h-17l-160 386l-157 -386h-17z" />
    <glyph glyph-name="wacute" unicode="&#x1e83;" horiz-adv-x="719" 
d="M288 535l98 139q11 17 23 27q11 9 26 9q17 0 26 -10t9 -25t-9 -26t-23 -20l-146 -100zM71 355l-5 -1q-20 47 -22 51q-9 19 -18 30q-10 11 -16 15q-10 6 -16 8v7h171v-7q-11 -1 -19 -6q-8 -4 -9 -15q-1 -9 5 -30q7 -24 19 -51l106 -262l87 186l-30 73q-20 47 -22 51
q-8 18 -17 30q-7 10 -15 15q-9 5 -17 8v7h169v-7q-12 -1 -18 -6q-5 -4 -7 -15q-1 -9 5 -30q5 -17 18 -49l104 -259l99 237q15 36 22 63q6 25 2 36q-5 13 -15 17q-12 5 -26 8v7h115v-7q-12 -3 -19 -7q-10 -5 -18 -16q-9 -12 -21 -36q-10 -21 -28 -64l-144 -341h-17l-111 274
l-129 -274h-17z" />
    <glyph glyph-name="Wdieresis" unicode="&#x1e84;" horiz-adv-x="1041" 
d="M656 785q-22 0 -37 15t-15 38q0 21 15 36t37 15t37 -15t15 -36q0 -23 -15 -38t-37 -15zM455 785q-22 0 -37 15t-15 38q0 21 15 36t37 15t37 -15t15 -36q0 -23 -15 -38t-37 -15zM92 623l-7 -6q-4 11 -10.5 27.5t-7.5 19.5q-7 20 -15 33t-18 24q-10 10 -27 16v7h186v-7
q-22 -6 -25 -24q-3 -17 14 -61l220 -541l112 276l-95 230q-14 37 -19 47q-12 26 -16 34q-8 15 -18 24t-24 15v7h185v-7q-23 -6 -26 -24t15 -62l65 -161l54 128q19 44 21 75q2 32 -34 45v7h109v-7q-14 -6 -20 -10q-9 -6 -18 -18q-11 -14 -20 -33q-13 -27 -26 -57l-60 -140
l149 -368l198 507q8 23 12 42t3 34q-2 16 -10 27t-29 19v7h117v-7q-10 -4 -21 -11q-9 -6 -18 -18q-8 -10 -19 -33q-10 -19 -24 -56l-245 -628h-17l-160 386l-157 -386h-17z" />
    <glyph glyph-name="wdieresis" unicode="&#x1e85;" horiz-adv-x="719" 
d="M435 548h-1q-22 0 -37 15t-15 38q0 21 15 36t38 15q21 0 36 -15t15 -36q0 -23 -15 -38t-36 -15zM259 548q-22 0 -37 15t-15 38q0 21 15 36t37 15t37 -15t15 -36q0 -23 -15 -38t-37 -15zM70 355l-5 -1q-20 47 -22 51q-9 19 -18 30q-10 11 -16 15q-10 6 -16 8v7h171v-7
q-11 -1 -19 -6q-7 -4 -9 -15q-1 -9 5 -30q7 -24 19 -51l106 -262l87 186l-30 73q-20 47 -22 51q-8 18 -17 30q-8 10 -15 15q-9 5 -17 8v7h169v-7q-12 -1 -18 -6q-5 -4 -7 -15q-1 -9 5 -30q5 -17 18 -49l104 -259l99 237q15 36 22 63q6 25 2 36q-5 13 -15 17q-12 5 -26 8v7
h115v-7q-12 -3 -19 -7q-10 -5 -18 -16q-9 -12 -21 -36q-10 -21 -28 -64l-144 -341h-17l-111 274l-129 -274h-17z" />
    <glyph glyph-name="Ygrave" unicode="&#x1ef2;" horiz-adv-x="722" 
d="M251 7h-2q22 6 33 16q12 11 18 39q5 26 7 82q2 72 2 148v67l-185 270q-7 10 -18 26t-13 19q-12 17 -26 33q-12 14 -26 23q-15 10 -30 14v7h217v-7q-23 -5 -29 -23t21 -58l190 -277l167 240q18 26 30 45t15 33t-4 24q-8 10 -27 18v7h119v-7q-12 -5 -23 -12q-12 -8 -27 -21
q-17 -15 -33 -34q-16 -18 -40 -54l-173 -249v-84q0 -76 2 -148q1 -51 8 -82q6 -28 18 -39q11 -10 33 -16v-7h-224v7zM336 818l1 -1q-28 6 -40 18t-12 29q0 12 9 23t24 11t24 -4q12 -5 20 -12l153 -98l-3 -6z" />
    <glyph glyph-name="ygrave" unicode="&#x1ef3;" horiz-adv-x="487" 
d="M118 -171l-2 -7q-23 0 -34 10q-12 10 -12 25q0 17 9 26t26 9q11 0 18 -3l15 -6q5 -2 13 -6q6 -3 13 -3q13 0 28 18q16 19 38 71l11 24l-170 367q-15 32 -24 51t-18 30q-10 11 -16 15q-9 5 -18 8v7h176v-7q-11 -2 -18 -6t-9 -15t3 -29t18 -48l121 -266l108 242
q19 41 23 63q5 24 0 36q-5 13 -16 17q-12 4 -27 6v7h117v-7q-11 -2 -18 -6q-8 -5 -17 -18q-9 -14 -21 -36t-30 -63l-164 -370q-15 -34 -32 -63q-14 -23 -29 -42q-13 -16 -29 -24q-14 -7 -33 -7zM195 622q-14 9 -23 20q-9 10 -9 26q0 14 9 25q9 10 26 10q16 0 26 -9
q12 -10 23 -27l99 -139l-5 -6z" />
    <glyph glyph-name="uni2009" unicode="&#x2009;" horiz-adv-x="80" 
 />
    <glyph glyph-name="endash" unicode="&#x2013;" horiz-adv-x="544" 
d="M41 287h462v-12h-462v12z" />
    <glyph glyph-name="emdash" unicode="&#x2014;" horiz-adv-x="931" 
d="M41 287h849v-12h-849v12z" />
    <glyph glyph-name="quoteleft" unicode="&#x2018;" horiz-adv-x="209" 
d="M78 658l-2 -1q4 7 14 12t24 5q20 0 33 -13q14 -14 14 -36q0 -25 -16 -38q-17 -14 -37 -14q-22 0 -42 17q-19 16 -19 56q0 48 24 81t62 53l5 -7q-32 -19 -51 -44q-18 -24 -18 -48q0 -7 3 -13q2 -4 6 -10z" />
    <glyph glyph-name="quoteright" unicode="&#x2019;" horiz-adv-x="209" 
d="M130 679l-1 -2q-5 -8 -13 -12q-10 -5 -24 -5q-19 0 -33 14t-14 36q0 24 16 39q17 15 37 15q22 0 42 -18t20 -57q0 -47 -24 -80t-62 -53l-4 7q32 19 51 44q18 24 18 48q0 17 -9 24z" />
    <glyph glyph-name="quotesinglbase" unicode="&#x201a;" horiz-adv-x="209" 
d="M130 15l-1 -2q-5 -8 -13 -12q-10 -5 -24 -5q-19 0 -33 14t-14 36q0 24 16 39q17 15 37 15q22 0 42 -18t20 -57q0 -47 -24 -80t-62 -53l-4 7q32 19 51 44q18 24 18 48q0 17 -9 24z" />
    <glyph glyph-name="quotedblleft" unicode="&#x201c;" horiz-adv-x="349" 
d="M78 658l-2 -1q4 7 14 12t24 5q20 0 33 -13q14 -14 14 -36q0 -25 -16 -38q-17 -14 -37 -14q-22 0 -42 17q-19 16 -19 56q0 48 24 81t62 53l5 -7q-32 -19 -51 -44q-18 -24 -18 -48q0 -7 3 -13q2 -4 6 -10zM217 657l-3 -1q4 7 14 12t24 5q20 0 34 -13q15 -14 15 -36
q0 -25 -16 -38q-17 -14 -37 -14q-22 0 -42 17t-20 56q0 48 24 81t62 53l5 -7q-32 -19 -51 -44q-18 -24 -18 -48q0 -7 3 -13q2 -4 6 -10z" />
    <glyph glyph-name="quotedblright" unicode="&#x201d;" horiz-adv-x="349" 
d="M271 679l2 -1q-5 -8 -13 -12q-10 -5 -24 -5q-18 0 -34 14q-15 13 -15 36q0 24 17 39q16 15 36 15q22 0 42 -18t20 -57q0 -47 -24 -80t-62 -53l-4 7q32 20 50 44t18 48q0 8 -3 14t-6 9zM132 678l-1 -2q-5 -8 -13 -12q-10 -5 -24 -5q-19 0 -33 14t-14 36q0 24 16 39t37 15
q22 0 42 -18t20 -57q0 -47 -24 -80t-62 -53l-4 7q32 19 51 44q18 24 18 48q0 16 -9 24z" />
    <glyph glyph-name="quotedblbase" unicode="&#x201e;" horiz-adv-x="349" 
d="M270 15l2 -1q-5 -8 -13 -12q-10 -5 -24 -5q-18 0 -34 14q-15 13 -15 36q0 24 17 39t36 15q23 0 42 -18q20 -18 20 -57q0 -47 -24 -80t-62 -53l-4 7q32 20 50 44t18 48q0 8 -3 14t-6 9zM131 14l-1 -2q-5 -8 -13 -12q-10 -5 -24 -5q-19 0 -33 14t-14 36q0 24 16 39t37 15
q23 0 42 -18q20 -18 20 -57q0 -47 -24 -80t-62 -53l-4 7q32 19 51 44q18 24 18 48q0 16 -9 24z" />
    <glyph glyph-name="dagger" unicode="&#x2020;" horiz-adv-x="394" 
d="M195 -2l-7 -4q-2 55 -4 82q-4 60 -7 90q-6 60 -9 89q-5 46 -9 80q-2 13 -4 33t-3 27q-1 6 -2 13.5t-1.5 12t-0.5 6.5q14 25 27 58t13 72q-15 0 -30 -6q-20 -8 -30 -13t-30 -13q-15 -6 -30 -6q-25 0 -37 13q-12 14 -12 30t12 30q12 13 37 13q15 0 30 -6q20 -8 30 -13
t30 -13q15 -6 30 -6q0 14 -6 32t-15 36t-15 36t-6 32q0 23 13 36q14 14 36 14q21 0 35 -14t14 -36q0 -13 -6 -31t-15 -36t-15 -36t-6 -31q16 0 29 6q9 4 29 14t30 14q15 6 30 6q25 0 37 -13q12 -14 12 -30t-12 -30q-12 -13 -37 -13q-15 0 -30 6q-20 8 -29 13t-27 13
q-14 6 -29 6q0 -37 12 -72q11 -31 26 -58q0 -2 -4 -31q-1 -7 -3 -27t-4 -33q-5 -38 -9 -79q-5 -43 -9 -90q-3 -31 -7 -91q-2 -27 -4 -82h-8z" />
    <glyph glyph-name="daggerdbl" unicode="&#x2021;" horiz-adv-x="395" 
d="M198 -8l-6 -9q-22 0 -36 14q-13 13 -13 36q0 14 6 32t15 36t15 36t6 33q-15 0 -30 -6q-20 -8 -30 -13t-30 -13q-15 -6 -30 -6q-25 0 -37 13t-12 30t12 30t37 13q15 0 30 -6q20 -8 30 -13t30 -13q15 -6 30 -6q0 38 -4 63q-5 33 -10 51t-14 40q-7 18 -15 33q16 28 31 73
q15 44 15 114q-15 0 -30 -6q-20 -8 -30 -13t-30 -13q-15 -6 -30 -6q-25 0 -37 13t-12 30t12 30t37 13q15 0 30 -6q20 -8 30 -13t30 -13q15 -6 30 -6q0 14 -6 32t-15 36t-15 36t-6 32q0 23 13 36q14 14 36 14q21 0 35 -14t14 -36q0 -13 -6 -31t-15 -36t-15 -36t-6 -31
q15 0 30 6q14 5 29 14t29 14q15 6 30 6q25 0 37 -13t12 -30t-12 -30t-37 -13q-15 0 -30 6q-20 8 -30 13t-28 13q-14 6 -29 6q0 -38 4 -63q5 -33 10 -51t14 -40q7 -18 15 -33q-16 -30 -30 -72q-14 -44 -14 -113q16 0 29 6q27 12 29 13q10 5 30 13q15 6 30 6q25 0 37 -13
t12 -30t-12 -30t-37 -13q-15 0 -30 6q-14 5 -29 14q-18 10 -28 14q-15 6 -30 6q0 -15 6 -33t15 -36t15 -36t6 -31q0 -23 -13 -36q-14 -14 -34 -14z" />
    <glyph glyph-name="bullet" unicode="&#x2022;" horiz-adv-x="362" 
d="M181 415l-1 -2q28 0 51 -10q24 -11 42 -27q18 -17 27 -40q9 -24 9 -51t-9 -51q-9 -23 -27 -40q-18 -16 -42 -27q-23 -10 -51 -10t-51 10t-40 27q-16 16 -27 41q-10 23 -10 51t10 51q11 25 27 41t41 27q23 10 51 10z" />
    <glyph glyph-name="ellipsis" unicode="&#x2026;" horiz-adv-x="680" 
d="M565 -12l-2 -1q-26 0 -42 16t-16 42q0 25 17 42t42 17q26 0 42 -16q17 -17 17 -42q0 -26 -16 -42t-42 -16zM338 -13l-2 -1q-26 0 -42 16t-16 42q0 25 17 42t42 17q26 0 42 -16q17 -17 17 -42q0 -26 -16 -42t-42 -16zM110 -14l-2 -1q-26 0 -42 16t-16 42q0 25 17 42t42 17
q26 0 42 -16q17 -17 17 -42q0 -26 -16 -42t-42 -16z" />
    <glyph glyph-name="perthousand" unicode="&#x2030;" horiz-adv-x="1199" 
d="M203 379h-2q-30 0 -60 13q-32 14 -57 37q-25 24 -42 59q-17 36 -17 80t17 80q17 35 42 59q26 24 57 36t60 12q31 0 62 -12t58 -36t44 -59q17 -36 17 -80t-17 -80t-43 -59t-58 -37q-30 -13 -61 -13zM114 7l540 747l12 -10l-539 -745zM201 388l2 -2q18 0 36 9t33 30t24 56
t9 84t-9 84t-24 56t-33 30t-36 9q-17 0 -35 -9t-33 -30q-14 -20 -25 -55q-10 -33 -10 -84q0 -50 9 -84t24 -55t33 -30t35 -9zM585 -8h-4q-31 0 -61 13q-32 14 -57 37q-25 24 -42 59q-16 33 -16 80q0 44 17 80q17 35 42 59q26 24 57 36t62 12q29 0 60 -12q32 -12 59 -36
t44 -59q17 -36 17 -80t-17 -80t-43 -59t-58 -37q-30 -13 -60 -13zM991 -8h-4q-31 0 -61 13q-32 14 -57 37q-25 24 -42 59q-16 33 -16 80q0 44 17 80q17 35 42 59q26 24 57 36t62 12q29 0 60 -12q32 -12 59 -36t44 -59q17 -36 17 -80t-17 -80t-43 -59t-58 -37
q-30 -13 -60 -13zM577 1l2 -2q18 0 36 9t33 30t24 56q9 34 9 84q0 51 -10 84q-11 37 -25 56q-15 21 -33 30t-35 9t-35 -9t-33 -30q-14 -20 -25 -55q-10 -33 -10 -84q0 -49 9 -84q9 -34 24 -55t33 -30t36 -9zM989 -1l-2 -2q18 0 36 9t33 30q14 19 25 56q10 33 10 84t-10 84
q-11 37 -25 56q-15 21 -33 30t-35 9t-35 -9t-33 -30t-24 -55q-9 -35 -9 -84t9 -84q9 -34 24 -55t33 -30t36 -9z" />
    <glyph glyph-name="uni2032" unicode="&#x2032;" horiz-adv-x="160" 
d="M39 564l-3 -4q6 33 6 63v62q0 70 46 70q20 0 30 -12q11 -13 11 -29t-9 -33q-7 -13 -23 -36q-18 -26 -27 -40q-14 -22 -24 -43z" />
    <glyph glyph-name="uni2033" unicode="&#x2033;" horiz-adv-x="273" 
d="M104 564l-3 -4q6 33 6 63v62q0 70 46 70q19 0 30 -12q11 -13 11 -29t-9 -33q-7 -13 -23 -36q-18 -26 -27 -40q-14 -22 -24 -43zM84 560l-3 -4q6 33 6 63v62q0 70 46 70q19 0 30 -12q11 -13 11 -29t-9 -33q-7 -13 -23 -36q-18 -26 -27 -40q-14 -22 -24 -43z" />
    <glyph glyph-name="guilsinglleft" unicode="&#x2039;" horiz-adv-x="259" 
d="M52 226v8l155 161l6 -4l-80 -161l81 -161l-6 -4z" />
    <glyph glyph-name="guilsinglright" unicode="&#x203a;" horiz-adv-x="259" 
d="M44 69l82 161l-81 161l6 4l155 -161v-8l-156 -161z" />
    <glyph glyph-name="fraction" unicode="&#x2044;" horiz-adv-x="503" 
d="M50 379h403v-8h-403v8z" />
    <glyph glyph-name="Euro" unicode="&#x20ac;" horiz-adv-x="707" 
d="M21 344l67 -5q-1 5 -1 15v15v25q0 8 2 24h-72v11h74q10 79 44 140t81 101q49 41 105 62q57 21 113 21t99 -12t73 -30t45 -39t15 -40q0 -17 -12 -29t-33 -12q-22 0 -34 13q-11 13 -19 36q-3 12 -11 36q-6 19 -19 33q-14 15 -37 24q-24 9 -66 9q-47 0 -89 -20
q-41 -20 -71 -59q-31 -40 -50 -98t-24 -137h249v-11h-249q-1 -5 -1 -16v-17v-23q0 -14 1 -21h249v-11h-248q4 -82 26 -145q20 -60 53 -100q31 -38 72 -58q39 -19 86 -19q45 0 81 11q34 10 60 27q27 17 44 36q18 19 33 39l7 -6q-12 -18 -33 -40q-19 -21 -48 -39
q-28 -18 -68 -30q-39 -12 -92 -12q-73 0 -130 28q-59 29 -101 75q-43 48 -68 108t-31 129h-72v11z" />
    <glyph glyph-name="trademark" unicode="&#x2122;" horiz-adv-x="708" 
d="M111 455l-3 -3q6 1 12 5q5 3 8 14q3 10 3 29v50v192h-31q-29 0 -46 -11q-16 -10 -24 -47h-5l7 55q1 5 3 7q1 1 6 1h236q5 0 6 -1q2 -2 3 -7l7 -55h-5q-8 35 -24 47t-48 12h-29v-192v-50q0 -17 3 -28q3 -9 8 -13t14 -5v-4h-101v4zM318 452l-1 -1q7 3 12 6q4 2 7 14
q3 11 3 30v54v85v54q0 20 -3 30q-3 12 -7 14q-6 4 -12 5v4h79q2 0 3 -1l3 -6l94 -225l101 232h76v-4q-6 -1 -12 -5q-4 -3 -7 -13q-3 -11 -3 -30v-54v-85q0 -41 1 -54q2 -22 4 -30q3 -11 8 -14q5 -4 14 -5v-4h-101v4q6 1 12 5q4 2 7 14q3 10 3 30v54v176l-124 -284l-3 1v-1
h-3l-121 290v-182v-54q0 -20 3 -30q3 -11 8 -14t12 -6v-4h-53v4z" />
    <glyph glyph-name="onethird" unicode="&#x2153;" horiz-adv-x="503" 
d="M50 379h403v-8h-403v8zM179 465l2 4q13 1 21 6t12 16q4 12 6 35q2 30 2 63v106q0 30 -1 40q-1 14 -6 22t-13 9q-12 2 -24 2v6l107 69v-253q0 -48 1 -63q1 -22 6 -34q4 -11 12 -16t21 -6v-6h-146zM134 269l-2 -3q2 9 3 12t6 3h243v-5l-168 -143q7 3 21 7q12 3 26 3
q61 0 99 -27t38 -83q0 -22 -11 -46q-10 -21 -32 -40q-20 -17 -52 -28q-30 -10 -70 -10q-29 0 -51 6t-39 15q-16 9 -25 21t-9 23t7 18q8 8 21 8t19 -7q7 -8 8 -18q3 -13 4 -18q3 -12 10 -21q7 -10 21 -16q13 -6 36 -6q27 0 46 10t31 27t18 37q6 21 6 44q0 46 -16 75
q-17 30 -58 30q-25 0 -43 -9t-34 -22l-5 5l138 118h-91q-41 0 -54 -1q-22 -2 -30 -4q-11 -3 -15 -9t-9 -15h-6z" />
    <glyph glyph-name="twothirds" unicode="&#x2154;" horiz-adv-x="503" 
d="M50 379h403v-8h-403v8zM132 271l-2 -3q2 9 3 12t6 3h243v-5l-168 -143q7 3 21 7q12 3 26 3q61 0 99 -27t38 -83q0 -22 -11 -46q-10 -21 -32 -40q-20 -17 -52 -28q-30 -10 -70 -10q-29 0 -51 6t-39 15q-16 9 -25 21t-9 23t7 18q8 8 21 8t19 -7q7 -8 8 -18q3 -13 4 -18
q3 -12 10 -21q7 -10 21 -16q13 -6 36 -6q27 0 46 10t31 27t18 37q6 21 6 44q0 46 -16 75q-16 30 -58 30q-25 0 -43 -9t-34 -22l-5 5l138 118h-91q-41 0 -54 -1q-22 -2 -30 -4q-11 -3 -15 -9t-9 -15h-6zM269 516v4q45 0 59 1q18 1 33 5q13 3 17 9q4 5 9 17h7l-17 -68
q-3 -9 -5 -14q-2 -3 -9 -3h-257l116 111q48 48 70 87q21 37 21 81q0 40 -16 63q-17 24 -57 24q-19 0 -31 -6t-18 -15q-7 -10 -8 -18q-1 -6 -3 -16q-2 -14 -9 -21t-22 -7q-28 0 -28 27q0 11 7 21q9 12 22 20q15 9 37 15q23 6 53 6q23 0 51 -5q27 -5 45 -16q20 -13 32 -30
q12 -18 12 -44q0 -25 -10 -46q-11 -23 -28 -43q-19 -22 -43 -42q-25 -21 -54 -42l-73 -55h97z" />
    <glyph glyph-name="oneeighth" unicode="&#x215b;" horiz-adv-x="503" 
d="M394 22l-5 2q0 -24 -11 -44t-30 -35q-20 -15 -45 -24t-56 -9q-65 0 -104 27t-39 66q0 34 26 57t69 38q-47 23 -65 45q-18 23 -18 54q0 22 11 39q10 16 29 27t42 17q24 6 49 6q61 0 95 -23q33 -23 33 -53q0 -28 -24 -49q-23 -20 -55 -34q51 -23 74 -46q24 -24 24 -61z
M247 -80l-1 1q48 0 69 23q21 22 21 51q0 33 -25 52q-24 18 -78 40l-25 11q-28 -13 -43 -36q-15 -22 -15 -54q0 -39 23 -64q23 -24 74 -24zM282 136l-1 -1q47 29 47 78q0 31 -20 51q-19 19 -65 19q-41 0 -63 -15t-22 -40q0 -30 24 -45t75 -36zM43 381h403v-8h-403v8zM172 467
l2 4q14 1 21 6q8 5 12 16q4 12 6 35q2 30 2 63v106q0 30 -1 40q-1 14 -6 22t-13 9q-12 2 -24 2v6l107 69v-253q0 -48 1 -63q1 -22 6 -34q4 -11 12 -16q7 -5 21 -6v-6h-146z" />
    </font>
</defs>
</svg>
