<?xml version="1.0" standalone="no"?>
<!DOCTYPE svg PUBLIC "-//W3C//DTD SVG 1.1//EN" "http://www.w3.org/Graphics/SVG/1.1/DTD/svg11.dtd" >
<svg xmlns="http://www.w3.org/2000/svg" xmlns:xlink="http://www.w3.org/1999/xlink" version="1.1">
<metadata>
Created by FontForge 20170731 at Tue Aug 28 16:16:03 2018
 By Aleksey,,,
Copyright (c) 2018 Commercial Type, Inc.. All rights reserved.
</metadata>
<defs>
<font id="SchnyderWideSDemi" horiz-adv-x="780" >
  <font-face 
    font-family="Schnyder Wide S Demi"
    font-weight="400"
    font-stretch="normal"
    units-per-em="1000"
    panose-1="0 0 0 0 0 0 0 0 0 0"
    ascent="800"
    descent="-200"
    x-height="471"
    cap-height="751"
    bbox="-113 -300 1184 1080"
    underline-thickness="16"
    underline-position="-128"
    unicode-range="U+000D-FB04"
  />
<missing-glyph horiz-adv-x="212" 
 />
    <glyph glyph-name="f_f" unicode="ff" horiz-adv-x="568" 
d="M298 13l-6 -6q18 7 26 13q10 8 14 24t6 44q1 18 1 72v291h-165v-291q0 -36 2 -72q1 -26 9 -43t22 -24q13 -6 41 -13v-13h-219v13q18 7 26 13q10 8 14 24t6 44q1 18 1 72v291h-61v14q22 5 32 10q12 6 18 15t9 23t3 33v22q0 49 17 86q16 35 44 60q27 24 60 36t65 12
q48 0 78 -13q31 -13 40 -39q23 30 56 44q34 14 65 14q46 0 80 -17q33 -16 33 -51q0 -13 -9 -25t-30 -12q-24 0 -33 11q-8 10 -13 32q-8 31 -15 39q-8 8 -21 8q-26 0 -39 -25t-13 -93v-161h109v-19h-109v-291q0 -36 2 -72q1 -26 9 -43t22 -24q13 -6 41 -13v-13h-218v13z
M338 469l-1 114q0 37 9 66h-4q-22 0 -31 11q-8 10 -13 32q-8 32 -15 41q-8 9 -28 9q-17 0 -31 -7q-16 -8 -26 -24q-10 -17 -18 -45q-7 -27 -7 -69v-128h165z" />
    <glyph glyph-name="f_i" unicode="fi" horiz-adv-x="522" 
d="M32 13l-2 -3q18 7 26 13q10 8 14 24t6 44q1 18 1 72v291h-61v14q22 5 32 10q12 6 18 15t9 24t3 36v36q0 45 14 81q13 34 35 57q21 23 48 33q28 11 54 11q46 0 74 -16q29 -17 29 -45q0 -13 -9 -25t-29 -12q-22 0 -29 9t-12 29q-6 27 -11 36q-4 7 -17 7q-24 0 -36 -26
t-12 -93v-160h111l155 11v-321q0 -54 1 -72q1 -26 6 -43q4 -16 15 -24q9 -7 30 -13v-13h-205v13q21 6 30 13q10 8 15 24q4 16 6 44q1 18 1 72v177q0 45 -1 59q-2 22 -7 33q-6 12 -16 15t-30 6h-111v-291q0 -36 2 -72q1 -26 9 -43t22 -24q13 -6 41 -13v-13h-219v13zM390 551
q-25 0 -42 17t-17 42q0 24 17 41t42 17q23 0 42 -17q18 -17 18 -41q0 -26 -18 -42q-19 -17 -42 -17z" />
    <glyph glyph-name="f_l" unicode="fl" horiz-adv-x="523" 
d="M32 13l-8 -6q18 7 26 13q10 8 14 24t6 44q1 18 1 72v291h-61v14q20 3 32 9t18 15t9 23t3 33v35q0 48 17 85q16 35 42 58q25 23 57 33q33 11 60 11q52 0 83 -19q32 -20 32 -54q0 -11 -7 -21q-8 -11 -27 -11q-22 0 -30 11q-8 12 -14 33q-7 32 -15 39q-7 7 -23 7
q-28 0 -49 -27t-21 -95v-155h99v-19h-99v-291q0 -36 2 -72q1 -26 9 -43t22 -24q13 -6 41 -13v-13h-219v13zM284 7v-1q21 6 30 13q10 7 15 24q4 16 6 44q1 18 1 72v415v61q0 21 -5 33q-5 11 -15 14q-13 4 -30 5v16l152 74v-618q0 -54 1 -72q1 -26 6 -43q5 -16 15 -24
q9 -7 30 -13v-13h-206v13z" />
    <glyph glyph-name="f_f_i" unicode="ffi" horiz-adv-x="788" 
d="M32 13l-14 -3q18 7 26 13q10 8 14 24t6 44q1 18 1 72v291h-61v14q40 7 52 24q12 16 12 57v21q0 49 17 86q16 35 44 60q27 24 60 36t65 12q48 0 78 -13q31 -13 40 -39q23 31 54 44q33 14 63 14q46 0 74 -16q29 -17 29 -45q0 -13 -9 -25t-29 -12t-28 9q-7 9 -12 29
q-8 28 -12 36q-4 7 -17 7q-23 0 -35 -26q-12 -25 -12 -93v-160h112l155 11v-321q0 -54 1 -72q1 -26 6 -43q4 -17 15 -24q9 -7 30 -13v-13h-206v13q21 6 30 13q11 7 15 24q4 16 6 44q1 18 1 72v177q0 45 -1 59q-2 21 -6 33t-15 15t-30 6h-112v-291q0 -36 2 -72q1 -26 9 -43
t22 -24q13 -6 41 -13v-13h-218v13q18 7 26 13q10 8 14 24t6 44q1 18 1 72v291h-165v-291q0 -36 2 -72q1 -26 9 -43t22 -24q13 -6 41 -13v-13h-219v13zM330 472l-1 111q0 39 9 69h-4q-22 0 -31 11q-8 10 -13 32q-8 32 -15 41t-28 9q-17 0 -31 -7q-16 -8 -26 -24t-18 -45
q-7 -27 -7 -69v-128h165zM642 550q-23 0 -42 17q-18 17 -18 42t18 41q19 17 42 17q25 0 42 -17t17 -41q0 -25 -17 -42t-42 -17z" />
    <glyph glyph-name="f_f_l" unicode="ffl" horiz-adv-x="789" 
d="M298 13l-7 -5q18 7 26 13q10 8 14 24t6 44q1 18 1 72v291h-165v-291q0 -36 2 -72q1 -26 9 -43t22 -24q13 -6 41 -13v-13h-219v13q18 7 26 13q10 8 14 24t6 44q1 18 1 72v291h-61v14q22 5 32 10q12 6 18 15t9 23q3 13 3 35v21q0 49 17 86q16 35 44 60q27 24 60 36t66 12
q49 0 80 -15t39 -42q28 32 63 47q36 15 71 15q50 0 82 -18q31 -18 31 -52q0 -13 -7 -23q-8 -11 -27 -11q-22 0 -30 11q-8 12 -14 33q-8 32 -15 38q-8 6 -23 6q-29 0 -50 -27t-21 -95v-157h100v-19h-100v-291q0 -36 2 -72q1 -26 9 -43t22 -24q13 -6 41 -13v-13h-218v13z
M337 470v106q0 40 12 72h-5q-22 0 -31 11q-8 10 -13 32q-8 31 -15 42q-7 10 -30 10q-18 0 -32 -7q-15 -8 -27 -24t-18 -45t-6 -69v-128h165zM550 7v-1q21 6 30 13q10 7 15 24q4 16 6 44q1 18 1 72v415v61q0 21 -5 33q-5 11 -15 14q-13 4 -30 5v16l152 74v-618q0 -54 1 -72
q1 -26 6 -43q5 -16 15 -24q9 -7 30 -13v-13h-206v13z" />
    <glyph glyph-name="f_b" unicode="fb" horiz-adv-x="873" 
d="M32 13l-8 -4q18 7 26 13q10 8 14 24t6 44q1 18 1 72v291h-61v14q20 3 32 9t18 15t9 23t3 33v36q0 48 17 85q16 35 42 58q25 22 57 33q33 11 60 11q52 0 83 -18q32 -18 32 -52q0 -13 -7 -23q-8 -11 -27 -11q-22 0 -30 11q-8 12 -14 33q-8 32 -15 38q-8 6 -23 6
q-28 0 -49 -27t-21 -95v-157h99v-19h-99v-291q0 -36 2 -72q1 -26 9 -43t22 -24q13 -6 41 -13v-13h-219v13zM564 -14l-5 -1q-35 0 -63 6q-24 5 -51 14q-8 3 -21.5 7.5l-19.5 6.5q-18 6 -32 6q-13 0 -18 -8q-4 -7 -6 -14h-15v561q0 48 -1 64q-2 24 -6 36q-4 11 -15 16t-28 6
v16l150 75v-405l17 19q15 17 33 33q20 18 40 29q24 13 47 20q26 8 51 8q36 0 75 -14q37 -13 67 -42t48 -73q18 -45 18 -105q0 -64 -22 -111q-23 -49 -58 -81q-36 -33 -84 -51t-101 -18zM467 21l-1 -2q10 -6 35 -13q23 -6 57 -6q33 0 60 10q28 10 51 36t36 70q13 43 13 114
q0 70 -11 116q-11 45 -28 68q-19 25 -40 32q-24 8 -45 8q-24 0 -42 -7q-22 -9 -38 -19q-16 -11 -34 -27q-16 -15 -31 -31l-17 -19v-248q0 -34 6 -52t29 -30z" />
    <glyph glyph-name="f_f_b" unicode="ffb" horiz-adv-x="1139" 
d="M298 13l-7 -4q18 7 26 13q10 8 14 24t6 44q1 18 1 72v291h-165v-291q0 -36 2 -72q1 -26 9 -43t22 -24q13 -6 41 -13v-13h-219v13q18 7 26 13q10 8 14 24t6 44q1 18 1 72v291h-61v14q22 5 32 10q12 6 18 15t9 23t3 35v20q0 49 17 86q16 35 44 60q27 24 60 36t66 12
q49 0 80 -15t39 -42q28 32 63 47q36 15 71 15q50 0 82 -18q31 -18 31 -52q0 -13 -7 -23q-8 -11 -27 -11q-22 0 -30 11q-8 12 -14 33q-8 32 -15 38q-8 6 -23 6q-29 0 -50 -27t-21 -95v-157h100v-19h-100v-291q0 -36 2 -72q1 -26 9 -43t22 -24q13 -6 41 -13v-13h-218v13z
M337 471v106q0 41 12 72h-5q-22 0 -31 11q-8 10 -13 32q-8 32 -15 42t-30 10q-18 0 -32 -7q-15 -7 -27 -24t-18 -45t-6 -69v-128h165zM831 -15l-5 -1q-34 0 -63 6q-24 5 -51 14q-8 3 -21.5 7.5l-19.5 6.5q-18 6 -32 6q-13 0 -18 -8q-4 -7 -6 -14h-15v561q0 48 -1 64
q-1 24 -6 36q-4 11 -15 16t-28 6v16l150 75v-405l17 19q15 16 33 33q20 18 40 29q24 13 47 20q26 8 51 8q36 0 75 -14q37 -13 67 -42t48 -73q18 -45 18 -105q0 -64 -22 -111q-23 -49 -58 -81q-36 -33 -84 -51t-101 -18zM734 20l-1 -2q10 -6 35 -13q22 -6 57 -6q33 0 60 10
q29 11 51 36q23 26 36 70q13 43 13 114q0 70 -11 116q-11 45 -28 68q-19 25 -40 32q-24 8 -45 8q-24 0 -42 -7q-22 -9 -38 -19q-16 -11 -34 -27q-16 -15 -31 -31l-17 -19v-248q0 -34 6 -52t29 -30z" />
    <glyph glyph-name="f_f_h" unicode="ffh" horiz-adv-x="1120" 
d="M298 13l-7 -4q18 7 26 13q10 8 14 24t6 44q1 18 1 72v291h-165v-291q0 -36 2 -72q1 -26 9 -43t22 -24q13 -6 41 -13v-13h-219v13q18 7 26 13q10 8 14 24t6 44q1 18 1 72v291h-61v14q22 5 32 10q12 6 18 15t9 23t3 35v20q0 49 17 86q16 35 44 60q27 24 60 36t66 12
q49 0 80 -15t39 -42q28 32 63 47q36 15 71 15q50 0 82 -18q31 -18 31 -52q0 -13 -7 -23q-8 -11 -27 -11q-22 0 -30 11q-8 12 -14 33q-8 32 -15 38q-8 6 -23 6q-29 0 -50 -27t-21 -95v-157h100v-19h-100v-291q0 -36 2 -72q1 -26 9 -43t22 -24q13 -6 41 -13v-13h-218v13z
M337 471v106q0 41 12 72h-5q-22 0 -31 11q-8 10 -13 32q-8 32 -15 42t-30 10q-18 0 -32 -7q-15 -7 -27 -24t-18 -45t-6 -69v-128h165zM557 8l-1 -2q18 7 26 13q10 8 14 24t6 44q1 18 1 72v406q0 50 -1 66q-2 24 -6 36t-15 15q-13 4 -30 5v16l152 73v-423l43 40q22 20 33 29
q17 14 38 27t42 20q24 8 48 8q31 0 53 -7q25 -8 42 -22t28 -41q10 -24 10 -63v-185v-72q0 -25 5 -43q4 -16 14 -24q8 -6 26 -13v-13h-197v13q20 7 29 13q11 8 15 24t6 44q1 18 1 72v217q0 37 -17 54t-48 17t-61 -21t-67 -55l-43 -39v-173q0 -54 1 -72q1 -26 6 -43
q4 -17 15 -24q9 -6 29 -13v-13h-197v13z" />
    <glyph glyph-name="f_f_j" unicode="ffj" horiz-adv-x="785" 
d="M298 13l-7 -5q18 7 26 13q10 8 14 24t6 44q1 18 1 72v291h-165v-291q0 -36 2 -72q1 -26 9 -43t22 -24q13 -6 41 -13v-13h-219v13q18 7 26 13q10 8 14 24t6 44q1 18 1 72v291h-61v14q22 5 32 10q12 6 18 15t9 23q3 13 3 35v20q0 49 17 86q16 35 44 60q27 24 60 36t66 12
q46 0 75 -13q31 -14 41 -37q22 28 53 42q29 13 60 13q46 0 74 -16q29 -17 29 -45q0 -13 -9 -25t-29 -12q-21 0 -28 9t-12 29q-7 29 -12 36q-4 7 -17 7q-23 0 -35 -26t-12 -93v-160h112l155 11v-417q0 -60 -27 -105t-75 -78q-32 -22 -54 -30q-24 -8 -42 -8q-20 0 -34 10
q-15 10 -15 33q0 20 11 29q10 9 27 9q14 0 24 -7q11 -8 18 -15l15 -15q7 -7 17 -7q7 0 13 6t8 10q3 6 6 18q2 9 4 31q2 26 2 51v344q0 45 -1 59q-1 21 -6 33t-15 15t-30 6h-112v-291q0 -36 2 -72q1 -26 9 -43t22 -24q13 -6 41 -13v-13h-218v13zM337 470v110q0 38 9 68h-2
q-22 0 -31 11q-8 10 -13 32q-8 31 -15 42q-7 10 -30 10q-18 0 -32 -7q-15 -8 -27 -24t-18 -45t-6 -69v-128h165zM652 547q-25 0 -42 17t-17 42q0 24 17 41t42 17q23 0 42 -17q18 -17 18 -41q0 -26 -18 -42q-19 -17 -42 -17z" />
    <glyph glyph-name="f_f_k" unicode="ffk" horiz-adv-x="1066" 
d="M298 13l-7 -4q18 7 26 13q10 8 14 24t6 44q1 18 1 72v291h-165v-291q0 -36 2 -72q1 -26 9 -43t22 -24q13 -6 41 -13v-13h-219v13q18 7 26 13q10 8 14 24t6 44q1 18 1 72v291h-61v14q22 5 32 10q12 6 18 15t9 23t3 35v20q0 49 17 86q16 35 44 60q27 24 60 36t66 12
q49 0 80 -15t39 -42q28 32 63 47q36 15 71 15q50 0 82 -18q31 -18 31 -52q0 -13 -7 -23q-8 -11 -27 -11q-22 0 -30 11q-8 12 -14 33q-8 32 -15 38q-8 6 -23 6q-29 0 -50 -27t-21 -95v-157h100v-19h-100v-291q0 -36 2 -72q1 -26 9 -43t22 -24q13 -6 41 -13v-13h-218v13z
M337 471v106q0 41 12 72h-5q-22 0 -31 11q-8 10 -13 32q-8 32 -15 42t-30 10q-18 0 -32 -7q-15 -7 -27 -24t-18 -45t-6 -69v-128h165zM557 8l-4 1q18 7 26 13q10 8 14 24t6 44q1 18 1 72v416q0 45 -1 59q-2 22 -6 32q-5 11 -14 14q-11 4 -27 5v16l149 74v-530l203 152
q32 24 27 39t-30 18v14h134v-14q-23 -6 -48 -22q-30 -18 -65 -45l-137 -102l217 -239q18 -21 29 -30q9 -8 22 -12v-13h-199v13q26 5 29 18q3 14 -25 45l-155 172v-82q0 -54 1 -72q1 -26 6 -43q4 -17 15 -24q9 -6 29 -13v-13h-197v13z" />
    <glyph glyph-name="f_h" unicode="fh" horiz-adv-x="854" 
d="M32 13l-8 -4q18 7 26 13q10 8 14 24t6 44q1 18 1 72v291h-61v14q20 3 32 9t18 15t9 23t3 33v36q0 48 17 85q16 35 42 58q25 22 57 33q33 11 60 11q52 0 83 -18q32 -18 32 -52q0 -13 -7 -23q-8 -11 -27 -11q-22 0 -30 11q-8 12 -14 33q-8 32 -15 38q-8 6 -23 6
q-28 0 -49 -27t-21 -95v-157h99v-19h-99v-291q0 -36 2 -72q1 -26 9 -43t22 -24q13 -6 41 -13v-13h-219v13zM290 9l-1 -2q18 7 26 13q10 8 14 24t6 44q1 18 1 72v406q0 50 -1 66q-1 24 -6 36t-15 15q-13 4 -30 5v16l152 73v-423l43 40q23 20 33 29q17 14 38 27t42 20
q24 8 48 8q31 0 53 -7q25 -8 42 -22t28 -41q10 -24 10 -63v-185v-72q0 -25 5 -43q4 -16 14 -24q8 -6 26 -13v-13h-197v13q20 7 29 13q10 7 15 24q4 16 6 44q1 18 1 72v217q0 37 -17 54t-48 17t-61 -21t-67 -55l-43 -39v-173q0 -54 1 -72q1 -26 6 -43q5 -16 15 -24
q9 -6 29 -13v-13h-197v13z" />
    <glyph glyph-name="f_j" unicode="fj" horiz-adv-x="520" 
d="M32 13l-4 -5q18 7 26 13q10 8 14 24t6 44q1 18 1 72v291h-61v14q22 5 32 10q12 6 18 15t9 24t3 36v36q0 45 14 81q13 34 35 57q21 23 48 33q28 11 54 11q46 0 74 -16q29 -17 29 -45q0 -13 -9 -25t-29 -12q-22 0 -29 9t-12 29q-6 27 -11 36q-4 7 -17 7q-24 0 -36 -26
t-12 -93v-160h111l155 11v-417q0 -59 -26 -105q-25 -44 -74 -78q-31 -22 -54 -30q-24 -8 -42 -8q-21 0 -35 10q-15 10 -15 33q0 20 12 29t28 9q14 0 24 -7q11 -8 18 -15l15 -15q7 -7 17 -7q7 0 13 6t8 10q3 6 6 18q2 9 4 31q2 26 2 51v344q0 45 -1 59q-2 22 -7 33
q-6 12 -16 15t-30 6h-111v-291q0 -36 2 -72q1 -26 9 -43t22 -24q13 -6 41 -13v-13h-219v13zM389 549q-23 0 -42 17q-18 16 -18 42q0 24 18 41q19 17 42 17q25 0 42 -17t17 -41q0 -25 -17 -42t-42 -17z" />
    <glyph glyph-name="f_k" unicode="fk" horiz-adv-x="801" 
d="M32 13l-8 -4q18 7 26 13q10 8 14 24t6 44q1 18 1 72v291h-61v14q20 3 32 9t18 15t9 23t3 33v36q0 48 17 85q16 35 42 58q25 22 57 33q33 11 60 11q52 0 83 -18q32 -18 32 -52q0 -13 -7 -23q-8 -11 -27 -11q-22 0 -30 11q-8 12 -14 33q-8 32 -15 38q-8 6 -23 6
q-28 0 -49 -27t-21 -95v-157h99v-19h-99v-291q0 -36 2 -72q1 -26 9 -43t22 -24q13 -6 41 -13v-13h-219v13zM290 9l-4 1q18 7 26 13q10 8 14 24t6 44q1 18 1 72v416q0 45 -1 59q-2 22 -6 32q-5 11 -14 14q-11 4 -27 5v16l149 74v-530l203 152q31 24 27 39t-30 18v14h134v-14
q-23 -6 -48 -22q-30 -18 -65 -45l-137 -102l217 -239q18 -21 29 -30q9 -8 22 -12v-13h-199v13q26 5 29 18q3 14 -25 45l-155 172v-82q0 -54 1 -72q1 -26 6 -43q5 -16 15 -24q9 -6 29 -13v-13h-197v13z" />
    <glyph glyph-name="g_j" unicode="gj" horiz-adv-x="768" 
d="M641 559v-2q-23 0 -42 17q-18 16 -18 42t18 42q19 17 42 17q26 0 42 -16q17 -17 17 -42t-17 -42q-16 -16 -42 -16zM509 -155l-1 -4q-20 0 -33 10t-13 33q0 20 11 29t24 9q12 0 21 -6t17 -14l14 -14q6 -6 14 -6q6 0 13 7q4 4 7 10q4 7 5 18q2 16 2 30v47v270v67
q0 22 -5 37q-5 14 -15 18q-12 5 -30 8v15l152 74v-417q0 -61 -25 -105q-26 -46 -70 -78q-31 -21 -49 -29q-21 -9 -39 -9zM238 -174l-7 -9q-41 0 -82 6t-72 18t-51 32q-19 19 -19 45q0 16 9 31t23 26t32 20q19 9 37 15q-32 11 -47 30q-15 20 -15 45q0 15 6 28t15 24t20 20
q14 12 21 17l13 10q-37 20 -63 51q-25 31 -25 77q0 39 18 69t48 51q29 20 66 31q38 11 69 11q56 0 107 -25q22 20 53 36q30 15 56 15q41 0 41 -36q0 -16 -9 -25t-22 -9q-9 0 -19 5q-9 5 -16 10q-5 4 -15 10q-8 5 -17 5q-19 0 -37 -15q36 -20 59 -52q24 -33 24 -78
q0 -39 -19 -67q-20 -28 -48 -48q-27 -19 -65 -28q-36 -9 -69 -9q-20 0 -48 5q-26 4 -48 15l-13 -10q-33 -25 -33 -42q0 -11 10 -17q11 -7 39 -8l184 -18q78 -8 114 -30q36 -23 36 -77q0 -35 -18 -64q-17 -27 -50 -49q-31 -20 -76 -31q-47 -11 -97 -11zM231 173l-2 -1
q23 0 41 7q19 7 35 23q15 15 24 42t9 66q0 38 -9 67t-24 45q-15 17 -34 24q-21 8 -40 8t-40 -8q-19 -7 -34 -24q-15 -16 -24 -45t-9 -67q0 -39 9 -66t24 -42q14 -14 35 -22q18 -7 39 -7zM71 -78l-4 1q0 -44 41 -67q40 -22 117 -22q48 0 84 9q34 9 60 23q24 14 36 30t12 33
q0 32 -28 42q-31 11 -88 17l-156 16h-8q-1 0 -7 2q-59 -23 -59 -84z" />
    <glyph glyph-name=".notdef" horiz-adv-x="212" 
 />
    <glyph glyph-name=".null" horiz-adv-x="0" 
 />
    <glyph glyph-name="nonmarkingreturn" unicode="&#xd;" horiz-adv-x="212" 
 />
    <glyph glyph-name="NULL" horiz-adv-x="0" 
 />
    <glyph glyph-name="NULL" horiz-adv-x="0" 
 />
    <glyph glyph-name="space" unicode=" " horiz-adv-x="212" 
 />
    <glyph glyph-name="exclam" unicode="!" horiz-adv-x="273" 
d="M128 207l-3 -3q-8 106 -18 185q-7 57 -20 138q-9 59 -15 96t-6 60q0 37 19 56q20 20 51 20q30 0 49 -19t19 -55q0 -23 -6 -60t-15 -96q-5 -36 -19 -138q-11 -80 -18 -184h-18zM134 -16l-1 -1q-25 0 -45 18q-19 18 -19 47q0 28 20 46q19 18 45 18t46 -18q19 -18 19 -46
t-19 -46q-20 -18 -46 -18z" />
    <glyph glyph-name="quotedbl" unicode="&#x22;" horiz-adv-x="361" 
d="M248 531l2 -2q-5 23 -12 47q-5 17 -15 53q-3 10 -7.5 27.5t-5.5 22.5q-6 23 -6 38q0 22 14 38q14 15 39 15t39 -15q14 -16 14 -38q0 -15 -6 -38q-1 -2 -5.5 -20t-7.5 -29q-5 -18 -15 -52q-7 -24 -12 -47h-16zM99 529l2 -2q-5 23 -12 47q-5 17 -15 53q-3 10 -7.5 27.5
t-5.5 22.5q-6 23 -6 38q0 22 14 38q13 15 39 15t39 -15q14 -16 14 -38q0 -15 -6 -38q-1 -2 -5.5 -20t-7.5 -29q-5 -18 -15 -52q-7 -24 -12 -47h-16z" />
    <glyph glyph-name="numbersign" unicode="#" horiz-adv-x="571" 
d="M23 284h141l44 232h-137v20h141l40 214h23l-40 -214h155l40 214h23l-40 -214h138v-20h-142l-44 -232h139v-20h-142l-50 -263h-23l50 263h-155l-50 -263h-23l50 263h-138v20zM342 284l44 232h-155l-44 -232h155z" />
    <glyph glyph-name="dollar" unicode="$" horiz-adv-x="594" 
d="M252 843l-2 -94q12 2 18 2h20h21q14 0 21 -1v87h22v-89q42 -6 75 -18t57 -27q23 -14 37 -33q13 -17 13 -36q0 -20 -10 -31q-10 -12 -30 -12q-25 0 -37 15q-11 13 -22 44q-6 16 -10 24q-5 11 -15 22q-7 9 -23 19q-15 10 -36 14v-290q51 -16 86 -34q38 -19 67 -45
q28 -25 43 -60t15 -83q0 -39 -14 -78q-13 -36 -41 -67q-27 -30 -66 -51q-40 -22 -89 -29v-101h-22v98q-6 -1 -18 -1h-19h-21q-7 0 -21 2v-98h-22v100q-50 8 -87 22q-38 15 -67 36q-28 20 -43 45q-15 24 -15 48q0 22 14 34q13 12 35 12q46 0 54 -50q5 -29 10 -46
q6 -22 18 -38q11 -15 32 -28q18 -11 51 -16v340q-98 34 -144 83q-45 48 -45 123q0 38 14 72q13 32 39 58q25 25 60 42t75 24v90h22zM482 161l-1 2q0 29 -6 50q-6 22 -21 38q-15 17 -40 30q-26 13 -63 27v-301q71 14 101 57q30 44 30 97zM291 4v-1h20q6 0 18 2v311l-48 15
l-32 10v-336q7 -1 21 -1h21zM109 603l-2 -2q0 -28 7 -46q8 -20 22 -33q16 -14 37 -24q23 -10 54 -21v253q-55 -10 -87 -44q-31 -32 -31 -83zM327 445l-2 286q-12 2 -19 2h-22h-19q-12 0 -18 -1v-264l51 -15z" />
    <glyph glyph-name="percent" unicode="%" horiz-adv-x="810" 
d="M212 379l-2 -1q-33 0 -63 13q-31 13 -57 38q-25 24 -42 59q-16 33 -16 78q0 42 17 78q17 35 42 59q25 23 57 37q30 13 63 13t63 -13q32 -14 57 -37q25 -24 42 -59q17 -36 17 -78q0 -45 -16 -78q-17 -35 -42 -59q-25 -23 -57 -37q-30 -13 -63 -13zM124 11l535 743l20 -14
l-535 -743zM210 394l-2 -1q16 0 34 9q17 8 31 29q14 20 23 53t9 83t-9 83q-10 35 -22 53q-14 20 -31 27q-19 8 -34 8t-33 -8q-16 -8 -30 -27q-12 -18 -22 -53q-9 -33 -9 -83t9 -83t23 -53q13 -19 30 -28t33 -9zM594 -8l-2 -1q-33 0 -63 13q-31 13 -57 38q-25 24 -42 59
q-16 33 -16 78q0 42 17 78q17 35 42 59q25 23 57 37q30 13 63 13t63 -13q32 -14 57 -37q25 -24 42 -59q17 -36 17 -78q0 -45 -16 -78q-17 -35 -42 -59q-25 -23 -57 -37q-30 -13 -63 -13zM592 7l-2 -1q16 0 34 9t32 29t23 53t9 83t-9 83t-23 53t-31 27q-19 8 -34 8t-33 -8
q-16 -7 -30 -27q-12 -18 -22 -53q-9 -33 -9 -83t9 -83t23 -53q13 -19 30 -28t33 -9z" />
    <glyph glyph-name="ampersand" unicode="&#x26;" horiz-adv-x="866" 
d="M188 588l-3 2q0 36 15 68t42 54t62 36q36 14 75 14q35 0 68 -11q31 -10 56 -29t38 -42q14 -25 14 -51q0 -33 -17 -61q-16 -27 -42 -48q-24 -20 -57 -37q-31 -17 -60 -27l9 -9l215 -217l19 -19q10 17 21 36l46 84q16 32 24 56q8 23 3 38q-4 15 -18 24q-15 10 -36 14v14
h168v-14q-20 -5 -33 -12t-25 -22q-13 -16 -27 -40q-6 -10 -37 -66l-46 -84q-3 -5 -7.5 -13.5t-5.5 -9.5q-8 -14 -13 -21l86 -86q26 -26 56 -52q19 -17 38 -28q16 -10 32 -14v-13h-164l-109 110q-57 -65 -118 -93q-60 -28 -132 -28q-66 0 -120 15t-93 42t-60 65
q-21 37 -21 81q0 52 23 92q22 38 57 67q36 30 75 47q50 22 75 32q-35 42 -54 81q-19 38 -19 75zM147 206l1 1q0 -40 11 -78q11 -36 33 -63t56 -42q33 -15 78 -15q66 0 124 27t112 90l-258 261l-35 37q-23 -11 -46 -30t-39 -43q-17 -26 -27 -61q-10 -34 -10 -84zM274 636l1 1
q0 -24 8 -48q7 -21 21 -43q12 -19 30 -40q11 -13 35 -37q24 11 44 24q21 14 38 32q17 19 26 42q9 24 9 56q0 64 -29 95q-29 30 -77 30q-50 0 -78 -33q-28 -32 -28 -79z" />
    <glyph glyph-name="quotesingle" unicode="'" horiz-adv-x="210" 
d="M97 531l2 -2q-5 23 -12 47q-5 17 -15 53q-3 10 -7.5 27.5t-5.5 22.5q-6 23 -6 38q0 22 14 38q13 15 39 15t39 -15q14 -16 14 -38q0 -15 -6 -38q-1 -2 -5.5 -20t-7.5 -29q-5 -18 -15 -52q-7 -24 -12 -47h-16z" />
    <glyph glyph-name="parenleft" unicode="(" horiz-adv-x="354" 
d="M322 -107l-1 2q-41 31 -84 70q-47 42 -87 99q-41 58 -68 128t-27 156t27 156q26 69 68 126t87 98q43 39 84 70l11 -12q-26 -24 -54 -58q-31 -37 -56 -90q-24 -52 -43 -126q-18 -72 -18 -166q0 -95 18 -167q17 -70 44 -126q25 -53 56 -90q28 -34 54 -58z" />
    <glyph glyph-name="parenright" unicode=")" horiz-adv-x="354" 
d="M21 -95v-5q22 21 54 59q30 36 57 90t45 126t18 167q0 94 -18 166t-45 126t-57 90q-28 34 -54 58l11 12q41 -31 84 -70q48 -43 87 -97q42 -57 68 -126q27 -71 27 -156t-27 -156q-26 -68 -68 -127q-41 -57 -87 -99q-43 -39 -84 -70z" />
    <glyph glyph-name="asterisk" unicode="*" horiz-adv-x="361" 
d="M209 490v-8q0 -36 -29 -36q-28 0 -28 36q0 23 11 51q11 27 15 61q-22 -28 -33 -54t-27 -42q-12 -14 -25 -14t-22 10q-9 9 -9 21t14 26q20 17 46 27q28 11 53 30q-35 -5 -62 -15q-26 -10 -50 -10q-36 0 -36 28t36 28q24 0 50 -10q27 -10 62 -15q-13 10 -27 18
q-18 10 -27 14q-13 6 -24 12q-12 7 -20 15q-14 12 -15 25q-2 14 9 24q19 20 45 -6q13 -15 28 -44q13 -25 33 -55q-5 36 -15 63q-10 26 -10 50q0 18 7 26q7 9 21 9t21 -9q8 -10 8 -26q0 -24 -10 -50q-10 -27 -15 -62q20 30 32 56q13 29 28 44q25 27 48 4q9 -8 8 -21t-15 -25
q-19 -17 -45 -28q-25 -10 -52 -33q34 5 60 15q27 11 48 11q37 0 37 -28t-37 -28q-24 0 -48 10q-26 11 -60 15q28 -20 52 -30q26 -10 45 -27q28 -27 6 -49q-9 -9 -22 -8t-25 15q-16 16 -27 44q-10 26 -33 55q4 -35 15 -61q10 -24 10 -49z" />
    <glyph glyph-name="plus" unicode="+" horiz-adv-x="545" 
d="M262 134v207h-208v21h208v207h22v-207h207v-21h-207v-207h-22z" />
    <glyph glyph-name="comma" unicode="," horiz-adv-x="255" 
d="M151 16l3 2q-5 -6 -15 -13q-9 -6 -27 -6q-22 0 -39 15q-16 15 -16 41q0 29 18 45q19 17 42 17q12 0 27 -5q14 -5 24 -16q10 -12 18 -30q7 -17 7 -44q0 -56 -34 -94q-34 -39 -88 -58l-7 11q44 19 70 48q25 28 25 63q0 16 -8 24z" />
    <glyph glyph-name="hyphen" unicode="-" horiz-adv-x="324" 
d="M64 307h216l-20 -77h-216z" />
    <glyph glyph-name="period" unicode="." horiz-adv-x="243" 
d="M122 -13v-1q-26 0 -46 18q-19 18 -19 47q0 28 19 46q20 18 46 18t45 -18t19 -46t-19 -46t-45 -18z" />
    <glyph glyph-name="slash" unicode="/" horiz-adv-x="515" 
d="M491 795l-488 -961l-22 11l487 962z" />
    <glyph glyph-name="zero" unicode="0" horiz-adv-x="751" 
d="M376 761h-1q61 0 122 -29q59 -28 108 -80t77 -122q29 -72 29 -153q0 -83 -29 -155t-76 -122q-49 -52 -108 -80q-61 -29 -122 -29t-122 29q-59 28 -108 80q-48 51 -78 122t-30 155q0 83 30 153q30 71 78 122q49 52 108 80q61 29 122 29zM375 745l-1 -1q-40 0 -77 -19
t-69 -63t-51 -114q-19 -69 -19 -174q0 -104 18 -174t48 -114t69 -63q38 -19 80 -19q41 0 81 20q39 20 69 63t48 114t18 174q0 105 -19 174t-50 114q-30 43 -68 63q-37 19 -77 19z" />
    <glyph glyph-name="one" unicode="1" horiz-adv-x="338" 
d="M31 0l-2 11q28 4 47 14q18 9 27 35t12 75t3 135v181q0 70 -1 92q-2 34 -10 48q-9 14 -27 16q-18 1 -51 -3v13l203 149v-495q0 -69 2 -135q2 -50 9 -75t24 -34q18 -10 45 -14v-13h-281z" />
    <glyph glyph-name="two" unicode="2" horiz-adv-x="598" 
d="M289 94l-1 2q83 0 131 3q50 3 75 10q27 7 39 21t21 36h18l-31 -118q-1 -4 -3.5 -12.5t-3.5 -11.5q-4 -11 -7 -14q-5 -5 -10 -6q-4 -1 -16 -1h-492l221 203q58 52 96 99q39 48 59 90q21 43 30 83q9 39 9 78q0 92 -37 141q-38 50 -123 50q-39 0 -59 -10q-21 -11 -33 -27
q-11 -15 -16 -36q-4 -20 -9 -36q-6 -27 -18 -39t-35 -12t-39 14q-15 13 -15 36q0 19 14 42t41 41t69 30t101 12q49 0 99 -12q51 -12 90 -37q40 -25 66 -66t26 -97q0 -52 -21 -98q-22 -49 -58 -92q-40 -48 -91 -89q-58 -47 -120 -89l-124 -88h157z" />
    <glyph glyph-name="three" unicode="3" horiz-adv-x="630" 
d="M268 7l-5 -5q53 0 93 17q38 16 64 48q25 31 37 76t12 99q0 100 -33 151t-112 51q-30 0 -47 -4q-19 -4 -36 -12q-16 -7 -32 -20q-19 -15 -32 -27l-12 11l278 262h-125q-85 0 -133 -3q-50 -3 -73 -10q-25 -7 -34 -21t-18 -36h-18l32 126q8 27 12 33t18 6h451v-14l-304 -286
q34 14 76 14q58 0 104 -13q49 -14 84 -40q36 -27 57 -68q21 -40 21 -96q0 -50 -24 -96t-66 -81q-43 -35 -102 -56q-60 -21 -133 -21q-56 0 -103 12q-46 12 -79 33q-34 21 -51 46q-18 25 -18 49q0 20 12 33q12 14 35 14q28 0 42 -15q13 -15 18 -44q1 -6 4 -18l4 -16
q4 -19 18 -37t42 -30t76 -12z" />
    <glyph glyph-name="four" unicode="4" horiz-adv-x="707" 
d="M534 200h-2q2 -67 4 -93q3 -35 9 -54t18 -27t30 -12v-13h-232v13q18 4 30 12t18 27t9 54t3 93h-395v11l477 547h31v-483h142l-37 -75h-105zM419 275v365l-317 -365h317z" />
    <glyph glyph-name="five" unicode="5" horiz-adv-x="633" 
d="M177 659l-69 -226q34 25 78 39q45 14 101 14q65 0 120 -15q57 -16 95 -43q40 -29 62 -70q23 -43 23 -96q0 -52 -23 -103q-22 -49 -65 -87q-42 -38 -102 -60q-59 -22 -134 -22q-54 0 -99 12q-44 12 -76 30q-31 18 -49 42t-18 47q0 19 12 33t35 14q27 0 39 -15t18 -43
q5 -23 10 -37q6 -17 20 -33q13 -15 39 -24t69 -9q54 0 93 21q40 21 65 57q26 37 38 82q12 47 12 97q0 42 -11 81q-11 38 -33 65q-23 27 -57 42t-81 15q-72 0 -116 -19t-76 -45l-12 9l102 337h383l-20 -59q-8 -23 -13 -27t-22 -4h-338z" />
    <glyph glyph-name="six" unicode="6" horiz-adv-x="697" 
d="M402 744l-4 -7q-98 0 -162 -78q-64 -77 -76 -232q37 35 89 59q53 24 117 24q58 0 111 -18t93 -51q41 -33 65 -80t24 -105q0 -62 -27 -113t-69 -87q-41 -35 -93 -55q-50 -19 -99 -19q-52 0 -112 23q-59 23 -108 69t-81 117q-31 69 -31 168q0 93 33 166t85 124
q53 51 117 78q65 27 128 27q57 0 99 -9q43 -9 71 -24t42 -33q14 -19 14 -36q0 -19 -12 -31t-29 -12q-23 0 -39 14q-15 13 -24 44q-8 23 -16 36q-9 14 -23 24q-13 8 -34 13q-19 4 -49 4zM156 359l-4 -1q0 -95 17 -166q16 -67 47 -112q30 -44 69 -63q38 -19 82 -19
q83 0 128 67t45 192q0 69 -16 113q-16 45 -42 72t-57 39t-63 12q-64 0 -118 -26q-52 -25 -87 -63q-1 -7 -1 -22v-23z" />
    <glyph glyph-name="seven" unicode="7" horiz-adv-x="592" 
d="M228 0l-23 -1l297 659h-258q-68 0 -105 -3q-39 -3 -57 -10q-20 -8 -27 -19t-15 -32h-18l32 113q7 24 12 34q4 9 21 9h473v-14z" />
    <glyph glyph-name="eight" unicode="8" horiz-adv-x="634" 
d="M597 209l-1 -2q0 -51 -22 -91t-60 -69q-37 -28 -85 -43t-102 -15q-62 0 -116 14q-52 13 -91 39q-38 25 -61 60q-22 34 -22 75q0 34 15 64q16 32 40 56q26 25 60 45t72 33q-76 37 -115 81t-39 102q0 46 21 84q21 37 56 63q36 26 78 41q43 15 90 15q62 0 110 -14
q45 -13 78 -38q32 -24 48 -55t16 -66q0 -30 -14 -58q-13 -26 -36 -49q-22 -22 -53 -39q-29 -16 -62 -27q48 -21 81 -40q35 -20 61 -45q26 -24 39 -54q14 -31 14 -67zM327 4l-2 -2q95 0 141 40t46 106q0 36 -14 64q-13 26 -42 49t-70 42q-42 19 -99 42l-24 9q-8 3 -22 9
q-54 -25 -85 -70q-31 -44 -31 -113q0 -80 49 -128q50 -48 153 -48zM383 418l-2 -1q43 19 73 60t30 106q0 36 -10 63q-11 30 -31 50q-21 21 -54 33t-78 12q-37 0 -67 -10q-33 -11 -54 -28q-22 -18 -36 -42q-13 -23 -13 -53q0 -54 49 -94q50 -40 147 -78z" />
    <glyph glyph-name="nine" unicode="9" horiz-adv-x="701" 
d="M296 6l4 -8q106 0 166 78q61 79 74 230q-35 -34 -88 -58q-52 -24 -117 -24q-59 0 -111 18t-93 51q-39 32 -64 80q-24 47 -24 105q0 62 27 113t69 87q41 35 93 55t99 20q61 0 121 -21t106 -64q46 -44 75 -111q29 -69 29 -162q0 -96 -31 -170q-32 -77 -82 -128
q-51 -53 -115 -81q-63 -28 -134 -28q-59 0 -100 10q-42 10 -72 26q-27 14 -43 35q-15 19 -15 39t13 32t31 12q25 0 38 -13q14 -14 23 -45q4 -15 12 -31q7 -14 21 -25q12 -9 35 -16q21 -6 53 -6zM159 477v-1q0 -67 16 -111t42 -73q25 -28 57 -40t63 -12q65 0 117 26t86 63
q2 18 2 29v32q0 97 -16 161q-16 65 -45 106q-29 42 -67 59q-39 18 -82 18q-81 0 -127 -64t-46 -193z" />
    <glyph glyph-name="colon" unicode=":" horiz-adv-x="251" 
d="M126 302v-1q-26 0 -46 18q-19 18 -19 47q0 28 19 46q20 18 46 18t45 -18t19 -46t-19 -46t-45 -18zM126 -14v-1q-26 0 -46 18q-19 18 -19 47q0 28 19 46q20 18 46 18t45 -18t19 -46t-19 -46t-45 -18z" />
    <glyph glyph-name="semicolon" unicode=";" horiz-adv-x="258" 
d="M131 302v-1q-27 0 -46 18t-19 47q0 28 19 46t46 18q25 0 45 -18q19 -18 19 -46t-19 -46q-20 -18 -45 -18zM155 15l3 2q-5 -6 -15 -13q-9 -6 -27 -6q-22 0 -39 15q-16 15 -16 41q0 28 18 45q19 17 42 17q12 0 27 -5q14 -5 24 -16q10 -12 18 -30q7 -17 7 -44q0 -56 -34 -94
q-34 -39 -88 -58l-7 11q44 19 70 48q25 28 25 63q0 16 -8 24z" />
    <glyph glyph-name="less" unicode="&#x3c;" horiz-adv-x="516" 
d="M64 363l389 171v-24l-363 -159l363 -160v-24l-389 171v25z" />
    <glyph glyph-name="equal" unicode="=" horiz-adv-x="541" 
d="M52 433h437v-20h-437v20zM52 278h437v-20h-437v20z" />
    <glyph glyph-name="greater" unicode="&#x3e;" horiz-adv-x="516" 
d="M64 167v24l363 160l-363 159v24l389 -171v-25z" />
    <glyph glyph-name="question" unicode="?" horiz-adv-x="434" 
d="M137 199l-3 -1q-2 48 9 87q11 40 27 74q17 36 36 65q18 28 36 62q16 31 27 65q11 35 11 72q0 64 -28 92q-29 29 -79 29q-22 0 -31 -10t-15 -27q-3 -9 -9 -25q-4 -12 -12 -21q-7 -9 -16 -13q-10 -5 -24 -5q-22 0 -34 12t-12 30q0 31 39 54q38 22 118 22q47 0 87 -12
t69 -33t45 -51q17 -31 17 -66q0 -41 -17 -75q-16 -33 -42 -63q-24 -28 -56 -57q-30 -27 -57 -57q-26 -29 -46 -66q-19 -35 -22 -82h-18zM155 -14v-1q-27 0 -46 18t-19 47q0 28 19 46t46 18q25 0 45 -18q19 -18 19 -46t-19 -46q-20 -18 -45 -18z" />
    <glyph glyph-name="at" unicode="@" horiz-adv-x="919" 
d="M769 -61l-13 -5q-22 -18 -48 -35q-29 -18 -67 -33q-36 -14 -90 -25q-49 -10 -114 -10q-83 0 -158 21t-132 63t-90 110t-33 160q0 96 40 176q41 82 108 140q69 59 156 92q88 33 185 33q77 0 145 -21t116 -60t75 -96t27 -126t-27 -129t-76 -103t-120 -67q-69 -24 -157 -19
l16 96l-20 -20l-33 -33q-15 -15 -31 -25q-15 -10 -34 -16q-18 -6 -40 -6q-29 0 -52 10q-24 11 -42 30q-19 20 -29 50q-10 29 -10 68q0 67 24 123t63 96t87 63q47 22 95 22q26 0 45 -6q22 -7 35 -12q20 -8 29 -12q13 -6 27 -6q22 0 39 27h15l-55 -321q-11 -63 -3 -81t42 -6
q36 12 66 34q33 24 56 55q25 34 38 77q14 45 14 99q0 72 -25 126q-26 56 -70 93q-46 38 -108 59q-63 21 -136 21q-81 0 -156 -27t-132 -78t-91 -124q-34 -72 -34 -165q0 -88 27 -156t75 -114q47 -46 114 -70q66 -24 146 -24q62 0 111 9q47 8 87 23q36 13 66 32q26 17 48 35z
M322 140l1 -1q0 -59 15 -84t44 -25q22 0 47 17q24 17 60 51l25 26l39 231q7 37 -8 63t-61 26q-28 0 -58 -21q-29 -20 -52 -60q-22 -37 -37 -96q-15 -57 -15 -127z" />
    <glyph glyph-name="A" unicode="A" horiz-adv-x="813" 
d="M19 13l-5 -1q11 4 23 11q10 6 21 20q10 13 24 36q11 19 28 59l231 538q-7 16 -15 27q-8 12 -15 17q-7 6 -17 9q-12 4 -19 6v13h136q11 0 15 -4q5 -5 11 -18l264 -600q7 -16 20 -42q9 -18 20 -32q12 -16 22 -23q12 -9 28 -15v-15h-221v15q34 6 39 27q4 21 -18 73l-51 116
h-368l-39 -91q-7 -19 -12 -39t-3 -36q2 -17 13 -30q12 -14 37 -21v-13h-149v13zM530 245l-178 409l-176 -409h354z" />
    <glyph glyph-name="B" unicode="B" horiz-adv-x="696" 
d="M24 13h-3q20 7 33 17q12 9 18 35q5 23 7 75q2 66 2 133v204q0 102 -1 134q-2 51 -7 74q-6 26 -18 35q-13 10 -33 17v13h292q77 0 132 -13q57 -13 96 -36q38 -22 58 -54t20 -67q0 -28 -10 -54q-10 -27 -36 -51q-25 -23 -67 -40t-105 -24v-3q71 -6 122 -26t80 -46
q31 -28 44 -57q14 -31 14 -55q0 -56 -27 -98q-26 -41 -75 -70q-48 -28 -116 -42q-70 -14 -152 -14h-268v13zM195 734l1 -319h107q61 0 101 9q42 9 65 28q25 20 35 49q11 31 11 73q0 35 -11 65q-11 29 -35 50t-63 33t-94 12h-117zM196 399l-1 -387h89q68 0 118 11
q49 11 78 34q30 24 43 61q13 36 13 91q0 40 -8 77q-7 34 -32 60q-24 26 -69 39q-47 14 -118 14h-113z" />
    <glyph glyph-name="C" unicode="C" horiz-adv-x="774" 
d="M436 -13v-6q-92 0 -165 33t-124 87t-78 123t-27 143q0 95 36 168t93 123t129 75q73 26 146 26q50 0 84 -6t60 -15q17 -6 44 -15q18 -6 38 -6q26 0 33 28h16v-178h-16q-30 94 -97 136q-68 42 -162 42q-57 0 -108 -21q-52 -21 -90 -64t-61 -111q-22 -66 -22 -160
q0 -103 24 -173q25 -72 64 -116q41 -46 94 -65q55 -20 114 -20q51 0 88 10q38 10 70 27q33 17 54 37q20 19 39 41l12 -11q-13 -18 -38 -42q-23 -21 -60 -43q-34 -20 -83 -34q-45 -13 -107 -13z" />
    <glyph glyph-name="D" unicode="D" horiz-adv-x="809" 
d="M24 13h1q20 7 33 17q12 9 18 35q5 23 7 75q2 66 2 133v204q0 102 -1 134q-2 51 -7 74q-6 26 -18 35q-13 10 -33 17v13h221q122 0 222 -23q97 -23 165 -69q67 -46 103 -115t36 -159q0 -86 -33 -156t-99 -121q-65 -50 -165 -79q-97 -28 -231 -28h-221v13zM199 734v-720h47
q102 0 177 21q76 21 125 66q50 46 74 115q24 70 24 171q0 105 -28 171q-29 68 -81 107q-53 39 -126 54t-165 15h-47z" />
    <glyph glyph-name="E" unicode="E" horiz-adv-x="670" 
d="M24 13l-5 1q20 7 33 17q12 9 18 35q5 23 7 75q2 66 2 133v204q0 102 -1 134q-2 51 -7 74q-6 26 -18 35q-13 10 -33 17v13h553q12 0 17 -4t10 -27l20 -110h-17q-17 39 -33 63q-17 24 -41 38t-58 18q-38 5 -85 5h-190v-306h80q44 0 66 7q25 8 36 19q13 13 17 27q3 10 9 32
h15v-187h-15q-6 22 -9 32q-5 16 -16 27t-36 19q-22 7 -66 7h-80v-396h209q56 0 88 4q37 5 60 19q25 16 41 42q18 29 32 73h17l-14 -122q-1 -22 -8 -27q-5 -4 -22 -4h-576v13z" />
    <glyph glyph-name="F" unicode="F" horiz-adv-x="667" 
d="M24 13l-2 -2q21 6 33 15t18 35q5 23 7 75q2 66 2 134v204q0 102 -1 135q-2 52 -7 75q-6 26 -18 35t-33 15v13h585q11 0 15 -4q5 -5 8 -25l17 -116h-17q-17 40 -31 64q-15 25 -39 40t-60 21t-94 6h-210v-307h93q44 0 66 7q25 8 36 19q13 13 17 27q3 10 9 32h15v-187h-15
q-6 22 -9 32q-4 14 -17 27q-11 11 -36 19q-22 7 -66 7h-93v-138q0 -67 2 -133q1 -47 8 -75q6 -26 18 -35t33 -15v-13h-234v13z" />
    <glyph glyph-name="G" unicode="G" horiz-adv-x="833" 
d="M447 -14l-5 -2q-88 0 -163 30q-74 30 -129 83q-54 52 -84 125q-30 72 -30 157q0 98 39 170q40 73 100 119q61 46 135 69q75 23 144 23q48 0 81 -6q29 -5 57 -14q9 -3 23.5 -7t20.5 -6q20 -6 42 -6q11 0 20 6t14 20h17v-178h-17q-26 83 -90 129q-65 47 -168 47
q-56 0 -109 -18t-93 -60q-40 -41 -64 -109t-24 -168q0 -104 21 -177q21 -74 58 -121t89 -70q50 -22 113 -22q110 0 159 52t49 150v8q0 38 -3 59t-9 33t-19 18q-12 5 -34 10v13h234v-13q-18 -5 -27 -10q-11 -6 -17 -21t-9 -45t-3 -82v-60q-12 -13 -37 -33q-27 -21 -69 -42
t-96 -36t-117 -15z" />
    <glyph glyph-name="H" unicode="H" horiz-adv-x="813" 
d="M24 13l-6 -2q21 6 33 15t18 35q5 23 7 75q2 66 2 134v204q0 102 -1 135q-2 52 -7 75q-6 26 -18 35t-33 15v13h234v-13q-21 -6 -33 -15t-18 -35q-5 -23 -7 -75q-1 -33 -1 -135v-58h417v58q0 102 -1 135q-2 52 -7 75q-6 26 -18 35t-33 15v13h234v-13q-21 -6 -33 -15
t-18 -35q-5 -23 -7 -75q-1 -33 -1 -135v-204q0 -67 2 -133q2 -52 7 -75q6 -26 18 -35t33 -15v-13h-234v13q21 6 33 15t18 35q7 28 8 75q2 66 2 134v130h-417v-130q0 -67 2 -133q1 -47 8 -75q6 -26 18 -35t33 -15v-13h-234v13z" />
    <glyph glyph-name="I" unicode="I" horiz-adv-x="282" 
d="M24 13l-3 -1q20 7 33 17q12 9 18 35q5 23 7 75q2 66 2 133v204q0 102 -1 135q-2 52 -7 76q-6 27 -18 36t-33 15v13h234v-13q-21 -6 -33 -15t-18 -36q-5 -24 -7 -76q-1 -33 -1 -135v-204q0 -67 2 -133q1 -47 8 -75q6 -26 18 -35q11 -8 33 -16v-13h-234v13z" />
    <glyph glyph-name="J" unicode="J" horiz-adv-x="471" 
d="M195 -10l-5 3q-37 0 -72 8q-32 7 -58 21t-39 33q-14 20 -14 42q0 25 15 36q16 11 34 11q24 0 37 -12q13 -11 22 -44l11 -35q4 -14 12 -25q7 -10 20 -15t32 -5q14 0 31 5q15 5 27 15t18 30t6 48v372q0 102 -1 135q-2 52 -7 75q-6 26 -18 35t-33 15v13h234v-13
q-21 -6 -33 -15t-18 -35q-5 -23 -7 -75q-1 -33 -1 -135v-280q0 -49 -15 -88q-15 -38 -41 -66q-25 -27 -61 -40q-37 -14 -76 -14z" />
    <glyph glyph-name="K" unicode="K" horiz-adv-x="725" 
d="M24 13l-2 -4q21 6 33 15t18 35q5 23 7 75q2 66 2 134v204q0 102 -1 135q-2 52 -7 75q-6 26 -18 35t-33 15v13h232v-13q-21 -6 -33 -15t-18 -35q-5 -23 -7 -75q-1 -33 -1 -135v-65l328 246q80 60 4 79v13h159v-13q-20 -6 -30 -10q-12 -5 -33 -17q-16 -9 -40 -27
q-40 -29 -54 -40l-244 -183l338 -377q4 -5 13 -14.5t13 -13.5q8 -9 20 -19q8 -6 17 -12q7 -5 18 -9v-13h-230v13q35 8 32 26t-32 53l-280 310v-128q0 -67 2 -133q1 -47 8 -75q6 -26 18 -35t33 -15v-13h-232v13z" />
    <glyph glyph-name="L" unicode="L" horiz-adv-x="630" 
d="M24 13l-5 -1q21 6 33 15t18 35q5 23 7 75q2 66 2 134v204q0 102 -1 135q-2 52 -7 75q-6 26 -18 35t-33 15v13h238v-13q-23 -6 -35 -15t-18 -35q-7 -28 -8 -75q-1 -33 -1 -135v-461h184q43 0 80 5q33 5 57 21q25 17 42 46q18 29 36 80h18l-24 -137q-2 -12 -3 -17t-5 -9
q-3 -3 -8 -3h-12h-537v13z" />
    <glyph glyph-name="M" unicode="M" horiz-adv-x="949" 
d="M24 13h-4q19 9 32 20q12 10 18 38q7 30 8 77q2 66 2 135v193q0 102 -1 134q-2 51 -7 74q-6 26 -18 35q-13 10 -33 17v13h175q11 0 14 -6q7 -14 14 -30l252 -576l261 611h183v-13q-21 -6 -33 -15t-18 -35q-5 -23 -7 -75q-1 -33 -1 -135v-204q0 -67 2 -133q1 -47 8 -75
q6 -26 18 -35t33 -15v-13h-233v13q21 6 33 15t18 35q5 23 7 75q2 66 2 134v451l-310 -727h-20l-318 728v-441q0 -69 2 -135q2 -50 9 -77q8 -28 22 -38q16 -11 41 -20v-13h-151v13z" />
    <glyph glyph-name="N" unicode="N" horiz-adv-x="761" 
d="M24 13l-4 2q21 9 33 21t18 39q5 24 7 77q2 66 2 135v193q0 102 -1 134q-2 51 -7 74q-6 26 -18 35q-13 10 -33 17v13h178q10 0 14 -1q5 -1 10 -6q7 -7 11 -12q2 -2 7 -9.5t9 -11.5l413 -547v301q0 102 -1 135q-1 49 -9 76q-8 28 -22 39q-15 12 -40 21v13h151v-13
q-21 -9 -33 -21t-18 -39q-5 -24 -7 -76q-1 -33 -1 -135v-470h-32l-550 729v-442q0 -69 2 -135q1 -49 9 -76q8 -28 22 -39q15 -12 41 -21v-13h-151v13z" />
    <glyph glyph-name="O" unicode="O" horiz-adv-x="863" 
d="M432 -14v-1q-76 0 -147 30q-72 31 -125 82q-54 53 -87 124q-33 72 -33 155q0 82 33 153t87 123q53 51 125 82q71 30 147 30t146 -30q72 -31 125 -82q54 -52 87 -123t33 -153t-33 -154q-33 -71 -87 -124q-53 -51 -125 -82q-70 -30 -146 -30zM432 1l-2 -1q52 0 100 21
t84 66q37 46 59 116q22 69 22 171t-22 171q-23 71 -60 114q-38 45 -85 65q-48 21 -97 21q-50 0 -98 -21t-85 -64q-38 -44 -60 -114q-22 -69 -22 -171t22 -171q22 -70 59 -116q36 -45 84 -66t101 -21z" />
    <glyph glyph-name="P" unicode="P" horiz-adv-x="659" 
d="M24 13l-2 1q21 6 33 15t18 35q5 23 7 75q2 66 2 134v204q0 102 -1 135q-2 52 -7 75q-6 26 -18 35t-33 15v13h303q72 0 126 -10q58 -11 98 -33t63 -59t23 -88q0 -56 -24 -96t-64 -67q-39 -26 -96 -40q-53 -13 -122 -13h-133v-73q0 -67 2 -133q1 -47 8 -75q6 -26 20 -35
q13 -9 36 -15v-13h-239v13zM196 735l-2 -374h130q44 0 78 10q36 11 63 33q27 23 42 58q15 36 15 87q0 57 -16 92q-17 37 -43 57q-28 22 -63 29q-38 8 -76 8h-128z" />
    <glyph glyph-name="Q" unicode="Q" horiz-adv-x="863" 
d="M847 -108v1q-16 -18 -43 -34q-26 -16 -78 -16q-34 0 -66 6q-30 6 -60 23q-28 16 -51 47q-23 30 -39 78q-20 -5 -39 -6q-26 -2 -39 -2h-1q-73 0 -144 27t-125 78t-87 123t-33 159q0 82 33 153t87 123q53 51 125 82q71 30 147 30q75 0 146 -30q72 -31 125 -82
q54 -52 87 -123t33 -153q0 -60 -16 -111q-17 -53 -45 -96q-29 -45 -67 -78q-38 -34 -85 -58q11 -32 24 -67q11 -30 29 -54q17 -22 39 -36q22 -13 52 -13q28 0 48 11q20 10 33 27zM432 748h-4q-50 0 -98 -21t-85 -64t-60 -114q-22 -69 -22 -171q0 -82 12 -144t33 -105t51 -70
q29 -26 68 -40q-26 19 -40 45q-13 25 -13 51t10 45q11 21 28 35t40 22q24 8 47 8q77 0 124 -42q45 -41 76 -119q43 40 70 115t27 198q0 102 -22 171q-22 70 -60 114q-38 45 -85 65q-48 21 -97 21zM293 117h1q0 -27 11 -49q10 -20 30 -34t44 -20t50 -6q13 0 37 2q19 2 35 6
l-6 21q-4 13 -5 23q-10 45 -19 68q-11 28 -24 44t-30 24q-15 7 -41 7q-13 0 -30 -5q-15 -4 -27 -15q-11 -10 -19 -27q-7 -15 -7 -39z" />
    <glyph glyph-name="R" unicode="R" horiz-adv-x="733" 
d="M24 13v-3q21 6 33 15t18 35q5 23 7 75q2 66 2 134v204q0 102 -1 135q-2 52 -7 75q-6 26 -18 35t-33 15v13h311q96 0 158 -13q64 -13 104 -38q39 -24 57 -57t18 -73q0 -51 -25 -86q-26 -36 -67 -60q-42 -24 -97 -36q-56 -12 -115 -12h-34q69 -11 120 -51q52 -41 74 -126
q23 -84 55 -127q33 -43 84 -43q26 0 39 9q12 8 24 20l9 -9q-4 -7 -14 -17q-10 -9 -23 -17q-11 -6 -33 -13q-20 -6 -45 -6q-36 0 -69 9t-61 31t-51 62q-22 39 -36 101q-16 67 -28 100q-14 37 -31 53q-18 17 -43 21q-23 4 -63 4h-46v-101q0 -67 2 -133q1 -47 8 -75
q6 -26 18 -35t33 -15v-13h-234v13zM198 731v-346h170q96 0 145 44q48 43 48 123q0 41 -10 72q-11 33 -36 57q-25 23 -70 37q-43 13 -114 13h-133z" />
    <glyph glyph-name="S" unicode="S" horiz-adv-x="630" 
d="M315 -11l-3 -1q-52 0 -87 9q-31 8 -60 20q-10 4 -26 11t-20 9q-21 9 -43 9q-20 0 -27 -21h-17v188h17q17 -97 87 -153q70 -55 179 -55q99 0 145 42t46 112q0 36 -10 60q-11 26 -36 47q-26 21 -69 39q-48 20 -108 38q-53 17 -96 36q-42 19 -75 44q-32 24 -48 57
q-17 34 -17 78t19 81t52 64t78 42t98 15q46 0 75 -7q37 -9 56 -16q36 -14 42 -16q17 -7 35 -7q15 0 20 4q7 5 8 15h17v-148h-17q-22 73 -84 117q-61 43 -153 43q-81 0 -127 -35q-45 -34 -45 -95q0 -24 9 -45t32 -41q21 -18 62 -37q38 -18 98 -36q59 -17 107 -36
q52 -20 86 -46q37 -27 57 -61q21 -35 21 -84q0 -54 -21 -99t-58 -76q-38 -32 -88 -48q-53 -17 -111 -17z" />
    <glyph glyph-name="T" unicode="T" horiz-adv-x="734" 
d="M251 13l-4 -2q20 7 33 17q12 9 18 35q5 23 7 75q2 66 2 133v461h-53q-54 0 -86 -4q-38 -5 -62 -19q-26 -15 -42 -45q-17 -30 -27 -82h-19l14 137q3 23 7 27t18 4h615q14 0 18 -4t6 -27l16 -137h-19q-11 51 -27 81q-17 30 -43 45q-28 16 -63 20q-40 5 -86 5h-50v-461
q0 -67 2 -133q1 -47 8 -75q6 -26 18 -35q11 -8 33 -16v-13h-234v13z" />
    <glyph glyph-name="U" unicode="U" 
d="M412 -13l-1 -2q-79 0 -141 18q-61 18 -105 56q-43 37 -66 95t-23 135v186q0 102 -1 135q-1 50 -6 75q-5 27 -16 35q-12 9 -31 15v13h228v-13q-21 -6 -33 -15t-18 -35q-5 -23 -7 -75q-1 -33 -1 -135v-213q0 -67 10 -114q10 -49 36 -82q25 -32 69 -49q42 -16 109 -16
q60 0 111 14q50 13 84 45q35 32 53 84q18 53 18 131v189q0 102 -1 135q-2 50 -9 77q-8 28 -22 39q-15 12 -41 21v13h151v-13q-21 -9 -33 -21t-18 -39q-5 -24 -7 -76q-1 -33 -1 -135v-189q0 -78 -20 -135q-20 -55 -57 -90q-37 -34 -91 -49t-120 -15z" />
    <glyph glyph-name="V" unicode="V" horiz-adv-x="774" 
d="M108 597l-5 1q-17 38 -27 63q-10 24 -20 41q-10 16 -18 23q-9 8 -22 12v13h206v-13q-11 -3 -20 -8q-8 -5 -9 -15t3 -27t15 -42l225 -517l213 497q22 52 19 78t-47 35v13h133v-13q-14 -5 -21 -10q-9 -6 -18 -18q-11 -14 -20 -33q-13 -25 -26 -56l-269 -628h-28z" />
    <glyph glyph-name="W" unicode="W" horiz-adv-x="1065" 
d="M96 623l-8 -3q-3 8 -9 23.5t-9 22.5q-8 20 -15 33t-17 21t-23 14v14h197v-14q-10 -2 -19 -8q-7 -4 -9 -15t3 -27q5 -18 15 -44l210 -519l110 269l-95 231q-12 31 -19 46q-11 25 -16 33q-7 13 -17 21q-9 7 -21 12v14h196v-14q-12 -3 -21 -8q-7 -5 -9 -15q-1 -10 3 -28
q3 -14 17 -46l55 -136l52 121q20 48 20 74q0 27 -35 38v14h114v-14q-12 -5 -21 -9q-10 -5 -18 -16t-19 -31q-8 -15 -25 -54l-61 -142l146 -358l194 499q10 25 14 41q5 19 2 33q-3 15 -13 25q-11 11 -33 15v14h131v-14q-13 -5 -22 -10q-10 -6 -19 -18q-8 -11 -18 -32
q-8 -18 -21 -53l-245 -630h-28l-155 377l-154 -377h-28z" />
    <glyph glyph-name="X" unicode="X" horiz-adv-x="775" 
d="M22 13l-2 -4q15 4 30 14t29 24q15 15 33 36t42 51l180 223l-192 263q-30 41 -40 53q-18 22 -30 32q-14 12 -24 18q-8 5 -24 10v13h236v-13q-31 -4 -33 -26q-2 -21 39 -74l150 -207l154 189q46 57 45 84q-2 27 -41 35v13h146v-13q-17 -7 -27 -13q-13 -8 -26 -21
q-16 -16 -32 -36q-19 -24 -46 -55l-161 -197l200 -276q9 -12 23 -30.5t18 -24.5q17 -23 30 -36q14 -14 25 -21q14 -9 27 -14v-13h-243v13q17 4 28 12q10 7 12 20q1 12 -8 32t-30 48l-163 224l-172 -214q-21 -26 -31 -48q-9 -22 -8 -34q2 -14 12 -23q11 -10 30 -14v-13h-156
v13z" />
    <glyph glyph-name="Y" unicode="Y" horiz-adv-x="732" 
d="M252 13h-2q20 7 33 17q12 9 18 35q5 23 7 75q2 66 2 133v80l-189 283q-15 23 -25 37q-12 17 -22 28q-10 12 -24 21t-30 15v13h229v-13q-26 -6 -32 -24t22 -60l178 -266l162 238q36 53 36 78q0 26 -39 35v13h136v-13q-13 -5 -22 -10q-10 -6 -24 -18t-30 -33t-39 -54
l-173 -256v-95q0 -67 2 -133q1 -47 8 -75q6 -26 18 -35q11 -8 33 -16v-13h-233v13z" />
    <glyph glyph-name="Z" unicode="Z" horiz-adv-x="722" 
d="M525 734l-229 -3q-59 0 -94 -7q-36 -7 -63 -23q-25 -15 -42 -39q-17 -25 -33 -58h-15l26 145h589l-501 -734h273q62 0 105 8q40 7 65 26q24 18 39 48q17 34 32 75h15l-21 -172h-640z" />
    <glyph glyph-name="bracketleft" unicode="[" horiz-adv-x="337" 
d="M304 793v-16h-137v-867h137v-16h-227v899h227z" />
    <glyph glyph-name="backslash" unicode="\" horiz-adv-x="515" 
d="M534 -155l-22 -11l-487 961l22 12z" />
    <glyph glyph-name="bracketright" unicode="]" horiz-adv-x="336" 
d="M260 -106h-227v16h136v867h-136v16h227v-899z" />
    <glyph glyph-name="asciicircum" unicode="^" horiz-adv-x="436" 
d="M210 756h16l177 -268l-16 -11l-169 256l-169 -256l-16 11z" />
    <glyph glyph-name="underscore" unicode="_" horiz-adv-x="396" 
d="M-6 -86h408v-20h-408v20z" />
    <glyph glyph-name="grave" unicode="`" horiz-adv-x="446" 
d="M159 619l1 1q-16 9 -27 21q-10 11 -10 29q0 17 10 27q11 11 30 11q17 0 27 -10t24 -30l95 -131l-10 -10z" />
    <glyph glyph-name="a" unicode="a" horiz-adv-x="489" 
d="M165 -9v-2q-61 0 -99 29q-37 28 -37 83q0 29 12 48q12 20 35 35q23 16 52 27q36 14 65 27l54 22q37 16 54 35t17 41v59q0 38 -24 53t-62 15q-19 0 -31 -3t-21 -9t-15 -15q-8 -12 -12 -19q-11 -19 -22 -30q-12 -12 -31 -12t-30 11t-11 26q0 17 13 30q14 14 36 21t54 12
q35 5 69 5q29 0 66 -5q33 -5 60 -18q28 -14 44 -37q17 -25 17 -61v-240q0 -27 2 -55q1 -20 6 -31t12 -14q8 -3 20 -3q8 0 15 3q10 4 15 7l6 -12q-9 -5 -25 -12q-19 -8 -47 -8q-54 0 -77 21q-23 22 -26 57l-22 -20q-11 -10 -24 -21q-11 -9 -30 -19q-17 -9 -36 -15t-42 -6z
M130 113h-3q0 -49 18 -72q18 -22 50 -22q29 0 54 17q21 15 43 33l23 21v200q-7 -9 -24 -22q-17 -12 -45 -24l-37 -15q-43 -18 -61 -43q-18 -26 -18 -73z" />
    <glyph glyph-name="b" unicode="b" horiz-adv-x="601" 
d="M300 -10l-5 -1q-35 0 -63 6q-24 5 -51 14q-8 3 -21.5 7.5l-19.5 6.5q-18 6 -32 6q-13 0 -18 -8q-4 -7 -6 -14h-15v561q0 48 -1 64q-2 24 -6 36q-4 11 -15 16t-28 6v16l150 75v-405l17 19q15 17 33 33q20 18 40 29q24 13 47 20q26 8 51 8q36 0 75 -14q37 -13 67 -42
t48 -73q18 -45 18 -105q0 -64 -22 -111q-23 -49 -58 -81q-36 -33 -84 -51t-101 -18zM203 25l-1 -2q10 -6 35 -13q23 -6 57 -6q33 0 60 10q28 10 51 36t36 70q13 43 13 114q0 70 -11 116q-11 45 -28 68q-19 25 -40 32q-24 8 -45 8q-24 0 -42 -7q-22 -9 -38 -19
q-16 -11 -34 -27q-16 -15 -31 -31l-17 -19v-248q0 -34 6 -52t29 -30z" />
    <glyph glyph-name="c" unicode="c" horiz-adv-x="490" 
d="M287 -10q-53 0 -99 18t-81 51q-34 32 -55 78q-21 45 -21 99q0 58 24 105q25 48 61 80q38 34 84 50q48 17 93 17q35 0 67 -6q33 -6 54 -16q23 -11 36 -25t13 -33q0 -17 -12 -29t-33 -12q-15 0 -25 5q-9 4 -15 14q-5 7 -10 21q-3 8 -9 26q-9 22 -21 31t-43 9q-28 0 -55 -10
q-28 -11 -51 -36q-22 -25 -37 -67t-15 -105t12 -108q12 -43 35 -73q22 -28 56 -42q32 -13 75 -13q46 0 82 17q34 16 61 45l12 -12q-30 -35 -75 -57q-44 -22 -108 -22z" />
    <glyph glyph-name="d" unicode="d" horiz-adv-x="602" 
d="M252 -9l-4 -4q-40 0 -79 15t-69 45q-29 29 -49 74q-19 42 -19 102t21 108t57 81t84 51t101 18q39 0 73 -12t60 -33v131q0 49 -1 65q-1 24 -6 36q-4 11 -15 16q-10 4 -30 6v16l155 75v-617q0 -54 1 -72q1 -26 6 -43q4 -17 15 -24q9 -7 30 -13v-13h-154v91l-21 -21
q-14 -13 -30 -27q-14 -11 -36 -25q-18 -11 -42 -19q-21 -7 -48 -7zM137 239l-3 -3q0 -65 11 -111q10 -42 29 -69q18 -25 42 -34t49 -9q40 0 75 23q34 22 63 51l21 21v305q-30 25 -61 38q-34 14 -72 14q-33 0 -60 -13t-49 -41q-21 -27 -33 -70t-12 -102z" />
    <glyph glyph-name="e" unicode="e" horiz-adv-x="506" 
d="M290 -11l2 1q-46 0 -93 15t-84 45t-60 77q-23 48 -23 111q0 62 24 108t60 78q37 32 78 47q42 15 78 15q42 0 76 -10q37 -11 63 -31q28 -21 45 -52q17 -30 22 -72h-335q-7 -32 -7 -82q0 -57 14 -101q13 -41 38 -69q24 -27 59 -39t75 -12q46 0 80 14t59 36l10 -12
q-29 -28 -72 -48q-42 -19 -109 -19zM276 471v-1q-40 0 -75 -31q-36 -31 -52 -100h234q-4 71 -32 102q-27 30 -75 30z" />
    <glyph glyph-name="f" unicode="f" horiz-adv-x="303" 
d="M32 13l-2 -4q18 7 26 13q10 8 14 24t6 44q1 18 1 72v291h-61v14q22 5 32 10q12 6 18 15t9 24t3 36v37q0 47 14 81t36 56t51 33q27 10 55 10q47 0 81 -17q33 -16 33 -51q0 -13 -9 -25t-30 -12q-24 0 -33 11q-8 10 -13 32q-7 31 -14 39q-6 8 -20 8q-26 0 -39 -25t-13 -93
v-161h109v-19h-109v-291q0 -36 2 -72q1 -26 9 -43t22 -24q13 -6 41 -13v-13h-219v13z" />
    <glyph glyph-name="g" unicode="g" horiz-adv-x="506" 
d="M239 -168l-7 -9q-42 0 -82 6t-72 18q-31 12 -51 32q-19 19 -19 45q0 16 9 31t23 26t32 20q19 9 37 15q-32 11 -47 30q-15 20 -15 45q0 15 6 28t15 24t20 20q14 12 21 17l13 10q-38 20 -63 51t-25 77q0 39 18 69t48 51q29 20 66 31q38 11 69 11q56 0 107 -25q22 20 53 36
q30 15 56 15q41 0 41 -36q0 -16 -9 -25t-22 -9q-9 0 -19 5q-9 5 -16 10q-5 4 -15 10q-8 5 -17 5q-19 0 -37 -15q36 -20 59 -52q24 -33 24 -78q0 -39 -19 -67t-48 -48q-27 -19 -65 -28q-36 -9 -69 -9q-20 0 -48 5q-25 4 -48 15l-13 -10q-33 -25 -33 -42q0 -11 10 -17
q11 -7 39 -8l184 -18q78 -8 114 -30q36 -23 36 -77q0 -35 -18 -64q-17 -27 -50 -49q-31 -20 -76 -31q-47 -11 -97 -11zM232 179l-2 -1q23 0 41 7q19 7 35 23q15 15 24 42t9 66q0 38 -9 67t-24 45q-15 17 -34 24q-21 8 -40 8t-40 -8q-19 -7 -34 -24q-15 -16 -24 -45t-9 -67
q0 -39 9 -66t24 -42q14 -14 35 -22q18 -7 39 -7zM72 -72l-4 1q0 -44 41 -67q40 -22 117 -22q48 0 84 9q34 9 60 23q24 14 36 30t12 33q0 32 -28 42q-31 11 -88 17l-156 16h-8q-1 0 -7 2q-59 -23 -59 -84z" />
    <glyph glyph-name="h" unicode="h" horiz-adv-x="583" 
d="M27 13l-1 -2q18 7 26 13q10 8 14 24t6 44q1 18 1 72v406q0 50 -1 66q-2 24 -6 36t-15 15q-13 4 -30 5v16l152 73v-423l43 40q23 20 33 29q17 14 38 27t42 20q24 8 48 8q31 0 53 -7q25 -8 42 -22t28 -41q10 -24 10 -63v-185v-72q0 -25 5 -43q4 -16 14 -24q8 -6 26 -13v-13
h-197v13q20 7 29 13q11 7 15 24q4 16 6 44q1 18 1 72v217q0 37 -17 54t-48 17t-61 -21t-67 -55l-43 -39v-173q0 -54 1 -72q1 -26 6 -43q4 -16 15 -24q9 -6 29 -13v-13h-197v13z" />
    <glyph glyph-name="i" unicode="i" horiz-adv-x="254" 
d="M123 559v-2q-23 0 -42 17q-18 16 -18 42t18 42q19 17 42 17q26 0 42 -16q17 -17 17 -42t-17 -42q-16 -16 -42 -16zM23 11v-3q21 6 30 13q11 7 15 24q4 16 6 44q1 18 1 72v106q0 51 -1 67q-2 24 -6 36q-5 13 -15 17q-12 5 -30 8v15l154 74v-321q0 -54 1 -72q1 -26 6 -43
q4 -16 15 -24q9 -7 30 -13v-13h-206v13z" />
    <glyph glyph-name="j" unicode="j" horiz-adv-x="248" 
d="M122 559v-2q-25 0 -42 17t-17 42t17 42t42 17t42 -16q18 -17 18 -42t-18 -42q-17 -16 -42 -16zM-24 -155l-2 -4q-21 0 -35 10q-15 11 -15 33q0 20 12 29t28 9q14 0 24 -7t18 -15l15 -15q7 -7 17 -7q7 0 13 6t8 10q3 6 6 18q2 9 4 31q2 26 2 51v270v67q0 22 -5 37
q-4 14 -15 18q-12 5 -30 8v15l153 74v-417q0 -60 -27 -105t-75 -78q-32 -23 -54 -30q-24 -8 -42 -8z" />
    <glyph glyph-name="k" unicode="k" horiz-adv-x="530" 
d="M27 13l-4 1q18 7 26 13q10 8 14 24t6 44q1 18 1 72v416q0 45 -1 59q-2 22 -6 32q-5 11 -14 14q-11 4 -27 5v16l149 74v-530l203 152q32 24 27 39t-30 18v14h134v-14q-23 -6 -48 -22q-30 -18 -65 -45l-137 -102l217 -239q18 -21 29 -30q9 -8 22 -12v-13h-199v13
q26 5 29 18q3 14 -25 45l-155 172v-82q0 -54 1 -72q1 -26 6 -43q4 -16 15 -24q9 -6 29 -13v-13h-197v13z" />
    <glyph glyph-name="l" unicode="l" horiz-adv-x="257" 
d="M25 13v-1q21 6 30 13q11 7 15 24q4 16 6 44q1 18 1 72v415v61q0 21 -5 33q-5 11 -15 14q-13 4 -30 5v16l152 74v-618q0 -54 1 -72q1 -26 6 -43q4 -16 15 -24q9 -7 30 -13v-13h-206v13z" />
    <glyph glyph-name="m" unicode="m" horiz-adv-x="860" 
d="M27 13l-5 -7q18 7 26 13q10 8 14 24t6 44q1 18 1 72v106q0 51 -1 67q-2 24 -6 36q-4 11 -15 16q-11 4 -30 9v15l153 74v-110l19 17q15 13 33 30q16 15 38 30q21 15 42 23q22 9 48 9q50 0 84 -24t42 -84l20 18q15 13 33 30t39 30q24 15 43 23q23 9 47 9q29 0 51 -7
q26 -8 41 -22q16 -15 27 -41q10 -24 10 -63v-185v-72q0 -25 5 -43q4 -16 14 -24q8 -6 26 -13v-13h-198v13q20 7 29 13q11 8 15 24t6 44q1 18 1 72v217q0 37 -15 54t-44 17q-28 0 -60 -24q-35 -26 -69 -58l-19 -18v-189v-72q0 -25 5 -43q4 -16 14 -24q8 -6 26 -13v-13h-197
v13q20 7 29 13q11 8 15 24t6 44q1 18 1 72v217q0 37 -15 54t-43 17q-29 0 -59 -24q-38 -30 -68 -58l-19 -18v-189q0 -54 1 -72q1 -26 6 -43q4 -16 15 -24q9 -6 29 -13v-13h-197v13z" />
    <glyph glyph-name="n" unicode="n" horiz-adv-x="583" 
d="M27 13l-2 -4q18 7 26 13q10 8 14 24t6 44q1 18 1 72v106q0 51 -1 67q-1 24 -6 36q-4 11 -15 16q-10 5 -30 9v15l153 74v-127l43 40q23 20 33 29q17 14 38 27t42 20q24 8 48 8q31 0 53 -7q25 -8 42 -22t28 -41q10 -24 10 -63v-185v-72q0 -25 5 -43q4 -16 14 -24
q8 -6 26 -13v-13h-197v13q20 7 29 13q11 7 15 24q4 16 6 44q1 18 1 72v217q0 37 -17 54t-48 17t-61 -21t-67 -55l-43 -39v-173q0 -54 1 -72q1 -26 6 -43q4 -16 15 -24q9 -6 29 -13v-13h-197v13z" />
    <glyph glyph-name="o" unicode="o" horiz-adv-x="574" 
d="M287 -11h-2q-41 0 -86 15q-43 14 -82 47q-37 31 -63 78q-25 46 -25 108t25 108q26 47 63 78t83 48q44 16 86 16t86 -16q46 -17 83 -48t63 -78q25 -46 25 -108t-25 -108q-26 -47 -63 -78q-38 -32 -83 -47t-85 -15zM285 5l-2 -1q32 0 59 12q28 12 47 39q20 28 32 72
q12 45 12 109q0 62 -12 107t-31 73t-47 42q-26 13 -59 13t-59 -13q-28 -14 -47 -42t-31 -73t-12 -106q0 -64 12 -109q12 -44 32 -72q19 -27 47 -39q27 -12 59 -12z" />
    <glyph glyph-name="p" unicode="p" horiz-adv-x="602" 
d="M26 -147l-4 -4q18 7 26 13q10 8 14 24t6 44q1 18 1 72v266q0 51 -1 67q-2 24 -6 36q-4 11 -15 16t-30 9v15l153 74v-111l13 14q12 12 38 36q17 15 41 31q21 13 45 21q26 8 50 8q39 0 78 -14q37 -14 66 -42q29 -29 47 -74t18 -106q0 -65 -21 -113q-22 -50 -55 -80
q-35 -32 -79 -48t-94 -16q-38 0 -74 12q-38 13 -71 43v-41q0 -54 1 -72q1 -26 6 -43q5 -16 15 -24q10 -7 28 -13v-13h-196v13zM169 349l-1 -290q37 -34 73 -46t73 -12q28 0 53 12t45 39q21 28 32 70q12 44 12 108q0 73 -10 114q-11 44 -27 68q-17 24 -39 33t-45 9
q-43 0 -78 -24q-36 -25 -75 -67z" />
    <glyph glyph-name="q" unicode="q" horiz-adv-x="599" 
d="M378 -147l1 -2q21 6 30 13q11 8 15 24t6 44q1 18 1 72v84l-17 -17q-33 -33 -75 -58q-41 -24 -87 -24q-44 0 -82 16q-40 17 -69 46q-30 30 -48 73q-18 44 -18 97q0 59 21 109t57 84q37 35 84 53q48 18 103 18q36 0 63 -7q35 -9 53 -16q33 -12 41 -16q15 -7 27 -7
q23 0 29 31h16v-465q0 -54 1 -72q1 -26 6 -43t13 -24q8 -6 26 -13v-13h-197v13zM142 239v-1q0 -63 11 -109q10 -42 29 -69q18 -26 42 -36q23 -10 50 -10q38 0 72 22t66 54l17 17v252q0 34 -6 52q-6 19 -27 32q-14 10 -38 17q-26 8 -59 8t-60 -13q-29 -13 -51 -42
q-22 -28 -34 -72q-12 -43 -12 -102z" />
    <glyph glyph-name="r" unicode="r" horiz-adv-x="395" 
d="M27 13l-2 -2q18 7 26 13q10 8 14 24t6 44q1 18 1 72v102q0 52 -1 68q-1 24 -6 36q-5 13 -15 17q-10 5 -30 9v15l153 74v-126l40 44q25 28 39 41q16 14 32 24q15 9 27 12t25 3q24 0 36 -12t12 -31q0 -22 -12 -36q-12 -13 -29 -13q-14 0 -22 4l-18 9l-18 9q-8 4 -19 4
t-22 -7q-12 -8 -30 -27l-40 -44v-174q0 -54 1 -72q2 -28 7 -43q6 -16 17 -24q9 -7 30 -13v-13h-202v13z" />
    <glyph glyph-name="s" unicode="s" horiz-adv-x="439" 
d="M215 7l-1 -4q60 0 92 29t32 71q0 22 -7 36q-8 16 -24 26q-17 11 -42 18t-63 15q-41 7 -73 18q-31 10 -52 27q-20 16 -31 39q-10 21 -10 54q0 32 14 60q13 26 38 45q22 17 56 28q30 10 66 10q28 0 45 -4q23 -5 36 -10q6 -2 15.5 -5.5t13.5 -4.5q11 -4 23 -4q15 0 18 15h17
v-112h-17q-19 53 -57 82q-37 28 -94 28q-51 0 -84 -21t-33 -65q0 -38 32 -55q31 -17 99 -30q94 -16 138 -47q44 -30 44 -93q0 -38 -16 -67q-17 -31 -43 -51q-27 -21 -61 -33t-72 -12q-32 0 -54 6t-39 12q-18 7 -29 12q-12 6 -24 6q-17 0 -20 -17h-18v129h17q8 -25 23 -51
q14 -24 33 -42q19 -17 48 -28q27 -10 64 -10z" />
    <glyph glyph-name="t" unicode="t" horiz-adv-x="313" 
d="M193 -9l2 -1q-63 0 -93 30t-30 75v359h-42v15q20 3 41 15q22 13 38 33t30 53q14 34 20 73h15v-170h111v-19h-111v-333q0 -55 11 -82q10 -25 45 -25q20 0 33 9t21 18l10 -9q-3 -4 -12 -13q-7 -7 -19 -13q-14 -7 -29 -11t-41 -4z" />
    <glyph glyph-name="u" unicode="u" horiz-adv-x="568" 
d="M203 -9l1 -6q-30 0 -52 7q-24 8 -42 24q-17 16 -28 42q-10 24 -10 61v154q0 48 -1 63q-1 22 -6 34q-4 11 -15 16q-10 4 -30 9v15l153 74v-389q0 -41 17 -60q16 -18 47 -18q29 0 60 19q33 20 75 61l22 20v157q0 48 -1 63q-1 22 -6 34q-4 11 -15 16q-10 5 -30 9v15l154 74
v-321q0 -54 1 -72q1 -26 6 -43t15 -24q9 -7 30 -13v-13h-155v98l-22 -20q-37 -35 -78 -60q-41 -26 -90 -26z" />
    <glyph glyph-name="v" unicode="v" horiz-adv-x="506" 
d="M79 355l-4 -3q-13 32 -24 51q-9 16 -18 31q-8 13 -15 17q-10 6 -16 8v13h185v-13q-13 -1 -21 -6t-9 -15t3 -30t18 -51l115 -259l105 235q18 42 23 63q6 24 3 38q-3 13 -14 19q-11 7 -26 8v13h118v-13q-6 -2 -16 -8q-7 -4 -16 -18q-10 -15 -21 -37q-14 -28 -30 -64
l-152 -341h-27z" />
    <glyph glyph-name="w" unicode="w" horiz-adv-x="734" 
d="M75 355l2 -2q-14 35 -24 53q-9 16 -18 31q-7 11 -15 16q-10 6 -15 8v13h178v-13q-13 -1 -21 -6t-9 -15t3 -30q4 -16 17 -51l102 -256l87 185l-27 68q-20 47 -22 51q-8 18 -17 30q-8 11 -15 15q-10 6 -16 8v13h181v-13q-14 -2 -21 -6q-8 -5 -9 -16q-1 -12 3 -31
q4 -15 17 -49l98 -251l95 229q16 36 22 61q6 24 3 38t-13 20q-12 7 -27 8v13h116v-13q-9 -3 -18 -8q-7 -4 -16 -18q-8 -12 -19 -37q-13 -31 -27 -64l-143 -343h-27l-107 273l-128 -273h-26z" />
    <glyph glyph-name="x" unicode="x" horiz-adv-x="518" 
d="M19 13l-9 -5q20 7 29 13q12 7 24 18t27 27t36 42l87 110l-102 146l-32 44q-13 18 -21 26q-10 10 -17 14q-9 5 -18 8v13h193v-13q-28 -5 -29 -22q-1 -18 30 -61l67 -96l63 80q21 27 33 47q10 17 10 29q0 11 -8 17q-8 7 -21 8v13h120v-13q-12 -4 -27 -11q-12 -6 -24 -18
q-17 -17 -27 -28q-15 -17 -36 -42l-73 -93l111 -159q23 -31 33 -44q14 -17 24 -27q8 -8 18 -16q7 -6 17 -9v-13h-195v13q29 5 33 22q5 18 -27 63l-79 114l-77 -97q-40 -49 -40 -72q0 -22 30 -28v-13h-123v13z" />
    <glyph glyph-name="y" unicode="y" horiz-adv-x="507" 
d="M118 -165l4 2q-28 0 -42 12q-13 12 -13 30t10 27q11 9 27 9q12 0 20 -4q12 -6 17 -9l15 -9q7 -4 15 -4q7 0 14 3q8 3 17 14q9 10 21 30t27 51l1 2l-171 369q-19 40 -25 51q-11 19 -18 30t-15 15q-6 4 -16 7v13h184v-13q-11 -1 -19 -6q-7 -5 -9 -15q-2 -11 3 -29t18 -48
l119 -257l105 233q16 39 21 62q4 23 0 36t-15 18q-12 5 -26 8v13h118v-13q-8 -1 -16 -6q-7 -4 -16 -18q-10 -15 -21 -37q-12 -24 -30 -63l-157 -349q-17 -38 -38 -73q-18 -30 -36 -48q-19 -19 -36 -26q-19 -8 -37 -8z" />
    <glyph glyph-name="z" unicode="z" horiz-adv-x="479" 
d="M434 -13h-3q-5 3 -17 7q-7 2 -26 4q-22 2 -42 2h-66h-266l320 459h-109q-53 0 -84 -6t-49 -18t-28 -31q-10 -20 -21 -45h-15l24 129q6 -3 20 -7q8 -2 29 -4q24 -2 43 -2h63h250l-323 -459h126q49 0 79 6q29 6 48 20t29 36t24 57h15z" />
    <glyph glyph-name="braceleft" unicode="{" horiz-adv-x="334" 
d="M301 -106l-5 -6q-100 0 -160 33t-60 96q0 32 11 63q7 20 23 60q3 7 11 27l12 30q11 28 11 53q0 13 -3 28q-3 16 -16 27q-14 13 -39 20q-27 8 -70 8v16q44 0 71 8q25 7 39 20q14 12 17 26q3 13 3 27q0 27 -10 54q-14 38 -22 57q-10 23 -22 60q-10 30 -10 64q0 62 60 95
t160 33v-17q-70 -1 -100 -24q-30 -22 -30 -79q0 -25 6 -52q4 -18 14 -56t14 -56q6 -27 6 -52q0 -45 -34 -75q-35 -30 -94 -39q59 -7 94 -38q34 -30 34 -75q0 -25 -6 -52q-4 -18 -14 -56t-14 -56q-6 -27 -6 -52q0 -56 30 -79t99 -24v-17z" />
    <glyph glyph-name="bar" unicode="|" horiz-adv-x="300" 
d="M163 820v-926h-26v926h26z" />
    <glyph glyph-name="braceright" unicode="}" horiz-adv-x="333" 
d="M33 -89l-6 -5q69 2 99 24q30 23 30 80q0 26 -6 53q-4 18 -14 56t-14 56q-6 27 -6 53q0 45 34 75q35 31 94 38q-59 9 -94 39q-34 30 -34 75q0 26 6 53q4 18 14 56t14 56q6 27 6 53q0 57 -30 79t-99 24v17q99 0 159 -33t60 -94q0 -34 -10 -64q-12 -37 -22 -60
q-8 -19 -22 -57q-10 -27 -10 -54q0 -13 3 -27t17 -26q13 -11 39 -19q24 -7 71 -7v-16q-46 0 -70 -7q-26 -8 -39 -19t-16 -27q-3 -15 -3 -28q0 -25 11 -53l12 -30t11 -27q16 -40 23 -60q11 -31 11 -63q0 -62 -60 -95t-159 -33v17z" />
    <glyph glyph-name="asciitilde" unicode="~" horiz-adv-x="384" 
d="M128 413l2 -2q16 0 35 -3q26 -4 40 -6t40 -6q19 -3 33 -3q12 0 26 7q15 8 30 36l12 -5q-16 -49 -35 -73q-18 -22 -43 -22q-16 0 -37 3l-42 6q-14 2 -40 6q-19 3 -33 3q-10 0 -27 -6q-16 -6 -36 -38l-12 6q37 97 87 97z" />
    <glyph glyph-name="uni00A0" unicode="&#xa0;" horiz-adv-x="212" 
 />
    <glyph glyph-name="exclamdown" unicode="&#xa1;" horiz-adv-x="273" 
d="M125 253h3h18q7 -104 18 -184q14 -102 19 -138q9 -59 15 -96t6 -60q0 -36 -19 -55t-49 -19q-32 0 -51 19t-19 55q0 23 6 60t15 96q13 81 20 138q11 80 18 184zM133 473h1q26 0 46 -18q19 -18 19 -46t-19 -46q-20 -18 -46 -18t-45 18q-20 18 -20 46t19 46q20 18 45 18z
" />
    <glyph glyph-name="cent" unicode="&#xa2;" horiz-adv-x="496" 
d="M292 582l-6 -94q38 0 69 -6q33 -6 54 -16q23 -11 36 -25t13 -33q0 -17 -12 -29t-33 -12q-15 0 -25 5q-8 4 -15 14q-5 7 -10 21q-3 8 -9 26q-4 11 -9 18t-12 12t-18 6q-14 2 -27 2v-454h9q58 0 93 19q36 19 64 49l12 -12q-28 -34 -71 -57q-42 -22 -105 -24v-92h-22v92
q-46 1 -91 20q-42 17 -76 50q-32 31 -52 75q-19 42 -19 96q0 56 21 101q21 44 56 78q35 33 78 51q44 18 85 21v98h22zM130 255q0 -113 36 -168t98 -66v451q-25 -3 -48 -16t-43 -39q-18 -24 -31 -65q-12 -39 -12 -97z" />
    <glyph glyph-name="sterling" unicode="&#xa3;" horiz-adv-x="604" 
d="M98 56l-2 -4q34 34 53 65q20 32 20 72q0 25 -4 44q-5 22 -12 44h-106v18h100q-5 14 -17 42q-11 25 -17 44h-66v18h60q-11 33 -18 64t-7 71q0 50 21 90t57 69t84 45q47 16 104 16q53 0 95 -11q41 -11 68 -27q26 -16 40 -36q13 -19 13 -39q0 -21 -12 -36t-36 -15
q-26 0 -42 14q-14 13 -22 41l-9 33q-5 16 -15 30q-10 13 -28 22t-50 9q-44 0 -72 -15t-46 -42q-17 -26 -25 -64q-7 -35 -7 -82q0 -33 5 -70q4 -32 12 -64h202v-18h-197q4 -18 11 -44q4 -14 10 -42h177v-18h-175q2 -10 2 -15v-15q0 -28 -9 -52q-8 -21 -23 -43
q-13 -18 -29 -33q-15 -14 -27 -24h187q47 0 99 2q37 1 63 8q24 6 36 18t21 32h18l-29 -113q-2 -5 -4 -12.5t-3 -10.5q-3 -11 -7 -14q-4 -4 -11 -6q-8 -2 -18 -2h-468z" />
    <glyph glyph-name="yen" unicode="&#xa5;" horiz-adv-x="639" 
d="M211 13l-5 3q16 5 30 14q12 8 18 27t9 54q2 26 4 91h-183v18h183v88h-183v18h183v53l-159 259q-3 5 -9 13.5t-10 14.5t-7 11q-12 18 -21 29q-12 13 -21 20q-10 8 -24 12v13h209v-13q-23 -4 -30 -21q-8 -17 16 -54l160 -259l121 211q35 59 35 86t-37 36v13h130v-13
q-13 -5 -22 -10t-22 -20q-12 -13 -27 -36t-36 -60l-131 -228v-60h184v-18h-184v-88h184v-18h-184q2 -65 4 -91q3 -34 9 -54t18 -27q14 -9 30 -14v-13h-232v13z" />
    <glyph glyph-name="brokenbar" unicode="&#xa6;" horiz-adv-x="300" 
d="M163 820v-380h-26v380h26zM163 -106h-26v380h26v-380z" />
    <glyph glyph-name="section" unicode="&#xa7;" horiz-adv-x="580" 
d="M268 -142l-2 -15q39 0 65 10q28 11 44 27q17 16 24 39q8 24 8 48q0 27 -10 48q-11 23 -33 45q-24 24 -60 50q-38 27 -90 63q-46 31 -81 57t-57 51q-23 26 -33 52q-11 28 -11 60q0 54 28 89q29 37 67 56q-12 28 -12 63q0 41 15 72t42 52q28 22 63 32q38 11 78 11
q44 0 77 -9q34 -9 56 -24q23 -16 35 -33q12 -18 12 -34q0 -14 -9 -24t-27 -10q-19 0 -30 11t-18 30l-8 28q-5 16 -13 26q-8 11 -27 19q-17 7 -49 7q-64 0 -99 -28q-36 -29 -36 -73q0 -23 8 -42q7 -18 27 -36t51 -39l21 -14t29 -19.5t28 -18.5q65 -43 98 -66q39 -28 66 -56
q26 -28 38 -54q12 -27 12 -61q0 -48 -24 -87q-25 -40 -66 -71q9 -26 9 -54q0 -43 -15 -79q-15 -35 -42 -61q-26 -25 -66 -40q-39 -15 -85 -15t-85 12q-40 12 -66 31t-42 44q-15 24 -15 48q0 16 9 26q9 11 27 11q22 0 31 -12q8 -11 13 -29q7 -31 13 -47q7 -21 21 -36
q14 -16 36 -23q24 -8 60 -8zM274 254v-2q76 -52 120 -90t63 -72q19 16 27 36q8 21 8 42q0 29 -12 53q-12 25 -37 48q-23 22 -66 52q-41 29 -96 66q-54 36 -90 66t-55 64q-16 -10 -31 -29q-13 -17 -13 -46q0 -25 10 -44q11 -19 32 -41q20 -20 56 -45q10 -7 38 -26t46 -32z
" />
    <glyph glyph-name="dieresis" unicode="&#xa8;" horiz-adv-x="446" 
d="M315 561q-24 0 -40 16t-16 42q0 23 16 38q17 15 40 15t39 -15t16 -38q0 -26 -16 -42t-39 -16zM131 561q-23 0 -38 16q-15 17 -15 42q0 23 15 38t38 15t40 -15q16 -15 16 -38q0 -26 -16 -42t-40 -16z" />
    <glyph glyph-name="copyright" unicode="&#xa9;" horiz-adv-x="844" 
d="M423 761q79 0 150 -30q70 -30 123 -83t83 -123q30 -71 30 -150t-30 -150q-30 -70 -83 -123t-123 -83q-71 -30 -150 -30t-150 30q-70 30 -123 83t-83 123q-30 71 -30 150t30 150q30 70 83 123t123 83q71 30 150 30zM423 4l-4 -4q74 0 143 29q68 29 117 78q50 50 80 117
q30 68 30 146t-30 146t-79 117q-50 49 -117 78q-69 29 -142 29q-76 0 -142 -28q-67 -28 -118 -78t-81 -117t-30 -145t30 -145t81 -117q51 -49 119 -78q66 -28 143 -28zM431 146l1 -3q-51 0 -93 18t-72 48q-29 29 -46 71q-16 39 -16 87q0 55 20 98t51 71q32 28 72 42
q42 14 81 14q27 0 45 -3q16 -3 32 -8l24 -8q10 -3 21 -3q14 0 18 16h10v-109h-10q-17 57 -53 80q-37 23 -86 23q-28 0 -55 -12q-26 -12 -46 -36q-20 -25 -32 -62q-12 -38 -12 -90q0 -60 13 -99t35 -66q20 -24 50 -37q29 -12 60 -12q52 0 85 18q32 18 51 41l8 -8
q-8 -12 -21 -23q-15 -13 -33 -23q-19 -11 -45 -18q-24 -7 -57 -7z" />
    <glyph glyph-name="ordfeminine" unicode="&#xaa;" horiz-adv-x="372" 
d="M127 391l-4 1q-46 0 -73 21t-27 62q0 22 9 37q10 16 25 26q19 12 39 20q8 3 24.5 10t23.5 10l41 17q29 12 41 26q12 13 12 30v44q0 27 -18 38q-19 11 -46 11q-26 0 -37 -9q-9 -8 -19 -24q-8 -13 -17 -23q-9 -9 -25 -9q-15 0 -23 8t-8 21q0 26 36 38t93 12q26 0 51 -3
q26 -3 46 -13q21 -10 34 -28q13 -17 13 -46v-179q0 -47 6 -61q6 -13 23 -13q3 0 11 2t11 3l5 -11q-5 -3 -19 -9q-15 -6 -37 -6q-39 0 -57 15q-17 15 -19 42l-17 -16q-21 -17 -40 -29q-24 -15 -58 -15zM100 485h-1q0 -37 12 -53q12 -17 35 -17q22 0 40 12t32 26l17 16v146
q-5 -6 -18 -16q-13 -9 -34 -18l-27 -11q-30 -13 -43 -31q-13 -17 -13 -54z" />
    <glyph glyph-name="guillemotleft" unicode="&#xab;" horiz-adv-x="406" 
d="M196 222v16l158 157l11 -7l-87 -158l88 -158l-11 -7zM48 222v16l159 157l11 -7l-87 -158l88 -158l-11 -7z" />
    <glyph glyph-name="registered" unicode="&#xae;" horiz-adv-x="516" 
d="M259 760l-1 -1q46 0 87 -18t72 -48q31 -29 49 -72q18 -42 18 -88q0 -49 -18 -89q-18 -41 -49 -72t-72 -49t-87 -18t-88 18t-73 49t-49 72q-18 40 -18 89q0 47 18 89q18 43 49 72q32 30 73 48q42 18 89 18zM258 322l-2 -2q45 0 81 16q37 16 66 45t45 67q17 40 17 84
q0 46 -16 84t-45 67q-28 29 -66 45q-36 16 -81 16t-81 -16q-38 -16 -66 -45t-45 -66q-16 -36 -16 -83q0 -44 17 -84q16 -38 45 -67t66 -45q36 -16 81 -16zM162 432l-2 -2q7 2 9 4q4 4 5 10q2 10 2 21v38v76v36q0 11 -2 21q-2 7 -4 10q-4 4 -9 5v6h94q53 0 75 -15
q23 -15 23 -40q0 -34 -27 -49t-62 -15h-4q21 -3 36 -15t21 -38q8 -26 15 -38q8 -12 21 -12q10 0 18 8l4 -5q-5 -4 -12 -9q-8 -5 -23 -5q-19 0 -36 11q-16 11 -24 45q-2 7 -8 33q-3 11 -8 18q-4 5 -11 7q-4 1 -16 1h-18v-34v-38q0 -11 2 -21q1 -6 5 -10q2 -2 9 -4v-6h-73v6z
M216 648v-104h46q54 0 54 51q0 26 -13 39q-14 14 -51 14h-36z" />
    <glyph glyph-name="macron" unicode="&#xaf;" horiz-adv-x="446" 
d="M337 618v-45h-223v45h223z" />
    <glyph glyph-name="degree" unicode="&#xb0;" horiz-adv-x="296" 
d="M148 757v-2q21 0 42 -8q20 -7 33 -21t21 -33q8 -21 8 -42t-8 -42q-7 -19 -21 -34q-13 -14 -33 -22q-21 -8 -42 -8q-45 0 -75 31q-30 32 -30 76q0 45 30 75t75 30zM65 650l1 -2q0 -20 6 -36t17 -29q9 -11 26 -19q14 -7 33 -7q38 0 60 27q23 28 23 65t-23 63t-60 26
q-35 0 -59 -25t-24 -63z" />
    <glyph glyph-name="twosuperior" unicode="&#xb2;" horiz-adv-x="361" 
d="M196 521l1 -4q42 0 56 1q24 2 33 4q11 3 16 9q5 7 9 16h12l-17 -67q-3 -11 -6 -14t-9 -3h-257l115 112q49 49 69 87t20 81q0 38 -16 60t-57 22q-18 0 -30 -5q-10 -4 -16 -12q-5 -7 -7 -15q-2 -10 -3 -14q-1 -13 -9 -22t-24 -9q-29 0 -29 29q0 10 7 20q9 12 22 20
q15 9 38 15q22 6 53 6q23 0 51 -5q26 -5 45 -15q20 -11 32 -29t12 -44q0 -25 -10 -46q-11 -23 -28 -43q-18 -21 -40 -40q-20 -17 -50 -39l-74 -56h91z" />
    <glyph glyph-name="threesuperior" unicode="&#xb3;" horiz-adv-x="374" 
d="M81 822h3q2 9 3 12t6 3h244v-6l-161 -139q15 6 38 6q62 0 99 -27q38 -27 38 -83q0 -22 -11 -46q-10 -21 -32 -40q-20 -17 -51 -28q-29 -10 -69 -10q-28 0 -52 6q-23 6 -40 15q-15 8 -25 20q-9 11 -9 21q0 13 7 20q8 8 21 8q14 0 20 -7q7 -8 8 -19q1 -4 3 -14q1 -8 8 -18
q6 -9 20 -15q13 -6 36 -6q26 0 44 9t30 24q13 16 17 35q5 22 5 42q0 43 -15 72q-15 28 -56 28q-26 0 -43 -7q-18 -8 -33 -21l-7 7l134 116h-85q-39 0 -51 -1q-20 -2 -28 -4q-11 -3 -15 -7t-9 -14h-11z" />
    <glyph glyph-name="acute" unicode="&#xb4;" horiz-adv-x="446" 
d="M138 537l94 129q13 18 26 30q11 10 29 10t27 -10t9 -27q0 -18 -10 -29q-11 -13 -25 -21l-140 -92z" />
    <glyph glyph-name="paragraph" unicode="&#xb6;" horiz-adv-x="569" 
d="M272 346l-4 -4q-54 0 -96 13q-43 13 -76 39t-51 63t-18 87q0 52 18 89t50 63t77 38t98 12h271v-13q-21 -6 -33 -15t-18 -36q-5 -24 -7 -78q-1 -34 -1 -139v-234q0 -93 -20 -158q-20 -64 -54 -101q-34 -38 -81 -54q-45 -16 -100 -16q-48 0 -72 15t-24 42q0 16 11 27t27 11
q21 0 35 -11q14 -10 26 -23t26 -23q14 -11 33 -11q17 0 38 9q22 9 41 36t33 77q13 48 13 132v550h-92v-387h-50z" />
    <glyph glyph-name="periodcentered" unicode="&#xb7;" horiz-adv-x="241" 
d="M121 229v-1q-27 0 -46 18t-19 47q0 28 19 46t46 18q25 0 45 -18q19 -18 19 -46t-19 -46q-20 -18 -45 -18z" />
    <glyph glyph-name="cedilla" unicode="&#xb8;" horiz-adv-x="446" 
d="M261 0l-32 -49q38 -7 64 -27q25 -19 25 -45q0 -40 -41 -60q-41 -19 -123 -24l-1 15q98 11 98 46q0 18 -18 27q-19 10 -52 11l-4 7l62 99h22z" />
    <glyph glyph-name="onesuperior" unicode="&#xb9;" horiz-adv-x="264" 
d="M70 465l-3 10q13 2 20 6q8 5 12 16q4 12 6 35q1 15 1 63v93q0 30 -1 40q-1 14 -6 22t-12 9q-10 2 -21 2v10l107 72v-247q0 -48 1 -63q1 -20 5 -35q3 -11 11 -16t19 -6v-11h-139z" />
    <glyph glyph-name="ordmasculine" unicode="&#xba;" horiz-adv-x="418" 
d="M209 387v-1q-30 0 -63 12q-35 13 -62 34q-28 22 -48 57q-19 34 -19 81t19 81q20 35 48 59t62 36q33 12 63 12t63 -12q34 -12 62 -36q29 -24 48 -58t19 -81t-19 -81q-20 -34 -48 -57q-27 -21 -62 -34q-33 -12 -63 -12zM209 399v-2q22 0 43 9q20 9 36 29q15 19 24 53
q9 33 9 81q0 47 -9 80t-24 54t-36 30t-43 9q-23 0 -42 -9q-20 -9 -35 -30t-24 -54t-9 -80q0 -48 9 -81q9 -32 24 -52q14 -18 35 -28q19 -9 42 -9z" />
    <glyph glyph-name="guillemotright" unicode="&#xbb;" horiz-adv-x="406" 
d="M40 72l88 158l-87 158l11 7l159 -157v-16l-160 -157zM188 72l87 158l-86 158l11 7l157 -157v-16l-158 -157z" />
    <glyph glyph-name="onequarter" unicode="&#xbc;" horiz-adv-x="503" 
d="M348 -7l-4 -1q2 -22 3 -36q1 -12 5 -21q3 -7 9 -10q4 -2 14 -4v-11h-125v11q7 1 14 5q6 3 9 10q4 9 5 21q2 13 3 36h-196v8l235 286h28v-244h73l-22 -50h-51zM277 42v176l-145 -176h145zM46 380h403v-12h-403v12zM180 464l-3 10q13 2 20 6q8 5 12 16q4 12 6 35q1 15 1 63
v93q0 30 -1 40q-1 14 -6 22q-5 7 -12 9q-10 2 -21 2v10l107 72v-247q0 -48 1 -63q1 -20 5 -35q3 -11 11 -16t19 -6v-11h-139z" />
    <glyph glyph-name="onehalf" unicode="&#xbd;" horiz-adv-x="503" 
d="M50 380h403v-12h-403v12zM183 464l-3 10q13 2 20 6q8 5 12 16q4 12 6 35q1 15 1 63v93q0 30 -1 40q-1 14 -6 22q-4 7 -12 9q-10 2 -21 2v10l107 72v-247q0 -48 1 -63q1 -20 5 -35q3 -11 11 -16t19 -6v-11h-139zM269 -33l1 -4q42 0 56 1q24 2 33 4q11 3 16 9q5 7 9 16h12
l-17 -67q-3 -11 -6 -14t-9 -3h-257l115 112q50 49 69 87q20 38 20 81q0 38 -16 60t-57 22q-18 0 -30 -5q-10 -4 -16 -12q-5 -7 -7 -15q-2 -10 -3 -14q-1 -13 -9 -22q-7 -9 -24 -9q-29 0 -29 29q0 10 7 20q9 12 22 20q15 9 38 15t53 6q23 0 51 -5q25 -5 45 -15q20 -11 32 -29
t12 -44q0 -25 -10 -46q-11 -23 -28 -43q-18 -21 -40 -40q-20 -17 -50 -39l-74 -56h91z" />
    <glyph glyph-name="threequarters" unicode="&#xbe;" horiz-adv-x="503" 
d="M348 -7l-4 -1q2 -22 3 -36q1 -12 5 -21q3 -7 9 -10q4 -2 14 -4v-11h-125v11q7 1 14 5q6 3 9 10q4 9 5 21q2 13 3 36h-196v8l235 286h28v-244h73l-22 -50h-51zM277 42v176l-145 -176h145zM46 380h403v-12h-403v12zM131 821h3q2 9 3 12t6 3h244v-6l-161 -139q15 6 38 6
q62 0 99 -27q38 -27 38 -83q0 -22 -11 -46q-10 -21 -32 -40q-20 -17 -51 -28q-29 -10 -69 -10q-28 0 -52 6q-23 6 -40 15q-15 8 -25 20q-9 10 -9 21q0 13 7 20q8 8 21 8q14 0 20 -7q7 -8 8 -19q1 -4 3 -14q1 -8 8 -18q6 -9 20 -15q13 -6 36 -6q26 0 44 9t30 24q13 16 17 35
q5 22 5 42q0 44 -15 72t-56 28q-26 0 -43 -7q-18 -7 -33 -21l-7 7l134 116h-85q-39 0 -51 -1q-20 -2 -28 -4q-11 -3 -15 -7t-9 -14h-11z" />
    <glyph glyph-name="questiondown" unicode="&#xbf;" horiz-adv-x="434" 
d="M297 262l3 -3q2 -48 -9 -87q-11 -40 -27 -74q-17 -36 -36 -65q-18 -28 -36 -62q-17 -32 -27 -64q-11 -35 -11 -72q0 -63 28 -91t79 -28q22 0 31 11t15 27q3 9 9 25q4 12 12 21q7 9 16 13q10 5 24 5q22 0 34 -12t12 -30q0 -32 -39 -54q-38 -22 -118 -22q-47 0 -87 12
t-69 33t-45 51q-17 31 -17 66q0 41 17 75q16 33 42 63q24 28 56 57q30 27 57 57q26 29 46 66q19 35 22 82h18zM279 471q27 0 46 -18t19 -46t-19 -46t-46 -18q-25 0 -45 18q-19 18 -19 46t19 46q20 18 45 18z" />
    <glyph glyph-name="Agrave" unicode="&#xc0;" horiz-adv-x="813" 
d="M19 13l-5 -1q11 4 23 11q10 6 21 20q10 13 24 36q11 19 28 59l231 538q-7 16 -15 27q-8 12 -15 17q-7 6 -17 9q-12 4 -19 6v13h136q11 0 15 -4q5 -5 11 -18l264 -600q7 -16 20 -42q9 -18 20 -32q12 -16 22 -23q12 -9 28 -15v-15h-221v15q34 6 39 27q4 21 -18 73l-51 116
h-368l-39 -91q-7 -19 -12 -39t-3 -36q2 -17 13 -30q12 -14 37 -21v-13h-149v13zM530 245l-178 409l-176 -409h354zM287 820l-2 -1q-32 6 -44 20q-12 13 -12 32q0 13 11 26q10 12 29 12q12 0 25 -5t23 -12l144 -93l-5 -13z" />
    <glyph glyph-name="Aacute" unicode="&#xc1;" horiz-adv-x="813" 
d="M19 13l-5 -1q11 4 23 11q10 6 21 20q10 13 24 36q11 19 28 59l231 538q-7 16 -15 27q-8 12 -15 17q-7 6 -17 9q-12 4 -19 6v13h136q11 0 15 -4q5 -5 11 -18l264 -600q7 -16 20 -42q9 -18 20 -32q12 -16 22 -23q12 -9 28 -15v-15h-221v15q34 6 39 27q4 21 -18 73l-51 116
h-368l-39 -91q-7 -19 -12 -39t-3 -36q2 -17 13 -30q12 -14 37 -21v-13h-149v13zM530 245l-178 409l-176 -409h354zM257 799l142 92q10 7 23 12t25 5q19 0 29 -12q11 -13 11 -26q0 -18 -12 -31q-11 -13 -44 -19l-169 -34z" />
    <glyph glyph-name="Acircumflex" unicode="&#xc2;" horiz-adv-x="813" 
d="M19 13l-5 -1q11 4 23 11q10 6 21 20q10 13 24 36q11 19 28 59l231 538q-7 16 -15 27q-8 12 -15 17q-7 6 -17 9q-12 4 -19 6v13h136q11 0 15 -4q5 -5 11 -18l264 -600q7 -16 20 -42q9 -18 20 -32q12 -16 22 -23q12 -9 28 -15v-15h-221v15q34 6 39 27q4 21 -18 73l-51 116
h-368l-39 -91q-7 -19 -12 -39t-3 -36q2 -17 13 -30q12 -14 37 -21v-13h-149v13zM530 245l-178 409l-176 -409h354zM366 916l138 -120l-5 -12l-133 48l-134 -48l-5 12z" />
    <glyph glyph-name="Atilde" unicode="&#xc3;" horiz-adv-x="813" 
d="M19 13l-5 -1q11 4 23 11q10 6 21 20q10 13 24 36q11 19 28 59l231 538q-7 16 -15 27q-8 12 -15 17q-7 6 -17 9q-12 4 -19 6v13h136q11 0 15 -4q5 -5 11 -18l264 -600q7 -16 20 -42q9 -18 20 -32q12 -16 22 -23q12 -9 28 -15v-15h-221v15q34 6 39 27q4 21 -18 73l-51 116
h-368l-39 -91q-7 -19 -12 -39t-3 -36q2 -17 13 -30q12 -14 37 -21v-13h-149v13zM530 245l-178 409l-176 -409h354zM313 889h-1q19 0 31 -1l36 -3q12 -1 34 -3q11 -1 27 -1q14 0 29 9t32 35l12 -4q-12 -50 -34 -78t-51 -28q-6 0 -30 2l-36 3q-12 1 -34 3t-27 2q-13 0 -28 -9
q-16 -9 -33 -37l-12 4q16 55 39 81q22 25 46 25z" />
    <glyph glyph-name="Adieresis" unicode="&#xc4;" horiz-adv-x="813" 
d="M19 13l-5 -1q11 4 23 11q10 6 21 20q10 13 24 36q11 19 28 59l231 538q-7 16 -15 27q-8 12 -15 17q-7 6 -17 9q-12 4 -19 6v13h136q11 0 15 -4q5 -5 11 -18l264 -600q7 -16 20 -42q9 -18 20 -32q12 -16 22 -23q12 -9 28 -15v-15h-221v15q34 6 39 27q4 21 -18 73l-51 116
h-368l-39 -91q-7 -19 -12 -39t-3 -36q2 -17 13 -30q12 -14 37 -21v-13h-149v13zM530 245l-178 409l-176 -409h354zM468 791q-24 0 -39 16q-15 17 -15 42q0 23 15 38t39 15q23 0 38 -15t15 -38q0 -25 -15 -42q-15 -16 -38 -16zM259 791q-23 0 -38 16q-15 17 -15 42
q0 23 15 38t38 15t40 -15q16 -15 16 -38q0 -26 -16 -42t-40 -16z" />
    <glyph glyph-name="Aring" unicode="&#xc5;" horiz-adv-x="813" 
d="M19 13l-5 -1q11 4 23 11q10 6 21 20q10 13 24 36q11 19 28 59l231 538q-7 16 -15 27q-8 12 -15 17q-7 6 -17 9q-12 4 -19 6v13h136q11 0 15 -4q5 -5 11 -18l264 -600q7 -16 20 -42q9 -18 20 -32q12 -16 22 -23q12 -9 28 -15v-15h-221v15q34 6 39 27q4 21 -18 73l-51 116
h-368l-39 -91q-7 -19 -12 -39t-3 -36q2 -17 13 -30q12 -14 37 -21v-13h-149v13zM530 245l-178 409l-176 -409h354zM283 863l-2 -1q0 37 26 60t60 23q35 0 60 -22q26 -23 26 -60q0 -38 -25 -60t-60 -22t-60 22t-25 60zM321 862h-1q0 -65 45 -65q21 0 33 17q12 16 12 48
q0 31 -12 49t-32 18q-21 0 -33 -18t-12 -49z" />
    <glyph glyph-name="AE" unicode="&#xc6;" horiz-adv-x="1109" 
d="M1017 750l-9 1q12 0 17 -4t10 -27l20 -110h-17q-16 39 -33 63t-41 38t-58 18q-38 5 -85 5h-177v-306h74q44 0 66 7q25 8 36 19t16 27q3 10 9 32h16v-187h-16q-6 22 -9 32q-5 16 -16 27t-36 19q-22 7 -66 7h-74v-396h196q56 0 88 4q37 5 60 19q25 16 41 42q18 29 32 73h17
l-14 -122q-1 -22 -8 -27q-5 -4 -22 -4h-563v13q20 6 32 15t18 32q7 25 8 65q2 56 2 116h-316l-76 -115q-13 -21 -21 -39t-6 -33q1 -14 12 -25q10 -11 33 -18v-12h-144v12q7 3 21 11q12 7 23 18q10 10 28 33q17 21 39 54l361 547q11 19 14 29q3 11 0 18q-3 8 -14 11
q-13 4 -25 5v13h557zM527 259v462l-305 -462h305z" />
    <glyph glyph-name="Ccedilla" unicode="&#xc7;" horiz-adv-x="774" 
d="M436 -13v-6q-92 0 -165 33t-124 87t-78 123t-27 143q0 95 36 168t93 123t129 75q73 26 146 26q50 0 84 -6t60 -15q17 -6 44 -15q18 -6 38 -6q26 0 33 28h16v-178h-16q-30 94 -97 136q-68 42 -162 42q-57 0 -108 -21q-52 -21 -90 -64t-61 -111q-22 -66 -22 -160
q0 -103 24 -173q25 -72 64 -116q41 -46 94 -65q55 -20 114 -20q51 0 88 10q38 10 70 27q33 17 54 37q20 19 39 41l12 -11q-13 -18 -38 -42q-23 -21 -60 -43q-34 -20 -83 -34q-45 -13 -107 -13zM411 -6l-32 -49q38 -7 64 -27q25 -19 25 -45q0 -40 -41 -60q-41 -19 -123 -24
l-1 15q98 11 98 46q0 18 -18 27q-19 10 -52 11l-4 7l62 99h22z" />
    <glyph glyph-name="Egrave" unicode="&#xc8;" horiz-adv-x="670" 
d="M271 821l-2 -1q-32 6 -44 20t-12 32q0 13 11 26q10 12 29 12q12 0 25 -5t23 -12l144 -93l-5 -13zM22 12l-5 1q20 7 33 17q12 9 18 35q5 23 7 75q2 66 2 133v204q0 102 -1 134q-2 51 -7 74q-6 26 -18 35q-13 10 -33 17v13h553q12 0 17 -4t10 -27l20 -110h-17
q-17 39 -33 63q-17 24 -41 38t-58 18q-38 5 -85 5h-190v-306h80q44 0 66 7q25 8 36 19q13 13 17 27q3 10 9 32h15v-187h-15q-6 22 -9 32q-5 16 -16 27t-36 19q-22 7 -66 7h-80v-396h209q56 0 88 4q37 5 60 19q25 16 41 42q18 29 32 73h17l-14 -122q-1 -22 -8 -27
q-5 -4 -22 -4h-576v13z" />
    <glyph glyph-name="Eacute" unicode="&#xc9;" horiz-adv-x="670" 
d="M241 800l142 92q10 7 23 12t25 5q19 0 29 -12q11 -13 11 -26q0 -17 -12 -31q-11 -13 -44 -19l-169 -34zM22 12l-5 1q20 7 33 17q12 9 18 35q5 23 7 75q2 66 2 133v204q0 102 -1 134q-2 51 -7 74q-6 26 -18 35q-13 10 -33 17v13h553q12 0 17 -4t10 -27l20 -110h-17
q-17 39 -33 63q-17 24 -41 38t-58 18q-38 5 -85 5h-190v-306h80q44 0 66 7q25 8 36 19q13 13 17 27q3 10 9 32h15v-187h-15q-6 22 -9 32q-5 16 -16 27t-36 19q-22 7 -66 7h-80v-396h209q56 0 88 4q37 5 60 19q25 16 41 42q18 29 32 73h17l-14 -122q-1 -22 -8 -27
q-5 -4 -22 -4h-576v13z" />
    <glyph glyph-name="Ecircumflex" unicode="&#xca;" horiz-adv-x="670" 
d="M339 917l138 -120l-5 -12l-133 48l-134 -48l-5 12zM24 13l-5 1q20 7 33 17q12 9 18 35q5 23 7 75q2 66 2 133v204q0 102 -1 134q-2 51 -7 74q-6 26 -18 35q-13 10 -33 17v13h553q12 0 17 -4t10 -27l20 -110h-17q-17 39 -33 63q-17 24 -41 38t-58 18q-38 5 -85 5h-190
v-306h80q44 0 66 7q25 8 36 19q13 13 17 27q3 10 9 32h15v-187h-15q-6 22 -9 32q-5 16 -16 27t-36 19q-22 7 -66 7h-80v-396h209q56 0 88 4q37 5 60 19q25 16 41 42q18 29 32 73h17l-14 -122q-1 -22 -8 -27q-5 -4 -22 -4h-576v13z" />
    <glyph glyph-name="Edieresis" unicode="&#xcb;" horiz-adv-x="670" 
d="M24 13l-5 1q20 7 33 17q12 9 18 35q5 23 7 75q2 66 2 133v204q0 102 -1 134q-2 51 -7 74q-6 26 -18 35q-13 10 -33 17v13h553q12 0 17 -4t10 -27l20 -110h-17q-17 39 -33 63q-17 24 -41 38t-58 18q-38 5 -85 5h-190v-306h80q44 0 66 7q25 8 36 19q13 13 17 27q3 10 9 32
h15v-187h-15q-6 22 -9 32q-5 16 -16 27t-36 19q-22 7 -66 7h-80v-396h209q56 0 88 4q37 5 60 19q25 16 41 42q18 29 32 73h17l-14 -122q-1 -22 -8 -27q-5 -4 -22 -4h-576v13zM439 793q-24 0 -39 16q-15 17 -15 42q0 23 15 38t39 15q23 0 38 -15t15 -38q0 -25 -15 -42
q-15 -16 -38 -16zM230 793q-23 0 -38 16q-15 17 -15 42q0 23 15 38t38 15q24 0 40 -15t16 -38q0 -26 -16 -42t-40 -16z" />
    <glyph glyph-name="Igrave" unicode="&#xcc;" horiz-adv-x="282" 
d="M24 13l-3 -1q20 7 33 17q12 9 18 35q5 23 7 75q2 66 2 133v204q0 102 -1 135q-2 52 -7 76q-6 27 -18 36t-33 15v13h234v-13q-21 -6 -33 -15t-18 -36q-5 -24 -7 -76q-1 -33 -1 -135v-204q0 -67 2 -133q1 -47 8 -75q6 -26 18 -35q11 -8 33 -16v-13h-234v13zM66 820l-2 -1
q-32 6 -44 20q-12 13 -12 32q0 13 11 26q10 12 29 12q12 0 25 -5t23 -12l144 -93l-5 -13z" />
    <glyph glyph-name="Iacute" unicode="&#xcd;" horiz-adv-x="282" 
d="M24 13l-3 -1q20 7 33 17q12 9 18 35q5 23 7 75q2 66 2 133v204q0 102 -1 135q-2 52 -7 76q-6 27 -18 36t-33 15v13h234v-13q-21 -6 -33 -15t-18 -36q-5 -24 -7 -76q-1 -33 -1 -135v-204q0 -67 2 -133q1 -47 8 -75q6 -26 18 -35q11 -8 33 -16v-13h-234v13zM36 799l142 92
q10 7 23 12t25 5q18 0 29 -12q11 -13 11 -26q0 -18 -12 -31q-11 -13 -44 -19l-169 -34z" />
    <glyph glyph-name="Icircumflex" unicode="&#xce;" horiz-adv-x="282" 
d="M24 13l-3 -1q20 7 33 17q12 9 18 35q5 23 7 75q2 66 2 133v204q0 102 -1 135q-2 52 -7 76q-6 27 -18 36t-33 15v13h234v-13q-21 -6 -33 -15t-18 -36q-5 -24 -7 -76q-1 -33 -1 -135v-204q0 -67 2 -133q1 -47 8 -75q6 -26 18 -35q11 -8 33 -16v-13h-234v13zM137 916
l138 -120l-5 -12l-133 48l-134 -48l-5 12z" />
    <glyph glyph-name="Idieresis" unicode="&#xcf;" horiz-adv-x="282" 
d="M223 795q-24 0 -39 16q-15 17 -15 40t15 38t39 15q23 0 38 -15t15 -38t-15 -40q-15 -16 -38 -16zM60 795h-1q-23 0 -39 16t-16 40q0 23 16 38t39 15t39 -15q17 -15 17 -38q0 -24 -16 -40t-39 -16zM23 13l-3 -1q20 7 33 17q12 9 18 35q5 23 7 75q2 66 2 133v204
q0 102 -1 135q-2 52 -7 76q-6 27 -18 36t-33 15v13h234v-13q-21 -6 -33 -15t-18 -36q-5 -24 -7 -76q-1 -33 -1 -135v-204q0 -67 2 -133q1 -47 8 -75q6 -26 18 -35q11 -8 33 -16v-13h-234v13z" />
    <glyph glyph-name="Eth" unicode="&#xd0;" horiz-adv-x="809" 
d="M24 13l1 -1q20 7 33 17q12 9 18 35q5 23 7 75q2 66 2 133v111h-79v16h79v-16h115v-369h47q102 0 177 21q76 21 125 66q50 46 74 115q24 70 24 171q0 105 -28 171q-29 68 -81 107t-126 54t-165 15h-47v-334h171v-16h-171v16h-115v77q0 102 -1 134q-2 51 -7 74
q-6 26 -18 35q-13 10 -33 17v13h221q122 0 222 -23q97 -23 165 -69q67 -46 103 -115t36 -159q0 -86 -33 -156t-99 -121q-65 -50 -165 -79q-97 -28 -231 -28h-221v13z" />
    <glyph glyph-name="Ntilde" unicode="&#xd1;" horiz-adv-x="761" 
d="M377 890h-1q19 0 31 -1l36 -3q12 -1 34 -3q11 -1 27 -1q14 0 29 9t32 35l12 -4q-12 -50 -34 -78t-51 -28q-6 0 -30 2l-36 3q-12 1 -34 3t-27 2q-13 0 -28 -9q-16 -9 -33 -37l-12 4q16 56 39 81q22 25 46 25zM23 13l-4 2q21 9 33 21t18 39q5 24 7 77q2 66 2 135v193
q0 102 -1 134q-2 51 -7 74q-6 26 -18 35q-13 10 -33 17v13h178q10 0 14 -1q5 -1 10 -6q7 -7 11 -12q2 -2 7.5 -9.5t8.5 -11.5l413 -547v301q0 102 -1 135q-1 49 -9 76q-8 28 -22 39q-15 12 -40 21v13h151v-13q-21 -9 -33 -21t-18 -39q-5 -24 -7 -76q-1 -33 -1 -135v-470h-32
l-550 729v-442q0 -69 2 -135q1 -49 9 -76q8 -28 22 -39q15 -12 41 -21v-13h-151v13z" />
    <glyph glyph-name="Ograve" unicode="&#xd2;" horiz-adv-x="863" 
d="M368 821l-2 -1q-32 6 -44 20q-12 13 -12 32q0 13 11 26q11 12 29 12q12 0 25 -5t23 -12l144 -93l-5 -13zM430 -15v-1q-76 0 -147 30q-72 31 -125 82q-54 53 -87 124q-33 72 -33 155t33 153t87 123q53 51 125 82q71 30 147 30t146 -30q72 -31 125 -82q54 -53 87 -123
t33 -153q0 -82 -33 -154q-33 -71 -87 -124q-53 -51 -125 -82q-70 -30 -146 -30zM430 0l-2 -1q52 0 100 21t84 66q37 46 59 116q22 69 22 171t-22 171q-23 70 -60 114q-38 45 -85 65q-48 21 -97 21q-50 0 -98 -21t-85 -64q-38 -43 -60 -114q-22 -69 -22 -171t22 -171
q22 -70 59 -116q36 -45 84 -66t101 -21z" />
    <glyph glyph-name="Oacute" unicode="&#xd3;" horiz-adv-x="863" 
d="M335 800l142 92q10 7 23 12t25 5q19 0 29 -12q11 -13 11 -26q0 -17 -12 -31q-11 -13 -44 -19l-169 -34zM430 -15v-1q-76 0 -147 30q-72 31 -125 82q-54 53 -87 124q-33 72 -33 155t33 153t87 123q53 51 125 82q71 30 147 30t146 -30q72 -31 125 -82q54 -53 87 -123
t33 -153q0 -82 -33 -154q-33 -71 -87 -124q-53 -51 -125 -82q-70 -30 -146 -30zM430 0l-2 -1q52 0 100 21t84 66q37 46 59 116q22 69 22 171t-22 171q-23 70 -60 114q-38 45 -85 65q-48 21 -97 21q-50 0 -98 -21t-85 -64q-38 -43 -60 -114q-22 -69 -22 -171t22 -171
q22 -70 59 -116q36 -45 84 -66t101 -21z" />
    <glyph glyph-name="Ocircumflex" unicode="&#xd4;" horiz-adv-x="863" 
d="M436 917l138 -120l-5 -12l-133 48l-134 -48l-5 12zM432 -14v-1q-76 0 -147 30q-72 31 -125 82q-54 53 -87 124q-33 72 -33 155q0 82 33 153t87 123q53 51 125 82q71 30 147 30t146 -30q72 -31 125 -82q54 -52 87 -123t33 -153t-33 -154q-33 -71 -87 -124
q-53 -51 -125 -82q-70 -30 -146 -30zM432 1l-2 -1q52 0 100 21t84 66q37 46 59 116q22 69 22 171t-22 171q-23 71 -60 114q-38 45 -85 65q-48 21 -97 21q-50 0 -98 -21t-85 -64q-38 -44 -60 -114q-22 -69 -22 -171t22 -171q22 -70 59 -116q36 -45 84 -66t101 -21z" />
    <glyph glyph-name="Otilde" unicode="&#xd5;" horiz-adv-x="863" 
d="M380 890h-1q19 0 31 -1l36 -3q12 -1 34 -3q11 -1 27 -1q14 0 29 9t32 35l12 -4q-12 -50 -34 -78t-51 -28q-6 0 -30 2l-36 3q-12 1 -34 3t-27 2q-13 0 -28 -9q-16 -9 -33 -37l-12 4q17 56 39 81t46 25zM431 -14v-1q-77 0 -147 30q-72 31 -125 82q-54 53 -87 124
q-33 72 -33 155q0 82 33 153t87 123q53 51 125 82q70 30 147 30q75 0 146 -30q72 -31 125 -82q54 -52 87 -123t33 -153t-33 -154q-33 -71 -87 -124q-53 -51 -125 -82q-71 -30 -146 -30zM431 1l-2 -1q52 0 100 21t84 66q37 46 59 116q22 69 22 171t-22 171q-22 71 -60 114
q-38 45 -85 65q-48 21 -97 21q-50 0 -98 -21t-85 -64q-37 -44 -60 -114q-22 -69 -22 -171t22 -171q22 -70 59 -116q36 -45 84 -66t101 -21z" />
    <glyph glyph-name="Odieresis" unicode="&#xd6;" horiz-adv-x="863" 
d="M540 792q-24 0 -39 16t-15 42q0 23 15 38t39 15q23 0 38 -15t15 -38q0 -26 -15 -42t-38 -16zM331 792q-23 0 -38 16t-15 42q0 23 15 38t38 15t40 -15q16 -15 16 -38q0 -26 -16 -42t-40 -16zM432 -14v-1q-76 0 -147 30q-72 31 -125 82q-54 53 -87 124q-33 72 -33 155
q0 82 33 153t87 123q53 51 125 82q71 30 147 30t146 -30q72 -31 125 -82q54 -52 87 -123t33 -153t-33 -154q-33 -71 -87 -124q-53 -51 -125 -82q-70 -30 -146 -30zM432 1l-2 -1q52 0 100 21t84 66q37 46 59 116q22 69 22 171t-22 171q-23 71 -60 114q-38 45 -85 65
q-48 21 -97 21q-50 0 -98 -21t-85 -64q-38 -44 -60 -114q-22 -69 -22 -171t22 -171q22 -70 59 -116q36 -45 84 -66t101 -21z" />
    <glyph glyph-name="multiply" unicode="&#xd7;" horiz-adv-x="462" 
d="M217 351l-161 174l14 16l162 -174l160 172l14 -15l-160 -173l160 -172l-15 -15l-159 172l-159 -172l-15 16z" />
    <glyph glyph-name="Oslash" unicode="&#xd8;" horiz-adv-x="863" 
d="M432 -14l-3 -4q-53 0 -102 15q-47 14 -94 41l-60 -100l-16 9l60 101q-39 26 -72 60q-34 35 -57 76q-23 40 -37 90q-13 46 -13 100q0 82 33 153t87 123q53 51 125 82q71 30 147 30q50 0 96 -12q45 -12 90 -35l54 91l16 -8l-55 -92q43 -26 77 -60t60 -77q25 -41 40 -91
t15 -102q0 -82 -33 -154q-33 -71 -87 -124q-53 -51 -125 -82q-70 -30 -146 -30zM163 372l-1 -1q0 -100 21 -169t57 -114l352 589q-35 35 -77 50t-87 15q-50 0 -98 -21t-85 -64t-60 -114q-22 -69 -22 -171zM428 -3q52 0 100 21t84 66q37 46 59 116q22 69 22 171
q0 105 -24 176q-25 72 -64 116l-353 -591q36 -39 81 -57t95 -18z" />
    <glyph glyph-name="Ugrave" unicode="&#xd9;" 
d="M359 821l-2 -1q-32 6 -44 20q-12 13 -12 32q0 13 11 26q10 12 29 12q12 0 25 -5t23 -12l144 -93l-5 -13zM410 -14l-1 -2q-79 0 -141 18q-61 18 -105 56q-43 37 -66 95t-23 135v186q0 102 -1 135q-1 49 -6 75q-5 27 -16 35q-12 9 -31 15v13h228v-13q-21 -6 -33 -15
t-18 -35q-5 -23 -7 -75q-1 -33 -1 -135v-213q0 -67 10 -114q10 -49 36 -82q25 -32 69 -49q42 -16 109 -16q60 0 111 14q50 14 84 45q35 32 53 84q18 53 18 131v189q0 102 -1 135q-2 50 -9 77q-8 28 -22 39q-15 12 -41 21v13h151v-13q-21 -9 -33 -21t-18 -39q-5 -24 -7 -76
q-1 -33 -1 -135v-189q0 -78 -20 -135q-20 -56 -57 -90t-91 -49t-120 -15z" />
    <glyph glyph-name="Uacute" unicode="&#xda;" 
d="M334 800l142 92q10 7 23 12t25 5q18 0 29 -12q11 -13 11 -26q0 -17 -12 -31q-11 -13 -44 -19l-169 -34zM410 -14l-1 -2q-79 0 -141 18q-61 18 -105 56q-43 37 -66 95t-23 135v186q0 102 -1 135q-1 49 -6 75q-5 27 -16 35q-12 9 -31 15v13h228v-13q-21 -6 -33 -15t-18 -35
q-5 -23 -7 -75q-1 -33 -1 -135v-213q0 -67 10 -114q10 -49 36 -82q25 -32 69 -49q42 -16 109 -16q60 0 111 14q50 14 84 45q35 32 53 84q18 53 18 131v189q0 102 -1 135q-2 50 -9 77q-8 28 -22 39q-15 12 -41 21v13h151v-13q-21 -9 -33 -21t-18 -39q-5 -24 -7 -76
q-1 -33 -1 -135v-189q0 -78 -20 -135q-20 -56 -57 -90t-91 -49t-120 -15z" />
    <glyph glyph-name="Ucircumflex" unicode="&#xdb;" 
d="M435 917l138 -120l-5 -12l-133 48l-134 -48l-5 12zM412 -13l-1 -2q-79 0 -141 18q-61 18 -105 56q-43 37 -66 95t-23 135v186q0 102 -1 135q-1 50 -6 75q-5 27 -16 35q-12 9 -31 15v13h228v-13q-21 -6 -33 -15t-18 -35q-5 -23 -7 -75q-1 -33 -1 -135v-213q0 -67 10 -114
q10 -49 36 -82q25 -32 69 -49q42 -16 109 -16q60 0 111 14q50 13 84 45q35 32 53 84q18 53 18 131v189q0 102 -1 135q-2 50 -9 77q-8 28 -22 39q-15 12 -41 21v13h151v-13q-21 -9 -33 -21t-18 -39q-5 -24 -7 -76q-1 -33 -1 -135v-189q0 -78 -20 -135q-20 -55 -57 -90
q-37 -34 -91 -49t-120 -15z" />
    <glyph glyph-name="Udieresis" unicode="&#xdc;" 
d="M412 -13l-1 -2q-79 0 -141 18q-61 18 -105 56q-43 37 -66 95t-23 135v186q0 102 -1 135q-1 50 -6 75q-5 27 -16 35q-12 9 -31 15v13h228v-13q-21 -6 -33 -15t-18 -35q-5 -23 -7 -75q-1 -33 -1 -135v-213q0 -67 10 -114q10 -49 36 -82q25 -32 69 -49q42 -16 109 -16
q60 0 111 14q50 13 84 45q35 32 53 84q18 53 18 131v189q0 102 -1 135q-2 50 -9 77q-8 28 -22 39q-15 12 -41 21v13h151v-13q-21 -9 -33 -21t-18 -39q-5 -24 -7 -76q-1 -33 -1 -135v-189q0 -78 -20 -135q-20 -55 -57 -90q-37 -34 -91 -49t-120 -15zM536 790q-24 0 -39 16
t-15 42q0 23 15 38t39 15q23 0 38 -15t15 -38q0 -26 -15 -42t-38 -16zM327 790q-23 0 -38 16t-15 42q0 23 15 38t38 15t40 -15q16 -15 16 -38q0 -26 -16 -42t-40 -16z" />
    <glyph glyph-name="Yacute" unicode="&#xdd;" horiz-adv-x="732" 
d="M252 13h-2q20 7 33 17q12 9 18 35q5 23 7 75q2 66 2 133v80l-189 283q-15 23 -25 37q-12 17 -22 28q-10 12 -24 21t-30 15v13h229v-13q-26 -6 -32 -24t22 -60l178 -266l162 238q36 53 36 78q0 26 -39 35v13h136v-13q-13 -5 -22 -10q-10 -6 -24 -18t-30 -33t-39 -54
l-173 -256v-95q0 -67 2 -133q1 -47 8 -75q6 -26 18 -35q11 -8 33 -16v-13h-233v13zM321 800l142 92q10 7 23 12t25 5q19 0 29 -12q11 -13 11 -26q0 -17 -12 -31q-11 -13 -44 -19l-169 -34z" />
    <glyph glyph-name="Thorn" unicode="&#xde;" horiz-adv-x="659" 
d="M24 13l-3 -2q20 7 33 17q12 9 18 35q5 23 7 75q2 66 2 133v204q0 102 -1 135q-2 52 -7 76q-6 27 -18 36t-33 15v13h234v-13q-18 -5 -27 -10q-11 -6 -18 -19q-7 -12 -10 -37q-2 -18 -4 -63h128q72 0 126 -10q58 -11 98 -33t63 -59t23 -88q0 -56 -24 -96t-64 -67
q-39 -26 -96 -40q-53 -13 -122 -13h-133q2 -67 4 -94q3 -34 9 -54t18 -27q14 -9 31 -14v-13h-234v13zM325 217l-2 -2q44 0 78 10q36 11 63 33q27 23 42 58q15 36 15 87q0 57 -16 92q-17 37 -43 57q-28 22 -63 29q-38 8 -76 8h-127q-1 -15 -1 -51v-63v-258h130z" />
    <glyph glyph-name="germandbls" unicode="&#xdf;" horiz-adv-x="606" 
d="M179 165l-13 -3q0 -54 1 -72q1 -26 6 -43t13 -24t24 -13v-13h-189v13q18 7 26 13q10 8 14 24t6 44q1 18 1 72v291h-61v14q20 5 30 10q13 7 20 16q7 10 10 27t3 42q0 52 21 91q21 38 54 64q33 25 74 39q39 13 81 13t79 -9t65 -26t44 -39t16 -50q0 -27 -12 -48
q-11 -20 -32 -39q-19 -17 -43 -34t-45 -33q-30 -24 -42 -42t-12 -41q0 -17 9 -30q8 -12 24 -25q13 -11 36 -22q12 -6 46 -22q66 -32 104 -69q39 -37 39 -96q0 -37 -15 -66t-40 -48q-26 -20 -55 -30t-60 -10q-23 0 -43 5q-21 5 -33 10q-4 1 -9 3.5t-9 4t-7 2.5q-12 5 -18 5
t-10 -4q-5 -5 -6 -10h-16v117h15q14 -52 48 -83q35 -32 90 -32q46 0 71 27q26 28 26 69q0 24 -7 39q-8 17 -22 30q-16 14 -37 27q-24 14 -52 27q-59 28 -93 59q-33 30 -33 75q0 24 9 43q8 18 23 36q13 17 30 30l33 27q33 26 53 57q21 31 21 81q0 56 -31 87q-32 32 -90 32
t-94 -33t-36 -109v-448z" />
    <glyph glyph-name="agrave" unicode="&#xe0;" horiz-adv-x="489" 
d="M165 -9v-2q-61 0 -99 29q-37 28 -37 83q0 29 12 48q12 20 35 35q23 16 52 27q36 14 65 27l54 22q37 16 54 35t17 41v59q0 38 -24 53t-62 15q-19 0 -31 -3t-21 -9t-15 -15q-8 -12 -12 -19q-11 -19 -22 -30q-12 -12 -31 -12t-30 11t-11 26q0 17 13 30q14 14 36 21t54 12
q35 5 69 5q29 0 66 -5q33 -5 60 -18q28 -14 44 -37q17 -25 17 -61v-240q0 -27 2 -55q1 -20 6 -31t12 -14q8 -3 20 -3q8 0 15 3q10 4 15 7l6 -12q-9 -5 -25 -12q-19 -8 -47 -8q-54 0 -77 21q-23 22 -26 57l-22 -20q-11 -10 -24 -21q-11 -9 -30 -19q-17 -9 -36 -15t-42 -6z
M130 113h-3q0 -49 18 -72q18 -22 50 -22q29 0 54 17q21 15 43 33l23 21v200q-7 -9 -24 -22q-17 -12 -45 -24l-37 -15q-43 -18 -61 -43q-18 -26 -18 -73zM157 617l1 1q-16 9 -27 21q-10 11 -10 29q0 17 10 27q11 11 30 11q17 0 27 -10t24 -30l95 -131l-10 -10z" />
    <glyph glyph-name="aacute" unicode="&#xe1;" horiz-adv-x="489" 
d="M165 -9v-2q-61 0 -99 29q-37 28 -37 83q0 29 12 48q12 20 35 35q23 16 52 27q36 14 65 27l54 22q37 16 54 35t17 41v59q0 38 -24 53t-62 15q-19 0 -31 -3t-21 -9t-15 -15q-8 -12 -12 -19q-11 -19 -22 -30q-12 -12 -31 -12t-30 11t-11 26q0 17 13 30q14 14 36 21t54 12
q35 5 69 5q29 0 66 -5q33 -5 60 -18q28 -14 44 -37q17 -25 17 -61v-240q0 -27 2 -55q1 -20 6 -31t12 -14q8 -3 20 -3q8 0 15 3q10 4 15 7l6 -12q-9 -5 -25 -12q-19 -8 -47 -8q-54 0 -77 21q-23 22 -26 57l-22 -20q-11 -10 -24 -21q-11 -9 -30 -19q-17 -9 -36 -15t-42 -6z
M130 113h-3q0 -49 18 -72q18 -22 50 -22q29 0 54 17q21 15 43 33l23 21v200q-7 -9 -24 -22q-17 -12 -45 -24l-37 -15q-43 -18 -61 -43q-18 -26 -18 -73zM177 535l94 129q13 18 26 30q11 10 29 10t27 -10t9 -27q0 -18 -10 -29q-11 -13 -25 -21l-140 -92z" />
    <glyph glyph-name="acircumflex" unicode="&#xe2;" horiz-adv-x="489" 
d="M165 -9v-2q-61 0 -99 29q-37 28 -37 83q0 29 12 48q12 20 35 35q23 16 52 27q36 14 65 27l54 22q37 16 54 35t17 41v59q0 38 -24 53t-62 15q-19 0 -31 -3t-21 -9t-15 -15q-8 -12 -12 -19q-11 -19 -22 -30q-12 -12 -31 -12t-30 11t-11 26q0 17 13 30q14 14 36 21t54 12
q35 5 69 5q29 0 66 -5q33 -5 60 -18q28 -14 44 -37q17 -25 17 -61v-240q0 -27 2 -55q1 -20 6 -31t12 -14q8 -3 20 -3q8 0 15 3q10 4 15 7l6 -12q-9 -5 -25 -12q-19 -8 -47 -8q-54 0 -77 21q-23 22 -26 57l-22 -20q-11 -10 -24 -21q-11 -9 -30 -19q-17 -9 -36 -15t-42 -6z
M130 113h-3q0 -49 18 -72q18 -22 50 -22q29 0 54 17q21 15 43 33l23 21v200q-7 -9 -24 -22q-17 -12 -45 -24l-37 -15q-43 -18 -61 -43q-18 -26 -18 -73zM236 708l126 -175l-11 -9l-115 83l-114 -83l-11 9z" />
    <glyph glyph-name="atilde" unicode="&#xe3;" horiz-adv-x="489" 
d="M165 -9v-2q-61 0 -99 29q-37 28 -37 83q0 29 12 48q12 20 35 35q23 16 52 27q36 14 65 27l54 22q37 16 54 35t17 41v59q0 38 -24 53t-62 15q-19 0 -31 -3t-21 -9t-15 -15q-8 -12 -12 -19q-11 -19 -22 -30q-12 -12 -31 -12t-30 11t-11 26q0 17 13 30q14 14 36 21t54 12
q35 5 69 5q29 0 66 -5q33 -5 60 -18q28 -14 44 -37q17 -25 17 -61v-240q0 -27 2 -55q1 -20 6 -31t12 -14q8 -3 20 -3q8 0 15 3q10 4 15 7l6 -12q-9 -5 -25 -12q-19 -8 -47 -8q-54 0 -77 21q-23 22 -26 57l-22 -20q-11 -10 -24 -21q-11 -9 -30 -19q-17 -9 -36 -15t-42 -6z
M130 113h-3q0 -49 18 -72q18 -22 50 -22q29 0 54 17q21 15 43 33l23 21v200q-7 -9 -24 -22q-17 -12 -45 -24l-37 -15q-43 -18 -61 -43q-18 -26 -18 -73zM195 648h-1q29 0 58 -7t54 -7q10 0 24 9q15 10 29 37l12 -6q-11 -46 -30 -75q-19 -28 -47 -28q-26 0 -56 6t-56 6
q-11 0 -25 -8q-12 -7 -31 -38l-12 6q16 51 36 78t45 27z" />
    <glyph glyph-name="adieresis" unicode="&#xe4;" horiz-adv-x="489" 
d="M165 -9v-2q-61 0 -99 29q-37 28 -37 83q0 29 12 48q12 20 35 35q23 16 52 27q36 14 65 27l54 22q37 16 54 35t17 41v59q0 38 -24 53t-62 15q-19 0 -31 -3t-21 -9t-15 -15q-8 -12 -12 -19q-11 -19 -22 -30q-12 -12 -31 -12t-30 11t-11 26q0 17 13 30q14 14 36 21t54 12
q35 5 69 5q29 0 66 -5q33 -5 60 -18q28 -14 44 -37q17 -25 17 -61v-240q0 -27 2 -55q1 -20 6 -31t12 -14q8 -3 20 -3q8 0 15 3q10 4 15 7l6 -12q-9 -5 -25 -12q-19 -8 -47 -8q-54 0 -77 21q-23 22 -26 57l-22 -20q-11 -10 -24 -21q-11 -9 -30 -19q-17 -9 -36 -15t-42 -6z
M130 113h-3q0 -49 18 -72q18 -22 50 -22q29 0 54 17q21 15 43 33l23 21v200q-7 -9 -24 -22q-17 -12 -45 -24l-37 -15q-43 -18 -61 -43q-18 -26 -18 -73zM326 559q-24 0 -40 16t-16 42q0 23 16 38t40 15q22 0 39 -15q16 -15 16 -38q0 -26 -16 -42t-39 -16zM142 559
q-23 0 -38 16q-15 17 -15 42q0 23 15 38t38 15q24 0 40 -15t16 -38q0 -26 -16 -42t-40 -16z" />
    <glyph glyph-name="aring" unicode="&#xe5;" horiz-adv-x="489" 
d="M165 -9v-2q-61 0 -99 29q-37 28 -37 83q0 29 12 48q12 20 35 35q23 16 52 27q36 14 65 27l54 22q37 16 54 35t17 41v59q0 38 -24 53t-62 15q-19 0 -31 -3t-21 -9t-15 -15q-8 -12 -12 -19q-11 -19 -22 -30q-12 -12 -31 -12t-30 11t-11 26q0 17 13 30q14 14 36 21t54 12
q35 5 69 5q29 0 66 -5q33 -5 60 -18q28 -14 44 -37q17 -25 17 -61v-240q0 -27 2 -55q1 -20 6 -31t12 -14q8 -3 20 -3q8 0 15 3q10 4 15 7l6 -12q-9 -5 -25 -12q-19 -8 -47 -8q-54 0 -77 21q-23 22 -26 57l-22 -20q-11 -10 -24 -21q-11 -9 -30 -19q-17 -9 -36 -15t-42 -6z
M130 113h-3q0 -49 18 -72q18 -22 50 -22q29 0 54 17q21 15 43 33l23 21v200q-7 -9 -24 -22q-17 -12 -45 -24l-37 -15q-43 -18 -61 -43q-18 -26 -18 -73zM150 608l-1 -1q0 37 26 60t60 23q35 0 60 -22q26 -23 26 -60q0 -38 -25 -60t-61 -22q-35 0 -60 22t-25 60zM189 607
q0 -65 46 -65t46 65q0 31 -12 49t-34 18t-34 -18t-12 -49z" />
    <glyph glyph-name="ae" unicode="&#xe6;" horiz-adv-x="792" 
d="M169 -9h-4q-62 0 -102 29q-39 28 -39 83q0 29 12 48q12 20 35 35q23 16 52 27q36 14 65 27l54 22q39 17 56 35q17 19 17 41v58q0 41 -24 56t-62 15q-19 0 -31 -3t-21 -9t-15 -15q-8 -12 -12 -19q-10 -17 -23 -30q-12 -12 -33 -12q-19 0 -30 11q-10 10 -10 26q0 17 13 30
q13 14 36 21t54 12q35 5 69 5q26 0 51 -3q28 -3 48 -10t40 -20q18 -12 29 -32q38 35 81 51q45 17 81 17q42 0 76 -10q37 -11 63 -31q28 -21 45 -52q17 -30 22 -72h-335q-7 -32 -7 -82q0 -57 14 -101q13 -41 38 -69q24 -27 59 -39t75 -12q46 0 80 14t59 36l10 -12
q-29 -29 -72 -48q-42 -19 -109 -19q-32 0 -63 6q-30 6 -60 20q-27 13 -54 35q-24 20 -43 50l-44 -41q-30 -27 -63 -48t-78 -21zM556 470v-1q-40 0 -75 -31q-36 -31 -52 -100h234q-4 71 -32 102q-27 30 -75 30zM126 115l-5 -1q0 -50 19 -72q20 -23 51 -23q29 0 57 17
q27 16 54 42l37 34q-13 25 -21 56q-7 28 -7 68v54q-7 -9 -24 -22q-17 -12 -45 -24l-37 -15q-43 -18 -61 -42t-18 -72z" />
    <glyph glyph-name="ccedilla" unicode="&#xe7;" horiz-adv-x="490" 
d="M287 -10q-53 0 -99 18t-81 51q-34 32 -55 78q-21 45 -21 99q0 58 24 105q25 48 61 80q38 34 84 50q48 17 93 17q35 0 67 -6q33 -6 54 -16q23 -11 36 -25t13 -33q0 -17 -12 -29t-33 -12q-15 0 -25 5q-9 4 -15 14q-5 7 -10 21q-3 8 -9 26q-9 22 -21 31t-43 9q-28 0 -55 -10
q-28 -11 -51 -36q-22 -25 -37 -67t-15 -105t12 -108q12 -43 35 -73q22 -28 56 -42q32 -13 75 -13q46 0 82 17q34 16 61 45l12 -12q-30 -35 -75 -57q-44 -22 -108 -22zM271 0l-32 -49q38 -7 64 -27q25 -19 25 -45q0 -40 -41 -60q-41 -19 -123 -24l-1 15q98 11 98 46
q0 18 -18 27q-19 10 -52 11l-4 7l62 99h22z" />
    <glyph glyph-name="egrave" unicode="&#xe8;" horiz-adv-x="506" 
d="M290 -11l2 1q-46 0 -93 15t-84 45t-60 77q-23 48 -23 111q0 62 24 108t60 78q37 32 78 47q42 15 78 15q42 0 76 -10q37 -11 63 -31q28 -21 45 -52q17 -30 22 -72h-335q-7 -32 -7 -82q0 -57 14 -101q13 -41 38 -69q24 -27 59 -39t75 -12q46 0 80 14t59 36l10 -12
q-29 -28 -72 -48q-42 -19 -109 -19zM276 471v-1q-40 0 -75 -31q-36 -31 -52 -100h234q-4 71 -32 102q-27 30 -75 30zM213 619l1 1q-16 9 -27 21q-10 11 -10 29q0 17 10 27q11 11 30 11q17 0 27 -10t24 -30l95 -131l-10 -10z" />
    <glyph glyph-name="eacute" unicode="&#xe9;" horiz-adv-x="506" 
d="M227 537l94 129q13 18 26 30q11 10 29 10t27 -10t9 -27q0 -18 -10 -29q-11 -13 -25 -21l-140 -92zM290 -13l2 1q-46 0 -93 15t-84 45t-60 77q-23 48 -23 111q0 62 24 108t60 78q37 32 78 47q42 15 78 15q42 0 76 -10q37 -11 63 -31q28 -21 45 -52q17 -30 22 -72h-335
q-7 -32 -7 -82q0 -57 14 -101q13 -41 38 -69q24 -27 59 -39t75 -12q46 0 80 14t59 36l10 -12q-29 -28 -72 -48q-42 -19 -109 -19zM276 469v-1q-40 0 -75 -31q-36 -31 -52 -100h234q-4 71 -32 102q-27 30 -75 30z" />
    <glyph glyph-name="ecircumflex" unicode="&#xea;" horiz-adv-x="506" 
d="M285 710l126 -175l-11 -9l-115 83l-114 -83l-11 9zM290 -11l2 1q-46 0 -93 15t-84 45t-60 77q-23 48 -23 111q0 62 24 108t60 78q37 32 78 47q42 15 78 15q42 0 76 -10q37 -11 63 -31q28 -21 45 -52q17 -30 22 -72h-335q-7 -32 -7 -82q0 -57 14 -101q13 -41 38 -69
q24 -27 59 -39t75 -12q46 0 80 14t59 36l10 -12q-29 -28 -72 -48q-42 -19 -109 -19zM276 471v-1q-40 0 -75 -31q-36 -31 -52 -100h234q-4 71 -32 102q-27 30 -75 30z" />
    <glyph glyph-name="edieresis" unicode="&#xeb;" horiz-adv-x="506" 
d="M377 561q-24 0 -40 16t-16 42q0 23 16 38q17 15 40 15t39 -15t16 -38q0 -26 -16 -42t-39 -16zM193 561q-23 0 -38 16q-15 17 -15 42q0 23 15 38t38 15t40 -15q16 -15 16 -38q0 -26 -16 -42t-40 -16zM290 -11l2 1q-46 0 -93 15t-84 45t-60 77q-23 48 -23 111q0 62 24 108
t60 78q37 32 78 47q42 15 78 15q42 0 76 -10q37 -11 63 -31q28 -21 45 -52q17 -30 22 -72h-335q-7 -32 -7 -82q0 -57 14 -101q13 -41 38 -69q24 -27 59 -39t75 -12q46 0 80 14t59 36l10 -12q-29 -28 -72 -48q-42 -19 -109 -19zM276 471v-1q-40 0 -75 -31q-36 -31 -52 -100
h234q-4 71 -32 102q-27 30 -75 30z" />
    <glyph glyph-name="igrave" unicode="&#xec;" horiz-adv-x="254" 
d="M23 13v-3q21 6 30 13q11 7 15 24q4 16 6 44q1 18 1 72v106q0 51 -1 67q-2 24 -6 36q-5 13 -15 17q-12 5 -30 8v15l154 74v-321q0 -54 1 -72q1 -26 6 -43q4 -16 15 -24q9 -7 30 -13v-13h-206v13zM53 616l1 1q-16 9 -27 21q-10 11 -10 29q0 17 10 27q11 11 30 11
q17 0 27 -10q10 -11 24 -30l95 -131l-10 -10z" />
    <glyph glyph-name="iacute" unicode="&#xed;" horiz-adv-x="254" 
d="M69 537l94 129q13 18 26 30q11 10 29 10t27 -10t9 -27q0 -18 -10 -29q-11 -13 -25 -21l-140 -92zM23 11v-3q21 6 30 13q11 7 15 24q4 16 6 44q1 18 1 72v106q0 51 -1 67q-2 24 -6 36q-5 13 -15 17q-12 5 -30 8v15l154 74v-321q0 -54 1 -72q1 -26 6 -43q4 -16 15 -24
q9 -7 30 -13v-13h-206v13z" />
    <glyph glyph-name="icircumflex" unicode="&#xee;" horiz-adv-x="254" 
d="M126 710l126 -175l-11 -9l-115 83l-114 -83l-11 9zM23 13v-3q21 6 30 13q11 7 15 24q4 16 6 44q1 18 1 72v106q0 51 -1 67q-2 24 -6 36q-5 13 -15 17q-12 5 -30 8v15l154 74v-321q0 -54 1 -72q1 -26 6 -43q4 -16 15 -24q9 -7 30 -13v-13h-206v13z" />
    <glyph glyph-name="idieresis" unicode="&#xef;" horiz-adv-x="254" 
d="M201 561q-24 0 -40 16t-16 42q0 23 16 38q17 15 40 15t39 -15t16 -38q0 -26 -16 -42t-39 -16zM47 561q-23 0 -39 16t-16 42q0 23 16 38t39 15t40 -15q16 -15 16 -38q0 -26 -16 -42t-40 -16zM23 13v-3q21 6 30 13q11 7 15 24q4 16 6 44q1 18 1 72v106q0 51 -1 67
q-2 24 -6 36q-5 13 -15 17q-12 5 -30 8v15l154 74v-321q0 -54 1 -72q1 -26 6 -43q4 -16 15 -24q9 -7 30 -13v-13h-206v13z" />
    <glyph glyph-name="eth" unicode="&#xf0;" horiz-adv-x="574" 
d="M166 594l127 54q-73 73 -168 112l9 10q60 -20 115 -47q51 -25 93 -54l147 62l7 -15l-138 -58q51 -39 86 -83q36 -46 56 -91q21 -48 30 -97t9 -101q0 -76 -25 -130q-26 -56 -63 -93q-36 -36 -83 -55q-45 -18 -85 -18q-41 0 -86 15q-43 14 -82 47q-37 32 -63 78
q-25 46 -25 108t25 108q26 46 63 78q37 31 83 48q44 16 86 16q32 0 66 -9q33 -9 66 -29q-16 54 -44 102q-27 46 -63 84l-137 -57zM283 4l-2 -1q32 0 59 12q28 12 47 39q20 28 32 72q12 45 12 109q0 62 -12 107t-31 73t-47 42q-26 13 -59 13t-59 -13q-28 -14 -47 -42t-31 -73
t-12 -106q0 -64 12 -109q12 -44 32 -72q19 -27 47 -39q27 -12 59 -12z" />
    <glyph glyph-name="ntilde" unicode="&#xf1;" horiz-adv-x="583" 
d="M27 13l-2 -4q18 7 26 13q10 8 14 24t6 44q1 18 1 72v106q0 51 -1 67q-1 24 -6 36q-4 11 -15 16q-10 5 -30 9v15l153 74v-127l43 40q23 20 33 29q17 14 38 27t42 20q24 8 48 8q31 0 53 -7q25 -8 42 -22t28 -41q10 -24 10 -63v-185v-72q0 -25 5 -43q4 -16 14 -24
q8 -6 26 -13v-13h-197v13q20 7 29 13q11 7 15 24q4 16 6 44q1 18 1 72v217q0 37 -17 54t-48 17t-61 -21t-67 -55l-43 -39v-173q0 -54 1 -72q1 -26 6 -43q4 -16 15 -24q9 -6 29 -13v-13h-197v13zM250 646h-1q29 0 58 -7t54 -7q11 0 24 9q15 10 29 37l12 -6q-10 -46 -30 -75
q-19 -28 -47 -28q-26 0 -56 6t-56 6q-11 0 -25 -8q-12 -7 -31 -38l-12 6q17 51 36 78t45 27z" />
    <glyph glyph-name="ograve" unicode="&#xf2;" horiz-adv-x="574" 
d="M287 -11h-2q-41 0 -86 15q-43 14 -82 47q-37 31 -63 78q-25 46 -25 108t25 108q26 47 63 78t83 48q44 16 86 16t86 -16q46 -17 83 -48t63 -78q25 -46 25 -108t-25 -108q-26 -47 -63 -78q-38 -32 -83 -47t-85 -15zM285 5l-2 -1q32 0 59 12q28 12 47 39q20 28 32 72
q12 45 12 109q0 62 -12 107t-31 73t-47 42q-26 13 -59 13t-59 -13q-28 -14 -47 -42t-31 -73t-12 -106q0 -64 12 -109q12 -44 32 -72q19 -27 47 -39q27 -12 59 -12zM210 618l1 1q-17 9 -27 21q-10 11 -10 29q0 17 10 27q11 11 30 11q17 0 27 -10q11 -11 24 -30l95 -131
l-10 -10z" />
    <glyph glyph-name="oacute" unicode="&#xf3;" horiz-adv-x="574" 
d="M230 537l94 129q13 18 26 30q11 10 29 10t27 -10t9 -27q0 -18 -10 -29q-11 -13 -25 -21l-140 -92zM287 -13h-2q-41 0 -86 15q-43 14 -82 47q-37 31 -63 78q-25 46 -25 108t25 108q26 47 63 78t83 48q44 16 86 16t86 -16q46 -17 83 -48t63 -78q25 -46 25 -108t-25 -108
q-26 -47 -63 -78q-38 -32 -83 -47t-85 -15zM285 3l-2 -1q32 0 59 12q28 12 47 39q20 28 32 72q12 45 12 109q0 62 -12 107t-31 73t-47 42q-26 13 -59 13t-59 -13q-28 -14 -47 -42t-31 -73t-12 -106q0 -64 12 -109q12 -44 32 -72q19 -27 47 -39q27 -12 59 -12z" />
    <glyph glyph-name="ocircumflex" unicode="&#xf4;" horiz-adv-x="574" 
d="M287 710l126 -175l-11 -9l-115 83l-114 -83l-11 9zM287 -11h-2q-41 0 -86 15q-43 14 -82 47q-37 31 -63 78q-25 46 -25 108t25 108q26 47 63 78t83 48q44 16 86 16t86 -16q46 -17 83 -48t63 -78q25 -46 25 -108t-25 -108q-26 -47 -63 -78q-38 -32 -83 -47t-85 -15zM285 5
l-2 -1q32 0 59 12q28 12 47 39q20 28 32 72q12 45 12 109q0 62 -12 107t-31 73t-47 42q-26 13 -59 13t-59 -13q-28 -14 -47 -42t-31 -73t-12 -106q0 -64 12 -109q12 -44 32 -72q19 -27 47 -39q27 -12 59 -12z" />
    <glyph glyph-name="otilde" unicode="&#xf5;" horiz-adv-x="574" 
d="M287 -11h-2q-41 0 -86 15q-43 14 -82 47q-37 31 -63 78q-25 46 -25 108t25 108q26 47 63 78t83 48q44 16 86 16t86 -16q46 -17 83 -48t63 -78q25 -46 25 -108t-25 -108q-26 -47 -63 -78q-38 -32 -83 -47t-85 -15zM285 5l-2 -1q32 0 59 12q28 12 47 39q20 28 32 72
q12 45 12 109q0 62 -12 107t-31 73t-47 42q-26 13 -59 13t-59 -13q-28 -14 -47 -42t-31 -73t-12 -106q0 -64 12 -109q12 -44 32 -72q19 -27 47 -39q27 -12 59 -12zM239 649h-1q29 0 58 -7t54 -7q10 0 24 9q15 10 29 37l12 -6q-11 -47 -30 -75t-47 -28q-26 0 -56 6t-56 6
q-11 0 -25 -8q-12 -7 -31 -38l-12 6q16 51 36 78t45 27z" />
    <glyph glyph-name="odieresis" unicode="&#xf6;" horiz-adv-x="574" 
d="M379 561q-24 0 -40 16t-16 42q0 23 16 38q17 15 40 15t39 -15t16 -38q0 -26 -16 -42t-39 -16zM195 561q-23 0 -38 16q-15 17 -15 42q0 23 15 38t38 15t40 -15q16 -15 16 -38q0 -26 -16 -42t-40 -16zM287 -11h-2q-41 0 -86 15q-43 14 -82 47q-37 31 -63 78q-25 46 -25 108
t25 108q26 47 63 78t83 48q44 16 86 16t86 -16q46 -17 83 -48t63 -78q25 -46 25 -108t-25 -108q-26 -47 -63 -78q-38 -32 -83 -47t-85 -15zM285 5l-2 -1q32 0 59 12q28 12 47 39q20 28 32 72q12 45 12 109q0 62 -12 107t-31 73t-47 42q-26 13 -59 13t-59 -13
q-28 -14 -47 -42t-31 -73t-12 -106q0 -64 12 -109q12 -44 32 -72q19 -27 47 -39q27 -12 59 -12z" />
    <glyph glyph-name="divide" unicode="&#xf7;" horiz-adv-x="543" 
d="M215 507q0 24 17 41t41 17q23 0 42 -17q18 -16 18 -41q0 -24 -18 -42t-42 -18q-25 0 -41 18q-17 19 -17 42zM54 361h437v-20h-437v20zM215 193q0 23 17 42q16 18 41 18q24 0 42 -18t18 -42q0 -25 -18 -41q-19 -17 -42 -17q-24 0 -41 17t-17 41z" />
    <glyph glyph-name="oslash" unicode="&#xf8;" horiz-adv-x="574" 
d="M392 419l-3 3q-20 27 -46 39q-27 12 -58 12q-33 0 -59 -13q-28 -14 -47 -42t-31 -73t-12 -106q0 -55 9 -96q9 -42 25 -69zM103 -56l-15 8l53 82q-49 32 -81 82q-33 51 -33 123q0 62 25 108q26 47 63 78t83 48q44 16 86 16q30 0 63 -9q30 -8 64 -26l47 73l15 -9l-47 -73
q49 -32 81 -82q33 -51 33 -123q0 -62 -25 -108t-63 -78t-83 -47t-85 -15q-30 0 -63 9q-32 9 -65 26zM400 404l-222 -346q19 -27 47 -39q27 -12 59 -12t59 12q28 12 47 39q20 28 32 72q12 45 12 109q0 55 -9 96q-9 42 -25 69z" />
    <glyph glyph-name="ugrave" unicode="&#xf9;" horiz-adv-x="568" 
d="M203 -9l1 -6q-30 0 -52 7q-24 8 -42 24q-17 16 -28 42q-10 24 -10 61v154q0 48 -1 63q-1 22 -6 34q-4 11 -15 16q-10 4 -30 9v15l153 74v-389q0 -41 17 -60q16 -18 47 -18q29 0 60 19q33 20 75 61l22 20v157q0 48 -1 63q-1 22 -6 34q-4 11 -15 16q-10 5 -30 9v15l154 74
v-321q0 -54 1 -72q1 -26 6 -43t15 -24q9 -7 30 -13v-13h-155v98l-22 -20q-37 -35 -78 -60q-41 -26 -90 -26zM223 613l1 1q-16 9 -27 21q-10 11 -10 29q0 17 10 27q11 11 30 11q17 0 27 -10t24 -30l95 -131l-10 -10z" />
    <glyph glyph-name="uacute" unicode="&#xfa;" horiz-adv-x="568" 
d="M238 537l94 129q13 18 26 30q11 10 29 10t27 -10t9 -27q0 -18 -10 -29q-11 -13 -25 -21l-140 -92zM203 -11l1 -6q-30 0 -52 7q-24 8 -42 24q-17 16 -28 42q-10 24 -10 61v154q0 48 -1 63q-1 22 -6 34q-4 11 -15 16q-10 4 -30 9v15l153 74v-389q0 -41 17 -60
q16 -18 47 -18q29 0 60 19q33 20 75 61l22 20v157q0 48 -1 63q-1 22 -6 34q-4 11 -15 16q-10 5 -30 9v15l154 74v-321q0 -54 1 -72q1 -26 6 -43t15 -24q9 -7 30 -13v-13h-155v98l-22 -20q-37 -35 -78 -60q-41 -26 -90 -26z" />
    <glyph glyph-name="ucircumflex" unicode="&#xfb;" horiz-adv-x="568" 
d="M296 710l126 -175l-11 -9l-115 83l-114 -83l-11 9zM203 -9l1 -6q-30 0 -52 7q-24 8 -42 24q-17 16 -28 42q-10 24 -10 61v154q0 48 -1 63q-1 22 -6 34q-4 11 -15 16q-10 4 -30 9v15l153 74v-389q0 -41 17 -60q16 -18 47 -18q29 0 60 19q33 20 75 61l22 20v157q0 48 -1 63
q-1 22 -6 34q-4 11 -15 16q-10 5 -30 9v15l154 74v-321q0 -54 1 -72q1 -26 6 -43t15 -24q9 -7 30 -13v-13h-155v98l-22 -20q-37 -35 -78 -60q-41 -26 -90 -26z" />
    <glyph glyph-name="udieresis" unicode="&#xfc;" horiz-adv-x="568" 
d="M388 561q-24 0 -40 16t-16 42q0 23 16 38t40 15q22 0 39 -15q16 -15 16 -38q0 -26 -16 -42t-39 -16zM204 561q-23 0 -38 16q-15 17 -15 42q0 23 15 38t38 15q24 0 40 -15t16 -38q0 -26 -16 -42t-40 -16zM203 -9l1 -6q-30 0 -52 7q-24 8 -42 24q-17 16 -28 42
q-10 24 -10 61v154q0 48 -1 63q-1 22 -6 34q-4 11 -15 16q-10 4 -30 9v15l153 74v-389q0 -41 17 -60q16 -18 47 -18q29 0 60 19q33 20 75 61l22 20v157q0 48 -1 63q-1 22 -6 34q-4 11 -15 16q-10 5 -30 9v15l154 74v-321q0 -54 1 -72q1 -26 6 -43t15 -24q9 -7 30 -13v-13
h-155v98l-22 -20q-37 -35 -78 -60q-41 -26 -90 -26z" />
    <glyph glyph-name="yacute" unicode="&#xfd;" horiz-adv-x="507" 
d="M118 -165l4 2q-28 0 -42 12q-13 12 -13 30t10 27q11 9 27 9q12 0 20 -4q12 -6 17 -9l15 -9q7 -4 15 -4q7 0 14 3q8 3 17 14q9 10 21 30t27 51l1 2l-171 369q-19 40 -25 51q-11 19 -18 30t-15 15q-6 4 -16 7v13h184v-13q-11 -1 -19 -6q-7 -5 -9 -15q-2 -11 3 -29t18 -48
l119 -257l105 233q16 39 21 62q4 23 0 36t-15 18q-12 5 -26 8v13h118v-13q-8 -1 -16 -6q-7 -4 -16 -18q-10 -15 -21 -37q-12 -24 -30 -63l-157 -349q-17 -38 -38 -73q-18 -30 -36 -48q-19 -19 -36 -26q-19 -8 -37 -8zM237 539l94 129q13 18 26 30q11 10 29 10t27 -10t9 -27
q0 -18 -10 -29q-11 -13 -25 -21l-140 -92z" />
    <glyph glyph-name="thorn" unicode="&#xfe;" horiz-adv-x="601" 
d="M26 -147l1 -3q18 7 26 13q10 8 14 24t6 44q1 18 1 72v565q0 48 -1 64q-1 24 -6 36q-4 11 -15 16t-28 6v16l150 75v-406l12 13q12 12 38 36q17 15 41 31q20 13 44 21t48 8q39 0 78 -14q37 -14 66 -42q29 -29 47 -74t18 -106q0 -65 -21 -113q-22 -50 -55 -80
q-35 -32 -79 -48t-94 -16q-38 0 -74 12q-37 12 -71 42v-40q0 -54 1 -72q1 -26 6 -43q5 -16 15 -24q10 -7 28 -13v-13h-196v13zM174 351l-2 -292q38 -33 72 -45t72 -12q28 0 53 12t46 39t33 70t12 108q0 73 -10 114q-11 44 -27 68q-17 24 -39 33t-45 9q-43 0 -78 -24
q-36 -25 -75 -67z" />
    <glyph glyph-name="ydieresis" unicode="&#xff;" horiz-adv-x="507" 
d="M118 -165l4 2q-28 0 -42 12q-13 12 -13 30t10 27q11 9 27 9q12 0 20 -4q12 -6 17 -9l15 -9q7 -4 15 -4q7 0 14 3q8 3 17 14q9 10 21 30t27 51l1 2l-171 369q-19 40 -25 51q-11 19 -18 30t-15 15q-6 4 -16 7v13h184v-13q-11 -1 -19 -6q-7 -5 -9 -15q-2 -11 3 -29t18 -48
l119 -257l105 233q16 39 21 62q4 23 0 36t-15 18q-12 5 -26 8v13h118v-13q-8 -1 -16 -6q-7 -4 -16 -18q-10 -15 -21 -37q-12 -24 -30 -63l-157 -349q-17 -38 -38 -73q-18 -30 -36 -48q-19 -19 -36 -26q-19 -8 -37 -8zM380 563q-24 0 -40 16t-16 42q0 23 16 38t40 15
q22 0 39 -15q16 -15 16 -38q0 -26 -16 -42t-39 -16zM196 563q-23 0 -38 16q-15 17 -15 42q0 23 15 38t38 15q24 0 40 -15t16 -38q0 -26 -16 -42t-40 -16z" />
    <glyph glyph-name="Amacron" unicode="&#x100;" horiz-adv-x="813" 
d="M19 13l-5 -1q11 4 23 11q10 6 21 20q10 13 24 36q11 19 28 59l231 538q-7 16 -15 27q-8 12 -15 17q-7 6 -17 9q-12 4 -19 6v13h136q11 0 15 -4q5 -5 11 -18l264 -600q7 -16 20 -42q9 -18 20 -32q12 -16 22 -23q12 -9 28 -15v-15h-221v15q34 6 39 27q4 21 -18 73l-51 116
h-368l-39 -91q-7 -19 -12 -39t-3 -36q2 -17 13 -30q12 -14 37 -21v-13h-149v13zM530 245l-178 409l-176 -409h354zM479 810h-236v47h236v-47z" />
    <glyph glyph-name="amacron" unicode="&#x101;" horiz-adv-x="489" 
d="M165 -9v-2q-61 0 -99 29q-37 28 -37 83q0 29 12 48q12 20 35 35q23 16 52 27q36 14 65 27l54 22q37 16 54 35t17 41v59q0 38 -24 53t-62 15q-19 0 -31 -3t-21 -9t-15 -15q-8 -12 -12 -19q-11 -19 -22 -30q-12 -12 -31 -12t-30 11t-11 26q0 17 13 30q14 14 36 21t54 12
q35 5 69 5q29 0 66 -5q33 -5 60 -18q28 -14 44 -37q17 -25 17 -61v-240q0 -27 2 -55q1 -20 6 -31t12 -14q8 -3 20 -3q8 0 15 3q10 4 15 7l6 -12q-9 -5 -25 -12q-19 -8 -47 -8q-54 0 -77 21q-23 22 -26 57l-22 -20q-11 -10 -24 -21q-11 -9 -30 -19q-17 -9 -36 -15t-42 -6z
M130 113h-3q0 -49 18 -72q18 -22 50 -22q29 0 54 17q21 15 43 33l23 21v200q-7 -9 -24 -22q-17 -12 -45 -24l-37 -15q-43 -18 -61 -43q-18 -26 -18 -73zM346 616v-45h-223v45h223z" />
    <glyph glyph-name="Abreve" unicode="&#x102;" horiz-adv-x="813" 
d="M19 13l-5 -1q11 4 23 11q10 6 21 20q10 13 24 36q11 19 28 59l231 538q-7 16 -15 27q-8 12 -15 17q-7 6 -17 9q-12 4 -19 6v13h136q11 0 15 -4q5 -5 11 -18l264 -600q7 -16 20 -42q9 -18 20 -32q12 -16 22 -23q12 -9 28 -15v-15h-221v15q34 6 39 27q4 21 -18 73l-51 116
h-368l-39 -91q-7 -19 -12 -39t-3 -36q2 -17 13 -30q12 -14 37 -21v-13h-149v13zM530 245l-178 409l-176 -409h354zM364 854l-4 -2q46 0 69 15t33 39h17q-2 -20 -9 -41q-7 -20 -21 -37q-13 -16 -35 -27q-20 -10 -50 -10q-28 0 -50 11q-21 10 -36 27q-14 15 -22 38
q-8 21 -9 42h16q9 -22 32 -39q22 -16 69 -16z" />
    <glyph glyph-name="abreve" unicode="&#x103;" horiz-adv-x="489" 
d="M165 -9v-2q-61 0 -99 29q-37 28 -37 83q0 29 12 48q12 20 35 35q23 16 52 27q36 14 65 27l54 22q37 16 54 35t17 41v59q0 38 -24 53t-62 15q-19 0 -31 -3t-21 -9t-15 -15q-8 -12 -12 -19q-11 -19 -22 -30q-12 -12 -31 -12t-30 11t-11 26q0 17 13 30q14 14 36 21t54 12
q35 5 69 5q29 0 66 -5q33 -5 60 -18q28 -14 44 -37q17 -25 17 -61v-240q0 -27 2 -55q1 -20 6 -31t12 -14q8 -3 20 -3q8 0 15 3q10 4 15 7l6 -12q-9 -5 -25 -12q-19 -8 -47 -8q-54 0 -77 21q-23 22 -26 57l-22 -20q-11 -10 -24 -21q-11 -9 -30 -19q-17 -9 -36 -15t-42 -6z
M130 113h-3q0 -49 18 -72q18 -22 50 -22q29 0 54 17q21 15 43 33l23 21v200q-7 -9 -24 -22q-17 -12 -45 -24l-37 -15q-43 -18 -61 -43q-18 -26 -18 -73zM237 596l1 1q42 0 63 21t30 50h16q0 -26 -7 -48q-8 -24 -21 -42q-14 -18 -34 -30q-21 -12 -48 -12t-49 11
q-20 10 -34 29t-20 42q-6 24 -6 49h16q8 -30 28 -50q21 -21 65 -21z" />
    <glyph glyph-name="Aogonek" unicode="&#x104;" horiz-adv-x="813" 
d="M19 13l-4 -3q11 4 23 11q10 6 21 20q11 13 24 36q11 19 28 59l231 538q-8 16 -15 27q-8 12 -15 17q-7 6 -17 9q-12 4 -19 6v13h136q11 0 15 -4q5 -5 11 -18l264 -600q7 -16 20 -42q9 -18 20 -32q12 -16 22 -23q12 -9 28 -15v-15h-107q-46 0 -70 -27t-24 -60q0 -20 12 -34
q12 -13 33 -13q14 0 23 6q12 8 17 12l9 -10q-3 -4 -10 -10q-8 -7 -19 -12q-15 -7 -28 -11q-18 -5 -39 -5q-37 0 -63 18t-26 48q0 22 15 40q14 17 36 31q19 12 45 22q28 11 43 14l-98 224h-369l-39 -91q-7 -19 -12 -39t-3 -36q2 -17 13 -30q12 -14 37 -21v-13h-149v13z
M532 243l-179 409l-176 -409h355z" />
    <glyph glyph-name="aogonek" unicode="&#x105;" horiz-adv-x="489" 
d="M165 -9l1 -4q-61 0 -99 29q-37 28 -37 83q0 29 12 48q12 20 35 35q23 16 52 27q36 15 65 27l54 22q37 16 54 35t17 41v59q0 38 -24 53t-62 15q-19 0 -31 -3t-21 -9t-15 -15q-8 -12 -12 -19q-11 -19 -22 -30q-12 -12 -31 -12t-30 11t-11 26q0 17 13 30q13 14 36 21t54 12
q35 5 69 5q29 0 66 -5q33 -5 60 -18q28 -14 44 -37q17 -25 17 -61v-240q0 -27 2 -55q1 -20 6 -31t12 -14q8 -3 20 -3q7 0 15 3q10 4 15 7l6 -12q-1 -1 -3.5 -2t-7 -3.5t-7.5 -4.5q-31 -16 -49 -36t-18 -54q0 -22 12 -36q12 -13 33 -13q14 0 23 6q12 8 17 12l9 -10
q-2 -2 -12 -10q-8 -6 -18 -12q-12 -7 -27 -11q-18 -5 -39 -5q-38 0 -63 18q-26 18 -26 50q0 19 9 32q10 15 24 26q16 13 34 21q16 8 40 16q-2 -1 -9 -1q-53 0 -74 21t-24 56l-22 -20q-11 -10 -24 -21q-11 -9 -30 -19q-17 -9 -36 -15t-42 -6zM131 111h-3q0 -49 18 -72
q18 -22 50 -22q29 0 54 17q21 15 43 33l23 21v200q-7 -9 -24 -22q-16 -12 -45 -24l-37 -15q-43 -18 -61 -43t-18 -73z" />
    <glyph glyph-name="Cacute" unicode="&#x106;" horiz-adv-x="774" 
d="M436 -13v-6q-92 0 -165 33t-124 87t-78 123t-27 143q0 95 36 168t93 123t129 75q73 26 146 26q50 0 84 -6t60 -15q17 -6 44 -15q18 -6 38 -6q26 0 33 28h16v-178h-16q-30 94 -97 136q-68 42 -162 42q-57 0 -108 -21q-52 -21 -90 -64t-61 -111q-22 -66 -22 -160
q0 -103 24 -173q25 -72 64 -116q41 -46 94 -65q55 -20 114 -20q51 0 88 10q38 10 70 27q33 17 54 37q20 19 39 41l12 -11q-13 -18 -38 -42q-23 -21 -60 -43q-34 -20 -83 -34q-45 -13 -107 -13zM343 794l142 92q10 7 23 12t25 5q19 0 29 -12q11 -13 11 -26q0 -17 -12 -31
q-11 -13 -44 -19l-169 -34z" />
    <glyph glyph-name="cacute" unicode="&#x107;" horiz-adv-x="490" 
d="M232 537l94 129q13 18 26 30q11 10 29 10t27 -10t9 -27q0 -18 -10 -29q-11 -13 -25 -21l-140 -92zM287 -12q-53 0 -99 18t-81 51q-34 32 -55 78q-21 45 -21 99q0 58 24 105q25 48 61 80q38 34 84 50q48 17 93 17q35 0 67 -6q33 -6 54 -16q23 -11 36 -25t13 -33
q0 -17 -12 -29t-33 -12q-15 0 -25 5q-9 4 -15 14q-5 7 -10 21q-3 8 -9 26q-9 22 -21 31t-43 9q-28 0 -55 -10q-28 -11 -51 -36q-22 -25 -37 -67t-15 -105t12 -108q12 -43 35 -73q22 -28 56 -42q32 -13 75 -13q46 0 82 17q34 16 61 45l12 -12q-30 -35 -75 -57
q-44 -22 -108 -22z" />
    <glyph glyph-name="Ccircumflex" unicode="&#x108;" horiz-adv-x="774" 
d="M442 917l138 -120l-5 -12l-133 48l-134 -48l-5 12zM436 -13v-6q-92 0 -165 33t-124 87t-78 123t-27 143q0 95 36 168t93 123t129 75q73 26 146 26q50 0 84 -6t60 -15q17 -6 44 -15q18 -6 38 -6q26 0 33 28h16v-178h-16q-30 94 -97 136q-68 42 -162 42q-57 0 -108 -21
q-52 -21 -90 -64t-61 -111q-22 -66 -22 -160q0 -103 24 -173q25 -72 64 -116q41 -46 94 -65q55 -20 114 -20q51 0 88 10q38 10 70 27q33 17 54 37q20 19 39 41l12 -11q-13 -18 -38 -42q-23 -21 -60 -43q-34 -20 -83 -34q-45 -13 -107 -13z" />
    <glyph glyph-name="ccircumflex" unicode="&#x109;" horiz-adv-x="490" 
d="M290 710l126 -175l-11 -9l-115 83l-114 -83l-11 9zM287 -10q-53 0 -99 18t-81 51q-34 32 -55 78q-21 45 -21 99q0 58 24 105q25 48 61 80q38 34 84 50q48 17 93 17q35 0 67 -6q33 -6 54 -16q23 -11 36 -25t13 -33q0 -17 -12 -29t-33 -12q-15 0 -25 5q-9 4 -15 14
q-5 7 -10 21q-3 8 -9 26q-9 22 -21 31t-43 9q-28 0 -55 -10q-28 -11 -51 -36q-22 -25 -37 -67t-15 -105t12 -108q12 -43 35 -73q22 -28 56 -42q32 -13 75 -13q46 0 82 17q34 16 61 45l12 -12q-30 -35 -75 -57q-44 -22 -108 -22z" />
    <glyph glyph-name="Cdotaccent" unicode="&#x10a;" horiz-adv-x="774" 
d="M436 -13v-6q-92 0 -165 33t-124 87t-78 123t-27 143q0 95 36 168t93 123t129 75q73 26 146 26q50 0 84 -6t60 -15q17 -6 44 -15q18 -6 38 -6q26 0 33 28h16v-178h-16q-30 94 -97 136q-68 42 -162 42q-57 0 -108 -21q-52 -21 -90 -64t-61 -111q-22 -66 -22 -160
q0 -103 24 -173q25 -72 64 -116q41 -46 94 -65q55 -20 114 -20q51 0 88 10q38 10 70 27q33 17 54 37q20 19 39 41l12 -11q-13 -18 -38 -42q-23 -21 -60 -43q-34 -20 -83 -34q-45 -13 -107 -13zM443 786q-25 0 -42 18q-17 19 -17 43t17 41t42 17t42 -17t17 -41t-17 -43
q-17 -18 -42 -18z" />
    <glyph glyph-name="cdotaccent" unicode="&#x10b;" horiz-adv-x="490" 
d="M287 -10q-53 0 -99 18t-81 51q-34 32 -55 78q-21 45 -21 99q0 58 24 105q25 48 61 80q38 34 84 50q48 17 93 17q35 0 67 -6q33 -6 54 -16q23 -11 36 -25t13 -33q0 -17 -12 -29t-33 -12q-15 0 -25 5q-9 4 -15 14q-5 7 -10 21q-3 8 -9 26q-9 22 -21 31t-43 9q-28 0 -55 -10
q-28 -11 -51 -36q-22 -25 -37 -67t-15 -105t12 -108q12 -43 35 -73q22 -28 56 -42q32 -13 75 -13q46 0 82 17q34 16 61 45l12 -12q-30 -35 -75 -57q-44 -22 -108 -22zM291 558q-25 0 -42 17t-17 42q0 24 17 41t42 17t42 -17t17 -41q0 -25 -17 -42t-42 -17z" />
    <glyph glyph-name="Ccaron" unicode="&#x10c;" horiz-adv-x="774" 
d="M311 921l134 -47l133 47l5 -12l-138 -119l-139 119zM436 -13v-6q-92 0 -165 33t-124 87t-78 123t-27 143q0 95 36 168t93 123t129 75q73 26 146 26q50 0 84 -6t60 -15q17 -6 44 -15q18 -6 38 -6q26 0 33 28h16v-178h-16q-30 94 -97 136q-68 42 -162 42q-57 0 -108 -21
q-52 -21 -90 -64t-61 -111q-22 -66 -22 -160q0 -103 24 -173q25 -72 64 -116q41 -46 94 -65q55 -20 114 -20q51 0 88 10q38 10 70 27q33 17 54 37q20 19 39 41l12 -11q-13 -18 -38 -42q-23 -21 -60 -43q-34 -20 -83 -34q-45 -13 -107 -13z" />
    <glyph glyph-name="ccaron" unicode="&#x10d;" horiz-adv-x="490" 
d="M176 720l114 -83l115 83l11 -9l-126 -175l-125 175zM287 -10q-53 0 -99 18t-81 51q-34 32 -55 78q-21 45 -21 99q0 58 24 105q25 48 61 80q38 34 84 50q48 17 93 17q35 0 67 -6q33 -6 54 -16q23 -11 36 -25t13 -33q0 -17 -12 -29t-33 -12q-15 0 -25 5q-9 4 -15 14
q-5 7 -10 21q-3 8 -9 26q-9 22 -21 31t-43 9q-28 0 -55 -10q-28 -11 -51 -36q-22 -25 -37 -67t-15 -105t12 -108q12 -43 35 -73q22 -28 56 -42q32 -13 75 -13q46 0 82 17q34 16 61 45l12 -12q-30 -35 -75 -57q-44 -22 -108 -22z" />
    <glyph glyph-name="Dcaron" unicode="&#x10e;" horiz-adv-x="809" 
d="M195 921l134 -47l133 47l5 -12l-138 -119l-139 119zM24 13h1q20 7 33 17q12 9 18 35q5 23 7 75q2 66 2 133v204q0 102 -1 134q-2 51 -7 74q-6 26 -18 35q-13 10 -33 17v13h221q122 0 222 -23q97 -23 165 -69q67 -46 103 -115t36 -159q0 -86 -33 -156t-99 -121
q-65 -50 -165 -79q-97 -28 -231 -28h-221v13zM199 734v-720h47q102 0 177 21q76 21 125 66q50 46 74 115q24 70 24 171q0 105 -28 171q-29 68 -81 107q-53 39 -126 54t-165 15h-47z" />
    <glyph glyph-name="dcaron" unicode="&#x10f;" horiz-adv-x="602" 
d="M572 573l9 133q1 33 11 49q9 15 29 15q35 0 35 -37q0 -17 -13 -42l-59 -121zM253 -10l-4 -4q-40 0 -79 15t-69 45q-29 29 -49 74q-19 42 -19 102t21 108t57 81t84 51t101 18q39 0 73 -12q35 -12 60 -33v131q0 49 -1 65q-2 24 -6 36q-4 11 -15 16t-30 6v16l155 75v-617
q0 -54 1 -72q1 -26 6 -43q5 -16 15 -24q9 -7 30 -13v-13h-154v91l-21 -21q-13 -14 -30 -27q-14 -11 -36 -25q-18 -11 -42 -19q-21 -7 -48 -7zM138 238l-3 -3q0 -65 11 -111q10 -42 29 -69q18 -25 42 -34t49 -9q40 0 75 23t63 51l21 21v305q-30 25 -61 38q-34 14 -72 14
q-33 0 -60 -13t-49 -41q-21 -27 -33 -70q-12 -44 -12 -102z" />
    <glyph glyph-name="Dcroat" unicode="&#x110;" horiz-adv-x="809" 
d="M24 13l1 -1q20 7 33 17q12 9 18 35q5 23 7 75q2 66 2 133v111h-79v16h79v-16h115v-369h47q102 0 177 21q76 21 125 66q50 46 74 115q24 70 24 171q0 105 -28 171q-29 68 -81 107t-126 54t-165 15h-47v-334h171v-16h-171v16h-115v77q0 102 -1 134q-2 51 -7 74
q-6 26 -18 35q-13 10 -33 17v13h221q122 0 222 -23q97 -23 165 -69q67 -46 103 -115t36 -159q0 -86 -33 -156t-99 -121q-65 -50 -165 -79q-97 -28 -231 -28h-221v13z" />
    <glyph glyph-name="dcroat" unicode="&#x111;" horiz-adv-x="602" 
d="M262 583h344v-16h-344v16zM252 -9l-4 -4q-40 0 -79 15t-69 45q-29 29 -49 74q-19 42 -19 102t21 108t57 81t84 51t101 18q39 0 73 -12t60 -33v131q0 49 -1 65q-1 24 -6 36q-4 11 -15 16q-10 4 -30 6v16l155 75v-617q0 -54 1 -72q1 -26 6 -43q4 -17 15 -24q9 -7 30 -13
v-13h-154v91l-21 -21q-14 -13 -30 -27q-14 -11 -36 -25q-18 -11 -42 -19q-21 -7 -48 -7zM137 239l-3 -3q0 -65 11 -111q10 -42 29 -69q18 -25 42 -34t49 -9q40 0 75 23q34 22 63 51l21 21v305q-30 25 -61 38q-34 14 -72 14q-33 0 -60 -13t-49 -41q-21 -27 -33 -70t-12 -102z
" />
    <glyph glyph-name="Emacron" unicode="&#x112;" horiz-adv-x="670" 
d="M24 13l-5 1q20 7 33 17q12 9 18 35q5 23 7 75q2 66 2 133v204q0 102 -1 134q-2 51 -7 74q-6 26 -18 35q-13 10 -33 17v13h553q12 0 17 -4t10 -27l20 -110h-17q-17 39 -33 63q-17 24 -41 38t-58 18q-38 5 -85 5h-190v-306h80q44 0 66 7q25 8 36 19q13 13 17 27q3 10 9 32
h15v-187h-15q-6 22 -9 32q-5 16 -16 27t-36 19q-22 7 -66 7h-80v-396h209q56 0 88 4q37 5 60 19q25 16 41 42q18 29 32 73h17l-14 -122q-1 -22 -8 -27q-5 -4 -22 -4h-576v13zM454 812h-236v47h236v-47z" />
    <glyph glyph-name="emacron" unicode="&#x113;" horiz-adv-x="506" 
d="M290 -11l2 1q-46 0 -93 15t-84 45t-60 77q-23 48 -23 111q0 62 24 108t60 78q37 32 78 47q42 15 78 15q42 0 76 -10q37 -11 63 -31q28 -21 45 -52q17 -30 22 -72h-335q-7 -32 -7 -82q0 -57 14 -101q13 -41 38 -69q24 -27 59 -39t75 -12q46 0 80 14t59 36l10 -12
q-29 -28 -72 -48q-42 -19 -109 -19zM276 471v-1q-40 0 -75 -31q-36 -31 -52 -100h234q-4 71 -32 102q-27 30 -75 30zM394 618v-45h-223v45h223z" />
    <glyph glyph-name="Ebreve" unicode="&#x114;" horiz-adv-x="670" 
d="M24 13l-5 1q20 7 33 17q12 9 18 35q5 23 7 75q2 66 2 133v204q0 102 -1 134q-2 51 -7 74q-6 26 -18 35q-13 10 -33 17v13h553q12 0 17 -4t10 -27l20 -110h-17q-17 39 -33 63q-17 24 -41 38t-58 18q-38 5 -85 5h-190v-306h80q44 0 66 7q25 8 36 19q13 13 17 27q3 10 9 32
h15v-187h-15q-6 22 -9 32q-5 16 -16 27t-36 19q-22 7 -66 7h-80v-396h209q56 0 88 4q37 5 60 19q25 16 41 42q18 29 32 73h17l-14 -122q-1 -22 -8 -27q-5 -4 -22 -4h-576v13zM335 856l-4 -2q47 0 69 15t33 39h17q-2 -20 -9 -41q-7 -20 -21 -37q-13 -16 -35 -27
q-20 -10 -50 -10q-28 0 -50 11q-21 10 -36 27q-14 15 -22 38q-7 21 -9 42h16q9 -22 32 -39q22 -16 69 -16z" />
    <glyph glyph-name="ebreve" unicode="&#x115;" horiz-adv-x="506" 
d="M290 -11l2 1q-46 0 -93 15t-84 45t-60 77q-23 48 -23 111q0 62 24 108t60 78q37 32 78 47q42 15 78 15q42 0 76 -10q37 -11 63 -31q28 -21 45 -52q17 -30 22 -72h-335q-7 -32 -7 -82q0 -57 14 -101q13 -41 38 -69q24 -27 59 -39t75 -12q46 0 80 14t59 36l10 -12
q-29 -28 -72 -48q-42 -19 -109 -19zM276 471v-1q-40 0 -75 -31q-36 -31 -52 -100h234q-4 71 -32 102q-27 30 -75 30zM283 598l1 1q42 0 63 21t30 50h16q0 -26 -7 -48q-8 -24 -21 -42q-14 -18 -34 -30q-21 -12 -48 -12t-49 11q-20 10 -34 29t-20 42q-6 24 -6 49h16
q8 -30 28 -50q21 -21 65 -21z" />
    <glyph glyph-name="Edotaccent" unicode="&#x116;" horiz-adv-x="670" 
d="M340 792q-26 0 -42 18q-17 19 -17 43t17 41t42 17t42 -17t17 -41t-17 -43q-16 -18 -42 -18zM24 13l-5 1q20 7 33 17q12 9 18 35q5 23 7 75q2 66 2 133v204q0 102 -1 134q-2 51 -7 74q-6 26 -18 35q-13 10 -33 17v13h553q12 0 17 -4t10 -27l20 -110h-17q-17 39 -33 63
q-17 24 -41 38t-58 18q-38 5 -85 5h-190v-306h80q44 0 66 7q25 8 36 19q13 13 17 27q3 10 9 32h15v-187h-15q-6 22 -9 32q-5 16 -16 27t-36 19q-22 7 -66 7h-80v-396h209q56 0 88 4q37 5 60 19q25 16 41 42q18 29 32 73h17l-14 -122q-1 -22 -8 -27q-5 -4 -22 -4h-576v13z
" />
    <glyph glyph-name="edotaccent" unicode="&#x117;" horiz-adv-x="506" 
d="M290 -11l2 1q-46 0 -93 15t-84 45t-60 77q-23 48 -23 111q0 62 24 108t60 78q37 32 78 47q42 15 78 15q42 0 76 -10q37 -11 63 -31q28 -21 45 -52q17 -30 22 -72h-335q-7 -32 -7 -82q0 -57 14 -101q13 -41 38 -69q24 -27 59 -39t75 -12q46 0 80 14t59 36l10 -12
q-29 -28 -72 -48q-42 -19 -109 -19zM276 471v-1q-40 0 -75 -31q-36 -31 -52 -100h234q-4 71 -32 102q-27 30 -75 30zM285 558q-25 0 -42 17t-17 42q0 24 17 41t42 17t42 -17t17 -41q0 -25 -17 -42t-42 -17z" />
    <glyph glyph-name="Eogonek" unicode="&#x118;" horiz-adv-x="670" 
d="M477 -167v-4q-37 0 -63 18t-26 48q0 22 15 40q14 17 35 30t41 20q24 9 35 11h24q-22 -10 -42 -30q-19 -19 -19 -54q0 -22 12 -36q12 -13 33 -13q14 0 23 6q12 8 17 12l9 -10q-3 -4 -10 -10q-8 -7 -19 -12q-15 -7 -28 -11q-18 -5 -37 -5zM24 9l-5 1q20 7 33 17q12 9 18 35
q5 23 7 75q2 66 2 133v204q0 102 -1 134q-2 51 -7 74q-6 26 -18 35q-13 10 -33 17v13h553q12 0 17 -4t10 -27l20 -110h-17q-17 39 -33 63q-17 24 -41 38t-58 18q-38 5 -85 5h-190v-306h80q44 0 66 7q25 8 36 19q13 13 17 27q3 10 9 32h15v-187h-15q-6 22 -9 32q-5 16 -16 27
t-36 19q-22 7 -66 7h-80v-396h209q56 0 88 4q37 5 60 19q25 16 41 42q18 29 32 73h17l-14 -122q-1 -22 -8 -27q-5 -4 -22 -4h-576v13z" />
    <glyph glyph-name="eogonek" unicode="&#x119;" horiz-adv-x="506" 
d="M427 -127l-3 1q-2 -2 -10 -12q-5 -6 -17 -13t-27 -11t-37 -4q-38 0 -64 19q-27 19 -27 48q0 20 10 34t26 27q14 11 35 21t37 15q-32 -6 -60 -6q-46 0 -93 15t-84 45t-60 77q-23 48 -23 111q0 62 24 108t60 78q37 32 78 47q42 15 78 15q42 0 76 -10q37 -11 63 -31
q28 -21 45 -52q17 -30 22 -72h-335q-7 -32 -7 -82q0 -57 14 -101q13 -41 38 -69q24 -27 59 -39t75 -12q46 0 80 14t59 36l10 -12q-16 -14 -24 -20q-14 -11 -28 -17q-16 -9 -29 -18q-15 -11 -27 -24q-13 -15 -20 -30q-8 -18 -8 -34q0 -23 12 -36t33 -13q13 0 23 5t17 12z
M271 471v-1q-40 0 -75 -31q-36 -31 -52 -100h234q-4 71 -32 102q-27 30 -75 30z" />
    <glyph glyph-name="Ecaron" unicode="&#x11a;" horiz-adv-x="670" 
d="M205 921l134 -47l133 47l5 -12l-138 -119l-139 119zM24 13l-5 1q20 7 33 17q12 9 18 35q5 23 7 75q2 66 2 133v204q0 102 -1 134q-2 51 -7 74q-6 26 -18 35q-13 10 -33 17v13h553q12 0 17 -4t10 -27l20 -110h-17q-17 39 -33 63q-17 24 -41 38t-58 18q-38 5 -85 5h-190
v-306h80q44 0 66 7q25 8 36 19q13 13 17 27q3 10 9 32h15v-187h-15q-6 22 -9 32q-5 16 -16 27t-36 19q-22 7 -66 7h-80v-396h209q56 0 88 4q37 5 60 19q25 16 41 42q18 29 32 73h17l-14 -122q-1 -22 -8 -27q-5 -4 -22 -4h-576v13z" />
    <glyph glyph-name="ecaron" unicode="&#x11b;" horiz-adv-x="506" 
d="M167 720l114 -83l115 83l11 -9l-126 -175l-125 175zM290 -11l2 1q-46 0 -93 15t-84 45t-60 77q-23 48 -23 111q0 62 24 108t60 78q37 32 78 47q42 15 78 15q42 0 76 -10q37 -11 63 -31q28 -21 45 -52q17 -30 22 -72h-335q-7 -32 -7 -82q0 -57 14 -101q13 -41 38 -69
q24 -27 59 -39t75 -12q46 0 80 14t59 36l10 -12q-29 -28 -72 -48q-42 -19 -109 -19zM276 471v-1q-40 0 -75 -31q-36 -31 -52 -100h234q-4 71 -32 102q-27 30 -75 30z" />
    <glyph glyph-name="Gcircumflex" unicode="&#x11c;" horiz-adv-x="833" 
d="M453 917l138 -120l-5 -12l-133 48l-134 -48l-5 12zM447 -14l-5 -2q-88 0 -163 30q-74 30 -129 83q-54 52 -84 125q-30 72 -30 157q0 98 39 170q40 73 100 119q61 46 135 69q75 23 144 23q48 0 81 -6q29 -5 57 -14q9 -3 23.5 -7t20.5 -6q20 -6 42 -6q11 0 20 6t14 20h17
v-178h-17q-26 83 -90 129q-65 47 -168 47q-56 0 -109 -18t-93 -60q-40 -41 -64 -109t-24 -168q0 -104 21 -177q21 -74 58 -121t89 -70q50 -22 113 -22q110 0 159 52t49 150v8q0 38 -3 59t-9 33t-19 18q-12 5 -34 10v13h234v-13q-18 -5 -27 -10q-11 -6 -17 -21t-9 -45t-3 -82
v-60q-12 -13 -37 -33q-27 -21 -69 -42t-96 -36t-117 -15z" />
    <glyph glyph-name="gcircumflex" unicode="&#x11d;" horiz-adv-x="506" 
d="M245 710l126 -175l-11 -9l-115 83l-114 -83l-11 9zM239 -168l-7 -9q-42 0 -82 6t-72 18q-31 12 -51 32q-19 19 -19 45q0 16 9 31t23 26t32 20q19 9 37 15q-32 11 -47 30q-15 20 -15 45q0 15 6 28t15 24t20 20q14 12 21 17l13 10q-38 20 -63 51t-25 77q0 39 18 69t48 51
q29 20 66 31q38 11 69 11q56 0 107 -25q22 20 53 36q30 15 56 15q41 0 41 -36q0 -16 -9 -25t-22 -9q-9 0 -19 5q-9 5 -16 10q-5 4 -15 10q-8 5 -17 5q-19 0 -37 -15q36 -20 59 -52q24 -33 24 -78q0 -39 -19 -67t-48 -48q-27 -19 -65 -28q-36 -9 -69 -9q-20 0 -48 5
q-25 4 -48 15l-13 -10q-33 -25 -33 -42q0 -11 10 -17q11 -7 39 -8l184 -18q78 -8 114 -30q36 -23 36 -77q0 -35 -18 -64q-17 -27 -50 -49q-31 -20 -76 -31q-47 -11 -97 -11zM232 179l-2 -1q23 0 41 7q19 7 35 23q15 15 24 42t9 66q0 38 -9 67t-24 45q-15 17 -34 24
q-21 8 -40 8t-40 -8q-19 -7 -34 -24q-15 -16 -24 -45t-9 -67q0 -39 9 -66t24 -42q14 -14 35 -22q18 -7 39 -7zM72 -72l-4 1q0 -44 41 -67q40 -22 117 -22q48 0 84 9q34 9 60 23q24 14 36 30t12 33q0 32 -28 42q-31 11 -88 17l-156 16h-8q-1 0 -7 2q-59 -23 -59 -84z" />
    <glyph glyph-name="Gbreve" unicode="&#x11e;" horiz-adv-x="833" 
d="M452 855l-4 -2q46 0 69 15t33 39h17q-2 -20 -9 -41q-7 -20 -21 -37q-13 -16 -35 -27q-20 -10 -50 -10q-28 0 -50 11q-21 11 -36 27q-14 15 -22 38q-8 21 -9 42h16q9 -22 32 -39q22 -16 69 -16zM443 -16l-5 -2q-88 0 -163 30q-74 30 -129 83q-54 52 -84 125
q-30 72 -30 157q0 98 39 170q40 73 100 119q61 46 135 69q75 23 144 23q48 0 81 -6q29 -5 57 -14q9 -3 23.5 -7t20.5 -6q20 -6 42 -6q11 0 20 6t14 20h17v-178h-17q-26 83 -90 129q-65 47 -168 47q-56 0 -109 -18t-93 -60q-40 -41 -64 -109t-24 -168q0 -104 21 -177
q21 -74 58 -121t89 -70q50 -22 113 -22q110 0 159 52t49 150v8q0 38 -3 59t-9 33t-19 18q-12 5 -34 10v13h234v-13q-18 -5 -27 -10q-11 -6 -17 -21t-9 -45t-3 -82v-60q-12 -13 -37 -33q-27 -21 -69 -42t-96 -36t-117 -15z" />
    <glyph glyph-name="gbreve" unicode="&#x11f;" horiz-adv-x="506" 
d="M239 -168l-7 -9q-42 0 -82 6t-72 18q-31 12 -51 32q-19 19 -19 45q0 16 9 31t23 26t32 20q19 9 37 15q-32 11 -47 30q-15 20 -15 45q0 15 6 28t15 24t20 20q14 12 21 17l13 10q-38 20 -63 51t-25 77q0 39 18 69t48 51q29 20 66 31q38 11 69 11q56 0 107 -25q22 20 53 36
q30 15 56 15q41 0 41 -36q0 -16 -9 -25t-22 -9q-9 0 -19 5q-9 5 -16 10q-5 4 -15 10q-8 5 -17 5q-19 0 -37 -15q36 -20 59 -52q24 -33 24 -78q0 -39 -19 -67t-48 -48q-27 -19 -65 -28q-36 -9 -69 -9q-20 0 -48 5q-25 4 -48 15l-13 -10q-33 -25 -33 -42q0 -11 10 -17
q11 -7 39 -8l184 -18q78 -8 114 -30q36 -23 36 -77q0 -35 -18 -64q-17 -27 -50 -49q-31 -20 -76 -31q-47 -11 -97 -11zM232 179l-2 -1q23 0 41 7q19 7 35 23q15 15 24 42t9 66q0 38 -9 67t-24 45q-15 17 -34 24q-21 8 -40 8t-40 -8q-19 -7 -34 -24q-15 -16 -24 -45t-9 -67
q0 -39 9 -66t24 -42q14 -14 35 -22q18 -7 39 -7zM72 -72l-4 1q0 -44 41 -67q40 -22 117 -22q48 0 84 9q34 9 60 23q24 14 36 30t12 33q0 32 -28 42q-31 11 -88 17l-156 16h-8q-1 0 -7 2q-59 -23 -59 -84zM236 589l1 1q42 0 63 21t30 50h16q0 -26 -7 -48q-7 -24 -21 -42
q-14 -19 -34 -30q-21 -12 -48 -12t-49 11q-20 10 -34 29t-20 42q-6 24 -6 49h16q8 -30 28 -50q21 -21 65 -21z" />
    <glyph glyph-name="Gdotaccent" unicode="&#x120;" horiz-adv-x="833" 
d="M452 792q-26 0 -42 18q-17 19 -17 43t17 41t42 17t42 -17t17 -41t-17 -43q-16 -18 -42 -18zM447 -14l-5 -2q-88 0 -163 30q-74 30 -129 83q-54 52 -84 125q-30 72 -30 157q0 98 39 170q40 73 100 119q61 46 135 69q75 23 144 23q48 0 81 -6q29 -5 57 -14q9 -3 23.5 -7
t20.5 -6q20 -6 42 -6q11 0 20 6t14 20h17v-178h-17q-26 83 -90 129q-65 47 -168 47q-56 0 -109 -18t-93 -60q-40 -41 -64 -109t-24 -168q0 -104 21 -177q21 -74 58 -121t89 -70q50 -22 113 -22q110 0 159 52t49 150v8q0 38 -3 59t-9 33t-19 18q-12 5 -34 10v13h234v-13
q-18 -5 -27 -10q-11 -6 -17 -21t-9 -45t-3 -82v-60q-12 -13 -37 -33q-27 -21 -69 -42t-96 -36t-117 -15z" />
    <glyph glyph-name="gdotaccent" unicode="&#x121;" horiz-adv-x="506" 
d="M239 -168l-7 -9q-42 0 -82 6t-72 18q-31 12 -51 32q-19 19 -19 45q0 16 9 31t23 26t32 20q19 9 37 15q-32 11 -47 30q-15 20 -15 45q0 15 6 28t15 24t20 20q14 12 21 17l13 10q-38 20 -63 51t-25 77q0 39 18 69t48 51q29 20 66 31q38 11 69 11q56 0 107 -25q22 20 53 36
q30 15 56 15q41 0 41 -36q0 -16 -9 -25t-22 -9q-9 0 -19 5q-9 5 -16 10q-5 4 -15 10q-8 5 -17 5q-19 0 -37 -15q36 -20 59 -52q24 -33 24 -78q0 -39 -19 -67t-48 -48q-27 -19 -65 -28q-36 -9 -69 -9q-20 0 -48 5q-25 4 -48 15l-13 -10q-33 -25 -33 -42q0 -11 10 -17
q11 -7 39 -8l184 -18q78 -8 114 -30q36 -23 36 -77q0 -35 -18 -64q-17 -27 -50 -49q-31 -20 -76 -31q-47 -11 -97 -11zM232 179l-2 -1q23 0 41 7q19 7 35 23q15 15 24 42t9 66q0 38 -9 67t-24 45q-15 17 -34 24q-21 8 -40 8t-40 -8q-19 -7 -34 -24q-15 -16 -24 -45t-9 -67
q0 -39 9 -66t24 -42q14 -14 35 -22q18 -7 39 -7zM72 -72l-4 1q0 -44 41 -67q40 -22 117 -22q48 0 84 9q34 9 60 23q24 14 36 30t12 33q0 32 -28 42q-31 11 -88 17l-156 16h-8q-1 0 -7 2q-59 -23 -59 -84zM234 549q-25 0 -42 17t-17 42q0 24 17 41t42 17t42 -17t17 -41
q0 -25 -17 -42t-42 -17z" />
    <glyph glyph-name="uni0122" unicode="&#x122;" horiz-adv-x="833" 
d="M455 -126l-2 -2q-2 -5 -9 -11t-22 -6q-20 0 -33 12t-13 33q0 23 16 36t36 13q23 0 42 -16q20 -17 20 -51q0 -42 -24 -64t-65 -30l-5 11q38 11 51 27q14 17 14 33q0 11 -6 15zM445 -16l-5 -2q-88 0 -163 30q-74 30 -129 83q-54 52 -84 125q-30 72 -30 157q0 98 39 170
q40 73 100 119q61 46 135 69q75 23 144 23q48 0 81 -6q29 -5 57 -14q9 -3 23.5 -7t20.5 -6q20 -6 42 -6q11 0 20 6t14 20h17v-178h-17q-26 83 -90 129q-65 47 -168 47q-56 0 -109 -18t-93 -60q-40 -41 -64 -109t-24 -168q0 -104 21 -177q21 -74 58 -121t89 -70
q50 -22 113 -22q110 0 159 52t49 150v8q0 38 -3 59t-9 33t-19 18q-12 5 -34 10v13h234v-13q-18 -5 -27 -10q-11 -6 -17 -21t-9 -45t-3 -82v-60q-12 -13 -37 -33q-27 -21 -69 -42t-96 -36t-117 -15z" />
    <glyph glyph-name="uni0123" unicode="&#x123;" horiz-adv-x="506" 
d="M219 626h-2q2 5 9 11q8 6 23 6q19 0 33 -12q13 -12 13 -33q0 -22 -15 -36q-14 -13 -36 -13t-42 17q-19 16 -19 51q0 43 24 65t65 30l6 -11q-38 -11 -51 -27q-14 -17 -14 -33q0 -11 6 -15zM237 -168l-7 -9q-42 0 -82 6t-72 18q-31 12 -51 32q-19 19 -19 45q0 16 9 31
t23 26t32 20q19 9 37 15q-32 11 -47 30q-15 20 -15 45q0 15 6 28t15 24t20 20q14 12 21 17l13 10q-38 20 -63 51t-25 77q0 39 18 69t48 51q29 20 66 31q38 11 69 11q56 0 107 -25q22 20 53 36q30 15 56 15q41 0 41 -36q0 -16 -9 -25t-22 -9q-9 0 -19 5q-9 5 -16 10
q-5 4 -15 10q-8 5 -17 5q-19 0 -37 -15q36 -20 59 -52q24 -33 24 -78q0 -39 -19 -67t-48 -48q-27 -19 -65 -28q-36 -9 -69 -9q-20 0 -48 5q-25 4 -48 15l-13 -10q-33 -25 -33 -42q0 -11 10 -17q11 -7 39 -8l184 -18q78 -8 114 -30q36 -23 36 -77q0 -35 -18 -64
q-17 -27 -50 -49q-31 -20 -76 -31q-47 -11 -97 -11zM230 179l-2 -1q23 0 41 7q19 7 35 23q15 15 24 42t9 66q0 38 -9 67t-24 45q-15 17 -34 24q-21 8 -40 8t-40 -8q-19 -7 -34 -24q-15 -16 -24 -45t-9 -67q0 -39 9 -66t24 -42q14 -14 35 -22q18 -7 39 -7zM70 -72l-4 1
q0 -44 41 -67q40 -22 117 -22q48 0 84 9q34 9 60 23q24 14 36 30t12 33q0 32 -28 42q-31 11 -88 17l-156 16h-8q-1 0 -7 2q-59 -23 -59 -84z" />
    <glyph glyph-name="Hcircumflex" unicode="&#x124;" horiz-adv-x="813" 
d="M24 13l-6 -2q21 6 33 15t18 35q5 23 7 75q2 66 2 134v204q0 102 -1 135q-2 52 -7 75q-6 26 -18 35t-33 15v13h234v-13q-21 -6 -33 -15t-18 -35q-5 -23 -7 -75q-1 -33 -1 -135v-58h417v58q0 102 -1 135q-2 52 -7 75q-6 26 -18 35t-33 15v13h234v-13q-21 -6 -33 -15
t-18 -35q-5 -23 -7 -75q-1 -33 -1 -135v-204q0 -67 2 -133q2 -52 7 -75q6 -26 18 -35t33 -15v-13h-234v13q21 6 33 15t18 35q7 28 8 75q2 66 2 134v130h-417v-130q0 -67 2 -133q1 -47 8 -75q6 -26 18 -35t33 -15v-13h-234v13zM401 915l138 -120l-5 -12l-133 48l-134 -48
l-5 12z" />
    <glyph glyph-name="hcircumflex" unicode="&#x125;" horiz-adv-x="583" 
d="M27 13l-1 -2q18 7 26 13q10 8 14 24t6 44q1 18 1 72v406q0 50 -1 66q-2 24 -6 36t-15 15q-13 4 -30 5v16l152 73v-423l43 40q23 20 33 29q17 14 38 27t42 20q24 8 48 8q31 0 53 -7q25 -8 42 -22t28 -41q10 -24 10 -63v-185v-72q0 -25 5 -43q4 -16 14 -24q8 -6 26 -13v-13
h-197v13q20 7 29 13q11 7 15 24q4 16 6 44q1 18 1 72v217q0 37 -17 54t-48 17t-61 -21t-67 -55l-43 -39v-173q0 -54 1 -72q1 -26 6 -43q4 -16 15 -24q9 -6 29 -13v-13h-197v13zM299 942l138 -120l-5 -12l-133 48l-134 -48l-5 12z" />
    <glyph glyph-name="Hbar" unicode="&#x126;" horiz-adv-x="813" 
d="M5 578h803v-16h-803v16zM24 13l-6 -2q21 6 33 15t18 35q5 23 7 75q2 66 2 134v204q0 102 -1 135q-2 52 -7 75q-6 26 -18 35t-33 15v13h234v-13q-21 -6 -33 -15t-18 -35q-5 -23 -7 -75q-1 -33 -1 -135v-58h417v58q0 102 -1 135q-2 52 -7 75q-6 26 -18 35t-33 15v13h234
v-13q-21 -6 -33 -15t-18 -35q-5 -23 -7 -75q-1 -33 -1 -135v-204q0 -67 2 -133q2 -52 7 -75q6 -26 18 -35t33 -15v-13h-234v13q21 6 33 15t18 35q7 28 8 75q2 66 2 134v130h-417v-130q0 -67 2 -133q1 -47 8 -75q6 -26 18 -35t33 -15v-13h-234v13z" />
    <glyph glyph-name="hbar" unicode="&#x127;" horiz-adv-x="583" 
d="M-4 567v16h345v-16h-345zM27 13l-1 -2q18 7 26 13q10 8 14 24t6 44q1 18 1 72v406q0 50 -1 66q-2 24 -6 36t-15 15q-13 4 -30 5v16l152 73v-423l43 40q23 20 33 29q17 14 38 27t42 20q24 8 48 8q31 0 53 -7q25 -8 42 -22t28 -41q10 -24 10 -63v-185v-72q0 -25 5 -43
q4 -16 14 -24q8 -6 26 -13v-13h-197v13q20 7 29 13q11 7 15 24q4 16 6 44q1 18 1 72v217q0 37 -17 54t-48 17t-61 -21t-67 -55l-43 -39v-173q0 -54 1 -72q1 -26 6 -43q4 -16 15 -24q9 -6 29 -13v-13h-197v13z" />
    <glyph glyph-name="Itilde" unicode="&#x128;" horiz-adv-x="282" 
d="M24 13l-3 -1q20 7 33 17q12 9 18 35q5 23 7 75q2 66 2 133v204q0 102 -1 135q-2 52 -7 76q-6 27 -18 36t-33 15v13h234v-13q-21 -6 -33 -15t-18 -36q-5 -24 -7 -76q-1 -33 -1 -135v-204q0 -67 2 -133q1 -47 8 -75q6 -26 18 -35q11 -8 33 -16v-13h-234v13zM86 889h-1
q19 0 31 -1l36 -3q12 -1 34 -3q11 -1 27 -1q14 0 29 9t32 35l12 -4q-12 -50 -34 -78t-51 -28q-6 0 -30 2l-36 3q-12 1 -34 3t-27 2q-13 0 -28 -9q-16 -9 -33 -37l-12 4q17 55 39 81q22 25 46 25z" />
    <glyph glyph-name="itilde" unicode="&#x129;" horiz-adv-x="254" 
d="M23 13v-3q21 6 30 13q11 7 15 24q4 16 6 44q1 18 1 72v106q0 51 -1 67q-2 24 -6 36q-5 13 -15 17q-12 5 -30 8v15l154 74v-321q0 -54 1 -72q1 -26 6 -43q4 -16 15 -24q9 -7 30 -13v-13h-206v13zM83 647h-1q29 0 58 -7t54 -7q10 0 24 9q15 10 29 37l12 -6q-11 -47 -30 -75
t-47 -28q-26 0 -56 6t-56 6q-11 0 -25 -8q-12 -7 -31 -38l-12 6q16 51 36 78t45 27z" />
    <glyph glyph-name="Imacron" unicode="&#x12a;" horiz-adv-x="282" 
d="M24 13l-3 -1q20 7 33 17q12 9 18 35q5 23 7 75q2 66 2 133v204q0 102 -1 135q-2 52 -7 76q-6 27 -18 36t-33 15v13h234v-13q-21 -6 -33 -15t-18 -36q-5 -24 -7 -76q-1 -33 -1 -135v-204q0 -67 2 -133q1 -47 8 -75q6 -26 18 -35q11 -8 33 -16v-13h-234v13zM255 810h-236
v47h236v-47z" />
    <glyph glyph-name="imacron" unicode="&#x12b;" horiz-adv-x="254" 
d="M23 13v-3q21 6 30 13q11 7 15 24q4 16 6 44q1 18 1 72v106q0 51 -1 67q-2 24 -6 36q-5 13 -15 17q-12 5 -30 8v15l154 74v-321q0 -54 1 -72q1 -26 6 -43q4 -16 15 -24q9 -7 30 -13v-13h-206v13zM236 615v-45h-223v45h223z" />
    <glyph glyph-name="Ibreve" unicode="&#x12c;" horiz-adv-x="282" 
d="M24 13l-3 -1q20 7 33 17q12 9 18 35q5 23 7 75q2 66 2 133v204q0 102 -1 135q-2 52 -7 76q-6 27 -18 36t-33 15v13h234v-13q-21 -6 -33 -15t-18 -36q-5 -24 -7 -76q-1 -33 -1 -135v-204q0 -67 2 -133q1 -47 8 -75q6 -26 18 -35q11 -8 33 -16v-13h-234v13zM139 854l-4 -2
q47 0 69 15t33 39h17q-2 -20 -9 -41q-7 -20 -21 -37q-13 -16 -35 -27q-20 -10 -50 -10q-28 0 -50 11q-21 10 -36 27q-14 15 -22 38q-7 21 -9 42h16q9 -22 32 -39q22 -16 69 -16z" />
    <glyph glyph-name="ibreve" unicode="&#x12d;" horiz-adv-x="254" 
d="M23 13v-3q21 6 30 13q11 7 15 24q4 16 6 44q1 18 1 72v106q0 51 -1 67q-2 24 -6 36q-5 13 -15 17q-12 5 -30 8v15l154 74v-321q0 -54 1 -72q1 -26 6 -43q4 -16 15 -24q9 -7 30 -13v-13h-206v13zM127 595l1 1q42 0 63 21t30 50h16q0 -26 -7 -48q-8 -24 -21 -42
q-14 -19 -34 -30q-21 -12 -48 -12t-49 11q-20 10 -34 29t-20 42q-6 24 -6 49h16q8 -30 28 -50q21 -21 65 -21z" />
    <glyph glyph-name="Iogonek" unicode="&#x12e;" horiz-adv-x="282" 
d="M24 13l-3 -1q20 7 33 17q12 9 18 35q5 23 7 75q2 66 2 133v204q0 102 -1 135q-2 52 -7 76q-6 27 -18 36t-33 15v13h234v-13q-21 -6 -33 -15t-18 -36q-5 -24 -7 -76q-1 -33 -1 -135v-204q0 -67 2 -133q1 -47 8 -75q6 -26 18 -35q11 -8 33 -16v-13h-234v13zM148 -168v-4
q-38 0 -63 18q-26 18 -26 48q0 22 15 40q14 17 35 30t41 20q24 9 35 11h24q-23 -11 -42 -30t-19 -54q0 -23 12 -36t33 -13q14 0 23 6q12 8 17 12l9 -10q-3 -4 -10 -10q-8 -7 -19 -12q-15 -7 -28 -11q-18 -5 -37 -5z" />
    <glyph glyph-name="iogonek" unicode="&#x12f;" horiz-adv-x="254" 
d="M123 559v-2q-23 0 -42 17q-18 16 -18 42t18 42q19 17 42 17q26 0 42 -16q17 -17 17 -42t-17 -42q-16 -16 -42 -16zM23 11v-3q21 6 30 13q11 7 15 24q4 16 6 44q1 18 1 72v106q0 51 -1 67q-2 24 -6 36q-5 13 -15 17q-12 5 -30 8v15l154 74v-321q0 -54 1 -72q1 -26 6 -43
q4 -16 15 -24q9 -7 30 -13v-13h-206v13zM131 -172v-4q-37 0 -63 18t-26 48q0 22 15 40q14 17 35 30t41 20q24 9 35 11h24q-22 -11 -42 -30q-19 -19 -19 -54q0 -23 12 -36t33 -13q14 0 23 6q12 8 17 12l9 -10q-3 -4 -10 -10q-8 -7 -19 -12q-15 -7 -28 -11q-18 -5 -37 -5z" />
    <glyph glyph-name="Idotaccent" unicode="&#x130;" horiz-adv-x="282" 
d="M24 13l-3 -1q20 7 33 17q12 9 18 35q5 23 7 75q2 66 2 133v204q0 102 -1 135q-2 52 -7 76q-6 27 -18 36t-33 15v13h234v-13q-21 -6 -33 -15t-18 -36q-5 -24 -7 -76q-1 -33 -1 -135v-204q0 -67 2 -133q1 -47 8 -75q6 -26 18 -35q11 -8 33 -16v-13h-234v13zM138 791
q-26 0 -42 18q-17 19 -17 43t17 41t42 17t42 -17t17 -41t-17 -43q-16 -18 -42 -18z" />
    <glyph glyph-name="dotlessi" unicode="&#x131;" horiz-adv-x="254" 
d="M23 13v-3q21 6 30 13q11 7 15 24q4 16 6 44q1 18 1 72v106q0 51 -1 67q-2 24 -6 36q-5 13 -15 17q-12 5 -30 8v15l154 74v-321q0 -54 1 -72q1 -26 6 -43q4 -16 15 -24q9 -7 30 -13v-13h-206v13z" />
    <glyph glyph-name="IJ" unicode="&#x132;" horiz-adv-x="753" 
d="M24 13l-3 -1q20 7 33 17q12 9 18 35q5 23 7 75q2 66 2 133v204q0 102 -1 135q-2 52 -7 76q-6 27 -18 36t-33 15v13h234v-13q-21 -6 -33 -15t-18 -36q-5 -24 -7 -76q-1 -33 -1 -135v-204q0 -67 2 -133q1 -47 8 -75q6 -26 18 -35q11 -8 33 -16v-13h-234v13zM474 -11l-5 3
q-37 0 -72 8q-32 7 -58 21q-25 13 -39 33t-14 42q0 26 15 36q16 11 34 11q23 0 37 -12q13 -11 22 -44l11 -35q4 -14 12 -25q7 -10 20 -15t32 -5q14 0 31 5q15 4 27 15t18 30t6 48v372q0 102 -1 135q-2 52 -7 75q-6 26 -18 35t-33 15v13h234v-13q-21 -6 -33 -15t-18 -35
q-5 -23 -7 -75q-1 -33 -1 -135v-280q0 -49 -15 -88q-15 -38 -41 -66q-25 -27 -61 -40q-37 -14 -76 -14z" />
    <glyph glyph-name="ij" unicode="&#x133;" horiz-adv-x="492" 
d="M123 559v-2q-23 0 -42 17q-18 16 -18 42t18 42q19 17 42 17q26 0 42 -16q17 -17 17 -42t-17 -42q-16 -16 -42 -16zM23 11v-3q21 6 30 13q11 7 15 24q4 16 6 44q1 18 1 72v106q0 51 -1 67q-2 24 -6 36q-5 13 -15 17q-12 5 -30 8v15l154 74v-321q0 -54 1 -72q1 -26 6 -43
q4 -16 15 -24q9 -7 30 -13v-13h-206v13zM366 554v-2q-25 0 -42 17t-17 42t17 42t42 17t42 -16q18 -16 18 -42t-18 -42q-17 -16 -42 -16zM220 -160l-2 -4q-21 0 -35 10q-15 10 -15 33q0 20 12 29t28 9q14 0 24 -7q10 -8 18 -15l15 -15q7 -7 17 -7q7 0 13 6t8 10q3 6 6 18
q2 9 4 31q2 26 2 51v270v67q0 22 -5 37q-4 13 -15 18q-12 5 -30 8v15l153 74v-417q0 -60 -27 -105t-75 -78q-32 -22 -54 -30q-24 -8 -42 -8z" />
    <glyph glyph-name="Jcircumflex" unicode="&#x134;" horiz-adv-x="471" 
d="M327 917l138 -120l-5 -12l-133 48l-134 -48l-5 12zM195 -10l-5 3q-37 0 -72 8q-32 7 -58 21t-39 33q-14 20 -14 42q0 25 15 36q16 11 34 11q24 0 37 -12q13 -11 22 -44l11 -35q4 -14 12 -25q7 -10 20 -15t32 -5q14 0 31 5q15 5 27 15t18 30t6 48v372q0 102 -1 135
q-2 52 -7 75q-6 26 -18 35t-33 15v13h234v-13q-21 -6 -33 -15t-18 -35q-5 -23 -7 -75q-1 -33 -1 -135v-280q0 -49 -15 -88q-15 -38 -41 -66q-25 -27 -61 -40q-37 -14 -76 -14z" />
    <glyph glyph-name="jcircumflex" unicode="&#x135;" horiz-adv-x="248" 
d="M-24 -153l-2 -4q-21 0 -35 10q-15 11 -15 33q0 20 12 29t28 9q14 0 24 -7t18 -15l15 -15q7 -7 17 -7q7 0 13 6t8 10q3 6 6 18q2 9 4 31q2 26 2 51v270v67q0 22 -5 37q-4 14 -15 18q-12 5 -30 8v15l153 74v-417q0 -60 -27 -105t-75 -78q-32 -23 -54 -30q-24 -8 -42 -8z
M122 706l126 -175l-11 -9l-115 83l-114 -83l-11 9z" />
    <glyph glyph-name="uni0136" unicode="&#x136;" horiz-adv-x="725" 
d="M374 -126l-2 -2q-2 -5 -9 -11t-22 -6q-19 0 -33 12q-13 12 -13 33q0 23 16 36t36 13q23 0 42 -16q20 -17 20 -51q0 -42 -24 -64t-65 -30l-5 11q37 11 51 27q14 17 14 33q0 11 -6 15zM22 11l-2 -4q21 6 33 15t18 35q5 23 7 75q2 66 2 134v204q0 102 -1 135q-2 52 -7 75
q-6 26 -18 35t-33 15v13h232v-13q-21 -6 -33 -15t-18 -35q-5 -23 -7 -75q-1 -33 -1 -135v-65l328 246q80 60 4 79v13h159v-13q-20 -6 -30 -10q-12 -5 -33 -17q-16 -9 -40 -27q-40 -29 -54 -40l-244 -183l338 -377q4 -5 13 -14.5t13 -13.5q8 -9 20 -19q8 -6 17 -12
q7 -5 18 -9v-13h-230v13q35 8 32 26t-32 53l-280 310v-128q0 -67 2 -133q1 -47 8 -75q6 -26 18 -35t33 -15v-13h-232v13z" />
    <glyph glyph-name="uni0137" unicode="&#x137;" horiz-adv-x="530" 
d="M292 -126l-2 -2q-2 -5 -9 -11t-22 -6q-19 0 -33 12q-13 12 -13 33q0 23 16 36t36 13q23 0 42 -16q20 -17 20 -51q0 -42 -24 -64t-65 -30l-5 11q37 11 51 27q14 17 14 33q0 11 -6 15zM25 11l-4 1q18 7 26 13q10 8 14 24t6 44q1 18 1 72v416q0 45 -1 59q-2 22 -6 32
q-5 11 -14 14q-11 4 -27 5v16l149 74v-530l203 152q32 24 27 39t-30 18v14h134v-14q-23 -6 -48 -22q-30 -18 -65 -45l-137 -102l217 -239q18 -21 29 -30q9 -8 22 -12v-13h-199v13q26 5 29 18q3 14 -25 45l-155 172v-82q0 -54 1 -72q1 -26 6 -43q4 -16 15 -24q9 -6 29 -13
v-13h-197v13z" />
    <glyph glyph-name="Lacute" unicode="&#x139;" horiz-adv-x="630" 
d="M40 800l142 92q10 7 23 12t25 5q18 0 29 -12q11 -13 11 -26q0 -17 -12 -31q-11 -13 -44 -19l-169 -34zM22 12l-5 -1q21 6 33 15t18 35q5 23 7 75q2 66 2 134v204q0 102 -1 135q-2 52 -7 75q-6 26 -18 35t-33 15v13h238v-13q-23 -6 -35 -15t-18 -35q-7 -28 -8 -75
q-1 -33 -1 -135v-461h184q43 0 80 5q33 4 57 21q25 17 42 46q18 29 36 80h18l-24 -137q-2 -12 -3 -17t-5 -9q-3 -3 -8 -3h-12h-537v13z" />
    <glyph glyph-name="lacute" unicode="&#x13a;" horiz-adv-x="257" 
d="M28 800l142 92q10 7 23 12t25 5q18 0 29 -12q11 -13 11 -26q0 -17 -12 -31q-11 -13 -44 -19l-169 -34zM23 12v-1q21 6 30 13q11 8 15 24t6 44q1 18 1 72v415v61q0 21 -5 33q-5 11 -15 14q-13 4 -30 5v16l152 74v-618q0 -54 1 -72q1 -26 6 -43q4 -17 15 -24q9 -7 30 -13
v-13h-206v13z" />
    <glyph glyph-name="uni013B" unicode="&#x13b;" horiz-adv-x="630" 
d="M342 -126l-2 -2q-2 -5 -9 -11t-22 -6q-19 0 -33 12q-13 12 -13 33q0 23 16 36t36 13q23 0 42 -16q20 -17 20 -51q0 -42 -24 -64t-65 -30l-5 11q37 11 51 27q14 17 14 33q0 11 -6 15zM22 11l-5 -1q21 6 33 15t18 35q5 23 7 75q2 66 2 134v204q0 102 -1 135q-2 52 -7 75
q-6 26 -18 35t-33 15v13h238v-13q-23 -6 -35 -15t-18 -35q-7 -28 -8 -75q-1 -33 -1 -135v-461h184q43 0 80 5q33 5 57 21q25 17 42 46q18 29 36 80h18l-24 -137q-2 -12 -3 -17t-5 -9q-3 -3 -8 -3h-12h-537v13z" />
    <glyph glyph-name="uni013C" unicode="&#x13c;" horiz-adv-x="257" 
d="M144 -126l-2 -2q-2 -5 -9 -11t-22 -6q-19 0 -33 12q-13 12 -13 33q0 23 16 36t36 13q23 0 42 -16q20 -17 20 -51q0 -42 -24 -64t-65 -30l-5 11q37 11 51 27q14 17 14 33q0 11 -6 15zM23 11v-1q21 6 30 13q11 7 15 24q4 16 6 44q1 18 1 72v415v61q0 21 -5 33q-5 11 -15 14
q-13 4 -30 5v16l152 74v-618q0 -54 1 -72q1 -26 6 -43q4 -16 15 -24q9 -7 30 -13v-13h-206v13z" />
    <glyph glyph-name="Lcaron" unicode="&#x13d;" horiz-adv-x="630" 
d="M298 562l9 133q1 33 11 49q9 15 29 15q35 0 35 -37q0 -17 -13 -42l-59 -121zM25 12l-5 -1q21 6 33 15t18 35q5 23 7 75q2 66 2 134v204q0 102 -1 135q-2 52 -7 75q-6 26 -18 35t-33 15v13h238v-13q-23 -6 -35 -15t-18 -35q-7 -28 -8 -75q-1 -33 -1 -135v-461h184
q43 0 80 5q33 4 57 21q25 17 42 46q18 29 36 80h18l-24 -137q-2 -12 -3 -17t-5 -9q-3 -3 -8 -3h-12h-537v13z" />
    <glyph glyph-name="lcaron" unicode="&#x13e;" horiz-adv-x="257" 
d="M229 573l9 133q1 33 11 49q9 15 29 15q35 0 35 -37q0 -17 -13 -42l-59 -121zM26 12v-1q21 6 30 13q10 8 15 24q4 16 6 44q1 18 1 72v415v61q0 21 -5 33q-5 11 -15 14q-13 4 -30 5v16l152 74v-618q0 -54 1 -72q1 -26 6 -43t15 -24q9 -7 30 -13v-13h-206v13z" />
    <glyph glyph-name="Ldot" unicode="&#x13f;" horiz-adv-x="630" 
d="M461 329v-1q-27 0 -46 18t-19 47q0 28 19 46t46 18q25 0 45 -18q19 -18 19 -46t-19 -46q-20 -18 -45 -18zM24 12l-5 -1q21 6 33 15t18 35q5 23 7 75q2 66 2 134v204q0 102 -1 135q-2 52 -7 75q-6 26 -18 35t-33 15v13h238v-13q-23 -6 -35 -15t-18 -35q-7 -28 -8 -75
q-1 -33 -1 -135v-461h184q43 0 80 5q33 4 57 21q25 17 42 46q18 29 36 80h18l-24 -137q-2 -12 -3 -17t-5 -9q-3 -3 -8 -3h-12h-537v13z" />
    <glyph glyph-name="ldot" unicode="&#x140;" horiz-adv-x="329" 
d="M293 305v-1q-27 0 -46 18t-19 47q0 28 19 46t46 18q25 0 45 -18q19 -18 19 -46t-19 -46q-20 -18 -45 -18zM25 12v-1q21 6 30 13q11 8 15 24t6 44q1 18 1 72v415v61q0 21 -5 33q-5 11 -15 14q-13 4 -30 5v16l152 74v-618q0 -54 1 -72q1 -26 6 -43q4 -17 15 -24
q9 -7 30 -13v-13h-206v13z" />
    <glyph glyph-name="Lslash" unicode="&#x141;" horiz-adv-x="630" 
d="M-8 254l-7 15l452 216l7 -15zM24 13l-5 -1q21 6 33 15t18 35q5 23 7 75q2 66 2 134v204q0 102 -1 135q-2 52 -7 75q-6 26 -18 35t-33 15v13h238v-13q-23 -6 -35 -15t-18 -35q-7 -28 -8 -75q-1 -33 -1 -135v-461h184q43 0 80 5q33 5 57 21q25 17 42 46q18 29 36 80h18
l-24 -137q-2 -12 -3 -17t-5 -9q-3 -3 -8 -3h-12h-537v13z" />
    <glyph glyph-name="lslash" unicode="&#x142;" horiz-adv-x="257" 
d="M10 295l-11 14l250 177l11 -14zM25 13v-1q21 6 30 13q11 7 15 24q4 16 6 44q1 18 1 72v415v61q0 21 -5 33q-5 11 -15 14q-13 4 -30 5v16l152 74v-618q0 -54 1 -72q1 -26 6 -43q4 -16 15 -24q9 -7 30 -13v-13h-206v13z" />
    <glyph glyph-name="Nacute" unicode="&#x143;" horiz-adv-x="761" 
d="M325 800l142 92q10 7 23 12t25 5q19 0 29 -12q11 -13 11 -26q0 -17 -12 -31q-11 -13 -44 -19l-169 -34zM22 12l-4 2q21 9 33 21t18 39q5 24 7 77q2 66 2 135v193q0 102 -1 134q-2 51 -7 74q-6 26 -18 35q-13 10 -33 17v13h178q10 0 14 -1q5 -1 10 -6q7 -7 11 -12
q2 -3 7.5 -9.5t8.5 -11.5l413 -547v301q0 102 -1 135q-1 49 -9 76q-8 28 -22 39q-15 12 -40 21v13h151v-13q-21 -9 -33 -21t-18 -39q-5 -24 -7 -76q-1 -33 -1 -135v-470h-32l-550 729v-442q0 -69 2 -135q1 -49 9 -76q8 -28 22 -39q15 -12 41 -21v-13h-151v13z" />
    <glyph glyph-name="nacute" unicode="&#x144;" horiz-adv-x="583" 
d="M238 537l94 129q13 18 26 30q11 10 29 10t27 -10t9 -27q0 -18 -10 -29q-11 -13 -25 -21l-140 -92zM27 11l-2 -4q18 7 26 13q10 8 14 24t6 44q1 18 1 72v106q0 51 -1 67q-1 24 -6 36q-4 11 -15 16q-10 5 -30 9v15l153 74v-127l43 40q23 20 33 29q17 14 38 27t42 20
q24 8 48 8q31 0 53 -7q25 -8 42 -22t28 -41q10 -24 10 -63v-185v-72q0 -25 5 -43q4 -16 14 -24q8 -6 26 -13v-13h-197v13q20 7 29 13q11 7 15 24q4 16 6 44q1 18 1 72v217q0 37 -17 54t-48 17t-61 -21t-67 -55l-43 -39v-173q0 -54 1 -72q1 -26 6 -43q4 -16 15 -24
q9 -6 29 -13v-13h-197v13z" />
    <glyph glyph-name="uni0145" unicode="&#x145;" horiz-adv-x="761" 
d="M388 -126l-2 -2q-2 -5 -9 -11t-22 -6q-19 0 -33 12q-13 12 -13 33q0 23 16 36t36 13q23 0 42 -16q20 -17 20 -51q0 -42 -24 -64t-65 -30l-5 11q37 11 51 27q14 17 14 33q0 11 -6 15zM22 11l-4 2q21 9 33 21t18 39q5 24 7 77q2 66 2 135v193q0 102 -1 134q-2 51 -7 74
q-6 26 -18 35q-13 10 -33 17v13h178q10 0 14 -1q5 -1 10 -6q7 -7 11 -12q2 -3 7.5 -10t8.5 -11l413 -547v301q0 102 -1 135q-1 49 -9 76q-8 28 -22 39q-15 12 -40 21v13h151v-13q-21 -9 -33 -21t-18 -39q-5 -24 -7 -76q-1 -33 -1 -135v-470h-32l-550 729v-442q0 -69 2 -135
q1 -49 9 -76q8 -28 22 -39q15 -12 41 -21v-13h-151v13z" />
    <glyph glyph-name="uni0146" unicode="&#x146;" horiz-adv-x="583" 
d="M313 -126l-2 -2q-2 -5 -9 -11q-8 -6 -22 -6q-20 0 -33 12t-13 33q0 23 16 36t36 13q23 0 42 -16q20 -17 20 -51q0 -42 -24 -64t-65 -30l-5 11q38 11 51 27q14 17 14 33q0 11 -6 15zM25 11l-2 -4q18 7 26 13q10 8 14 24t6 44q1 18 1 72v106q0 51 -1 67q-1 24 -6 36
q-4 11 -15 16q-10 5 -30 9v15l153 74v-127l43 40q22 20 33 29q17 14 38 27t42 20q24 8 48 8q31 0 53 -7q25 -8 42 -22t28 -41q10 -24 10 -63v-185v-72q0 -25 5 -43q4 -16 14 -24q8 -6 26 -13v-13h-197v13q20 7 29 13q11 7 15 24q4 16 6 44q1 18 1 72v217q0 37 -17 54t-48 17
t-61 -21t-67 -55l-43 -39v-173q0 -54 1 -72q1 -26 6 -43q4 -16 15 -24q9 -6 29 -13v-13h-197v13z" />
    <glyph glyph-name="Ncaron" unicode="&#x147;" horiz-adv-x="761" 
d="M288 921l134 -47l133 47l5 -12l-138 -119l-139 119zM24 13l-4 2q21 9 33 21t18 39q5 24 7 77q2 66 2 135v193q0 102 -1 134q-2 51 -7 74q-6 26 -18 35q-13 10 -33 17v13h178q10 0 14 -1q5 -1 10 -6q7 -7 11 -12q2 -2 7 -9.5t9 -11.5l413 -547v301q0 102 -1 135
q-1 49 -9 76q-8 28 -22 39q-15 12 -40 21v13h151v-13q-21 -9 -33 -21t-18 -39q-5 -24 -7 -76q-1 -33 -1 -135v-470h-32l-550 729v-442q0 -69 2 -135q1 -49 9 -76q8 -28 22 -39q15 -12 41 -21v-13h-151v13z" />
    <glyph glyph-name="ncaron" unicode="&#x148;" horiz-adv-x="583" 
d="M182 720l114 -83l115 83l11 -9l-126 -175l-125 175zM27 13l-2 -4q18 7 26 13q10 8 14 24t6 44q1 18 1 72v106q0 51 -1 67q-1 24 -6 36q-4 11 -15 16q-10 5 -30 9v15l153 74v-127l43 40q23 20 33 29q17 14 38 27t42 20q24 8 48 8q31 0 53 -7q25 -8 42 -22t28 -41
q10 -24 10 -63v-185v-72q0 -25 5 -43q4 -16 14 -24q8 -6 26 -13v-13h-197v13q20 7 29 13q11 7 15 24q4 16 6 44q1 18 1 72v217q0 37 -17 54t-48 17t-61 -21t-67 -55l-43 -39v-173q0 -54 1 -72q1 -26 6 -43q4 -16 15 -24q9 -6 29 -13v-13h-197v13z" />
    <glyph glyph-name="napostrophe" unicode="&#x149;" horiz-adv-x="583" 
d="M27 13l-2 -4q18 7 26 13q10 8 14 24t6 44q1 18 1 72v106q0 51 -1 67q-1 24 -6 36q-4 11 -15 16q-10 5 -30 9v15l153 74v-127l43 40q23 20 33 29q17 14 38 27t42 20q24 8 48 8q31 0 53 -7q25 -8 42 -22t28 -41q10 -24 10 -63v-185v-72q0 -25 5 -43q4 -16 14 -24
q8 -6 26 -13v-13h-197v13q20 7 29 13q11 7 15 24q4 16 6 44q1 18 1 72v217q0 37 -17 54t-48 17t-61 -21t-67 -55l-43 -39v-173q0 -54 1 -72q1 -26 6 -43q4 -16 15 -24q9 -6 29 -13v-13h-197v13zM41 674v3q-4 -7 -13 -13t-22 -6q-22 0 -37 15t-15 38q0 27 18 43q17 16 43 16
q13 0 24 -4q13 -5 23 -15q11 -11 17 -27t6 -39q0 -46 -29 -84t-75 -62l-7 10q38 24 57 51q20 28 20 50q0 20 -10 24z" />
    <glyph glyph-name="Eng" unicode="&#x14a;" horiz-adv-x="761" 
d="M24 13l-2 2q21 9 33 21t18 39q5 24 7 77q2 66 2 135v193q0 102 -1 134q-2 51 -7 74q-6 26 -18 35q-13 10 -33 17v13h178q10 0 14 -1q5 -1 10 -6q7 -7 11 -12q2 -2 7.5 -9.5t8.5 -11.5l413 -530v284q0 102 -1 135q-1 49 -9 76q-8 28 -22 39q-15 12 -40 21v13h151v-13
q-21 -9 -33 -21t-18 -39q-5 -24 -7 -76q-1 -33 -1 -135v-472q0 -56 -36 -94q-36 -37 -105 -37q-75 0 -118 25t-43 63q0 21 13 31t31 10q22 0 32 -10q11 -11 18 -39q5 -18 9 -29t12 -19t18 -12q9 -4 27 -4q58 0 89 31q32 32 32 85v2l-563 728v-442q0 -69 2 -135q1 -49 9 -76
q8 -28 22 -39q15 -12 41 -21v-13h-151v13z" />
    <glyph glyph-name="eng" unicode="&#x14b;" horiz-adv-x="583" 
d="M27 13l-4 -6q18 7 26 13q10 8 14 24t6 44q1 18 1 72v106q0 51 -1 67q-1 24 -6 36q-4 11 -15 16q-10 5 -30 9v15l153 74v-127l43 40q22 20 33 29q17 14 38 27t42 20q24 8 48 8q31 0 53 -7q25 -8 42 -22t28 -41q10 -24 10 -63v-281q0 -59 -26 -105q-25 -44 -74 -78
q-32 -23 -54 -30q-24 -8 -42 -8q-21 0 -35 10q-15 11 -15 33q0 20 12 29t28 9q14 0 24 -7t18 -15l15 -15q7 -7 17 -7q7 0 13 6t8 10q3 6 6 18q2 9 4 31q2 26 2 51v384q0 37 -17 54t-48 17t-61 -21t-67 -55l-43 -39v-173q0 -54 1 -72q1 -26 6 -43q4 -16 15 -24q9 -6 29 -13
v-13h-197v13z" />
    <glyph glyph-name="Omacron" unicode="&#x14c;" horiz-adv-x="863" 
d="M552 811h-236v47h236v-47zM432 -14v-1q-76 0 -147 30q-72 31 -125 82q-54 53 -87 124q-33 72 -33 155q0 82 33 153t87 123q53 51 125 82q71 30 147 30t146 -30q72 -31 125 -82q54 -52 87 -123t33 -153t-33 -154q-33 -71 -87 -124q-53 -51 -125 -82q-70 -30 -146 -30z
M432 1l-2 -1q52 0 100 21t84 66q37 46 59 116q22 69 22 171t-22 171q-23 71 -60 114q-38 45 -85 65q-48 21 -97 21q-50 0 -98 -21t-85 -64q-38 -44 -60 -114q-22 -69 -22 -171t22 -171q22 -70 59 -116q36 -45 84 -66t101 -21z" />
    <glyph glyph-name="omacron" unicode="&#x14d;" horiz-adv-x="574" 
d="M399 618v-45h-223v45h223zM287 -11h-2q-41 0 -86 15q-43 14 -82 47q-37 31 -63 78q-25 46 -25 108t25 108q26 47 63 78t83 48q44 16 86 16t86 -16q46 -17 83 -48t63 -78q25 -46 25 -108t-25 -108q-26 -47 -63 -78q-38 -32 -83 -47t-85 -15zM285 5l-2 -1q32 0 59 12
q28 12 47 39q20 28 32 72q12 45 12 109q0 62 -12 107t-31 73t-47 42q-26 13 -59 13t-59 -13q-28 -14 -47 -42t-31 -73t-12 -106q0 -64 12 -109q12 -44 32 -72q19 -27 47 -39q27 -12 59 -12z" />
    <glyph glyph-name="Obreve" unicode="&#x14e;" horiz-adv-x="863" 
d="M437 855l-4 -2q47 0 69 15t33 39h17q-2 -20 -9 -41q-7 -20 -21 -37q-13 -16 -35 -27q-20 -10 -50 -10q-28 0 -50 11q-21 11 -36 27q-14 15 -22 38q-7 21 -9 42h16q9 -22 32 -39q22 -16 69 -16zM428 -16v-1q-76 0 -147 30q-72 31 -125 82q-54 53 -87 124q-33 72 -33 155
q0 82 33 153t87 123q53 51 125 82q71 30 147 30t146 -30q72 -31 125 -82q54 -52 87 -123t33 -153t-33 -154q-33 -71 -87 -124q-53 -51 -125 -82q-70 -30 -146 -30zM428 -1l-2 -1q52 0 100 21t84 66q37 46 59 116q22 69 22 171t-22 171q-23 71 -60 114q-38 45 -85 65
q-48 21 -97 21q-50 0 -98 -21t-85 -64q-38 -44 -60 -114q-22 -69 -22 -171t22 -171q22 -70 59 -116q36 -45 84 -66t101 -21z" />
    <glyph glyph-name="obreve" unicode="&#x14f;" horiz-adv-x="574" 
d="M287 -11h-2q-41 0 -86 15q-43 14 -82 47q-37 31 -63 78q-25 46 -25 108t25 108q26 47 63 78t83 48q44 16 86 16t86 -16q46 -17 83 -48t63 -78q25 -46 25 -108t-25 -108q-26 -47 -63 -78q-38 -32 -83 -47t-85 -15zM285 5l-2 -1q32 0 59 12q28 12 47 39q20 28 32 72
q12 45 12 109q0 62 -12 107t-31 73t-47 42q-26 13 -59 13t-59 -13q-28 -14 -47 -42t-31 -73t-12 -106q0 -64 12 -109q12 -44 32 -72q19 -27 47 -39q27 -12 59 -12zM284 597l1 1q42 0 63 21t30 50h16q0 -26 -7 -48q-7 -24 -21 -42q-14 -19 -34 -30q-21 -12 -48 -12t-49 11
q-20 10 -34 29t-20 42q-6 24 -6 49h16q8 -30 28 -50q21 -21 65 -21z" />
    <glyph glyph-name="Ohungarumlaut" unicode="&#x150;" horiz-adv-x="863" 
d="M489 805l64 84q20 24 24 29q11 12 27 12q17 0 26 -12t9 -22q0 -26 -37 -45l-105 -57zM333 807l64 82q20 24 24 29q11 12 27 12q17 0 26 -12t9 -22q0 -14 -9 -24q-8 -9 -26 -19l-107 -57zM431 -12v-1q-77 0 -147 30q-72 31 -125 82q-54 53 -87 124q-33 72 -33 155
q0 82 33 153t87 123q53 51 125 82q70 30 147 30q75 0 146 -30q72 -31 125 -82q54 -52 87 -123t33 -153t-33 -154q-33 -71 -87 -124q-53 -51 -125 -82q-71 -30 -146 -30zM431 3l-2 -1q52 0 100 21t84 66q37 46 59 116q22 69 22 171t-22 171q-22 71 -60 114q-38 45 -85 65
q-48 21 -97 21q-50 0 -98 -21t-85 -64q-37 -44 -60 -114q-22 -69 -22 -171t22 -171q22 -70 59 -116q36 -45 84 -66t101 -21z" />
    <glyph glyph-name="ohungarumlaut" unicode="&#x151;" horiz-adv-x="574" 
d="M347 544l35 135q8 24 16 36q9 13 28 13q17 0 26 -10t9 -25q0 -21 -18 -42l-86 -112zM209 544l35 135q8 24 16 36q9 13 28 13q18 0 27 -10t9 -25q0 -19 -18 -42l-87 -112zM283 -11h-2q-41 0 -86 15q-43 14 -82 47q-37 31 -63 78q-25 46 -25 108t25 108q26 47 63 78t83 48
q44 16 86 16t86 -16q46 -17 83 -48t63 -78q25 -46 25 -108t-25 -108q-26 -47 -63 -78q-38 -32 -83 -47t-85 -15zM281 5l-2 -1q32 0 59 12q28 12 47 39q20 28 32 72q12 45 12 109q0 62 -12 107t-31 73t-47 42q-26 13 -59 13t-59 -13q-28 -14 -47 -42t-31 -73t-12 -106
q0 -64 12 -109q12 -44 32 -72q19 -27 47 -39q27 -12 59 -12z" />
    <glyph glyph-name="OE" unicode="&#x152;" horiz-adv-x="1145" 
d="M1052 750h-3q11 0 15 -4t9 -27l19 -110h-17q-17 39 -33 63q-17 24 -41 38t-58 18q-38 5 -85 5h-173v-306h69q44 0 66 7q25 8 36 19q13 13 17 27q3 10 9 32h15v-187h-15q-6 22 -9 32q-5 16 -16 27t-36 19q-22 7 -66 7h-69v-396h192q56 0 88 4q37 5 60 19q25 16 41 42
q18 29 32 73h17l-13 -122q-1 -22 -8 -27q-5 -4 -22 -4h-586q-99 0 -183 26q-82 25 -141 74q-59 48 -90 118q-32 72 -32 159q0 83 32 153q31 68 90 118q58 49 141 76q82 27 185 27h563zM486 734l-2 2q-79 0 -139 -18q-61 -18 -101 -60q-41 -43 -62 -111q-21 -69 -21 -169
q0 -101 23 -172q22 -68 65 -111q42 -42 102 -60t134 -18q32 0 51 8t26 36q8 29 9 81q2 70 2 141v175q0 111 -1 147q-2 56 -10 83q-9 28 -27 37t-49 9z" />
    <glyph glyph-name="oe" unicode="&#x153;" horiz-adv-x="912" 
d="M287 -11l-5 -2q-41 0 -86 15q-43 14 -82 47q-38 31 -63 78q-25 46 -25 108t25 108q25 47 63 78q37 31 83 48q44 16 86 16q29 0 56 -7q30 -8 56 -21t51 -35t42 -49q16 27 39 49q23 21 48 36q24 14 52 22q25 7 51 7q42 0 76 -10q37 -11 63 -31q28 -21 45 -52q17 -30 22 -72
h-335q-7 -32 -7 -82q0 -57 14 -101q13 -41 38 -69q24 -27 59 -39t75 -12q46 0 80 14t59 36l10 -12q-29 -29 -72 -48q-42 -19 -109 -19q-62 0 -119 26q-55 25 -90 83q-18 -27 -42 -48q-23 -20 -49 -34q-26 -13 -54 -21q-27 -7 -55 -7zM282 3l-2 -1q32 0 59 12q28 12 47 39
q20 28 32 72q12 45 12 109q0 62 -12 107t-31 73t-47 42q-26 13 -59 13t-59 -13q-28 -14 -47 -42t-31 -73t-12 -106q0 -64 12 -109q12 -44 32 -72q19 -27 47 -39q27 -12 59 -12zM673 467v-1q-40 0 -75 -31q-36 -31 -52 -100h234q-4 71 -32 102q-27 30 -75 30z" />
    <glyph glyph-name="Racute" unicode="&#x154;" horiz-adv-x="733" 
d="M259 800l142 92q10 7 23 12t25 5q18 0 29 -12q11 -13 11 -26q0 -17 -12 -31q-11 -13 -44 -19l-169 -34zM22 12v-3q21 6 33 15t18 35q5 23 7 75q2 66 2 134v204q0 102 -1 135q-2 52 -7 75q-6 26 -18 35t-33 15v13h311q96 0 158 -13q64 -13 104 -38q39 -24 57 -57t18 -73
q0 -51 -25 -86q-26 -36 -67 -60q-42 -24 -97 -36t-115 -12h-34q69 -10 120 -51q52 -41 74 -126q23 -84 55 -127q33 -43 84 -43q26 0 39 9q12 8 24 20l9 -9q-5 -7 -14 -17q-10 -10 -23 -17q-11 -6 -33 -13q-20 -6 -45 -6q-36 0 -69 9t-61 31t-51 62q-22 39 -36 101
q-16 67 -28 100q-14 37 -31 53q-18 17 -43 21q-23 4 -63 4h-46v-101q0 -67 2 -133q1 -47 8 -75q6 -26 18 -35t33 -15v-13h-234v13zM196 730v-346h170q96 0 145 44q48 44 48 123q0 41 -10 72q-11 33 -36 57q-25 23 -70 37q-43 13 -114 13h-133z" />
    <glyph glyph-name="racute" unicode="&#x155;" horiz-adv-x="395" 
d="M163 537l94 129q13 18 26 30q11 10 29 10t27 -10t9 -27q0 -18 -10 -29q-11 -13 -25 -21l-140 -92zM27 11l-2 -2q18 7 26 13q10 8 14 24t6 44q1 18 1 72v102q0 52 -1 68q-1 24 -6 36q-5 13 -15 17q-10 5 -30 9v15l153 74v-126l40 44q25 28 39 41q16 14 32 24q15 9 27 12
t25 3q24 0 36 -12t12 -31q0 -22 -12 -36q-12 -13 -29 -13q-14 0 -22 4l-18 9l-18 9q-8 4 -19 4t-22 -7q-12 -8 -30 -27l-40 -44v-174q0 -54 1 -72q2 -28 7 -43q6 -16 17 -24q9 -7 30 -13v-13h-202v13z" />
    <glyph glyph-name="uni0156" unicode="&#x156;" horiz-adv-x="733" 
d="M383 -126l-2 -2q-2 -5 -9 -11q-8 -6 -22 -6q-20 0 -33 12t-13 33q0 23 16 36t36 13q23 0 42 -16q20 -17 20 -51q0 -42 -24 -64t-65 -30l-5 11q38 11 51 27q14 17 14 33q0 11 -6 15zM22 11v-3q21 6 33 15t18 35q5 23 7 75q2 66 2 134v204q0 102 -1 135q-2 52 -7 75
q-6 26 -18 35t-33 15v13h311q96 0 158 -13q64 -13 104 -38q39 -24 57 -57t18 -73q0 -51 -25 -86q-26 -36 -67 -60q-42 -24 -97 -36t-115 -12h-34q69 -11 120 -51q52 -41 74 -126q23 -84 55 -127q33 -43 84 -43q26 0 39 9q12 8 24 20l9 -9q-5 -8 -14 -17q-10 -9 -23 -17
q-11 -6 -33 -13q-20 -6 -45 -6q-36 0 -69 9t-61 31t-51 62q-22 39 -36 101q-16 67 -28 100q-14 37 -31 53q-18 17 -43 21q-23 4 -63 4h-46v-101q0 -67 2 -133q1 -47 8 -75q6 -26 18 -35t33 -15v-13h-234v13zM196 729v-346h170q96 0 145 44q48 43 48 123q0 41 -10 72
q-11 33 -36 57q-25 23 -70 37q-43 13 -114 13h-133z" />
    <glyph glyph-name="uni0157" unicode="&#x157;" horiz-adv-x="395" 
d="M143 -126l-2 -2q-2 -5 -9 -11t-22 -6q-20 0 -33 12t-13 33q0 23 16 36t36 13q23 0 42 -16q20 -17 20 -51q0 -42 -24 -64t-65 -30l-5 11q38 11 51 27q14 17 14 33q0 11 -6 15zM25 11l-2 -2q18 7 26 13q10 8 14 24t6 44q1 18 1 72v102q0 52 -1 68q-1 24 -6 36q-5 13 -15 17
q-10 5 -30 9v15l153 74v-126l40 44q25 28 39 41q16 14 32 24q15 9 27 12t25 3q24 0 36 -12t12 -31q0 -22 -12 -36q-12 -13 -29 -13q-14 0 -22 4l-18 9l-18 9q-8 4 -19 4t-22 -7q-12 -8 -30 -27l-40 -44v-174q0 -54 1 -72q2 -28 7 -43q6 -16 17 -24q9 -7 30 -13v-13h-202v13z
" />
    <glyph glyph-name="Rcaron" unicode="&#x158;" horiz-adv-x="733" 
d="M222 921l134 -47l133 47l5 -12l-138 -119l-139 119zM24 13v-3q21 6 33 15t18 35q5 23 7 75q2 66 2 134v204q0 102 -1 135q-2 52 -7 75q-6 26 -18 35t-33 15v13h311q96 0 158 -13q64 -13 104 -38q39 -24 57 -57t18 -73q0 -51 -25 -86q-26 -36 -67 -60q-42 -24 -97 -36
q-56 -12 -115 -12h-34q69 -11 120 -51q52 -41 74 -126q23 -84 55 -127q33 -43 84 -43q26 0 39 9q12 8 24 20l9 -9q-4 -7 -14 -17q-10 -9 -23 -17q-11 -6 -33 -13q-20 -6 -45 -6q-36 0 -69 9t-61 31t-51 62q-22 39 -36 101q-16 67 -28 100q-14 37 -31 53q-18 17 -43 21
q-23 4 -63 4h-46v-101q0 -67 2 -133q1 -47 8 -75q6 -26 18 -35t33 -15v-13h-234v13zM198 731v-346h170q96 0 145 44q48 43 48 123q0 41 -10 72q-11 33 -36 57q-25 23 -70 37q-43 13 -114 13h-133z" />
    <glyph glyph-name="rcaron" unicode="&#x159;" horiz-adv-x="395" 
d="M105 720l114 -83l115 83l11 -9l-126 -175l-125 175zM27 13l-2 -2q18 7 26 13q10 8 14 24t6 44q1 18 1 72v102q0 52 -1 68q-1 24 -6 36q-5 13 -15 17q-10 5 -30 9v15l153 74v-126l40 44q25 28 39 41q16 14 32 24q15 9 27 12t25 3q24 0 36 -12t12 -31q0 -22 -12 -36
q-12 -13 -29 -13q-14 0 -22 4l-18 9l-18 9q-8 4 -19 4t-22 -7q-12 -8 -30 -27l-40 -44v-174q0 -54 1 -72q2 -28 7 -43q6 -16 17 -24q9 -7 30 -13v-13h-202v13z" />
    <glyph glyph-name="Sacute" unicode="&#x15a;" horiz-adv-x="630" 
d="M315 -11l-3 -1q-52 0 -87 9q-31 8 -60 20q-10 4 -26 11t-20 9q-21 9 -43 9q-20 0 -27 -21h-17v188h17q17 -97 87 -153q70 -55 179 -55q99 0 145 42t46 112q0 36 -10 60q-11 26 -36 47q-26 21 -69 39q-48 20 -108 38q-53 17 -96 36q-42 19 -75 44q-32 24 -48 57
q-17 34 -17 78t19 81t52 64t78 42t98 15q46 0 75 -7q37 -9 56 -16q36 -14 42 -16q17 -7 35 -7q15 0 20 4q7 5 8 15h17v-148h-17q-22 73 -84 117q-61 43 -153 43q-81 0 -127 -35q-45 -34 -45 -95q0 -24 9 -45t32 -41q21 -18 62 -37q38 -18 98 -36q59 -17 107 -36
q52 -20 86 -46q37 -27 57 -61q21 -35 21 -84q0 -54 -21 -99t-58 -76q-38 -32 -88 -48q-53 -17 -111 -17zM208 799l142 92q10 7 23 12t25 5q18 0 29 -12q11 -13 11 -26q0 -18 -12 -31q-11 -13 -44 -19l-169 -34z" />
    <glyph glyph-name="sacute" unicode="&#x15b;" horiz-adv-x="439" 
d="M156 537l94 129q13 18 26 30q11 10 29 10t27 -10t9 -27q0 -18 -10 -29q-11 -13 -25 -21l-140 -92zM215 5l-1 -4q60 0 92 29t32 71q0 22 -7 36q-8 16 -24 26q-17 11 -42 18t-63 15q-41 7 -73 18q-31 10 -52 27q-20 16 -31 39q-10 21 -10 54q0 32 14 60q13 26 38 45
q22 17 56 28q30 10 66 10q28 0 45 -4q23 -5 36 -10q6 -2 15.5 -5.5t13.5 -4.5q11 -4 23 -4q15 0 18 15h17v-112h-17q-19 53 -57 82q-37 28 -94 28q-51 0 -84 -21t-33 -65q0 -38 32 -55q31 -17 99 -30q94 -16 138 -47q44 -30 44 -93q0 -38 -16 -67q-17 -31 -43 -51
q-27 -21 -61 -33t-72 -12q-32 0 -54 6t-39 12q-18 7 -29 12q-12 6 -24 6q-17 0 -20 -17h-18v129h17q8 -25 23 -51q14 -24 33 -42q19 -17 48 -28q27 -10 64 -10z" />
    <glyph glyph-name="Scircumflex" unicode="&#x15c;" horiz-adv-x="630" 
d="M309 917l138 -120l-5 -12l-133 48l-134 -48l-5 12zM315 -11l-3 -1q-52 0 -87 9q-31 8 -60 20q-10 4 -26 11t-20 9q-21 9 -43 9q-20 0 -27 -21h-17v188h17q17 -97 87 -153q70 -55 179 -55q99 0 145 42t46 112q0 36 -10 60q-11 26 -36 47q-26 21 -69 39q-48 20 -108 38
q-53 17 -96 36q-42 19 -75 44q-32 24 -48 57q-17 34 -17 78t19 81t52 64t78 42t98 15q46 0 75 -7q37 -9 56 -16q36 -14 42 -16q17 -7 35 -7q15 0 20 4q7 5 8 15h17v-148h-17q-22 73 -84 117q-61 43 -153 43q-81 0 -127 -35q-45 -34 -45 -95q0 -24 9 -45t32 -41
q21 -18 62 -37q38 -18 98 -36q59 -17 107 -36q52 -20 86 -46q37 -27 57 -61q21 -35 21 -84q0 -54 -21 -99t-58 -76q-38 -32 -88 -48q-53 -17 -111 -17z" />
    <glyph glyph-name="scircumflex" unicode="&#x15d;" horiz-adv-x="439" 
d="M213 710l126 -175l-11 -9l-115 83l-114 -83l-11 9zM215 7l-1 -4q60 0 92 29t32 71q0 22 -7 36q-8 16 -24 26q-17 11 -42 18t-63 15q-41 7 -73 18q-31 10 -52 27q-20 16 -31 39q-10 21 -10 54q0 32 14 60q13 26 38 45q22 17 56 28q30 10 66 10q28 0 45 -4q23 -5 36 -10
q6 -2 15.5 -5.5t13.5 -4.5q11 -4 23 -4q15 0 18 15h17v-112h-17q-19 53 -57 82q-37 28 -94 28q-51 0 -84 -21t-33 -65q0 -38 32 -55q31 -17 99 -30q94 -16 138 -47q44 -30 44 -93q0 -38 -16 -67q-17 -31 -43 -51q-27 -21 -61 -33t-72 -12q-32 0 -54 6t-39 12q-18 7 -29 12
q-12 6 -24 6q-17 0 -20 -17h-18v129h17q8 -25 23 -51q14 -24 33 -42q19 -17 48 -28q27 -10 64 -10z" />
    <glyph glyph-name="uni015E" unicode="&#x15e;" horiz-adv-x="630" 
d="M300 1l-32 -50q38 -7 64 -27q25 -19 25 -45q0 -40 -41 -60q-40 -19 -123 -24l-1 15q98 11 98 46q0 18 -18 27q-19 10 -52 11l-4 7l62 100h22zM314 -10l-3 -1q-53 0 -87 9q-31 8 -60 20q-10 4 -26 11t-20 9q-21 9 -43 9q-19 0 -27 -21h-17v188h17q16 -98 87 -153
q70 -55 179 -55q98 0 145 42q46 42 46 112q0 36 -10 60q-11 26 -36 47t-69 39q-48 20 -108 38q-52 16 -96 36q-42 19 -75 44q-31 24 -48 57q-17 34 -17 78t19 81t52 64t78 42t98 15q46 0 75 -7q37 -9 56 -16q36 -13 42 -16q17 -7 35 -7q15 0 20 4q7 5 8 15h17v-148h-17
q-23 74 -84 117t-153 43q-81 0 -127 -35q-45 -35 -45 -95q0 -24 9 -45t32 -41q21 -18 62 -37q38 -18 98 -36q59 -17 107 -36q52 -20 86 -46q37 -27 57 -61q21 -34 21 -84q0 -54 -21 -99t-58 -76q-38 -32 -88 -48q-53 -17 -111 -17z" />
    <glyph glyph-name="uni015F" unicode="&#x15f;" horiz-adv-x="439" 
d="M218 -1l-31 -48q38 -7 64 -27q25 -19 25 -45q0 -40 -41 -60q-41 -19 -123 -24l-2 15q99 10 99 46q0 18 -18 27q-19 10 -52 11l-4 7l61 98h22zM214 8l-1 -4q60 0 92 29t32 71q0 22 -7 36q-8 16 -24 26t-42 18t-63 15q-41 7 -73 18q-31 10 -52 27q-20 16 -31 39
q-10 21 -10 54q0 32 14 60q13 26 38 45q22 17 56 28q30 10 66 10q28 0 45 -4q23 -5 36 -10q6 -2 15.5 -5.5t13.5 -4.5q11 -4 23 -4q15 0 18 15h17v-112h-17q-19 53 -57 82q-37 28 -94 28q-51 0 -84 -21t-33 -65q0 -38 32 -55q32 -16 99 -30q94 -16 138 -47q44 -30 44 -93
q0 -38 -16 -67q-17 -31 -43 -51q-27 -21 -61 -33q-35 -12 -72 -12q-31 0 -54 6t-39 12q-18 7 -29 12q-12 6 -24 6q-17 0 -20 -17h-18v129h17q8 -25 23 -51q13 -24 33 -42q19 -17 48 -28q27 -10 64 -10z" />
    <glyph glyph-name="Scaron" unicode="&#x160;" horiz-adv-x="630" 
d="M175 921l134 -47l133 47l5 -12l-138 -119l-139 119zM315 -11l-3 -1q-52 0 -87 9q-31 8 -60 20q-10 4 -26 11t-20 9q-21 9 -43 9q-20 0 -27 -21h-17v188h17q17 -97 87 -153q70 -55 179 -55q99 0 145 42t46 112q0 36 -10 60q-11 26 -36 47q-26 21 -69 39q-48 20 -108 38
q-53 17 -96 36q-42 19 -75 44q-32 24 -48 57q-17 34 -17 78t19 81t52 64t78 42t98 15q46 0 75 -7q37 -9 56 -16q36 -14 42 -16q17 -7 35 -7q15 0 20 4q7 5 8 15h17v-148h-17q-22 73 -84 117q-61 43 -153 43q-81 0 -127 -35q-45 -34 -45 -95q0 -24 9 -45t32 -41
q21 -18 62 -37q38 -18 98 -36q59 -17 107 -36q52 -20 86 -46q37 -27 57 -61q21 -35 21 -84q0 -54 -21 -99t-58 -76q-38 -32 -88 -48q-53 -17 -111 -17z" />
    <glyph glyph-name="scaron" unicode="&#x161;" horiz-adv-x="439" 
d="M98 720l114 -83l115 83l11 -9l-126 -175l-125 175zM215 7l-1 -4q60 0 92 29t32 71q0 22 -7 36q-8 16 -24 26q-17 11 -42 18t-63 15q-41 7 -73 18q-31 10 -52 27q-20 16 -31 39q-10 21 -10 54q0 32 14 60q13 26 38 45q22 17 56 28q30 10 66 10q28 0 45 -4q23 -5 36 -10
q6 -2 15.5 -5.5t13.5 -4.5q11 -4 23 -4q15 0 18 15h17v-112h-17q-19 53 -57 82q-37 28 -94 28q-51 0 -84 -21t-33 -65q0 -38 32 -55q31 -17 99 -30q94 -16 138 -47q44 -30 44 -93q0 -38 -16 -67q-17 -31 -43 -51q-27 -21 -61 -33t-72 -12q-32 0 -54 6t-39 12q-18 7 -29 12
q-12 6 -24 6q-17 0 -20 -17h-18v129h17q8 -25 23 -51q14 -24 33 -42q19 -17 48 -28q27 -10 64 -10z" />
    <glyph glyph-name="Tcommaaccent" unicode="&#x162;" horiz-adv-x="734" 
d="M386 -126l-2 -2q-2 -5 -9 -11t-22 -6q-19 0 -33 12q-13 12 -13 33q0 23 16 36t36 13q23 0 42 -16q20 -17 20 -51q0 -42 -24 -64t-65 -30l-5 11q37 11 51 27q14 17 14 33q0 11 -6 15zM249 11l-4 -2q20 7 33 17q12 9 18 35q5 23 7 75q2 66 2 133v461h-53q-54 0 -86 -4
q-38 -5 -62 -19q-26 -15 -42 -45q-17 -30 -27 -82h-19l14 137q3 23 7 27t18 4h615q14 0 18 -4t6 -27l16 -137h-19q-11 51 -27 81q-17 30 -43 45q-28 16 -63 20q-40 5 -86 5h-50v-461q0 -67 2 -133q1 -47 8 -75q6 -26 18 -35q11 -8 33 -16v-13h-234v13z" />
    <glyph glyph-name="tcommaaccent" unicode="&#x163;" horiz-adv-x="313" 
d="M201 -126l-2 -2q-2 -5 -9 -11q-8 -6 -22 -6q-20 0 -33 12t-13 33q0 23 16 36t36 13q23 0 42 -16q20 -17 20 -51q0 -42 -24 -64t-65 -30l-5 11q38 11 51 27q14 17 14 33q0 11 -6 15zM191 -11l2 -1q-63 0 -93 30t-30 75v359h-42v15q20 3 41 15q22 13 38 33t30 53
q14 34 20 73h15v-170h111v-19h-111v-333q0 -55 11 -82q10 -25 45 -25q20 0 33 9t21 18l10 -9q-3 -4 -12 -13q-7 -7 -19 -13q-14 -7 -29 -11t-41 -4z" />
    <glyph glyph-name="Tcaron" unicode="&#x164;" horiz-adv-x="734" 
d="M235 921l134 -47l133 47l5 -12l-138 -119l-139 119zM251 13l-4 -2q20 7 33 17q12 9 18 35q5 23 7 75q2 66 2 133v461h-53q-54 0 -86 -4q-38 -5 -62 -19q-26 -15 -42 -45q-17 -30 -27 -82h-19l14 137q3 23 7 27t18 4h615q14 0 18 -4t6 -27l16 -137h-19q-11 51 -27 81
q-17 30 -43 45q-28 16 -63 20q-40 5 -86 5h-50v-461q0 -67 2 -133q1 -47 8 -75q6 -26 18 -35q11 -8 33 -16v-13h-234v13z" />
    <glyph glyph-name="tcaron" unicode="&#x165;" horiz-adv-x="313" 
d="M220 539l9 133q1 33 11 49q9 15 29 15q35 0 35 -37q0 -17 -13 -42l-59 -121zM194 -10l2 -1q-63 0 -93 30t-30 75v359h-42v15q20 3 41 15q22 13 38 33t30 53t20 73h15v-170h111v-19h-111v-333q0 -55 11 -82q10 -25 45 -25q19 0 33 9t21 18l10 -9q-3 -4 -12 -13
q-7 -7 -19 -13q-14 -7 -29 -11t-41 -4z" />
    <glyph glyph-name="Tbar" unicode="&#x166;" horiz-adv-x="734" 
d="M156 431h423v-16h-423v16zM251 13l-4 -2q20 7 33 17q12 9 18 35q5 23 7 75q2 66 2 133v461h-53q-54 0 -86 -4q-38 -5 -62 -19q-26 -15 -42 -45q-17 -30 -27 -82h-19l14 137q3 23 7 27t18 4h615q14 0 18 -4t6 -27l16 -137h-19q-11 51 -27 81q-17 30 -43 45q-28 16 -63 20
q-40 5 -86 5h-50v-461q0 -67 2 -133q1 -47 8 -75q6 -26 18 -35q11 -8 33 -16v-13h-234v13z" />
    <glyph glyph-name="tbar" unicode="&#x167;" horiz-adv-x="313" 
d="M29 313h249v-18h-249v18zM193 -9l2 -1q-63 0 -93 30t-30 75v359h-42v15q20 3 41 15q22 13 38 33t30 53q14 34 20 73h15v-170h111v-19h-111v-333q0 -55 11 -82q10 -25 45 -25q20 0 33 9t21 18l10 -9q-3 -4 -12 -13q-7 -7 -19 -13q-14 -7 -29 -11t-41 -4z" />
    <glyph glyph-name="Utilde" unicode="&#x168;" 
d="M412 -13l-1 -2q-79 0 -141 18q-61 18 -105 56q-43 37 -66 95t-23 135v186q0 102 -1 135q-1 50 -6 75q-5 27 -16 35q-12 9 -31 15v13h228v-13q-21 -6 -33 -15t-18 -35q-5 -23 -7 -75q-1 -33 -1 -135v-213q0 -67 10 -114q10 -49 36 -82q25 -32 69 -49q42 -16 109 -16
q60 0 111 14q50 13 84 45q35 32 53 84q18 53 18 131v189q0 102 -1 135q-2 50 -9 77q-8 28 -22 39q-15 12 -41 21v13h151v-13q-21 -9 -33 -21t-18 -39q-5 -24 -7 -76q-1 -33 -1 -135v-189q0 -78 -20 -135q-20 -55 -57 -90q-37 -34 -91 -49t-120 -15zM386 888h-1q19 0 31 -1
l36 -3q12 -1 34 -3q11 -1 27 -1q14 0 29 9t32 35l12 -4q-12 -50 -34 -78t-51 -28q-6 0 -30 2l-36 3q-12 1 -34 3t-27 2q-13 0 -28 -9q-16 -9 -33 -37l-12 4q17 56 39 81t46 25z" />
    <glyph glyph-name="utilde" unicode="&#x169;" horiz-adv-x="568" 
d="M203 -9l1 -6q-30 0 -52 7q-24 8 -42 24q-17 16 -28 42q-10 24 -10 61v154q0 48 -1 63q-1 22 -6 34q-4 11 -15 16q-10 4 -30 9v15l153 74v-389q0 -41 17 -60q16 -18 47 -18q29 0 60 19q33 20 75 61l22 20v157q0 48 -1 63q-1 22 -6 34q-4 11 -15 16q-10 5 -30 9v15l154 74
v-321q0 -54 1 -72q1 -26 6 -43t15 -24q9 -7 30 -13v-13h-155v98l-22 -20q-37 -35 -78 -60q-41 -26 -90 -26zM253 644h-1q29 0 58 -7t54 -7q10 0 24 9q15 10 29 37l12 -6q-11 -46 -30 -75q-19 -28 -47 -28q-26 0 -56 6t-56 6q-11 0 -25 -8q-12 -7 -31 -38l-12 6q16 51 36 78
t45 27z" />
    <glyph glyph-name="Umacron" unicode="&#x16a;" 
d="M412 -13l-1 -2q-79 0 -141 18q-61 18 -105 56q-43 37 -66 95t-23 135v186q0 102 -1 135q-1 50 -6 75q-5 27 -16 35q-12 9 -31 15v13h228v-13q-21 -6 -33 -15t-18 -35q-5 -23 -7 -75q-1 -33 -1 -135v-213q0 -67 10 -114q10 -49 36 -82q25 -32 69 -49q42 -16 109 -16
q60 0 111 14q50 13 84 45q35 32 53 84q18 53 18 131v189q0 102 -1 135q-2 50 -9 77q-8 28 -22 39q-15 12 -41 21v13h151v-13q-21 -9 -33 -21t-18 -39q-5 -24 -7 -76q-1 -33 -1 -135v-189q0 -78 -20 -135q-20 -55 -57 -90q-37 -34 -91 -49t-120 -15zM551 809h-236v47h236v-47
z" />
    <glyph glyph-name="umacron" unicode="&#x16b;" horiz-adv-x="568" 
d="M203 -9l1 -6q-30 0 -52 7q-24 8 -42 24q-17 16 -28 42q-10 24 -10 61v154q0 48 -1 63q-1 22 -6 34q-4 11 -15 16q-10 4 -30 9v15l153 74v-389q0 -41 17 -60q16 -18 47 -18q29 0 60 19q33 20 75 61l22 20v157q0 48 -1 63q-1 22 -6 34q-4 11 -15 16q-10 5 -30 9v15l154 74
v-321q0 -54 1 -72q1 -26 6 -43t15 -24q9 -7 30 -13v-13h-155v98l-22 -20q-37 -35 -78 -60q-41 -26 -90 -26zM409 612v-45h-223v45h223z" />
    <glyph glyph-name="Ubreve" unicode="&#x16c;" 
d="M412 -13l-1 -2q-79 0 -141 18q-61 18 -105 56q-43 37 -66 95t-23 135v186q0 102 -1 135q-1 50 -6 75q-5 27 -16 35q-12 9 -31 15v13h228v-13q-21 -6 -33 -15t-18 -35q-5 -23 -7 -75q-1 -33 -1 -135v-213q0 -67 10 -114q10 -49 36 -82q25 -32 69 -49q42 -16 109 -16
q60 0 111 14q50 13 84 45q35 32 53 84q18 53 18 131v189q0 102 -1 135q-2 50 -9 77q-8 28 -22 39q-15 12 -41 21v13h151v-13q-21 -9 -33 -21t-18 -39q-5 -24 -7 -76q-1 -33 -1 -135v-189q0 -78 -20 -135q-20 -55 -57 -90q-37 -34 -91 -49t-120 -15zM433 853l-4 -2
q47 0 69 15t33 39h17q-2 -20 -9 -41q-7 -20 -21 -37q-13 -16 -35 -27q-20 -10 -50 -10q-28 0 -50 11q-21 11 -36 27q-14 15 -22 38q-7 21 -9 42h16q9 -22 32 -39q22 -16 69 -16z" />
    <glyph glyph-name="ubreve" unicode="&#x16d;" horiz-adv-x="568" 
d="M203 -9l1 -6q-30 0 -52 7q-24 8 -42 24q-17 16 -28 42q-10 24 -10 61v154q0 48 -1 63q-1 22 -6 34q-4 11 -15 16q-10 4 -30 9v15l153 74v-389q0 -41 17 -60q16 -18 47 -18q29 0 60 19q33 20 75 61l22 20v157q0 48 -1 63q-1 22 -6 34q-4 11 -15 16q-10 5 -30 9v15l154 74
v-321q0 -54 1 -72q1 -26 6 -43t15 -24q9 -7 30 -13v-13h-155v98l-22 -20q-37 -35 -78 -60q-41 -26 -90 -26zM298 592l1 1q42 0 63 21t30 50h16q0 -26 -7 -48q-7 -24 -21 -42t-34 -30q-21 -12 -48 -12t-49 11q-20 10 -34 29t-20 42q-6 24 -6 49h16q8 -30 28 -50
q21 -21 65 -21z" />
    <glyph glyph-name="Uring" unicode="&#x16e;" 
d="M412 -13l-1 -2q-79 0 -141 18q-61 18 -105 56q-43 37 -66 95t-23 135v186q0 102 -1 135q-1 50 -6 75q-5 27 -16 35q-12 9 -31 15v13h228v-13q-21 -6 -33 -15t-18 -35q-5 -23 -7 -75q-1 -33 -1 -135v-213q0 -67 10 -114q10 -49 36 -82q25 -32 69 -49q42 -16 109 -16
q60 0 111 14q50 13 84 45q35 32 53 84q18 53 18 131v189q0 102 -1 135q-2 50 -9 77q-8 28 -22 39q-15 12 -41 21v13h151v-13q-21 -9 -33 -21t-18 -39q-5 -24 -7 -76q-1 -33 -1 -135v-189q0 -78 -20 -135q-20 -55 -57 -90q-37 -34 -91 -49t-120 -15zM354 824l-2 -1
q0 37 26 60t60 23q35 0 60 -22q26 -23 26 -60q0 -38 -25 -60t-60 -22t-60 22t-25 60zM392 823h-1q0 -65 45 -65q21 0 33 17t12 48t-12 49t-32 18q-21 0 -33 -18t-12 -49z" />
    <glyph glyph-name="uring" unicode="&#x16f;" horiz-adv-x="568" 
d="M210 610l-1 -1q0 37 26 60t60 23q35 0 60 -22q26 -23 26 -60q0 -38 -25 -60t-61 -22q-35 0 -60 22t-25 60zM249 609q0 -65 46 -65t46 65q0 31 -12 49t-34 18t-34 -18t-12 -49zM202 -10l1 -6q-30 0 -52 7q-24 7 -42 24q-17 16 -28 42q-10 24 -10 61v154q0 48 -1 63
q-1 22 -6 34q-4 11 -15 16t-30 9v15l153 74v-389q0 -41 17 -60q17 -18 47 -18q29 0 60 19q33 20 75 61l22 20v157q0 48 -1 63q-1 22 -6 34q-4 11 -15 16q-11 4 -30 9v15l154 74v-321q0 -54 1 -72q1 -26 6 -43q4 -16 15 -24q9 -7 30 -13v-13h-155v98l-22 -20q-38 -34 -78 -60
q-41 -26 -90 -26z" />
    <glyph glyph-name="Uhungarumlaut" unicode="&#x170;" 
d="M489 805l64 84q20 24 24 29q11 12 27 12q17 0 26 -12t9 -22q0 -26 -37 -45l-105 -57zM333 807l64 82q20 24 24 29q11 12 27 12q17 0 26 -12t9 -22q0 -14 -9 -24q-8 -9 -26 -19l-107 -57zM411 -11l-1 -2q-80 0 -141 18t-105 56q-43 37 -66 95t-23 135v186q0 102 -1 135
q-2 50 -6 75q-5 27 -16 35q-12 9 -31 15v13h228v-13q-21 -6 -33 -15t-18 -35q-5 -23 -7 -75q-1 -33 -1 -135v-213q0 -67 10 -114q10 -49 36 -82q25 -32 69 -49q42 -16 109 -16q60 0 111 14q49 13 84 45t53 84t18 131v189q0 102 -1 135q-2 50 -9 77q-8 28 -22 39
q-15 12 -41 21v13h151v-13q-21 -9 -33 -21t-18 -39q-5 -24 -7 -76q-1 -33 -1 -135v-189q0 -78 -20 -135q-19 -55 -57 -90q-37 -34 -91 -49t-120 -15z" />
    <glyph glyph-name="uhungarumlaut" unicode="&#x171;" horiz-adv-x="568" 
d="M203 -9l1 -6q-30 0 -52 7q-24 8 -42 24q-17 16 -28 42q-10 24 -10 61v154q0 48 -1 63q-1 22 -6 34q-4 11 -15 16q-10 4 -30 9v15l153 74v-389q0 -41 17 -60q16 -18 47 -18q29 0 60 19q33 20 75 61l22 20v157q0 48 -1 63q-1 22 -6 34q-4 11 -15 16q-10 5 -30 9v15l154 74
v-321q0 -54 1 -72q1 -26 6 -43t15 -24q9 -7 30 -13v-13h-155v98l-22 -20q-37 -35 -78 -60q-41 -26 -90 -26zM347 538l35 135q8 24 16 36q9 13 28 13q17 0 26 -10t9 -25q0 -21 -18 -42l-86 -112zM209 538l35 135q8 24 16 36q9 13 28 13q18 0 27 -10t9 -25q0 -19 -18 -42
l-87 -112z" />
    <glyph glyph-name="Uogonek" unicode="&#x172;" 
d="M448 -167v-7q-38 0 -63 18q-26 18 -26 47q0 35 33 57t81 36q-37 -3 -60 -3q-158 0 -247 74q-88 73 -88 231v186q0 102 -1 135q-1 49 -6 75q-5 27 -16 35q-12 9 -31 15v13h228v-13q-21 -6 -33 -15t-18 -35q-5 -23 -7 -75q-1 -33 -1 -135v-213q0 -68 10 -114q11 -48 36 -81
q25 -32 69 -49q42 -16 110 -16q60 0 111 14q49 13 84 45t53 84q18 53 18 131v189q0 102 -1 135q-2 50 -9 77q-8 28 -22 39q-15 12 -41 21v13h151v-13q-21 -9 -33 -21t-18 -39q-5 -24 -7 -76q-1 -33 -1 -135v-189q0 -60 -10 -103q-11 -45 -30 -78t-48 -54q-27 -20 -63 -34
q-35 -15 -43 -19q-21 -10 -33 -19q-14 -11 -21 -24t-7 -31q0 -22 12 -36q12 -13 33 -13q14 0 23 6q12 8 17 12l9 -10q-3 -4 -10 -10q-8 -6 -18 -12q-12 -7 -27 -11q-18 -5 -39 -5z" />
    <glyph glyph-name="uogonek" unicode="&#x173;" horiz-adv-x="568" 
d="M203 -9l1 -10q-30 0 -52 7q-24 8 -42 24q-17 16 -28 42q-10 24 -10 61v154q0 48 -1 63q-1 22 -6 34q-4 11 -15 16q-10 4 -30 9v15l153 74v-389q0 -41 17 -60q16 -18 47 -18q29 0 60 19q33 20 75 61l22 20v157q0 48 -1 63q-1 22 -6 34q-4 11 -15 16q-10 5 -30 9v15l154 74
v-321q0 -54 1 -72q1 -26 6 -43t15 -24q9 -7 30 -13v-13h-130q-19 -10 -34 -31t-15 -54q0 -22 12 -36q12 -13 33 -13q14 0 23 6q12 8 17 12l9 -10q-3 -4 -10 -10q-8 -7 -19 -12q-15 -7 -28 -11q-18 -5 -37 -5q-37 0 -63 18t-26 50q0 23 12 39q13 17 30 29q19 13 38 20
q20 7 33 12v98l-22 -20q-37 -35 -78 -60q-41 -26 -90 -26z" />
    <glyph glyph-name="Wcircumflex" unicode="&#x174;" horiz-adv-x="1065" 
d="M567 917l138 -120l-5 -12l-133 48l-134 -48l-5 12zM96 623l-8 -3q-3 8 -9 23.5t-9 22.5q-8 20 -15 33t-17 21t-23 14v14h197v-14q-10 -2 -19 -8q-7 -4 -9 -15t3 -27q5 -18 15 -44l210 -519l110 269l-95 231q-12 31 -19 46q-11 25 -16 33q-7 13 -17 21q-9 7 -21 12v14h196
v-14q-12 -3 -21 -8q-7 -5 -9 -15q-1 -10 3 -28q3 -14 17 -46l55 -136l52 121q20 48 20 74q0 27 -35 38v14h114v-14q-12 -5 -21 -9q-10 -5 -18 -16t-19 -31q-8 -15 -25 -54l-61 -142l146 -358l194 499q10 25 14 41q5 19 2 33q-3 15 -13 25q-11 11 -33 15v14h131v-14
q-13 -5 -22 -10q-10 -6 -19 -18q-8 -11 -18 -32q-8 -18 -21 -53l-245 -630h-28l-155 377l-154 -377h-28z" />
    <glyph glyph-name="wcircumflex" unicode="&#x175;" horiz-adv-x="734" 
d="M359 710l126 -175l-11 -9l-115 83l-114 -83l-11 9zM75 355l2 -2q-14 35 -24 53q-9 16 -18 31q-7 11 -15 16q-10 6 -15 8v13h178v-13q-13 -1 -21 -6t-9 -15t3 -30q4 -16 17 -51l102 -256l87 185l-27 68q-20 47 -22 51q-8 18 -17 30q-8 11 -15 15q-10 6 -16 8v13h181v-13
q-14 -2 -21 -6q-8 -5 -9 -16q-1 -12 3 -31q4 -15 17 -49l98 -251l95 229q16 36 22 61q6 24 3 38t-13 20q-12 7 -27 8v13h116v-13q-9 -3 -18 -8q-7 -4 -16 -18q-8 -12 -19 -37q-13 -31 -27 -64l-143 -343h-27l-107 273l-128 -273h-26z" />
    <glyph glyph-name="Ycircumflex" unicode="&#x176;" horiz-adv-x="732" 
d="M252 13h-2q20 7 33 17q12 9 18 35q5 23 7 75q2 66 2 133v80l-189 283q-15 23 -25 37q-12 17 -22 28q-10 12 -24 21t-30 15v13h229v-13q-26 -6 -32 -24t22 -60l178 -266l162 238q36 53 36 78q0 26 -39 35v13h136v-13q-13 -5 -22 -10q-10 -6 -24 -18t-30 -33t-39 -54
l-173 -256v-95q0 -67 2 -133q1 -47 8 -75q6 -26 18 -35q11 -8 33 -16v-13h-233v13zM419 917l138 -120l-5 -12l-133 48l-134 -48l-5 12z" />
    <glyph glyph-name="ycircumflex" unicode="&#x177;" horiz-adv-x="507" 
d="M118 -165l4 2q-28 0 -42 12q-13 12 -13 30t10 27q11 9 27 9q12 0 20 -4q12 -6 17 -9l15 -9q7 -4 15 -4q7 0 14 3q8 3 17 14q9 10 21 30t27 51l1 2l-171 369q-19 40 -25 51q-11 19 -18 30t-15 15q-6 4 -16 7v13h184v-13q-11 -1 -19 -6q-7 -5 -9 -15q-2 -11 3 -29t18 -48
l119 -257l105 233q16 39 21 62q4 23 0 36t-15 18q-12 5 -26 8v13h118v-13q-8 -1 -16 -6q-7 -4 -16 -18q-10 -15 -21 -37q-12 -24 -30 -63l-157 -349q-17 -38 -38 -73q-18 -30 -36 -48q-19 -19 -36 -26q-19 -8 -37 -8zM290 712l126 -175l-11 -9l-115 83l-114 -83l-11 9z" />
    <glyph glyph-name="Ydieresis" unicode="&#x178;" horiz-adv-x="732" 
d="M252 13h-2q20 7 33 17q12 9 18 35q5 23 7 75q2 66 2 133v80l-189 283q-15 23 -25 37q-12 17 -22 28q-10 12 -24 21t-30 15v13h229v-13q-26 -6 -32 -24t22 -60l178 -266l162 238q36 53 36 78q0 26 -39 35v13h136v-13q-13 -5 -22 -10q-10 -6 -24 -18t-30 -33t-39 -54
l-173 -256v-95q0 -67 2 -133q1 -47 8 -75q6 -26 18 -35q11 -8 33 -16v-13h-233v13zM524 792q-24 0 -39 16t-15 42q0 23 15 38t39 15q23 0 38 -15t15 -38q0 -26 -15 -42t-38 -16zM315 792q-23 0 -38 16t-15 42q0 23 15 38t38 15t40 -15q16 -15 16 -38q0 -26 -16 -42t-40 -16z
" />
    <glyph glyph-name="Zacute" unicode="&#x179;" horiz-adv-x="722" 
d="M260 800l142 92q10 7 23 12t25 5q19 0 29 -12q11 -13 11 -26q0 -17 -12 -31q-11 -13 -44 -19l-169 -34zM523 733l-229 -3q-59 0 -94 -7q-36 -7 -63 -23q-25 -15 -42 -39q-17 -25 -33 -58h-15l26 145h589l-501 -734h273q62 0 105 8q40 7 65 26q24 18 39 48q17 34 32 75h15
l-21 -172h-640z" />
    <glyph glyph-name="zacute" unicode="&#x17a;" horiz-adv-x="479" 
d="M183 537l94 129q13 18 26 30q11 10 29 10t27 -10t9 -27q0 -18 -10 -29q-11 -13 -25 -21l-140 -92zM434 -15h-3q-5 3 -17 7q-7 2 -26 4q-22 2 -42 2h-66h-266l320 459h-109q-53 0 -84 -6t-49 -18t-28 -31q-10 -20 -21 -45h-15l24 129q6 -3 20 -7q8 -2 29 -4q24 -2 43 -2
h63h250l-323 -459h126q49 0 79 6q29 6 48 20t29 36t24 57h15z" />
    <glyph glyph-name="Zdotaccent" unicode="&#x17b;" horiz-adv-x="722" 
d="M525 734l-229 -3q-59 0 -94 -7q-36 -7 -63 -23q-25 -15 -42 -39q-17 -25 -33 -58h-15l26 145h589l-501 -734h273q62 0 105 8q40 7 65 26q24 18 39 48q17 34 32 75h15l-21 -172h-640zM361 789q-25 0 -42 18q-17 19 -17 43t17 41t42 17t42 -17t17 -41t-17 -43
q-17 -18 -42 -18z" />
    <glyph glyph-name="zdotaccent" unicode="&#x17c;" horiz-adv-x="479" 
d="M434 -13h-3q-5 3 -17 7q-7 2 -26 4q-22 2 -42 2h-66h-266l320 459h-109q-53 0 -84 -6t-49 -18t-28 -31q-10 -20 -21 -45h-15l24 129q6 -3 20 -7q8 -2 29 -4q24 -2 43 -2h63h250l-323 -459h126q49 0 79 6q29 6 48 20t29 36t24 57h15zM242 558q-25 0 -42 17t-17 42
q0 24 17 41t42 17t42 -17t17 -41q0 -25 -17 -42t-42 -17z" />
    <glyph glyph-name="Zcaron" unicode="&#x17d;" horiz-adv-x="722" 
d="M224 921l134 -47l133 47l5 -12l-138 -119l-139 119zM525 734l-229 -3q-59 0 -94 -7q-36 -7 -63 -23q-25 -15 -42 -39q-17 -25 -33 -58h-15l26 145h589l-501 -734h273q62 0 105 8q40 7 65 26q24 18 39 48q17 34 32 75h15l-21 -172h-640z" />
    <glyph glyph-name="zcaron" unicode="&#x17e;" horiz-adv-x="479" 
d="M133 720l114 -83l115 83l11 -9l-126 -175l-125 175zM434 -13h-3q-5 3 -17 7q-7 2 -26 4q-22 2 -42 2h-66h-266l320 459h-109q-53 0 -84 -6t-49 -18t-28 -31q-10 -20 -21 -45h-15l24 129q6 -3 20 -7q8 -2 29 -4q24 -2 43 -2h63h250l-323 -459h126q49 0 79 6q29 6 48 20
t29 36t24 57h15z" />
    <glyph glyph-name="uni0192" unicode="&#x192;" horiz-adv-x="437" 
d="M83 475l82 -2l17 95q10 57 30 96q20 41 43 62q24 22 51 33q26 10 54 10q44 0 72 -16t28 -45q0 -12 -9 -24t-28 -12q-22 0 -31 9q-8 8 -13 30q-5 26 -10 33q-6 8 -19 8q-21 0 -36 -27t-27 -96l-27 -155h100v-19h-103l-56 -317q-13 -74 -33 -123q-20 -51 -43 -78
q-25 -29 -51 -41q-27 -12 -57 -12q-22 0 -38 4q-18 4 -33 12q-14 7 -24 20q-9 12 -9 27q0 13 9 24t29 11q23 0 30 -10q8 -11 12 -31q4 -24 11 -32q6 -8 21 -8q14 0 23 9q10 10 17 39q8 32 18 85q11 56 27 147l50 275h-77v19z" />
    <glyph glyph-name="Aringacute" unicode="&#x1fa;" horiz-adv-x="813" 
d="M19 13l-5 -1q11 4 23 11q10 6 21 20q10 13 24 36q11 19 28 59l231 538q-7 16 -15 27q-8 12 -15 17q-7 6 -17 9q-12 4 -19 6v13h136q11 0 15 -4q5 -5 11 -18l264 -600q7 -16 20 -42q9 -18 20 -32q12 -16 22 -23q12 -9 28 -15v-15h-221v15q34 6 39 27q4 21 -18 73l-51 116
h-368l-39 -91q-7 -19 -12 -39t-3 -36q2 -17 13 -30q12 -14 37 -21v-13h-149v13zM530 245l-178 409l-176 -409h354zM262 970l142 92q10 7 23 12t25 5q18 0 29 -12q11 -13 11 -26q0 -17 -12 -31q-11 -13 -44 -19l-169 -34zM274 862l-2 -1q0 37 26 60t60 23q35 0 60 -22
q26 -23 26 -60q0 -38 -25 -60t-60 -22t-60 22t-25 60zM312 861h-1q0 -65 45 -65q21 0 33 17t12 48t-12 49t-32 18q-21 0 -33 -18t-12 -49z" />
    <glyph glyph-name="aringacute" unicode="&#x1fb;" horiz-adv-x="489" 
d="M165 -9v-2q-61 0 -99 29q-37 28 -37 83q0 29 12 48q12 20 35 35q23 16 52 27q36 14 65 27l54 22q37 16 54 35t17 41v59q0 38 -24 53t-62 15q-19 0 -31 -3t-21 -9t-15 -15q-8 -12 -12 -19q-11 -19 -22 -30q-12 -12 -31 -12t-30 11t-11 26q0 17 13 30q14 14 36 21t54 12
q35 5 69 5q29 0 66 -5q33 -5 60 -18q28 -14 44 -37q17 -25 17 -61v-240q0 -27 2 -55q1 -20 6 -31t12 -14q8 -3 20 -3q8 0 15 3q10 4 15 7l6 -12q-9 -5 -25 -12q-19 -8 -47 -8q-54 0 -77 21q-23 22 -26 57l-22 -20q-11 -10 -24 -21q-11 -9 -30 -19q-17 -9 -36 -15t-42 -6z
M130 113h-3q0 -49 18 -72q18 -22 50 -22q29 0 54 17q21 15 43 33l23 21v200q-7 -9 -24 -22q-17 -12 -45 -24l-37 -15q-43 -18 -61 -43q-18 -26 -18 -73zM147 608l-1 -1q0 37 26 60t60 23q35 0 60 -22q26 -23 26 -60q0 -38 -25 -60t-61 -22q-35 0 -60 22t-25 60zM186 607
q0 -65 46 -65t46 65q0 31 -12 49t-34 18t-34 -18t-12 -49zM135 723l142 92q10 7 23 12t25 5q19 0 29 -12q11 -13 11 -26q0 -18 -12 -31q-11 -13 -44 -19l-169 -34z" />
    <glyph glyph-name="AEacute" unicode="&#x1fc;" horiz-adv-x="1109" 
d="M678 800l142 92q10 7 23 12t25 5q18 0 29 -12q11 -13 11 -26q0 -17 -12 -31q-11 -13 -44 -19l-169 -34zM1015 749l-9 1q12 0 17 -4t10 -27l20 -110h-17q-16 39 -33 63t-41 38t-58 18q-38 5 -85 5h-177v-306h74q44 0 66 7q25 8 36 19t16 27q3 10 9 32h16v-187h-16
q-6 22 -9 32q-5 16 -16 27t-36 19q-22 7 -66 7h-74v-396h196q56 0 88 4q37 5 60 19q25 16 41 42q18 29 32 73h17l-14 -122q-1 -22 -8 -27q-5 -4 -22 -4h-563v13q20 6 32 15t18 32q7 25 8 65q2 56 2 116h-316l-76 -115q-13 -21 -21 -39t-6 -33q1 -14 12 -25q10 -10 33 -18
v-12h-144v12q7 3 21 11q12 7 23 18q10 10 28 33q17 21 39 54l361 547q11 19 14 29t0 18t-14 11q-13 4 -25 5v13h557zM525 258v462l-305 -462h305z" />
    <glyph glyph-name="aeacute" unicode="&#x1fd;" horiz-adv-x="792" 
d="M368 537l94 129q13 18 26 30q11 10 29 10t27 -10t9 -27q0 -18 -10 -29q-11 -13 -25 -21l-140 -92zM169 -11h-4q-62 0 -102 29q-39 28 -39 83q0 29 12 48q12 20 35 35q23 16 52 27q36 14 65 27l54 22q39 17 56 35q17 19 17 41v58q0 41 -24 56t-62 15q-19 0 -31 -3t-21 -9
t-15 -15q-8 -12 -12 -19q-10 -17 -23 -30q-12 -12 -33 -12q-19 0 -30 11q-10 10 -10 26q0 17 13 30q13 14 36 21t54 12q35 5 69 5q26 0 51 -3q28 -3 48 -10t40 -20q18 -12 29 -32q38 35 81 51q45 17 81 17q42 0 76 -10q37 -11 63 -31q28 -21 45 -52q17 -30 22 -72h-335
q-7 -32 -7 -82q0 -57 14 -101q13 -41 38 -69q24 -27 59 -39t75 -12q46 0 80 14t59 36l10 -12q-29 -29 -72 -48q-42 -19 -109 -19q-32 0 -63 6q-30 6 -60 20q-27 13 -54 35q-24 20 -43 50l-44 -41q-30 -27 -63 -48t-78 -21zM556 468v-1q-40 0 -75 -31q-36 -31 -52 -100h234
q-4 71 -32 102q-27 30 -75 30zM126 113l-5 -1q0 -50 19 -72q20 -23 51 -23q29 0 57 17q27 16 54 42l37 34q-13 25 -21 56q-7 28 -7 68v54q-7 -9 -24 -22q-17 -12 -45 -24l-37 -15q-43 -18 -61 -42t-18 -72z" />
    <glyph glyph-name="Oslashacute" unicode="&#x1fe;" horiz-adv-x="870" 
d="M432 -14l-3 -4q-53 0 -102 15q-47 14 -94 41l-60 -100l-16 9l60 101q-39 26 -72 60q-34 35 -57 76q-23 40 -37 90q-13 46 -13 100q0 82 33 153t87 123q53 51 125 82q71 30 147 30q50 0 96 -12q45 -12 90 -35l54 91l16 -8l-55 -92q43 -26 77 -60t60 -77q25 -41 40 -91
t15 -102q0 -82 -33 -154q-33 -71 -87 -124q-53 -51 -125 -82q-70 -30 -146 -30zM163 372l-1 -1q0 -100 21 -169t57 -114l352 589q-35 35 -77 50t-87 15q-50 0 -98 -21t-85 -64t-60 -114q-22 -69 -22 -171zM428 -3q52 0 100 21t84 66q37 46 59 116q22 69 22 171
q0 105 -24 176q-25 72 -64 116l-353 -591q36 -39 81 -57t95 -18zM337 795l142 92q10 7 23 12t25 5q19 0 29 -12q11 -13 11 -26q0 -18 -12 -31q-11 -13 -44 -19l-169 -34z" />
    <glyph glyph-name="oslashacute" unicode="&#x1ff;" horiz-adv-x="574" 
d="M392 419l-3 3q-20 27 -46 39q-27 12 -58 12q-33 0 -59 -13q-28 -14 -47 -42t-31 -73t-12 -106q0 -55 9 -96q9 -42 25 -69zM103 -56l-15 8l53 82q-49 32 -81 82q-33 51 -33 123q0 62 25 108q26 47 63 78t83 48q44 16 86 16q30 0 63 -9q30 -8 64 -26l47 73l15 -9l-47 -73
q49 -32 81 -82q33 -51 33 -123q0 -62 -25 -108t-63 -78t-83 -47t-85 -15q-30 0 -63 9q-32 9 -65 26zM400 404l-222 -346q19 -27 47 -39q27 -12 59 -12t59 12q28 12 47 39q20 28 32 72q12 45 12 109q0 55 -9 96q-9 42 -25 69zM231 538l94 129q13 18 26 30q11 10 29 10t27 -10
q9 -11 9 -27q0 -18 -10 -29q-11 -13 -25 -21l-140 -92z" />
    <glyph glyph-name="uni0218" unicode="&#x218;" horiz-adv-x="630" 
d="M319 -126l-2 -2q-2 -5 -9 -11q-8 -6 -22 -6q-20 0 -33 12t-13 33q0 23 16 36t36 13q23 0 42 -16q20 -17 20 -51q0 -42 -24 -64t-65 -30l-5 11q38 11 51 27q14 17 14 33q0 11 -6 15zM313 -13l-3 -1q-52 0 -87 9q-31 8 -60 20q-10 4 -26 11t-20 9q-21 9 -43 9
q-20 0 -27 -21h-17v188h17q17 -97 87 -153q70 -55 179 -55q99 0 145 42t46 112q0 36 -10 60q-11 26 -36 47q-26 21 -69 39q-48 20 -108 38q-53 17 -96 36q-42 19 -75 44q-32 24 -48 57q-17 34 -17 78t19 81t52 64t78 42t98 15q46 0 75 -7q37 -9 56 -16q36 -13 42 -16
q17 -7 35 -7q15 0 20 4q7 5 8 15h17v-148h-17q-22 73 -84 117q-61 43 -153 43q-81 0 -127 -35q-45 -34 -45 -95q0 -24 9 -45t32 -41q21 -18 62 -37q38 -18 98 -36q59 -17 107 -36q52 -20 86 -46q37 -27 57 -61q21 -35 21 -84q0 -54 -21 -99t-58 -76q-38 -32 -88 -48
q-53 -17 -111 -17z" />
    <glyph glyph-name="uni0219" unicode="&#x219;" horiz-adv-x="439" 
d="M231 -126l-2 -2q-2 -5 -9 -11q-8 -6 -22 -6q-20 0 -33 12t-13 33q0 23 16 36t36 13q23 0 42 -16q20 -17 20 -51q0 -42 -24 -64t-65 -30l-5 11q38 11 51 27q14 17 14 33q0 11 -6 15zM213 5l-1 -4q60 0 92 29t32 71q0 22 -7 36q-8 16 -24 26q-17 11 -42 18t-63 15
q-41 7 -73 18q-31 10 -52 27q-20 16 -31 39q-10 21 -10 54q0 32 14 60q13 26 38 45q22 17 56 28q30 10 66 10q28 0 45 -4q23 -5 36 -10q6 -2 15.5 -5.5t13.5 -4.5q11 -4 23 -4q15 0 18 15h17v-112h-17q-19 53 -57 82q-37 28 -94 28q-51 0 -84 -21t-33 -65q0 -38 32 -55
q31 -17 99 -30q94 -16 138 -47q44 -30 44 -93q0 -38 -16 -67q-17 -31 -43 -51q-27 -21 -61 -33t-72 -12q-32 0 -54 6t-39 12q-18 7 -29 12q-12 6 -24 6q-17 0 -20 -17h-18v129h17q8 -25 23 -51q14 -24 33 -42q19 -17 48 -28q27 -10 64 -10z" />
    <glyph glyph-name="uni021A" unicode="&#x21a;" horiz-adv-x="734" 
d="M386 -126l-2 -2q-2 -5 -9 -11t-22 -6q-19 0 -33 12q-13 12 -13 33q0 23 16 36t36 13q23 0 42 -16q20 -17 20 -51q0 -42 -24 -64t-65 -30l-5 11q37 11 51 27q14 17 14 33q0 11 -6 15zM249 11l-4 -2q20 7 33 17q12 9 18 35q5 23 7 75q2 66 2 133v461h-53q-54 0 -86 -4
q-38 -5 -62 -19q-26 -15 -42 -45q-17 -30 -27 -82h-19l14 137q3 23 7 27t18 4h615q14 0 18 -4t6 -27l16 -137h-19q-11 51 -27 81q-17 30 -43 45q-28 16 -63 20q-40 5 -86 5h-50v-461q0 -67 2 -133q1 -47 8 -75q6 -26 18 -35q11 -8 33 -16v-13h-234v13z" />
    <glyph glyph-name="uni021B" unicode="&#x21b;" horiz-adv-x="313" 
d="M201 -126l-2 -2q-2 -5 -9 -11q-8 -6 -22 -6q-20 0 -33 12t-13 33q0 23 16 36t36 13q23 0 42 -16q20 -17 20 -51q0 -42 -24 -64t-65 -30l-5 11q38 11 51 27q14 17 14 33q0 11 -6 15zM191 -11l2 -1q-63 0 -93 30t-30 75v359h-42v15q20 3 41 15q22 13 38 33t30 53
q14 34 20 73h15v-170h111v-19h-111v-333q0 -55 11 -82q10 -25 45 -25q20 0 33 9t21 18l10 -9q-3 -4 -12 -13q-7 -7 -19 -13q-14 -7 -29 -11t-41 -4z" />
    <glyph glyph-name="uni0237" unicode="&#x237;" horiz-adv-x="248" 
d="M-24 -153l-2 -4q-21 0 -35 10q-15 11 -15 33q0 20 12 29t28 9q14 0 24 -7t18 -15l15 -15q7 -7 17 -7q7 0 13 6t8 10q3 6 6 18q2 9 4 31q2 26 2 51v270v67q0 22 -5 37q-4 14 -15 18q-12 5 -30 8v15l153 74v-417q0 -60 -27 -105t-75 -78q-32 -23 -54 -30q-24 -8 -42 -8z
" />
    <glyph glyph-name="circumflex" unicode="&#x2c6;" horiz-adv-x="446" 
d="M228 710l126 -175l-11 -9l-115 83l-114 -83l-11 9z" />
    <glyph glyph-name="caron" unicode="&#x2c7;" horiz-adv-x="446" 
d="M114 720l114 -83l115 83l11 -9l-126 -175l-125 175z" />
    <glyph glyph-name="breve" unicode="&#x2d8;" horiz-adv-x="446" 
d="M223 598l1 1q42 0 63 21t30 50h16q0 -26 -7 -48q-8 -24 -21 -42q-14 -18 -34 -30q-21 -12 -48 -12t-49 11q-20 10 -34 29t-20 42q-6 24 -6 49h16q8 -30 28 -50q21 -21 65 -21z" />
    <glyph glyph-name="dotaccent" unicode="&#x2d9;" horiz-adv-x="446" 
d="M223 558q-25 0 -42 17t-17 42q0 24 17 41t42 17t42 -17t17 -41q0 -25 -17 -42t-42 -17z" />
    <glyph glyph-name="ring" unicode="&#x2da;" horiz-adv-x="446" 
d="M145 610l-1 -1q0 37 26 60t60 23q35 0 60 -22q26 -23 26 -60q0 -38 -25 -60t-61 -22q-35 0 -60 22t-25 60zM184 609q0 -65 46 -65t46 65q0 31 -12 49t-34 18t-34 -18t-12 -49z" />
    <glyph glyph-name="ogonek" unicode="&#x2db;" horiz-adv-x="446" 
d="M219 -167v-4q-37 0 -63 18t-26 48q0 22 15 40q14 17 35 30t41 20q24 9 35 11h24q-22 -10 -42 -30q-19 -19 -19 -54q0 -22 12 -36q12 -13 33 -13q14 0 23 6q12 8 17 12l9 -10q-3 -4 -10 -10q-8 -7 -19 -12q-15 -7 -28 -11q-18 -5 -37 -5z" />
    <glyph glyph-name="tilde" unicode="&#x2dc;" horiz-adv-x="446" 
d="M172 650h-1q29 0 58 -7t54 -7q11 0 24 9q15 10 29 37l12 -6q-10 -46 -30 -75q-19 -28 -47 -28q-26 0 -56 6t-56 6q-11 0 -25 -8q-12 -7 -31 -38l-12 6q17 51 36 78t45 27z" />
    <glyph glyph-name="hungarumlaut" unicode="&#x2dd;" horiz-adv-x="446" 
d="M245 544l35 135q8 24 16 36q9 13 28 13q17 0 26 -10t9 -25q0 -21 -18 -42l-86 -112zM107 544l35 135q8 24 16 36q9 13 28 13q18 0 27 -10t9 -25q0 -19 -18 -42l-87 -112z" />
    <glyph glyph-name="Wgrave" unicode="&#x1e80;" horiz-adv-x="1065" 
d="M487 821l-2 -1q-32 6 -44 20q-12 13 -12 32q0 13 11 26q11 12 29 12q12 0 25 -5t23 -12l144 -93l-5 -13zM94 622l-8 -3q-3 8 -9 23.5t-9 22.5q-8 19 -15 33q-7 13 -17 21t-23 14v14h197v-14q-10 -2 -19 -8q-7 -5 -9 -15t3 -27q5 -18 15 -44l210 -519l110 269l-95 231
q-12 31 -19 46q-11 25 -16 33q-7 13 -17 21q-9 8 -21 12v14h196v-14q-12 -3 -21 -8q-7 -4 -9 -15q-1 -10 3 -28q3 -14 17 -46l55 -136l52 121q20 48 20 74q0 27 -35 38v14h114v-14q-12 -4 -21 -9q-10 -5 -18 -16t-19 -31q-8 -15 -25 -54l-61 -142l146 -358l194 499
q10 25 14 41q5 19 2 33q-3 15 -13 25q-11 10 -33 15v14h131v-14q-13 -5 -22 -10q-10 -5 -19 -18q-8 -11 -18 -32q-8 -18 -21 -53l-245 -630h-28l-155 377l-154 -377h-28z" />
    <glyph glyph-name="wgrave" unicode="&#x1e81;" horiz-adv-x="734" 
d="M75 355l2 -2q-14 35 -24 53q-9 16 -18 31q-7 11 -15 16q-10 6 -15 8v13h178v-13q-13 -1 -21 -6t-9 -15t3 -30q4 -16 17 -51l102 -256l87 185l-27 68q-20 47 -22 51q-8 18 -17 30q-8 11 -15 15q-10 6 -16 8v13h181v-13q-14 -2 -21 -6q-8 -5 -9 -16q-1 -12 3 -31
q4 -15 17 -49l98 -251l95 229q16 36 22 61q6 24 3 38t-13 20q-12 7 -27 8v13h116v-13q-9 -3 -18 -8q-7 -4 -16 -18q-8 -12 -19 -37q-13 -31 -27 -64l-143 -343h-27l-107 273l-128 -273h-26zM285 617l1 1q-16 9 -27 21q-10 11 -10 29q0 17 10 27q11 11 30 11q17 0 27 -10
t24 -30l95 -131l-10 -10z" />
    <glyph glyph-name="Wacute" unicode="&#x1e82;" horiz-adv-x="1065" 
d="M462 800l142 92q10 7 23 12t25 5q18 0 29 -12q11 -13 11 -26q0 -17 -12 -31q-11 -13 -44 -19l-169 -34zM94 622l-8 -3q-3 8 -9 23.5t-9 22.5q-8 19 -15 33q-7 13 -17 21t-23 14v14h197v-14q-10 -2 -19 -8q-7 -5 -9 -15t3 -27q5 -18 15 -44l210 -519l110 269l-95 231
q-12 31 -19 46q-11 25 -16 33q-7 13 -17 21q-9 8 -21 12v14h196v-14q-12 -3 -21 -8q-7 -4 -9 -15q-1 -10 3 -28q3 -14 17 -46l55 -136l52 121q20 48 20 74q0 27 -35 38v14h114v-14q-12 -4 -21 -9q-10 -5 -18 -16t-19 -31q-8 -15 -25 -54l-61 -142l146 -358l194 499
q10 25 14 41q5 19 2 33q-3 15 -13 25q-11 10 -33 15v14h131v-14q-13 -5 -22 -10q-10 -5 -19 -18q-8 -11 -18 -32q-8 -18 -21 -53l-245 -630h-28l-155 377l-154 -377h-28z" />
    <glyph glyph-name="wacute" unicode="&#x1e83;" horiz-adv-x="734" 
d="M295 537l94 129q13 18 26 30q11 10 29 10t27 -10t9 -27q0 -18 -10 -29q-11 -13 -25 -21l-140 -92zM75 353l2 -2q-14 35 -24 53q-9 16 -18 31q-7 11 -15 16q-10 6 -15 8v13h178v-13q-13 -1 -21 -6t-9 -15t3 -30q4 -16 17 -51l102 -256l87 185l-27 68q-20 47 -22 51
q-8 18 -17 30q-8 11 -15 15q-10 6 -16 8v13h181v-13q-14 -2 -21 -6q-8 -5 -9 -16q-1 -12 3 -31q4 -15 17 -49l98 -251l95 229q16 36 22 61q6 24 3 38t-13 20q-12 7 -27 8v13h116v-13q-9 -3 -18 -8q-7 -4 -16 -18q-8 -12 -19 -37q-13 -31 -27 -64l-143 -343h-27l-107 273
l-128 -273h-26z" />
    <glyph glyph-name="Wdieresis" unicode="&#x1e84;" horiz-adv-x="1065" 
d="M672 792q-24 0 -39 16t-15 42q0 23 15 38t39 15q23 0 38 -15t15 -38q0 -26 -15 -42t-38 -16zM463 792q-23 0 -38 16t-15 42q0 23 15 38t38 15t40 -15q16 -15 16 -38q0 -26 -16 -42t-40 -16zM96 623l-8 -3q-3 8 -9 23.5t-9 22.5q-8 20 -15 33t-17 21t-23 14v14h197v-14
q-10 -2 -19 -8q-7 -4 -9 -15t3 -27q5 -18 15 -44l210 -519l110 269l-95 231q-12 31 -19 46q-11 25 -16 33q-7 13 -17 21q-9 7 -21 12v14h196v-14q-12 -3 -21 -8q-7 -5 -9 -15q-1 -10 3 -28q3 -14 17 -46l55 -136l52 121q20 48 20 74q0 27 -35 38v14h114v-14q-12 -5 -21 -9
q-10 -5 -18 -16t-19 -31q-8 -15 -25 -54l-61 -142l146 -358l194 499q10 25 14 41q5 19 2 33q-3 15 -13 25q-11 11 -33 15v14h131v-14q-13 -5 -22 -10q-10 -6 -19 -18q-8 -11 -18 -32q-8 -18 -21 -53l-245 -630h-28l-155 377l-154 -377h-28z" />
    <glyph glyph-name="wdieresis" unicode="&#x1e85;" horiz-adv-x="734" 
d="M449 561q-24 0 -40 16t-16 42q0 23 16 38q17 15 40 15t39 -15t16 -38q0 -26 -16 -42t-39 -16zM265 561q-23 0 -38 16q-15 17 -15 42q0 23 15 38t38 15t40 -15q16 -15 16 -38q0 -26 -16 -42t-40 -16zM75 355l2 -2q-14 35 -24 53q-9 16 -18 31q-7 11 -15 16q-10 6 -15 8v13
h178v-13q-13 -1 -21 -6t-9 -15t3 -30q4 -16 17 -51l102 -256l87 185l-27 68q-20 47 -22 51q-8 18 -17 30q-8 11 -15 15q-10 6 -16 8v13h181v-13q-14 -2 -21 -6q-8 -5 -9 -16q-1 -12 3 -31q4 -15 17 -49l98 -251l95 229q16 36 22 61q6 24 3 38t-13 20q-12 7 -27 8v13h116v-13
q-9 -3 -18 -8q-7 -4 -16 -18q-8 -12 -19 -37q-13 -31 -27 -64l-143 -343h-27l-107 273l-128 -273h-26z" />
    <glyph glyph-name="Ygrave" unicode="&#x1ef2;" horiz-adv-x="732" 
d="M252 13h-2q20 7 33 17q12 9 18 35q5 23 7 75q2 66 2 133v80l-189 283q-15 23 -25 37q-12 17 -22 28q-10 12 -24 21t-30 15v13h229v-13q-26 -6 -32 -24t22 -60l178 -266l162 238q36 53 36 78q0 26 -39 35v13h136v-13q-13 -5 -22 -10q-10 -6 -24 -18t-30 -33t-39 -54
l-173 -256v-95q0 -67 2 -133q1 -47 8 -75q6 -26 18 -35q11 -8 33 -16v-13h-233v13zM346 821l-2 -1q-32 6 -44 20q-12 13 -12 32q0 13 11 26q11 12 29 12q12 0 25 -5t23 -12l144 -93l-5 -13z" />
    <glyph glyph-name="ygrave" unicode="&#x1ef3;" horiz-adv-x="507" 
d="M118 -165l4 2q-28 0 -42 12q-13 12 -13 30t10 27q11 9 27 9q12 0 20 -4q12 -6 17 -9l15 -9q7 -4 15 -4q7 0 14 3q8 3 17 14q9 10 21 30t27 51l1 2l-171 369q-19 40 -25 51q-11 19 -18 30t-15 15q-6 4 -16 7v13h184v-13q-11 -1 -19 -6q-7 -5 -9 -15q-2 -11 3 -29t18 -48
l119 -257l105 233q16 39 21 62q4 23 0 36t-15 18q-12 5 -26 8v13h118v-13q-8 -1 -16 -6q-7 -4 -16 -18q-10 -15 -21 -37q-12 -24 -30 -63l-157 -349q-17 -38 -38 -73q-18 -30 -36 -48q-19 -19 -36 -26q-19 -8 -37 -8zM217 621l1 1q-16 9 -27 21q-10 11 -10 29q0 17 10 27
q11 11 30 11q17 0 27 -10t24 -30l95 -131l-10 -10z" />
    <glyph glyph-name="uni2009" unicode="&#x2009;" horiz-adv-x="98" 
 />
    <glyph glyph-name="endash" unicode="&#x2013;" horiz-adv-x="560" 
d="M44 291h472v-20h-472v20z" />
    <glyph glyph-name="emdash" unicode="&#x2014;" horiz-adv-x="956" 
d="M44 291h868v-20h-868v20z" />
    <glyph glyph-name="quoteleft" unicode="&#x2018;" horiz-adv-x="247" 
d="M101 652l-4 -1q4 7 14 12t23 5q22 0 37 -15t15 -39q0 -26 -18 -42q-17 -16 -43 -16q-11 0 -24 5q-11 4 -22 15q-10 10 -16 27t-6 39q0 48 29 86t75 62l7 -10q-38 -24 -57 -51q-19 -26 -19 -50q0 -19 9 -27z" />
    <glyph glyph-name="quoteright" unicode="&#x2019;" horiz-adv-x="247" 
d="M145 678v3q-4 -7 -13 -13t-22 -6q-22 0 -37 15t-15 38q0 27 18 43q17 16 43 16q13 0 24 -4q13 -5 23 -15q11 -11 17 -27t6 -39q0 -46 -29 -84t-75 -62l-7 10q38 24 57 51q20 28 20 50q0 20 -10 24z" />
    <glyph glyph-name="quotesinglbase" unicode="&#x201a;" horiz-adv-x="247" 
d="M145 32v3q-4 -7 -13 -13t-22 -6q-22 0 -37 15t-15 38q0 27 18 43q17 16 43 16q13 0 24 -4q13 -5 23 -15q11 -11 17 -27t6 -39q0 -46 -29 -84t-75 -62l-7 10q38 24 57 51q20 28 20 50q0 20 -10 24z" />
    <glyph glyph-name="quotedblleft" unicode="&#x201c;" horiz-adv-x="412" 
d="M101 652l-4 -1q4 7 14 12t23 5q22 0 37 -15t15 -39q0 -26 -18 -42q-17 -16 -43 -16q-11 0 -24 5q-11 4 -22 15q-10 10 -16 27t-6 39q0 48 29 86t75 62l7 -10q-38 -24 -57 -51q-19 -26 -19 -50q0 -19 9 -27zM263 651l-4 -2q5 8 13 12q10 5 23 5q22 0 37 -15t15 -39
q0 -26 -18 -42q-17 -16 -43 -16q-11 0 -24 5q-11 4 -22 15q-10 10 -16 27t-6 39q0 48 29 86t75 62l7 -10q-37 -24 -57 -51q-19 -26 -19 -50q0 -11 3 -17t7 -9z" />
    <glyph glyph-name="quotedblright" unicode="&#x201d;" horiz-adv-x="412" 
d="M311 678l-2 3q-4 -7 -13 -13t-22 -6q-21 0 -36 15t-15 38q0 27 18 43q17 16 43 16q13 0 24 -4q13 -5 23 -15q11 -11 17 -27t6 -39q0 -46 -29 -84t-74 -62l-7 10q38 24 57 51q19 26 19 50q0 20 -9 24zM143 681v3q-4 -7 -13 -13t-22 -6q-22 0 -37 15t-15 38q0 26 18 43
q17 16 43 16q13 0 24 -4q13 -5 23 -15q11 -11 17 -27q6 -17 6 -39q0 -46 -29 -84t-75 -62l-7 10q38 24 57 51q20 28 20 50q0 20 -10 24z" />
    <glyph glyph-name="quotedblbase" unicode="&#x201e;" horiz-adv-x="412" 
d="M311 32l-2 3q-4 -7 -13 -13t-22 -6q-21 0 -36 15t-15 38q0 27 18 43q17 16 43 16q13 0 24 -4q13 -5 23 -15q11 -11 17 -27t6 -39q0 -46 -29 -84t-74 -62l-7 10q38 24 57 51q19 26 19 50q0 20 -9 24zM143 35v3q-4 -7 -13 -13t-22 -6q-22 0 -37 15t-15 38q0 26 18 43
q17 16 43 16q13 0 24 -4q13 -5 23 -15q11 -11 17 -27q6 -17 6 -39q0 -46 -29 -84t-75 -62l-7 10q38 24 57 51q20 28 20 50q0 20 -10 24z" />
    <glyph glyph-name="dagger" unicode="&#x2020;" horiz-adv-x="435" 
d="M211 -2h-9q-1 59 -8 136q-5 58 -14 126q-8 59 -15 98l-10 54q18 24 32 57q15 35 15 75q-16 0 -31 -6q-10 -4 -30 -14q-10 -5 -30 -13q-15 -6 -30 -6q-25 0 -39 15q-13 14 -13 34q0 19 14 35q13 15 39 15q15 0 30 -6t30 -15t30 -15t30 -6q0 17 -6 35q-7 20 -15 38
q-9 19 -15 36t-6 30q0 24 15 39t38 15t38 -15t15 -39q0 -13 -6 -30t-15 -36q-10 -21 -15 -37q-6 -18 -6 -35q16 0 31 6t30 15t30 15t31 6q26 0 39 -15q14 -16 14 -35q0 -20 -13 -34q-14 -15 -39 -15q-16 0 -31 6q-10 4 -30 14t-30 14q-15 6 -30 6q0 -40 15 -75
q16 -36 31 -57q-1 -4 -2 -11t-3.5 -20t-4.5 -23q-8 -40 -15 -99q-6 -47 -13 -127q-5 -61 -7 -136h-16z" />
    <glyph glyph-name="daggerdbl" unicode="&#x2021;" horiz-adv-x="436" 
d="M218 -8l-8 -8q-22 0 -37 16t-15 39q0 14 6 32t15 36q9 17 15 38q6 19 6 36q-15 0 -30 -6t-30 -15t-30 -15t-30 -6q-26 0 -39 15q-13 14 -13 35q0 19 14 35q14 15 39 15q15 0 30 -6q10 -4 30 -14t30 -14q15 -6 31 -6q0 54 -18 99q-19 47 -40 71q23 28 41 72q18 45 18 99
q-16 0 -31 -6q-10 -4 -30 -14q-10 -5 -30 -13q-15 -6 -30 -6q-26 0 -39 15q-13 14 -13 34q0 19 14 35q14 15 39 15q15 0 30 -6t30 -15t30 -15t30 -6q0 17 -6 35q-7 20 -15 38q-9 19 -15 36t-6 30q0 24 15 39t38 15t38 -15t15 -39q0 -13 -6 -30t-15 -36q-10 -21 -15 -37
q-6 -18 -6 -35q16 0 31 6q16 7 29 15t29 15q15 6 31 6q25 0 39 -15q14 -16 14 -35q0 -20 -13 -34q-13 -15 -39 -15q-16 0 -31 6q-10 4 -30 14t-30 14q-15 6 -31 6q0 -54 19 -98q19 -45 39 -72q-12 -15 -21 -31q-11 -18 -18 -39q-6 -18 -13 -46q-6 -25 -6 -52q16 0 31 6
q10 4 30 14t30 14q15 6 31 6q26 0 39 -15q14 -16 14 -34q0 -21 -13 -35q-14 -15 -39 -15q-16 0 -31 6q-14 5 -28 15q-13 8 -29 15q-15 6 -31 6q0 -17 6 -36q6 -18 15 -37q9 -18 15 -36t6 -31q0 -23 -15 -39t-37 -16z" />
    <glyph glyph-name="bullet" unicode="&#x2022;" horiz-adv-x="395" 
d="M198 418q29 0 52 -10q25 -11 42 -28t28 -42q10 -23 10 -52t-10 -52q-11 -25 -28 -42t-42 -28q-23 -10 -52 -10t-52 10q-25 11 -42 28t-28 42q-10 23 -10 52t10 52q11 25 28 42t42 28q23 10 52 10z" />
    <glyph glyph-name="ellipsis" unicode="&#x2026;" horiz-adv-x="776" 
d="M647 -12v-1q-27 0 -46 18t-19 47q0 28 19 46t46 18q25 0 45 -18q19 -18 19 -46t-19 -46q-20 -18 -45 -18zM389 -14v-1q-27 0 -46 18t-19 47q0 28 19 46t46 18q25 0 45 -18q19 -18 19 -46t-19 -46q-20 -18 -45 -18zM131 -15v-1q-27 0 -46 18t-19 47q0 28 19 46t46 18
q25 0 45 -18q19 -18 19 -46t-19 -46q-20 -18 -45 -18z" />
    <glyph glyph-name="perthousand" unicode="&#x2030;" horiz-adv-x="1224" 
d="M212 379l-2 -1q-33 0 -63 13q-31 13 -57 38q-25 24 -42 59q-16 33 -16 78q0 42 17 78q17 35 42 59q25 23 57 37q30 13 63 13t63 -13q32 -14 57 -37q25 -24 42 -59q17 -36 17 -78q0 -45 -16 -78q-17 -35 -42 -59q-25 -23 -57 -37q-30 -13 -63 -13zM124 11l535 743l20 -14
l-535 -743zM210 394l-2 -1q16 0 34 9q17 8 31 29q14 20 23 53t9 83t-9 83q-10 35 -22 53q-14 20 -31 27q-19 8 -34 8t-33 -8q-16 -8 -30 -27q-12 -18 -22 -53q-9 -33 -9 -83t9 -83t23 -53q13 -19 30 -28t33 -9zM594 -8l-2 -1q-33 0 -63 13q-31 13 -57 38q-25 24 -42 59
q-16 33 -16 78q0 42 17 78q17 35 42 59q25 23 57 37q30 13 63 13t63 -13q32 -14 57 -37q25 -24 42 -59q17 -36 17 -78q0 -45 -16 -78q-17 -35 -42 -59q-25 -23 -57 -37q-30 -13 -63 -13zM1006 -9l-2 -1q-33 0 -63 13q-31 13 -57 38q-25 24 -42 59q-16 33 -16 78q0 42 17 78
q17 35 42 59q25 23 57 37q30 13 63 13t63 -13q32 -14 57 -37q25 -24 42 -59q17 -36 17 -78q0 -45 -16 -78q-17 -35 -42 -59q-25 -23 -57 -37q-30 -13 -63 -13zM590 6l-2 -1q16 0 34 9t32 29t23 53t9 83t-9 83t-23 53t-31 27q-19 8 -34 8t-33 -8q-16 -8 -30 -27
q-12 -18 -22 -53q-9 -33 -9 -83t9 -83t23 -53q13 -19 30 -28t33 -9zM1002 5l-2 -1q16 0 34 9t32 29t23 53t9 83t-9 83t-23 53t-31 27q-19 8 -34 8t-33 -8q-16 -7 -30 -27q-12 -18 -22 -53q-9 -33 -9 -83t9 -83t23 -53q13 -19 30 -28t33 -9z" />
    <glyph glyph-name="uni2032" unicode="&#x2032;" horiz-adv-x="164" 
d="M40 565l-2 -2q7 39 8 63q2 38 2 62q0 35 12 53t35 18q19 0 30 -12q11 -13 11 -30q0 -16 -9 -34q-8 -17 -24 -37q-18 -26 -27 -40q-13 -20 -24 -44z" />
    <glyph glyph-name="uni2033" unicode="&#x2033;" horiz-adv-x="286" 
d="M108 565l-2 -2q7 39 8 63q2 38 2 62q0 35 12 53t35 18q19 0 30 -12q11 -13 11 -30q0 -16 -9 -34q-8 -17 -24 -37q-18 -26 -27 -40q-13 -20 -24 -44zM92 563l-2 -2q7 39 8 63q2 38 2 62q0 35 12 53t35 18q19 0 30 -12q11 -13 11 -30q0 -16 -9 -34q-8 -17 -24 -37
q-18 -26 -27 -40q-13 -20 -24 -44z" />
    </font>
</defs>
</svg>
