<?xml version="1.0" standalone="no"?>
<!DOCTYPE svg PUBLIC "-//W3C//DTD SVG 1.1//EN" "http://www.w3.org/Graphics/SVG/1.1/DTD/svg11.dtd" >
<svg xmlns="http://www.w3.org/2000/svg" xmlns:xlink="http://www.w3.org/1999/xlink" version="1.1">
<metadata>
Created by FontForge 20170731 at Sat Sep  1 00:23:30 2018
 By Aleksey,,,
Copyright (c) 2018 Commercial Type, Inc.. All rights reserved.
</metadata>
<defs>
<font id="SchnyderCondSDemi" horiz-adv-x="542" >
  <font-face 
    font-family="Schnyder Cond S Demi"
    font-weight="400"
    font-stretch="condensed"
    units-per-em="1000"
    panose-1="0 0 0 0 0 0 0 0 0 0"
    ascent="800"
    descent="-200"
    x-height="472"
    cap-height="750"
    bbox="-102 -296 969 1060"
    underline-thickness="16"
    underline-position="-124"
    unicode-range="U+000D-FB04"
  />
<missing-glyph horiz-adv-x="178" 
 />
    <glyph glyph-name="f_f" unicode="ff" horiz-adv-x="505" 
d="M267 13l-2 -1q12 5 19 10q8 7 11 16q3 10 3 29v48v340h-136v-340q0 -36 1 -48q2 -20 7 -29q6 -10 18 -16q10 -5 33 -10v-13h-189v13q13 5 18 10q6 6 9 16t3 29v48v340h-59v14q18 3 30 6q11 3 18 11q6 8 9 19q3 12 3 31v53q0 49 17 83t42 53q27 20 54 29q28 9 54 9
q43 0 69 -13q28 -14 35 -33q25 30 55 41q31 12 57 12q44 0 72 -18q29 -18 29 -46q0 -11 -8 -24q-7 -12 -27 -12q-22 0 -31 9q-8 8 -13 29q-6 27 -11 36q-5 8 -15 8q-8 0 -18 -5q-9 -5 -15 -18t-9 -36t-3 -57v-161h95v-19h-95v-340q0 -36 1 -48q2 -20 7 -29q6 -10 18 -16
q10 -5 33 -10v-13h-189v13zM299 474l-2 114q0 39 11 72h-2q-23 0 -30 10q-8 10 -12 30q-6 25 -11 35q-5 9 -23 9q-15 0 -27 -6q-11 -6 -21 -20q-10 -15 -14 -36q-5 -25 -5 -57v-151h136z" />
    <glyph glyph-name="f_i" unicode="fi" horiz-adv-x="461" 
d="M33 13l4 2q13 5 18 10q6 6 9 16q3 11 3 29v48v340h-59v14q36 4 49 17q12 12 12 39v67q0 50 15 83q15 32 38 54q22 21 48 30t48 9q43 0 69 -16q27 -17 27 -45q0 -14 -9 -24t-28 -10q-22 0 -29 9t-12 29q-6 27 -10 33q-5 8 -13 8q-10 0 -19 -6t-15 -19q-6 -14 -9 -36
t-3 -57v-161h94l140 11v-370v-48q0 -17 5 -29q4 -10 12 -16q6 -5 21 -10v-13h-176v13q15 5 21 10q8 7 11 16q4 13 5 29q1 12 1 48v225q0 45 -1 59q-2 22 -6 32q-5 11 -13 15q-11 5 -24 8h-94v-340q0 -36 1 -48q2 -20 7 -29q6 -10 18 -16q10 -5 33 -10v-13h-189v13zM354 551
l-4 -1q-23 0 -40 17q-16 16 -16 41q0 22 17 39t41 17q25 0 41 -16q17 -17 17 -39q0 -25 -16 -41q-17 -17 -40 -17z" />
    <glyph glyph-name="f_l" unicode="fl" horiz-adv-x="462" 
d="M33 13l-2 -1q13 5 18 10q6 6 9 16t3 29v48v340h-59v14q36 4 49 17q12 12 12 39v52q0 53 17 90q16 34 41 58q23 22 53 31q28 9 53 9q43 0 69 -15t26 -41q0 -9 -8 -22q-8 -12 -27 -12q-20 0 -27 10q-8 11 -12 30q-8 26 -13 30q-7 5 -12 5q-24 0 -42 -27t-18 -95v-153h76
v-19h-76v-340q0 -36 1 -48q2 -20 7 -29q6 -10 18 -16q10 -5 33 -10v-13h-189v13zM260 12l2 1q15 5 21 10q8 7 11 16q4 13 5 29q1 12 1 48v511q0 27 -1 35q-1 12 -6 18q-5 7 -13 8q-10 2 -25 3v15l142 75v-666q0 -36 1 -48q1 -16 5 -29q3 -9 11 -16q6 -5 23 -10v-13h-177v13z
" />
    <glyph glyph-name="f_f_i" unicode="ffi" horiz-adv-x="696" 
d="M33 13l4 -1q13 5 18 10q6 6 9 16t3 29v48v340h-59v14q18 3 30 6t18 11t9 19q3 12 3 31v53q0 49 17 83t42 53q27 20 54 29q29 9 54 9q43 0 69 -13q28 -14 35 -34q24 28 54 42q29 13 56 13q43 0 69 -16q27 -17 27 -45q0 -14 -9 -24t-28 -10t-28 9q-8 8 -13 29q-5 26 -9 33
q-5 8 -14 8t-18 -6t-15 -19q-6 -14 -9 -36t-3 -57v-161h94l141 11v-370v-48q0 -17 5 -29q4 -10 12 -16q6 -5 21 -10v-13h-176v13q15 5 21 10q8 7 11 16q4 13 5 29q1 12 1 48v225q0 45 -1 59q-2 22 -6 32q-5 11 -13 15q-11 5 -24 8h-94v-340q0 -36 1 -48q2 -20 7 -29
q6 -10 18 -16q10 -5 33 -10v-13h-189v13q12 5 19 10q8 7 11 16q3 11 3 29v48v340h-136v-340q0 -36 1 -48q2 -20 7 -29q6 -10 18 -16q10 -5 33 -10v-13h-189v13zM305 474l-2 114q0 39 11 72h-2q-23 0 -30 10q-8 10 -12 30q-6 25 -11 35q-5 9 -23 9q-15 0 -27 -6
q-11 -6 -21 -20q-10 -15 -14 -36q-5 -25 -5 -57v-151h136zM586 546l-1 -1q-22 0 -39 17q-16 16 -16 41q0 22 17 39t39 17q25 0 41 -16q17 -17 17 -39q0 -24 -17 -41t-41 -17z" />
    <glyph glyph-name="f_f_l" unicode="ffl" horiz-adv-x="696" 
d="M267 13l-4 -3q12 5 19 10q8 7 11 16q3 10 3 29v48v340h-136v-340q0 -36 1 -48q2 -20 7 -29q6 -10 18 -16q10 -5 33 -10v-13h-189v13q13 5 18 10q6 6 9 16t3 29v48v340h-59v14q18 3 30 6q11 3 18 11q6 8 9 19q3 12 3 31v53q0 50 16 82q17 34 42 53q27 20 54 29q29 9 54 9
q47 0 75 -15t36 -38q26 31 60 45q33 13 63 13q43 0 69 -15t26 -41q0 -9 -8 -22q-8 -12 -26 -12q-22 0 -29 10q-7 11 -12 30q-6 25 -12 30q-7 5 -12 5q-24 0 -42 -27t-18 -95v-153h77v-19h-77v-340q0 -36 1 -48q2 -20 7 -29q6 -10 18 -16q10 -5 33 -10v-13h-189v13zM297 472
l-4 102q0 28 4 47q5 22 12 38h-6q-22 0 -29 10q-8 11 -12 30q-6 26 -12 35t-24 9q-29 0 -47 -25q-18 -26 -18 -96v-150h136zM489 10l2 1q15 5 21 10q8 7 11 16q4 13 5 29q1 12 1 48v511q0 27 -1 35q-2 12 -6 18q-5 7 -13 8q-10 2 -25 3v15l142 75v-666q0 -36 1 -48
q1 -16 5 -29q3 -9 11 -16q6 -5 23 -10v-13h-177v13z" />
    <glyph glyph-name="f_b" unicode="fb" horiz-adv-x="725" 
d="M33 13l-2 -1q13 5 18 10q6 6 9 16t3 29v48v340h-59v14q36 4 49 17q12 12 12 39v52q0 53 17 90q16 34 41 58q23 22 53 31q28 9 53 9q43 0 69 -15t26 -41q0 -9 -8 -22q-8 -12 -27 -12q-20 0 -27 10q-8 11 -12 30q-8 26 -13 30q-7 5 -12 5q-24 0 -42 -27t-18 -95v-153h76
v-19h-76v-340q0 -36 1 -48q2 -20 7 -29q6 -10 18 -16q10 -5 33 -10v-13h-189v13zM475 -8l-10 -4q-24 0 -42 6q-12 4 -34 14q-5 2 -15 7t-15 7q-13 6 -27 6q-13 0 -18 -8q-4 -7 -6 -14h-15v607q0 30 -1 40q-2 17 -4 23q-3 8 -11 11q-6 2 -23 4v15l139 72v-382l1 1
q28 33 58 58q29 25 72 25q28 0 58 -12t54 -39t39 -71t15 -107q0 -64 -16 -111q-16 -48 -45 -81t-68 -50q-40 -17 -86 -17zM417 22v-4q10 -8 19 -12q12 -5 28 -5q56 0 84 57q29 58 29 171q0 62 -6 104t-18 69t-27 39t-32 12q-29 0 -52 -22q-26 -25 -53 -57l-1 -1v-264
q0 -36 8 -57q8 -20 21 -30z" />
    <glyph glyph-name="f_f_b" unicode="ffb" horiz-adv-x="960" 
d="M267 13v-4q12 5 19 10q8 7 11 16q3 11 3 29v48v340h-136v-340q0 -36 1 -48q2 -20 7 -29q6 -10 18 -16q10 -5 33 -10v-13h-189v13q13 5 18 10q6 6 9 16q3 11 3 29v48v340h-59v14q18 3 30 6q11 3 18 11q6 8 9 19q3 12 3 31v53q0 48 17 82q16 33 42 54t54 30t54 9
q47 0 74 -15q28 -15 32 -40q26 32 60 45q36 14 63 14q43 0 69 -15t26 -41q0 -9 -8 -22q-8 -12 -26 -12q-22 0 -29 10q-7 11 -12 30q-6 25 -12 30q-7 5 -12 5q-24 0 -42 -27t-18 -95v-153h77v-19h-77v-340q0 -36 1 -48q2 -20 7 -29q6 -10 18 -16q10 -5 33 -10v-13h-189v13z
M301 471l-3 101q0 28 4 47q4 21 12 39q-1 -1 -6 -1q-22 0 -29 10q-8 11 -12 28q-7 26 -12 37q-4 10 -21 10q-15 0 -27 -6q-11 -6 -21 -20q-9 -14 -15 -37q-6 -24 -6 -58v-150h136zM708 -12l-10 -4q-24 0 -42 6q-12 4 -34 14q-5 2 -15 7t-15 7q-14 6 -27 6t-18 -8
q-4 -7 -6 -14h-15v607q0 30 -1 40q-2 17 -4 23q-3 8 -11 11q-6 2 -23 4v15l139 72v-382l1 1q28 33 58 58q29 25 72 25q28 0 58 -12t54 -39t39 -71t15 -107q0 -64 -16 -111q-17 -48 -45 -81q-29 -33 -68 -50q-40 -17 -86 -17zM650 18v-4q10 -8 19 -12q12 -5 28 -5q55 0 84 57
q29 58 29 171q0 62 -6 104t-18 69t-27 39t-32 12q-29 0 -52 -22q-26 -25 -53 -57l-1 -1v-264q0 -36 8 -57q7 -20 21 -30z" />
    <glyph glyph-name="f_f_h" unicode="ffh" horiz-adv-x="958" 
d="M267 13v-4q12 5 19 10q8 7 11 16q3 11 3 29v48v340h-136v-340q0 -36 1 -48q2 -20 7 -29q6 -10 18 -16q10 -5 33 -10v-13h-189v13q13 5 18 10q6 6 9 16q3 11 3 29v48v340h-59v14q18 3 30 6q11 3 18 11q6 8 9 19q3 12 3 31v53q0 48 17 82q16 33 42 54t54 30t54 9
q47 0 74 -15q28 -15 32 -40q26 32 60 45q36 14 63 14q43 0 69 -15t26 -41q0 -9 -8 -22q-8 -12 -26 -12q-22 0 -29 10q-7 11 -12 30q-6 25 -12 30q-7 5 -12 5q-24 0 -42 -27t-18 -95v-153h77v-19h-77v-340q0 -36 1 -48q2 -20 7 -29q6 -10 18 -16q10 -5 33 -10v-13h-189v13z
M301 471l-3 101q0 28 4 47q4 21 12 39q-1 -1 -6 -1q-22 0 -29 10q-8 11 -12 28q-7 26 -12 37q-4 10 -21 10q-15 0 -27 -6q-11 -6 -21 -20q-9 -14 -15 -37q-6 -24 -6 -58v-150h136zM498 8h2q12 5 19 10q8 7 11 16q3 10 3 29v48v499q0 32 -1 42q-2 16 -6 23q-5 8 -13 9
q-10 2 -25 3v15l142 75v-401l20 20q43 43 73 62q33 21 71 21q18 0 36 -6q19 -6 33 -19q15 -14 24 -36t9 -55v-253v-48q0 -18 3 -29q3 -10 10 -16q7 -5 19 -10v-13h-170v13q15 5 21 10q8 6 12 16t6 29q1 12 1 48v279q0 32 -12 44t-31 12q-16 0 -40 -15t-65 -56l-20 -20v-243
v-48q0 -17 5 -29q4 -10 12 -16q6 -5 21 -10v-13h-170v13z" />
    <glyph glyph-name="f_f_j" unicode="ffj" horiz-adv-x="696" 
d="M267 13l1 -5q12 5 19 10q8 7 11 16q3 11 3 29v48v340h-136v-340q0 -36 1 -48q2 -20 7 -29q6 -10 18 -16q10 -5 33 -10v-13h-189v13q13 5 18 10q6 6 9 16q3 11 3 29v48v340h-59v14q18 3 30 6t18 11t9 19q3 12 3 31v53q0 49 17 83t42 53q27 20 54 29q29 9 54 9q43 0 69 -13
q28 -14 35 -34q24 28 54 42q29 13 56 13q43 0 69 -16q27 -17 27 -45q0 -14 -9 -24t-28 -10t-28 9q-8 8 -13 29q-5 26 -9 33q-5 8 -14 8t-18 -6t-15 -19q-6 -14 -9 -36t-3 -57v-161h94l141 10v-427q0 -60 -20 -102q-19 -40 -65 -72q-31 -23 -54 -30q-21 -7 -43 -7
q-15 0 -31 11q-15 11 -15 30t12 28t26 9q11 0 22 -6q7 -4 19 -14q6 -5 16 -13q7 -6 15 -6q5 0 9 4q2 2 6 8q2 4 4 15q2 14 2 28v48v384q0 32 -1 42q-2 15 -6 24t-13 13q-7 4 -24 7h-94v-340q0 -36 1 -48q2 -20 7 -29q6 -10 18 -16q10 -5 33 -10v-13h-189v13zM302 470l-2 114
q0 39 11 72h-2q-23 0 -30 10t-12 30q-6 25 -11 35q-4 9 -23 9q-15 0 -27 -6t-21 -20q-10 -15 -14 -36q-5 -25 -5 -57v-151h136zM583 542l-1 -1q-22 0 -39 17q-16 16 -16 41q0 22 17 39t39 17q25 0 41 -16q17 -17 17 -39q0 -24 -17 -41t-41 -17z" />
    <glyph glyph-name="f_f_k" unicode="ffk" horiz-adv-x="918" 
d="M267 13v-4q12 5 19 10q8 7 11 16q3 11 3 29v48v340h-136v-340q0 -36 1 -48q2 -20 7 -29q6 -10 18 -16q10 -5 33 -10v-13h-189v13q13 5 18 10q6 6 9 16q3 11 3 29v48v340h-59v14q18 3 30 6q11 3 18 11q6 8 9 19q3 12 3 31v53q0 48 17 82q16 33 42 54t54 30t54 9
q47 0 74 -15q28 -15 32 -40q26 32 60 45q36 14 63 14q43 0 69 -15t26 -41q0 -9 -8 -22q-8 -12 -26 -12q-22 0 -29 10q-7 11 -12 30q-6 25 -12 30q-7 5 -12 5q-24 0 -42 -27t-18 -95v-153h77v-19h-77v-340q0 -36 1 -48q2 -20 7 -29q6 -10 18 -16q10 -5 33 -10v-13h-189v13z
M301 471l-3 101q0 28 4 47q4 21 12 39q-1 -1 -6 -1q-22 0 -29 10q-8 11 -12 28q-7 26 -12 37q-4 10 -21 10q-15 0 -27 -6q-11 -6 -21 -20q-9 -14 -15 -37q-6 -24 -6 -58v-150h136zM498 8h2q12 5 19 10q8 7 11 16q3 10 3 29v48v511q0 27 -1 35q-2 12 -6 18q-5 7 -12 8t-23 3
v15l139 76v-666v-48q0 -17 5 -29q4 -10 12 -16q6 -5 21 -10v-13h-170v13zM739 7l-3 -2q20 3 24 13t-9 36l-108 187v12l145 142q16 16 20 26q5 11 2 18t-12 12t-19 6v13h115v-13q-15 -4 -36 -20q-22 -17 -57 -52l-87 -84l152 -251q13 -23 23 -33q8 -8 18 -10v-12h-168v12z
" />
    <glyph glyph-name="f_h" unicode="fh" horiz-adv-x="724" 
d="M33 13l-2 -1q13 5 18 10q6 6 9 16t3 29v48v340h-59v14q36 4 49 17q12 12 12 39v52q0 53 17 90q16 34 41 58q23 22 53 31q28 9 53 9q43 0 69 -15t26 -41q0 -9 -8 -22q-8 -12 -27 -12q-20 0 -27 10q-8 11 -12 30q-8 26 -13 30q-7 5 -12 5q-24 0 -42 -27t-18 -95v-153h76
v-19h-76v-340q0 -36 1 -48q2 -20 7 -29q6 -10 18 -16q10 -5 33 -10v-13h-189v13zM265 12h2q12 5 19 10q8 7 11 16q3 10 3 29v48v499q0 32 -1 42q-2 16 -6 23q-5 8 -13 9q-10 2 -25 3v15l142 75v-401l20 20q43 43 73 62q33 21 71 21q18 0 36 -6q19 -6 33 -19q15 -14 24 -36
q9 -23 9 -55v-253v-48q0 -18 3 -29q3 -10 10 -16q7 -5 19 -10v-13h-170v13q15 5 21 10q8 6 12 16t6 29q1 12 1 48v279q0 32 -12 44t-31 12q-16 0 -40 -15t-65 -56l-20 -20v-243v-48q0 -17 5 -29q4 -10 12 -16q6 -5 21 -10v-13h-170v13z" />
    <glyph glyph-name="f_j" unicode="fj" horiz-adv-x="461" 
d="M33 13l-2 -2q13 5 18 10q6 6 9 16t3 29v48v340h-59v14q36 4 49 17q12 12 12 39v67q0 50 15 83q15 32 38 54q22 21 48 30t48 9q43 0 69 -16q27 -17 27 -45q0 -14 -9 -24t-28 -10q-21 0 -29 9q-7 9 -12 29q-6 27 -10 33q-5 8 -13 8q-10 0 -19 -6t-15 -19q-6 -14 -9 -36
t-3 -57v-161h94l140 10v-427q0 -60 -20 -102q-19 -41 -63 -72q-33 -23 -54 -30q-20 -7 -42 -7q-18 0 -32 11t-14 30t12 28t27 9q12 0 21 -6q6 -4 18 -14q6 -5 16 -13q8 -6 15 -6q6 0 10 4q2 2 6 8q2 4 4 15q2 14 2 28v48v384q0 32 -1 42q-2 15 -6 24t-13 13q-7 4 -24 7h-94
v-340q0 -36 1 -48q2 -20 7 -29q6 -10 18 -16q10 -5 33 -10v-13h-189v13zM348 547l-4 -1q-23 0 -40 17q-16 16 -16 41q0 22 17 39t41 17q25 0 41 -16q17 -17 17 -39q0 -25 -16 -41q-17 -17 -40 -17z" />
    <glyph glyph-name="f_k" unicode="fk" horiz-adv-x="684" 
d="M33 13l-2 -1q13 5 18 10q6 6 9 16t3 29v48v340h-59v14q36 4 49 17q12 12 12 39v52q0 53 17 90q16 34 41 58q23 22 53 31q28 9 53 9q43 0 69 -15t26 -41q0 -9 -8 -22q-8 -12 -27 -12q-20 0 -27 10q-8 11 -12 30q-8 26 -13 30q-7 5 -12 5q-24 0 -42 -27t-18 -95v-153h76
v-19h-76v-340q0 -36 1 -48q2 -20 7 -29q6 -10 18 -16q10 -5 33 -10v-13h-189v13zM265 12h2q12 5 19 10q8 7 11 16q3 10 3 29v48v511q0 27 -1 35q-1 12 -6 18q-5 7 -12 8t-23 3v15l139 76v-666v-48q0 -17 5 -29q4 -10 12 -16q6 -5 21 -10v-13h-170v13zM506 11l-3 -2
q20 3 24 13q5 10 -9 36l-108 187v12l145 142q15 16 20 26q5 11 2 18t-12 12t-19 6v13h115v-13q-15 -4 -36 -20q-22 -17 -57 -52l-87 -84l152 -251q13 -23 23 -33q8 -8 18 -10v-12h-168v12z" />
    <glyph glyph-name="g_j" unicode="gj" horiz-adv-x="656" 
d="M542 553h-1q-22 0 -39 17t-17 42q0 22 17 39t39 17q26 0 42 -16q17 -17 17 -39q0 -25 -16 -42q-16 -18 -42 -18zM404 -150l5 -1q-20 0 -34 8q-13 7 -13 24q0 15 12 27t23 12t21 -6q14 -8 20 -13t18 -13q9 -6 18 -6q8 0 12 4t5 8t3 15q2 14 2 29v47v322q0 32 -1 42
q-1 15 -6 24q-4 9 -13 13t-24 9v14l140 75v-428q0 -59 -20 -102t-63 -71q-31 -21 -57 -27t-48 -6zM200 171l-5 -2q-41 0 -78 15l-12 -9q-25 -21 -25 -36q0 -9 6 -16t32 -12l155 -24q73 -12 99 -40q27 -28 27 -73q0 -34 -15 -61t-42 -45t-64 -27q-38 -9 -79 -9q-35 0 -69 6
q-35 6 -61 19q-28 14 -44 33q-17 20 -17 45q0 16 8 30t21 26t30 21q22 12 33 17q-34 11 -48 30q-14 20 -14 45q0 30 18 50t38 35l10 7q-32 17 -53 48q-21 32 -21 83q0 43 16 72q17 30 41 50q25 20 54 29q30 9 58 9q43 0 84 -21q25 21 51 33t45 12q39 0 39 -36q0 -16 -9 -25
t-20 -9q-10 0 -17 4q-10 6 -15 10t-13 10q-5 4 -12 4q-17 0 -34 -10q31 -20 51 -52q21 -33 21 -82q0 -43 -16 -72q-16 -30 -42 -48q-27 -19 -55 -26q-32 -8 -57 -8zM67 -65l-2 -2q0 -39 36 -64q35 -25 99 -25q72 0 111 27t39 65q0 27 -19 39q-21 13 -70 20l-126 20l-18 3
q-29 -15 -39 -34q-11 -20 -11 -49zM193 183v-1q14 0 27 7q14 7 24 24q11 18 17 42q6 25 6 63q0 76 -23 111t-51 35q-30 0 -52 -34t-22 -111q0 -37 6 -63q6 -24 17 -42q10 -16 24 -24q13 -7 27 -7z" />
    <glyph glyph-name=".notdef" horiz-adv-x="178" 
 />
    <glyph glyph-name=".null" horiz-adv-x="0" 
 />
    <glyph glyph-name="nonmarkingreturn" unicode="&#xd;" horiz-adv-x="178" 
 />
    <glyph glyph-name="NULL" horiz-adv-x="0" 
 />
    <glyph glyph-name="NULL" horiz-adv-x="0" 
 />
    <glyph glyph-name="space" unicode=" " horiz-adv-x="178" 
 />
    <glyph glyph-name="exclam" unicode="!" horiz-adv-x="238" 
d="M110 205l-2 -1q-4 96 -14 183q-9 79 -18 138q-11 74 -16 98q-7 36 -7 63q0 35 18 53t47 18q30 0 48 -18t18 -53q0 -27 -7 -63q-5 -28 -16 -97q-9 -58 -18 -138q-10 -87 -14 -183h-19zM118 -14q-26 0 -45 18t-19 46q0 27 19 45t45 18q27 0 45 -18t18 -45q0 -28 -18 -46
t-45 -18z" />
    <glyph glyph-name="quotedbl" unicode="&#x22;" horiz-adv-x="331" 
d="M231 534h2q-5 20 -12 45l-15 51q-2 7 -13 48q-6 22 -6 39q0 26 13 40q14 15 39 15t39 -15q13 -14 13 -40q0 -17 -6 -39q-11 -41 -13 -48l-15 -51q-6 -22 -10 -45h-16zM86 534q-4 23 -10 45l-15 51q-2 7 -13 48q-6 22 -6 39q0 26 13 40q13 15 39 15t39 -15q13 -14 13 -40
q0 -17 -6 -39q-11 -41 -13 -48l-15 -51q-6 -22 -10 -45h-16z" />
    <glyph glyph-name="numbersign" unicode="#" horiz-adv-x="412" 
d="M13 284h96l36 232h-92v20h95l34 214h23l-34 -214h105l34 214h23l-34 -214h97v-20h-100l-36 -232h96v-20h-100l-41 -263h-23l41 263h-105l-41 -263h-23l41 263h-92v20zM237 284l36 232h-105l-36 -232h105z" />
    <glyph glyph-name="dollar" unicode="$" horiz-adv-x="446" 
d="M194 827l-6 -73q4 1 12 1h13h14q8 0 12 -1v70h22v-72q61 -9 102 -39q40 -30 40 -70q0 -21 -10 -32q-11 -12 -30 -12q-24 0 -36 15q-13 16 -17 42q-4 32 -12 51q-7 19 -35 27v-301q29 -23 61 -51q27 -24 49 -54t32 -61q11 -35 11 -73q0 -80 -42 -131t-110 -65v-85h-22v81
q-4 -1 -12 -1h-13h-13q-8 0 -12 1v-81h-22v83q-69 11 -112 43q-43 33 -43 78q0 24 14 36q13 12 35 12t36 -12q13 -12 15 -38q2 -49 10 -71q9 -23 45 -31v357q-27 21 -57 47q-24 21 -43 48q-18 25 -27 54t-9 66q0 67 39 111t99 57v74h22zM213 739v-2h-13q-8 0 -12 -1v-247
q9 -9 24 -19q9 -6 27 -20v288q-4 1 -12 1h-14zM104 631l-1 -1q0 -41 16 -69q17 -30 46 -57v223q-31 -10 -46 -36q-15 -25 -15 -60zM213 3h13q4 0 12 2v304q-10 9 -24 18q-9 6 -27 20v-343q4 -1 12 -1h14zM335 135q0 43 -17 80t-57 74v-279q38 12 56 44t18 81z" />
    <glyph glyph-name="percent" unicode="%" horiz-adv-x="660" 
d="M175 379l-1 -2q-27 0 -53 14q-24 13 -46 38q-21 24 -33 59q-12 34 -12 77t12 77t33 60q21 25 47 39t53 14q28 0 54 -13q27 -14 48 -39t33 -60q12 -34 12 -76q0 -43 -12 -77q-12 -35 -33 -59q-22 -25 -48 -38q-28 -14 -54 -14zM110 7l418 747l19 -12l-418 -748zM174 393
l2 -1q13 0 25 9t21 30t15 54t6 81t-6 81q-6 34 -15 53q-9 20 -21 29t-25 9t-25 -9t-21 -29q-9 -19 -15 -53q-6 -33 -6 -81q0 -94 20 -134q19 -39 45 -39zM483 -9v-2q-27 0 -53 14q-25 13 -45 38t-32 59q-12 35 -12 77q0 43 12 77q12 33 32 60q19 26 45 39q26 14 53 14
q28 0 54 -13q27 -14 48 -39t33 -60t12 -76q0 -43 -12 -77q-12 -35 -33 -59q-22 -25 -48 -38q-28 -14 -54 -14zM483 5l1 -1q14 0 26 9t21 30t15 54t6 81t-6 81q-6 34 -15 53q-9 20 -21 29t-25 9t-25 -9t-21 -29q-9 -19 -15 -53q-6 -33 -6 -81q0 -94 20 -134q20 -39 45 -39z
" />
    <glyph glyph-name="ampersand" unicode="&#x26;" horiz-adv-x="652" 
d="M481 206l3 -2q45 -69 66 -98q28 -39 42 -56q16 -20 27 -27q10 -7 23 -12v-13h-146l-66 100q-39 -60 -85 -85t-100 -25q-47 0 -86 15q-38 15 -67 42q-28 27 -45 65q-16 36 -16 84q0 52 18 89t45 66q28 29 58 48q48 30 57 35q-33 55 -47 93q-15 41 -15 75q0 36 14 67
q13 30 36 51q23 22 51 32q30 11 59 11q27 0 53 -9q27 -9 45 -25q20 -17 32 -42t12 -58q0 -34 -15 -61t-36 -48t-45 -36q-27 -17 -44 -26q6 -8 8 -12t8 -12l134 -196l7 -10l40 102q12 32 21 59q8 23 6 38q-2 16 -13 23q-14 9 -34 14v13h149v-13q-18 -4 -34 -11
q-13 -6 -24 -21q-10 -14 -22 -40q-10 -22 -28 -67zM234 653l-3 -1q0 -52 23 -98q21 -42 50 -87q15 11 26 21q15 13 26 30q13 19 20 42q8 26 8 59q0 40 -7 62q-8 26 -19 38q-12 14 -25 18q-15 5 -25 5q-32 0 -53 -25t-21 -64zM144 202v2q0 -98 27 -147q27 -50 82 -50
q47 0 88 25q42 26 78 85l-172 258l-15 21l-14 22q-16 -13 -30 -32t-24 -43q-10 -25 -15 -60q-5 -38 -5 -81z" />
    <glyph glyph-name="quotesingle" unicode="'" horiz-adv-x="184" 
d="M84 534q-4 23 -10 45l-15 51q-2 7 -13 48q-6 22 -6 39q0 26 13 40q13 15 39 15t39 -15q13 -14 13 -40q0 -17 -6 -39q-11 -41 -13 -48l-15 -51q-6 -22 -10 -45h-16z" />
    <glyph glyph-name="parenleft" unicode="(" horiz-adv-x="280" 
d="M257 -106l-3 -1q-23 20 -67 65q-38 40 -73 97q-36 59 -59 129q-24 72 -24 161t24 161q23 70 59 129q34 56 74 96q36 36 68 63l10 -11q-16 -17 -40 -52t-45 -88q-21 -55 -36 -127q-15 -74 -15 -171t15 -171q15 -72 36 -127q21 -53 45 -88q22 -31 41 -54z" />
    <glyph glyph-name="parenright" unicode=")" horiz-adv-x="280" 
d="M13 -95l-3 -3q14 16 40 54q23 33 46 88q23 56 38 128q15 74 15 171t-15 171q-16 77 -37 128q-23 55 -46 88q-27 39 -40 53l10 11q32 -27 68 -63q40 -40 74 -96q36 -59 59 -129q24 -72 24 -161t-24 -161q-23 -70 -59 -129q-35 -57 -73 -97q-39 -40 -67 -64z" />
    <glyph glyph-name="asterisk" unicode="*" horiz-adv-x="337" 
d="M196 498l-10 -3q0 -36 -28 -36t-28 36q0 21 11 48q10 25 15 59q-22 -28 -32 -53t-27 -42q-12 -13 -24 -13t-21 9t-9 21t14 24q18 16 44 27q25 11 51 30q-32 -4 -60 -14q-26 -9 -48 -9q-36 0 -36 27q0 28 36 28q23 0 49 -10q27 -11 60 -15q-13 10 -27 18q-2 1 -11 6.5
t-14 7.5q-16 8 -23 12q-9 5 -19 15q-14 12 -14 24q0 13 10 23q19 20 45 -6q15 -17 27 -43q11 -25 32 -54q-5 35 -15 60q-10 24 -10 48q0 18 7 26q7 9 21 9t21 -9q7 -8 7 -25q0 -22 -9 -49q-10 -30 -14 -61q18 26 31 54q12 26 27 42q25 26 48 3q8 -8 8 -20t-14 -24
q-10 -10 -19 -15q-14 -8 -22 -12q-16 -8 -25 -13q-13 -7 -27 -18q34 5 59 15q27 11 48 11q36 0 36 -28q0 -27 -36 -27q-23 0 -48 9q-28 10 -58 14q26 -20 50 -29t44 -26q27 -26 5 -48q-9 -9 -21 -8q-12 2 -24 15q-14 15 -25 42q-12 28 -31 53q4 -33 14 -59q9 -24 9 -47z" />
    <glyph glyph-name="plus" unicode="+" horiz-adv-x="421" 
d="M200 173v168h-160v19h160v170h22v-170h159v-19h-159v-168h-22z" />
    <glyph glyph-name="comma" unicode="," horiz-adv-x="246" 
d="M146 16l3 -2q-5 -10 -13 -14q-10 -5 -25 -5q-23 0 -39 15t-16 41q0 27 18 44q19 17 42 17q12 0 27 -5q13 -5 24 -15q11 -11 17 -29t6 -43q0 -55 -34 -93t-87 -58l-7 11q45 20 69 48t24 63q0 8 -3 14q-4 8 -6 11z" />
    <glyph glyph-name="hyphen" unicode="-" horiz-adv-x="290" 
d="M64 307h182l-19 -73h-183z" />
    <glyph glyph-name="period" unicode="." horiz-adv-x="234" 
d="M117 -13q-26 0 -44 18t-18 46q0 27 18 45t44 18q28 0 46 -18t18 -45q0 -28 -18 -46t-46 -18z" />
    <glyph glyph-name="slash" unicode="/" horiz-adv-x="367" 
d="M357 795l-346 -961l-23 8l346 961z" />
    <glyph glyph-name="zero" unicode="0" horiz-adv-x="581" 
d="M293 761l-1 -2q47 0 93 -26t80 -75q36 -51 56 -121q21 -72 21 -163t-21 -163q-20 -70 -56 -121q-34 -49 -79 -76t-93 -27t-93 27q-44 27 -81 77q-36 49 -57 122q-21 72 -21 163t21 163q21 71 57 121t81 75q46 26 93 26zM292 743l-2 -1q-62 0 -99 -90q-38 -91 -38 -278
q0 -188 36 -280q36 -91 102 -91t99 91q34 93 35 280q0 189 -36 279t-97 90z" />
    <glyph glyph-name="one" unicode="1" horiz-adv-x="291" 
d="M36 0l-2 12q20 3 32 9t18 24q7 20 8 51q2 44 2 92v338q0 40 -1 53q-1 19 -8 29q-6 9 -20 11q-16 2 -39 -1v14l178 131v-574q0 -48 2 -92q2 -35 7 -51q6 -18 17 -24q10 -6 30 -9v-13h-224z" />
    <glyph glyph-name="two" unicode="2" horiz-adv-x="465" 
d="M230 90l-7 -2q50 0 98 2q35 1 56 8q20 6 29 17q8 9 16 29h18l-27 -99q-7 -31 -14 -39q-6 -7 -24 -7h-377l147 190q39 53 69 104t47 93q19 47 26 90q8 48 8 95q0 86 -22 127q-23 42 -76 42q-23 0 -37 -9q-15 -10 -20 -22q-6 -13 -9 -30l-6 -33q-5 -26 -16 -39
q-12 -13 -37 -13q-22 0 -36 15q-13 14 -13 36q0 19 12 39t34 36t56 27q31 10 76 10q32 0 70 -9q39 -9 69 -31q33 -23 53 -58q21 -36 21 -91q0 -50 -15 -96q-16 -48 -43 -93q-30 -49 -70 -96q-46 -54 -97 -108l-94 -85h135z" />
    <glyph glyph-name="three" unicode="3" horiz-adv-x="494" 
d="M205 7l-5 -4q37 0 64 18q28 19 44 49q17 32 24 76q8 48 8 99q0 47 -3 83q-3 37 -12 62t-26 39q-16 13 -45 13q-25 0 -40 -4q-16 -4 -30 -12t-24 -18l-22 -22l-11 11l220 262h-118q-42 0 -82 -2q-28 -1 -46 -8q-17 -6 -24 -16q-8 -11 -15 -28h-19l28 106q7 27 12 33t18 6
h331v-14l-240 -289q12 6 27 9t36 3q41 0 77 -12q38 -13 65 -37q29 -26 45 -66q17 -42 17 -99t-18 -104t-51 -80q-32 -32 -80 -52q-45 -19 -105 -19q-38 0 -73 11q-32 10 -55 27t-35 38t-12 44q0 20 12 35t35 15q50 0 56 -50q1 -11 3 -35q1 -16 8 -33q5 -14 20 -25
q13 -10 41 -10z" />
    <glyph glyph-name="four" unicode="4" horiz-adv-x="526" 
d="M401 188l-2 -1q0 -68 1 -90q2 -33 6 -51t14 -24q8 -5 24 -10v-13h-198v13q14 4 24 11q10 6 14 24t6 51q1 22 1 90h-271v13l345 558h36v-497h111l-37 -74h-74zM289 261v342l-210 -342h210z" />
    <glyph glyph-name="five" unicode="5" horiz-adv-x="485" 
d="M134 661l-48 -219q22 20 54 30q33 11 69 11q43 0 83 -12q41 -12 74 -39t52 -70q20 -45 20 -108q0 -64 -21 -113q-21 -50 -55 -84q-33 -33 -80 -52q-45 -18 -96 -18q-38 0 -69 9q-30 9 -54 26q-22 16 -36 38q-13 20 -13 47q0 19 14 33t35 14q23 0 36 -13t15 -36
q2 -13 4 -45q2 -21 7 -33q6 -13 20 -19q13 -6 42 -6q35 0 60 19q24 18 43 53q18 33 27 80q9 46 9 102q0 100 -27 156q-27 55 -87 55q-46 0 -79 -15q-34 -15 -54 -37l-11 7l67 327h298l-20 -67q-4 -14 -8 -18q-3 -3 -14 -3h-257z" />
    <glyph glyph-name="six" unicode="6" horiz-adv-x="553" 
d="M323 744l1 -4q-40 0 -68 -18t-48 -54q-20 -38 -32 -87q-13 -54 -17 -116q24 22 56 36q33 14 68 14q51 0 93 -16q43 -16 76 -48t51 -79q18 -48 18 -109q0 -69 -22 -119q-23 -52 -57 -86t-75 -52t-78 -18q-43 0 -86 22q-44 23 -80 69q-36 47 -60 117t-24 168q0 87 24 159
t65 125t91 81q52 29 105 29q39 0 69 -9q31 -9 51 -22q22 -14 32 -31q11 -19 11 -37q0 -21 -13 -33q-14 -12 -33 -12q-22 0 -37 12t-17 38q-6 49 -20 65q-13 15 -44 15zM154 362l-1 -1q0 -101 12 -170q12 -67 32 -111q19 -41 44 -60q24 -18 47 -18q33 0 56 17q22 16 36 50
q14 35 20 81q6 48 6 110q0 73 -10 117q-11 47 -28 73q-18 28 -42 38q-25 11 -49 11q-35 0 -67 -15q-31 -15 -55 -40q-1 -13 -1 -40v-42z" />
    <glyph glyph-name="seven" unicode="7" horiz-adv-x="453" 
d="M175 0l-20 -1l226 660h-194q-55 0 -73 -1q-28 -2 -42 -7q-15 -6 -21 -15q-4 -6 -13 -24h-16l30 109q4 19 9 24t18 5h349v-14z" />
    <glyph glyph-name="eight" unicode="8" horiz-adv-x="503" 
d="M470 195l-5 -7q0 -46 -18 -84q-18 -37 -46 -64t-68 -42q-39 -15 -82 -15q-47 0 -89 14q-40 13 -71 38t-47 57q-17 34 -17 71q0 41 13 71q14 32 36 57t51 45q31 21 60 35q-31 22 -57 47q-25 23 -39 46q-16 25 -23 51q-7 25 -7 60q0 43 17 79q16 34 45 57q27 22 63 34
q34 12 69 12q45 0 81 -12q35 -12 61 -33q25 -21 39 -51q13 -29 13 -64q0 -30 -12 -57t-31 -49t-43 -40q-23 -17 -47 -30q38 -27 66 -51t48 -51t30 -57q10 -29 10 -67zM250 -1l-1 1q37 0 63 9q24 9 40 26q15 17 21 40q6 24 6 53q0 36 -11 66q-10 28 -30 54t-48 48
q-23 18 -63 46l-29 20q-38 -27 -57 -72q-19 -44 -19 -121q0 -37 6 -69t21 -54q15 -23 39 -35t62 -12zM296 425v1q29 23 47 60q18 38 18 105q0 79 -31 113q-32 35 -79 35q-112 0 -112 -109q0 -58 35 -102q34 -44 102 -90z" />
    <glyph glyph-name="nine" unicode="9" horiz-adv-x="554" 
d="M229 6l-8 -5q45 0 75 18t50 53q20 36 29 86q10 56 14 117q-26 -23 -58 -36q-34 -14 -72 -14q-49 0 -90 16t-73 48t-50 80t-18 111q0 66 23 118q22 50 57 85q34 35 75 51q42 17 77 17q45 0 91 -23q45 -22 81 -69q35 -45 58 -116q22 -67 22 -162q0 -85 -21 -157t-59 -125
q-37 -52 -90 -82q-52 -30 -114 -30q-38 0 -69 9t-54 24q-22 14 -34 33q-12 18 -12 37q0 22 12 35q12 14 32 14q23 0 38 -12q16 -12 17 -37q1 -17 5 -36q3 -15 11 -26q7 -10 21 -16q13 -6 34 -6zM139 482l3 -3q0 -129 30 -184t90 -55q39 0 73 17q33 17 56 41q1 13 1 39v41
q0 103 -13 168q-14 70 -34 110q-21 42 -45 60t-45 18q-53 0 -85 -60q-31 -59 -31 -192z" />
    <glyph glyph-name="colon" unicode=":" horiz-adv-x="242" 
d="M121 309q-26 0 -44 18t-18 46q0 27 18 45t44 18q28 0 46 -18t18 -45q0 -28 -18 -46t-46 -18zM121 -13q-26 0 -44 18t-18 46q0 27 18 45t44 18q28 0 46 -18t18 -45q0 -28 -18 -46t-46 -18z" />
    <glyph glyph-name="semicolon" unicode=";" horiz-adv-x="254" 
d="M126 309q-27 0 -45 18t-18 46q0 27 18 45t45 18t45 -18t18 -45q0 -28 -18 -46t-45 -18zM150 16l2 -2q-5 -10 -13 -14q-10 -5 -25 -5q-22 0 -39 15q-16 15 -16 41q0 27 18 44q19 17 41 17q12 0 27 -5q13 -5 24 -15q10 -10 18 -29q7 -17 7 -43q0 -55 -34 -93t-87 -58l-7 11
q45 20 69 48t24 63q0 8 -3 14q-4 8 -6 11z" />
    <glyph glyph-name="less" unicode="&#x3c;" horiz-adv-x="406" 
d="M48 363l310 138v-24l-284 -126l284 -127v-24l-310 138v25z" />
    <glyph glyph-name="equal" unicode="=" horiz-adv-x="425" 
d="M42 416h341v-19h-341v19zM42 295h341v-20h-341v20z" />
    <glyph glyph-name="greater" unicode="&#x3e;" horiz-adv-x="406" 
d="M48 200v24l284 127l-284 126v24l310 -138v-25z" />
    <glyph glyph-name="question" unicode="?" horiz-adv-x="385" 
d="M138 198v-4q-2 80 15 137t36 105q22 55 36 91q17 45 17 96q0 69 -19 92q-19 24 -60 24q-20 0 -26 -9t-12 -28q-5 -14 -9 -24q-5 -11 -10 -19q-6 -8 -15 -13q-8 -4 -22 -4q-21 2 -32 13q-13 13 -11 29q2 29 36 50t102 21q82 0 134 -38q51 -37 51 -111q0 -36 -14 -69
q-13 -30 -35 -60q-23 -32 -46 -57q-27 -30 -48 -61t-37 -72q-16 -40 -17 -89h-14zM155 -17q-27 0 -45 18t-18 46q0 27 18 45t45 18t45 -18t18 -45q0 -28 -18 -46t-45 -18z" />
    <glyph glyph-name="at" unicode="@" horiz-adv-x="792" 
d="M657 -54l-7 -3q-16 -15 -45 -37q-25 -20 -60 -36t-78 -27q-41 -10 -96 -10q-68 0 -131 20q-61 19 -108 62q-47 42 -74 107q-27 64 -27 155q0 95 35 179q35 83 93 143q60 61 133 95q76 35 156 35q66 0 124 -20q57 -19 99 -57t65 -92q23 -55 23 -123q0 -63 -23 -126
q-22 -61 -66 -108q-43 -46 -108 -73q-63 -27 -147 -22l11 67q-30 -35 -54 -52q-22 -16 -57 -16q-23 0 -43 10q-21 10 -37 31q-16 20 -25 52q-9 31 -9 74q0 65 22 118q23 54 57 93q35 39 76 60q42 21 83 21q19 0 33 -6t24 -12l21 -12q10 -6 22 -6q11 0 20 6t18 18h14
l-50 -293q-6 -33 -10 -66q-3 -26 0 -38q3 -13 12 -14t25 6q34 13 59 34q28 23 48 55q21 33 33 78t12 103q0 69 -21 123q-21 55 -60 92q-39 38 -91 57q-54 20 -116 20q-68 0 -130 -28q-63 -29 -111 -81q-48 -53 -78 -127q-30 -75 -30 -168q0 -84 23 -151q22 -65 62 -111
q38 -44 93 -67t119 -23q50 0 90 9q41 9 74 24q34 16 59 33q25 18 45 36zM296 142l-1 -3q0 -64 10 -90q11 -27 30 -27q15 0 36 18q24 21 53 55l43 259q2 12 4 34q1 16 -3 28q-5 13 -13 20q-10 8 -25 8q-20 0 -45 -23q-23 -22 -43 -63q-20 -40 -33 -96q-13 -53 -13 -120z" />
    <glyph glyph-name="A" unicode="A" horiz-adv-x="571" 
d="M12 13l2 -4q10 5 18 12t15 21t15 36q10 29 17 57l148 528l-3 11q-11 36 -23 47t-27 15v13h127q11 0 14 -4q4 -6 8 -18l175 -601q17 -57 27 -80t33 -31v-15h-180v15q24 3 27 18q3 16 -7 53l-40 133h-238l-24 -84q-6 -23 -10 -48q-3 -21 0 -36q3 -16 13 -24q11 -10 31 -14
v-13h-118v13zM356 232l-118 396l-111 -396h229z" />
    <glyph glyph-name="B" unicode="B" 
d="M26 13v-2q16 4 25 12q9 7 13 25t6 51q1 22 1 91v366q0 69 -1 91q-2 33 -6 51t-13 25q-9 8 -25 12v13h208q120 0 181 -42t61 -127q0 -31 -10 -58q-11 -29 -31 -51q-22 -23 -54 -38q-33 -15 -79 -21v-3q57 -8 96 -25q41 -18 67 -43q27 -26 39 -57t12 -66q0 -59 -22 -99
t-61 -67t-93 -39t-117 -12h-197v13zM181 732l-1 -316h48q44 0 72 9t45 29q16 19 24 50q7 28 7 70q0 83 -31 120q-32 38 -112 38h-52zM180 400l-2 -385h37q49 0 83 9t57 30q22 21 33 59q11 39 11 94q0 48 -7 82q-7 35 -27 61t-53 38t-85 12h-47z" />
    <glyph glyph-name="C" unicode="C" horiz-adv-x="550" 
d="M332 -13l1 -3q-56 0 -111 23q-53 22 -94 71t-65 123q-24 75 -24 179q0 102 27 174t69 117t91 66q50 21 96 21q31 0 50 -4q24 -5 36 -10q6 -2 16 -5.5t11 -4.5q11 -4 25 -4q25 0 32 28h16v-174h-16q-30 89 -75 125t-96 36q-34 0 -63 -19q-30 -19 -52 -61q-23 -42 -36 -109
q-13 -65 -13 -165q0 -108 16 -178q17 -72 43 -115q27 -44 63 -63q35 -19 76 -19q52 0 88 21t62 50l12 -11q-12 -15 -27 -29q-18 -16 -39 -29t-52 -22q-30 -9 -67 -9z" />
    <glyph glyph-name="D" unicode="D" horiz-adv-x="619" 
d="M26 13v-1q16 4 25 12q9 7 13 25t6 51q1 22 1 91v366q0 69 -1 91q-2 33 -6 51t-13 25q-9 8 -25 12v13h186q83 0 149 -22q69 -23 116 -67q48 -45 75 -114t27 -162q0 -88 -24 -160q-23 -70 -71 -121q-46 -49 -115 -76t-157 -27h-186v13zM181 733l-2 -717h31q62 0 107 18
t77 62t47 114t15 176q0 111 -19 177q-19 67 -53 105q-33 38 -78 51q-47 14 -94 14h-31z" />
    <glyph glyph-name="E" unicode="E" horiz-adv-x="503" 
d="M26 13l-2 2q16 4 25 12q9 7 13 25t6 51q1 22 1 91v366q0 69 -1 91q-2 33 -6 51t-13 25q-9 8 -25 12v13h391q11 0 15 -4t9 -27l19 -106h-18q-13 36 -29 60q-15 23 -36 36t-51 18q-33 5 -72 5h-72v-306h7q39 0 60 6q20 6 33 17q11 10 16 26q3 10 9 32h14v-178h-14
q-3 11 -9 31q-5 16 -16 26q-13 11 -33 17q-21 6 -60 6h-7v-396h87q43 0 78 5q32 5 54 19q23 15 38 41t27 69h18l-13 -118q-1 -22 -8 -27q-5 -4 -22 -4h-413v13z" />
    <glyph glyph-name="F" unicode="F" horiz-adv-x="489" 
d="M26 13l-2 -5q16 4 25 12q9 7 13 25t6 51q1 22 1 92v366q0 70 -1 92q-2 33 -6 51t-13 25q-9 8 -25 12v13h409q11 0 15 -4q5 -5 8 -25l16 -110h-17q-14 38 -28 61q-16 25 -37 38t-57 19q-35 6 -87 6h-66v-307h31q39 0 60 6t33 18q11 11 16 27q3 10 9 32h14v-179h-14
q-3 11 -9 31q-5 16 -16 26q-12 10 -33 18q-20 7 -60 7h-31v-219q0 -69 1 -91q1 -33 6 -51q4 -17 14 -25q9 -7 24 -12v-13h-199v13z" />
    <glyph glyph-name="G" unicode="G" horiz-adv-x="614" 
d="M333 -13l5 -4q-65 0 -121 29q-55 28 -96 81q-40 52 -63 125q-22 70 -22 161q0 98 28 169q28 72 71 119q42 47 93 69q52 23 98 23q30 0 53 -5q19 -4 38 -11q3 -1 14 -5t16 -6q15 -5 30 -5q18 0 26 26h15v-173h-15q-46 163 -177 163q-38 0 -69 -18t-55 -60
q-23 -41 -37 -109q-13 -65 -13 -165q0 -204 47 -296t135 -92q44 0 76 35q31 34 31 117v26q0 37 -2 75q-1 28 -6 45t-14 23t-24 9v13h201v-13q-13 -1 -22 -9t-15 -30q-6 -23 -9 -61q-3 -39 -3 -106v-42q-20 -22 -46 -39q-25 -16 -57 -31q-31 -14 -58 -21t-53 -7z" />
    <glyph glyph-name="H" unicode="H" horiz-adv-x="629" 
d="M26 13l-2 -4q16 4 25 12q9 7 13 25t6 51q1 22 1 92v366q0 70 -1 92q-2 33 -6 51t-13 25q-9 8 -25 12v13h198v-13q-15 -5 -24 -12t-13 -25q-5 -18 -6 -51q-1 -22 -1 -91v-139h269v139q0 70 -1 92q-2 33 -6 51t-13 25q-9 8 -25 12v13h198v-13q-15 -4 -24 -12q-9 -7 -13 -25
q-5 -18 -6 -51q-1 -22 -1 -91v-366q0 -69 1 -91q1 -33 6 -51q4 -17 14 -25q9 -8 24 -12v-13h-198v13q16 4 25 12q9 7 13 25q5 18 6 51q1 22 1 92v211h-269v-211q0 -69 1 -91q2 -33 6 -51q4 -17 14 -25q9 -7 24 -12v-13h-198v13z" />
    <glyph glyph-name="I" unicode="I" horiz-adv-x="250" 
d="M26 13l-1 -1q16 4 25 12q9 7 13 25q5 18 6 51q1 22 1 91v366q0 70 -1 92q-1 33 -6 51q-4 18 -13 25q-9 8 -25 12v13h198v-13q-15 -5 -24 -12t-13 -25t-6 -51q-1 -22 -1 -91v-366q0 -69 1 -91q2 -33 6 -51q4 -17 14 -25q9 -7 24 -12v-13h-198v13z" />
    <glyph glyph-name="J" unicode="J" horiz-adv-x="396" 
d="M167 -10l-1 -3q-71 0 -112 23q-40 22 -40 60q0 23 14 35t33 12q21 0 34 -12t24 -41q10 -30 20 -45q9 -14 32 -14q21 0 35 15q14 16 14 52v484q0 70 -1 92q-1 33 -6 51t-13 24q-10 7 -24 11v13h197v-13q-16 -5 -24 -10q-8 -6 -13 -24q-4 -18 -6 -51q-1 -22 -1 -92v-395
q0 -40 -12 -72t-33 -54q-20 -22 -51 -34q-30 -12 -66 -12z" />
    <glyph glyph-name="K" unicode="K" horiz-adv-x="560" 
d="M360 13l-1 -3q25 8 27 21t-18 48l-185 322l232 248q19 21 27 36q7 15 6 25t-9 16q-7 6 -18 9v13h121v-13q-15 -5 -25 -10q-9 -4 -25 -17q-12 -9 -28 -27q-15 -17 -36 -39l-158 -169l226 -396q9 -16 18 -31q8 -13 13 -18q6 -6 12 -9l12 -6v-13h-191v13zM25 10l-1 -2
q16 4 25 12q9 7 13 25t6 51q1 22 1 92v366q0 70 -1 92q-2 33 -6 51t-13 25q-9 8 -25 12v13h198v-13q-15 -4 -24 -12q-9 -7 -13 -25q-5 -18 -6 -51q-1 -22 -1 -91v-366q0 -69 1 -91q1 -33 6 -51q4 -17 14 -25q9 -8 24 -12v-13h-198v13z" />
    <glyph glyph-name="L" unicode="L" horiz-adv-x="486" 
d="M26 13l-1 -4q16 4 25 12q9 7 13 25q5 18 6 51q1 22 1 92v366q0 70 -1 92q-1 33 -6 51q-4 18 -13 25q-9 8 -25 12v13h204v-13q-17 -5 -27 -12q-11 -8 -15 -25q-5 -18 -6 -51q-1 -22 -1 -91v-542h72q42 0 77 5q31 4 54 20q22 15 39 44q16 28 33 77h17l-23 -131
q-2 -12 -3 -17t-5 -9q-3 -3 -8 -3h-12h-395v13z" />
    <glyph glyph-name="M" unicode="M" horiz-adv-x="696" 
d="M26 13l-1 -3q15 8 25 18q8 8 13 29q4 19 6 53q1 22 1 90v355q0 69 -1 91q-1 33 -6 51q-4 18 -13 25q-9 8 -25 12v13h150q10 0 15 -5q4 -4 12 -30l146 -520l153 555h165v-13q-15 -4 -24 -12q-9 -7 -13 -25q-5 -18 -6 -51q-1 -22 -1 -91v-366q0 -69 1 -91q1 -33 6 -51
q4 -17 14 -25q9 -8 24 -12v-13h-200v13q15 4 24 12q10 8 14 25q5 18 6 51q1 22 1 92v518l-196 -713h-20l-208 715v-509q0 -46 2 -90q2 -34 7 -52q6 -19 18 -28t33 -18v-13h-122v13z" />
    <glyph glyph-name="N" unicode="N" horiz-adv-x="579" 
d="M26 13l-1 -4q15 8 25 18q8 8 13 29q4 19 6 53q1 22 1 90v355q0 69 -1 91q-1 33 -6 51q-4 18 -13 25q-9 8 -25 12v13h144q13 0 17 -1q8 -2 11 -4q5 -3 9 -9q5 -7 11 -17l277 -511v342q0 68 -1 90q-2 35 -7 51q-6 18 -18 27t-33 18v13h121v-13q-15 -9 -24 -18
q-8 -8 -13 -27q-5 -18 -6 -51q-1 -22 -1 -90v-551h-31l-394 724v-518q0 -46 2 -90q2 -34 7 -52q6 -19 18 -28t33 -18v-13h-121v13z" />
    <glyph glyph-name="O" unicode="O" horiz-adv-x="641" 
d="M321 -14l-1 -1q-49 0 -100 27q-50 27 -91 78t-66 123q-25 71 -25 161q0 91 25 162q26 73 66 122t91 76t101 27q49 0 99 -27t90 -76q41 -50 66 -121t25 -162q0 -90 -25 -161q-26 -72 -66 -123t-90 -78t-99 -27zM320 2l-3 -1q73 0 116 93q44 94 44 280q0 93 -12 162
q-12 70 -33 116t-51 69q-31 23 -63 23q-34 0 -63 -23t-50 -69q-21 -47 -33 -115q-12 -69 -12 -162q0 -186 44 -280q44 -93 116 -93z" />
    <glyph glyph-name="P" unicode="P" horiz-adv-x="514" 
d="M26 13l-2 -3q16 4 25 12q9 7 13 25t6 51q1 22 1 92v366q0 70 -1 92q-2 33 -6 51t-13 25q-9 8 -25 12v13h225q53 0 98 -9q46 -9 78 -31q33 -23 51 -58q18 -36 18 -91q0 -57 -19 -96q-19 -40 -52 -67t-78 -39t-96 -12h-68v-154q0 -69 1 -91q2 -33 6 -51q4 -17 15 -25
t28 -12v-13h-205v13zM179 731v-374h65q28 0 54 9t45 30q19 20 31 57q12 36 12 92q0 57 -12 93q-12 37 -31 57t-44 28q-26 8 -51 8h-69z" />
    <glyph glyph-name="Q" unicode="Q" horiz-adv-x="641" 
d="M321 -12l-4 -7q-52 0 -102 29q-49 28 -90 80q-40 50 -64 123q-24 72 -24 158q0 92 25 163q25 72 65 122q39 50 90 75q52 26 102 26q51 0 101 -26t89 -75q40 -51 65 -121q25 -71 25 -163q0 -56 -11 -109q-10 -49 -29 -93q-17 -41 -44 -75q-26 -34 -55 -57q3 -7 7 -21
t7 -22q20 -66 39 -101q19 -36 56 -36q16 0 30 8q13 8 21 15l9 -8q-9 -11 -27 -21q-19 -11 -57 -11q-23 0 -50 5q-23 4 -46 21q-22 16 -40 48q-17 30 -31 82q-28 -9 -57 -9zM317 739l-2 1q-69 0 -114 -92t-45 -278q0 -154 26 -244q26 -88 72 -117q-14 13 -21 30q-7 15 -7 32
q0 34 26 57t66 23q76 0 117 -75q19 44 30 114q10 67 10 179q0 93 -12 162q-12 70 -33 116t-50 69t-63 23zM245 72l-2 1q0 -31 21 -52t49 -21q29 0 53 9q-5 24 -14 56q-6 21 -14 36t-19 20q-12 6 -28 6q-17 0 -31 -13q-15 -14 -15 -42z" />
    <glyph glyph-name="R" unicode="R" horiz-adv-x="555" 
d="M26 13l-9 -6q16 4 25 12q9 7 13 25q5 18 6 51q1 22 1 92v366q0 70 -1 92q-1 33 -6 51q-4 18 -13 25q-9 8 -25 12v13h208q133 0 204 -40q72 -40 72 -138q0 -48 -18 -84q-18 -37 -51 -62q-33 -26 -76 -39q-44 -13 -93 -15q30 -5 52 -13q24 -9 43 -28q20 -20 33 -49
q15 -32 23 -73q12 -57 21 -93q9 -34 20 -57q10 -20 21 -28q10 -7 26 -7t27 6q9 5 15 11l9 -9q-7 -10 -29 -24q-20 -13 -66 -13q-30 0 -54 9t-42 30q-17 20 -31 57q-13 34 -22 91q-11 69 -21 107q-10 39 -24 57t-32 23q-20 5 -44 5h-8v-178q0 -69 1 -91q1 -33 6 -51
q4 -17 14 -25q9 -7 24 -12v-13h-199v13zM172 728v-350h71q83 0 116 45t33 131q0 48 -9 81t-30 54t-52 30t-78 9h-51z" />
    <glyph glyph-name="S" unicode="S" horiz-adv-x="480" 
d="M220 -10l4 -3q-31 0 -58 8q-23 7 -45 17q-14 7 -33 17q-14 8 -24 8q-11 0 -17 -19h-13v197h15q17 -101 57 -156q41 -56 114 -56q68 0 103 33q34 33 34 96q0 37 -10 64q-11 28 -30 54q-19 24 -50 51q-28 23 -71 54q-30 22 -63 50q-26 21 -49 50q-21 25 -33 57t-12 70
q0 39 14 73q13 32 39 55q25 22 60 34q34 12 75 12q25 0 48 -5q16 -4 37 -11q6 -2 16.5 -6t12.5 -5q13 -5 23 -5q11 0 14 6q4 7 5 14h14v-150h-15q-20 77 -59 113t-96 36q-58 0 -84 -25q-27 -26 -27 -72q0 -50 36 -94t102 -93q40 -29 75 -57q36 -30 60 -58t40 -65
q15 -35 15 -75q0 -52 -20 -94q-19 -40 -51 -67q-31 -26 -72 -40q-39 -13 -81 -13z" />
    <glyph glyph-name="T" unicode="T" 
d="M171 13h1q16 4 25 12q9 7 13 25t6 51q1 22 1 91v542h-9q-43 0 -73 -6t-51 -21t-33 -42t-21 -67h-17l10 122q1 22 6 27q4 4 18 4h448q14 0 18 -4q5 -5 6 -27l10 -122h-17q-9 41 -22 67q-14 27 -33 42t-50 21q-30 6 -74 6h-7v-542q0 -69 1 -91q1 -33 6 -51q4 -18 13 -25
q9 -8 25 -12v-13h-200v13z" />
    <glyph glyph-name="U" unicode="U" horiz-adv-x="562" 
d="M299 -14l3 -3q-57 0 -99 13q-43 13 -74 41q-30 27 -47 71q-16 42 -16 103v345q0 70 -1 92q-1 33 -6 51q-4 17 -12 25q-7 8 -21 12v13h194v-13q-15 -4 -24 -12q-9 -7 -13 -25q-5 -18 -6 -51q-1 -22 -1 -91v-362q0 -53 6 -90t21 -60q15 -22 41 -33q24 -10 65 -10
q88 0 128 46q41 47 41 150v348q0 68 -1 90q-2 35 -7 53q-6 20 -18 29t-33 18v13h120v-13q-15 -9 -24 -18q-9 -8 -13 -28q-5 -20 -6 -52q-1 -22 -1 -90v-348q0 -110 -46 -162t-150 -52z" />
    <glyph glyph-name="V" unicode="V" horiz-adv-x="549" 
d="M80 597l4 -3q-3 10 -8 24.5t-8 24t-6 17.5q-10 27 -16 40q-8 16 -15 23t-18 12v13h191v-13q-15 -3 -21 -7q-8 -5 -11 -15t0 -28q3 -19 12 -47l142 -475l133 458q17 56 11 81q-6 26 -48 33v13h116v-13l-18 -9q-7 -4 -13 -15q-7 -12 -14 -32q-8 -23 -18 -58l-182 -628h-27z
" />
    <glyph glyph-name="W" unicode="W" horiz-adv-x="791" 
d="M73 623l-3 -12q-12 38 -15 47q-7 20 -12 32q-6 14 -13 21q-9 9 -18 14v14h177v-14q-13 -3 -19 -7q-8 -5 -9 -13t2 -24q2 -11 11 -39l150 -498l70 228l-74 242q-7 21 -15 47q-6 19 -12 33q-6 13 -14 21q-7 7 -18 12v14h175v-14q-13 -3 -18 -7q-6 -4 -7 -13q-1 -8 2 -24
q2 -11 11 -41l39 -137l33 112q14 43 15 72q1 28 -29 42v14h93v-14q-11 -5 -18 -9t-13 -16q-6 -13 -12 -31q-2 -6 -7 -24t-9 -30l-43 -144l93 -327l128 470q14 46 11 74q-3 29 -43 39v14h114v-14q-6 -3 -16 -9q-8 -4 -15 -15q-8 -11 -15 -31q-6 -17 -16 -55l-172 -630h-27
l-109 359l-110 -359h-27z" />
    <glyph glyph-name="X" unicode="X" horiz-adv-x="562" 
d="M21 13l-5 -8q14 5 24 12t21 21t24 36q5 8 31 56l111 217l-123 268q-21 43 -28 56q-12 21 -21 33t-18 18q-7 5 -21 10v13h205v-13q-14 -1 -22 -6q-7 -4 -7 -17q0 -11 8 -32q8 -19 24 -51l83 -181l84 169q32 61 32 87t-38 34v13h122v-13q-14 -4 -25 -11q-9 -6 -18 -18
q-8 -11 -21 -35q-2 -4 -8 -15.5t-12 -22.5l-12 -22l-92 -186l131 -287q11 -23 27 -55q8 -16 20 -34q9 -13 20 -21q9 -7 26 -15v-13h-207v13q17 5 25 10q9 6 9 19q0 14 -9 35q-7 16 -26 56l-92 201l-103 -201q-32 -59 -27 -84q4 -25 41 -36v-13h-133v13z" />
    <glyph glyph-name="Y" unicode="Y" horiz-adv-x="522" 
d="M168 13l-2 -2q15 5 24 12q10 8 14 25q4 18 6 51q1 22 1 91v180l-121 254q-9 22 -18 39t-18 30q-10 15 -19 24t-24 19v13h192v-13q-23 -8 -26 -22q-3 -15 9 -45l123 -267l98 221q11 25 19 50q6 18 4 32q-2 13 -12 20t-30 12v13h117v-13q-11 -5 -18 -9t-15 -15
q-7 -9 -18 -32q-8 -15 -25 -57l-108 -241v-191q0 -69 1 -91q2 -33 6 -51t13 -25q9 -8 25 -12v-13h-198v13z" />
    <glyph glyph-name="Z" unicode="Z" horiz-adv-x="518" 
d="M342 734h-73q-53 0 -88 -9q-36 -9 -57 -25q-22 -16 -37 -40q-10 -16 -31 -56h-15l27 146h402l-318 -734h92q60 0 102 8q37 7 64 26q25 17 40 48q14 29 30 74h14l-22 -172h-444z" />
    <glyph glyph-name="bracketleft" unicode="[" horiz-adv-x="273" 
d="M246 793v-16h-101v-867h101v-16h-187v899h187z" />
    <glyph glyph-name="backslash" unicode="\" horiz-adv-x="367" 
d="M379 -158l-24 -8l-346 961l23 8z" />
    <glyph glyph-name="bracketright" unicode="]" horiz-adv-x="273" 
d="M214 -106h-187v16h101v867h-101v16h187v-899z" />
    <glyph glyph-name="asciicircum" unicode="^" horiz-adv-x="368" 
d="M176 756h16l147 -256l-16 -10l-139 243l-139 -243l-16 10z" />
    <glyph glyph-name="underscore" unicode="_" horiz-adv-x="323" 
d="M-6 -82h335v-20h-335v20z" />
    <glyph glyph-name="grave" unicode="`" horiz-adv-x="446" 
d="M160 609v-2q-16 11 -24 22q-9 12 -9 29q0 16 9 27q9 10 26 10t27 -10q11 -11 24 -31l79 -123l-10 -9z" />
    <glyph glyph-name="a" unicode="a" horiz-adv-x="419" 
d="M136 -9l-5 -2q-46 0 -76 27t-30 78q0 34 14 56q13 21 36 36t51 27q19 8 57 26l13 5q27 14 42 28q16 15 16 51v74q0 43 -17 57t-44 14q-23 0 -36 -15t-24 -39q-7 -16 -18 -27q-10 -10 -30 -10q-16 0 -27 11q-10 10 -10 24q0 29 39 50t104 21q34 0 64 -6q31 -6 52 -19
q23 -14 35 -36q12 -23 12 -59v-237q0 -30 2 -60q1 -20 5 -33q3 -11 9 -14t15 -3q16 0 27 8l5 -11q-7 -5 -24 -12q-18 -8 -51 -8q-40 0 -60 18q-20 19 -23 48l-4 -4q-24 -27 -51 -46q-26 -18 -68 -18zM124 113h-2q0 -94 53 -94q15 0 32 14q17 13 42 39l3 3v192
q-8 -12 -22 -21q-11 -7 -34 -19l-13 -5q-36 -20 -47 -43q-12 -24 -12 -66z" />
    <glyph glyph-name="b" unicode="b" horiz-adv-x="489" 
d="M240 -7l-10 -4q-24 0 -42 6q-12 4 -34 14q-5 2 -15 7t-15 7q-14 6 -27 6t-18 -8q-4 -7 -6 -14h-15v607q0 30 -1 40q-2 17 -4 23q-3 8 -11 11q-6 2 -23 4v15l139 72v-382l1 1q28 33 58 58q29 25 72 25q28 0 58 -12t54 -39t39 -71t15 -107q0 -64 -16 -111q-17 -48 -45 -81
q-29 -33 -68 -50q-40 -17 -86 -17zM182 23v-4q10 -8 19 -12q12 -5 28 -5q55 0 84 57q29 58 29 171q0 62 -6 104t-18 69t-27 39t-32 12q-29 0 -52 -22q-26 -25 -53 -57l-1 -1v-264q0 -36 8 -57q7 -19 21 -30z" />
    <glyph glyph-name="c" unicode="c" horiz-adv-x="398" 
d="M243 -8l-7 -4q-45 0 -81 16q-37 16 -66 47q-29 30 -45 75q-17 46 -17 104q0 59 20 107q19 45 50 79q29 32 66 49t69 17q22 0 49 -5q22 -4 42 -14q18 -9 29 -23t11 -30t-12 -27q-11 -10 -30 -10q-25 0 -36 15q-10 15 -18 41q-4 20 -11 30q-6 9 -23 9q-45 0 -73 -52
t-28 -163q0 -121 36 -178t94 -57q35 0 60 14q23 13 43 33l12 -12q-19 -23 -51 -42q-31 -19 -83 -19z" />
    <glyph glyph-name="d" unicode="d" horiz-adv-x="484" 
d="M196 -9h1q-30 0 -61 14t-53 42t-37 73t-15 106q0 65 18 113q18 49 46 81t66 49q36 16 77 16q27 0 48 -10q22 -11 42 -27v171q0 32 -1 42q-2 16 -6 23q-5 8 -13 9q-10 2 -25 3v15l142 71v-666v-48q0 -17 5 -29q4 -10 12 -16q6 -5 21 -10v-13h-137v79l-3 -3
q-34 -39 -65 -63q-29 -22 -62 -22zM135 237l2 -1q0 -63 7 -102q8 -44 19 -69q12 -28 28 -39q17 -12 33 -12q17 0 42 20q26 21 59 60l3 3v326q-20 19 -42 30q-24 11 -48 11q-20 0 -39 -12t-33 -39q-12 -25 -22 -71q-9 -44 -9 -105z" />
    <glyph glyph-name="e" unicode="e" horiz-adv-x="412" 
d="M242 -9l-3 3q-41 0 -81 14q-39 14 -68 44q-27 29 -46 77q-18 47 -18 113q0 60 20 108q20 47 48 77t62 45q33 15 62 15q74 0 114 -45q41 -45 48 -130h-248q-1 -9 -1 -27v-29q0 -115 32 -177q31 -61 98 -61q39 0 60 10q24 11 42 25l9 -13q-20 -17 -49 -33t-81 -16zM217 472
l-1 -2q-14 0 -27 -6t-25 -22q-12 -17 -21 -43q-8 -24 -13 -68h152q-2 76 -16 108q-15 33 -49 33z" />
    <glyph glyph-name="f" unicode="f" horiz-adv-x="271" 
d="M33 13v1q13 5 18 10q6 6 9 16q3 11 3 29v48v340h-59v14q36 4 49 17q12 12 12 39v67q0 50 15 83q15 32 38 54q22 21 48 30t48 9q46 0 74 -18q29 -18 29 -46q0 -12 -9 -24t-28 -12q-22 0 -31 9q-8 8 -13 29q-6 28 -12 36t-16 8q-8 0 -18 -5q-9 -5 -15 -18t-9 -36t-3 -57
v-161h94v-19h-94v-340q0 -36 1 -48q2 -20 7 -29q6 -10 18 -16q10 -5 33 -10v-13h-189v13z" />
    <glyph glyph-name="g" unicode="g" horiz-adv-x="420" 
d="M196 172l-5 -2q-41 0 -78 15l-12 -9q-25 -21 -25 -36q0 -8 6 -16q6 -7 32 -12l155 -24q73 -12 99 -40q27 -29 27 -73q0 -34 -15 -61t-42 -45t-64 -27q-38 -9 -79 -9q-35 0 -69 6q-35 6 -61 19q-28 14 -44 33q-17 20 -17 45q0 16 8 30t21 26t30 21q22 12 33 17
q-34 10 -48 30t-14 45q0 31 18 50q18 20 38 35l10 7q-32 17 -53 48t-21 83q0 43 16 72q17 30 41 50q25 20 54 29q30 9 58 9q43 0 84 -21q25 21 51 33t45 12q39 0 39 -36q0 -16 -9 -25t-20 -9q-10 0 -17 4q-10 6 -15 10t-13 10q-5 4 -12 4q-17 0 -34 -10q31 -20 51 -52
q21 -33 21 -82q0 -43 -16 -72q-16 -30 -42 -48q-27 -19 -55 -26q-32 -8 -57 -8zM63 -64l-2 -2q0 -38 36 -64q35 -25 99 -25q72 0 111 27t39 65q0 27 -19 39q-21 13 -70 20l-126 20l-18 3q-29 -15 -39 -34q-11 -20 -11 -49zM189 184v-1q14 0 27 7q14 8 24 24q11 18 17 42
q6 26 6 63q0 76 -23 111t-51 35q-30 0 -52 -34t-22 -111q0 -38 6 -63q6 -24 17 -42q10 -17 24 -24q13 -7 27 -7z" />
    <glyph glyph-name="h" unicode="h" horiz-adv-x="483" 
d="M26 13h2q12 5 19 10q8 7 11 16q3 10 3 29v48v499q0 32 -1 42q-2 16 -6 23q-5 8 -13 9q-10 2 -25 3v15l142 75v-401l20 20q43 43 73 62q33 21 71 21q18 0 36 -6q19 -6 33 -19q15 -13 24 -36q9 -22 9 -55v-253v-48q0 -19 3 -29t10 -16q7 -5 19 -10v-13h-170v13q15 5 21 10
q8 6 12 16t6 29q1 12 1 48v279q0 32 -12 44t-31 12q-16 0 -40 -15t-65 -56l-20 -20v-243v-48q0 -17 5 -29q4 -10 12 -16q6 -5 21 -10v-13h-170v13z" />
    <glyph glyph-name="i" unicode="i" horiz-adv-x="224" 
d="M111 553h-3q-23 0 -40 17q-16 16 -16 42q0 22 17 39t41 17q26 0 42 -16q17 -17 17 -39q0 -25 -16 -42q-17 -18 -42 -18zM22 13l4 -1q15 5 21 10q8 7 11 16q4 13 5 29q1 12 1 48v195q0 32 -1 42q-1 15 -6 24q-4 9 -13 13q-7 4 -24 7v14l140 75v-369v-48q0 -17 5 -29
q4 -10 12 -16q6 -5 21 -10v-13h-176v13z" />
    <glyph glyph-name="j" unicode="j" horiz-adv-x="222" 
d="M109 553h-2q-23 0 -40 17q-16 16 -16 42q0 22 17 39t41 17q25 0 41 -16q17 -17 17 -39q0 -23 -17 -42q-16 -18 -41 -18zM-23 -153v-2q-18 0 -32 11t-14 30t12 28t26 9q11 0 22 -6q7 -4 19 -14q6 -5 16 -13q8 -6 15 -6q5 0 9 4t5 8t3 15q2 14 2 28v48v321q0 32 -1 43
q-1 16 -6 25q-4 9 -13 13q-7 4 -24 7v14l141 75v-427q0 -60 -20 -102q-19 -40 -65 -72q-31 -22 -53 -30q-20 -7 -42 -7z" />
    <glyph glyph-name="k" unicode="k" horiz-adv-x="443" 
d="M26 13h2q12 5 19 10q8 7 11 16q3 10 3 29v48v511q0 27 -1 35q-2 12 -6 18q-5 7 -12 8t-23 3v15l139 76v-666v-48q0 -17 5 -29q4 -10 12 -16q6 -5 21 -10v-13h-170v13zM267 12l-3 -2q20 3 24 13q4 11 -9 36l-108 187v12l145 142q15 16 20 26q5 11 2 18q-3 8 -12 12
q-9 5 -19 6v13h115v-13q-15 -4 -36 -20q-22 -17 -57 -52l-87 -84l152 -251q13 -23 23 -33q8 -8 18 -10v-12h-168v12z" />
    <glyph glyph-name="l" unicode="l" horiz-adv-x="226" 
d="M26 13l2 1q15 5 21 10q8 7 11 16q4 13 5 29q1 12 1 48v511q0 27 -1 35q-1 12 -6 18q-5 7 -13 8q-10 2 -25 3v15l142 75v-666q0 -36 1 -48q1 -16 5 -29q3 -9 11 -16q6 -5 23 -10v-13h-177v13z" />
    <glyph glyph-name="m" unicode="m" horiz-adv-x="700" 
d="M26 13h-1q13 5 18 10q6 6 9 16t3 29v48v195q0 32 -1 42q-2 16 -6 23q-5 8 -13 12q-7 4 -24 7v14l141 75v-81q35 36 67 58q31 22 72 22q36 0 64 -19q29 -20 36 -64l1 1q35 36 68 60q32 23 72 23q20 0 38 -6q19 -6 33 -19q15 -13 24 -36q9 -22 9 -55v-253v-48q0 -19 3 -29
q3 -9 11 -16q6 -5 21 -10v-13h-170v13q14 5 20 10q8 7 11 16q4 13 5 29q1 12 1 48v279q0 32 -12 44t-30 12t-42 -18q-28 -21 -59 -52v-265v-48q0 -19 3 -29q3 -9 11 -16q6 -5 21 -10v-13h-170v13q15 5 21 10q8 6 12 16t6 29q1 12 1 48v279q0 32 -12 44t-31 12q-18 0 -41 -16
q-27 -18 -59 -52v-266v-48q0 -17 5 -29q4 -10 12 -16q6 -5 21 -10v-13h-169v13z" />
    <glyph glyph-name="n" unicode="n" horiz-adv-x="485" 
d="M26 13l2 3q12 5 19 10q8 7 11 16q3 10 3 29v48v195q0 32 -1 42q-2 16 -6 23q-5 8 -13 12q-7 4 -24 7v14l142 75v-104l20 20q43 43 73 62q33 21 71 21q18 0 36 -6q19 -6 33 -19q15 -13 24 -36t9 -55v-253v-48q0 -19 3 -29t10 -16q7 -5 19 -10v-13h-171v13q15 5 21 10
q8 6 12 16t6 29q1 12 1 48v279q0 30 -12 43t-31 13q-17 0 -40 -16q-22 -15 -64 -57l-20 -20v-243v-48q0 -17 5 -29q4 -10 12 -16q6 -5 21 -10v-13h-171v13z" />
    <glyph glyph-name="o" unicode="o" horiz-adv-x="464" 
d="M232 -8l-1 -1q-31 0 -67 15t-66 45q-30 31 -50 77q-20 48 -20 109q0 63 20 111q20 47 50 77t66 45t68 15q31 0 67 -15t66 -45q31 -30 50 -77q20 -48 20 -111q0 -61 -20 -109q-19 -45 -50 -76q-30 -30 -66 -45t-67 -15zM231 7h-1q46 0 73 53q27 52 27 177q0 67 -7 108
q-8 44 -21 71q-14 28 -31 39q-18 12 -41 12t-41 -12q-17 -11 -31 -39q-13 -27 -21 -71q-7 -41 -7 -108q0 -125 27 -177q27 -53 74 -53z" />
    <glyph glyph-name="p" unicode="p" horiz-adv-x="482" 
d="M28 -147l5 -1q12 5 19 10q8 7 11 16q3 10 3 29v48v355q0 32 -1 42q-2 16 -6 23q-5 8 -13 12q-7 4 -24 7v14l141 75v-86q34 39 65 64q28 22 65 22q27 0 56 -12t53 -39t39 -71q15 -43 15 -108q0 -63 -16 -111q-16 -49 -45 -82t-67 -51q-39 -18 -84 -18q-23 0 -44 9t-38 23
v-67v-48q0 -18 3 -29q3 -9 11 -16q7 -5 19 -10v-13h-167v13zM166 42l-1 -1q17 -14 38 -24q19 -9 44 -9q48 0 78 54t30 173q0 62 -6 104q-6 43 -18 68q-12 26 -27 38t-32 12q-20 0 -45 -20q-21 -17 -61 -62v-333z" />
    <glyph glyph-name="q" unicode="q" horiz-adv-x="479" 
d="M290 -147h-7q12 5 19 10q8 7 11 16q3 11 3 29v48v118q-32 -38 -60 -60t-61 -22q-26 0 -57 11q-30 11 -56 38t-42 72q-17 46 -17 113q0 61 18 109t48 81t69 51t80 18q28 0 48 -6q21 -6 34 -13q5 -3 14 -7t13 -6q12 -6 27 -6q14 0 21 3t12 20h15v-514v-48q0 -18 3 -29
q3 -9 11 -16q6 -5 21 -10v-13h-167v13zM126 235l-4 1q0 -63 9 -105q9 -43 22 -67q13 -26 30 -36q16 -10 33 -10q21 0 45 21t56 59v275q0 32 -4 45q-5 16 -15 26q-12 8 -25 15q-14 7 -37 7t-42 -13q-20 -14 -35 -42q-15 -29 -24 -72t-9 -104z" />
    <glyph glyph-name="r" unicode="r" horiz-adv-x="346" 
d="M26 13l-1 -5q12 5 19 10q8 7 11 16q3 11 3 29v48v207q0 27 -1 36q-1 14 -6 21q-5 8 -13 11q-9 3 -24 6v14l140 75v-93l14 16q40 46 65 63q23 16 47 16q23 0 35 -12t12 -31q0 -24 -13 -36q-14 -12 -30 -12q-13 0 -21 5q-5 3 -15 11q-2 2 -6.5 5.5t-6.5 5.5q-7 5 -16 5
t-18 -6t-31 -31l-14 -16v-255q0 -36 1 -48q2 -19 6 -29t13 -16q8 -5 25 -10v-13h-175v13z" />
    <glyph glyph-name="s" unicode="s" horiz-adv-x="352" 
d="M180 9l-12 -5q38 0 57 22t19 57q0 34 -21 61t-76 57q-32 17 -57 35q-22 16 -36 35q-13 17 -19 39q-6 21 -6 50q0 27 10 48q11 22 27 39q16 16 39 25t48 9q19 0 32 -3q16 -3 25 -7q8 -3 22 -7q10 -3 23 -3q14 0 17 14h15v-123l-15 1q-16 61 -48 87t-69 26q-29 0 -48 -15
t-19 -47q0 -16 6 -30q6 -13 18 -25t30 -24q14 -10 44 -27q40 -20 66 -39q27 -20 41 -39q15 -20 21 -43q6 -24 6 -54q0 -28 -12 -52t-33 -42q-20 -17 -46 -28q-24 -10 -51 -10q-25 0 -43 6q-19 6 -31 13q-21 12 -23 13q-9 6 -18 6q-13 0 -16 -18h-16v144h15q18 -64 50 -106
q31 -40 84 -40z" />
    <glyph glyph-name="t" unicode="t" horiz-adv-x="276" 
d="M173 -10q-51 0 -80 27t-29 78v361h-41v16q19 3 39 15t36 33q18 23 29 52q12 32 18 72h15v-168h89v-19h-89v-336q0 -55 8 -82q7 -25 39 -25q15 0 25 5t17 12l9 -10q-8 -9 -26 -20q-19 -11 -59 -11z" />
    <glyph glyph-name="u" unicode="u" horiz-adv-x="465" 
d="M164 -9v-5q-20 0 -38 6q-17 6 -33 20q-15 14 -24 36t-9 54v217q0 27 -1 36q-1 13 -6 21t-13 11q-9 3 -24 6v14l141 75v-392q0 -34 12 -51t31 -17q20 0 45 18t63 57l1 1v223q0 27 -1 36q-2 13 -6 21q-5 8 -13 11q-9 3 -24 6v14l141 75v-369v-48q0 -19 3 -29q3 -9 11 -16
q6 -5 21 -10v-13h-134v79l-1 -1q-39 -40 -72 -64q-31 -22 -70 -22z" />
    <glyph glyph-name="v" unicode="v" horiz-adv-x="404" 
d="M65 355h-2q-7 18 -20 53q-7 18 -15 31q-7 12 -13 16q-8 6 -13 8v13h172v-13q-14 -1 -21 -6q-8 -5 -9 -16q-1 -12 3 -31q5 -20 15 -51l76 -240l73 216q15 45 20 65q6 24 3 38t-12 18t-24 6v13h101v-13q-10 -4 -14 -7q-5 -4 -13 -18q-7 -12 -16 -37q-9 -24 -24 -66
l-116 -341h-26z" />
    <glyph glyph-name="w" unicode="w" horiz-adv-x="583" 
d="M61 355l-3 -3q-3 9 -9 27.5t-8 25.5q-6 19 -12 30q-7 12 -10 15q-5 5 -12 8v13h158v-13q-10 -1 -16 -6q-5 -4 -7 -15t3 -30t15 -51l72 -235l59 162l-21 70q-4 12 -9 30t-7 24q-6 19 -12 30t-12 15q-5 4 -13 7v13h162v-13q-11 -2 -17 -6q-7 -5 -8 -15q-1 -9 2 -30
q3 -20 12 -51l63 -223l62 201q13 40 18 65q4 23 1 37t-13 18q-11 5 -25 6v13h101v-13q-10 -3 -15 -7q-6 -4 -12 -17q-7 -15 -14 -36q-10 -32 -21 -65l-106 -343h-26l-80 264l-96 -264h-25z" />
    <glyph glyph-name="x" unicode="x" horiz-adv-x="408" 
d="M17 13v-7q12 5 22 12q8 5 18 17q11 13 20 28q3 6 12.5 22t14.5 25l59 105l-73 138q-20 40 -27 53q-11 20 -18 30q-8 12 -13 14q-6 3 -15 6v13h174v-13q-12 -1 -21 -5q-7 -3 -9 -11t3 -23q4 -15 15 -39l50 -96l43 75q18 31 24 51q6 21 5 30q-1 10 -9 15t-18 6v13h101v-13
q-18 -10 -22 -12q-8 -4 -18 -14q-8 -8 -19 -27q-3 -5 -28 -51l-50 -90l78 -149q13 -26 27 -52q11 -20 18 -30t14 -15q5 -4 13 -7v-13h-170v13q14 2 21 6q8 5 9 13q2 9 -3 24q-4 13 -17 39l-57 108l-52 -91q-17 -30 -24 -46q-7 -17 -7 -29q0 -10 8 -16q7 -5 21 -7v-13h-100
v13z" />
    <glyph glyph-name="y" unicode="y" horiz-adv-x="408" 
d="M75 -165l-6 -2q-29 0 -42 12t-13 29q0 18 10 27t27 9q13 0 20 -3q10 -4 15 -7l14 -7q6 -3 15 -3q7 0 15 3t17 14q10 12 20 30q11 19 24 51l3 8l-135 365q-17 48 -19 52q-9 22 -13 30q-5 9 -11 15q-4 4 -12 7v13h168v-13q-10 -1 -18 -6t-9 -15t3 -30t15 -51l79 -236
l75 212q13 39 18 63q5 25 2 37q-3 13 -12 18q-9 4 -23 6v13h97v-13q-7 -1 -13 -6t-12 -18q-7 -16 -15 -37q-15 -40 -23 -64l-125 -353q-17 -43 -33 -72q-16 -27 -33 -46q-16 -18 -34 -25q-17 -7 -36 -7z" />
    <glyph glyph-name="z" unicode="z" horiz-adv-x="380" 
d="M343 -13l-3 -2q-5 3 -17 7q-7 2 -25 4q-22 2 -43 2h-69h-172l227 459h-47q-44 0 -69 -6q-26 -6 -41 -18t-24 -30t-18 -42h-15l24 127q6 -4 19 -7q9 -2 30 -4q24 -2 43 -2h63h147l-230 -459h64q43 0 69 6q25 6 42 20q16 13 27 38q14 32 23 58h15z" />
    <glyph glyph-name="braceleft" unicode="{" horiz-adv-x="265" 
d="M238 -106l-6 -3q-80 0 -130 33q-49 33 -49 95q0 34 10 64q7 21 23 61q21 52 23 58q11 30 11 55q0 13 -3 27q-3 15 -13 26q-10 12 -31 19q-20 7 -59 7v16q39 0 59 7q22 8 32 18t13 26q3 15 3 29q0 28 -10 55q-2 6 -23 58q-10 25 -22 61q-10 30 -10 64q0 62 50 95
q49 33 131 33v-17q-52 0 -73 -22q-21 -23 -21 -73q0 -30 7 -58q10 -40 16 -60t16 -58q7 -27 7 -55q0 -20 -9 -38t-24 -33q-14 -15 -37 -25q-23 -11 -48 -12q25 -1 48 -12q24 -11 38 -25q15 -15 24 -34q9 -20 9 -39q0 -28 -7 -55q-10 -38 -16 -58t-16 -60q-7 -28 -7 -58
q0 -50 21 -73q21 -22 73 -22v-17z" />
    <glyph glyph-name="bar" unicode="|" horiz-adv-x="287" 
d="M156 820v-926h-26v926h26z" />
    <glyph glyph-name="braceright" unicode="}" horiz-adv-x="265" 
d="M27 -89l-5 -4q52 0 73 22q21 23 21 73q0 30 -7 58q-10 40 -16 60t-16 58q-7 27 -7 56q0 20 9 39t24 34q14 14 36 25q21 10 47 12q-26 2 -47 12q-22 11 -36 25q-15 15 -24 33t-9 38q0 29 7 56q10 38 16 58t16 60q7 28 7 58q0 50 -21 73q-21 22 -73 22v17q82 0 131 -33
q50 -33 50 -94q0 -34 -10 -64q-12 -36 -22 -61q-21 -52 -23 -58q-10 -27 -10 -55q0 -13 3 -28t13 -25t32 -18q20 -7 59 -7v-16q-39 0 -59 -7q-21 -7 -31 -19q-10 -11 -13 -25t-3 -27q0 -25 11 -55q2 -6 23 -58q16 -40 23 -61q10 -30 10 -64q0 -61 -49 -94q-50 -33 -130 -33
v17z" />
    <glyph glyph-name="asciitilde" unicode="~" horiz-adv-x="316" 
d="M109 414l-2 -1q28 0 58 -9t53 -9q10 0 24 8q14 7 27 36l12 -6q-26 -95 -72 -95q-29 0 -57 9t-56 9q-13 0 -24 -7q-12 -7 -27 -36l-13 6q16 49 35 73q18 22 42 22z" />
    <glyph glyph-name="uni00A0" unicode="&#xa0;" horiz-adv-x="178" 
 />
    <glyph glyph-name="exclamdown" unicode="&#xa1;" horiz-adv-x="238" 
d="M108 256h2h19q4 -96 14 -183q9 -79 18 -138q11 -69 16 -97q7 -36 7 -63q0 -35 -18 -53t-48 -18q-29 0 -47 18t-18 53q0 27 7 63q5 28 16 97q9 59 18 138q10 87 14 183zM118 474q27 0 45 -18t18 -46q0 -27 -18 -45t-45 -18q-26 0 -45 18t-19 45q0 28 19 46t45 18z" />
    <glyph glyph-name="cent" unicode="&#xa2;" horiz-adv-x="401" 
d="M247 566l-3 -82q26 -2 48 -6q21 -4 39 -14q17 -9 27 -22t10 -30q0 -16 -11 -27q-10 -10 -29 -10q-25 0 -36 14q-10 13 -18 39q-5 20 -10 28q-6 10 -19 11v-449q3 -1 9 -1h9q37 0 63 14q26 13 45 33l12 -12q-23 -23 -55 -42t-82 -19v-78h-22v79q-42 5 -75 22
q-34 18 -61 48t-42 74t-15 99q0 56 18 101q18 46 45 77q27 32 62 50q34 18 69 21v82h22zM132 251l1 1q0 -100 24 -156t66 -72v443q-41 -7 -66 -60q-25 -51 -25 -156z" />
    <glyph glyph-name="sterling" unicode="&#xa3;" horiz-adv-x="449" 
d="M75 54l-4 -3q5 6 13.5 17t11.5 15q12 15 21 33q10 19 14 38q5 22 5 45q0 19 -3 37q-4 24 -7 36h-100v18h95q-13 40 -30 81h-65v18h58q-14 39 -24 76q-11 41 -11 81q0 52 18 91t47 65q28 26 63 39q33 13 69 13q73 0 117 -31q45 -31 45 -82q0 -18 -11 -34q-11 -15 -33 -15
q-24 0 -36 12q-11 11 -16 35q-3 24 -3 42q0 17 -5 30q-5 12 -17 20q-11 7 -38 7q-51 0 -70 -42q-19 -41 -19 -120q0 -53 9 -98q7 -35 20 -87h156v-18h-151q12 -43 18 -81h133v-18h-131v-13q0 -31 -9 -57q-10 -28 -22 -47q-16 -25 -28 -38q-13 -15 -25 -28h153q27 0 59 2
q24 1 39 6t24 15q9 11 15 25h18l-24 -93q-1 -4 -3.5 -12.5t-3.5 -11.5q-3 -9 -8 -14q-5 -4 -12 -6q-10 -2 -20 -2h-333z" />
    <glyph glyph-name="yen" unicode="&#xa5;" horiz-adv-x="466" 
d="M142 13l-7 -1q15 4 24 12t14 26t6 51q1 22 1 92v106h-142v18h142v80h-142v18h136l-100 210q-10 24 -18 42q-7 16 -15 31q-6 11 -17 22t-22 17v13h187v-13q-23 -7 -27 -21t9 -48l110 -237l71 185q11 28 19 56q6 21 3 35q-3 13 -14 19q-9 5 -30 10v13h113v-13
q-12 -5 -17 -10q-6 -6 -12 -19t-15 -36q-4 -10 -24 -62l-77 -195h138v-18h-142v-80h142v-18h-142v-106q0 -69 1 -91q1 -33 6 -51q4 -17 14 -25q9 -7 24 -12v-13h-197v13z" />
    <glyph glyph-name="brokenbar" unicode="&#xa6;" horiz-adv-x="287" 
d="M156 820v-380h-26v380h26zM156 -106h-26v380h26v-380z" />
    <glyph glyph-name="section" unicode="&#xa7;" horiz-adv-x="464" 
d="M219 -141v-3q45 0 66 27t21 74q0 27 -9 51q-9 25 -27 50t-47 56q-29 30 -69 69q-32 30 -54 54q-20 21 -37 47q-14 21 -22 47q-7 22 -7 56q0 55 27 91t61 54q-8 20 -12 39q-4 17 -4 42q0 39 12 69q12 31 33 50q21 20 49 30q30 11 58 11q32 0 61 -9q27 -9 48 -23
q20 -14 30 -31q11 -19 11 -34q0 -14 -9 -25q-9 -10 -27 -10q-35 0 -46 41q-6 20 -9 29q-5 13 -12 24q-8 12 -19 17q-12 6 -31 6q-41 0 -66 -24t-25 -64q0 -24 6 -43t21 -39q17 -22 39 -44q12 -12 60 -58q40 -39 69 -69q30 -32 47 -57q18 -28 27 -52q9 -26 9 -57
q0 -47 -24 -84q-23 -36 -60 -67q8 -18 11 -35q3 -18 3 -39q0 -40 -12 -73t-33 -57q-22 -25 -49 -38t-63 -13q-34 0 -67 11q-31 10 -55 27q-23 16 -37 39q-13 22 -13 48q0 16 11 27t30 11q22 0 33 -12t12 -31q2 -21 8 -45q4 -18 14 -33q9 -13 26 -21q15 -7 42 -7zM220 265
l-3 -1q62 -62 83 -85q32 -35 48 -66q30 29 30 71q0 28 -9 52t-28 49t-48 54q-16 16 -68 66q-33 33 -57 60q-22 25 -40 54q-15 -7 -25 -25q-10 -17 -10 -46q0 -24 7 -42q8 -21 22 -39q17 -22 39 -44q7 -7 27 -26.5t32 -31.5z" />
    <glyph glyph-name="dieresis" unicode="&#xa8;" horiz-adv-x="446" 
d="M305 556v-2q-23 0 -39 15t-16 41q0 23 16 38t39 15t38 -15t15 -37q0 -25 -15 -40t-38 -15zM141 554v-2q-23 0 -38 15t-15 41q0 23 15 38t38 15t39 -15t16 -37q0 -25 -16 -40t-39 -15z" />
    <glyph glyph-name="copyright" unicode="&#xa9;" horiz-adv-x="692" 
d="M347 761l-3 -4q65 0 121 -28q57 -28 100 -79t69 -122q26 -72 26 -156q0 -87 -25 -156q-26 -71 -69 -122t-100 -79q-56 -28 -121 -28q-64 0 -122 29q-55 28 -100 80q-43 51 -69 122q-25 69 -25 156q0 84 26 156q26 71 69 122q44 51 101 80q58 29 122 29zM344 0l-2 2
q60 0 114 27q55 27 95 75q41 49 65 116t24 152t-24 152q-25 69 -64 116q-41 48 -94 75q-54 27 -114 27t-114 -27t-96 -75t-66 -117t-24 -153t24 -152t66 -116t96 -75t114 -27zM361 147l-1 -2q-34 0 -68 14q-31 13 -58 41q-24 26 -40 71q-15 43 -15 104q0 59 17 102
q16 42 42 69q25 27 56 39q30 12 59 12q16 0 28 -3t21 -6q6 -2 16 -6q8 -3 15 -3q15 0 18 16h11v-107h-11q-15 55 -41 75t-57 20q-20 0 -36 -10q-18 -11 -29 -34q-13 -26 -20 -63q-7 -36 -7 -94q0 -62 9 -102t24 -66t36 -36q22 -11 44 -11q32 0 54 12t36 29l8 -8
q-8 -10 -16 -17q-12 -10 -24 -17t-31 -13q-18 -6 -40 -6z" />
    <glyph glyph-name="ordfeminine" unicode="&#xaa;" horiz-adv-x="332" 
d="M111 391l-2 2q-37 0 -60 20t-23 57q0 25 11 42q11 16 27 27q16 10 38 18q23 8 44 18l9 3q22 11 33 22q12 12 12 39v54q0 31 -12 42q-11 10 -31 10q-16 0 -27 -11q-10 -10 -18 -29q-4 -11 -12 -18q-7 -7 -24 -7q-16 0 -23 9q-8 10 -8 20q0 20 30 35t80 15q30 0 50 -4
q23 -5 39 -15q18 -11 26 -28q9 -18 9 -43v-176q0 -34 1 -45q2 -18 4 -25q3 -8 8 -10q6 -2 12 -2q12 0 20 6l4 -8q-4 -4 -18 -10t-39 -6q-31 0 -48 12q-16 12 -19 35l-3 -3q-19 -19 -39 -33q-19 -13 -51 -13zM104 485l-1 -3q0 -68 37 -68q12 0 26 9q16 11 32 28l2 2v141
q-7 -9 -16 -14q-21 -12 -25 -14l-10 -3q-27 -13 -36 -30t-9 -48z" />
    <glyph glyph-name="guillemotleft" unicode="&#xab;" horiz-adv-x="338" 
d="M163 222v16l140 157l11 -7l-75 -158l76 -158l-11 -7zM26 222v16l140 157l11 -7l-75 -158l76 -158l-11 -7z" />
    <glyph glyph-name="registered" unicode="&#xae;" horiz-adv-x="437" 
d="M220 760l-1 -6q41 0 74 -16q36 -17 62 -46q27 -30 42 -70q15 -41 15 -88q0 -48 -15 -89q-15 -40 -42 -70t-61 -46q-36 -17 -74 -17q-39 0 -76 17q-35 16 -63 47q-27 30 -42 71t-15 89t15 89t42 71q28 31 63 47q37 17 76 17zM219 325q37 0 68 15q32 15 56 42q25 28 38 65
q14 39 14 83q0 45 -14 84q-13 37 -38 65q-24 27 -56 42t-68 15t-69 -15t-57 -42t-39 -65t-15 -83q0 -47 15 -84q15 -38 39 -65t57 -42t69 -15zM140 429l-2 -1q4 2 7 4q2 2 4 9q2 8 2 16v28v114v29q0 12 -1 16q-2 7 -4 8q-4 2 -7 3v6h72q46 0 69 -13q24 -14 24 -45
q0 -30 -24 -45q-25 -16 -57 -17q22 -2 35 -12q14 -11 20 -39q8 -34 12 -45q4 -10 12 -10q7 0 12 5l4 -4q-4 -4 -12 -9q-7 -4 -22 -4q-17 0 -29 12q-13 13 -17 47l-2.5 12.5t-2.5 12t-2 8.5q-3 13 -7 18q-4 6 -10 7q-4 1 -13 1h-6v-55v-28q0 -8 2 -16q2 -7 4 -9t8 -4v-6h-69
v6zM193 651l1 -106h17q29 0 41 14q12 13 12 39q0 29 -13 41t-45 12h-13z" />
    <glyph glyph-name="macron" unicode="&#xaf;" horiz-adv-x="446" 
d="M323 612v-45h-196v45h196z" />
    <glyph glyph-name="degree" unicode="&#xb0;" horiz-adv-x="251" 
d="M126 757l-1 -3q37 0 65 -26q27 -26 27 -66t-27 -66q-28 -26 -64 -26q-39 0 -66 27t-27 67q0 39 27 66t66 27zM53 662q0 -32 21 -55q21 -22 52 -22q32 0 51 22q20 23 20 55q0 31 -20 54q-19 22 -51 22q-31 0 -52 -22t-21 -54z" />
    <glyph glyph-name="twosuperior" unicode="&#xb2;" horiz-adv-x="351" 
d="M183 520l-4 -5h49q18 0 27 3q10 4 14 7q4 4 7 12h11l-16 -62q-2 -7 -5 -13q-2 -3 -6 -3h-211l75 94q42 55 60 99t18 93q0 35 -11 57q-11 21 -38 21q-11 0 -16 -4q-6 -4 -9 -11q-2 -4 -4 -14t-3 -14q-1 -11 -9 -19q-7 -7 -22 -7q-13 0 -21 8q-7 7 -7 20q0 20 24 38t69 18
q23 0 42 -4q22 -5 38 -15q17 -11 27 -28q11 -19 11 -44q0 -22 -8 -46q-7 -21 -23 -45q-17 -26 -37 -47q-30 -32 -51 -53l-43 -36h72z" />
    <glyph glyph-name="threesuperior" unicode="&#xb3;" horiz-adv-x="334" 
d="M86 821l1 -3q2 7 5 13q2 3 6 3h179v-6l-121 -138q15 5 28 5q46 0 75 -27t29 -84q0 -54 -36 -89q-37 -35 -96 -35q-44 0 -69 18t-25 38q0 10 6 18t20 8q23 0 27 -25l3 -15q1 -7 5 -14q3 -6 11 -11q7 -4 21 -4q34 0 49 30t15 82q0 48 -7 72q-8 26 -33 26q-20 0 -33 -7
q-14 -8 -24 -18l-8 6l103 116h-59h-39q-13 0 -21 -3q-9 -3 -11 -7q-1 -2 -3.5 -6t-3.5 -6h-12z" />
    <glyph glyph-name="acute" unicode="&#xb4;" horiz-adv-x="446" 
d="M154 531l79 124q13 20 24 31q10 10 27 10t26 -10t9 -27q0 -16 -9 -28q-8 -11 -24 -22l-121 -87z" />
    <glyph glyph-name="paragraph" unicode="&#xb6;" horiz-adv-x="486" 
d="M230 393l-3 2q-41 0 -79 12q-37 12 -65 35q-26 22 -43 57q-16 33 -16 76q0 45 16 77q16 31 44 55q27 22 65 33q39 11 81 11h230v-13q-15 -4 -24 -12q-9 -7 -13 -25q-5 -18 -6 -54q-1 -24 -1 -97v-362q0 -80 -15 -134t-42 -87q-28 -34 -66 -47q-40 -14 -87 -14
q-43 0 -67 15t-24 41q0 16 11 27t29 11q17 0 31 -11q12 -9 25 -24q12 -13 24 -24q13 -11 29 -11q13 0 27 8q13 8 24 30t18 63q7 38 7 105v597h-70v-340h-40z" />
    <glyph glyph-name="periodcentered" unicode="&#xb7;" horiz-adv-x="236" 
d="M118 229q-26 0 -44 18t-18 46q0 27 18 45t44 18q28 0 46 -18t18 -45q0 -28 -18 -46t-46 -18z" />
    <glyph glyph-name="cedilla" unicode="&#xb8;" horiz-adv-x="446" 
d="M255 0l-21 -41q32 -5 54 -22q23 -18 23 -43q0 -34 -36 -54t-115 -21l-2 15q42 4 66 14q22 9 22 26t-16 23q-18 7 -42 8l-4 7l49 88h22z" />
    <glyph glyph-name="onesuperior" unicode="&#xb9;" horiz-adv-x="246" 
d="M67 465l-4 10q8 1 16 5q6 3 9 12q2 7 4 27q1 12 1 51v139v30q0 11 -3 17q-3 7 -9 8q-8 2 -18 2v10l99 65v-270v-51q0 -18 3 -27t9 -12q8 -4 16 -5v-11h-123z" />
    <glyph glyph-name="ordmasculine" unicode="&#xba;" horiz-adv-x="356" 
d="M178 387v-3q-22 0 -50 11t-50 33q-23 23 -38 57q-15 35 -15 83q0 49 15 85t38 59q22 22 50 33t50 11q23 0 51 -11q27 -11 51 -33q24 -23 39 -58q15 -36 15 -85q0 -47 -15 -82t-39 -57t-51 -33q-26 -10 -51 -10zM178 396l-1 -2q15 0 29 9q13 9 24 29q10 18 16 53
q6 33 6 81q0 50 -6 84q-6 36 -16 54q-11 20 -24 29q-14 9 -29 9t-28 -9t-24 -29q-10 -18 -16 -54q-6 -34 -6 -84q0 -48 6 -81q6 -34 16 -52q10 -19 24 -28q13 -9 29 -9z" />
    <glyph glyph-name="guillemotright" unicode="&#xbb;" horiz-adv-x="338" 
d="M23 72l76 158l-75 158l11 7l140 -157v-16l-141 -157zM160 72l76 158l-75 158l11 7l140 -157v-16l-141 -157z" />
    <glyph glyph-name="onequarter" unicode="&#xbc;" horiz-adv-x="463" 
d="M298 -6h-2q0 -27 1 -36q2 -15 4 -21q3 -7 7 -10q3 -2 12 -4v-11h-110v11q8 2 11 4q5 3 6 10l3 21q2 18 2 36h-144v7l190 286h20v-244h56l-21 -49h-35zM230 43v150l-99 -150h99zM52 381h355v-12h-355v12zM170 465l-4 10q8 1 16 5q6 3 9 12q2 7 4 27q1 12 1 51v139v30
q0 11 -3 17q-3 7 -9 8q-8 2 -18 2v10l99 65v-270v-51q0 -18 3 -27t9 -12q8 -4 16 -5v-11h-123z" />
    <glyph glyph-name="onehalf" unicode="&#xbd;" horiz-adv-x="463" 
d="M54 381h355v-12h-355v12zM172 465l-4 10q8 1 16 5q6 3 9 12q2 7 4 27q1 12 1 51v139v30q0 11 -3 17q-3 7 -9 8q-8 2 -18 2v10l99 65v-270v-51q0 -18 3 -27t9 -12q8 -4 16 -5v-11h-123zM240 -33l-4 -5h49q18 0 27 3q10 3 14 7t7 12h11l-16 -62q-2 -7 -5 -13q-1 -3 -6 -3
h-211l75 94q42 56 60 99t18 93q0 35 -11 57q-10 21 -38 21q-11 0 -16 -4q-6 -4 -9 -11q-2 -4 -4 -14t-3 -14q-1 -11 -9 -19q-7 -7 -22 -7q-13 0 -21 8q-7 7 -7 20q0 20 24 38t69 18q23 0 42 -4q22 -5 38 -15q17 -11 27 -28q11 -19 11 -44q0 -22 -8 -46q-7 -21 -23 -45
q-17 -26 -37 -47q-30 -32 -51 -53l-43 -36h72z" />
    <glyph glyph-name="threequarters" unicode="&#xbe;" horiz-adv-x="463" 
d="M298 -6h-2q0 -27 1 -36q2 -15 4 -21q3 -7 7 -10q3 -2 12 -4v-11h-110v11q8 2 11 4q5 3 6 10l3 21q2 18 2 36h-144v7l190 286h20v-244h56l-21 -49h-35zM230 43v150l-99 -150h99zM52 381h355v-12h-355v12zM142 821l1 -3q2 7 5 13q2 3 6 3h179v-6l-121 -138q15 5 28 5
q46 0 75 -27t29 -84q0 -54 -36 -89q-37 -35 -96 -35q-44 0 -69 18t-25 38q0 10 6 18t20 8q23 0 27 -25l3 -15q1 -7 5 -14q3 -6 11 -11q7 -4 21 -4q34 0 49 30t15 82q0 48 -7 72q-8 26 -33 26q-20 0 -33 -7q-14 -8 -24 -18l-8 6l103 116h-59h-39q-13 0 -21 -3q-9 -3 -11 -7
q-1 -2 -3.5 -6t-3.5 -6h-12z" />
    <glyph glyph-name="questiondown" unicode="&#xbf;" horiz-adv-x="385" 
d="M247 263l-1 2q1 -79 -15 -136q-17 -57 -36 -105q-22 -55 -36 -91q-16 -42 -16 -96q0 -68 19 -91q20 -24 60 -24q20 0 26 9t12 28q4 13 9 24t10 19t15 13q8 4 22 4q21 -2 32 -13q12 -12 11 -29q-2 -29 -36 -50q-35 -21 -102 -21q-82 0 -134 38q-51 38 -51 111q0 36 14 69
q13 30 35 60q23 32 46 57q27 30 48 61t37 72q16 40 17 89h14zM229 476q27 0 45 -18t18 -46q0 -27 -18 -45t-45 -18t-45 18t-18 45q0 28 18 46t45 18z" />
    <glyph glyph-name="Agrave" unicode="&#xc0;" horiz-adv-x="571" 
d="M12 13l2 -4q10 5 18 12t15 21t15 36q10 29 17 57l148 528l-3 11q-11 36 -23 47t-27 15v13h127q11 0 14 -4q4 -6 8 -18l175 -601q17 -57 27 -80t33 -31v-15h-180v15q24 3 27 18q3 16 -7 53l-40 133h-238l-24 -84q-6 -23 -10 -48q-3 -21 0 -36q3 -16 13 -24q11 -10 31 -14
v-13h-118v13zM356 232l-118 396l-111 -396h229zM191 816v-1q-27 6 -40 20q-12 13 -12 30q0 14 10 24q11 11 27 11q12 0 24 -5q10 -5 21 -12l122 -84l-5 -13z" />
    <glyph glyph-name="Aacute" unicode="&#xc1;" horiz-adv-x="571" 
d="M12 13l2 -4q10 5 18 12t15 21t15 36q10 29 17 57l148 528l-3 11q-11 36 -23 47t-27 15v13h127q11 0 14 -4q4 -6 8 -18l175 -601q17 -57 27 -80t33 -31v-15h-180v15q24 3 27 18q3 16 -7 53l-40 133h-238l-24 -84q-6 -23 -10 -48q-3 -21 0 -36q3 -16 13 -24q11 -10 31 -14
v-13h-118v13zM356 232l-118 396l-111 -396h229zM164 799l121 83q11 7 23 12t24 5q17 0 26 -10q9 -11 9 -24q0 -16 -11 -30q-10 -13 -39 -19l-148 -30z" />
    <glyph glyph-name="Acircumflex" unicode="&#xc2;" horiz-adv-x="571" 
d="M12 13l2 -4q10 5 18 12t15 21t15 36q10 29 17 57l148 528l-3 11q-11 36 -23 47t-27 15v13h127q11 0 14 -4q4 -6 8 -18l175 -601q17 -57 27 -80t33 -31v-15h-180v15q24 3 27 18q3 16 -7 53l-40 133h-238l-24 -84q-6 -23 -10 -48q-3 -21 0 -36q3 -16 13 -24q11 -10 31 -14
v-13h-118v13zM356 232l-118 396l-111 -396h229zM253 912l125 -116l-4 -12l-121 47l-120 -47l-5 12z" />
    <glyph glyph-name="Atilde" unicode="&#xc3;" horiz-adv-x="571" 
d="M12 13l2 -4q10 5 18 12t15 21t15 36q10 29 17 57l148 528l-3 11q-11 36 -23 47t-27 15v13h127q11 0 14 -4q4 -6 8 -18l175 -601q17 -57 27 -80t33 -31v-15h-180v15q24 3 27 18q3 16 -7 53l-40 133h-238l-24 -84q-6 -23 -10 -48q-3 -21 0 -36q3 -16 13 -24q11 -10 31 -14
v-13h-118v13zM356 232l-118 396l-111 -396h229zM215 877l1 -2q26 0 51 -3t44 -3q10 0 23 8t29 30l12 -4q-21 -96 -72 -96q-23 0 -49 3t-48 3q-11 0 -22 -7t-28 -30l-12 4q13 51 32 74q18 23 39 23z" />
    <glyph glyph-name="Adieresis" unicode="&#xc4;" horiz-adv-x="571" 
d="M12 13l2 -4q10 5 18 12t15 21t15 36q10 29 17 57l148 528l-3 11q-11 36 -23 47t-27 15v13h127q11 0 14 -4q4 -6 8 -18l175 -601q17 -57 27 -80t33 -31v-15h-180v15q24 3 27 18q3 16 -7 53l-40 133h-238l-24 -84q-6 -23 -10 -48q-3 -21 0 -36q3 -16 13 -24q11 -10 31 -14
v-13h-118v13zM356 232l-118 396l-111 -396h229zM339 791q-23 0 -38 16q-15 17 -15 39q0 23 15 38t38 15t38 -15t15 -38q0 -22 -15 -39q-15 -16 -38 -16zM167 791q-23 0 -38 16q-15 17 -15 39q0 23 15 38t38 15t39 -15t16 -38t-16 -39t-39 -16z" />
    <glyph glyph-name="Aring" unicode="&#xc5;" horiz-adv-x="571" 
d="M12 13l2 -4q10 5 18 12t15 21t15 36q10 29 17 57l148 528l-3 11q-11 36 -23 47t-27 15v13h127q11 0 14 -4q4 -6 8 -18l175 -601q17 -57 27 -80t33 -31v-15h-180v15q24 3 27 18q3 16 -7 53l-40 133h-238l-24 -84q-6 -23 -10 -48q-3 -21 0 -36q3 -16 13 -24q11 -10 31 -14
v-13h-118v13zM356 232l-118 396l-111 -396h229zM169 859h1q0 34 24 55t59 21t59 -21t24 -55q0 -35 -24 -56t-60 -21q-35 0 -59 21t-24 56zM211 859h1q0 -61 43 -61q44 0 44 61q0 29 -12 44t-33 15q-19 0 -31 -15t-12 -44z" />
    <glyph glyph-name="AE" unicode="&#xc6;" horiz-adv-x="764" 
d="M576 331l1 3q-3 11 -9 31q-5 16 -16 26q-13 11 -34 17q-22 6 -61 6h-1v-396h72q43 0 78 5q32 5 54 19q23 15 38 41q15 25 27 69h18l-13 -118q-1 -22 -8 -27q-5 -4 -22 -4h-400v13q16 4 25 12q9 7 13 25t6 51q1 22 1 91v40h-201l-43 -107q-13 -32 -18 -51q-5 -21 -2 -32
t12 -19q9 -7 23 -12v-12h-111v12q12 6 17 9q8 5 15 15q7 9 18 32q13 25 26 56l225 555q11 29 6 41q-5 13 -34 17v13h399q11 0 15 -4t9 -27l18 -106h-17q-13 36 -29 60q-15 23 -37 36q-23 14 -52 18q-33 5 -72 5h-57v-306h1q39 0 61 6q21 6 34 17q11 10 16 26q3 10 9 32h14
v-178h-14zM346 251v480l-194 -480h194z" />
    <glyph glyph-name="Ccedilla" unicode="&#xc7;" horiz-adv-x="550" 
d="M332 -13l1 -3q-56 0 -111 23q-53 22 -94 71t-65 123q-24 75 -24 179q0 102 27 174t69 117t91 66q50 21 96 21q31 0 50 -4q24 -5 36 -10q6 -2 16 -5.5t11 -4.5q11 -4 25 -4q25 0 32 28h16v-174h-16q-30 89 -75 125t-96 36q-34 0 -63 -19q-30 -19 -52 -61q-23 -42 -36 -109
q-13 -65 -13 -165q0 -108 16 -178q17 -72 43 -115q27 -44 63 -63q35 -19 76 -19q52 0 88 21t62 50l12 -11q-12 -15 -27 -29q-18 -16 -39 -29t-52 -22q-30 -9 -67 -9zM280 -3l-21 -41q32 -5 54 -22q23 -18 23 -43q0 -35 -36 -54q-36 -20 -115 -21l-2 15q42 4 66 14
q22 9 22 26t-16 23q-18 7 -42 8l-4 7l49 88h22z" />
    <glyph glyph-name="Egrave" unicode="&#xc8;" horiz-adv-x="503" 
d="M26 13l-2 2q16 4 25 12q9 7 13 25t6 51q1 22 1 91v366q0 69 -1 91q-2 33 -6 51t-13 25q-9 8 -25 12v13h391q11 0 15 -4t9 -27l19 -106h-18q-13 36 -29 60q-15 23 -36 36t-51 18q-33 5 -72 5h-72v-306h7q39 0 60 6q20 6 33 17q11 10 16 26q3 10 9 32h14v-178h-14
q-3 11 -9 31q-5 16 -16 26q-13 11 -33 17q-21 6 -60 6h-7v-396h87q43 0 78 5q32 5 54 19q23 15 38 41t27 69h18l-13 -118q-1 -22 -8 -27q-5 -4 -22 -4h-413v13zM182 822v-1q-27 6 -40 20q-12 13 -12 30q0 14 10 24q11 11 27 11q12 0 24 -5q11 -5 21 -12l122 -84l-5 -13z" />
    <glyph glyph-name="Eacute" unicode="&#xc9;" horiz-adv-x="503" 
d="M26 13l-2 2q16 4 25 12q9 7 13 25t6 51q1 22 1 91v366q0 69 -1 91q-2 33 -6 51t-13 25q-9 8 -25 12v13h391q11 0 15 -4t9 -27l19 -106h-18q-13 36 -29 60q-15 23 -36 36t-51 18q-33 5 -72 5h-72v-306h7q39 0 60 6q20 6 33 17q11 10 16 26q3 10 9 32h14v-178h-14
q-3 11 -9 31q-5 16 -16 26q-13 11 -33 17q-21 6 -60 6h-7v-396h87q43 0 78 5q32 5 54 19q23 15 38 41t27 69h18l-13 -118q-1 -22 -8 -27q-5 -4 -22 -4h-413v13zM155 805l121 83q11 7 23 12t24 5q17 0 26 -10q9 -11 9 -24q0 -16 -11 -30q-10 -13 -39 -19l-148 -30z" />
    <glyph glyph-name="Ecircumflex" unicode="&#xca;" horiz-adv-x="503" 
d="M26 13l-2 2q16 4 25 12q9 7 13 25t6 51q1 22 1 91v366q0 69 -1 91q-2 33 -6 51t-13 25q-9 8 -25 12v13h391q11 0 15 -4t9 -27l19 -106h-18q-13 36 -29 60q-15 23 -36 36t-51 18q-33 5 -72 5h-72v-306h7q39 0 60 6q20 6 33 17q11 10 16 26q3 10 9 32h14v-178h-14
q-3 11 -9 31q-5 16 -16 26q-13 11 -33 17q-21 6 -60 6h-7v-396h87q43 0 78 5q32 5 54 19q23 15 38 41t27 69h18l-13 -118q-1 -22 -8 -27q-5 -4 -22 -4h-413v13zM244 918l125 -116l-4 -12l-121 47l-120 -47l-5 12z" />
    <glyph glyph-name="Edieresis" unicode="&#xcb;" horiz-adv-x="503" 
d="M26 13l-2 2q16 4 25 12q9 7 13 25t6 51q1 22 1 91v366q0 69 -1 91q-2 33 -6 51t-13 25q-9 8 -25 12v13h391q11 0 15 -4t9 -27l19 -106h-18q-13 36 -29 60q-15 23 -36 36t-51 18q-33 5 -72 5h-72v-306h7q39 0 60 6q20 6 33 17q11 10 16 26q3 10 9 32h14v-178h-14
q-3 11 -9 31q-5 16 -16 26q-13 11 -33 17q-21 6 -60 6h-7v-396h87q43 0 78 5q32 5 54 19q23 15 38 41t27 69h18l-13 -118q-1 -22 -8 -27q-5 -4 -22 -4h-413v13zM330 797q-23 0 -38 16q-15 17 -15 39q0 23 15 38t38 15t38 -15t15 -38q0 -22 -15 -39q-15 -16 -38 -16zM158 797
q-23 0 -38 16q-15 17 -15 39q0 23 15 38t38 15q22 0 39 -15q16 -15 16 -38t-16 -39t-39 -16z" />
    <glyph glyph-name="Igrave" unicode="&#xcc;" horiz-adv-x="250" 
d="M26 13l-1 -1q16 4 25 12q9 7 13 25q5 18 6 51q1 22 1 91v366q0 70 -1 92q-1 33 -6 51q-4 18 -13 25q-9 8 -25 12v13h198v-13q-15 -5 -24 -12t-13 -25t-6 -51q-1 -22 -1 -91v-366q0 -69 1 -91q2 -33 6 -51q4 -17 14 -25q9 -7 24 -12v-13h-198v13zM62 819v-1q-27 6 -40 20
q-12 14 -12 30q0 14 10 24q11 11 27 11q12 0 24 -5q11 -4 21 -12l122 -84l-5 -13z" />
    <glyph glyph-name="Iacute" unicode="&#xcd;" horiz-adv-x="250" 
d="M26 13l-1 -1q16 4 25 12q9 7 13 25q5 18 6 51q1 22 1 91v366q0 70 -1 92q-1 33 -6 51q-4 18 -13 25q-9 8 -25 12v13h198v-13q-15 -5 -24 -12t-13 -25t-6 -51q-1 -22 -1 -91v-366q0 -69 1 -91q2 -33 6 -51q4 -17 14 -25q9 -7 24 -12v-13h-198v13zM35 802l121 83
q11 7 23 12t24 5q17 0 26 -10t9 -24q0 -16 -11 -30q-10 -13 -39 -19l-148 -30z" />
    <glyph glyph-name="Icircumflex" unicode="&#xce;" horiz-adv-x="250" 
d="M26 13l-1 -1q16 4 25 12q9 7 13 25q5 18 6 51q1 22 1 91v366q0 70 -1 92q-1 33 -6 51q-4 18 -13 25q-9 8 -25 12v13h198v-13q-15 -5 -24 -12t-13 -25t-6 -51q-1 -22 -1 -91v-366q0 -69 1 -91q2 -33 6 -51q4 -17 14 -25q9 -7 24 -12v-13h-198v13zM124 915l125 -116l-4 -12
l-121 47l-120 -47l-5 12z" />
    <glyph glyph-name="Idieresis" unicode="&#xcf;" horiz-adv-x="250" 
d="M201 795q-23 0 -38 16q-15 17 -15 39q0 23 15 38t38 15t38 -15t15 -38q0 -22 -15 -39q-15 -16 -38 -16zM50 795q-23 0 -38 16q-15 17 -15 39q0 23 15 38t38 15t38 -15t15 -38q0 -22 -15 -39q-15 -16 -38 -16zM26 13l-1 -1q16 4 25 12q9 7 13 25q5 18 6 51q1 22 1 91v366
q0 70 -1 92q-1 33 -6 51q-4 18 -13 25q-9 8 -25 12v13h198v-13q-15 -5 -24 -12t-13 -25t-6 -51q-1 -22 -1 -91v-366q0 -69 1 -91q2 -33 6 -51q4 -17 14 -25q9 -7 24 -12v-13h-198v13z" />
    <glyph glyph-name="Eth" unicode="&#xd0;" horiz-adv-x="618" 
d="M25 13l-2 1q16 4 25 12q9 7 13 25q5 18 6 51q1 22 1 91v192h-70v16h70v-16h111v-369h31q62 0 107 18t77 62t47 114t15 176q0 111 -19 177q-19 67 -53 105q-33 38 -78 51q-47 14 -94 14h-31v-334h122v-16h-122v16h-111v158q0 69 -1 91q-1 33 -6 51q-4 18 -13 25
q-9 8 -25 12v13h186q83 0 149 -22q69 -23 116 -67q48 -45 75 -114t27 -162q0 -88 -24 -160q-23 -70 -71 -121q-46 -49 -115 -76t-157 -27h-186v13z" />
    <glyph glyph-name="Ntilde" unicode="&#xd1;" horiz-adv-x="579" 
d="M26 13l-1 -4q15 8 25 18q8 8 13 29q4 19 6 53q1 22 1 90v355q0 69 -1 91q-1 33 -6 51q-4 18 -13 25q-9 8 -25 12v13h144q13 0 17 -1q8 -2 11 -4q5 -3 9 -9q5 -7 11 -17l277 -511v342q0 68 -1 90q-2 35 -7 51q-6 18 -18 27t-33 18v13h121v-13q-15 -9 -24 -18
q-8 -8 -13 -27q-5 -18 -6 -51q-1 -22 -1 -90v-551h-31l-394 724v-518q0 -46 2 -90q2 -34 7 -52q6 -19 18 -28t33 -18v-13h-121v13zM284 877l1 -2q25 0 51 -3q25 -3 44 -3q10 0 23 8t29 30l12 -4q-21 -96 -72 -96q-24 0 -49 3t-48 3q-11 0 -22 -7t-28 -30l-12 4q13 51 32 74
q18 23 39 23z" />
    <glyph glyph-name="Ograve" unicode="&#xd2;" horiz-adv-x="641" 
d="M321 -14l-1 -1q-49 0 -100 27q-50 27 -91 78t-66 123q-25 71 -25 161q0 91 25 162q26 73 66 122t91 76t101 27q49 0 99 -27t90 -76q41 -50 66 -121t25 -162q0 -90 -25 -161q-26 -72 -66 -123t-90 -78t-99 -27zM320 2l-3 -1q73 0 116 93q44 94 44 280q0 93 -12 162
q-12 70 -33 116t-51 69q-31 23 -63 23q-34 0 -63 -23t-50 -69q-21 -47 -33 -115q-12 -69 -12 -162q0 -186 44 -280q44 -93 116 -93zM255 818v-1q-27 6 -40 20q-12 13 -12 30q0 14 10 24q11 11 27 11q12 0 24 -5q10 -5 21 -12l122 -84l-5 -13z" />
    <glyph glyph-name="Oacute" unicode="&#xd3;" horiz-adv-x="641" 
d="M321 -14l-1 -1q-49 0 -100 27q-50 27 -91 78t-66 123q-25 71 -25 161q0 91 25 162q26 73 66 122t91 76t101 27q49 0 99 -27t90 -76q41 -50 66 -121t25 -162q0 -90 -25 -161q-26 -72 -66 -123t-90 -78t-99 -27zM320 2l-3 -1q73 0 116 93q44 94 44 280q0 93 -12 162
q-12 70 -33 116t-51 69q-31 23 -63 23q-34 0 -63 -23t-50 -69q-21 -47 -33 -115q-12 -69 -12 -162q0 -186 44 -280q44 -93 116 -93zM228 801l121 83q11 7 23 12t24 5q17 0 26 -10q9 -11 9 -24q0 -16 -11 -30q-10 -13 -39 -19l-148 -30z" />
    <glyph glyph-name="Ocircumflex" unicode="&#xd4;" horiz-adv-x="641" 
d="M321 -14l-1 -1q-49 0 -100 27q-50 27 -91 78t-66 123q-25 71 -25 161q0 91 25 162q26 73 66 122t91 76t101 27q49 0 99 -27t90 -76q41 -50 66 -121t25 -162q0 -90 -25 -161q-26 -72 -66 -123t-90 -78t-99 -27zM320 2l-3 -1q73 0 116 93q44 94 44 280q0 93 -12 162
q-12 70 -33 116t-51 69q-31 23 -63 23q-34 0 -63 -23t-50 -69q-21 -47 -33 -115q-12 -69 -12 -162q0 -186 44 -280q44 -93 116 -93zM317 914l125 -116l-4 -12l-121 47l-120 -47l-5 12z" />
    <glyph glyph-name="Otilde" unicode="&#xd5;" horiz-adv-x="641" 
d="M321 -14l-1 -1q-49 0 -100 27q-50 27 -91 78t-66 123q-25 71 -25 161q0 91 25 162q26 73 66 122t91 76t101 27q49 0 99 -27t90 -76q41 -50 66 -121t25 -162q0 -90 -25 -161q-26 -72 -66 -123t-90 -78t-99 -27zM320 2l-3 -1q73 0 116 93q44 94 44 280q0 93 -12 162
q-12 70 -33 116t-51 69q-31 23 -63 23q-34 0 -63 -23t-50 -69q-21 -47 -33 -115q-12 -69 -12 -162q0 -186 44 -280q44 -93 116 -93zM280 879l1 -2q25 0 51 -3q25 -3 44 -3q10 0 23 8t29 30l12 -4q-21 -96 -72 -96q-24 0 -49 3t-48 3q-11 0 -22 -7t-28 -30l-12 4q13 51 32 74
q18 23 39 23z" />
    <glyph glyph-name="Odieresis" unicode="&#xd6;" horiz-adv-x="641" 
d="M321 -14l-1 -1q-49 0 -100 27q-50 27 -91 78t-66 123q-25 71 -25 161q0 91 25 162q26 73 66 122t91 76t101 27q49 0 99 -27t90 -76q41 -50 66 -121t25 -162q0 -90 -25 -161q-26 -72 -66 -123t-90 -78t-99 -27zM320 2l-3 -1q73 0 116 93q44 94 44 280q0 93 -12 162
q-12 70 -33 116t-51 69q-31 23 -63 23q-34 0 -63 -23t-50 -69q-21 -47 -33 -115q-12 -69 -12 -162q0 -186 44 -280q44 -93 116 -93zM403 793q-23 0 -38 16q-15 17 -15 39q0 23 15 38t38 15t38 -15t15 -38q0 -22 -15 -39q-15 -16 -38 -16zM231 793q-23 0 -38 16
q-15 17 -15 39q0 23 15 38t38 15t39 -15t16 -38t-16 -39t-39 -16z" />
    <glyph glyph-name="multiply" unicode="&#xd7;" horiz-adv-x="367" 
d="M169 353l-129 143l14 16l129 -143l131 145l14 -15l-131 -145l131 -146l-15 -15l-131 145l-129 -143l-14 14z" />
    <glyph glyph-name="Oslash" unicode="&#xd8;" horiz-adv-x="642" 
d="M321 -14l-3 -2q-34 0 -71 14t-68 39l-34 -78l-16 8l36 83q-55 49 -91 132q-36 82 -36 192q0 91 25 162q26 73 66 122t91 76t101 27q68 0 133 -47l29 68l16 -8l-31 -71q57 -48 95 -131q38 -84 38 -197q0 -90 -25 -161q-26 -72 -66 -123t-90 -78t-99 -27zM158 374l-2 -1
q0 -83 9 -147q9 -62 26 -111l235 544q-43 84 -110 84q-34 0 -63 -23t-50 -69q-21 -47 -33 -115q-12 -69 -12 -162zM316 0v-1q72 0 116 93q44 94 44 280q0 90 -10 153q-10 65 -30 112l-235 -545q42 -92 115 -92z" />
    <glyph glyph-name="Ugrave" unicode="&#xd9;" horiz-adv-x="562" 
d="M299 -14l3 -3q-57 0 -99 13q-43 13 -74 41q-30 27 -47 71q-16 42 -16 103v345q0 70 -1 92q-1 33 -6 51q-4 17 -12 25q-7 8 -21 12v13h194v-13q-15 -4 -24 -12q-9 -7 -13 -25q-5 -18 -6 -51q-1 -22 -1 -91v-362q0 -53 6 -90t21 -60q15 -22 41 -33q24 -10 65 -10
q88 0 128 46q41 47 41 150v348q0 68 -1 90q-2 35 -7 53q-6 20 -18 29t-33 18v13h120v-13q-15 -9 -24 -18q-9 -8 -13 -28q-5 -20 -6 -52q-1 -22 -1 -90v-348q0 -110 -46 -162t-150 -52zM253 817v-1q-27 6 -40 20q-12 14 -12 30q0 14 10 24q11 11 27 11q12 0 24 -5
q10 -4 21 -12l122 -84l-5 -13z" />
    <glyph glyph-name="Uacute" unicode="&#xda;" horiz-adv-x="562" 
d="M299 -14l3 -3q-57 0 -99 13q-43 13 -74 41q-30 27 -47 71q-16 42 -16 103v345q0 70 -1 92q-1 33 -6 51q-4 17 -12 25q-7 8 -21 12v13h194v-13q-15 -4 -24 -12q-9 -7 -13 -25q-5 -18 -6 -51q-1 -22 -1 -91v-362q0 -53 6 -90t21 -60q15 -22 41 -33q24 -10 65 -10
q88 0 128 46q41 47 41 150v348q0 68 -1 90q-2 35 -7 53q-6 20 -18 29t-33 18v13h120v-13q-15 -9 -24 -18q-9 -8 -13 -28q-5 -20 -6 -52q-1 -22 -1 -90v-348q0 -110 -46 -162t-150 -52zM226 800l121 83q11 7 23 12t24 5q17 0 26 -10t9 -24q0 -16 -11 -30q-10 -13 -39 -19
l-148 -30z" />
    <glyph glyph-name="Ucircumflex" unicode="&#xdb;" horiz-adv-x="562" 
d="M299 -14l3 -3q-57 0 -99 13q-43 13 -74 41q-30 27 -47 71q-16 42 -16 103v345q0 70 -1 92q-1 33 -6 51q-4 17 -12 25q-7 8 -21 12v13h194v-13q-15 -4 -24 -12q-9 -7 -13 -25q-5 -18 -6 -51q-1 -22 -1 -91v-362q0 -53 6 -90t21 -60q15 -22 41 -33q24 -10 65 -10
q88 0 128 46q41 47 41 150v348q0 68 -1 90q-2 35 -7 53q-6 20 -18 29t-33 18v13h120v-13q-15 -9 -24 -18q-9 -8 -13 -28q-5 -20 -6 -52q-1 -22 -1 -90v-348q0 -110 -46 -162t-150 -52zM315 913l125 -116l-4 -12l-121 47l-120 -47l-5 12z" />
    <glyph glyph-name="Udieresis" unicode="&#xdc;" horiz-adv-x="562" 
d="M299 -14l3 -3q-57 0 -99 13q-43 13 -74 41q-30 27 -47 71q-16 42 -16 103v345q0 70 -1 92q-1 33 -6 51q-4 17 -12 25q-7 8 -21 12v13h194v-13q-15 -4 -24 -12q-9 -7 -13 -25q-5 -18 -6 -51q-1 -22 -1 -91v-362q0 -53 6 -90t21 -60q15 -22 41 -33q24 -10 65 -10
q88 0 128 46q41 47 41 150v348q0 68 -1 90q-2 35 -7 53q-6 20 -18 29t-33 18v13h120v-13q-15 -9 -24 -18q-9 -8 -13 -28q-5 -20 -6 -52q-1 -22 -1 -90v-348q0 -110 -46 -162t-150 -52zM401 792q-23 0 -38 16t-15 39t15 38t38 15t38 -15t15 -38t-15 -39t-38 -16zM229 792
q-23 0 -38 16t-15 39t15 38t38 15t39 -15t16 -38t-16 -39t-39 -16z" />
    <glyph glyph-name="Yacute" unicode="&#xdd;" horiz-adv-x="522" 
d="M168 13l-2 -2q15 5 24 12q10 8 14 25q4 18 6 51q1 22 1 91v180l-121 254q-9 22 -18 39t-18 30q-10 15 -19 24t-24 19v13h192v-13q-23 -8 -26 -22q-3 -15 9 -45l123 -267l98 221q11 25 19 50q6 18 4 32q-2 13 -12 20t-30 12v13h117v-13q-11 -5 -18 -9t-15 -15
q-7 -9 -18 -32q-8 -15 -25 -57l-108 -241v-191q0 -69 1 -91q2 -33 6 -51t13 -25q9 -8 25 -12v-13h-198v13zM209 801l121 83q11 7 23 12t24 5q17 0 26 -10q9 -11 9 -24q0 -16 -11 -30q-10 -13 -39 -19l-148 -30z" />
    <glyph glyph-name="Thorn" unicode="&#xde;" horiz-adv-x="510" 
d="M26 13l-4 -3q16 4 25 12q9 7 13 25t6 51q1 22 1 91v366q0 70 -1 92q-2 33 -6 51t-13 25q-9 8 -25 12v13h198v-13q-14 -5 -22 -10q-9 -6 -13 -19q-5 -14 -6 -39q-2 -34 -2 -67h71q53 0 98 -9t78 -30t51 -57t18 -89q0 -55 -19 -93q-20 -40 -52 -65q-34 -26 -78 -38
q-45 -12 -96 -12h-69v-15q0 -69 1 -91q2 -33 6 -51q4 -17 14 -25q9 -7 24 -12v-13h-198v13zM242 220v-2q27 0 54 8q25 7 45 29q19 20 31 57q12 36 12 90q0 56 -12 90q-13 36 -31 56q-19 20 -44 28q-26 8 -51 8h-70v-364h66z" />
    <glyph glyph-name="germandbls" unicode="&#xdf;" horiz-adv-x="509" 
d="M165 116l-2 -1v-48q0 -19 3 -29t9 -16t16 -10v-13h-160v13q13 5 18 10q6 6 9 16t3 29v48v340h-59v14q16 3 31 8q11 4 19 12q7 7 10 19t3 29v23q0 54 18 93t47 65t63 38q35 12 67 12q34 0 62 -9q27 -9 51 -26q23 -17 36 -39t13 -50q0 -26 -11 -48q-11 -21 -27 -39
q-14 -16 -36 -34t-36 -34q-20 -25 -23 -41t-3 -33q0 -32 22 -58q23 -28 67 -63q32 -25 53 -47q22 -22 35 -42q14 -22 20 -42q6 -21 6 -45q0 -31 -12 -55q-11 -22 -32 -40q-18 -15 -44 -25q-24 -9 -47 -9q-18 0 -33 5q-13 4 -24 9t-18 9q-8 5 -15 5q-12 0 -15 -13h-16v124h15
q12 -56 37 -90t66 -34q29 0 45 21q16 20 16 51q0 19 -4 32q-4 15 -15 30q-12 17 -28 33q-18 17 -43 40q-52 40 -75 74q-22 32 -22 73q0 23 6 41q6 17 17 35q10 16 23 32l24 30q28 33 38 61q11 31 11 69q0 59 -16 92q-17 35 -66 35q-45 0 -71 -32t-26 -108v-497z" />
    <glyph glyph-name="agrave" unicode="&#xe0;" horiz-adv-x="419" 
d="M136 -9l-5 -2q-46 0 -76 27t-30 78q0 34 14 56q13 21 36 36t51 27q19 8 57 26l13 5q27 14 42 28q16 15 16 51v74q0 43 -17 57t-44 14q-23 0 -36 -15t-24 -39q-7 -16 -18 -27q-10 -10 -30 -10q-16 0 -27 11q-10 10 -10 24q0 29 39 50t104 21q34 0 64 -6q31 -6 52 -19
q23 -14 35 -36q12 -23 12 -59v-237q0 -30 2 -60q1 -20 5 -33q3 -11 9 -14t15 -3q16 0 27 8l5 -11q-7 -5 -24 -12q-18 -8 -51 -8q-40 0 -60 18q-20 19 -23 48l-4 -4q-24 -27 -51 -46q-26 -18 -68 -18zM124 113h-2q0 -94 53 -94q15 0 32 14q17 13 42 39l3 3v192
q-8 -12 -22 -21q-11 -7 -34 -19l-13 -5q-36 -20 -47 -43q-12 -24 -12 -66zM129 607v-2q-16 11 -24 22q-9 12 -9 29q0 16 9 27q9 10 26 10t27 -10q11 -11 24 -31l79 -123l-10 -9z" />
    <glyph glyph-name="aacute" unicode="&#xe1;" horiz-adv-x="419" 
d="M136 -9l-5 -2q-46 0 -76 27t-30 78q0 34 14 56q13 21 36 36t51 27q19 8 57 26l13 5q27 14 42 28q16 15 16 51v74q0 43 -17 57t-44 14q-23 0 -36 -15t-24 -39q-7 -16 -18 -27q-10 -10 -30 -10q-16 0 -27 11q-10 10 -10 24q0 29 39 50t104 21q34 0 64 -6q31 -6 52 -19
q23 -14 35 -36q12 -23 12 -59v-237q0 -30 2 -60q1 -20 5 -33q3 -11 9 -14t15 -3q16 0 27 8l5 -11q-7 -5 -24 -12q-18 -8 -51 -8q-40 0 -60 18q-20 19 -23 48l-4 -4q-24 -27 -51 -46q-26 -18 -68 -18zM124 113h-2q0 -94 53 -94q15 0 32 14q17 13 42 39l3 3v192
q-8 -12 -22 -21q-11 -7 -34 -19l-13 -5q-36 -20 -47 -43q-12 -24 -12 -66zM132 529l79 124q13 20 24 31q10 10 27 10t26 -10t9 -27q0 -16 -9 -28q-8 -11 -24 -22l-121 -87z" />
    <glyph glyph-name="acircumflex" unicode="&#xe2;" horiz-adv-x="419" 
d="M136 -9l-5 -2q-46 0 -76 27t-30 78q0 34 14 56q13 21 36 36t51 27q19 8 57 26l13 5q27 14 42 28q16 15 16 51v74q0 43 -17 57t-44 14q-23 0 -36 -15t-24 -39q-7 -16 -18 -27q-10 -10 -30 -10q-16 0 -27 11q-10 10 -10 24q0 29 39 50t104 21q34 0 64 -6q31 -6 52 -19
q23 -14 35 -36q12 -23 12 -59v-237q0 -30 2 -60q1 -20 5 -33q3 -11 9 -14t15 -3q16 0 27 8l5 -11q-7 -5 -24 -12q-18 -8 -51 -8q-40 0 -60 18q-20 19 -23 48l-4 -4q-24 -27 -51 -46q-26 -18 -68 -18zM124 113h-2q0 -94 53 -94q15 0 32 14q17 13 42 39l3 3v192
q-8 -12 -22 -21q-11 -7 -34 -19l-13 -5q-36 -20 -47 -43q-12 -24 -12 -66zM195 699l114 -171l-11 -9l-103 76l-103 -76l-11 9z" />
    <glyph glyph-name="atilde" unicode="&#xe3;" horiz-adv-x="419" 
d="M136 -9l-5 -2q-46 0 -76 27t-30 78q0 34 14 56q13 21 36 36t51 27q19 8 57 26l13 5q27 14 42 28q16 15 16 51v74q0 43 -17 57t-44 14q-23 0 -36 -15t-24 -39q-7 -16 -18 -27q-10 -10 -30 -10q-16 0 -27 11q-10 10 -10 24q0 29 39 50t104 21q34 0 64 -6q31 -6 52 -19
q23 -14 35 -36q12 -23 12 -59v-237q0 -30 2 -60q1 -20 5 -33q3 -11 9 -14t15 -3q16 0 27 8l5 -11q-7 -5 -24 -12q-18 -8 -51 -8q-40 0 -60 18q-20 19 -23 48l-4 -4q-24 -27 -51 -46q-26 -18 -68 -18zM124 113h-2q0 -94 53 -94q15 0 32 14q17 13 42 39l3 3v192
q-8 -12 -22 -21q-11 -7 -34 -19l-13 -5q-36 -20 -47 -43q-12 -24 -12 -66zM154 639l-2 -1q26 0 48 -6t42 -6q10 0 21 9q10 8 27 32l12 -6q-13 -47 -28 -71q-17 -26 -42 -26q-22 0 -45 6t-45 6q-11 0 -22 -8q-10 -7 -27 -32l-12 6q15 45 32 72q16 25 41 25z" />
    <glyph glyph-name="adieresis" unicode="&#xe4;" horiz-adv-x="419" 
d="M136 -9l-5 -2q-46 0 -76 27t-30 78q0 34 14 56q13 21 36 36t51 27q19 8 57 26l13 5q27 14 42 28q16 15 16 51v74q0 43 -17 57t-44 14q-23 0 -36 -15t-24 -39q-7 -16 -18 -27q-10 -10 -30 -10q-16 0 -27 11q-10 10 -10 24q0 29 39 50t104 21q34 0 64 -6q31 -6 52 -19
q23 -14 35 -36q12 -23 12 -59v-237q0 -30 2 -60q1 -20 5 -33q3 -11 9 -14t15 -3q16 0 27 8l5 -11q-7 -5 -24 -12q-18 -8 -51 -8q-40 0 -60 18q-20 19 -23 48l-4 -4q-24 -27 -51 -46q-26 -18 -68 -18zM124 113h-2q0 -94 53 -94q15 0 32 14q17 13 42 39l3 3v192
q-8 -12 -22 -21q-11 -7 -34 -19l-13 -5q-36 -20 -47 -43q-12 -24 -12 -66zM277 554v-2q-23 0 -39 15t-16 41q0 23 16 38t39 15t38 -15t15 -37q0 -25 -15 -40t-38 -15zM113 552v-2q-23 0 -38 15t-15 41q0 23 15 38t38 15t39 -15t16 -37q0 -25 -16 -40t-39 -15z" />
    <glyph glyph-name="aring" unicode="&#xe5;" horiz-adv-x="419" 
d="M136 -9l-5 -2q-46 0 -76 27t-30 78q0 34 14 56q13 21 36 36t51 27q19 8 57 26l13 5q27 14 42 28q16 15 16 51v74q0 43 -17 57t-44 14q-23 0 -36 -15t-24 -39q-7 -16 -18 -27q-10 -10 -30 -10q-16 0 -27 11q-10 10 -10 24q0 29 39 50t104 21q34 0 64 -6q31 -6 52 -19
q23 -14 35 -36q12 -23 12 -59v-237q0 -30 2 -60q1 -20 5 -33q3 -11 9 -14t15 -3q16 0 27 8l5 -11q-7 -5 -24 -12q-18 -8 -51 -8q-40 0 -60 18q-20 19 -23 48l-4 -4q-24 -27 -51 -46q-26 -18 -68 -18zM124 113h-2q0 -94 53 -94q15 0 32 14q17 13 42 39l3 3v192
q-8 -12 -22 -21q-11 -7 -34 -19l-13 -5q-36 -20 -47 -43q-12 -24 -12 -66zM115 602h2q0 34 24 55t56 21t56 -21t24 -55q0 -35 -24 -56t-57 -21t-57 21t-24 56zM158 602h-1q0 -61 39 -61q40 0 40 61q0 28 -11 44q-11 15 -29 15t-28 -15q-10 -14 -10 -44z" />
    <glyph glyph-name="ae" unicode="&#xe6;" horiz-adv-x="642" 
d="M140 -9v4q-49 0 -79 27t-30 78q0 34 14 56q13 21 36 36t51 27q19 8 57 26l13 5q27 14 42 28q16 15 16 51v74q0 43 -17 57t-44 14q-23 0 -36 -15t-24 -39q-7 -16 -18 -27q-10 -10 -30 -10q-16 0 -27 11q-10 10 -10 24q0 29 39 50t104 21q48 0 84 -10q37 -11 57 -39
q28 26 56 38t54 12q73 0 112 -45q38 -44 46 -130h-242q-1 -9 -1 -27v-30q0 -116 31 -177t96 -61q37 0 57 10q24 12 41 25l9 -13q-19 -16 -48 -33q-28 -16 -78 -16q-53 0 -97 22q-46 23 -74 70l-22 -22q-18 -19 -33 -33q-13 -12 -30 -22q-14 -8 -33 -13q-16 -4 -42 -4z
M447 473l1 -2q-14 0 -27 -6q-14 -6 -24 -22q-12 -19 -20 -43q-8 -25 -13 -68h146q-2 75 -15 108t-48 33zM130 117h-4q0 -94 52 -94q20 0 41 12q20 11 48 41l20 20q-14 29 -21 64q-8 38 -8 81v30q-8 -12 -22 -21q-11 -7 -34 -19l-13 -5q-36 -20 -47 -43q-12 -24 -12 -66z" />
    <glyph glyph-name="ccedilla" unicode="&#xe7;" horiz-adv-x="398" 
d="M243 -8l-7 -4q-45 0 -81 16q-37 16 -66 47q-29 30 -45 75q-17 46 -17 104q0 59 20 107q19 45 50 79q29 32 66 49t69 17q22 0 49 -5q22 -4 42 -14q18 -9 29 -23t11 -30t-12 -27q-11 -10 -30 -10q-25 0 -36 15q-10 15 -18 41q-4 20 -11 30q-6 9 -23 9q-45 0 -73 -52
t-28 -163q0 -121 36 -178t94 -57q35 0 60 14q23 13 43 33l12 -12q-19 -23 -51 -42q-31 -19 -83 -19zM226 -4l-21 -41q32 -5 54 -22q23 -18 23 -43q0 -34 -36 -54t-115 -21l-2 15q42 4 66 14q22 9 22 26t-16 23q-18 7 -42 8l-4 7l49 88h22z" />
    <glyph glyph-name="egrave" unicode="&#xe8;" horiz-adv-x="412" 
d="M242 -9l-3 3q-41 0 -81 14q-39 14 -68 44q-27 29 -46 77q-18 47 -18 113q0 60 20 108q20 47 48 77t62 45q33 15 62 15q74 0 114 -45q41 -45 48 -130h-248q-1 -9 -1 -27v-29q0 -115 32 -177q31 -61 98 -61q39 0 60 10q24 11 42 25l9 -13q-20 -17 -49 -33t-81 -16zM217 472
l-1 -2q-14 0 -27 -6t-25 -22q-12 -17 -21 -43q-8 -24 -13 -68h152q-2 76 -16 108q-15 33 -49 33zM154 610v-2q-16 11 -24 22q-9 12 -9 29t9 27t26 10t27 -10q11 -11 24 -31l79 -123l-10 -9z" />
    <glyph glyph-name="eacute" unicode="&#xe9;" horiz-adv-x="412" 
d="M242 -9l-3 3q-41 0 -81 14q-39 14 -68 44q-27 29 -46 77q-18 47 -18 113q0 60 20 108q20 47 48 77t62 45q33 15 62 15q74 0 114 -45q41 -45 48 -130h-248q-1 -9 -1 -27v-29q0 -115 32 -177q31 -61 98 -61q39 0 60 10q24 11 42 25l9 -13q-20 -17 -49 -33t-81 -16zM217 472
l-1 -2q-14 0 -27 -6t-25 -22q-12 -17 -21 -43q-8 -24 -13 -68h152q-2 76 -16 108q-15 33 -49 33zM157 532l79 124q13 20 24 31q10 10 27 10t26 -10q9 -11 9 -27t-9 -28q-8 -11 -24 -22l-121 -87z" />
    <glyph glyph-name="ecircumflex" unicode="&#xea;" horiz-adv-x="412" 
d="M242 -9l-3 3q-41 0 -81 14q-39 14 -68 44q-27 29 -46 77q-18 47 -18 113q0 60 20 108q20 47 48 77t62 45q33 15 62 15q74 0 114 -45q41 -45 48 -130h-248q-1 -9 -1 -27v-29q0 -115 32 -177q31 -61 98 -61q39 0 60 10q24 11 42 25l9 -13q-20 -17 -49 -33t-81 -16zM217 472
l-1 -2q-14 0 -27 -6t-25 -22q-12 -17 -21 -43q-8 -24 -13 -68h152q-2 76 -16 108q-15 33 -49 33zM220 702l114 -171l-11 -9l-103 76l-103 -76l-11 9z" />
    <glyph glyph-name="edieresis" unicode="&#xeb;" horiz-adv-x="412" 
d="M242 -9l-3 3q-41 0 -81 14q-39 14 -68 44q-27 29 -46 77q-18 47 -18 113q0 60 20 108q20 47 48 77t62 45q33 15 62 15q74 0 114 -45q41 -45 48 -130h-248q-1 -9 -1 -27v-29q0 -115 32 -177q31 -61 98 -61q39 0 60 10q24 11 42 25l9 -13q-20 -17 -49 -33t-81 -16zM217 472
l-1 -2q-14 0 -27 -6t-25 -22q-12 -17 -21 -43q-8 -24 -13 -68h152q-2 76 -16 108q-15 33 -49 33zM302 557v-2q-22 0 -39 15q-16 15 -16 41q0 23 16 38q17 15 39 15q23 0 38 -15t15 -37q0 -25 -15 -40t-38 -15zM138 555v-2q-23 0 -38 15t-15 41q0 23 15 38t38 15q22 0 39 -15
q16 -15 16 -37q0 -25 -16 -40q-17 -15 -39 -15z" />
    <glyph glyph-name="igrave" unicode="&#xec;" horiz-adv-x="223" 
d="M25 13l4 -1q15 5 21 10q8 7 11 16q4 13 5 29q1 12 1 48v195q0 32 -1 42q-2 15 -6 24t-13 13q-7 4 -24 7v14l140 75v-369v-48q0 -17 5 -29q4 -10 12 -16q6 -5 21 -10v-13h-176v13zM49 608v-2q-16 11 -24 22q-9 12 -9 29t9 27t26 10t27 -10q11 -11 24 -31l79 -123l-10 -9z
" />
    <glyph glyph-name="iacute" unicode="&#xed;" horiz-adv-x="223" 
d="M25 13l4 -1q15 5 21 10q8 7 11 16q4 13 5 29q1 12 1 48v195q0 32 -1 42q-2 15 -6 24t-13 13q-7 4 -24 7v14l140 75v-369v-48q0 -17 5 -29q4 -10 12 -16q6 -5 21 -10v-13h-176v13zM52 530l79 124q13 20 24 31q10 10 27 10t26 -10q9 -11 9 -27t-9 -28q-8 -11 -24 -22
l-121 -87z" />
    <glyph glyph-name="icircumflex" unicode="&#xee;" horiz-adv-x="223" 
d="M25 13l4 -1q15 5 21 10q8 7 11 16q4 13 5 29q1 12 1 48v195q0 32 -1 42q-2 15 -6 24t-13 13q-7 4 -24 7v14l140 75v-369v-48q0 -17 5 -29q4 -10 12 -16q6 -5 21 -10v-13h-176v13zM115 700l114 -171l-11 -9l-103 76l-103 -76l-11 9z" />
    <glyph glyph-name="idieresis" unicode="&#xef;" horiz-adv-x="223" 
d="M182 556v-2q-22 0 -39 15q-16 15 -16 41q0 23 16 38q17 15 39 15q23 0 38 -15t15 -37q0 -25 -15 -40t-38 -15zM37 554l-1 -2q-22 0 -37 15t-15 41q0 23 15 38t38 15q24 0 39 -15t15 -37q0 -25 -15 -40t-39 -15zM24 9l4 -1q15 5 21 10q8 7 11 16q4 13 5 29q1 12 1 48v195
q0 32 -1 42q-1 15 -6 24q-4 9 -13 13q-7 4 -24 7v14l140 75v-369v-48q0 -17 5 -29q4 -10 12 -16q6 -5 21 -10v-13h-176v13z" />
    <glyph glyph-name="eth" unicode="&#xf0;" horiz-adv-x="465" 
d="M435 294v-1q0 -84 -19 -140q-20 -58 -49 -93t-66 -52q-35 -16 -69 -16q-31 0 -67 15t-66 45q-31 30 -50 77q-20 48 -20 109q0 63 20 111q19 47 50 77q30 30 66 45t68 15q21 0 44 -6q24 -6 42 -19q-18 95 -69 171l-108 -53l-8 15l106 52q-52 71 -129 118l9 8
q97 -43 163 -105l99 49l7 -16l-93 -46q40 -41 65 -82q26 -42 43 -90q17 -47 24 -94q7 -45 7 -94zM232 7h-1q46 0 73 53q27 52 27 177q0 67 -7 108q-8 44 -21 71q-14 28 -31 39q-18 12 -41 12t-41 -12q-17 -11 -31 -39q-13 -27 -21 -71q-7 -41 -7 -108q0 -125 27 -177
q27 -53 74 -53z" />
    <glyph glyph-name="ntilde" unicode="&#xf1;" horiz-adv-x="485" 
d="M26 13l2 3q12 5 19 10q8 7 11 16q3 10 3 29v48v195q0 32 -1 42q-2 16 -6 23q-5 8 -13 12q-7 4 -24 7v14l142 75v-104l20 20q43 43 73 62q33 21 71 21q18 0 36 -6q19 -6 33 -19q15 -13 24 -36t9 -55v-253v-48q0 -19 3 -29t10 -16q7 -5 19 -10v-13h-171v13q15 5 21 10
q8 6 12 16t6 29q1 12 1 48v279q0 30 -12 43t-31 13q-17 0 -40 -16q-22 -15 -64 -57l-20 -20v-243v-48q0 -17 5 -29q4 -10 12 -16q6 -5 21 -10v-13h-171v13zM211 644l-2 -1q25 0 48 -6t42 -6q11 0 21 9q10 8 27 32l12 -6q-13 -47 -28 -71q-17 -26 -42 -26q-23 0 -45 6t-45 6
q-11 0 -22 -8q-10 -7 -27 -32l-12 6q15 45 32 72q16 25 41 25z" />
    <glyph glyph-name="ograve" unicode="&#xf2;" horiz-adv-x="464" 
d="M232 -8l-1 -1q-31 0 -67 15t-66 45q-30 31 -50 77q-20 48 -20 109q0 63 20 111q20 47 50 77t66 45t68 15q31 0 67 -15t66 -45q31 -30 50 -77q20 -48 20 -111q0 -61 -20 -109q-19 -45 -50 -76q-30 -30 -66 -45t-67 -15zM231 7h-1q46 0 73 53q27 52 27 177q0 67 -7 108
q-8 44 -21 71q-14 28 -31 39q-18 12 -41 12t-41 -12q-17 -11 -31 -39q-13 -27 -21 -71q-7 -41 -7 -108q0 -125 27 -177q27 -53 74 -53zM164 608v-2q-16 11 -24 22q-9 12 -9 29t9 27t26 10t27 -10q11 -11 24 -31l79 -123l-10 -9z" />
    <glyph glyph-name="oacute" unicode="&#xf3;" horiz-adv-x="464" 
d="M232 -8l-1 -1q-31 0 -67 15t-66 45q-30 31 -50 77q-20 48 -20 109q0 63 20 111q20 47 50 77t66 45t68 15q31 0 67 -15t66 -45q31 -30 50 -77q20 -48 20 -111q0 -61 -20 -109q-19 -45 -50 -76q-30 -30 -66 -45t-67 -15zM231 7h-1q46 0 73 53q27 52 27 177q0 67 -7 108
q-8 44 -21 71q-14 28 -31 39q-18 12 -41 12t-41 -12q-17 -11 -31 -39q-13 -27 -21 -71q-7 -41 -7 -108q0 -125 27 -177q27 -53 74 -53zM167 530l79 124q13 20 24 31q10 10 27 10t26 -10q9 -11 9 -27t-9 -28q-8 -11 -24 -22l-121 -87z" />
    <glyph glyph-name="ocircumflex" unicode="&#xf4;" horiz-adv-x="464" 
d="M232 -8l-1 -1q-31 0 -67 15t-66 45q-30 31 -50 77q-20 48 -20 109q0 63 20 111q20 47 50 77t66 45t68 15q31 0 67 -15t66 -45q31 -30 50 -77q20 -48 20 -111q0 -61 -20 -109q-19 -45 -50 -76q-30 -30 -66 -45t-67 -15zM231 7h-1q46 0 73 53q27 52 27 177q0 67 -7 108
q-8 44 -21 71q-14 28 -31 39q-18 12 -41 12t-41 -12q-17 -11 -31 -39q-13 -27 -21 -71q-7 -41 -7 -108q0 -125 27 -177q27 -53 74 -53zM230 700l114 -171l-11 -9l-103 76l-103 -76l-11 9z" />
    <glyph glyph-name="otilde" unicode="&#xf5;" horiz-adv-x="464" 
d="M232 -8l-1 -1q-31 0 -67 15t-66 45q-30 31 -50 77q-20 48 -20 109q0 63 20 111q20 47 50 77t66 45t68 15q31 0 67 -15t66 -45q31 -30 50 -77q20 -48 20 -111q0 -61 -20 -109q-19 -45 -50 -76q-30 -30 -66 -45t-67 -15zM231 7h-1q46 0 73 53q27 52 27 177q0 67 -7 108
q-8 44 -21 71q-14 28 -31 39q-18 12 -41 12t-41 -12q-17 -11 -31 -39q-13 -27 -21 -71q-7 -41 -7 -108q0 -125 27 -177q27 -53 74 -53zM189 640l-2 -1q25 0 48 -6t42 -6q11 0 21 9q10 8 27 32l12 -6q-13 -47 -28 -71q-17 -26 -42 -26q-23 0 -45 6t-45 6q-11 0 -22 -8
q-10 -7 -27 -32l-12 6q15 45 32 72q16 25 41 25z" />
    <glyph glyph-name="odieresis" unicode="&#xf6;" horiz-adv-x="464" 
d="M232 -8l-1 -1q-31 0 -67 15t-66 45q-30 31 -50 77q-20 48 -20 109q0 63 20 111q20 47 50 77t66 45t68 15q31 0 67 -15t66 -45q31 -30 50 -77q20 -48 20 -111q0 -61 -20 -109q-19 -45 -50 -76q-30 -30 -66 -45t-67 -15zM231 7h-1q46 0 73 53q27 52 27 177q0 67 -7 108
q-8 44 -21 71q-14 28 -31 39q-18 12 -41 12t-41 -12q-17 -11 -31 -39q-13 -27 -21 -71q-7 -41 -7 -108q0 -125 27 -177q27 -53 74 -53zM312 555v-2q-22 0 -39 15q-16 15 -16 41q0 23 16 38q17 15 39 15q23 0 38 -15t15 -37q0 -25 -15 -40t-38 -15zM148 553v-2q-23 0 -38 15
t-15 41q0 23 15 38t38 15q22 0 39 -15q16 -15 16 -37q0 -25 -16 -40q-17 -15 -39 -15z" />
    <glyph glyph-name="divide" unicode="&#xf7;" horiz-adv-x="419" 
d="M155 493h-2q0 22 17 39t39 17t39 -17t17 -39q0 -23 -16 -39q-17 -17 -39 -17t-39 17q-16 16 -16 39zM38 361h341v-20h-341v20zM153 207l-2 -1q0 22 17 39t39 17t39 -17t17 -39q0 -23 -16 -39t-39 -16q-22 0 -39 17q-16 16 -16 39z" />
    <glyph glyph-name="oslash" unicode="&#xf8;" horiz-adv-x="464" 
d="M314 395l-160 -322q26 -65 78 -65q46 0 73 53t27 177q0 103 -18 157zM306 417l-1 -1q-13 27 -32 40q-18 12 -41 12t-41 -12q-17 -12 -31 -39q-13 -27 -21 -71q-7 -41 -7 -108q0 -85 14 -141zM102 -29l-16 4l28 56q-37 30 -63 80q-25 49 -25 122q0 63 20 111q19 47 50 77
q30 30 66 45t68 15q25 0 47 -7q25 -8 47 -21l22 44l15 -8l-23 -46q38 -28 67 -80q28 -50 28 -128q0 -61 -20 -109q-19 -45 -50 -76q-30 -30 -66 -45t-67 -15q-24 0 -50 9q-24 8 -51 26z" />
    <glyph glyph-name="ugrave" unicode="&#xf9;" horiz-adv-x="465" 
d="M164 -9v-5q-20 0 -38 6q-17 6 -33 20q-15 14 -24 36t-9 54v217q0 27 -1 36q-1 13 -6 21t-13 11q-9 3 -24 6v14l141 75v-392q0 -34 12 -51t31 -17q20 0 45 18t63 57l1 1v223q0 27 -1 36q-2 13 -6 21q-5 8 -13 11q-9 3 -24 6v14l141 75v-369v-48q0 -19 3 -29q3 -9 11 -16
q6 -5 21 -10v-13h-134v79l-1 -1q-39 -40 -72 -64q-31 -22 -70 -22zM178 604v-2q-16 11 -24 22q-9 12 -9 29t9 27t26 10t27 -10q11 -11 24 -31l79 -123l-10 -9z" />
    <glyph glyph-name="uacute" unicode="&#xfa;" horiz-adv-x="465" 
d="M164 -9v-5q-20 0 -38 6q-17 6 -33 20q-15 14 -24 36t-9 54v217q0 27 -1 36q-1 13 -6 21t-13 11q-9 3 -24 6v14l141 75v-392q0 -34 12 -51t31 -17q20 0 45 18t63 57l1 1v223q0 27 -1 36q-2 13 -6 21q-5 8 -13 11q-9 3 -24 6v14l141 75v-369v-48q0 -19 3 -29q3 -9 11 -16
q6 -5 21 -10v-13h-134v79l-1 -1q-39 -40 -72 -64q-31 -22 -70 -22zM180 526l79 124q13 20 24 31q10 10 27 10t26 -10q9 -11 9 -27t-9 -28q-8 -11 -24 -22l-121 -87z" />
    <glyph glyph-name="ucircumflex" unicode="&#xfb;" horiz-adv-x="465" 
d="M164 -9v-5q-20 0 -38 6q-17 6 -33 20q-15 14 -24 36t-9 54v217q0 27 -1 36q-1 13 -6 21t-13 11q-9 3 -24 6v14l141 75v-392q0 -34 12 -51t31 -17q20 0 45 18t63 57l1 1v223q0 27 -1 36q-2 13 -6 21q-5 8 -13 11q-9 3 -24 6v14l141 75v-369v-48q0 -19 3 -29q3 -9 11 -16
q6 -5 21 -10v-13h-134v79l-1 -1q-39 -40 -72 -64q-31 -22 -70 -22zM244 696l114 -171l-11 -9l-103 76l-103 -76l-11 9z" />
    <glyph glyph-name="udieresis" unicode="&#xfc;" horiz-adv-x="465" 
d="M164 -9v-5q-20 0 -38 6q-17 6 -33 20q-15 14 -24 36t-9 54v217q0 27 -1 36q-1 13 -6 21t-13 11q-9 3 -24 6v14l141 75v-392q0 -34 12 -51t31 -17q20 0 45 18t63 57l1 1v223q0 27 -1 36q-2 13 -6 21q-5 8 -13 11q-9 3 -24 6v14l141 75v-369v-48q0 -19 3 -29q3 -9 11 -16
q6 -5 21 -10v-13h-134v79l-1 -1q-39 -40 -72 -64q-31 -22 -70 -22zM326 551v-2q-22 0 -39 15q-16 15 -16 41q0 23 16 38q17 15 39 15q23 0 38 -15t15 -37q0 -25 -15 -40t-38 -15zM162 549v-2q-23 0 -38 15t-15 41q0 23 15 38t38 15q22 0 39 -15q16 -15 16 -37q0 -25 -16 -40
q-17 -15 -39 -15z" />
    <glyph glyph-name="yacute" unicode="&#xfd;" horiz-adv-x="408" 
d="M75 -165l-6 -2q-29 0 -42 12t-13 29q0 18 10 27t27 9q13 0 20 -3q10 -4 15 -7l14 -7q6 -3 15 -3q7 0 15 3t17 14q10 12 20 30q11 19 24 51l3 8l-135 365q-17 48 -19 52q-9 22 -13 30q-5 9 -11 15q-4 4 -12 7v13h168v-13q-10 -1 -18 -6t-9 -15t3 -30t15 -51l79 -236
l75 212q13 39 18 63q5 25 2 37q-3 13 -12 18q-9 4 -23 6v13h97v-13q-7 -1 -13 -6t-12 -18q-7 -16 -15 -37q-15 -40 -23 -64l-125 -353q-17 -43 -33 -72q-16 -27 -33 -46q-16 -18 -34 -25q-17 -7 -36 -7zM166 529l79 124q13 20 24 31q10 10 27 10t26 -10t9 -27q0 -16 -9 -28
q-8 -11 -24 -22l-121 -87z" />
    <glyph glyph-name="thorn" unicode="&#xfe;" horiz-adv-x="486" 
d="M31 -147l3 -2q13 5 18 10q6 6 9 16q3 11 3 29v48v663q0 30 -1 40q-2 17 -4 23q-3 8 -11 11q-6 2 -23 4v15l139 72v-385l1 1q34 39 65 64q28 22 66 22q26 0 54 -12q29 -12 53 -39t39 -71t15 -108q0 -62 -15 -111q-15 -50 -43 -82q-29 -33 -67 -51q-39 -18 -85 -18
q-23 0 -45 9q-21 9 -39 23v-68v-48q0 -18 3 -29q3 -9 11 -16q6 -5 21 -10v-13h-167v13zM166 373v-331q15 -13 38 -25q19 -10 45 -10q48 0 78 54t30 173q0 62 -6 104q-6 43 -18 68q-12 26 -27 38t-33 12q-20 0 -45 -20q-21 -17 -61 -62z" />
    <glyph glyph-name="ydieresis" unicode="&#xff;" horiz-adv-x="408" 
d="M75 -165l-6 -2q-29 0 -42 12t-13 29q0 18 10 27t27 9q13 0 20 -3q10 -4 15 -7l14 -7q6 -3 15 -3q7 0 15 3t17 14q10 12 20 30q11 19 24 51l3 8l-135 365q-17 48 -19 52q-9 22 -13 30q-5 9 -11 15q-4 4 -12 7v13h168v-13q-10 -1 -18 -6t-9 -15t3 -30t15 -51l79 -236
l75 212q13 39 18 63q5 25 2 37q-3 13 -12 18q-9 4 -23 6v13h97v-13q-7 -1 -13 -6t-12 -18q-7 -16 -15 -37q-15 -40 -23 -64l-125 -353q-17 -43 -33 -72q-16 -27 -33 -46q-16 -18 -34 -25q-17 -7 -36 -7zM305 554v-2q-23 0 -39 15t-16 41q0 23 16 38t39 15t38 -15t15 -37
q0 -25 -15 -40t-38 -15zM141 552v-2q-23 0 -38 15t-15 41q0 23 15 38t38 15t39 -15t16 -37q0 -25 -16 -40t-39 -15z" />
    <glyph glyph-name="Amacron" unicode="&#x100;" horiz-adv-x="571" 
d="M12 13l2 -4q10 5 18 12t15 21t15 36q10 29 17 57l148 528l-3 11q-11 36 -23 47t-27 15v13h127q11 0 14 -4q4 -6 8 -18l175 -601q17 -57 27 -80t33 -31v-15h-180v15q24 3 27 18q3 16 -7 53l-40 133h-238l-24 -84q-6 -23 -10 -48q-3 -21 0 -36q3 -16 13 -24q11 -10 31 -14
v-13h-118v13zM356 232l-118 396l-111 -396h229zM357 803h-208v47h208v-47z" />
    <glyph glyph-name="amacron" unicode="&#x101;" horiz-adv-x="419" 
d="M136 -9l-5 -2q-46 0 -76 27t-30 78q0 34 14 56q13 21 36 36t51 27q19 8 57 26l13 5q27 14 42 28q16 15 16 51v74q0 43 -17 57t-44 14q-23 0 -36 -15t-24 -39q-7 -16 -18 -27q-10 -10 -30 -10q-16 0 -27 11q-10 10 -10 24q0 29 39 50t104 21q34 0 64 -6q31 -6 52 -19
q23 -14 35 -36q12 -23 12 -59v-237q0 -30 2 -60q1 -20 5 -33q3 -11 9 -14t15 -3q16 0 27 8l5 -11q-7 -5 -24 -12q-18 -8 -51 -8q-40 0 -60 18q-20 19 -23 48l-4 -4q-24 -27 -51 -46q-26 -18 -68 -18zM124 113h-2q0 -94 53 -94q15 0 32 14q17 13 42 39l3 3v192
q-8 -12 -22 -21q-11 -7 -34 -19l-13 -5q-36 -20 -47 -43q-12 -24 -12 -66zM293 610v-45h-196v45h196z" />
    <glyph glyph-name="Abreve" unicode="&#x102;" horiz-adv-x="571" 
d="M12 13l2 -4q10 5 18 12t15 21t15 36q10 29 17 57l148 528l-3 11q-11 36 -23 47t-27 15v13h127q11 0 14 -4q4 -6 8 -18l175 -601q17 -57 27 -80t33 -31v-15h-180v15q24 3 27 18q3 16 -7 53l-40 133h-238l-24 -84q-6 -23 -10 -48q-3 -21 0 -36q3 -16 13 -24q11 -10 31 -14
v-13h-118v13zM356 232l-118 396l-111 -396h229zM254 857v-2q36 0 55 11q18 10 27 33h16q-2 -44 -25 -75q-24 -31 -72 -31q-47 0 -73 32q-25 31 -27 77h16q7 -21 27 -33q19 -12 56 -12z" />
    <glyph glyph-name="abreve" unicode="&#x103;" horiz-adv-x="419" 
d="M136 -9l-5 -2q-46 0 -76 27t-30 78q0 34 14 56q13 21 36 36t51 27q19 8 57 26l13 5q27 14 42 28q16 15 16 51v74q0 43 -17 57t-44 14q-23 0 -36 -15t-24 -39q-7 -16 -18 -27q-10 -10 -30 -10q-16 0 -27 11q-10 10 -10 24q0 29 39 50t104 21q34 0 64 -6q31 -6 52 -19
q23 -14 35 -36q12 -23 12 -59v-237q0 -30 2 -60q1 -20 5 -33q3 -11 9 -14t15 -3q16 0 27 8l5 -11q-7 -5 -24 -12q-18 -8 -51 -8q-40 0 -60 18q-20 19 -23 48l-4 -4q-24 -27 -51 -46q-26 -18 -68 -18zM124 113h-2q0 -94 53 -94q15 0 32 14q17 13 42 39l3 3v192
q-8 -12 -22 -21q-11 -7 -34 -19l-13 -5q-36 -20 -47 -43q-12 -24 -12 -66zM196 596l3 2q35 0 51 15q17 15 24 37h16q0 -21 -6 -42q-6 -20 -18 -37t-30 -27q-17 -10 -40 -10q-22 0 -40 9q-17 9 -30 26q-12 17 -18 37q-6 21 -6 43h16q6 -20 24 -37q17 -16 54 -16z" />
    <glyph glyph-name="Aogonek" unicode="&#x104;" horiz-adv-x="571" 
d="M12 13l2 -7q10 4 18 12t15 21t15 36q10 29 17 57l148 528l-3 11q-11 36 -23 47q-12 10 -27 15v13h127q11 0 14 -4q4 -6 8 -18l175 -601q17 -57 27 -80t33 -31v-15h-92q-39 0 -57 -27t-18 -61q0 -21 9 -34t29 -13q11 0 18 6l15 12l10 -10q-2 -2 -10 -12q-5 -6 -17 -13
q-13 -7 -25 -11q-13 -4 -34 -4q-37 0 -61 18t-24 47q0 21 11 38q10 16 29 30q18 13 39 24t42 18l-64 214h-238l-24 -84q-6 -23 -10 -48q-3 -21 0 -36q3 -16 13 -24q11 -10 31 -14v-13h-118v13zM356 229l-118 396l-111 -396h229z" />
    <glyph glyph-name="aogonek" unicode="&#x105;" horiz-adv-x="419" 
d="M136 -9l-6 -3q-46 0 -76 27t-30 78q0 34 14 56q14 21 36 36t51 27q19 8 57 26l13 5q27 14 42 28q16 15 16 51v74q0 43 -17 57t-44 14q-22 0 -36 -15t-24 -39q-8 -17 -18 -27t-30 -10q-16 0 -27 11q-10 10 -10 24q0 29 39 50t104 21q34 0 64 -6q31 -6 52 -19
q23 -14 35 -36q12 -23 12 -59v-237q0 -30 2 -60q1 -20 5 -33q3 -11 9 -14t15 -3q16 0 27 8l5 -11q-4 -2 -7 -4t-13 -7q-20 -11 -39 -33t-19 -60q0 -21 10 -32q10 -12 30 -12q10 0 18 6l15 12l9 -10q-2 -2 -10 -12q-5 -6 -17 -13q-13 -7 -25 -11q-13 -4 -34 -4q-35 0 -59 18
t-24 47q0 18 9 33q8 14 23 27q13 12 30 21t33 15q-1 1 -4 1h-4q-35 0 -55 17q-19 17 -24 48l-4 -4q-24 -27 -51 -46q-26 -18 -68 -18zM123 112h-2q0 -94 53 -94q15 0 32 14q16 14 42 39l3 3v192q-8 -12 -22 -21q-11 -7 -34 -19l-13 -5q-36 -20 -47 -43q-12 -24 -12 -66z" />
    <glyph glyph-name="Cacute" unicode="&#x106;" horiz-adv-x="550" 
d="M332 -13l1 -3q-56 0 -111 23q-53 22 -94 71t-65 123q-24 75 -24 179q0 102 27 174t69 117t91 66q50 21 96 21q31 0 50 -4q24 -5 36 -10q6 -2 16 -5.5t11 -4.5q11 -4 25 -4q25 0 32 28h16v-174h-16q-30 89 -75 125t-96 36q-34 0 -63 -19q-30 -19 -52 -61q-23 -42 -36 -109
q-13 -65 -13 -165q0 -108 16 -178q17 -72 43 -115q27 -44 63 -63q35 -19 76 -19q52 0 88 21t62 50l12 -11q-12 -15 -27 -29q-18 -16 -39 -29t-52 -22q-30 -9 -67 -9zM227 800l121 83q11 7 23 12t24 5q17 0 26 -10t9 -24q0 -16 -11 -30q-10 -13 -39 -19l-148 -30z" />
    <glyph glyph-name="cacute" unicode="&#x107;" horiz-adv-x="398" 
d="M243 -8l-7 -4q-45 0 -81 16q-37 16 -66 47q-29 30 -45 75q-17 46 -17 104q0 59 20 107q19 45 50 79q29 32 66 49t69 17q22 0 49 -5q22 -4 42 -14q18 -9 29 -23t11 -30t-12 -27q-11 -10 -30 -10q-25 0 -36 15q-10 15 -18 41q-4 20 -11 30q-6 9 -23 9q-45 0 -73 -52
t-28 -163q0 -121 36 -178t94 -57q35 0 60 14q23 13 43 33l12 -12q-19 -23 -51 -42q-31 -19 -83 -19zM161 527l79 124q13 20 24 31q10 10 27 10t26 -10t9 -27q0 -16 -9 -28q-8 -11 -24 -22l-121 -87z" />
    <glyph glyph-name="Ccircumflex" unicode="&#x108;" horiz-adv-x="550" 
d="M332 -13l1 -3q-56 0 -111 23q-53 22 -94 71t-65 123q-24 75 -24 179q0 102 27 174t69 117t91 66q50 21 96 21q31 0 50 -4q24 -5 36 -10q6 -2 16 -5.5t11 -4.5q11 -4 25 -4q25 0 32 28h16v-174h-16q-30 89 -75 125t-96 36q-34 0 -63 -19q-30 -19 -52 -61q-23 -42 -36 -109
q-13 -65 -13 -165q0 -108 16 -178q17 -72 43 -115q27 -44 63 -63q35 -19 76 -19q52 0 88 21t62 50l12 -11q-12 -15 -27 -29q-18 -16 -39 -29t-52 -22q-30 -9 -67 -9zM317 913l125 -116l-4 -12l-121 47l-120 -47l-5 12z" />
    <glyph glyph-name="ccircumflex" unicode="&#x109;" horiz-adv-x="398" 
d="M243 -8l-7 -4q-45 0 -81 16q-37 16 -66 47q-29 30 -45 75q-17 46 -17 104q0 59 20 107q19 45 50 79q29 32 66 49t69 17q22 0 49 -5q22 -4 42 -14q18 -9 29 -23t11 -30t-12 -27q-11 -10 -30 -10q-25 0 -36 15q-10 15 -18 41q-4 20 -11 30q-6 9 -23 9q-45 0 -73 -52
t-28 -163q0 -121 36 -178t94 -57q35 0 60 14q23 13 43 33l12 -12q-19 -23 -51 -42q-31 -19 -83 -19zM224 697l114 -171l-11 -9l-103 76l-103 -76l-11 9z" />
    <glyph glyph-name="Cdotaccent" unicode="&#x10a;" horiz-adv-x="550" 
d="M332 -13l1 -3q-56 0 -111 23q-53 22 -94 71t-65 123q-24 75 -24 179q0 102 27 174t69 117t91 66q50 21 96 21q31 0 50 -4q24 -5 36 -10q6 -2 16 -5.5t11 -4.5q11 -4 25 -4q25 0 32 28h16v-174h-16q-30 89 -75 125t-96 36q-34 0 -63 -19q-30 -19 -52 -61q-23 -42 -36 -109
q-13 -65 -13 -165q0 -108 16 -178q17 -72 43 -115q27 -44 63 -63q35 -19 76 -19q52 0 88 21t62 50l12 -11q-12 -15 -27 -29q-18 -16 -39 -29t-52 -22q-30 -9 -67 -9zM316 792l-1 -2q-22 0 -39 17t-17 41t17 41t39 17q26 0 42 -16q17 -17 17 -39q0 -26 -16 -42
q-17 -17 -42 -17z" />
    <glyph glyph-name="cdotaccent" unicode="&#x10b;" horiz-adv-x="398" 
d="M243 -8l-7 -4q-45 0 -81 16q-37 16 -66 47q-29 30 -45 75q-17 46 -17 104q0 59 20 107q19 45 50 79q29 32 66 49t69 17q22 0 49 -5q22 -4 42 -14q18 -9 29 -23t11 -30t-12 -27q-11 -10 -30 -10q-25 0 -36 15q-10 15 -18 41q-4 20 -11 30q-6 9 -23 9q-45 0 -73 -52
t-28 -163q0 -121 36 -178t94 -57q35 0 60 14q23 13 43 33l12 -12q-19 -23 -51 -42q-31 -19 -83 -19zM224 549h-1q-23 0 -39 18q-17 19 -17 42q0 22 17 39t39 17q26 0 42 -16q17 -17 17 -39q0 -26 -16 -43q-16 -18 -42 -18z" />
    <glyph glyph-name="Ccaron" unicode="&#x10c;" horiz-adv-x="550" 
d="M332 -13l1 -3q-56 0 -111 23q-53 22 -94 71t-65 123q-24 75 -24 179q0 102 27 174t69 117t91 66q50 21 96 21q31 0 50 -4q24 -5 36 -10q6 -2 16 -5.5t11 -4.5q11 -4 25 -4q25 0 32 28h16v-174h-16q-30 89 -75 125t-96 36q-34 0 -63 -19q-30 -19 -52 -61q-23 -42 -36 -109
q-13 -65 -13 -165q0 -108 16 -178q17 -72 43 -115q27 -44 63 -63q35 -19 76 -19q52 0 88 21t62 50l12 -11q-12 -15 -27 -29q-18 -16 -39 -29t-52 -22q-30 -9 -67 -9zM197 921l120 -47l121 47l4 -12l-125 -116l-125 116z" />
    <glyph glyph-name="ccaron" unicode="&#x10d;" horiz-adv-x="398" 
d="M243 -8l-7 -4q-45 0 -81 16q-37 16 -66 47q-29 30 -45 75q-17 46 -17 104q0 59 20 107q19 45 50 79q29 32 66 49t69 17q22 0 49 -5q22 -4 42 -14q18 -9 29 -23t11 -30t-12 -27q-11 -10 -30 -10q-25 0 -36 15q-10 15 -18 41q-4 20 -11 30q-6 9 -23 9q-45 0 -73 -52
t-28 -163q0 -121 36 -178t94 -57q35 0 60 14q23 13 43 33l12 -12q-19 -23 -51 -42q-31 -19 -83 -19zM121 703l103 -76l103 76l11 -9l-114 -171l-114 171z" />
    <glyph glyph-name="Dcaron" unicode="&#x10e;" horiz-adv-x="619" 
d="M26 13v-1q16 4 25 12q9 7 13 25t6 51q1 22 1 91v366q0 69 -1 91q-2 33 -6 51t-13 25q-9 8 -25 12v13h186q83 0 149 -22q69 -23 116 -67q48 -45 75 -114t27 -162q0 -88 -24 -160q-23 -70 -71 -121q-46 -49 -115 -76t-157 -27h-186v13zM181 733l-2 -717h31q62 0 107 18
t77 62t47 114t15 176q0 111 -19 177q-19 67 -53 105q-33 38 -78 51q-47 14 -94 14h-31zM129 925l120 -47l121 47l4 -12l-125 -116l-125 116z" />
    <glyph glyph-name="dcaron" unicode="&#x10f;" horiz-adv-x="484" 
d="M196 -9h1q-30 0 -61 14t-53 42t-37 73t-15 106q0 65 18 113q18 49 46 81t66 49q36 16 77 16q27 0 48 -10q22 -11 42 -27v171q0 32 -1 42q-2 16 -6 23q-5 8 -13 9q-10 2 -25 3v15l142 71v-666v-48q0 -17 5 -29q4 -10 12 -16q6 -5 21 -10v-13h-137v79l-3 -3
q-34 -39 -65 -63q-29 -22 -62 -22zM135 237l2 -1q0 -63 7 -102q8 -44 19 -69q12 -28 28 -39q17 -12 33 -12q17 0 42 20q26 21 59 60l3 3v326q-20 19 -42 30q-24 11 -48 11q-20 0 -39 -12t-33 -39q-12 -25 -22 -71q-9 -44 -9 -105zM473 574l8 132q5 62 40 62q16 0 25 -9
t9 -26q0 -9 -3 -19q-2 -7 -8 -21l-59 -122z" />
    <glyph glyph-name="Dcroat" unicode="&#x110;" horiz-adv-x="618" 
d="M25 13l-2 1q16 4 25 12q9 7 13 25q5 18 6 51q1 22 1 91v192h-70v16h70v-16h111v-369h31q62 0 107 18t77 62t47 114t15 176q0 111 -19 177q-19 67 -53 105q-33 38 -78 51q-47 14 -94 14h-31v-334h122v-16h-122v16h-111v158q0 69 -1 91q-1 33 -6 51q-4 18 -13 25
q-9 8 -25 12v13h186q83 0 149 -22q69 -23 116 -67q48 -45 75 -114t27 -162q0 -88 -24 -160q-23 -70 -71 -121q-46 -49 -115 -76t-157 -27h-186v13z" />
    <glyph glyph-name="dcroat" unicode="&#x111;" horiz-adv-x="484" 
d="M198 583h296v-16h-296v16zM196 -9h1q-30 0 -61 14t-53 42t-37 73t-15 106q0 65 18 113q18 49 46 81t66 49q36 16 77 16q27 0 48 -10q22 -11 42 -27v171q0 32 -1 42q-2 16 -6 23q-5 8 -13 9q-10 2 -25 3v15l142 71v-666v-48q0 -17 5 -29q4 -10 12 -16q6 -5 21 -10v-13
h-137v79l-3 -3q-34 -39 -65 -63q-29 -22 -62 -22zM135 237l2 -1q0 -63 7 -102q8 -44 19 -69q12 -28 28 -39q17 -12 33 -12q17 0 42 20q26 21 59 60l3 3v326q-20 19 -42 30q-24 11 -48 11q-20 0 -39 -12t-33 -39q-12 -25 -22 -71q-9 -44 -9 -105z" />
    <glyph glyph-name="Emacron" unicode="&#x112;" horiz-adv-x="503" 
d="M26 13l-2 2q16 4 25 12q9 7 13 25t6 51q1 22 1 91v366q0 69 -1 91q-2 33 -6 51t-13 25q-9 8 -25 12v13h391q11 0 15 -4t9 -27l19 -106h-18q-13 36 -29 60q-15 23 -36 36t-51 18q-33 5 -72 5h-72v-306h7q39 0 60 6q20 6 33 17q11 10 16 26q3 10 9 32h14v-178h-14
q-3 11 -9 31q-5 16 -16 26q-13 11 -33 17q-21 6 -60 6h-7v-396h87q43 0 78 5q32 5 54 19q23 15 38 41t27 69h18l-13 -118q-1 -22 -8 -27q-5 -4 -22 -4h-413v13zM348 809h-208v47h208v-47z" />
    <glyph glyph-name="emacron" unicode="&#x113;" horiz-adv-x="412" 
d="M242 -9l-3 3q-41 0 -81 14q-39 14 -68 44q-27 29 -46 77q-18 47 -18 113q0 60 20 108q20 47 48 77t62 45q33 15 62 15q74 0 114 -45q41 -45 48 -130h-248q-1 -9 -1 -27v-29q0 -115 32 -177q31 -61 98 -61q39 0 60 10q24 11 42 25l9 -13q-20 -17 -49 -33t-81 -16zM217 472
l-1 -2q-14 0 -27 -6t-25 -22q-12 -17 -21 -43q-8 -24 -13 -68h152q-2 76 -16 108q-15 33 -49 33zM318 613v-45h-196v45h196z" />
    <glyph glyph-name="Ebreve" unicode="&#x114;" horiz-adv-x="503" 
d="M26 13l-2 2q16 4 25 12q9 7 13 25t6 51q1 22 1 91v366q0 69 -1 91q-2 33 -6 51t-13 25q-9 8 -25 12v13h391q11 0 15 -4t9 -27l19 -106h-18q-13 36 -29 60q-15 23 -36 36t-51 18q-33 5 -72 5h-72v-306h7q39 0 60 6q20 6 33 17q11 10 16 26q3 10 9 32h14v-178h-14
q-3 11 -9 31q-5 16 -16 26q-13 11 -33 17q-21 6 -60 6h-7v-396h87q43 0 78 5q32 5 54 19q23 15 38 41t27 69h18l-13 -118q-1 -22 -8 -27q-5 -4 -22 -4h-413v13zM245 863v-2q36 0 55 11q18 10 27 33h16q-2 -44 -25 -75q-24 -31 -72 -31q-47 0 -73 32q-25 31 -27 77h16
q8 -21 27 -33q20 -12 56 -12z" />
    <glyph glyph-name="ebreve" unicode="&#x115;" horiz-adv-x="412" 
d="M242 -9l-3 3q-41 0 -81 14q-39 14 -68 44q-27 29 -46 77q-18 47 -18 113q0 60 20 108q20 47 48 77t62 45q33 15 62 15q74 0 114 -45q41 -45 48 -130h-248q-1 -9 -1 -27v-29q0 -115 32 -177q31 -61 98 -61q39 0 60 10q24 11 42 25l9 -13q-20 -17 -49 -33t-81 -16zM217 472
l-1 -2q-14 0 -27 -6t-25 -22q-12 -17 -21 -43q-8 -24 -13 -68h152q-2 76 -16 108q-15 33 -49 33zM221 599l3 2q34 0 51 15t24 37h16q0 -21 -6 -42q-6 -20 -18 -37q-12 -16 -30 -27q-17 -10 -40 -10q-22 0 -40 9q-17 9 -30 26q-12 17 -18 37q-6 21 -6 43h16q6 -20 24 -37
q17 -16 54 -16z" />
    <glyph glyph-name="Edotaccent" unicode="&#x116;" horiz-adv-x="503" 
d="M26 13l-2 2q16 4 25 12q9 7 13 25t6 51q1 22 1 91v366q0 69 -1 91q-2 33 -6 51t-13 25q-9 8 -25 12v13h391q11 0 15 -4t9 -27l19 -106h-18q-13 36 -29 60q-15 23 -36 36t-51 18q-33 5 -72 5h-72v-306h7q39 0 60 6q20 6 33 17q11 10 16 26q3 10 9 32h14v-178h-14
q-3 11 -9 31q-5 16 -16 26q-13 11 -33 17q-21 6 -60 6h-7v-396h87q43 0 78 5q32 5 54 19q23 15 38 41t27 69h18l-13 -118q-1 -22 -8 -27q-5 -4 -22 -4h-413v13zM244 797l-1 -2q-22 0 -39 17t-17 41t17 41t39 17q26 0 42 -16q17 -17 17 -39q0 -26 -16 -42q-17 -17 -42 -17z
" />
    <glyph glyph-name="edotaccent" unicode="&#x117;" horiz-adv-x="412" 
d="M242 -9l-3 3q-41 0 -81 14q-39 14 -68 44q-27 29 -46 77q-18 47 -18 113q0 60 20 108q20 47 48 77t62 45q33 15 62 15q74 0 114 -45q41 -45 48 -130h-248q-1 -9 -1 -27v-29q0 -115 32 -177q31 -61 98 -61q39 0 60 10q24 11 42 25l9 -13q-20 -17 -49 -33t-81 -16zM217 472
l-1 -2q-14 0 -27 -6t-25 -22q-12 -17 -21 -43q-8 -24 -13 -68h152q-2 76 -16 108q-15 33 -49 33zM220 554h-1q-23 0 -39 18q-17 19 -17 42q0 22 17 39t39 17q26 0 42 -16q17 -17 17 -39q0 -26 -16 -43q-16 -18 -42 -18z" />
    <glyph glyph-name="Eogonek" unicode="&#x118;" horiz-adv-x="503" 
d="M26 13l-2 2q16 4 25 12q9 7 13 25t6 51q1 22 1 91v366q0 69 -1 91q-2 33 -6 51t-13 25q-9 8 -25 12v13h391q11 0 15 -4t9 -27l19 -106h-18q-13 36 -29 60q-15 23 -36 36t-51 18q-33 5 -72 5h-72v-306h7q39 0 60 6q20 6 33 17q11 10 16 26q3 10 9 32h14v-178h-14
q-3 11 -9 31q-5 16 -16 26q-13 11 -33 17q-21 6 -60 6h-7v-396h87q43 0 78 5q32 5 54 19q23 15 38 41t27 69h18l-13 -118q-1 -22 -8 -27q-5 -4 -22 -4h-413v13zM328 -166l-2 -3q-35 0 -59 18t-24 47q0 21 12 39t30 30t36 21q20 10 32 14h25q-19 -14 -32 -36q-14 -23 -14 -54
q0 -21 10 -32q10 -12 30 -12q10 0 18 6l15 12l9 -10q-2 -2 -10 -12q-5 -6 -17 -13q-13 -7 -25 -11q-13 -4 -34 -4z" />
    <glyph glyph-name="eogonek" unicode="&#x119;" horiz-adv-x="412" 
d="M346 -128h-8q-2 -2 -10 -12q-5 -6 -17 -13q-13 -7 -25 -11q-13 -4 -34 -4q-35 0 -59 18t-24 47q0 18 9 33q8 14 23 27q13 12 30 21q18 10 31 15h-12h-13q-41 0 -81 14q-39 14 -68 44q-27 29 -46 77q-18 46 -18 113q0 60 20 108q20 47 48 77t62 45q33 15 62 15
q74 0 114 -45q41 -45 48 -130h-248q-1 -9 -1 -27v-30q0 -115 32 -177q31 -61 98 -61q39 0 60 10q24 11 42 25l9 -13q-10 -8 -16 -13q-10 -8 -22 -15q-16 -10 -24 -16q-12 -9 -21 -21t-15 -28q-6 -17 -6 -37t9 -32t29 -12q10 0 18 6l15 12zM212 469l-1 -2q-13 0 -27 -6
q-13 -6 -25 -22q-12 -17 -21 -43q-8 -24 -13 -68h152q-2 76 -16 108q-15 33 -49 33z" />
    <glyph glyph-name="Ecaron" unicode="&#x11a;" horiz-adv-x="503" 
d="M26 13l-2 2q16 4 25 12q9 7 13 25t6 51q1 22 1 91v366q0 69 -1 91q-2 33 -6 51t-13 25q-9 8 -25 12v13h391q11 0 15 -4t9 -27l19 -106h-18q-13 36 -29 60q-15 23 -36 36t-51 18q-33 5 -72 5h-72v-306h7q39 0 60 6q20 6 33 17q11 10 16 26q3 10 9 32h14v-178h-14
q-3 11 -9 31q-5 16 -16 26q-13 11 -33 17q-21 6 -60 6h-7v-396h87q43 0 78 5q32 5 54 19q23 15 38 41t27 69h18l-13 -118q-1 -22 -8 -27q-5 -4 -22 -4h-413v13zM124 926l120 -47l121 47l4 -12l-125 -116l-125 116z" />
    <glyph glyph-name="ecaron" unicode="&#x11b;" horiz-adv-x="412" 
d="M242 -9l-3 3q-41 0 -81 14q-39 14 -68 44q-27 29 -46 77q-18 47 -18 113q0 60 20 108q20 47 48 77t62 45q33 15 62 15q74 0 114 -45q41 -45 48 -130h-248q-1 -9 -1 -27v-29q0 -115 32 -177q31 -61 98 -61q39 0 60 10q24 11 42 25l9 -13q-20 -17 -49 -33t-81 -16zM217 472
l-1 -2q-14 0 -27 -6t-25 -22q-12 -17 -21 -43q-8 -24 -13 -68h152q-2 76 -16 108q-15 33 -49 33zM117 708l103 -76l103 76l11 -9l-114 -171l-114 171z" />
    <glyph glyph-name="Gcircumflex" unicode="&#x11c;" horiz-adv-x="614" 
d="M333 -13l5 -4q-65 0 -121 29q-55 28 -96 81q-40 52 -63 125q-22 70 -22 161q0 98 28 169q28 72 71 119q42 47 93 69q52 23 98 23q30 0 53 -5q19 -4 38 -11q3 -1 14 -5t16 -6q15 -5 30 -5q18 0 26 26h15v-173h-15q-46 163 -177 163q-38 0 -69 -18t-55 -60
q-23 -41 -37 -109q-13 -65 -13 -165q0 -204 47 -296t135 -92q44 0 76 35q31 34 31 117v26q0 37 -2 75q-1 28 -6 45t-14 23t-24 9v13h201v-13q-13 -1 -22 -9t-15 -30q-6 -23 -9 -61q-3 -39 -3 -106v-42q-20 -22 -46 -39q-25 -16 -57 -31q-31 -14 -58 -21t-53 -7zM331 912
l125 -116l-4 -12l-121 47l-120 -47l-5 12z" />
    <glyph glyph-name="gcircumflex" unicode="&#x11d;" horiz-adv-x="420" 
d="M196 172l-5 -2q-41 0 -78 15l-12 -9q-25 -21 -25 -36q0 -8 6 -16q6 -7 32 -12l155 -24q73 -12 99 -40q27 -29 27 -73q0 -34 -15 -61t-42 -45t-64 -27q-38 -9 -79 -9q-35 0 -69 6q-35 6 -61 19q-28 14 -44 33q-17 20 -17 45q0 16 8 30t21 26t30 21q22 12 33 17
q-34 10 -48 30t-14 45q0 31 18 50q18 20 38 35l10 7q-32 17 -53 48t-21 83q0 43 16 72q17 30 41 50q25 20 54 29q30 9 58 9q43 0 84 -21q25 21 51 33t45 12q39 0 39 -36q0 -16 -9 -25t-20 -9q-10 0 -17 4q-10 6 -15 10t-13 10q-5 4 -12 4q-17 0 -34 -10q31 -20 51 -52
q21 -33 21 -82q0 -43 -16 -72q-16 -30 -42 -48q-27 -19 -55 -26q-32 -8 -57 -8zM63 -64l-2 -2q0 -38 36 -64q35 -25 99 -25q72 0 111 27t39 65q0 27 -19 39q-21 13 -70 20l-126 20l-18 3q-29 -15 -39 -34q-11 -20 -11 -49zM189 184v-1q14 0 27 7q14 8 24 24q11 18 17 42
q6 26 6 63q0 76 -23 111t-51 35q-30 0 -52 -34t-22 -111q0 -38 6 -63q6 -24 17 -42q10 -17 24 -24q13 -7 27 -7zM188 696l114 -171l-11 -9l-103 76l-103 -76l-11 9z" />
    <glyph glyph-name="Gbreve" unicode="&#x11e;" horiz-adv-x="614" 
d="M333 -13l5 -4q-65 0 -121 29q-55 28 -96 81q-40 52 -63 125q-22 70 -22 161q0 98 28 169q28 72 71 119q42 47 93 69q52 23 98 23q30 0 53 -5q19 -4 38 -11q3 -1 14 -5t16 -6q15 -5 30 -5q18 0 26 26h15v-173h-15q-46 163 -177 163q-38 0 -69 -18t-55 -60
q-23 -41 -37 -109q-13 -65 -13 -165q0 -204 47 -296t135 -92q44 0 76 35q31 34 31 117v26q0 37 -2 75q-1 28 -6 45t-14 23t-24 9v13h201v-13q-13 -1 -22 -9t-15 -30q-6 -23 -9 -61q-3 -39 -3 -106v-42q-20 -22 -46 -39q-25 -16 -57 -31q-31 -14 -58 -21t-53 -7zM332 857v-2
q36 0 55 11q18 10 27 33h16q-2 -44 -25 -75q-24 -31 -72 -31q-47 0 -73 32q-25 31 -27 77h16q7 -21 27 -33q19 -12 56 -12z" />
    <glyph glyph-name="gbreve" unicode="&#x11f;" horiz-adv-x="420" 
d="M196 172l-5 -2q-41 0 -78 15l-12 -9q-25 -21 -25 -36q0 -8 6 -16q6 -7 32 -12l155 -24q73 -12 99 -40q27 -29 27 -73q0 -34 -15 -61t-42 -45t-64 -27q-38 -9 -79 -9q-35 0 -69 6q-35 6 -61 19q-28 14 -44 33q-17 20 -17 45q0 16 8 30t21 26t30 21q22 12 33 17
q-34 10 -48 30t-14 45q0 31 18 50q18 20 38 35l10 7q-32 17 -53 48t-21 83q0 43 16 72q17 30 41 50q25 20 54 29q30 9 58 9q43 0 84 -21q25 21 51 33t45 12q39 0 39 -36q0 -16 -9 -25t-20 -9q-10 0 -17 4q-10 6 -15 10t-13 10q-5 4 -12 4q-17 0 -34 -10q31 -20 51 -52
q21 -33 21 -82q0 -43 -16 -72q-16 -30 -42 -48q-27 -19 -55 -26q-32 -8 -57 -8zM63 -64l-2 -2q0 -38 36 -64q35 -25 99 -25q72 0 111 27t39 65q0 27 -19 39q-21 13 -70 20l-126 20l-18 3q-29 -15 -39 -34q-11 -20 -11 -49zM189 184v-1q14 0 27 7q14 8 24 24q11 18 17 42
q6 26 6 63q0 76 -23 111t-51 35q-30 0 -52 -34t-22 -111q0 -38 6 -63q6 -24 17 -42q10 -17 24 -24q13 -7 27 -7zM189 593l3 2q34 0 51 15t24 37h16q0 -21 -6 -42q-6 -20 -18 -37q-12 -16 -30 -27q-17 -10 -40 -10q-22 0 -40 9q-17 9 -30 26q-12 17 -18 37q-6 21 -6 43h16
q6 -20 24 -37q17 -16 54 -16z" />
    <glyph glyph-name="Gdotaccent" unicode="&#x120;" horiz-adv-x="614" 
d="M333 -13l5 -4q-65 0 -121 29q-55 28 -96 81q-40 52 -63 125q-22 70 -22 161q0 98 28 169q28 72 71 119q42 47 93 69q52 23 98 23q30 0 53 -5q19 -4 38 -11q3 -1 14 -5t16 -6q15 -5 30 -5q18 0 26 26h15v-173h-15q-46 163 -177 163q-38 0 -69 -18t-55 -60
q-23 -41 -37 -109q-13 -65 -13 -165q0 -204 47 -296t135 -92q44 0 76 35q31 34 31 117v26q0 37 -2 75q-1 28 -6 45t-14 23t-24 9v13h201v-13q-13 -1 -22 -9t-15 -30q-6 -23 -9 -61q-3 -39 -3 -106v-42q-20 -22 -46 -39q-25 -16 -57 -31q-31 -14 -58 -21t-53 -7zM330 791
l-1 -2q-22 0 -39 17t-17 41t17 41t39 17q26 0 42 -16q17 -17 17 -39q0 -26 -16 -42q-17 -17 -42 -17z" />
    <glyph glyph-name="gdotaccent" unicode="&#x121;" horiz-adv-x="420" 
d="M196 172l-5 -2q-41 0 -78 15l-12 -9q-25 -21 -25 -36q0 -8 6 -16q6 -7 32 -12l155 -24q73 -12 99 -40q27 -29 27 -73q0 -34 -15 -61t-42 -45t-64 -27q-38 -9 -79 -9q-35 0 -69 6q-35 6 -61 19q-28 14 -44 33q-17 20 -17 45q0 16 8 30t21 26t30 21q22 12 33 17
q-34 10 -48 30t-14 45q0 31 18 50q18 20 38 35l10 7q-32 17 -53 48t-21 83q0 43 16 72q17 30 41 50q25 20 54 29q30 9 58 9q43 0 84 -21q25 21 51 33t45 12q39 0 39 -36q0 -16 -9 -25t-20 -9q-10 0 -17 4q-10 6 -15 10t-13 10q-5 4 -12 4q-17 0 -34 -10q31 -20 51 -52
q21 -33 21 -82q0 -43 -16 -72q-16 -30 -42 -48q-27 -19 -55 -26q-32 -8 -57 -8zM63 -64l-2 -2q0 -38 36 -64q35 -25 99 -25q72 0 111 27t39 65q0 27 -19 39q-21 13 -70 20l-126 20l-18 3q-29 -15 -39 -34q-11 -20 -11 -49zM189 184v-1q14 0 27 7q14 8 24 24q11 18 17 42
q6 26 6 63q0 76 -23 111t-51 35q-30 0 -52 -34t-22 -111q0 -38 6 -63q6 -24 17 -42q10 -17 24 -24q13 -7 27 -7zM187 548h-1q-22 0 -39 18q-17 19 -17 42q0 22 17 39t39 17q26 0 42 -16q17 -17 17 -39q0 -26 -16 -43q-17 -18 -42 -18z" />
    <glyph glyph-name="uni0122" unicode="&#x122;" horiz-adv-x="614" 
d="M333 -13l5 -4q-65 0 -121 29q-55 28 -96 81q-40 52 -63 125q-22 70 -22 161q0 98 28 169q28 72 71 119q42 47 93 69q52 23 98 23q30 0 53 -5q19 -4 38 -11q3 -1 14 -5t16 -6q15 -5 30 -5q18 0 26 26h15v-173h-15q-46 163 -177 163q-38 0 -69 -18t-55 -60
q-23 -41 -37 -109q-13 -65 -13 -165q0 -204 47 -296t135 -92q44 0 76 35q31 34 31 117v26q0 37 -2 75q-1 28 -6 45t-14 23t-24 9v13h201v-13q-13 -1 -22 -9t-15 -30q-6 -23 -9 -61q-3 -39 -3 -106v-42q-20 -22 -46 -39q-25 -16 -57 -31q-31 -14 -58 -21t-53 -7zM351 -121
q-4 -6 -10 -11q-7 -6 -22 -6q-19 0 -33 12q-13 12 -13 34q0 23 15 35t35 12q23 0 42 -16q20 -17 20 -51q0 -40 -24 -64q-23 -23 -63 -31l-5 11q37 9 50 27q14 19 14 34q0 13 -6 14z" />
    <glyph glyph-name="uni0123" unicode="&#x123;" horiz-adv-x="420" 
d="M196 172l-5 -2q-41 0 -78 15l-12 -9q-25 -21 -25 -36q0 -8 6 -16q6 -7 32 -12l155 -24q73 -12 99 -40q27 -29 27 -73q0 -34 -15 -61t-42 -45t-64 -27q-38 -9 -79 -9q-35 0 -69 6q-35 6 -61 19q-28 14 -44 33q-17 20 -17 45q0 16 8 30t21 26t30 21q22 12 33 17
q-34 10 -48 30t-14 45q0 31 18 50q18 20 38 35l10 7q-32 17 -53 48t-21 83q0 43 16 72q17 30 41 50q25 20 54 29q30 9 58 9q43 0 84 -21q25 21 51 33t45 12q39 0 39 -36q0 -16 -9 -25t-20 -9q-10 0 -17 4q-10 6 -15 10t-13 10q-5 4 -12 4q-17 0 -34 -10q31 -20 51 -52
q21 -33 21 -82q0 -43 -16 -72q-16 -30 -42 -48q-27 -19 -55 -26q-32 -8 -57 -8zM63 -64l-2 -2q0 -38 36 -64q35 -25 99 -25q72 0 111 27t39 65q0 27 -19 39q-21 13 -70 20l-126 20l-18 3q-29 -15 -39 -34q-11 -20 -11 -49zM189 184v-1q14 0 27 7q14 8 24 24q11 18 17 42
q6 26 6 63q0 76 -23 111t-51 35q-30 0 -52 -34t-22 -111q0 -38 6 -63q6 -24 17 -42q10 -17 24 -24q13 -7 27 -7zM159 621v3q2 5 9 11t23 6q19 0 32 -12q14 -12 14 -33q0 -22 -15 -36q-14 -13 -35 -13q-23 0 -43 17q-19 16 -19 51q0 41 24 63t62 30l6 -11q-37 -9 -50 -27
q-14 -19 -14 -34q0 -10 6 -15z" />
    <glyph glyph-name="Hcircumflex" unicode="&#x124;" horiz-adv-x="629" 
d="M26 13l-2 -4q16 4 25 12q9 7 13 25t6 51q1 22 1 92v366q0 70 -1 92q-2 33 -6 51t-13 25q-9 8 -25 12v13h198v-13q-15 -5 -24 -12t-13 -25q-5 -18 -6 -51q-1 -22 -1 -91v-139h269v139q0 70 -1 92q-2 33 -6 51t-13 25q-9 8 -25 12v13h198v-13q-15 -4 -24 -12q-9 -7 -13 -25
q-5 -18 -6 -51q-1 -22 -1 -91v-366q0 -69 1 -91q1 -33 6 -51q4 -17 14 -25q9 -8 24 -12v-13h-198v13q16 4 25 12q9 7 13 25q5 18 6 51q1 22 1 92v211h-269v-211q0 -69 1 -91q2 -33 6 -51q4 -17 14 -25q9 -7 24 -12v-13h-198v13zM313 912l125 -116l-4 -12l-121 47l-120 -47
l-5 12z" />
    <glyph glyph-name="hcircumflex" unicode="&#x125;" horiz-adv-x="483" 
d="M26 13h2q12 5 19 10q8 7 11 16q3 10 3 29v48v499q0 32 -1 42q-2 16 -6 23q-5 8 -13 9q-10 2 -25 3v15l142 75v-401l20 20q43 43 73 62q33 21 71 21q18 0 36 -6q19 -6 33 -19q15 -13 24 -36q9 -22 9 -55v-253v-48q0 -19 3 -29t10 -16q7 -5 19 -10v-13h-170v13q15 5 21 10
q8 6 12 16t6 29q1 12 1 48v279q0 32 -12 44t-31 12q-16 0 -40 -15t-65 -56l-20 -20v-243v-48q0 -17 5 -29q4 -10 12 -16q6 -5 21 -10v-13h-170v13zM256 939l125 -116l-4 -12l-121 47l-120 -47l-5 12z" />
    <glyph glyph-name="Hbar" unicode="&#x126;" horiz-adv-x="620" 
d="M-5 581h630v-16h-630v16zM21 13l-2 -4q16 4 25 12q9 7 13 25q5 18 6 51q1 22 1 92v366q0 70 -1 92q-1 33 -6 51q-4 18 -13 25q-9 8 -25 12v13h198v-13q-15 -5 -24 -12t-13 -25t-6 -51q-1 -22 -1 -91v-139h269v139q0 70 -1 92q-1 33 -6 51q-4 18 -13 25q-9 8 -25 12v13
h198v-13q-15 -4 -24 -12q-9 -7 -13 -25t-6 -51q-1 -22 -1 -91v-366q0 -69 1 -91q2 -33 6 -51q4 -17 14 -25q9 -8 24 -12v-13h-198v13q16 4 25 12q9 7 13 25t6 51q1 22 1 92v211h-269v-211q0 -69 1 -91q1 -33 6 -51q4 -17 14 -25q9 -7 24 -12v-13h-198v13z" />
    <glyph glyph-name="hbar" unicode="&#x127;" horiz-adv-x="483" 
d="M-10 567v16h296v-16h-296zM26 13h2q12 5 19 10q8 7 11 16q3 10 3 29v48v499q0 32 -1 42q-2 16 -6 23q-5 8 -13 9q-10 2 -25 3v15l142 75v-401l20 20q43 43 73 62q33 21 71 21q18 0 36 -6q19 -6 33 -19q15 -13 24 -36q9 -22 9 -55v-253v-48q0 -19 3 -29t10 -16
q7 -5 19 -10v-13h-170v13q15 5 21 10q8 6 12 16t6 29q1 12 1 48v279q0 32 -12 44t-31 12q-16 0 -40 -15t-65 -56l-20 -20v-243v-48q0 -17 5 -29q4 -10 12 -16q6 -5 21 -10v-13h-170v13z" />
    <glyph glyph-name="Itilde" unicode="&#x128;" horiz-adv-x="250" 
d="M26 13l-1 -1q16 4 25 12q9 7 13 25q5 18 6 51q1 22 1 91v366q0 70 -1 92q-1 33 -6 51q-4 18 -13 25q-9 8 -25 12v13h198v-13q-15 -5 -24 -12t-13 -25t-6 -51q-1 -22 -1 -91v-366q0 -69 1 -91q2 -33 6 -51q4 -17 14 -25q9 -7 24 -12v-13h-198v13zM86 880l1 -2q25 0 51 -3
t44 -3q10 0 23 8t29 30l12 -4q-21 -96 -72 -96q-24 0 -49 3t-48 3q-11 0 -22 -7t-28 -30l-12 4q13 51 32 74q18 23 39 23z" />
    <glyph glyph-name="itilde" unicode="&#x129;" horiz-adv-x="223" 
d="M25 13l4 -1q15 5 21 10q8 7 11 16q4 13 5 29q1 12 1 48v195q0 32 -1 42q-2 15 -6 24t-13 13q-7 4 -24 7v14l140 75v-369v-48q0 -17 5 -29q4 -10 12 -16q6 -5 21 -10v-13h-176v13zM74 640l-2 -1q26 0 48 -6t42 -6q10 0 21 9q10 8 27 32l12 -6q-13 -47 -28 -71
q-17 -26 -42 -26q-22 0 -45 6t-45 6q-11 0 -22 -8q-10 -7 -27 -32l-12 6q15 45 32 72q16 25 41 25z" />
    <glyph glyph-name="Imacron" unicode="&#x12a;" horiz-adv-x="250" 
d="M26 13l-1 -1q16 4 25 12q9 7 13 25q5 18 6 51q1 22 1 91v366q0 70 -1 92q-1 33 -6 51q-4 18 -13 25q-9 8 -25 12v13h198v-13q-15 -5 -24 -12t-13 -25t-6 -51q-1 -22 -1 -91v-366q0 -69 1 -91q2 -33 6 -51q4 -17 14 -25q9 -7 24 -12v-13h-198v13zM228 806h-208v47h208v-47
z" />
    <glyph glyph-name="imacron" unicode="&#x12b;" horiz-adv-x="223" 
d="M25 13l4 -1q15 5 21 10q8 7 11 16q4 13 5 29q1 12 1 48v195q0 32 -1 42q-2 15 -6 24t-13 13q-7 4 -24 7v14l140 75v-369v-48q0 -17 5 -29q4 -10 12 -16q6 -5 21 -10v-13h-176v13zM213 611v-45h-196v45h196z" />
    <glyph glyph-name="Ibreve" unicode="&#x12c;" horiz-adv-x="250" 
d="M26 13l-1 -1q16 4 25 12q9 7 13 25q5 18 6 51q1 22 1 91v366q0 70 -1 92q-1 33 -6 51q-4 18 -13 25q-9 8 -25 12v13h198v-13q-15 -5 -24 -12t-13 -25t-6 -51q-1 -22 -1 -91v-366q0 -69 1 -91q2 -33 6 -51q4 -17 14 -25q9 -7 24 -12v-13h-198v13zM125 860v-2q36 0 55 11
q18 11 27 33h16q-2 -44 -25 -75q-24 -31 -72 -31q-47 0 -73 32q-25 31 -27 77h16q8 -21 27 -33t56 -12z" />
    <glyph glyph-name="ibreve" unicode="&#x12d;" horiz-adv-x="223" 
d="M25 13l4 -1q15 5 21 10q8 7 11 16q4 13 5 29q1 12 1 48v195q0 32 -1 42q-2 15 -6 24t-13 13q-7 4 -24 7v14l140 75v-369v-48q0 -17 5 -29q4 -10 12 -16q6 -5 21 -10v-13h-176v13zM116 597l3 2q35 0 51 15q17 15 24 37h16q0 -21 -6 -42q-6 -20 -18 -37q-12 -16 -30 -27
q-17 -10 -40 -10q-22 0 -40 9q-17 9 -30 26q-12 17 -18 37q-6 21 -6 43h16q6 -20 24 -37q17 -16 54 -16z" />
    <glyph glyph-name="Iogonek" unicode="&#x12e;" horiz-adv-x="250" 
d="M26 13l-1 -1q16 4 25 12q9 7 13 25q5 18 6 51q1 22 1 91v366q0 70 -1 92q-1 33 -6 51q-4 18 -13 25q-9 8 -25 12v13h198v-13q-15 -5 -24 -12t-13 -25t-6 -51q-1 -22 -1 -91v-366q0 -69 1 -91q2 -33 6 -51q4 -17 14 -25q9 -7 24 -12v-13h-198v13zM132 -169l-2 -3
q-35 0 -59 18t-24 47q0 21 12 39t30 30t36 21q20 10 32 14h25q-19 -14 -32 -36q-14 -23 -14 -54q0 -21 10 -32q10 -12 30 -12q10 0 18 6l15 12l9 -10q-2 -2 -10 -12q-5 -6 -17 -13q-13 -7 -25 -11q-13 -4 -34 -4z" />
    <glyph glyph-name="iogonek" unicode="&#x12f;" horiz-adv-x="224" 
d="M111 553h-3q-23 0 -40 17q-16 16 -16 42q0 22 17 39t41 17q26 0 42 -16q17 -17 17 -39q0 -25 -16 -42q-17 -18 -42 -18zM22 13l4 -1q15 5 21 10q8 7 11 16q4 13 5 29q1 12 1 48v195q0 32 -1 42q-1 15 -6 24q-4 9 -13 13q-7 4 -24 7v14l140 75v-369v-48q0 -17 5 -29
q4 -10 12 -16q6 -5 21 -10v-13h-176v13zM115 -169l-2 -3q-35 0 -59 18t-24 47q0 21 12 39t30 30t36 21q20 10 32 14h25q-19 -14 -32 -36q-14 -23 -14 -54q0 -21 10 -32q11 -12 30 -12q11 0 18 6l15 12l9 -10q-2 -2 -10 -12q-5 -6 -17 -13q-13 -7 -25 -11q-13 -4 -34 -4z" />
    <glyph glyph-name="Idotaccent" unicode="&#x130;" horiz-adv-x="250" 
d="M26 13l-1 -1q16 4 25 12q9 7 13 25q5 18 6 51q1 22 1 91v366q0 70 -1 92q-1 33 -6 51q-4 18 -13 25q-9 8 -25 12v13h198v-13q-15 -5 -24 -12t-13 -25t-6 -51q-1 -22 -1 -91v-366q0 -69 1 -91q2 -33 6 -51q4 -17 14 -25q9 -7 24 -12v-13h-198v13zM124 794l-1 -2
q-22 0 -39 17t-17 41t17 41t39 17q26 0 42 -16q17 -17 17 -39q0 -26 -16 -42q-17 -17 -42 -17z" />
    <glyph glyph-name="dotlessi" unicode="&#x131;" horiz-adv-x="224" 
d="M25 13l4 -1q15 5 21 10q8 7 11 16q4 13 5 29q1 12 1 48v195q0 32 -1 42q-2 15 -6 24t-13 13q-7 4 -24 7v14l140 75v-369v-48q0 -17 5 -29q4 -10 12 -16q6 -5 21 -10v-13h-176v13z" />
    <glyph glyph-name="IJ" unicode="&#x132;" horiz-adv-x="646" 
d="M26 13l-1 -1q16 4 25 12q9 7 13 25q5 18 6 51q1 22 1 91v366q0 70 -1 92q-1 33 -6 51q-4 18 -13 25q-9 8 -25 12v13h198v-13q-15 -5 -24 -12t-13 -25t-6 -51q-1 -22 -1 -91v-366q0 -69 1 -91q2 -33 6 -51q4 -17 14 -25q9 -7 24 -12v-13h-198v13zM416 -11l-1 -3
q-71 0 -112 23q-40 22 -40 60q0 23 14 35q13 12 33 12t34 -12q13 -12 24 -41q10 -30 20 -45q9 -14 32 -14q22 0 35 15q14 16 14 52v484q0 70 -1 92q-2 33 -6 51q-5 18 -13 24q-10 7 -24 11v13h197v-13q-16 -5 -24 -10q-8 -6 -13 -24t-6 -51q-1 -22 -1 -92v-395
q0 -41 -12 -72t-33 -54q-20 -22 -51 -34q-30 -12 -66 -12z" />
    <glyph glyph-name="ij" unicode="&#x133;" horiz-adv-x="437" 
d="M111 553h-3q-23 0 -40 17q-16 16 -16 42q0 22 17 39t41 17q26 0 42 -16q17 -17 17 -39q0 -25 -16 -42q-17 -18 -42 -18zM22 13l4 -1q15 5 21 10q8 7 11 16q4 13 5 29q1 12 1 48v195q0 32 -1 42q-1 15 -6 24q-4 9 -13 13q-7 4 -24 7v14l140 75v-369v-48q0 -17 5 -29
q4 -10 12 -16q6 -5 21 -10v-13h-176v13zM324 552h-2q-23 0 -40 17q-16 16 -16 42q0 22 17 39t41 17q25 0 41 -16q17 -17 17 -39q0 -23 -17 -42q-17 -18 -41 -18zM192 -154v-2q-18 0 -32 11t-14 30t12 28t26 9q12 0 22 -6q7 -4 19 -14q6 -5 16 -13q7 -6 15 -6q5 0 9 4
q3 4 5 8q2 5 3 15q2 14 2 28v48v321q0 32 -1 43q-1 16 -6 25q-4 9 -13 13q-7 4 -24 7v14l141 75v-427q0 -60 -20 -102q-19 -40 -65 -72q-31 -22 -53 -30q-20 -7 -42 -7z" />
    <glyph glyph-name="Jcircumflex" unicode="&#x134;" horiz-adv-x="396" 
d="M167 -10l-1 -3q-71 0 -112 23q-40 22 -40 60q0 23 14 35t33 12q21 0 34 -12t24 -41q10 -30 20 -45q9 -14 32 -14q21 0 35 15q14 16 14 52v484q0 70 -1 92q-1 33 -6 51t-13 24q-10 7 -24 11v13h197v-13q-16 -5 -24 -10q-8 -6 -13 -24q-4 -18 -6 -51q-1 -22 -1 -92v-395
q0 -40 -12 -72t-33 -54q-20 -22 -51 -34q-30 -12 -66 -12zM275 913l125 -116l-4 -12l-121 47l-120 -47l-5 12z" />
    <glyph glyph-name="jcircumflex" unicode="&#x135;" horiz-adv-x="221" 
d="M-21 -153l-1 -2q-18 0 -32 11t-14 30t12 28t26 9q12 0 22 -6q7 -4 19 -14q6 -5 16 -13q7 -6 15 -6q5 0 9 4q3 4 5 8t3 15q2 14 2 28v48v321q0 32 -1 43q-1 16 -6 25q-4 9 -13 13q-7 4 -24 7v14l140 75v-427q0 -60 -20 -102q-19 -40 -63 -72q-31 -22 -53 -30
q-20 -7 -42 -7zM110 699l114 -171l-11 -9l-103 76l-103 -76l-11 9z" />
    <glyph glyph-name="uni0136" unicode="&#x136;" horiz-adv-x="560" 
d="M360 13l-1 -3q25 8 27 21t-18 48l-185 322l232 248q19 21 27 36q7 15 6 25t-9 16q-7 6 -18 9v13h121v-13q-15 -5 -25 -10q-9 -4 -25 -17q-12 -9 -28 -27q-15 -17 -36 -39l-158 -169l226 -396q9 -16 18 -31q8 -13 13 -18q6 -6 12 -9l12 -6v-13h-191v13zM25 10l-1 -2
q16 4 25 12q9 7 13 25t6 51q1 22 1 92v366q0 70 -1 92q-2 33 -6 51t-13 25q-9 8 -25 12v13h198v-13q-15 -4 -24 -12q-9 -7 -13 -25q-5 -18 -6 -51q-1 -22 -1 -91v-366q0 -69 1 -91q1 -33 6 -51q4 -17 14 -25q9 -8 24 -12v-13h-198v13zM294 -122q-4 -6 -10 -11q-7 -6 -22 -6
q-20 0 -33 12t-13 34q0 23 15 35t35 12q23 0 42 -16q20 -17 20 -51q0 -40 -24 -64q-23 -23 -63 -31l-5 11q37 9 50 27q14 19 14 34q0 12 -6 14z" />
    <glyph glyph-name="uni0137" unicode="&#x137;" horiz-adv-x="443" 
d="M26 13h2q12 5 19 10q8 7 11 16q3 10 3 29v48v511q0 27 -1 35q-2 12 -6 18q-5 7 -12 8t-23 3v15l139 76v-666v-48q0 -17 5 -29q4 -10 12 -16q6 -5 21 -10v-13h-170v13zM267 12l-3 -2q20 3 24 13q4 11 -9 36l-108 187v12l145 142q15 16 20 26q5 11 2 18q-3 8 -12 12
q-9 5 -19 6v13h115v-13q-15 -4 -36 -20q-22 -17 -57 -52l-87 -84l152 -251q13 -23 23 -33q8 -8 18 -10v-12h-168v12zM255 -119q-4 -6 -10 -11q-7 -6 -22 -6q-19 0 -33 12q-13 12 -13 34q0 23 15 35t35 12q23 0 42 -16q20 -17 20 -51q0 -40 -24 -64q-23 -23 -63 -31l-5 11
q37 9 50 27q14 19 14 34q0 13 -6 14z" />
    <glyph glyph-name="Lacute" unicode="&#x139;" horiz-adv-x="486" 
d="M26 13l-1 -4q16 4 25 12q9 7 13 25q5 18 6 51q1 22 1 92v366q0 70 -1 92q-1 33 -6 51q-4 18 -13 25q-9 8 -25 12v13h204v-13q-17 -5 -27 -12q-11 -8 -15 -25q-5 -18 -6 -51q-1 -22 -1 -91v-542h72q42 0 77 5q31 4 54 20q22 15 39 44q16 28 33 77h17l-23 -131
q-2 -12 -3 -17t-5 -9q-3 -3 -8 -3h-12h-395v13zM40 799l121 83q11 7 23 12t24 5q17 0 26 -10q9 -11 9 -24q0 -16 -11 -30q-10 -13 -39 -19l-148 -30z" />
    <glyph glyph-name="lacute" unicode="&#x13a;" horiz-adv-x="226" 
d="M27 13l2 1q15 5 21 10q8 7 11 16q4 13 5 29q1 12 1 48v511q0 27 -1 35q-2 12 -6 18q-5 7 -13 8q-10 2 -25 3v15l142 75v-666q0 -36 1 -48q1 -16 5 -29q3 -9 11 -16q6 -5 23 -10v-13h-177v13zM25 804l121 83q11 7 23 12t24 5q17 0 26 -10t9 -24q0 -16 -11 -30
q-10 -13 -39 -19l-148 -30z" />
    <glyph glyph-name="uni013B" unicode="&#x13b;" horiz-adv-x="486" 
d="M26 13l-1 -4q16 4 25 12q9 7 13 25q5 18 6 51q1 22 1 92v366q0 70 -1 92q-1 33 -6 51q-4 18 -13 25q-9 8 -25 12v13h204v-13q-17 -5 -27 -12q-11 -8 -15 -25q-5 -18 -6 -51q-1 -22 -1 -91v-542h72q42 0 77 5q31 4 54 20q22 15 39 44q16 28 33 77h17l-23 -131
q-2 -12 -3 -17t-5 -9q-3 -3 -8 -3h-12h-395v13zM269 -121q-4 -6 -10 -11q-7 -6 -22 -6q-19 0 -33 12q-13 12 -13 34q0 23 15 35t35 12q23 0 42 -16q20 -17 20 -51q0 -40 -24 -64q-23 -23 -63 -31l-5 11q37 9 50 27q14 19 14 34q0 13 -6 14z" />
    <glyph glyph-name="uni013C" unicode="&#x13c;" horiz-adv-x="226" 
d="M26 13l2 1q15 5 21 10q8 7 11 16q4 13 5 29q1 12 1 48v511q0 27 -1 35q-1 12 -6 18q-5 7 -13 8q-10 2 -25 3v15l142 75v-666q0 -36 1 -48q1 -16 5 -29q3 -9 11 -16q6 -5 23 -10v-13h-177v13zM134 -116q-4 -6 -10 -11q-8 -6 -22 -6q-20 0 -33 12t-13 34q0 23 15 35t35 12
q23 0 42 -16q20 -17 20 -51q0 -40 -24 -64q-23 -23 -63 -31l-5 11q37 9 50 27q14 19 14 34q0 12 -6 14z" />
    <glyph glyph-name="Lcaron" unicode="&#x13d;" horiz-adv-x="486" 
d="M26 13l-1 -4q16 4 25 12q9 7 13 25q5 18 6 51q1 22 1 92v366q0 70 -1 92q-1 33 -6 51q-4 18 -13 25q-9 8 -25 12v13h204v-13q-17 -5 -27 -12q-11 -8 -15 -25q-5 -18 -6 -51q-1 -22 -1 -91v-542h72q42 0 77 5q31 4 54 20q22 15 39 44q16 28 33 77h17l-23 -131
q-2 -12 -3 -17t-5 -9q-3 -3 -8 -3h-12h-395v13zM262 559l8 132q5 62 40 62q16 0 25 -9t9 -26q0 -8 -3 -19q-2 -7 -8 -21l-59 -122z" />
    <glyph glyph-name="lcaron" unicode="&#x13e;" horiz-adv-x="226" 
d="M26 13l2 1q15 5 21 10q8 7 11 16q4 13 5 29q1 12 1 48v511q0 27 -1 35q-1 12 -6 18q-5 7 -13 8q-10 2 -25 3v15l142 75v-666q0 -36 1 -48q1 -16 5 -29q3 -9 11 -16q6 -5 23 -10v-13h-177v13zM197 576l8 132q5 62 40 62q16 0 25 -9t9 -26q0 -9 -3 -19q-2 -7 -8 -21
l-59 -122z" />
    <glyph glyph-name="Ldot" unicode="&#x13f;" horiz-adv-x="486" 
d="M369 328q-27 0 -45 18t-18 46q0 27 18 45t45 18t45 -18t18 -45q0 -28 -18 -46t-45 -18zM26 13l-1 -4q16 4 25 12q9 7 13 25q5 18 6 51q1 22 1 92v366q0 70 -1 92q-1 33 -6 51q-4 18 -13 25q-9 8 -25 12v13h204v-13q-17 -5 -27 -12q-11 -8 -15 -25q-5 -18 -6 -51
q-1 -22 -1 -91v-542h72q42 0 77 5q31 4 54 20q22 15 39 44q16 28 33 77h17l-23 -131q-2 -12 -3 -17t-5 -9q-3 -3 -8 -3h-12h-395v13z" />
    <glyph glyph-name="ldot" unicode="&#x140;" horiz-adv-x="294" 
d="M259 304q-25 0 -44 17q-18 17 -18 45t18 46t44 18q28 0 46 -18t18 -46t-18 -45q-19 -17 -46 -17zM26 13l2 1q15 5 21 10q8 7 11 16q4 13 5 29q1 12 1 48v511q0 27 -1 35q-1 12 -6 18q-5 7 -13 8q-10 2 -25 3v15l142 75v-666q0 -36 1 -48q1 -16 5 -29q3 -9 11 -16
q6 -5 23 -10v-13h-177v13z" />
    <glyph glyph-name="Lslash" unicode="&#x141;" horiz-adv-x="472" 
d="M1 262l-8 14l351 198l8 -14zM26 13l-1 -4q16 4 25 12q9 7 13 25q5 18 6 51q1 22 1 92v366q0 70 -1 92q-1 33 -6 51q-4 18 -13 25q-9 8 -25 12v13h204v-13q-17 -5 -27 -12q-11 -8 -15 -25q-5 -18 -6 -51q-1 -22 -1 -91v-542h72q42 0 77 5q31 4 54 20q22 15 39 44
q16 28 33 77h17l-23 -131q-2 -12 -3 -17t-5 -9q-3 -3 -8 -3h-12h-395v13z" />
    <glyph glyph-name="lslash" unicode="&#x142;" horiz-adv-x="226" 
d="M-2 304l-10 14l244 168l9 -14zM26 13l2 1q15 5 21 10q8 7 11 16q4 13 5 29q1 12 1 48v511q0 27 -1 35q-1 12 -6 18q-5 7 -13 8q-10 2 -25 3v15l142 75v-666q0 -36 1 -48q1 -16 5 -29q3 -9 11 -16q6 -5 23 -10v-13h-177v13z" />
    <glyph glyph-name="Nacute" unicode="&#x143;" horiz-adv-x="579" 
d="M26 13l-1 -4q15 8 25 18q8 8 13 29q4 19 6 53q1 22 1 90v355q0 69 -1 91q-1 33 -6 51q-4 18 -13 25q-9 8 -25 12v13h144q13 0 17 -1q8 -2 11 -4q5 -3 9 -9q5 -7 11 -17l277 -511v342q0 68 -1 90q-2 35 -7 51q-6 18 -18 27t-33 18v13h121v-13q-15 -9 -24 -18
q-8 -8 -13 -27q-5 -18 -6 -51q-1 -22 -1 -90v-551h-31l-394 724v-518q0 -46 2 -90q2 -34 7 -52q6 -19 18 -28t33 -18v-13h-121v13zM232 799l121 83q11 7 23 12t24 5q17 0 26 -10q9 -11 9 -24q0 -16 -11 -30q-10 -13 -39 -19l-148 -30z" />
    <glyph glyph-name="nacute" unicode="&#x144;" horiz-adv-x="485" 
d="M26 13l2 3q12 5 19 10q8 7 11 16q3 10 3 29v48v195q0 32 -1 42q-2 16 -6 23q-5 8 -13 12q-7 4 -24 7v14l142 75v-104l20 20q43 43 73 62q33 21 71 21q18 0 36 -6q19 -6 33 -19q15 -13 24 -36t9 -55v-253v-48q0 -19 3 -29t10 -16q7 -5 19 -10v-13h-171v13q15 5 21 10
q8 6 12 16t6 29q1 12 1 48v279q0 30 -12 43t-31 13q-17 0 -40 -16q-22 -15 -64 -57l-20 -20v-243v-48q0 -17 5 -29q4 -10 12 -16q6 -5 21 -10v-13h-171v13zM189 534l79 124q13 20 24 31q10 10 27 10t26 -10q9 -11 9 -27t-9 -28q-8 -11 -24 -22l-121 -87z" />
    <glyph glyph-name="uni0145" unicode="&#x145;" horiz-adv-x="579" 
d="M26 13l-1 -4q15 8 25 18q8 8 13 29q4 19 6 53q1 22 1 90v355q0 69 -1 91q-1 33 -6 51q-4 18 -13 25q-9 8 -25 12v13h144q13 0 17 -1q8 -2 11 -4q5 -3 9 -9q5 -7 11 -17l277 -511v342q0 68 -1 90q-2 35 -7 51q-6 18 -18 27t-33 18v13h121v-13q-15 -9 -24 -18
q-8 -8 -13 -27q-5 -18 -6 -51q-1 -22 -1 -90v-551h-31l-394 724v-518q0 -46 2 -90q2 -34 7 -52q6 -19 18 -28t33 -18v-13h-121v13zM310 -121q-4 -6 -10 -11q-8 -6 -22 -6q-20 0 -33 12t-13 34q0 23 15 35t35 12q23 0 42 -16q20 -17 20 -51q0 -40 -24 -64q-23 -23 -63 -31
l-5 11q37 9 50 27q14 19 14 34q0 13 -6 14z" />
    <glyph glyph-name="uni0146" unicode="&#x146;" horiz-adv-x="485" 
d="M26 13l2 3q12 5 19 10q8 7 11 16q3 10 3 29v48v195q0 32 -1 42q-2 16 -6 23q-5 8 -13 12q-7 4 -24 7v14l142 75v-104l20 20q43 43 73 62q33 21 71 21q18 0 36 -6q19 -6 33 -19q15 -13 24 -36t9 -55v-253v-48q0 -19 3 -29t10 -16q7 -5 19 -10v-13h-171v13q15 5 21 10
q8 6 12 16t6 29q1 12 1 48v279q0 30 -12 43t-31 13q-17 0 -40 -16q-22 -15 -64 -57l-20 -20v-243v-48q0 -17 5 -29q4 -10 12 -16q6 -5 21 -10v-13h-171v13zM267 -114q-4 -6 -10 -11q-7 -6 -22 -6q-19 0 -33 12q-13 12 -13 34q0 23 15 35t35 12q23 0 42 -16q20 -17 20 -51
q0 -40 -24 -64q-23 -23 -63 -31l-5 11q37 9 50 27q14 19 14 34q0 12 -6 14z" />
    <glyph glyph-name="Ncaron" unicode="&#x147;" horiz-adv-x="579" 
d="M26 13l-1 -4q15 8 25 18q8 8 13 29q4 19 6 53q1 22 1 90v355q0 69 -1 91q-1 33 -6 51q-4 18 -13 25q-9 8 -25 12v13h144q13 0 17 -1q8 -2 11 -4q5 -3 9 -9q5 -7 11 -17l277 -511v342q0 68 -1 90q-2 35 -7 51q-6 18 -18 27t-33 18v13h121v-13q-15 -9 -24 -18
q-8 -8 -13 -27q-5 -18 -6 -51q-1 -22 -1 -90v-551h-31l-394 724v-518q0 -46 2 -90q2 -34 7 -52q6 -19 18 -28t33 -18v-13h-121v13zM201 920l120 -47l121 47l4 -12l-125 -116l-125 116z" />
    <glyph glyph-name="ncaron" unicode="&#x148;" horiz-adv-x="485" 
d="M26 13l2 3q12 5 19 10q8 7 11 16q3 10 3 29v48v195q0 32 -1 42q-2 16 -6 23q-5 8 -13 12q-7 4 -24 7v14l142 75v-104l20 20q43 43 73 62q33 21 71 21q18 0 36 -6q19 -6 33 -19q15 -13 24 -36t9 -55v-253v-48q0 -19 3 -29t10 -16q7 -5 19 -10v-13h-171v13q15 5 21 10
q8 6 12 16t6 29q1 12 1 48v279q0 30 -12 43t-31 13q-17 0 -40 -16q-22 -15 -64 -57l-20 -20v-243v-48q0 -17 5 -29q4 -10 12 -16q6 -5 21 -10v-13h-171v13zM150 710l103 -76l103 76l11 -9l-114 -171l-114 171z" />
    <glyph glyph-name="napostrophe" unicode="&#x149;" horiz-adv-x="484" 
d="M26 13l2 3q12 5 19 10q8 7 11 16q3 10 3 29v48v195q0 32 -1 42q-2 16 -6 23q-5 8 -13 12q-7 4 -24 7v14l142 75v-104l20 20q43 43 73 62q33 21 71 21q18 0 36 -6q19 -6 33 -19q15 -13 24 -36t9 -55v-253v-48q0 -19 3 -29t10 -16q7 -5 19 -10v-13h-171v13q15 5 21 10
q8 6 12 16t6 29q1 12 1 48v279q0 30 -12 43t-31 13q-17 0 -40 -16q-22 -15 -64 -57l-20 -20v-243v-48q0 -17 5 -29q4 -10 12 -16q6 -5 21 -10v-13h-171v13zM34 683l-2 -1q-4 -8 -12 -12q-8 -5 -21 -5q-22 0 -37 15t-15 38q0 26 18 42q17 16 42 16t47 -19q23 -20 23 -64
q0 -48 -28 -85q-29 -38 -73 -63l-6 10q39 27 56 52q18 27 18 51q0 18 -10 25z" />
    <glyph glyph-name="Eng" unicode="&#x14a;" horiz-adv-x="579" 
d="M26 13v-5q15 8 25 18q8 8 13 29q4 19 6 53q1 22 1 90v355q0 69 -1 91q-2 33 -6 51t-13 25q-9 8 -25 12v13h144q13 0 17 -1q8 -2 11 -4q4 -3 9 -9q5 -7 11 -17l277 -497v328q0 68 -1 90q-2 35 -7 51q-6 18 -18 27q-13 10 -31 18v13h119v-13q-15 -9 -24 -18q-8 -8 -13 -27
q-4 -18 -6 -51q-1 -22 -1 -90v-564q0 -27 -7 -48q-8 -23 -21 -39q-14 -18 -34 -26q-21 -9 -48 -9q-31 0 -58 6q-25 5 -46 17q-19 10 -30 26t-11 35q0 23 12 33q13 11 32 11q22 0 33 -12q11 -13 20 -41q9 -27 18 -43q9 -15 32 -15q44 0 66 31q23 32 23 78v5l-406 730l-1 -519
q0 -46 2 -90q2 -34 7 -52q6 -19 18 -28t33 -18v-13h-121v13z" />
    <glyph glyph-name="eng" unicode="&#x14b;" horiz-adv-x="485" 
d="M26 13l3 1q12 5 19 10q8 7 11 16q3 11 3 29v48v195q0 32 -1 42q-2 16 -6 23q-5 8 -13 12q-7 4 -24 7v14l142 75v-104l20 20q43 43 73 62q33 21 71 21q18 0 36 -6q19 -6 33 -19q15 -13 24 -36q9 -22 9 -55v-311q0 -60 -20 -102q-19 -40 -65 -72q-31 -22 -53 -30
q-20 -7 -42 -7q-18 0 -32 11t-14 30t12 28t26 9q11 0 22 -6q7 -4 19 -14q6 -5 16 -13q7 -6 15 -6q5 0 9 4q3 3 5 8q2 6 2 15v28v48v408q0 30 -12 43t-31 13q-17 0 -40 -16q-22 -15 -64 -57l-20 -20v-243v-48q0 -17 5 -29q4 -10 12 -16q6 -5 21 -10v-13h-171v13z" />
    <glyph glyph-name="Omacron" unicode="&#x14c;" horiz-adv-x="641" 
d="M321 -14l-1 -1q-49 0 -100 27q-50 27 -91 78t-66 123q-25 71 -25 161q0 91 25 162q26 73 66 122t91 76t101 27q49 0 99 -27t90 -76q41 -50 66 -121t25 -162q0 -90 -25 -161q-26 -72 -66 -123t-90 -78t-99 -27zM320 2l-3 -1q73 0 116 93q44 94 44 280q0 93 -12 162
q-12 70 -33 116t-51 69q-31 23 -63 23q-34 0 -63 -23t-50 -69q-21 -47 -33 -115q-12 -69 -12 -162q0 -186 44 -280q44 -93 116 -93zM421 805h-208v47h208v-47z" />
    <glyph glyph-name="omacron" unicode="&#x14d;" horiz-adv-x="464" 
d="M232 -8l-1 -1q-31 0 -67 15t-66 45q-30 31 -50 77q-20 48 -20 109q0 63 20 111q20 47 50 77t66 45t68 15q31 0 67 -15t66 -45q31 -30 50 -77q20 -48 20 -111q0 -61 -20 -109q-19 -45 -50 -76q-30 -30 -66 -45t-67 -15zM231 7h-1q46 0 73 53q27 52 27 177q0 67 -7 108
q-8 44 -21 71q-14 28 -31 39q-18 12 -41 12t-41 -12q-17 -11 -31 -39q-13 -27 -21 -71q-7 -41 -7 -108q0 -125 27 -177q27 -53 74 -53zM328 611v-45h-196v45h196z" />
    <glyph glyph-name="Obreve" unicode="&#x14e;" horiz-adv-x="641" 
d="M321 -14l-1 -1q-49 0 -100 27q-50 27 -91 78t-66 123q-25 71 -25 161q0 91 25 162q26 73 66 122t91 76t101 27q49 0 99 -27t90 -76q41 -50 66 -121t25 -162q0 -90 -25 -161q-26 -72 -66 -123t-90 -78t-99 -27zM320 2l-3 -1q73 0 116 93q44 94 44 280q0 93 -12 162
q-12 70 -33 116t-51 69q-31 23 -63 23q-34 0 -63 -23t-50 -69q-21 -47 -33 -115q-12 -69 -12 -162q0 -186 44 -280q44 -93 116 -93zM318 859v-2q36 0 55 11q18 10 27 33h16q-2 -44 -25 -75q-24 -31 -72 -31q-47 0 -73 32q-25 31 -27 77h16q7 -21 27 -33t56 -12z" />
    <glyph glyph-name="obreve" unicode="&#x14f;" horiz-adv-x="464" 
d="M232 -8l-1 -1q-31 0 -67 15t-66 45q-30 31 -50 77q-20 48 -20 109q0 63 20 111q20 47 50 77t66 45t68 15q31 0 67 -15t66 -45q31 -30 50 -77q20 -48 20 -111q0 -61 -20 -109q-19 -45 -50 -76q-30 -30 -66 -45t-67 -15zM231 7h-1q46 0 73 53q27 52 27 177q0 67 -7 108
q-8 44 -21 71q-14 28 -31 39q-18 12 -41 12t-41 -12q-17 -11 -31 -39q-13 -27 -21 -71q-7 -41 -7 -108q0 -125 27 -177q27 -53 74 -53zM231 597l3 2q34 0 51 15t24 37h16q0 -21 -6 -42q-6 -20 -18 -37q-12 -16 -30 -27q-17 -10 -40 -10q-22 0 -40 9q-17 9 -30 26
q-12 17 -18 37q-6 21 -6 43h16q6 -20 24 -37q17 -16 54 -16z" />
    <glyph glyph-name="Ohungarumlaut" unicode="&#x150;" horiz-adv-x="641" 
d="M321 -14l-1 -1q-49 0 -100 27q-50 27 -91 78t-66 123q-25 71 -25 161q0 91 25 162q26 73 66 122t91 76t101 27q49 0 99 -27t90 -76q41 -50 66 -121t25 -162q0 -90 -25 -161q-26 -72 -66 -123t-90 -78t-99 -27zM320 2l-3 -1q73 0 116 93q44 94 44 280q0 93 -12 162
q-12 70 -33 116t-51 69q-31 23 -63 23q-34 0 -63 -23t-50 -69q-21 -47 -33 -115q-12 -69 -12 -162q0 -186 44 -280q44 -93 116 -93zM361 806l51 77q13 18 22 27q11 11 27 11t24 -11t8 -21q0 -14 -9 -23q-10 -10 -23 -17l-92 -54zM234 805l52 77q13 18 22 27q11 11 27 11
t24 -11t8 -21q0 -14 -9 -23q-10 -9 -23 -17l-93 -54z" />
    <glyph glyph-name="ohungarumlaut" unicode="&#x151;" horiz-adv-x="464" 
d="M232 -8l-1 -1q-31 0 -67 15t-66 45q-30 31 -50 77q-20 48 -20 109q0 63 20 111q20 47 50 77t66 45t68 15q31 0 67 -15t66 -45q31 -30 50 -77q20 -48 20 -111q0 -61 -20 -109q-19 -45 -50 -76q-30 -30 -66 -45t-67 -15zM231 7h-1q46 0 73 53q27 52 27 177q0 67 -7 108
q-8 44 -21 71q-14 28 -31 39q-18 12 -41 12t-41 -12q-17 -11 -31 -39q-13 -27 -21 -71q-7 -41 -7 -108q0 -125 27 -177q27 -53 74 -53zM281 534l35 127q6 22 15 34t28 12q15 0 24 -9t9 -23q0 -19 -17 -39l-84 -107zM159 533l37 127q6 22 15 34t27 12q16 0 24 -9q8 -10 8 -23
q0 -20 -16 -39l-85 -107z" />
    <glyph glyph-name="OE" unicode="&#x152;" horiz-adv-x="843" 
d="M651 331l-1 1q-3 11 -9 31q-5 16 -16 26q-13 11 -33 17q-21 6 -60 6h-2v-396h76q43 0 78 5q32 5 54 19q23 15 38 41q15 25 27 69h18l-14 -118q-1 -22 -8 -27q-5 -4 -22 -4h-428q-64 0 -121 24t-99 72t-66 118t-24 163q0 89 24 160q24 70 66 118t99 72t123 24h406
q11 0 15 -4t9 -27l19 -106h-18q-13 36 -29 60q-15 23 -37 36q-23 14 -52 18q-33 5 -72 5h-61v-306h2q39 0 60 6q20 6 33 17q11 10 16 26q3 10 9 32h14v-178h-14zM350 735l-4 -3q-98 0 -144 -87q-46 -86 -46 -271q0 -96 13 -161q13 -67 39 -112t61 -66q36 -21 80 -21
q25 0 40 6t21 25q7 21 8 56q2 48 2 99v337q0 79 -1 105q-1 39 -9 60t-21 27t-39 6z" />
    <glyph glyph-name="oe" unicode="&#x153;" horiz-adv-x="725" 
d="M234 -8l-6 2q-33 0 -69 15t-66 45q-31 31 -50 77q-20 48 -20 109q0 63 20 111q20 47 50 77t66 45t69 15q40 0 82 -21t72 -66q28 45 68 66q39 21 74 21q76 0 116 -45q41 -46 47 -130h-252q-1 -9 -1 -27v-30q0 -115 32 -177q31 -61 99 -61q39 0 62 10q24 11 43 25l9 -13
q-14 -10 -22 -16q-10 -8 -27 -16q-15 -8 -36 -12q-19 -4 -46 -4q-50 0 -95 20q-43 19 -72 65q-28 -43 -69 -64q-40 -21 -78 -21zM524 471l-1 -2q-13 0 -27 -6q-15 -7 -26 -22q-12 -17 -21 -43q-8 -25 -13 -68h156q-3 75 -18 108t-50 33zM227 9l1 -1q49 0 75 53q26 54 26 177
q0 64 -6 108q-6 46 -19 71q-14 27 -33 39q-20 12 -43 12q-24 0 -43 -12t-33 -39q-13 -27 -21 -71q-7 -41 -7 -108q0 -124 27 -177q27 -52 76 -52z" />
    <glyph glyph-name="Racute" unicode="&#x154;" horiz-adv-x="555" 
d="M26 13l-9 -6q16 4 25 12q9 7 13 25q5 18 6 51q1 22 1 92v366q0 70 -1 92q-1 33 -6 51q-4 18 -13 25q-9 8 -25 12v13h208q133 0 204 -40q72 -40 72 -138q0 -48 -18 -84q-18 -37 -51 -62q-33 -26 -76 -39q-44 -13 -93 -15q30 -5 52 -13q24 -9 43 -28q20 -20 33 -49
q15 -32 23 -73q12 -57 21 -93q9 -34 20 -57q10 -20 21 -28q10 -7 26 -7t27 6q9 5 15 11l9 -9q-7 -10 -29 -24q-20 -13 -66 -13q-30 0 -54 9t-42 30q-17 20 -31 57q-13 34 -22 91q-11 69 -21 107q-10 39 -24 57t-32 23q-20 5 -44 5h-8v-178q0 -69 1 -91q1 -33 6 -51
q4 -17 14 -25q9 -7 24 -12v-13h-199v13zM172 728v-350h71q83 0 116 45t33 131q0 48 -9 81t-30 54t-52 30t-78 9h-51zM178 795l121 83q11 7 23 12t24 5q17 0 26 -10q9 -11 9 -24q0 -16 -11 -30q-10 -13 -39 -19l-148 -30z" />
    <glyph glyph-name="racute" unicode="&#x155;" horiz-adv-x="346" 
d="M26 13l-1 -5q12 5 19 10q8 7 11 16q3 11 3 29v48v207q0 27 -1 36q-1 14 -6 21q-5 8 -13 11q-9 3 -24 6v14l140 75v-93l14 16q40 46 65 63q23 16 47 16q23 0 35 -12t12 -31q0 -24 -13 -36q-14 -12 -30 -12q-13 0 -21 5q-5 3 -15 11q-2 2 -6.5 5.5t-6.5 5.5q-7 5 -16 5
t-18 -6t-31 -31l-14 -16v-255q0 -36 1 -48q2 -19 6 -29t13 -16q8 -5 25 -10v-13h-175v13zM130 526l79 124q13 20 24 31q10 10 27 10t26 -10q9 -11 9 -27t-9 -28q-8 -11 -24 -22l-121 -87z" />
    <glyph glyph-name="uni0156" unicode="&#x156;" horiz-adv-x="555" 
d="M26 13l-9 -6q16 4 25 12q9 7 13 25q5 18 6 51q1 22 1 92v366q0 70 -1 92q-1 33 -6 51q-4 18 -13 25q-9 8 -25 12v13h208q133 0 204 -40q72 -40 72 -138q0 -48 -18 -84q-18 -37 -51 -62q-33 -26 -76 -39q-44 -13 -93 -15q30 -5 52 -13q24 -9 43 -28q20 -20 33 -49
q15 -32 23 -73q12 -57 21 -93q9 -34 20 -57q10 -20 21 -28q10 -7 26 -7t27 6q9 5 15 11l9 -9q-7 -10 -29 -24q-20 -13 -66 -13q-30 0 -54 9t-42 30q-17 20 -31 57q-13 34 -22 91q-11 69 -21 107q-10 39 -24 57t-32 23q-20 5 -44 5h-8v-178q0 -69 1 -91q1 -33 6 -51
q4 -17 14 -25q9 -7 24 -12v-13h-199v13zM172 728v-350h71q83 0 116 45t33 131q0 48 -9 81t-30 54t-52 30t-78 9h-51zM299 -125q-4 -6 -10 -11q-7 -6 -22 -6q-19 0 -33 12q-13 12 -13 34q0 23 15 35t35 12q23 0 42 -16q20 -17 20 -51q0 -40 -24 -64q-23 -23 -63 -31l-5 11
q37 9 50 27q14 19 14 34q0 13 -6 14z" />
    <glyph glyph-name="uni0157" unicode="&#x157;" horiz-adv-x="346" 
d="M26 13l-1 -5q12 5 19 10q8 7 11 16q3 11 3 29v48v207q0 27 -1 36q-1 14 -6 21q-5 8 -13 11q-9 3 -24 6v14l140 75v-93l14 16q40 46 65 63q23 16 47 16q23 0 35 -12t12 -31q0 -24 -13 -36q-14 -12 -30 -12q-13 0 -21 5q-5 3 -15 11q-2 2 -6.5 5.5t-6.5 5.5q-7 5 -16 5
t-18 -6t-31 -31l-14 -16v-255q0 -36 1 -48q2 -19 6 -29t13 -16q8 -5 25 -10v-13h-175v13zM134 -122q-4 -6 -10 -11q-8 -6 -22 -6q-20 0 -33 12t-13 34q0 23 15 35t35 12q23 0 42 -16q20 -17 20 -51q0 -40 -24 -64q-23 -23 -63 -31l-5 11q37 9 50 27q14 19 14 34q0 12 -6 14z
" />
    <glyph glyph-name="Rcaron" unicode="&#x158;" horiz-adv-x="555" 
d="M26 13l-9 -6q16 4 25 12q9 7 13 25q5 18 6 51q1 22 1 92v366q0 70 -1 92q-1 33 -6 51q-4 18 -13 25q-9 8 -25 12v13h208q133 0 204 -40q72 -40 72 -138q0 -48 -18 -84q-18 -37 -51 -62q-33 -26 -76 -39q-44 -13 -93 -15q30 -5 52 -13q24 -9 43 -28q20 -20 33 -49
q15 -32 23 -73q12 -57 21 -93q9 -34 20 -57q10 -20 21 -28q10 -7 26 -7t27 6q9 5 15 11l9 -9q-7 -10 -29 -24q-20 -13 -66 -13q-30 0 -54 9t-42 30q-17 20 -31 57q-13 34 -22 91q-11 69 -21 107q-10 39 -24 57t-32 23q-20 5 -44 5h-8v-178q0 -69 1 -91q1 -33 6 -51
q4 -17 14 -25q9 -7 24 -12v-13h-199v13zM172 728v-350h71q83 0 116 45t33 131q0 48 -9 81t-30 54t-52 30t-78 9h-51zM147 916l120 -47l121 47l4 -12l-125 -116l-125 116z" />
    <glyph glyph-name="rcaron" unicode="&#x159;" horiz-adv-x="346" 
d="M26 13l-1 -5q12 5 19 10q8 7 11 16q3 11 3 29v48v207q0 27 -1 36q-1 14 -6 21q-5 8 -13 11q-9 3 -24 6v14l140 75v-93l14 16q40 46 65 63q23 16 47 16q23 0 35 -12t12 -31q0 -24 -13 -36q-14 -12 -30 -12q-13 0 -21 5q-5 3 -15 11q-2 2 -6.5 5.5t-6.5 5.5q-7 5 -16 5
t-18 -6t-31 -31l-14 -16v-255q0 -36 1 -48q2 -19 6 -29t13 -16q8 -5 25 -10v-13h-175v13zM91 702l103 -76l103 76l11 -9l-114 -171l-114 171z" />
    <glyph glyph-name="Sacute" unicode="&#x15a;" horiz-adv-x="480" 
d="M220 -10l4 -3q-31 0 -58 8q-23 7 -45 17q-14 7 -33 17q-14 8 -24 8q-11 0 -17 -19h-13v197h15q17 -101 57 -156q41 -56 114 -56q68 0 103 33q34 33 34 96q0 37 -10 64q-11 28 -30 54q-19 24 -50 51q-28 23 -71 54q-30 22 -63 50q-26 21 -49 50q-21 25 -33 57t-12 70
q0 39 14 73q13 32 39 55q25 22 60 34q34 12 75 12q25 0 48 -5q16 -4 37 -11q6 -2 16.5 -6t12.5 -5q13 -5 23 -5q11 0 14 6q4 7 5 14h14v-150h-15q-20 77 -59 113t-96 36q-58 0 -84 -25q-27 -26 -27 -72q0 -50 36 -94t102 -93q40 -29 75 -57q36 -30 60 -58t40 -65
q15 -35 15 -75q0 -52 -20 -94q-19 -40 -51 -67q-31 -26 -72 -40q-39 -13 -81 -13zM146 800l121 83q11 7 23 12t24 5q17 0 26 -10t9 -24q0 -16 -11 -30q-10 -13 -39 -19l-148 -30z" />
    <glyph glyph-name="sacute" unicode="&#x15b;" horiz-adv-x="352" 
d="M180 9l-12 -5q38 0 57 22t19 57q0 34 -21 61t-76 57q-32 17 -57 35q-22 16 -36 35q-13 17 -19 39q-6 21 -6 50q0 27 10 48q11 22 27 39q16 16 39 25t48 9q19 0 32 -3q16 -3 25 -7q8 -3 22 -7q10 -3 23 -3q14 0 17 14h15v-123l-15 1q-16 61 -48 87t-69 26q-29 0 -48 -15
t-19 -47q0 -16 6 -30q6 -13 18 -25t30 -24q14 -10 44 -27q40 -20 66 -39q27 -20 41 -39q15 -20 21 -43q6 -24 6 -54q0 -28 -12 -52t-33 -42q-20 -17 -46 -28q-24 -10 -51 -10q-25 0 -43 6q-19 6 -31 13q-21 12 -23 13q-9 6 -18 6q-13 0 -16 -18h-16v144h15q18 -64 50 -106
q31 -40 84 -40zM98 526l79 124q13 20 24 31q10 10 27 10t26 -10q9 -11 9 -27t-9 -28q-8 -11 -24 -22l-121 -87z" />
    <glyph glyph-name="Scircumflex" unicode="&#x15c;" horiz-adv-x="480" 
d="M220 -10l4 -3q-31 0 -58 8q-23 7 -45 17q-14 7 -33 17q-14 8 -24 8q-11 0 -17 -19h-13v197h15q17 -101 57 -156q41 -56 114 -56q68 0 103 33q34 33 34 96q0 37 -10 64q-11 28 -30 54q-19 24 -50 51q-28 23 -71 54q-30 22 -63 50q-26 21 -49 50q-21 25 -33 57t-12 70
q0 39 14 73q13 32 39 55q25 22 60 34q34 12 75 12q25 0 48 -5q16 -4 37 -11q6 -2 16.5 -6t12.5 -5q13 -5 23 -5q11 0 14 6q4 7 5 14h14v-150h-15q-20 77 -59 113t-96 36q-58 0 -84 -25q-27 -26 -27 -72q0 -50 36 -94t102 -93q40 -29 75 -57q36 -30 60 -58t40 -65
q15 -35 15 -75q0 -52 -20 -94q-19 -40 -51 -67q-31 -26 -72 -40q-39 -13 -81 -13zM235 913l125 -116l-4 -12l-121 47l-120 -47l-5 12z" />
    <glyph glyph-name="scircumflex" unicode="&#x15d;" horiz-adv-x="352" 
d="M180 9l-12 -5q38 0 57 22t19 57q0 34 -21 61t-76 57q-32 17 -57 35q-22 16 -36 35q-13 17 -19 39q-6 21 -6 50q0 27 10 48q11 22 27 39q16 16 39 25t48 9q19 0 32 -3q16 -3 25 -7q8 -3 22 -7q10 -3 23 -3q14 0 17 14h15v-123l-15 1q-16 61 -48 87t-69 26q-29 0 -48 -15
t-19 -47q0 -16 6 -30q6 -13 18 -25t30 -24q14 -10 44 -27q40 -20 66 -39q27 -20 41 -39q15 -20 21 -43q6 -24 6 -54q0 -28 -12 -52t-33 -42q-20 -17 -46 -28q-24 -10 -51 -10q-25 0 -43 6q-19 6 -31 13q-21 12 -23 13q-9 6 -18 6q-13 0 -16 -18h-16v144h15q18 -64 50 -106
q31 -40 84 -40zM161 696l114 -171l-11 -9l-103 76l-103 -76l-11 9z" />
    <glyph glyph-name="uni015E" unicode="&#x15e;" horiz-adv-x="480" 
d="M230 -1l-23 -40q34 -5 56 -22q23 -18 23 -43q0 -34 -36 -54t-115 -21l-1 15q43 4 65 14q21 9 21 26t-15 23q-16 7 -41 8l-4 7l48 87h22zM219 -10l4 -3q-31 0 -58 8q-23 7 -45 17q-14 7 -33 17q-14 8 -24 8q-11 0 -17 -19h-13v197h15q16 -101 57 -156q41 -56 114 -56
q69 0 103 33t34 96q0 37 -10 64q-10 28 -30 54q-19 24 -50 51q-28 23 -71 54q-30 22 -63 50q-26 21 -49 50q-21 25 -33 57t-12 70q0 39 14 73q13 32 39 55q25 22 60 34t75 12q25 0 48 -5q16 -4 37 -11q6 -2 16.5 -6t12.5 -5q13 -5 23 -5q11 0 14 6q4 7 5 14h14v-150h-15
q-20 77 -59 113t-96 36q-58 0 -84 -25q-27 -26 -27 -72q0 -50 36 -94t102 -93q41 -29 75 -57q36 -30 60 -58t40 -65q15 -35 15 -75q0 -52 -20 -94q-19 -40 -51 -67q-31 -26 -72 -40q-39 -13 -81 -13z" />
    <glyph glyph-name="uni015F" unicode="&#x15f;" horiz-adv-x="352" 
d="M181 2l-25 -43q34 -5 56 -22q23 -18 23 -43q0 -34 -36 -54t-115 -21l-1 15q42 4 66 14q22 9 22 26t-16 23q-18 7 -42 8l-4 7l50 90h22zM178 9l-12 -5q38 0 57 22t19 57q0 34 -21 61t-76 57q-32 17 -57 35q-22 16 -36 35q-13 17 -19 39q-6 21 -6 50q0 27 10 48
q11 22 27 39q16 16 39 25t48 9q19 0 32 -3q16 -3 25 -7q8 -3 22 -7q10 -3 23 -3q14 0 17 14h15v-123l-15 1q-16 61 -48 87t-69 26q-29 0 -48 -15t-19 -47q0 -16 6 -30q6 -13 18 -25t30 -24q14 -10 44 -27q40 -20 66 -39q27 -20 41 -39q15 -20 21 -43q6 -24 6 -54
q0 -28 -12 -52t-33 -42q-20 -17 -46 -28q-24 -10 -51 -10q-25 0 -43 6q-19 6 -31 13q-21 12 -23 13q-9 6 -18 6q-13 0 -16 -18h-16v144h15q18 -64 50 -106q31 -40 84 -40z" />
    <glyph glyph-name="Scaron" unicode="&#x160;" horiz-adv-x="480" 
d="M220 -10l4 -3q-31 0 -58 8q-23 7 -45 17q-14 7 -33 17q-14 8 -24 8q-11 0 -17 -19h-13v197h15q17 -101 57 -156q41 -56 114 -56q68 0 103 33q34 33 34 96q0 37 -10 64q-11 28 -30 54q-19 24 -50 51q-28 23 -71 54q-30 22 -63 50q-26 21 -49 50q-21 25 -33 57t-12 70
q0 39 14 73q13 32 39 55q25 22 60 34q34 12 75 12q25 0 48 -5q16 -4 37 -11q6 -2 16.5 -6t12.5 -5q13 -5 23 -5q11 0 14 6q4 7 5 14h14v-150h-15q-20 77 -59 113t-96 36q-58 0 -84 -25q-27 -26 -27 -72q0 -50 36 -94t102 -93q40 -29 75 -57q36 -30 60 -58t40 -65
q15 -35 15 -75q0 -52 -20 -94q-19 -40 -51 -67q-31 -26 -72 -40q-39 -13 -81 -13zM115 921l120 -47l121 47l4 -12l-125 -116l-125 116z" />
    <glyph glyph-name="scaron" unicode="&#x161;" horiz-adv-x="352" 
d="M180 9l-12 -5q38 0 57 22t19 57q0 34 -21 61t-76 57q-32 17 -57 35q-22 16 -36 35q-13 17 -19 39q-6 21 -6 50q0 27 10 48q11 22 27 39q16 16 39 25t48 9q19 0 32 -3q16 -3 25 -7q8 -3 22 -7q10 -3 23 -3q14 0 17 14h15v-123l-15 1q-16 61 -48 87t-69 26q-29 0 -48 -15
t-19 -47q0 -16 6 -30q6 -13 18 -25t30 -24q14 -10 44 -27q40 -20 66 -39q27 -20 41 -39q15 -20 21 -43q6 -24 6 -54q0 -28 -12 -52t-33 -42q-20 -17 -46 -28q-24 -10 -51 -10q-25 0 -43 6q-19 6 -31 13q-21 12 -23 13q-9 6 -18 6q-13 0 -16 -18h-16v144h15q18 -64 50 -106
q31 -40 84 -40zM58 702l103 -76l103 76l11 -9l-114 -171l-114 171z" />
    <glyph glyph-name="Tcommaaccent" unicode="&#x162;" 
d="M171 13h1q16 4 25 12q9 7 13 25t6 51q1 22 1 91v542h-9q-43 0 -73 -6t-51 -21t-33 -42t-21 -67h-17l10 122q1 22 6 27q4 4 18 4h448q14 0 18 -4q5 -5 6 -27l10 -122h-17q-9 41 -22 67q-14 27 -33 42t-50 21q-30 6 -74 6h-7v-542q0 -69 1 -91q1 -33 6 -51q4 -18 13 -25
q9 -8 25 -12v-13h-200v13zM293 -117q-4 -6 -10 -11q-8 -6 -22 -6q-19 0 -33 12q-13 12 -13 34q0 23 15 35t35 12q23 0 42 -16q20 -17 20 -51q0 -40 -24 -64q-23 -23 -63 -31l-5 11q37 9 50 27q14 19 14 34q0 13 -6 14z" />
    <glyph glyph-name="tcommaaccent" unicode="&#x163;" horiz-adv-x="276" 
d="M173 -10q-51 0 -80 27t-29 78v361h-41v16q19 3 39 15t36 33q18 23 29 52q12 32 18 72h15v-168h89v-19h-89v-336q0 -55 8 -82q7 -25 39 -25q15 0 25 5t17 12l9 -10q-8 -9 -26 -20q-19 -11 -59 -11zM170 -117q-4 -6 -10 -11q-8 -6 -22 -6q-20 0 -33 12t-13 34q0 23 15 35
t35 12q23 0 42 -16q20 -17 20 -51q0 -40 -24 -64q-23 -23 -63 -31l-5 11q37 9 50 27q14 19 14 34q0 13 -6 14z" />
    <glyph glyph-name="Tcaron" unicode="&#x164;" 
d="M171 13h1q16 4 25 12q9 7 13 25t6 51q1 22 1 91v542h-9q-43 0 -73 -6t-51 -21t-33 -42t-21 -67h-17l10 122q1 22 6 27q4 4 18 4h448q14 0 18 -4q5 -5 6 -27l10 -122h-17q-9 41 -22 67q-14 27 -33 42t-50 21q-30 6 -74 6h-7v-542q0 -69 1 -91q1 -33 6 -51q4 -18 13 -25
q9 -8 25 -12v-13h-200v13zM153 924l120 -47l121 47l4 -12l-125 -116l-125 116z" />
    <glyph glyph-name="tcaron" unicode="&#x165;" horiz-adv-x="276" 
d="M173 -10q-51 0 -80 27t-29 78v361h-41v16q19 3 39 15t36 33q18 23 29 52q12 32 18 72h15v-168h89v-19h-89v-336q0 -55 8 -82q7 -25 39 -25q15 0 25 5t17 12l9 -10q-8 -9 -26 -20q-19 -11 -59 -11zM198 542l8 132q5 62 40 62q16 0 25 -9t9 -26q0 -9 -3 -19q-2 -7 -8 -21
l-59 -122z" />
    <glyph glyph-name="Tbar" unicode="&#x166;" 
d="M95 429h352v-16h-352v16zM171 13h1q16 4 25 12q9 7 13 25t6 51q1 22 1 91v542h-9q-43 0 -73 -6t-51 -21t-33 -42t-21 -67h-17l10 122q1 22 6 27q4 4 18 4h448q14 0 18 -4q5 -5 6 -27l10 -122h-17q-9 41 -22 67q-14 27 -33 42t-50 21q-30 6 -74 6h-7v-542q0 -69 1 -91
q1 -33 6 -51q4 -18 13 -25q9 -8 25 -12v-13h-200v13z" />
    <glyph glyph-name="tbar" unicode="&#x167;" horiz-adv-x="276" 
d="M22 308h227v-17h-227v17zM173 -10q-51 0 -80 27t-29 78v361h-41v16q19 3 39 15t36 33q18 23 29 52q12 32 18 72h15v-168h89v-19h-89v-336q0 -55 8 -82q7 -25 39 -25q15 0 25 5t17 12l9 -10q-8 -9 -26 -20q-19 -11 -59 -11z" />
    <glyph glyph-name="Utilde" unicode="&#x168;" horiz-adv-x="562" 
d="M299 -14l3 -3q-57 0 -99 13q-43 13 -74 41q-30 27 -47 71q-16 42 -16 103v345q0 70 -1 92q-1 33 -6 51q-4 17 -12 25q-7 8 -21 12v13h194v-13q-15 -4 -24 -12q-9 -7 -13 -25q-5 -18 -6 -51q-1 -22 -1 -91v-362q0 -53 6 -90t21 -60q15 -22 41 -33q24 -10 65 -10
q88 0 128 46q41 47 41 150v348q0 68 -1 90q-2 35 -7 53q-6 20 -18 29t-33 18v13h120v-13q-15 -9 -24 -18q-9 -8 -13 -28q-5 -20 -6 -52q-1 -22 -1 -90v-348q0 -110 -46 -162t-150 -52zM278 878l1 -2q25 0 51 -3t44 -3q10 0 23 8t29 30l12 -4q-21 -96 -72 -96q-24 0 -49 3
t-48 3q-11 0 -22 -7t-28 -30l-12 4q13 51 32 74q18 23 39 23z" />
    <glyph glyph-name="utilde" unicode="&#x169;" horiz-adv-x="465" 
d="M164 -9v-5q-20 0 -38 6q-17 6 -33 20q-15 14 -24 36t-9 54v217q0 27 -1 36q-1 13 -6 21t-13 11q-9 3 -24 6v14l141 75v-392q0 -34 12 -51t31 -17q20 0 45 18t63 57l1 1v223q0 27 -1 36q-2 13 -6 21q-5 8 -13 11q-9 3 -24 6v14l141 75v-369v-48q0 -19 3 -29q3 -9 11 -16
q6 -5 21 -10v-13h-134v79l-1 -1q-39 -40 -72 -64q-31 -22 -70 -22zM202 636l-2 -1q26 0 48 -6t42 -6q10 0 21 9q10 8 27 32l12 -6q-13 -47 -28 -71q-17 -26 -42 -26q-22 0 -45 6t-45 6q-11 0 -22 -8q-10 -7 -27 -32l-12 6q15 45 32 72q16 25 41 25z" />
    <glyph glyph-name="Umacron" unicode="&#x16a;" horiz-adv-x="562" 
d="M299 -14l3 -3q-57 0 -99 13q-43 13 -74 41q-30 27 -47 71q-16 42 -16 103v345q0 70 -1 92q-1 33 -6 51q-4 17 -12 25q-7 8 -21 12v13h194v-13q-15 -4 -24 -12q-9 -7 -13 -25q-5 -18 -6 -51q-1 -22 -1 -91v-362q0 -53 6 -90t21 -60q15 -22 41 -33q24 -10 65 -10
q88 0 128 46q41 47 41 150v348q0 68 -1 90q-2 35 -7 53q-6 20 -18 29t-33 18v13h120v-13q-15 -9 -24 -18q-9 -8 -13 -28q-5 -20 -6 -52q-1 -22 -1 -90v-348q0 -110 -46 -162t-150 -52zM419 804h-208v47h208v-47z" />
    <glyph glyph-name="umacron" unicode="&#x16b;" horiz-adv-x="465" 
d="M164 -9v-5q-20 0 -38 6q-17 6 -33 20q-15 14 -24 36t-9 54v217q0 27 -1 36q-1 13 -6 21t-13 11q-9 3 -24 6v14l141 75v-392q0 -34 12 -51t31 -17q20 0 45 18t63 57l1 1v223q0 27 -1 36q-2 13 -6 21q-5 8 -13 11q-9 3 -24 6v14l141 75v-369v-48q0 -19 3 -29q3 -9 11 -16
q6 -5 21 -10v-13h-134v79l-1 -1q-39 -40 -72 -64q-31 -22 -70 -22zM342 607v-45h-196v45h196z" />
    <glyph glyph-name="Ubreve" unicode="&#x16c;" horiz-adv-x="562" 
d="M299 -14l3 -3q-57 0 -99 13q-43 13 -74 41q-30 27 -47 71q-16 42 -16 103v345q0 70 -1 92q-1 33 -6 51q-4 17 -12 25q-7 8 -21 12v13h194v-13q-15 -4 -24 -12q-9 -7 -13 -25q-5 -18 -6 -51q-1 -22 -1 -91v-362q0 -53 6 -90t21 -60q15 -22 41 -33q24 -10 65 -10
q88 0 128 46q41 47 41 150v348q0 68 -1 90q-2 35 -7 53q-6 20 -18 29t-33 18v13h120v-13q-15 -9 -24 -18q-9 -8 -13 -28q-5 -20 -6 -52q-1 -22 -1 -90v-348q0 -110 -46 -162t-150 -52zM316 858v-2q36 0 55 11q18 11 27 33h16q-2 -44 -25 -75q-24 -31 -72 -31q-47 0 -73 32
q-25 31 -27 77h16q7 -21 27 -33t56 -12z" />
    <glyph glyph-name="ubreve" unicode="&#x16d;" horiz-adv-x="465" 
d="M164 -9v-5q-20 0 -38 6q-17 6 -33 20q-15 14 -24 36t-9 54v217q0 27 -1 36q-1 13 -6 21t-13 11q-9 3 -24 6v14l141 75v-392q0 -34 12 -51t31 -17q20 0 45 18t63 57l1 1v223q0 27 -1 36q-2 13 -6 21q-5 8 -13 11q-9 3 -24 6v14l141 75v-369v-48q0 -19 3 -29q3 -9 11 -16
q6 -5 21 -10v-13h-134v79l-1 -1q-39 -40 -72 -64q-31 -22 -70 -22zM245 593l3 2q34 0 51 15t24 37h16q0 -21 -6 -42q-6 -20 -18 -37q-12 -16 -30 -27q-17 -10 -40 -10q-22 0 -40 9q-17 9 -30 26q-12 17 -18 37q-6 21 -6 43h16q6 -20 24 -37q17 -16 54 -16z" />
    <glyph glyph-name="Uring" unicode="&#x16e;" horiz-adv-x="562" 
d="M299 -14l3 -3q-57 0 -99 13q-43 13 -74 41q-30 27 -47 71q-16 42 -16 103v345q0 70 -1 92q-1 33 -6 51q-4 17 -12 25q-7 8 -21 12v13h194v-13q-15 -4 -24 -12q-9 -7 -13 -25q-5 -18 -6 -51q-1 -22 -1 -91v-362q0 -53 6 -90t21 -60q15 -22 41 -33q24 -10 65 -10
q88 0 128 46q41 47 41 150v348q0 68 -1 90q-2 35 -7 53q-6 20 -18 29t-33 18v13h120v-13q-15 -9 -24 -18q-9 -8 -13 -28q-5 -20 -6 -52q-1 -22 -1 -90v-348q0 -110 -46 -162t-150 -52zM237 838h1q0 34 24 55t59 21t59 -21t24 -55q0 -35 -24 -56t-60 -21q-35 0 -59 21t-24 56
zM279 838h1q0 -61 43 -61q44 0 44 61q0 29 -12 44t-33 15q-19 0 -31 -15t-12 -44z" />
    <glyph glyph-name="uring" unicode="&#x16f;" horiz-adv-x="465" 
d="M164 -9v-5q-20 0 -38 6q-17 6 -33 20q-15 14 -24 36t-9 54v217q0 27 -1 36q-1 13 -6 21t-13 11q-9 3 -24 6v14l141 75v-392q0 -34 12 -51t31 -17q20 0 45 18t63 57l1 1v223q0 27 -1 36q-2 13 -6 21q-5 8 -13 11q-9 3 -24 6v14l141 75v-369v-48q0 -19 3 -29q3 -9 11 -16
q6 -5 21 -10v-13h-134v79l-1 -1q-39 -40 -72 -64q-31 -22 -70 -22zM164 599h2q0 34 24 55t56 21t56 -21t24 -55q0 -35 -24 -56t-57 -21t-57 21t-24 56zM207 599h-1q0 -61 39 -61q40 0 40 61q0 28 -11 44q-10 15 -29 15q-17 0 -28 -15q-10 -14 -10 -44z" />
    <glyph glyph-name="Uhungarumlaut" unicode="&#x170;" horiz-adv-x="562" 
d="M299 -14l3 -3q-57 0 -99 13q-43 13 -74 41q-30 27 -47 71q-16 42 -16 103v345q0 70 -1 92q-1 33 -6 51q-4 17 -12 25q-7 8 -21 12v13h194v-13q-15 -4 -24 -12q-9 -7 -13 -25q-5 -18 -6 -51q-1 -22 -1 -91v-362q0 -53 6 -90t21 -60q15 -22 41 -33q24 -10 65 -10
q88 0 128 46q41 47 41 150v348q0 68 -1 90q-2 35 -7 53q-6 20 -18 29t-33 18v13h120v-13q-15 -9 -24 -18q-9 -8 -13 -28q-5 -20 -6 -52q-1 -22 -1 -90v-348q0 -110 -46 -162t-150 -52zM359 805l51 77q13 18 22 27q11 11 27 11t24 -11t8 -21q0 -14 -9 -23q-10 -9 -23 -17
l-92 -54zM232 804l52 77q13 18 22 27q11 11 27 11t24 -11t8 -21q0 -14 -9 -23q-10 -9 -23 -17l-93 -54z" />
    <glyph glyph-name="uhungarumlaut" unicode="&#x171;" horiz-adv-x="465" 
d="M164 -9v-5q-20 0 -38 6q-17 6 -33 20q-15 14 -24 36t-9 54v217q0 27 -1 36q-1 13 -6 21t-13 11q-9 3 -24 6v14l141 75v-392q0 -34 12 -51t31 -17q20 0 45 18t63 57l1 1v223q0 27 -1 36q-2 13 -6 21q-5 8 -13 11q-9 3 -24 6v14l141 75v-369v-48q0 -19 3 -29q3 -9 11 -16
q6 -5 21 -10v-13h-134v79l-1 -1q-39 -40 -72 -64q-31 -22 -70 -22zM295 530l35 127q6 22 15 34t28 12q15 0 24 -9t9 -23q0 -19 -17 -39l-84 -107zM173 529l37 127q6 22 15 34t27 12q16 0 24 -9q8 -10 8 -23q0 -20 -16 -39l-85 -107z" />
    <glyph glyph-name="Uogonek" unicode="&#x172;" horiz-adv-x="562" 
d="M331 -168l-1 -7q-35 0 -59 18t-24 47q0 16 8 30q7 14 20 26q11 11 29 21q16 9 33 15q-18 -2 -21 -2h-17q-57 0 -99 13q-43 13 -74 41q-30 27 -47 71q-16 42 -16 103v345q0 70 -1 92q-2 33 -6 51q-4 17 -12 25q-8 7 -21 12v13h194v-13q-15 -5 -24 -12t-13 -25t-6 -51
q-1 -22 -1 -91v-362q0 -52 6 -90t21 -60t41 -33q24 -10 65 -10q88 0 128 46q41 47 41 150v348q0 68 -1 90q-2 35 -7 53q-6 20 -18 29t-33 18v13h120v-13q-15 -9 -24 -18t-13 -28q-5 -20 -6 -52q-1 -22 -1 -90v-348q0 -75 -21 -123q-21 -47 -69 -70q-28 -14 -48 -36
q-19 -22 -19 -60q0 -21 10 -32q11 -12 30 -12q11 0 18 6l15 12l9 -10q-2 -2 -10 -12q-5 -6 -17 -13q-13 -7 -25 -11q-13 -4 -34 -4z" />
    <glyph glyph-name="uogonek" unicode="&#x173;" horiz-adv-x="465" 
d="M164 -9l-3 -8q-20 0 -38 6q-17 6 -33 20q-15 13 -24 36t-9 54v217q0 27 -1 36q-2 14 -6 21q-5 8 -13 11q-9 3 -24 6v14l141 75v-392q0 -35 12 -51q12 -17 31 -17t45 18t63 57l1 1v223q0 27 -1 36q-1 14 -6 21q-5 8 -13 11q-9 3 -24 6v14l141 75v-369v-48q0 -18 3 -29
q3 -9 11 -16q6 -5 21 -10v-13h-112q-14 -13 -25 -36q-10 -21 -10 -54q0 -21 10 -32q11 -12 30 -12q11 0 18 6l15 12l9 -10q-2 -2 -10 -12q-5 -6 -17 -13q-13 -7 -25 -11q-13 -4 -34 -4q-37 0 -60 18t-23 47q0 21 12 38q13 18 28 30q16 13 34 22q22 11 29 14v79l-1 -1
q-39 -40 -72 -64q-31 -22 -70 -22z" />
    <glyph glyph-name="Wcircumflex" unicode="&#x174;" horiz-adv-x="791" 
d="M73 623l-3 -12q-12 38 -15 47q-7 20 -12 32q-6 14 -13 21q-9 9 -18 14v14h177v-14q-13 -3 -19 -7q-8 -5 -9 -13t2 -24q2 -11 11 -39l150 -498l70 228l-74 242q-7 21 -15 47q-6 19 -12 33q-6 13 -14 21q-7 7 -18 12v14h175v-14q-13 -3 -18 -7q-6 -4 -7 -13q-1 -8 2 -24
q2 -11 11 -41l39 -137l33 112q14 43 15 72q1 28 -29 42v14h93v-14q-11 -5 -18 -9t-13 -16q-6 -13 -12 -31q-2 -6 -7 -24t-9 -30l-43 -144l93 -327l128 470q14 46 11 74q-3 29 -43 39v14h114v-14q-6 -3 -16 -9q-8 -4 -15 -15q-8 -11 -15 -31q-6 -17 -16 -55l-172 -630h-27
l-109 359l-110 -359h-27zM410 904l125 -116l-4 -12l-121 47l-120 -47l-5 12z" />
    <glyph glyph-name="wcircumflex" unicode="&#x175;" horiz-adv-x="583" 
d="M61 355l-3 -3q-3 9 -9 27.5t-8 25.5q-6 19 -12 30q-7 12 -10 15q-5 5 -12 8v13h158v-13q-10 -1 -16 -6q-5 -4 -7 -15t3 -30t15 -51l72 -235l59 162l-21 70q-4 12 -9 30t-7 24q-6 19 -12 30t-12 15q-5 4 -13 7v13h162v-13q-11 -2 -17 -6q-7 -5 -8 -15q-1 -9 2 -30
q3 -20 12 -51l63 -223l62 201q13 40 18 65q4 23 1 37t-13 18q-11 5 -25 6v13h101v-13q-10 -3 -15 -7q-6 -4 -12 -17q-7 -15 -14 -36q-10 -32 -21 -65l-106 -343h-26l-80 264l-96 -264h-25zM299 698l114 -171l-11 -9l-103 76l-103 -76l-11 9z" />
    <glyph glyph-name="Ycircumflex" unicode="&#x176;" horiz-adv-x="522" 
d="M168 13l-2 -2q15 5 24 12q10 8 14 25q4 18 6 51q1 22 1 91v180l-121 254q-9 22 -18 39t-18 30q-10 15 -19 24t-24 19v13h192v-13q-23 -8 -26 -22q-3 -15 9 -45l123 -267l98 221q11 25 19 50q6 18 4 32q-2 13 -12 20t-30 12v13h117v-13q-11 -5 -18 -9t-15 -15
q-7 -9 -18 -32q-8 -15 -25 -57l-108 -241v-191q0 -69 1 -91q2 -33 6 -51t13 -25q9 -8 25 -12v-13h-198v13zM295 914l125 -116l-4 -12l-121 47l-120 -47l-5 12z" />
    <glyph glyph-name="ycircumflex" unicode="&#x177;" horiz-adv-x="408" 
d="M75 -165l-6 -2q-29 0 -42 12t-13 29q0 18 10 27t27 9q13 0 20 -3q10 -4 15 -7l14 -7q6 -3 15 -3q7 0 15 3t17 14q10 12 20 30q11 19 24 51l3 8l-135 365q-17 48 -19 52q-9 22 -13 30q-5 9 -11 15q-4 4 -12 7v13h168v-13q-10 -1 -18 -6t-9 -15t3 -30t15 -51l79 -236
l75 212q13 39 18 63q5 25 2 37q-3 13 -12 18q-9 4 -23 6v13h97v-13q-7 -1 -13 -6t-12 -18q-7 -16 -15 -37q-15 -40 -23 -64l-125 -353q-17 -43 -33 -72q-16 -27 -33 -46q-16 -18 -34 -25q-17 -7 -36 -7zM223 699l114 -171l-11 -9l-103 76l-103 -76l-11 9z" />
    <glyph glyph-name="Ydieresis" unicode="&#x178;" horiz-adv-x="522" 
d="M168 13l-2 -2q15 5 24 12q10 8 14 25q4 18 6 51q1 22 1 91v180l-121 254q-9 22 -18 39t-18 30q-10 15 -19 24t-24 19v13h192v-13q-23 -8 -26 -22q-3 -15 9 -45l123 -267l98 221q11 25 19 50q6 18 4 32q-2 13 -12 20t-30 12v13h117v-13q-11 -5 -18 -9t-15 -15
q-7 -9 -18 -32q-8 -15 -25 -57l-108 -241v-191q0 -69 1 -91q2 -33 6 -51t13 -25q9 -8 25 -12v-13h-198v13zM381 793q-23 0 -38 16q-15 17 -15 39q0 23 15 38t38 15t38 -15t15 -38q0 -22 -15 -39q-15 -16 -38 -16zM209 793q-23 0 -38 16q-15 17 -15 39q0 23 15 38t38 15
t39 -15t16 -38t-16 -39t-39 -16z" />
    <glyph glyph-name="Zacute" unicode="&#x179;" horiz-adv-x="518" 
d="M342 734h-73q-53 0 -88 -9q-36 -9 -57 -25q-22 -16 -37 -40q-10 -16 -31 -56h-15l27 146h402l-318 -734h92q60 0 102 8q37 7 64 26q25 17 40 48q14 29 30 74h14l-22 -172h-444zM173 803l121 83q11 7 23 12t24 5q17 0 26 -10q9 -11 9 -24q0 -16 -11 -30q-10 -13 -39 -19
l-148 -30z" />
    <glyph glyph-name="zacute" unicode="&#x17a;" horiz-adv-x="380" 
d="M343 -13l-3 -2q-5 3 -17 7q-7 2 -25 4q-22 2 -43 2h-69h-172l227 459h-47q-44 0 -69 -6q-26 -6 -41 -18t-24 -30t-18 -42h-15l24 127q6 -4 19 -7q9 -2 30 -4q24 -2 43 -2h63h147l-230 -459h64q43 0 69 6q25 6 42 20q16 13 27 38q14 32 23 58h15zM130 529l79 124
q13 20 24 31q10 10 27 10t26 -10t9 -27q0 -16 -9 -28q-8 -11 -24 -22l-121 -87z" />
    <glyph glyph-name="Zdotaccent" unicode="&#x17b;" horiz-adv-x="518" 
d="M342 734h-73q-53 0 -88 -9q-36 -9 -57 -25q-22 -16 -37 -40q-10 -16 -31 -56h-15l27 146h402l-318 -734h92q60 0 102 8q37 7 64 26q25 17 40 48q14 29 30 74h14l-22 -172h-444zM256 795l-1 -2q-22 0 -39 17t-17 41t17 41t39 17q26 0 42 -16q17 -17 17 -39q0 -26 -16 -42
q-17 -17 -42 -17z" />
    <glyph glyph-name="zdotaccent" unicode="&#x17c;" horiz-adv-x="380" 
d="M343 -13l-3 -2q-5 3 -17 7q-7 2 -25 4q-22 2 -43 2h-69h-172l227 459h-47q-44 0 -69 -6q-26 -6 -41 -18t-24 -30t-18 -42h-15l24 127q6 -4 19 -7q9 -2 30 -4q24 -2 43 -2h63h147l-230 -459h64q43 0 69 6q25 6 42 20q16 13 27 38q14 32 23 58h15zM193 551h-1q-22 0 -39 18
q-17 19 -17 42q0 22 17 39t39 17q26 0 42 -16q17 -17 17 -39q0 -26 -16 -43q-17 -18 -42 -18z" />
    <glyph glyph-name="Zcaron" unicode="&#x17d;" horiz-adv-x="518" 
d="M342 734h-73q-53 0 -88 -9q-36 -9 -57 -25q-22 -16 -37 -40q-10 -16 -31 -56h-15l27 146h402l-318 -734h92q60 0 102 8q37 7 64 26q25 17 40 48q14 29 30 74h14l-22 -172h-444zM137 924l120 -47l121 47l4 -12l-125 -116l-125 116z" />
    <glyph glyph-name="zcaron" unicode="&#x17e;" horiz-adv-x="380" 
d="M343 -13l-3 -2q-5 3 -17 7q-7 2 -25 4q-22 2 -43 2h-69h-172l227 459h-47q-44 0 -69 -6q-26 -6 -41 -18t-24 -30t-18 -42h-15l24 127q6 -4 19 -7q9 -2 30 -4q24 -2 43 -2h63h147l-230 -459h64q43 0 69 6q25 6 42 20q16 13 27 38q14 32 23 58h15zM90 705l103 -76l103 76
l11 -9l-114 -171l-114 171z" />
    <glyph glyph-name="uni0192" unicode="&#x192;" horiz-adv-x="415" 
d="M81 475l66 -5l11 91q8 59 24 98t39 63t48 33q26 9 50 9q40 0 69 -17t29 -45q0 -13 -9 -25t-29 -12q-21 0 -30 10q-8 10 -13 30q-6 25 -11 35q-5 9 -15 9q-18 0 -31 -25q-13 -24 -22 -96l-19 -158h85v-19h-87l-39 -317q-9 -74 -27 -123q-18 -48 -41 -78q-22 -28 -49 -40
t-52 -12q-21 0 -37 4q-17 4 -31 12q-13 7 -22 18t-9 26q0 13 8 26q7 12 27 12q23 0 30 -10q8 -11 12 -30q4 -25 12 -33q7 -7 18 -7t20 9q10 10 17 34q7 26 15 72q9 58 17 123l39 319h-63v19z" />
    <glyph glyph-name="Aringacute" unicode="&#x1fa;" horiz-adv-x="571" 
d="M12 13l2 -4q10 5 18 12t15 21t15 36q10 29 17 57l148 528l-3 11q-11 36 -23 47t-27 15v13h127q11 0 14 -4q4 -6 8 -18l175 -601q17 -57 27 -80t33 -31v-15h-180v15q24 3 27 18q3 16 -7 53l-40 133h-238l-24 -84q-6 -23 -10 -48q-3 -21 0 -36q3 -16 13 -24q11 -10 31 -14
v-13h-118v13zM356 232l-118 396l-111 -396h229zM169 859h1q0 34 24 55t59 21t59 -21t24 -55q0 -35 -24 -56t-60 -21q-35 0 -59 21t-24 56zM211 859h1q0 -61 43 -61q44 0 44 61q0 29 -12 44t-33 15q-19 0 -31 -15t-12 -44zM165 960l121 83q11 7 23 12t24 5q17 0 26 -10t9 -24
q0 -16 -11 -30q-10 -13 -39 -19l-148 -30z" />
    <glyph glyph-name="aringacute" unicode="&#x1fb;" horiz-adv-x="419" 
d="M136 -9l-5 -2q-46 0 -76 27t-30 78q0 34 14 56q13 21 36 36t51 27q19 8 57 26l13 5q27 14 42 28q16 15 16 51v74q0 43 -17 57t-44 14q-23 0 -36 -15t-24 -39q-7 -16 -18 -27q-10 -10 -30 -10q-16 0 -27 11q-10 10 -10 24q0 29 39 50t104 21q34 0 64 -6q31 -6 52 -19
q23 -14 35 -36q12 -23 12 -59v-237q0 -30 2 -60q1 -20 5 -33q3 -11 9 -14t15 -3q16 0 27 8l5 -11q-7 -5 -24 -12q-18 -8 -51 -8q-40 0 -60 18q-20 19 -23 48l-4 -4q-24 -27 -51 -46q-26 -18 -68 -18zM124 113h-2q0 -94 53 -94q15 0 32 14q17 13 42 39l3 3v192
q-8 -12 -22 -21q-11 -7 -34 -19l-13 -5q-36 -20 -47 -43q-12 -24 -12 -66zM115 602h2q0 34 24 55t56 21t56 -21t24 -55q0 -35 -24 -56t-57 -21t-57 21t-24 56zM158 602h-1q0 -61 39 -61q40 0 40 61q0 28 -11 44q-11 15 -29 15t-28 -15q-10 -14 -10 -44zM107 706l121 83
q11 7 23 12t24 5q17 0 26 -10t9 -24q0 -16 -11 -30q-10 -13 -39 -19l-148 -30z" />
    <glyph glyph-name="AEacute" unicode="&#x1fc;" horiz-adv-x="764" 
d="M576 331l1 3q-3 11 -9 31q-5 16 -16 26q-13 11 -34 17q-22 6 -61 6h-1v-396h72q43 0 78 5q32 5 54 19q23 15 38 41q15 25 27 69h18l-13 -118q-1 -22 -8 -27q-5 -4 -22 -4h-400v13q16 4 25 12q9 7 13 25t6 51q1 22 1 91v40h-201l-43 -107q-13 -32 -18 -51q-5 -21 -2 -32
t12 -19q9 -7 23 -12v-12h-111v12q12 6 17 9q8 5 15 15q7 9 18 32q13 25 26 56l225 555q11 29 6 41q-5 13 -34 17v13h399q11 0 15 -4t9 -27l18 -106h-17q-13 36 -29 60q-15 23 -37 36q-23 14 -52 18q-33 5 -72 5h-57v-306h1q39 0 61 6q21 6 34 17q11 10 16 26q3 10 9 32h14
v-178h-14zM346 251v480l-194 -480h194zM413 806l121 83q11 7 23 12t24 5q17 0 26 -10t9 -24q0 -16 -11 -30q-10 -13 -39 -19l-148 -30z" />
    <glyph glyph-name="aeacute" unicode="&#x1fd;" horiz-adv-x="642" 
d="M140 -9v4q-49 0 -79 27t-30 78q0 34 14 56q13 21 36 36t51 27q19 8 57 26l13 5q27 14 42 28q16 15 16 51v74q0 43 -17 57t-44 14q-23 0 -36 -15t-24 -39q-7 -16 -18 -27q-10 -10 -30 -10q-16 0 -27 11q-10 10 -10 24q0 29 39 50t104 21q48 0 84 -10q37 -11 57 -39
q28 26 56 38t54 12q73 0 112 -45q38 -44 46 -130h-242q-1 -9 -1 -27v-30q0 -116 31 -177t96 -61q37 0 57 10q24 12 41 25l9 -13q-19 -16 -48 -33q-28 -16 -78 -16q-53 0 -97 22q-46 23 -74 70l-22 -22q-18 -19 -33 -33q-13 -12 -30 -22q-14 -8 -33 -13q-16 -4 -42 -4z
M447 473l1 -2q-14 0 -27 -6q-14 -6 -24 -22q-12 -19 -20 -43q-8 -25 -13 -68h146q-2 75 -15 108t-48 33zM130 117h-4q0 -94 52 -94q20 0 41 12q20 11 48 41l20 20q-14 29 -21 64q-8 38 -8 81v30q-8 -12 -22 -21q-11 -7 -34 -19l-13 -5q-36 -20 -47 -43q-12 -24 -12 -66z
M256 533l79 124q13 20 24 31q10 10 27 10t26 -10t9 -27q0 -16 -9 -28q-8 -11 -24 -22l-121 -87z" />
    <glyph glyph-name="Oslashacute" unicode="&#x1fe;" horiz-adv-x="642" 
d="M321 -14l-3 -2q-34 0 -71 14t-68 39l-34 -78l-16 8l36 83q-55 49 -91 132q-36 82 -36 192q0 91 25 162q26 73 66 122t91 76t101 27q68 0 133 -47l29 68l16 -8l-31 -71q57 -48 95 -131q38 -84 38 -197q0 -90 -25 -161q-26 -72 -66 -123t-90 -78t-99 -27zM158 374l-2 -1
q0 -83 9 -147q9 -62 26 -111l235 544q-43 84 -110 84q-34 0 -63 -23t-50 -69q-21 -47 -33 -115q-12 -69 -12 -162zM316 0v-1q72 0 116 93q44 94 44 280q0 90 -10 153q-10 65 -30 112l-235 -545q42 -92 115 -92zM227 799l121 83q11 7 23 12t24 5q17 0 26 -10q9 -11 9 -24
q0 -16 -11 -30q-10 -13 -39 -19l-148 -30z" />
    <glyph glyph-name="oslashacute" unicode="&#x1ff;" horiz-adv-x="464" 
d="M314 395l-160 -322q26 -65 78 -65q46 0 73 53t27 177q0 103 -18 157zM306 417l-1 -1q-13 27 -32 40q-18 12 -41 12t-41 -12q-17 -12 -31 -39q-13 -27 -21 -71q-7 -41 -7 -108q0 -85 14 -141zM102 -29l-16 4l28 56q-37 30 -63 80q-25 49 -25 122q0 63 20 111q19 47 50 77
q30 30 66 45t68 15q25 0 47 -7q25 -8 47 -21l22 44l15 -8l-23 -46q38 -28 67 -80q28 -50 28 -128q0 -61 -20 -109q-19 -45 -50 -76q-30 -30 -66 -45t-67 -15q-24 0 -50 9q-24 8 -51 26zM167 525l79 124q13 20 24 31q10 10 27 10t26 -10t9 -27q0 -16 -9 -28q-8 -11 -24 -22
l-121 -87z" />
    <glyph glyph-name="uni0218" unicode="&#x218;" horiz-adv-x="480" 
d="M220 -10l4 -3q-31 0 -58 8q-23 7 -45 17q-14 7 -33 17q-14 8 -24 8q-11 0 -17 -19h-13v197h15q17 -101 57 -156q41 -56 114 -56q68 0 103 33q34 33 34 96q0 37 -10 64q-11 28 -30 54q-19 24 -50 51q-28 23 -71 54q-30 22 -63 50q-26 21 -49 50q-21 25 -33 57t-12 70
q0 39 14 73q13 32 39 55q25 22 60 34q34 12 75 12q25 0 48 -5q16 -4 37 -11q6 -2 16.5 -6t12.5 -5q13 -5 23 -5q11 0 14 6q4 7 5 14h14v-150h-15q-20 77 -59 113t-96 36q-58 0 -84 -25q-27 -26 -27 -72q0 -50 36 -94t102 -93q40 -29 75 -57q36 -30 60 -58t40 -65
q15 -35 15 -75q0 -52 -20 -94q-19 -40 -51 -67q-31 -26 -72 -40q-39 -13 -81 -13zM254 -120q-4 -6 -10 -11q-7 -6 -22 -6q-20 0 -33 12t-13 34q0 23 15 35t35 12q23 0 42 -16q20 -17 20 -51q0 -40 -24 -64q-23 -23 -63 -31l-5 11q37 9 50 27q14 19 14 34q0 12 -6 14z" />
    <glyph glyph-name="uni0219" unicode="&#x219;" horiz-adv-x="352" 
d="M180 9l-12 -5q38 0 57 22t19 57q0 34 -21 61t-76 57q-32 17 -57 35q-22 16 -36 35q-13 17 -19 39q-6 21 -6 50q0 27 10 48q11 22 27 39q16 16 39 25t48 9q19 0 32 -3q16 -3 25 -7q8 -3 22 -7q10 -3 23 -3q14 0 17 14h15v-123l-15 1q-16 61 -48 87t-69 26q-29 0 -48 -15
t-19 -47q0 -16 6 -30q6 -13 18 -25t30 -24q14 -10 44 -27q40 -20 66 -39q27 -20 41 -39q15 -20 21 -43q6 -24 6 -54q0 -28 -12 -52t-33 -42q-20 -17 -46 -28q-24 -10 -51 -10q-25 0 -43 6q-19 6 -31 13q-21 12 -23 13q-9 6 -18 6q-13 0 -16 -18h-16v144h15q18 -64 50 -106
q31 -40 84 -40zM183 -122q-4 -6 -10 -11q-8 -6 -22 -6q-19 0 -33 12q-13 12 -13 34q0 23 15 35t35 12q23 0 42 -16q20 -17 20 -51q0 -40 -24 -64q-23 -23 -63 -31l-5 11q37 9 50 27q14 19 14 34q0 12 -6 14z" />
    <glyph glyph-name="uni021A" unicode="&#x21a;" 
d="M171 13h1q16 4 25 12q9 7 13 25t6 51q1 22 1 91v542h-9q-43 0 -73 -6t-51 -21t-33 -42t-21 -67h-17l10 122q1 22 6 27q4 4 18 4h448q14 0 18 -4q5 -5 6 -27l10 -122h-17q-9 41 -22 67q-14 27 -33 42t-50 21q-30 6 -74 6h-7v-542q0 -69 1 -91q1 -33 6 -51q4 -18 13 -25
q9 -8 25 -12v-13h-200v13zM293 -117q-4 -6 -10 -11q-8 -6 -22 -6q-19 0 -33 12q-13 12 -13 34q0 23 15 35t35 12q23 0 42 -16q20 -17 20 -51q0 -40 -24 -64q-23 -23 -63 -31l-5 11q37 9 50 27q14 19 14 34q0 13 -6 14z" />
    <glyph glyph-name="uni021B" unicode="&#x21b;" horiz-adv-x="276" 
d="M173 -10q-51 0 -80 27t-29 78v361h-41v16q19 3 39 15t36 33q18 23 29 52q12 32 18 72h15v-168h89v-19h-89v-336q0 -55 8 -82q7 -25 39 -25q15 0 25 5t17 12l9 -10q-8 -9 -26 -20q-19 -11 -59 -11zM170 -117q-4 -6 -10 -11q-8 -6 -22 -6q-20 0 -33 12t-13 34q0 23 15 35
t35 12q23 0 42 -16q20 -17 20 -51q0 -40 -24 -64q-23 -23 -63 -31l-5 11q37 9 50 27q14 19 14 34q0 13 -6 14z" />
    <glyph glyph-name="uni0237" unicode="&#x237;" horiz-adv-x="221" 
d="M-21 -153l-1 -2q-18 0 -32 11t-14 30t12 28t26 9q12 0 22 -6q7 -4 19 -14q6 -5 16 -13q7 -6 15 -6q5 0 9 4q3 4 5 8t3 15q2 14 2 28v48v321q0 32 -1 43q-1 16 -6 25q-4 9 -13 13q-7 4 -24 7v14l140 75v-427q0 -60 -20 -102q-19 -40 -63 -72q-31 -22 -53 -30
q-20 -7 -42 -7z" />
    <glyph glyph-name="circumflex" unicode="&#x2c6;" horiz-adv-x="446" 
d="M228 701l114 -171l-11 -9l-103 76l-103 -76l-11 9z" />
    <glyph glyph-name="caron" unicode="&#x2c7;" horiz-adv-x="446" 
d="M125 707l103 -76l103 76l11 -9l-114 -171l-114 171z" />
    <glyph glyph-name="breve" unicode="&#x2d8;" horiz-adv-x="446" 
d="M223 598l3 2q34 0 51 15t24 37h16q0 -21 -6 -42q-6 -20 -18 -37t-30 -27q-17 -10 -40 -10q-22 0 -40 9q-17 9 -30 26q-12 17 -18 37q-6 21 -6 43h16q6 -20 24 -37q17 -16 54 -16z" />
    <glyph glyph-name="dotaccent" unicode="&#x2d9;" horiz-adv-x="446" 
d="M222 553h-1q-23 0 -39 18q-17 19 -17 42q0 22 17 39t39 17q26 0 42 -16q17 -17 17 -39q0 -26 -16 -43q-16 -18 -42 -18z" />
    <glyph glyph-name="ring" unicode="&#x2da;" horiz-adv-x="446" 
d="M151 604h2q0 34 24 55t56 21t56 -21t24 -55q0 -35 -24 -56t-57 -21t-57 21t-24 56zM194 604h-1q0 -61 39 -61q40 0 40 61q0 28 -11 44q-10 15 -29 15q-18 0 -28 -15q-10 -14 -10 -44z" />
    <glyph glyph-name="ogonek" unicode="&#x2db;" horiz-adv-x="446" 
d="M234 -168l-2 -3q-35 0 -59 18t-24 47q0 21 12 39t30 30t36 21q20 10 32 14h25q-19 -14 -32 -36q-14 -23 -14 -54q0 -21 10 -32q10 -12 30 -12q10 0 18 6l15 12l9 -10q-2 -2 -10 -12q-5 -6 -17 -13q-13 -7 -25 -11q-13 -4 -34 -4z" />
    <glyph glyph-name="tilde" unicode="&#x2dc;" horiz-adv-x="446" 
d="M182 641l-2 -1q26 0 48 -6t42 -6q10 0 21 9q10 8 27 32l12 -6q-13 -47 -28 -71q-17 -26 -42 -26q-22 0 -45 6t-45 6q-11 0 -22 -8q-10 -7 -27 -32l-12 6q15 45 32 72q16 25 41 25z" />
    <glyph glyph-name="hungarumlaut" unicode="&#x2dd;" horiz-adv-x="446" 
d="M238 535l35 127q6 22 15 34t28 12q15 0 24 -9t9 -23q0 -19 -17 -39l-84 -107zM116 534l37 127q6 22 15 34t27 12q17 0 24 -9q8 -10 8 -23q0 -20 -16 -39l-85 -107z" />
    <glyph glyph-name="Wgrave" unicode="&#x1e80;" horiz-adv-x="791" 
d="M73 623l-3 -12q-12 38 -15 47q-7 20 -12 32q-6 14 -13 21q-9 9 -18 14v14h177v-14q-13 -3 -19 -7q-8 -5 -9 -13t2 -24q2 -11 11 -39l150 -498l70 228l-74 242q-7 21 -15 47q-6 19 -12 33q-6 13 -14 21q-7 7 -18 12v14h175v-14q-13 -3 -18 -7q-6 -4 -7 -13q-1 -8 2 -24
q2 -11 11 -41l39 -137l33 112q14 43 15 72q1 28 -29 42v14h93v-14q-11 -5 -18 -9t-13 -16q-6 -13 -12 -31q-2 -6 -7 -24t-9 -30l-43 -144l93 -327l128 470q14 46 11 74q-3 29 -43 39v14h114v-14q-6 -3 -16 -9q-8 -4 -15 -15q-8 -11 -15 -31q-6 -17 -16 -55l-172 -630h-27
l-109 359l-110 -359h-27zM348 808v-1q-27 6 -40 20q-12 13 -12 30q0 14 10 24q11 11 27 11q12 0 24 -5q11 -5 21 -12l122 -84l-5 -13z" />
    <glyph glyph-name="wgrave" unicode="&#x1e81;" horiz-adv-x="583" 
d="M61 355l-3 -3q-3 9 -9 27.5t-8 25.5q-6 19 -12 30q-7 12 -10 15q-5 5 -12 8v13h158v-13q-10 -1 -16 -6q-5 -4 -7 -15t3 -30t15 -51l72 -235l59 162l-21 70q-4 12 -9 30t-7 24q-6 19 -12 30t-12 15q-5 4 -13 7v13h162v-13q-11 -2 -17 -6q-7 -5 -8 -15q-1 -9 2 -30
q3 -20 12 -51l63 -223l62 201q13 40 18 65q4 23 1 37t-13 18q-11 5 -25 6v13h101v-13q-10 -3 -15 -7q-6 -4 -12 -17q-7 -15 -14 -36q-10 -32 -21 -65l-106 -343h-26l-80 264l-96 -264h-25zM232 606v-2q-16 11 -24 22q-9 12 -9 29t9 27t26 10t27 -10q11 -11 24 -31l79 -123
l-10 -9z" />
    <glyph glyph-name="Wacute" unicode="&#x1e82;" horiz-adv-x="791" 
d="M73 623l-3 -12q-12 38 -15 47q-7 20 -12 32q-6 14 -13 21q-9 9 -18 14v14h177v-14q-13 -3 -19 -7q-8 -5 -9 -13t2 -24q2 -11 11 -39l150 -498l70 228l-74 242q-7 21 -15 47q-6 19 -12 33q-6 13 -14 21q-7 7 -18 12v14h175v-14q-13 -3 -18 -7q-6 -4 -7 -13q-1 -8 2 -24
q2 -11 11 -41l39 -137l33 112q14 43 15 72q1 28 -29 42v14h93v-14q-11 -5 -18 -9t-13 -16q-6 -13 -12 -31q-2 -6 -7 -24t-9 -30l-43 -144l93 -327l128 470q14 46 11 74q-3 29 -43 39v14h114v-14q-6 -3 -16 -9q-8 -4 -15 -15q-8 -11 -15 -31q-6 -17 -16 -55l-172 -630h-27
l-109 359l-110 -359h-27zM321 791l121 83q11 7 23 12t24 5q17 0 26 -10q9 -11 9 -24q0 -16 -11 -30q-10 -13 -39 -19l-148 -30z" />
    <glyph glyph-name="wacute" unicode="&#x1e83;" horiz-adv-x="583" 
d="M61 355l-3 -3q-3 9 -9 27.5t-8 25.5q-6 19 -12 30q-7 12 -10 15q-5 5 -12 8v13h158v-13q-10 -1 -16 -6q-5 -4 -7 -15t3 -30t15 -51l72 -235l59 162l-21 70q-4 12 -9 30t-7 24q-6 19 -12 30t-12 15q-5 4 -13 7v13h162v-13q-11 -2 -17 -6q-7 -5 -8 -15q-1 -9 2 -30
q3 -20 12 -51l63 -223l62 201q13 40 18 65q4 23 1 37t-13 18q-11 5 -25 6v13h101v-13q-10 -3 -15 -7q-6 -4 -12 -17q-7 -15 -14 -36q-10 -32 -21 -65l-106 -343h-26l-80 264l-96 -264h-25zM235 528l79 124q13 20 24 31q10 10 27 10t26 -10q9 -11 9 -27t-9 -28
q-8 -11 -24 -22l-121 -87z" />
    <glyph glyph-name="Wdieresis" unicode="&#x1e84;" horiz-adv-x="791" 
d="M73 623l-3 -12q-12 38 -15 47q-7 20 -12 32q-6 14 -13 21q-9 9 -18 14v14h177v-14q-13 -3 -19 -7q-8 -5 -9 -13t2 -24q2 -11 11 -39l150 -498l70 228l-74 242q-7 21 -15 47q-6 19 -12 33q-6 13 -14 21q-7 7 -18 12v14h175v-14q-13 -3 -18 -7q-6 -4 -7 -13q-1 -8 2 -24
q2 -11 11 -41l39 -137l33 112q14 43 15 72q1 28 -29 42v14h93v-14q-11 -5 -18 -9t-13 -16q-6 -13 -12 -31q-2 -6 -7 -24t-9 -30l-43 -144l93 -327l128 470q14 46 11 74q-3 29 -43 39v14h114v-14q-6 -3 -16 -9q-8 -4 -15 -15q-8 -11 -15 -31q-6 -17 -16 -55l-172 -630h-27
l-109 359l-110 -359h-27zM496 783q-23 0 -38 16q-15 17 -15 39q0 23 15 38t38 15t38 -15t15 -38q0 -22 -15 -39q-15 -16 -38 -16zM324 783q-23 0 -38 16q-15 17 -15 39q0 23 15 38t38 15q22 0 39 -15q16 -15 16 -38t-16 -39t-39 -16z" />
    <glyph glyph-name="wdieresis" unicode="&#x1e85;" horiz-adv-x="583" 
d="M61 355l-3 -3q-3 9 -9 27.5t-8 25.5q-6 19 -12 30q-7 12 -10 15q-5 5 -12 8v13h158v-13q-10 -1 -16 -6q-5 -4 -7 -15t3 -30t15 -51l72 -235l59 162l-21 70q-4 12 -9 30t-7 24q-6 19 -12 30t-12 15q-5 4 -13 7v13h162v-13q-11 -2 -17 -6q-7 -5 -8 -15q-1 -9 2 -30
q3 -20 12 -51l63 -223l62 201q13 40 18 65q4 23 1 37t-13 18q-11 5 -25 6v13h101v-13q-10 -3 -15 -7q-6 -4 -12 -17q-7 -15 -14 -36q-10 -32 -21 -65l-106 -343h-26l-80 264l-96 -264h-25zM381 553v-2q-23 0 -39 15t-16 41q0 23 16 38t39 15t38 -15t15 -37q0 -25 -15 -40
t-38 -15zM217 551v-2q-23 0 -38 15t-15 41q0 23 15 38t38 15t39 -15t16 -37q0 -25 -16 -40t-39 -15z" />
    <glyph glyph-name="Ygrave" unicode="&#x1ef2;" horiz-adv-x="522" 
d="M168 13l-2 -2q15 5 24 12q10 8 14 25q4 18 6 51q1 22 1 91v180l-121 254q-9 22 -18 39t-18 30q-10 15 -19 24t-24 19v13h192v-13q-23 -8 -26 -22q-3 -15 9 -45l123 -267l98 221q11 25 19 50q6 18 4 32q-2 13 -12 20t-30 12v13h117v-13q-11 -5 -18 -9t-15 -15
q-7 -9 -18 -32q-8 -15 -25 -57l-108 -241v-191q0 -69 1 -91q2 -33 6 -51t13 -25q9 -8 25 -12v-13h-198v13zM232 818v-1q-27 6 -40 20q-12 13 -12 30q0 14 10 24q11 11 27 11q12 0 24 -5q11 -5 21 -12l122 -84l-5 -13z" />
    <glyph glyph-name="ygrave" unicode="&#x1ef3;" horiz-adv-x="408" 
d="M75 -165l-6 -2q-29 0 -42 12t-13 29q0 18 10 27t27 9q13 0 20 -3q10 -4 15 -7l14 -7q6 -3 15 -3q7 0 15 3t17 14q10 12 20 30q11 19 24 51l3 8l-135 365q-17 48 -19 52q-9 22 -13 30q-5 9 -11 15q-4 4 -12 7v13h168v-13q-10 -1 -18 -6t-9 -15t3 -30t15 -51l79 -236
l75 212q13 39 18 63q5 25 2 37q-3 13 -12 18q-9 4 -23 6v13h97v-13q-7 -1 -13 -6t-12 -18q-7 -16 -15 -37q-15 -40 -23 -64l-125 -353q-17 -43 -33 -72q-16 -27 -33 -46q-16 -18 -34 -25q-17 -7 -36 -7zM157 607v-2q-16 11 -24 22q-9 12 -9 29q0 16 9 27q9 10 26 10t27 -10
q11 -11 24 -31l79 -123l-10 -9z" />
    <glyph glyph-name="uni2009" unicode="&#x2009;" horiz-adv-x="82" 
 />
    <glyph glyph-name="endash" unicode="&#x2013;" horiz-adv-x="475" 
d="M44 291h387v-20h-387v20z" />
    <glyph glyph-name="emdash" unicode="&#x2014;" horiz-adv-x="852" 
d="M44 291h765v-20h-765v20z" />
    <glyph glyph-name="quoteleft" unicode="&#x2018;" horiz-adv-x="222" 
d="M90 655l3 -4q5 7 12 12q8 5 21 5q21 0 36 -15t15 -37q0 -27 -18 -42t-43 -15q-23 0 -46 20q-22 19 -22 65q0 48 28 85q29 38 73 63l7 -10q-38 -26 -57 -52t-19 -51q0 -20 10 -24z" />
    <glyph glyph-name="quoteright" unicode="&#x2019;" horiz-adv-x="222" 
d="M131 680l-2 -1q-5 -7 -12 -12q-8 -5 -21 -5q-22 0 -37 15t-15 38q0 25 18 42q17 16 42 16t47 -19q23 -20 23 -64q0 -48 -28 -85q-29 -38 -73 -63l-6 10q39 27 56 52q18 27 18 51q0 18 -10 25z" />
    <glyph glyph-name="quotesinglbase" unicode="&#x201a;" horiz-adv-x="221" 
d="M131 43l-2 -1q-5 -8 -12 -12q-8 -5 -21 -5q-22 0 -37 15t-15 38q0 26 18 42q17 16 42 16t47 -19q23 -20 23 -64q0 -48 -28 -85q-29 -38 -73 -63l-6 10q39 27 56 52q18 27 18 51q0 18 -10 25z" />
    <glyph glyph-name="quotedblleft" unicode="&#x201c;" horiz-adv-x="382" 
d="M90 655l3 -4q5 7 12 12q8 5 21 5q21 0 36 -15t15 -37q0 -27 -18 -42t-43 -15q-23 0 -46 20q-22 19 -22 65q0 48 28 85q29 38 73 63l7 -10q-38 -26 -57 -52t-19 -51q0 -20 10 -24zM254 651l1 -4q5 7 12 12q8 5 21 5q21 0 36 -15t15 -37q0 -27 -18 -42t-43 -15
q-23 0 -46 20q-22 19 -22 65q0 47 29 85q28 37 74 63l7 -10q-38 -26 -57 -52t-19 -51q0 -20 10 -24z" />
    <glyph glyph-name="quotedblright" unicode="&#x201d;" horiz-adv-x="382" 
d="M292 680l-5 -1q-5 -7 -12 -12q-8 -5 -21 -5q-21 0 -36 15t-15 38q0 25 18 42q17 16 43 16q25 0 47 -19q23 -20 23 -64q0 -48 -28 -85q-29 -38 -73 -63l-7 10q38 26 57 52t19 51q0 18 -10 25zM126 679l-2 -1q-4 -8 -12 -12q-8 -5 -21 -5q-22 0 -37 15t-15 38q0 26 18 42
q17 16 42 16t47 -19q23 -20 23 -64q0 -48 -28 -85q-29 -38 -73 -63l-6 10q39 27 56 52q18 27 18 51q0 18 -10 25z" />
    <glyph glyph-name="quotedblbase" unicode="&#x201e;" horiz-adv-x="382" 
d="M292 43l-5 -1q-5 -8 -12 -12q-8 -5 -21 -5q-21 0 -36 15t-15 38q0 26 18 42q17 16 43 16q25 0 47 -19q23 -20 23 -64q0 -48 -28 -85q-29 -38 -73 -63l-7 10q38 26 57 52t19 51q0 18 -10 25zM126 42l-2 -1q-4 -7 -12 -12t-21 -5q-22 0 -37 15t-15 38q0 25 18 42
q17 16 42 16t47 -19q23 -20 23 -64q0 -48 -28 -85q-29 -38 -73 -63l-6 10q39 27 56 52q18 27 18 51q0 18 -10 25z" />
    <glyph glyph-name="dagger" unicode="&#x2020;" horiz-adv-x="381" 
d="M184 -2l-2 -5q-2 79 -7 144q-7 85 -13 136q-8 63 -15 108l-10 60q17 19 30 51q13 30 13 66q-14 0 -28 -6q-9 -4 -25 -14q-10 -7 -25 -13q-14 -6 -28 -6q-26 0 -38 15t-12 34t12 34t38 15q14 0 28 -6q12 -6 26 -14t26 -14q14 -6 28 -6q0 17 -6 33q-5 15 -14 32
q-10 20 -14 30q-6 15 -6 32q0 22 14 38q14 15 36 15t36 -15q14 -16 14 -37q0 -16 -6 -31q-4 -10 -14 -30t-14 -31q-6 -17 -6 -33q15 0 27 6q8 4 24 14t25 14q14 6 30 6q26 0 39 -15q13 -14 13 -34t-13 -34q-13 -15 -39 -15q-16 0 -30 6q-9 4 -25 14t-24 14q-12 6 -27 6
q0 -36 13 -66q13 -32 30 -51q-1 -3 -10 -59q-7 -45 -15 -108q-6 -51 -13 -136q-5 -65 -7 -144h-16z" />
    <glyph glyph-name="daggerdbl" unicode="&#x2021;" horiz-adv-x="397" 
d="M199 -8l-2 -8q-23 0 -36 15q-14 16 -14 38q0 17 6 32q4 10 14 30q9 17 14 32q6 17 6 33q-15 0 -28 -6q-9 -4 -25 -14t-25 -14q-13 -6 -28 -6q-26 0 -38 15t-12 34t12 34t38 15q15 0 28 -6q9 -4 25 -14q10 -7 25 -13q13 -6 30 -6q0 62 -17 110q-16 47 -39 75q22 28 39 77
t17 109q-17 0 -30 -6q-9 -4 -25 -14q-10 -7 -25 -13q-13 -6 -28 -6q-26 0 -38 15t-12 34t12 34t38 15q15 0 28 -6q12 -6 26 -14t26 -14q13 -6 28 -6q0 17 -6 33q-5 15 -14 32q-10 20 -14 30q-6 15 -6 32q0 22 14 38q13 15 36 15t36 -15q14 -16 14 -37q0 -16 -6 -31
q-4 -10 -14 -30t-14 -31q-6 -17 -6 -33q15 0 27 6q8 4 24 14t25 14q13 6 30 6q25 0 39 -15q13 -14 13 -34t-13 -34q-14 -15 -39 -15q-17 0 -30 6q-9 4 -25 14t-24 14q-12 6 -27 6q0 -62 16 -109q17 -49 39 -77q-23 -29 -39 -76t-16 -109q15 0 27 6q8 4 24 14t25 14
q13 6 30 6q25 0 39 -15q13 -14 13 -34t-13 -34q-14 -15 -39 -15q-17 0 -30 6q-9 4 -25 14t-24 14q-12 6 -27 6q0 -17 6 -33q4 -11 14 -31t14 -30q6 -15 6 -31q0 -21 -14 -37q-13 -15 -36 -15z" />
    <glyph glyph-name="bullet" unicode="&#x2022;" horiz-adv-x="360" 
d="M181 409l-1 -1q26 0 48 -9q23 -9 39 -25q17 -17 26 -39q9 -23 9 -48t-9 -48t-25 -39q-17 -17 -39 -26q-23 -9 -48 -9t-48 9q-22 9 -39 26t-26 39q-9 23 -9 48t9 48q9 22 26 39t39 26q23 9 48 9z" />
    <glyph glyph-name="ellipsis" unicode="&#x2026;" horiz-adv-x="682" 
d="M563 -12q-26 0 -44 18t-18 46q0 27 18 45t44 18q28 0 46 -18t18 -45q0 -28 -18 -46t-46 -18zM342 -13q-26 0 -44 18t-18 46q0 27 18 45t44 18q28 0 46 -18t18 -45q0 -28 -18 -46t-46 -18zM120 -13q-26 0 -44 18t-18 46q0 27 18 45t44 18q28 0 46 -18t18 -45
q0 -28 -18 -46t-46 -18z" />
    <glyph glyph-name="perthousand" unicode="&#x2030;" horiz-adv-x="998" 
d="M175 379l-1 -2q-27 0 -53 14q-24 13 -46 38q-21 24 -33 59q-12 34 -12 77t12 77t33 60q21 25 47 39t53 14q28 0 54 -13q27 -14 48 -39t33 -60q12 -34 12 -76q0 -43 -12 -77q-12 -35 -33 -59q-22 -25 -48 -38q-28 -14 -54 -14zM110 7l418 747l19 -12l-418 -748zM174 393
l2 -1q13 0 25 9t21 30t15 54t6 81t-6 81q-6 34 -15 53q-9 20 -21 29t-25 9t-25 -9t-21 -29q-9 -19 -15 -53q-6 -33 -6 -81q0 -94 20 -134q19 -39 45 -39zM483 -9v-2q-27 0 -53 14q-25 13 -45 38t-32 59q-12 35 -12 77q0 43 12 77q12 33 32 60q19 26 45 39q26 14 53 14
q28 0 54 -13q27 -14 48 -39t33 -60t12 -76q0 -43 -12 -77q-12 -35 -33 -59q-22 -25 -48 -38q-28 -14 -54 -14zM822 -11l-1 -2q-27 0 -53 14q-24 13 -46 38q-21 24 -33 59q-12 34 -12 77q0 42 12 77q12 34 33 60q21 25 47 39t53 14q28 0 54 -13q27 -14 48 -39t33 -60t12 -76
q0 -43 -12 -77q-12 -35 -33 -59q-22 -25 -48 -38q-28 -14 -54 -14zM482 3l1 -1q14 0 26 9t21 30t15 54t6 81t-6 81q-6 34 -15 53q-9 20 -21 29t-25 9t-25 -9t-21 -29q-9 -19 -15 -53q-6 -33 -6 -81q0 -94 20 -134q19 -39 45 -39zM822 2l2 -1q13 0 25 9t21 30t15 54t6 81
t-6 81q-6 34 -15 53q-9 20 -21 29t-25 9t-25 -9t-21 -29q-9 -19 -15 -53q-6 -33 -6 -81q0 -94 20 -134q19 -39 45 -39z" />
    <glyph glyph-name="uni2032" unicode="&#x2032;" horiz-adv-x="154" 
d="M31 561l-1 -3q7 38 8 66q2 42 2 66q0 67 46 67q21 0 33 -12t12 -31q0 -16 -9 -33t-24 -36t-30 -42q-13 -20 -25 -45z" />
    <glyph glyph-name="uni2033" unicode="&#x2033;" horiz-adv-x="278" 
d="M97 561l-1 -3q7 38 8 66q2 42 2 66q0 67 46 67q21 0 33 -12t12 -31q0 -16 -9 -33t-24 -36t-30 -42q-13 -20 -25 -45zM87 558l-1 -3q7 38 8 66q2 42 2 66q0 67 46 67q21 0 33 -12t12 -31q0 -17 -9 -33t-24 -36t-30 -42q-13 -20 -25 -45z" />
    <glyph glyph-name="guilsinglleft" unicode="&#x2039;" horiz-adv-x="205" 
d="M26 222v16l143 157l11 -7l-71 -158l72 -158l-11 -7z" />
    <glyph glyph-name="guilsinglright" unicode="&#x203a;" horiz-adv-x="205" 
d="M24 72l73 158l-72 158l11 7l144 -157v-16l-145 -157z" />
    <glyph glyph-name="fraction" unicode="&#x2044;" horiz-adv-x="463" 
d="M54 381h355v-12h-355v12z" />
    <glyph glyph-name="Euro" unicode="&#x20ac;" horiz-adv-x="524" 
d="M18 340l53 -4q-1 6 -1 18v18v22q0 14 1 21h-58v18h60q7 79 33 139q26 62 61 101q35 40 78 61q42 21 86 21q33 0 63 -9q29 -9 52 -24q24 -16 35 -34q12 -20 12 -42q0 -18 -12 -34t-34 -16q-21 0 -37 14q-14 13 -19 42q-3 19 -6 37q-3 16 -9 28t-16 18t-30 6
q-66 0 -101 -75t-39 -231h166v-18h-167v-29v-26q0 -16 1 -24h166v-18h-166q4 -87 17 -149q12 -57 32 -93q19 -34 47 -48t57 -14q49 0 83 23q33 23 54 51l13 -10q-6 -10 -21 -28q-14 -17 -34 -30q-23 -15 -48 -23q-27 -9 -61 -9q-107 0 -174 84t-78 248h-59v18z" />
    <glyph glyph-name="trademark" unicode="&#x2122;" horiz-adv-x="626" 
d="M106 466v-2q6 1 12 5q4 3 6 9q2 8 2 20v38v204h-4q-35 0 -50 -12t-22 -43h-7l4 52q1 7 3 9t6 2h190q6 0 8 -2t3 -9l5 -52h-9q-6 31 -21 43t-51 12h-3v-204q0 -28 1 -37q2 -14 3 -20q2 -6 6 -9q3 -2 11 -4v-8h-93v8zM294 463l3 -3q8 3 11 6q4 4 5 11q2 10 2 23v41v118v41
q0 13 -2 23q-1 7 -6 10q-6 4 -12 5v8h75q4 0 5 -1q2 -2 3 -7l61 -197l63 205l8 -1v1h69v-8q-6 -2 -10 -4q-5 -3 -6 -10q-2 -10 -2 -22v-40v-119q0 -31 1 -41q2 -16 3 -23q2 -8 6 -11q4 -2 10 -4v-8h-91v8q7 2 9 4q3 3 6 11t3 23v41v184l-85 -272h-11l-87 277v-188v-41
q0 -13 2 -23q2 -8 6 -11q5 -3 12 -6v-7h-51v7z" />
    <glyph glyph-name="onethird" unicode="&#x2153;" horiz-adv-x="463" 
d="M54 381h355v-12h-355v12zM172 465l-4 10q8 1 16 5q6 3 9 12q2 7 4 27q1 12 1 51v139v30q0 11 -3 17q-3 7 -9 8q-8 2 -18 2v10l99 65v-270v-51q0 -18 3 -27t9 -12q8 -4 16 -5v-11h-123zM140 269l1 -3q2 7 5 13q2 3 6 3h179v-6l-121 -138q15 5 28 5q46 0 75 -27t29 -84
q0 -55 -36 -89q-37 -35 -96 -35q-44 0 -69 18t-25 38q0 10 6 18t20 8q23 0 27 -25l3 -15q1 -7 5 -14q3 -6 11 -11q7 -4 21 -4q34 0 49 30t15 82q0 48 -7 72q-8 26 -33 26q-20 0 -33 -7q-14 -8 -24 -18l-8 6l103 116h-59h-39q-13 0 -21 -3q-9 -3 -11 -7q-1 -2 -3.5 -6
t-3.5 -6h-12z" />
    <glyph glyph-name="twothirds" unicode="&#x2154;" horiz-adv-x="463" 
d="M54 381h355v-12h-355v12zM144 270l1 -3q2 7 5 13q2 3 6 3h179v-6l-121 -138q15 5 28 5q46 0 75 -27t29 -84q0 -54 -36 -89q-37 -35 -96 -35q-44 0 -69 18t-25 38q0 11 6 18q6 8 20 8q23 0 27 -25l3 -15q1 -7 5 -14q3 -6 11 -11q7 -4 21 -4q34 0 49 30t15 82q0 48 -7 72
q-8 26 -33 26q-20 0 -33 -7q-14 -7 -24 -18l-8 6l103 116h-59h-39q-13 0 -21 -3q-9 -3 -11 -7q-1 -2 -3.5 -6t-3.5 -6h-12zM244 517l-4 -5h49q18 0 27 3q10 3 14 7t7 12h11l-16 -62q-2 -7 -5 -13q-1 -3 -6 -3h-211l75 94q42 56 60 99t18 93q0 35 -11 57q-10 21 -38 21
q-11 0 -16 -4q-6 -4 -9 -11q-2 -4 -4 -14t-3 -14q-1 -11 -9 -19q-7 -7 -22 -7q-13 0 -21 8q-7 7 -7 20q0 20 24 38t69 18q23 0 42 -4q22 -5 38 -15q17 -11 27 -28q11 -19 11 -44q0 -22 -8 -46q-7 -21 -23 -45q-17 -26 -37 -47q-30 -32 -51 -53l-43 -36h72z" />
    <glyph glyph-name="oneeighth" unicode="&#x215b;" horiz-adv-x="463" 
d="M345 14l-1 -1q0 -23 -9 -42t-24 -33t-36 -21q-22 -8 -45 -8q-52 0 -84 27q-31 27 -31 65q0 36 20 61q19 23 51 40q-31 22 -45 44q-13 20 -13 53q0 21 9 38t24 27q16 11 33 17q18 6 36 6q48 0 74 -22q27 -23 27 -55q0 -28 -18 -49q-19 -22 -43 -35q22 -15 33 -25
q16 -14 23 -25q10 -15 14 -28q5 -17 5 -34zM233 -78l1 -1q33 0 47 20t14 42q0 16 -5 31q-4 11 -14 25q-10 13 -24 23q-30 21 -33 23l-16 10q-18 -14 -27 -37q-9 -24 -9 -57t15 -56t51 -23zM261 131h-1q27 24 27 75q0 68 -56 68q-27 0 -41 -13q-15 -13 -15 -34q0 -29 19 -47
q17 -16 57 -43zM53 379h355v-12h-355v12zM165 463l-4 10q8 1 16 5q6 3 9 12q2 7 4 27q1 12 1 51v139v30q0 11 -3 17q-3 7 -9 8q-8 2 -18 2v10l99 65v-270v-51q0 -18 3 -27t9 -12q8 -4 16 -5v-11h-123z" />
    <glyph glyph-name="threeeighths" unicode="&#x215c;" horiz-adv-x="463" 
d="M345 14l-1 -1q0 -23 -9 -42t-24 -33t-36 -21q-22 -8 -45 -8q-52 0 -84 27q-31 27 -31 65q0 36 20 61q19 23 51 40q-31 22 -45 44q-13 20 -13 53q0 21 9 38t24 27q16 11 33 17q18 6 36 6q48 0 74 -22q27 -23 27 -55q0 -28 -18 -49q-19 -22 -43 -35q22 -15 33 -25
q16 -14 23 -25q10 -15 14 -28q5 -17 5 -34zM233 -78v-1q33 0 47 20t14 42q0 16 -5 31q-4 11 -14 25q-10 13 -24 23q-30 21 -33 23l-16 10q-35 -27 -35 -94q0 -33 15 -56t51 -23zM260 131h-1q27 24 27 75q0 68 -56 68q-27 0 -41 -13q-15 -13 -15 -34q0 -29 19 -47
q17 -16 57 -43zM52 379h355v-12h-355v12zM142 819l1 -3q2 7 5 13q2 3 6 3h179v-6l-121 -138q15 5 28 5q46 0 75 -27t29 -84q0 -54 -36 -89q-37 -35 -96 -35q-44 0 -69 18t-25 38q0 10 6 18t20 8q23 0 27 -25l3 -15q1 -7 5 -14q3 -6 11 -11q7 -4 21 -4q34 0 49 30t15 82
q0 48 -7 72q-8 26 -33 26q-20 0 -33 -7q-14 -8 -24 -18l-8 6l103 116h-59h-39q-13 0 -21 -3q-9 -3 -11 -7q-1 -2 -3.5 -6t-3.5 -6h-12z" />
    <glyph glyph-name="fiveeighths" unicode="&#x215d;" horiz-adv-x="463" 
d="M345 14l-5 -2q0 -46 -31 -74q-32 -29 -79 -29q-52 0 -84 27q-31 27 -31 65q0 37 20 62q19 24 51 39q-32 22 -45 45q-13 22 -13 52q0 21 9 38t24 27q16 11 33 17q18 6 36 6q48 0 74 -22q27 -23 27 -55q0 -28 -18 -49q-19 -22 -43 -35q22 -15 33 -25q16 -14 23 -25
q10 -15 14 -28q5 -17 5 -34zM179 779l-20 -99q12 9 24 14q13 6 30 6q24 0 47 -6t39 -19q17 -14 27 -34t10 -52q0 -31 -10 -54q-11 -26 -28 -41q-19 -17 -42 -26q-24 -9 -53 -9q-39 0 -64 18t-25 41q0 10 8 18t21 8q24 0 27 -27q2 -8 2 -14q0 -7 3 -15t10 -12t21 -4
q32 0 48 33q17 34 17 87q0 99 -57 99q-21 0 -39 -8q-17 -7 -24 -18l-9 4l36 165h156l-15 -47q-2 -8 -8 -8h-132zM229 -85l1 -1q33 0 47 20t14 42q0 16 -5 31q-4 13 -15 25q-12 14 -24 23q-15 12 -32 23l-16 10q-18 -14 -27 -37q-9 -24 -9 -57t15 -56t51 -23zM256 124
q15 13 21 32q6 18 6 43q0 68 -56 68q-27 0 -41 -13q-15 -14 -15 -34q0 -29 19 -47q17 -16 57 -43zM50 372h355v-12h-355v12z" />
    <glyph glyph-name="seveneighths" unicode="&#x215e;" horiz-adv-x="463" 
d="M345 14l-1 -1q0 -23 -9 -42t-24 -33t-36 -21q-22 -8 -45 -8q-52 0 -84 27q-31 27 -31 65q0 36 20 61q19 23 51 40q-31 22 -45 44q-13 20 -13 53q0 21 9 38t24 27q16 11 33 17q18 6 36 6q48 0 74 -22q27 -23 27 -55q0 -28 -18 -49q-19 -22 -43 -35q22 -15 33 -25
q16 -14 23 -25q10 -15 14 -28q5 -17 5 -34zM233 -78v-1q33 0 47 20t14 42q0 16 -5 31q-4 11 -14 25q-10 13 -24 23q-30 21 -33 23l-16 10q-35 -27 -35 -94q0 -33 15 -56t51 -23zM211 463l-15 -2l112 316h-89h-37q-14 0 -21 -3t-10 -7q-1 -2 -3.5 -6t-3.5 -6h-11l19 70
q3 9 10 9h180v-4zM259 129h-1q27 24 27 75q0 68 -56 68q-27 0 -41 -13q-15 -14 -15 -34q0 -29 19 -47q17 -16 57 -43zM51 377h355v-12h-355v12z" />
    <glyph glyph-name="arrowleft" unicode="&#x2190;" horiz-adv-x="806" 
d="M44 363l-1 2q33 8 76 28q45 21 90 51q47 31 83 66q38 36 57 75l12 -5q-12 -44 -27 -78t-33 -60q-17 -24 -39 -43q-19 -16 -42 -31h534v-16h-534q44 -26 81 -75t60 -138l-12 -5q-19 39 -57 75q-40 38 -82 65q-45 28 -90 48q-46 20 -76 27v14z" />
    <glyph glyph-name="arrowright" unicode="&#x2192;" horiz-adv-x="806" 
d="M52 364l532 -3q-23 15 -42 31q-20 17 -39 44q-18 26 -33 60t-27 78l12 5q19 -39 57 -75q36 -35 83 -66q44 -29 89 -51q41 -20 75 -28v-14q-31 -7 -75 -27q-42 -19 -88 -48q-42 -27 -82 -65q-38 -36 -57 -75l-12 5q23 89 60 138t81 75h-534v16z" />
    <glyph glyph-name="minus" unicode="&#x2212;" horiz-adv-x="419" 
d="M40 361h340v-20h-340v20z" />
    <glyph glyph-name="uni24C5" unicode="&#x24c5;" horiz-adv-x="692" 
d="M347 761l-3 -4q65 0 121 -28q57 -28 100 -79t69 -122q26 -72 26 -156q0 -87 -25 -156q-26 -71 -69 -122t-100 -79q-56 -28 -121 -28q-64 0 -122 29q-55 28 -100 80q-43 51 -69 122q-25 69 -25 156q0 84 26 156q26 71 69 122q44 51 101 80q58 29 122 29zM344 0l-2 2
q60 0 114 27q55 27 95 75q41 49 65 116t24 152t-24 152q-25 69 -64 116q-41 48 -94 75q-54 27 -114 27t-114 -27t-96 -75t-66 -117t-24 -153t24 -152t66 -116t96 -75t114 -27zM214 160v-2q9 2 16 8q6 4 9 15t3 30v54v210v54q0 19 -3 30t-9 15q-5 4 -16 7v10h138q34 0 62 -6
q30 -6 51 -19q24 -14 35 -34q12 -21 12 -53q0 -33 -13 -56q-13 -24 -36 -39q-24 -16 -51 -23t-60 -7h-32v-88v-54q0 -20 3 -30t9 -15q5 -3 17 -7v-10h-135v10zM318 577l-2 -215h30q16 0 34 5q16 4 29 17t20 33t7 53t-7 53q-8 22 -19 33t-27 16q-17 5 -32 5h-33z" />
    <glyph glyph-name="space_uni0326" horiz-adv-x="500" 
d="M276 -117q-4 -6 -10 -11q-8 -6 -22 -6q-20 0 -33 12t-13 34q0 23 15 35t35 12q23 0 42 -16q20 -17 20 -51q0 -40 -24 -64q-23 -23 -63 -31l-5 11q37 9 50 27q14 19 14 34q0 13 -6 14z" />
    <glyph glyph-name="A.alt" 
d="M465 153l1 -5q20 -63 22 -68q10 -30 15 -41q6 -15 12 -21q7 -7 15 -8v-13h-186q-2 0 -2 6t2 6q13 2 20 6q8 5 11 14t0 26q-3 18 -12 47l-33 114h-214l-26 -91q-9 -33 -12 -54q-3 -20 2 -33q4 -12 15 -18q10 -6 29 -9v-13h-113v13q11 5 18 12q8 8 14 21q10 22 14 33
q6 14 16 51l183 632h26zM327 231l-102 351l-102 -351h204z" />
    <glyph glyph-name="G.alt" horiz-adv-x="615" 
d="M333 -14l-1 -3q-62 0 -118 29q-56 28 -96 81q-40 52 -63 125q-23 74 -23 161q0 96 29 169q28 71 72 118q43 46 96 69q54 23 101 23q31 0 53 -5q24 -5 35 -10q6 -2 16 -5.5t11 -4.5q13 -5 29 -5t24 26h15v-173h-15q-22 83 -63 123q-40 40 -106 40q-37 0 -70 -18t-57 -60
q-25 -44 -38 -109q-14 -70 -14 -165q0 -99 14 -175q13 -71 38 -121q24 -47 57 -70q32 -22 74 -22q35 0 58 9q22 9 34 24q11 14 16 34q4 17 4 39v54q0 61 -2 117q-1 40 -8 63q-6 21 -18 27t-31 9v13h164v-371h-15q-1 10 -6 21t-15 11q-11 0 -25 -10q-18 -13 -37 -24
q-23 -14 -52 -24t-67 -10z" />
    <glyph glyph-name="J.alt" horiz-adv-x="248" 
d="M-42 -149l-2 -7q-32 0 -45 15q-13 14 -13 33q0 18 12 30t27 12t28 -8q11 -7 21 -17l18 -17q8 -8 18 -8h8q3 0 8 5q4 3 12 11q6 6 11 20q5 16 8 36q3 23 3 58v542q0 70 -1 92q-1 33 -6 51t-13 24q-11 7 -25 11v13h198v-13q-16 -5 -24 -10q-8 -6 -13 -24q-4 -18 -6 -51
q-1 -22 -1 -92v-431q0 -58 -16 -99q-17 -43 -39 -71q-21 -27 -45 -46q-17 -13 -33 -25q-26 -19 -48 -27q-21 -7 -42 -7z" />
    <glyph glyph-name="J.alt1" horiz-adv-x="454" 
d="M275 558l-2 1q0 70 -1 92q-2 33 -6 51q-5 18 -13 24q-10 7 -24 11v13h199v-13q-16 -5 -24 -10q-8 -6 -13 -24t-6 -51q-1 -22 -1 -92v-361q0 -52 -18 -91t-46 -64t-65 -39q-35 -13 -73 -13q-33 0 -67 8q-29 7 -55 23q-23 14 -37 36q-13 20 -13 48q0 22 14 34t35 12
q23 0 38 -12q16 -12 17 -43q3 -48 21 -69t48 -21q19 0 36 6t29 24q13 19 20 48q7 28 7 78v394z" />
    </font>
</defs>
</svg>
