<?xml version="1.0" standalone="no"?>
<!DOCTYPE svg PUBLIC "-//W3C//DTD SVG 1.1//EN" "http://www.w3.org/Graphics/SVG/1.1/DTD/svg11.dtd" >
<svg xmlns="http://www.w3.org/2000/svg" xmlns:xlink="http://www.w3.org/1999/xlink" version="1.1">
<metadata>
Created by FontForge 20170731 at Tue Sep  4 00:53:37 2018
 By Aleksey,,,
Copyright (c) 2018 Commercial Type, Inc.. All rights reserved.
</metadata>
<defs>
<font id="SchnyderXCondLDemi" horiz-adv-x="375" >
  <font-face 
    font-family="Schnyder X Cond L Demi"
    font-weight="400"
    font-stretch="extra-condensed"
    units-per-em="1000"
    panose-1="0 0 0 0 0 0 0 0 0 0"
    ascent="800"
    descent="-200"
    x-height="465"
    cap-height="749"
    bbox="-104 -293 928 1016"
    underline-thickness="13"
    underline-position="-104"
    unicode-range="U+000D-FB04"
  />
<missing-glyph horiz-adv-x="153" 
 />
    <glyph glyph-name="f_f" unicode="ff" horiz-adv-x="393" 
d="M213 6v-3q10 3 14 6t7 12t3 24v41v366h-97v-366v-41q0 -14 5 -24q5 -9 12 -12t21 -6v-6h-153v6q10 3 14 6t7 12t3 24v41v366h-49v7q17 2 24 4q9 3 15 9q7 7 8 16q2 14 2 27v77q0 47 16 78q17 32 39 51t48 27q27 8 45 8q34 0 58 -9q25 -9 32 -25q24 24 46 32q24 9 43 9
q34 0 60 -15q25 -15 25 -40q0 -14 -9 -24t-25 -10q-19 0 -28 9q-8 8 -13 26q-4 26 -8 35q-3 8 -10 8q-8 0 -15 -6q-6 -5 -13 -20q-6 -13 -9 -38q-3 -24 -3 -61v-162h72v-10h-72v-366q0 -31 1 -41q1 -13 5 -24q3 -9 11 -12q7 -3 21 -6v-6h-153v6zM237 463l2 113q0 26 5 51
q5 23 12 41q-16 1 -24 11q-7 8 -10 26q-4 23 -9 30q-5 8 -18 8q-23 0 -39 -22t-16 -84v-174h97z" />
    <glyph glyph-name="f_i" unicode="fi" horiz-adv-x="371" 
d="M24 6l-1 -1q10 3 14 6t7 12t3 24v41v366h-49v7q29 3 40 12q10 9 10 31v77q0 51 15 86q15 34 36 55t45 30t42 9q34 0 60 -15q25 -15 25 -40q0 -12 -9 -22t-25 -10q-19 0 -28 9t-12 26q-6 25 -9 33t-9 8q-7 0 -15 -6q-6 -5 -13 -20q-6 -13 -9 -38q-3 -24 -3 -61v-162h68
l120 11v-387v-41q0 -15 3 -24t9 -12q7 -3 16 -6v-6h-146v6q9 3 16 6q6 3 9 12t3 24v41v266q0 41 -1 54q-2 22 -4 30q-3 10 -9 13q-8 4 -16 5h-68v-366v-41q0 -14 5 -24q4 -9 12 -12t21 -6v-6h-153v6zM280 537q-22 0 -37 15t-15 38q0 22 15 37t37 15q23 0 38 -15t15 -37
q0 -23 -15 -38t-38 -15z" />
    <glyph glyph-name="f_l" unicode="fl" horiz-adv-x="371" 
d="M24 6l-5 -3q10 3 14 6t7 12t3 24v41v366h-49v7q29 3 40 12q10 9 10 31v69q0 53 15 89q15 35 38 57q23 21 48 30t43 9q36 0 56 -13q21 -13 21 -36q0 -11 -7 -21t-24 -10q-18 0 -25 10t-10 27q-4 25 -9 31q-4 6 -6 6q-10 0 -17 -6q-8 -7 -14 -21q-5 -13 -10 -40
q-4 -23 -4 -63v-155h49v-10h-49v-366v-41q0 -14 5 -24q4 -9 12 -12t21 -6v-6h-153v6zM205 3l-1 -1q9 3 16 6q6 3 9 12t3 24v41v558q0 20 -1 26q-2 11 -4 14q-3 5 -9 6q-7 2 -16 3v7l121 73v-686v-41q0 -15 3 -24t9 -12q7 -3 16 -6v-6h-146v6z" />
    <glyph glyph-name="f_f_i" unicode="ffi" horiz-adv-x="559" 
d="M24 6v-5q10 3 14 6t7 12t3 24v41v366h-49v7q17 2 24 4q9 3 15 9q7 7 8 16q2 14 2 27v77q0 47 16 78q16 32 39 51t48 27q27 8 45 8q34 0 58 -9q25 -9 32 -25q24 24 46 32q24 9 43 9q35 0 59 -15t24 -40q0 -11 -8 -22q-7 -10 -24 -10q-19 0 -28 9q-8 8 -13 26q-4 23 -8 33
q-3 8 -10 8t-15 -6q-6 -5 -13 -20q-6 -13 -9 -38q-3 -24 -3 -61v-162h69l120 11v-387v-41q0 -15 3 -24t9 -12q7 -3 16 -6v-6h-146v6q9 3 16 6q6 3 9 12t3 24v41v266q0 41 -1 54q-2 22 -4 30q-3 10 -9 13q-8 4 -16 5h-69v-366q0 -31 1 -41q1 -13 5 -24q3 -9 11 -12t21 -6v-6
h-153v6q10 3 14 6t7 12t3 24v41v366h-97v-366v-41q0 -14 5 -24q4 -9 12 -12t21 -6v-6h-153v6zM237 461l2 113q0 26 5 51q5 23 12 41q-16 1 -24 11q-7 8 -10 26q-4 23 -9 30q-5 8 -18 8q-23 0 -39 -22t-16 -84v-174h97zM472 530h-1q-22 0 -37 15t-15 38q0 22 15 37t38 15
t38 -15t15 -37q0 -23 -15 -38t-38 -15z" />
    <glyph glyph-name="f_f_l" unicode="ffl" horiz-adv-x="559" 
d="M213 6l-5 -6q10 3 14 6t7 12t3 24v41v366h-97v-366v-41q0 -14 5 -24q4 -9 12 -12t21 -6v-6h-153v6q10 3 14 6t7 12t3 24v41v366h-49v7q17 2 24 4q9 3 15 9q7 7 8 16q2 14 2 27v77q0 47 15 78t38 51t48 27q27 8 43 8q36 0 63 -11q26 -11 32 -29q22 22 50 33q26 10 46 10
q36 0 56 -13q21 -13 21 -36q0 -11 -6 -21t-23 -10q-18 0 -25 10q-8 10 -12 27q-4 25 -9 31t-6 6q-9 0 -18 -6t-15 -21q-5 -13 -10 -40q-4 -23 -4 -63v-155h50v-10h-50v-366q0 -31 1 -41q1 -13 5 -24q3 -9 11 -12q7 -3 21 -6v-6h-153v6zM232 460l-3 107q0 32 6 56q7 27 16 44
q-17 0 -24 9q-8 10 -11 26q-5 23 -10 30q-6 8 -19 8q-22 0 -37 -22t-15 -84v-174h97zM391 -1l-1 -1q9 3 16 6q6 3 9 12t3 24v41v558q0 20 -1 26q-2 11 -4 14q-3 5 -9 6q-7 2 -16 3v7l121 73v-686v-41q0 -15 3 -24t9 -12q7 -3 16 -6v-6h-146v6z" />
    <glyph glyph-name="f_b" unicode="fb" horiz-adv-x="568" 
d="M24 6l-5 -3q10 3 14 6t7 12t3 24v41v366h-49v7q29 3 40 12q10 9 10 31v69q0 53 15 89q15 35 38 57q23 21 48 30t43 9q36 0 56 -13q21 -13 21 -36q0 -11 -7 -21t-24 -10q-18 0 -25 10t-10 27q-4 25 -9 31q-4 6 -6 6q-10 0 -17 -6q-8 -7 -14 -21q-5 -13 -10 -40
q-4 -23 -4 -63v-155h49v-10h-49v-366v-41q0 -14 5 -24q4 -9 12 -12t21 -6v-6h-153v6zM368 -7v-4q-16 0 -30 6q-9 4 -25 14t-24 14q-12 6 -26 6q-13 0 -17 -7q-5 -8 -6 -13h-7v623q0 27 -1 35q-2 15 -4 20q-3 7 -9 9t-15 3v7l120 63v-359q24 30 41 44t39 14q21 0 46 -11
t44 -36t33 -68q13 -40 13 -103q0 -67 -13 -113q-14 -49 -36 -80q-23 -31 -54 -48q-31 -16 -69 -16zM340 16l-4 1q1 -6 8 -13q6 -6 20 -6q44 0 60 60q16 58 16 173q0 113 -14 169q-14 54 -36 54q-14 0 -27 -12t-39 -45v-301q0 -37 5 -55q4 -14 11 -25z" />
    <glyph glyph-name="f_f_b" unicode="ffb" horiz-adv-x="756" 
d="M213 6l-3 -6q10 3 14 6t7 12t3 24v41v366h-97v-366v-41q0 -14 5 -24q4 -9 12 -12t21 -6v-6h-153v6q10 3 14 6t7 12t3 24v41v366h-49v7q17 2 24 4q9 3 15 9q7 7 8 16q2 14 2 27v77q0 47 16 78t39 51t48 27q27 8 44 8q37 0 61 -12q25 -12 29 -31q22 25 50 36q26 10 46 10
q36 0 56 -13q21 -13 21 -36q0 -11 -6 -21t-23 -10q-18 0 -25 10q-8 10 -12 27q-4 25 -9 31t-6 6q-9 0 -18 -6t-15 -21q-5 -13 -10 -40q-4 -23 -4 -63v-155h50v-10h-50v-366q0 -31 1 -41q1 -13 5 -24q3 -9 11 -12q7 -3 21 -6v-6h-153v6zM234 460l-2 108q0 32 6 56q7 27 16 44
h-2q-16 0 -24 9q-7 9 -9 26q-5 23 -9 30q-5 8 -18 8q-23 0 -39 -22t-16 -85v-174h97zM556 -10v-4q-16 0 -30 6q-9 4 -25 14t-24 14q-12 6 -26 6q-13 0 -17 -7q-5 -8 -6 -13h-7v623q0 27 -1 35q-2 15 -4 20q-3 8 -9 9t-15 3v7l120 63v-359q24 30 41 44t39 14q21 0 46 -11
t44 -36t33 -68q13 -40 13 -103q0 -67 -13 -113q-14 -49 -36 -80q-23 -32 -54 -48t-69 -16zM528 13l-4 1q1 -6 8 -13q6 -6 20 -6q44 0 60 60q16 58 16 173q0 113 -14 169q-14 54 -36 54q-14 0 -27 -12t-39 -45v-301q0 -37 5 -55q4 -14 11 -25z" />
    <glyph glyph-name="f_f_h" unicode="ffh" horiz-adv-x="761" 
d="M213 6l-3 -6q10 3 14 6t7 12t3 24v41v366h-97v-366v-41q0 -14 5 -24q4 -9 12 -12t21 -6v-6h-153v6q10 3 14 6t7 12t3 24v41v366h-49v7q17 2 24 4q9 3 15 9q7 7 8 16q2 14 2 27v77q0 47 16 78t39 51t48 27q27 8 44 8q37 0 61 -12q25 -12 29 -31q22 25 50 36q26 10 46 10
q36 0 56 -13q21 -13 21 -36q0 -11 -6 -21t-23 -10q-18 0 -25 10q-8 10 -12 27q-4 25 -9 31t-6 6q-9 0 -18 -6t-15 -21q-5 -13 -10 -40q-4 -23 -4 -63v-155h50v-10h-50v-366q0 -31 1 -41q1 -13 5 -24q3 -9 11 -12q7 -3 21 -6v-6h-153v6zM234 460l-2 108q0 32 6 56q7 27 16 44
h-2q-16 0 -24 9q-7 9 -9 26q-5 23 -9 30q-5 8 -18 8q-23 0 -39 -22t-16 -85v-174h97zM397 0v-3q10 3 14 6t7 12t3 24v41v538q0 30 -1 39q-2 15 -4 20q-3 7 -9 8q-8 2 -16 2v7l123 72v-375q21 22 37 37q17 15 30 24t26 12q12 3 24 3q11 0 24 -4q16 -5 29 -15t24 -29
q10 -17 10 -47v-288v-41q0 -12 2 -24q2 -9 6 -12t14 -6v-6h-144v6q9 3 16 6q6 3 9 12t3 24v41v310q0 32 -9 42q-9 11 -19 11q-1 0 -9 -2q-4 -1 -16 -8q-8 -4 -25 -20t-35 -36v-298v-41q0 -15 3 -24t9 -12q7 -3 16 -6v-6h-142v6z" />
    <glyph glyph-name="f_f_j" unicode="ffj" horiz-adv-x="562" 
d="M213 6v-3q10 3 14 6t7 12t3 24v41v366h-97v-366v-41q0 -14 5 -24q5 -9 12 -12t21 -6v-6h-153v6q10 3 14 6t7 12t3 24v41v366h-49v7q17 2 24 4q9 3 15 9q7 7 8 16q2 14 2 27v77q0 47 16 78q17 32 39 51t48 27q27 8 45 8q34 0 58 -9q25 -9 32 -25q24 24 46 32q24 9 43 9
q35 0 59 -15t24 -40q0 -11 -8 -22q-7 -10 -24 -10q-19 0 -28 9q-8 8 -13 26q-4 23 -8 33q-3 8 -10 8q-8 0 -15 -6q-6 -5 -13 -20q-6 -13 -9 -38q-3 -24 -3 -61v-162h69l120 10v-418q0 -31 -3 -55q-3 -23 -12 -43q-9 -19 -24 -36q-15 -16 -37 -31q-30 -21 -46 -26
q-18 -6 -37 -6q-20 0 -33 10t-13 28q0 16 10 25t24 9q15 0 23 -7q12 -10 17 -16q2 -3 7 -8t7 -8q6 -7 14 -7q5 0 9 4l3 6q1 3 1 15v29v49v394q0 27 -1 36q-2 15 -4 21q-3 7 -9 10q-8 4 -16 5h-69v-366q0 -31 1 -41q1 -13 5 -24q3 -9 11 -12q7 -3 21 -6v-6h-153v6zM237 463
l2 113q0 26 5 51q5 23 12 41q-16 1 -24 11q-7 8 -10 26q-4 23 -9 30q-5 8 -18 8q-23 0 -39 -22t-16 -84v-174h97zM472 532h-1q-22 0 -37 15t-15 38q0 22 15 37t38 15t38 -15t15 -37q0 -23 -15 -38t-38 -15z" />
    <glyph glyph-name="f_f_k" unicode="ffk" horiz-adv-x="728" 
d="M213 6l-3 -6q10 3 14 6t7 12t3 24v41v366h-97v-366v-41q0 -14 5 -24q4 -9 12 -12t21 -6v-6h-153v6q10 3 14 6t7 12t3 24v41v366h-49v7q17 2 24 4q9 3 15 9q7 7 8 16q2 14 2 27v77q0 47 16 78t39 51t48 27q27 8 44 8q37 0 61 -12q25 -12 29 -31q22 25 50 36q26 10 46 10
q36 0 56 -13q21 -13 21 -36q0 -11 -6 -21t-23 -10q-18 0 -25 10q-8 10 -12 27q-4 25 -9 31t-6 6q-9 0 -18 -6t-15 -21q-5 -13 -10 -40q-4 -23 -4 -63v-155h50v-10h-50v-366q0 -31 1 -41q1 -13 5 -24q3 -9 11 -12q7 -3 21 -6v-6h-153v6zM234 460l-2 108q0 32 6 56q7 27 16 44
h-2q-16 0 -24 9q-7 9 -9 26q-5 23 -9 30q-5 8 -18 8q-23 0 -39 -22t-16 -85v-174h97zM397 0h-1q10 4 14 7q4 4 7 13t3 24v41v557q0 21 -1 27q-2 11 -4 14q-3 5 -9 5q-3 0 -15 2v7l120 73v-685v-41q0 -15 3 -24q3 -8 9 -13q5 -4 16 -7v-6h-142v6zM577 -1h-1q16 5 20 15t-6 39
l-75 186v6l119 150q11 15 14 24q3 11 0 18q-3 8 -10 12q-8 5 -15 6v6h91v-6q-10 -3 -16 -7q-8 -4 -15 -12q-11 -11 -18 -19q-3 -4 -7 -8.5t-9 -11t-9 -10.5l-62 -77l113 -266q10 -25 16 -32q7 -8 15 -13v-5h-145v5z" />
    <glyph glyph-name="f_h" unicode="fh" horiz-adv-x="572" 
d="M24 6l-5 -3q10 3 14 6t7 12t3 24v41v366h-49v7q29 3 40 12q10 9 10 31v69q0 53 15 89q15 35 38 57q23 21 48 30t43 9q36 0 56 -13q21 -13 21 -36q0 -11 -7 -21t-24 -10q-18 0 -25 10t-10 27q-4 25 -9 31q-4 6 -6 6q-10 0 -17 -6q-8 -7 -14 -21q-5 -13 -10 -40
q-4 -23 -4 -63v-155h49v-10h-49v-366v-41q0 -14 5 -24q4 -9 12 -12t21 -6v-6h-153v6zM208 3v-3q10 3 14 6t7 12t3 24v41v538q0 30 -1 39q-2 15 -4 20q-3 7 -9 8q-8 2 -16 2v7l123 72v-375q21 22 37 37t30 24q13 9 26 12q12 3 24 3q11 0 24 -4q16 -5 29 -15t24 -29
q10 -17 10 -47v-288v-41q0 -12 2 -24q1 -9 6 -12q4 -3 14 -6v-6h-144v6q9 3 16 6q6 3 9 12t3 24v41v310q0 31 -9 42t-19 11q-1 0 -9 -2q-4 -1 -16 -8q-8 -4 -25 -20t-35 -36v-298v-41q0 -15 3 -24t9 -12q7 -3 16 -6v-6h-142v6z" />
    <glyph glyph-name="f_j" unicode="fj" horiz-adv-x="373" 
d="M24 6l3 1q10 3 14 6t7 12t3 24v41v366h-49v7q29 3 40 12q10 9 10 31v77q0 51 15 86q15 34 36 55t45 30t42 9q34 0 60 -15q25 -15 25 -40q0 -12 -9 -22t-25 -10q-19 0 -28 9t-12 26q-6 25 -9 33t-9 8q-7 0 -15 -6q-6 -5 -13 -20q-6 -13 -9 -38q-3 -24 -3 -61v-162h68
l120 10v-418q0 -31 -3 -55q-3 -23 -12 -43q-9 -19 -24 -36q-15 -16 -37 -31q-30 -20 -48 -26q-19 -6 -39 -6t-33 10t-13 28q0 16 10 25t24 9q15 0 23 -7q12 -10 17 -16q2 -3 7 -8t7 -8q6 -7 14 -7q5 0 9 4l3 6q1 3 1 15v29v49v394q0 27 -1 36q-2 15 -4 21q-3 7 -9 10
q-8 4 -16 5h-68v-366v-41q0 -14 5 -24q4 -9 12 -12t21 -6v-6h-153v6zM284 539q-22 0 -37 15t-15 38q0 22 15 37t37 15q23 0 38 -15t15 -37q0 -23 -15 -38t-38 -15z" />
    <glyph glyph-name="f_k" unicode="fk" horiz-adv-x="540" 
d="M24 6l-5 -3q10 3 14 6t7 12t3 24v41v366h-49v7q29 3 40 12q10 9 10 31v69q0 53 15 89q15 35 38 57q23 21 48 30t43 9q36 0 56 -13q21 -13 21 -36q0 -11 -7 -21t-24 -10q-18 0 -25 10t-10 27q-4 25 -9 31q-4 6 -6 6q-10 0 -17 -6q-8 -7 -14 -21q-5 -13 -10 -40
q-4 -23 -4 -63v-155h49v-10h-49v-366v-41q0 -14 5 -24q4 -9 12 -12t21 -6v-6h-153v6zM208 3h-1q10 3 14 7t7 13t3 24v41v557q0 21 -1 27q-2 11 -4 14q-3 5 -9 5q-3 0 -15 2v7l120 73v-685v-41q0 -15 3 -24q3 -8 9 -13q5 -4 16 -7v-6h-142v6zM388 2h-1q16 5 20 15q5 11 -6 39
l-75 186v6l119 150q11 15 14 24q3 10 0 18t-10 12t-15 6v6h91v-6q-10 -3 -16 -7q-7 -5 -15 -12q-11 -11 -18 -19l-25 -30l-62 -77l113 -266q10 -25 16 -32q7 -8 15 -13v-5h-145v5z" />
    <glyph glyph-name="g_j" unicode="gj" horiz-adv-x="521" 
d="M429 540q-22 0 -37 15t-15 38q0 22 15 37t37 15q23 0 38 -15t15 -37q0 -23 -15 -38t-38 -15zM316 -137l-1 -1q-29 0 -29 17q0 5 3 12q2 5 8 15q3 5 9 13q4 6 6 6q9 0 15 -6q4 -4 14 -12t14 -12q6 -6 15 -6q6 0 11 5l3 6q1 3 1 15v29v47v331q0 27 -1 36q-2 15 -4 21
q-3 7 -9 10q-8 4 -16 5v7l121 75v-420q0 -30 -3 -54q-3 -23 -12 -43q-9 -19 -24 -36q-15 -16 -37 -31q-28 -20 -48 -24q-22 -5 -36 -5zM153 160l-7 -2q-14 0 -29 3q-17 3 -30 10l-3 -2q-16 -11 -22 -21q-6 -9 -6 -15q0 -3 2 -9q2 -4 6 -9t15 -9q6 -3 30 -10l103 -27
q32 -7 55 -20q21 -12 33 -27q11 -14 16 -31q4 -15 4 -33q0 -34 -14 -60t-36 -42q-23 -17 -52 -24q-32 -8 -61 -8q-35 0 -63 7q-27 7 -52 20q-22 12 -36 30q-13 17 -13 39q0 15 8 29q7 13 20 26t29 23q22 14 33 20q-35 13 -49 33q-13 19 -13 45q0 29 20 47q17 16 39 31l3 2
q-28 15 -48 47t-20 89q0 43 14 76t34 50q21 18 45 27t45 9q18 0 34 -4q19 -5 35 -15q28 21 42 29q16 9 32 9q32 0 32 -32q0 -13 -8 -21t-18 -8q-8 0 -13 4l-12 9l-12 9q-5 4 -12 4q-13 0 -24 -6q26 -19 44 -51q18 -33 18 -86q0 -44 -14 -75t-34 -48t-45 -25q-22 -7 -45 -7z
M40 -75v-2q0 -40 28 -65q29 -26 88 -26q56 0 90 24t34 64q0 23 -17 37q-16 13 -68 27l-87 25l-19 6q-29 -17 -39 -36t-10 -54zM146 165l-2 -2q8 0 18 8t17 25q7 18 12 45q5 30 5 66q0 79 -17 116q-17 36 -35 36q-16 0 -33 -36q-16 -35 -16 -115q0 -36 5 -66q4 -27 12 -45
q7 -17 17 -25q8 -7 17 -7z" />
    <glyph glyph-name=".notdef" horiz-adv-x="153" 
 />
    <glyph glyph-name=".null" horiz-adv-x="0" 
 />
    <glyph glyph-name="nonmarkingreturn" unicode="&#xd;" horiz-adv-x="153" 
 />
    <glyph glyph-name="NULL" horiz-adv-x="0" 
 />
    <glyph glyph-name="NULL" horiz-adv-x="0" 
 />
    <glyph glyph-name="space" unicode=" " horiz-adv-x="153" 
 />
    <glyph glyph-name="exclam" unicode="!" horiz-adv-x="184" 
d="M87 201l-4 -1q-6 110 -15 192t-18 141t-15 96t-6 59q0 33 16 50q17 18 45 18t45 -18q16 -17 16 -49q0 -21 -6 -59t-15 -96t-18 -141t-15 -192h-10zM89 -13h-2q-24 0 -40 16t-16 42q0 25 17 42q16 16 41 16q26 0 42 -16t16 -42t-16 -42t-42 -16z" />
    <glyph glyph-name="quotedbl" unicode="&#x22;" horiz-adv-x="258" 
d="M184 550l-1 -2q-3 24 -10 46q-2 5 -13 45q-8 28 -11 41q-5 22 -5 33q0 21 11 35t33 14q23 0 33 -13q11 -14 11 -34q0 -11 -5 -33q-3 -13 -11 -41q-11 -40 -13 -45q-7 -22 -10 -46h-9zM64 548l-1 -2q-3 24 -10 46q-2 5 -13 45q-8 28 -11 41q-5 22 -5 33q0 21 11 35t33 14
q23 0 33 -13q11 -14 11 -34q0 -11 -5 -33q-3 -13 -11 -41q-11 -40 -13 -45q-7 -22 -10 -46h-9z" />
    <glyph glyph-name="numbersign" unicode="#" horiz-adv-x="259" 
d="M4 280h56l32 240h-54v12h56l29 218h14l-29 -218h68l29 218h15l-29 -218h60v-12h-62l-32 -240h60v-12h-61l-36 -267h-15l36 267h-68l-36 -267h-14l36 267h-55v12zM142 280l32 240h-68l-32 -240h68z" />
    <glyph glyph-name="dollar" unicode="$" horiz-adv-x="317" 
d="M143 815l-8 -65q3 1 9 1h8h11v58h12v-59q22 -3 39 -10q18 -7 34 -18q15 -10 24 -27t9 -37q0 -16 -9 -28t-25 -12q-38 0 -39 46q-2 38 -6 54t-27 21v-284l18 -29q26 -42 41 -69q21 -39 32 -64q14 -31 21 -63q8 -34 8 -66q0 -75 -34 -118q-35 -44 -84 -54v-72h-12v70
q-3 -1 -9 -1h-10h-7v-69h-13v70q-24 2 -45 9q-22 8 -36 19q-15 12 -24 29t-9 38q0 23 12 33q13 11 29 11q18 0 31 -11q11 -10 13 -33v-37q0 -15 3 -24q3 -10 9 -14t20 -6v357l-5 8q-7 10 -40 63q-14 23 -31 56q-13 27 -21 57q-7 28 -7 66q0 62 30 98t75 45v61h13zM142 -4h-1
q11 0 20 3v286q-4 7 -12 23q-4 8 -14 24v-336h7zM215 111l-1 -1q0 36 -11 74q-11 37 -30 77v-258q42 25 42 108zM149 741v-3h-8q-4 0 -7 -1v-220l12 -21q4 -7 14 -21v266h-11zM86 651q0 -29 9 -56q10 -30 25 -56v192q-16 -10 -25 -31t-9 -49z" />
    <glyph glyph-name="percent" unicode="%" horiz-adv-x="488" 
d="M93 0l290 757l12 -6l-291 -758zM130 379h-1q-23 0 -42 15q-21 16 -35 40q-15 26 -24 60t-9 75t9 75t24 60q14 24 35 40q19 15 42 15t44 -15q22 -15 36 -40q15 -26 24 -60t9 -75t-9 -75t-24 -60q-14 -25 -36 -40q-21 -15 -43 -15zM129 388h-2q19 0 30 44q10 41 10 135
q0 95 -10 136q-10 43 -30 43q-18 0 -28 -43q-10 -41 -10 -136q0 -89 11 -135q11 -44 29 -44zM353 -6h-2q-22 0 -43 15q-22 15 -36 40q-15 25 -24 60t-9 75t9 75t24 60q14 25 36 40q21 15 44 15t44 -15q22 -15 36 -40q15 -25 24 -60t9 -75t-9 -75t-24 -60q-14 -25 -36 -40
q-21 -15 -43 -15zM351 3q19 0 30 44q10 41 10 135q0 95 -10 136q-10 43 -30 43t-30 -43q-10 -41 -10 -136q0 -94 10 -135q11 -44 30 -44z" />
    <glyph glyph-name="ampersand" unicode="&#x26;" horiz-adv-x="468" 
d="M356 221l-3 -6q38 -83 52 -112q21 -43 31 -61q12 -21 19 -28t17 -12v-6h-124l-40 89q-28 -57 -60 -78t-71 -21q-31 0 -61 14q-28 13 -49 39q-21 25 -33 62q-12 36 -12 83q0 46 12 80t32 62q19 26 44 48q27 23 48 38q-28 58 -42 101q-13 40 -13 86q0 41 12 71t30 48t41 27
q22 9 45 9q19 0 40 -6q20 -6 37 -21q16 -15 27 -41q11 -27 11 -63q0 -35 -10 -61q-11 -27 -25 -46q-16 -21 -33 -35q-22 -18 -33 -26l12 -26l83 -181l7 -16l26 92q11 39 15 61q4 23 1 39q-3 14 -14 22q-10 7 -29 12v6h124v-6q-17 -4 -31 -11q-11 -5 -19 -20q-7 -13 -15 -38
q-14 -46 -20 -65zM123 202l1 -1q0 -105 19 -153q20 -50 54 -50q13 0 24 4q13 5 26 15q13 11 27 30q14 20 27 49l-125 278l-13 27q-22 -31 -31 -78t-9 -121zM182 659l-1 -3q0 -50 18 -98q15 -40 41 -99q8 9 15 21q9 14 14 30q6 18 9 44t3 62q0 41 -5 69q-4 25 -12 39t-16 17
q-9 3 -17 3q-23 0 -36 -24q-13 -23 -13 -61z" />
    <glyph glyph-name="quotesingle" unicode="'" horiz-adv-x="139" 
d="M65 550l-1 -2q-3 24 -10 46q-2 5 -13 45q-8 28 -11 41q-5 22 -5 33q0 21 11 35t33 14q23 0 33 -13q11 -14 11 -34q0 -11 -5 -33q-3 -13 -11 -41q-11 -40 -13 -45q-7 -22 -10 -46h-9z" />
    <glyph glyph-name="parenleft" unicode="(" horiz-adv-x="202" 
d="M199 -106l-2 -5q-19 20 -51 62q-30 39 -57 96q-26 55 -46 130q-19 72 -19 165t19 165q20 76 46 129q28 57 57 95q32 42 51 62l5 -6q-8 -14 -28 -52q-17 -33 -34 -88q-15 -51 -28 -129q-12 -75 -12 -174q0 -100 12 -175q11 -72 29 -129q17 -55 34 -88q11 -22 29 -52z" />
    <glyph glyph-name="parenright" unicode=")" horiz-adv-x="202" 
d="M-2 -100h-1q9 16 27 53q16 34 33 89q18 57 29 129q12 75 12 176q0 99 -12 174q-13 78 -28 129q-16 53 -33 88q-15 32 -27 52l5 6q23 -25 51 -61q31 -40 57 -94q26 -53 46 -129q19 -72 19 -165t-19 -165q-20 -75 -46 -130q-27 -57 -57 -96q-32 -42 -51 -62z" />
    <glyph glyph-name="asterisk" unicode="*" horiz-adv-x="258" 
d="M152 535h4q0 -29 -23 -29t-23 29q0 19 9 41q10 25 14 51q-19 -24 -29 -45t-23 -36q-11 -10 -21 -12t-18 6q-17 17 4 36q14 14 36 24t45 27q-30 -5 -53 -12q-26 -8 -41 -8q-29 0 -29 23t29 23q17 0 41 -9q21 -8 53 -13q-21 17 -45 28q-22 11 -36 24q-10 10 -12 20
q-2 9 6 17q16 16 37 -3q13 -14 24 -37q10 -20 29 -46q-5 32 -13 53q-9 24 -9 41q0 29 23 29t23 -29q0 -15 -8 -41q-7 -23 -12 -53q16 22 27 47q10 23 24 37q19 21 37 3q8 -7 6 -18t-10 -19q-14 -14 -36 -24q-24 -11 -45 -28q26 4 51 14q23 9 41 9q29 0 29 -23t-29 -23
q-17 0 -41 8q-22 7 -51 12q23 -17 45 -27t36 -24q20 -21 3 -38q-7 -8 -18 -6t-21 12q-11 12 -22 36t-28 45q4 -29 12 -51q8 -24 8 -41z" />
    <glyph glyph-name="plus" unicode="+" horiz-adv-x="311" 
d="M149 209v136h-122v10h122v139h14v-139h121v-10h-121v-136h-14z" />
    <glyph glyph-name="comma" unicode="," horiz-adv-x="181" 
d="M118 14h-4q-5 -8 -13 -12q-10 -5 -25 -5q-19 0 -33 14t-14 36q0 25 16 40q17 15 37 15q25 0 46 -18t21 -59q0 -52 -28 -84q-29 -34 -70 -50l-5 6q38 17 59 42t21 54q0 13 -8 21z" />
    <glyph glyph-name="hyphen" unicode="-" horiz-adv-x="239" 
d="M52 310h152l-17 -64h-152z" />
    <glyph glyph-name="period" unicode="." horiz-adv-x="175" 
d="M88 -12q-25 0 -41 16q-17 17 -17 42t17 42q16 16 41 16q24 0 40 -16t16 -42t-16 -42t-40 -16z" />
    <glyph glyph-name="slash" unicode="/" horiz-adv-x="234" 
d="M236 795l-237 -964l-15 3l237 963z" />
    <glyph glyph-name="zero" unicode="0" horiz-adv-x="430" 
d="M217 759h-2q35 0 69 -23t59 -69q26 -48 41 -119q15 -72 15 -171q0 -96 -15 -168q-15 -74 -40 -120q-26 -49 -58 -72q-33 -24 -69 -24t-69 24q-34 25 -59 72q-25 48 -42 120q-16 70 -16 168q0 101 16 171q17 73 42 119t59 69t69 23zM215 749h-1q-44 0 -64 -96
q-19 -94 -19 -277q0 -98 4 -159q5 -69 15 -117q10 -46 26 -73q15 -25 39 -25q23 0 38 25q15 26 24 73q8 44 13 117q4 61 4 159q1 178 -17 277q-18 96 -62 96z" />
    <glyph glyph-name="one" unicode="1" horiz-adv-x="231" 
d="M28 0l1 4q12 3 21 8q8 5 11 18q4 16 5 41q1 18 1 74v429q0 26 -1 36q-2 15 -6 24t-14 12t-26 2v7l149 107v-615q0 -56 1 -74q1 -25 5 -41q3 -13 11 -18q9 -5 21 -8v-6h-179z" />
    <glyph glyph-name="two" unicode="2" horiz-adv-x="355" 
d="M196 85l-8 -5q55 0 73 1q25 1 41 5q14 3 20 11q7 8 11 20h9l-22 -83q-7 -25 -12 -31q-4 -6 -18 -6h-293l82 160q33 63 57 117q24 53 39 104q16 52 23 101q8 54 8 107q0 82 -12 123q-12 40 -46 40q-16 0 -24 -9q-8 -10 -11 -22q-3 -14 -3 -30q0 -11 -2 -31q-2 -21 -13 -34
q-12 -13 -33 -13q-19 0 -30 14t-11 33t11 38q11 18 29 32q18 13 42 21q26 8 50 8q23 0 53 -8t53 -28q25 -22 41 -55t16 -87q0 -52 -12 -99q-12 -45 -36 -97q-24 -51 -63 -108q-33 -48 -95 -132l-43 -57h129z" />
    <glyph glyph-name="three" unicode="3" horiz-adv-x="360" 
d="M143 3l-3 -2q42 0 65 63q23 64 23 183q0 106 -11 156q-11 48 -47 48q-17 0 -28 -4q-12 -5 -21 -12q-6 -5 -16 -17q-5 -6 -15 -20l-6 5l179 260h-104q-38 0 -51 -1q-20 -2 -30 -6q-11 -5 -17 -12q-6 -8 -12 -21h-9l23 88q6 24 9 29q3 6 14 6h238v-8l-197 -291q7 6 18 9
t26 3q29 0 58 -10q30 -11 53 -35q23 -25 38 -66q15 -42 15 -103q0 -63 -16 -110q-17 -49 -42 -80t-60 -48q-33 -16 -74 -16q-55 0 -88 27t-33 65q0 16 11 32q11 15 30 15q44 0 48 -46q2 -22 2 -32q0 -12 2 -26q1 -10 8 -17q6 -6 20 -6z" />
    <glyph glyph-name="four" unicode="4" horiz-adv-x="357" 
d="M278 173l2 -23q0 -57 1 -75q2 -31 4 -41q3 -14 9 -18q7 -5 17 -8v-6h-165v6q10 3 17 8q6 4 9 18q2 10 4 41q1 18 1 75v23h-171v6l252 576h20v-512h85l-36 -70h-49zM179 243v300l-130 -300h130z" />
    <glyph glyph-name="five" unicode="5" horiz-adv-x="353" 
d="M93 668l-30 -223q14 17 36 29q23 12 48 12q29 0 61 -9q31 -9 57 -35q25 -26 42 -69q16 -42 16 -114q0 -66 -17 -119q-16 -50 -44 -84t-63 -50q-37 -17 -72 -17q-23 0 -45 8q-21 7 -36 21q-15 13 -24 32q-9 18 -9 38t12 33q12 14 32 14q21 0 32 -12t12 -34q2 -21 -1 -36
q-3 -16 -3 -28q0 -11 6 -19q6 -7 26 -7q21 0 38 20t29 56t18 85q6 50 6 108q0 107 -16 159q-16 54 -57 54q-32 0 -54 -16q-23 -17 -33 -34l-6 4l41 315h225l-19 -68l-6 -12q-2 -2 -9 -2h-193z" />
    <glyph glyph-name="six" unicode="6" horiz-adv-x="415" 
d="M246 748l-2 -1q-31 0 -52 -18t-33 -51t-18 -80q-7 -51 -8 -105q27 24 66 24q89 0 138 -63q50 -64 50 -189q0 -67 -17 -120q-17 -51 -43 -85q-27 -35 -58 -51q-32 -17 -58 -17q-33 0 -66 21t-60 66q-26 43 -43 116q-16 68 -16 170q0 80 17 154q16 71 45 124t68 83t86 30
q25 0 45 -7q22 -8 36 -19q15 -12 24 -29t9 -34q0 -19 -12 -33q-12 -13 -28 -13q-19 0 -33 11q-13 10 -13 33q-1 13 -1 34q0 12 -2 26q-2 11 -6 17q-5 6 -15 6zM131 365l-2 -2q0 -104 7 -168q8 -73 19 -113q12 -44 27 -63q15 -20 29 -20q42 0 57 68q15 67 15 195q0 74 -6 122
q-6 46 -17 75q-11 28 -27 38q-17 11 -36 11q-37 0 -65 -27q-1 -18 -1 -56v-60z" />
    <glyph glyph-name="seven" unicode="7" horiz-adv-x="325" 
d="M119 0l-11 -1l171 669h-148q-40 0 -52 -1q-16 -1 -29 -5q-10 -3 -15 -9l-12 -16h-8l29 102q1 7 5 9t11 2h250v-8z" />
    <glyph glyph-name="eight" unicode="8" horiz-adv-x="372" 
d="M354 175l2 -4q0 -41 -12 -76t-34 -58q-22 -24 -52 -37q-29 -13 -64 -13q-38 0 -69 12t-54 35q-22 22 -36 56q-13 32 -13 74q0 40 12 71t30 57q17 24 41 45q25 22 45 35q-26 28 -45 54q-19 25 -33 53q-12 25 -19 56q-6 29 -6 63q0 39 12 69q13 32 31 50q20 19 45 30
q27 11 54 11q34 0 60 -10q28 -11 47 -30q20 -20 32 -48t12 -68q0 -30 -9 -56t-24 -48q-17 -25 -34 -41q-22 -20 -39 -32q28 -31 51 -60q24 -30 38 -57q16 -31 23 -61q8 -35 8 -72zM127 645l-2 2q0 -63 27 -112q26 -48 74 -102q16 29 24 66q8 40 8 101q0 46 -6 74
q-6 30 -16 45q-11 18 -22 23q-12 6 -24 6q-33 0 -48 -25t-15 -78zM191 -3l-1 2q26 0 42 9t25 25q9 17 12 39t3 48q0 40 -7 68q-8 32 -22 57q-15 27 -36 54q-17 22 -48 58l-4 4q-23 -30 -33 -76q-11 -49 -11 -120q0 -77 17 -123q16 -45 63 -45z" />
    <glyph glyph-name="nine" unicode="9" horiz-adv-x="413" 
d="M166 1l1 -1q34 0 55 18t33 51q13 35 17 80q4 47 6 105q-12 -11 -32 -19q-17 -7 -38 -7q-86 0 -135 63q-50 64 -50 190q0 69 18 120q18 50 44 84t57 50q32 17 58 17q36 0 68 -22q34 -23 59 -67q26 -47 41 -115q15 -70 15 -168q0 -82 -15 -152q-15 -71 -43 -124
q-29 -54 -69 -84t-90 -30q-23 0 -45 8q-21 8 -36 21t-24 30q-9 16 -9 35t11 33q10 13 27 13q19 0 33 -11q13 -11 12 -33q1 -11 1 -32q0 -11 2 -27q1 -11 8 -19q6 -7 20 -7zM128 483l2 -3q0 -65 5 -117q5 -47 15 -75q10 -27 26 -40q15 -12 35 -12t38 8q17 8 30 21q1 18 1 56
v60q0 102 -7 166q-8 73 -19 113q-12 43 -27 64t-28 21q-38 0 -55 -65q-16 -63 -16 -197z" />
    <glyph glyph-name="colon" unicode=":" horiz-adv-x="183" 
d="M92 331v-1q-24 0 -41 15t-17 41q0 25 17 42q16 16 41 16q24 0 40 -16t16 -42q0 -25 -16 -40t-40 -15zM92 -13q-25 0 -41 16q-17 17 -17 42t17 42q16 16 41 16q24 0 40 -16t16 -42t-16 -42t-40 -16z" />
    <glyph glyph-name="semicolon" unicode=";" horiz-adv-x="189" 
d="M94 331l-2 -1q-24 0 -40 15t-16 41q0 25 17 42q16 16 41 16q26 0 42 -16t16 -42q0 -25 -16 -40t-42 -15zM120 13h-4q-5 -8 -13 -12q-10 -5 -25 -5q-19 0 -33 14t-14 36q0 25 16 40q17 15 37 15q25 0 46 -18t21 -59q0 -52 -28 -84q-29 -34 -70 -50l-5 6q38 17 59 42
q21 26 21 54q0 13 -8 21z" />
    <glyph glyph-name="less" unicode="&#x3c;" horiz-adv-x="308" 
d="M29 358l249 104v-14l-232 -97l232 -97v-15l-249 104v15z" />
    <glyph glyph-name="equal" unicode="=" horiz-adv-x="321" 
d="M32 398h257v-13h-257v13zM32 312h257v-13h-257v13z" />
    <glyph glyph-name="greater" unicode="&#x3e;" horiz-adv-x="308" 
d="M29 239v15l232 97l-232 97v14l249 -104v-15z" />
    <glyph glyph-name="question" unicode="?" horiz-adv-x="289" 
d="M104 196l-4 -6q0 79 11 142q10 59 24 109q14 52 24 94q11 47 11 97q0 32 -3 55t-9 36t-15 18q-10 5 -21 5q-20 0 -23 -12q-4 -18 -8 -38q-4 -23 -15 -37q-10 -13 -30 -12q-16 1 -25 12q-9 10 -7 27q1 28 30 49q28 21 81 21q61 0 101 -34q41 -35 41 -108q0 -33 -11 -64
q-10 -29 -27 -58q-19 -33 -36 -59q-16 -24 -37 -65q-18 -34 -30 -77q-12 -42 -15 -95h-7zM112 -18h-2q-24 0 -40 16t-16 42q0 25 17 42q16 16 41 16q26 0 42 -16t16 -42t-16 -42t-42 -16z" />
    <glyph glyph-name="at" unicode="@" horiz-adv-x="641" 
d="M509 -47h-10q-15 -17 -38 -39q-22 -20 -49 -36q-29 -17 -64 -27q-34 -10 -79 -10q-50 0 -96 20q-44 19 -79 60q-34 41 -54 102q-20 63 -20 146q0 97 31 180q32 85 82 147q51 62 116 99q65 36 132 36q106 0 166 -70q60 -71 60 -199q0 -43 -7 -84q-8 -46 -22 -84
q-15 -41 -37 -76q-24 -38 -55 -62q-33 -26 -75 -39q-42 -14 -95 -9l12 71q-28 -39 -47 -57q-17 -16 -42 -16q-39 0 -63 39t-24 113q0 66 21 122q21 54 53 96q32 40 69 63q38 23 72 23q14 0 23 -6q6 -4 16 -12l15 -12q7 -6 18 -6q13 0 22 6q10 6 18 19h7l-50 -288
q-14 -83 -15 -111q-1 -14 5.5 -18t20.5 2q26 12 50 36t42 61q19 40 29 88q11 53 11 118q0 64 -15 115q-15 52 -42 86q-27 35 -64 54t-81 19q-63 0 -120 -30q-58 -30 -99 -85q-42 -56 -66 -133q-24 -78 -24 -175q0 -84 16 -147q16 -65 45 -108t66 -66q37 -22 83 -22
q42 0 78 11q35 11 62 27q27 17 48 36q23 22 38 39zM242 94l-1 -1q0 -73 18 -73q9 0 25 18q12 14 43 56l48 286q5 38 5 56q0 21 -18 21t-39 -30t-39 -81t-30 -117t-12 -135z" />
    <glyph glyph-name="A" unicode="A" horiz-adv-x="342" 
d="M-2 5l-4 -2q8 5 14 12q5 6 10 21q4 14 9 36t9 57l79 514l-6 36q-6 40 -16 51q-11 12 -21 15v5h111q7 0 11 -2t5 -12l101 -609q4 -30 9 -52q5 -21 9 -36q5 -15 10 -22q5 -6 14 -10v-6h-147v6q7 1 12 6t8 12t3 21t-3 36l-24 139h-127l-14 -90q-4 -35 -6 -57q-2 -24 1 -36
q3 -13 11 -21q8 -7 21 -12v-5h-79v5zM186 227l-66 385l-59 -385h125z" />
    <glyph glyph-name="B" unicode="B" horiz-adv-x="406" 
d="M19 6l-2 -8q10 3 17 8q6 4 9 20q2 12 4 42q1 18 1 74v454q0 56 -1 74q-2 30 -4 42q-3 16 -9 20q-7 5 -17 8v6h152q43 0 78 -9q34 -9 59 -29q24 -19 37 -52q13 -32 13 -79q0 -68 -40 -114q-41 -47 -112 -54v-1q94 -10 141 -63q46 -52 46 -128q0 -57 -17 -99
q-16 -39 -47 -67q-30 -27 -72 -39t-92 -12h-144v6zM151 733l-1 -330h16q56 0 77 41q21 40 21 122q0 92 -21 129q-21 38 -75 38h-17zM150 395l1 -399h5q36 0 61 9q24 9 40 32q15 22 21 62q6 39 6 99q0 47 -6 83q-6 38 -19 62q-14 26 -37 39t-60 13h-12z" />
    <glyph glyph-name="C" unicode="C" horiz-adv-x="349" 
d="M233 -9v-1q-33 0 -72 17q-37 16 -67 60q-29 42 -49 120q-19 75 -19 198q0 109 18 181q18 71 45 115q27 43 60 60q34 17 62 17q14 0 23 -3q12 -4 18 -7t16 -7q8 -3 15 -3q23 0 30 28h8v-163h-8q-13 49 -25 74q-14 29 -27 45t-27 22t-24 6q-16 0 -30 -18t-24 -60
q-10 -39 -16 -111q-6 -69 -6 -171q0 -112 9 -186t24 -117t36 -61t46 -18q23 0 41 12t35 32l6 -6q-12 -18 -38 -37q-24 -18 -60 -18z" />
    <glyph glyph-name="D" unicode="D" horiz-adv-x="438" 
d="M19 6l-1 -4q10 3 17 8q6 4 9 20q2 12 4 42q1 18 1 74v454q0 56 -1 74q-2 30 -4 42q-3 16 -9 20q-7 5 -17 8v6h148q51 0 96 -21t78 -66q32 -44 52 -114q19 -67 19 -164q0 -184 -63 -284q-63 -101 -181 -101h-148v6zM152 737l-1 -732h14q32 0 57 19t43 63q18 43 27 116
q9 72 9 179q0 114 -13 180q-14 70 -34 108q-21 40 -45 53q-25 14 -43 14h-14z" />
    <glyph glyph-name="E" unicode="E" horiz-adv-x="351" 
d="M19 6l-4 -3q10 3 17 8q6 4 9 20q2 12 4 42q1 18 1 74v454q0 56 -1 74q-2 30 -4 42q-3 16 -9 20q-7 5 -17 8v6h267q8 0 12 -3q5 -3 6 -19l18 -97h-9q-11 33 -24 53q-13 21 -33 33q-20 13 -44 17t-56 6v-321q26 2 41 9t24 18t12 24l6 27h6v-168h-6l-6 27q-3 13 -12 24
t-24 18t-41 9v-401h3q39 0 67 3q27 3 49 17t36 37q16 25 26 65h9l-12 -112q-2 -13 -6 -15q-6 -2 -12 -2h-293v6z" />
    <glyph glyph-name="F" unicode="F" horiz-adv-x="327" 
d="M19 6h-2q10 3 17 8q6 4 9 18q2 10 4 41q1 18 1 74v454q0 56 -1 74q-2 31 -4 41q-3 14 -9 18q-7 5 -17 8v6h273q8 0 12 -3q5 -3 6 -19l14 -100h-9q-10 31 -23 53t-31 35t-45 19q-23 5 -61 7v-316q34 0 51 7q19 8 29 19q10 12 15 26q3 9 7 29h6v-168h-6q-4 20 -7 29
q-4 14 -15 24q-11 11 -28 18t-51 7v-268q0 -56 1 -74q2 -31 4 -41q3 -14 9 -18q7 -5 17 -8v-6h-166v6z" />
    <glyph glyph-name="G" unicode="G" horiz-adv-x="410" 
d="M234 -10l-7 -2q-100 0 -156 101q-55 100 -55 290q0 97 18 168q18 69 47 117q28 46 65 69q35 22 72 22q17 0 28 -4q8 -3 22 -9t20 -9q8 -4 20 -4q8 0 12 6t9 20h7v-164h-7q-17 86 -46 121q-30 36 -64 36q-22 0 -40 -19t-30 -62q-12 -42 -18 -111t-6 -166q0 -202 26 -298
q25 -94 78 -94q14 0 26 29t12 102v43q0 61 -1 81q-2 31 -6 47q-5 16 -10 22q-6 6 -17 8v7h162v-7q-9 -1 -16 -8q-6 -6 -9 -24q-4 -22 -5 -53q-1 -23 -1 -95v-92q-11 -15 -27 -26q-15 -11 -35 -21q-18 -9 -36 -15t-32 -6z" />
    <glyph glyph-name="H" unicode="H" horiz-adv-x="459" 
d="M19 6q10 3 17 8q6 4 9 18q2 10 4 41q1 18 1 74v454q0 56 -1 74q-2 31 -4 41q-3 14 -9 18q-7 5 -17 8v6h165v-6q-10 -3 -17 -8q-6 -4 -9 -18q-2 -10 -4 -41q-1 -18 -1 -74v-187h155v187q0 56 -1 74q-2 31 -4 41q-3 14 -9 18q-7 5 -17 8v6h165v-6q-10 -3 -17 -8
q-6 -4 -9 -18q-2 -10 -4 -41q-1 -18 -1 -74v-454q0 -56 1 -74q2 -31 4 -41q3 -14 9 -18q7 -5 17 -8v-6h-165v6q10 3 17 8q6 4 9 18q2 10 4 41q1 18 1 74v259h-155v-259q0 -56 1 -74q2 -31 4 -41q3 -14 9 -18q7 -5 17 -8v-6h-165v6z" />
    <glyph glyph-name="I" unicode="I" horiz-adv-x="203" 
d="M19 6v-2q10 3 17 8q6 4 9 20q2 12 4 42q1 18 1 74v454q0 56 -1 74q-2 31 -4 41q-3 13 -9 18q-7 5 -17 8v6h165v-6q-10 -3 -17 -8q-6 -5 -9 -18q-2 -10 -4 -41q-1 -18 -1 -74v-454q0 -55 1 -73q2 -30 4 -42q3 -14 9 -19q7 -5 17 -8v-6h-165v6z" />
    <glyph glyph-name="J" unicode="J" horiz-adv-x="306" 
d="M127 -10l-3 -3q-66 0 -93 18t-27 44q0 20 12 32t29 12q18 0 30 -12q13 -13 20 -36q8 -26 15 -35q8 -9 18 -9t19 14q9 13 9 54v533q0 56 -1 74q-2 31 -4 41q-3 13 -9 18q-7 5 -17 8v6h166v-6q-10 -3 -17 -8q-6 -5 -9 -18q-2 -10 -4 -41q-1 -18 -1 -74v-453q0 -39 -11 -70
q-10 -28 -29 -49q-18 -20 -42 -30q-23 -10 -51 -10z" />
    <glyph glyph-name="K" unicode="K" horiz-adv-x="409" 
d="M251 6l-2 -2q10 6 14 9q6 5 9 13t1 22q-1 14 -9 36l-111 310l163 266q13 22 18 38t2 24q-3 10 -9 14q-8 6 -13 8v6h87v-6q-11 -4 -18 -9q-7 -4 -15 -14q-8 -9 -18 -24q-9 -13 -25 -40l-98 -160l149 -417q9 -24 13 -34l9 -21t6 -12q2 -3 8 -7v-6h-161v6zM17 4q10 3 17 8
q6 4 9 18q2 10 4 41q1 18 1 74v454q0 56 -1 74q-2 31 -4 41q-3 14 -9 18q-7 5 -17 8v6h165v-6q-10 -3 -17 -8q-6 -4 -9 -18q-2 -10 -4 -41q-1 -18 -1 -74v-454q0 -56 1 -74q2 -31 4 -41q3 -14 9 -18q7 -5 17 -8v-6h-165v6z" />
    <glyph glyph-name="L" unicode="L" horiz-adv-x="348" 
d="M19 6l-1 -2q10 3 17 8q6 4 9 18q2 10 4 41q1 18 1 74v454q0 56 -1 74q-2 31 -4 41q-3 14 -9 18q-7 5 -17 8v6h168v-6q-10 -2 -19 -8q-7 -4 -10 -18q-2 -10 -4 -41q-1 -18 -1 -74v-593h1q33 0 63 5q28 5 48 19q22 16 38 42q18 29 32 72h7l-20 -127q-1 -13 -6 -15
q-6 -2 -12 -2h-284v6z" />
    <glyph glyph-name="M" unicode="M" horiz-adv-x="477" 
d="M19 6v-6q11 8 17 14t9 21q2 11 4 41q1 17 1 71v450q0 56 -1 74q-2 30 -4 42q-3 16 -9 20q-7 5 -17 8v6h123q8 0 12 -3t9 -20l75 -461l82 485h138v-6q-10 -3 -17 -8q-6 -4 -9 -18q-2 -10 -4 -41q-1 -18 -1 -74v-454q0 -56 1 -74q2 -31 4 -41q3 -14 9 -18q7 -5 17 -8v-6
h-168v6q10 3 17 8q6 4 9 18q2 10 4 41q1 18 1 74v549l-118 -700h-12l-130 704v-549q0 -54 1 -71q1 -21 5 -40q3 -15 11 -21q5 -4 21 -13v-6h-80v6z" />
    <glyph glyph-name="N" unicode="N" horiz-adv-x="399" 
d="M19 6l-2 -7q11 8 17 14t9 21q2 11 4 41q1 17 1 71v450q0 56 -1 74q-2 30 -4 42q-3 16 -9 20q-7 5 -17 8v6h114q19 0 24 -4q6 -5 12 -19l175 -476v348q0 54 -1 71q-2 30 -4 41q-3 15 -11 21q-10 8 -21 14v6h80v-6q-14 -10 -17 -13q-6 -6 -9 -21q-2 -12 -4 -40
q-1 -17 -1 -71v-601h-20l-273 722v-567q0 -54 1 -71q1 -21 5 -40q3 -15 11 -21q5 -4 21 -13v-6h-80v6z" />
    <glyph glyph-name="O" unicode="O" horiz-adv-x="431" 
d="M216 -10l-2 -3q-34 0 -67 24t-60 74q-28 51 -44 121q-17 74 -17 167q0 96 17 170q16 71 44 119q28 47 60 71q33 24 68 24t68 -24q34 -24 60 -70q28 -48 44 -119q17 -74 17 -169q0 -93 -17 -167q-16 -70 -44 -121q-27 -49 -60 -73t-67 -24zM214 -3l-2 -1q43 0 61 99
q17 96 19 278q2 180 -18 276t-60 96q-42 0 -61 -96q-19 -94 -19 -276q0 -178 18 -277t62 -99z" />
    <glyph glyph-name="P" unicode="P" horiz-adv-x="382" 
d="M19 6v2q10 3 17 8q6 4 9 18q2 10 4 41q1 18 1 74v454q0 56 -1 74q-2 31 -4 41q-3 14 -9 18q-7 5 -17 8v6h157q42 0 77 -9t60 -31t40 -58t15 -93q0 -55 -15 -96q-14 -39 -41 -67q-25 -27 -62 -39q-36 -12 -79 -12h-18v-198q0 -56 1 -74q2 -31 4 -41q3 -14 10 -18
q9 -6 19 -8v-6h-168v6zM153 743l-2 -390h15q17 0 35 9q19 9 33 31q15 23 24 60t9 96q0 61 -9 98q-9 40 -22 59q-14 22 -30 29q-18 8 -31 8h-22z" />
    <glyph glyph-name="Q" unicode="Q" horiz-adv-x="431" 
d="M216 -8l-2 -5q-41 0 -75 28q-35 29 -60 79t-40 121t-15 156q0 96 17 170q17 73 43 120q28 49 61 71q35 23 69 23q35 0 70 -23q34 -22 61 -70q26 -46 43 -120q16 -70 16 -170q0 -126 -27 -210q-27 -85 -69 -128q8 -17 15 -34q7 -20 15 -42q15 -48 27 -85q10 -31 33 -31
q8 0 15 4t12 9l4 -4q-4 -4 -17 -12q-11 -7 -36 -7q-21 0 -36 4q-16 4 -31 18q-15 13 -27 38q-11 21 -22 65l-11 41q-17 -6 -33 -6zM214 744l-1 2q-22 0 -37 -25t-24 -74q-10 -52 -14 -117q-4 -61 -4 -156q0 -168 9 -261q9 -92 44 -112q-18 17 -18 39t14 38q13 15 42 15
q28 0 50 -20q11 46 14 116q3 72 3 182q0 95 -4 156q-5 73 -13 117q-9 49 -24 74q-15 26 -37 26zM180 40h-1q0 -13 8 -27t24 -14q18 0 31 10q-12 43 -16 53q-6 15 -23 15q-7 0 -15 -9q-8 -10 -8 -28z" />
    <glyph glyph-name="R" unicode="R" horiz-adv-x="393" 
d="M19 6h-1q10 3 17 8q6 4 9 18q2 10 4 41q1 18 1 74v454q0 56 -1 74q-2 31 -4 41q-3 14 -9 18q-7 5 -17 8v6h137q48 0 83 -7q38 -7 66 -27t45 -54q16 -33 16 -90q0 -45 -13 -78q-14 -34 -36 -60q-22 -25 -54 -40q-30 -14 -69 -19q26 -2 47 -9q22 -8 38 -27q15 -18 28 -53
t20 -87q9 -65 15 -102q5 -30 11 -57q4 -20 9 -24q5 -5 12 -5q11 0 18 4q2 1 6 3.5t6 3.5l5 -4q-4 -7 -21 -16t-51 -9q-28 0 -45 7q-18 8 -30 27q-11 18 -19 54q-7 30 -13 90q-6 58 -14 107q-6 39 -15 60t-19 27q-9 5 -27 7v-223q0 -56 1 -74q2 -31 4 -41q3 -14 9 -18
q7 -5 17 -8v-6h-166v6zM152 741l-3 -362h9q62 0 86 51t24 140q0 52 -8 87q-7 31 -23 52q-15 20 -36 26t-48 6h-1z" />
    <glyph glyph-name="S" unicode="S" horiz-adv-x="335" 
d="M144 -8l-10 -4q-23 0 -42 8t-31 16q-15 10 -21 16q-8 8 -12 8t-9 -20h-6v191h7q15 -109 42 -159t75 -50q42 0 66 27t24 82q0 32 -9 62q-10 33 -25 62q-20 37 -37 66q-6 10 -43 74q-24 44 -36 65q-18 31 -29 56q-13 29 -20 56t-7 63q0 66 39 105t104 39q18 0 30 -4
q14 -5 24 -9t18 -9q7 -4 12 -4q7 0 9 8q1 5 3 17h7v-147h-7q-17 80 -39 110q-23 30 -54 30q-38 0 -53 -21t-15 -54q0 -26 9 -51t24 -54q18 -34 34 -60q20 -31 39 -66q23 -37 42 -72t33 -66q15 -35 23 -63q9 -32 9 -65q0 -49 -15 -83t-39 -57t-54 -33q-29 -10 -60 -10z" />
    <glyph glyph-name="T" unicode="T" horiz-adv-x="387" 
d="M111 6l2 -3q10 3 17 8q6 4 9 20q2 12 4 42q1 18 1 74v593q-33 -2 -54 -9q-20 -7 -34 -23t-23 -39q-6 -16 -19 -55h-7l9 114q1 15 5 19q3 3 11 3h324q8 0 11 -3q4 -4 5 -19l9 -114h-7q-8 24 -20 54q-10 24 -22 38q-14 15 -33 24q-21 10 -53 11v-593q0 -55 1 -73
q2 -30 4 -42q3 -14 9 -19q7 -5 17 -8v-6h-166v6z" />
    <glyph glyph-name="U" unicode="U" 
d="M202 -12l-3 -3q-74 0 -116 39t-42 126v449q0 56 -1 74q-2 31 -4 41q-3 14 -9 18q-7 5 -17 8v6h164v-6q-10 -3 -17 -8q-6 -4 -9 -18q-2 -10 -4 -41q-1 -18 -1 -74v-455q0 -77 17 -111q16 -33 59 -33q50 0 74 38t24 108v449q0 54 -1 71q-2 30 -4 41q-3 15 -11 21
q-10 8 -21 14v6h81v-6q-14 -10 -17 -13q-6 -6 -9 -21q-2 -12 -4 -40q-1 -17 -1 -71v-449q0 -75 -29 -118q-29 -42 -99 -42z" />
    <glyph glyph-name="V" unicode="V" horiz-adv-x="354" 
d="M48 613l-2 -2q-8 37 -12 55q-4 21 -9 37q-4 14 -11 24q-5 8 -15 16v6h164v-6q-22 -6 -28 -22t5 -63l86 -435l74 400q10 49 6 78t-39 42v6h89v-6q-9 -5 -15 -9t-10 -16q-5 -13 -9 -34q-7 -35 -12 -61l-115 -628h-17z" />
    <glyph glyph-name="W" unicode="W" horiz-adv-x="550" 
d="M47 623l-4 -3l-12 48t-9 33q-5 16 -10 23q-7 10 -15 17v7h155v-7q-22 -7 -24 -24q-1 -16 9 -58l107 -472l40 175l-58 258q-8 28 -12 48t-9 33q-4 13 -11 23q-6 9 -17 15v7h153v-7q-21 -6 -21 -22q0 -17 9 -60l30 -150l21 113q1 5 7 41q3 20 2 33q-2 16 -7 27
q-6 12 -19 19v7h79v-7q-11 -4 -18 -9q-8 -5 -12 -16q-5 -13 -9 -34l-12 -60l-27 -137l59 -296l79 432l7 42q3 18 1 35q-2 16 -10 26q-9 11 -27 18v7h89v-7q-5 -3 -13 -9q-6 -4 -12 -17q-6 -12 -12 -33q-4 -14 -13 -59l-115 -628h-17l-78 346l-78 -346h-17z" />
    <glyph glyph-name="X" unicode="X" horiz-adv-x="356" 
d="M7 6l-2 2q14 6 22 13q9 7 16 19q7 11 15 32q8 20 18 51l61 217l-73 294q-9 34 -15 54t-12 30q-6 11 -14 17q-6 5 -20 10v6h173v-6q-14 -3 -20 -9t-6 -16q0 -8 5 -30q2 -10 14 -51l40 -168l42 163q18 56 15 80q-3 25 -37 32v6h101v-6q-15 -6 -25 -12q-9 -6 -15 -18
q-6 -11 -12 -32q-1 -4 -7 -22.5t-10 -31.5l-45 -179l77 -321q9 -32 15 -51q6 -21 12 -32q6 -12 15 -21t24 -18v-6h-174v6q14 4 21 11q6 6 6 18t-6 33t-15 54l-48 195l-57 -201q-19 -53 -13 -78q6 -23 39 -34v-6h-105v6z" />
    <glyph glyph-name="Y" unicode="Y" horiz-adv-x="340" 
d="M97 6l2 -2q10 3 17 8q6 4 9 20q2 12 4 42q1 18 1 74v245l-75 235q-13 50 -22 71q-11 25 -33 45v6h157v-6q-11 -5 -15 -10t-4 -15q0 -9 3 -21l7 -28l77 -258l52 211q9 33 12 54q3 23 2 33q-2 13 -12 20q-11 8 -28 12v6h90v-6q-9 -4 -16 -9q-6 -5 -11 -17q-7 -18 -11 -33
q-5 -18 -15 -59l-57 -222v-254q0 -55 1 -73q2 -30 4 -42q3 -14 9 -19q7 -5 17 -8v-6h-165v6z" />
    <glyph glyph-name="Z" unicode="Z" horiz-adv-x="339" 
d="M203 741v-3q-35 -1 -61 -12q-26 -10 -43 -28q-19 -19 -33 -40q-13 -19 -31 -49h-6l25 139h255l-186 -742q49 2 81 12q32 11 53 30q22 21 35 49q17 39 29 70h6l-20 -167h-290z" />
    <glyph glyph-name="bracketleft" unicode="[" horiz-adv-x="186" 
d="M170 793v-9h-62v-881h62v-9h-129v899h129z" />
    <glyph glyph-name="backslash" unicode="\" horiz-adv-x="234" 
d="M250 -166l-15 -3l-237 964l15 2z" />
    <glyph glyph-name="bracketright" unicode="]" horiz-adv-x="186" 
d="M145 -106h-129v9h62v881h-62v9h129v-899z" />
    <glyph glyph-name="asciicircum" unicode="^" horiz-adv-x="265" 
d="M129 756h8l109 -237l-8 -4l-105 229l-105 -229l-8 4z" />
    <glyph glyph-name="underscore" unicode="_" horiz-adv-x="267" 
d="M-5 -68h277v-13h-277v13z" />
    <glyph glyph-name="grave" unicode="`" horiz-adv-x="446" 
d="M160 605l1 -2q-13 10 -21 23q-7 11 -7 26q0 14 9 23t24 9q14 0 23 -10q10 -12 20 -30l62 -120l-6 -4z" />
    <glyph glyph-name="a" unicode="a" horiz-adv-x="334" 
d="M108 -7l-3 -4q-36 0 -60 26q-24 25 -24 77q0 35 15 56t36 36t45 27q22 11 42 26l-2 -1q5 5 15 13q8 6 14 14q6 7 9 18t3 29v75q0 29 -1 39q-1 15 -6 24t-12 12t-20 3t-24 -12t-21 -45q-4 -16 -12 -27q-7 -10 -25 -10q-16 0 -25 9t-9 23q0 12 6 24t20 23t36 17q23 6 54 6
q32 0 53 -4q24 -5 42 -18q17 -13 28 -36q10 -21 10 -60v-225q0 -48 1 -64q2 -27 4 -36q3 -12 7 -15t12 -3q14 0 21 7l3 -6q-8 -6 -19 -11q-13 -6 -42 -6q-37 0 -55 15t-21 38q-9 -10 -24 -25q-12 -12 -21 -17q-11 -6 -22 -9q-12 -3 -28 -3zM112 111v-3q0 -50 9 -75t26 -25
q5 0 14 9q1 1 33 35v216q-6 -15 -17 -23q-11 -7 -24 -18l3 2q-15 -12 -24 -24q-8 -11 -13 -25t-6 -30q-1 -11 -1 -39z" />
    <glyph glyph-name="b" unicode="b" horiz-adv-x="374" 
d="M179 -4v-4q-17 0 -30 6q-9 4 -25 14t-24 14q-12 6 -26 6q-13 0 -17 -7q-5 -8 -6 -13h-7v623q0 27 -1 35q-2 15 -4 20q-3 8 -9 9t-15 3v7l120 63v-359q24 30 41 44t39 14q21 0 46 -11t44 -36t33 -68q13 -40 13 -103q0 -67 -13 -113q-14 -49 -36 -80q-22 -32 -54 -48
q-31 -16 -69 -16zM151 19l-4 1q1 -6 8 -13q6 -6 20 -6q43 0 60 60q16 58 16 173q0 113 -14 169q-13 54 -36 54q-13 0 -27 -12t-39 -45v-301q0 -37 5 -55q4 -14 11 -25z" />
    <glyph glyph-name="c" unicode="c" horiz-adv-x="296" 
d="M193 -5l-7 -3q-33 0 -64 14q-29 13 -54 44q-23 29 -37 75q-13 43 -13 107q0 60 15 105q15 44 38 75q22 30 50 45q27 15 50 15q21 0 37 -4q18 -5 31 -13q13 -9 22 -22t9 -30q0 -15 -9 -24t-24 -9q-36 0 -42 46q-3 26 -6 36q-3 11 -16 11q-16 0 -26 -16q-11 -18 -17 -45
q-6 -28 -9 -68q-3 -39 -3 -85q0 -115 22 -177q22 -63 64 -63q27 0 44 13q20 15 29 24l7 -6q-3 -4 -12 -13q-8 -7 -18 -15q-10 -7 -26 -12q-17 -5 -35 -5z" />
    <glyph glyph-name="d" unicode="d" 
d="M153 -7l-3 -9q-26 0 -49 13q-24 13 -42 42q-19 30 -29 73q-11 47 -11 109q0 67 15 114q15 46 39 76q23 29 51 43t53 14q16 0 32 -8t29 -21v192q0 30 -1 39q-2 15 -4 20q-3 7 -9 8q-7 2 -16 3v7l124 66v-686v-41q0 -15 3 -24t9 -12q7 -3 16 -6v-6h-119v65q-32 -42 -51 -56
q-20 -15 -37 -15zM116 230l-2 -2q0 -121 16 -175q16 -55 39 -55q3 0 7 3q6 4 12 10q12 12 20 21q12 14 30 36v355q-13 14 -29 24q-15 9 -32 9q-25 0 -43 -52t-18 -174z" />
    <glyph glyph-name="e" unicode="e" horiz-adv-x="307" 
d="M191 -5l-3 1q-36 0 -69 14q-31 14 -54 42q-23 29 -35 74t-12 108q0 62 15 107t36 75q21 29 47 45q26 15 47 15q32 0 53 -12q22 -12 35 -33t21 -51t9 -64h-167q-1 -8 -1 -26v-29q0 -57 3 -103q3 -44 14 -79q10 -33 27 -51t42 -18q28 0 45 11q14 9 27 20l5 -7
q-11 -11 -28 -24q-20 -15 -57 -15zM163 467l-2 -2q-7 0 -15 -6q-8 -7 -14 -22q-7 -19 -11 -43q-5 -27 -6 -70h84q2 71 -6 107q-7 36 -30 36z" />
    <glyph glyph-name="f" unicode="f" horiz-adv-x="205" 
d="M24 6l-1 1q10 3 14 6t7 12t3 24v41v366h-49v7q29 3 40 12q10 9 10 31v77q0 51 15 86q15 34 36 55t45 30t42 9q34 0 60 -15q25 -15 25 -40q0 -14 -9 -24t-25 -10q-19 0 -28 9q-8 8 -13 26q-4 26 -8 35q-3 8 -9 8q-7 0 -15 -6q-6 -5 -13 -20q-6 -13 -9 -38q-3 -24 -3 -61
v-162h72v-10h-72v-366v-41q0 -14 5 -24q4 -9 12 -12t21 -6v-6h-153v6z" />
    <glyph glyph-name="g" unicode="g" horiz-adv-x="325" 
d="M154 161l-7 -2q-14 0 -29 3q-17 3 -30 10l-3 -2q-16 -11 -22 -21q-6 -9 -6 -15q0 -3 2 -9q1 -5 6 -9t15 -9q6 -3 30 -10l103 -27q32 -7 55 -20q21 -12 33 -27q11 -14 16 -31q4 -15 4 -33q0 -34 -14 -60q-13 -25 -36 -42t-52 -24q-32 -8 -61 -8q-35 0 -63 7q-27 7 -52 20
q-23 12 -36 30q-13 17 -13 39q0 15 8 29t20 26t29 23q22 14 33 20q-35 13 -49 33q-13 19 -13 45q0 29 20 47q17 16 39 31l3 2q-28 15 -48 47t-20 89q0 43 14 76t34 50q21 18 45 27t45 9q18 0 34 -4q19 -5 35 -15q28 21 42 29q16 9 32 9q32 0 32 -32q0 -13 -8 -21t-18 -8
q-8 0 -13 4l-12 9l-12 9q-5 4 -12 4q-14 0 -24 -6q26 -19 44 -51q18 -33 18 -86q0 -44 -14 -75t-34 -48t-45 -25q-22 -7 -45 -7zM41 -74v-2q0 -40 28 -65q29 -26 88 -26q55 0 90 24q34 24 34 64q0 23 -17 37q-16 13 -68 27l-87 25l-19 6q-28 -16 -39 -36q-10 -19 -10 -54z
M147 166l-2 -2q8 0 18 8t17 25q8 18 12 45q5 30 5 66q0 79 -17 116q-16 36 -35 36q-17 0 -33 -36q-16 -35 -16 -115q0 -36 5 -66q5 -27 12 -45q7 -17 17 -25q8 -7 17 -7z" />
    <glyph glyph-name="h" unicode="h" horiz-adv-x="378" 
d="M18 6v-3q10 3 14 6t7 12t3 24v41v538q0 30 -1 39q-2 15 -4 20q-3 7 -9 8q-8 2 -16 2v7l123 72v-375q21 22 37 37t30 24q13 9 26 12q12 3 24 3q11 0 24 -4q16 -5 29 -15t24 -29q10 -17 10 -47v-288v-41q0 -12 2 -24q1 -9 6 -12q4 -3 14 -6v-6h-144v6q9 3 16 6q6 3 9 12
t3 24v41v310q0 32 -9 42q-9 11 -19 11q-1 0 -9 -2q-4 -1 -16 -8q-8 -4 -25 -20t-35 -36v-298v-41q0 -15 3 -24t9 -12q7 -3 16 -6v-6h-142v6z" />
    <glyph glyph-name="i" unicode="i" horiz-adv-x="178" 
d="M88 540v-1q-22 0 -37 15t-15 38q0 22 15 37t37 15q23 0 38 -15t15 -37t-15 -37t-38 -15zM17 5v-1q9 3 16 6q6 3 9 12t3 24v41v233q0 27 -1 36q-2 15 -4 21q-3 7 -9 10q-8 4 -16 5v7l120 75v-386v-41q0 -15 3 -24t9 -12q7 -3 16 -6v-6h-146v6z" />
    <glyph glyph-name="j" unicode="j" horiz-adv-x="179" 
d="M87 540v-1q-22 0 -37 15t-15 38q0 22 15 37t37 15q23 0 38 -15t15 -37t-15 -37t-38 -15zM-25 -140l1 2q-20 0 -33 10t-13 28q0 16 11 25t24 9q15 0 23 -7q12 -10 17 -16t13 -16q6 -7 14 -7q5 0 9 4q2 2 2 6v15v29v49v330q0 27 -1 36q-2 15 -4 21q-3 7 -9 10q-8 4 -16 5v7
l121 75v-418q0 -31 -3 -55q-3 -23 -12 -43q-9 -19 -24 -36q-15 -16 -37 -31q-30 -21 -46 -26q-18 -6 -37 -6z" />
    <glyph glyph-name="k" unicode="k" horiz-adv-x="345" 
d="M18 6h-1q11 4 14 7q4 4 7 13t3 24v41v557q0 21 -1 27q-2 11 -4 14q-3 5 -9 5q-3 0 -15 2v7l120 73v-685v-41q0 -15 3 -24q3 -8 9 -13q5 -4 16 -7v-6h-142v6zM198 5h-1q16 5 20 15q5 10 -6 39l-75 186v6l119 150q11 15 14 24q3 11 0 18q-3 8 -10 12q-7 5 -15 6v6h91v-6
q-10 -3 -16 -7q-7 -4 -15 -12q-11 -11 -18 -19q-3 -4 -7 -8.5t-9 -11t-9 -10.5l-62 -77l113 -266q10 -25 16 -32q7 -8 15 -13v-5h-145v5z" />
    <glyph glyph-name="l" unicode="l" horiz-adv-x="178" 
d="M17 6l-1 -1q9 3 16 6q6 3 9 12t3 24v41v558q0 20 -1 26q-2 11 -4 14q-3 4 -9 6q-7 2 -16 3v7l121 73v-686v-41q0 -15 3 -24t9 -12q7 -3 16 -6v-6h-146v6z" />
    <glyph glyph-name="m" unicode="m" horiz-adv-x="546" 
d="M18 6l-1 -2q10 3 14 6t7 12t3 24v41v233q0 29 -1 38q-2 15 -4 21q-3 7 -9 10q-5 2 -16 4v7l120 75v-66q32 37 54 50q23 14 48 14q29 0 51 -16q22 -17 30 -51q33 38 56 53q22 15 48 15q13 0 26 -4q14 -4 28 -15q13 -10 22 -30q9 -19 9 -48v-288v-41q0 -15 3 -24t9 -12
q7 -3 16 -6v-6h-144v6q10 3 14 6q5 3 8 12t3 24v41v310q0 31 -8 42t-17 11t-23 -10q-17 -12 -47 -46l1 -6v-301v-41q0 -15 3 -24t9 -12q7 -3 16 -6v-6h-144v6q10 3 14 6q5 3 8 12t3 24v41v310q0 31 -9 42t-18 11q-5 0 -8 -1q-6 -2 -12 -7q-7 -5 -20 -17q-10 -9 -28 -30v-308
v-41q0 -15 3 -24t9 -12q7 -3 16 -6v-6h-142v6z" />
    <glyph glyph-name="n" unicode="n" horiz-adv-x="379" 
d="M18 6l1 -2q10 3 14 6t7 12t3 24v41v233q0 29 -1 38q-2 15 -4 21q-3 7 -9 10q-5 2 -16 4v7l122 75v-76q21 22 37 37t30 24q13 9 26 12q12 3 25 3q11 0 24 -4q16 -5 29 -15q14 -10 24 -30q10 -19 10 -48v-288v-41q0 -12 2 -24q2 -9 6 -12t14 -6v-6h-146v6q9 3 16 6
q6 3 9 12q2 7 4 24q1 10 1 41v310q0 30 -8 43q-8 12 -20 12q-1 0 -9 -2q-5 -1 -16 -9q-8 -6 -25 -21q-13 -11 -34 -36v-298v-41q0 -15 3 -24t9 -12q7 -3 16 -6v-6h-144v6z" />
    <glyph glyph-name="o" unicode="o" horiz-adv-x="358" 
d="M179 -6v-2q-23 0 -51 14q-27 14 -51 42q-23 27 -40 74q-16 44 -16 108q0 67 16 112q17 47 40 76t51 43q26 13 51 13t51 -13q28 -14 51 -43q24 -30 39 -76t15 -112q0 -63 -15 -108q-15 -44 -39 -73t-51 -42q-26 -13 -51 -13zM179 1l-4 -2q15 0 27 12q13 13 20 39
q7 27 12 71q4 39 4 107q0 73 -4 113q-4 45 -12 72q-8 28 -19 38q-13 11 -27 11q-12 0 -25 -11q-11 -10 -19 -38q-8 -27 -12 -72q-4 -40 -4 -113q0 -58 5 -106q4 -43 12 -70q7 -26 20 -39q12 -12 26 -12z" />
    <glyph glyph-name="p" unicode="p" horiz-adv-x="370" 
d="M20 -160v-4q10 3 14 6t7 12t3 24v41v399q0 29 -1 38q-2 15 -4 21q-3 7 -9 10q-5 2 -16 4v7l121 75v-62q5 6 26 30q8 9 20 19q7 6 17 10q7 3 17 3q18 0 41 -10q24 -11 45 -36q21 -26 36 -67q15 -42 15 -106q0 -62 -12 -111q-12 -48 -35 -82q-23 -33 -54 -51t-72 -18
q-12 0 -24 5q-9 4 -16 9v-83v-41q0 -12 2 -24q1 -9 6 -12t12 -6v-6h-139v6zM199 455l3 -1q-1 0 -7 -2q-3 -1 -12 -8q-7 -6 -18 -18t-27 -30v-384q5 -5 15 -10q8 -4 23 -4q36 0 57 57t21 179q0 116 -15 168q-15 53 -40 53z" />
    <glyph glyph-name="q" unicode="q" horiz-adv-x="374" 
d="M219 -160h-2q7 3 12 6t6 12q2 12 2 24v41v133q-24 -33 -42 -49q-17 -15 -33 -15q-12 0 -38 8q-23 7 -48 32q-23 23 -40 71t-17 125q0 60 17 108q17 47 42 77q26 30 55 45q30 15 56 15q19 0 31 -6q8 -4 22 -12l21 -12q11 -6 27 -6q13 0 21 5q7 4 12 18h7v-537v-41
q0 -15 3 -24t9 -12q7 -3 16 -6v-6h-139v6zM116 235l-1 -5q0 -68 6 -111t15 -69t19 -36t19 -10q10 0 24 14t39 48v310q0 21 -2 41q-1 14 -9 25q-7 9 -15 14q-9 6 -23 6t-28 -12q-14 -13 -23 -39q-9 -27 -15 -70t-6 -106z" />
    <glyph glyph-name="r" unicode="r" horiz-adv-x="278" 
d="M18 6l2 -1q10 3 14 6t7 12t3 24v41v251q0 20 -1 27q-2 11 -4 16q-3 7 -9 8q-7 2 -16 3v7l120 75v-73q34 41 56 58q20 15 38 15q23 0 33 -13q11 -14 11 -33q0 -20 -10 -31q-10 -12 -27 -12q-14 0 -21 7q-5 5 -13 15q-4 5 -10 15q-4 7 -14 7q-5 0 -12 -7q-10 -10 -29 -33
v-301v-41q0 -15 3 -24t9 -12t18 -6v-6h-148v6z" />
    <glyph glyph-name="s" unicode="s" horiz-adv-x="272" 
d="M150 4l-9 -7q23 0 35 20q12 19 12 45q0 30 -18 63q-17 31 -65 79q-29 26 -45 45q-18 21 -26 39q-9 19 -12 38q-3 18 -3 39t8 42q7 19 21 33t30 21q18 8 35 8q22 0 39 -10t42 -10q6 0 11 5q5 4 6 12h9v-122l-9 1q-9 32 -21 55q-11 21 -26 36q-14 14 -27 20t-24 6
q-17 0 -30 -12q-14 -12 -14 -37q0 -13 5 -26q4 -11 14 -26q8 -12 26 -30q24 -24 40 -39q26 -23 49 -50q19 -22 30 -44q11 -21 15 -42q4 -19 4 -45q0 -28 -10 -48q-11 -22 -25 -36q-16 -16 -33 -23q-19 -8 -35 -8q-20 0 -35 6t-27 12t-21 12t-18 6q-14 0 -17 -17h-9v146h8
q43 -157 120 -157z" />
    <glyph glyph-name="t" unicode="t" horiz-adv-x="219" 
d="M145 -9h2q-42 0 -71 26t-29 77v362h-41v9q21 3 39 13q19 10 36 29t29 45q12 27 18 65h9v-152h75v-10h-75v-350q0 -55 7 -77q8 -24 33 -24q14 0 21 4l15 9l4 -6q-7 -5 -22 -13q-14 -7 -50 -7z" />
    <glyph glyph-name="u" unicode="u" horiz-adv-x="360" 
d="M133 -8l3 -3q-12 0 -30 5q-16 4 -30 17q-15 13 -23 31q-9 20 -9 48v248q0 20 -1 27q-2 11 -4 16q-3 7 -9 8q-7 2 -16 3v7l120 75v-396q0 -38 9 -54t21 -16q8 0 21 10t42 42v278q0 20 -1 27q-2 11 -4 16q-3 7 -9 8q-7 2 -16 3v7l121 75v-386v-41q0 -12 2 -24q1 -8 5 -12
q3 -3 11 -6v-6h-110v51q-30 -33 -51 -46q-19 -12 -42 -12z" />
    <glyph glyph-name="v" unicode="v" horiz-adv-x="297" 
d="M44 355l-1 -1q-10 37 -15 53q-5 15 -11 30q-5 11 -9 15t-12 7v6h148v-6q-11 -1 -18 -5q-6 -3 -6 -14q0 -10 3 -30q2 -11 11 -52l49 -214l48 190q11 42 15 66t3 36q-2 13 -9 17t-23 6v6h82v-6q-10 -4 -14 -7q-6 -5 -12 -16q-5 -9 -13 -36q-8 -24 -18 -66l-86 -339h-17z
" />
    <glyph glyph-name="w" unicode="w" horiz-adv-x="443" 
d="M44 355l-1 2q-5 18 -13 54q-2 10 -8 30q-3 11 -8 14q-4 3 -12 6v6h136v-6q-10 -3 -14 -6t-6 -14t3 -30q1 -4 3 -13.5t4.5 -19t4.5 -19.5l52 -214l38 136l-18 75q-1 4 -13 56q-2 10 -8 30q-3 12 -7 14q-6 4 -10 5v6h141v-6q-9 -3 -16 -6q-6 -3 -9 -14t0 -30q4 -25 10 -52
l43 -200l41 178q12 48 14 67q3 24 0 36t-12 15q-11 4 -24 5v6h87v-6q-12 -3 -17 -6q-7 -3 -11 -15q-6 -16 -11 -36q-2 -9 -7.5 -31.5t-8.5 -35.5l-77 -341h-17l-64 265l-74 -265h-16z" />
    <glyph glyph-name="x" unicode="x" horiz-adv-x="300" 
d="M5 6h1q3 2 15 11q6 5 12 15q8 14 15 28q14 28 23 49l43 99l-55 149q-13 35 -21 54q-9 22 -13 30q-6 10 -10 13q-5 3 -13 6v6h152v-6q-11 -1 -18 -5q-5 -3 -7 -12q-1 -9 3 -27q4 -16 15 -49l28 -79l30 71q15 35 21 54q6 18 4 30q-1 10 -9 13q-9 4 -18 5v6h79v-6
q-3 -2 -9.5 -6t-9.5 -6q-7 -4 -13 -13q-7 -11 -14 -27q-4 -10 -21 -53l-34 -82l58 -163q17 -48 19 -54q9 -22 13 -30q5 -9 11 -15q4 -4 12 -7v-6h-147v6q11 1 18 5q7 3 8 12t-3 27t-15 48l-36 96l-40 -89q-13 -30 -18 -48t-3 -29t9 -15t18 -6v-6h-80v6z" />
    <glyph glyph-name="y" unicode="y" horiz-adv-x="309" 
d="M36 -171l-2 -1q-23 0 -33 10q-11 11 -11 24q0 16 9 24q10 8 24 8q11 0 18 -3q10 -4 14 -6l12 -6q6 -3 14 -3q11 0 25 17q13 16 33 68l9 33l-104 359q-4 12 -9 30t-7 24q-7 24 -10 30q-4 11 -9 15q-4 4 -12 7v6h147v-6q-10 -1 -16 -6q-5 -4 -7 -15t3 -29q9 -36 13 -50
l53 -210l53 186q13 44 17 65q4 24 3 36q-2 13 -9 17q-8 5 -19 6v6h75v-6q-9 -5 -15 -9q-7 -5 -11 -16q-3 -8 -12 -35q-3 -9 -19 -63l-105 -371q-27 -75 -52 -105q-25 -31 -60 -31z" />
    <glyph glyph-name="z" unicode="z" horiz-adv-x="293" 
d="M266 -10l-1 -1q-7 4 -15 5t-23 3q-18 2 -36 2h-55h-127l171 458h-8q-39 0 -61 -7q-24 -8 -39 -21q-15 -14 -24 -31q-10 -20 -18 -40h-7l21 117q15 -7 44 -9q19 -1 84 -1h101l-175 -458h25q39 0 66 8q25 7 41 23t26 37q10 23 21 51h7z" />
    <glyph glyph-name="braceleft" unicode="{" horiz-adv-x="203" 
d="M186 -106l-10 -2q-30 0 -59 8q-25 7 -46 23q-18 14 -31 38q-12 23 -12 54q0 29 11 62q11 31 24 63q13 29 24 62q11 31 11 59q0 15 -1 24q-2 14 -10 25q-10 13 -25 20q-18 8 -46 8v8q29 0 47 8q15 7 25 20q8 11 10 25q2 18 2 24q0 30 -10 60q-10 31 -24 63t-24 63
q-10 30 -10 62q0 31 12 54q13 24 31 38q20 16 47 23q29 8 59 8v-9q-42 0 -60 -23q-18 -22 -18 -71q0 -29 8 -63q5 -21 17 -63q14 -49 17 -61q8 -32 8 -57q0 -21 -9 -39q-9 -17 -24 -31q-14 -13 -34 -22q-18 -8 -39 -10q21 -2 39 -10q22 -10 35 -22q15 -14 24 -31
q9 -18 9 -39q0 -29 -7 -57q-10 -40 -16 -61q-7 -25 -16 -64q-7 -31 -7 -64q0 -49 18 -72q18 -22 60 -22v-9z" />
    <glyph glyph-name="bar" unicode="|" horiz-adv-x="233" 
d="M124 820v-926h-15v926h15z" />
    <glyph glyph-name="braceright" unicode="}" horiz-adv-x="203" 
d="M17 -97l-6 -7q41 0 59 23t18 72q0 33 -7 64q-9 39 -16 64q-6 21 -16 61q-7 28 -7 57q0 21 9 39q9 19 24 32q13 12 35 22q21 10 39 11q-18 1 -39 11q-20 9 -34 22q-15 13 -24 32q-9 18 -9 39q0 25 8 57q10 40 16 61t16 63q8 34 8 63q0 49 -18 71q-18 23 -60 23v9
q34 0 59 -7q27 -7 47 -23q18 -14 31 -38q12 -22 12 -54t-10 -62q-10 -32 -24 -63t-24 -63q-10 -30 -10 -60q0 -6 2 -24q1 -13 9 -25q7 -11 24 -19q18 -8 47 -8v-8q-29 0 -47 -8q-17 -8 -24 -19q-8 -12 -9 -25q-1 -9 -1 -24q0 -28 11 -59q11 -33 24 -62q14 -31 24 -63
q11 -33 11 -62q0 -32 -12 -54q-13 -24 -31 -38q-20 -16 -47 -23q-25 -7 -58 -7v9z" />
    <glyph glyph-name="asciitilde" unicode="~" horiz-adv-x="243" 
d="M90 413l5 2q21 0 41 -7t39 -7q11 0 21 6t18 29l6 -3q-10 -47 -26 -69q-15 -21 -32 -21q-18 0 -42 8t-45 8q-11 0 -21 -6q-11 -6 -21 -31l-6 3q14 49 30 68q17 20 33 20z" />
    <glyph glyph-name="uni00A0" unicode="&#xa0;" horiz-adv-x="153" 
 />
    <glyph glyph-name="exclamdown" unicode="&#xa1;" horiz-adv-x="184" 
d="M83 262h4h10q6 -110 15 -192t18 -141t15 -96t6 -59q0 -32 -16 -49q-17 -18 -45 -18t-45 18q-16 17 -16 49q0 22 6 59t15 96t18 141t15 192zM87 475h2q26 0 42 -16t16 -42t-16 -42t-42 -16q-25 0 -41 16q-17 17 -17 42q0 26 16 42t40 16z" />
    <glyph glyph-name="cent" unicode="&#xa2;" horiz-adv-x="308" 
d="M192 -5l-1 -69h-13v70q-32 4 -61 21q-28 16 -49 46t-33 73q-12 44 -12 100q0 58 15 102q16 46 37 74q22 30 50 45q28 16 53 17v69h13v-69q38 -1 69 -20q30 -18 30 -47q0 -13 -9 -24q-9 -10 -24 -10q-37 0 -43 44q-2 21 -6 33q-5 13 -16 14v-455q10 -2 14 -2q32 0 54 14
t32 24l8 -6q-9 -9 -15 -14q-11 -9 -21 -14q-14 -7 -27 -11q-17 -5 -35 -5h-10zM119 247l-1 -2q0 -95 14 -156q14 -59 45 -75v451q-17 -3 -27 -21q-11 -18 -18 -46q-7 -26 -10 -67q-3 -39 -3 -84z" />
    <glyph glyph-name="sterling" unicode="&#xa3;" horiz-adv-x="308" 
d="M43 48l-6 -2q16 21 24 34q11 17 18 34q8 20 11 40q3 22 3 52q0 12 -2 36q-1 14 -5 35h-70v11h67q-6 30 -15 60h-52v10h49l-27 96q-13 46 -13 99t15 90q16 39 37 62q22 24 47 36q24 12 45 12q19 0 39 -6t35 -18t24 -32q9 -19 9 -45q0 -16 -9 -28t-26 -12q-38 0 -39 40
q-1 20 -1 48q0 18 -3 29t-9 14t-19 3q-28 0 -37 -33t-9 -103q0 -73 9 -136q3 -22 8.5 -60t7.5 -55h83v-10h-81q5 -31 6 -60h75v-11h-75v-4q0 -35 -8 -67q-7 -30 -18 -54q-9 -21 -23 -40q-12 -17 -21 -27h116q29 0 40 1q14 1 27 5q11 3 17 9q7 7 11 17h8l-20 -81
q-6 -21 -11 -30q-4 -7 -21 -7h-242z" />
    <glyph glyph-name="yen" unicode="&#xa5;" horiz-adv-x="325" 
d="M90 6l1 -5q11 3 17 9t9 20q2 10 4 41q1 18 1 74v198h-87v11h87v62h-87v11h84l-67 198q-8 24 -12 42q-5 19 -10 31q-7 15 -13 24q-8 12 -18 20v6h156v-6q-11 -5 -15 -10q-5 -7 -5 -15q0 -9 3 -21q1 -5 4 -15.5t4 -13.5l72 -231l41 182q6 21 13 56q4 20 1 35q-3 14 -13 21
q-11 8 -28 12v6h90v-6q-10 -4 -16 -10q-5 -5 -10 -18q-2 -6 -10 -35q-1 -5 -6.5 -25.5t-9.5 -35.5l-45 -189h86v-11h-87v-62h87v-11h-87v-198q0 -55 1 -73q2 -29 4 -40q3 -13 9 -19t17 -9v-6h-165v6z" />
    <glyph glyph-name="brokenbar" unicode="&#xa6;" horiz-adv-x="233" 
d="M124 820v-380h-15v380h15zM124 -106h-15v380h15v-380z" />
    <glyph glyph-name="section" unicode="&#xa7;" horiz-adv-x="372" 
d="M172 -146v-8q37 0 55 24t18 69q0 26 -8 53q-7 26 -24 54q-15 27 -42 61q-25 33 -60 75q-28 34 -41 54q-17 25 -27 46q-11 23 -15 46q-5 27 -5 54q0 31 7 53q8 24 18 42q11 19 24 32q15 15 27 23q-7 19 -12 41q-4 19 -4 47q0 36 12 64q12 29 30 47t42 27t49 9q29 0 50 -7
t39 -20q17 -13 26 -27q9 -15 9 -30q0 -13 -9 -22t-22 -9q-33 0 -40 37q-2 10 -6 28q-3 13 -8 23q-4 8 -14 15q-9 6 -24 6q-32 0 -53 -24t-21 -61q0 -26 6 -45q6 -18 18 -40q11 -19 32 -45q19 -24 48 -60q42 -54 54 -70q23 -30 36 -57q15 -29 20 -52q6 -25 6 -59
q0 -43 -22 -81q-23 -39 -51 -69q8 -21 11 -41q3 -21 3 -45q0 -37 -10 -67q-11 -33 -28 -54q-19 -23 -42 -35q-24 -12 -52 -12q-25 0 -52 8q-24 7 -45 23q-18 14 -31 35q-12 20 -12 44q0 15 11 24t24 9q17 0 26 -10q10 -11 11 -27q1 -23 5 -45q3 -17 11 -30q7 -11 20 -16
t32 -5zM180 253l-1 -3q47 -60 65 -84q26 -34 39 -66q20 28 20 70q0 30 -7 54q-8 26 -22 52q-14 25 -39 58q-24 32 -57 72q-26 33 -45 60q-21 29 -32 55q-10 -8 -19 -27q-9 -18 -9 -48q0 -25 6 -44t20 -41q16 -24 33 -47q8 -11 48 -61z" />
    <glyph glyph-name="dieresis" unicode="&#xa8;" horiz-adv-x="446" 
d="M291 541h-1q-19 0 -34 15t-15 36q0 20 15 33q16 14 35 14t33 -14t14 -33q0 -20 -14 -36q-14 -15 -33 -15zM154 541h-1q-19 0 -33 15q-14 16 -14 36q0 19 14 33t33 14t35 -14q15 -13 15 -33q0 -21 -15 -36t-34 -15z" />
    <glyph glyph-name="copyright" unicode="&#xa9;" horiz-adv-x="454" 
d="M228 758l-1 -1q41 0 77 -24q37 -25 65 -72q29 -48 45 -120q17 -74 17 -167q0 -92 -17 -166q-16 -72 -45 -120q-28 -47 -65 -72q-36 -24 -76 -24t-78 24t-66 72t-45 120q-17 74 -17 167t17 167q17 72 45 120t66 72t78 24zM227 -4l-3 2q38 0 74 24t63 72q28 50 44 118
q17 73 17 165q0 97 -16 165q-16 69 -44 117q-27 47 -63 71t-73 24q-39 0 -75 -24q-35 -23 -64 -72q-29 -48 -45 -118q-16 -68 -16 -165q0 -92 17 -165q16 -70 45 -118q29 -49 64 -72q36 -24 75 -24zM250 157l-4 6q-21 0 -44 9q-22 9 -42 33q-19 23 -31 68q-12 44 -12 113
q0 64 12 104t29 65q16 24 38 33q21 9 39 9q13 0 21 -6q7 -6 17 -6q14 0 18 16h6v-97h-6q-7 30 -13 44q-8 18 -15 26q-7 9 -15 12q-7 3 -13 3q-9 0 -16 -10t-13 -34t-9 -63t-3 -96q0 -58 5 -105q4 -39 14 -67q9 -26 21 -36q11 -10 26 -10q13 0 24 8q9 7 21 20l4 -5
q-9 -12 -23 -23t-36 -11z" />
    <glyph glyph-name="ordfeminine" unicode="&#xaa;" horiz-adv-x="262" 
d="M83 392l-5 -5q-29 0 -48 19t-19 57q0 25 11 42t27 29q15 11 35 21q18 9 32 20l-2 -1q14 10 24 21q10 10 10 39v57q0 37 -6 47q-6 11 -23 11q-11 0 -18 -9q-8 -9 -15 -34q-1 -10 -9 -19q-7 -9 -21 -9t-22 9q-7 8 -7 20q0 17 21 33q22 17 71 17q23 0 42 -3q20 -3 33 -13
q14 -11 21 -28q8 -19 8 -46v-171q0 -36 1 -48l3 -27t6 -12t9 -3q10 0 16 6l2 -5q-3 -3 -15 -10q-11 -6 -33 -6q-28 0 -42 12t-17 29l-18 -18q-7 -8 -15 -12q-6 -4 -16 -7q-9 -3 -21 -3zM85 480v-2q0 -75 24 -75q4 0 12 5q6 4 24 23v165q-5 -12 -13 -17q-3 -2 -9.5 -7
t-9.5 -7l1 1q-11 -9 -17 -17q-6 -7 -9 -18t-3 -22v-29z" />
    <glyph glyph-name="guillemotleft" unicode="&#xab;" horiz-adv-x="261" 
d="M123 226v8l122 161l6 -4l-61 -161l62 -160l-6 -4zM10 226v8l123 161l6 -4l-62 -161l63 -160l-6 -4z" />
    <glyph glyph-name="registered" unicode="&#xae;" horiz-adv-x="311" 
d="M157 758l-2 -4q27 0 53 -15t45 -43q21 -30 32 -67q12 -39 12 -87t-12 -87t-31 -67t-45 -43q-25 -15 -53 -15t-54 15q-24 14 -46 44q-21 28 -33 68q-12 39 -12 87t12 87q12 40 33 68q21 29 47 44q25 15 54 15zM155 335l-1 -2q25 0 49 15t42 42t30 65q12 37 12 84t-12 84
q-12 38 -30 65t-42 42t-49 15q-26 0 -50 -15q-23 -14 -43 -42q-19 -26 -31 -64t-12 -84t12 -84t31 -64t44 -42q24 -15 50 -15zM94 432l-6 -4q7 1 9 8q2 8 2 35v140v24q0 11 -1 14q-2 5 -3 6t-5 3v3h49q33 0 54 -10q23 -11 23 -46q0 -26 -18 -41q-17 -14 -43 -19
q21 -2 32 -13q13 -13 17 -43q1 -7 3 -17t2 -13q1 -9 3 -16q1 -5 3 -7q1 -1 3 -1q4 0 7 4l3 -3q-1 -1 -9 -7q-5 -4 -18 -4t-21 11t-11 45q-1 6 -2.5 18.5t-2.5 17.5q-2 14 -4 19q-3 6 -7 7q-3 1 -10 1h-1v-69q0 -27 2 -35q2 -7 9 -8v-4h-59v4zM176 604v1q0 32 -10 42t-28 10
v-110q22 0 30 15q8 16 8 42z" />
    <glyph glyph-name="macron" unicode="&#xaf;" horiz-adv-x="446" 
d="M304 598v-40h-158v40h158z" />
    <glyph glyph-name="degree" unicode="&#xb0;" horiz-adv-x="192" 
d="M96 758q32 0 54 -22t22 -54q0 -33 -22 -55t-54 -22t-54 22t-22 55q0 32 22 54t54 22zM32 682l-1 -1q0 -29 18 -48t46 -19q29 0 47 19t18 48t-18 48q-18 20 -46 20t-46 -19q-18 -20 -18 -48z" />
    <glyph glyph-name="twosuperior" unicode="&#xb2;" horiz-adv-x="250" 
d="M142 519h-6h35q10 0 20 2q6 1 10 5q3 3 6 9h6l-15 -55q-2 -10 -4 -13q-3 -3 -7 -3h-169l45 79q35 59 54 108q19 48 19 103q0 42 -7 60q-7 19 -25 19q-14 0 -16 -15q-2 -20 -3 -31q-1 -10 -8 -18q-6 -8 -19 -8q-12 0 -18 8q-6 7 -6 18q0 23 23 38t51 15q17 0 32 -4
q16 -4 31 -15t24 -27t9 -42q0 -27 -7 -48q-8 -23 -22 -46q-18 -29 -37 -53q-22 -29 -54 -66l-19 -20h77z" />
    <glyph glyph-name="threesuperior" unicode="&#xb3;" horiz-adv-x="225" 
d="M55 820l-3 -2q2 7 5 13q1 3 6 3h129v-4l-101 -140q13 5 23 5q17 0 32 -6q16 -6 27 -19q13 -15 20 -34q8 -22 8 -51q0 -30 -9 -54t-24 -39t-33 -24t-38 -9q-31 0 -51 15t-20 34q0 10 6 18t20 8q23 0 26 -26q1 -20 3 -31q1 -10 17 -10t27 29q11 30 11 92q0 56 -3 78
q-3 23 -19 23q-14 0 -25 -8q-9 -6 -16 -17l-5 3l82 115h-53h-24q-8 0 -14 -2q-4 -1 -7 -6q-4 -6 -7 -10h-6z" />
    <glyph glyph-name="acute" unicode="&#xb4;" horiz-adv-x="446" 
d="M175 524l62 120q10 18 20 30q9 11 24 11q14 0 23 -9t9 -23q0 -25 -27 -48l-105 -85z" />
    <glyph glyph-name="paragraph" unicode="&#xb6;" horiz-adv-x="390" 
d="M191 433l-5 -6q-36 0 -69 12t-57 33q-25 22 -38 51q-14 31 -14 68q0 38 14 68q13 28 38 48t57 29q33 9 70 9h182v-6q-10 -3 -17 -8q-6 -5 -9 -19q-2 -12 -4 -42q-1 -18 -1 -75v-429q0 -74 -9 -123t-27 -81t-48 -45q-29 -13 -70 -13q-37 0 -55 15t-18 35q0 15 10 25t27 10
t27 -10q11 -11 20 -23q12 -16 18 -23q9 -10 22 -10q14 0 21 10t12 32q4 21 6 57q2 48 2 87v631h-51v-307h-34z" />
    <glyph glyph-name="periodcentered" unicode="&#xb7;" horiz-adv-x="184" 
d="M91 230q-25 0 -41 16q-17 17 -17 42t17 42q16 16 41 16q24 0 40 -16t16 -42t-16 -42t-40 -16z" />
    <glyph glyph-name="cedilla" unicode="&#xb8;" horiz-adv-x="446" 
d="M238 0l-15 -34q31 -3 54 -19q24 -17 24 -45q0 -29 -31 -48q-32 -20 -106 -21l-1 8q36 6 57 18t21 27t-15 21q-16 7 -32 8l-3 5l36 80h11z" />
    <glyph glyph-name="onesuperior" unicode="&#xb9;" horiz-adv-x="184" 
d="M45 465v5q9 2 11 4q4 4 5 10q2 10 2 21v38v199q0 22 -3 30t-18 9v5l85 58v-300v-38q0 -11 2 -21q1 -7 6 -10q4 -2 10 -4v-6h-100z" />
    <glyph glyph-name="ordmasculine" unicode="&#xba;" horiz-adv-x="281" 
d="M141 387l-4 -3q-19 0 -40 10q-22 10 -42 32q-18 20 -31 56q-12 34 -12 84q0 51 12 87t32 59q20 22 42 33q24 11 40 11q21 0 41 -10q22 -11 41 -33q21 -24 32 -58q12 -36 12 -87q0 -50 -12 -84q-13 -36 -31 -56q-19 -21 -40 -31q-20 -10 -40 -10zM137 391l-1 -1q10 0 19 9
t15 29q6 19 9 53q3 33 3 83q0 52 -3 87t-9 56t-15 30t-19 9q-9 0 -18 -9t-15 -30q-5 -17 -10 -56q-4 -31 -4 -87q0 -53 4 -82q4 -31 11 -53q6 -20 15 -29t18 -9z" />
    <glyph glyph-name="guillemotright" unicode="&#xbb;" horiz-adv-x="261" 
d="M10 70l62 160l-61 161l6 4l122 -161v-8l-123 -160zM122 70l63 160l-62 161l6 4l123 -161v-8l-124 -160z" />
    <glyph glyph-name="onequarter" unicode="&#xbc;" horiz-adv-x="385" 
d="M242 -9v-39q0 -11 2 -21q2 -8 4 -9t8 -3v-6h-91v6q6 2 8 3q4 2 5 9q2 10 2 21v39h-97v5l145 291h14v-250h43l-19 -46h-24zM180 37v136l-67 -136h67zM42 379h301v-8h-301v8zM144 465v5q9 2 11 4q4 4 5 10q2 10 2 21v38v199q0 22 -3 30t-18 9v5l85 58v-300v-38q0 -11 2 -21
q1 -7 6 -10q4 -2 10 -4v-6h-100z" />
    <glyph glyph-name="onehalf" unicode="&#xbd;" horiz-adv-x="385" 
d="M42 379h301v-8h-301v8zM144 465v5q9 2 11 4q4 4 5 10q2 10 2 21v38v199q0 22 -3 30t-18 9v5l85 58v-300v-38q0 -11 2 -21q1 -7 6 -10q4 -2 10 -4v-6h-100zM215 -34h-6h35q10 0 20 2q6 1 10 5q3 3 6 9h6l-15 -55q-1 -10 -4 -13t-7 -3h-169l45 79q34 58 54 108
q19 48 19 103q0 42 -7 60q-7 19 -25 19q-15 0 -16 -15q-2 -20 -3 -31q-1 -10 -8 -18q-6 -8 -19 -8q-12 0 -18 8t-6 18q0 23 23 38q22 15 51 15q17 0 32 -4q16 -4 31 -15q15 -10 24 -27t9 -42q0 -27 -7 -48q-8 -23 -22 -46q-18 -29 -37 -53q-23 -28 -54 -66l-19 -20h77z" />
    <glyph glyph-name="threequarters" unicode="&#xbe;" horiz-adv-x="385" 
d="M242 -9v-39q0 -11 2 -21q2 -8 4 -9t8 -3v-6h-91v6q6 2 8 3q4 2 5 9q2 10 2 21v39h-97v5l145 291h14v-250h43l-19 -46h-24zM180 37v136l-67 -136h67zM42 379h301v-8h-301v8zM133 820l-3 -2q2 7 5 13q1 3 6 3h129v-4l-101 -140q13 5 23 5q17 0 32 -6q16 -6 27 -19
q13 -15 20 -34q8 -22 8 -51q0 -30 -9 -54t-24 -39t-33 -24t-38 -9q-31 0 -51 15t-20 34q0 10 6 18t20 8q23 0 26 -26q1 -20 3 -31q1 -10 17 -10t27 29q11 30 11 92q0 56 -3 78q-3 23 -19 23q-14 0 -25 -8q-9 -6 -16 -17l-5 3l82 115h-53h-24q-8 0 -14 -2q-4 -1 -7 -6
q-4 -6 -7 -10h-6z" />
    <glyph glyph-name="questiondown" unicode="&#xbf;" horiz-adv-x="289" 
d="M187 267l1 6q0 -85 -10 -142q-10 -59 -24 -109q-14 -52 -24 -94q-11 -47 -11 -97q0 -33 3 -55t9 -36t15 -18q10 -5 21 -5q20 0 23 12q4 18 8 38q4 23 15 37t30 12q16 -1 25 -12q9 -10 7 -27q-1 -28 -30 -49t-81 -21q-60 0 -100 34t-40 108q0 33 11 64q10 29 27 58
q19 33 36 59q16 24 37 65q18 34 30 77q12 42 15 95h7zM176 481q24 0 40 -16t16 -42t-16 -42t-40 -16q-26 0 -42 16t-16 42t16 42t42 16z" />
    <glyph glyph-name="Agrave" unicode="&#xc0;" horiz-adv-x="342" 
d="M-2 5l-4 -2q8 5 14 12q5 6 10 21q4 14 9 36t9 57l79 514l-6 36q-6 40 -16 51q-11 12 -21 15v5h111q7 0 11 -2t5 -12l101 -609q4 -30 9 -52q5 -21 9 -36q5 -15 10 -22q5 -6 14 -10v-6h-147v6q7 1 12 6t8 12t3 21t-3 36l-24 139h-127l-14 -90q-4 -35 -6 -57q-2 -24 1 -36
q3 -13 11 -21q8 -7 21 -12v-5h-79v5zM186 227l-66 385l-59 -385h125zM86 807q-23 5 -32 15t-9 26q0 11 8 21q8 9 23 9q12 0 20 -4q12 -6 20 -13l100 -75l-3 -6z" />
    <glyph glyph-name="Aacute" unicode="&#xc1;" horiz-adv-x="342" 
d="M-2 5l-4 -2q8 5 14 12q5 6 10 21q4 14 9 36t9 57l79 514l-6 36q-6 40 -16 51q-11 12 -21 15v5h111q7 0 11 -2t5 -12l101 -609q4 -30 9 -52q5 -21 9 -36q5 -15 10 -22q5 -6 14 -10v-6h-147v6q7 1 12 6t8 12t3 21t-3 36l-24 139h-127l-14 -90q-4 -35 -6 -57q-2 -24 1 -36
q3 -13 11 -21q8 -7 21 -12v-5h-79v5zM186 227l-66 385l-59 -385h125zM67 787l98 74q23 18 42 18q15 0 23 -9q8 -10 8 -21q0 -15 -9 -26q-9 -10 -32 -15l-127 -27z" />
    <glyph glyph-name="Acircumflex" unicode="&#xc2;" horiz-adv-x="342" 
d="M-2 5l-4 -2q8 5 14 12q5 6 10 21q4 14 9 36t9 57l79 514l-6 36q-6 40 -16 51q-11 12 -21 15v5h111q7 0 11 -2t5 -12l101 -609q4 -30 9 -52q5 -21 9 -36q5 -15 10 -22q5 -6 14 -10v-6h-147v6q7 1 12 6t8 12t3 21t-3 36l-24 139h-127l-14 -90q-4 -35 -6 -57q-2 -24 1 -36
q3 -13 11 -21q8 -7 21 -12v-5h-79v5zM186 227l-66 385l-59 -385h125zM139 894l110 -109l-3 -6l-107 44l-106 -44l-3 6z" />
    <glyph glyph-name="Atilde" unicode="&#xc3;" horiz-adv-x="342" 
d="M-2 5l-4 -2q8 5 14 12q5 6 10 21q4 14 9 36t9 57l79 514l-6 36q-6 40 -16 51q-11 12 -21 15v5h111q7 0 11 -2t5 -12l101 -609q4 -30 9 -52q5 -21 9 -36q5 -15 10 -22q5 -6 14 -10v-6h-147v6q7 1 12 6t8 12t3 21t-3 36l-24 139h-127l-14 -90q-4 -35 -6 -57q-2 -24 1 -36
q3 -13 11 -21q8 -7 21 -12v-5h-79v5zM186 227l-66 385l-59 -385h125zM109 857l-2 -1q14 0 42 -2t37 -2q11 0 18 7q8 7 24 27l6 -2q-10 -46 -24 -67t-31 -21q-19 0 -39 3t-39 3q-11 0 -18 -7t-21 -27l-6 2q10 45 24 66t29 21z" />
    <glyph glyph-name="Adieresis" unicode="&#xc4;" horiz-adv-x="342" 
d="M-2 5l-4 -2q8 5 14 12q5 6 10 21q4 14 9 36t9 57l79 514l-6 36q-6 40 -16 51q-11 12 -21 15v5h111q7 0 11 -2t5 -12l101 -609q4 -30 9 -52q5 -21 9 -36q5 -15 10 -22q5 -6 14 -10v-6h-147v6q7 1 12 6t8 12t3 21t-3 36l-24 139h-127l-14 -90q-4 -35 -6 -57q-2 -24 1 -36
q3 -13 11 -21q8 -7 21 -12v-5h-79v5zM186 227l-66 385l-59 -385h125zM207 784q-19 0 -33 15q-14 16 -14 36q0 19 14 33t33 14t33 -14t14 -33q0 -20 -14 -36q-14 -15 -33 -15zM71 784q-19 0 -33 15q-14 16 -14 36q0 19 14 33t33 14t33 -14t14 -33q0 -20 -14 -36
q-14 -15 -33 -15z" />
    <glyph glyph-name="Aring" unicode="&#xc5;" horiz-adv-x="342" 
d="M-2 5l-4 -2q8 5 14 12q5 6 10 21q4 14 9 36t9 57l79 514l-6 36q-6 40 -16 51q-11 12 -21 15v5h111q7 0 11 -2t5 -12l101 -609q4 -30 9 -52q5 -21 9 -36q5 -15 10 -22q5 -6 14 -10v-6h-147v6q7 1 12 6t8 12t3 21t-3 36l-24 139h-127l-14 -90q-4 -35 -6 -57q-2 -24 1 -36
q3 -13 11 -21q8 -7 21 -12v-5h-79v5zM186 227l-66 385l-59 -385h125zM61 844v-2q0 28 23 48t56 20q34 0 57 -20q22 -19 22 -48q0 -30 -22 -49t-57 -19q-34 0 -57 20q-22 19 -22 50zM102 842h2q0 -28 9 -45q9 -16 27 -16t27 17q9 16 9 44t-10 44q-11 17 -27 17t-27 -17
q-10 -16 -10 -44z" />
    <glyph glyph-name="AE" unicode="&#xc6;" horiz-adv-x="476" 
d="M367 331l3 -4l-6 27q-3 12 -11 24q-7 10 -21 18t-36 9v-400q32 0 62 5q25 4 46 17q19 11 34 36q16 25 26 63h9l-13 -112q-2 -14 -6 -15q-6 -2 -12 -2h-279v6q10 3 17 8q6 4 9 20q2 12 4 42q1 18 1 74v77h-112l-22 -102q-9 -34 -12 -56q-3 -23 -2 -33q2 -13 7 -18t17 -10
v-5h-72v5q10 6 14 10q6 6 12 18t12 33q8 27 14 56l123 555q4 24 5 29q1 12 0 19q-2 7 -9 12q-7 4 -22 7v7h267q8 0 11 -3t6 -19l17 -97h-9q-11 30 -24 51q-14 22 -31 33q-18 12 -40 18q-25 7 -51 8v-321q23 1 36 9t21 18q8 12 11 24l6 27h6v-168h-6zM194 230v502l-110 -502
h110z" />
    <glyph glyph-name="Ccedilla" unicode="&#xc7;" horiz-adv-x="349" 
d="M233 -9v-1q-33 0 -72 17q-37 16 -67 60q-29 42 -49 120q-19 75 -19 198q0 109 18 181q18 71 45 115q27 43 60 60q34 17 62 17q14 0 23 -3q12 -4 18 -7t16 -7q8 -3 15 -3q23 0 30 28h8v-163h-8q-13 49 -25 74q-14 29 -27 45t-27 22t-24 6q-16 0 -30 -18t-24 -60
q-10 -39 -16 -111q-6 -69 -6 -171q0 -112 9 -186t24 -117t36 -61t46 -18q23 0 41 12t35 32l6 -6q-12 -18 -38 -37q-24 -18 -60 -18zM178 -1l-15 -34q31 -3 54 -19q24 -16 24 -45t-31 -48q-32 -20 -106 -21l-1 8q36 6 57 18t21 27t-15 21q-16 7 -32 8l-3 5l36 80h11z" />
    <glyph glyph-name="Egrave" unicode="&#xc8;" horiz-adv-x="351" 
d="M19 6l-4 -3q10 3 17 8q6 4 9 20q2 12 4 42q1 18 1 74v454q0 56 -1 74q-2 30 -4 42q-3 16 -9 20q-7 5 -17 8v6h267q8 0 12 -3q5 -3 6 -19l18 -97h-9q-11 33 -24 53q-13 21 -33 33q-20 13 -44 17t-56 6v-321q26 2 41 9t24 18t12 24l6 27h6v-168h-6l-6 27q-3 13 -12 24
t-24 18t-41 9v-401h3q39 0 67 3q27 3 49 17t36 37q16 25 26 65h9l-12 -112q-2 -13 -6 -15q-6 -2 -12 -2h-293v6zM115 806q-23 5 -32 15q-9 11 -9 26q0 11 8 21q7 9 23 9q12 0 20 -4q12 -6 20 -13l100 -75l-3 -6z" />
    <glyph glyph-name="Eacute" unicode="&#xc9;" horiz-adv-x="351" 
d="M19 6l-4 -3q10 3 17 8q6 4 9 20q2 12 4 42q1 18 1 74v454q0 56 -1 74q-2 30 -4 42q-3 16 -9 20q-7 5 -17 8v6h267q8 0 12 -3q5 -3 6 -19l18 -97h-9q-11 33 -24 53q-13 21 -33 33q-20 13 -44 17t-56 6v-321q26 2 41 9t24 18t12 24l6 27h6v-168h-6l-6 27q-3 13 -12 24
t-24 18t-41 9v-401h3q39 0 67 3q27 3 49 17t36 37q16 25 26 65h9l-12 -112q-2 -13 -6 -15q-6 -2 -12 -2h-293v6zM94 785l98 74q22 18 42 18q16 0 23 -9q8 -10 8 -21q0 -15 -9 -26q-9 -10 -32 -15l-127 -27z" />
    <glyph glyph-name="Ecircumflex" unicode="&#xca;" horiz-adv-x="351" 
d="M19 6l-4 -3q10 3 17 8q6 4 9 20q2 12 4 42q1 18 1 74v454q0 56 -1 74q-2 30 -4 42q-3 16 -9 20q-7 5 -17 8v6h267q8 0 12 -3q5 -3 6 -19l18 -97h-9q-11 33 -24 53q-13 21 -33 33q-20 13 -44 17t-56 6v-321q26 2 41 9t24 18t12 24l6 27h6v-168h-6l-6 27q-3 13 -12 24
t-24 18t-41 9v-401h3q39 0 67 3q27 3 49 17t36 37q16 25 26 65h9l-12 -112q-2 -13 -6 -15q-6 -2 -12 -2h-293v6zM166 893l110 -109l-3 -6l-107 44l-106 -44l-3 6z" />
    <glyph glyph-name="Edieresis" unicode="&#xcb;" horiz-adv-x="351" 
d="M19 6l-4 -3q10 3 17 8q6 4 9 20q2 12 4 42q1 18 1 74v454q0 56 -1 74q-2 30 -4 42q-3 16 -9 20q-7 5 -17 8v6h267q8 0 12 -3q5 -3 6 -19l18 -97h-9q-11 33 -24 53q-13 21 -33 33q-20 13 -44 17t-56 6v-321q26 2 41 9t24 18t12 24l6 27h6v-168h-6l-6 27q-3 13 -12 24
t-24 18t-41 9v-401h3q39 0 67 3q27 3 49 17t36 37q16 25 26 65h9l-12 -112q-2 -13 -6 -15q-6 -2 -12 -2h-293v6zM234 783q-20 0 -33 15q-14 16 -14 36q0 19 14 33t33 14t33 -14t14 -33q0 -20 -14 -36q-13 -15 -33 -15zM98 783q-20 0 -33 15q-14 16 -14 36q0 19 14 33t33 14
t33 -14t14 -33q0 -20 -14 -36q-13 -15 -33 -15z" />
    <glyph glyph-name="Igrave" unicode="&#xcc;" horiz-adv-x="203" 
d="M19 6v-2q10 3 17 8q6 4 9 20q2 12 4 42q1 18 1 74v454q0 56 -1 74q-2 31 -4 41q-3 13 -9 18q-7 5 -17 8v6h165v-6q-10 -3 -17 -8q-6 -5 -9 -18q-2 -10 -4 -41q-1 -18 -1 -74v-454q0 -55 1 -73q2 -30 4 -42q3 -14 9 -19q7 -5 17 -8v-6h-165v6zM49 807q-23 5 -32 15t-9 26
q0 11 8 21q8 9 23 9q12 0 20 -4q12 -6 20 -13l100 -75l-3 -6z" />
    <glyph glyph-name="Iacute" unicode="&#xcd;" horiz-adv-x="203" 
d="M19 6v-2q10 3 17 8q6 4 9 20q2 12 4 42q1 18 1 74v454q0 56 -1 74q-2 31 -4 41q-3 13 -9 18q-7 5 -17 8v6h165v-6q-10 -3 -17 -8q-6 -5 -9 -18q-2 -10 -4 -41q-1 -18 -1 -74v-454q0 -55 1 -73q2 -30 4 -42q3 -14 9 -19q7 -5 17 -8v-6h-165v6zM28 786l98 74q22 18 42 18
q16 0 23 -9q8 -10 8 -21q0 -16 -9 -26t-32 -15l-127 -27z" />
    <glyph glyph-name="Icircumflex" unicode="&#xce;" horiz-adv-x="203" 
d="M19 6v-2q10 3 17 8q6 4 9 20q2 12 4 42q1 18 1 74v454q0 56 -1 74q-2 31 -4 41q-3 13 -9 18q-7 5 -17 8v6h165v-6q-10 -3 -17 -8q-6 -5 -9 -18q-2 -10 -4 -41q-1 -18 -1 -74v-454q0 -55 1 -73q2 -30 4 -42q3 -14 9 -19q7 -5 17 -8v-6h-165v6zM101 894l110 -109l-3 -6
l-107 44l-106 -44l-3 6z" />
    <glyph glyph-name="Idieresis" unicode="&#xcf;" horiz-adv-x="203" 
d="M165 786q-21 0 -35 15q-14 16 -14 36q0 19 14 33t35 14q19 0 33 -14t14 -33q0 -20 -14 -36q-14 -15 -33 -15zM39 786h-1q-20 0 -33 15q-14 16 -14 36q0 19 14 33t33 14t35 -14q15 -14 15 -33q0 -21 -15 -36t-34 -15zM18 6v-2q10 3 17 8q6 4 9 20q2 12 4 42q1 18 1 74v454
q0 56 -1 74q-2 31 -4 41q-3 13 -9 18q-7 5 -17 8v6h165v-6q-10 -3 -17 -8q-6 -5 -9 -18q-2 -10 -4 -41q-1 -18 -1 -74v-454q0 -55 1 -73q2 -30 4 -42q3 -14 9 -19q7 -5 17 -8v-6h-165v6z" />
    <glyph glyph-name="Eth" unicode="&#xd0;" horiz-adv-x="436" 
d="M18 6l-1 -4q10 3 17 8q6 4 9 20q2 12 4 42q1 18 1 74v239h-50v9h50v206q0 56 -1 74q-2 30 -4 42q-3 16 -9 20q-7 5 -17 8v6h148q51 0 96 -21t78 -66q32 -44 52 -114q19 -67 19 -164q0 -184 -63 -284q-63 -101 -181 -101h-148v6zM165 4l-1 1q32 0 57 19t43 63
q18 43 27 116q9 72 9 179q0 114 -13 180q-14 70 -34 108q-21 40 -45 53q-25 14 -43 14h-14v-345h82v-9h-82v-379h14z" />
    <glyph glyph-name="Ntilde" unicode="&#xd1;" horiz-adv-x="399" 
d="M19 6l-2 -7q11 8 17 14t9 21q2 11 4 41q1 17 1 71v450q0 56 -1 74q-2 30 -4 42q-3 16 -9 20q-7 5 -17 8v6h114q19 0 24 -4q6 -5 12 -19l175 -476v348q0 54 -1 71q-2 30 -4 41q-3 15 -11 21q-10 8 -21 14v6h80v-6q-14 -10 -17 -13q-6 -6 -9 -21q-2 -12 -4 -40
q-1 -17 -1 -71v-601h-20l-273 722v-567q0 -54 1 -71q1 -21 5 -40q3 -15 11 -21q5 -4 21 -13v-6h-80v6zM198 852l-2 -1q14 0 42 -2t37 -2q11 0 18 7q7 8 24 27l6 -2q-10 -46 -24 -67q-13 -21 -31 -21q-20 0 -39 3t-39 3q-11 0 -18 -7q-8 -8 -21 -27l-6 2q11 45 24 66t29 21z
" />
    <glyph glyph-name="Ograve" unicode="&#xd2;" horiz-adv-x="431" 
d="M216 -10l-2 -3q-34 0 -67 24t-60 74q-28 51 -44 121q-17 74 -17 167q0 96 17 170q16 71 44 119q28 47 60 71q33 24 68 24t68 -24q34 -24 60 -70q28 -48 44 -119q17 -74 17 -169q0 -93 -17 -167q-16 -70 -44 -121q-27 -49 -60 -73t-67 -24zM214 -3l-2 -1q43 0 61 99
q17 96 19 278q2 180 -18 276t-60 96q-42 0 -61 -96q-19 -94 -19 -276q0 -178 18 -277t62 -99zM159 805q-23 5 -32 15t-9 26q0 11 8 21q8 9 23 9q12 0 20 -4q12 -6 20 -13l100 -75l-3 -6z" />
    <glyph glyph-name="Oacute" unicode="&#xd3;" horiz-adv-x="431" 
d="M216 -10l-2 -3q-34 0 -67 24t-60 74q-28 51 -44 121q-17 74 -17 167q0 96 17 170q16 71 44 119q28 47 60 71q33 24 68 24t68 -24q34 -24 60 -70q28 -48 44 -119q17 -74 17 -169q0 -93 -17 -167q-16 -70 -44 -121q-27 -49 -60 -73t-67 -24zM214 -3l-2 -1q43 0 61 99
q17 96 19 278q2 180 -18 276t-60 96q-42 0 -61 -96q-19 -94 -19 -276q0 -178 18 -277t62 -99zM138 784l98 74q22 18 42 18q16 0 23 -9q8 -10 8 -21q0 -16 -9 -26t-32 -15l-127 -27z" />
    <glyph glyph-name="Ocircumflex" unicode="&#xd4;" horiz-adv-x="431" 
d="M216 -10l-2 -3q-34 0 -67 24t-60 74q-28 51 -44 121q-17 74 -17 167q0 96 17 170q16 71 44 119q28 47 60 71q33 24 68 24t68 -24q34 -24 60 -70q28 -48 44 -119q17 -74 17 -169q0 -93 -17 -167q-16 -70 -44 -121q-27 -49 -60 -73t-67 -24zM214 -3l-2 -1q43 0 61 99
q17 96 19 278q2 180 -18 276t-60 96q-42 0 -61 -96q-19 -94 -19 -276q0 -178 18 -277t62 -99zM212 892l110 -109l-3 -6l-107 44l-106 -44l-3 6z" />
    <glyph glyph-name="Otilde" unicode="&#xd5;" horiz-adv-x="431" 
d="M216 -10l-2 -3q-34 0 -67 24t-60 74q-28 51 -44 121q-17 74 -17 167q0 96 17 170q16 71 44 119q28 47 60 71q33 24 68 24t68 -24q34 -24 60 -70q28 -48 44 -119q17 -74 17 -169q0 -93 -17 -167q-16 -70 -44 -121q-27 -49 -60 -73t-67 -24zM214 -3l-2 -1q43 0 61 99
q17 96 19 278q2 180 -18 276t-60 96q-42 0 -61 -96q-19 -94 -19 -276q0 -178 18 -277t62 -99zM181 855l-2 -1q14 0 42 -2t37 -2q11 0 18 7q8 7 24 27l6 -2q-10 -46 -24 -67t-31 -21q-19 0 -39 3t-39 3q-11 0 -18 -7t-21 -27l-6 2q10 45 24 66t29 21z" />
    <glyph glyph-name="Odieresis" unicode="&#xd6;" horiz-adv-x="431" 
d="M216 -10l-2 -3q-34 0 -67 24t-60 74q-28 51 -44 121q-17 74 -17 167q0 96 17 170q16 71 44 119q28 47 60 71q33 24 68 24t68 -24q34 -24 60 -70q28 -48 44 -119q17 -74 17 -169q0 -93 -17 -167q-16 -70 -44 -121q-27 -49 -60 -73t-67 -24zM214 -3l-2 -1q43 0 61 99
q17 96 19 278q2 180 -18 276t-60 96q-42 0 -61 -96q-19 -94 -19 -276q0 -178 18 -277t62 -99zM280 782q-20 0 -33 15q-14 16 -14 36q0 19 14 33t33 14t33 -14t14 -33q0 -20 -14 -36q-13 -15 -33 -15zM144 782q-20 0 -33 15q-14 16 -14 36q0 19 14 33t33 14t33 -14t14 -33
q0 -20 -14 -36q-13 -15 -33 -15z" />
    <glyph glyph-name="multiply" unicode="&#xd7;" horiz-adv-x="276" 
d="M129 354l-104 113l9 9l103 -113l106 116l9 -9l-107 -115l107 -117l-9 -8l-106 115l-106 -114l-8 8z" />
    <glyph glyph-name="Oslash" unicode="&#xd8;" horiz-adv-x="433" 
d="M216 -10l-3 -2q-42 0 -81 36l-13 -50l-10 3l14 56q-41 43 -70 129q-28 84 -28 213q0 96 17 170q16 71 44 119q28 47 60 71q33 24 68 24q45 0 85 -38l12 46l9 -4l-13 -50q41 -44 69 -127t28 -211q0 -93 -17 -167q-16 -70 -44 -121q-27 -49 -60 -73t-67 -24zM133 374
q0 -78 3 -141q3 -68 10 -111l131 511q-21 113 -64 113q-41 0 -61 -96q-19 -94 -19 -276zM213 -2v-1q43 0 61 99q17 96 19 278q0 146 -12 236l-130 -512q18 -100 62 -100z" />
    <glyph glyph-name="Ugrave" unicode="&#xd9;" 
d="M202 -12l-3 -3q-74 0 -116 39t-42 126v449q0 56 -1 74q-2 31 -4 41q-3 14 -9 18q-7 5 -17 8v6h164v-6q-10 -3 -17 -8q-6 -4 -9 -18q-2 -10 -4 -41q-1 -18 -1 -74v-455q0 -77 17 -111q16 -33 59 -33q50 0 74 38t24 108v449q0 54 -1 71q-2 30 -4 41q-3 15 -11 21
q-10 8 -21 14v6h81v-6q-14 -10 -17 -13q-6 -6 -9 -21q-2 -12 -4 -40q-1 -17 -1 -71v-449q0 -75 -29 -118q-29 -42 -99 -42zM162 806q-23 5 -32 15q-9 11 -9 26q0 11 8 21q7 9 23 9q12 0 20 -4q12 -6 20 -13l100 -75l-3 -6z" />
    <glyph glyph-name="Uacute" unicode="&#xda;" 
d="M202 -12l-3 -3q-74 0 -116 39t-42 126v449q0 56 -1 74q-2 31 -4 41q-3 14 -9 18q-7 5 -17 8v6h164v-6q-10 -3 -17 -8q-6 -4 -9 -18q-2 -10 -4 -41q-1 -18 -1 -74v-455q0 -77 17 -111q16 -33 59 -33q50 0 74 38t24 108v449q0 54 -1 71q-2 30 -4 41q-3 15 -11 21
q-10 8 -21 14v6h81v-6q-14 -10 -17 -13q-6 -6 -9 -21q-2 -12 -4 -40q-1 -17 -1 -71v-449q0 -75 -29 -118q-29 -42 -99 -42zM140 785l98 74q22 18 42 18q16 0 23 -9q8 -10 8 -21q0 -15 -9 -26q-9 -10 -32 -15l-127 -27z" />
    <glyph glyph-name="Ucircumflex" unicode="&#xdb;" 
d="M202 -12l-3 -3q-74 0 -116 39t-42 126v449q0 56 -1 74q-2 31 -4 41q-3 14 -9 18q-7 5 -17 8v6h164v-6q-10 -3 -17 -8q-6 -4 -9 -18q-2 -10 -4 -41q-1 -18 -1 -74v-455q0 -77 17 -111q16 -33 59 -33q50 0 74 38t24 108v449q0 54 -1 71q-2 30 -4 41q-3 15 -11 21
q-10 8 -21 14v6h81v-6q-14 -10 -17 -13q-6 -6 -9 -21q-2 -12 -4 -40q-1 -17 -1 -71v-449q0 -75 -29 -118q-29 -42 -99 -42zM213 893l110 -109l-3 -6l-107 44l-106 -44l-3 6z" />
    <glyph glyph-name="Udieresis" unicode="&#xdc;" 
d="M202 -12l-3 -3q-74 0 -116 39t-42 126v449q0 56 -1 74q-2 31 -4 41q-3 14 -9 18q-7 5 -17 8v6h164v-6q-10 -3 -17 -8q-6 -4 -9 -18q-2 -10 -4 -41q-1 -18 -1 -74v-455q0 -77 17 -111q16 -33 59 -33q50 0 74 38t24 108v449q0 54 -1 71q-2 30 -4 41q-3 15 -11 21
q-10 8 -21 14v6h81v-6q-14 -10 -17 -13q-6 -6 -9 -21q-2 -12 -4 -40q-1 -17 -1 -71v-449q0 -75 -29 -118q-29 -42 -99 -42zM280 783q-20 0 -33 15q-14 16 -14 36q0 19 14 33t33 14t33 -14t14 -33q0 -20 -14 -36q-13 -15 -33 -15zM144 783q-20 0 -33 15q-14 16 -14 36
q0 19 14 33t33 14t33 -14t14 -33q0 -20 -14 -36q-13 -15 -33 -15z" />
    <glyph glyph-name="Yacute" unicode="&#xdd;" horiz-adv-x="340" 
d="M97 6l2 -2q10 3 17 8q6 4 9 20q2 12 4 42q1 18 1 74v245l-75 235q-13 50 -22 71q-11 25 -33 45v6h157v-6q-11 -5 -15 -10t-4 -15q0 -9 3 -21l7 -28l77 -258l52 211q9 33 12 54q3 23 2 33q-2 13 -12 20q-11 8 -28 12v6h90v-6q-9 -4 -16 -9q-6 -5 -11 -17q-7 -18 -11 -33
q-5 -18 -15 -59l-57 -222v-254q0 -55 1 -73q2 -30 4 -42q3 -14 9 -19q7 -5 17 -8v-6h-165v6zM127 786l98 74q23 18 42 18q15 0 23 -9q8 -10 8 -21q0 -16 -9 -26t-32 -15l-127 -27z" />
    <glyph glyph-name="Thorn" unicode="&#xde;" horiz-adv-x="379" 
d="M19 6v-4q10 3 17 8q6 4 9 20q2 12 4 42q1 18 1 74v454q0 56 -1 74q-2 31 -4 41q-3 13 -9 18q-7 5 -17 8v6h165v-6q-10 -3 -17 -8q-6 -5 -9 -18q-2 -10 -4 -41q-1 -18 -1 -74v-5h24q40 0 77 -8q35 -8 60 -28q25 -21 40 -55t15 -89q0 -53 -15 -90t-41 -63q-25 -24 -62 -37
q-36 -12 -79 -12h-19v-65q0 -55 1 -73q2 -30 4 -42q3 -14 9 -19q7 -5 17 -8v-6h-165v6zM152 584l-2 -368h16q16 0 35 8q17 7 33 29q15 21 24 57t9 91q0 57 -9 93q-9 38 -22 56q-14 20 -30 27q-15 7 -31 7h-23z" />
    <glyph glyph-name="germandbls" unicode="&#xdf;" horiz-adv-x="394" 
d="M139 90l-3 -6v-41q0 -15 3 -24t8 -12t12 -6v-6h-140v6q10 3 14 6q5 3 8 12t3 24v41v366h-50v8q29 3 40 12q10 9 10 34v54q0 52 15 90q15 37 38 62t51 35q30 11 54 11q26 0 47 -7q23 -8 41 -21q18 -14 30 -36t12 -51q0 -28 -10 -48q-11 -23 -25 -39q-20 -24 -31 -35
q-15 -15 -28 -36q-13 -24 -14 -39q-2 -22 -2 -30q0 -26 17 -60q17 -33 54 -78q32 -37 47 -57q17 -23 27 -44q9 -19 12 -36t3 -35q0 -29 -10 -49t-26 -36q-14 -15 -34 -22q-18 -7 -36 -7q-15 0 -24 3q-8 3 -15 8q-8 6 -11 9q-4 4 -12 4q-7 0 -10 -5q-4 -6 -5 -12h-9v122h8
q13 -63 32 -92q18 -29 48 -29q20 0 30 19q11 20 11 42q0 15 -3 29t-12 30q-8 14 -24 37q-6 9 -38 49q-17 19 -34 44q-14 20 -21 36q-7 15 -10 33q-3 17 -3 33q0 22 6 42t15 36q12 22 19 32q12 16 20 32q17 30 23 60q6 32 6 69q0 40 -1 56q-2 26 -7 41q-6 16 -18 25t-31 9
q-35 0 -51 -31t-16 -108v-523z" />
    <glyph glyph-name="agrave" unicode="&#xe0;" horiz-adv-x="334" 
d="M108 -7l-3 -4q-36 0 -60 26q-24 25 -24 77q0 35 15 56t36 36t45 27q22 11 42 26l-2 -1q5 5 15 13q8 6 14 14q6 7 9 18t3 29v75q0 29 -1 39q-1 15 -6 24t-12 12t-20 3t-24 -12t-21 -45q-4 -16 -12 -27q-7 -10 -25 -10q-16 0 -25 9t-9 23q0 12 6 24t20 23t36 17q23 6 54 6
q32 0 53 -4q24 -5 42 -18q17 -13 28 -36q10 -21 10 -60v-225q0 -48 1 -64q2 -27 4 -36q3 -12 7 -15t12 -3q14 0 21 7l3 -6q-8 -6 -19 -11q-13 -6 -42 -6q-37 0 -55 15t-21 38q-9 -10 -24 -25q-12 -12 -21 -17q-11 -6 -22 -9q-12 -3 -28 -3zM112 111v-3q0 -50 9 -75t26 -25
q5 0 14 9q1 1 33 35v216q-6 -15 -17 -23q-11 -7 -24 -18l3 2q-15 -12 -24 -24q-8 -11 -13 -25t-6 -30q-1 -11 -1 -39zM107 598l1 -2q-13 10 -21 23q-7 11 -7 26q0 14 9 23t24 9q14 0 23 -10q10 -12 20 -30l62 -120l-6 -4z" />
    <glyph glyph-name="aacute" unicode="&#xe1;" horiz-adv-x="334" 
d="M108 -7l-3 -4q-36 0 -60 26q-24 25 -24 77q0 35 15 56t36 36t45 27q22 11 42 26l-2 -1q5 5 15 13q8 6 14 14q6 7 9 18t3 29v75q0 29 -1 39q-1 15 -6 24t-12 12t-20 3t-24 -12t-21 -45q-4 -16 -12 -27q-7 -10 -25 -10q-16 0 -25 9t-9 23q0 12 6 24t20 23t36 17q23 6 54 6
q32 0 53 -4q24 -5 42 -18q17 -13 28 -36q10 -21 10 -60v-225q0 -48 1 -64q2 -27 4 -36q3 -12 7 -15t12 -3q14 0 21 7l3 -6q-8 -6 -19 -11q-13 -6 -42 -6q-37 0 -55 15t-21 38q-9 -10 -24 -25q-12 -12 -21 -17q-11 -6 -22 -9q-12 -3 -28 -3zM112 111v-3q0 -50 9 -75t26 -25
q5 0 14 9q1 1 33 35v216q-6 -15 -17 -23q-11 -7 -24 -18l3 2q-15 -12 -24 -24q-8 -11 -13 -25t-6 -30q-1 -11 -1 -39zM114 517l62 120q10 18 20 30q9 11 24 11q14 0 23 -9t9 -23q0 -26 -27 -48l-105 -85z" />
    <glyph glyph-name="acircumflex" unicode="&#xe2;" horiz-adv-x="334" 
d="M108 -7l-3 -4q-36 0 -60 26q-24 25 -24 77q0 35 15 56t36 36t45 27q22 11 42 26l-2 -1q5 5 15 13q8 6 14 14q6 7 9 18t3 29v75q0 29 -1 39q-1 15 -6 24t-12 12t-20 3t-24 -12t-21 -45q-4 -16 -12 -27q-7 -10 -25 -10q-16 0 -25 9t-9 23q0 12 6 24t20 23t36 17q23 6 54 6
q32 0 53 -4q24 -5 42 -18q17 -13 28 -36q10 -21 10 -60v-225q0 -48 1 -64q2 -27 4 -36q3 -12 7 -15t12 -3q14 0 21 7l3 -6q-8 -6 -19 -11q-13 -6 -42 -6q-37 0 -55 15t-21 38q-9 -10 -24 -25q-12 -12 -21 -17q-11 -6 -22 -9q-12 -3 -28 -3zM112 111v-3q0 -50 9 -75t26 -25
q5 0 14 9q1 1 33 35v216q-6 -15 -17 -23q-11 -7 -24 -18l3 2q-15 -12 -24 -24q-8 -11 -13 -25t-6 -30q-1 -11 -1 -39zM162 685l97 -168l-7 -5l-90 75l-90 -75l-7 5z" />
    <glyph glyph-name="atilde" unicode="&#xe3;" horiz-adv-x="334" 
d="M108 -7l-3 -4q-36 0 -60 26q-24 25 -24 77q0 35 15 56t36 36t45 27q22 11 42 26l-2 -1q5 5 15 13q8 6 14 14q6 7 9 18t3 29v75q0 29 -1 39q-1 15 -6 24t-12 12t-20 3t-24 -12t-21 -45q-4 -16 -12 -27q-7 -10 -25 -10q-16 0 -25 9t-9 23q0 12 6 24t20 23t36 17q23 6 54 6
q32 0 53 -4q24 -5 42 -18q17 -13 28 -36q10 -21 10 -60v-225q0 -48 1 -64q2 -27 4 -36q3 -12 7 -15t12 -3q14 0 21 7l3 -6q-8 -6 -19 -11q-13 -6 -42 -6q-37 0 -55 15t-21 38q-9 -10 -24 -25q-12 -12 -21 -17q-11 -6 -22 -9q-12 -3 -28 -3zM112 111v-3q0 -50 9 -75t26 -25
q5 0 14 9q1 1 33 35v216q-6 -15 -17 -23q-11 -7 -24 -18l3 2q-15 -12 -24 -24q-8 -11 -13 -25t-6 -30q-1 -11 -1 -39zM128 616l-4 -1q21 0 41 -4t38 -4q9 0 18 9t24 27l6 -3q-10 -42 -23 -67q-12 -22 -31 -22q-17 0 -40 3t-39 3q-10 0 -18 -8q-8 -7 -24 -27l-6 3
q11 41 26 67q13 24 32 24z" />
    <glyph glyph-name="adieresis" unicode="&#xe4;" horiz-adv-x="334" 
d="M108 -7l-3 -4q-36 0 -60 26q-24 25 -24 77q0 35 15 56t36 36t45 27q22 11 42 26l-2 -1q5 5 15 13q8 6 14 14q6 7 9 18t3 29v75q0 29 -1 39q-1 15 -6 24t-12 12t-20 3t-24 -12t-21 -45q-4 -16 -12 -27q-7 -10 -25 -10q-16 0 -25 9t-9 23q0 12 6 24t20 23t36 17q23 6 54 6
q32 0 53 -4q24 -5 42 -18q17 -13 28 -36q10 -21 10 -60v-225q0 -48 1 -64q2 -27 4 -36q3 -12 7 -15t12 -3q14 0 21 7l3 -6q-8 -6 -19 -11q-13 -6 -42 -6q-37 0 -55 15t-21 38q-9 -10 -24 -25q-12 -12 -21 -17q-11 -6 -22 -9q-12 -3 -28 -3zM112 111v-3q0 -50 9 -75t26 -25
q5 0 14 9q1 1 33 35v216q-6 -15 -17 -23q-11 -7 -24 -18l3 2q-15 -12 -24 -24q-8 -11 -13 -25t-6 -30q-1 -11 -1 -39zM230 534h-1q-19 0 -34 15t-15 36q0 19 15 33q16 14 35 14t33 -14t14 -33q0 -20 -14 -36q-13 -15 -33 -15zM93 534h-1q-20 0 -33 15q-14 16 -14 36
q0 19 14 33t33 14t35 -14q15 -14 15 -33q0 -21 -15 -36t-34 -15z" />
    <glyph glyph-name="aring" unicode="&#xe5;" horiz-adv-x="334" 
d="M108 -7l-3 -4q-36 0 -60 26q-24 25 -24 77q0 35 15 56t36 36t45 27q22 11 42 26l-2 -1q5 5 15 13q8 6 14 14q6 7 9 18t3 29v75q0 29 -1 39q-1 15 -6 24t-12 12t-20 3t-24 -12t-21 -45q-4 -16 -12 -27q-7 -10 -25 -10q-16 0 -25 9t-9 23q0 12 6 24t20 23t36 17q23 6 54 6
q32 0 53 -4q24 -5 42 -18q17 -13 28 -36q10 -21 10 -60v-225q0 -48 1 -64q2 -27 4 -36q3 -12 7 -15t12 -3q14 0 21 7l3 -6q-8 -6 -19 -11q-13 -6 -42 -6q-37 0 -55 15t-21 38q-9 -10 -24 -25q-12 -12 -21 -17q-11 -6 -22 -9q-12 -3 -28 -3zM112 111v-3q0 -50 9 -75t26 -25
q5 0 14 9q1 1 33 35v216q-6 -15 -17 -23q-11 -7 -24 -18l3 2q-15 -12 -24 -24q-8 -11 -13 -25t-6 -30q-1 -11 -1 -39zM89 587l-2 -2q0 29 21 48q22 20 53 20t54 -20q22 -19 22 -48t-21 -49q-20 -19 -53 -19q-31 0 -53 20q-21 19 -21 50zM128 585h-1q0 -29 9 -45t24 -16
t24 17t9 44t-9 44t-24 17q-14 0 -23 -17t-9 -44z" />
    <glyph glyph-name="ae" unicode="&#xe6;" horiz-adv-x="490" 
d="M110 -7l-9 -3q-38 0 -62 26t-24 77q0 35 15 56t36 36t45 27q22 11 42 26l-2 -1q5 5 15 13q8 6 14 14t9 18t3 29v75q0 29 -1 39q-1 15 -6 24t-12 12t-20 3t-24 -12t-21 -45q-4 -17 -12 -27q-7 -10 -25 -10q-16 0 -25 9t-9 23q0 12 6 24t20 23t36 17q23 6 54 6q36 0 63 -7
q29 -8 47 -30q20 20 39 29q20 9 36 9q32 0 53 -12q22 -12 35 -33q14 -21 21 -51q8 -30 9 -64h-166q-1 -9 -1 -27v-28q0 -62 4 -103q4 -43 14 -79q9 -32 26 -51q17 -18 42 -18q28 0 45 11q14 9 25 20l5 -7l-11 -11q-6 -6 -15 -12q-7 -5 -23 -10q-12 -4 -32 -4q-46 0 -81 19
q-36 19 -58 61l-11 -12q-18 -20 -31 -34q-12 -14 -24 -21q-13 -8 -24 -11q-12 -3 -30 -3zM334 463l-2 -2q-8 0 -15 -6q-8 -7 -14 -22q-7 -19 -11 -43q-5 -27 -6 -70h83q0 71 -6 107t-29 36zM104 110l-1 -3q0 -49 9 -75q9 -25 26 -25q4 0 9 3t12 9q5 4 18 17l27 27l10 11
q-14 28 -21 66q-7 35 -7 86v41q-6 -15 -17 -23t-24 -18l3 2q-15 -12 -24 -24q-8 -11 -13 -25q-5 -13 -6 -30q-1 -11 -1 -39z" />
    <glyph glyph-name="ccedilla" unicode="&#xe7;" horiz-adv-x="296" 
d="M193 -5l-7 -3q-33 0 -64 14q-29 13 -54 44q-23 29 -37 75q-13 43 -13 107q0 60 15 105q15 44 38 75q22 30 50 45q27 15 50 15q21 0 37 -4q18 -5 31 -13q13 -9 22 -22t9 -30q0 -15 -9 -24t-24 -9q-36 0 -42 46q-3 26 -6 36q-3 11 -16 11q-16 0 -26 -16q-11 -18 -17 -45
q-6 -28 -9 -68q-3 -39 -3 -85q0 -115 22 -177q22 -63 64 -63q27 0 44 13q20 15 29 24l7 -6q-3 -4 -12 -13q-8 -7 -18 -15q-10 -7 -26 -12q-17 -5 -35 -5zM173 -1l-15 -34q31 -3 54 -19q24 -16 24 -45t-31 -48q-32 -20 -106 -21l-1 8q36 6 57 18t21 27t-15 21q-16 7 -32 8
l-3 5l36 80h11z" />
    <glyph glyph-name="egrave" unicode="&#xe8;" horiz-adv-x="307" 
d="M191 -5l-3 1q-36 0 -69 14q-31 14 -54 42q-23 29 -35 74t-12 108q0 62 15 107t36 75q21 29 47 45q26 15 47 15q32 0 53 -12q22 -12 35 -33t21 -51t9 -64h-167q-1 -8 -1 -26v-29q0 -57 3 -103q3 -44 14 -79q10 -33 27 -51t42 -18q28 0 45 11q14 9 27 20l5 -7
q-11 -11 -28 -24q-20 -15 -57 -15zM163 467l-2 -2q-7 0 -15 -6q-8 -7 -14 -22q-7 -19 -11 -43q-5 -27 -6 -70h84q2 71 -6 107q-7 36 -30 36zM106 604l1 -2q-13 10 -21 23q-7 11 -7 26q0 14 9 23t24 9q14 0 23 -10q10 -12 20 -30l62 -120l-6 -4z" />
    <glyph glyph-name="eacute" unicode="&#xe9;" horiz-adv-x="307" 
d="M191 -5l-3 1q-36 0 -69 14q-31 14 -54 42q-23 29 -35 74t-12 108q0 62 15 107t36 75q21 29 47 45q26 15 47 15q32 0 53 -12q22 -12 35 -33t21 -51t9 -64h-167q-1 -8 -1 -26v-29q0 -57 3 -103q3 -44 14 -79q10 -33 27 -51t42 -18q28 0 45 11q14 9 27 20l5 -7
q-11 -11 -28 -24q-20 -15 -57 -15zM163 467l-2 -2q-7 0 -15 -6q-8 -7 -14 -22q-7 -19 -11 -43q-5 -27 -6 -70h84q2 71 -6 107q-7 36 -30 36zM108 523l62 120q10 18 20 30q9 11 24 11q14 0 23 -9t9 -23q0 -26 -27 -48l-105 -85z" />
    <glyph glyph-name="ecircumflex" unicode="&#xea;" horiz-adv-x="307" 
d="M191 -5l-3 1q-36 0 -69 14q-31 14 -54 42q-23 29 -35 74t-12 108q0 62 15 107t36 75q21 29 47 45q26 15 47 15q32 0 53 -12q22 -12 35 -33t21 -51t9 -64h-167q-1 -8 -1 -26v-29q0 -57 3 -103q3 -44 14 -79q10 -33 27 -51t42 -18q28 0 45 11q14 9 27 20l5 -7
q-11 -11 -28 -24q-20 -15 -57 -15zM163 467l-2 -2q-7 0 -15 -6q-8 -7 -14 -22q-7 -19 -11 -43q-5 -27 -6 -70h84q2 71 -6 107q-7 36 -30 36zM163 691l97 -168l-7 -5l-90 75l-90 -75l-7 5z" />
    <glyph glyph-name="edieresis" unicode="&#xeb;" horiz-adv-x="307" 
d="M191 -5l-3 1q-36 0 -69 14q-31 14 -54 42q-23 29 -35 74t-12 108q0 62 15 107t36 75q21 29 47 45q26 15 47 15q32 0 53 -12q22 -12 35 -33t21 -51t9 -64h-167q-1 -8 -1 -26v-29q0 -57 3 -103q3 -44 14 -79q10 -33 27 -51t42 -18q28 0 45 11q14 9 27 20l5 -7
q-11 -11 -28 -24q-20 -15 -57 -15zM163 467l-2 -2q-7 0 -15 -6q-8 -7 -14 -22q-7 -19 -11 -43q-5 -27 -6 -70h84q2 71 -6 107q-7 36 -30 36zM231 540h-1q-19 0 -34 15t-15 36q0 19 15 33q16 14 35 14t33 -14t14 -33q0 -20 -14 -36q-14 -15 -33 -15zM94 540h-1q-19 0 -33 15
q-14 16 -14 36q0 19 14 33t33 14t35 -14q15 -14 15 -33q0 -21 -15 -36t-34 -15z" />
    <glyph glyph-name="igrave" unicode="&#xec;" horiz-adv-x="178" 
d="M17 6v-1q9 3 16 6q6 3 9 12t3 24v41v233q0 27 -1 36q-2 15 -4 21q-3 7 -9 10q-8 4 -16 5v7l120 75v-386v-41q0 -15 3 -24t9 -12q7 -3 16 -6v-6h-146v6zM34 604l1 -2q-13 10 -21 23q-7 11 -7 26q0 14 9 23t24 9q14 0 23 -10q10 -12 20 -30l62 -120l-6 -4z" />
    <glyph glyph-name="iacute" unicode="&#xed;" horiz-adv-x="178" 
d="M17 6v-1q9 3 16 6q6 3 9 12t3 24v41v233q0 27 -1 36q-2 15 -4 21q-3 7 -9 10q-8 4 -16 5v7l120 75v-386v-41q0 -15 3 -24t9 -12q7 -3 16 -6v-6h-146v6zM32 523l62 120q10 18 20 30q9 11 24 11q14 0 23 -9t9 -23q0 -26 -27 -48l-105 -85z" />
    <glyph glyph-name="icircumflex" unicode="&#xee;" horiz-adv-x="178" 
d="M17 6v-1q9 3 16 6q6 3 9 12t3 24v41v233q0 27 -1 36q-2 15 -4 21q-3 7 -9 10q-8 4 -16 5v7l120 75v-386v-41q0 -15 3 -24t9 -12q7 -3 16 -6v-6h-146v6zM89 691l97 -168l-7 -5l-90 75l-90 -75l-7 5z" />
    <glyph glyph-name="idieresis" unicode="&#xef;" horiz-adv-x="178" 
d="M150 541h-1q-19 0 -34 15t-15 36q0 20 15 33q16 14 35 14t33 -14t14 -33q0 -20 -14 -36q-13 -15 -33 -15zM27 541q-19 0 -33 15q-14 16 -14 36q0 19 14 33t33 14t33 -14t14 -33q0 -20 -14 -36q-14 -15 -33 -15zM16 6v-1q9 3 16 6q6 3 9 12t3 24v41v233q0 27 -1 36
q-2 15 -4 21q-3 7 -9 10q-8 4 -16 5v7l120 75v-386v-41q0 -15 3 -24t9 -12q7 -3 16 -6v-6h-146v6z" />
    <glyph glyph-name="eth" unicode="&#xf0;" horiz-adv-x="360" 
d="M337 286l-4 -4q0 -82 -15 -138t-39 -90t-52 -49q-29 -15 -52 -15t-51 14q-27 14 -51 42q-23 27 -40 74q-16 44 -16 108q0 67 16 112q17 47 40 76t51 43q26 13 51 13q31 0 57 -17q-4 43 -15 84q-10 38 -29 78l-87 -45l-4 7l87 46q-38 77 -105 132l3 4q86 -48 141 -117
l83 44l4 -8l-81 -42q60 -78 84 -168t24 -184zM175 -1l-4 -2q15 0 27 12q13 13 20 39q7 27 12 71q4 39 4 107q0 73 -4 113q-4 45 -12 72q-8 28 -19 38q-13 11 -27 11q-12 0 -25 -11q-11 -10 -19 -38q-8 -27 -12 -72q-4 -40 -4 -113q0 -58 5 -106q4 -43 12 -70q7 -26 20 -39
q12 -12 26 -12z" />
    <glyph glyph-name="ntilde" unicode="&#xf1;" horiz-adv-x="379" 
d="M18 6l1 -2q10 3 14 6t7 12t3 24v41v233q0 29 -1 38q-2 15 -4 21q-3 7 -9 10q-5 2 -16 4v7l122 75v-76q21 22 37 37t30 24q13 9 26 12q12 3 25 3q11 0 24 -4q16 -5 29 -15q14 -10 24 -30q10 -19 10 -48v-288v-41q0 -12 2 -24q2 -9 6 -12t14 -6v-6h-146v6q9 3 16 6
q6 3 9 12q2 7 4 24q1 10 1 41v310q0 30 -8 43q-8 12 -20 12q-1 0 -9 -2q-5 -1 -16 -9q-8 -6 -25 -21q-13 -11 -34 -36v-298v-41q0 -15 3 -24t9 -12q7 -3 16 -6v-6h-144v6zM159 621l-4 -1q21 0 41 -4t38 -4q9 0 18 9t24 27l6 -3q-10 -42 -23 -67q-12 -22 -31 -22q-18 0 -40 3
t-39 3q-10 0 -18 -8q-7 -8 -24 -27l-6 3q11 41 26 67q13 24 32 24z" />
    <glyph glyph-name="ograve" unicode="&#xf2;" horiz-adv-x="358" 
d="M179 -6v-2q-23 0 -51 14q-27 14 -51 42q-23 27 -40 74q-16 44 -16 108q0 67 16 112q17 47 40 76t51 43q26 13 51 13t51 -13q28 -14 51 -43q24 -30 39 -76t15 -112q0 -63 -15 -108q-15 -44 -39 -73t-51 -42q-26 -13 -51 -13zM179 1l-4 -2q15 0 27 12q13 13 20 39
q7 27 12 71q4 39 4 107q0 73 -4 113q-4 45 -12 72q-8 28 -19 38q-13 11 -27 11q-12 0 -25 -11q-11 -10 -19 -38q-8 -27 -12 -72q-4 -40 -4 -113q0 -58 5 -106q4 -43 12 -70q7 -26 20 -39q12 -12 26 -12zM115 601l1 -2q-13 10 -21 23q-7 11 -7 26q0 14 9 23t24 9q14 0 23 -10
q10 -12 20 -30l62 -120l-6 -4z" />
    <glyph glyph-name="oacute" unicode="&#xf3;" horiz-adv-x="358" 
d="M179 -6v-2q-23 0 -51 14q-27 14 -51 42q-23 27 -40 74q-16 44 -16 108q0 67 16 112q17 47 40 76t51 43q26 13 51 13t51 -13q28 -14 51 -43q24 -30 39 -76t15 -112q0 -63 -15 -108q-15 -44 -39 -73t-51 -42q-26 -13 -51 -13zM179 1l-4 -2q15 0 27 12q13 13 20 39
q7 27 12 71q4 39 4 107q0 73 -4 113q-4 45 -12 72q-8 28 -19 38q-13 11 -27 11q-12 0 -25 -11q-11 -10 -19 -38q-8 -27 -12 -72q-4 -40 -4 -113q0 -58 5 -106q4 -43 12 -70q7 -26 20 -39q12 -12 26 -12zM123 520l62 120q10 18 20 30q9 11 24 11q14 0 23 -9t9 -23
q0 -25 -27 -48l-105 -85z" />
    <glyph glyph-name="ocircumflex" unicode="&#xf4;" horiz-adv-x="358" 
d="M179 -6v-2q-23 0 -51 14q-27 14 -51 42q-23 27 -40 74q-16 44 -16 108q0 67 16 112q17 47 40 76t51 43q26 13 51 13t51 -13q28 -14 51 -43q24 -30 39 -76t15 -112q0 -63 -15 -108q-15 -44 -39 -73t-51 -42q-26 -13 -51 -13zM179 1l-4 -2q15 0 27 12q13 13 20 39
q7 27 12 71q4 39 4 107q0 73 -4 113q-4 45 -12 72q-8 28 -19 38q-13 11 -27 11q-12 0 -25 -11q-11 -10 -19 -38q-8 -27 -12 -72q-4 -40 -4 -113q0 -58 5 -106q4 -43 12 -70q7 -26 20 -39q12 -12 26 -12zM175 688l97 -168l-7 -5l-90 75l-90 -75l-7 5z" />
    <glyph glyph-name="otilde" unicode="&#xf5;" horiz-adv-x="358" 
d="M179 -6v-2q-23 0 -51 14q-27 14 -51 42q-23 27 -40 74q-16 44 -16 108q0 67 16 112q17 47 40 76t51 43q26 13 51 13t51 -13q28 -14 51 -43q24 -30 39 -76t15 -112q0 -63 -15 -108q-15 -44 -39 -73t-51 -42q-26 -13 -51 -13zM179 1l-4 -2q15 0 27 12q13 13 20 39
q7 27 12 71q4 39 4 107q0 73 -4 113q-4 45 -12 72q-8 28 -19 38q-13 11 -27 11q-12 0 -25 -11q-11 -10 -19 -38q-8 -27 -12 -72q-4 -40 -4 -113q0 -58 5 -106q4 -43 12 -70q7 -26 20 -39q12 -12 26 -12zM138 619l-4 -1q21 0 41 -4t38 -4q9 0 18 9t24 27l6 -3
q-10 -42 -23 -67q-12 -22 -31 -22q-17 0 -40 3t-39 3q-10 0 -18 -8t-24 -27l-6 3q11 41 26 67q14 24 32 24z" />
    <glyph glyph-name="odieresis" unicode="&#xf6;" horiz-adv-x="358" 
d="M179 -6v-2q-23 0 -51 14q-27 14 -51 42q-23 27 -40 74q-16 44 -16 108q0 67 16 112q17 47 40 76t51 43q26 13 51 13t51 -13q28 -14 51 -43q24 -30 39 -76t15 -112q0 -63 -15 -108q-15 -44 -39 -73t-51 -42q-26 -13 -51 -13zM179 1l-4 -2q15 0 27 12q13 13 20 39
q7 27 12 71q4 39 4 107q0 73 -4 113q-4 45 -12 72q-8 28 -19 38q-13 11 -27 11q-12 0 -25 -11q-11 -10 -19 -38q-8 -27 -12 -72q-4 -40 -4 -113q0 -58 5 -106q4 -43 12 -70q7 -26 20 -39q12 -12 26 -12zM243 537h-1q-19 0 -34 15t-15 36q0 20 15 33q16 14 35 14t33 -14
t14 -33q0 -20 -14 -36q-14 -15 -33 -15zM106 537h-1q-19 0 -33 15q-14 16 -14 36q0 19 14 33t33 14t35 -14q15 -13 15 -33q0 -21 -15 -36t-34 -15z" />
    <glyph glyph-name="divide" unicode="&#xf7;" horiz-adv-x="310" 
d="M105 481q0 21 15 36t36 15t36 -15t15 -36q0 -22 -15 -37t-36 -15t-36 15t-15 37zM27 357h257v-12h-257v12zM105 218q0 22 15 37t36 15t36 -15t15 -37q0 -21 -15 -36t-36 -15t-36 15t-15 36z" />
    <glyph glyph-name="oslash" unicode="&#xf8;" horiz-adv-x="358" 
d="M130 69l-1 -3l-3 9l-3 9l102 317q-7 34 -20 48q-12 14 -29 14q-12 0 -25 -11q-11 -10 -19 -38q-8 -27 -12 -72q-4 -40 -4 -113q0 -91 9 -144l-21 -65l8 -6l-10 -31l-8 4l10 33q-32 25 -58 77q-25 50 -25 132q0 67 16 112q17 47 40 76t51 43q26 13 51 13q14 0 32 -5
q17 -4 33 -15l-16 -49l3 -18zM178 0l-2 -2q15 0 27 12q13 13 20 39q7 27 12 71q4 39 4 107q0 53 -3 90q-4 44 -7 65l20 62l-7 5l8 26l8 -4l-9 -27q18 -15 32 -33q16 -20 27 -46q11 -25 19 -61q7 -32 7 -78q0 -63 -15 -108q-15 -44 -39 -73t-51 -42q-26 -13 -51 -13
q-32 0 -66 22l17 53q7 -34 20 -50q12 -15 29 -15z" />
    <glyph glyph-name="ugrave" unicode="&#xf9;" horiz-adv-x="360" 
d="M133 -8l3 -3q-12 0 -30 5q-16 4 -30 17q-15 13 -23 31q-9 20 -9 48v248q0 20 -1 27q-2 11 -4 16q-3 7 -9 8q-7 2 -16 3v7l120 75v-396q0 -38 9 -54t21 -16q8 0 21 10t42 42v278q0 20 -1 27q-2 11 -4 16q-3 7 -9 8q-7 2 -16 3v7l121 75v-386v-41q0 -12 2 -24q1 -8 5 -12
q3 -3 11 -6v-6h-110v51q-30 -33 -51 -46q-19 -12 -42 -12zM135 602l1 -2q-13 10 -21 23q-7 11 -7 26q0 14 9 23t24 9q14 0 23 -10q10 -12 20 -30l62 -120l-6 -4z" />
    <glyph glyph-name="uacute" unicode="&#xfa;" horiz-adv-x="360" 
d="M133 -8l3 -3q-12 0 -30 5q-16 4 -30 17q-15 13 -23 31q-9 20 -9 48v248q0 20 -1 27q-2 11 -4 16q-3 7 -9 8q-7 2 -16 3v7l120 75v-396q0 -38 9 -54t21 -16q8 0 21 10t42 42v278q0 20 -1 27q-2 11 -4 16q-3 7 -9 8q-7 2 -16 3v7l121 75v-386v-41q0 -12 2 -24q1 -8 5 -12
q3 -3 11 -6v-6h-110v51q-30 -33 -51 -46q-19 -12 -42 -12zM143 521l62 120q10 18 20 30q9 11 24 11q14 0 23 -9t9 -23q0 -26 -27 -48l-105 -85z" />
    <glyph glyph-name="ucircumflex" unicode="&#xfb;" horiz-adv-x="360" 
d="M133 -8l3 -3q-12 0 -30 5q-16 4 -30 17q-15 13 -23 31q-9 20 -9 48v248q0 20 -1 27q-2 11 -4 16q-3 7 -9 8q-7 2 -16 3v7l120 75v-396q0 -38 9 -54t21 -16q8 0 21 10t42 42v278q0 20 -1 27q-2 11 -4 16q-3 7 -9 8q-7 2 -16 3v7l121 75v-386v-41q0 -12 2 -24q1 -8 5 -12
q3 -3 11 -6v-6h-110v51q-30 -33 -51 -46q-19 -12 -42 -12zM189 689l97 -168l-7 -5l-90 75l-90 -75l-7 5z" />
    <glyph glyph-name="udieresis" unicode="&#xfc;" horiz-adv-x="360" 
d="M133 -8l3 -3q-12 0 -30 5q-16 4 -30 17q-15 13 -23 31q-9 20 -9 48v248q0 20 -1 27q-2 11 -4 16q-3 7 -9 8q-7 2 -16 3v7l120 75v-396q0 -38 9 -54t21 -16q8 0 21 10t42 42v278q0 20 -1 27q-2 11 -4 16q-3 7 -9 8q-7 2 -16 3v7l121 75v-386v-41q0 -12 2 -24q1 -8 5 -12
q3 -3 11 -6v-6h-110v51q-30 -33 -51 -46q-19 -12 -42 -12zM257 538h-1q-19 0 -34 15t-15 36q0 19 15 33q16 14 35 14t33 -14t14 -33q0 -20 -14 -36q-14 -15 -33 -15zM120 538h-1q-19 0 -33 15q-14 16 -14 36q0 19 14 33t33 14t35 -14q15 -14 15 -33q0 -21 -15 -36t-34 -15z
" />
    <glyph glyph-name="yacute" unicode="&#xfd;" horiz-adv-x="309" 
d="M36 -171l-2 -1q-23 0 -33 10q-11 11 -11 24q0 16 9 24q10 8 24 8q11 0 18 -3q10 -4 14 -6l12 -6q6 -3 14 -3q11 0 25 17q13 16 33 68l9 33l-104 359q-4 12 -9 30t-7 24q-7 24 -10 30q-4 11 -9 15q-4 4 -12 7v6h147v-6q-10 -1 -16 -6q-5 -4 -7 -15t3 -29q9 -36 13 -50
l53 -210l53 186q13 44 17 65q4 24 3 36q-2 13 -9 17q-8 5 -19 6v6h75v-6q-9 -5 -15 -9q-7 -5 -11 -16q-3 -8 -12 -35q-3 -9 -19 -63l-105 -371q-27 -75 -52 -105q-25 -31 -60 -31zM127 523l62 120q10 18 20 30q9 11 24 11q14 0 23 -9t9 -23q0 -26 -27 -48l-105 -85z" />
    <glyph glyph-name="thorn" unicode="&#xfe;" horiz-adv-x="371" 
d="M19 -160h-1q10 3 14 6t7 12t3 24v41v716q0 27 -1 35q-2 15 -4 20q-3 8 -9 9t-15 3v7l120 63v-364q33 39 48 50q17 12 33 12q18 0 41 -10q24 -10 45 -36t36 -67q15 -42 15 -106q0 -61 -12 -111q-12 -48 -35 -82q-22 -33 -54 -51t-72 -18q-12 0 -24 5q-9 4 -16 9v-84v-41
q0 -12 2 -24q2 -9 6 -12t12 -6v-6h-139v6zM199 459q-1 0 -7 -2q-3 -1 -12 -8q-8 -6 -18 -18q-23 -27 -27 -31v-380q7 -7 16 -12q11 -6 25 -6q36 0 57 57t21 179q0 116 -15 168q-15 53 -40 53z" />
    <glyph glyph-name="ydieresis" unicode="&#xff;" horiz-adv-x="309" 
d="M36 -171l-2 -1q-23 0 -33 10q-11 11 -11 24q0 16 9 24q10 8 24 8q11 0 18 -3q10 -4 14 -6l12 -6q6 -3 14 -3q11 0 25 17q13 16 33 68l9 33l-104 359q-4 12 -9 30t-7 24q-7 24 -10 30q-4 11 -9 15q-4 4 -12 7v6h147v-6q-10 -1 -16 -6q-5 -4 -7 -15t3 -29q9 -36 13 -50
l53 -210l53 186q13 44 17 65q4 24 3 36q-2 13 -9 17q-8 5 -19 6v6h75v-6q-9 -5 -15 -9q-7 -5 -11 -16q-3 -8 -12 -35q-3 -9 -19 -63l-105 -371q-27 -75 -52 -105q-25 -31 -60 -31zM243 540h-1q-19 0 -34 15t-15 36q0 19 15 33q16 14 35 14t33 -14t14 -33q0 -20 -14 -36
q-14 -15 -33 -15zM106 540h-1q-19 0 -33 15q-14 16 -14 36q0 19 14 33t33 14t35 -14q15 -14 15 -33q0 -21 -15 -36t-34 -15z" />
    <glyph glyph-name="Amacron" unicode="&#x100;" horiz-adv-x="342" 
d="M-2 5l-4 -2q8 5 14 12q5 6 10 21q4 14 9 36t9 57l79 514l-6 36q-6 40 -16 51q-11 12 -21 15v5h111q7 0 11 -2t5 -12l101 -609q4 -30 9 -52q5 -21 9 -36q5 -15 10 -22q5 -6 14 -10v-6h-147v6q7 1 12 6t8 12t3 21t-3 36l-24 139h-127l-14 -90q-4 -35 -6 -57q-2 -24 1 -36
q3 -13 11 -21q8 -7 21 -12v-5h-79v5zM186 227l-66 385l-59 -385h125zM224 793h-168v41h168v-41z" />
    <glyph glyph-name="amacron" unicode="&#x101;" horiz-adv-x="334" 
d="M108 -7l-3 -4q-36 0 -60 26q-24 25 -24 77q0 35 15 56t36 36t45 27q22 11 42 26l-2 -1q5 5 15 13q8 6 14 14q6 7 9 18t3 29v75q0 29 -1 39q-1 15 -6 24t-12 12t-20 3t-24 -12t-21 -45q-4 -16 -12 -27q-7 -10 -25 -10q-16 0 -25 9t-9 23q0 12 6 24t20 23t36 17q23 6 54 6
q32 0 53 -4q24 -5 42 -18q17 -13 28 -36q10 -21 10 -60v-225q0 -48 1 -64q2 -27 4 -36q3 -12 7 -15t12 -3q14 0 21 7l3 -6q-8 -6 -19 -11q-13 -6 -42 -6q-37 0 -55 15t-21 38q-9 -10 -24 -25q-12 -12 -21 -17q-11 -6 -22 -9q-12 -3 -28 -3zM112 111v-3q0 -50 9 -75t26 -25
q5 0 14 9q1 1 33 35v216q-6 -15 -17 -23q-11 -7 -24 -18l3 2q-15 -12 -24 -24q-8 -11 -13 -25t-6 -30q-1 -11 -1 -39zM241 591v-40h-158v40h158z" />
    <glyph glyph-name="Abreve" unicode="&#x102;" horiz-adv-x="342" 
d="M-2 5l-4 -2q8 5 14 12q5 6 10 21q4 14 9 36t9 57l79 514l-6 36q-6 40 -16 51q-11 12 -21 15v5h111q7 0 11 -2t5 -12l101 -609q4 -30 9 -52q5 -21 9 -36q5 -15 10 -22q5 -6 14 -10v-6h-147v6q7 1 12 6t8 12t3 21t-3 36l-24 139h-127l-14 -90q-4 -35 -6 -57q-2 -24 1 -36
q3 -13 11 -21q8 -7 21 -12v-5h-79v5zM186 227l-66 385l-59 -385h125zM140 840l-2 -1q26 0 43 9q16 8 25 29h9q-1 -44 -21 -70q-19 -25 -54 -25t-56 26q-20 25 -22 72h9q16 -40 69 -40z" />
    <glyph glyph-name="abreve" unicode="&#x103;" horiz-adv-x="334" 
d="M108 -7l-3 -4q-36 0 -60 26q-24 25 -24 77q0 35 15 56t36 36t45 27q22 11 42 26l-2 -1q5 5 15 13q8 6 14 14q6 7 9 18t3 29v75q0 29 -1 39q-1 15 -6 24t-12 12t-20 3t-24 -12t-21 -45q-4 -16 -12 -27q-7 -10 -25 -10q-16 0 -25 9t-9 23q0 12 6 24t20 23t36 17q23 6 54 6
q32 0 53 -4q24 -5 42 -18q17 -13 28 -36q10 -21 10 -60v-225q0 -48 1 -64q2 -27 4 -36q3 -12 7 -15t12 -3q14 0 21 7l3 -6q-8 -6 -19 -11q-13 -6 -42 -6q-37 0 -55 15t-21 38q-9 -10 -24 -25q-12 -12 -21 -17q-11 -6 -22 -9q-12 -3 -28 -3zM112 111v-3q0 -50 9 -75t26 -25
q5 0 14 9q1 1 33 35v216q-6 -15 -17 -23q-11 -7 -24 -18l3 2q-15 -12 -24 -24q-8 -11 -13 -25t-6 -30q-1 -11 -1 -39zM163 584l-2 2q29 0 45 11q14 10 22 27h9q0 -17 -5 -37q-4 -16 -14 -31q-9 -13 -23 -21t-32 -8q-37 0 -57 29q-19 28 -19 68h9q4 -16 21 -28t46 -12z" />
    <glyph glyph-name="Aogonek" unicode="&#x104;" horiz-adv-x="342" 
d="M-2 5l-2 -6q8 5 14 12q5 6 10 21q4 14 9 36t9 57l79 514l-6 36q-7 39 -18 51t-21 15v5h111q7 0 11 -2t5 -12l101 -609q4 -30 9 -52q5 -21 9 -36q5 -15 10 -22q5 -6 14 -10v-6h-84q-30 0 -46 -27q-16 -26 -16 -68q0 -22 9 -34t26 -12q13 0 21 5t15 12l5 -5q-2 -2 -10 -12
q-6 -8 -17 -14q-13 -7 -24 -11q-15 -5 -32 -5q-31 0 -51 18t-20 45q0 22 12 40t29 32q17 13 36 24q25 13 33 17l-37 219h-127l-14 -90q-4 -35 -6 -57q-2 -24 1 -36q3 -13 11 -21q8 -7 21 -12v-5h-79v5zM187 223l-65 384l-59 -384h124z" />
    <glyph glyph-name="aogonek" unicode="&#x105;" horiz-adv-x="334" 
d="M108 -7l-2 -9q-36 0 -60 26t-24 77q0 35 15 56t36 36t45 27q22 11 42 26l-2 -1q5 5 15 13q8 6 14 14t9 18t3 29v75q0 29 -1 39q-2 15 -6 24t-12 12t-20 3q-14 0 -24 -12t-21 -45q-5 -17 -12 -27t-25 -10q-16 0 -25 9t-9 23q0 12 6 24t20 23t36 17t54 6t53 -4
q24 -4 42 -18q17 -13 28 -36q10 -21 10 -60v-225q0 -48 1 -64q2 -27 4 -36q3 -12 7 -15q5 -3 12 -3q14 0 21 7l3 -6q-3 -1 -7 -3q-1 0 -2 -1t-3.5 -2.5t-4.5 -2.5q-20 -11 -36 -36t-16 -63q0 -20 9 -32t26 -12q12 0 20 5q7 5 15 12l5 -5l-9 -12q-7 -9 -15 -14
q-10 -7 -23 -11q-15 -5 -31 -5q-33 0 -53 18t-20 45q0 20 10 36q11 18 25 30q15 13 33 24q16 9 35 18q-3 -1 -11 -1h-11q-34 0 -52 15q-17 14 -22 38q-9 -10 -24 -25q-12 -12 -21 -17q-11 -6 -22 -9q-12 -3 -28 -3zM113 106v-3q0 -49 9 -75q9 -25 26 -25q5 0 14 9q1 1 33 35
v216q-6 -15 -17 -23q-10 -8 -24 -18l3 2q-15 -12 -24 -24q-8 -11 -13 -25q-4 -13 -6 -30q-1 -11 -1 -39z" />
    <glyph glyph-name="Cacute" unicode="&#x106;" horiz-adv-x="349" 
d="M233 -9v-1q-33 0 -72 17q-37 16 -67 60q-29 42 -49 120q-19 75 -19 198q0 109 18 181q18 71 45 115q27 43 60 60q34 17 62 17q14 0 23 -3q12 -4 18 -7t16 -7q8 -3 15 -3q23 0 30 28h8v-163h-8q-13 49 -25 74q-14 29 -27 45t-27 22t-24 6q-16 0 -30 -18t-24 -60
q-10 -39 -16 -111q-6 -69 -6 -171q0 -112 9 -186t24 -117t36 -61t46 -18q23 0 41 12t35 32l6 -6q-12 -18 -38 -37q-24 -18 -60 -18zM131 787l98 74q23 18 42 18q15 0 23 -9q8 -10 8 -21q0 -15 -9 -26q-9 -10 -32 -15l-127 -27z" />
    <glyph glyph-name="cacute" unicode="&#x107;" horiz-adv-x="296" 
d="M193 -5l-7 -3q-33 0 -64 14q-29 13 -54 44q-23 29 -37 75q-13 43 -13 107q0 60 15 105q15 44 38 75q22 30 50 45q27 15 50 15q21 0 37 -4q18 -5 31 -13q13 -9 22 -22t9 -30q0 -15 -9 -24t-24 -9q-36 0 -42 46q-3 26 -6 36q-3 11 -16 11q-16 0 -26 -16q-11 -18 -17 -45
q-6 -28 -9 -68q-3 -39 -3 -85q0 -115 22 -177q22 -63 64 -63q27 0 44 13q20 15 29 24l7 -6q-3 -4 -12 -13q-8 -7 -18 -15q-10 -7 -26 -12q-17 -5 -35 -5zM116 521l62 120q10 18 20 30q9 11 24 11q14 0 23 -9t9 -23q0 -26 -27 -48l-105 -85z" />
    <glyph glyph-name="Ccircumflex" unicode="&#x108;" horiz-adv-x="349" 
d="M233 -9v-1q-33 0 -72 17q-37 16 -67 60q-29 42 -49 120q-19 75 -19 198q0 109 18 181q18 71 45 115q27 43 60 60q34 17 62 17q14 0 23 -3q12 -4 18 -7t16 -7q8 -3 15 -3q23 0 30 28h8v-163h-8q-13 49 -25 74q-14 29 -27 45t-27 22t-24 6q-16 0 -30 -18t-24 -60
q-10 -39 -16 -111q-6 -69 -6 -171q0 -112 9 -186t24 -117t36 -61t46 -18q23 0 41 12t35 32l6 -6q-12 -18 -38 -37q-24 -18 -60 -18zM206 895l110 -109l-3 -6l-107 44l-106 -44l-3 6z" />
    <glyph glyph-name="ccircumflex" unicode="&#x109;" horiz-adv-x="296" 
d="M193 -5l-7 -3q-33 0 -64 14q-29 13 -54 44q-23 29 -37 75q-13 43 -13 107q0 60 15 105q15 44 38 75q22 30 50 45q27 15 50 15q21 0 37 -4q18 -5 31 -13q13 -9 22 -22t9 -30q0 -15 -9 -24t-24 -9q-36 0 -42 46q-3 26 -6 36q-3 11 -16 11q-16 0 -26 -16q-11 -18 -17 -45
q-6 -28 -9 -68q-3 -39 -3 -85q0 -115 22 -177q22 -63 64 -63q27 0 44 13q20 15 29 24l7 -6q-3 -4 -12 -13q-8 -7 -18 -15q-10 -7 -26 -12q-17 -5 -35 -5zM169 689l97 -168l-7 -5l-90 75l-90 -75l-7 5z" />
    <glyph glyph-name="Cdotaccent" unicode="&#x10a;" horiz-adv-x="349" 
d="M233 -9v-1q-33 0 -72 17q-37 16 -67 60q-29 42 -49 120q-19 75 -19 198q0 109 18 181q18 71 45 115q27 43 60 60q34 17 62 17q14 0 23 -3q12 -4 18 -7t16 -7q8 -3 15 -3q23 0 30 28h8v-163h-8q-13 49 -25 74q-14 29 -27 45t-27 22t-24 6q-16 0 -30 -18t-24 -60
q-10 -39 -16 -111q-6 -69 -6 -171q0 -112 9 -186t24 -117t36 -61t46 -18q23 0 41 12t35 32l6 -6q-12 -18 -38 -37q-24 -18 -60 -18zM205 786l-1 -1q-22 0 -37 15t-15 38q0 22 15 37t38 15t38 -15t15 -37t-15 -37t-38 -15z" />
    <glyph glyph-name="cdotaccent" unicode="&#x10b;" horiz-adv-x="296" 
d="M193 -5l-7 -3q-33 0 -64 14q-29 13 -54 44q-23 29 -37 75q-13 43 -13 107q0 60 15 105q15 44 38 75q22 30 50 45q27 15 50 15q21 0 37 -4q18 -5 31 -13q13 -9 22 -22t9 -30q0 -15 -9 -24t-24 -9q-36 0 -42 46q-3 26 -6 36q-3 11 -16 11q-16 0 -26 -16q-11 -18 -17 -45
q-6 -28 -9 -68q-3 -39 -3 -85q0 -115 22 -177q22 -63 64 -63q27 0 44 13q20 15 29 24l7 -6q-3 -4 -12 -13q-8 -7 -18 -15q-10 -7 -26 -12q-17 -5 -35 -5zM169 538h-1q-22 0 -37 15t-15 38q0 22 15 37t38 15t38 -15t15 -37q0 -23 -15 -38t-38 -15z" />
    <glyph glyph-name="Ccaron" unicode="&#x10c;" horiz-adv-x="349" 
d="M233 -9v-1q-33 0 -72 17q-37 16 -67 60q-29 42 -49 120q-19 75 -19 198q0 109 18 181q18 71 45 115q27 43 60 60q34 17 62 17q14 0 23 -3q12 -4 18 -7t16 -7q8 -3 15 -3q23 0 30 28h8v-163h-8q-13 49 -25 74q-14 29 -27 45t-27 22t-24 6q-16 0 -30 -18t-24 -60
q-10 -39 -16 -111q-6 -69 -6 -171q0 -112 9 -186t24 -117t36 -61t46 -18q23 0 41 12t35 32l6 -6q-12 -18 -38 -37q-24 -18 -60 -18zM102 902l106 -44l107 44l3 -6l-110 -109l-109 109z" />
    <glyph glyph-name="ccaron" unicode="&#x10d;" horiz-adv-x="296" 
d="M193 -5l-7 -3q-33 0 -64 14q-29 13 -54 44q-23 29 -37 75q-13 43 -13 107q0 60 15 105q15 44 38 75q22 30 50 45q27 15 50 15q21 0 37 -4q18 -5 31 -13q13 -9 22 -22t9 -30q0 -15 -9 -24t-24 -9q-36 0 -42 46q-3 26 -6 36q-3 11 -16 11q-16 0 -26 -16q-11 -18 -17 -45
q-6 -28 -9 -68q-3 -39 -3 -85q0 -115 22 -177q22 -63 64 -63q27 0 44 13q20 15 29 24l7 -6q-3 -4 -12 -13q-8 -7 -18 -15q-10 -7 -26 -12q-17 -5 -35 -5zM79 689l90 -74l90 74l7 -4l-97 -168l-97 168z" />
    <glyph glyph-name="Dcaron" unicode="&#x10e;" horiz-adv-x="438" 
d="M19 6l-1 -4q10 3 17 8q6 4 9 20q2 12 4 42q1 18 1 74v454q0 56 -1 74q-2 30 -4 42q-3 16 -9 20q-7 5 -17 8v6h148q51 0 96 -21t78 -66q32 -44 52 -114q19 -67 19 -164q0 -184 -63 -284q-63 -101 -181 -101h-148v6zM152 737l-1 -732h14q32 0 57 19t43 63q18 43 27 116
q9 72 9 179q0 114 -13 180q-14 70 -34 108q-21 40 -45 53q-25 14 -43 14h-14zM82 900l106 -44l107 44l3 -6l-110 -109l-109 109z" />
    <glyph glyph-name="dcaron" unicode="&#x10f;" 
d="M153 -7l-3 -9q-26 0 -49 13q-24 13 -42 42q-19 30 -29 73q-11 47 -11 109q0 67 15 114q15 46 39 76q23 29 51 43t53 14q16 0 32 -8t29 -21v192q0 30 -1 39q-2 15 -4 20q-3 7 -9 8q-7 2 -16 3v7l124 66v-686v-41q0 -15 3 -24t9 -12q7 -3 16 -6v-6h-119v65q-32 -42 -51 -56
q-20 -15 -37 -15zM116 230l-2 -2q0 -121 16 -175q16 -55 39 -55q3 0 7 3q6 4 12 10q12 12 20 21q12 14 30 36v355q-13 14 -29 24q-15 9 -32 9q-25 0 -43 -52t-18 -174zM360 561l10 136q3 56 36 56q31 0 31 -31q0 -18 -10 -39l-61 -124z" />
    <glyph glyph-name="Dcroat" unicode="&#x110;" horiz-adv-x="436" 
d="M18 6l-1 -4q10 3 17 8q6 4 9 20q2 12 4 42q1 18 1 74v239h-50v9h50v206q0 56 -1 74q-2 30 -4 42q-3 16 -9 20q-7 5 -17 8v6h148q51 0 96 -21t78 -66q32 -44 52 -114q19 -67 19 -164q0 -184 -63 -284q-63 -101 -181 -101h-148v6zM165 4l-1 1q32 0 57 19t43 63
q18 43 27 116q9 72 9 179q0 114 -13 180q-14 70 -34 108q-21 40 -45 53q-25 14 -43 14h-14v-345h82v-9h-82v-379h14z" />
    <glyph glyph-name="dcroat" unicode="&#x111;" 
d="M142 578h246v-9h-246v9zM153 -7l-3 -9q-26 0 -49 13q-24 13 -42 42q-19 30 -29 73q-11 47 -11 109q0 67 15 114q15 46 39 76q23 29 51 43t53 14q16 0 32 -8t29 -21v192q0 30 -1 39q-2 15 -4 20q-3 7 -9 8q-7 2 -16 3v7l124 66v-686v-41q0 -15 3 -24t9 -12q7 -3 16 -6v-6
h-119v65q-32 -42 -51 -56q-20 -15 -37 -15zM116 230l-2 -2q0 -121 16 -175q16 -55 39 -55q3 0 7 3q6 4 12 10q12 12 20 21q12 14 30 36v355q-13 14 -29 24q-15 9 -32 9q-25 0 -43 -52t-18 -174z" />
    <glyph glyph-name="Emacron" unicode="&#x112;" horiz-adv-x="351" 
d="M19 6l-4 -3q10 3 17 8q6 4 9 20q2 12 4 42q1 18 1 74v454q0 56 -1 74q-2 30 -4 42q-3 16 -9 20q-7 5 -17 8v6h267q8 0 12 -3q5 -3 6 -19l18 -97h-9q-11 33 -24 53q-13 21 -33 33q-20 13 -44 17t-56 6v-321q26 2 41 9t24 18t12 24l6 27h6v-168h-6l-6 27q-3 13 -12 24
t-24 18t-41 9v-401h3q39 0 67 3q27 3 49 17t36 37q16 25 26 65h9l-12 -112q-2 -13 -6 -15q-6 -2 -12 -2h-293v6zM251 792h-168v41h168v-41z" />
    <glyph glyph-name="emacron" unicode="&#x113;" horiz-adv-x="307" 
d="M191 -5l-3 1q-36 0 -69 14q-31 14 -54 42q-23 29 -35 74t-12 108q0 62 15 107t36 75q21 29 47 45q26 15 47 15q32 0 53 -12q22 -12 35 -33t21 -51t9 -64h-167q-1 -8 -1 -26v-29q0 -57 3 -103q3 -44 14 -79q10 -33 27 -51t42 -18q28 0 45 11q14 9 27 20l5 -7
q-11 -11 -28 -24q-20 -15 -57 -15zM163 467l-2 -2q-7 0 -15 -6q-8 -7 -14 -22q-7 -19 -11 -43q-5 -27 -6 -70h84q2 71 -6 107q-7 36 -30 36zM243 597v-40h-158v40h158z" />
    <glyph glyph-name="Ebreve" unicode="&#x114;" horiz-adv-x="351" 
d="M19 6l-4 -3q10 3 17 8q6 4 9 20q2 12 4 42q1 18 1 74v454q0 56 -1 74q-2 30 -4 42q-3 16 -9 20q-7 5 -17 8v6h267q8 0 12 -3q5 -3 6 -19l18 -97h-9q-11 33 -24 53q-13 21 -33 33q-20 13 -44 17t-56 6v-321q26 2 41 9t24 18t12 24l6 27h6v-168h-6l-6 27q-3 13 -12 24
t-24 18t-41 9v-401h3q39 0 67 3q27 3 49 17t36 37q16 25 26 65h9l-12 -112q-2 -13 -6 -15q-6 -2 -12 -2h-293v6zM166 839l-2 -1q26 0 43 9q16 8 25 29h9q-1 -44 -21 -70q-19 -25 -54 -25t-56 26q-20 25 -22 72h9q16 -40 69 -40z" />
    <glyph glyph-name="ebreve" unicode="&#x115;" horiz-adv-x="307" 
d="M191 -5l-3 1q-36 0 -69 14q-31 14 -54 42q-23 29 -35 74t-12 108q0 62 15 107t36 75q21 29 47 45q26 15 47 15q32 0 53 -12q22 -12 35 -33t21 -51t9 -64h-167q-1 -8 -1 -26v-29q0 -57 3 -103q3 -44 14 -79q10 -33 27 -51t42 -18q28 0 45 11q14 9 27 20l5 -7
q-11 -11 -28 -24q-20 -15 -57 -15zM163 467l-2 -2q-7 0 -15 -6q-8 -7 -14 -22q-7 -19 -11 -43q-5 -27 -6 -70h84q2 71 -6 107q-7 36 -30 36zM164 590l-2 2q29 0 45 11q14 10 22 27h9q0 -17 -5 -37q-4 -16 -14 -31q-9 -13 -23 -21t-32 -8q-37 0 -57 29q-19 28 -19 68h9
q4 -16 21 -28t46 -12z" />
    <glyph glyph-name="Edotaccent" unicode="&#x116;" horiz-adv-x="351" 
d="M19 6l-4 -3q10 3 17 8q6 4 9 20q2 12 4 42q1 18 1 74v454q0 56 -1 74q-2 30 -4 42q-3 16 -9 20q-7 5 -17 8v6h267q8 0 12 -3q5 -3 6 -19l18 -97h-9q-11 33 -24 53q-13 21 -33 33q-20 13 -44 17t-56 6v-321q26 2 41 9t24 18t12 24l6 27h6v-168h-6l-6 27q-3 13 -12 24
t-24 18t-41 9v-401h3q39 0 67 3q27 3 49 17t36 37q16 25 26 65h9l-12 -112q-2 -13 -6 -15q-6 -2 -12 -2h-293v6zM167 784l-1 -1q-22 0 -37 15t-15 38q0 22 15 37t38 15t38 -15t15 -37t-15 -37t-38 -15z" />
    <glyph glyph-name="edotaccent" unicode="&#x117;" horiz-adv-x="307" 
d="M191 -5l-3 1q-36 0 -69 14q-31 14 -54 42q-23 29 -35 74t-12 108q0 62 15 107t36 75q21 29 47 45q26 15 47 15q32 0 53 -12q22 -12 35 -33t21 -51t9 -64h-167q-1 -8 -1 -26v-29q0 -57 3 -103q3 -44 14 -79q10 -33 27 -51t42 -18q28 0 45 11q14 9 27 20l5 -7
q-11 -11 -28 -24q-20 -15 -57 -15zM163 467l-2 -2q-7 0 -15 -6q-8 -7 -14 -22q-7 -19 -11 -43q-5 -27 -6 -70h84q2 71 -6 107q-7 36 -30 36zM164 540h-1q-22 0 -37 15t-15 38q0 22 15 37t38 15t38 -15t15 -37q0 -23 -15 -38t-38 -15z" />
    <glyph glyph-name="Eogonek" unicode="&#x118;" horiz-adv-x="351" 
d="M19 6l-4 -3q10 3 17 8q6 4 9 20q2 12 4 42q1 18 1 74v454q0 56 -1 74q-2 30 -4 42q-3 16 -9 20q-7 5 -17 8v6h267q8 0 12 -3q5 -3 6 -19l18 -97h-9q-11 33 -24 53q-13 21 -33 33q-20 13 -44 17t-56 6v-321q26 2 41 9t24 18t12 24l6 27h6v-168h-6l-6 27q-3 13 -12 24
t-24 18t-41 9v-401h3q39 0 67 3q27 3 49 17t36 37q16 25 26 65h9l-12 -112q-2 -13 -6 -15q-6 -2 -12 -2h-293v6zM213 -177l-2 -7q-31 0 -51 18t-20 45q0 20 11 39q11 18 27 33q16 14 34 25q21 12 33 17h13q-14 -14 -26 -39q-12 -26 -12 -57q0 -20 9 -32t26 -12q13 0 21 5
q8 4 15 12l5 -5q-2 -2 -10 -12q-6 -8 -17 -14q-13 -7 -24 -11q-15 -5 -32 -5z" />
    <glyph glyph-name="eogonek" unicode="&#x119;" horiz-adv-x="307" 
d="M266 -131l-6 -1q-2 -2 -10 -12q-6 -8 -17 -14q-13 -7 -24 -11q-15 -5 -32 -5q-31 0 -51 18t-20 45q0 20 10 36q11 18 25 30q16 14 34 24q21 11 37 18q-3 -1 -11 -3q-4 -1 -13 -1q-36 0 -69 14q-31 13 -54 42t-35 74t-12 108q0 62 15 107t36 75t47 45t47 15q32 0 53 -12
q22 -12 35 -33t21 -51t9 -64h-167q-1 -9 -1 -27v-28q0 -56 3 -103q3 -44 14 -79q10 -33 27 -51t42 -18q28 0 45 11q14 9 27 20l5 -7l-11 -11q-5 -6 -19 -13q-20 -11 -38 -36t-18 -69q0 -21 9 -33t26 -12q13 0 21 5q8 4 15 12zM160 465l-2 -2q-8 0 -15 -6q-8 -7 -14 -22
q-7 -19 -11 -43q-5 -27 -6 -70h84q2 71 -6 107t-30 36z" />
    <glyph glyph-name="Ecaron" unicode="&#x11a;" horiz-adv-x="351" 
d="M19 6l-4 -3q10 3 17 8q6 4 9 20q2 12 4 42q1 18 1 74v454q0 56 -1 74q-2 30 -4 42q-3 16 -9 20q-7 5 -17 8v6h267q8 0 12 -3q5 -3 6 -19l18 -97h-9q-11 33 -24 53q-13 21 -33 33q-20 13 -44 17t-56 6v-321q26 2 41 9t24 18t12 24l6 27h6v-168h-6l-6 27q-3 13 -12 24
t-24 18t-41 9v-401h3q39 0 67 3q27 3 49 17t36 37q16 25 26 65h9l-12 -112q-2 -13 -6 -15q-6 -2 -12 -2h-293v6zM61 900l106 -44l107 44l3 -6l-110 -109l-109 109z" />
    <glyph glyph-name="ecaron" unicode="&#x11b;" horiz-adv-x="307" 
d="M191 -5l-3 1q-36 0 -69 14q-31 14 -54 42q-23 29 -35 74t-12 108q0 62 15 107t36 75q21 29 47 45q26 15 47 15q32 0 53 -12q22 -12 35 -33t21 -51t9 -64h-167q-1 -8 -1 -26v-29q0 -57 3 -103q3 -44 14 -79q10 -33 27 -51t42 -18q28 0 45 11q14 9 27 20l5 -7
q-11 -11 -28 -24q-20 -15 -57 -15zM163 467l-2 -2q-7 0 -15 -6q-8 -7 -14 -22q-7 -19 -11 -43q-5 -27 -6 -70h84q2 71 -6 107q-7 36 -30 36zM74 691l90 -74l90 74l7 -4l-97 -168l-97 168z" />
    <glyph glyph-name="Gcircumflex" unicode="&#x11c;" horiz-adv-x="410" 
d="M234 -10l-7 -2q-100 0 -156 101q-55 100 -55 290q0 97 18 168q18 69 47 117q28 46 65 69q35 22 72 22q17 0 28 -4q8 -3 22 -9t20 -9q8 -4 20 -4q8 0 12 6t9 20h7v-164h-7q-17 86 -46 121q-30 36 -64 36q-22 0 -40 -19t-30 -62q-12 -42 -18 -111t-6 -166q0 -202 26 -298
q25 -94 78 -94q14 0 26 29t12 102v43q0 61 -1 81q-2 31 -6 47q-5 16 -10 22q-6 6 -17 8v7h162v-7q-9 -1 -16 -8q-6 -6 -9 -24q-4 -22 -5 -53q-1 -23 -1 -95v-92q-11 -15 -27 -26q-15 -11 -35 -21q-18 -9 -36 -15t-32 -6zM215 894l110 -109l-3 -6l-107 44l-106 -44l-3 6z" />
    <glyph glyph-name="gcircumflex" unicode="&#x11d;" horiz-adv-x="325" 
d="M154 161l-7 -2q-14 0 -29 3q-17 3 -30 10l-3 -2q-16 -11 -22 -21q-6 -9 -6 -15q0 -3 2 -9q1 -5 6 -9t15 -9q6 -3 30 -10l103 -27q32 -7 55 -20q21 -12 33 -27q11 -14 16 -31q4 -15 4 -33q0 -34 -14 -60q-13 -25 -36 -42t-52 -24q-32 -8 -61 -8q-35 0 -63 7q-27 7 -52 20
q-23 12 -36 30q-13 17 -13 39q0 15 8 29t20 26t29 23q22 14 33 20q-35 13 -49 33q-13 19 -13 45q0 29 20 47q17 16 39 31l3 2q-28 15 -48 47t-20 89q0 43 14 76t34 50q21 18 45 27t45 9q18 0 34 -4q19 -5 35 -15q28 21 42 29q16 9 32 9q32 0 32 -32q0 -13 -8 -21t-18 -8
q-8 0 -13 4l-12 9l-12 9q-5 4 -12 4q-14 0 -24 -6q26 -19 44 -51q18 -33 18 -86q0 -44 -14 -75t-34 -48t-45 -25q-22 -7 -45 -7zM41 -74v-2q0 -40 28 -65q29 -26 88 -26q55 0 90 24q34 24 34 64q0 23 -17 37q-16 13 -68 27l-87 25l-19 6q-28 -16 -39 -36q-10 -19 -10 -54z
M147 166l-2 -2q8 0 18 8t17 25q8 18 12 45q5 30 5 66q0 79 -17 116q-16 36 -35 36q-17 0 -33 -36q-16 -35 -16 -115q0 -36 5 -66q5 -27 12 -45q7 -17 17 -25q8 -7 17 -7zM141 686l97 -168l-7 -5l-90 75l-90 -75l-7 5z" />
    <glyph glyph-name="Gbreve" unicode="&#x11e;" horiz-adv-x="410" 
d="M234 -10l-7 -2q-100 0 -156 101q-55 100 -55 290q0 97 18 168q18 69 47 117q28 46 65 69q35 22 72 22q17 0 28 -4q8 -3 22 -9t20 -9q8 -4 20 -4q8 0 12 6t9 20h7v-164h-7q-17 86 -46 121q-30 36 -64 36q-22 0 -40 -19t-30 -62q-12 -42 -18 -111t-6 -166q0 -202 26 -298
q25 -94 78 -94q14 0 26 29t12 102v43q0 61 -1 81q-2 31 -6 47q-5 16 -10 22q-6 6 -17 8v7h162v-7q-9 -1 -16 -8q-6 -6 -9 -24q-4 -22 -5 -53q-1 -23 -1 -95v-92q-11 -15 -27 -26q-15 -11 -35 -21q-18 -9 -36 -15t-32 -6zM216 840l-2 -1q26 0 43 9q16 8 25 29h9
q-1 -44 -21 -70q-19 -25 -54 -25t-56 26q-20 25 -22 72h9q16 -40 69 -40z" />
    <glyph glyph-name="gbreve" unicode="&#x11f;" horiz-adv-x="325" 
d="M154 161l-7 -2q-14 0 -29 3q-17 3 -30 10l-3 -2q-16 -11 -22 -21q-6 -9 -6 -15q0 -3 2 -9q1 -5 6 -9t15 -9q6 -3 30 -10l103 -27q32 -7 55 -20q21 -12 33 -27q11 -14 16 -31q4 -15 4 -33q0 -34 -14 -60q-13 -25 -36 -42t-52 -24q-32 -8 -61 -8q-35 0 -63 7q-27 7 -52 20
q-23 12 -36 30q-13 17 -13 39q0 15 8 29t20 26t29 23q22 14 33 20q-35 13 -49 33q-13 19 -13 45q0 29 20 47q17 16 39 31l3 2q-28 15 -48 47t-20 89q0 43 14 76t34 50q21 18 45 27t45 9q18 0 34 -4q19 -5 35 -15q28 21 42 29q16 9 32 9q32 0 32 -32q0 -13 -8 -21t-18 -8
q-8 0 -13 4l-12 9l-12 9q-5 4 -12 4q-14 0 -24 -6q26 -19 44 -51q18 -33 18 -86q0 -44 -14 -75t-34 -48t-45 -25q-22 -7 -45 -7zM41 -74v-2q0 -40 28 -65q29 -26 88 -26q55 0 90 24q34 24 34 64q0 23 -17 37q-16 13 -68 27l-87 25l-19 6q-28 -16 -39 -36q-10 -19 -10 -54z
M147 166l-2 -2q8 0 18 8t17 25q8 18 12 45q5 30 5 66q0 79 -17 116q-16 36 -35 36q-17 0 -33 -36q-16 -35 -16 -115q0 -36 5 -66q5 -27 12 -45q7 -17 17 -25q8 -7 17 -7zM142 585l-2 2q29 0 45 11q14 10 22 27h9q0 -17 -5 -37q-4 -16 -14 -31q-9 -13 -23 -21t-32 -8
q-37 0 -57 29q-19 28 -19 68h9q4 -16 21 -28q16 -12 46 -12z" />
    <glyph glyph-name="Gdotaccent" unicode="&#x120;" horiz-adv-x="410" 
d="M234 -10l-7 -2q-100 0 -156 101q-55 100 -55 290q0 97 18 168q18 69 47 117q28 46 65 69q35 22 72 22q17 0 28 -4q8 -3 22 -9t20 -9q8 -4 20 -4q8 0 12 6t9 20h7v-164h-7q-17 86 -46 121q-30 36 -64 36q-22 0 -40 -19t-30 -62q-12 -42 -18 -111t-6 -166q0 -202 26 -298
q25 -94 78 -94q14 0 26 29t12 102v43q0 61 -1 81q-2 31 -6 47q-5 16 -10 22q-6 6 -17 8v7h162v-7q-9 -1 -16 -8q-6 -6 -9 -24q-4 -22 -5 -53q-1 -23 -1 -95v-92q-11 -15 -27 -26q-15 -11 -35 -21q-18 -9 -36 -15t-32 -6zM216 785l-1 -1q-22 0 -37 15t-15 38q0 22 15 37
t38 15t38 -15t15 -37t-15 -37t-38 -15z" />
    <glyph glyph-name="gdotaccent" unicode="&#x121;" horiz-adv-x="325" 
d="M154 161l-7 -2q-14 0 -29 3q-17 3 -30 10l-3 -2q-16 -11 -22 -21q-6 -9 -6 -15q0 -3 2 -9q1 -5 6 -9t15 -9q6 -3 30 -10l103 -27q32 -7 55 -20q21 -12 33 -27q11 -14 16 -31q4 -15 4 -33q0 -34 -14 -60q-13 -25 -36 -42t-52 -24q-32 -8 -61 -8q-35 0 -63 7q-27 7 -52 20
q-23 12 -36 30q-13 17 -13 39q0 15 8 29t20 26t29 23q22 14 33 20q-35 13 -49 33q-13 19 -13 45q0 29 20 47q17 16 39 31l3 2q-28 15 -48 47t-20 89q0 43 14 76t34 50q21 18 45 27t45 9q18 0 34 -4q19 -5 35 -15q28 21 42 29q16 9 32 9q32 0 32 -32q0 -13 -8 -21t-18 -8
q-8 0 -13 4l-12 9l-12 9q-5 4 -12 4q-14 0 -24 -6q26 -19 44 -51q18 -33 18 -86q0 -44 -14 -75t-34 -48t-45 -25q-22 -7 -45 -7zM41 -74v-2q0 -40 28 -65q29 -26 88 -26q55 0 90 24q34 24 34 64q0 23 -17 37q-16 13 -68 27l-87 25l-19 6q-28 -16 -39 -36q-10 -19 -10 -54z
M147 166l-2 -2q8 0 18 8t17 25q8 18 12 45q5 30 5 66q0 79 -17 116q-16 36 -35 36q-17 0 -33 -36q-16 -35 -16 -115q0 -36 5 -66q5 -27 12 -45q7 -17 17 -25q8 -7 17 -7zM141 535h-1q-22 0 -37 15t-15 38q0 22 15 37t38 15t38 -15t15 -37q0 -23 -15 -38t-38 -15z" />
    <glyph glyph-name="uni0122" unicode="&#x122;" horiz-adv-x="410" 
d="M234 -10l-7 -2q-100 0 -156 101q-55 100 -55 290q0 97 18 168q18 69 47 117q28 46 65 69q35 22 72 22q17 0 28 -4q8 -3 22 -9t20 -9q8 -4 20 -4q8 0 12 6t9 20h7v-164h-7q-17 86 -46 121q-30 36 -64 36q-22 0 -40 -19t-30 -62q-12 -42 -18 -111t-6 -166q0 -202 26 -298
q25 -94 78 -94q14 0 26 29t12 102v43q0 61 -1 81q-2 31 -6 47q-5 16 -10 22q-6 6 -17 8v7h162v-7q-9 -1 -16 -8q-6 -6 -9 -24q-4 -22 -5 -53q-1 -23 -1 -95v-92q-11 -15 -27 -26q-15 -11 -35 -21q-18 -9 -36 -15t-32 -6zM248 -113q-2 -4 -12 -10q-9 -6 -23 -6q-17 0 -31 12
q-13 12 -13 33q0 23 15 35t34 12q22 0 39 -15t17 -47q0 -40 -23 -61q-23 -22 -57 -26l-3 7q32 6 47 21t15 33q0 9 -5 12z" />
    <glyph glyph-name="uni0123" unicode="&#x123;" horiz-adv-x="325" 
d="M154 161l-7 -2q-14 0 -29 3q-17 3 -30 10l-3 -2q-16 -11 -22 -21q-6 -9 -6 -15q0 -3 2 -9q1 -5 6 -9t15 -9q6 -3 30 -10l103 -27q32 -7 55 -20q21 -12 33 -27q11 -14 16 -31q4 -15 4 -33q0 -34 -14 -60q-13 -25 -36 -42t-52 -24q-32 -8 -61 -8q-35 0 -63 7q-27 7 -52 20
q-23 12 -36 30q-13 17 -13 39q0 15 8 29t20 26t29 23q22 14 33 20q-35 13 -49 33q-13 19 -13 45q0 29 20 47q17 16 39 31l3 2q-28 15 -48 47t-20 89q0 43 14 76t34 50q21 18 45 27t45 9q18 0 34 -4q19 -5 35 -15q28 21 42 29q16 9 32 9q32 0 32 -32q0 -13 -8 -21t-18 -8
q-8 0 -13 4l-12 9l-12 9q-5 4 -12 4q-14 0 -24 -6q26 -19 44 -51q18 -33 18 -86q0 -44 -14 -75t-34 -48t-45 -25q-22 -7 -45 -7zM41 -74v-2q0 -40 28 -65q29 -26 88 -26q55 0 90 24q34 24 34 64q0 23 -17 37q-16 13 -68 27l-87 25l-19 6q-28 -16 -39 -36q-10 -19 -10 -54z
M147 166l-2 -2q8 0 18 8t17 25q8 18 12 45q5 30 5 66q0 79 -17 116q-16 36 -35 36q-17 0 -33 -36q-16 -35 -16 -115q0 -36 5 -66q5 -27 12 -45q7 -17 17 -25q8 -7 17 -7zM108 610h-1q4 5 12 11q9 6 24 6q17 0 31 -12q13 -12 13 -33q0 -22 -15 -34t-34 -12q-22 0 -39 15
t-17 47q0 39 23 60q23 22 57 26l3 -7q-32 -5 -47 -21t-15 -34q0 -10 5 -12z" />
    <glyph glyph-name="Hcircumflex" unicode="&#x124;" horiz-adv-x="459" 
d="M19 6q10 3 17 8q6 4 9 18q2 10 4 41q1 18 1 74v454q0 56 -1 74q-2 31 -4 41q-3 14 -9 18q-7 5 -17 8v6h165v-6q-10 -3 -17 -8q-6 -4 -9 -18q-2 -10 -4 -41q-1 -18 -1 -74v-187h155v187q0 56 -1 74q-2 31 -4 41q-3 14 -9 18q-7 5 -17 8v6h165v-6q-10 -3 -17 -8
q-6 -4 -9 -18q-2 -10 -4 -41q-1 -18 -1 -74v-454q0 -56 1 -74q2 -31 4 -41q3 -14 9 -18q7 -5 17 -8v-6h-165v6q10 3 17 8q6 4 9 18q2 10 4 41q1 18 1 74v259h-155v-259q0 -56 1 -74q2 -31 4 -41q3 -14 9 -18q7 -5 17 -8v-6h-165v6zM229 896l110 -109l-3 -6l-107 44l-106 -44
l-3 6z" />
    <glyph glyph-name="hcircumflex" unicode="&#x125;" horiz-adv-x="378" 
d="M18 6v-3q10 3 14 6t7 12t3 24v41v538q0 30 -1 39q-2 15 -4 20q-3 7 -9 8q-8 2 -16 2v7l123 72v-375q21 22 37 37t30 24q13 9 26 12q12 3 24 3q11 0 24 -4q16 -5 29 -15t24 -29q10 -17 10 -47v-288v-41q0 -12 2 -24q1 -9 6 -12q4 -3 14 -6v-6h-144v6q9 3 16 6q6 3 9 12
t3 24v41v310q0 32 -9 42q-9 11 -19 11q-1 0 -9 -2q-4 -1 -16 -8q-8 -4 -25 -20t-35 -36v-298v-41q0 -15 3 -24t9 -12q7 -3 16 -6v-6h-142v6zM196 908l110 -109l-3 -6l-107 44l-106 -44l-3 6z" />
    <glyph glyph-name="Hbar" unicode="&#x126;" horiz-adv-x="450" 
d="M-1 577h452v-8h-452v8zM14 6q10 3 17 8q6 4 9 18q2 10 4 41q1 18 1 74v454q0 56 -1 74q-2 31 -4 41q-3 14 -9 18q-7 5 -17 8v6h165v-6q-10 -3 -17 -8q-6 -4 -9 -18q-2 -10 -4 -41q-1 -18 -1 -74v-187h155v187q0 56 -1 74q-2 31 -4 41q-3 14 -9 18q-7 5 -17 8v6h165v-6
q-10 -3 -17 -8q-6 -4 -9 -18q-2 -10 -4 -41q-1 -18 -1 -74v-454q0 -56 1 -74q2 -31 4 -41q3 -14 9 -18q7 -5 17 -8v-6h-165v6q10 3 17 8q6 4 9 18q2 10 4 41q1 18 1 74v259h-155v-259q0 -56 1 -74q2 -31 4 -41q3 -14 9 -18q7 -5 17 -8v-6h-165v6z" />
    <glyph glyph-name="hbar" unicode="&#x127;" horiz-adv-x="377" 
d="M-13 569v9h245v-9h-245zM18 6v-3q10 3 14 6t7 12t3 24v41v538q0 30 -1 39q-2 15 -4 20q-3 7 -9 8q-8 2 -16 2v7l123 72v-375q21 22 37 37t30 24q13 9 26 12q12 3 24 3q11 0 24 -4q16 -5 29 -15t24 -29q10 -17 10 -47v-288v-41q0 -12 2 -24q1 -9 6 -12q4 -3 14 -6v-6h-144
v6q9 3 16 6q6 3 9 12t3 24v41v310q0 32 -9 42q-9 11 -19 11q-1 0 -9 -2q-4 -1 -16 -8q-8 -4 -25 -20t-35 -36v-298v-41q0 -15 3 -24t9 -12q7 -3 16 -6v-6h-142v6z" />
    <glyph glyph-name="Itilde" unicode="&#x128;" horiz-adv-x="203" 
d="M19 6v-2q10 3 17 8q6 4 9 20q2 12 4 42q1 18 1 74v454q0 56 -1 74q-2 31 -4 41q-3 13 -9 18q-7 5 -17 8v6h165v-6q-10 -3 -17 -8q-6 -5 -9 -18q-2 -10 -4 -41q-1 -18 -1 -74v-454q0 -55 1 -73q2 -30 4 -42q3 -14 9 -19q7 -5 17 -8v-6h-165v6zM71 857l-2 -1q14 0 42 -2
t37 -2q11 0 18 7q8 7 24 27l6 -2q-10 -46 -24 -67t-31 -21q-19 0 -39 3t-39 3q-11 0 -18 -7t-21 -27l-6 2q10 45 24 66t29 21z" />
    <glyph glyph-name="itilde" unicode="&#x129;" horiz-adv-x="178" 
d="M17 6v-1q9 3 16 6q6 3 9 12t3 24v41v233q0 27 -1 36q-2 15 -4 21q-3 7 -9 10q-8 4 -16 5v7l120 75v-386v-41q0 -15 3 -24t9 -12q7 -3 16 -6v-6h-146v6zM52 622l-4 -1q21 0 41 -4t38 -4q9 0 18 9t24 27l6 -3q-10 -42 -23 -67q-12 -22 -31 -22q-17 0 -40 3t-39 3
q-10 0 -18 -8q-8 -7 -24 -27l-6 3q11 41 26 67q13 24 32 24z" />
    <glyph glyph-name="Imacron" unicode="&#x12a;" horiz-adv-x="203" 
d="M19 6v-2q10 3 17 8q6 4 9 20q2 12 4 42q1 18 1 74v454q0 56 -1 74q-2 31 -4 41q-3 13 -9 18q-7 5 -17 8v6h165v-6q-10 -3 -17 -8q-6 -5 -9 -18q-2 -10 -4 -41q-1 -18 -1 -74v-454q0 -55 1 -73q2 -30 4 -42q3 -14 9 -19q7 -5 17 -8v-6h-165v6zM186 793h-168v41h168v-41z
" />
    <glyph glyph-name="imacron" unicode="&#x12b;" horiz-adv-x="178" 
d="M17 6v-1q9 3 16 6q6 3 9 12t3 24v41v233q0 27 -1 36q-2 15 -4 21q-3 7 -9 10q-8 4 -16 5v7l120 75v-386v-41q0 -15 3 -24t9 -12q7 -3 16 -6v-6h-146v6zM168 597v-40h-158v40h158z" />
    <glyph glyph-name="Ibreve" unicode="&#x12c;" horiz-adv-x="203" 
d="M19 6v-2q10 3 17 8q6 4 9 20q2 12 4 42q1 18 1 74v454q0 56 -1 74q-2 31 -4 41q-3 13 -9 18q-7 5 -17 8v6h165v-6q-10 -3 -17 -8q-6 -5 -9 -18q-2 -10 -4 -41q-1 -18 -1 -74v-454q0 -55 1 -73q2 -30 4 -42q3 -14 9 -19q7 -5 17 -8v-6h-165v6zM103 840l-2 -1q26 0 43 9
q16 8 25 29h9q-1 -44 -21 -70q-19 -25 -54 -25t-56 26q-20 25 -22 72h9q16 -40 69 -40z" />
    <glyph glyph-name="ibreve" unicode="&#x12d;" horiz-adv-x="178" 
d="M17 6v-1q9 3 16 6q6 3 9 12t3 24v41v233q0 27 -1 36q-2 15 -4 21q-3 7 -9 10q-8 4 -16 5v7l120 75v-386v-41q0 -15 3 -24t9 -12q7 -3 16 -6v-6h-146v6zM90 590l-2 2q29 0 45 11q14 10 22 27h9q0 -17 -5 -37q-4 -16 -14 -31q-9 -13 -23 -21t-32 -8q-37 0 -57 29
q-19 28 -19 68h9q4 -16 21 -28q16 -12 46 -12z" />
    <glyph glyph-name="Iogonek" unicode="&#x12e;" horiz-adv-x="203" 
d="M19 6v-2q10 3 17 8q6 4 9 20q2 12 4 42q1 18 1 74v454q0 56 -1 74q-2 31 -4 41q-3 13 -9 18q-7 5 -17 8v6h165v-6q-10 -3 -17 -8q-6 -5 -9 -18q-2 -10 -4 -41q-1 -18 -1 -74v-454q0 -55 1 -73q2 -30 4 -42q3 -14 9 -19q7 -5 17 -8v-6h-165v6zM105 -176l-2 -7
q-31 0 -51 18t-20 45q0 20 11 39q11 18 27 33q16 14 34 25q21 12 33 17h13q-14 -14 -26 -39t-12 -57q0 -20 9 -32t26 -12q13 0 21 5t15 12l5 -5q-2 -2 -10 -12q-6 -8 -17 -14q-13 -7 -24 -11q-15 -5 -32 -5z" />
    <glyph glyph-name="iogonek" unicode="&#x12f;" horiz-adv-x="178" 
d="M88 540v-1q-22 0 -37 15t-15 38q0 22 15 37t37 15q23 0 38 -15t15 -37t-15 -37t-38 -15zM17 5v-1q9 3 16 6q6 3 9 12t3 24v41v233q0 27 -1 36q-2 15 -4 21q-3 7 -9 10q-8 4 -16 5v7l120 75v-386v-41q0 -15 3 -24t9 -12q7 -3 16 -6v-6h-146v6zM86 -176l-2 -7q-32 0 -51 18
q-20 18 -20 45q0 20 11 39q10 18 27 33q16 14 34 25q21 12 33 17h13q-14 -14 -26 -39t-12 -57q0 -20 9 -32t26 -12q13 0 21 5q7 5 15 12l5 -5q-2 -2 -10 -12q-6 -8 -17 -14q-13 -7 -24 -11q-15 -5 -32 -5z" />
    <glyph glyph-name="Idotaccent" unicode="&#x130;" horiz-adv-x="203" 
d="M19 6v-2q10 3 17 8q6 4 9 20q2 12 4 42q1 18 1 74v454q0 56 -1 74q-2 31 -4 41q-3 13 -9 18q-7 5 -17 8v6h165v-6q-10 -3 -17 -8q-6 -5 -9 -18q-2 -10 -4 -41q-1 -18 -1 -74v-454q0 -55 1 -73q2 -30 4 -42q3 -14 9 -19q7 -5 17 -8v-6h-165v6zM102 785l-1 -1q-22 0 -37 15
t-15 38q0 22 15 37t38 15t38 -15t15 -37t-15 -37t-38 -15z" />
    <glyph glyph-name="dotlessi" unicode="&#x131;" horiz-adv-x="178" 
d="M17 6v-1q9 3 16 6q6 3 9 12t3 24v41v233q0 27 -1 36q-2 15 -4 21q-3 7 -9 10q-8 4 -16 5v7l120 75v-386v-41q0 -15 3 -24t9 -12q7 -3 16 -6v-6h-146v6z" />
    <glyph glyph-name="IJ" unicode="&#x132;" horiz-adv-x="510" 
d="M19 6v-2q10 3 17 8q6 4 9 20q2 12 4 42q1 18 1 74v454q0 56 -1 74q-2 31 -4 41q-3 13 -9 18q-7 5 -17 8v6h165v-6q-10 -3 -17 -8q-6 -5 -9 -18q-2 -10 -4 -41q-1 -18 -1 -74v-454q0 -55 1 -73q2 -30 4 -42q3 -14 9 -19q7 -5 17 -8v-6h-165v6zM331 -12l-3 -3q-66 0 -93 18
t-27 44q0 20 12 32t29 12q18 0 30 -12q13 -13 20 -36q8 -26 15 -35q8 -9 18 -9t19 14q9 13 9 54v533q0 56 -1 74q-2 31 -4 41q-3 13 -9 18q-7 5 -17 8v6h166v-6q-10 -3 -17 -8q-6 -5 -9 -18q-2 -10 -4 -41q-1 -18 -1 -74v-453q0 -39 -11 -70q-10 -28 -29 -49
q-18 -20 -42 -30q-23 -10 -51 -10z" />
    <glyph glyph-name="ij" unicode="&#x133;" horiz-adv-x="353" 
d="M88 540v-1q-22 0 -37 15t-15 38q0 22 15 37t37 15q23 0 38 -15t15 -37t-15 -37t-38 -15zM17 5v-1q9 3 16 6q6 3 9 12t3 24v41v233q0 27 -1 36q-2 15 -4 21q-3 7 -9 10q-8 4 -16 5v7l120 75v-386v-41q0 -15 3 -24t9 -12q7 -3 16 -6v-6h-146v6zM261 538v-1q-22 0 -37 15
t-15 38q0 22 15 37t37 15q23 0 38 -15t15 -37t-15 -37t-38 -15zM149 -142l1 2q-20 0 -33 10t-13 28q0 16 11 25t24 9q15 0 23 -7q12 -10 17 -16t13 -16q6 -7 14 -7q5 0 9 4q2 2 2 6v15v29v49v330q0 27 -1 36q-2 15 -4 21q-3 7 -9 10q-8 4 -16 5v7l121 75v-418q0 -31 -3 -55
q-3 -23 -12 -43q-9 -19 -24 -36q-15 -16 -37 -31q-30 -21 -46 -26q-18 -6 -37 -6z" />
    <glyph glyph-name="Jcircumflex" unicode="&#x134;" horiz-adv-x="306" 
d="M127 -10l-3 -3q-66 0 -93 18t-27 44q0 20 12 32t29 12q18 0 30 -12q13 -13 20 -36q8 -26 15 -35q8 -9 18 -9t19 14q9 13 9 54v533q0 56 -1 74q-2 31 -4 41q-3 13 -9 18q-7 5 -17 8v6h166v-6q-10 -3 -17 -8q-6 -5 -9 -18q-2 -10 -4 -41q-1 -18 -1 -74v-453q0 -39 -11 -70
q-10 -28 -29 -49q-18 -20 -42 -30q-23 -10 -51 -10zM206 893l110 -109l-3 -6l-107 44l-106 -44l-3 6z" />
    <glyph glyph-name="jcircumflex" unicode="&#x135;" horiz-adv-x="178" 
d="M-25 -139v2q-20 0 -33 10t-13 28q0 16 11 25q10 9 24 9q15 0 23 -7q12 -10 17 -16t13 -16q6 -7 14 -7q5 0 9 4q2 1 3 6q1 3 1 15v29v49v330q0 27 -1 36q-2 15 -4 21q-3 7 -9 10q-8 4 -16 5v7l119 75v-418q0 -31 -3 -55q-3 -23 -12 -43t-24 -36q-14 -15 -36 -31
q-30 -21 -46 -26q-18 -6 -37 -6zM87 694l97 -168l-7 -5l-90 75l-90 -75l-7 5z" />
    <glyph glyph-name="uni0136" unicode="&#x136;" horiz-adv-x="409" 
d="M251 6l-2 -2q10 6 14 9q6 5 9 13t1 22q-1 14 -9 36l-111 310l163 266q13 22 18 38t2 24q-3 10 -9 14q-8 6 -13 8v6h87v-6q-11 -4 -18 -9q-7 -4 -15 -14q-8 -9 -18 -24q-9 -13 -25 -40l-98 -160l149 -417q9 -24 13 -34l9 -21t6 -12q2 -3 8 -7v-6h-161v6zM17 4q10 3 17 8
q6 4 9 18q2 10 4 41q1 18 1 74v454q0 56 -1 74q-2 31 -4 41q-3 14 -9 18q-7 5 -17 8v6h165v-6q-10 -3 -17 -8q-6 -4 -9 -18q-2 -10 -4 -41q-1 -18 -1 -74v-454q0 -56 1 -74q2 -31 4 -41q3 -14 9 -18q7 -5 17 -8v-6h-165v6zM231 -113q-2 -4 -12 -10q-9 -6 -23 -6
q-18 0 -31 12t-13 33q0 23 15 35t34 12q23 0 39 -15q17 -15 17 -47q0 -40 -23 -61q-23 -22 -57 -26l-3 7q32 6 47 21t15 33q0 9 -5 12z" />
    <glyph glyph-name="uni0137" unicode="&#x137;" horiz-adv-x="345" 
d="M18 6h-1q11 4 14 7q4 4 7 13t3 24v41v557q0 21 -1 27q-2 11 -4 14q-3 5 -9 5q-3 0 -15 2v7l120 73v-685v-41q0 -15 3 -24q3 -8 9 -13q5 -4 16 -7v-6h-142v6zM198 5h-1q16 5 20 15q5 10 -6 39l-75 186v6l119 150q11 15 14 24q3 11 0 18q-3 8 -10 12q-7 5 -15 6v6h91v-6
q-10 -3 -16 -7q-7 -4 -15 -12q-11 -11 -18 -19q-3 -4 -7 -8.5t-9 -11t-9 -10.5l-62 -77l113 -266q10 -25 16 -32q7 -8 15 -13v-5h-145v5zM207 -111q-2 -4 -12 -10q-9 -6 -23 -6q-18 0 -31 12t-13 33q0 23 15 35t34 12q23 0 39 -15q17 -15 17 -47q0 -40 -23 -61
q-23 -22 -57 -26l-3 7q32 6 47 21t15 33q0 9 -5 12z" />
    <glyph glyph-name="Lacute" unicode="&#x139;" horiz-adv-x="348" 
d="M19 6l-1 -2q10 3 17 8q6 4 9 18q2 10 4 41q1 18 1 74v454q0 56 -1 74q-2 31 -4 41q-3 14 -9 18q-7 5 -17 8v6h168v-6q-10 -2 -19 -8q-7 -4 -10 -18q-2 -10 -4 -41q-1 -18 -1 -74v-593h1q33 0 63 5q28 5 48 19q22 16 38 42q18 29 32 72h7l-20 -127q-1 -13 -6 -15
q-6 -2 -12 -2h-284v6zM31 786l98 74q23 18 42 18q15 0 23 -9q8 -10 8 -21q0 -16 -9 -26t-32 -15l-127 -27z" />
    <glyph glyph-name="lacute" unicode="&#x13a;" horiz-adv-x="178" 
d="M18 6l-1 -1q9 3 16 6q6 3 9 12t3 24v41v558q0 20 -1 26q-2 11 -4 14q-3 4 -9 6q-7 2 -16 3v7l121 73v-686v-41q0 -15 3 -24t9 -12q7 -3 16 -6v-6h-146v6zM13 787l98 74q23 18 42 18q15 0 23 -9q8 -10 8 -21q0 -15 -9 -26q-9 -10 -32 -15l-127 -27z" />
    <glyph glyph-name="uni013B" unicode="&#x13b;" horiz-adv-x="348" 
d="M19 6l-1 -2q10 3 17 8q6 4 9 18q2 10 4 41q1 18 1 74v454q0 56 -1 74q-2 31 -4 41q-3 14 -9 18q-7 5 -17 8v6h168v-6q-10 -2 -19 -8q-7 -4 -10 -18q-2 -10 -4 -41q-1 -18 -1 -74v-593h1q33 0 63 5q28 5 48 19q22 16 38 42q18 29 32 72h7l-20 -127q-1 -13 -6 -15
q-6 -2 -12 -2h-284v6zM204 -113q-2 -4 -12 -10q-9 -6 -23 -6q-17 0 -31 12q-13 12 -13 33q0 23 15 35t34 12q22 0 39 -15t17 -47q0 -40 -23 -61q-23 -22 -57 -26l-3 7q32 6 47 21t15 33q0 9 -5 12z" />
    <glyph glyph-name="uni013C" unicode="&#x13c;" horiz-adv-x="178" 
d="M17 6l-1 -1q9 3 16 6q6 3 9 12t3 24v41v558q0 20 -1 26q-2 11 -4 14q-3 4 -9 6q-7 2 -16 3v7l121 73v-686v-41q0 -15 3 -24t9 -12q7 -3 16 -6v-6h-146v6zM111 -112q-2 -4 -12 -10q-9 -6 -23 -6q-18 0 -31 12t-13 33q0 23 15 35t34 12q23 0 39 -15q17 -15 17 -47
q0 -40 -23 -61q-23 -22 -57 -26l-3 7q32 6 47 21t15 33q0 9 -5 12z" />
    <glyph glyph-name="Lcaron" unicode="&#x13d;" horiz-adv-x="348" 
d="M19 6l-1 -2q10 3 17 8q6 4 9 18q2 10 4 41q1 18 1 74v454q0 56 -1 74q-2 31 -4 41q-3 14 -9 18q-7 5 -17 8v6h168v-6q-10 -2 -19 -8q-7 -4 -10 -18q-2 -10 -4 -41q-1 -18 -1 -74v-593h1q33 0 63 5q28 5 48 19q22 16 38 42q18 29 32 72h7l-20 -127q-1 -13 -6 -15
q-6 -2 -12 -2h-284v6zM200 563l10 136q3 56 36 56q31 0 31 -31q0 -18 -10 -39l-61 -124z" />
    <glyph glyph-name="lcaron" unicode="&#x13e;" horiz-adv-x="178" 
d="M17 6l-1 -1q9 3 16 6q6 3 9 12t3 24v41v558q0 20 -1 26q-2 11 -4 14q-3 4 -9 6q-7 2 -16 3v7l121 73v-686v-41q0 -15 3 -24t9 -12q7 -3 16 -6v-6h-146v6zM150 571l10 136q3 56 36 56q31 0 31 -31q0 -18 -10 -39l-61 -124z" />
    <glyph glyph-name="Ldot" unicode="&#x13f;" horiz-adv-x="348" 
d="M275 334h-4q-24 0 -40 16t-16 42q0 23 17 40q16 16 41 16t41 -16q17 -17 17 -40q0 -26 -16 -42t-40 -16zM15 6l-1 -2q10 3 17 8q6 4 9 18q2 10 4 41q1 18 1 74v454q0 56 -1 74q-2 31 -4 41q-3 14 -9 18q-7 5 -17 8v6h168v-6q-10 -2 -19 -8q-7 -4 -10 -18q-2 -10 -4 -41
q-1 -18 -1 -74v-593h1q33 0 63 5q28 5 48 19q22 16 38 42q18 29 32 72h7l-20 -127q-1 -13 -6 -15q-6 -2 -12 -2h-284v6z" />
    <glyph glyph-name="ldot" unicode="&#x140;" horiz-adv-x="264" 
d="M220 311l-1 -1q-23 0 -39 16t-16 40q0 22 17 39t39 17q24 0 40 -16t16 -39q0 -24 -16 -40t-40 -16zM16 5l-1 -1q9 3 16 6q6 3 9 12t3 24v41v558q0 20 -1 26q-2 11 -4 14q-3 5 -9 6q-7 2 -16 3v7l121 73v-686v-41q0 -15 3 -24t9 -12q7 -3 16 -6v-6h-146v6z" />
    <glyph glyph-name="Lslash" unicode="&#x141;" horiz-adv-x="348" 
d="M2 288l-5 7l273 169l4 -8zM19 6l-1 -2q10 3 17 8q6 4 9 18q2 10 4 41q1 18 1 74v454q0 56 -1 74q-2 31 -4 41q-3 14 -9 18q-7 5 -17 8v6h168v-6q-10 -2 -19 -8q-7 -4 -10 -18q-2 -10 -4 -41q-1 -18 -1 -74v-593h1q33 0 63 5q28 5 48 19q22 16 38 42q18 29 32 72h7
l-20 -127q-1 -13 -6 -15q-6 -2 -12 -2h-284v6z" />
    <glyph glyph-name="lslash" unicode="&#x142;" horiz-adv-x="178" 
d="M-11 310l-5 8l206 157l5 -8zM17 6l-1 -1q9 3 16 6q6 3 9 12t3 24v41v558q0 20 -1 26q-2 11 -4 14q-3 4 -9 6q-7 2 -16 3v7l121 73v-686v-41q0 -15 3 -24t9 -12q7 -3 16 -6v-6h-146v6z" />
    <glyph glyph-name="Nacute" unicode="&#x143;" horiz-adv-x="399" 
d="M19 6l-2 -7q11 8 17 14t9 21q2 11 4 41q1 17 1 71v450q0 56 -1 74q-2 30 -4 42q-3 16 -9 20q-7 5 -17 8v6h114q19 0 24 -4q6 -5 12 -19l175 -476v348q0 54 -1 71q-2 30 -4 41q-3 15 -11 21q-10 8 -21 14v6h80v-6q-14 -10 -17 -13q-6 -6 -9 -21q-2 -12 -4 -40
q-1 -17 -1 -71v-601h-20l-273 722v-567q0 -54 1 -71q1 -21 5 -40q3 -15 11 -21q5 -4 21 -13v-6h-80v6zM153 781l98 74q23 18 42 18q15 0 23 -9q8 -10 8 -21q0 -15 -9 -26q-9 -10 -32 -15l-127 -27z" />
    <glyph glyph-name="nacute" unicode="&#x144;" horiz-adv-x="379" 
d="M18 6l1 -2q10 3 14 6t7 12t3 24v41v233q0 29 -1 38q-2 15 -4 21q-3 7 -9 10q-5 2 -16 4v7l122 75v-76q21 22 37 37t30 24q13 9 26 12q12 3 25 3q11 0 24 -4q16 -5 29 -15q14 -10 24 -30q10 -19 10 -48v-288v-41q0 -12 2 -24q2 -9 6 -12t14 -6v-6h-146v6q9 3 16 6
q6 3 9 12q2 7 4 24q1 10 1 41v310q0 30 -8 43q-8 12 -20 12q-1 0 -9 -2q-5 -1 -16 -9q-8 -6 -25 -21q-13 -11 -34 -36v-298v-41q0 -15 3 -24t9 -12q7 -3 16 -6v-6h-144v6zM144 522l62 120q10 18 20 30q9 11 24 11q14 0 23 -9t9 -23q0 -25 -27 -48l-105 -85z" />
    <glyph glyph-name="uni0145" unicode="&#x145;" horiz-adv-x="399" 
d="M19 6l-2 -7q11 8 17 14t9 21q2 11 4 41q1 17 1 71v450q0 56 -1 74q-2 30 -4 42q-3 16 -9 20q-7 5 -17 8v6h114q19 0 24 -4q6 -5 12 -19l175 -476v348q0 54 -1 71q-2 30 -4 41q-3 15 -11 21q-10 8 -21 14v6h80v-6q-14 -10 -17 -13q-6 -6 -9 -21q-2 -12 -4 -40
q-1 -17 -1 -71v-601h-20l-273 722v-567q0 -54 1 -71q1 -21 5 -40q3 -15 11 -21q5 -4 21 -13v-6h-80v6zM225 -118q-2 -4 -12 -10q-9 -6 -23 -6q-18 0 -31 12t-13 33q0 23 15 35t34 12q23 0 39 -15q17 -15 17 -47q0 -40 -23 -61q-23 -22 -57 -26l-3 7q32 6 47 21t15 33
q0 9 -5 12z" />
    <glyph glyph-name="uni0146" unicode="&#x146;" horiz-adv-x="379" 
d="M18 6l1 -2q10 3 14 6t7 12t3 24v41v233q0 29 -1 38q-2 15 -4 21q-3 7 -9 10q-5 2 -16 4v7l122 75v-76q21 22 37 37t30 24q13 9 26 12q12 3 25 3q11 0 24 -4q16 -5 29 -15q14 -10 24 -30q10 -19 10 -48v-288v-41q0 -12 2 -24q2 -9 6 -12t14 -6v-6h-146v6q9 3 16 6
q6 3 9 12q2 7 4 24q1 10 1 41v310q0 30 -8 43q-8 12 -20 12q-1 0 -9 -2q-5 -1 -16 -9q-8 -6 -25 -21q-13 -11 -34 -36v-298v-41q0 -15 3 -24t9 -12q7 -3 16 -6v-6h-144v6zM217 -113q-2 -4 -12 -10q-9 -6 -23 -6q-17 0 -31 12q-13 12 -13 33q0 23 15 35t34 12q23 0 39 -15
q17 -15 17 -47q0 -40 -23 -61q-23 -22 -57 -26l-3 7q32 6 47 21t15 33q0 9 -5 12z" />
    <glyph glyph-name="Ncaron" unicode="&#x147;" horiz-adv-x="399" 
d="M19 6l-2 -7q11 8 17 14t9 21q2 11 4 41q1 17 1 71v450q0 56 -1 74q-2 30 -4 42q-3 16 -9 20q-7 5 -17 8v6h114q19 0 24 -4q6 -5 12 -19l175 -476v348q0 54 -1 71q-2 30 -4 41q-3 15 -11 21q-10 8 -21 14v6h80v-6q-14 -10 -17 -13q-6 -6 -9 -21q-2 -12 -4 -40
q-1 -17 -1 -71v-601h-20l-273 722v-567q0 -54 1 -71q1 -21 5 -40q3 -15 11 -21q5 -4 21 -13v-6h-80v6zM121 896l106 -44l107 44l3 -6l-110 -109l-109 109z" />
    <glyph glyph-name="ncaron" unicode="&#x148;" horiz-adv-x="379" 
d="M18 6l1 -2q10 3 14 6t7 12t3 24v41v233q0 29 -1 38q-2 15 -4 21q-3 7 -9 10q-5 2 -16 4v7l122 75v-76q21 22 37 37t30 24q13 9 26 12q12 3 25 3q11 0 24 -4q16 -5 29 -15q14 -10 24 -30q10 -19 10 -48v-288v-41q0 -12 2 -24q2 -9 6 -12t14 -6v-6h-146v6q9 3 16 6
q6 3 9 12q2 7 4 24q1 10 1 41v310q0 30 -8 43q-8 12 -20 12q-1 0 -9 -2q-5 -1 -16 -9q-8 -6 -25 -21q-13 -11 -34 -36v-298v-41q0 -15 3 -24t9 -12q7 -3 16 -6v-6h-144v6zM106 690l90 -74l90 74l7 -4l-97 -168l-97 168z" />
    <glyph glyph-name="napostrophe" unicode="&#x149;" horiz-adv-x="378" 
d="M18 6l1 -2q10 3 14 6t7 12t3 24v41v233q0 29 -1 38q-2 15 -4 21q-3 7 -9 10q-5 2 -16 4v7l122 75v-76q21 22 37 37t30 24q13 9 26 12q12 3 25 3q11 0 24 -4q16 -5 29 -15q14 -10 24 -30q10 -19 10 -48v-288v-41q0 -12 2 -24q2 -9 6 -12t14 -6v-6h-146v6q9 3 16 6
q6 3 9 12q2 7 4 24q1 10 1 41v310q0 30 -8 43q-8 12 -20 12q-1 0 -9 -2q-5 -1 -16 -9q-8 -6 -25 -21q-13 -11 -34 -36v-298v-41q0 -15 3 -24t9 -12q7 -3 16 -6v-6h-144v6zM22 678l-1 -2q-5 -7 -12 -11q-8 -5 -23 -5q-19 0 -33 14q-13 13 -13 35q0 25 15 38q16 14 36 14
q22 0 42 -17t20 -56q0 -46 -24 -78t-61 -51l-5 6q32 20 50 44t18 47q0 14 -9 22z" />
    <glyph glyph-name="Eng" unicode="&#x14a;" horiz-adv-x="399" 
d="M19 6l-3 -8q10 7 17 14q6 6 9 21q2 11 4 41q1 17 1 71v450q0 56 -1 74q-2 30 -4 42q-3 16 -9 20q-7 5 -17 8v6h114q19 0 24 -4q6 -5 12 -19l175 -469v341q0 54 -1 71q-2 30 -4 41q-3 15 -11 21q-10 8 -21 14v6h80v-6q-14 -10 -17 -13q-6 -6 -9 -21q-2 -12 -4 -40
q-1 -17 -1 -71v-624q0 -51 -22 -79t-60 -28q-57 0 -87 21t-30 51q0 18 10 27t27 9q19 0 28 -10q8 -10 16 -37q6 -27 13 -39q7 -13 24 -13q32 0 51 27q20 28 20 74v8l-282 736l-2 -568q0 -54 1 -71q1 -21 5 -40q3 -15 11 -21q5 -4 21 -13l2 -6h-80v6z" />
    <glyph glyph-name="eng" unicode="&#x14b;" horiz-adv-x="378" 
d="M18 6h2q10 3 14 6t7 12t3 24v41v233q0 29 -1 38q-2 15 -4 21q-3 7 -9 10q-5 2 -16 4v7l122 75v-76q21 22 37 37q17 15 30 24t26 12q12 3 25 3q11 0 24 -4q16 -5 29 -15t24 -30q10 -19 10 -48v-320q0 -31 -3 -55q-3 -23 -12 -43t-24 -36t-37 -31q-30 -20 -48 -26
q-19 -6 -37 -6q-20 0 -33 10t-13 28q0 16 11 25t24 9q14 0 22 -7q9 -7 16 -16q2 -3 7 -8t7 -8q6 -7 14 -7q5 0 9 4q2 2 2 6v15v29v49v408q0 30 -8 43q-8 12 -20 12q-1 0 -9 -2q-5 -1 -16 -9q-8 -6 -25 -21q-13 -11 -34 -36v-298v-41q0 -15 3 -24t9 -12q7 -3 16 -6v-6h-144v6
z" />
    <glyph glyph-name="Omacron" unicode="&#x14c;" horiz-adv-x="431" 
d="M216 -10l-2 -3q-34 0 -67 24t-60 74q-28 51 -44 121q-17 74 -17 167q0 96 17 170q16 71 44 119q28 47 60 71q33 24 68 24t68 -24q34 -24 60 -70q28 -48 44 -119q17 -74 17 -169q0 -93 -17 -167q-16 -70 -44 -121q-27 -49 -60 -73t-67 -24zM214 -3l-2 -1q43 0 61 99
q17 96 19 278q2 180 -18 276t-60 96q-42 0 -61 -96q-19 -94 -19 -276q0 -178 18 -277t62 -99zM296 791h-168v41h168v-41z" />
    <glyph glyph-name="omacron" unicode="&#x14d;" horiz-adv-x="358" 
d="M179 -6v-2q-23 0 -51 14q-27 14 -51 42q-23 27 -40 74q-16 44 -16 108q0 67 16 112q17 47 40 76t51 43q26 13 51 13t51 -13q28 -14 51 -43q24 -30 39 -76t15 -112q0 -63 -15 -108q-15 -44 -39 -73t-51 -42q-26 -13 -51 -13zM179 1l-4 -2q15 0 27 12q13 13 20 39
q7 27 12 71q4 39 4 107q0 73 -4 113q-4 45 -12 72q-8 28 -19 38q-13 11 -27 11q-12 0 -25 -11q-11 -10 -19 -38q-8 -27 -12 -72q-4 -40 -4 -113q0 -58 5 -106q4 -43 12 -70q7 -26 20 -39q12 -12 26 -12zM254 594v-40h-158v40h158z" />
    <glyph glyph-name="Obreve" unicode="&#x14e;" horiz-adv-x="431" 
d="M216 -10l-2 -3q-34 0 -67 24t-60 74q-28 51 -44 121q-17 74 -17 167q0 96 17 170q16 71 44 119q28 47 60 71q33 24 68 24t68 -24q34 -24 60 -70q28 -48 44 -119q17 -74 17 -169q0 -93 -17 -167q-16 -70 -44 -121q-27 -49 -60 -73t-67 -24zM214 -3l-2 -1q43 0 61 99
q17 96 19 278q2 180 -18 276t-60 96q-42 0 -61 -96q-19 -94 -19 -276q0 -178 18 -277t62 -99zM213 838l-2 -1q27 0 43 9q16 8 25 29h9q-1 -44 -21 -70q-19 -25 -54 -25t-56 26q-20 25 -22 72h9q16 -40 69 -40z" />
    <glyph glyph-name="obreve" unicode="&#x14f;" horiz-adv-x="358" 
d="M179 -6v-2q-23 0 -51 14q-27 14 -51 42q-23 27 -40 74q-16 44 -16 108q0 67 16 112q17 47 40 76t51 43q26 13 51 13t51 -13q28 -14 51 -43q24 -30 39 -76t15 -112q0 -63 -15 -108q-15 -44 -39 -73t-51 -42q-26 -13 -51 -13zM179 1l-4 -2q15 0 27 12q13 13 20 39
q7 27 12 71q4 39 4 107q0 73 -4 113q-4 45 -12 72q-8 28 -19 38q-13 11 -27 11q-12 0 -25 -11q-11 -10 -19 -38q-8 -27 -12 -72q-4 -40 -4 -113q0 -58 5 -106q4 -43 12 -70q7 -26 20 -39q12 -12 26 -12zM176 587l-2 2q29 0 45 11q14 10 22 27h9q0 -17 -5 -37q-4 -16 -14 -31
q-9 -13 -23 -21t-32 -8q-37 0 -57 29q-19 28 -19 68h9q4 -16 21 -28q16 -12 46 -12z" />
    <glyph glyph-name="Ohungarumlaut" unicode="&#x150;" horiz-adv-x="431" 
d="M216 -10l-2 -3q-34 0 -67 24t-60 74q-28 51 -44 121q-17 74 -17 167q0 96 17 170q16 71 44 119q28 47 60 71q33 24 68 24t68 -24q34 -24 60 -70q28 -48 44 -119q17 -74 17 -169q0 -93 -17 -167q-16 -70 -44 -121q-27 -49 -60 -73t-67 -24zM214 -3l-2 -1q43 0 61 99
q17 96 19 278q2 180 -18 276t-60 96q-42 0 -61 -96q-19 -94 -19 -276q0 -178 18 -277t62 -99zM250 782l37 77q8 15 18 25q9 9 26 9q13 0 21 -9q7 -8 7 -19q0 -14 -9 -23q-10 -10 -18 -14l-77 -52zM142 781l38 77q10 18 18 26q9 9 26 9q14 0 21 -9q7 -8 7 -19q0 -14 -9 -23
t-18 -15l-78 -52z" />
    <glyph glyph-name="ohungarumlaut" unicode="&#x151;" horiz-adv-x="358" 
d="M179 -6v-2q-23 0 -51 14q-27 14 -51 42q-23 27 -40 74q-16 44 -16 108q0 67 16 112q17 47 40 76t51 43q26 13 51 13t51 -13q28 -14 51 -43q24 -30 39 -76t15 -112q0 -63 -15 -108q-15 -44 -39 -73t-51 -42q-26 -13 -51 -13zM179 1l-4 -2q15 0 27 12q13 13 20 39
q7 27 12 71q4 39 4 107q0 73 -4 113q-4 45 -12 72q-8 28 -19 38q-13 11 -27 11q-12 0 -25 -11q-11 -10 -19 -38q-8 -27 -12 -72q-4 -40 -4 -113q0 -58 5 -106q4 -43 12 -70q7 -26 20 -39q12 -12 26 -12zM222 520l32 124q4 19 14 30q9 11 26 11q14 0 21 -9q8 -10 8 -22
q0 -18 -13 -34l-82 -103zM113 522l33 124q4 19 14 30q9 11 26 11q14 0 21 -9q8 -10 8 -22q0 -17 -14 -34l-82 -103z" />
    <glyph glyph-name="OE" unicode="&#x152;" horiz-adv-x="570" 
d="M458 331l-6 5l-6 27q-3 12 -11 24q-7 11 -21 18t-36 9v-400q39 0 63 4q27 4 47 17t35 36q16 26 26 64h9l-12 -112q-2 -13 -6 -15q-6 -2 -12 -2h-291q-41 0 -78 22t-67 69t-48 117t-18 168t18 168q18 71 48 116t69 66t80 21h264q8 0 11 -3t6 -19l17 -97h-9q-21 62 -55 84
q-35 23 -91 24v-321q22 1 36 9t21 18q8 12 11 24l6 27h6v-168h-6zM234 745h-2q-30 0 -50 -24q-20 -25 -32 -70q-13 -49 -17 -114q-5 -75 -5 -156q0 -177 26 -273q25 -94 78 -94q16 0 23 4q8 5 12 19q5 15 6 43q1 19 1 78v442q0 59 -1 78q-2 29 -6 44q-4 14 -12 19
q-7 4 -21 4z" />
    <glyph glyph-name="oe" unicode="&#x153;" horiz-adv-x="540" 
d="M182 -5l-2 2q-24 0 -54 14q-28 13 -52 42q-23 28 -40 73q-16 44 -16 108q0 67 16 112q17 47 40 76q24 30 52 43q27 13 54 13t58 -16t55 -54q22 34 50 51t50 17q31 0 54 -12q22 -12 37 -33q14 -20 22 -51q8 -30 9 -64h-173q-1 -8 -1 -26v-29q0 -62 4 -103q4 -46 15 -79
q10 -33 27 -51t42 -18q28 0 45 11q16 11 26 20l5 -7q-11 -11 -28 -24q-19 -15 -58 -15q-43 0 -74 15t-54 48q-24 -33 -54 -48t-55 -15zM393 468l-1 -2q-8 0 -15 -6q-8 -6 -15 -22q-7 -15 -13 -43q-5 -24 -7 -70h90q2 71 -6 107t-33 36zM179 3l-1 -2q15 0 27 12t21 39
q8 25 13 71q4 39 4 107q0 73 -4 113q-5 47 -13 72q-9 28 -21 38q-13 11 -27 11t-27 -11q-12 -11 -20 -38q-7 -27 -12 -72q-4 -40 -4 -113q0 -58 5 -106q4 -43 12 -70q7 -26 20 -39q12 -12 27 -12z" />
    <glyph glyph-name="Racute" unicode="&#x154;" horiz-adv-x="393" 
d="M19 6h-1q10 3 17 8q6 4 9 18q2 10 4 41q1 18 1 74v454q0 56 -1 74q-2 31 -4 41q-3 14 -9 18q-7 5 -17 8v6h137q48 0 83 -7q38 -7 66 -27t45 -54q16 -33 16 -90q0 -45 -13 -78q-14 -34 -36 -60q-22 -25 -54 -40q-30 -14 -69 -19q26 -2 47 -9q22 -8 38 -27q15 -18 28 -53
t20 -87q9 -65 15 -102q5 -30 11 -57q4 -20 9 -24q5 -5 12 -5q11 0 18 4q2 1 6 3.5t6 3.5l5 -4q-4 -7 -21 -16t-51 -9q-28 0 -45 7q-18 8 -30 27q-11 18 -19 54q-7 30 -13 90q-6 58 -14 107q-6 39 -15 60t-19 27q-9 5 -27 7v-223q0 -56 1 -74q2 -31 4 -41q3 -14 9 -18
q7 -5 17 -8v-6h-166v6zM152 741l-3 -362h9q62 0 86 51t24 140q0 52 -8 87q-7 31 -23 52q-15 20 -36 26t-48 6h-1zM120 788l98 74q22 18 42 18q16 0 23 -9q8 -10 8 -21q0 -16 -9 -26t-32 -15l-127 -27z" />
    <glyph glyph-name="racute" unicode="&#x155;" horiz-adv-x="278" 
d="M18 6l2 -1q10 3 14 6t7 12t3 24v41v251q0 20 -1 27q-2 11 -4 16q-3 7 -9 8q-7 2 -16 3v7l120 75v-73q34 41 56 58q20 15 38 15q23 0 33 -13q11 -14 11 -33q0 -20 -10 -31q-10 -12 -27 -12q-14 0 -21 7q-5 5 -13 15q-4 5 -10 15q-4 7 -14 7q-5 0 -12 -7q-10 -10 -29 -33
v-301v-41q0 -15 3 -24t9 -12t18 -6v-6h-148v6zM111 523l62 120q10 18 20 30q9 11 24 11q14 0 23 -9t9 -23q0 -26 -27 -48l-105 -85z" />
    <glyph glyph-name="uni0156" unicode="&#x156;" horiz-adv-x="393" 
d="M19 6h-1q10 3 17 8q6 4 9 18q2 10 4 41q1 18 1 74v454q0 56 -1 74q-2 31 -4 41q-3 14 -9 18q-7 5 -17 8v6h137q48 0 83 -7q38 -7 66 -27t45 -54q16 -33 16 -90q0 -45 -13 -78q-14 -34 -36 -60q-22 -25 -54 -40q-30 -14 -69 -19q26 -2 47 -9q22 -8 38 -27q15 -18 28 -53
t20 -87q9 -65 15 -102q5 -30 11 -57q4 -20 9 -24q5 -5 12 -5q11 0 18 4q2 1 6 3.5t6 3.5l5 -4q-4 -7 -21 -16t-51 -9q-28 0 -45 7q-18 8 -30 27q-11 18 -19 54q-7 30 -13 90q-6 58 -14 107q-6 39 -15 60t-19 27q-9 5 -27 7v-223q0 -56 1 -74q2 -31 4 -41q3 -14 9 -18
q7 -5 17 -8v-6h-166v6zM152 741l-3 -362h9q62 0 86 51t24 140q0 52 -8 87q-7 31 -23 52q-15 20 -36 26t-48 6h-1zM240 -111q-2 -4 -12 -10q-9 -6 -23 -6q-17 0 -31 12q-13 12 -13 33q0 23 15 35t34 12q22 0 39 -15t17 -47q0 -40 -23 -61q-23 -22 -57 -26l-3 7q32 6 47 21
t15 33q0 9 -5 12z" />
    <glyph glyph-name="uni0157" unicode="&#x157;" horiz-adv-x="278" 
d="M18 6l2 -1q10 3 14 6t7 12t3 24v41v251q0 20 -1 27q-2 11 -4 16q-3 7 -9 8q-7 2 -16 3v7l120 75v-73q34 41 56 58q20 15 38 15q23 0 33 -13q11 -14 11 -33q0 -20 -10 -31q-10 -12 -27 -12q-14 0 -21 7q-5 5 -13 15q-4 5 -10 15q-4 7 -14 7q-5 0 -12 -7q-10 -10 -29 -33
v-301v-41q0 -15 3 -24t9 -12t18 -6v-6h-148v6zM118 -112q-2 -4 -12 -10q-9 -6 -23 -6q-17 0 -31 12q-13 12 -13 33q0 23 15 35t34 12q22 0 39 -15t17 -47q0 -40 -23 -61q-23 -22 -57 -26l-3 7q32 6 47 21t15 33q0 9 -5 12z" />
    <glyph glyph-name="Rcaron" unicode="&#x158;" horiz-adv-x="393" 
d="M19 6h-1q10 3 17 8q6 4 9 18q2 10 4 41q1 18 1 74v454q0 56 -1 74q-2 31 -4 41q-3 14 -9 18q-7 5 -17 8v6h137q48 0 83 -7q38 -7 66 -27t45 -54q16 -33 16 -90q0 -45 -13 -78q-14 -34 -36 -60q-22 -25 -54 -40q-30 -14 -69 -19q26 -2 47 -9q22 -8 38 -27q15 -18 28 -53
t20 -87q9 -65 15 -102q5 -30 11 -57q4 -20 9 -24q5 -5 12 -5q11 0 18 4q2 1 6 3.5t6 3.5l5 -4q-4 -7 -21 -16t-51 -9q-28 0 -45 7q-18 8 -30 27q-11 18 -19 54q-7 30 -13 90q-6 58 -14 107q-6 39 -15 60t-19 27q-9 5 -27 7v-223q0 -56 1 -74q2 -31 4 -41q3 -14 9 -18
q7 -5 17 -8v-6h-166v6zM152 741l-3 -362h9q62 0 86 51t24 140q0 52 -8 87q-7 31 -23 52q-15 20 -36 26t-48 6h-1zM87 903l106 -44l107 44l3 -6l-110 -109l-109 109z" />
    <glyph glyph-name="rcaron" unicode="&#x159;" horiz-adv-x="278" 
d="M18 6l2 -1q10 3 14 6t7 12t3 24v41v251q0 20 -1 27q-2 11 -4 16q-3 7 -9 8q-7 2 -16 3v7l120 75v-73q34 41 56 58q20 15 38 15q23 0 33 -13q11 -14 11 -33q0 -20 -10 -31q-10 -12 -27 -12q-14 0 -21 7q-5 5 -13 15q-4 5 -10 15q-4 7 -14 7q-5 0 -12 -7q-10 -10 -29 -33
v-301v-41q0 -15 3 -24t9 -12t18 -6v-6h-148v6zM75 691l90 -74l90 74l7 -4l-97 -168l-97 168z" />
    <glyph glyph-name="Sacute" unicode="&#x15a;" horiz-adv-x="335" 
d="M144 -8l-10 -4q-23 0 -42 8t-31 16q-15 10 -21 16q-8 8 -12 8t-9 -20h-6v191h7q15 -109 42 -159t75 -50q42 0 66 27t24 82q0 32 -9 62q-10 33 -25 62q-20 37 -37 66q-6 10 -43 74q-24 44 -36 65q-18 31 -29 56q-13 29 -20 56t-7 63q0 66 39 105t104 39q18 0 30 -4
q14 -5 24 -9t18 -9q7 -4 12 -4q7 0 9 8q1 5 3 17h7v-147h-7q-17 80 -39 110q-23 30 -54 30q-38 0 -53 -21t-15 -54q0 -26 9 -51t24 -54q18 -34 34 -60q20 -31 39 -66q23 -37 42 -72t33 -66q15 -35 23 -63q9 -32 9 -65q0 -49 -15 -83t-39 -57t-54 -33q-29 -10 -60 -10z
M76 784l98 74q22 18 42 18q16 0 23 -9q8 -10 8 -21q0 -16 -9 -26t-32 -15l-127 -27z" />
    <glyph glyph-name="sacute" unicode="&#x15b;" horiz-adv-x="271" 
d="M150 4l-9 -7q23 0 35 20q12 19 12 45q0 30 -18 63q-17 31 -65 79q-29 26 -45 45q-18 21 -26 39q-9 19 -12 38q-3 18 -3 39t8 42q7 19 21 33t30 21q18 8 35 8q22 0 39 -10t42 -10q6 0 11 5q5 4 6 12h9v-122l-9 1q-9 32 -21 55q-11 21 -26 36q-14 14 -27 20t-24 6
q-17 0 -30 -12q-14 -12 -14 -37q0 -13 5 -26q4 -11 14 -26q8 -12 26 -30q24 -24 40 -39q26 -23 49 -50q19 -22 30 -44q11 -21 15 -42q4 -19 4 -45q0 -28 -10 -48q-11 -22 -25 -36q-16 -16 -33 -23q-19 -8 -35 -8q-20 0 -35 6t-27 12t-21 12t-18 6q-14 0 -17 -17h-9v146h8
q43 -157 120 -157zM74 517l62 120q10 18 20 30q9 11 24 11q14 0 23 -9t9 -23q0 -26 -27 -48l-105 -85z" />
    <glyph glyph-name="Scircumflex" unicode="&#x15c;" horiz-adv-x="335" 
d="M144 -8l-10 -4q-23 0 -42 8t-31 16q-15 10 -21 16q-8 8 -12 8t-9 -20h-6v191h7q15 -109 42 -159t75 -50q42 0 66 27t24 82q0 32 -9 62q-10 33 -25 62q-20 37 -37 66q-6 10 -43 74q-24 44 -36 65q-18 31 -29 56q-13 29 -20 56t-7 63q0 66 39 105t104 39q18 0 30 -4
q14 -5 24 -9t18 -9q7 -4 12 -4q7 0 9 8q1 5 3 17h7v-147h-7q-17 80 -39 110q-23 30 -54 30q-38 0 -53 -21t-15 -54q0 -26 9 -51t24 -54q18 -34 34 -60q20 -31 39 -66q23 -37 42 -72t33 -66q15 -35 23 -63q9 -32 9 -65q0 -49 -15 -83t-39 -57t-54 -33q-29 -10 -60 -10z
M152 892l110 -109l-3 -6l-107 44l-106 -44l-3 6z" />
    <glyph glyph-name="scircumflex" unicode="&#x15d;" horiz-adv-x="271" 
d="M150 4l-9 -7q23 0 35 20q12 19 12 45q0 30 -18 63q-17 31 -65 79q-29 26 -45 45q-18 21 -26 39q-9 19 -12 38q-3 18 -3 39t8 42q7 19 21 33t30 21q18 8 35 8q22 0 39 -10t42 -10q6 0 11 5q5 4 6 12h9v-122l-9 1q-9 32 -21 55q-11 21 -26 36q-14 14 -27 20t-24 6
q-17 0 -30 -12q-14 -12 -14 -37q0 -13 5 -26q4 -11 14 -26q8 -12 26 -30q24 -24 40 -39q26 -23 49 -50q19 -22 30 -44q11 -21 15 -42q4 -19 4 -45q0 -28 -10 -48q-11 -22 -25 -36q-16 -16 -33 -23q-19 -8 -35 -8q-20 0 -35 6t-27 12t-21 12t-18 6q-14 0 -17 -17h-9v146h8
q43 -157 120 -157zM123 685l97 -168l-7 -5l-90 75l-90 -75l-7 5z" />
    <glyph glyph-name="uni015E" unicode="&#x15e;" horiz-adv-x="335" 
d="M147 -4l-11 -35q14 -1 27 -6t24 -12q11 -8 17 -18q6 -11 6 -24q0 -29 -31 -48q-32 -20 -106 -21l-1 8q35 6 58 18q22 12 22 27t-16 21q-18 7 -33 8l-3 5q5 11 17 38l13 26q6 12 6 13h11zM146 -12l-10 -4q-23 0 -42 8t-31 16q-15 10 -21 16q-8 8 -12 8t-9 -20h-6v191h7
q15 -109 42 -159t75 -50q42 0 66 27t24 82q0 32 -9 62q-10 33 -25 62q-20 37 -37 66q-6 10 -43 74q-24 44 -36 65q-18 31 -29 56q-13 29 -20 56t-7 63q0 66 39 105t104 39q18 0 30 -4q14 -5 24 -9t18 -9q7 -4 12 -4q7 0 9 8q1 5 3 17h7v-147h-7q-17 80 -39 110
q-23 30 -54 30q-38 0 -53 -21t-15 -54q0 -26 9 -51t24 -54q18 -34 34 -60q20 -31 39 -66q23 -37 42 -72t33 -66q15 -35 23 -63q9 -31 9 -65q0 -49 -15 -83t-39 -57t-54 -33q-29 -10 -60 -10z" />
    <glyph glyph-name="uni015F" unicode="&#x15f;" horiz-adv-x="271" 
d="M132 4l-17 -38q30 -3 53 -19q24 -17 24 -45q0 -29 -31 -48q-32 -20 -106 -21l-1 8q36 6 57 18t21 27t-15 21q-16 7 -32 8l-3 5l38 84h12zM150 5l-9 -7q23 0 35 20t12 45q0 30 -18 63q-17 31 -65 79q-29 25 -45 45q-18 21 -26 39q-9 19 -12 38q-3 18 -3 39t8 42
q7 20 21 33t30 21q18 8 35 8q22 0 39 -10t42 -10q6 0 11 5t6 12h9v-122l-9 1q-9 32 -21 55q-11 21 -26 36q-14 14 -27 20t-24 6q-17 0 -30 -12q-14 -12 -14 -37q0 -13 5 -26q4 -11 14 -26q8 -12 26 -30q24 -24 40 -39q26 -23 49 -50q19 -22 30 -44q11 -21 15 -42
q4 -19 4 -45q0 -28 -10 -48q-11 -22 -25 -36q-16 -16 -33 -23q-19 -8 -35 -8q-20 0 -35 6t-27 12t-21 12t-18 6q-14 0 -17 -17h-9v146h8q43 -157 120 -157z" />
    <glyph glyph-name="Scaron" unicode="&#x160;" horiz-adv-x="335" 
d="M144 -8l-10 -4q-23 0 -42 8t-31 16q-15 10 -21 16q-8 8 -12 8t-9 -20h-6v191h7q15 -109 42 -159t75 -50q42 0 66 27t24 82q0 32 -9 62q-10 33 -25 62q-20 37 -37 66q-6 10 -43 74q-24 44 -36 65q-18 31 -29 56q-13 29 -20 56t-7 63q0 66 39 105t104 39q18 0 30 -4
q14 -5 24 -9t18 -9q7 -4 12 -4q7 0 9 8q1 5 3 17h7v-147h-7q-17 80 -39 110q-23 30 -54 30q-38 0 -53 -21t-15 -54q0 -26 9 -51t24 -54q18 -34 34 -60q20 -31 39 -66q23 -37 42 -72t33 -66q15 -35 23 -63q9 -32 9 -65q0 -49 -15 -83t-39 -57t-54 -33q-29 -10 -60 -10z
M47 899l106 -44l107 44l3 -6l-110 -109l-109 109z" />
    <glyph glyph-name="scaron" unicode="&#x161;" horiz-adv-x="271" 
d="M150 4l-9 -7q23 0 35 20q12 19 12 45q0 30 -18 63q-17 31 -65 79q-29 26 -45 45q-18 21 -26 39q-9 19 -12 38q-3 18 -3 39t8 42q7 19 21 33t30 21q18 8 35 8q22 0 39 -10t42 -10q6 0 11 5q5 4 6 12h9v-122l-9 1q-9 32 -21 55q-11 21 -26 36q-14 14 -27 20t-24 6
q-17 0 -30 -12q-14 -12 -14 -37q0 -13 5 -26q4 -11 14 -26q8 -12 26 -30q24 -24 40 -39q26 -23 49 -50q19 -22 30 -44q11 -21 15 -42q4 -19 4 -45q0 -28 -10 -48q-11 -22 -25 -36q-16 -16 -33 -23q-19 -8 -35 -8q-20 0 -35 6t-27 12t-21 12t-18 6q-14 0 -17 -17h-9v146h8
q43 -157 120 -157zM35 685l90 -74l90 74l7 -4l-97 -168l-97 168z" />
    <glyph glyph-name="Tcommaaccent" unicode="&#x162;" horiz-adv-x="387" 
d="M111 6l2 -3q10 3 17 8q6 4 9 20q2 12 4 42q1 18 1 74v593q-33 -2 -54 -9q-20 -7 -34 -23t-23 -39q-6 -16 -19 -55h-7l9 114q1 15 5 19q3 3 11 3h324q8 0 11 -3q4 -4 5 -19l9 -114h-7q-8 24 -20 54q-10 24 -22 38q-14 15 -33 24q-21 10 -53 11v-593q0 -55 1 -73
q2 -30 4 -42q3 -14 9 -19q7 -5 17 -8v-6h-166v6zM220 -114q-2 -4 -12 -10q-9 -6 -23 -6q-17 0 -31 12q-13 12 -13 33q0 23 15 35t34 12q22 0 39 -15t17 -47q0 -40 -23 -61q-23 -22 -57 -26l-3 7q32 6 47 21t15 33q0 9 -5 12z" />
    <glyph glyph-name="tcommaaccent" unicode="&#x163;" horiz-adv-x="219" 
d="M145 -9h2q-42 0 -71 26t-29 77v362h-41v9q21 3 39 13q19 10 36 29t29 45q12 27 18 65h9v-152h75v-10h-75v-350q0 -55 7 -77q8 -24 33 -24q14 0 21 4l15 9l4 -6q-7 -5 -22 -13q-14 -7 -50 -7zM146 -111q-2 -4 -12 -10q-9 -6 -23 -6q-17 0 -31 12q-13 12 -13 33q0 23 15 35
t34 12q22 0 39 -15t17 -47q0 -40 -23 -61q-23 -22 -57 -26l-3 7q32 6 47 21t15 33q0 9 -5 12z" />
    <glyph glyph-name="Tcaron" unicode="&#x164;" horiz-adv-x="387" 
d="M111 6l2 -3q10 3 17 8q6 4 9 20q2 12 4 42q1 18 1 74v593q-33 -2 -54 -9q-20 -7 -34 -23t-23 -39q-6 -16 -19 -55h-7l9 114q1 15 5 19q3 3 11 3h324q8 0 11 -3q4 -4 5 -19l9 -114h-7q-8 24 -20 54q-10 24 -22 38q-14 15 -33 24q-21 10 -53 11v-593q0 -55 1 -73
q2 -30 4 -42q3 -14 9 -19q7 -5 17 -8v-6h-166v6zM90 900l106 -44l107 44l3 -6l-110 -109l-109 109z" />
    <glyph glyph-name="tcaron" unicode="&#x165;" horiz-adv-x="219" 
d="M145 -9h2q-42 0 -71 26t-29 77v362h-41v9q21 3 39 13q19 10 36 29t29 45q12 27 18 65h9v-152h75v-10h-75v-350q0 -55 7 -77q8 -24 33 -24q14 0 21 4l15 9l4 -6q-7 -5 -22 -13q-14 -7 -50 -7zM166 530l10 136q3 56 36 56q31 0 31 -31q0 -18 -10 -39l-61 -124z" />
    <glyph glyph-name="Tbar" unicode="&#x166;" horiz-adv-x="387" 
d="M58 428h271v-9h-271v9zM111 6l2 -3q10 3 17 8q6 4 9 20q2 12 4 42q1 18 1 74v593q-33 -2 -54 -9q-20 -7 -34 -23t-23 -39q-6 -16 -19 -55h-7l9 114q1 15 5 19q3 3 11 3h324q8 0 11 -3q4 -4 5 -19l9 -114h-7q-8 24 -20 54q-10 24 -22 38q-14 15 -33 24q-21 10 -53 11v-593
q0 -55 1 -73q2 -30 4 -42q3 -14 9 -19q7 -5 17 -8v-6h-166v6z" />
    <glyph glyph-name="tbar" unicode="&#x167;" horiz-adv-x="219" 
d="M5 308h205v-9h-205v9zM145 -9h2q-42 0 -71 26t-29 77v362h-41v9q21 3 39 13q19 10 36 29t29 45q12 27 18 65h9v-152h75v-10h-75v-350q0 -55 7 -77q8 -24 33 -24q14 0 21 4l15 9l4 -6q-7 -5 -22 -13q-14 -7 -50 -7z" />
    <glyph glyph-name="Utilde" unicode="&#x168;" 
d="M202 -12l-3 -3q-74 0 -116 39t-42 126v449q0 56 -1 74q-2 31 -4 41q-3 14 -9 18q-7 5 -17 8v6h164v-6q-10 -3 -17 -8q-6 -4 -9 -18q-2 -10 -4 -41q-1 -18 -1 -74v-455q0 -77 17 -111q16 -33 59 -33q50 0 74 38t24 108v449q0 54 -1 71q-2 30 -4 41q-3 15 -11 21
q-10 8 -21 14v6h81v-6q-14 -10 -17 -13q-6 -6 -9 -21q-2 -12 -4 -40q-1 -17 -1 -71v-449q0 -75 -29 -118q-29 -42 -99 -42zM185 856l-2 -1q14 0 42 -2t37 -2q11 0 18 7q8 8 24 27l6 -2q-10 -46 -24 -67t-31 -21q-19 0 -39 3t-39 3q-11 0 -18 -7q-7 -8 -21 -27l-6 2
q10 45 24 66q13 21 29 21z" />
    <glyph glyph-name="utilde" unicode="&#x169;" horiz-adv-x="360" 
d="M133 -8l3 -3q-12 0 -30 5q-16 4 -30 17q-15 13 -23 31q-9 20 -9 48v248q0 20 -1 27q-2 11 -4 16q-3 7 -9 8q-7 2 -16 3v7l120 75v-396q0 -38 9 -54t21 -16q8 0 21 10t42 42v278q0 20 -1 27q-2 11 -4 16q-3 7 -9 8q-7 2 -16 3v7l121 75v-386v-41q0 -12 2 -24q1 -8 5 -12
q3 -3 11 -6v-6h-110v51q-30 -33 -51 -46q-19 -12 -42 -12zM156 620l-4 -1q21 0 41 -4t38 -4q9 0 18 9t24 27l6 -3q-10 -42 -23 -67q-12 -22 -31 -22q-17 0 -40 3t-39 3q-10 0 -18 -8q-8 -7 -24 -27l-6 3q11 41 26 67q14 24 32 24z" />
    <glyph glyph-name="Umacron" unicode="&#x16a;" 
d="M202 -12l-3 -3q-74 0 -116 39t-42 126v449q0 56 -1 74q-2 31 -4 41q-3 14 -9 18q-7 5 -17 8v6h164v-6q-10 -3 -17 -8q-6 -4 -9 -18q-2 -10 -4 -41q-1 -18 -1 -74v-455q0 -77 17 -111q16 -33 59 -33q50 0 74 38t24 108v449q0 54 -1 71q-2 30 -4 41q-3 15 -11 21
q-10 8 -21 14v6h81v-6q-14 -10 -17 -13q-6 -6 -9 -21q-2 -12 -4 -40q-1 -17 -1 -71v-449q0 -75 -29 -118q-29 -42 -99 -42zM299 792h-168v41h168v-41z" />
    <glyph glyph-name="umacron" unicode="&#x16b;" horiz-adv-x="360" 
d="M133 -8l3 -3q-12 0 -30 5q-16 4 -30 17q-15 13 -23 31q-9 20 -9 48v248q0 20 -1 27q-2 11 -4 16q-3 7 -9 8q-7 2 -16 3v7l120 75v-396q0 -38 9 -54t21 -16q8 0 21 10t42 42v278q0 20 -1 27q-2 11 -4 16q-3 7 -9 8q-7 2 -16 3v7l121 75v-386v-41q0 -12 2 -24q1 -8 5 -12
q3 -3 11 -6v-6h-110v51q-30 -33 -51 -46q-19 -12 -42 -12zM269 595v-40h-158v40h158z" />
    <glyph glyph-name="Ubreve" unicode="&#x16c;" 
d="M202 -12l-3 -3q-74 0 -116 39t-42 126v449q0 56 -1 74q-2 31 -4 41q-3 14 -9 18q-7 5 -17 8v6h164v-6q-10 -3 -17 -8q-6 -4 -9 -18q-2 -10 -4 -41q-1 -18 -1 -74v-455q0 -77 17 -111q16 -33 59 -33q50 0 74 38t24 108v449q0 54 -1 71q-2 30 -4 41q-3 15 -11 21
q-10 8 -21 14v6h81v-6q-14 -10 -17 -13q-6 -6 -9 -21q-2 -12 -4 -40q-1 -17 -1 -71v-449q0 -75 -29 -118q-29 -42 -99 -42zM216 839l-2 -1q26 0 43 9q16 8 25 29h9q-1 -44 -21 -70q-19 -25 -54 -25t-56 26q-20 25 -22 72h9q16 -40 69 -40z" />
    <glyph glyph-name="ubreve" unicode="&#x16d;" horiz-adv-x="360" 
d="M133 -8l3 -3q-12 0 -30 5q-16 4 -30 17q-15 13 -23 31q-9 20 -9 48v248q0 20 -1 27q-2 11 -4 16q-3 7 -9 8q-7 2 -16 3v7l120 75v-396q0 -38 9 -54t21 -16q8 0 21 10t42 42v278q0 20 -1 27q-2 11 -4 16q-3 7 -9 8q-7 2 -16 3v7l121 75v-386v-41q0 -12 2 -24q1 -8 5 -12
q3 -3 11 -6v-6h-110v51q-30 -33 -51 -46q-19 -12 -42 -12zM193 588l-2 2q29 0 45 11q14 10 22 27h9q0 -17 -5 -37q-4 -16 -14 -31q-9 -13 -23 -21t-32 -8q-37 0 -57 29q-19 28 -19 68h9q4 -16 21 -28q16 -12 46 -12z" />
    <glyph glyph-name="Uring" unicode="&#x16e;" 
d="M202 -12l-3 -3q-74 0 -116 39t-42 126v449q0 56 -1 74q-2 31 -4 41q-3 14 -9 18q-7 5 -17 8v6h164v-6q-10 -3 -17 -8q-6 -4 -9 -18q-2 -10 -4 -41q-1 -18 -1 -74v-455q0 -77 17 -111q16 -33 59 -33q50 0 74 38t24 108v449q0 54 -1 71q-2 30 -4 41q-3 15 -11 21
q-10 8 -21 14v6h81v-6q-14 -10 -17 -13q-6 -6 -9 -21q-2 -12 -4 -40q-1 -17 -1 -71v-449q0 -75 -29 -118q-29 -42 -99 -42zM141 836v-2q0 28 23 48t56 20q34 0 57 -20q22 -19 22 -48q0 -30 -22 -49t-57 -19q-34 0 -57 20q-22 19 -22 50zM182 834h2q0 -28 9 -45q9 -16 27 -16
t27 17q9 16 9 44t-10 44q-11 17 -27 17t-27 -17q-10 -16 -10 -44z" />
    <glyph glyph-name="uring" unicode="&#x16f;" horiz-adv-x="360" 
d="M133 -8l3 -3q-12 0 -30 5q-16 4 -30 17q-15 13 -23 31q-9 20 -9 48v248q0 20 -1 27q-2 11 -4 16q-3 7 -9 8q-7 2 -16 3v7l120 75v-396q0 -38 9 -54t21 -16q8 0 21 10t42 42v278q0 20 -1 27q-2 11 -4 16q-3 7 -9 8q-7 2 -16 3v7l121 75v-386v-41q0 -12 2 -24q1 -8 5 -12
q3 -3 11 -6v-6h-110v51q-30 -33 -51 -46q-19 -12 -42 -12zM117 591l-2 -2q0 29 21 48q22 20 53 20t54 -20q22 -19 22 -48t-21 -49q-20 -19 -53 -19q-31 0 -53 20q-21 19 -21 50zM156 589h-1q0 -29 9 -45t24 -16t24 17t9 44t-9 44t-24 17q-14 0 -23 -17t-9 -44z" />
    <glyph glyph-name="Uhungarumlaut" unicode="&#x170;" 
d="M202 -12l-3 -3q-74 0 -116 39t-42 126v449q0 56 -1 74q-2 31 -4 41q-3 14 -9 18q-7 5 -17 8v6h164v-6q-10 -3 -17 -8q-6 -4 -9 -18q-2 -10 -4 -41q-1 -18 -1 -74v-455q0 -77 17 -111q16 -33 59 -33q50 0 74 38t24 108v449q0 54 -1 71q-2 30 -4 41q-3 15 -11 21
q-10 8 -21 14v6h81v-6q-14 -10 -17 -13q-6 -6 -9 -21q-2 -12 -4 -40q-1 -17 -1 -71v-449q0 -75 -29 -118q-29 -42 -99 -42zM247 783l37 77q8 15 18 25q9 9 26 9q14 0 21 -9q7 -8 7 -19q0 -14 -9 -23q-10 -10 -18 -14l-77 -52zM139 782l38 77q10 18 18 26q9 9 26 9
q13 0 21 -9q7 -8 7 -19q0 -14 -9 -23t-18 -15l-78 -52z" />
    <glyph glyph-name="uhungarumlaut" unicode="&#x171;" horiz-adv-x="360" 
d="M133 -8l3 -3q-12 0 -30 5q-16 4 -30 17q-15 13 -23 31q-9 20 -9 48v248q0 20 -1 27q-2 11 -4 16q-3 7 -9 8q-7 2 -16 3v7l120 75v-396q0 -38 9 -54t21 -16q8 0 21 10t42 42v278q0 20 -1 27q-2 11 -4 16q-3 7 -9 8q-7 2 -16 3v7l121 75v-386v-41q0 -12 2 -24q1 -8 5 -12
q3 -3 11 -6v-6h-110v51q-30 -33 -51 -46q-19 -12 -42 -12zM234 521l32 124q4 19 14 30q9 11 26 11q14 0 21 -9q8 -10 8 -22q0 -18 -13 -34l-82 -103zM125 523l33 124q4 19 14 30q9 11 26 11q14 0 21 -9q8 -10 8 -22q0 -17 -14 -34l-82 -103z" />
    <glyph glyph-name="Uogonek" unicode="&#x172;" 
d="M214 -174l-8 -10q-32 0 -51 18q-20 18 -20 45q0 19 9 36q10 18 22 30q14 13 30 24t30 18q-13 -4 -29 -4q-74 0 -116 39t-42 126v449q0 56 -1 74q-2 31 -4 41q-3 14 -9 18q-7 5 -17 8v6h164v-6q-10 -3 -17 -8q-6 -4 -9 -18q-2 -10 -4 -41q-1 -18 -1 -74v-455
q0 -77 17 -111q16 -33 59 -33q50 0 74 38t24 108v449q0 54 -1 71q-2 30 -4 41q-3 15 -11 21q-10 8 -21 14v6h81v-6q-14 -10 -17 -13q-6 -6 -9 -21q-2 -12 -4 -40q-1 -17 -1 -71v-449q0 -52 -13 -87q-14 -37 -42 -53q-8 -4 -18 -14q-11 -11 -17 -22q-8 -14 -12 -31
q-5 -20 -5 -39q0 -20 9 -32t26 -12q12 0 20 5t15 12l6 -5q-2 -2 -10 -12q-6 -8 -17 -14q-13 -7 -24 -11q-15 -5 -32 -5z" />
    <glyph glyph-name="uogonek" unicode="&#x173;" horiz-adv-x="360" 
d="M133 -8l2 -9q-12 0 -30 5q-16 4 -30 17q-15 13 -23 31q-9 20 -9 48v248q0 20 -1 27q-2 11 -4 16q-3 7 -9 8q-7 2 -16 3v7l120 75v-396q0 -38 9 -54t21 -16q8 0 21 10q14 10 42 42v278q0 20 -1 27q-2 11 -4 16q-3 7 -9 8q-7 2 -16 3v7l121 75v-386v-41q0 -12 2 -24
q1 -8 5 -12q3 -3 11 -6v-6h-99q-10 -13 -21 -39q-10 -24 -10 -57q0 -20 9 -32t26 -12q12 0 20 5q8 4 15 12l6 -5q-2 -2 -10 -12q-6 -8 -17 -14q-13 -7 -24 -11q-15 -5 -32 -5q-32 0 -51 18q-20 18 -20 45q0 21 11 38t26 32q13 13 32 25q16 11 30 18v51q-30 -33 -51 -46
q-19 -12 -42 -12z" />
    <glyph glyph-name="Wcircumflex" unicode="&#x174;" horiz-adv-x="550" 
d="M47 623l-4 -3l-12 48t-9 33q-5 16 -10 23q-7 10 -15 17v7h155v-7q-22 -7 -24 -24q-1 -16 9 -58l107 -472l40 175l-58 258q-8 28 -12 48t-9 33q-4 13 -11 23q-6 9 -17 15v7h153v-7q-21 -6 -21 -22q0 -17 9 -60l30 -150l21 113q1 5 7 41q3 20 2 33q-2 16 -7 27
q-6 12 -19 19v7h79v-7q-11 -4 -18 -9q-8 -5 -12 -16q-5 -13 -9 -34l-12 -60l-27 -137l59 -296l79 432l7 42q3 18 1 35q-2 16 -10 26q-9 11 -27 18v7h89v-7q-5 -3 -13 -9q-6 -4 -12 -17q-6 -12 -12 -33q-4 -14 -13 -59l-115 -628h-17l-78 346l-78 -346h-17zM294 893l110 -109
l-3 -6l-107 44l-106 -44l-3 6z" />
    <glyph glyph-name="wcircumflex" unicode="&#x175;" horiz-adv-x="443" 
d="M44 355l-1 2q-5 18 -13 54q-2 10 -8 30q-3 11 -8 14q-4 3 -12 6v6h136v-6q-10 -3 -14 -6t-6 -14t3 -30q1 -4 3 -13.5t4.5 -19t4.5 -19.5l52 -214l38 136l-18 75q-1 4 -13 56q-2 10 -8 30q-3 12 -7 14q-6 4 -10 5v6h141v-6q-9 -3 -16 -6q-6 -3 -9 -14t0 -30q4 -25 10 -52
l43 -200l41 178q12 48 14 67q3 24 0 36t-12 15q-11 4 -24 5v6h87v-6q-12 -3 -17 -6q-7 -3 -11 -15q-6 -16 -11 -36q-2 -9 -7.5 -31.5t-8.5 -35.5l-77 -341h-17l-64 265l-74 -265h-16zM236 694l97 -168l-7 -5l-90 75l-90 -75l-7 5z" />
    <glyph glyph-name="Ycircumflex" unicode="&#x176;" horiz-adv-x="340" 
d="M97 6l2 -2q10 3 17 8q6 4 9 20q2 12 4 42q1 18 1 74v245l-75 235q-13 50 -22 71q-11 25 -33 45v6h157v-6q-11 -5 -15 -10t-4 -15q0 -9 3 -21l7 -28l77 -258l52 211q9 33 12 54q3 23 2 33q-2 13 -12 20q-11 8 -28 12v6h90v-6q-9 -4 -16 -9q-6 -5 -11 -17q-7 -18 -11 -33
q-5 -18 -15 -59l-57 -222v-254q0 -55 1 -73q2 -30 4 -42q3 -14 9 -19q7 -5 17 -8v-6h-165v6zM200 894l110 -109l-3 -6l-107 44l-106 -44l-3 6z" />
    <glyph glyph-name="ycircumflex" unicode="&#x177;" horiz-adv-x="309" 
d="M36 -171l-2 -1q-23 0 -33 10q-11 11 -11 24q0 16 9 24q10 8 24 8q11 0 18 -3q10 -4 14 -6l12 -6q6 -3 14 -3q11 0 25 17q13 16 33 68l9 33l-104 359q-4 12 -9 30t-7 24q-7 24 -10 30q-4 11 -9 15q-4 4 -12 7v6h147v-6q-10 -1 -16 -6q-5 -4 -7 -15t3 -29q9 -36 13 -50
l53 -210l53 186q13 44 17 65q4 24 3 36q-2 13 -9 17q-8 5 -19 6v6h75v-6q-9 -5 -15 -9q-7 -5 -11 -16q-3 -8 -12 -35q-3 -9 -19 -63l-105 -371q-27 -75 -52 -105q-25 -31 -60 -31zM175 691l97 -168l-7 -5l-90 75l-90 -75l-7 5z" />
    <glyph glyph-name="Ydieresis" unicode="&#x178;" horiz-adv-x="340" 
d="M97 6l2 -2q10 3 17 8q6 4 9 20q2 12 4 42q1 18 1 74v245l-75 235q-13 50 -22 71q-11 25 -33 45v6h157v-6q-11 -5 -15 -10t-4 -15q0 -9 3 -21l7 -28l77 -258l52 211q9 33 12 54q3 23 2 33q-2 13 -12 20q-11 8 -28 12v6h90v-6q-9 -4 -16 -9q-6 -5 -11 -17q-7 -18 -11 -33
q-5 -18 -15 -59l-57 -222v-254q0 -55 1 -73q2 -30 4 -42q3 -14 9 -19q7 -5 17 -8v-6h-165v6zM269 784q-19 0 -33 15q-14 16 -14 36q0 19 14 33t33 14t33 -14t14 -33q0 -20 -14 -36q-14 -15 -33 -15zM133 784q-19 0 -33 15q-14 16 -14 36q0 19 14 33t33 14t33 -14t14 -33
q0 -20 -14 -36q-14 -15 -33 -15z" />
    <glyph glyph-name="Zacute" unicode="&#x179;" horiz-adv-x="339" 
d="M203 741v-3q-35 -1 -61 -12q-26 -10 -43 -28q-19 -19 -33 -40q-13 -19 -31 -49h-6l25 139h255l-186 -742q49 2 81 12q32 11 53 30q22 21 35 49q17 39 29 70h6l-20 -167h-290zM103 785l98 74q23 18 42 18q15 0 23 -9q8 -10 8 -21q0 -15 -9 -26q-9 -10 -32 -15l-127 -27z
" />
    <glyph glyph-name="zacute" unicode="&#x17a;" horiz-adv-x="293" 
d="M266 -10l-1 -1q-7 4 -15 5t-23 3q-18 2 -36 2h-55h-127l171 458h-8q-39 0 -61 -7q-24 -8 -39 -21q-15 -14 -24 -31q-10 -20 -18 -40h-7l21 117q15 -7 44 -9q19 -1 84 -1h101l-175 -458h25q39 0 66 8q25 7 41 23t26 37q10 23 21 51h7zM102 523l62 120q10 18 20 30
q9 11 24 11q14 0 23 -9t9 -23q0 -26 -27 -48l-105 -85z" />
    <glyph glyph-name="Zdotaccent" unicode="&#x17b;" horiz-adv-x="339" 
d="M203 741v-3q-35 -1 -61 -12q-26 -10 -43 -28q-19 -19 -33 -40q-13 -19 -31 -49h-6l25 139h255l-186 -742q49 2 81 12q32 11 53 30q22 21 35 49q17 39 29 70h6l-20 -167h-290zM178 784l-1 -1q-22 0 -37 15t-15 38q0 22 15 37t38 15t38 -15t15 -37t-15 -37t-38 -15z" />
    <glyph glyph-name="zdotaccent" unicode="&#x17c;" horiz-adv-x="293" 
d="M266 -10l-1 -1q-7 4 -15 5t-23 3q-18 2 -36 2h-55h-127l171 458h-8q-39 0 -61 -7q-24 -8 -39 -21q-15 -14 -24 -31q-10 -20 -18 -40h-7l21 117q15 -7 44 -9q19 -1 84 -1h101l-175 -458h25q39 0 66 8q25 7 41 23t26 37q10 23 21 51h7zM155 540h-1q-22 0 -37 15t-15 38
q0 22 15 37t38 15t38 -15t15 -37q0 -23 -15 -38t-38 -15z" />
    <glyph glyph-name="Zcaron" unicode="&#x17d;" horiz-adv-x="339" 
d="M203 741v-3q-35 -1 -61 -12q-26 -10 -43 -28q-19 -19 -33 -40q-13 -19 -31 -49h-6l25 139h255l-186 -742q49 2 81 12q32 11 53 30q22 21 35 49q17 39 29 70h6l-20 -167h-290zM72 900l106 -44l107 44l3 -6l-110 -109l-109 109z" />
    <glyph glyph-name="zcaron" unicode="&#x17e;" horiz-adv-x="293" 
d="M266 -10l-1 -1q-7 4 -15 5t-23 3q-18 2 -36 2h-55h-127l171 458h-8q-39 0 -61 -7q-24 -8 -39 -21q-15 -14 -24 -31q-10 -20 -18 -40h-7l21 117q15 -7 44 -9q19 -1 84 -1h101l-175 -458h25q39 0 66 8q25 7 41 23t26 37q10 23 21 51h7zM65 691l90 -74l90 74l7 -4l-97 -168
l-97 168z" />
    <glyph glyph-name="uni0192" unicode="&#x192;" horiz-adv-x="352" 
d="M62 466l50 -5l10 97q6 59 21 98q14 37 35 61q20 23 42 32t42 9q34 0 60 -14t26 -39q0 -11 -8 -22q-7 -10 -24 -10q-18 0 -27 9t-12 26q-5 26 -9 33q-5 8 -12 8t-14 -5q-6 -4 -12 -18q-5 -11 -10 -36q-4 -18 -7 -60l-17 -168h70v-10h-71l-32 -317q-7 -74 -24 -124
q-16 -48 -38 -78q-22 -29 -45 -41q-24 -12 -46 -12q-34 0 -60 14t-26 39q0 12 8 23t24 11q20 0 27 -9t12 -26q6 -26 12 -34q6 -7 14 -7q10 0 18 8t14 30t12 62q6 38 12 104l38 361h-53v10z" />
    <glyph glyph-name="Aringacute" unicode="&#x1fa;" horiz-adv-x="342" 
d="M-2 5l-4 -2q8 5 14 12q5 6 10 21q4 14 9 36t9 57l79 514l-6 36q-6 40 -16 51q-11 12 -21 15v5h111q7 0 11 -2t5 -12l101 -609q4 -30 9 -52q5 -21 9 -36q5 -15 10 -22q5 -6 14 -10v-6h-147v6q7 1 12 6t8 12t3 21t-3 36l-24 139h-127l-14 -90q-4 -35 -6 -57q-2 -24 1 -36
q3 -13 11 -21q8 -7 21 -12v-5h-79v5zM186 227l-66 385l-59 -385h125zM60 844v-2q0 28 23 48t56 20q34 0 57 -20q22 -19 22 -48q0 -30 -22 -49t-57 -19q-34 0 -57 20q-22 19 -22 50zM101 842h2q0 -28 9 -45q9 -16 27 -16t27 17q9 16 9 44t-10 44q-11 17 -27 17t-27 -17
q-10 -16 -10 -44zM65 924l98 74q23 18 42 18q15 0 23 -9q8 -10 8 -21q0 -16 -9 -26t-32 -15l-127 -27z" />
    <glyph glyph-name="aringacute" unicode="&#x1fb;" horiz-adv-x="334" 
d="M108 -7l-3 -4q-36 0 -60 26q-24 25 -24 77q0 35 15 56t36 36t45 27q22 11 42 26l-2 -1q5 5 15 13q8 6 14 14q6 7 9 18t3 29v75q0 29 -1 39q-1 15 -6 24t-12 12t-20 3t-24 -12t-21 -45q-4 -16 -12 -27q-7 -10 -25 -10q-16 0 -25 9t-9 23q0 12 6 24t20 23t36 17q23 6 54 6
q32 0 53 -4q24 -5 42 -18q17 -13 28 -36q10 -21 10 -60v-225q0 -48 1 -64q2 -27 4 -36q3 -12 7 -15t12 -3q14 0 21 7l3 -6q-8 -6 -19 -11q-13 -6 -42 -6q-37 0 -55 15t-21 38q-9 -10 -24 -25q-12 -12 -21 -17q-11 -6 -22 -9q-12 -3 -28 -3zM112 111v-3q0 -50 9 -75t26 -25
q5 0 14 9q1 1 33 35v216q-6 -15 -17 -23q-11 -7 -24 -18l3 2q-15 -12 -24 -24q-8 -11 -13 -25t-6 -30q-1 -11 -1 -39zM89 587l-2 -2q0 29 21 48q22 20 53 20t54 -20q22 -19 22 -48t-21 -49q-20 -19 -53 -19q-31 0 -53 20q-21 19 -21 50zM128 585h-1q0 -29 9 -45t24 -16
t24 17t9 44t-9 44t-24 17q-14 0 -23 -17t-9 -44zM89 675l98 74q23 18 42 18q15 0 23 -9q8 -10 8 -21q0 -15 -9 -26q-9 -10 -32 -15l-127 -27z" />
    <glyph glyph-name="AEacute" unicode="&#x1fc;" horiz-adv-x="476" 
d="M367 331l3 -4l-6 27q-3 12 -11 24q-7 10 -21 18t-36 9v-400q32 0 62 5q25 4 46 17q19 11 34 36q16 25 26 63h9l-13 -112q-2 -14 -6 -15q-6 -2 -12 -2h-279v6q10 3 17 8q6 4 9 20q2 12 4 42q1 18 1 74v77h-112l-22 -102q-9 -34 -12 -56q-3 -23 -2 -33q2 -13 7 -18t17 -10
v-5h-72v5q10 6 14 10q6 6 12 18t12 33q8 27 14 56l123 555q4 24 5 29q1 12 0 19q-2 7 -9 12q-7 4 -22 7v7h267q8 0 11 -3t6 -19l17 -97h-9q-11 30 -24 51q-14 22 -31 33q-18 12 -40 18q-25 7 -51 8v-321q23 1 36 9t21 18q8 12 11 24l6 27h6v-168h-6zM194 230v502l-110 -502
h110zM220 784l98 74q22 18 42 18q16 0 23 -9q8 -10 8 -21q0 -16 -9 -26t-32 -15l-127 -27z" />
    <glyph glyph-name="aeacute" unicode="&#x1fd;" horiz-adv-x="490" 
d="M110 -7l-9 -3q-38 0 -62 26t-24 77q0 35 15 56t36 36t45 27q22 11 42 26l-2 -1q5 5 15 13q8 6 14 14t9 18t3 29v75q0 29 -1 39q-1 15 -6 24t-12 12t-20 3t-24 -12t-21 -45q-4 -17 -12 -27q-7 -10 -25 -10q-16 0 -25 9t-9 23q0 12 6 24t20 23t36 17q23 6 54 6q36 0 63 -7
q29 -8 47 -30q20 20 39 29q20 9 36 9q32 0 53 -12q22 -12 35 -33q14 -21 21 -51q8 -30 9 -64h-166q-1 -9 -1 -27v-28q0 -62 4 -103q4 -43 14 -79q9 -32 26 -51q17 -18 42 -18q28 0 45 11q14 9 25 20l5 -7l-11 -11q-6 -6 -15 -12q-7 -5 -23 -10q-12 -4 -32 -4q-46 0 -81 19
q-36 19 -58 61l-11 -12q-18 -20 -31 -34q-12 -14 -24 -21q-13 -8 -24 -11q-12 -3 -30 -3zM334 463l-2 -2q-8 0 -15 -6q-8 -7 -14 -22q-7 -19 -11 -43q-5 -27 -6 -70h83q0 71 -6 107t-29 36zM104 110l-1 -3q0 -49 9 -75q9 -25 26 -25q4 0 9 3t12 9q5 4 18 17l27 27l10 11
q-14 28 -21 66q-7 35 -7 86v41q-6 -15 -17 -23t-24 -18l3 2q-15 -12 -24 -24q-8 -11 -13 -25q-5 -13 -6 -30q-1 -11 -1 -39zM188 516l62 120q10 18 20 30q9 11 24 11q14 0 23 -9t9 -23q0 -25 -27 -48l-105 -85z" />
    <glyph glyph-name="Oslashacute" unicode="&#x1fe;" horiz-adv-x="433" 
d="M216 -10l-3 -2q-42 0 -81 36l-13 -50l-10 3l14 56q-41 43 -70 129q-28 84 -28 213q0 96 17 170q16 71 44 119q28 47 60 71q33 24 68 24q45 0 85 -38l12 46l9 -4l-13 -50q41 -44 69 -127t28 -211q0 -93 -17 -167q-16 -70 -44 -121q-27 -49 -60 -73t-67 -24zM133 374
q0 -78 3 -141q3 -68 10 -111l131 511q-21 113 -64 113q-41 0 -61 -96q-19 -94 -19 -276zM213 -2v-1q43 0 61 99q17 96 19 278q0 146 -12 236l-130 -512q18 -100 62 -100zM139 785l98 74q23 18 42 18q15 0 23 -9q8 -10 8 -21q0 -15 -9 -26q-9 -10 -32 -15l-127 -27z" />
    <glyph glyph-name="oslashacute" unicode="&#x1ff;" horiz-adv-x="358" 
d="M130 69l-1 -3l-3 9l-3 9l102 317q-7 34 -20 48q-12 14 -29 14q-12 0 -25 -11q-11 -10 -19 -38q-8 -27 -12 -72q-4 -40 -4 -113q0 -91 9 -144l-21 -65l8 -6l-10 -31l-8 4l10 33q-32 25 -58 77q-25 50 -25 132q0 67 16 112q17 47 40 76t51 43q26 13 51 13q14 0 32 -5
q17 -4 33 -15l-16 -49l3 -18zM178 0l-2 -2q15 0 27 12q13 13 20 39q7 27 12 71q4 39 4 107q0 53 -3 90q-4 44 -7 65l20 62l-7 5l8 26l8 -4l-9 -27q18 -15 32 -33q16 -20 27 -46q11 -25 19 -61q7 -32 7 -78q0 -63 -15 -108q-15 -44 -39 -73t-51 -42q-26 -13 -51 -13
q-32 0 -66 22l17 53q7 -34 20 -50q12 -15 29 -15zM124 519l62 120q10 18 20 30q9 11 24 11q14 0 23 -9t9 -23q0 -26 -27 -48l-105 -85z" />
    <glyph glyph-name="uni0218" unicode="&#x218;" horiz-adv-x="335" 
d="M144 -8l-10 -4q-23 0 -42 8t-31 16q-15 10 -21 16q-8 8 -12 8t-9 -20h-6v191h7q15 -109 42 -159t75 -50q42 0 66 27t24 82q0 32 -9 62q-10 33 -25 62q-20 37 -37 66q-6 10 -43 74q-24 44 -36 65q-18 31 -29 56q-13 29 -20 56t-7 63q0 66 39 105t104 39q18 0 30 -4
q14 -5 24 -9t18 -9q7 -4 12 -4q7 0 9 8q1 5 3 17h7v-147h-7q-17 80 -39 110q-23 30 -54 30q-38 0 -53 -21t-15 -54q0 -26 9 -51t24 -54q18 -34 34 -60q20 -31 39 -66q23 -37 42 -72t33 -66q15 -35 23 -63q9 -32 9 -65q0 -49 -15 -83t-39 -57t-54 -33q-29 -10 -60 -10z
M170 -115q-2 -4 -12 -10q-9 -6 -23 -6q-17 0 -31 12q-13 12 -13 33q0 23 15 35t34 12q22 0 39 -15t17 -47q0 -40 -23 -61q-23 -22 -57 -26l-3 7q32 6 47 21t15 33q0 9 -5 12z" />
    <glyph glyph-name="uni0219" unicode="&#x219;" horiz-adv-x="271" 
d="M150 4l-9 -7q23 0 35 20q12 19 12 45q0 30 -18 63q-17 31 -65 79q-29 26 -45 45q-18 21 -26 39q-9 19 -12 38q-3 18 -3 39t8 42q7 19 21 33t30 21q18 8 35 8q22 0 39 -10t42 -10q6 0 11 5q5 4 6 12h9v-122l-9 1q-9 32 -21 55q-11 21 -26 36q-14 14 -27 20t-24 6
q-17 0 -30 -12q-14 -12 -14 -37q0 -13 5 -26q4 -11 14 -26q8 -12 26 -30q24 -24 40 -39q26 -23 49 -50q19 -22 30 -44q11 -21 15 -42q4 -19 4 -45q0 -28 -10 -48q-11 -22 -25 -36q-16 -16 -33 -23q-19 -8 -35 -8q-20 0 -35 6t-27 12t-21 12t-18 6q-14 0 -17 -17h-9v146h8
q43 -157 120 -157zM153 -118q-2 -4 -12 -10q-9 -6 -23 -6q-18 0 -31 12t-13 33q0 23 15 35t34 12q23 0 39 -15q17 -15 17 -47q0 -40 -23 -61q-23 -22 -57 -26l-3 7q32 6 47 21t15 33q0 9 -5 12z" />
    <glyph glyph-name="uni021A" unicode="&#x21a;" horiz-adv-x="387" 
d="M111 6l2 -3q10 3 17 8q6 4 9 20q2 12 4 42q1 18 1 74v593q-33 -2 -54 -9q-20 -7 -34 -23t-23 -39q-6 -16 -19 -55h-7l9 114q1 15 5 19q3 3 11 3h324q8 0 11 -3q4 -4 5 -19l9 -114h-7q-8 24 -20 54q-10 24 -22 38q-14 15 -33 24q-21 10 -53 11v-593q0 -55 1 -73
q2 -30 4 -42q3 -14 9 -19q7 -5 17 -8v-6h-166v6zM220 -114q-2 -4 -12 -10q-9 -6 -23 -6q-17 0 -31 12q-13 12 -13 33q0 23 15 35t34 12q22 0 39 -15t17 -47q0 -40 -23 -61q-23 -22 -57 -26l-3 7q32 6 47 21t15 33q0 9 -5 12z" />
    <glyph glyph-name="uni021B" unicode="&#x21b;" horiz-adv-x="219" 
d="M145 -9h2q-42 0 -71 26t-29 77v362h-41v9q21 3 39 13q19 10 36 29t29 45q12 27 18 65h9v-152h75v-10h-75v-350q0 -55 7 -77q8 -24 33 -24q14 0 21 4l15 9l4 -6q-7 -5 -22 -13q-14 -7 -50 -7zM146 -111q-2 -4 -12 -10q-9 -6 -23 -6q-17 0 -31 12q-13 12 -13 33q0 23 15 35
t34 12q22 0 39 -15t17 -47q0 -40 -23 -61q-23 -22 -57 -26l-3 7q32 6 47 21t15 33q0 9 -5 12z" />
    <glyph glyph-name="uni0237" unicode="&#x237;" horiz-adv-x="178" 
d="M-25 -139v2q-20 0 -33 10t-13 28q0 16 11 25q10 9 24 9q15 0 23 -7q12 -10 17 -16t13 -16q6 -7 14 -7q5 0 9 4q2 1 3 6q1 3 1 15v29v49v330q0 27 -1 36q-2 15 -4 21q-3 7 -9 10q-8 4 -16 5v7l119 75v-418q0 -31 -3 -55q-3 -23 -12 -43t-24 -36q-14 -15 -36 -31
q-30 -21 -46 -26q-18 -6 -37 -6z" />
    <glyph glyph-name="circumflex" unicode="&#x2c6;" horiz-adv-x="446" 
d="M228 692l97 -168l-7 -5l-90 75l-90 -75l-7 5z" />
    <glyph glyph-name="caron" unicode="&#x2c7;" horiz-adv-x="446" 
d="M138 692l90 -74l90 74l7 -4l-97 -168l-97 168z" />
    <glyph glyph-name="breve" unicode="&#x2d8;" horiz-adv-x="446" 
d="M223 591l-2 2q29 0 45 11q14 10 22 27h9q0 -17 -5 -37q-4 -16 -14 -31q-9 -13 -23 -21t-32 -8q-37 0 -57 29q-19 28 -19 68h9q4 -16 21 -28t46 -12z" />
    <glyph glyph-name="dotaccent" unicode="&#x2d9;" horiz-adv-x="446" 
d="M222 541h-1q-22 0 -37 15t-15 38q0 22 15 37t38 15t38 -15t15 -37q0 -23 -15 -38t-38 -15z" />
    <glyph glyph-name="ring" unicode="&#x2da;" horiz-adv-x="446" 
d="M157 594l-2 -2q0 28 21 48q22 20 53 20t54 -20q22 -19 22 -48q0 -30 -21 -49q-20 -19 -53 -19q-31 0 -53 20q-21 20 -21 50zM196 592h-1q0 -28 9 -45q9 -16 24 -16t24 17q9 16 9 44t-9 44q-9 17 -24 17q-14 0 -23 -17q-9 -16 -9 -44z" />
    <glyph glyph-name="ogonek" unicode="&#x2db;" horiz-adv-x="446" 
d="M241 -174l-2 -7q-31 0 -51 18t-20 45q0 20 11 39q11 18 27 33q16 14 34 25q21 12 33 17h13q-14 -14 -26 -39t-12 -57q0 -20 9 -32t26 -12q13 0 21 5t15 12l5 -5q-2 -2 -10 -12q-6 -8 -17 -14q-13 -7 -24 -11q-15 -5 -32 -5z" />
    <glyph glyph-name="tilde" unicode="&#x2dc;" horiz-adv-x="446" 
d="M188 623l-4 -1q21 0 41 -4t38 -4q9 0 18 9t24 27l6 -3q-10 -42 -23 -67q-12 -22 -31 -22q-17 0 -40 3t-39 3q-10 0 -18 -8t-24 -27l-6 3q11 41 26 67q14 24 32 24z" />
    <glyph glyph-name="hungarumlaut" unicode="&#x2dd;" horiz-adv-x="446" 
d="M237 524l32 124q4 19 14 30q9 11 26 11q13 0 21 -9q8 -10 8 -22q0 -18 -13 -34l-82 -103zM128 526l33 124q4 19 14 30q9 11 26 11q13 0 21 -9q8 -10 8 -22q0 -17 -14 -34l-82 -103z" />
    <glyph glyph-name="Wgrave" unicode="&#x1e80;" horiz-adv-x="550" 
d="M47 623l-4 -3l-12 48t-9 33q-5 16 -10 23q-7 10 -15 17v7h155v-7q-22 -7 -24 -24q-1 -16 9 -58l107 -472l40 175l-58 258q-8 28 -12 48t-9 33q-4 13 -11 23q-6 9 -17 15v7h153v-7q-21 -6 -21 -22q0 -17 9 -60l30 -150l21 113q1 5 7 41q3 20 2 33q-2 16 -7 27
q-6 12 -19 19v7h79v-7q-11 -4 -18 -9q-8 -5 -12 -16q-5 -13 -9 -34l-12 -60l-27 -137l59 -296l79 432l7 42q3 18 1 35q-2 16 -10 26q-9 11 -27 18v7h89v-7q-5 -3 -13 -9q-6 -4 -12 -17q-6 -12 -12 -33q-4 -14 -13 -59l-115 -628h-17l-78 346l-78 -346h-17zM243 806
q-23 5 -32 15q-9 11 -9 26q0 11 8 21q8 9 23 9q12 0 20 -4q12 -6 20 -13l100 -75l-3 -6z" />
    <glyph glyph-name="wgrave" unicode="&#x1e81;" horiz-adv-x="443" 
d="M44 355l-1 2q-5 18 -13 54q-2 10 -8 30q-3 11 -8 14q-4 3 -12 6v6h136v-6q-10 -3 -14 -6t-6 -14t3 -30q1 -4 3 -13.5t4.5 -19t4.5 -19.5l52 -214l38 136l-18 75q-1 4 -13 56q-2 10 -8 30q-3 12 -7 14q-6 4 -10 5v6h141v-6q-9 -3 -16 -6q-6 -3 -9 -14t0 -30q4 -25 10 -52
l43 -200l41 178q12 48 14 67q3 24 0 36t-12 15q-11 4 -24 5v6h87v-6q-12 -3 -17 -6q-7 -3 -11 -15q-6 -16 -11 -36q-2 -9 -7.5 -31.5t-8.5 -35.5l-77 -341h-17l-64 265l-74 -265h-16zM171 607l1 -2q-13 10 -21 23q-7 11 -7 26q0 14 9 23t24 9q14 0 23 -10q10 -12 20 -30
l62 -120l-6 -4z" />
    <glyph glyph-name="Wacute" unicode="&#x1e82;" horiz-adv-x="550" 
d="M47 623l-4 -3l-12 48t-9 33q-5 16 -10 23q-7 10 -15 17v7h155v-7q-22 -7 -24 -24q-1 -16 9 -58l107 -472l40 175l-58 258q-8 28 -12 48t-9 33q-4 13 -11 23q-6 9 -17 15v7h153v-7q-21 -6 -21 -22q0 -17 9 -60l30 -150l21 113q1 5 7 41q3 20 2 33q-2 16 -7 27
q-6 12 -19 19v7h79v-7q-11 -4 -18 -9q-8 -5 -12 -16q-5 -13 -9 -34l-12 -60l-27 -137l59 -296l79 432l7 42q3 18 1 35q-2 16 -10 26q-9 11 -27 18v7h89v-7q-5 -3 -13 -9q-6 -4 -12 -17q-6 -12 -12 -33q-4 -14 -13 -59l-115 -628h-17l-78 346l-78 -346h-17zM222 785l98 74
q22 18 42 18q16 0 23 -9q8 -10 8 -21q0 -15 -9 -26q-9 -10 -32 -15l-127 -27z" />
    <glyph glyph-name="wacute" unicode="&#x1e83;" horiz-adv-x="443" 
d="M44 355l-1 2q-5 18 -13 54q-2 10 -8 30q-3 11 -8 14q-4 3 -12 6v6h136v-6q-10 -3 -14 -6t-6 -14t3 -30q1 -4 3 -13.5t4.5 -19t4.5 -19.5l52 -214l38 136l-18 75q-1 4 -13 56q-2 10 -8 30q-3 12 -7 14q-6 4 -10 5v6h141v-6q-9 -3 -16 -6q-6 -3 -9 -14t0 -30q4 -25 10 -52
l43 -200l41 178q12 48 14 67q3 24 0 36t-12 15q-11 4 -24 5v6h87v-6q-12 -3 -17 -6q-7 -3 -11 -15q-6 -16 -11 -36q-2 -9 -7.5 -31.5t-8.5 -35.5l-77 -341h-17l-64 265l-74 -265h-16zM188 526l62 120q10 18 20 30q9 11 24 11q14 0 23 -9t9 -23q0 -25 -27 -48l-105 -85z" />
    <glyph glyph-name="Wdieresis" unicode="&#x1e84;" horiz-adv-x="550" 
d="M47 623l-4 -3l-12 48t-9 33q-5 16 -10 23q-7 10 -15 17v7h155v-7q-22 -7 -24 -24q-1 -16 9 -58l107 -472l40 175l-58 258q-8 28 -12 48t-9 33q-4 13 -11 23q-6 9 -17 15v7h153v-7q-21 -6 -21 -22q0 -17 9 -60l30 -150l21 113q1 5 7 41q3 20 2 33q-2 16 -7 27
q-6 12 -19 19v7h79v-7q-11 -4 -18 -9q-8 -5 -12 -16q-5 -13 -9 -34l-12 -60l-27 -137l59 -296l79 432l7 42q3 18 1 35q-2 16 -10 26q-9 11 -27 18v7h89v-7q-5 -3 -13 -9q-6 -4 -12 -17q-6 -12 -12 -33q-4 -14 -13 -59l-115 -628h-17l-78 346l-78 -346h-17zM364 783
q-20 0 -33 15q-14 16 -14 36q0 19 14 33t33 14t33 -14t14 -33q0 -20 -14 -36q-13 -15 -33 -15zM228 783q-20 0 -33 15q-14 16 -14 36q0 19 14 33t33 14t33 -14t14 -33q0 -20 -14 -36q-13 -15 -33 -15z" />
    <glyph glyph-name="wdieresis" unicode="&#x1e85;" horiz-adv-x="443" 
d="M44 355l-1 2q-5 18 -13 54q-2 10 -8 30q-3 11 -8 14q-4 3 -12 6v6h136v-6q-10 -3 -14 -6t-6 -14t3 -30q1 -4 3 -13.5t4.5 -19t4.5 -19.5l52 -214l38 136l-18 75q-1 4 -13 56q-2 10 -8 30q-3 12 -7 14q-6 4 -10 5v6h141v-6q-9 -3 -16 -6q-6 -3 -9 -14t0 -30q4 -25 10 -52
l43 -200l41 178q12 48 14 67q3 24 0 36t-12 15q-11 4 -24 5v6h87v-6q-12 -3 -17 -6q-7 -3 -11 -15q-6 -16 -11 -36q-2 -9 -7.5 -31.5t-8.5 -35.5l-77 -341h-17l-64 265l-74 -265h-16zM303 543h-1q-19 0 -34 15t-15 36q0 20 15 33q16 14 35 14t33 -14t14 -33q0 -20 -14 -36
q-14 -15 -33 -15zM166 543h-1q-19 0 -33 15q-14 16 -14 36q0 19 14 33t33 14t35 -14q15 -13 15 -33q0 -21 -15 -36t-34 -15z" />
    <glyph glyph-name="Ygrave" unicode="&#x1ef2;" horiz-adv-x="340" 
d="M97 6l2 -2q10 3 17 8q6 4 9 20q2 12 4 42q1 18 1 74v245l-75 235q-13 50 -22 71q-11 25 -33 45v6h157v-6q-11 -5 -15 -10t-4 -15q0 -9 3 -21l7 -28l77 -258l52 211q9 33 12 54q3 23 2 33q-2 13 -12 20q-11 8 -28 12v6h90v-6q-9 -4 -16 -9q-6 -5 -11 -17q-7 -18 -11 -33
q-5 -18 -15 -59l-57 -222v-254q0 -55 1 -73q2 -30 4 -42q3 -14 9 -19q7 -5 17 -8v-6h-165v6zM149 807q-23 5 -32 15t-9 26q0 11 8 21q8 9 23 9q12 0 20 -4q12 -6 20 -13l100 -75l-3 -6z" />
    <glyph glyph-name="ygrave" unicode="&#x1ef3;" horiz-adv-x="309" 
d="M36 -171l-2 -1q-23 0 -33 10q-11 11 -11 24q0 16 9 24q10 8 24 8q11 0 18 -3q10 -4 14 -6l12 -6q6 -3 14 -3q11 0 25 17q13 16 33 68l9 33l-104 359q-4 12 -9 30t-7 24q-7 24 -10 30q-4 11 -9 15q-4 4 -12 7v6h147v-6q-10 -1 -16 -6q-5 -4 -7 -15t3 -29q9 -36 13 -50
l53 -210l53 186q13 44 17 65q4 24 3 36q-2 13 -9 17q-8 5 -19 6v6h75v-6q-9 -5 -15 -9q-7 -5 -11 -16q-3 -8 -12 -35q-3 -9 -19 -63l-105 -371q-27 -75 -52 -105q-25 -31 -60 -31zM120 604l1 -2q-13 10 -21 23q-7 11 -7 26q0 14 9 23t24 9q14 0 23 -10q10 -12 20 -30
l62 -120l-6 -4z" />
    <glyph glyph-name="uni2009" unicode="&#x2009;" horiz-adv-x="52" 
 />
    <glyph glyph-name="endash" unicode="&#x2013;" horiz-adv-x="393" 
d="M40 287h313v-12h-313v12z" />
    <glyph glyph-name="emdash" unicode="&#x2014;" horiz-adv-x="747" 
d="M40 287h667v-12h-667v12z" />
    <glyph glyph-name="quoteleft" unicode="&#x2018;" horiz-adv-x="158" 
d="M53 661h-2q5 6 14 11q10 5 23 5q20 0 33 -13q14 -14 14 -36q0 -24 -15 -37q-14 -13 -36 -13t-42 17q-19 16 -19 56q0 47 24 78q24 32 61 51l5 -6q-30 -18 -49 -44q-18 -24 -18 -47q0 -15 7 -22z" />
    <glyph glyph-name="quoteright" unicode="&#x2019;" horiz-adv-x="158" 
d="M104 680l-1 -2q-5 -7 -12 -11q-8 -5 -23 -5q-19 0 -33 14q-13 13 -13 35q0 25 15 38q16 14 36 14q22 0 42 -17t20 -56q0 -46 -24 -78t-61 -51l-5 6q32 20 50 44t18 47q0 14 -9 22z" />
    <glyph glyph-name="quotesinglbase" unicode="&#x201a;" horiz-adv-x="157" 
d="M100 16l-1 -2q-5 -7 -12 -11q-8 -5 -23 -5q-19 0 -33 14q-13 13 -13 35q0 25 15 38q16 14 36 14q22 0 42 -17t20 -56q0 -46 -24 -78t-61 -51l-5 6q32 20 50 44t18 47q0 14 -9 22z" />
    <glyph glyph-name="quotedblleft" unicode="&#x201c;" horiz-adv-x="295" 
d="M53 661h-2q5 6 14 11q10 5 23 5q20 0 33 -13q14 -14 14 -36q0 -24 -15 -37q-14 -13 -36 -13t-42 17q-19 16 -19 56q0 47 24 78q24 32 61 51l5 -6q-30 -18 -49 -44q-18 -24 -18 -47q0 -15 7 -22zM189 661h-1q5 6 14 11q10 5 23 5q20 0 33 -13q14 -14 14 -36q0 -24 -16 -37
t-36 -13q-22 0 -42 17q-19 16 -19 56q0 47 24 78t60 51l5 -6q-30 -18 -49 -44q-18 -24 -18 -47q0 -16 8 -22z" />
    <glyph glyph-name="quotedblright" unicode="&#x201d;" horiz-adv-x="295" 
d="M242 680l-1 -3q-5 -7 -13 -11q-10 -5 -24 -5q-18 0 -32 14t-14 35q0 25 16 38q17 14 36 14q22 0 42 -17t20 -56q0 -47 -24 -78q-24 -32 -61 -51l-4 6q32 20 50 44t18 47q0 8 -3 14t-6 9zM103 677l-1 -2q-5 -7 -12 -11q-8 -5 -23 -5q-19 0 -33 14q-13 13 -13 35
q0 24 15 38q16 14 36 14q22 0 42 -17t20 -56q0 -47 -24 -78q-24 -32 -61 -51l-5 6q32 20 50 44t18 47q0 15 -9 22z" />
    <glyph glyph-name="quotedblbase" unicode="&#x201e;" horiz-adv-x="294" 
d="M241 16l-1 -3q-5 -7 -13 -11q-10 -5 -24 -5q-18 0 -32 14t-14 35q0 25 16 38q17 14 36 14q22 0 42 -17t20 -56q0 -47 -24 -78q-24 -32 -61 -51l-4 6q32 20 50 44t18 47q0 8 -3 14t-6 9zM102 13l-1 -2q-5 -7 -12 -11q-8 -5 -23 -5q-19 0 -33 14q-13 13 -13 35q0 24 15 38
q16 14 36 14q22 0 42 -17t20 -56q0 -47 -24 -78q-24 -32 -61 -51l-5 6q32 20 50 44t18 47q0 15 -9 22z" />
    <glyph glyph-name="dagger" unicode="&#x2020;" horiz-adv-x="310" 
d="M152 -2l-3 -3q-2 62 -4 87q-4 69 -7 102q-3 35 -9 103q-5 51 -9 93q-2 15 -4 39t-3 32q-4 34 -4 36q13 17 25 46t12 55q-14 0 -24 -6q-14 -8 -21 -13q-9 -7 -22 -13q-12 -6 -27 -6q-22 0 -34 13t-12 30t12 29t34 12q15 0 27 -6q13 -6 22 -13q7 -5 21 -13q10 -6 24 -6
q0 13 -6 26q-4 9 -14 27t-14 27q-6 14 -6 27q0 21 13 35q13 15 34 15q19 0 33 -15q13 -14 13 -35q0 -13 -6 -27q-4 -9 -14 -27t-14 -27q-6 -13 -6 -25q13 0 24 6q14 8 21 13q9 7 22 13q12 6 27 6q23 0 35 -12t12 -28q0 -17 -12 -30t-34 -13q-15 0 -27 6q-13 6 -22 13
q-7 5 -21 13q-10 6 -24 6q0 -26 12 -55t25 -46q0 -2 -4 -36q-1 -8 -3 -31t-4 -39q-4 -42 -9 -93q-3 -36 -7 -103q-3 -53 -6 -102t-3 -87h-9z" />
    <glyph glyph-name="daggerdbl" unicode="&#x2021;" horiz-adv-x="338" 
d="M170 -8l-3 -6q-21 0 -34 15q-13 14 -13 35q0 14 6 29q4 10 14 28t14 27q6 14 6 25q-14 0 -24 -6q-14 -8 -21 -13q-9 -7 -22 -13q-12 -6 -27 -6q-22 0 -34 12t-12 29t12 29t34 12q15 0 27 -6q13 -6 22 -13q7 -5 21 -13q10 -6 24 -6q0 77 -13 128q-13 53 -30 87
q17 34 30 87q13 51 13 126q-14 0 -24 -6q-14 -8 -21 -13q-9 -7 -22 -13q-12 -6 -27 -6q-22 0 -34 13q-12 14 -12 30q0 17 12 29t34 12q15 0 27 -6q13 -6 22 -13q7 -5 21 -13q10 -6 24 -6q0 13 -6 26q-4 9 -14 27t-14 27q-6 13 -6 27q0 21 13 35q14 15 34 15q19 0 33 -15
q13 -14 13 -35q0 -14 -6 -27q-4 -9 -14 -27t-14 -27q-6 -13 -6 -25q13 0 24 6q14 8 21 13q9 7 22 13q12 6 27 6q23 0 35 -12t12 -28t-12 -30q-12 -13 -34 -13q-15 0 -27 6q-13 6 -22 13q-7 5 -21 13q-10 6 -24 6q0 -72 14 -126q14 -53 30 -87q-16 -34 -30 -87
q-13 -51 -13 -126q13 0 24 6q14 8 21 13q9 7 22 13q12 6 27 6q23 0 35 -12t12 -29q0 -16 -12 -28t-34 -12q-15 0 -27 6q-13 6 -22 13q-7 5 -21 13q-10 6 -24 6q0 -12 6 -25q4 -9 14 -27t14 -28q6 -15 6 -28q0 -21 -13 -35q-13 -15 -33 -15z" />
    <glyph glyph-name="bullet" unicode="&#x2022;" horiz-adv-x="300" 
d="M150 400q24 0 45 -9t36 -24t24 -36t9 -45t-9 -45t-24 -36t-36 -24t-45 -9t-45 9t-36 24t-24 36t-9 45t9 45t24 36t36 24t45 9z" />
    <glyph glyph-name="ellipsis" unicode="&#x2026;" horiz-adv-x="491" 
d="M410 -12q-25 0 -41 16q-17 17 -17 42t17 42q16 16 41 16q24 0 40 -16t16 -42t-16 -42t-40 -16zM248 -12q-25 0 -41 16q-17 17 -17 42t17 42q16 16 41 16q24 0 40 -16t16 -42t-16 -42t-40 -16zM86 -12q-25 0 -41 16q-17 17 -17 42t17 42q16 16 41 16q24 0 40 -16t16 -42
t-16 -42t-40 -16z" />
    <glyph glyph-name="perthousand" unicode="&#x2030;" horiz-adv-x="750" 
d="M93 0l290 757l12 -6l-291 -758zM130 379h-1q-23 0 -42 15q-21 16 -35 40q-15 26 -24 60t-9 75t9 75t24 60q14 24 35 40q19 15 42 15t44 -15q22 -15 36 -40q15 -26 24 -60t9 -75t-9 -75t-24 -60q-14 -25 -36 -40q-21 -15 -43 -15zM129 388h-2q19 0 30 44q10 41 10 135
q0 95 -10 136q-10 43 -30 43q-18 0 -28 -43q-10 -41 -10 -136q0 -89 11 -135q11 -44 29 -44zM353 -6h-2q-22 0 -43 15q-22 15 -36 40q-15 25 -24 60t-9 75t9 75t24 60q14 25 36 40q21 15 44 15t44 -15q22 -15 36 -40q15 -25 24 -60t9 -75t-9 -75t-24 -60q-14 -25 -36 -40
q-21 -15 -43 -15zM613 -6h-1q-22 0 -42 15q-21 16 -35 40q-15 25 -24 60t-9 75t9 75t24 60q14 24 35 40q20 15 42 15q23 0 44 -15q22 -15 36 -40q15 -25 24 -60t9 -75t-9 -75t-24 -60q-14 -25 -36 -40q-21 -15 -43 -15zM350 3q19 0 30 44q10 41 10 135q0 95 -10 136
q-10 43 -30 43t-30 -43q-10 -41 -10 -136q0 -94 10 -135q11 -44 30 -44zM612 3q19 0 30 44q10 41 10 135q0 95 -10 136q-10 43 -30 43q-18 0 -28 -43q-10 -41 -10 -136q0 -94 10 -135q11 -44 28 -44z" />
    <glyph glyph-name="uni2032" unicode="&#x2032;" horiz-adv-x="127" 
d="M26 566h2q5 35 3 65q-1 20 -1 62q0 66 44 66q20 0 30 -12q10 -11 10 -29q0 -16 -9 -33q-11 -20 -22 -36q-9 -13 -27 -41q-13 -20 -24 -44z" />
    <glyph glyph-name="uni2033" unicode="&#x2033;" horiz-adv-x="238" 
d="M86 566h2q5 35 3 65q-1 20 -1 62q0 66 44 66q20 0 30 -12q10 -11 10 -29q0 -16 -9 -33q-11 -20 -22 -36q-9 -13 -27 -41q-13 -20 -24 -44zM80 566h2q5 35 3 65q-1 20 -1 62q0 66 44 66q20 0 30 -12q10 -11 10 -29q0 -16 -9 -33q-11 -20 -22 -36q-9 -13 -27 -41
q-13 -20 -24 -44z" />
    <glyph glyph-name="guilsinglleft" unicode="&#x2039;" horiz-adv-x="152" 
d="M10 226v8l125 161l6 -4l-56 -161l57 -160l-6 -4z" />
    <glyph glyph-name="guilsinglright" unicode="&#x203a;" horiz-adv-x="152" 
d="M12 70l58 160l-57 161l7 4l125 -161v-8l-126 -160z" />
    <glyph glyph-name="fraction" unicode="&#x2044;" horiz-adv-x="385" 
d="M42 379h301v-8h-301v8z" />
    <glyph glyph-name="Euro" unicode="&#x20ac;" horiz-adv-x="341" 
d="M6 352l42 -5v24v20q0 12 1 18h-43v11h43q5 86 21 149q16 62 41 104q24 41 54 60q31 20 62 20q19 0 36 -7q20 -8 32 -19q14 -12 23 -29q9 -16 9 -36q0 -17 -10 -31q-11 -15 -27 -15q-38 0 -41 43q-1 13 -1 36q0 20 -1 28q-1 12 -6 18t-15 6q-19 0 -34 -18t-24 -57
q-8 -36 -13 -101q-5 -61 -6 -147h100v-11h-100v-62h100v-11h-100q1 -103 11 -171q9 -67 22 -101q14 -36 30 -48t35 -12t39 11t36 30l6 -6q-12 -16 -38 -34q-23 -16 -57 -16t-66 17q-31 16 -57 57q-25 40 -42 107q-17 68 -20 167h-42v11z" />
    <glyph glyph-name="trademark" unicode="&#x2122;" horiz-adv-x="433" 
d="M71 481h-4q6 2 8 3q4 2 5 6q2 6 2 15v28v211q-26 -2 -35 -14t-15 -35h-4l4 47q1 5 3 7q1 1 5 1h136q5 0 6 -1q2 -2 3 -7l5 -47h-5q-6 23 -15 35t-35 14v-211v-28q0 -9 2 -15q1 -4 5 -6q2 -1 8 -3v-5h-79v5zM207 480v-4q6 2 8 4q4 4 5 9q2 8 2 17v30v149v30q0 13 -1 17
q-1 6 -4 7q-2 1 -8 3v5h60h3q1 0 3 -5l28 -151l31 157l3 -1v1h60v-5q-9 -2 -12 -10q-3 -9 -3 -46v-149v-30q0 -8 2 -16q1 -5 5 -7q2 -1 8 -3v-5h-76v5q3 1 7 3q2 1 4 8q2 8 2 17v30v182l-48 -246h-7l-51 260v-196v-30q0 -9 2 -17q1 -5 5 -9q2 -2 8 -4v-4h-36v4z" />
    <glyph glyph-name="onethird" unicode="&#x2153;" horiz-adv-x="385" 
d="M42 379h301v-8h-301v8zM144 465v5q9 2 11 4q4 4 5 10q2 10 2 21v38v199q0 22 -3 30t-18 9v5l85 58v-300v-38q0 -11 2 -21q1 -7 6 -10q4 -2 10 -4v-6h-100zM134 268l-3 -2q2 7 5 13q2 3 6 3h129v-4l-101 -140q13 5 23 5q17 0 32 -6q16 -6 27 -19q13 -15 20 -34
q8 -22 8 -51q0 -30 -9 -54t-24 -39t-33 -24t-38 -9q-32 0 -51 15q-20 15 -20 34q0 10 6 18t20 8q23 0 26 -26q1 -20 3 -31q1 -10 17 -10t27 29q11 30 11 92q0 56 -3 78q-3 23 -19 23q-14 0 -25 -8q-9 -6 -16 -17l-5 3l82 115h-53h-24q-8 0 -14 -2q-4 -1 -7 -6q-4 -6 -7 -10
h-6z" />
    <glyph glyph-name="twothirds" unicode="&#x2154;" horiz-adv-x="385" 
d="M42 379h301v-8h-301v8zM134 269l-3 -2q2 7 5 13q2 3 6 3h129v-4l-101 -140q13 5 23 5q17 0 32 -6q16 -6 27 -19q13 -15 20 -34q8 -22 8 -51q0 -30 -9 -54t-24 -39t-33 -24t-38 -9q-32 0 -51 15q-20 15 -20 34q0 11 6 18q6 8 20 8q23 0 26 -26q1 -20 3 -31q1 -10 17 -10
t27 29q11 30 11 92q0 55 -3 78t-19 23q-14 0 -25 -8q-9 -6 -16 -17l-5 3l82 115h-53h-24q-8 0 -14 -2q-4 -1 -7 -6q-4 -6 -7 -10h-6zM211 517h-6h35q10 0 20 2q6 1 10 5q3 3 6 9h6l-15 -55q-1 -10 -4 -13t-7 -3h-169l45 79q34 59 54 108q19 48 19 103q0 42 -7 60
q-7 19 -25 19q-15 0 -16 -15q-2 -20 -3 -31q-1 -10 -8 -18q-6 -8 -19 -8q-12 0 -18 8q-6 7 -6 18q0 23 23 38q22 15 51 15q17 0 32 -4q16 -4 31 -15t24 -27t9 -42q0 -27 -7 -48q-8 -23 -22 -46q-18 -29 -37 -53q-23 -29 -54 -66l-19 -20h77z" />
    <glyph glyph-name="oneeighth" unicode="&#x215b;" horiz-adv-x="385" 
d="M281 6v1q0 -42 -24 -69t-62 -27t-65 24t-27 64q0 39 19 62q20 24 42 39q-24 26 -36 48t-12 54q0 21 7 35q8 16 18 26q11 11 24 17t29 6q32 0 54 -18q23 -18 23 -56q0 -29 -15 -50q-14 -20 -35 -36l1 -1q31 -32 44 -55q15 -25 15 -64zM158 235l2 -2q0 -32 16 -52
q20 -25 42 -50q8 15 9 33q2 24 2 46q0 43 -10 57q-11 15 -24 15q-17 0 -27 -12q-10 -11 -10 -35zM196 -83q22 0 30 17q8 18 8 39q0 35 -16 60t-45 57l-4 4q-11 -15 -15 -39q-4 -21 -4 -58q0 -34 11 -58q10 -22 35 -22zM44 378h301v-8h-301v8zM136 464v5q9 2 11 4q4 4 5 10
q2 10 2 21v38v199q0 23 -3 30t-18 9v5l85 58v-300v-38q0 -11 2 -21q1 -7 6 -10q4 -2 10 -4v-6h-100z" />
    <glyph glyph-name="threeeighths" unicode="&#x215c;" horiz-adv-x="385" 
d="M281 6h-1q0 -42 -24 -69t-62 -27t-65 24t-27 64q0 39 19 62q19 24 42 39q-25 25 -36 48q-11 24 -11 54q0 21 7 36q7 17 18 27q10 10 24 16q13 6 29 6q32 0 54 -18q23 -18 23 -56q0 -29 -15 -50q-14 -20 -35 -36l1 -1q30 -30 44 -54q15 -26 15 -65zM157 234l2 -2
q0 -32 16 -52q20 -25 42 -50q7 15 9 33q2 24 2 46q0 43 -10 57q-10 15 -24 15q-16 0 -27 -12q-10 -11 -10 -35zM195 -84q22 0 30 17q8 18 8 39q0 35 -16 60q-17 26 -45 57l-4 4q-10 -15 -15 -39q-4 -21 -4 -58q0 -34 11 -58q10 -22 35 -22zM43 377h301v-8h-301v8zM134 818
l-3 -2q2 7 5 13q2 3 6 3h129v-4l-101 -140q13 5 23 5q17 0 32 -6q16 -6 27 -19q13 -15 20 -34q8 -22 8 -51q0 -30 -9 -54t-24 -39t-33 -24t-38 -9q-32 0 -51 15q-20 15 -20 34q0 10 6 18t20 8q23 0 26 -26q1 -20 3 -31q1 -10 17 -10t27 29q11 30 11 92q0 56 -3 78
q-3 23 -19 23q-14 0 -25 -8q-9 -6 -16 -17l-5 3l82 115h-53h-24q-8 0 -14 -2q-4 -1 -7 -6q-4 -6 -7 -10h-6z" />
    <glyph glyph-name="fiveeighths" unicode="&#x215d;" horiz-adv-x="385" 
d="M157 783l-15 -91q8 8 16 12q10 5 20 5q20 0 36 -4q19 -5 32 -18q14 -14 23 -36q9 -23 9 -57q0 -32 -9 -58t-24 -42q-15 -17 -34 -24q-21 -8 -39 -8q-26 0 -45 15t-19 35q0 11 7 17t18 6q23 0 24 -24v-15v-14q0 -6 3 -10t11 -4q41 0 41 128q0 54 -7 78q-8 26 -28 26
q-15 0 -23 -7q-10 -8 -14 -15l-5 1l22 157h120l-13 -47q-2 -6 -6 -6h-101zM279 6q0 -42 -24 -69t-62 -27t-65 24t-27 64q0 39 19 62q20 24 42 39q-26 25 -36 48q-11 24 -11 54q0 41 24 63q23 22 53 22q32 0 54 -18q23 -18 23 -56q0 -29 -15 -50q-14 -20 -35 -36l1 -1
q30 -30 44 -54q15 -26 15 -65zM155 234l1 -3q0 -30 17 -52q13 -17 42 -49q7 15 9 33q2 24 2 46q0 43 -10 57q-10 15 -24 15q-16 0 -27 -12q-10 -11 -10 -35zM193 -85q22 0 30 17q8 18 8 39q0 35 -16 60q-17 25 -45 57l-4 4q-10 -15 -15 -39q-4 -21 -4 -58q0 -34 11 -58
q10 -22 35 -22zM41 376h301v-8h-301v8z" />
    <glyph glyph-name="seveneighths" unicode="&#x215e;" horiz-adv-x="385" 
d="M183 465l-8 1l87 318h-77q-32 0 -39 -4q-8 -4 -12 -15h-7l19 67q1 4 7 4h131v-2zM281 7h-1q0 -42 -24 -69t-62 -27t-65 24t-27 64q0 39 19 62q19 24 42 39q-25 26 -36 48q-11 24 -11 54q0 21 7 36q7 16 18 27q10 10 24 16q13 6 29 6q32 0 54 -18q23 -18 23 -56
q0 -29 -15 -50q-14 -20 -35 -36l1 -1q30 -30 44 -54q15 -25 15 -65zM157 235l2 -2q0 -32 16 -52q20 -25 42 -50q7 15 9 33q2 24 2 46q0 43 -10 57q-10 15 -24 15q-16 0 -27 -12q-10 -11 -10 -35zM195 -83q22 0 30 17q8 18 8 39q0 35 -16 60q-17 25 -45 57l-4 4
q-10 -15 -15 -39q-4 -21 -4 -58q0 -34 11 -58q10 -22 35 -22zM43 378h301v-8h-301v8z" />
    <glyph glyph-name="arrowleft" unicode="&#x2190;" horiz-adv-x="774" 
d="M37 361h-2q33 8 76 28q42 20 90 50q45 28 83 65q38 36 57 75l8 -3q-13 -49 -28 -81q-18 -37 -34 -60q-17 -24 -39 -43q-20 -17 -43 -31h523v-10h-523q23 -14 43 -31q22 -19 39 -43q20 -28 35 -60t28 -81l-8 -3q-20 39 -57 75q-39 37 -82 66q-47 31 -90 50q-46 20 -76 27
v10z" />
    <glyph glyph-name="arrowright" unicode="&#x2192;" horiz-adv-x="774" 
d="M45 361l522 -1q-23 14 -43 31q-22 19 -39 43q-16 23 -34 60q-15 32 -28 81l8 3q19 -39 57 -75q39 -38 81 -65q45 -29 89 -50q43 -20 76 -28v-10q-30 -7 -76 -27t-88 -49q-44 -30 -81 -66t-57 -75l-8 3q13 49 28 81t35 60q17 24 39 43q20 17 43 31h-524v10z" />
    <glyph glyph-name="minus" unicode="&#x2212;" horiz-adv-x="297" 
d="M27 357h243v-12h-243v12z" />
    <glyph glyph-name="uni24C5" unicode="&#x24c5;" horiz-adv-x="454" 
d="M228 759v-2q40 0 78 -24t66 -72t45 -120q17 -74 17 -167q0 -92 -17 -166q-16 -71 -45 -121q-28 -49 -66 -73t-78 -24t-78 24q-37 24 -66 74t-45 121q-17 74 -17 167t17 167q17 72 45 120t66 72t78 24zM228 -4l-4 -2q38 0 74 24t63 71q28 48 44 117q17 73 17 165
q0 97 -16 165q-17 72 -43 117q-27 47 -63 71t-73 24q-38 0 -74 -24t-63 -70q-28 -48 -44 -117q-16 -68 -16 -165q0 -92 17 -165q16 -69 44 -117q27 -46 63 -70t74 -24zM123 160h-1q6 1 12 5q4 3 6 11q2 10 2 24v43v252v43q0 14 -2 24q-2 8 -6 11q-6 4 -12 5v5h100
q22 0 49 -5q23 -4 42 -17q17 -11 28 -33t11 -53q0 -30 -11 -55q-10 -23 -29 -39q-17 -14 -42 -22q-22 -7 -49 -7h-5v-109v-43q0 -14 2 -24q2 -8 6 -11q6 -4 12 -5v-6h-113v6zM214 576l-2 -216h3q11 0 23 5q11 5 20 17t15 33t6 53q0 34 -6 55q-6 22 -13 33t-18 16q-9 4 -21 4
h-7z" />
    <glyph glyph-name="space_uni0326" horiz-adv-x="500" 
d="M282 -111q-2 -4 -12 -10q-9 -6 -23 -6q-17 0 -31 12q-13 12 -13 33q0 23 15 35t34 12q22 0 39 -15t17 -47q0 -40 -23 -61q-23 -22 -57 -26l-3 7q32 6 47 21t15 33q0 9 -5 12z" />
    <glyph glyph-name="A.alt" horiz-adv-x="341" 
d="M298 137v-3q7 -31 12 -59q4 -24 9 -39q4 -14 9 -22q4 -7 12 -10v-6h-148q-2 0 -2 3t2 3q5 1 13 5q6 3 9 12q3 10 2 25q-2 19 -7 43l-24 129h-120l-18 -97q-8 -38 -9 -58q-2 -23 1 -33q3 -12 11 -17q9 -5 20 -8v-6h-71v6q7 5 12 12t9 21q6 16 8 34q3 19 9 52l120 634h17z
M183 226l-58 309l-58 -309h116z" />
    <glyph glyph-name="G.alt" horiz-adv-x="412" 
d="M231 -10l-9 1q-46 0 -84 26t-65 75t-42 122q-15 72 -15 167q0 99 19 168q20 72 49 117q30 46 66 69q35 22 71 22q18 0 29 -4q12 -5 21 -9l18 -9q8 -4 20 -4q7 0 12 6q4 6 9 20h6v-165h-6q-18 86 -45 122t-61 36q-22 0 -40 -19t-30 -62q-11 -39 -19 -111q-7 -64 -7 -166
q0 -202 29 -298q28 -94 72 -94q18 0 27 6t12 17t3 24v30v73q0 99 -1 130q-2 46 -6 69q-5 23 -13 29q-9 6 -24 9v6h139v-378h-7q-1 9 -5 20q-3 9 -10 9q-8 0 -18 -9q-12 -10 -25 -18q-15 -9 -33 -18t-37 -9z" />
    <glyph glyph-name="J.alt" horiz-adv-x="201" 
d="M-50 -156v-2q-30 0 -42 14t-12 30t9 27q9 10 23 10q13 0 24 -8q10 -8 20 -17l17 -17q8 -8 17 -8h7q2 0 7 3q7 5 11 12q5 8 9 22q4 13 7 40q3 26 3 66v585q0 56 -1 74q-2 31 -4 41q-3 14 -9 18q-7 5 -17 8v6h166v-6q-10 -3 -17 -8q-6 -4 -9 -18q-2 -10 -4 -41
q-1 -18 -1 -74v-505q0 -49 -13 -84q-13 -36 -33 -63q-20 -28 -40 -45q-24 -20 -37 -30q-25 -18 -45 -24t-36 -6z" />
    <glyph glyph-name="J.alt1" horiz-adv-x="323" 
d="M174 602l-3 -1q0 56 -1 74q-2 31 -4 41q-3 14 -9 18q-7 5 -17 8v6h166v-6q-10 -3 -17 -8q-6 -4 -9 -18q-2 -10 -4 -41q-1 -18 -1 -74v-445q0 -38 -12 -70t-31 -52q-20 -21 -46 -33q-27 -12 -57 -12q-65 0 -99 26q-33 25 -33 60q0 18 12 30t31 12t31 -12q13 -13 14 -34
q1 -34 14 -54q12 -19 31 -18q11 0 18 4q8 5 14 15t9 30t3 51v503z" />
    <glyph glyph-name="K.alt" horiz-adv-x="411" 
d="M19 6l-2 -4q10 3 17 8q6 4 9 18q2 10 4 41q1 18 1 74v454q0 56 -1 74q-2 31 -4 41q-3 14 -9 18q-7 5 -17 8v6h165v-6q-10 -3 -17 -8q-6 -4 -9 -18q-2 -10 -4 -41q-1 -18 -1 -74v-197l152 255q24 41 18 60t-24 25v6h87v-6q-12 -5 -18 -10q-8 -6 -15 -15q-9 -11 -17 -24
q-17 -28 -23 -39l-148 -248q21 21 50 21q27 0 51 -11q22 -10 39 -36q17 -27 29 -66q13 -43 20 -101q10 -79 13 -96q4 -26 11 -61q4 -21 11 -33q6 -10 14 -10q4 0 11 5q6 5 11 11l6 -5q-7 -13 -24 -22t-43 -9q-24 0 -43 8q-18 7 -30 26q-11 16 -19 47q-6 24 -13 69
q-4 32 -16 137q-8 69 -10 83q-5 31 -12 41q-8 11 -21 11q-22 0 -45 -29v-237q0 -56 1 -74q2 -31 4 -41q3 -14 9 -18q7 -5 17 -8v-6h-165v6z" />
    <glyph glyph-name="Q.alt" horiz-adv-x="431" 
d="M216 -10l-3 -3q-34 0 -67 24t-60 74q-28 51 -44 121q-17 74 -17 167q0 96 17 170q16 71 44 119q28 47 60 71q33 24 68 24t68 -24q34 -24 60 -70q28 -48 44 -119q17 -74 17 -169q0 -105 -19 -178q-20 -76 -49 -124l20 -26q5 -6 11 -13t9.5 -11t5.5 -6q5 -7 17 -10v-6h-76
q-4 0 -8 2t-11 9l-9 11q-38 -33 -78 -33zM213 -3h-4q38 0 56 52l-90 115l-18 24q-7 8 -19 11v6h80q5 0 7 -1q3 -2 9 -9l49 -63q5 47 6 106q2 80 2 132q1 183 -18 279t-60 96t-61 -96q-19 -94 -19 -276q0 -178 18 -277t62 -99z" />
    <glyph glyph-name="R.alt" horiz-adv-x="403" 
d="M19 6l3 1q10 3 17 8q6 5 9 18q2 10 4 41q1 18 1 74v454q0 56 -1 74q-2 31 -4 41q-3 13 -9 18q-7 5 -17 8v6h140q40 0 78 -6t66 -25q30 -20 47 -55q18 -36 18 -95q0 -60 -27 -106t-76 -70l94 -313q5 -16 12 -37q4 -14 9 -21q4 -7 9 -10q4 -3 14 -6v-6h-124l-111 371h-17
v-223q0 -56 1 -74q1 -25 5 -41q3 -14 9 -18q7 -5 17 -8v-6h-167v6zM156 742l-2 -360h17q31 0 52 15t32 41q10 25 15 62q5 40 5 76q0 50 -8 85q-8 34 -22 51q-15 18 -36 24t-48 6h-5z" />
    <glyph glyph-name="W.alt" horiz-adv-x="554" 
d="M47 623l-2 -2q-7 29 -12 48t-9 33q-5 16 -10 23q-7 10 -15 17v7h155v-7q-22 -8 -24 -24q-1 -16 9 -58l107 -473l42 187l-55 247q-7 29 -12 48t-9 33q-4 13 -11 23q-6 9 -17 15v7h152v-7q-21 -6 -21 -22t9 -60l94 -467l79 429l7 42q3 20 0 35q-3 16 -12 26q-9 11 -27 18v7
h90v-7q-5 -3 -13 -9q-6 -4 -12 -17q-6 -12 -12 -33q-6 -20 -12 -59l-115 -628h-17l-80 357l-81 -357h-17z" />
    <glyph glyph-name="s.alt" horiz-adv-x="272" 
d="M144 -5h-3q-28 0 -54 8q-22 7 -40 20q-17 12 -24 27q-8 16 -8 30q0 33 32 33q21 0 29 -12q8 -13 11 -31q5 -32 13 -49q9 -18 41 -18q27 0 42 20q15 19 15 47q0 29 -19 60q-21 34 -64 77q-30 26 -45 43q-17 19 -28 37q-10 18 -15 36q-4 16 -4 39q0 24 9 45t24 36t35 24
q19 9 42 9t42 -6q21 -6 35 -15t24 -23q9 -14 9 -30q0 -11 -7 -19q-8 -9 -22 -9q-20 0 -29 12t-12 29q-3 28 -12 40t-28 12q-61 0 -61 -56q0 -12 5 -25q4 -11 15 -25q10 -13 27 -30l39 -39q27 -24 49 -48q19 -21 30 -42t15 -40q4 -17 4 -44q0 -26 -11 -50q-11 -22 -27 -39
q-16 -16 -36 -25t-38 -9z" />
    <glyph glyph-name="t.alt" horiz-adv-x="211" 
d="M17 6l-2 -2q6 1 12 5q5 3 8 12t3 24v42v366h-28v8q19 3 36 13q18 10 33 30t27 48q12 29 18 67h9v-154h72v-10h-72v-366q0 -31 1 -41q1 -13 5 -24q3 -9 11 -12t19 -6v-6h-152v6z" />
    <glyph glyph-name="w.alt" horiz-adv-x="442" 
d="M39 355l-4 2q-5 18 -13 54q-7 29 -7 30q-3 11 -6 14t-10 6v6h135v-6q-9 -3 -15 -6t-7 -13q-1 -9 2 -30q2 -11 11 -52l47 -194l70 310h14l83 -320l38 182q9 42 12 66t0 36t-13 15q-12 3 -25 6v6h90v-6q-12 -4 -17 -7q-6 -4 -10 -16t-9 -36q-1 -5 -14 -66l-72 -341h-18
l-86 298l-67 -298h-18z" />
    <glyph glyph-name="Aacute.alt" horiz-adv-x="341" 
d="M298 137v-3q7 -31 12 -59q4 -24 9 -39q4 -14 9 -22q4 -7 12 -10v-6h-148q-2 0 -2 3t2 3q5 1 13 5q6 3 9 12q3 10 2 25q-2 19 -7 43l-24 129h-120l-18 -97q-8 -38 -9 -58q-2 -23 1 -33q3 -12 11 -17q9 -5 20 -8v-6h-71v6q7 5 12 12t9 21q6 16 8 34q3 19 9 52l120 634h17z
M183 226l-58 309l-58 -309h116zM91 786l98 74q23 18 42 18q16 0 23 -9q8 -10 8 -21q0 -16 -9 -26t-32 -15l-127 -27z" />
    <glyph glyph-name="Abreve.alt" horiz-adv-x="341" 
d="M298 137v-3q7 -31 12 -59q4 -24 9 -39q4 -14 9 -22q4 -7 12 -10v-6h-148q-2 0 -2 3t2 3q5 1 13 5q6 3 9 12q3 10 2 25q-2 19 -7 43l-24 129h-120l-18 -97q-8 -38 -9 -58q-2 -23 1 -33q3 -12 11 -17q9 -5 20 -8v-6h-71v6q7 5 12 12t9 21q6 16 8 34q3 19 9 52l120 634h17z
M183 226l-58 309l-58 -309h116zM164 839l-2 -1q26 0 43 9q16 8 25 29h9q-1 -44 -21 -70q-19 -25 -54 -25t-56 26q-20 25 -22 72h9q16 -40 69 -40z" />
    <glyph glyph-name="Acircumflex.alt" horiz-adv-x="341" 
d="M298 137v-3q7 -31 12 -59q4 -24 9 -39q4 -14 9 -22q4 -7 12 -10v-6h-148q-2 0 -2 3t2 3q5 1 13 5q6 3 9 12q3 10 2 25q-2 19 -7 43l-24 129h-120l-18 -97q-8 -38 -9 -58q-2 -23 1 -33q3 -12 11 -17q9 -5 20 -8v-6h-71v6q7 5 12 12t9 21q6 16 8 34q3 19 9 52l120 634h17z
M183 226l-58 309l-58 -309h116zM163 893l110 -109l-3 -6l-107 44l-106 -44l-3 6z" />
    </font>
</defs>
</svg>
