<?xml version="1.0" standalone="no"?>
<!DOCTYPE svg PUBLIC "-//W3C//DTD SVG 1.1//EN" "http://www.w3.org/Graphics/SVG/1.1/DTD/svg11.dtd" >
<svg xmlns="http://www.w3.org/2000/svg" xmlns:xlink="http://www.w3.org/1999/xlink" version="1.1">
<metadata>
Created by FontForge 20170731 at Sat Sep  1 00:21:25 2018
 By Aleksey,,,
Copyright (c) 2018 Commercial Type, Inc.. All rights reserved.
</metadata>
<defs>
<font id="SchnyderCondLDemi" horiz-adv-x="615" >
  <font-face 
    font-family="Schnyder Cond L Demi"
    font-weight="400"
    font-stretch="condensed"
    units-per-em="1000"
    panose-1="0 0 0 0 0 0 0 0 0 0"
    ascent="800"
    descent="-200"
    x-height="464"
    cap-height="751"
    bbox="-101 -296 951 1038"
    underline-thickness="16"
    underline-position="-124"
    unicode-range="U+000D-FB04"
  />
<missing-glyph horiz-adv-x="180" 
 />
    <glyph glyph-name="f_f" unicode="ff" horiz-adv-x="451" 
d="M241 7l4 1q12 3 18 9t9 18t3 35v60v328h-123v-328q0 -45 1 -60q1 -22 6 -34t15 -18t29 -9v-7h-177v7q12 3 18 9t9 18t3 35v60v328h-48v8q31 4 40 16t9 45v46q0 54 16 89q17 37 40 57q24 21 53 30t53 9q37 0 63 -12t33 -31q22 25 50 36t50 11q38 0 65 -15t27 -40
q0 -11 -8 -22q-7 -10 -24 -10q-19 0 -28 9q-8 8 -13 26q-5 26 -9 35q-5 9 -15 9t-17 -6q-8 -7 -14 -21q-6 -15 -9 -39t-3 -61v-162h84v-10h-84v-328q0 -45 1 -60q1 -22 6 -34q4 -12 15 -18q10 -6 29 -9v-7h-177v7zM278 467l-1 115q0 48 14 85q-17 0 -24 9t-12 26
q-4 27 -11 37q-6 9 -24 9q-14 0 -26 -6t-21 -21q-8 -14 -13 -40q-5 -28 -5 -64v-150h123z" />
    <glyph glyph-name="f_i" unicode="fi" horiz-adv-x="423" 
d="M24 7l-3 -2q12 3 18 9t9 18t3 35v60v328h-48v8q31 4 40 16t9 46v57q0 50 15 85q15 34 36 55t47 30t46 9q38 0 63 -13q26 -14 26 -39q0 -11 -8 -22q-7 -10 -24 -10q-19 0 -27 9q-7 9 -12 26q-4 23 -8 33q-3 8 -14 8q-10 0 -17 -6q-8 -7 -14 -21q-6 -15 -9 -39t-3 -61v-162
h87l130 11v-349v-60q0 -21 5 -34q5 -12 12 -18t21 -9v-7h-167v7q13 3 21 9t11 18t3 35v60v222v58q0 21 -3 31t-11 13q-9 4 -21 5h-87v-328q0 -45 1 -60q1 -22 6 -34t15 -18t29 -9v-7h-177v7zM318 539v-1q-23 0 -38 15t-15 38t15 38t38 15t38 -15t15 -37q0 -23 -15 -38
t-38 -15z" />
    <glyph glyph-name="f_l" unicode="fl" horiz-adv-x="423" 
d="M24 7l1 -2q12 3 18 9t9 18t3 35v60v328h-48v8q31 4 40 16t9 46v47q0 54 15 90q15 35 38 57q22 21 50 30q27 9 50 9q39 0 65 -15t26 -40q0 -11 -7 -21t-24 -10q-19 0 -26 9q-8 10 -11 26q-4 27 -11 35q-6 8 -17 8q-24 0 -39 -27t-15 -97v-160h73v-10h-73v-328q0 -45 1 -60
q1 -22 6 -34t15 -18t29 -9v-7h-177v7zM240 5l-1 -2q13 3 21 9t11 18t3 35v60v473v54q0 21 -4 29q-5 10 -12 11q-8 2 -21 3v7l132 72v-648v-60q0 -21 5 -34q4 -12 12 -18t21 -9v-7h-167v7z" />
    <glyph glyph-name="f_f_i" unicode="ffi" horiz-adv-x="640" 
d="M24 7l2 -1q12 3 18 9t9 18t3 35v60v328h-48v8q31 4 40 16t9 45v46q0 54 16 89q17 37 40 57q24 21 53 30t53 9q37 0 63 -12t33 -31q22 25 50 36t50 11q38 0 63 -13q26 -14 26 -39q0 -11 -8 -22q-7 -10 -24 -10q-20 0 -27 9t-12 26q-4 23 -8 33q-3 8 -14 8q-9 0 -17 -6
q-8 -7 -14 -21q-6 -15 -9 -39t-3 -61v-162h87l130 11v-349v-60q0 -21 5 -34q4 -12 12 -18t21 -9v-7h-167v7q14 3 21 9q8 7 11 18q3 12 3 35v60v222v58q0 20 -3 31q-3 10 -11 13q-9 4 -21 5h-87v-328q0 -45 1 -60q1 -22 6 -34q4 -12 15 -18q10 -6 29 -9v-7h-177v7q12 3 18 9
t9 18t3 35v60v328h-123v-328q0 -45 1 -60q1 -22 6 -34t15 -18t29 -9v-7h-177v7zM276 465l-1 115q0 28 4 47q5 22 12 38q-19 0 -26 9t-12 26q-4 27 -11 37q-6 9 -24 9q-14 0 -26 -6t-21 -21q-8 -14 -13 -40q-5 -28 -5 -64v-150h123zM539 540v-1q-23 0 -38 15t-15 38t15 38
t38 15t38 -15t15 -37q0 -23 -15 -38t-38 -15z" />
    <glyph glyph-name="f_f_l" unicode="ffl" horiz-adv-x="640" 
d="M241 7l2 -2q12 3 18 9t9 18t3 35v60v328h-123v-328q0 -45 1 -60q1 -22 6 -34t15 -18t29 -9v-7h-177v7q12 3 18 9t9 18t3 35v60v328h-48v8q31 4 40 16t9 45v46q0 54 16 89q17 37 40 57q24 21 53 30q28 9 53 9q41 0 66 -13q26 -14 32 -34q26 28 55 38q31 11 56 11
q39 0 65 -15t26 -40q0 -11 -7 -21t-24 -10q-18 0 -26 9q-8 10 -11 26q-4 27 -11 35q-6 8 -17 8q-24 0 -39 -27t-15 -97v-160h73v-10h-73v-328q0 -45 1 -60q1 -22 6 -34q4 -12 15 -18q10 -6 29 -9v-7h-177v7zM276 464l1 108q0 26 5 51q4 23 12 42h-3q-19 0 -26 9t-12 26
q-4 26 -11 36q-6 9 -24 9q-15 0 -27 -6t-21 -21q-8 -14 -13 -40q-4 -23 -4 -64v-150h123zM459 7l-1 -2q14 3 21 9q8 6 11 18t3 35v60v473v54q0 21 -4 29q-5 10 -12 11q-7 2 -21 3v7l132 72v-648v-60q0 -21 5 -34q5 -12 12 -18t21 -9v-7h-167v7z" />
    <glyph glyph-name="f_b" unicode="fb" horiz-adv-x="686" 
d="M24 7l1 -2q12 3 18 9t9 18t3 35v60v328h-48v8q31 4 40 16t9 46v47q0 54 15 90q15 35 38 57q22 21 50 30q27 9 50 9q39 0 65 -15t26 -40q0 -11 -7 -21t-24 -10q-19 0 -26 9q-8 10 -11 26q-4 27 -11 35q-6 8 -17 8q-24 0 -39 -27t-15 -97v-160h73v-10h-73v-328q0 -45 1 -60
q1 -22 6 -34t15 -18t29 -9v-7h-177v7zM452 -9l-5 -2q-28 0 -48 7q-25 9 -39 16q-22 11 -31 16q-13 7 -27 7q-13 0 -17 -7q-5 -8 -6 -13h-7v585q0 41 -1 54q-2 22 -4 30q-3 10 -11 12t-21 3v7l130 68v-385l4 5q31 38 60 57q29 20 66 20q30 0 59 -13q31 -14 54 -40
q24 -27 39 -70q15 -44 15 -102q0 -62 -16 -109q-16 -48 -45 -81q-28 -33 -67 -49q-38 -16 -82 -16zM386 18l1 3q12 -9 24 -14q13 -6 36 -6q51 0 82 54q31 53 31 176q0 67 -7 108q-8 45 -19 69q-12 26 -28 36q-17 11 -33 11q-24 0 -48 -18t-58 -58l-4 -5v-280q0 -32 6 -49
q6 -16 17 -27z" />
    <glyph glyph-name="f_f_b" unicode="ffb" horiz-adv-x="903" 
d="M241 7l1 -2q12 3 18 9t9 18t3 35v60v328h-123v-328q0 -45 1 -60q1 -22 6 -34q4 -12 15 -18q10 -6 29 -9v-7h-177v7q12 3 18 9t9 18t3 35v60v328h-48v8q31 4 40 16t9 45v46q0 54 16 89t41 57q24 21 53 30q28 9 53 9q41 0 66 -13q26 -14 32 -34q26 28 55 38q31 11 56 11
q39 0 65 -15t26 -40q0 -11 -7 -21t-24 -10q-18 0 -26 9q-8 10 -11 26q-4 27 -11 35q-6 8 -17 8q-24 0 -39 -27t-15 -97v-160h73v-10h-73v-328q0 -45 1 -60q1 -22 6 -34q4 -12 15 -18q10 -6 29 -9v-7h-177v7zM275 464l1 108q0 26 5 51q5 23 12 42h-3q-18 0 -26 9q-7 9 -12 26
q-4 26 -11 36q-6 9 -24 9q-14 0 -26 -6t-21 -21q-8 -14 -13 -40q-5 -28 -5 -64v-150h123zM670 -7l-5 -2q-28 0 -48 7q-25 9 -39 16q-22 11 -31 16q-13 7 -27 7q-13 0 -17 -7q-5 -8 -6 -13h-7v585q0 41 -1 54q-2 22 -4 30q-3 10 -11 12t-21 3v7l130 68v-385l4 5q31 38 60 57
q29 20 66 20q30 0 59 -13q31 -14 54 -40q24 -27 39 -70q15 -44 15 -102q0 -62 -16 -109q-16 -48 -45 -81q-28 -33 -67 -49q-38 -16 -82 -16zM604 20l1 3q12 -9 24 -14q13 -6 36 -6q51 0 82 54q31 53 31 176q0 67 -7 108q-8 45 -19 69q-12 26 -28 36q-17 11 -33 11
q-24 0 -48 -18t-58 -58l-4 -5v-280q0 -33 6 -49t17 -27z" />
    <glyph glyph-name="f_f_h" unicode="ffh" horiz-adv-x="895" 
d="M241 7l1 -2q12 3 18 9t9 18t3 35v60v328h-123v-328q0 -45 1 -60q1 -22 6 -34q4 -12 15 -18q10 -6 29 -9v-7h-177v7q12 3 18 9t9 18t3 35v60v328h-48v8q31 4 40 16t9 45v46q0 54 16 89t41 57q24 21 53 30q28 9 53 9q41 0 66 -13q26 -14 32 -34q26 28 55 38q31 11 56 11
q39 0 65 -15t26 -40q0 -11 -7 -21t-24 -10q-18 0 -26 9q-8 10 -11 26q-4 27 -11 35q-6 8 -17 8q-24 0 -39 -27t-15 -97v-160h73v-10h-73v-328q0 -45 1 -60q1 -22 6 -34q4 -12 15 -18q10 -6 29 -9v-7h-177v7zM275 464l1 108q0 26 5 51q5 23 12 42h-3q-18 0 -26 9q-7 9 -12 26
q-4 26 -11 36q-6 9 -24 9q-14 0 -26 -6t-21 -21q-8 -14 -13 -40q-5 -28 -5 -64v-150h123zM460 7l4 1q11 3 19 9q8 7 11 18q3 12 3 35v60v469q0 43 -1 56q-2 22 -4 29q-3 9 -11 11l-21 3v7l131 72v-396l13 13q44 44 75 63t66 19q18 0 36 -6q19 -6 33 -19q15 -13 24 -36t9 -54
v-233v-60q0 -22 3 -34t10 -18q8 -6 21 -9v-7h-165v7q14 3 21 9q8 6 11 18q4 15 5 35q1 15 1 60v257q0 39 -13 53q-13 15 -33 15q-16 0 -42 -15q-25 -15 -67 -58l-13 -13v-240v-60q0 -21 5 -34q5 -12 12 -18t21 -9v-7h-164v7z" />
    <glyph glyph-name="f_f_j" unicode="ffj" horiz-adv-x="639" 
d="M241 7l-1 -4q12 3 18 9t9 18t3 35v60v328h-123v-328q0 -45 1 -60q1 -22 6 -34q4 -12 15 -18q10 -6 29 -9v-7h-177v7q12 3 18 9t9 18t3 35v60v328h-48v8q31 4 40 16t9 45v46q0 54 16 89q17 37 40 57q24 21 53 30t53 9q38 0 63 -12q26 -12 33 -31q22 25 50 36t50 11
q38 0 63 -13q26 -14 26 -39q0 -11 -8 -22q-7 -10 -24 -10q-19 0 -27 9q-7 9 -12 26q-4 23 -8 33q-3 8 -14 8q-9 0 -17 -6q-8 -7 -14 -21q-6 -15 -9 -39t-3 -61v-162h87l130 11v-411q0 -64 -22 -102t-66 -70q-30 -21 -46 -26q-18 -6 -37 -6q-17 0 -30 9t-13 27q0 16 10 25
t24 9q13 0 22 -6q6 -4 16 -14l14 -14q6 -6 14 -6q6 0 11 4q3 3 6 9q2 5 4 18q2 16 2 32v51v351v56q0 20 -3 30t-11 13q-9 4 -21 5h-87v-328q0 -45 1 -60q1 -22 6 -34q4 -12 15 -18q10 -6 29 -9v-7h-177v7zM273 462l-1 115q0 28 4 47q5 22 12 38q-18 0 -26 9q-7 9 -12 26
q-4 27 -11 37q-6 9 -24 9q-14 0 -26 -6t-21 -21q-8 -14 -13 -40q-5 -28 -5 -64v-150h123zM536 537v-1q-23 0 -38 15t-15 38t15 38t38 15t38 -15t15 -37q0 -23 -15 -38t-38 -15z" />
    <glyph glyph-name="f_f_k" unicode="ffk" horiz-adv-x="856" 
d="M241 7l1 -2q12 3 18 9t9 18t3 35v60v328h-123v-328q0 -45 1 -60q1 -22 6 -34q4 -12 15 -18q10 -6 29 -9v-7h-177v7q12 3 18 9t9 18t3 35v60v328h-48v8q31 4 40 16t9 45v46q0 54 16 89t41 57q24 21 53 30q28 9 53 9q41 0 66 -13q26 -14 32 -34q26 28 55 38q31 11 56 11
q39 0 65 -15t26 -40q0 -11 -7 -21t-24 -10q-18 0 -26 9q-8 10 -11 26q-4 27 -11 35q-6 8 -17 8q-24 0 -39 -27t-15 -97v-160h73v-10h-73v-328q0 -45 1 -60q1 -22 6 -34q4 -12 15 -18q10 -6 29 -9v-7h-177v7zM275 464l1 108q0 26 5 51q5 23 12 42h-3q-18 0 -26 9q-7 9 -12 26
q-4 26 -11 36q-6 9 -24 9q-14 0 -26 -6t-21 -21q-8 -14 -13 -40q-5 -28 -5 -64v-150h123zM460 7l-1 -1q11 3 19 9q8 7 11 18q3 12 3 35v60v473q0 41 -1 54q-2 21 -4 28q-3 9 -11 11t-21 3v7l131 72v-648v-60q0 -21 5 -34q5 -12 12 -18t21 -9v-7h-164v7zM697 6h-2q16 3 22 14
q6 10 -11 38l-117 186v6l155 148q16 14 20 24q5 11 2 18q-3 8 -12 12q-9 5 -19 6v6h108v-6q-12 -3 -19 -7t-19 -12q-13 -10 -24 -19q-5 -4 -15.5 -14t-15.5 -15l-92 -88l158 -251q16 -25 26 -35t18 -11v-7h-163v7z" />
    <glyph glyph-name="f_h" unicode="fh" horiz-adv-x="678" 
d="M24 7l1 -2q12 3 18 9t9 18t3 35v60v328h-48v8q31 4 40 16t9 46v47q0 54 15 90q15 35 38 57q22 21 50 30q27 9 50 9q39 0 65 -15t26 -40q0 -11 -7 -21t-24 -10q-19 0 -26 9q-8 10 -11 26q-4 27 -11 35q-6 8 -17 8q-24 0 -39 -27t-15 -97v-160h73v-10h-73v-328q0 -45 1 -60
q1 -22 6 -34t15 -18t29 -9v-7h-177v7zM242 5l4 1q11 3 19 9q8 7 11 18q3 12 3 35v60v469q0 43 -1 56q-2 22 -4 29q-3 9 -11 11l-21 3v7l131 72v-396l13 13q44 44 75 63t66 19q18 0 36 -6q19 -6 33 -19q15 -13 24 -36t9 -54v-233v-60q0 -22 3 -34t10 -18q8 -6 21 -9v-7h-165
v7q14 3 21 9q8 6 11 18q4 15 5 35q1 15 1 60v257q0 39 -13 53q-13 15 -33 15q-16 0 -42 -15q-25 -15 -67 -58l-13 -13v-240v-60q0 -21 5 -34q5 -12 12 -18t21 -9v-7h-164v7z" />
    <glyph glyph-name="f_j" unicode="fj" horiz-adv-x="422" 
d="M24 7l-6 -5q12 3 18 9t9 18t3 35v60v328h-48v8q31 4 40 16t9 46v57q0 51 15 85t36 55t47 30q25 9 46 9q38 0 63 -13q26 -14 26 -39q0 -11 -8 -22q-7 -10 -24 -10q-20 0 -27 9t-12 26q-4 23 -8 33q-3 8 -14 8q-10 0 -17 -6q-8 -7 -14 -21q-6 -15 -9 -39t-3 -61v-162h87
l130 11v-411q0 -64 -22 -102t-66 -70q-30 -21 -46 -26q-18 -6 -37 -6q-16 0 -30 9q-13 9 -13 27q0 16 10 25q11 9 24 9t22 -6q6 -4 16 -14l14 -14q6 -6 14 -6q6 0 11 4q3 3 6 9q2 5 4 18q2 16 2 32v51v351v56q0 20 -3 30t-11 13q-9 4 -21 5h-87v-328q0 -45 1 -60
q1 -22 6 -34t15 -18t29 -9v-7h-177v7zM315 536v-1q-23 0 -38 15t-15 38t15 38t38 15t38 -15t15 -37q0 -23 -15 -38t-38 -15z" />
    <glyph glyph-name="f_k" unicode="fk" horiz-adv-x="639" 
d="M24 7l1 -2q12 3 18 9t9 18t3 35v60v328h-48v8q31 4 40 16t9 46v47q0 54 15 90q15 35 38 57q22 21 50 30q27 9 50 9q39 0 65 -15t26 -40q0 -11 -7 -21t-24 -10q-19 0 -26 9q-8 10 -11 26q-4 27 -11 35q-6 8 -17 8q-24 0 -39 -27t-15 -97v-160h73v-10h-73v-328q0 -45 1 -60
q1 -22 6 -34t15 -18t29 -9v-7h-177v7zM242 5l-1 -1q11 3 19 9q8 7 11 18q3 12 3 35v60v473q0 41 -1 54q-2 21 -4 28q-3 9 -11 11t-21 3v7l131 72v-648v-60q0 -21 5 -34q5 -12 12 -18t21 -9v-7h-164v7zM479 4h-2q16 3 22 14q6 10 -11 38l-117 186v6l155 148q16 14 20 24
q5 11 2 18q-3 8 -12 12q-9 5 -19 6v6h108v-6q-12 -3 -19 -7t-19 -12q-13 -10 -24 -19q-5 -4 -15.5 -14t-15.5 -15l-92 -88l158 -251q16 -26 26 -35q10 -10 18 -11v-7h-163v7z" />
    <glyph glyph-name="g_j" unicode="gj" horiz-adv-x="606" 
d="M504 543q-23 0 -38 15t-15 38t15 38t38 15t38 -15t15 -38t-15 -38t-38 -15zM380 -138l-4 -2q-15 0 -24 6t-9 17q0 5 3 13t7 13q6 8 9 11q5 5 9 5q9 0 17 -6l15 -12l15 -12q8 -6 15 -6q8 0 12 4q3 3 6 9q2 5 4 18q1 11 3 32q1 13 1 50v290q0 43 -1 56q-2 22 -4 30
q-3 10 -11 13q-9 4 -21 5v8l130 74v-413q0 -62 -22 -102t-66 -70q-27 -19 -48 -25q-20 -6 -36 -6zM184 159l-5 -3q-41 0 -80 18l-9 -6q-12 -10 -21 -20q-7 -8 -7 -18t9 -18q9 -7 41 -15l144 -25q66 -12 94 -40t28 -70q0 -32 -15 -57q-15 -26 -41 -44q-24 -17 -62 -28
q-34 -10 -78 -10q-34 0 -67 6q-32 6 -58 18t-41 30t-15 44q0 16 8 30q7 13 21 25t30 21q19 10 35 17q-36 10 -51 30t-15 45q0 29 18 48q19 20 37 33l10 7q-32 17 -53 50t-21 82q0 41 15 71q15 31 39 50t53 30q27 10 56 10q43 0 84 -23q23 19 47 31q20 10 38 10q34 0 34 -32
q0 -14 -7 -21t-18 -7q-9 0 -16 3q-5 2 -15 8l-15 9q-7 4 -15 4q-13 0 -27 -8q31 -19 52 -52t21 -81q0 -41 -15 -69q-15 -29 -39 -47t-52 -27t-56 -9zM53 -73v-2q0 -46 33 -70t95 -24q38 0 68 8q29 7 48 21t30 30q10 16 10 34q0 31 -26 43q-25 12 -72 21l-120 21l-14 3
q-28 -15 -40 -34q-12 -20 -12 -51zM179 163v-1q15 0 29 8t24 24q11 17 17 44t6 68q0 79 -23 116q-22 36 -53 36q-29 0 -52 -36q-22 -35 -22 -117q0 -40 6 -67t17 -44q10 -16 24 -24q13 -7 27 -7z" />
    <glyph glyph-name=".notdef" horiz-adv-x="180" 
 />
    <glyph glyph-name=".null" horiz-adv-x="0" 
 />
    <glyph glyph-name="nonmarkingreturn" unicode="&#xd;" horiz-adv-x="180" 
 />
    <glyph glyph-name="NULL" horiz-adv-x="0" 
 />
    <glyph glyph-name="NULL" horiz-adv-x="0" 
 />
    <glyph glyph-name="space" unicode=" " horiz-adv-x="180" 
 />
    <glyph glyph-name="exclam" unicode="!" horiz-adv-x="209" 
d="M100 202l-4 -1q-6 108 -15 189q-9 83 -18 140q-3 21 -8 54t-7 44q-6 39 -6 61q0 33 16 50q16 18 45 18t45 -18q17 -19 17 -50q0 -25 -7 -61q-5 -28 -16 -97q-9 -57 -18 -140q-10 -88 -14 -189h-10zM102 -13h-1q-26 0 -42 16t-16 42q0 25 17 42q16 16 42 16t42 -16t16 -42
t-16 -42t-42 -16z" />
    <glyph glyph-name="quotedbl" unicode="&#x22;" horiz-adv-x="277" 
d="M195 548l3 -1q-3 25 -10 45l-15 45q-7 23 -12 42q-5 22 -5 34q0 22 11 36t33 14q23 0 35 -13q12 -14 12 -36q0 -12 -5 -34q-4 -20 -12 -42l-15 -45q-7 -23 -12 -45h-8zM77 547l2 -1q-3 25 -10 45l-15 45q-8 22 -12 42q-5 22 -5 34q0 22 11 36t33 14q23 0 35 -13t12 -36
q0 -12 -5 -34q-5 -19 -12 -42l-15 -45q-7 -20 -10 -45h-9z" />
    <glyph glyph-name="numbersign" unicode="#" horiz-adv-x="382" 
d="M12 280h91l38 240h-89v12h91l34 218h14l-34 -218h108l34 218h14l-34 -218h93v-12h-95l-38 -240h93v-12h-95l-42 -267h-14l42 267h-108l-42 -267h-14l42 267h-89v12zM225 280l38 240h-108l-38 -240h108z" />
    <glyph glyph-name="dollar" unicode="$" horiz-adv-x="424" 
d="M182 827l-3 -77q4 1 12 1h12h14q9 0 14 -1v71h13v-72q63 -7 101 -35q38 -27 38 -63q0 -17 -9 -27q-9 -11 -25 -11q-19 0 -31 12t-15 35q-2 20 -4 29q-3 13 -9 24t-16 18q-11 8 -30 11v-308q33 -26 65 -53q30 -25 51 -54t33 -61q12 -33 12 -74q0 -79 -44 -132
q-43 -52 -116 -63v-84h-13v82q-4 -1 -12 -1h-11h-13q-8 0 -13 1v-82h-12v83q-36 4 -66 15q-29 10 -51 26q-20 15 -33 35q-12 20 -12 41q0 19 12 30q13 11 30 11q40 0 44 -46q3 -25 6 -41t11 -31q8 -14 21 -21t36 -12v363q-35 26 -61 49t-45 50q-17 24 -28 56q-10 29 -10 67
q0 33 11 63q11 29 30 50q21 22 46 35q27 14 58 18v73h12zM330 135l1 1q0 52 -21 89q-21 38 -67 78v-303q45 10 66 47q21 36 21 88zM207 -3v-1h12q5 0 11 2v316q-16 13 -50 39v-355q4 -1 12 -1h15zM203 742l-1 -1h-12q-8 0 -11 -1v-259l50 -40v300q-4 1 -12 1h-14zM88 634
l-1 1q0 -46 21 -79q20 -32 59 -66v247q-37 -9 -58 -36t-21 -67z" />
    <glyph glyph-name="percent" unicode="%" horiz-adv-x="639" 
d="M167 379v-2q-27 0 -53 14t-47 38t-33 59q-12 34 -12 77t12 77t33 60q21 25 47 39t53 14q28 0 53 -13q26 -14 47 -39t33 -60q12 -34 12 -76q0 -43 -12 -77q-12 -35 -33 -59t-47 -38t-53 -14zM107 1l411 752l12 -7l-411 -752zM167 386h-2q27 0 50 42q23 43 23 137
q0 47 -6 82q-6 37 -16 56q-11 22 -24 32t-27 10q-27 0 -49 -42q-22 -41 -22 -138q0 -94 23 -137q22 -42 50 -42zM469 -8v-2q-27 0 -53 14t-47 38t-33 59q-12 34 -12 77t12 77q12 35 33 60t47 39t53 14q28 0 53 -13q26 -14 47 -39q21 -26 33 -60q12 -35 12 -76q0 -42 -12 -77
t-33 -59t-47 -38t-53 -14zM469 -1l-1 -2q28 0 50 42q23 43 23 137q0 48 -6 82q-6 37 -16 56q-11 22 -24 32t-27 10t-27 -10q-14 -11 -24 -31t-16 -55t-6 -82q0 -48 6 -82q6 -32 17 -55q11 -22 24 -32t27 -10z" />
    <glyph glyph-name="ampersand" unicode="&#x26;" horiz-adv-x="636" 
d="M466 214l-6 -2q42 -63 69 -102q24 -35 45 -61q17 -21 30 -31q11 -8 25 -13v-7h-137l-76 111q-69 -121 -182 -121q-46 0 -86 14q-38 13 -67 39q-29 25 -45 63q-16 36 -16 84q0 50 18 87q18 38 45 65q27 28 59 47q37 23 60 35q-34 52 -51 93q-17 42 -17 84q0 39 13 68
t35 51t50 32q30 11 57 11q24 0 51 -8q26 -7 45 -24q20 -17 32 -42q12 -26 12 -58q0 -36 -13 -62q-14 -27 -33 -48t-42 -36q-26 -18 -42 -26l15 -22l130 -188l14 -21l39 102q12 32 21 59q8 23 6 38q-2 16 -12 23q-11 8 -31 12v6h138v-6q-17 -4 -33 -11q-15 -7 -26 -19
q-12 -14 -24 -39q-10 -22 -28 -67zM124 198h-1q0 -94 30 -147q30 -52 88 -52q47 0 90 29t77 90l-178 260l-25 36q-18 -14 -33 -33q-16 -21 -26 -45q-10 -23 -16 -60q-6 -34 -6 -78zM211 649l-2 -3q0 -52 24 -97q25 -46 55 -91q11 8 24 23t23 33q11 21 17 45q6 25 6 62
q0 38 -6 62q-6 25 -16 39q-10 15 -24 21t-27 6q-36 0 -55 -28t-19 -72z" />
    <glyph glyph-name="quotesingle" unicode="'" horiz-adv-x="156" 
d="M74 548l2 -1q-3 25 -10 45l-15 45q-7 23 -12 42q-5 22 -5 34q0 22 11 36t33 14q23 0 35 -13q12 -14 12 -36q0 -12 -5 -34q-4 -20 -12 -42l-15 -45q-7 -20 -10 -45h-9z" />
    <glyph glyph-name="parenleft" unicode="(" horiz-adv-x="264" 
d="M254 -106l-2 4q-26 23 -64 66q-36 40 -69 96q-32 53 -55 128q-22 70 -22 161t22 161q23 75 55 128q33 56 69 96t64 64l5 -6q-21 -22 -41 -55q-21 -34 -43 -90q-20 -52 -34 -129q-14 -78 -14 -172t14 -172q13 -73 35 -129q20 -52 44 -90q20 -33 41 -55z" />
    <glyph glyph-name="parenright" unicode=")" horiz-adv-x="264" 
d="M5 -100l-3 -5q21 22 41 55q24 38 44 90q22 56 35 129q14 78 14 173q0 94 -14 172q-14 77 -34 129q-22 56 -43 90q-20 33 -41 55l5 6q28 -24 64 -64q37 -42 68 -96q31 -55 54 -128q23 -74 23 -161q0 -91 -22 -161q-23 -73 -54 -128q-31 -54 -68 -96q-38 -43 -64 -66z" />
    <glyph glyph-name="asterisk" unicode="*" horiz-adv-x="285" 
d="M166 530l-3 -1q0 -29 -24 -29q-23 0 -23 29q0 19 9 43q10 26 14 53q-19 -23 -30 -47q-11 -22 -24 -36q-21 -21 -38 -3q-17 17 4 36q13 13 38 24t47 27q-30 -5 -53 -12q-26 -8 -42 -8q-29 0 -29 23t29 23q16 0 42 -8q23 -7 53 -12q-21 17 -45 28q-23 10 -36 24
q-11 10 -12 21t6 18q16 16 37 -3q13 -13 25 -37q12 -23 29 -47q-5 33 -13 55q-9 24 -9 42q0 29 23 29q24 0 24 -29q0 -17 -9 -43q-8 -23 -13 -54q17 24 27 48q11 25 24 38q20 20 38 3q8 -7 6 -18t-12 -21q-14 -14 -36 -24q-24 -11 -45 -28q30 5 53 12q26 8 42 8q30 0 30 -23
t-30 -23q-16 0 -42 8q-23 7 -53 12q22 -16 47 -27t38 -24q10 -11 12 -21t-6 -18t-18 -6t-21 12q-13 14 -24 36t-30 45q4 -29 14 -53q9 -22 9 -42z" />
    <glyph glyph-name="plus" unicode="+" horiz-adv-x="407" 
d="M197 179v166h-160v12h160v167h14v-167h158v-12h-158v-166h-14z" />
    <glyph glyph-name="comma" unicode="," horiz-adv-x="196" 
d="M127 14h1q-6 -8 -15 -12q-8 -4 -25 -4q-18 0 -34 14q-15 14 -15 36q0 25 16 40q17 15 37 15q26 0 47 -18t21 -59q0 -51 -28 -85q-28 -35 -72 -51l-5 7q38 17 59 42t21 54q0 13 -8 21z" />
    <glyph glyph-name="hyphen" unicode="-" horiz-adv-x="260" 
d="M52 309h173l-17 -64h-172z" />
    <glyph glyph-name="period" unicode="." horiz-adv-x="190" 
d="M95 -12h-1q-25 0 -41 16q-17 17 -17 42t17 42q16 16 41 16q26 0 42 -16q17 -17 17 -42q0 -26 -16 -42t-42 -16z" />
    <glyph glyph-name="slash" unicode="/" horiz-adv-x="349" 
d="M339 795l-346 -963l-14 4l346 964z" />
    <glyph glyph-name="zero" unicode="0" horiz-adv-x="567" 
d="M285 758l-3 -1q47 0 91 -25q46 -26 80 -75q35 -51 56 -120q21 -71 21 -162q0 -90 -21 -162q-20 -70 -56 -121q-35 -50 -78 -75q-44 -26 -90 -26q-45 0 -91 26q-45 25 -81 75q-35 49 -58 121q-22 70 -22 162q0 93 22 162q23 72 58 120q36 49 81 75q46 26 91 26zM282 748
l-3 -1q-29 0 -54 -22q-25 -23 -45 -69t-30 -117q-11 -74 -11 -166q0 -91 11 -165q10 -68 29 -117q18 -46 44 -69t57 -23q61 0 100 92q38 90 40 282q0 92 -11 166q-10 68 -29 117q-18 46 -44 69t-54 23z" />
    <glyph glyph-name="one" unicode="1" horiz-adv-x="269" 
d="M26 0l-3 7q21 3 33 9t18 27q7 23 8 60q2 52 2 107v307q0 49 -1 65q-2 25 -7 36q-6 12 -19 15q-15 3 -36 2v7l168 122v-555q0 -80 1 -106q2 -41 7 -60q6 -21 18 -27t33 -9v-7h-222z" />
    <glyph glyph-name="two" unicode="2" horiz-adv-x="457" 
d="M239 86l-3 -8q50 0 98 2q37 2 56 6q18 4 28 14q9 9 15 26h9l-26 -97q-7 -25 -12 -31q-4 -6 -18 -6h-381l153 200q35 50 67 102q26 43 46 92q19 47 26 89q8 46 8 93q0 85 -24 130t-81 45q-27 0 -42 -9q-14 -9 -22 -24q-7 -14 -10 -33q-2 -11 -4 -33q-3 -22 -15 -36
q-12 -13 -35 -13q-19 0 -31 14q-12 13 -12 33t12 39q12 20 34 36q23 17 54 27q30 10 72 10q35 0 72 -9t69 -30t51 -57q20 -37 20 -89q0 -50 -15 -95q-14 -43 -44 -90t-69 -92q-49 -57 -90 -101l-110 -105h154z" />
    <glyph glyph-name="three" unicode="3" horiz-adv-x="472" 
d="M188 3h-3q40 0 66 19q27 20 45 52q18 33 27 78t9 98t-4 88q-4 39 -15 66t-30 42t-48 15q-24 0 -39 -4q-18 -5 -30 -13q-15 -10 -24 -19l-23 -23l-6 5l227 260h-122q-68 0 -89 -1q-33 -2 -48 -7q-17 -6 -24 -16q-7 -11 -15 -27h-9l27 102q6 21 9 28q3 6 14 6h336v-8
l-252 -291q13 7 30 12q18 5 39 5q40 0 78 -12t66 -39t45 -69q17 -43 17 -100q0 -56 -18 -102t-51 -81t-79 -54q-45 -19 -105 -19q-40 0 -70 10q-31 10 -54 27q-22 16 -34 36q-12 19 -12 39q0 16 11 30t32 14q44 0 48 -46q1 -12 3 -32q1 -18 9 -33t23 -26q14 -10 43 -10z" />
    <glyph glyph-name="four" unicode="4" horiz-adv-x="511" 
d="M392 177q0 -45 2 -87q2 -32 6 -48q5 -18 13 -23q7 -5 23 -10v-7h-191v7q16 5 23 10q8 5 13 23q5 16 6 48q2 42 2 87h-275v8l351 571h27v-509h109l-35 -70h-74zM289 247v367l-225 -367h225z" />
    <glyph glyph-name="five" unicode="5" horiz-adv-x="472" 
d="M122 666l-43 -233q23 23 57 36q36 14 78 14q41 0 80 -12q40 -12 71 -39q32 -27 51 -70q20 -45 20 -106q0 -63 -19 -111q-19 -49 -54 -84t-81 -54q-45 -19 -99 -19q-37 0 -69 9t-54 24q-23 16 -35 36q-12 21 -12 43q0 20 12 33t32 13q23 0 33 -12t12 -32l3 -36
q2 -20 7 -33q6 -15 22 -24t48 -9q36 0 63 21t45 57t27 84t9 103q0 102 -28 158q-28 57 -90 57q-50 0 -84 -18t-54 -39l-6 4l67 323h292l-21 -65q-4 -13 -7 -16t-12 -3h-261z" />
    <glyph glyph-name="six" unicode="6" horiz-adv-x="538" 
d="M316 748l-5 -4q-79 0 -120 -75t-51 -208q25 23 57 38q33 15 73 15q50 0 91 -16q44 -17 74 -49q33 -34 50 -79q18 -46 18 -108q0 -68 -22 -118q-23 -51 -55 -85q-33 -34 -73 -52q-41 -18 -76 -18q-41 0 -85 21q-42 20 -79 68q-35 45 -58 117t-23 168q0 87 24 159
q24 71 63 124q39 52 90 81q52 29 105 29q37 0 69 -8q30 -8 51 -21q22 -14 32 -30q11 -17 11 -33q0 -19 -12 -31t-28 -12q-43 0 -49 45q-1 14 -5 33q-3 17 -10 26q-8 11 -21 17q-14 6 -36 6zM138 362h-4q0 -93 11 -165q11 -69 30 -114t45 -66t54 -21q61 0 91 68t30 197
q0 70 -11 119q-10 46 -29 74q-18 27 -40 39q-23 12 -46 12q-41 0 -73 -16q-33 -17 -57 -42q-1 -13 -1 -41v-44z" />
    <glyph glyph-name="seven" unicode="7" horiz-adv-x="438" 
d="M164 0l-11 -1l227 666h-203q-58 0 -76 -1q-28 -2 -42 -7q-14 -6 -22 -15q-7 -9 -15 -24h-8l31 109q4 12 8 18q3 5 14 5h351v-8z" />
    <glyph glyph-name="eight" unicode="8" horiz-adv-x="486" 
d="M459 190l-10 -5q0 -45 -16 -80q-17 -36 -45 -63q-29 -27 -67 -42q-39 -15 -82 -15q-45 0 -87 14q-40 13 -69 38q-29 24 -45 57q-16 32 -16 71q0 36 14 69q14 32 36 57q23 26 52 45q34 22 61 35q-35 25 -60 48t-42 48q-15 23 -25 53q-9 27 -9 62q0 41 17 75q16 33 43 55
q26 22 61 34q34 12 69 12q44 0 80 -12q35 -12 61 -33q25 -21 39 -50q14 -30 14 -63q0 -30 -12 -57t-31 -49q-17 -20 -44 -40q-25 -19 -49 -30q31 -22 66 -50q30 -24 51 -51t33 -60t12 -73zM237 -6h-3q36 0 63 11q26 11 41 29t21 43t6 54q0 39 -10 66q-11 29 -30 54t-48 48
t-66 48l-25 17q-41 -28 -64 -75q-22 -45 -22 -121q0 -37 8 -72q7 -32 24 -55t42 -35q26 -12 63 -12zM277 426l-4 -1q17 12 30 27q14 16 23 35q10 21 14 45q5 28 5 60q0 83 -31 118q-32 36 -87 36q-52 0 -83 -29q-30 -29 -30 -86q0 -33 10 -57t29 -48q17 -21 45 -43
q31 -24 61 -45z" />
    <glyph glyph-name="nine" unicode="9" horiz-adv-x="538" 
d="M222 1l-1 -1q45 0 74 19q30 20 50 56q19 36 30 89q11 52 15 120q-25 -23 -57 -38q-33 -15 -74 -15q-49 0 -90 16t-73 48q-30 30 -49 80q-18 48 -18 110q0 68 22 118q23 51 55 85q33 35 73 51q42 17 76 17q44 0 87 -22q44 -22 78 -69t57 -117q22 -69 22 -166
q0 -85 -21 -157q-20 -70 -59 -124q-38 -53 -88 -81q-52 -29 -110 -29q-39 0 -69 9q-31 9 -51 22q-22 14 -32 31q-11 19 -11 35q0 17 11 30q11 12 29 12q19 0 33 -11q13 -11 15 -33t3 -32q1 -15 9 -27q7 -12 22 -19q14 -7 42 -7zM135 484v-4q0 -68 9 -114q9 -48 25 -75
q17 -29 39 -42t51 -13q41 0 75 17q33 17 57 42q2 26 2 41v44q0 96 -12 165q-12 71 -31 114q-20 45 -45 66q-26 21 -52 21q-56 0 -87 -64q-31 -63 -31 -198z" />
    <glyph glyph-name="colon" unicode=":" horiz-adv-x="197" 
d="M99 332l-1 -1q-26 0 -42 16t-16 42q0 25 17 42t42 17q26 0 42 -16t16 -42t-16 -42t-42 -16zM98 -13h-1q-26 0 -42 16t-16 42q0 25 17 42q16 16 42 16t42 -16t16 -42t-16 -42t-42 -16z" />
    <glyph glyph-name="semicolon" unicode=";" horiz-adv-x="203" 
d="M101 332l-1 -1q-25 0 -41 16q-17 17 -17 42t17 42t41 17q26 0 42 -16q17 -17 17 -42q0 -26 -16 -42t-42 -16zM129 13l-2 -1q-4 -7 -14 -12q-8 -4 -26 -4t-34 14q-15 14 -15 36q0 25 17 40t38 15q26 0 47 -18t21 -59q0 -51 -28 -85q-29 -35 -72 -51l-4 7q38 17 59 42
t21 54q0 16 -8 22z" />
    <glyph glyph-name="less" unicode="&#x3c;" horiz-adv-x="393" 
d="M41 358l311 130v-14l-294 -123l294 -123v-15l-311 130v15z" />
    <glyph glyph-name="equal" unicode="=" horiz-adv-x="411" 
d="M39 410h332v-12h-332v12zM39 298h332v-12h-332v12z" />
    <glyph glyph-name="greater" unicode="&#x3e;" horiz-adv-x="393" 
d="M41 213v15l294 123l-294 123v14l311 -130v-15z" />
    <glyph glyph-name="question" unicode="?" horiz-adv-x="361" 
d="M126 196l2 -2q0 47 8 90q7 37 20 75q10 28 26 66q18 42 26 62q13 32 20 62q8 34 8 68q0 73 -21 102q-21 28 -61 28q-21 0 -30 -11q-10 -11 -14 -32q-2 -8 -6 -22q-3 -10 -9 -18t-15 -12q-8 -4 -22 -4q-18 0 -28 12t-9 28q2 27 34 48q33 21 100 21q39 0 72 -9
q32 -9 57 -29t38 -48q14 -30 14 -66t-14 -69q-12 -28 -35 -61q-18 -25 -47 -58q-24 -27 -48 -62q-22 -33 -39 -72q-16 -38 -19 -87h-8zM144 -14h-1q-26 0 -42 16t-16 42q0 25 17 42q16 16 42 16t42 -16t16 -42t-16 -42t-42 -16z" />
    <glyph glyph-name="at" unicode="@" horiz-adv-x="758" 
d="M628 -53l-3 -5q-14 -14 -41 -36q-25 -20 -58 -36q-34 -16 -78 -27q-41 -10 -96 -10q-63 0 -123 20q-58 19 -105 62q-46 42 -73 106q-27 65 -27 153q0 95 35 179q34 82 92 143q57 60 131 95q72 34 153 34q67 0 122 -20q54 -19 93 -57q39 -37 60 -92q21 -54 21 -123
q0 -65 -21 -126q-21 -62 -61 -108t-102 -73q-63 -27 -144 -23l13 78q-34 -41 -57 -60q-22 -19 -54 -19q-49 0 -84 42q-34 41 -34 123q0 66 22 119q23 54 57 93q35 39 76 60q42 21 82 21q20 0 33 -6t24 -12q14 -8 20 -12q9 -6 21 -6q26 0 45 25h7l-49 -286q-7 -43 -12 -72
q-4 -28 -3 -43q2 -15 9 -18q8 -3 26 4q70 25 111 95t41 187q0 68 -21 122t-57 93t-86 60q-49 21 -108 21q-75 0 -141 -27q-65 -27 -114 -80q-47 -52 -76 -129q-28 -75 -28 -174q0 -86 23 -153q22 -65 62 -111q39 -45 92 -68q54 -23 113 -23q54 0 94 10q42 11 75 27
q35 18 57 34q20 15 40 35zM283 136l-2 1q0 -120 43 -120q17 0 38 18q23 19 56 60l45 273q6 32 -2 58q-7 25 -39 25q-23 0 -48 -25q-26 -26 -45 -69q-20 -44 -33 -100q-13 -55 -13 -121z" />
    <glyph glyph-name="A" unicode="A" horiz-adv-x="542" 
d="M4 6q10 4 18 12t15 21t15 36q6 19 18 59l146 527l-6 21q-6 18 -12 31q-5 11 -12 19q-5 7 -12 10q-8 4 -13 5v6h123q8 0 11 -3t6 -12l178 -609q2 -8 4.5 -17t5.5 -18.5t4 -13.5q6 -21 12 -36q6 -14 14 -24q7 -8 20 -13v-7h-165v7q20 5 23 21q3 15 -8 55l-43 144h-238
l-26 -95q-8 -31 -12 -49q-4 -21 -3 -36q1 -14 11 -25q8 -10 27 -16v-6h-101v6zM342 235l-121 405l-112 -405h233z" />
    <glyph glyph-name="B" unicode="B" horiz-adv-x="521" 
d="M18 7l-2 -3q15 4 24 12q10 8 14 28q4 21 6 59q1 25 1 105v330q0 80 -1 106q-2 39 -6 60q-5 21 -13 27q-10 7 -24 11v7h215q113 0 173 -42t60 -127q0 -33 -10 -60q-11 -28 -33 -51q-24 -24 -58 -38q-38 -16 -87 -20v-1q64 -8 104 -25q43 -18 69 -43q27 -26 39 -57
q12 -32 12 -64q0 -57 -21 -99q-21 -41 -59 -69q-36 -26 -89 -40q-49 -13 -112 -13h-202v7zM164 738v-329h62q42 0 69 9t44 29q17 19 24 51q7 29 7 73q0 82 -32 125q-32 42 -108 42h-66zM164 401l-1 -398h49q46 0 81 9q34 9 57 32q22 22 33 62q11 41 11 99q0 45 -6 81
q-6 37 -24 62q-18 26 -51 39q-34 14 -87 14h-62z" />
    <glyph glyph-name="C" unicode="C" horiz-adv-x="524" 
d="M319 -9h1q-55 0 -109 23q-51 22 -91 71q-39 48 -63 121q-24 74 -24 174q0 102 26 175q25 72 66 117t90 66q50 21 98 21q28 0 51 -5q18 -4 36 -11q4 -1 13.5 -5t13.5 -6q13 -5 25 -5q23 0 30 28h9v-163h-9q-12 45 -30 75t-40 49q-22 20 -48 27q-27 8 -52 8q-37 0 -66 -19
q-31 -20 -53 -63q-23 -44 -36 -112q-13 -66 -13 -166q0 -107 15 -181q15 -73 42 -118q27 -44 63 -64q35 -19 77 -19q57 0 95 24q37 23 60 53l6 -7q-12 -15 -27 -29t-39 -28q-21 -12 -51 -22q-29 -9 -66 -9z" />
    <glyph glyph-name="D" unicode="D" horiz-adv-x="590" 
d="M18 7l-2 -3q15 4 24 12q10 8 14 28q4 21 6 59q1 25 1 105v330q0 80 -1 106q-2 39 -6 60q-5 21 -13 27q-10 7 -24 11v7h176q86 0 152 -22q68 -23 115 -67t73 -114t26 -162q0 -86 -23 -160q-22 -70 -68 -121q-44 -49 -114 -76q-69 -27 -160 -27h-176v7zM164 738l1 -734h28
q62 0 111 20q47 19 79 65t47 117q15 72 15 177q0 111 -19 178q-20 69 -54 108t-81 54t-99 15h-28z" />
    <glyph glyph-name="E" unicode="E" horiz-adv-x="481" 
d="M18 7l-4 -4q15 5 24 12q10 8 14 28q4 21 6 59q1 25 1 105v330q0 80 -1 106q-2 39 -6 60q-5 21 -13 27q-10 7 -24 11v7h393q8 0 12 -3t6 -18l17 -96h-9q-10 33 -24 54t-34 33q-22 13 -49 17q-32 5 -67 5h-95v-322h38q33 0 51 6q19 6 29 18t15 26q3 9 9 29h7v-167h-7
q-6 20 -9 29q-5 14 -15 26q-11 12 -28 18q-18 6 -51 6h-38v-401h110q45 0 72 4q29 4 51 17q22 12 35 36q14 24 24 63h9l-12 -111q-1 -13 -6 -15q-6 -2 -12 -2h-419v7z" />
    <glyph glyph-name="F" unicode="F" horiz-adv-x="467" 
d="M18 7h-1q15 5 24 12q10 8 14 27t6 59q1 26 1 107v330q0 80 -1 106q-2 40 -6 59q-5 20 -13 27q-9 8 -24 12v7h408q8 0 11 -3q4 -4 5 -19l15 -99h-10q-11 33 -24 54q-13 20 -33 34t-49 18q-33 5 -73 5h-103v-316h50q35 0 54 6t30 18q10 12 15 26q3 9 7 29h8v-166h-8
q-4 20 -7 29q-4 13 -15 24t-30 17t-54 6h-50v-206q0 -80 1 -106q1 -38 6 -58q4 -19 14 -27q9 -7 24 -12v-7h-192v7z" />
    <glyph glyph-name="G" unicode="G" horiz-adv-x="587" 
d="M319 -10h-5q-66 0 -120 27q-53 27 -91 78q-37 50 -58 123q-21 72 -21 161q0 97 27 169q27 71 69 118q42 46 93 69q52 23 101 23q32 0 53 -6q23 -7 38 -12q17 -6 30 -12t29 -6q18 0 26 27h8v-163h-8q-19 85 -66 124t-110 39q-37 0 -70 -18t-57 -60q-23 -41 -37 -111
q-13 -66 -13 -169t12 -178q12 -73 35 -123q22 -47 56 -70q32 -22 75 -22q60 0 87 37t27 126v21q0 56 -1 74q-2 27 -6 42t-14 21q-9 6 -24 9v7h192v-7q-16 -3 -24 -10q-10 -8 -14 -25q-4 -18 -6 -51q-1 -22 -1 -90v-60q-17 -22 -37 -38q-24 -19 -51 -32q-31 -15 -60 -23
q-31 -9 -64 -9z" />
    <glyph glyph-name="H" unicode="H" horiz-adv-x="600" 
d="M18 7l-1 -4q15 5 24 12q10 8 14 27t6 59q1 26 1 107v330q0 80 -1 106q-2 40 -6 59q-5 20 -13 27q-9 8 -24 12v7h191v-7q-16 -4 -25 -12q-8 -7 -13 -27q-4 -19 -6 -59q-1 -26 -1 -106v-125h270v125q0 80 -1 106q-2 40 -6 59q-5 20 -13 27q-9 8 -25 12v7h192v-7
q-16 -4 -25 -12q-8 -7 -13 -27q-4 -19 -6 -59q-1 -26 -1 -106v-330q0 -80 1 -106q1 -38 6 -58t13 -27q9 -8 25 -12v-7h-192v7q16 4 25 12q8 7 13 27q4 19 6 59q1 26 1 107v197h-270v-197q0 -80 1 -106q1 -38 6 -58t13 -27q9 -8 25 -12v-7h-191v7z" />
    <glyph glyph-name="I" unicode="I" horiz-adv-x="226" 
d="M18 7l-1 -1q15 4 24 12q10 8 14 28q4 21 6 59q1 25 1 105v330q0 80 -1 106q-2 40 -6 59q-5 20 -13 27q-9 8 -24 12v7h191v-7q-16 -4 -25 -12q-8 -7 -13 -27q-4 -19 -6 -59q-1 -26 -1 -106v-330q0 -80 1 -105q1 -37 6 -58q4 -21 13 -28q9 -8 25 -12v-7h-191v7z" />
    <glyph glyph-name="J" unicode="J" horiz-adv-x="361" 
d="M148 -10l-1 -1q-69 0 -106 22t-37 57q0 22 12 32q13 11 29 11q20 0 32 -12q11 -12 19 -40q4 -15 9 -28q5 -12 10 -19q6 -8 14 -11q7 -3 21 -3q20 0 35 15t15 53v472q0 81 -1 107q-2 40 -6 59q-5 20 -13 27q-9 8 -25 12v7h192v-7q-16 -4 -25 -12q-8 -7 -13 -27t-6 -58
q-1 -26 -1 -106v-390q0 -37 -12 -67t-33 -51q-20 -20 -49 -31q-30 -11 -60 -11z" />
    <glyph glyph-name="K" unicode="K" horiz-adv-x="538" 
d="M356 6l-1 -4q23 8 23 23q0 16 -21 53l-192 323l232 250q22 25 29 37q9 15 9 25t-7 16q-6 5 -21 10v6h105v-6q-8 -2 -17 -6t-20 -14q-7 -6 -24 -23l-33 -33l-173 -186l234 -400q9 -16 18 -31q8 -13 15 -20q9 -9 13 -12q7 -5 14 -8v-6h-183v6zM17 3l-1 -2q15 5 24 12
q10 8 14 27t6 59q1 26 1 107v330q0 80 -1 106q-2 40 -6 59q-5 20 -13 27q-9 8 -24 12v7h191v-7q-16 -4 -25 -12q-8 -7 -13 -27q-4 -19 -6 -59q-1 -26 -1 -106v-330q0 -80 1 -106q1 -38 6 -58t13 -27q9 -8 25 -12v-7h-191v7z" />
    <glyph glyph-name="L" unicode="L" horiz-adv-x="461" 
d="M18 7v-5q15 4 24 12q10 8 14 27t6 59q1 26 1 107v330q0 80 -1 106q-2 40 -6 59q-5 20 -13 27q-9 7 -24 12v7h194v-7q-16 -4 -25 -12q-10 -8 -14 -27t-6 -59q-1 -26 -1 -106v-531h95q37 0 69 5q30 5 50 19q21 15 36 42q16 28 29 71h9l-21 -126q-2 -13 -6 -15q-6 -2 -12 -2
h-398v7z" />
    <glyph glyph-name="M" unicode="M" horiz-adv-x="673" 
d="M18 7l-1 -3q16 8 24 16q10 10 14 30q5 21 6 60q1 26 1 105v325q0 80 -1 106q-1 39 -6 60t-13 27q-10 7 -24 11v7h142q8 0 11 -3q3 -4 8 -20l160 -547l164 571h152v-7q-16 -4 -25 -12q-8 -7 -13 -27q-4 -19 -6 -59q-1 -26 -1 -106v-330q0 -80 1 -106q1 -38 6 -58t13 -27
q9 -8 25 -12v-7h-194v7q15 4 24 12q10 8 14 27t6 59q1 26 1 107v509l-207 -722h-11l-216 726v-508q0 -79 1 -105q1 -39 6 -60t15 -30q10 -8 28 -16v-7h-104v7z" />
    <glyph glyph-name="N" unicode="N" horiz-adv-x="543" 
d="M18 7l-1 -1q16 8 24 16q10 10 14 30q5 21 6 60q1 26 1 105v325q0 80 -1 106q-1 39 -6 60t-13 27q-10 7 -24 11v7h137q9 0 12 -1q6 -2 9 -4q4 -3 9 -9t9 -15l283 -523v337q0 79 -1 104q-2 38 -6 59t-15 30q-10 8 -28 16v7h105v-7q-16 -7 -25 -16q-8 -8 -13 -30
q-5 -21 -6 -58q-1 -25 -1 -104v-539h-21l-394 730v-512q0 -79 1 -105q1 -39 6 -60t15 -30q10 -8 28 -16v-7h-104v7z" />
    <glyph glyph-name="O" unicode="O" 
d="M307 -10l-2 -2q-53 0 -102 27q-48 26 -88 77q-39 49 -63 122q-24 72 -24 162q0 92 24 162t63 120q39 49 89 75t102 26t102 -26t89 -75q39 -50 63 -120t24 -162q0 -90 -24 -162q-24 -71 -63 -121q-39 -49 -88 -76t-102 -27zM305 -3l-1 -1q73 0 118 93q44 92 46 284
q0 95 -12 165q-12 69 -35 117q-23 47 -52 69q-31 23 -64 23q-35 0 -64 -22t-52 -69q-22 -45 -34 -117q-12 -71 -12 -165q0 -191 45 -284t117 -93z" />
    <glyph glyph-name="P" unicode="P" horiz-adv-x="494" 
d="M18 7h-1q15 5 24 12q10 8 14 27t6 59q1 26 1 107v330q0 80 -1 106q-2 40 -6 59q-5 20 -13 27q-9 8 -24 12v7h219q52 0 97 -9q47 -9 77 -31q32 -23 50 -60t18 -93q0 -57 -19 -96q-19 -40 -52 -67t-78 -39t-96 -12h-69v-136q0 -80 1 -106q1 -38 6 -58q4 -19 14 -27
q9 -7 26 -12v-7h-194v7zM165 741l-2 -388h66q26 0 55 8q26 7 48 29q21 21 33 59q12 37 12 98t-12 98q-12 38 -33 59q-22 22 -46 29q-27 8 -51 8h-70z" />
    <glyph glyph-name="Q" unicode="Q" 
d="M307 -9l-2 -5q-55 0 -105 27t-87 78t-60 122q-22 69 -22 158q0 90 23 164q22 71 62 120t88 74q50 26 102 26q55 0 104 -25q48 -25 88 -74t62 -120q23 -74 23 -163q0 -125 -42 -212q-42 -88 -106 -132q6 -12 8 -18t6 -20q4 -11 10.5 -30t9.5 -28q9 -26 21 -46
q12 -19 27 -30q14 -10 35 -10q16 0 29 8t20 15l5 -5q-9 -11 -27 -21q-19 -11 -54 -11q-27 0 -52 6t-48 24q-21 17 -40 50q-17 30 -28 84q-24 -6 -50 -6zM305 745l-2 -1q-35 0 -66 -23q-29 -22 -52 -69q-22 -45 -34 -117q-12 -71 -12 -165q0 -158 24 -246t75 -117
q-29 23 -29 60q0 33 23 54q22 21 60 21q42 0 72 -21t53 -62q25 42 39 117q13 72 13 194q0 190 -46 282q-47 93 -118 93zM220 68h-2q0 -36 24 -55q23 -19 59 -19q27 0 48 8q-8 36 -15 59q-8 26 -16 39q-9 15 -19 21t-26 6q-19 0 -36 -15t-17 -44z" />
    <glyph glyph-name="R" unicode="R" horiz-adv-x="534" 
d="M18 7l-3 -3q15 4 24 12q10 8 14 27t6 59q1 26 1 107v330q0 80 -1 106q-2 40 -6 59q-5 20 -13 27q-9 7 -24 12v7h212q130 0 198 -41t68 -137q0 -50 -19 -87t-53 -63q-32 -25 -78 -37q-45 -12 -94 -12q30 -5 54 -15q26 -11 44 -31q20 -21 33 -54q14 -35 23 -81
q12 -61 19 -87q9 -33 20 -56q10 -20 23 -30q12 -9 29 -9q18 0 27 6t17 14l6 -5q-9 -11 -29 -23t-57 -12q-28 0 -55 8q-25 7 -45 29q-19 20 -34 57q-15 36 -24 92q-12 72 -21 110q-9 40 -21 59t-30 24q-20 5 -46 5h-18v-164q0 -80 1 -106q1 -38 6 -58q4 -19 14 -27
q9 -7 24 -12v-7h-192v7zM163 738v-361h81q80 0 115 47q34 46 34 134q0 95 -38 138q-38 42 -131 42h-61z" />
    <glyph glyph-name="S" unicode="S" horiz-adv-x="453" 
d="M215 -8h-9q-36 0 -63 8q-22 6 -43 17q-14 7 -32 17q-14 8 -27 8t-18 -21h-8v184h8q13 -101 60 -153q46 -52 126 -52q70 0 102 35t32 98q0 38 -10 65q-11 28 -30 54q-19 24 -50 51t-71 56q-34 27 -63 51t-48 51t-30 57q-10 29 -10 69q0 36 14 69q13 31 38 54q23 21 59 34
q34 12 75 12q29 0 52 -5q16 -4 37 -11q6 -2 15.5 -6t12.5 -5q13 -5 23 -5q17 0 21 24h8v-143h-8q-17 77 -57 110q-41 33 -102 33q-57 0 -85 -27t-28 -74q0 -55 36 -99q37 -44 103 -93q22 -16 73 -56q36 -28 59 -57q24 -31 39 -64q15 -34 15 -78q0 -50 -18 -89t-48 -66
q-29 -26 -69 -40q-38 -13 -81 -13z" />
    <glyph glyph-name="T" unicode="T" horiz-adv-x="527" 
d="M167 7l-2 -1q15 4 24 12q10 8 14 28q4 21 6 59q1 25 1 105v531h-33q-39 0 -65 -6t-44 -21t-30 -40q-11 -23 -22 -66h-9l12 121q1 15 5 19q3 3 11 3h453q8 0 11 -3q4 -4 5 -19l13 -121h-9q-11 43 -22 65q-12 26 -30 41t-44 21q-25 6 -65 6h-33v-531q0 -80 1 -105
q1 -37 6 -58q4 -20 14 -28q9 -7 24 -12v-7h-192v7z" />
    <glyph glyph-name="U" unicode="U" horiz-adv-x="544" 
d="M294 -11h2q-112 0 -175 54t-63 170v327q0 80 -1 106q-2 40 -6 59q-5 20 -13 27q-9 8 -24 12v7h190v-7q-15 -4 -24 -12q-8 -7 -13 -27q-4 -19 -6 -59q-1 -26 -1 -106v-340q0 -50 6 -87t21 -63q14 -25 44 -37q29 -12 72 -12q80 0 126 49q47 50 47 159v326q0 79 -1 105
q-1 39 -6 60t-15 30q-10 8 -28 16v7h105v-7q-16 -8 -24 -16t-13 -30q-4 -21 -6 -60q-1 -26 -1 -105v-326q0 -115 -51 -168q-51 -52 -142 -52z" />
    <glyph glyph-name="V" unicode="V" horiz-adv-x="528" 
d="M69 613h5l-18 54q-9 27 -13 37q-6 14 -14 24q-6 7 -20 16v6h176v-6q-22 -6 -27 -23q-4 -17 9 -63l151 -497l136 464q9 28 11 43q3 19 0 34q-3 16 -12 26q-10 11 -28 17v6h101v-6q-12 -5 -18 -10q-8 -6 -15 -18q-8 -13 -15 -34q-8 -23 -18 -60l-182 -628h-18z" />
    <glyph glyph-name="W" unicode="W" horiz-adv-x="763" 
d="M66 623l-4 -4q-7 21 -15 47q-6 20 -12 33t-14 23q-8 9 -20 17v7h167v-7q-23 -6 -24 -22t12 -58l158 -512l69 227l-75 246q-7 21 -15 47q-6 19 -12 33q-6 13 -14 23q-7 9 -21 15v7h166v-7q-21 -6 -22 -22q-1 -15 11 -60l47 -162l37 125q13 43 15 75t-30 45v7h91v-7
q-12 -5 -18 -10q-8 -7 -14 -18q-8 -15 -14 -33q-7 -21 -18 -57l-42 -141l98 -334l129 474q2 9 10 42q4 19 3 34q-2 16 -10 27q-9 12 -28 19v7h101v-7q-12 -6 -17 -10q-7 -6 -15 -18t-15 -33q-8 -23 -18 -58l-171 -628h-18l-112 365l-112 -365h-18z" />
    <glyph glyph-name="X" unicode="X" horiz-adv-x="530" 
d="M10 6l-5 -1q17 8 26 15q11 8 20 20q10 13 20 32q3 6 7 13.5t10 17.5t10 18l120 231l-131 280q-19 40 -25 51q-13 24 -19 32q-9 12 -18 18q-7 5 -21 10v6h192v-6q-14 -3 -20 -9t-6 -18q0 -10 8 -31q8 -19 21 -48l94 -203l100 198q27 53 26 78q-1 26 -36 33v6h111v-6
q-16 -7 -27 -15q-10 -7 -19 -19q-6 -8 -19 -32q-11 -19 -27 -51l-104 -205l137 -295q15 -33 24 -50q8 -16 20 -33q8 -11 20 -22q10 -8 25 -16v-6h-194v6q14 4 22 12q7 7 7 21t-7 34q-8 23 -22 52l-102 218l-116 -224q-25 -51 -21 -76q5 -26 36 -36v-6h-117v6z" />
    <glyph glyph-name="Y" unicode="Y" horiz-adv-x="507" 
d="M164 7l-3 -2q15 5 24 12q10 8 14 28q4 21 6 59q1 25 1 105v168l-122 248q-16 34 -21 44q-10 20 -18 32q-10 15 -19 24q-10 11 -24 18v6h182v-6q-22 -7 -24 -24q-1 -16 14 -50l130 -270l102 224q25 55 28 83q3 26 -33 36v6h101v-6q-11 -5 -19 -10q-9 -6 -18 -18
q-11 -14 -20 -33q-11 -21 -27 -57l-108 -234v-180q0 -80 1 -105q1 -37 6 -58q4 -20 14 -28q9 -7 24 -12v-7h-191v7z" />
    <glyph glyph-name="Z" unicode="Z" horiz-adv-x="495" 
d="M342 742l-110 -2q-45 0 -75 -9q-29 -9 -51 -26q-20 -16 -36 -41q-14 -23 -28 -55h-8l25 139h399l-326 -742h131q55 0 89 9q35 9 57 28t36 50q13 29 27 74h8l-20 -167h-442z" />
    <glyph glyph-name="bracketleft" unicode="[" horiz-adv-x="233" 
d="M219 793v-9h-90v-881h90v-9h-162v899h162z" />
    <glyph glyph-name="backslash" unicode="\" horiz-adv-x="349" 
d="M370 -164l-14 -4l-346 963l14 5z" />
    <glyph glyph-name="bracketright" unicode="]" horiz-adv-x="233" 
d="M176 -106h-162v9h90v881h-90v9h162v-899z" />
    <glyph glyph-name="asciicircum" unicode="^" horiz-adv-x="339" 
d="M166 756h7l140 -255l-9 -4l-134 247l-135 -247l-8 4z" />
    <glyph glyph-name="underscore" unicode="_" horiz-adv-x="323" 
d="M-5 -71h334v-13h-334v13z" />
    <glyph glyph-name="grave" unicode="`" horiz-adv-x="446" 
d="M158 616l-1 1q-13 11 -21 21q-8 11 -8 26q0 14 9 23t25 9t26 -9t21 -29l79 -129l-6 -5z" />
    <glyph glyph-name="a" unicode="a" horiz-adv-x="393" 
d="M126 -7l-1 3q-44 0 -75 26q-30 26 -30 75q0 33 14 53t36 33t50 24q27 11 54 24l15 6q29 15 42 31q14 17 14 48v73q0 22 -5 39q-5 15 -14 23q-10 8 -21 11q-12 3 -25 3q-24 0 -37 -11q-11 -10 -22 -36q-7 -16 -17 -29q-9 -12 -29 -12q-17 0 -26 9t-9 23q0 25 39 45
q38 19 101 19q27 0 59 -5q29 -4 51 -18t36 -36q14 -23 14 -59v-222q0 -33 2 -65q1 -20 5 -37q3 -13 9 -18q5 -4 15 -4q17 0 27 9l2 -6q-6 -4 -21 -12q-14 -7 -46 -7q-41 0 -61 18q-19 17 -22 47l-3 -3q-13 -15 -27 -27q-12 -11 -27 -19q-13 -7 -30 -12q-15 -4 -37 -4z
M116 115l-1 -2q0 -97 52 -97q17 0 33 12q18 13 45 40l1 1v210q-6 -15 -19 -25t-36 -21l-15 -7q-36 -20 -48 -45t-12 -66z" />
    <glyph glyph-name="b" unicode="b" horiz-adv-x="463" 
d="M228 -7l-5 -2q-28 0 -48 7q-25 9 -39 16q-22 11 -31 16q-13 7 -27 7q-13 0 -17 -7q-5 -8 -6 -13h-7v585q0 41 -1 54q-2 22 -4 30q-3 10 -11 12t-21 3v7l130 68v-385l4 5q31 38 60 57q29 20 66 20q30 0 59 -13q31 -14 54 -40q24 -27 39 -70q15 -44 15 -102q0 -62 -16 -109
q-16 -48 -45 -81q-28 -33 -67 -49q-38 -16 -82 -16zM162 20l1 3q12 -9 24 -14q13 -6 36 -6q50 0 82 54q31 53 31 176q0 67 -7 108q-8 45 -19 69q-12 26 -28 36q-17 11 -33 11q-24 0 -48 -18t-58 -58l-4 -5v-280q0 -33 6 -49t17 -27z" />
    <glyph glyph-name="c" unicode="c" horiz-adv-x="373" 
d="M231 -6h-4q-41 0 -79 15t-66 45t-45 75q-16 44 -16 103q0 58 20 104q20 45 49 76q31 32 66 47q36 15 69 15q27 0 47 -4q25 -5 41 -13q19 -10 29 -22q11 -14 11 -30q0 -15 -10 -25t-27 -10q-23 0 -32 14q-8 12 -16 41q-4 23 -13 31q-9 9 -28 9q-46 0 -76 -54t-30 -164
q0 -121 35 -180t95 -59q37 0 62 15q26 15 44 35l6 -6q-19 -22 -51 -40t-81 -18z" />
    <glyph glyph-name="d" unicode="d" horiz-adv-x="469" 
d="M195 -7h1q-31 0 -62 14q-30 13 -54 42t-39 72t-15 104q0 62 17 110q17 47 45 78q30 33 64 47q36 15 74 15q25 0 50 -11q24 -10 45 -30v167q0 43 -1 56q-2 22 -4 29q-3 9 -11 11l-21 3v7l132 69v-648v-60q0 -21 5 -34q5 -12 12 -18t21 -9v-7h-132v76l-3 -4
q-35 -41 -61 -59q-29 -20 -63 -20zM126 237l-3 -4q0 -62 8 -108q7 -43 21 -69t30 -36q17 -11 33 -11q19 0 44 17t59 57l3 4v333q-24 22 -45 32q-24 11 -48 11q-21 0 -39 -12t-33 -39q-14 -26 -22 -70q-8 -46 -8 -105z" />
    <glyph glyph-name="e" unicode="e" horiz-adv-x="392" 
d="M236 -7l-3 -2q-41 0 -81 14q-38 13 -67 44q-28 29 -46 76q-18 46 -18 109q0 61 18 106q18 44 47 75q28 30 62 45q33 15 62 15q71 0 110 -43q40 -44 47 -111h-247q-3 -31 -3 -72q0 -119 34 -180t99 -61q38 0 62 12q25 13 44 27l5 -7q-21 -18 -48 -32q-29 -15 -77 -15z
M210 464l-1 -1q-13 0 -27 -6q-13 -6 -25 -21t-21 -42q-10 -29 -14 -66h161q-6 136 -73 136z" />
    <glyph glyph-name="f" unicode="f" horiz-adv-x="234" 
d="M24 7h-1q12 3 18 9t9 18t3 35v60v328h-48v8q31 4 40 16t9 46v57q0 50 15 85q15 34 36 55t47 30q25 9 46 9q38 0 65 -15t27 -40q0 -11 -8 -22q-7 -10 -24 -10q-19 0 -28 9q-8 8 -13 26q-5 26 -9 35t-15 9q-9 0 -17 -6q-8 -7 -14 -21q-6 -15 -9 -39t-3 -61v-162h84v-10h-84
v-328q0 -45 1 -60q1 -22 6 -34t15 -18t29 -9v-7h-177v7z" />
    <glyph glyph-name="g" unicode="g" horiz-adv-x="392" 
d="M188 161l-5 -3q-41 0 -80 18l-9 -6q-12 -10 -21 -20q-7 -8 -7 -18t9 -18q9 -7 41 -15l144 -25q66 -12 94 -40t28 -70q0 -32 -15 -57q-15 -26 -41 -44q-24 -17 -62 -28q-34 -10 -78 -10q-34 0 -67 6q-32 6 -58 18t-41 30t-15 44q0 16 8 30q7 13 21 25t30 21q19 10 35 17
q-36 10 -51 30t-15 45q0 29 18 48q19 20 37 33l10 7q-32 17 -53 50t-21 82q0 41 15 71q15 31 39 50t53 30q27 10 56 10q43 0 84 -23q23 19 47 31q20 10 38 10q34 0 34 -32q0 -14 -7 -21t-18 -7q-9 0 -16 3q-5 2 -15 8l-15 9q-7 4 -15 4q-13 0 -27 -8q31 -19 52 -52t21 -81
q0 -41 -15 -69q-15 -29 -39 -47t-52 -27t-56 -9zM57 -71v-2q0 -46 33 -70t95 -24q38 0 68 8q29 7 48 21t30 30q10 16 10 34q0 31 -26 43q-25 12 -72 21l-120 21l-14 3q-28 -15 -40 -34q-12 -20 -12 -51zM183 165v-1q15 0 29 8t24 24q11 17 17 44t6 68q0 79 -23 116
q-22 36 -53 36q-29 0 -52 -36q-22 -35 -22 -117q0 -40 6 -67t17 -44q10 -16 24 -24q13 -7 27 -7z" />
    <glyph glyph-name="h" unicode="h" horiz-adv-x="456" 
d="M19 7l4 1q11 3 19 9q8 7 11 18q3 12 3 35v60v469q0 43 -1 56q-2 22 -4 29q-3 9 -11 11q-8 1 -21 3v7l131 72v-396l13 13q43 44 75 63q31 19 66 19q18 0 36 -6q19 -6 33 -19q15 -13 24 -36t9 -54v-233v-60q0 -22 3 -34t10 -18t21 -9v-7h-165v7q13 3 21 9t11 18q4 15 5 35
q1 15 1 60v257q0 39 -13 53q-14 15 -33 15q-17 0 -42 -15t-67 -58l-13 -13v-240v-60q0 -21 5 -34q4 -12 12 -18t21 -9v-7h-164v7z" />
    <glyph glyph-name="i" unicode="i" horiz-adv-x="203" 
d="M100 543v1q-23 0 -38 15t-15 38t15 38t38 15t38 -15t15 -37t-15 -39q-15 -16 -38 -16zM19 8l-2 -1q13 3 21 9t11 18t3 35v60v165v54q0 20 -3 30t-11 13q-9 4 -21 5v8l130 74v-349v-60q0 -21 5 -34q4 -12 12 -18t21 -9v-7h-166v7z" />
    <glyph glyph-name="j" unicode="j" horiz-adv-x="201" 
d="M99 543v1q-23 0 -38 15t-15 38t15 38t38 15t38 -15t15 -37t-15 -39q-15 -16 -38 -16zM-26 -138l-4 -4q-16 0 -30 9q-13 9 -13 27q0 16 10 25q11 9 24 9t22 -6q6 -4 16 -14l14 -14q6 -6 14 -6q6 0 11 4q3 3 6 9q2 5 4 18q2 16 2 32v51v289v56q0 19 -3 30q-3 10 -11 13
q-9 4 -21 5v8l130 74v-411q0 -64 -22 -102t-66 -70q-30 -21 -46 -26q-18 -6 -37 -6z" />
    <glyph glyph-name="k" unicode="k" horiz-adv-x="417" 
d="M19 7l-1 -1q11 3 19 9q8 7 11 18q3 12 3 35v60v473q0 41 -1 54q-2 21 -4 28q-3 9 -11 11q-7 2 -21 3v7l131 72v-648v-60q0 -21 5 -34q4 -12 12 -18t21 -9v-7h-164v7zM256 6h-2q16 3 22 14q6 10 -11 38l-117 186v6l155 148q16 14 20 24q5 11 2 18q-3 8 -12 12q-9 5 -19 6
v6h108v-6q-12 -3 -19 -7t-19 -12q-13 -10 -24 -19q-5 -4 -15.5 -14t-15.5 -15l-92 -88l158 -251q16 -25 26 -35t18 -11v-7h-163v7z" />
    <glyph glyph-name="l" unicode="l" horiz-adv-x="203" 
d="M19 7l-1 -2q14 3 21 9q8 6 11 18t3 35v60v473v54q0 21 -4 29q-5 10 -12 11q-7 2 -21 3v7l132 72v-648v-60q0 -21 5 -34q5 -12 12 -18t21 -9v-7h-167v7z" />
    <glyph glyph-name="m" unicode="m" horiz-adv-x="678" 
d="M19 7l-3 -1q12 3 18 9t9 18t3 35v60v165v56q0 20 -3 29t-11 12q-6 2 -21 4v8l130 74v-84q41 44 72 63t66 19q38 0 66 -19q29 -20 36 -64l3 3q42 43 72 62q32 20 66 20q20 0 38 -6q20 -6 32 -19q14 -14 23 -36q9 -23 9 -54v-233v-60q0 -22 3 -34t11 -18t21 -9v-7h-165v7
q14 3 21 9q8 6 11 18q4 15 5 35q1 15 1 60v257q0 38 -12 53t-30 15q-16 0 -40 -15t-64 -58l-1 -1v-252v-60q0 -22 3 -34t11 -18q7 -6 21 -9v-7h-165v7q13 3 21 9t11 18q4 15 5 35q1 15 1 60v257q0 38 -12 53t-30 15q-16 0 -40 -15q-25 -16 -66 -58v-253v-60q0 -21 5 -34
q4 -12 12 -18t21 -9v-7h-164v7z" />
    <glyph glyph-name="n" unicode="n" horiz-adv-x="458" 
d="M19 7l1 1q11 3 19 9q8 7 11 18q3 12 3 35v60v165q0 43 -1 56q-2 22 -4 29q-3 9 -11 12q-6 2 -21 4v8l130 74v-98l14 14q44 44 75 63t66 19q20 0 38 -6q19 -6 33 -19q15 -13 24 -36t9 -54v-233v-60q0 -22 3 -34t10 -18q8 -6 19 -9v-7h-165v7q14 3 21 9q8 6 11 18
q4 15 5 35q1 15 1 60v257q0 38 -12 53t-32 15q-16 0 -40 -15t-67 -58l-14 -14v-239v-60q0 -21 5 -34q4 -12 12 -18t21 -9v-7h-164v7z" />
    <glyph glyph-name="o" unicode="o" horiz-adv-x="447" 
d="M223 -8h-4q-29 0 -65 14q-35 14 -65 42q-29 27 -49 74q-19 44 -19 107q0 61 20 109q19 45 50 76q30 30 65 45t65 15q31 0 66 -15t65 -45q31 -31 50 -76q20 -48 20 -109q0 -63 -19 -107q-20 -47 -49 -74q-30 -28 -65 -42q-36 -14 -66 -14zM219 1q21 0 40 12t33 39
q13 27 21 71q8 46 8 108q0 64 -8 112q-7 45 -21 72t-33 39q-20 12 -40 12q-21 0 -39 -12q-19 -12 -32 -39q-14 -27 -21 -72q-8 -48 -8 -112q0 -62 8 -108q8 -44 21 -71q13 -26 32 -39q18 -12 39 -12z" />
    <glyph glyph-name="p" unicode="p" horiz-adv-x="464" 
d="M19 -159h-4q11 3 19 9t11 18t3 35v60v331v56q0 20 -3 29t-11 12q-6 2 -21 4v8l129 74v-87l3 4q33 40 61 61t63 21q27 0 57 -12t54 -39q25 -28 41 -70t16 -105q0 -61 -15 -109q-15 -49 -43 -81q-29 -34 -66 -50q-39 -17 -83 -17q-46 0 -85 30v-61v-60q0 -21 5 -34
q4 -12 12 -18t21 -9v-7h-164v7zM142 378v-342q41 -32 84 -32q22 0 42 12t35 41t24 72t9 105q0 67 -7 108q-8 45 -19 69q-12 26 -28 36q-17 11 -34 11q-21 0 -45 -18t-58 -58z" />
    <glyph glyph-name="q" unicode="q" horiz-adv-x="463" 
d="M284 -159l-1 -4q13 3 21 9t11 18t3 35v60v113q-31 -39 -60 -61q-28 -21 -63 -21q-26 0 -57 11q-30 11 -56 38q-25 27 -42 71q-16 42 -16 110q0 62 18 108t47 78t66 48q39 17 77 17q30 0 51 -6q19 -5 36 -14q5 -3 14 -7.5l13 -6.5q12 -6 26 -6q26 0 33 30h8v-499v-60
q0 -22 3 -34t11 -18q7 -6 21 -9v-7h-164v7zM122 229l-3 1q0 -68 9 -111q9 -45 22 -69q13 -25 30 -34q16 -9 33 -9q25 0 49 18q23 17 57 59v286q0 27 -5 44q-5 15 -17 26q-10 9 -26 15q-15 6 -39 6q-22 0 -42 -12t-35 -39t-24 -72t-9 -109z" />
    <glyph glyph-name="r" unicode="r" horiz-adv-x="320" 
d="M19 7v-6q11 3 19 9t11 18t3 35v60v168q0 41 -1 54q-2 22 -4 30q-3 10 -11 13q-6 2 -21 4v8l130 74v-99l17 19q26 30 34 38q15 15 27 24t23 12q10 3 23 3q23 0 33 -12q11 -13 11 -30q0 -19 -11 -30t-27 -11q-12 0 -21 6q-6 4 -16 12q-5 4 -13 12q-6 6 -15 6t-17 -7
q-11 -9 -30 -31l-17 -19v-239q0 -45 1 -60q1 -19 5 -34q3 -12 11 -18q7 -6 23 -9v-7h-167v7z" />
    <glyph glyph-name="s" unicode="s" horiz-adv-x="329" 
d="M169 3l3 -5q44 0 62 23t18 54q0 36 -24 63q-25 28 -79 60q-23 14 -52 35q-20 15 -37 35q-15 18 -21 39t-6 47q0 52 36 84q37 32 88 32q19 0 33 -3q18 -4 26 -7q4 -1 7.5 -2.5t7.5 -2.5t6 -2q9 -3 21 -3q14 0 18 16h8v-114l-8 1q-20 61 -51 86q-32 26 -69 26
q-35 0 -54 -16t-19 -48q0 -17 6 -30t18 -25q12 -11 31 -25q20 -13 45 -30q30 -17 58 -38q23 -17 39 -38t23 -42t7 -51t-12 -54q-13 -26 -31 -41q-21 -17 -45 -26q-26 -9 -52 -9t-44 6q-22 7 -32 13q-4 2 -12 6.5t-12 6.5q-10 6 -21 6q-14 0 -17 -17h-9v139h9
q36 -149 137 -149z" />
    <glyph glyph-name="t" unicode="t" horiz-adv-x="250" 
d="M159 -7l2 -3q-47 0 -76 27q-28 27 -28 77v360h-41v9q21 3 39 13q19 10 36 29q16 17 30 47q13 27 19 66h9v-153h89v-10h-89v-342q0 -54 8 -81q7 -25 36 -25q17 0 27 6q9 5 18 14l5 -5q-6 -7 -26 -19q-17 -10 -58 -10z" />
    <glyph glyph-name="u" unicode="u" horiz-adv-x="445" 
d="M158 -8l-1 -7q-19 0 -39 6t-34 19q-15 14 -24 36t-9 54v190v54q0 20 -3 30t-11 13q-6 2 -21 4v8l129 74v-394q0 -40 13 -54q14 -15 33 -15q17 0 41 15q25 16 66 58l2 2v208v54q0 19 -3 30q-3 10 -11 13q-6 2 -21 4v8l129 74v-349v-60q0 -22 3 -34q3 -11 11 -18
q8 -6 21 -9v-7h-128v77l-2 -2q-43 -44 -75 -63q-31 -19 -66 -19z" />
    <glyph glyph-name="v" unicode="v" horiz-adv-x="382" 
d="M57 355l-1 -2q-11 36 -18 53q-6 17 -14 30q-6 10 -12 15q-7 5 -14 8v6h160v-6q-12 -1 -18 -6q-5 -4 -7 -15q-1 -10 3 -30t15 -51l80 -242l74 218q13 40 18 65t2 36q-3 13 -12 17q-11 5 -24 8v6h97v-6q-12 -3 -18 -7q-7 -4 -15 -17q-6 -10 -16 -36q-12 -32 -23 -65
l-115 -339h-17z" />
    <glyph glyph-name="w" unicode="w" horiz-adv-x="565" 
d="M56 355l-3 -2q-3 9 -9 27.5t-8 25.5q-6 20 -12 30t-12 15q-5 4 -13 7v6h152v-6q-10 -1 -16 -6q-6 -4 -6 -15q0 -13 4 -30q5 -19 15 -51l75 -239l60 163l-23 73q-4 13 -10 31.5t-7 22.5q-6 19 -12 30t-12 15q-5 4 -13 7v6h154v-6q-11 -2 -17 -6q-7 -5 -8 -15q-1 -9 2 -30
q3 -17 14 -51l71 -232l65 210q13 39 16 65q3 24 -1 35q-4 12 -13 16q-9 5 -21 9v6h100v-6q-12 -3 -18 -7q-8 -5 -15 -16q-6 -9 -16 -35q-6 -14 -22 -65l-107 -342h-17l-84 271l-99 -271h-17z" />
    <glyph glyph-name="x" unicode="x" horiz-adv-x="388" 
d="M7 6l2 -4q15 7 23 12t18 17q11 13 20 27q10 16 27 45l62 103l-75 145q-20 40 -27 53q-11 20 -18 30q-8 11 -14 14t-15 6v6h164v-6q-11 -1 -18 -5q-6 -3 -6 -13t6 -27q4 -12 20 -45l47 -91l48 83q20 34 26 51q7 18 7 30q0 10 -8 15q-8 4 -18 6v6h91v-6q-17 -7 -21 -10
q-6 -4 -16 -15q-8 -10 -19 -28t-30 -51l-53 -90l80 -155q13 -26 27 -52q11 -19 18 -30q7 -10 14 -15q4 -3 14 -7v-6h-161v6q12 1 18 6t6 15q0 12 -7 27q-7 17 -21 45l-53 103l-58 -96q-17 -27 -24 -45q-7 -17 -7 -29q0 -11 6 -17t17 -8v-6h-92v6z" />
    <glyph glyph-name="y" unicode="y" horiz-adv-x="388" 
d="M74 -171l-4 6q-23 0 -33 10q-11 11 -11 25q0 33 34 33q10 0 18 -3q10 -4 14 -6l12 -6q6 -3 14 -3q6 0 12 3q5 3 13 12q5 6 16 26q7 13 19 42l10 29l-132 362q-4 10 -7.5 19.5t-7.5 19t-5 13.5q-6 17 -14 30q-6 11 -12 15q-4 3 -14 7v6h160v-6q-11 -2 -17 -6q-5 -4 -7 -15
q-2 -10 3 -30t15 -51l83 -238l76 214q14 41 18 64q5 25 2 36q-3 13 -12 17t-23 6v6h95v-6q-11 -3 -16 -7q-6 -5 -14 -17q-6 -10 -16 -36q-15 -40 -23 -64l-132 -371q-28 -73 -54 -105q-25 -31 -60 -31z" />
    <glyph glyph-name="z" unicode="z" horiz-adv-x="360" 
d="M331 -10l3 -1q-10 4 -16 5q-9 2 -24 3q-20 2 -37 2h-55h-191l229 458h-70q-38 0 -59 -7q-22 -7 -37 -21t-24 -31q-10 -20 -18 -40h-8l21 117q15 -7 44 -9q19 -1 84 -1h166l-233 -458h86q37 0 63 8q23 7 39 23t26 37q10 23 21 51h8z" />
    <glyph glyph-name="braceleft" unicode="{" horiz-adv-x="249" 
d="M234 -106l-3 -7q-37 0 -72 8q-32 7 -57 23q-23 14 -37 38q-13 22 -13 54q0 29 11 62q7 21 23 63t23 62q11 31 11 58q0 8 -2 26q-2 14 -12 26q-11 13 -31 20q-22 8 -59 8v8q37 0 59 8q21 8 32 20q10 12 12 26q2 18 2 26q0 26 -11 57q-7 20 -23 62t-23 63q-11 33 -11 62
q0 32 13 54q14 24 37 38q25 16 57 23q35 8 72 8v-8q-54 0 -79 -24t-25 -78q0 -27 8 -59q10 -40 16 -60q4 -13 16 -59q8 -30 8 -56q0 -40 -31 -70q-31 -29 -87 -34q56 -5 87 -34q31 -30 31 -70q0 -29 -7 -56q-12 -46 -16 -59q-6 -20 -16 -60q-7 -28 -7 -58q0 -55 25 -79
t79 -24v-8z" />
    <glyph glyph-name="bar" unicode="|" horiz-adv-x="244" 
d="M129 820v-926h-15v926h15z" />
    <glyph glyph-name="braceright" unicode="}" horiz-adv-x="249" 
d="M15 -98l-4 -5q53 0 79 24q25 24 25 79q0 31 -7 59q-10 40 -16 60q-4 13 -16 59q-7 27 -7 56q0 41 31 71q32 31 87 35q-55 4 -87 35q-31 30 -31 71q0 26 8 56q12 46 16 59q6 20 16 60q8 32 8 59q0 54 -25 78t-79 24v8q41 0 72 -7q32 -7 57 -23q23 -14 37 -38
q13 -22 13 -54t-10 -62q-10 -32 -24 -63q-13 -29 -24 -62q-11 -31 -11 -57q0 -8 2 -26q2 -14 12 -26q10 -11 32 -19q20 -7 59 -7v-8q-39 0 -59 -7q-21 -7 -31 -19t-12 -26q-2 -18 -2 -26q0 -27 11 -58q10 -27 24 -61q13 -31 24 -63q11 -33 11 -62q0 -32 -13 -54
q-14 -24 -37 -38q-25 -16 -57 -23q-31 -7 -72 -7v8z" />
    <glyph glyph-name="asciitilde" unicode="~" horiz-adv-x="312" 
d="M107 412h-3q14 0 29 -3l30 -6l30 -6q15 -3 26 -3q10 0 23 8t26 33l7 -3q-14 -48 -31 -70q-18 -22 -37 -22q-13 0 -28 3l-30 6l-30 6q-15 3 -28 3q-12 0 -23 -7q-13 -8 -29 -36l-7 3q34 94 75 94z" />
    <glyph glyph-name="uni00A0" unicode="&#xa0;" horiz-adv-x="180" 
 />
    <glyph glyph-name="exclamdown" unicode="&#xa1;" horiz-adv-x="209" 
d="M96 259h4h10q4 -101 14 -189q9 -83 18 -140q11 -69 16 -97q7 -36 7 -61q0 -31 -17 -50q-16 -18 -45 -18t-45 18q-16 17 -16 50q0 22 6 61q2 11 7 43.5t8 53.5q9 57 18 140q9 81 15 189zM101 473h1q26 0 42 -16t16 -42t-16 -42t-42 -16t-42 16q-17 17 -17 42q0 26 16 42
t42 16z" />
    <glyph glyph-name="cent" unicode="&#xa2;" horiz-adv-x="378" 
d="M230 -6l-5 -81h-13v81q-39 3 -75 20q-33 16 -61 47q-27 30 -42 73q-15 44 -15 99t18 99t45 74t62 47q36 17 69 20v81h13v-81q28 0 49 -4q24 -5 42 -12q19 -8 29 -21q11 -14 11 -30q0 -14 -9 -24t-26 -10q-23 0 -32 13q-8 12 -16 39q-4 22 -14 33q-9 10 -31 10v-458
q3 -1 9 -1h9q39 0 67 15t45 35l7 -6q-19 -22 -51 -40q-31 -18 -81 -18h-4zM116 244l-1 -1q0 -107 25 -163t72 -70v454q-42 -8 -69 -61q-27 -54 -27 -159z" />
    <glyph glyph-name="sterling" unicode="&#xa3;" horiz-adv-x="429" 
d="M68 51l-9 4q15 17 27 33q13 18 21 34q8 17 13 37q4 17 4 45q0 20 -3 39q-2 13 -8 39h-101v11h98q-3 11 -11 33t-13 33h-74v11h69q-11 29 -31 87q-15 43 -15 93q0 51 18 90t47 65q28 25 65 39q35 13 71 13q34 0 63 -9t50 -24q22 -15 33 -34q12 -20 12 -42q0 -19 -10 -30
q-10 -12 -30 -12t-33 11q-12 11 -15 30q-2 26 -3 38q-2 20 -7 32q-6 14 -19 21q-14 8 -39 8q-28 0 -46 -12t-30 -34q-11 -21 -16 -54q-5 -35 -5 -69q0 -59 12 -112t24 -99h155v-11h-153q7 -27 8 -34q4 -22 5 -33h140v-11h-139q1 -3 1 -9v-9q0 -33 -9 -60t-21 -48
q-11 -20 -27 -37q-10 -11 -27 -28h148q54 0 72 1q28 2 44 6q18 5 26 13q9 9 15 23h8l-23 -91q-7 -23 -12 -31q-4 -7 -21 -7h-343z" />
    <glyph glyph-name="yen" unicode="&#xa5;" horiz-adv-x="459" 
d="M141 7l-8 -4q16 4 25 12q8 7 13 27q4 19 6 59q1 26 1 107v104h-142v11h142v69h-142v11h138l-102 220q-10 20 -22 46q-9 19 -18 33q-10 15 -18 23q-11 11 -22 17v6h179v-6q-23 -6 -24 -21t15 -52l115 -251l79 201q12 29 21 53q7 20 7 35q0 13 -9 21q-10 8 -27 14v6h100v-6
q-9 -4 -18 -11q-8 -6 -15 -19l-18 -36q-7 -15 -25 -60l-84 -211h142v-11h-142v-69h142v-11h-142v-104q0 -80 1 -106q1 -38 6 -58t13 -27q9 -8 25 -12v-7h-192v7z" />
    <glyph glyph-name="brokenbar" unicode="&#xa6;" horiz-adv-x="244" 
d="M129 820v-380h-15v380h15zM129 -106h-15v380h15v-380z" />
    <glyph glyph-name="section" unicode="&#xa7;" horiz-adv-x="450" 
d="M204 -145l-1 -4q49 0 72 30q23 31 23 80q0 27 -9 51q-9 25 -27 50q-21 29 -46 56q-28 30 -69 69q-39 39 -54 55q-24 26 -38 48t-22 48q-7 22 -7 55q0 29 7 50q8 23 19 40t27 31t32 23q-17 39 -17 81q0 38 12 66t33 48t48 30q26 10 59 10t60 -9q28 -9 45 -22
q19 -14 29 -30q11 -17 11 -33q0 -14 -9 -23t-25 -9q-18 0 -28 10q-11 10 -15 30l-8 28q-5 16 -10 24q-6 10 -18 18q-11 7 -31 7q-41 0 -67 -24q-25 -24 -25 -68q0 -23 6 -43q5 -17 20 -40q13 -20 38 -45q7 -7 27 -26.5t32 -31.5q50 -50 69 -70q29 -30 48 -57q19 -26 28 -54
q9 -27 9 -58q0 -44 -24 -82q-25 -38 -58 -66q14 -33 14 -74q0 -39 -12 -72t-33 -57q-20 -23 -51 -37q-29 -13 -64 -13q-36 0 -65 10t-52 27t-35 39q-12 23 -12 45q0 16 9 26q9 11 26 11q20 0 29 -12t12 -28q4 -23 9 -46q4 -19 14 -34q9 -13 24 -21q14 -7 41 -7zM212 262
l-2 1q49 -49 84 -89q31 -35 48 -68q14 16 20 33q6 18 6 39q0 29 -9 53q-10 26 -28 50q-21 28 -48 56q-19 20 -69 70q-26 26 -60 62q-24 25 -40 56q-14 -9 -24 -27q-10 -17 -10 -47q0 -22 8 -43q7 -19 24 -40q12 -15 41 -46q16 -17 59 -60z" />
    <glyph glyph-name="dieresis" unicode="&#xa8;" horiz-adv-x="446" 
d="M300 544v-2q-22 0 -36 15q-14 16 -14 38q0 19 14 35q14 15 36 15t35 -15q14 -16 14 -34q0 -21 -14 -37q-13 -15 -35 -15zM146 542v-2q-22 0 -35 15q-14 16 -14 38q0 19 14 35q14 15 35 15q22 0 36 -15q14 -16 14 -34q0 -21 -14 -37q-14 -15 -36 -15z" />
    <glyph glyph-name="copyright" unicode="&#xa9;" horiz-adv-x="683" 
d="M342 759q64 0 120 -28q57 -28 100 -79t69 -122q25 -69 25 -156t-25 -156q-26 -71 -69 -122t-100 -79q-56 -28 -120 -28q-65 0 -121 28q-57 28 -100 79t-69 122q-25 69 -25 156t25 156q26 71 69 122t100 79q56 28 121 28zM342 -2l-2 -4q62 0 117 27q56 27 98 77
q42 49 66 119q24 69 24 154t-24 154q-24 70 -66 119q-43 51 -97 77q-56 27 -117 27t-117 -27q-55 -27 -97 -76q-41 -49 -67 -118q-25 -68 -25 -154t25 -154q26 -69 67 -118q41 -48 98 -76q55 -27 117 -27zM359 145l1 -4q-33 0 -67 14q-33 13 -57 42t-39 72t-15 102
q0 61 16 102q16 42 42 69q25 27 56 39q30 12 60 12q17 0 29 -3t21 -6q6 -2 16 -6q8 -3 15 -3q13 0 18 17h6v-103h-6q-15 56 -42 77t-58 21q-40 0 -67 -48t-27 -160q0 -63 9 -105q9 -43 24 -68t35 -36t42 -11q34 0 57 14q22 13 36 30l4 -5q-13 -17 -39 -35q-27 -18 -70 -18z
" />
    <glyph glyph-name="ordfeminine" unicode="&#xaa;" horiz-adv-x="316" 
d="M101 391l-4 -4q-34 0 -57 20t-23 57q0 25 11 41t27 26q13 8 38 19q14 6 42 20l12 4q22 10 33 23t11 36v55q0 37 -14 48t-33 11t-28 -9q-8 -8 -16 -27q-5 -14 -12 -23q-8 -9 -24 -9q-13 0 -21 8q-7 7 -7 18q0 20 30 35t78 15q24 0 47 -3t40 -13q18 -10 28 -28
q10 -17 10 -46v-169q0 -36 1 -48q2 -20 4 -28q3 -10 7 -13q5 -3 12 -3q12 0 20 7l2 -4q-4 -4 -16 -10t-37 -6q-32 0 -48 13q-16 14 -18 36l-2 -2q-24 -24 -42 -35q-20 -12 -51 -12zM93 478l-1 -1q0 -73 37 -73q13 0 26 9q12 8 33 29l1 1v159q-5 -10 -15 -18q-13 -10 -27 -17
l-11 -4q-25 -15 -34 -34t-9 -51z" />
    <glyph glyph-name="guillemotleft" unicode="&#xab;" horiz-adv-x="322" 
d="M153 226v8l135 161l6 -4l-71 -161l72 -161l-6 -4zM29 226v8l136 161l6 -4l-71 -161l72 -161l-6 -4z" />
    <glyph glyph-name="registered" unicode="&#xae;" horiz-adv-x="430" 
d="M217 758v-3q39 0 72 -16q35 -17 60 -46q27 -31 41 -70q15 -41 15 -87q0 -48 -15 -88q-14 -39 -41 -70q-25 -29 -60 -46q-33 -16 -72 -16q-38 0 -75 17t-63 46q-27 30 -42 70q-15 41 -15 89q0 46 15 87q15 40 42 70q26 29 63 46t75 17zM217 324l-2 -3q37 0 69 16
q33 17 57 45q24 29 39 67q15 39 15 85t-15 85q-15 38 -39 67q-25 29 -57 44q-33 15 -69 15q-37 0 -70 -15q-35 -16 -59 -43q-25 -28 -40 -67t-15 -85t15 -85q14 -37 41 -67q26 -29 59 -44t71 -15zM137 427l-5 -1q6 2 8 3t4 8q2 8 2 18v33v102v33q0 10 -2 18q-2 7 -4 8
q-4 2 -7 3v4h74q44 0 66 -13q23 -14 23 -43q0 -32 -24 -47t-57 -15q22 -2 35 -13q14 -13 20 -43q8 -32 13 -43q6 -12 15 -12q10 0 14 6l2 -3q-4 -5 -10 -8q-8 -3 -21 -3q-20 0 -32 12t-18 47l-7 35q-3 12 -6 18q-3 5 -8 7q-3 1 -14 1h-7v-50v-33q0 -10 2 -18q2 -7 4 -8t8 -3
v-4h-68v4zM186 654v-111h24q26 0 36 15q11 16 11 41q0 29 -12 42t-41 13h-18z" />
    <glyph glyph-name="macron" unicode="&#xaf;" horiz-adv-x="446" 
d="M318 607v-41h-186v41h186z" />
    <glyph glyph-name="degree" unicode="&#xb0;" horiz-adv-x="227" 
d="M113 758q36 0 61 -25t25 -63t-25 -63t-61 -25t-60 26t-24 62q0 38 24 63t60 25zM40 671v-2q0 -31 21 -54q21 -22 52 -22q32 0 53 23q21 22 21 54t-21 54q-21 23 -53 23q-31 0 -52 -22q-21 -23 -21 -54z" />
    <glyph glyph-name="twosuperior" unicode="&#xb2;" horiz-adv-x="348" 
d="M183 519l1 -2h49q18 0 27 3q10 4 14 7q4 4 7 12h6l-15 -60q-3 -11 -6 -14t-7 -3h-206l78 99q38 52 57 95q18 42 18 92q0 37 -11 61q-10 22 -38 22q-11 0 -18 -5q-6 -4 -9 -12q-2 -6 -4 -16q-1 -6 -3 -16q-1 -11 -9 -19q-7 -7 -21 -7q-13 0 -21 8q-7 7 -7 20q0 20 24 38
t68 18q22 0 41 -4q20 -4 37 -15t27 -28t10 -44q0 -24 -9 -46q-9 -23 -24 -45q-15 -23 -37 -46q-30 -32 -49 -51l-49 -42h79z" />
    <glyph glyph-name="threesuperior" unicode="&#xb3;" horiz-adv-x="335" 
d="M86 821l-4 -3q2 7 5 13q1 3 6 3h178v-4l-127 -142q15 7 33 7q44 0 75 -26q30 -25 30 -84q0 -55 -36 -89q-37 -35 -96 -35q-42 0 -67 18t-25 38q0 11 6 18q6 8 20 8q13 0 19 -7q7 -8 8 -19q2 -10 3 -16q1 -8 6 -16q4 -7 12 -12t21 -5q35 0 50 33t15 86q0 49 -9 76t-34 27
q-19 0 -33 -9t-24 -21l-4 5l106 116h-63h-42q-15 0 -22 -3q-9 -3 -11 -7q-1 -2 -3.5 -6t-3.5 -6h-6z" />
    <glyph glyph-name="acute" unicode="&#xb4;" horiz-adv-x="446" 
d="M158 529l78 128q11 20 21 29q11 9 26 9q16 0 25 -9t9 -23q0 -15 -8 -26q-7 -11 -21 -21l-124 -92z" />
    <glyph glyph-name="paragraph" unicode="&#xb6;" horiz-adv-x="460" 
d="M220 398l-1 3q-43 0 -81 12q-36 11 -64 35q-27 22 -42 56q-15 33 -15 76t15 76q15 32 42 55q27 22 65 33q39 11 81 11h223v-7q-15 -4 -24 -12q-9 -7 -13 -28t-6 -60q-1 -26 -1 -108v-341q0 -85 -13 -138q-14 -56 -39 -89q-26 -33 -61 -48q-36 -15 -81 -15q-39 0 -61 14
q-21 13 -21 36q0 17 9 26t26 9q19 0 30 -10q10 -9 22 -24q10 -14 21 -24q10 -10 27 -10q14 0 27 9t24 33q10 22 16 66q6 42 6 106v600h-68v-342h-43z" />
    <glyph glyph-name="periodcentered" unicode="&#xb7;" horiz-adv-x="194" 
d="M96 230h-1q-25 0 -41 16q-17 17 -17 42t17 42q16 16 41 16q26 0 42 -16q17 -17 17 -42q0 -26 -16 -42t-42 -16z" />
    <glyph glyph-name="cedilla" unicode="&#xb8;" horiz-adv-x="446" 
d="M244 0l-26 -44q37 -5 62 -22q26 -18 26 -47q0 -35 -36 -54t-113 -21l-1 8q44 5 68 18q24 14 24 31t-18 26q-17 8 -44 10l-2 5l49 90h11z" />
    <glyph glyph-name="onesuperior" unicode="&#xb9;" horiz-adv-x="249" 
d="M68 465l-2 6q10 1 17 5q6 3 9 14q2 8 4 31q1 14 1 57v132v35q0 12 -3 18q-3 7 -9 8q-8 2 -18 2v6l97 64v-266v-57q0 -21 3 -31t9 -13q7 -4 17 -5v-6h-125z" />
    <glyph glyph-name="ordmasculine" unicode="&#xba;" horiz-adv-x="346" 
d="M173 387v-3q-23 0 -51 11q-27 10 -50 32q-23 21 -38 56t-15 83q0 49 15 85q15 35 38 60q23 24 50 35q28 11 51 11t51 -11q29 -11 50 -34q23 -25 38 -60q15 -36 15 -85q0 -47 -15 -82t-38 -56q-23 -22 -50 -32q-26 -10 -51 -10zM173 391h-2q15 0 29 9t24 30q11 23 17 54
q6 33 6 83q0 53 -6 87t-17 56q-10 21 -24 30t-28 9q-16 0 -29 -9t-24 -30q-10 -19 -16 -56q-6 -34 -6 -87q0 -50 6 -83q6 -31 17 -54q10 -21 24 -30t29 -9z" />
    <glyph glyph-name="guillemotright" unicode="&#xbb;" horiz-adv-x="322" 
d="M27 69l72 161l-71 161l6 4l136 -161v-8l-137 -161zM150 69l72 161l-71 161l7 4l135 -161v-8l-136 -161z" />
    <glyph glyph-name="onequarter" unicode="&#xbc;" horiz-adv-x="452" 
d="M296 -6l-4 -1q0 -19 2 -39q2 -16 4 -22q3 -7 7 -10q3 -2 12 -4v-6h-108v6q9 2 12 4q4 2 7 11q2 6 4 22q1 10 1 39h-142v5l187 288h18v-246h57l-20 -47h-37zM229 40v163l-106 -163h106zM51 378h343v-8h-343v8zM161 464l-2 6q10 1 17 5q6 3 9 14q2 8 4 31q1 14 1 57v132v35
q0 12 -3 18q-3 7 -9 8q-8 2 -18 2v6l97 64v-266v-57q0 -21 3 -31t9 -13q7 -4 17 -5v-6h-125z" />
    <glyph glyph-name="onehalf" unicode="&#xbd;" horiz-adv-x="452" 
d="M55 379h343v-8h-343v8zM165 465l-2 6q10 1 17 5q6 3 9 14q2 8 4 31q1 14 1 57v132v35q0 12 -3 18q-3 7 -9 8q-8 2 -18 2v6l97 64v-266v-57q0 -21 3 -31t9 -13q7 -4 17 -5v-6h-125zM238 -33l1 -2h49q18 0 27 3q10 4 14 7q4 4 7 12h6l-15 -60q-3 -11 -6 -14t-7 -3h-206
l78 99q38 52 57 95q18 42 18 92q0 37 -11 61q-10 22 -38 22q-11 0 -18 -5q-6 -4 -9 -12q-2 -6 -4 -16q-1 -6 -3 -16q-1 -11 -9 -19q-7 -7 -21 -7q-13 0 -21 8q-7 7 -7 20q0 20 24 38t68 18q22 0 41 -4q20 -4 37 -15t27 -28t10 -44q0 -23 -9 -46t-24 -45q-15 -23 -37 -46
q-30 -32 -49 -51l-49 -42h79z" />
    <glyph glyph-name="threequarters" unicode="&#xbe;" horiz-adv-x="452" 
d="M296 -6l-4 -1q0 -19 2 -39q2 -16 4 -22q3 -7 7 -10q3 -2 12 -4v-6h-108v6q9 2 12 4q4 2 7 11q2 6 4 22q1 10 1 39h-142v5l187 288h18v-246h57l-20 -47h-37zM229 40v163l-106 -163h106zM51 378h343v-8h-343v8zM135 820l-4 -3q2 7 5 13q2 3 6 3h178v-4l-127 -142q15 7 33 7
q44 0 75 -26q30 -26 30 -84q0 -54 -36 -89q-37 -35 -96 -35q-41 0 -67 18q-25 18 -25 38q0 10 6 18t20 8q13 0 19 -7q7 -8 8 -19q2 -10 3 -16q1 -8 6 -16t12 -12q8 -5 21 -5q35 0 50 33t15 86q0 49 -9 76t-34 27q-20 0 -33 -9t-24 -21l-4 5l106 116h-63h-42q-14 0 -22 -3
q-9 -3 -11 -7q-1 -2 -3.5 -6t-3.5 -6h-6z" />
    <glyph glyph-name="questiondown" unicode="&#xbf;" horiz-adv-x="361" 
d="M236 265l-2 -1q0 -47 -8 -90q-7 -37 -20 -75q-10 -28 -26 -66q-24 -56 -26 -61q-13 -32 -20 -62q-8 -34 -8 -67q0 -73 21 -102q21 -28 61 -28q21 0 30 11q10 11 14 32q2 8 6 22q3 10 9 18t15 12q10 5 22 5q18 0 28 -12t9 -28q-2 -27 -34 -48q-33 -21 -100 -21
q-39 0 -72 9q-32 9 -57 29t-38 48q-14 30 -14 66t14 69q12 28 35 61q18 25 47 58q24 27 48 62q22 33 39 72q16 38 19 87h8zM218 472q26 0 42 -16t16 -42t-16 -42t-42 -16t-42 16t-16 42t16 42t42 16z" />
    <glyph glyph-name="Agrave" unicode="&#xc0;" horiz-adv-x="542" 
d="M4 6q10 4 18 12t15 21t15 36q6 19 18 59l146 527l-6 21q-6 18 -12 31q-5 11 -12 19q-5 7 -12 10q-8 4 -13 5v6h123q8 0 11 -3t6 -12l178 -609q2 -8 4.5 -17t5.5 -18.5t4 -13.5q6 -21 12 -36q6 -14 14 -24q7 -8 20 -13v-7h-165v7q20 5 23 21q3 15 -8 55l-43 144h-238
l-26 -95q-8 -31 -12 -49q-4 -21 -3 -36q1 -14 11 -25q8 -10 27 -16v-6h-101v6zM342 235l-121 405l-112 -405h233zM178 813l-2 -2q-26 6 -36 18q-10 11 -10 27q0 14 9 23t24 9q13 0 22 -4q11 -4 21 -12l124 -86l-3 -6z" />
    <glyph glyph-name="Aacute" unicode="&#xc1;" horiz-adv-x="542" 
d="M4 6q10 4 18 12t15 21t15 36q6 19 18 59l146 527l-6 21q-6 18 -12 31q-5 11 -12 19q-5 7 -12 10q-8 4 -13 5v6h123q8 0 11 -3t6 -12l178 -609q2 -8 4.5 -17t5.5 -18.5t4 -13.5q6 -21 12 -36q6 -14 14 -24q7 -8 20 -13v-7h-165v7q20 5 23 21q3 15 -8 55l-43 144h-238
l-26 -95q-8 -31 -12 -49q-4 -21 -3 -36q1 -14 11 -25q8 -10 27 -16v-6h-101v6zM342 235l-121 405l-112 -405h233zM156 786l122 86q10 8 21 12q12 5 22 5q15 0 24 -9t9 -22q0 -16 -10 -27q-10 -12 -36 -18l-150 -33z" />
    <glyph glyph-name="Acircumflex" unicode="&#xc2;" horiz-adv-x="542" 
d="M4 6q10 4 18 12t15 21t15 36q6 19 18 59l146 527l-6 21q-6 18 -12 31q-5 11 -12 19q-5 7 -12 10q-8 4 -13 5v6h123q8 0 11 -3t6 -12l178 -609q2 -8 4.5 -17t5.5 -18.5t4 -13.5q6 -21 12 -36q6 -14 14 -24q7 -8 20 -13v-7h-165v7q20 5 23 21q3 15 -8 55l-43 144h-238
l-26 -95q-8 -31 -12 -49q-4 -21 -3 -36q1 -14 11 -25q8 -10 27 -16v-6h-101v6zM342 235l-121 405l-112 -405h233zM241 897l123 -113l-3 -5l-120 44l-119 -44l-3 5z" />
    <glyph glyph-name="Atilde" unicode="&#xc3;" horiz-adv-x="542" 
d="M4 6q10 4 18 12t15 21t15 36q6 19 18 59l146 527l-6 21q-6 18 -12 31q-5 11 -12 19q-5 7 -12 10q-8 4 -13 5v6h123q8 0 11 -3t6 -12l178 -609q2 -8 4.5 -17t5.5 -18.5t4 -13.5q6 -21 12 -36q6 -14 14 -24q7 -8 20 -13v-7h-165v7q20 5 23 21q3 15 -8 55l-43 144h-238
l-26 -95q-8 -31 -12 -49q-4 -21 -3 -36q1 -14 11 -25q8 -10 27 -16v-6h-101v6zM342 235l-121 405l-112 -405h233zM205 866l-4 -1q23 0 50 -3t44 -3q11 0 23 9t29 32l6 -2q-11 -49 -27 -71q-17 -23 -36 -23q-22 0 -49 3t-48 3q-11 0 -21 -7t-27 -33l-7 2q13 49 32 72
q18 22 35 22z" />
    <glyph glyph-name="Adieresis" unicode="&#xc4;" horiz-adv-x="542" 
d="M4 6q10 4 18 12t15 21t15 36q6 19 18 59l146 527l-6 21q-6 18 -12 31q-5 11 -12 19q-5 7 -12 10q-8 4 -13 5v6h123q8 0 11 -3t6 -12l178 -609q2 -8 4.5 -17t5.5 -18.5t4 -13.5q6 -21 12 -36q6 -14 14 -24q7 -8 20 -13v-7h-165v7q20 5 23 21q3 15 -8 55l-43 144h-238
l-26 -95q-8 -31 -12 -49q-4 -21 -3 -36q1 -14 11 -25q8 -10 27 -16v-6h-101v6zM342 235l-121 405l-112 -405h233zM324 785q-21 0 -36 15t-15 37q0 21 15 36t36 15t36 -15t15 -36q0 -22 -15 -37t-36 -15zM158 785q-21 0 -36 15t-15 37q0 21 15 36t36 15t36 -15t15 -36
q0 -22 -15 -37t-36 -15z" />
    <glyph glyph-name="Aring" unicode="&#xc5;" horiz-adv-x="542" 
d="M4 6q10 4 18 12t15 21t15 36q6 19 18 59l146 527l-6 21q-6 18 -12 31q-5 11 -12 19q-5 7 -12 10q-8 4 -13 5v6h123q8 0 11 -3t6 -12l178 -609q2 -8 4.5 -17t5.5 -18.5t4 -13.5q6 -21 12 -36q6 -14 14 -24q7 -8 20 -13v-7h-165v7q20 5 23 21q3 15 -8 55l-43 144h-238
l-26 -95q-8 -31 -12 -49q-4 -21 -3 -36q1 -14 11 -25q8 -10 27 -16v-6h-101v6zM342 235l-121 405l-112 -405h233zM161 851l-3 -1q0 32 23 53t57 21t58 -21t24 -52q0 -33 -23 -54t-57 -21t-57 21q-22 21 -22 54zM198 850q0 -32 10 -48q11 -17 30 -17t30 17t11 48q0 28 -11 47
q-10 18 -30 18t-30 -18q-10 -17 -10 -47z" />
    <glyph glyph-name="AE" unicode="&#xc6;" horiz-adv-x="748" 
d="M577 331l-5 -3q-6 20 -9 29q-5 16 -13 26q-9 12 -27 18t-51 6h-29v-401h98q44 0 71 4q29 4 51 17q22 12 35 36q14 24 24 63h9l-12 -111q-1 -13 -6 -15q-6 -2 -12 -2h-405v7q15 5 24 12q10 8 14 28q4 21 6 59q1 25 1 105v22h-210l-46 -107q-23 -56 -24 -82q-1 -27 27 -37
v-6h-94v6q10 5 17 12q8 8 17 20q10 14 20 33q16 32 26 54l239 555q14 35 8 46q-6 13 -36 17v7h390q7 0 12 -3t6 -18l17 -96h-9q-11 33 -24 54t-33 33q-21 13 -48 17q-32 5 -66 5h-83v-322h29q33 0 51 6t27 18q10 13 14 26q3 9 9 29h7v-167h-7zM338 237v480l-207 -480h207z
" />
    <glyph glyph-name="Ccedilla" unicode="&#xc7;" horiz-adv-x="524" 
d="M319 -9h1q-55 0 -109 23q-51 22 -91 71q-39 48 -63 121q-24 74 -24 174q0 102 26 175q25 72 66 117t90 66q50 21 98 21q28 0 51 -5q18 -4 36 -11q4 -1 13.5 -5t13.5 -6q13 -5 25 -5q23 0 30 28h9v-163h-9q-12 45 -30 75t-40 49q-22 20 -48 27q-27 8 -52 8q-37 0 -66 -19
q-31 -20 -53 -63q-23 -44 -36 -112q-13 -66 -13 -166q0 -107 15 -181q15 -73 42 -118q27 -44 63 -64q35 -19 77 -19q57 0 95 24q37 23 60 53l6 -7q-12 -15 -27 -29t-39 -28q-21 -12 -51 -22q-29 -9 -66 -9zM277 0l-26 -44q37 -5 62 -22q26 -18 26 -47q0 -35 -36 -54
t-113 -21l-1 8q44 5 68 18q24 14 24 31t-18 26q-17 8 -44 10l-2 5l49 90h11z" />
    <glyph glyph-name="Egrave" unicode="&#xc8;" horiz-adv-x="481" 
d="M18 7l-4 -4q15 5 24 12q10 8 14 28q4 21 6 59q1 25 1 105v330q0 80 -1 106q-2 39 -6 60q-5 21 -13 27q-10 7 -24 11v7h393q8 0 12 -3t6 -18l17 -96h-9q-10 33 -24 54t-34 33q-22 13 -49 17q-32 5 -67 5h-95v-322h38q33 0 51 6q19 6 29 18t15 26q3 9 9 29h7v-167h-7
q-6 20 -9 29q-5 14 -15 26q-11 12 -28 18q-18 6 -51 6h-38v-401h110q45 0 72 4q29 4 51 17q22 12 35 36q14 24 24 63h9l-12 -111q-1 -13 -6 -15q-6 -2 -12 -2h-419v7zM178 809l-2 -2q-26 6 -36 18q-10 11 -10 27q0 14 9 23t24 9q13 0 22 -4q11 -4 21 -12l124 -86l-3 -6z" />
    <glyph glyph-name="Eacute" unicode="&#xc9;" horiz-adv-x="481" 
d="M18 7l-4 -4q15 5 24 12q10 8 14 28q4 21 6 59q1 25 1 105v330q0 80 -1 106q-2 39 -6 60q-5 21 -13 27q-10 7 -24 11v7h393q8 0 12 -3t6 -18l17 -96h-9q-10 33 -24 54t-34 33q-22 13 -49 17q-32 5 -67 5h-95v-322h38q33 0 51 6q19 6 29 18t15 26q3 9 9 29h7v-167h-7
q-6 20 -9 29q-5 14 -15 26q-11 12 -28 18q-18 6 -51 6h-38v-401h110q45 0 72 4q29 4 51 17q22 12 35 36q14 24 24 63h9l-12 -111q-1 -13 -6 -15q-6 -2 -12 -2h-419v7zM155 782l122 86q11 8 21 12q12 5 22 5q15 0 24 -9t9 -22q0 -16 -10 -27q-11 -12 -36 -18l-150 -33z" />
    <glyph glyph-name="Ecircumflex" unicode="&#xca;" horiz-adv-x="481" 
d="M18 7l-4 -4q15 5 24 12q10 8 14 28q4 21 6 59q1 25 1 105v330q0 80 -1 106q-2 39 -6 60q-5 21 -13 27q-10 7 -24 11v7h393q8 0 12 -3t6 -18l17 -96h-9q-10 33 -24 54t-34 33q-22 13 -49 17q-32 5 -67 5h-95v-322h38q33 0 51 6q19 6 29 18t15 26q3 9 9 29h7v-167h-7
q-6 20 -9 29q-5 14 -15 26q-11 12 -28 18q-18 6 -51 6h-38v-401h110q45 0 72 4q29 4 51 17q22 12 35 36q14 24 24 63h9l-12 -111q-1 -13 -6 -15q-6 -2 -12 -2h-419v7zM240 893l123 -113l-3 -5l-120 44l-119 -44l-3 5z" />
    <glyph glyph-name="Edieresis" unicode="&#xcb;" horiz-adv-x="481" 
d="M18 7l-4 -4q15 5 24 12q10 8 14 28q4 21 6 59q1 25 1 105v330q0 80 -1 106q-2 39 -6 60q-5 21 -13 27q-10 7 -24 11v7h393q8 0 12 -3t6 -18l17 -96h-9q-10 33 -24 54t-34 33q-22 13 -49 17q-32 5 -67 5h-95v-322h38q33 0 51 6q19 6 29 18t15 26q3 9 9 29h7v-167h-7
q-6 20 -9 29q-5 14 -15 26q-11 12 -28 18q-18 6 -51 6h-38v-401h110q45 0 72 4q29 4 51 17q22 12 35 36q14 24 24 63h9l-12 -111q-1 -13 -6 -15q-6 -2 -12 -2h-419v7zM323 781q-21 0 -36 15t-15 37q0 21 15 36t36 15t36 -15t15 -36q0 -22 -15 -37t-36 -15zM157 781
q-21 0 -36 15t-15 37q0 21 15 36t36 15t36 -15t15 -36q0 -22 -15 -37t-36 -15z" />
    <glyph glyph-name="Igrave" unicode="&#xcc;" horiz-adv-x="226" 
d="M18 7l-1 -1q15 4 24 12q10 8 14 28q4 21 6 59q1 25 1 105v330q0 80 -1 106q-2 40 -6 59q-5 20 -13 27q-9 8 -24 12v7h191v-7q-16 -4 -25 -12q-8 -7 -13 -27q-4 -19 -6 -59q-1 -26 -1 -106v-330q0 -80 1 -105q1 -37 6 -58q4 -21 13 -28q9 -8 25 -12v-7h-191v7zM49 812
l-2 -2q-25 6 -36 18q-10 11 -10 27q0 14 9 23t24 9q13 0 22 -4q10 -5 21 -12l124 -86l-3 -6z" />
    <glyph glyph-name="Iacute" unicode="&#xcd;" horiz-adv-x="226" 
d="M18 7l-1 -1q15 4 24 12q10 8 14 28q4 21 6 59q1 25 1 105v330q0 80 -1 106q-2 40 -6 59q-5 20 -13 27q-9 8 -24 12v7h191v-7q-16 -4 -25 -12q-8 -7 -13 -27q-4 -19 -6 -59q-1 -26 -1 -106v-330q0 -80 1 -105q1 -37 6 -58q4 -21 13 -28q9 -8 25 -12v-7h-191v7zM26 785
l122 86q10 7 21 12q12 5 22 5q15 0 24 -9t9 -22q0 -16 -10 -27q-10 -12 -36 -18l-150 -33z" />
    <glyph glyph-name="Icircumflex" unicode="&#xce;" horiz-adv-x="226" 
d="M18 7l-1 -1q15 4 24 12q10 8 14 28q4 21 6 59q1 25 1 105v330q0 80 -1 106q-2 40 -6 59q-5 20 -13 27q-9 8 -24 12v7h191v-7q-16 -4 -25 -12q-8 -7 -13 -27q-4 -19 -6 -59q-1 -26 -1 -106v-330q0 -80 1 -105q1 -37 6 -58q4 -21 13 -28q9 -8 25 -12v-7h-191v7zM112 896
l123 -113l-3 -5l-120 44l-119 -44l-3 5z" />
    <glyph glyph-name="Idieresis" unicode="&#xcf;" horiz-adv-x="226" 
d="M181 785q-21 0 -36 15t-15 37q0 21 15 36t36 15t35 -15q14 -16 14 -36q0 -21 -14 -37q-14 -15 -35 -15zM46 785q-21 0 -36 15t-15 37q0 21 15 36t36 15t36 -15t15 -36q0 -22 -15 -37t-36 -15zM18 7l-1 -1q15 4 24 12q10 8 14 28q4 21 6 59q1 25 1 105v330q0 80 -1 106
q-2 40 -6 59q-5 20 -13 27q-9 8 -24 12v7h191v-7q-16 -4 -25 -12q-8 -7 -13 -27q-4 -19 -6 -59q-1 -26 -1 -106v-330q0 -80 1 -105q1 -37 6 -58q4 -21 13 -28q9 -8 25 -12v-7h-191v7z" />
    <glyph glyph-name="Eth" unicode="&#xd0;" horiz-adv-x="590" 
d="M19 7l-2 -3q15 4 24 12q10 8 14 28q4 21 6 59q1 25 1 105v177h-67v9h67v144q0 80 -1 106q-1 39 -6 60t-13 27q-10 7 -24 11v7h176q86 0 152 -22q68 -23 115 -67t73 -114t26 -162q0 -86 -23 -160q-22 -70 -68 -121q-44 -49 -114 -76q-69 -27 -160 -27h-176v7zM165 5l29 -1
q62 0 111 20q47 19 79 65t47 117q15 72 15 177q0 111 -19 178q-19 69 -54 108t-81 54t-99 15h-28v-345h121v-9h-121v-379z" />
    <glyph glyph-name="Ntilde" unicode="&#xd1;" horiz-adv-x="543" 
d="M18 7l-1 -1q16 8 24 16q10 10 14 30q5 21 6 60q1 26 1 105v325q0 80 -1 106q-1 39 -6 60t-13 27q-10 7 -24 11v7h137q9 0 12 -1q6 -2 9 -4q4 -3 9 -9t9 -15l283 -523v337q0 79 -1 104q-2 38 -6 59t-15 30q-10 8 -28 16v7h105v-7q-16 -7 -25 -16q-8 -8 -13 -30
q-5 -21 -6 -58q-1 -25 -1 -104v-539h-21l-394 730v-512q0 -79 1 -105q1 -39 6 -60t15 -30q10 -8 28 -16v-7h-104v7zM268 865l-4 -1q23 0 50 -3t44 -3q11 0 23 9t29 32l6 -2q-11 -49 -27 -71q-17 -23 -36 -23q-22 0 -49 3t-48 3q-11 0 -21 -7q-11 -8 -27 -33l-7 2
q13 49 32 72q18 22 35 22z" />
    <glyph glyph-name="Ograve" unicode="&#xd2;" 
d="M307 -10l-2 -2q-53 0 -102 27q-48 26 -88 77q-39 49 -63 122q-24 72 -24 162q0 92 24 162t63 120q39 49 89 75t102 26t102 -26t89 -75q39 -50 63 -120t24 -162q0 -90 -24 -162q-24 -71 -63 -121q-39 -49 -88 -76t-102 -27zM305 -3l-1 -1q73 0 118 93q44 92 46 284
q0 95 -12 165q-12 69 -35 117q-23 47 -52 69q-31 23 -64 23q-35 0 -64 -22t-52 -69q-22 -45 -34 -117q-12 -71 -12 -165q0 -191 45 -284t117 -93zM242 810l-2 -2q-26 6 -36 18q-10 11 -10 27q0 14 9 23t24 9q13 0 22 -4q11 -5 21 -12l124 -86l-3 -6z" />
    <glyph glyph-name="Oacute" unicode="&#xd3;" 
d="M307 -10l-2 -2q-53 0 -102 27q-48 26 -88 77q-39 49 -63 122q-24 72 -24 162q0 92 24 162t63 120q39 49 89 75t102 26t102 -26t89 -75q39 -50 63 -120t24 -162q0 -90 -24 -162q-24 -71 -63 -121q-39 -49 -88 -76t-102 -27zM305 -3l-1 -1q73 0 118 93q44 92 46 284
q0 95 -12 165q-12 69 -35 117q-23 47 -52 69q-31 23 -64 23q-35 0 -64 -22t-52 -69q-22 -45 -34 -117q-12 -71 -12 -165q0 -191 45 -284t117 -93zM219 783l122 86q11 7 21 12q12 5 22 5q15 0 24 -9t9 -22q0 -16 -10 -27q-11 -12 -36 -18l-150 -33z" />
    <glyph glyph-name="Ocircumflex" unicode="&#xd4;" 
d="M307 -10l-2 -2q-53 0 -102 27q-48 26 -88 77q-39 49 -63 122q-24 72 -24 162q0 92 24 162t63 120q39 49 89 75t102 26t102 -26t89 -75q39 -50 63 -120t24 -162q0 -90 -24 -162q-24 -71 -63 -121q-39 -49 -88 -76t-102 -27zM305 -3l-1 -1q73 0 118 93q44 92 46 284
q0 95 -12 165q-12 69 -35 117q-23 47 -52 69q-31 23 -64 23q-35 0 -64 -22t-52 -69q-22 -45 -34 -117q-12 -71 -12 -165q0 -191 45 -284t117 -93zM304 894l123 -113l-3 -5l-120 44l-119 -44l-3 5z" />
    <glyph glyph-name="Otilde" unicode="&#xd5;" 
d="M307 -10l-2 -2q-53 0 -102 27q-48 26 -88 77q-39 49 -63 122q-24 72 -24 162q0 92 24 162t63 120q39 49 89 75t102 26t102 -26t89 -75q39 -50 63 -120t24 -162q0 -90 -24 -162q-24 -71 -63 -121q-39 -49 -88 -76t-102 -27zM305 -3l-1 -1q73 0 118 93q44 92 46 284
q0 95 -12 165q-12 69 -35 117q-23 47 -52 69q-31 23 -64 23q-35 0 -64 -22t-52 -69q-22 -45 -34 -117q-12 -71 -12 -165q0 -191 45 -284t117 -93zM268 863l-4 -1q23 0 50 -3t44 -3q11 0 23 9t29 32l6 -2q-11 -49 -27 -71q-17 -23 -36 -23q-22 0 -49 3t-48 3q-11 0 -21 -7
q-11 -8 -27 -33l-7 2q13 49 32 72q18 22 35 22z" />
    <glyph glyph-name="Odieresis" unicode="&#xd6;" 
d="M307 -10l-2 -2q-53 0 -102 27q-48 26 -88 77q-39 49 -63 122q-24 72 -24 162q0 92 24 162t63 120q39 49 89 75t102 26t102 -26t89 -75q39 -50 63 -120t24 -162q0 -90 -24 -162q-24 -71 -63 -121q-39 -49 -88 -76t-102 -27zM305 -3l-1 -1q73 0 118 93q44 92 46 284
q0 95 -12 165q-12 69 -35 117q-23 47 -52 69q-31 23 -64 23q-35 0 -64 -22t-52 -69q-22 -45 -34 -117q-12 -71 -12 -165q0 -191 45 -284t117 -93zM388 782q-21 0 -36 15t-15 37q0 21 15 36t36 15t36 -15t15 -36q0 -22 -15 -37t-36 -15zM222 782q-21 0 -36 15t-15 37
q0 21 15 36t36 15t36 -15t15 -36q0 -22 -15 -37t-36 -15z" />
    <glyph glyph-name="multiply" unicode="&#xd7;" horiz-adv-x="349" 
d="M166 353l-129 137l9 9l129 -137l129 137l9 -9l-129 -137l129 -137l-9 -9l-129 137l-128 -136l-9 9z" />
    <glyph glyph-name="Oslash" unicode="&#xd8;" 
d="M307 -10v-1q-71 0 -134 48l-32 -78l-9 4l32 81q-58 49 -95 132q-38 85 -38 199q0 91 24 162t63 120t89 75t102 26q69 0 129 -42l27 68l10 -4l-29 -71q60 -45 99 -129t39 -204q0 -90 -24 -162q-24 -71 -63 -121q-39 -49 -88 -76t-102 -27zM144 375l1 -1q0 -88 11 -160
q10 -69 30 -117l231 572q-43 79 -111 79q-35 0 -64 -22t-52 -69q-22 -45 -34 -117q-12 -70 -12 -165zM308 -3l-1 -1q73 0 118 93q44 92 46 284q0 96 -12 166q-12 69 -35 117l-231 -571q43 -88 115 -88z" />
    <glyph glyph-name="Ugrave" unicode="&#xd9;" horiz-adv-x="544" 
d="M294 -11h2q-112 0 -175 54t-63 170v327q0 80 -1 106q-2 40 -6 59q-5 20 -13 27q-9 8 -24 12v7h190v-7q-15 -4 -24 -12q-8 -7 -13 -27q-4 -19 -6 -59q-1 -26 -1 -106v-340q0 -50 6 -87t21 -63q14 -25 44 -37q29 -12 72 -12q80 0 126 49q47 50 47 159v326q0 79 -1 105
q-1 39 -6 60t-15 30q-10 8 -28 16v7h105v-7q-16 -8 -24 -16t-13 -30q-4 -21 -6 -60q-1 -26 -1 -105v-326q0 -115 -51 -168q-51 -52 -142 -52zM250 813l-2 -2q-26 6 -36 18q-10 11 -10 27q0 14 9 23t24 9q13 0 22 -4q11 -4 21 -12l124 -86l-3 -6z" />
    <glyph glyph-name="Uacute" unicode="&#xda;" horiz-adv-x="544" 
d="M294 -11h2q-112 0 -175 54t-63 170v327q0 80 -1 106q-2 40 -6 59q-5 20 -13 27q-9 8 -24 12v7h190v-7q-15 -4 -24 -12q-8 -7 -13 -27q-4 -19 -6 -59q-1 -26 -1 -106v-340q0 -50 6 -87t21 -63q14 -25 44 -37q29 -12 72 -12q80 0 126 49q47 50 47 159v326q0 79 -1 105
q-1 39 -6 60t-15 30q-10 8 -28 16v7h105v-7q-16 -8 -24 -16t-13 -30q-4 -21 -6 -60q-1 -26 -1 -105v-326q0 -115 -51 -168q-51 -52 -142 -52zM226 786l122 86q10 8 21 12q12 5 22 5q15 0 24 -9t9 -22q0 -16 -10 -27q-10 -12 -36 -18l-150 -33z" />
    <glyph glyph-name="Ucircumflex" unicode="&#xdb;" horiz-adv-x="544" 
d="M294 -11h2q-112 0 -175 54t-63 170v327q0 80 -1 106q-2 40 -6 59q-5 20 -13 27q-9 8 -24 12v7h190v-7q-15 -4 -24 -12q-8 -7 -13 -27q-4 -19 -6 -59q-1 -26 -1 -106v-340q0 -50 6 -87t21 -63q14 -25 44 -37q29 -12 72 -12q80 0 126 49q47 50 47 159v326q0 79 -1 105
q-1 39 -6 60t-15 30q-10 8 -28 16v7h105v-7q-16 -8 -24 -16t-13 -30q-4 -21 -6 -60q-1 -26 -1 -105v-326q0 -115 -51 -168q-51 -52 -142 -52zM311 897l123 -113l-3 -5l-120 44l-119 -44l-3 5z" />
    <glyph glyph-name="Udieresis" unicode="&#xdc;" horiz-adv-x="544" 
d="M294 -11h2q-112 0 -175 54t-63 170v327q0 80 -1 106q-2 40 -6 59q-5 20 -13 27q-9 8 -24 12v7h190v-7q-15 -4 -24 -12q-8 -7 -13 -27q-4 -19 -6 -59q-1 -26 -1 -106v-340q0 -50 6 -87t21 -63q14 -25 44 -37q29 -12 72 -12q80 0 126 49q47 50 47 159v326q0 79 -1 105
q-1 39 -6 60t-15 30q-10 8 -28 16v7h105v-7q-16 -8 -24 -16t-13 -30q-4 -21 -6 -60q-1 -26 -1 -105v-326q0 -115 -51 -168q-51 -52 -142 -52zM394 785q-21 0 -36 15t-15 37q0 21 15 36t36 15t36 -15t15 -36q0 -22 -15 -37t-36 -15zM228 785q-21 0 -36 15t-15 37q0 21 15 36
t36 15t36 -15t15 -36q0 -22 -15 -37t-36 -15z" />
    <glyph glyph-name="Yacute" unicode="&#xdd;" horiz-adv-x="507" 
d="M164 7l-3 -2q15 5 24 12q10 8 14 28q4 21 6 59q1 25 1 105v168l-122 248q-16 34 -21 44q-10 20 -18 32q-10 15 -19 24q-10 11 -24 18v6h182v-6q-22 -7 -24 -24q-1 -16 14 -50l130 -270l102 224q25 55 28 83q3 26 -33 36v6h101v-6q-11 -5 -19 -10q-9 -6 -18 -18
q-11 -14 -20 -33q-11 -21 -27 -57l-108 -234v-180q0 -80 1 -105q1 -37 6 -58q4 -20 14 -28q9 -7 24 -12v-7h-191v7zM206 784l122 86q10 8 21 12q12 5 22 5q15 0 24 -9t9 -22q0 -16 -10 -27q-10 -12 -36 -18l-150 -33z" />
    <glyph glyph-name="Thorn" unicode="&#xde;" horiz-adv-x="491" 
d="M18 7l-4 -5q15 4 24 12q10 8 14 28q4 21 6 59q1 25 1 105v330q0 80 -1 106q-2 40 -6 59q-5 20 -13 27q-9 8 -24 12v7h191v-7q-15 -5 -21 -10q-8 -6 -12 -19q-5 -13 -6 -39q-2 -34 -2 -71h72q52 0 97 -9q46 -9 77 -30q32 -22 50 -57q18 -36 18 -90q0 -55 -19 -93
q-20 -40 -52 -65q-34 -26 -78 -38q-45 -12 -96 -12h-70q0 -79 1 -104q1 -37 6 -57q4 -19 14 -27q9 -7 24 -12v-7h-191v7zM228 211l-2 -2q26 0 55 8q26 7 48 29q21 21 33 58q12 38 12 96t-12 96q-12 37 -33 58q-21 20 -46 28q-24 7 -51 7h-71v-378h67z" />
    <glyph glyph-name="germandbls" unicode="&#xdf;" horiz-adv-x="476" 
d="M150 128v-8q0 -45 1 -60q2 -25 4 -34q3 -12 10 -18q8 -6 19 -9v-7h-161v7q11 3 19 9t11 18t3 35v60v328h-48v8q14 1 25 6t15 12t6 21q2 18 2 33v27q0 51 17 90q17 38 44 62t60 36t65 12t62 -8q27 -7 51 -23t35 -37q12 -22 12 -51q0 -27 -12 -48q-13 -22 -28 -39
q-14 -16 -36 -34q-17 -15 -34 -33q-18 -23 -24 -37q-6 -15 -6 -34q0 -32 24 -59t69 -63q33 -28 51 -46q20 -20 34 -40q13 -19 19 -40t6 -45q0 -31 -12 -55q-13 -26 -31 -41q-19 -16 -43 -25t-49 -9q-21 0 -36 5q-14 4 -24 9l-18 9q-8 5 -16 5q-5 0 -10 -5q-4 -4 -6 -11h-8
v123h8q25 -127 109 -127q35 0 51 24q17 25 17 55q0 21 -4 36q-5 17 -15 32q-11 15 -29 32q-18 16 -45 39q-49 38 -72 71q-23 32 -23 72q0 22 8 41q7 18 18 33t24 30q18 20 26 30q23 28 33 60q10 30 10 72q0 60 -18 94t-67 34q-45 0 -69 -31t-24 -108v-485z" />
    <glyph glyph-name="agrave" unicode="&#xe0;" horiz-adv-x="393" 
d="M126 -7l-1 3q-44 0 -75 26q-30 26 -30 75q0 33 14 53t36 33t50 24q27 11 54 24l15 6q29 15 42 31q14 17 14 48v73q0 22 -5 39q-5 15 -14 23q-10 8 -21 11q-12 3 -25 3q-24 0 -37 -11q-11 -10 -22 -36q-7 -16 -17 -29q-9 -12 -29 -12q-17 0 -26 9t-9 23q0 25 39 45
q38 19 101 19q27 0 59 -5q29 -4 51 -18t36 -36q14 -23 14 -59v-222q0 -33 2 -65q1 -20 5 -37q3 -13 9 -18q5 -4 15 -4q17 0 27 9l2 -6q-6 -4 -21 -12q-14 -7 -46 -7q-41 0 -61 18q-19 17 -22 47l-3 -3q-13 -15 -27 -27q-12 -11 -27 -19q-13 -7 -30 -12q-15 -4 -37 -4z
M116 115l-1 -2q0 -97 52 -97q17 0 33 12q18 13 45 40l1 1v210q-6 -15 -19 -25t-36 -21l-15 -7q-36 -20 -48 -45t-12 -66zM124 617l-1 1q-13 10 -21 21t-8 26q0 14 9 23t25 9t26 -9t21 -29l79 -129l-6 -5z" />
    <glyph glyph-name="aacute" unicode="&#xe1;" horiz-adv-x="393" 
d="M126 -7l-1 3q-44 0 -75 26q-30 26 -30 75q0 33 14 53t36 33t50 24q27 11 54 24l15 6q29 15 42 31q14 17 14 48v73q0 22 -5 39q-5 15 -14 23q-10 8 -21 11q-12 3 -25 3q-24 0 -37 -11q-11 -10 -22 -36q-7 -16 -17 -29q-9 -12 -29 -12q-17 0 -26 9t-9 23q0 25 39 45
q38 19 101 19q27 0 59 -5q29 -4 51 -18t36 -36q14 -23 14 -59v-222q0 -33 2 -65q1 -20 5 -37q3 -13 9 -18q5 -4 15 -4q17 0 27 9l2 -6q-6 -4 -21 -12q-14 -7 -46 -7q-41 0 -61 18q-19 17 -22 47l-3 -3q-13 -15 -27 -27q-12 -11 -27 -19q-13 -7 -30 -12q-15 -4 -37 -4z
M116 115l-1 -2q0 -97 52 -97q17 0 33 12q18 13 45 40l1 1v210q-6 -15 -19 -25t-36 -21l-15 -7q-36 -20 -48 -45t-12 -66zM136 530l78 128q11 20 21 29q11 9 26 9q16 0 25 -9t9 -23q0 -15 -8 -26q-7 -10 -21 -21l-124 -92z" />
    <glyph glyph-name="acircumflex" unicode="&#xe2;" horiz-adv-x="393" 
d="M126 -7l-1 3q-44 0 -75 26q-30 26 -30 75q0 33 14 53t36 33t50 24q27 11 54 24l15 6q29 15 42 31q14 17 14 48v73q0 22 -5 39q-5 15 -14 23q-10 8 -21 11q-12 3 -25 3q-24 0 -37 -11q-11 -10 -22 -36q-7 -16 -17 -29q-9 -12 -29 -12q-17 0 -26 9t-9 23q0 25 39 45
q38 19 101 19q27 0 59 -5q29 -4 51 -18t36 -36q14 -23 14 -59v-222q0 -33 2 -65q1 -20 5 -37q3 -13 9 -18q5 -4 15 -4q17 0 27 9l2 -6q-6 -4 -21 -12q-14 -7 -46 -7q-41 0 -61 18q-19 17 -22 47l-3 -3q-13 -15 -27 -27q-12 -11 -27 -19q-13 -7 -30 -12q-15 -4 -37 -4z
M116 115l-1 -2q0 -97 52 -97q17 0 33 12q18 13 45 40l1 1v210q-6 -15 -19 -25t-36 -21l-15 -7q-36 -20 -48 -45t-12 -66zM188 702l108 -174l-7 -4l-101 82l-101 -82l-7 4z" />
    <glyph glyph-name="atilde" unicode="&#xe3;" horiz-adv-x="393" 
d="M126 -7l-1 3q-44 0 -75 26q-30 26 -30 75q0 33 14 53t36 33t50 24q27 11 54 24l15 6q29 15 42 31q14 17 14 48v73q0 22 -5 39q-5 15 -14 23q-10 8 -21 11q-12 3 -25 3q-24 0 -37 -11q-11 -10 -22 -36q-7 -16 -17 -29q-9 -12 -29 -12q-17 0 -26 9t-9 23q0 25 39 45
q38 19 101 19q27 0 59 -5q29 -4 51 -18t36 -36q14 -23 14 -59v-222q0 -33 2 -65q1 -20 5 -37q3 -13 9 -18q5 -4 15 -4q17 0 27 9l2 -6q-6 -4 -21 -12q-14 -7 -46 -7q-41 0 -61 18q-19 17 -22 47l-3 -3q-13 -15 -27 -27q-12 -11 -27 -19q-13 -7 -30 -12q-15 -4 -37 -4z
M116 115l-1 -2q0 -97 52 -97q17 0 33 12q18 13 45 40l1 1v210q-6 -15 -19 -25t-36 -21l-15 -7q-36 -20 -48 -45t-12 -66zM151 634l-3 1q19 0 49 -5t45 -5q10 0 21 9q10 8 27 32l6 -3q-10 -46 -27 -70t-36 -24q-20 0 -48 5t-45 5q-10 0 -21 -9q-10 -9 -28 -34l-6 3
q14 47 30 71q17 24 36 24z" />
    <glyph glyph-name="adieresis" unicode="&#xe4;" horiz-adv-x="393" 
d="M126 -7l-1 3q-44 0 -75 26q-30 26 -30 75q0 33 14 53t36 33t50 24q27 11 54 24l15 6q29 15 42 31q14 17 14 48v73q0 22 -5 39q-5 15 -14 23q-10 8 -21 11q-12 3 -25 3q-24 0 -37 -11q-11 -10 -22 -36q-7 -16 -17 -29q-9 -12 -29 -12q-17 0 -26 9t-9 23q0 25 39 45
q38 19 101 19q27 0 59 -5q29 -4 51 -18t36 -36q14 -23 14 -59v-222q0 -33 2 -65q1 -20 5 -37q3 -13 9 -18q5 -4 15 -4q17 0 27 9l2 -6q-6 -4 -21 -12q-14 -7 -46 -7q-41 0 -61 18q-19 17 -22 47l-3 -3q-13 -15 -27 -27q-12 -11 -27 -19q-13 -7 -30 -12q-15 -4 -37 -4z
M116 115l-1 -2q0 -97 52 -97q17 0 33 12q18 13 45 40l1 1v210q-6 -15 -19 -25t-36 -21l-15 -7q-36 -20 -48 -45t-12 -66zM265 545v-2q-23 0 -36 15q-14 16 -14 38q0 19 14 35q13 15 36 15q21 0 35 -15q14 -16 14 -34q0 -21 -14 -37q-14 -15 -35 -15zM111 543v-2
q-21 0 -35 15q-14 16 -14 38q0 19 14 35q14 15 35 15q23 0 36 -15q14 -16 14 -34q0 -21 -14 -37q-13 -15 -36 -15z" />
    <glyph glyph-name="aring" unicode="&#xe5;" horiz-adv-x="393" 
d="M126 -7l-1 3q-44 0 -75 26q-30 26 -30 75q0 33 14 53t36 33t50 24q27 11 54 24l15 6q29 15 42 31q14 17 14 48v73q0 22 -5 39q-5 15 -14 23q-10 8 -21 11q-12 3 -25 3q-24 0 -37 -11q-11 -10 -22 -36q-7 -16 -17 -29q-9 -12 -29 -12q-17 0 -26 9t-9 23q0 25 39 45
q38 19 101 19q27 0 59 -5q29 -4 51 -18t36 -36q14 -23 14 -59v-222q0 -33 2 -65q1 -20 5 -37q3 -13 9 -18q5 -4 15 -4q17 0 27 9l2 -6q-6 -4 -21 -12q-14 -7 -46 -7q-41 0 -61 18q-19 17 -22 47l-3 -3q-13 -15 -27 -27q-12 -11 -27 -19q-13 -7 -30 -12q-15 -4 -37 -4z
M116 115l-1 -2q0 -97 52 -97q17 0 33 12q18 13 45 40l1 1v210q-6 -15 -19 -25t-36 -21l-15 -7q-36 -20 -48 -45t-12 -66zM108 603l-1 -1q0 32 24 53t57 21q34 0 57 -21t23 -53t-23 -53t-57 -21t-57 21t-23 54zM147 602l-1 -1q0 -31 11 -48t30 -17t30 18q11 19 11 48
q0 28 -11 47q-11 18 -30 18t-29 -18q-11 -19 -11 -47z" />
    <glyph glyph-name="ae" unicode="&#xe6;" 
d="M128 -7l-1 5q-45 0 -76 26q-30 26 -30 75q0 33 14 53q13 20 36 33q22 13 50 24q27 11 54 24l15 6q29 15 42 31q14 17 14 48v73q0 22 -5 39q-5 15 -14 23q-10 8 -21 11q-12 3 -25 3q-24 0 -37 -11q-11 -10 -22 -36q-7 -16 -17 -29q-9 -12 -29 -12q-17 0 -26 9t-9 23
q0 25 39 45q38 19 101 19q45 0 81 -10q39 -11 59 -40q28 26 57 38q30 12 56 12q70 0 109 -43q40 -44 47 -111h-244q-2 -22 -3 -34t-1 -38q0 -119 34 -180t97 -61q36 0 60 12q25 13 44 27l5 -7q-21 -18 -48 -32q-28 -15 -76 -15q-52 0 -100 23q-46 22 -75 71l-29 -29
q-21 -21 -30 -29q-15 -13 -27 -20q-13 -7 -30 -12q-15 -4 -39 -4zM435 471l1 -1q-14 0 -27 -6t-25 -21t-21 -42q-10 -29 -14 -66h158q-4 136 -72 136zM117 116v1q0 -97 52 -97q17 0 36 11t47 39l28 28q-15 27 -24 62q-9 34 -9 78v42q-6 -15 -19 -25q-14 -11 -36 -21l-15 -7
q-36 -19 -48 -45t-12 -66z" />
    <glyph glyph-name="ccedilla" unicode="&#xe7;" horiz-adv-x="373" 
d="M231 -6h-4q-41 0 -79 15t-66 45t-45 75q-16 44 -16 103q0 58 20 104q20 45 49 76q31 32 66 47q36 15 69 15q27 0 47 -4q25 -5 41 -13q19 -10 29 -22q11 -14 11 -30q0 -15 -10 -25t-27 -10q-23 0 -32 14q-8 12 -16 41q-4 23 -13 31q-9 9 -28 9q-46 0 -76 -54t-30 -164
q0 -121 35 -180t95 -59q37 0 62 15q26 15 44 35l6 -6q-19 -22 -51 -40t-81 -18zM201 1l-26 -44q37 -5 62 -22q26 -18 26 -47q0 -34 -36 -54q-36 -19 -113 -21l-1 8q44 5 68 18t24 31q0 17 -18 26q-17 8 -44 10l-2 5l49 90h11z" />
    <glyph glyph-name="egrave" unicode="&#xe8;" horiz-adv-x="392" 
d="M236 -7l-3 -2q-41 0 -81 14q-38 13 -67 44q-28 29 -46 76q-18 46 -18 109q0 61 18 106q18 44 47 75q28 30 62 45q33 15 62 15q71 0 110 -43q40 -44 47 -111h-247q-3 -31 -3 -72q0 -119 34 -180t99 -61q38 0 62 12q25 13 44 27l5 -7q-21 -18 -48 -32q-29 -15 -77 -15z
M210 464l-1 -1q-13 0 -27 -6q-13 -6 -25 -21t-21 -42q-10 -29 -14 -66h161q-6 136 -73 136zM146 613l-1 1q-13 10 -21 21t-8 26q0 14 9 23t25 9t26 -9t21 -29l79 -129l-6 -5z" />
    <glyph glyph-name="eacute" unicode="&#xe9;" horiz-adv-x="392" 
d="M236 -7l-3 -2q-41 0 -81 14q-38 13 -67 44q-28 29 -46 76q-18 46 -18 109q0 61 18 106q18 44 47 75q28 30 62 45q33 15 62 15q71 0 110 -43q40 -44 47 -111h-247q-3 -31 -3 -72q0 -119 34 -180t99 -61q38 0 62 12q25 13 44 27l5 -7q-21 -18 -48 -32q-29 -15 -77 -15z
M210 464l-1 -1q-13 0 -27 -6q-13 -6 -25 -21t-21 -42q-10 -29 -14 -66h161q-6 136 -73 136zM156 526l78 128q11 20 21 29q11 9 26 9q16 0 25 -9t9 -23q0 -15 -8 -26q-7 -10 -21 -21l-124 -92z" />
    <glyph glyph-name="ecircumflex" unicode="&#xea;" horiz-adv-x="392" 
d="M236 -7l-3 -2q-41 0 -81 14q-38 13 -67 44q-28 29 -46 76q-18 46 -18 109q0 61 18 106q18 44 47 75q28 30 62 45q33 15 62 15q71 0 110 -43q40 -44 47 -111h-247q-3 -31 -3 -72q0 -119 34 -180t99 -61q38 0 62 12q25 13 44 27l5 -7q-21 -18 -48 -32q-29 -15 -77 -15z
M210 464l-1 -1q-13 0 -27 -6q-13 -6 -25 -21t-21 -42q-10 -29 -14 -66h161q-6 136 -73 136zM211 698l108 -174l-7 -4l-101 82l-101 -82l-7 4z" />
    <glyph glyph-name="edieresis" unicode="&#xeb;" horiz-adv-x="392" 
d="M236 -7l-3 -2q-41 0 -81 14q-38 13 -67 44q-28 29 -46 76q-18 46 -18 109q0 61 18 106q18 44 47 75q28 30 62 45q33 15 62 15q71 0 110 -43q40 -44 47 -111h-247q-3 -31 -3 -72q0 -119 34 -180t99 -61q38 0 62 12q25 13 44 27l5 -7q-21 -18 -48 -32q-29 -15 -77 -15z
M210 464l-1 -1q-13 0 -27 -6q-13 -6 -25 -21t-21 -42q-10 -29 -14 -66h161q-6 136 -73 136zM288 541v-2q-22 0 -36 15q-14 16 -14 38q0 19 14 35q14 15 36 15t35 -15q14 -16 14 -34q0 -21 -14 -37q-13 -15 -35 -15zM134 539v-2q-22 0 -35 15q-14 16 -14 38q0 19 14 35
q13 15 35 15t36 -15q14 -16 14 -34q0 -21 -14 -37q-14 -15 -36 -15z" />
    <glyph glyph-name="igrave" unicode="&#xec;" horiz-adv-x="202" 
d="M19 7l-2 -1q13 3 21 9q8 7 11 18q3 12 3 35v60v165v54q0 19 -3 30q-3 10 -11 13q-9 4 -21 5v8l130 74v-349v-60q0 -21 5 -34q4 -12 12 -18t21 -9v-7h-166v7zM35 615l-1 1q-14 10 -21 21q-8 11 -8 26q0 14 9 23t25 9q15 0 26 -9q10 -9 21 -29l79 -129l-6 -5z" />
    <glyph glyph-name="iacute" unicode="&#xed;" horiz-adv-x="202" 
d="M19 7l-2 -1q13 3 21 9q8 7 11 18q3 12 3 35v60v165v54q0 19 -3 30q-3 10 -11 13q-9 4 -21 5v8l130 74v-349v-60q0 -21 5 -34q4 -12 12 -18t21 -9v-7h-166v7zM43 528l78 128q11 20 21 29t26 9t25 -9t9 -23q0 -15 -8 -26q-8 -10 -21 -21l-124 -92z" />
    <glyph glyph-name="icircumflex" unicode="&#xee;" horiz-adv-x="202" 
d="M19 7l-2 -1q13 3 21 9q8 7 11 18q3 12 3 35v60v165v54q0 19 -3 30q-3 10 -11 13q-9 4 -21 5v8l130 74v-349v-60q0 -21 5 -34q4 -12 12 -18t21 -9v-7h-166v7zM99 700l108 -174l-7 -4l-101 82l-101 -82l-7 4z" />
    <glyph glyph-name="idieresis" unicode="&#xef;" horiz-adv-x="202" 
d="M165 544v-2q-21 0 -36 15t-15 38q0 20 15 35t36 15t36 -15t15 -34q0 -22 -15 -37t-36 -15zM35 542v-2q-21 0 -36 15t-15 38q0 20 15 35t36 15t36 -15t15 -34q0 -22 -15 -37t-36 -15zM19 3l-2 -1q13 3 21 9q8 7 11 18q3 12 3 35v60v165v54q0 19 -3 30q-3 10 -11 13
q-9 4 -21 5v8l130 74v-349v-60q0 -21 5 -34q4 -12 12 -18t21 -9v-7h-166v7z" />
    <glyph glyph-name="eth" unicode="&#xf0;" horiz-adv-x="447" 
d="M423 280h-4q0 -82 -19 -136q-20 -56 -49 -88q-30 -33 -64 -48q-35 -15 -66 -15q-29 0 -65 14q-35 14 -65 42q-29 27 -49 74q-19 44 -19 107q0 61 20 109q19 45 50 76q30 30 65 45t65 15q24 0 45 -7q25 -8 44 -22q-11 52 -28 93q-19 45 -43 81l-106 -49l-4 8l105 49
q-53 78 -131 130l5 3q54 -23 95 -51q44 -30 75 -61l101 47l4 -8l-98 -45q37 -38 63 -83q26 -44 42 -90q17 -47 24 -94q7 -45 7 -96zM219 1q21 0 40 12t33 39q13 27 21 71q8 46 8 108q0 64 -8 112q-7 45 -21 72t-33 39q-20 12 -40 12q-21 0 -39 -12q-19 -12 -32 -39
q-14 -27 -21 -72q-8 -48 -8 -112q0 -62 8 -108q8 -44 21 -71q13 -26 32 -39q18 -12 39 -12z" />
    <glyph glyph-name="ntilde" unicode="&#xf1;" horiz-adv-x="458" 
d="M19 7l1 1q11 3 19 9q8 7 11 18q3 12 3 35v60v165q0 43 -1 56q-2 22 -4 29q-3 9 -11 12q-6 2 -21 4v8l130 74v-98l14 14q44 44 75 63t66 19q20 0 38 -6q19 -6 33 -19q15 -13 24 -36t9 -54v-233v-60q0 -22 3 -34t10 -18q8 -6 19 -9v-7h-165v7q14 3 21 9q8 6 11 18
q4 15 5 35q1 15 1 60v257q0 38 -12 53t-32 15q-16 0 -40 -15t-67 -58l-14 -14v-239v-60q0 -21 5 -34q4 -12 12 -18t21 -9v-7h-164v7zM196 634l-3 1q19 0 49 -5t45 -5q11 0 21 9q10 8 27 32l6 -3q-10 -46 -27 -70q-16 -24 -36 -24t-48 5t-45 5q-11 0 -21 -9t-28 -34l-6 3
q14 47 30 71t36 24z" />
    <glyph glyph-name="ograve" unicode="&#xf2;" horiz-adv-x="447" 
d="M223 -8h-4q-29 0 -65 14q-35 14 -65 42q-29 27 -49 74q-19 44 -19 107q0 61 20 109q19 45 50 76q30 30 65 45t65 15q31 0 66 -15t65 -45q31 -31 50 -76q20 -48 20 -109q0 -63 -19 -107q-20 -47 -49 -74q-30 -28 -65 -42q-36 -14 -66 -14zM219 1q21 0 40 12t33 39
q13 27 21 71q8 46 8 108q0 64 -8 112q-7 45 -21 72t-33 39q-20 12 -40 12q-21 0 -39 -12q-19 -12 -32 -39q-14 -27 -21 -72q-8 -48 -8 -112q0 -62 8 -108q8 -44 21 -71q13 -26 32 -39q18 -12 39 -12zM153 616l-1 1q-14 11 -21 21q-8 11 -8 26q0 14 9 23t25 9t26 -9t21 -29
l79 -129l-6 -5z" />
    <glyph glyph-name="oacute" unicode="&#xf3;" horiz-adv-x="447" 
d="M223 -8h-4q-29 0 -65 14q-35 14 -65 42q-29 27 -49 74q-19 44 -19 107q0 61 20 109q19 45 50 76q30 30 65 45t65 15q31 0 66 -15t65 -45q31 -31 50 -76q20 -48 20 -109q0 -63 -19 -107q-20 -47 -49 -74q-30 -28 -65 -42q-36 -14 -66 -14zM219 1q21 0 40 12t33 39
q13 27 21 71q8 46 8 108q0 64 -8 112q-7 45 -21 72t-33 39q-20 12 -40 12q-21 0 -39 -12q-19 -12 -32 -39q-14 -27 -21 -72q-8 -48 -8 -112q0 -62 8 -108q8 -44 21 -71q13 -26 32 -39q18 -12 39 -12zM166 529l78 128q11 20 21 29q11 9 26 9q16 0 25 -9t9 -23q0 -15 -8 -26
q-7 -11 -21 -21l-124 -92z" />
    <glyph glyph-name="ocircumflex" unicode="&#xf4;" horiz-adv-x="447" 
d="M223 -8h-4q-29 0 -65 14q-35 14 -65 42q-29 27 -49 74q-19 44 -19 107q0 61 20 109q19 45 50 76q30 30 65 45t65 15q31 0 66 -15t65 -45q31 -31 50 -76q20 -48 20 -109q0 -63 -19 -107q-20 -47 -49 -74q-30 -28 -65 -42q-36 -14 -66 -14zM219 1q21 0 40 12t33 39
q13 27 21 71q8 46 8 108q0 64 -8 112q-7 45 -21 72t-33 39q-20 12 -40 12q-21 0 -39 -12q-19 -12 -32 -39q-14 -27 -21 -72q-8 -48 -8 -112q0 -62 8 -108q8 -44 21 -71q13 -26 32 -39q18 -12 39 -12zM219 701l108 -174l-7 -4l-101 82l-101 -82l-7 4z" />
    <glyph glyph-name="otilde" unicode="&#xf5;" horiz-adv-x="447" 
d="M223 -8h-4q-29 0 -65 14q-35 14 -65 42q-29 27 -49 74q-19 44 -19 107q0 61 20 109q19 45 50 76q30 30 65 45t65 15q31 0 66 -15t65 -45q31 -31 50 -76q20 -48 20 -109q0 -63 -19 -107q-20 -47 -49 -74q-30 -28 -65 -42q-36 -14 -66 -14zM219 1q21 0 40 12t33 39
q13 27 21 71q8 46 8 108q0 64 -8 112q-7 45 -21 72t-33 39q-20 12 -40 12q-21 0 -39 -12q-19 -12 -32 -39q-14 -27 -21 -72q-8 -48 -8 -112q0 -62 8 -108q8 -44 21 -71q13 -26 32 -39q18 -12 39 -12zM181 633l-3 1q19 0 49 -5t45 -5q10 0 21 9q10 8 27 32l6 -3
q-10 -46 -27 -70t-36 -24q-20 0 -48 5t-45 5q-10 0 -21 -9q-10 -9 -28 -34l-6 3q14 47 30 71q17 24 36 24z" />
    <glyph glyph-name="odieresis" unicode="&#xf6;" horiz-adv-x="447" 
d="M223 -8h-4q-29 0 -65 14q-35 14 -65 42q-29 27 -49 74q-19 44 -19 107q0 61 20 109q19 45 50 76q30 30 65 45t65 15q31 0 66 -15t65 -45q31 -31 50 -76q20 -48 20 -109q0 -63 -19 -107q-20 -47 -49 -74q-30 -28 -65 -42q-36 -14 -66 -14zM219 1q21 0 40 12t33 39
q13 27 21 71q8 46 8 108q0 64 -8 112q-7 45 -21 72t-33 39q-20 12 -40 12q-21 0 -39 -12q-19 -12 -32 -39q-14 -27 -21 -72q-8 -48 -8 -112q0 -62 8 -108q8 -44 21 -71q13 -26 32 -39q18 -12 39 -12zM296 544v-2q-22 0 -36 15q-14 16 -14 38q0 19 14 35q14 15 36 15t35 -15
q14 -16 14 -34q0 -21 -14 -37q-13 -15 -35 -15zM142 542v-2q-21 0 -35 15q-14 16 -14 38q0 19 14 35q14 15 35 15q22 0 36 -15q14 -16 14 -34q0 -21 -14 -37q-14 -15 -36 -15z" />
    <glyph glyph-name="divide" unicode="&#xf7;" horiz-adv-x="406" 
d="M150 492l-1 -1q0 23 16 38q17 15 39 15q23 0 38 -15t15 -37q0 -23 -15 -38t-37 -15q-23 0 -39 15t-16 38zM36 356h332v-12h-332v12zM149 207l-1 -1q0 23 16 38t39 15t38 -15t15 -38q0 -22 -15 -37t-37 -15t-39 15q-16 15 -16 38z" />
    <glyph glyph-name="oslash" unicode="&#xf8;" horiz-adv-x="447" 
d="M223 1l-3 -2q20 0 40 12t33 39t21 71q8 46 8 108q0 59 -6 99q-6 38 -17 69l19 43l-7 5l22 50l8 -4l-23 -51q21 -14 39 -33q19 -21 32 -45q13 -25 21 -59q8 -35 8 -73q0 -63 -19 -107q-20 -47 -49 -74q-30 -28 -65 -42q-36 -14 -66 -14q-21 0 -45 6q-22 5 -46 20l17 38
q-5 7 -6 12l153 343q-13 28 -32 42q-17 13 -41 13q-21 0 -39 -12q-19 -13 -32 -39q-14 -27 -21 -72q-8 -48 -8 -112q0 -56 6 -96q6 -38 17 -67l-20 -45l8 -5l-26 -57l-8 4l26 58q-40 26 -70 78q-30 51 -30 128q0 61 20 109q19 45 50 76q30 30 65 45q34 15 65 15q44 0 90 -27
l-17 -36q5 -8 6 -12l-153 -343q13 -29 33 -43q19 -13 42 -13z" />
    <glyph glyph-name="ugrave" unicode="&#xf9;" horiz-adv-x="445" 
d="M158 -8l-1 -7q-19 0 -39 6t-34 19q-15 14 -24 36t-9 54v190v54q0 20 -3 30t-11 13q-6 2 -21 4v8l129 74v-394q0 -40 13 -54q14 -15 33 -15q17 0 41 15q25 16 66 58l2 2v208v54q0 19 -3 30q-3 10 -11 13q-6 2 -21 4v8l129 74v-349v-60q0 -22 3 -34q3 -11 11 -18
q8 -6 21 -9v-7h-128v77l-2 -2q-43 -44 -75 -63q-31 -19 -66 -19zM165 609l-1 1q-14 10 -21 21q-8 11 -8 26q0 14 9 23t25 9q15 0 26 -9q10 -9 21 -29l79 -129l-6 -5z" />
    <glyph glyph-name="uacute" unicode="&#xfa;" horiz-adv-x="445" 
d="M158 -8l-1 -7q-19 0 -39 6t-34 19q-15 14 -24 36t-9 54v190v54q0 20 -3 30t-11 13q-6 2 -21 4v8l129 74v-394q0 -40 13 -54q14 -15 33 -15q17 0 41 15q25 16 66 58l2 2v208v54q0 19 -3 30q-3 10 -11 13q-6 2 -21 4v8l129 74v-349v-60q0 -22 3 -34q3 -11 11 -18
q8 -6 21 -9v-7h-128v77l-2 -2q-43 -44 -75 -63q-31 -19 -66 -19zM178 522l78 128q11 20 21 29q11 9 26 9q16 0 25 -9t9 -23q0 -15 -8 -26q-7 -10 -21 -21l-124 -92z" />
    <glyph glyph-name="ucircumflex" unicode="&#xfb;" horiz-adv-x="445" 
d="M158 -8l-1 -7q-19 0 -39 6t-34 19q-15 14 -24 36t-9 54v190v54q0 20 -3 30t-11 13q-6 2 -21 4v8l129 74v-394q0 -40 13 -54q14 -15 33 -15q17 0 41 15q25 16 66 58l2 2v208v54q0 19 -3 30q-3 10 -11 13q-6 2 -21 4v8l129 74v-349v-60q0 -22 3 -34q3 -11 11 -18
q8 -6 21 -9v-7h-128v77l-2 -2q-43 -44 -75 -63q-31 -19 -66 -19zM230 694l108 -174l-7 -4l-101 82l-101 -82l-7 4z" />
    <glyph glyph-name="udieresis" unicode="&#xfc;" horiz-adv-x="445" 
d="M158 -8l-1 -7q-19 0 -39 6t-34 19q-15 14 -24 36t-9 54v190v54q0 20 -3 30t-11 13q-6 2 -21 4v8l129 74v-394q0 -40 13 -54q14 -15 33 -15q17 0 41 15q25 16 66 58l2 2v208v54q0 19 -3 30q-3 10 -11 13q-6 2 -21 4v8l129 74v-349v-60q0 -22 3 -34q3 -11 11 -18
q8 -6 21 -9v-7h-128v77l-2 -2q-43 -44 -75 -63q-31 -19 -66 -19zM307 537v-2q-23 0 -36 15q-14 16 -14 38q0 19 14 35q13 15 36 15q21 0 35 -15q14 -16 14 -34q0 -21 -14 -37q-14 -15 -35 -15zM153 535v-2q-21 0 -35 15q-14 16 -14 38q0 19 14 35q13 15 35 15q23 0 36 -15
q14 -16 14 -34q0 -21 -14 -37q-13 -15 -36 -15z" />
    <glyph glyph-name="yacute" unicode="&#xfd;" horiz-adv-x="388" 
d="M74 -171l-4 6q-23 0 -33 10q-11 11 -11 25q0 33 34 33q10 0 18 -3q10 -4 14 -6l12 -6q6 -3 14 -3q6 0 12 3q5 3 13 12q5 6 16 26q7 13 19 42l10 29l-132 362q-4 10 -7.5 19.5t-7.5 19t-5 13.5q-6 17 -14 30q-6 11 -12 15q-4 3 -14 7v6h160v-6q-11 -2 -17 -6q-5 -4 -7 -15
q-2 -10 3 -30t15 -51l83 -238l76 214q14 41 18 64q5 25 2 36q-3 13 -12 17t-23 6v6h95v-6q-11 -3 -16 -7q-6 -5 -14 -17q-6 -10 -16 -36q-15 -40 -23 -64l-132 -371q-28 -73 -54 -105q-25 -31 -60 -31zM169 535l78 128q11 20 21 29t26 9t25 -9t9 -23q0 -15 -8 -26t-21 -21
l-124 -92z" />
    <glyph glyph-name="thorn" unicode="&#xfe;" horiz-adv-x="463" 
d="M17 -159l-2 -1q11 3 19 9q8 7 11 18q3 12 3 35v60v640q0 41 -1 54q-2 22 -4 30q-3 10 -11 12t-21 3v7l130 68v-387l4 5q32 38 62 61q27 21 62 21q27 0 57 -12t54 -39q25 -28 41 -70t16 -105q0 -61 -15 -109q-15 -49 -43 -81q-29 -34 -66 -50q-39 -17 -83 -17q-21 0 -45 8
q-21 7 -42 23v-62v-60q0 -21 5 -34q4 -12 12 -18t21 -9v-7h-164v7zM142 376l-2 -340q40 -33 87 -33q23 0 42 12q20 12 35 41q15 28 24 72t9 105q0 67 -7 108q-8 45 -19 69q-12 26 -28 36q-17 11 -34 11q-21 0 -45 -18t-58 -58z" />
    <glyph glyph-name="ydieresis" unicode="&#xff;" horiz-adv-x="388" 
d="M74 -171l-4 6q-23 0 -33 10q-11 11 -11 25q0 33 34 33q10 0 18 -3q10 -4 14 -6l12 -6q6 -3 14 -3q6 0 12 3q5 3 13 12q5 6 16 26q7 13 19 42l10 29l-132 362q-4 10 -7.5 19.5t-7.5 19t-5 13.5q-6 17 -14 30q-6 11 -12 15q-4 3 -14 7v6h160v-6q-11 -2 -17 -6q-5 -4 -7 -15
q-2 -10 3 -30t15 -51l83 -238l76 214q14 41 18 64q5 25 2 36q-3 13 -12 17t-23 6v6h95v-6q-11 -3 -16 -7q-6 -5 -14 -17q-6 -10 -16 -36q-15 -40 -23 -64l-132 -371q-28 -73 -54 -105q-25 -31 -60 -31zM296 550v-2q-22 0 -36 15q-14 16 -14 38q0 19 14 35q14 15 36 15
t35 -15q14 -16 14 -34q0 -21 -14 -37q-13 -15 -35 -15zM142 548v-2q-21 0 -35 15q-14 16 -14 38q0 19 14 35q14 15 35 15q22 0 36 -15q14 -16 14 -34q0 -21 -14 -37q-14 -15 -36 -15z" />
    <glyph glyph-name="Amacron" unicode="&#x100;" horiz-adv-x="542" 
d="M4 6q10 4 18 12t15 21t15 36q6 19 18 59l146 527l-6 21q-6 18 -12 31q-5 11 -12 19q-5 7 -12 10q-8 4 -13 5v6h123q8 0 11 -3t6 -12l178 -609q2 -8 4.5 -17t5.5 -18.5t4 -13.5q6 -21 12 -36q6 -14 14 -24q7 -8 20 -13v-7h-165v7q20 5 23 21q3 15 -8 55l-43 144h-238
l-26 -95q-8 -31 -12 -49q-4 -21 -3 -36q1 -14 11 -25q8 -10 27 -16v-6h-101v6zM342 235l-121 405l-112 -405h233zM340 797h-198v41h198v-41z" />
    <glyph glyph-name="amacron" unicode="&#x101;" horiz-adv-x="393" 
d="M126 -7l-1 3q-44 0 -75 26q-30 26 -30 75q0 33 14 53t36 33t50 24q27 11 54 24l15 6q29 15 42 31q14 17 14 48v73q0 22 -5 39q-5 15 -14 23q-10 8 -21 11q-12 3 -25 3q-24 0 -37 -11q-11 -10 -22 -36q-7 -16 -17 -29q-9 -12 -29 -12q-17 0 -26 9t-9 23q0 25 39 45
q38 19 101 19q27 0 59 -5q29 -4 51 -18t36 -36q14 -23 14 -59v-222q0 -33 2 -65q1 -20 5 -37q3 -13 9 -18q5 -4 15 -4q17 0 27 9l2 -6q-6 -4 -21 -12q-14 -7 -46 -7q-41 0 -61 18q-19 17 -22 47l-3 -3q-13 -15 -27 -27q-12 -11 -27 -19q-13 -7 -30 -12q-15 -4 -37 -4z
M116 115l-1 -2q0 -97 52 -97q17 0 33 12q18 13 45 40l1 1v210q-6 -15 -19 -25t-36 -21l-15 -7q-36 -20 -48 -45t-12 -66zM281 608v-41h-186v41h186z" />
    <glyph glyph-name="Abreve" unicode="&#x102;" horiz-adv-x="542" 
d="M4 6q10 4 18 12t15 21t15 36q6 19 18 59l146 527l-6 21q-6 18 -12 31q-5 11 -12 19q-5 7 -12 10q-8 4 -13 5v6h123q8 0 11 -3t6 -12l178 -609q2 -8 4.5 -17t5.5 -18.5t4 -13.5q6 -21 12 -36q6 -14 14 -24q7 -8 20 -13v-7h-165v7q20 5 23 21q3 15 -8 55l-43 144h-238
l-26 -95q-8 -31 -12 -49q-4 -21 -3 -36q1 -14 11 -25q8 -10 27 -16v-6h-101v6zM342 235l-121 405l-112 -405h233zM242 841l1 -1q36 0 55 13t28 36h9q-2 -23 -7 -39q-6 -18 -18 -33t-28 -24t-39 -9q-47 0 -69 31t-24 75h9q8 -22 27 -35q20 -14 56 -14z" />
    <glyph glyph-name="abreve" unicode="&#x103;" horiz-adv-x="393" 
d="M126 -7l-1 3q-44 0 -75 26q-30 26 -30 75q0 33 14 53t36 33t50 24q27 11 54 24l15 6q29 15 42 31q14 17 14 48v73q0 22 -5 39q-5 15 -14 23q-10 8 -21 11q-12 3 -25 3q-24 0 -37 -11q-11 -10 -22 -36q-7 -16 -17 -29q-9 -12 -29 -12q-17 0 -26 9t-9 23q0 25 39 45
q38 19 101 19q27 0 59 -5q29 -4 51 -18t36 -36q14 -23 14 -59v-222q0 -33 2 -65q1 -20 5 -37q3 -13 9 -18q5 -4 15 -4q17 0 27 9l2 -6q-6 -4 -21 -12q-14 -7 -46 -7q-41 0 -61 18q-19 17 -22 47l-3 -3q-13 -15 -27 -27q-12 -11 -27 -19q-13 -7 -30 -12q-15 -4 -37 -4z
M116 115l-1 -2q0 -97 52 -97q17 0 33 12q18 13 45 40l1 1v210q-6 -15 -19 -25t-36 -21l-15 -7q-36 -20 -48 -45t-12 -66zM189 592l-1 -1q34 0 53 17t26 39h9q0 -21 -6 -42q-6 -22 -16 -36q-10 -15 -27 -24t-39 -9t-39 9t-27 24q-10 14 -16 36q-6 21 -6 43h9q6 -23 25 -39
q20 -17 55 -17z" />
    <glyph glyph-name="Aogonek" unicode="&#x104;" horiz-adv-x="542" 
d="M4 6l-4 -3q10 5 18 12t15 21t15 36q6 19 18 59l146 527l-6 21q-6 18 -12 31q-5 11 -12 19q-5 7 -12 10q-8 4 -13 5v6h123q8 0 11 -3t6 -12l178 -609q2 -8 4.5 -17t5.5 -18.5t4 -13.5q6 -21 12 -36q6 -14 14 -24q7 -8 20 -13v-7h-95q-34 0 -54 -27q-19 -26 -19 -64
q0 -22 11 -36q10 -13 30 -13q12 0 22 5q8 4 16 12l5 -5q-3 -5 -9 -12q-6 -8 -17 -14q-13 -7 -25 -11q-17 -5 -34 -5q-36 0 -57 18t-21 47q0 24 13 41q14 19 33 32q21 14 41 23q23 10 38 14l-67 225h-238l-26 -95q-8 -31 -12 -49q-4 -21 -3 -36q1 -14 11 -25q8 -10 27 -16v-6
h-101v6zM337 233l-120 404l-112 -404h232z" />
    <glyph glyph-name="aogonek" unicode="&#x105;" horiz-adv-x="393" 
d="M126 -7l-2 -3q-44 0 -75 26q-30 26 -30 75q0 33 14 53q13 20 36 33q22 13 50 24q27 11 54 24l15 6q29 15 42 31q14 17 14 48v73q0 22 -5 39q-5 15 -14 23q-10 8 -21 11q-12 3 -25 3q-24 0 -37 -11q-11 -10 -22 -36q-7 -16 -17 -29q-9 -12 -29 -12q-17 0 -26 9t-9 23
q0 25 39 45q38 19 101 19q27 0 59 -5q28 -4 51 -18t36 -36q14 -23 14 -59v-222q0 -33 2 -65q1 -20 5 -37q3 -13 9 -18q5 -4 15 -4q16 0 27 9l2 -6l-7 -5q-2 -1 -6 -3.5t-6 -3.5q-22 -10 -42 -33q-19 -22 -19 -60q0 -21 10 -34t30 -13q12 0 22 5q8 4 16 12l5 -5l-9 -12
q-7 -9 -16 -14q-13 -7 -25 -11q-17 -5 -34 -5q-34 0 -57 18q-22 18 -22 47q0 19 11 36q10 17 27 30q18 15 36 23q19 9 36 15h-8h-9q-40 0 -59 18q-20 18 -23 47l-3 -3q-13 -15 -27 -27q-12 -11 -27 -19q-13 -7 -30 -12q-15 -4 -37 -4zM115 109l-1 -2q0 -97 52 -97
q16 0 33 12q18 13 45 40l1 1v210q-6 -15 -19 -25q-14 -10 -36 -21l-15 -7q-36 -20 -48 -45t-12 -66z" />
    <glyph glyph-name="Cacute" unicode="&#x106;" horiz-adv-x="524" 
d="M319 -9h1q-55 0 -109 23q-51 22 -91 71q-39 48 -63 121q-24 74 -24 174q0 102 26 175q25 72 66 117t90 66q50 21 98 21q28 0 51 -5q18 -4 36 -11q4 -1 13.5 -5t13.5 -6q13 -5 25 -5q23 0 30 28h9v-163h-9q-12 45 -30 75t-40 49q-22 20 -48 27q-27 8 -52 8q-37 0 -66 -19
q-31 -20 -53 -63q-23 -44 -36 -112q-13 -66 -13 -166q0 -107 15 -181q15 -73 42 -118q27 -44 63 -64q35 -19 77 -19q57 0 95 24q37 23 60 53l6 -7q-12 -15 -27 -29t-39 -28q-21 -12 -51 -22q-29 -9 -66 -9zM221 786l122 86q11 8 21 12q12 5 22 5q15 0 24 -9t9 -22
q0 -16 -10 -27q-11 -12 -36 -18l-150 -33z" />
    <glyph glyph-name="cacute" unicode="&#x107;" horiz-adv-x="373" 
d="M231 -6h-4q-41 0 -79 15t-66 45t-45 75q-16 44 -16 103q0 58 20 104q20 45 49 76q31 32 66 47q36 15 69 15q27 0 47 -4q25 -5 41 -13q19 -10 29 -22q11 -14 11 -30q0 -15 -10 -25t-27 -10q-23 0 -32 14q-8 12 -16 41q-4 23 -13 31q-9 9 -28 9q-46 0 -76 -54t-30 -164
q0 -121 35 -180t95 -59q37 0 62 15q26 15 44 35l6 -6q-19 -22 -51 -40t-81 -18zM165 529l78 128q11 20 21 29t26 9t25 -9t9 -23q0 -15 -8 -26t-21 -21l-124 -92z" />
    <glyph glyph-name="Ccircumflex" unicode="&#x108;" horiz-adv-x="524" 
d="M319 -9h1q-55 0 -109 23q-51 22 -91 71q-39 48 -63 121q-24 74 -24 174q0 102 26 175q25 72 66 117t90 66q50 21 98 21q28 0 51 -5q18 -4 36 -11q4 -1 13.5 -5t13.5 -6q13 -5 25 -5q23 0 30 28h9v-163h-9q-12 45 -30 75t-40 49q-22 20 -48 27q-27 8 -52 8q-37 0 -66 -19
q-31 -20 -53 -63q-23 -44 -36 -112q-13 -66 -13 -166q0 -107 15 -181q15 -73 42 -118q27 -44 63 -64q35 -19 77 -19q57 0 95 24q37 23 60 53l6 -7q-12 -15 -27 -29t-39 -28q-21 -12 -51 -22q-29 -9 -66 -9zM307 897l123 -113l-3 -5l-120 44l-119 -44l-3 5z" />
    <glyph glyph-name="ccircumflex" unicode="&#x109;" horiz-adv-x="373" 
d="M231 -6h-4q-41 0 -79 15t-66 45t-45 75q-16 44 -16 103q0 58 20 104q20 45 49 76q31 32 66 47q36 15 69 15q27 0 47 -4q25 -5 41 -13q19 -10 29 -22q11 -14 11 -30q0 -15 -10 -25t-27 -10q-23 0 -32 14q-8 12 -16 41q-4 23 -13 31q-9 9 -28 9q-46 0 -76 -54t-30 -164
q0 -121 35 -180t95 -59q37 0 62 15q26 15 44 35l6 -6q-19 -22 -51 -40t-81 -18zM220 701l108 -174l-7 -4l-101 82l-101 -82l-7 4z" />
    <glyph glyph-name="Cdotaccent" unicode="&#x10a;" horiz-adv-x="524" 
d="M319 -9h1q-55 0 -109 23q-51 22 -91 71q-39 48 -63 121q-24 74 -24 174q0 102 26 175q25 72 66 117t90 66q50 21 98 21q28 0 51 -5q18 -4 36 -11q4 -1 13.5 -5t13.5 -6q13 -5 25 -5q23 0 30 28h9v-163h-9q-12 45 -30 75t-40 49q-22 20 -48 27q-27 8 -52 8q-37 0 -66 -19
q-31 -20 -53 -63q-23 -44 -36 -112q-13 -66 -13 -166q0 -107 15 -181q15 -73 42 -118q27 -44 63 -64q35 -19 77 -19q57 0 95 24q37 23 60 53l6 -7q-12 -15 -27 -29t-39 -28q-21 -12 -51 -22q-29 -9 -66 -9zM307 785q-23 0 -38 15t-15 38t15 38t38 15t38 -15t15 -38t-15 -38
t-38 -15z" />
    <glyph glyph-name="cdotaccent" unicode="&#x10b;" horiz-adv-x="373" 
d="M231 -6h-4q-41 0 -79 15t-66 45t-45 75q-16 44 -16 103q0 58 20 104q20 45 49 76q31 32 66 47q36 15 69 15q27 0 47 -4q25 -5 41 -13q19 -10 29 -22q11 -14 11 -30q0 -15 -10 -25t-27 -10q-23 0 -32 14q-8 12 -16 41q-4 23 -13 31q-9 9 -28 9q-46 0 -76 -54t-30 -164
q0 -121 35 -180t95 -59q37 0 62 15q26 15 44 35l6 -6q-19 -22 -51 -40t-81 -18zM220 544v-1q-23 0 -38 15t-15 38t15 38t38 15t38 -15t15 -37q0 -23 -15 -38t-38 -15z" />
    <glyph glyph-name="Ccaron" unicode="&#x10c;" horiz-adv-x="524" 
d="M319 -9h1q-55 0 -109 23q-51 22 -91 71q-39 48 -63 121q-24 74 -24 174q0 102 26 175q25 72 66 117t90 66q50 21 98 21q28 0 51 -5q18 -4 36 -11q4 -1 13.5 -5t13.5 -6q13 -5 25 -5q23 0 30 28h9v-163h-9q-12 45 -30 75t-40 49q-22 20 -48 27q-27 8 -52 8q-37 0 -66 -19
q-31 -20 -53 -63q-23 -44 -36 -112q-13 -66 -13 -166q0 -107 15 -181q15 -73 42 -118q27 -44 63 -64q35 -19 77 -19q57 0 95 24q37 23 60 53l6 -7q-12 -15 -27 -29t-39 -28q-21 -12 -51 -22q-29 -9 -66 -9zM189 902l119 -45l120 45l3 -6l-123 -112l-122 112z" />
    <glyph glyph-name="ccaron" unicode="&#x10d;" horiz-adv-x="373" 
d="M231 -6h-4q-41 0 -79 15t-66 45t-45 75q-16 44 -16 103q0 58 20 104q20 45 49 76q31 32 66 47q36 15 69 15q27 0 47 -4q25 -5 41 -13q19 -10 29 -22q11 -14 11 -30q0 -15 -10 -25t-27 -10q-23 0 -32 14q-8 12 -16 41q-4 23 -13 31q-9 9 -28 9q-46 0 -76 -54t-30 -164
q0 -121 35 -180t95 -59q37 0 62 15q26 15 44 35l6 -6q-19 -22 -51 -40t-81 -18zM118 706l101 -83l101 83l7 -5l-108 -174l-108 174z" />
    <glyph glyph-name="Dcaron" unicode="&#x10e;" horiz-adv-x="590" 
d="M18 7l-2 -3q15 4 24 12q10 8 14 28q4 21 6 59q1 25 1 105v330q0 80 -1 106q-2 39 -6 60q-5 21 -13 27q-10 7 -24 11v7h176q86 0 152 -22q68 -23 115 -67t73 -114t26 -162q0 -86 -23 -160q-22 -70 -68 -121q-44 -49 -114 -76q-69 -27 -160 -27h-176v7zM164 738l1 -734h28
q62 0 111 20q47 19 79 65t47 117q15 72 15 177q0 111 -19 178q-20 69 -54 108t-81 54t-99 15h-28zM130 898l119 -45l120 45l3 -6l-123 -112l-122 112z" />
    <glyph glyph-name="dcaron" unicode="&#x10f;" horiz-adv-x="469" 
d="M195 -7h1q-31 0 -62 14q-30 13 -54 42t-39 72t-15 104q0 62 17 110q17 47 45 78q30 33 64 47q36 15 74 15q25 0 50 -11q24 -10 45 -30v167q0 43 -1 56q-2 22 -4 29q-3 9 -11 11l-21 3v7l132 69v-648v-60q0 -21 5 -34q5 -12 12 -18t21 -9v-7h-132v76l-3 -4
q-35 -41 -61 -59q-29 -20 -63 -20zM126 237l-3 -4q0 -62 8 -108q7 -43 21 -69t30 -36q17 -11 33 -11q19 0 44 17t59 57l3 4v333q-24 22 -45 32q-24 11 -48 11q-21 0 -39 -12t-33 -39q-14 -26 -22 -70q-8 -46 -8 -105zM447 567l9 134q3 58 37 58q15 0 24 -9t9 -23
q0 -19 -11 -39l-61 -123z" />
    <glyph glyph-name="Dcroat" unicode="&#x110;" horiz-adv-x="590" 
d="M19 7l-2 -3q15 4 24 12q10 8 14 28q4 21 6 59q1 25 1 105v177h-67v9h67v144q0 80 -1 106q-1 39 -6 60t-13 27q-10 7 -24 11v7h176q86 0 152 -22q68 -23 115 -67t73 -114t26 -162q0 -86 -23 -160q-22 -70 -68 -121q-44 -49 -114 -76q-69 -27 -160 -27h-176v7zM165 5l29 -1
q62 0 111 20q47 19 79 65t47 117q15 72 15 177q0 111 -19 178q-19 69 -54 108t-81 54t-99 15h-28v-345h121v-9h-121v-379z" />
    <glyph glyph-name="dcroat" unicode="&#x111;" horiz-adv-x="469" 
d="M202 577h278v-9h-278v9zM195 -7h1q-31 0 -62 14q-30 13 -54 42t-39 72t-15 104q0 62 17 110q17 47 45 78q30 33 64 47q36 15 74 15q25 0 50 -11q24 -10 45 -30v167q0 43 -1 56q-2 22 -4 29q-3 9 -11 11l-21 3v7l132 69v-648v-60q0 -21 5 -34q5 -12 12 -18t21 -9v-7h-132
v76l-3 -4q-35 -41 -61 -59q-29 -20 -63 -20zM126 237l-3 -4q0 -62 8 -108q7 -43 21 -69t30 -36q17 -11 33 -11q19 0 44 17t59 57l3 4v333q-24 22 -45 32q-24 11 -48 11q-21 0 -39 -12t-33 -39q-14 -26 -22 -70q-8 -46 -8 -105z" />
    <glyph glyph-name="Emacron" unicode="&#x112;" horiz-adv-x="481" 
d="M18 7l-4 -4q15 5 24 12q10 8 14 28q4 21 6 59q1 25 1 105v330q0 80 -1 106q-2 39 -6 60q-5 21 -13 27q-10 7 -24 11v7h393q8 0 12 -3t6 -18l17 -96h-9q-10 33 -24 54t-34 33q-22 13 -49 17q-32 5 -67 5h-95v-322h38q33 0 51 6q19 6 29 18t15 26q3 9 9 29h7v-167h-7
q-6 20 -9 29q-5 14 -15 26q-11 12 -28 18q-18 6 -51 6h-38v-401h110q45 0 72 4q29 4 51 17q22 12 35 36q14 24 24 63h9l-12 -111q-1 -13 -6 -15q-6 -2 -12 -2h-419v7zM340 793h-198v41h198v-41z" />
    <glyph glyph-name="emacron" unicode="&#x113;" horiz-adv-x="392" 
d="M236 -7l-3 -2q-41 0 -81 14q-38 13 -67 44q-28 29 -46 76q-18 46 -18 109q0 61 18 106q18 44 47 75q28 30 62 45q33 15 62 15q71 0 110 -43q40 -44 47 -111h-247q-3 -31 -3 -72q0 -119 34 -180t99 -61q38 0 62 12q25 13 44 27l5 -7q-21 -18 -48 -32q-29 -15 -77 -15z
M210 464l-1 -1q-13 0 -27 -6q-13 -6 -25 -21t-21 -42q-10 -29 -14 -66h161q-6 136 -73 136zM304 604v-41h-186v41h186z" />
    <glyph glyph-name="Ebreve" unicode="&#x114;" horiz-adv-x="481" 
d="M18 7l-4 -4q15 5 24 12q10 8 14 28q4 21 6 59q1 25 1 105v330q0 80 -1 106q-2 39 -6 60q-5 21 -13 27q-10 7 -24 11v7h393q8 0 12 -3t6 -18l17 -96h-9q-10 33 -24 54t-34 33q-22 13 -49 17q-32 5 -67 5h-95v-322h38q33 0 51 6q19 6 29 18t15 26q3 9 9 29h7v-167h-7
q-6 20 -9 29q-5 14 -15 26q-11 12 -28 18q-18 6 -51 6h-38v-401h110q45 0 72 4q29 4 51 17q22 12 35 36q14 24 24 63h9l-12 -111q-1 -13 -6 -15q-6 -2 -12 -2h-419v7zM241 837l1 -1q36 0 55 13t28 36h9q-2 -23 -7 -39q-6 -18 -18 -33t-28 -24q-17 -9 -39 -9q-47 0 -69 31
q-23 31 -24 75h9q8 -22 27 -35q20 -14 56 -14z" />
    <glyph glyph-name="ebreve" unicode="&#x115;" horiz-adv-x="392" 
d="M236 -7l-3 -2q-41 0 -81 14q-38 13 -67 44q-28 29 -46 76q-18 46 -18 109q0 61 18 106q18 44 47 75q28 30 62 45q33 15 62 15q71 0 110 -43q40 -44 47 -111h-247q-3 -31 -3 -72q0 -119 34 -180t99 -61q38 0 62 12q25 13 44 27l5 -7q-21 -18 -48 -32q-29 -15 -77 -15z
M210 464l-1 -1q-13 0 -27 -6q-13 -6 -25 -21t-21 -42q-10 -29 -14 -66h161q-6 136 -73 136zM212 588l-1 -1q34 0 53 17t26 39h9q0 -21 -6 -42q-6 -22 -16 -36q-11 -15 -27 -24t-39 -9t-39 9t-27 24q-10 14 -16 36q-6 21 -6 43h9q6 -23 25 -39q20 -17 55 -17z" />
    <glyph glyph-name="Edotaccent" unicode="&#x116;" horiz-adv-x="481" 
d="M18 7l-4 -4q15 5 24 12q10 8 14 28q4 21 6 59q1 25 1 105v330q0 80 -1 106q-2 39 -6 60q-5 21 -13 27q-10 7 -24 11v7h393q8 0 12 -3t6 -18l17 -96h-9q-10 33 -24 54t-34 33q-22 13 -49 17q-32 5 -67 5h-95v-322h38q33 0 51 6q19 6 29 18t15 26q3 9 9 29h7v-167h-7
q-6 20 -9 29q-5 14 -15 26q-11 12 -28 18q-18 6 -51 6h-38v-401h110q45 0 72 4q29 4 51 17q22 12 35 36q14 24 24 63h9l-12 -111q-1 -13 -6 -15q-6 -2 -12 -2h-419v7zM240 781q-23 0 -38 15t-15 38t15 38t38 15t38 -15t15 -38t-15 -38t-38 -15z" />
    <glyph glyph-name="edotaccent" unicode="&#x117;" horiz-adv-x="392" 
d="M236 -7l-3 -2q-41 0 -81 14q-38 13 -67 44q-28 29 -46 76q-18 46 -18 109q0 61 18 106q18 44 47 75q28 30 62 45q33 15 62 15q71 0 110 -43q40 -44 47 -111h-247q-3 -31 -3 -72q0 -119 34 -180t99 -61q38 0 62 12q25 13 44 27l5 -7q-21 -18 -48 -32q-29 -15 -77 -15z
M210 464l-1 -1q-13 0 -27 -6q-13 -6 -25 -21t-21 -42q-10 -29 -14 -66h161q-6 136 -73 136zM211 541v-1q-23 0 -38 15t-15 38t15 38t38 15t38 -15t15 -37q0 -23 -15 -38t-38 -15z" />
    <glyph glyph-name="Eogonek" unicode="&#x118;" horiz-adv-x="481" 
d="M18 7l-4 -4q15 5 24 12q10 8 14 28q4 21 6 59q1 25 1 105v330q0 80 -1 106q-2 39 -6 60q-5 21 -13 27q-10 7 -24 11v7h393q8 0 12 -3t6 -18l17 -96h-9q-10 33 -24 54t-34 33q-22 13 -49 17q-32 5 -67 5h-95v-322h38q33 0 51 6q19 6 29 18t15 26q3 9 9 29h7v-167h-7
q-6 20 -9 29q-5 14 -15 26q-11 12 -28 18q-18 6 -51 6h-38v-401h110q45 0 72 4q29 4 51 17q22 12 35 36q14 24 24 63h9l-12 -111q-1 -13 -6 -15q-6 -2 -12 -2h-419v7zM323 -177l-1 -3q-35 0 -56 18t-21 47q0 23 13 40q15 20 31 32q19 14 38 23q22 10 35 14h12
q-18 -12 -33 -36t-15 -58q0 -20 11 -34q10 -13 30 -13q11 0 21 5t17 12l5 -5q-4 -6 -10 -12q-9 -9 -18 -14q-13 -7 -25 -11q-17 -5 -34 -5z" />
    <glyph glyph-name="eogonek" unicode="&#x119;" horiz-adv-x="392" 
d="M331 -130l-5 -5q-4 -6 -10 -12q-9 -9 -18 -14q-13 -7 -25 -11q-17 -5 -34 -5q-35 0 -56 18t-21 47q0 19 11 36q11 16 27 30t36 24q18 10 38 18q-20 -5 -41 -5q-41 0 -81 14q-38 13 -67 44q-28 29 -46 76q-18 46 -18 109q0 61 18 106q18 44 47 75q28 30 62 45q33 15 62 15
q71 0 110 -43q40 -44 47 -111h-246q-2 -22 -3 -34t-1 -38q0 -119 34 -180t99 -61q38 0 62 12q25 13 44 27l5 -7q-6 -5 -20 -15q-9 -7 -26 -15q-23 -10 -46 -36q-22 -25 -22 -67q0 -22 11 -36q10 -13 30 -13q11 0 21 5t17 12zM208 461l-1 -1q-13 0 -27 -6q-13 -6 -25 -21
t-21 -42q-10 -29 -14 -66h161q-6 136 -73 136z" />
    <glyph glyph-name="Ecaron" unicode="&#x11a;" horiz-adv-x="481" 
d="M18 7l-4 -4q15 5 24 12q10 8 14 28q4 21 6 59q1 25 1 105v330q0 80 -1 106q-2 39 -6 60q-5 21 -13 27q-10 7 -24 11v7h393q8 0 12 -3t6 -18l17 -96h-9q-10 33 -24 54t-34 33q-22 13 -49 17q-32 5 -67 5h-95v-322h38q33 0 51 6q19 6 29 18t15 26q3 9 9 29h7v-167h-7
q-6 20 -9 29q-5 14 -15 26q-11 12 -28 18q-18 6 -51 6h-38v-401h110q45 0 72 4q29 4 51 17q22 12 35 36q14 24 24 63h9l-12 -111q-1 -13 -6 -15q-6 -2 -12 -2h-419v7zM121 898l119 -45l120 45l3 -6l-123 -112l-122 112z" />
    <glyph glyph-name="ecaron" unicode="&#x11b;" horiz-adv-x="392" 
d="M236 -7l-3 -2q-41 0 -81 14q-38 13 -67 44q-28 29 -46 76q-18 46 -18 109q0 61 18 106q18 44 47 75q28 30 62 45q33 15 62 15q71 0 110 -43q40 -44 47 -111h-247q-3 -31 -3 -72q0 -119 34 -180t99 -61q38 0 62 12q25 13 44 27l5 -7q-21 -18 -48 -32q-29 -15 -77 -15z
M210 464l-1 -1q-13 0 -27 -6q-13 -6 -25 -21t-21 -42q-10 -29 -14 -66h161q-6 136 -73 136zM110 703l101 -83l101 83l7 -5l-108 -174l-108 174z" />
    <glyph glyph-name="Gcircumflex" unicode="&#x11c;" horiz-adv-x="587" 
d="M319 -10h-5q-66 0 -120 27q-53 27 -91 78q-37 50 -58 123q-21 72 -21 161q0 97 27 169q27 71 69 118q42 46 93 69q52 23 101 23q32 0 53 -6q23 -7 38 -12q17 -6 30 -12t29 -6q18 0 26 27h8v-163h-8q-19 85 -66 124t-110 39q-37 0 -70 -18t-57 -60q-23 -41 -37 -111
q-13 -66 -13 -169t12 -178q12 -73 35 -123q22 -47 56 -70q32 -22 75 -22q60 0 87 37t27 126v21q0 56 -1 74q-2 27 -6 42t-14 21q-9 6 -24 9v7h192v-7q-16 -3 -24 -10q-10 -8 -14 -25q-4 -18 -6 -51q-1 -22 -1 -90v-60q-17 -22 -37 -38q-24 -19 -51 -32q-31 -15 -60 -23
q-31 -9 -64 -9zM310 897l123 -113l-3 -5l-120 44l-119 -44l-3 5z" />
    <glyph glyph-name="gcircumflex" unicode="&#x11d;" horiz-adv-x="392" 
d="M188 161l-5 -3q-41 0 -80 18l-9 -6q-12 -10 -21 -20q-7 -8 -7 -18t9 -18q9 -7 41 -15l144 -25q66 -12 94 -40t28 -70q0 -32 -15 -57q-15 -26 -41 -44q-24 -17 -62 -28q-34 -10 -78 -10q-34 0 -67 6q-32 6 -58 18t-41 30t-15 44q0 16 8 30q7 13 21 25t30 21q19 10 35 17
q-36 10 -51 30t-15 45q0 29 18 48q19 20 37 33l10 7q-32 17 -53 50t-21 82q0 41 15 71q15 31 39 50t53 30q27 10 56 10q43 0 84 -23q23 19 47 31q20 10 38 10q34 0 34 -32q0 -14 -7 -21t-18 -7q-9 0 -16 3q-5 2 -15 8l-15 9q-7 4 -15 4q-13 0 -27 -8q31 -19 52 -52t21 -81
q0 -41 -15 -69q-15 -29 -39 -47t-52 -27t-56 -9zM57 -71v-2q0 -46 33 -70t95 -24q38 0 68 8q29 7 48 21t30 30q10 16 10 34q0 31 -26 43q-25 12 -72 21l-120 21l-14 3q-28 -15 -40 -34q-12 -20 -12 -51zM183 165v-1q15 0 29 8t24 24q11 17 17 44t6 68q0 79 -23 116
q-22 36 -53 36q-29 0 -52 -36q-22 -35 -22 -117q0 -40 6 -67t17 -44q10 -16 24 -24q13 -7 27 -7zM188 695l108 -174l-7 -4l-101 82l-101 -82l-7 4z" />
    <glyph glyph-name="Gbreve" unicode="&#x11e;" horiz-adv-x="587" 
d="M319 -10h-5q-66 0 -120 27q-53 27 -91 78q-37 50 -58 123q-21 72 -21 161q0 97 27 169q27 71 69 118q42 46 93 69q52 23 101 23q32 0 53 -6q23 -7 38 -12q17 -6 30 -12t29 -6q18 0 26 27h8v-163h-8q-19 85 -66 124t-110 39q-37 0 -70 -18t-57 -60q-23 -41 -37 -111
q-13 -66 -13 -169t12 -178q12 -73 35 -123q22 -47 56 -70q32 -22 75 -22q60 0 87 37t27 126v21q0 56 -1 74q-2 27 -6 42t-14 21q-9 6 -24 9v7h192v-7q-16 -3 -24 -10q-10 -8 -14 -25q-4 -18 -6 -51q-1 -22 -1 -90v-60q-17 -22 -37 -38q-24 -19 -51 -32q-31 -15 -60 -23
q-31 -9 -64 -9zM311 841l1 -1q36 0 55 13t28 36h9q-2 -23 -7 -39q-6 -18 -18 -33t-28 -24q-17 -9 -39 -9q-47 0 -69 31q-23 31 -24 75h9q8 -22 27 -35q20 -14 56 -14z" />
    <glyph glyph-name="gbreve" unicode="&#x11f;" horiz-adv-x="392" 
d="M188 161l-5 -3q-41 0 -80 18l-9 -6q-12 -10 -21 -20q-7 -8 -7 -18t9 -18q9 -7 41 -15l144 -25q66 -12 94 -40t28 -70q0 -32 -15 -57q-15 -26 -41 -44q-24 -17 -62 -28q-34 -10 -78 -10q-34 0 -67 6q-32 6 -58 18t-41 30t-15 44q0 16 8 30q7 13 21 25t30 21q19 10 35 17
q-36 10 -51 30t-15 45q0 29 18 48q19 20 37 33l10 7q-32 17 -53 50t-21 82q0 41 15 71q15 31 39 50t53 30q27 10 56 10q43 0 84 -23q23 19 47 31q20 10 38 10q34 0 34 -32q0 -14 -7 -21t-18 -7q-9 0 -16 3q-5 2 -15 8l-15 9q-7 4 -15 4q-13 0 -27 -8q31 -19 52 -52t21 -81
q0 -41 -15 -69q-15 -29 -39 -47t-52 -27t-56 -9zM57 -71v-2q0 -46 33 -70t95 -24q38 0 68 8q29 7 48 21t30 30q10 16 10 34q0 31 -26 43q-25 12 -72 21l-120 21l-14 3q-28 -15 -40 -34q-12 -20 -12 -51zM183 165v-1q15 0 29 8t24 24q11 17 17 44t6 68q0 79 -23 116
q-22 36 -53 36q-29 0 -52 -36q-22 -35 -22 -117q0 -40 6 -67t17 -44q10 -16 24 -24q13 -7 27 -7zM188 585l-1 -1q34 0 53 17t26 39h9q0 -21 -6 -42q-6 -22 -16 -36q-11 -15 -27 -24t-39 -9t-39 9t-27 24q-10 14 -16 36q-6 21 -6 43h9q6 -23 25 -39q20 -17 55 -17z" />
    <glyph glyph-name="Gdotaccent" unicode="&#x120;" horiz-adv-x="587" 
d="M319 -10h-5q-66 0 -120 27q-53 27 -91 78q-37 50 -58 123q-21 72 -21 161q0 97 27 169q27 71 69 118q42 46 93 69q52 23 101 23q32 0 53 -6q23 -7 38 -12q17 -6 30 -12t29 -6q18 0 26 27h8v-163h-8q-19 85 -66 124t-110 39q-37 0 -70 -18t-57 -60q-23 -41 -37 -111
q-13 -66 -13 -169t12 -178q12 -73 35 -123q22 -47 56 -70q32 -22 75 -22q60 0 87 37t27 126v21q0 56 -1 74q-2 27 -6 42t-14 21q-9 6 -24 9v7h192v-7q-16 -3 -24 -10q-10 -8 -14 -25q-4 -18 -6 -51q-1 -22 -1 -90v-60q-17 -22 -37 -38q-24 -19 -51 -32q-31 -15 -60 -23
q-31 -9 -64 -9zM311 785q-23 0 -38 15t-15 38t15 38t38 15t38 -15t15 -38t-15 -38t-38 -15z" />
    <glyph glyph-name="gdotaccent" unicode="&#x121;" horiz-adv-x="392" 
d="M188 161l-5 -3q-41 0 -80 18l-9 -6q-12 -10 -21 -20q-7 -8 -7 -18t9 -18q9 -7 41 -15l144 -25q66 -12 94 -40t28 -70q0 -32 -15 -57q-15 -26 -41 -44q-24 -17 -62 -28q-34 -10 -78 -10q-34 0 -67 6q-32 6 -58 18t-41 30t-15 44q0 16 8 30q7 13 21 25t30 21q19 10 35 17
q-36 10 -51 30t-15 45q0 29 18 48q19 20 37 33l10 7q-32 17 -53 50t-21 82q0 41 15 71q15 31 39 50t53 30q27 10 56 10q43 0 84 -23q23 19 47 31q20 10 38 10q34 0 34 -32q0 -14 -7 -21t-18 -7q-9 0 -16 3q-5 2 -15 8l-15 9q-7 4 -15 4q-13 0 -27 -8q31 -19 52 -52t21 -81
q0 -41 -15 -69q-15 -29 -39 -47t-52 -27t-56 -9zM57 -71v-2q0 -46 33 -70t95 -24q38 0 68 8q29 7 48 21t30 30q10 16 10 34q0 31 -26 43q-25 12 -72 21l-120 21l-14 3q-28 -15 -40 -34q-12 -20 -12 -51zM183 165v-1q15 0 29 8t24 24q11 17 17 44t6 68q0 79 -23 116
q-22 36 -53 36q-29 0 -52 -36q-22 -35 -22 -117q0 -40 6 -67t17 -44q10 -16 24 -24q13 -7 27 -7zM188 538v-1q-23 0 -38 15t-15 38t15 38t38 15t38 -15t15 -37q0 -23 -15 -38t-38 -15z" />
    <glyph glyph-name="uni0122" unicode="&#x122;" horiz-adv-x="587" 
d="M319 -10h-5q-66 0 -120 27q-53 27 -91 78q-37 50 -58 123q-21 72 -21 161q0 97 27 169q27 71 69 118q42 46 93 69q52 23 101 23q32 0 53 -6q23 -7 38 -12q17 -6 30 -12t29 -6q18 0 26 27h8v-163h-8q-19 85 -66 124t-110 39q-37 0 -70 -18t-57 -60q-23 -41 -37 -111
q-13 -66 -13 -169t12 -178q12 -73 35 -123q22 -47 56 -70q32 -22 75 -22q60 0 87 37t27 126v21q0 56 -1 74q-2 27 -6 42t-14 21q-9 6 -24 9v7h192v-7q-16 -3 -24 -10q-10 -8 -14 -25q-4 -18 -6 -51q-1 -22 -1 -90v-60q-17 -22 -37 -38q-24 -19 -51 -32q-31 -15 -60 -23
q-31 -9 -64 -9zM336 -117h-3q-2 -4 -12 -10q-9 -6 -24 -6q-17 0 -31 12q-13 12 -13 33q0 23 15 35t35 12q22 0 40 -15t18 -48q0 -40 -23 -61q-23 -22 -57 -26l-4 8q31 4 48 20q16 15 16 33q0 10 -5 13z" />
    <glyph glyph-name="uni0123" unicode="&#x123;" horiz-adv-x="392" 
d="M188 161l-5 -3q-41 0 -80 18l-9 -6q-12 -10 -21 -20q-7 -8 -7 -18t9 -18q9 -7 41 -15l144 -25q66 -12 94 -40t28 -70q0 -32 -15 -57q-15 -26 -41 -44q-24 -17 -62 -28q-34 -10 -78 -10q-34 0 -67 6q-32 6 -58 18t-41 30t-15 44q0 16 8 30q7 13 21 25t30 21q19 10 35 17
q-36 10 -51 30t-15 45q0 29 18 48q19 20 37 33l10 7q-32 17 -53 50t-21 82q0 41 15 71q15 31 39 50t53 30q27 10 56 10q43 0 84 -23q23 19 47 31q20 10 38 10q34 0 34 -32q0 -14 -7 -21t-18 -7q-9 0 -16 3q-5 2 -15 8l-15 9q-7 4 -15 4q-13 0 -27 -8q31 -19 52 -52t21 -81
q0 -41 -15 -69q-15 -29 -39 -47t-52 -27t-56 -9zM57 -71v-2q0 -46 33 -70t95 -24q38 0 68 8q29 7 48 21t30 30q10 16 10 34q0 31 -26 43q-25 12 -72 21l-120 21l-14 3q-28 -15 -40 -34q-12 -20 -12 -51zM183 165v-1q15 0 29 8t24 24q11 17 17 44t6 68q0 79 -23 116
q-22 36 -53 36q-29 0 -52 -36q-22 -35 -22 -117q0 -40 6 -67t17 -44q10 -16 24 -24q13 -7 27 -7zM155 610l-3 -2q4 5 12 11q9 6 24 6q18 0 32 -12t14 -32q0 -23 -15 -35t-34 -12q-23 0 -39 15q-17 15 -17 47q0 40 23 61q23 22 57 26l3 -8q-32 -5 -47 -20t-15 -33
q0 -10 5 -12z" />
    <glyph glyph-name="Hcircumflex" unicode="&#x124;" horiz-adv-x="600" 
d="M18 7l-1 -4q15 5 24 12q10 8 14 27t6 59q1 26 1 107v330q0 80 -1 106q-2 40 -6 59q-5 20 -13 27q-9 8 -24 12v7h191v-7q-16 -4 -25 -12q-8 -7 -13 -27q-4 -19 -6 -59q-1 -26 -1 -106v-125h270v125q0 80 -1 106q-2 40 -6 59q-5 20 -13 27q-9 8 -25 12v7h192v-7
q-16 -4 -25 -12q-8 -7 -13 -27q-4 -19 -6 -59q-1 -26 -1 -106v-330q0 -80 1 -106q1 -38 6 -58t13 -27q9 -8 25 -12v-7h-192v7q16 4 25 12q8 7 13 27q4 19 6 59q1 26 1 107v197h-270v-197q0 -80 1 -106q1 -38 6 -58t13 -27q9 -8 25 -12v-7h-191v7zM299 893l123 -113l-3 -5
l-120 44l-119 -44l-3 5z" />
    <glyph glyph-name="hcircumflex" unicode="&#x125;" horiz-adv-x="456" 
d="M19 7l4 1q11 3 19 9q8 7 11 18q3 12 3 35v60v469q0 43 -1 56q-2 22 -4 29q-3 9 -11 11q-8 1 -21 3v7l131 72v-396l13 13q43 44 75 63q31 19 66 19q18 0 36 -6q19 -6 33 -19q15 -13 24 -36t9 -54v-233v-60q0 -22 3 -34t10 -18t21 -9v-7h-165v7q13 3 21 9t11 18q4 15 5 35
q1 15 1 60v257q0 39 -13 53q-14 15 -33 15q-17 0 -42 -15t-67 -58l-13 -13v-240v-60q0 -21 5 -34q4 -12 12 -18t21 -9v-7h-164v7zM242 920l123 -113l-3 -5l-120 44l-119 -44l-3 5z" />
    <glyph glyph-name="Hbar" unicode="&#x126;" horiz-adv-x="603" 
d="M-7 577h616v-8h-616v8zM19 7l-1 -4q15 5 24 12q10 8 14 27t6 59q1 26 1 107v330q0 80 -1 106q-2 40 -6 59q-5 20 -13 27q-9 8 -24 12v7h191v-7q-16 -4 -25 -12q-8 -7 -13 -27q-4 -19 -6 -59q-1 -26 -1 -106v-125h270v125q0 80 -1 106q-2 40 -6 59q-5 20 -13 27
q-9 8 -25 12v7h192v-7q-16 -4 -25 -12q-8 -7 -13 -27q-4 -19 -6 -59q-1 -26 -1 -106v-330q0 -80 1 -106q1 -38 6 -58t13 -27q9 -8 25 -12v-7h-192v7q16 4 25 12q8 7 13 27q4 19 6 59q1 26 1 107v197h-270v-197q0 -80 1 -106q1 -38 6 -58t13 -27q9 -8 25 -12v-7h-191v7z" />
    <glyph glyph-name="hbar" unicode="&#x127;" horiz-adv-x="456" 
d="M-13 568v9h279v-9h-279zM19 7l4 1q11 3 19 9q8 7 11 18q3 12 3 35v60v469q0 43 -1 56q-2 22 -4 29q-3 9 -11 11q-8 1 -21 3v7l131 72v-396l13 13q43 44 75 63q31 19 66 19q18 0 36 -6q19 -6 33 -19q15 -13 24 -36t9 -54v-233v-60q0 -22 3 -34t10 -18t21 -9v-7h-165v7
q13 3 21 9t11 18q4 15 5 35q1 15 1 60v257q0 39 -13 53q-14 15 -33 15q-17 0 -42 -15t-67 -58l-13 -13v-240v-60q0 -21 5 -34q4 -12 12 -18t21 -9v-7h-164v7z" />
    <glyph glyph-name="Itilde" unicode="&#x128;" horiz-adv-x="226" 
d="M18 7l-1 -1q15 4 24 12q10 8 14 28q4 21 6 59q1 25 1 105v330q0 80 -1 106q-2 40 -6 59q-5 20 -13 27q-9 8 -24 12v7h191v-7q-16 -4 -25 -12q-8 -7 -13 -27q-4 -19 -6 -59q-1 -26 -1 -106v-330q0 -80 1 -105q1 -37 6 -58q4 -21 13 -28q9 -8 25 -12v-7h-191v7zM76 865
l-4 -1q23 0 50 -3t44 -3q11 0 23 9t29 32l6 -2q-11 -49 -27 -71q-17 -23 -36 -23q-22 0 -49 3t-48 3q-11 0 -21 -7q-11 -8 -27 -33l-7 2q13 49 32 72q18 22 35 22z" />
    <glyph glyph-name="itilde" unicode="&#x129;" horiz-adv-x="202" 
d="M19 7l-2 -1q13 3 21 9q8 7 11 18q3 12 3 35v60v165v54q0 19 -3 30q-3 10 -11 13q-9 4 -21 5v8l130 74v-349v-60q0 -21 5 -34q4 -12 12 -18t21 -9v-7h-166v7zM61 632l-3 1q19 0 49 -5t45 -5q10 0 21 9q10 8 27 32l6 -3q-10 -46 -27 -70t-36 -24q-20 0 -48 5t-45 5
q-10 0 -21 -9q-10 -9 -28 -34l-6 3q14 47 30 71q17 24 36 24z" />
    <glyph glyph-name="Imacron" unicode="&#x12a;" horiz-adv-x="226" 
d="M18 7l-1 -1q15 4 24 12q10 8 14 28q4 21 6 59q1 25 1 105v330q0 80 -1 106q-2 40 -6 59q-5 20 -13 27q-9 8 -24 12v7h191v-7q-16 -4 -25 -12q-8 -7 -13 -27q-4 -19 -6 -59q-1 -26 -1 -106v-330q0 -80 1 -105q1 -37 6 -58q4 -21 13 -28q9 -8 25 -12v-7h-191v7zM211 796
h-198v41h198v-41z" />
    <glyph glyph-name="imacron" unicode="&#x12b;" horiz-adv-x="202" 
d="M19 7l-2 -1q13 3 21 9q8 7 11 18q3 12 3 35v60v165v54q0 19 -3 30q-3 10 -11 13q-9 4 -21 5v8l130 74v-349v-60q0 -21 5 -34q4 -12 12 -18t21 -9v-7h-166v7zM192 606v-41h-186v41h186z" />
    <glyph glyph-name="Ibreve" unicode="&#x12c;" horiz-adv-x="226" 
d="M18 7l-1 -1q15 4 24 12q10 8 14 28q4 21 6 59q1 25 1 105v330q0 80 -1 106q-2 40 -6 59q-5 20 -13 27q-9 8 -24 12v7h191v-7q-16 -4 -25 -12q-8 -7 -13 -27q-4 -19 -6 -59q-1 -26 -1 -106v-330q0 -80 1 -105q1 -37 6 -58q4 -21 13 -28q9 -8 25 -12v-7h-191v7zM113 840
l1 -1q36 0 55 13t28 36h9q-2 -23 -7 -39q-6 -18 -18 -33t-28 -24q-17 -9 -39 -9q-47 0 -69 31q-23 32 -24 75h9q8 -22 27 -35q20 -14 56 -14z" />
    <glyph glyph-name="ibreve" unicode="&#x12d;" horiz-adv-x="202" 
d="M19 7l-2 -1q13 3 21 9q8 7 11 18q3 12 3 35v60v165v54q0 19 -3 30q-3 10 -11 13q-9 4 -21 5v8l130 74v-349v-60q0 -21 5 -34q4 -12 12 -18t21 -9v-7h-166v7zM100 590l-1 -1q34 0 53 17t26 39h9q0 -21 -6 -42q-6 -22 -16 -36q-11 -15 -27 -24t-39 -9t-39 9t-27 24
q-10 14 -16 36q-6 21 -6 43h9q6 -23 25 -39q20 -17 55 -17z" />
    <glyph glyph-name="Iogonek" unicode="&#x12e;" horiz-adv-x="226" 
d="M18 7l-1 -1q15 4 24 12q10 8 14 28q4 21 6 59q1 25 1 105v330q0 80 -1 106q-2 40 -6 59q-5 20 -13 27q-9 8 -24 12v7h191v-7q-16 -4 -25 -12q-8 -7 -13 -27q-4 -19 -6 -59q-1 -26 -1 -106v-330q0 -80 1 -105q1 -37 6 -58q4 -21 13 -28q9 -8 25 -12v-7h-191v7zM115 -174
l-1 -3q-35 0 -56 18t-21 47q0 23 13 40q15 20 31 32q19 14 38 23q22 10 35 14h12q-18 -12 -33 -36t-15 -58q0 -20 11 -34q10 -13 30 -13q11 0 21 5t17 12l5 -5q-4 -6 -10 -12q-9 -9 -18 -14q-13 -7 -25 -11q-17 -5 -34 -5z" />
    <glyph glyph-name="iogonek" unicode="&#x12f;" horiz-adv-x="203" 
d="M100 543v1q-23 0 -38 15t-15 38t15 38t38 15t38 -15t15 -37t-15 -39q-15 -16 -38 -16zM19 8l-2 -1q13 3 21 9t11 18t3 35v60v165v54q0 20 -3 30t-11 13q-9 4 -21 5v8l130 74v-349v-60q0 -21 5 -34q4 -12 12 -18t21 -9v-7h-166v7zM98 -173l-1 -3q-35 0 -56 18t-21 47
q0 23 13 40q15 20 31 32q19 14 38 23q22 10 35 14h12q-18 -12 -33 -36t-15 -58q0 -20 11 -34q10 -13 30 -13q11 0 21 5t17 12l5 -5q-4 -6 -10 -12q-9 -9 -18 -14q-13 -7 -25 -11q-17 -5 -34 -5z" />
    <glyph glyph-name="Idotaccent" unicode="&#x130;" horiz-adv-x="226" 
d="M18 7l-1 -1q15 4 24 12q10 8 14 28q4 21 6 59q1 25 1 105v330q0 80 -1 106q-2 40 -6 59q-5 20 -13 27q-9 8 -24 12v7h191v-7q-16 -4 -25 -12q-8 -7 -13 -27q-4 -19 -6 -59q-1 -26 -1 -106v-330q0 -80 1 -105q1 -37 6 -58q4 -21 13 -28q9 -8 25 -12v-7h-191v7zM112 784
q-23 0 -38 15t-15 38t15 38t38 15t38 -15t15 -38t-15 -38t-38 -15z" />
    <glyph glyph-name="dotlessi" unicode="&#x131;" horiz-adv-x="203" 
d="M19 7l-2 -1q13 3 21 9q8 7 11 18q3 12 3 35v60v165v54q0 19 -3 30q-3 10 -11 13q-9 4 -21 5v8l130 74v-349v-60q0 -21 5 -34q4 -12 12 -18t21 -9v-7h-166v7z" />
    <glyph glyph-name="IJ" unicode="&#x132;" horiz-adv-x="588" 
d="M18 7l-1 -1q15 4 24 12q10 8 14 28q4 21 6 59q1 25 1 105v330q0 80 -1 106q-2 40 -6 59q-5 20 -13 27q-9 8 -24 12v7h191v-7q-16 -4 -25 -12q-8 -7 -13 -27q-4 -19 -6 -59q-1 -26 -1 -106v-330q0 -80 1 -105q1 -37 6 -58q4 -21 13 -28q9 -8 25 -12v-7h-191v7zM374 -11
l-1 -1q-69 0 -106 22t-37 57q0 21 12 32q13 11 29 11q20 0 32 -12q11 -12 19 -40q4 -15 9 -28q5 -12 10 -19q6 -8 14 -11q7 -3 21 -3q20 0 35 15t15 53v472q0 81 -1 107q-2 40 -6 59q-5 20 -13 27q-9 8 -25 12v7h192v-7q-16 -4 -25 -12q-8 -7 -13 -27t-6 -58q-1 -26 -1 -106
v-390q0 -37 -12 -67t-33 -51q-20 -21 -49 -31q-30 -11 -60 -11z" />
    <glyph glyph-name="ij" unicode="&#x133;" horiz-adv-x="400" 
d="M100 543v1q-23 0 -38 15t-15 38t15 38t38 15t38 -15t15 -37t-15 -39q-15 -16 -38 -16zM19 8l-2 -1q13 3 21 9t11 18t3 35v60v165v54q0 20 -3 30t-11 13q-9 4 -21 5v8l130 74v-349v-60q0 -21 5 -34q4 -12 12 -18t21 -9v-7h-166v7zM296 543v1q-23 0 -38 15t-15 38t15 38
t38 15t38 -15t15 -37t-15 -39q-15 -16 -38 -16zM171 -138l-4 -4q-17 0 -30 9t-13 27q0 16 10 25t24 9q13 0 22 -6q6 -4 16 -14l14 -14q6 -6 14 -6q6 0 11 4q3 3 6 9q2 5 4 18q2 16 2 32v51v289v56q0 19 -3 30q-3 10 -11 13q-9 4 -21 5v8l130 74v-411q0 -64 -22 -102t-66 -70
q-30 -21 -46 -26q-18 -6 -37 -6z" />
    <glyph glyph-name="Jcircumflex" unicode="&#x134;" horiz-adv-x="361" 
d="M148 -10l-1 -1q-69 0 -106 22t-37 57q0 22 12 32q13 11 29 11q20 0 32 -12q11 -12 19 -40q4 -15 9 -28q5 -12 10 -19q6 -8 14 -11q7 -3 21 -3q20 0 35 15t15 53v472q0 81 -1 107q-2 40 -6 59q-5 20 -13 27q-9 8 -25 12v7h192v-7q-16 -4 -25 -12q-8 -7 -13 -27t-6 -58
q-1 -26 -1 -106v-390q0 -37 -12 -67t-33 -51q-20 -20 -49 -31q-30 -11 -60 -11zM250 896l123 -113l-3 -5l-120 44l-119 -44l-3 5z" />
    <glyph glyph-name="jcircumflex" unicode="&#x135;" horiz-adv-x="201" 
d="M-26 -139l-3 -4q-17 0 -30 9t-13 27q0 16 10 25t24 9q13 0 22 -6q6 -4 16 -14l14 -14q6 -6 14 -6q7 0 11 4q3 3 6 9q2 5 4 18q2 16 2 32v51v289v56q0 20 -3 30t-11 13q-9 4 -21 5v8l129 74v-411q0 -64 -22 -102t-66 -70q-30 -21 -46 -26q-18 -6 -37 -6zM97 697l108 -174
l-7 -4l-101 82l-101 -82l-7 4z" />
    <glyph glyph-name="uni0136" unicode="&#x136;" horiz-adv-x="538" 
d="M356 6l-1 -4q23 8 23 23q0 16 -21 53l-192 323l232 250q22 25 29 37q9 15 9 25t-7 16q-6 5 -21 10v6h105v-6q-8 -2 -17 -6t-20 -14q-7 -6 -24 -23l-33 -33l-173 -186l234 -400q9 -16 18 -31q8 -13 15 -20q9 -9 13 -12q7 -5 14 -8v-6h-183v6zM17 3l-1 -2q15 5 24 12
q10 8 14 27t6 59q1 26 1 107v330q0 80 -1 106q-2 40 -6 59q-5 20 -13 27q-9 8 -24 12v7h191v-7q-16 -4 -25 -12q-8 -7 -13 -27q-4 -19 -6 -59q-1 -26 -1 -106v-330q0 -80 1 -106q1 -38 6 -58t13 -27q9 -8 25 -12v-7h-191v7zM292 -123h-3q-2 -4 -12 -10q-9 -6 -24 -6
q-17 0 -31 12q-13 12 -13 33q0 23 15 35t35 12q22 0 40 -15t18 -48q0 -40 -23 -61q-23 -22 -57 -26l-4 8q31 4 48 20q16 15 16 33q0 10 -5 13z" />
    <glyph glyph-name="uni0137" unicode="&#x137;" horiz-adv-x="417" 
d="M19 7l-1 -1q11 3 19 9q8 7 11 18q3 12 3 35v60v473q0 41 -1 54q-2 21 -4 28q-3 9 -11 11q-7 2 -21 3v7l131 72v-648v-60q0 -21 5 -34q4 -12 12 -18t21 -9v-7h-164v7zM256 6h-2q16 3 22 14q6 10 -11 38l-117 186v6l155 148q16 14 20 24q5 11 2 18q-3 8 -12 12q-9 5 -19 6
v6h108v-6q-12 -3 -19 -7t-19 -12q-13 -10 -24 -19q-5 -4 -15.5 -14t-15.5 -15l-92 -88l158 -251q16 -25 26 -35t18 -11v-7h-163v7zM240 -118h-3q-2 -4 -12 -10q-9 -6 -24 -6q-17 0 -31 12q-13 12 -13 33q0 23 15 35t35 12q22 0 40 -15t18 -48q0 -40 -23 -61q-23 -22 -57 -26
l-4 8q31 4 48 20q16 15 16 33q0 10 -5 13z" />
    <glyph glyph-name="Lacute" unicode="&#x139;" horiz-adv-x="461" 
d="M18 7v-5q15 4 24 12q10 8 14 27t6 59q1 26 1 107v330q0 80 -1 106q-2 40 -6 59q-5 20 -13 27q-9 7 -24 12v7h194v-7q-16 -4 -25 -12q-10 -8 -14 -27t-6 -59q-1 -26 -1 -106v-531h95q37 0 69 5q30 5 50 19q21 15 36 42q16 28 29 71h9l-21 -126q-2 -13 -6 -15q-6 -2 -12 -2
h-398v7zM30 781l122 86q10 7 21 12q12 5 22 5q15 0 24 -9t9 -22q0 -16 -10 -27q-10 -12 -36 -18l-150 -33z" />
    <glyph glyph-name="lacute" unicode="&#x13a;" horiz-adv-x="203" 
d="M20 7l-1 -2q13 3 21 9t11 18t3 35v60v473v54q0 21 -4 29q-5 10 -12 11q-8 2 -21 3v7l132 72v-648v-60q0 -21 5 -34q4 -12 12 -18t21 -9v-7h-167v7zM14 784l122 86q10 8 21 12q12 5 22 5q15 0 24 -9t9 -22q0 -16 -10 -27q-10 -12 -36 -18l-150 -33z" />
    <glyph glyph-name="uni013B" unicode="&#x13b;" horiz-adv-x="461" 
d="M18 7v-5q15 4 24 12q10 8 14 27t6 59q1 26 1 107v330q0 80 -1 106q-2 40 -6 59q-5 20 -13 27q-9 7 -24 12v7h194v-7q-16 -4 -25 -12q-10 -8 -14 -27t-6 -59q-1 -26 -1 -106v-531h95q37 0 69 5q30 5 50 19q21 15 36 42q16 28 29 71h9l-21 -126q-2 -13 -6 -15q-6 -2 -12 -2
h-398v7zM268 -122h-3q-2 -4 -12 -10q-9 -6 -24 -6q-17 0 -31 12q-13 12 -13 33q0 23 15 35t35 12q22 0 40 -15t18 -48q0 -40 -23 -61q-23 -22 -57 -26l-4 8q31 4 48 20q16 15 16 33q0 10 -5 13z" />
    <glyph glyph-name="uni013C" unicode="&#x13c;" horiz-adv-x="203" 
d="M19 7l-1 -2q14 3 21 9q8 6 11 18t3 35v60v473v54q0 21 -4 29q-5 10 -12 11q-7 2 -21 3v7l132 72v-648v-60q0 -21 5 -34q5 -12 12 -18t21 -9v-7h-167v7zM126 -119h-3q-2 -4 -12 -10q-9 -6 -24 -6q-17 0 -31 12q-13 12 -13 33q0 23 15 35t35 12q22 0 40 -15t18 -48
q0 -40 -23 -61q-23 -22 -57 -26l-4 8q31 4 48 20q16 15 16 33q0 10 -5 13z" />
    <glyph glyph-name="Lcaron" unicode="&#x13d;" horiz-adv-x="461" 
d="M18 7v-5q15 4 24 12q10 8 14 27t6 59q1 26 1 107v330q0 80 -1 106q-2 40 -6 59q-5 20 -13 27q-9 7 -24 12v7h194v-7q-16 -4 -25 -12q-10 -8 -14 -27t-6 -59q-1 -26 -1 -106v-531h95q37 0 69 5q30 5 50 19q21 15 36 42q16 28 29 71h9l-21 -126q-2 -13 -6 -15q-6 -2 -12 -2
h-398v7zM231 562l9 134q3 58 37 58q15 0 24 -9t9 -23q0 -19 -11 -39l-61 -123z" />
    <glyph glyph-name="lcaron" unicode="&#x13e;" horiz-adv-x="203" 
d="M19 7l-1 -2q14 3 21 9q8 6 11 18t3 35v60v473v54q0 21 -4 29q-5 10 -12 11q-7 2 -21 3v7l132 72v-648v-60q0 -21 5 -34q5 -12 12 -18t21 -9v-7h-167v7zM180 569l9 134q3 58 37 58q15 0 24 -9t9 -23q0 -19 -11 -39l-61 -123z" />
    <glyph glyph-name="Ldot" unicode="&#x13f;" horiz-adv-x="461" 
d="M343 332l-1 -1q-26 0 -42 16t-16 42q0 25 17 42t42 17q26 0 42 -16t16 -42t-16 -42t-42 -16zM17 6v-5q15 5 24 12q10 8 14 27t6 59q1 26 1 107v330q0 80 -1 106q-2 40 -6 59q-5 20 -13 27q-9 8 -24 12v7h194v-7q-16 -4 -25 -12q-10 -8 -14 -27t-6 -59q-1 -26 -1 -106
v-531h95q37 0 69 5q30 5 50 19q21 15 36 42q16 28 29 71h9l-21 -126q-1 -14 -6 -15q-6 -2 -12 -2h-398v7z" />
    <glyph glyph-name="ldot" unicode="&#x140;" horiz-adv-x="276" 
d="M239 310l-3 -2q-26 0 -42 16t-16 42q0 24 17 41t42 17t41 -16q17 -17 17 -40q0 -26 -16 -42t-40 -16zM16 5l-1 -2q13 3 21 9t11 18t3 35v60v473v54q0 21 -4 29q-5 10 -12 11q-8 2 -21 3v7l132 72v-648v-60q0 -21 5 -34q4 -12 12 -18t21 -9v-7h-167v7z" />
    <glyph glyph-name="Lslash" unicode="&#x141;" horiz-adv-x="456" 
d="M-7 270l-5 8l325 190l5 -7zM18 7v-5q15 4 24 12q10 8 14 27t6 59q1 26 1 107v330q0 80 -1 106q-2 40 -6 59q-5 20 -13 27q-9 7 -24 12v7h194v-7q-16 -4 -25 -12q-10 -8 -14 -27t-6 -59q-1 -26 -1 -106v-531h95q37 0 69 5q30 5 50 19q21 15 36 42q16 28 29 71h9l-21 -126
q-2 -13 -6 -15q-6 -2 -12 -2h-398v7z" />
    <glyph glyph-name="lslash" unicode="&#x142;" horiz-adv-x="203" 
d="M-9 309l-5 7l226 161l6 -7zM19 7l-1 -2q14 3 21 9q8 6 11 18t3 35v60v473v54q0 21 -4 29q-5 10 -12 11q-7 2 -21 3v7l132 72v-648v-60q0 -21 5 -34q5 -12 12 -18t21 -9v-7h-167v7z" />
    <glyph glyph-name="Nacute" unicode="&#x143;" horiz-adv-x="543" 
d="M18 7l-1 -1q16 8 24 16q10 10 14 30q5 21 6 60q1 26 1 105v325q0 80 -1 106q-1 39 -6 60t-13 27q-10 7 -24 11v7h137q9 0 12 -1q6 -2 9 -4q4 -3 9 -9t9 -15l283 -523v337q0 79 -1 104q-2 38 -6 59t-15 30q-10 8 -28 16v7h105v-7q-16 -7 -25 -16q-8 -8 -13 -30
q-5 -21 -6 -58q-1 -25 -1 -104v-539h-21l-394 730v-512q0 -79 1 -105q1 -39 6 -60t15 -30q10 -8 28 -16v-7h-104v7zM218 785l122 86q10 7 21 12q12 5 22 5q15 0 24 -9t9 -22q0 -16 -10 -27q-10 -12 -36 -18l-150 -33z" />
    <glyph glyph-name="nacute" unicode="&#x144;" horiz-adv-x="458" 
d="M19 7l1 1q11 3 19 9q8 7 11 18q3 12 3 35v60v165q0 43 -1 56q-2 22 -4 29q-3 9 -11 12q-6 2 -21 4v8l130 74v-98l14 14q44 44 75 63t66 19q20 0 38 -6q19 -6 33 -19q15 -13 24 -36t9 -54v-233v-60q0 -22 3 -34t10 -18q8 -6 19 -9v-7h-165v7q14 3 21 9q8 6 11 18
q4 15 5 35q1 15 1 60v257q0 38 -12 53t-32 15q-16 0 -40 -15t-67 -58l-14 -14v-239v-60q0 -21 5 -34q4 -12 12 -18t21 -9v-7h-164v7zM181 530l78 128q11 20 21 29t26 9t25 -9t9 -23q0 -15 -8 -26q-8 -10 -21 -21l-124 -92z" />
    <glyph glyph-name="uni0145" unicode="&#x145;" horiz-adv-x="543" 
d="M18 7l-1 -1q16 8 24 16q10 10 14 30q5 21 6 60q1 26 1 105v325q0 80 -1 106q-1 39 -6 60t-13 27q-10 7 -24 11v7h137q9 0 12 -1q6 -2 9 -4q4 -3 9 -9t9 -15l283 -523v337q0 79 -1 104q-2 38 -6 59t-15 30q-10 8 -28 16v7h105v-7q-16 -7 -25 -16q-8 -8 -13 -30
q-5 -21 -6 -58q-1 -25 -1 -104v-539h-21l-394 730v-512q0 -79 1 -105q1 -39 6 -60t15 -30q10 -8 28 -16v-7h-104v7zM294 -118h-3q-2 -4 -12 -10q-9 -6 -24 -6q-18 0 -31 12t-13 33q0 23 15 35t35 12q22 0 40 -15t18 -48q0 -40 -23 -61q-23 -22 -57 -26l-4 8q31 4 48 20
q16 15 16 33q0 10 -5 13z" />
    <glyph glyph-name="uni0146" unicode="&#x146;" horiz-adv-x="458" 
d="M19 7l1 1q11 3 19 9q8 7 11 18q3 12 3 35v60v165q0 43 -1 56q-2 22 -4 29q-3 9 -11 12q-6 2 -21 4v8l130 74v-98l14 14q44 44 75 63t66 19q20 0 38 -6q19 -6 33 -19q15 -13 24 -36t9 -54v-233v-60q0 -22 3 -34t10 -18q8 -6 19 -9v-7h-165v7q14 3 21 9q8 6 11 18
q4 15 5 35q1 15 1 60v257q0 38 -12 53t-32 15q-16 0 -40 -15t-67 -58l-14 -14v-239v-60q0 -21 5 -34q4 -12 12 -18t21 -9v-7h-164v7zM255 -116h-3q-2 -4 -12 -10q-9 -6 -24 -6q-18 0 -31 12t-13 33q0 23 15 35t35 12q22 0 40 -15t18 -48q0 -40 -23 -61q-23 -22 -57 -26l-4 8
q31 4 48 20q16 15 16 33q0 10 -5 13z" />
    <glyph glyph-name="Ncaron" unicode="&#x147;" horiz-adv-x="543" 
d="M18 7l-1 -1q16 8 24 16q10 10 14 30q5 21 6 60q1 26 1 105v325q0 80 -1 106q-1 39 -6 60t-13 27q-10 7 -24 11v7h137q9 0 12 -1q6 -2 9 -4q4 -3 9 -9t9 -15l283 -523v337q0 79 -1 104q-2 38 -6 59t-15 30q-10 8 -28 16v7h105v-7q-16 -7 -25 -16q-8 -8 -13 -30
q-5 -21 -6 -58q-1 -25 -1 -104v-539h-21l-394 730v-512q0 -79 1 -105q1 -39 6 -60t15 -30q10 -8 28 -16v-7h-104v7zM184 901l119 -45l120 45l3 -6l-123 -112l-122 112z" />
    <glyph glyph-name="ncaron" unicode="&#x148;" horiz-adv-x="458" 
d="M19 7l1 1q11 3 19 9q8 7 11 18q3 12 3 35v60v165q0 43 -1 56q-2 22 -4 29q-3 9 -11 12q-6 2 -21 4v8l130 74v-98l14 14q44 44 75 63t66 19q20 0 38 -6q19 -6 33 -19q15 -13 24 -36t9 -54v-233v-60q0 -22 3 -34t10 -18q8 -6 19 -9v-7h-165v7q14 3 21 9q8 6 11 18
q4 15 5 35q1 15 1 60v257q0 38 -12 53t-32 15q-16 0 -40 -15t-67 -58l-14 -14v-239v-60q0 -21 5 -34q4 -12 12 -18t21 -9v-7h-164v7zM133 707l101 -83l101 83l7 -5l-108 -174l-108 174z" />
    <glyph glyph-name="napostrophe" unicode="&#x149;" horiz-adv-x="457" 
d="M19 7l1 1q11 3 19 9q8 7 11 18q3 12 3 35v60v165q0 43 -1 56q-2 22 -4 29q-3 9 -11 12q-6 2 -21 4v8l130 74v-98l14 14q44 44 75 63t66 19q20 0 38 -6q19 -6 33 -19q15 -13 24 -36t9 -54v-233v-60q0 -22 3 -34t10 -18q8 -6 19 -9v-7h-165v7q14 3 21 9q8 6 11 18
q4 15 5 35q1 15 1 60v257q0 38 -12 53t-32 15q-16 0 -40 -15t-67 -58l-14 -14v-239v-60q0 -21 5 -34q4 -12 12 -18t21 -9v-7h-164v7zM30 680h-2q-5 -7 -13 -11q-10 -5 -24 -5q-19 0 -33 14t-14 35q0 26 16 39q17 14 37 14q23 0 42 -18q20 -18 20 -57q0 -49 -24 -80t-62 -51
l-4 6q32 19 51 44q18 24 18 48q0 16 -8 22z" />
    <glyph glyph-name="Eng" unicode="&#x14a;" horiz-adv-x="543" 
d="M18 7l-4 -2q16 8 24 16q10 10 14 30q4 21 6 60q1 26 1 105v325q0 80 -1 106q-2 39 -6 60q-5 21 -13 27q-10 7 -24 11v7h137q9 0 12 -1q6 -2 9 -4q5 -3 9 -9t9 -15l283 -515v329q0 79 -1 104q-2 38 -6 59q-4 20 -14 30q-8 8 -27 16v7h104v-7q-16 -8 -25 -16q-8 -8 -13 -30
q-5 -21 -6 -58q-1 -25 -1 -104v-558q0 -51 -27 -81t-74 -30q-58 0 -96 23t-38 57q0 20 12 29t29 9q20 0 30 -10q11 -11 18 -39q8 -32 16 -46q9 -15 32 -15q42 0 66 29t24 77v7l-404 740v-512q0 -79 1 -105q2 -39 6 -60q4 -20 14 -30q8 -8 27 -16l1 -7h-104v7z" />
    <glyph glyph-name="eng" unicode="&#x14b;" horiz-adv-x="457" 
d="M19 7l-4 -2q11 3 19 9t11 18t3 35v60v165q0 43 -1 56q-2 22 -4 29q-3 9 -11 12q-6 2 -21 4v8l130 74v-98l14 14q43 43 75 63q31 19 66 19q20 0 38 -6q19 -6 33 -19q15 -14 24 -36t9 -54v-295q0 -64 -22 -102t-66 -70q-30 -21 -46 -26q-18 -6 -37 -6q-17 0 -30 9t-13 27
q0 16 10 25t24 9q13 0 22 -6q6 -4 16 -14t15 -14q7 -6 15 -6q5 0 10 4q3 3 6 9q2 5 4 18q2 16 2 32v51v383q0 38 -12 53t-32 15q-16 0 -40 -15t-67 -58l-14 -14v-239v-60q0 -21 5 -34q4 -12 12 -18t21 -9v-7h-164v7z" />
    <glyph glyph-name="Omacron" unicode="&#x14c;" 
d="M307 -10l-2 -2q-53 0 -102 27q-48 26 -88 77q-39 49 -63 122q-24 72 -24 162q0 92 24 162t63 120q39 49 89 75t102 26t102 -26t89 -75q39 -50 63 -120t24 -162q0 -90 -24 -162q-24 -71 -63 -121q-39 -49 -88 -76t-102 -27zM305 -3l-1 -1q73 0 118 93q44 92 46 284
q0 95 -12 165q-12 69 -35 117q-23 47 -52 69q-31 23 -64 23q-35 0 -64 -22t-52 -69q-22 -45 -34 -117q-12 -71 -12 -165q0 -191 45 -284t117 -93zM404 794h-198v41h198v-41z" />
    <glyph glyph-name="omacron" unicode="&#x14d;" horiz-adv-x="447" 
d="M223 -8h-4q-29 0 -65 14q-35 14 -65 42q-29 27 -49 74q-19 44 -19 107q0 61 20 109q19 45 50 76q30 30 65 45t65 15q31 0 66 -15t65 -45q31 -31 50 -76q20 -48 20 -109q0 -63 -19 -107q-20 -47 -49 -74q-30 -28 -65 -42q-36 -14 -66 -14zM219 1q21 0 40 12t33 39
q13 27 21 71q8 46 8 108q0 64 -8 112q-7 45 -21 72t-33 39q-20 12 -40 12q-21 0 -39 -12q-19 -12 -32 -39q-14 -27 -21 -72q-8 -48 -8 -112q0 -62 8 -108q8 -44 21 -71q13 -26 32 -39q18 -12 39 -12zM312 607v-41h-186v41h186z" />
    <glyph glyph-name="Obreve" unicode="&#x14e;" 
d="M307 -10l-2 -2q-53 0 -102 27q-48 26 -88 77q-39 49 -63 122q-24 72 -24 162q0 92 24 162t63 120q39 49 89 75t102 26t102 -26t89 -75q39 -50 63 -120t24 -162q0 -90 -24 -162q-24 -71 -63 -121q-39 -49 -88 -76t-102 -27zM305 -3l-1 -1q73 0 118 93q44 92 46 284
q0 95 -12 165q-12 69 -35 117q-23 47 -52 69q-31 23 -64 23q-35 0 -64 -22t-52 -69q-22 -45 -34 -117q-12 -71 -12 -165q0 -191 45 -284t117 -93zM306 838l1 -1q36 0 55 13t28 36h9q-2 -23 -7 -39q-6 -18 -18 -33t-28 -24t-39 -9q-47 0 -69 31q-22 32 -24 75h9q8 -22 27 -35
q20 -14 56 -14z" />
    <glyph glyph-name="obreve" unicode="&#x14f;" horiz-adv-x="447" 
d="M223 -8h-4q-29 0 -65 14q-35 14 -65 42q-29 27 -49 74q-19 44 -19 107q0 61 20 109q19 45 50 76q30 30 65 45t65 15q31 0 66 -15t65 -45q31 -31 50 -76q20 -48 20 -109q0 -63 -19 -107q-20 -47 -49 -74q-30 -28 -65 -42q-36 -14 -66 -14zM219 1q21 0 40 12t33 39
q13 27 21 71q8 46 8 108q0 64 -8 112q-7 45 -21 72t-33 39q-20 12 -40 12q-21 0 -39 -12q-19 -12 -32 -39q-14 -27 -21 -72q-8 -48 -8 -112q0 -62 8 -108q8 -44 21 -71q13 -26 32 -39q18 -12 39 -12zM220 591l-1 -1q34 0 53 17t26 39h9q0 -21 -6 -42q-6 -22 -16 -36
q-11 -15 -27 -24t-39 -9t-39 9t-27 24q-10 14 -16 36q-6 21 -6 43h9q6 -23 25 -39q20 -17 55 -17z" />
    <glyph glyph-name="Ohungarumlaut" unicode="&#x150;" 
d="M307 -10l-2 -2q-53 0 -102 27q-48 26 -88 77q-39 49 -63 122q-24 72 -24 162q0 92 24 162t63 120q39 49 89 75t102 26t102 -26t89 -75q39 -50 63 -120t24 -162q0 -90 -24 -162q-24 -71 -63 -121q-39 -49 -88 -76t-102 -27zM305 -3l-1 -1q73 0 118 93q44 92 46 284
q0 95 -12 165q-12 69 -35 117q-23 47 -52 69q-31 23 -64 23q-35 0 -64 -22t-52 -69q-22 -45 -34 -117q-12 -71 -12 -165q0 -191 45 -284t117 -93zM346 784l51 80q9 14 20 27q9 11 26 11q15 0 23 -9q8 -10 8 -19q0 -14 -9 -23q-6 -6 -20 -16l-94 -56zM222 783l51 80
q9 14 20 27q9 11 26 11q15 0 23 -9q8 -10 8 -19q0 -14 -9 -23q-6 -6 -20 -16l-94 -56z" />
    <glyph glyph-name="ohungarumlaut" unicode="&#x151;" horiz-adv-x="447" 
d="M223 -8h-4q-29 0 -65 14q-35 14 -65 42q-29 27 -49 74q-19 44 -19 107q0 61 20 109q19 45 50 76q30 30 65 45t65 15q31 0 66 -15t65 -45q31 -31 50 -76q20 -48 20 -109q0 -63 -19 -107q-20 -47 -49 -74q-30 -28 -65 -42q-36 -14 -66 -14zM219 1q21 0 40 12t33 39
q13 27 21 71q8 46 8 108q0 64 -8 112q-7 45 -21 72t-33 39q-20 12 -40 12q-21 0 -39 -12q-19 -12 -32 -39q-14 -27 -21 -72q-8 -48 -8 -112q0 -62 8 -108q8 -44 21 -71q13 -26 32 -39q18 -12 39 -12zM270 533l35 130q4 20 14 33q9 12 26 12q13 0 21 -9q8 -10 8 -23
q0 -9 -4 -18q-5 -12 -10 -18l-84 -109zM154 533l34 130q4 20 14 33q9 12 26 12q16 0 23 -9q8 -10 8 -23q0 -18 -15 -36l-84 -109z" />
    <glyph glyph-name="OE" unicode="&#x152;" horiz-adv-x="819" 
d="M646 331l1 -3q-6 20 -9 29q-5 16 -13 26q-9 12 -27 18t-50 6h-29v-401h99q44 0 69 4q28 4 50 17q22 12 35 36q14 24 24 63h10l-13 -111q-1 -13 -6 -15q-6 -2 -12 -2h-433q-64 0 -121 24q-56 24 -99 71q-42 47 -66 117t-24 165q0 91 24 162t66 117q43 47 99 71
q57 24 121 24h406q8 0 11 -3t6 -18l17 -96h-10q-10 33 -24 54t-33 33q-21 13 -48 17q-32 5 -66 5h-84v-322h29q32 0 50 6t27 18q10 13 14 26q3 9 9 29h7v-167h-7zM343 738v-2q-97 0 -147 -87q-50 -88 -50 -277q0 -93 14 -165q14 -69 39 -114t62 -66q36 -21 81 -21q25 0 40 6
t21 27q7 23 8 62q2 54 2 110v318q0 85 -1 113q-2 42 -9 63t-21 27t-39 6z" />
    <glyph glyph-name="oe" unicode="&#x153;" horiz-adv-x="696" 
d="M223 -7l-4 -1q-29 0 -65 14q-35 14 -65 42q-29 27 -49 74q-19 44 -19 107q0 61 20 109q19 45 50 76q30 30 65 45t65 15q37 0 78 -21q42 -22 71 -64q28 42 68 63q39 21 74 21q71 0 110 -43q40 -44 47 -111h-247q-3 -31 -3 -72q0 -119 34 -180t99 -61q38 0 62 12
q25 13 44 27l5 -7q-21 -18 -48 -32q-29 -15 -77 -15t-93 20q-43 19 -72 62q-31 -41 -72 -61q-39 -19 -78 -19zM512 465l-1 -1q-13 0 -27 -6t-26 -21t-21 -42q-10 -29 -14 -66h162q-6 136 -73 136zM218 0v-1q20 0 40 12t33 39t21 71q8 46 8 108q0 64 -8 112q-8 45 -21 72
t-33 39t-40 12q-21 0 -39 -12q-19 -12 -32 -39t-21 -72q-8 -48 -8 -112q0 -62 8 -108q7 -43 21 -70q13 -27 32 -39q18 -12 39 -12z" />
    <glyph glyph-name="Racute" unicode="&#x154;" horiz-adv-x="534" 
d="M18 7l-3 -3q15 4 24 12q10 8 14 27t6 59q1 26 1 107v330q0 80 -1 106q-2 40 -6 59q-5 20 -13 27q-9 7 -24 12v7h212q130 0 198 -41t68 -137q0 -50 -19 -87t-53 -63q-32 -25 -78 -37q-45 -12 -94 -12q30 -5 54 -15q26 -11 44 -31q20 -21 33 -54q14 -35 23 -81
q12 -61 19 -87q9 -33 20 -56q10 -20 23 -30q12 -9 29 -9q18 0 27 6t17 14l6 -5q-9 -11 -29 -23t-57 -12q-28 0 -55 8q-25 7 -45 29q-19 20 -34 57q-15 36 -24 92q-12 72 -21 110q-9 40 -21 59t-30 24q-20 5 -46 5h-18v-164q0 -80 1 -106q1 -38 6 -58q4 -19 14 -27
q9 -7 24 -12v-7h-192v7zM163 738v-361h81q80 0 115 47q34 46 34 134q0 95 -38 138q-38 42 -131 42h-61zM174 781l122 86q10 7 21 12q12 5 22 5q15 0 24 -9t9 -22q0 -16 -10 -27q-10 -12 -36 -18l-150 -33z" />
    <glyph glyph-name="racute" unicode="&#x155;" horiz-adv-x="320" 
d="M19 7v-6q11 3 19 9t11 18t3 35v60v168q0 41 -1 54q-2 22 -4 30q-3 10 -11 13q-6 2 -21 4v8l130 74v-99l17 19q26 30 34 38q15 15 27 24t23 12q10 3 23 3q23 0 33 -12q11 -13 11 -30q0 -19 -11 -30t-27 -11q-12 0 -21 6q-6 4 -16 12q-5 4 -13 12q-6 6 -15 6t-17 -7
q-11 -9 -30 -31l-17 -19v-239q0 -45 1 -60q1 -19 5 -34q3 -12 11 -18q7 -6 23 -9v-7h-167v7zM132 523l78 128q11 20 21 29q11 9 26 9q16 0 25 -9t9 -23q0 -15 -8 -26q-7 -11 -21 -21l-124 -92z" />
    <glyph glyph-name="uni0156" unicode="&#x156;" horiz-adv-x="534" 
d="M18 7l-3 -3q15 4 24 12q10 8 14 27t6 59q1 26 1 107v330q0 80 -1 106q-2 40 -6 59q-5 20 -13 27q-9 7 -24 12v7h212q130 0 198 -41t68 -137q0 -50 -19 -87t-53 -63q-32 -25 -78 -37q-45 -12 -94 -12q30 -5 54 -15q26 -11 44 -31q20 -21 33 -54q14 -35 23 -81
q12 -61 19 -87q9 -33 20 -56q10 -20 23 -30q12 -9 29 -9q18 0 27 6t17 14l6 -5q-9 -11 -29 -23t-57 -12q-28 0 -55 8q-25 7 -45 29q-19 20 -34 57q-15 36 -24 92q-12 72 -21 110q-9 40 -21 59t-30 24q-20 5 -46 5h-18v-164q0 -80 1 -106q1 -38 6 -58q4 -19 14 -27
q9 -7 24 -12v-7h-192v7zM163 738v-361h81q80 0 115 47q34 46 34 134q0 95 -38 138q-38 42 -131 42h-61zM296 -122h-3q-2 -4 -12 -10q-9 -6 -24 -6q-17 0 -31 12q-13 12 -13 33q0 23 15 35t35 12q22 0 40 -15t18 -48q0 -40 -23 -61q-23 -22 -57 -26l-4 8q31 4 48 20
q16 15 16 33q0 10 -5 13z" />
    <glyph glyph-name="uni0157" unicode="&#x157;" horiz-adv-x="320" 
d="M19 7v-6q11 3 19 9t11 18t3 35v60v168q0 41 -1 54q-2 22 -4 30q-3 10 -11 13q-6 2 -21 4v8l130 74v-99l17 19q26 30 34 38q15 15 27 24t23 12q10 3 23 3q23 0 33 -12q11 -13 11 -30q0 -19 -11 -30t-27 -11q-12 0 -21 6q-6 4 -16 12q-5 4 -13 12q-6 6 -15 6t-17 -7
q-11 -9 -30 -31l-17 -19v-239q0 -45 1 -60q1 -19 5 -34q3 -12 11 -18q7 -6 23 -9v-7h-167v7zM127 -123h-3q-2 -4 -12 -10q-9 -6 -24 -6q-18 0 -31 12t-13 33q0 23 15 35t35 12q22 0 40 -15t18 -48q0 -40 -23 -61q-23 -22 -57 -26l-4 8q31 4 48 20q16 15 16 33q0 10 -5 13z
" />
    <glyph glyph-name="Rcaron" unicode="&#x158;" horiz-adv-x="534" 
d="M18 7l-3 -3q15 4 24 12q10 8 14 27t6 59q1 26 1 107v330q0 80 -1 106q-2 40 -6 59q-5 20 -13 27q-9 7 -24 12v7h212q130 0 198 -41t68 -137q0 -50 -19 -87t-53 -63q-32 -25 -78 -37q-45 -12 -94 -12q30 -5 54 -15q26 -11 44 -31q20 -21 33 -54q14 -35 23 -81
q12 -61 19 -87q9 -33 20 -56q10 -20 23 -30q12 -9 29 -9q18 0 27 6t17 14l6 -5q-9 -11 -29 -23t-57 -12q-28 0 -55 8q-25 7 -45 29q-19 20 -34 57q-15 36 -24 92q-12 72 -21 110q-9 40 -21 59t-30 24q-20 5 -46 5h-18v-164q0 -80 1 -106q1 -38 6 -58q4 -19 14 -27
q9 -7 24 -12v-7h-192v7zM163 738v-361h81q80 0 115 47q34 46 34 134q0 95 -38 138q-38 42 -131 42h-61zM140 897l119 -45l120 45l3 -6l-123 -112l-122 112z" />
    <glyph glyph-name="rcaron" unicode="&#x159;" horiz-adv-x="320" 
d="M19 7v-6q11 3 19 9t11 18t3 35v60v168q0 41 -1 54q-2 22 -4 30q-3 10 -11 13q-6 2 -21 4v8l130 74v-99l17 19q26 30 34 38q15 15 27 24t23 12q10 3 23 3q23 0 33 -12q11 -13 11 -30q0 -19 -11 -30t-27 -11q-12 0 -21 6q-6 4 -16 12q-5 4 -13 12q-6 6 -15 6t-17 -7
q-11 -9 -30 -31l-17 -19v-239q0 -45 1 -60q1 -19 5 -34q3 -12 11 -18q7 -6 23 -9v-7h-167v7zM86 700l101 -83l101 83l7 -5l-108 -174l-108 174z" />
    <glyph glyph-name="Sacute" unicode="&#x15a;" horiz-adv-x="453" 
d="M215 -8h-9q-36 0 -63 8q-22 6 -43 17q-14 7 -32 17q-14 8 -27 8t-18 -21h-8v184h8q13 -101 60 -153q46 -52 126 -52q70 0 102 35t32 98q0 38 -10 65q-11 28 -30 54q-19 24 -50 51t-71 56q-34 27 -63 51t-48 51t-30 57q-10 29 -10 69q0 36 14 69q13 31 38 54q23 21 59 34
q34 12 75 12q29 0 52 -5q16 -4 37 -11q6 -2 15.5 -6t12.5 -5q13 -5 23 -5q17 0 21 24h8v-143h-8q-17 77 -57 110q-41 33 -102 33q-57 0 -85 -27t-28 -74q0 -55 36 -99q37 -44 103 -93q22 -16 73 -56q36 -28 59 -57q24 -31 39 -64q15 -34 15 -78q0 -50 -18 -89t-48 -66
q-29 -26 -69 -40q-38 -13 -81 -13zM126 786l122 86q10 8 21 12q12 5 22 5q15 0 24 -9t9 -22q0 -16 -10 -27q-10 -12 -36 -18l-150 -33z" />
    <glyph glyph-name="sacute" unicode="&#x15b;" horiz-adv-x="329" 
d="M169 3l3 -5q44 0 62 23t18 54q0 36 -24 63q-25 28 -79 60q-23 14 -52 35q-20 15 -37 35q-15 18 -21 39t-6 47q0 52 36 84q37 32 88 32q19 0 33 -3q18 -4 26 -7q4 -1 7.5 -2.5t7.5 -2.5t6 -2q9 -3 21 -3q14 0 18 16h8v-114l-8 1q-20 61 -51 86q-32 26 -69 26
q-35 0 -54 -16t-19 -48q0 -17 6 -30t18 -25q12 -11 31 -25q20 -13 45 -30q30 -17 58 -38q23 -17 39 -38t23 -42t7 -51t-12 -54q-13 -26 -31 -41q-21 -17 -45 -26q-26 -9 -52 -9t-44 6q-22 7 -32 13q-4 2 -12 6.5t-12 6.5q-10 6 -21 6q-14 0 -17 -17h-9v139h9
q36 -149 137 -149zM112 524l78 128q11 20 21 29q11 9 26 9q16 0 25 -9t9 -23q0 -15 -8 -26q-7 -10 -21 -21l-124 -92z" />
    <glyph glyph-name="Scircumflex" unicode="&#x15c;" horiz-adv-x="453" 
d="M215 -8h-9q-36 0 -63 8q-22 6 -43 17q-14 7 -32 17q-14 8 -27 8t-18 -21h-8v184h8q13 -101 60 -153q46 -52 126 -52q70 0 102 35t32 98q0 38 -10 65q-11 28 -30 54q-19 24 -50 51t-71 56q-34 27 -63 51t-48 51t-30 57q-10 29 -10 69q0 36 14 69q13 31 38 54q23 21 59 34
q34 12 75 12q29 0 52 -5q16 -4 37 -11q6 -2 15.5 -6t12.5 -5q13 -5 23 -5q17 0 21 24h8v-143h-8q-17 77 -57 110q-41 33 -102 33q-57 0 -85 -27t-28 -74q0 -55 36 -99q37 -44 103 -93q22 -16 73 -56q36 -28 59 -57q24 -31 39 -64q15 -34 15 -78q0 -50 -18 -89t-48 -66
q-29 -26 -69 -40q-38 -13 -81 -13zM212 897l123 -113l-3 -5l-120 44l-119 -44l-3 5z" />
    <glyph glyph-name="scircumflex" unicode="&#x15d;" horiz-adv-x="329" 
d="M169 3l3 -5q44 0 62 23t18 54q0 36 -24 63q-25 28 -79 60q-23 14 -52 35q-20 15 -37 35q-15 18 -21 39t-6 47q0 52 36 84q37 32 88 32q19 0 33 -3q18 -4 26 -7q4 -1 7.5 -2.5t7.5 -2.5t6 -2q9 -3 21 -3q14 0 18 16h8v-114l-8 1q-20 61 -51 86q-32 26 -69 26
q-35 0 -54 -16t-19 -48q0 -17 6 -30t18 -25q12 -11 31 -25q20 -13 45 -30q30 -17 58 -38q23 -17 39 -38t23 -42t7 -51t-12 -54q-13 -26 -31 -41q-21 -17 -45 -26q-26 -9 -52 -9t-44 6q-22 7 -32 13q-4 2 -12 6.5t-12 6.5q-10 6 -21 6q-14 0 -17 -17h-9v139h9
q36 -149 137 -149zM165 696l108 -174l-7 -4l-101 82l-101 -82l-7 4z" />
    <glyph glyph-name="uni015E" unicode="&#x15e;" horiz-adv-x="453" 
d="M208 -3l-24 -41q36 -5 62 -22q27 -18 27 -47q0 -35 -36 -54t-114 -21l-1 8q44 5 68 18q24 14 24 31t-18 26q-17 8 -44 10l-3 5l48 87h11zM213 -8h-9q-36 0 -63 8q-22 6 -43 17q-14 7 -32 17q-14 8 -27 8t-18 -21h-8v184h8q13 -101 60 -153q46 -52 126 -52q70 0 102 35
t32 98q0 38 -10 65q-11 28 -30 54q-19 24 -50 51t-71 56q-34 27 -63 51t-48 51t-30 57q-10 29 -10 69q0 36 14 69q13 31 38 54q23 21 59 34q34 12 75 12q29 0 52 -5q16 -4 37 -11q6 -2 15.5 -6t12.5 -5q13 -5 23 -5q17 0 21 24h8v-143h-8q-17 77 -57 110q-41 33 -102 33
q-57 0 -85 -27t-28 -74q0 -55 36 -99q37 -44 103 -93q22 -16 73 -56q36 -28 59 -57q24 -31 39 -64q15 -34 15 -78q0 -50 -18 -89t-48 -66q-29 -26 -69 -40q-38 -13 -81 -13z" />
    <glyph glyph-name="uni015F" unicode="&#x15f;" horiz-adv-x="329" 
d="M156 1l-26 -45q36 -5 62 -22q27 -18 27 -47q0 -35 -36 -54t-114 -21l-1 8q44 5 68 18q24 14 24 31t-18 26q-17 8 -44 10l-3 5l50 91h11zM167 3l3 -5q44 0 62 23t18 54q0 36 -24 63q-25 28 -79 60q-23 14 -52 35q-20 15 -37 35q-15 18 -21 39t-6 47q0 52 36 84
q37 32 88 32q19 0 33 -3q18 -4 26 -7q4 -1 7.5 -2.5t7.5 -2.5t6 -2q9 -3 21 -3q14 0 18 16h8v-114l-8 1q-20 61 -51 86q-32 26 -69 26q-35 0 -54 -16t-19 -48q0 -17 6 -30t18 -25q12 -11 31 -25q20 -13 45 -30q30 -17 58 -38q23 -17 39 -38t23 -42t7 -51t-12 -54
q-13 -26 -31 -41q-21 -17 -45 -26q-26 -9 -52 -9t-44 6q-21 7 -32 13q-4 2 -12 6.5t-12 6.5q-10 6 -21 6q-14 0 -17 -17h-9v139h9q36 -149 137 -149z" />
    <glyph glyph-name="Scaron" unicode="&#x160;" horiz-adv-x="453" 
d="M215 -8h-9q-36 0 -63 8q-22 6 -43 17q-14 7 -32 17q-14 8 -27 8t-18 -21h-8v184h8q13 -101 60 -153q46 -52 126 -52q70 0 102 35t32 98q0 38 -10 65q-11 28 -30 54q-19 24 -50 51t-71 56q-34 27 -63 51t-48 51t-30 57q-10 29 -10 69q0 36 14 69q13 31 38 54q23 21 59 34
q34 12 75 12q29 0 52 -5q16 -4 37 -11q6 -2 15.5 -6t12.5 -5q13 -5 23 -5q17 0 21 24h8v-143h-8q-17 77 -57 110q-41 33 -102 33q-57 0 -85 -27t-28 -74q0 -55 36 -99q37 -44 103 -93q22 -16 73 -56q36 -28 59 -57q24 -31 39 -64q15 -34 15 -78q0 -50 -18 -89t-48 -66
q-29 -26 -69 -40q-38 -13 -81 -13zM94 902l119 -45l120 45l3 -6l-123 -112l-122 112z" />
    <glyph glyph-name="scaron" unicode="&#x161;" horiz-adv-x="329" 
d="M169 3l3 -5q44 0 62 23t18 54q0 36 -24 63q-25 28 -79 60q-23 14 -52 35q-20 15 -37 35q-15 18 -21 39t-6 47q0 52 36 84q37 32 88 32q19 0 33 -3q18 -4 26 -7q4 -1 7.5 -2.5t7.5 -2.5t6 -2q9 -3 21 -3q14 0 18 16h8v-114l-8 1q-20 61 -51 86q-32 26 -69 26
q-35 0 -54 -16t-19 -48q0 -17 6 -30t18 -25q12 -11 31 -25q20 -13 45 -30q30 -17 58 -38q23 -17 39 -38t23 -42t7 -51t-12 -54q-13 -26 -31 -41q-21 -17 -45 -26q-26 -9 -52 -9t-44 6q-22 7 -32 13q-4 2 -12 6.5t-12 6.5q-10 6 -21 6q-14 0 -17 -17h-9v139h9
q36 -149 137 -149zM64 701l101 -83l101 83l7 -5l-108 -174l-108 174z" />
    <glyph glyph-name="Tcommaaccent" unicode="&#x162;" horiz-adv-x="527" 
d="M167 7l-2 -1q15 4 24 12q10 8 14 28q4 21 6 59q1 25 1 105v531h-33q-39 0 -65 -6t-44 -21t-30 -40q-11 -23 -22 -66h-9l12 121q1 15 5 19q3 3 11 3h453q8 0 11 -3q4 -4 5 -19l13 -121h-9q-11 43 -22 65q-12 26 -30 41t-44 21q-25 6 -65 6h-33v-531q0 -80 1 -105
q1 -37 6 -58q4 -20 14 -28q9 -7 24 -12v-7h-192v7zM287 -118h-3q-2 -4 -12 -10q-9 -6 -24 -6q-18 0 -31 12t-13 33q0 23 15 35t35 12q22 0 40 -15t18 -48q0 -40 -23 -61q-23 -22 -57 -26l-4 8q31 4 48 20q16 15 16 33q0 10 -5 13z" />
    <glyph glyph-name="tcommaaccent" unicode="&#x163;" horiz-adv-x="250" 
d="M159 -7l2 -3q-47 0 -76 27q-28 27 -28 77v360h-41v9q21 3 39 13q19 10 36 29q16 17 30 47q13 27 19 66h9v-153h89v-10h-89v-342q0 -54 8 -81q7 -25 36 -25q17 0 27 6q9 5 18 14l5 -5q-6 -7 -26 -19q-17 -10 -58 -10zM169 -120h-3q-2 -4 -12 -10q-9 -6 -24 -6
q-18 0 -31 12t-13 33q0 23 15 35t35 12q22 0 40 -15t18 -48q0 -40 -23 -61q-23 -22 -57 -26l-4 8q31 4 48 20q16 15 16 33q0 10 -5 13z" />
    <glyph glyph-name="Tcaron" unicode="&#x164;" horiz-adv-x="527" 
d="M167 7l-2 -1q15 4 24 12q10 8 14 28q4 21 6 59q1 25 1 105v531h-33q-39 0 -65 -6t-44 -21t-30 -40q-11 -23 -22 -66h-9l12 121q1 15 5 19q3 3 11 3h453q8 0 11 -3q4 -4 5 -19l13 -121h-9q-11 43 -22 65q-12 26 -30 41t-44 21q-25 6 -65 6h-33v-531q0 -80 1 -105
q1 -37 6 -58q4 -20 14 -28q9 -7 24 -12v-7h-192v7zM142 901l119 -45l120 45l3 -6l-123 -112l-122 112z" />
    <glyph glyph-name="tcaron" unicode="&#x165;" horiz-adv-x="250" 
d="M159 -7l2 -3q-47 0 -76 27q-28 27 -28 77v360h-41v9q21 3 39 13q19 10 36 29q16 17 30 47q13 27 19 66h9v-153h89v-10h-89v-342q0 -54 8 -81q7 -25 36 -25q17 0 27 6q9 5 18 14l5 -5q-6 -7 -26 -19q-17 -10 -58 -10zM189 525l9 134q3 58 37 58q15 0 24 -9t9 -23
q0 -19 -11 -39l-61 -123z" />
    <glyph glyph-name="Tbar" unicode="&#x166;" horiz-adv-x="527" 
d="M93 428h341v-8h-341v8zM167 7l-2 -1q15 4 24 12q10 8 14 28q4 21 6 59q1 25 1 105v531h-33q-39 0 -65 -6t-44 -21t-30 -40q-11 -23 -22 -66h-9l12 121q1 15 5 19q3 3 11 3h453q8 0 11 -3q4 -4 5 -19l13 -121h-9q-11 43 -22 65q-12 26 -30 41t-44 21q-25 6 -65 6h-33v-531
q0 -80 1 -105q1 -37 6 -58q4 -20 14 -28q9 -7 24 -12v-7h-192v7z" />
    <glyph glyph-name="tbar" unicode="&#x167;" horiz-adv-x="250" 
d="M14 309h220v-9h-220v9zM159 -7l2 -3q-47 0 -76 27q-28 27 -28 77v360h-41v9q21 3 39 13q19 10 36 29q16 17 30 47q13 27 19 66h9v-153h89v-10h-89v-342q0 -54 8 -81q7 -25 36 -25q17 0 27 6q9 5 18 14l5 -5q-6 -7 -26 -19q-17 -10 -58 -10z" />
    <glyph glyph-name="Utilde" unicode="&#x168;" horiz-adv-x="544" 
d="M294 -11h2q-112 0 -175 54t-63 170v327q0 80 -1 106q-2 40 -6 59q-5 20 -13 27q-9 8 -24 12v7h190v-7q-15 -4 -24 -12q-8 -7 -13 -27q-4 -19 -6 -59q-1 -26 -1 -106v-340q0 -50 6 -87t21 -63q14 -25 44 -37q29 -12 72 -12q80 0 126 49q47 50 47 159v326q0 79 -1 105
q-1 39 -6 60t-15 30q-10 8 -28 16v7h105v-7q-16 -8 -24 -16t-13 -30q-4 -21 -6 -60q-1 -26 -1 -105v-326q0 -115 -51 -168q-51 -52 -142 -52zM277 866l-4 -1q23 0 50 -3t44 -3q11 0 23 9t29 32l6 -2q-11 -49 -27 -71q-17 -23 -36 -23q-22 0 -49 3t-48 3q-11 0 -21 -7
t-27 -33l-7 2q13 49 32 72q18 22 35 22z" />
    <glyph glyph-name="utilde" unicode="&#x169;" horiz-adv-x="445" 
d="M158 -8l-1 -7q-19 0 -39 6t-34 19q-15 14 -24 36t-9 54v190v54q0 20 -3 30t-11 13q-6 2 -21 4v8l129 74v-394q0 -40 13 -54q14 -15 33 -15q17 0 41 15q25 16 66 58l2 2v208v54q0 19 -3 30q-3 10 -11 13q-6 2 -21 4v8l129 74v-349v-60q0 -22 3 -34q3 -11 11 -18
q8 -6 21 -9v-7h-128v77l-2 -2q-43 -44 -75 -63q-31 -19 -66 -19zM193 626l-3 1q19 0 49 -5t45 -5q10 0 21 9q10 8 27 32l6 -3q-10 -46 -27 -70t-36 -24q-20 0 -48 5t-45 5q-10 0 -21 -9q-10 -9 -28 -34l-6 3q14 47 30 71q17 24 36 24z" />
    <glyph glyph-name="Umacron" unicode="&#x16a;" horiz-adv-x="544" 
d="M294 -11h2q-112 0 -175 54t-63 170v327q0 80 -1 106q-2 40 -6 59q-5 20 -13 27q-9 8 -24 12v7h190v-7q-15 -4 -24 -12q-8 -7 -13 -27q-4 -19 -6 -59q-1 -26 -1 -106v-340q0 -50 6 -87t21 -63q14 -25 44 -37q29 -12 72 -12q80 0 126 49q47 50 47 159v326q0 79 -1 105
q-1 39 -6 60t-15 30q-10 8 -28 16v7h105v-7q-16 -8 -24 -16t-13 -30q-4 -21 -6 -60q-1 -26 -1 -105v-326q0 -115 -51 -168q-51 -52 -142 -52zM411 797h-198v41h198v-41z" />
    <glyph glyph-name="umacron" unicode="&#x16b;" horiz-adv-x="445" 
d="M158 -8l-1 -7q-19 0 -39 6t-34 19q-15 14 -24 36t-9 54v190v54q0 20 -3 30t-11 13q-6 2 -21 4v8l129 74v-394q0 -40 13 -54q14 -15 33 -15q17 0 41 15q25 16 66 58l2 2v208v54q0 19 -3 30q-3 10 -11 13q-6 2 -21 4v8l129 74v-349v-60q0 -22 3 -34q3 -11 11 -18
q8 -6 21 -9v-7h-128v77l-2 -2q-43 -44 -75 -63q-31 -19 -66 -19zM323 600v-41h-186v41h186z" />
    <glyph glyph-name="Ubreve" unicode="&#x16c;" horiz-adv-x="544" 
d="M294 -11h2q-112 0 -175 54t-63 170v327q0 80 -1 106q-2 40 -6 59q-5 20 -13 27q-9 8 -24 12v7h190v-7q-15 -4 -24 -12q-8 -7 -13 -27q-4 -19 -6 -59q-1 -26 -1 -106v-340q0 -50 6 -87t21 -63q14 -25 44 -37q29 -12 72 -12q80 0 126 49q47 50 47 159v326q0 79 -1 105
q-1 39 -6 60t-15 30q-10 8 -28 16v7h105v-7q-16 -8 -24 -16t-13 -30q-4 -21 -6 -60q-1 -26 -1 -105v-326q0 -115 -51 -168q-51 -52 -142 -52zM313 841l1 -1q36 0 55 13t28 36h9q-2 -23 -7 -39q-6 -18 -18 -33t-28 -24q-17 -9 -39 -9q-47 0 -69 31q-23 31 -24 75h9
q8 -22 27 -35q20 -14 56 -14z" />
    <glyph glyph-name="ubreve" unicode="&#x16d;" horiz-adv-x="445" 
d="M158 -8l-1 -7q-19 0 -39 6t-34 19q-15 14 -24 36t-9 54v190v54q0 20 -3 30t-11 13q-6 2 -21 4v8l129 74v-394q0 -40 13 -54q14 -15 33 -15q17 0 41 15q25 16 66 58l2 2v208v54q0 19 -3 30q-3 10 -11 13q-6 2 -21 4v8l129 74v-349v-60q0 -22 3 -34q3 -11 11 -18
q8 -6 21 -9v-7h-128v77l-2 -2q-43 -44 -75 -63q-31 -19 -66 -19zM232 584l-1 -1q34 0 53 17t26 39h9q0 -21 -6 -42q-6 -22 -16 -36q-11 -15 -27 -24t-39 -9t-39 9t-27 24q-10 14 -16 36q-6 21 -6 43h9q6 -23 25 -39q20 -17 55 -17z" />
    <glyph glyph-name="Uring" unicode="&#x16e;" horiz-adv-x="544" 
d="M294 -11h2q-112 0 -175 54t-63 170v327q0 80 -1 106q-2 40 -6 59q-5 20 -13 27q-9 8 -24 12v7h190v-7q-15 -4 -24 -12q-8 -7 -13 -27q-4 -19 -6 -59q-1 -26 -1 -106v-340q0 -50 6 -87t21 -63q14 -25 44 -37q29 -12 72 -12q80 0 126 49q47 50 47 159v326q0 79 -1 105
q-1 39 -6 60t-15 30q-10 8 -28 16v7h105v-7q-16 -8 -24 -16t-13 -30q-4 -21 -6 -60q-1 -26 -1 -105v-326q0 -115 -51 -168q-51 -52 -142 -52zM236 834l-3 -1q0 32 23 53q22 21 57 21q34 0 58 -21t24 -52q0 -33 -23 -54q-22 -21 -57 -21t-57 21t-22 54zM273 833q0 -32 10 -48
q11 -17 30 -17t30 17t11 48q0 28 -11 47q-11 18 -30 18t-30 -18q-10 -17 -10 -47z" />
    <glyph glyph-name="uring" unicode="&#x16f;" horiz-adv-x="445" 
d="M158 -8l-1 -7q-19 0 -39 6t-34 19q-15 14 -24 36t-9 54v190v54q0 20 -3 30t-11 13q-6 2 -21 4v8l129 74v-394q0 -40 13 -54q14 -15 33 -15q17 0 41 15q25 16 66 58l2 2v208v54q0 19 -3 30q-3 10 -11 13q-6 2 -21 4v8l129 74v-349v-60q0 -22 3 -34q3 -11 11 -18
q8 -6 21 -9v-7h-128v77l-2 -2q-43 -44 -75 -63q-31 -19 -66 -19zM150 595l-1 -1q0 32 24 53t57 21q34 0 57 -21t23 -53t-23 -53t-57 -21t-57 21t-23 54zM189 594l-1 -1q0 -31 11 -48t30 -17t30 18q11 19 11 48q0 28 -11 47q-11 18 -30 18t-29 -18q-11 -19 -11 -47z" />
    <glyph glyph-name="Uhungarumlaut" unicode="&#x170;" horiz-adv-x="544" 
d="M294 -11h2q-112 0 -175 54t-63 170v327q0 80 -1 106q-2 40 -6 59q-5 20 -13 27q-9 8 -24 12v7h190v-7q-15 -4 -24 -12q-8 -7 -13 -27q-4 -19 -6 -59q-1 -26 -1 -106v-340q0 -50 6 -87t21 -63q14 -25 44 -37q29 -12 72 -12q80 0 126 49q47 50 47 159v326q0 79 -1 105
q-1 39 -6 60t-15 30q-10 8 -28 16v7h105v-7q-16 -8 -24 -16t-13 -30q-4 -21 -6 -60q-1 -26 -1 -105v-326q0 -115 -51 -168q-51 -52 -142 -52zM351 787l51 80q9 14 20 27q9 11 26 11q15 0 23 -9q8 -10 8 -19q0 -14 -9 -23q-6 -6 -20 -16l-94 -56zM227 786l51 80q9 14 20 27
q9 11 26 11q16 0 23 -9q8 -10 8 -19q0 -14 -9 -23q-6 -6 -20 -16l-94 -56z" />
    <glyph glyph-name="uhungarumlaut" unicode="&#x171;" horiz-adv-x="445" 
d="M158 -8l-1 -7q-19 0 -39 6t-34 19q-15 14 -24 36t-9 54v190v54q0 20 -3 30t-11 13q-6 2 -21 4v8l129 74v-394q0 -40 13 -54q14 -15 33 -15q17 0 41 15q25 16 66 58l2 2v208v54q0 19 -3 30q-3 10 -11 13q-6 2 -21 4v8l129 74v-349v-60q0 -22 3 -34q3 -11 11 -18
q8 -6 21 -9v-7h-128v77l-2 -2q-43 -44 -75 -63q-31 -19 -66 -19zM279 526l35 130q4 20 14 33q9 12 26 12q14 0 21 -9q8 -10 8 -23q0 -9 -4 -18q-5 -12 -10 -18l-84 -109zM163 526l34 130q4 20 14 33q9 12 26 12q15 0 23 -9q8 -10 8 -23q0 -18 -15 -36l-84 -109z" />
    <glyph glyph-name="Uogonek" unicode="&#x172;" horiz-adv-x="544" 
d="M315 -173l2 -9q-35 0 -56 18t-21 47q0 19 11 36q10 15 26 30q15 13 33 24q15 9 35 16l-24 -3q-8 -1 -25 -1q-112 0 -175 54t-63 170v327q0 80 -1 106q-2 40 -6 59q-5 20 -13 27q-9 8 -24 12v7h190v-7q-15 -4 -24 -12q-8 -7 -13 -27q-4 -19 -6 -59q-1 -26 -1 -106v-340
q0 -50 6 -87t21 -63q14 -25 44 -37q29 -12 72 -12q80 0 126 49q47 50 47 159v326q0 79 -1 105q-1 39 -6 60t-15 30q-10 8 -28 16v7h105v-7q-16 -8 -24 -16t-13 -30q-4 -21 -6 -60q-1 -26 -1 -105v-326q0 -81 -25 -130t-72 -70l-8 -4t-9 -5t-8 -5q-13 -7 -24 -20t-18 -28
t-7 -39q0 -20 11 -34q10 -13 30 -13q11 0 21 5t17 12l5 -5q-3 -5 -9 -12q-6 -8 -17 -14q-13 -7 -25 -11q-17 -5 -34 -5z" />
    <glyph glyph-name="uogonek" unicode="&#x173;" horiz-adv-x="445" 
d="M158 -8l-2 -10q-20 0 -39 6q-20 6 -34 19q-15 13 -24 36t-9 54v190v54q0 19 -3 30q-3 10 -11 13q-6 2 -21 4v8l129 74v-394q0 -40 13 -54q13 -15 33 -15q17 0 41 15q25 16 66 58l2 2v208v54q0 20 -3 30t-11 13q-6 2 -21 4v8l129 74v-349v-60q0 -22 3 -34t11 -18
q7 -6 21 -9v-7h-117q-14 -13 -26 -36q-12 -24 -12 -58q0 -20 11 -34q10 -13 30 -13q11 0 21 5t17 12l5 -5q-4 -6 -10 -12q-9 -9 -18 -14q-13 -7 -25 -11q-17 -5 -34 -5q-35 0 -56 18t-21 47q0 22 12 40q13 19 30 32q20 15 36 23q22 11 30 14v77l-2 -2q-43 -44 -75 -63
q-31 -19 -66 -19z" />
    <glyph glyph-name="Wcircumflex" unicode="&#x174;" horiz-adv-x="763" 
d="M66 623l-4 -4q-7 21 -15 47q-6 20 -12 33t-14 23q-8 9 -20 17v7h167v-7q-23 -6 -24 -22t12 -58l158 -512l69 227l-75 246q-7 21 -15 47q-6 19 -12 33q-6 13 -14 23q-7 9 -21 15v7h166v-7q-21 -6 -22 -22q-1 -15 11 -60l47 -162l37 125q13 43 15 75t-30 45v7h91v-7
q-12 -5 -18 -10q-8 -7 -14 -18q-8 -15 -14 -33q-7 -21 -18 -57l-42 -141l98 -334l129 474q2 9 10 42q4 19 3 34q-2 16 -10 27q-9 12 -28 19v7h101v-7q-12 -6 -17 -10q-7 -6 -15 -18t-15 -33q-8 -23 -18 -58l-171 -628h-18l-112 365l-112 -365h-18zM404 893l123 -113l-3 -5
l-120 44l-119 -44l-3 5z" />
    <glyph glyph-name="wcircumflex" unicode="&#x175;" horiz-adv-x="565" 
d="M56 355l-3 -2q-3 9 -9 27.5t-8 25.5q-6 20 -12 30t-12 15q-5 4 -13 7v6h152v-6q-10 -1 -16 -6q-6 -4 -6 -15q0 -13 4 -30q5 -19 15 -51l75 -239l60 163l-23 73q-4 13 -10 31.5t-7 22.5q-6 19 -12 30t-12 15q-5 4 -13 7v6h154v-6q-11 -2 -17 -6q-7 -5 -8 -15q-1 -9 2 -30
q3 -17 14 -51l71 -232l65 210q13 39 16 65q3 24 -1 35q-4 12 -13 16q-9 5 -21 9v6h100v-6q-12 -3 -18 -7q-8 -5 -15 -16q-6 -9 -16 -35q-6 -14 -22 -65l-107 -342h-17l-84 271l-99 -271h-17zM284 699l108 -174l-7 -4l-101 82l-101 -82l-7 4z" />
    <glyph glyph-name="Ycircumflex" unicode="&#x176;" horiz-adv-x="507" 
d="M164 7l-3 -2q15 5 24 12q10 8 14 28q4 21 6 59q1 25 1 105v168l-122 248q-16 34 -21 44q-10 20 -18 32q-10 15 -19 24q-10 11 -24 18v6h182v-6q-22 -7 -24 -24q-1 -16 14 -50l130 -270l102 224q25 55 28 83q3 26 -33 36v6h101v-6q-11 -5 -19 -10q-9 -6 -18 -18
q-11 -14 -20 -33q-11 -21 -27 -57l-108 -234v-180q0 -80 1 -105q1 -37 6 -58q4 -20 14 -28q9 -7 24 -12v-7h-191v7zM289 895l123 -113l-3 -5l-120 44l-119 -44l-3 5z" />
    <glyph glyph-name="ycircumflex" unicode="&#x177;" horiz-adv-x="388" 
d="M74 -171l-4 6q-23 0 -33 10q-11 11 -11 25q0 33 34 33q10 0 18 -3q10 -4 14 -6l12 -6q6 -3 14 -3q6 0 12 3q5 3 13 12q5 6 16 26q7 13 19 42l10 29l-132 362q-4 10 -7.5 19.5t-7.5 19t-5 13.5q-6 17 -14 30q-6 11 -12 15q-4 3 -14 7v6h160v-6q-11 -2 -17 -6q-5 -4 -7 -15
q-2 -10 3 -30t15 -51l83 -238l76 214q14 41 18 64q5 25 2 36q-3 13 -12 17t-23 6v6h95v-6q-11 -3 -16 -7q-6 -5 -14 -17q-6 -10 -16 -36q-15 -40 -23 -64l-132 -371q-28 -73 -54 -105q-25 -31 -60 -31zM219 707l108 -174l-7 -4l-101 82l-101 -82l-7 4z" />
    <glyph glyph-name="Ydieresis" unicode="&#x178;" horiz-adv-x="507" 
d="M164 7l-3 -2q15 5 24 12q10 8 14 28q4 21 6 59q1 25 1 105v168l-122 248q-16 34 -21 44q-10 20 -18 32q-10 15 -19 24q-10 11 -24 18v6h182v-6q-22 -7 -24 -24q-1 -16 14 -50l130 -270l102 224q25 55 28 83q3 26 -33 36v6h101v-6q-11 -5 -19 -10q-9 -6 -18 -18
q-11 -14 -20 -33q-11 -21 -27 -57l-108 -234v-180q0 -80 1 -105q1 -37 6 -58q4 -20 14 -28q9 -7 24 -12v-7h-191v7zM373 783q-21 0 -36 15t-15 37q0 21 15 36t36 15t36 -15t15 -36q0 -22 -15 -37t-36 -15zM207 783q-21 0 -36 15t-15 37q0 21 15 36t36 15t36 -15t15 -36
q0 -22 -15 -37t-36 -15z" />
    <glyph glyph-name="Zacute" unicode="&#x179;" horiz-adv-x="495" 
d="M342 742l-110 -2q-45 0 -75 -9q-29 -9 -51 -26q-20 -16 -36 -41q-14 -23 -28 -55h-8l25 139h399l-326 -742h131q55 0 89 9q35 9 57 28t36 50q13 29 27 74h8l-20 -167h-442zM169 784l122 86q11 8 21 12q12 5 22 5q15 0 24 -9t9 -22q0 -16 -10 -27q-11 -12 -36 -18
l-150 -33z" />
    <glyph glyph-name="zacute" unicode="&#x17a;" horiz-adv-x="360" 
d="M331 -10l3 -1q-10 4 -16 5q-9 2 -24 3q-20 2 -37 2h-55h-191l229 458h-70q-38 0 -59 -7q-22 -7 -37 -21t-24 -31q-10 -20 -18 -40h-8l21 117q15 -7 44 -9q19 -1 84 -1h166l-233 -458h86q37 0 63 8q23 7 39 23t26 37q10 23 21 51h8zM140 528l78 128q11 20 21 29t26 9
t25 -9t9 -23q0 -15 -8 -26q-7 -10 -21 -21l-124 -92z" />
    <glyph glyph-name="Zdotaccent" unicode="&#x17b;" horiz-adv-x="495" 
d="M342 742l-110 -2q-45 0 -75 -9q-29 -9 -51 -26q-20 -16 -36 -41q-14 -23 -28 -55h-8l25 139h399l-326 -742h131q55 0 89 9q35 9 57 28t36 50q13 29 27 74h8l-20 -167h-442zM254 783q-23 0 -38 15t-15 38t15 38t38 15t38 -15t15 -38t-15 -38t-38 -15z" />
    <glyph glyph-name="zdotaccent" unicode="&#x17c;" horiz-adv-x="360" 
d="M331 -10l3 -1q-10 4 -16 5q-9 2 -24 3q-20 2 -37 2h-55h-191l229 458h-70q-38 0 -59 -7q-22 -7 -37 -21t-24 -31q-10 -20 -18 -40h-8l21 117q15 -7 44 -9q19 -1 84 -1h166l-233 -458h86q37 0 63 8q23 7 39 23t26 37q10 23 21 51h8zM194 543v-1q-23 0 -38 15t-15 38t15 38
t38 15t38 -15t15 -37q0 -23 -15 -38t-38 -15z" />
    <glyph glyph-name="Zcaron" unicode="&#x17d;" horiz-adv-x="495" 
d="M342 742l-110 -2q-45 0 -75 -9q-29 -9 -51 -26q-20 -16 -36 -41q-14 -23 -28 -55h-8l25 139h399l-326 -742h131q55 0 89 9q35 9 57 28t36 50q13 29 27 74h8l-20 -167h-442zM134 900l119 -45l120 45l3 -6l-123 -112l-122 112z" />
    <glyph glyph-name="zcaron" unicode="&#x17e;" horiz-adv-x="360" 
d="M331 -10l3 -1q-10 4 -16 5q-9 2 -24 3q-20 2 -37 2h-55h-191l229 458h-70q-38 0 -59 -7q-22 -7 -37 -21t-24 -31q-10 -20 -18 -40h-8l21 117q15 -7 44 -9q19 -1 84 -1h166l-233 -458h86q37 0 63 8q23 7 39 23t26 37q10 23 21 51h8zM93 705l101 -83l101 83l7 -5l-108 -174
l-108 174z" />
    <glyph glyph-name="uni0192" unicode="&#x192;" horiz-adv-x="363" 
d="M63 466l64 -6l13 104q8 56 24 93q16 36 38 60q20 22 45 31q24 9 47 9q36 0 64 -14q27 -13 27 -39q0 -12 -9 -22t-25 -10q-19 0 -28 9t-12 26q-5 26 -9 35t-15 9q-9 0 -17 -6q-9 -7 -14 -19q-6 -13 -12 -38q-5 -21 -10 -61l-20 -163h83v-10h-84l-39 -317q-9 -76 -27 -125
q-18 -48 -41 -78t-49 -41q-27 -12 -52 -12q-34 0 -64 14q-28 13 -28 42q0 10 8 21t26 11q19 0 27 -9q7 -9 12 -26q5 -26 9 -35q5 -9 18 -9q14 0 23 9q10 10 17 36q7 27 15 78q7 48 18 134l38 309h-61v10z" />
    <glyph glyph-name="Aringacute" unicode="&#x1fa;" horiz-adv-x="542" 
d="M4 6q10 4 18 12t15 21t15 36q6 19 18 59l146 527l-6 21q-6 18 -12 31q-5 11 -12 19q-5 7 -12 10q-8 4 -13 5v6h123q8 0 11 -3t6 -12l178 -609q2 -8 4.5 -17t5.5 -18.5t4 -13.5q6 -21 12 -36q6 -14 14 -24q7 -8 20 -13v-7h-165v7q20 5 23 21q3 15 -8 55l-43 144h-238
l-26 -95q-8 -31 -12 -49q-4 -21 -3 -36q1 -14 11 -25q8 -10 27 -16v-6h-101v6zM342 235l-121 405l-112 -405h233zM161 851l-3 -1q0 32 23 53t57 21t58 -21t24 -52q0 -33 -23 -54t-57 -21t-57 21q-22 21 -22 54zM198 850q0 -32 10 -48q11 -17 30 -17t30 17t11 48q0 28 -11 47
q-10 18 -30 18t-30 -18q-10 -17 -10 -47zM152 935l122 86q10 7 21 12q12 5 22 5q15 0 24 -9t9 -22q0 -16 -10 -27q-10 -12 -36 -18l-150 -33z" />
    <glyph glyph-name="aringacute" unicode="&#x1fb;" horiz-adv-x="393" 
d="M126 -7l-1 3q-44 0 -75 26q-30 26 -30 75q0 33 14 53t36 33t50 24q27 11 54 24l15 6q29 15 42 31q14 17 14 48v73q0 22 -5 39q-5 15 -14 23q-10 8 -21 11q-12 3 -25 3q-24 0 -37 -11q-11 -10 -22 -36q-7 -16 -17 -29q-9 -12 -29 -12q-17 0 -26 9t-9 23q0 25 39 45
q38 19 101 19q27 0 59 -5q29 -4 51 -18t36 -36q14 -23 14 -59v-222q0 -33 2 -65q1 -20 5 -37q3 -13 9 -18q5 -4 15 -4q17 0 27 9l2 -6q-6 -4 -21 -12q-14 -7 -46 -7q-41 0 -61 18q-19 17 -22 47l-3 -3q-13 -15 -27 -27q-12 -11 -27 -19q-13 -7 -30 -12q-15 -4 -37 -4z
M116 115l-1 -2q0 -97 52 -97q17 0 33 12q18 13 45 40l1 1v210q-6 -15 -19 -25t-36 -21l-15 -7q-36 -20 -48 -45t-12 -66zM108 603l-1 -1q0 32 24 53t57 21q34 0 57 -21t23 -53t-23 -53t-57 -21t-57 21t-23 54zM147 602l-1 -1q0 -31 11 -48t30 -17t30 18q11 19 11 48
q0 28 -11 47q-11 18 -30 18t-29 -18q-11 -19 -11 -47zM102 700l122 86q10 8 21 12q12 5 22 5q15 0 24 -9t9 -22q0 -16 -10 -27q-10 -12 -36 -18l-150 -33z" />
    <glyph glyph-name="AEacute" unicode="&#x1fc;" horiz-adv-x="748" 
d="M577 331l-5 -3q-6 20 -9 29q-5 16 -13 26q-9 12 -27 18t-51 6h-29v-401h98q44 0 71 4q29 4 51 17q22 12 35 36q14 24 24 63h9l-12 -111q-1 -13 -6 -15q-6 -2 -12 -2h-405v7q15 5 24 12q10 8 14 28q4 21 6 59q1 25 1 105v22h-210l-46 -107q-23 -56 -24 -82q-1 -27 27 -37
v-6h-94v6q10 5 17 12q8 8 17 20q10 14 20 33q16 32 26 54l239 555q14 35 8 46q-6 13 -36 17v7h390q7 0 12 -3t6 -18l17 -96h-9q-11 33 -24 54t-33 33q-21 13 -48 17q-32 5 -66 5h-83v-322h29q33 0 51 6t27 18q10 13 14 26q3 9 9 29h7v-167h-7zM338 237v480l-207 -480h207z
M411 783l122 86q11 7 21 12q12 5 22 5q15 0 24 -9t9 -22q0 -16 -10 -27q-11 -12 -36 -18l-150 -33z" />
    <glyph glyph-name="aeacute" unicode="&#x1fd;" 
d="M128 -7l-1 5q-45 0 -76 26q-30 26 -30 75q0 33 14 53q13 20 36 33q22 13 50 24q27 11 54 24l15 6q29 15 42 31q14 17 14 48v73q0 22 -5 39q-5 15 -14 23q-10 8 -21 11q-12 3 -25 3q-24 0 -37 -11q-11 -10 -22 -36q-7 -16 -17 -29q-9 -12 -29 -12q-17 0 -26 9t-9 23
q0 25 39 45q38 19 101 19q45 0 81 -10q39 -11 59 -40q28 26 57 38q30 12 56 12q70 0 109 -43q40 -44 47 -111h-244q-2 -22 -3 -34t-1 -38q0 -119 34 -180t97 -61q36 0 60 12q25 13 44 27l5 -7q-21 -18 -48 -32q-28 -15 -76 -15q-52 0 -100 23q-46 22 -75 71l-29 -29
q-21 -21 -30 -29q-15 -13 -27 -20q-13 -7 -30 -12q-15 -4 -39 -4zM435 471l1 -1q-14 0 -27 -6t-25 -21t-21 -42q-10 -29 -14 -66h158q-4 136 -72 136zM117 116v1q0 -97 52 -97q17 0 36 11t47 39l28 28q-15 27 -24 62q-9 34 -9 78v42q-6 -15 -19 -25q-14 -11 -36 -21l-15 -7
q-36 -19 -48 -45t-12 -66zM269 534l78 128q11 20 21 29t26 9t25 -9t9 -23q0 -15 -8 -26q-8 -10 -21 -21l-124 -92z" />
    <glyph glyph-name="Oslashacute" unicode="&#x1fe;" 
d="M307 -10v-1q-71 0 -134 48l-32 -78l-9 4l32 81q-58 49 -95 132q-38 85 -38 199q0 91 24 162t63 120t89 75t102 26q69 0 129 -42l27 68l10 -4l-29 -71q60 -45 99 -129t39 -204q0 -90 -24 -162q-24 -71 -63 -121q-39 -49 -88 -76t-102 -27zM144 375l1 -1q0 -88 11 -160
q10 -69 30 -117l231 572q-43 79 -111 79q-35 0 -64 -22t-52 -69q-22 -45 -34 -117q-12 -70 -12 -165zM308 -3l-1 -1q73 0 118 93q44 92 46 284q0 96 -12 166q-12 69 -35 117l-231 -571q43 -88 115 -88zM222 783l122 86q10 7 21 12q12 5 22 5q15 0 24 -9t9 -22q0 -16 -10 -27
q-10 -12 -36 -18l-150 -33z" />
    <glyph glyph-name="oslashacute" unicode="&#x1ff;" horiz-adv-x="447" 
d="M223 1l-3 -2q20 0 40 12t33 39t21 71q8 46 8 108q0 59 -6 99q-6 38 -17 69l19 43l-7 5l22 50l8 -4l-23 -51q21 -14 39 -33q19 -21 32 -45q13 -25 21 -59q8 -35 8 -73q0 -63 -19 -107q-20 -47 -49 -74q-30 -28 -65 -42q-36 -14 -66 -14q-21 0 -45 6q-22 5 -46 20l17 38
q-5 7 -6 12l153 343q-13 28 -32 42q-17 13 -41 13q-21 0 -39 -12q-19 -13 -32 -39q-14 -27 -21 -72q-8 -48 -8 -112q0 -56 6 -96q6 -38 17 -67l-20 -45l8 -5l-26 -57l-8 4l26 58q-40 26 -70 78q-30 51 -30 128q0 61 20 109q19 45 50 76q30 30 65 45q34 15 65 15q44 0 90 -27
l-17 -36q5 -8 6 -12l-153 -343q13 -29 33 -43q19 -13 42 -13zM167 527l78 128q11 20 21 29t26 9t25 -9t9 -23q0 -15 -8 -26t-21 -21l-124 -92z" />
    <glyph glyph-name="uni0218" unicode="&#x218;" horiz-adv-x="453" 
d="M215 -8h-9q-36 0 -63 8q-22 6 -43 17q-14 7 -32 17q-14 8 -27 8t-18 -21h-8v184h8q13 -101 60 -153q46 -52 126 -52q70 0 102 35t32 98q0 38 -10 65q-11 28 -30 54q-19 24 -50 51t-71 56q-34 27 -63 51t-48 51t-30 57q-10 29 -10 69q0 36 14 69q13 31 38 54q23 21 59 34
q34 12 75 12q29 0 52 -5q16 -4 37 -11q6 -2 15.5 -6t12.5 -5q13 -5 23 -5q17 0 21 24h8v-143h-8q-17 77 -57 110q-41 33 -102 33q-57 0 -85 -27t-28 -74q0 -55 36 -99q37 -44 103 -93q22 -16 73 -56q36 -28 59 -57q24 -31 39 -64q15 -34 15 -78q0 -50 -18 -89t-48 -66
q-29 -26 -69 -40q-38 -13 -81 -13zM231 -117h-3q-2 -4 -12 -10q-9 -6 -24 -6q-18 0 -31 12t-13 33q0 23 15 35t35 12q22 0 40 -15t18 -48q0 -40 -23 -61q-23 -22 -57 -26l-4 8q31 4 48 20q16 15 16 33q0 10 -5 13z" />
    <glyph glyph-name="uni0219" unicode="&#x219;" horiz-adv-x="329" 
d="M169 3l3 -5q44 0 62 23t18 54q0 36 -24 63q-25 28 -79 60q-23 14 -52 35q-20 15 -37 35q-15 18 -21 39t-6 47q0 52 36 84q37 32 88 32q19 0 33 -3q18 -4 26 -7q4 -1 7.5 -2.5t7.5 -2.5t6 -2q9 -3 21 -3q14 0 18 16h8v-114l-8 1q-20 61 -51 86q-32 26 -69 26
q-35 0 -54 -16t-19 -48q0 -17 6 -30t18 -25q12 -11 31 -25q20 -13 45 -30q30 -17 58 -38q23 -17 39 -38t23 -42t7 -51t-12 -54q-13 -26 -31 -41q-21 -17 -45 -26q-26 -9 -52 -9t-44 6q-22 7 -32 13q-4 2 -12 6.5t-12 6.5q-10 6 -21 6q-14 0 -17 -17h-9v139h9
q36 -149 137 -149zM190 -122h-3q-2 -4 -12 -10q-9 -6 -24 -6q-17 0 -31 12q-13 12 -13 33q0 23 15 35t35 12q22 0 40 -15t18 -48q0 -40 -23 -61q-23 -22 -57 -26l-4 8q31 4 48 20q16 15 16 33q0 10 -5 13z" />
    <glyph glyph-name="uni021A" unicode="&#x21a;" horiz-adv-x="527" 
d="M167 7l-2 -1q15 4 24 12q10 8 14 28q4 21 6 59q1 25 1 105v531h-33q-39 0 -65 -6t-44 -21t-30 -40q-11 -23 -22 -66h-9l12 121q1 15 5 19q3 3 11 3h453q8 0 11 -3q4 -4 5 -19l13 -121h-9q-11 43 -22 65q-12 26 -30 41t-44 21q-25 6 -65 6h-33v-531q0 -80 1 -105
q1 -37 6 -58q4 -20 14 -28q9 -7 24 -12v-7h-192v7zM287 -118h-3q-2 -4 -12 -10q-9 -6 -24 -6q-18 0 -31 12t-13 33q0 23 15 35t35 12q22 0 40 -15t18 -48q0 -40 -23 -61q-23 -22 -57 -26l-4 8q31 4 48 20q16 15 16 33q0 10 -5 13z" />
    <glyph glyph-name="uni021B" unicode="&#x21b;" horiz-adv-x="250" 
d="M159 -7l2 -3q-47 0 -76 27q-28 27 -28 77v360h-41v9q21 3 39 13q19 10 36 29q16 17 30 47q13 27 19 66h9v-153h89v-10h-89v-342q0 -54 8 -81q7 -25 36 -25q17 0 27 6q9 5 18 14l5 -5q-6 -7 -26 -19q-17 -10 -58 -10zM169 -120h-3q-2 -4 -12 -10q-9 -6 -24 -6
q-18 0 -31 12t-13 33q0 23 15 35t35 12q22 0 40 -15t18 -48q0 -40 -23 -61q-23 -22 -57 -26l-4 8q31 4 48 20q16 15 16 33q0 10 -5 13z" />
    <glyph glyph-name="uni0237" unicode="&#x237;" horiz-adv-x="201" 
d="M-26 -139l-3 -4q-17 0 -30 9t-13 27q0 16 10 25t24 9q13 0 22 -6q6 -4 16 -14l14 -14q6 -6 14 -6q7 0 11 4q3 3 6 9q2 5 4 18q2 16 2 32v51v289v56q0 20 -3 30t-11 13q-9 4 -21 5v8l129 74v-411q0 -64 -22 -102t-66 -70q-30 -21 -46 -26q-18 -6 -37 -6z" />
    <glyph glyph-name="circumflex" unicode="&#x2c6;" horiz-adv-x="446" 
d="M228 701l108 -174l-7 -4l-101 82l-101 -82l-7 4z" />
    <glyph glyph-name="caron" unicode="&#x2c7;" horiz-adv-x="446" 
d="M127 706l101 -83l101 83l7 -5l-108 -174l-108 174z" />
    <glyph glyph-name="breve" unicode="&#x2d8;" horiz-adv-x="446" 
d="M223 591l-1 -1q34 0 53 17t26 39h9q0 -21 -6 -42q-6 -22 -16 -36q-10 -15 -27 -24t-39 -9t-39 9t-27 24q-10 14 -16 36q-6 21 -6 43h9q6 -23 25 -39q20 -17 55 -17z" />
    <glyph glyph-name="dotaccent" unicode="&#x2d9;" horiz-adv-x="446" 
d="M222 544v-1q-23 0 -38 15t-15 38t15 38t38 15t38 -15t15 -37q0 -23 -15 -38t-38 -15z" />
    <glyph glyph-name="ring" unicode="&#x2da;" horiz-adv-x="446" 
d="M151 602l-1 -1q0 32 24 53t57 21q35 0 57 -21q23 -21 23 -53t-23 -53q-22 -21 -57 -21t-57 21q-23 21 -23 54zM190 601l-1 -1q0 -31 11 -48t30 -17q20 0 30 18q11 19 11 48q0 28 -11 47q-10 18 -30 18q-18 0 -29 -18q-11 -19 -11 -47z" />
    <glyph glyph-name="ogonek" unicode="&#x2db;" horiz-adv-x="446" 
d="M229 -173l-1 -3q-35 0 -56 18t-21 47q0 23 13 40q15 20 31 32q19 14 38 23q22 10 35 14h12q-18 -12 -33 -36t-15 -58q0 -20 11 -34q10 -13 30 -13q11 0 21 5t17 12l5 -5q-4 -6 -10 -12q-9 -9 -18 -14q-13 -7 -25 -11q-17 -5 -34 -5z" />
    <glyph glyph-name="tilde" unicode="&#x2dc;" horiz-adv-x="446" 
d="M181 633l-3 1q19 0 49 -5t45 -5q10 0 21 9q10 8 27 32l6 -3q-10 -46 -27 -70t-36 -24q-20 0 -48 5t-45 5q-10 0 -21 -9q-10 -9 -28 -34l-6 3q14 47 30 71q17 24 36 24z" />
    <glyph glyph-name="hungarumlaut" unicode="&#x2dd;" horiz-adv-x="446" 
d="M241 533l35 130q4 20 14 33q9 12 26 12q14 0 21 -9q8 -10 8 -23q0 -9 -4 -18q-5 -12 -10 -18l-84 -109zM125 533l34 130q4 20 14 33q9 12 26 12q15 0 23 -9q8 -10 8 -23q0 -18 -15 -36l-84 -109z" />
    <glyph glyph-name="Wgrave" unicode="&#x1e80;" horiz-adv-x="763" 
d="M66 623l-4 -4q-7 21 -15 47q-6 20 -12 33t-14 23q-8 9 -20 17v7h167v-7q-23 -6 -24 -22t12 -58l158 -512l69 227l-75 246q-7 21 -15 47q-6 19 -12 33q-6 13 -14 23q-7 9 -21 15v7h166v-7q-21 -6 -22 -22q-1 -15 11 -60l47 -162l37 125q13 43 15 75t-30 45v7h91v-7
q-12 -5 -18 -10q-8 -7 -14 -18q-8 -15 -14 -33q-7 -21 -18 -57l-42 -141l98 -334l129 474q2 9 10 42q4 19 3 34q-2 16 -10 27q-9 12 -28 19v7h101v-7q-12 -6 -17 -10q-7 -6 -15 -18t-15 -33q-8 -23 -18 -58l-171 -628h-18l-112 365l-112 -365h-18zM342 809l-2 -2
q-26 6 -36 18q-10 11 -10 27q0 14 9 23t24 9q13 0 22 -4q11 -4 21 -12l124 -86l-3 -6z" />
    <glyph glyph-name="wgrave" unicode="&#x1e81;" horiz-adv-x="565" 
d="M56 355l-3 -2q-3 9 -9 27.5t-8 25.5q-6 20 -12 30t-12 15q-5 4 -13 7v6h152v-6q-10 -1 -16 -6q-6 -4 -6 -15q0 -13 4 -30q5 -19 15 -51l75 -239l60 163l-23 73q-4 13 -10 31.5t-7 22.5q-6 19 -12 30t-12 15q-5 4 -13 7v6h154v-6q-11 -2 -17 -6q-7 -5 -8 -15q-1 -9 2 -30
q3 -17 14 -51l71 -232l65 210q13 39 16 65q3 24 -1 35q-4 12 -13 16q-9 5 -21 9v6h100v-6q-12 -3 -18 -7q-8 -5 -15 -16q-6 -9 -16 -35q-6 -14 -22 -65l-107 -342h-17l-84 271l-99 -271h-17zM215 614l-1 1q-14 11 -21 21q-8 11 -8 26q0 14 9 23t25 9q15 0 26 -9
q10 -9 21 -29l79 -129l-6 -5z" />
    <glyph glyph-name="Wacute" unicode="&#x1e82;" horiz-adv-x="763" 
d="M66 623l-4 -4q-7 21 -15 47q-6 20 -12 33t-14 23q-8 9 -20 17v7h167v-7q-23 -6 -24 -22t12 -58l158 -512l69 227l-75 246q-7 21 -15 47q-6 19 -12 33q-6 13 -14 23q-7 9 -21 15v7h166v-7q-21 -6 -22 -22q-1 -15 11 -60l47 -162l37 125q13 43 15 75t-30 45v7h91v-7
q-12 -5 -18 -10q-8 -7 -14 -18q-8 -15 -14 -33q-7 -21 -18 -57l-42 -141l98 -334l129 474q2 9 10 42q4 19 3 34q-2 16 -10 27q-9 12 -28 19v7h101v-7q-12 -6 -17 -10q-7 -6 -15 -18t-15 -33q-8 -23 -18 -58l-171 -628h-18l-112 365l-112 -365h-18zM320 782l122 86
q10 8 21 12q12 5 22 5q15 0 24 -9t9 -22q0 -16 -10 -27q-10 -12 -36 -18l-150 -33z" />
    <glyph glyph-name="wacute" unicode="&#x1e83;" horiz-adv-x="565" 
d="M56 355l-3 -2q-3 9 -9 27.5t-8 25.5q-6 20 -12 30t-12 15q-5 4 -13 7v6h152v-6q-10 -1 -16 -6q-6 -4 -6 -15q0 -13 4 -30q5 -19 15 -51l75 -239l60 163l-23 73q-4 13 -10 31.5t-7 22.5q-6 19 -12 30t-12 15q-5 4 -13 7v6h154v-6q-11 -2 -17 -6q-7 -5 -8 -15q-1 -9 2 -30
q3 -17 14 -51l71 -232l65 210q13 39 16 65q3 24 -1 35q-4 12 -13 16q-9 5 -21 9v6h100v-6q-12 -3 -18 -7q-8 -5 -15 -16q-6 -9 -16 -35q-6 -14 -22 -65l-107 -342h-17l-84 271l-99 -271h-17zM231 527l78 128q11 20 21 29t26 9t25 -9t9 -23q0 -15 -8 -26t-21 -21l-124 -92z
" />
    <glyph glyph-name="Wdieresis" unicode="&#x1e84;" horiz-adv-x="763" 
d="M66 623l-4 -4q-7 21 -15 47q-6 20 -12 33t-14 23q-8 9 -20 17v7h167v-7q-23 -6 -24 -22t12 -58l158 -512l69 227l-75 246q-7 21 -15 47q-6 19 -12 33q-6 13 -14 23q-7 9 -21 15v7h166v-7q-21 -6 -22 -22q-1 -15 11 -60l47 -162l37 125q13 43 15 75t-30 45v7h91v-7
q-12 -5 -18 -10q-8 -7 -14 -18q-8 -15 -14 -33q-7 -21 -18 -57l-42 -141l98 -334l129 474q2 9 10 42q4 19 3 34q-2 16 -10 27q-9 12 -28 19v7h101v-7q-12 -6 -17 -10q-7 -6 -15 -18t-15 -33q-8 -23 -18 -58l-171 -628h-18l-112 365l-112 -365h-18zM488 781q-21 0 -36 15
t-15 37q0 21 15 36t36 15t36 -15t15 -36q0 -22 -15 -37t-36 -15zM322 781q-21 0 -36 15t-15 37q0 21 15 36t36 15t36 -15t15 -36q0 -22 -15 -37t-36 -15z" />
    <glyph glyph-name="wdieresis" unicode="&#x1e85;" horiz-adv-x="565" 
d="M56 355l-3 -2q-3 9 -9 27.5t-8 25.5q-6 20 -12 30t-12 15q-5 4 -13 7v6h152v-6q-10 -1 -16 -6q-6 -4 -6 -15q0 -13 4 -30q5 -19 15 -51l75 -239l60 163l-23 73q-4 13 -10 31.5t-7 22.5q-6 19 -12 30t-12 15q-5 4 -13 7v6h154v-6q-11 -2 -17 -6q-7 -5 -8 -15q-1 -9 2 -30
q3 -17 14 -51l71 -232l65 210q13 39 16 65q3 24 -1 35q-4 12 -13 16q-9 5 -21 9v6h100v-6q-12 -3 -18 -7q-8 -5 -15 -16q-6 -9 -16 -35q-6 -14 -22 -65l-107 -342h-17l-84 271l-99 -271h-17zM361 542v-2q-23 0 -36 15q-14 16 -14 38q0 19 14 35q13 15 36 15q21 0 35 -15
q14 -16 14 -34q0 -21 -14 -37q-14 -15 -35 -15zM207 540v-2q-21 0 -35 15q-14 16 -14 38q0 19 14 35q13 15 35 15q23 0 36 -15q14 -16 14 -34q0 -21 -14 -37q-13 -15 -36 -15z" />
    <glyph glyph-name="Ygrave" unicode="&#x1ef2;" horiz-adv-x="507" 
d="M164 7l-3 -2q15 5 24 12q10 8 14 28q4 21 6 59q1 25 1 105v168l-122 248q-16 34 -21 44q-10 20 -18 32q-10 15 -19 24q-10 11 -24 18v6h182v-6q-22 -7 -24 -24q-1 -16 14 -50l130 -270l102 224q25 55 28 83q3 26 -33 36v6h101v-6q-11 -5 -19 -10q-9 -6 -18 -18
q-11 -14 -20 -33q-11 -21 -27 -57l-108 -234v-180q0 -80 1 -105q1 -37 6 -58q4 -20 14 -28q9 -7 24 -12v-7h-191v7zM227 811l-2 -2q-25 6 -36 18q-10 11 -10 27q0 14 9 23t24 9q13 0 22 -4q10 -4 21 -12l124 -86l-3 -6z" />
    <glyph glyph-name="ygrave" unicode="&#x1ef3;" horiz-adv-x="388" 
d="M74 -171l-4 6q-23 0 -33 10q-11 11 -11 25q0 33 34 33q10 0 18 -3q10 -4 14 -6l12 -6q6 -3 14 -3q6 0 12 3q5 3 13 12q5 6 16 26q7 13 19 42l10 29l-132 362q-4 10 -7.5 19.5t-7.5 19t-5 13.5q-6 17 -14 30q-6 11 -12 15q-4 3 -14 7v6h160v-6q-11 -2 -17 -6q-5 -4 -7 -15
q-2 -10 3 -30t15 -51l83 -238l76 214q14 41 18 64q5 25 2 36q-3 13 -12 17t-23 6v6h95v-6q-11 -3 -16 -7q-6 -5 -14 -17q-6 -10 -16 -36q-15 -40 -23 -64l-132 -371q-28 -73 -54 -105q-25 -31 -60 -31zM154 622l-1 1q-13 11 -21 21q-8 11 -8 26q0 14 9 23t25 9t26 -9t21 -29
l79 -129l-6 -5z" />
    <glyph glyph-name="uni2009" unicode="&#x2009;" horiz-adv-x="64" 
 />
    <glyph glyph-name="endash" unicode="&#x2013;" horiz-adv-x="459" 
d="M41 287h378v-12h-378v12z" />
    <glyph glyph-name="emdash" unicode="&#x2014;" horiz-adv-x="827" 
d="M41 287h746v-12h-746v12z" />
    <glyph glyph-name="quoteleft" unicode="&#x2018;" horiz-adv-x="181" 
d="M65 659l-3 -2q4 7 14 12t24 5q20 0 33 -13q14 -14 14 -36q0 -25 -15 -38q-16 -14 -36 -14q-22 0 -42 18q-19 18 -19 57q0 47 24 80t62 53l5 -7q-32 -19 -51 -44q-18 -24 -18 -48q0 -15 8 -23z" />
    <glyph glyph-name="quoteright" unicode="&#x2019;" horiz-adv-x="181" 
d="M116 679h-2q-5 -7 -13 -11q-10 -5 -24 -5q-19 0 -33 14t-14 35q0 26 16 39q17 14 37 14q23 0 42 -18q20 -18 20 -57q0 -48 -24 -80q-24 -31 -62 -51l-4 6q32 19 51 44q18 24 18 48q0 16 -8 22z" />
    <glyph glyph-name="quotesinglbase" unicode="&#x201a;" horiz-adv-x="179" 
d="M114 19h-2q-5 -7 -13 -11q-10 -5 -24 -5q-19 0 -33 14t-14 35q0 26 16 39q17 14 37 14q23 0 42 -18q20 -18 20 -57q0 -48 -24 -80q-24 -31 -62 -51l-4 6q32 19 51 44q18 24 18 48q0 16 -8 22z" />
    <glyph glyph-name="quotedblleft" unicode="&#x201c;" horiz-adv-x="319" 
d="M65 659l-3 -2q4 7 14 12t24 5q20 0 33 -13q14 -14 14 -36q0 -25 -15 -38q-16 -14 -36 -14q-22 0 -42 18q-19 18 -19 57q0 47 24 80t62 53l5 -7q-32 -19 -51 -44q-18 -24 -18 -48q0 -15 8 -23zM200 657v-2q4 7 14 12t24 5q20 0 33 -13q14 -14 14 -36q0 -25 -16 -38
q-17 -14 -37 -14q-22 0 -42 18q-19 18 -19 57q0 47 24 80t62 53l4 -7q-32 -19 -51 -44q-18 -24 -18 -48q0 -15 8 -23z" />
    <glyph glyph-name="quotedblright" unicode="&#x201d;" horiz-adv-x="319" 
d="M254 679h-1q-5 -7 -13 -11q-10 -5 -24 -5q-18 0 -32 14t-14 35q0 26 15 39q16 14 36 14q23 0 42 -18q20 -18 20 -57q0 -48 -24 -80t-61 -51l-5 6q32 19 51 44q18 24 18 48q0 16 -8 22zM115 679h-2q-5 -7 -13 -11q-10 -5 -24 -5q-19 0 -33 14t-14 35q0 26 16 39
q17 14 37 14q22 0 42 -18t20 -57q0 -48 -24 -80q-24 -31 -62 -51l-4 6q32 19 51 44q18 24 18 48q0 16 -8 22z" />
    <glyph glyph-name="quotedblbase" unicode="&#x201e;" horiz-adv-x="318" 
d="M253 19h-1q-5 -7 -13 -11q-10 -5 -24 -5q-18 0 -32 14t-14 35q0 26 15 39q16 14 36 14q22 0 42 -18t20 -57q0 -48 -24 -80t-61 -51l-5 6q32 19 51 44q18 24 18 48q0 16 -8 22zM114 19h-2q-5 -7 -13 -11q-10 -5 -24 -5q-19 0 -33 14t-14 35q0 26 16 39q17 14 37 14
q23 0 42 -18q20 -18 20 -57q0 -48 -24 -80q-24 -31 -62 -51l-4 6q32 19 51 44q18 24 18 48q0 16 -8 22z" />
    <glyph glyph-name="dagger" unicode="&#x2020;" horiz-adv-x="338" 
d="M166 -2v-2q-2 58 -4 84q-4 65 -7 96q-3 33 -9 97q-4 48 -9 87q-2 15 -4 37.5t-3 28.5q-4 34 -4 35q15 23 26 51q12 30 12 62q-14 0 -26 -6l-24 -12q-16 -8 -25 -12q-14 -6 -28 -6q-23 0 -35 12t-12 29t12 29t35 12q14 0 28 -6q18 -8 26 -13t24 -13q12 -6 26 -6
q0 14 -6 29t-15 30t-15 30t-6 30q0 22 13 36q14 15 36 15q20 0 33 -15q14 -16 14 -36q0 -15 -6 -30t-15 -30t-15 -30t-6 -28q14 0 26 6q16 8 24 13q10 7 25 13q14 6 28 6q23 0 35 -12t12 -29t-12 -29t-35 -12q-14 0 -28 6q-9 4 -25 12l-24 12q-12 6 -26 6q0 -32 12 -62
q11 -28 26 -51q-1 -2 -4 -34q-1 -6 -3 -28.5t-4 -37.5q-4 -39 -9 -87q-6 -64 -9 -97q-3 -31 -7 -96q-2 -26 -4 -84h-9z" />
    <glyph glyph-name="daggerdbl" unicode="&#x2021;" horiz-adv-x="350" 
d="M175 -8l-3 -3q-20 0 -34 15q-13 14 -13 36q0 15 6 30q4 10 14 30t14 30q6 15 6 29q-14 0 -26 -6q-16 -8 -24 -13q-10 -7 -25 -13q-14 -6 -28 -6q-24 0 -36 12t-12 29t12 29t36 12q14 0 28 -6q9 -4 25 -12l24 -12q12 -6 26 -6q0 76 -13 122q-14 48 -30 81q16 33 30 81
q14 50 14 122q-14 0 -26 -6l-24 -12q-16 -8 -25 -12q-13 -6 -28 -6q-24 0 -36 12t-12 29t12 29t36 12q15 0 28 -6q15 -6 25 -13q8 -5 24 -13q12 -6 26 -6q0 14 -6 29q-4 10 -14 30t-14 30q-6 15 -6 30q0 22 13 36q13 15 34 15t35 -15q14 -16 14 -36q0 -15 -6 -30t-15 -30
t-15 -30t-6 -28q14 0 26 6q16 8 24 13q10 7 25 13q13 6 30 6q23 0 35 -12t12 -29t-12 -29t-35 -12q-17 0 -30 6q-9 4 -25 12l-24 12q-12 6 -26 6q0 -75 13 -121q13 -48 30 -81q-17 -33 -30 -81q-13 -46 -13 -121q14 0 26 6l24 12q16 8 25 12q13 6 30 6q23 0 35 -12t12 -29
t-12 -29t-35 -12q-17 0 -30 6q-15 6 -25 13q-8 5 -24 13q-12 6 -26 6q0 -14 6 -29t15 -30t15 -30t6 -30q0 -22 -13 -36q-13 -15 -34 -15z" />
    <glyph glyph-name="bullet" unicode="&#x2022;" horiz-adv-x="327" 
d="M164 407l-1 -2q25 0 48 -9t39 -25t25 -39q9 -22 9 -48t-9 -47q-10 -23 -25 -38q-16 -16 -39 -25t-48 -9q-26 0 -47 9t-38 26q-15 15 -25 38q-9 21 -9 47q0 25 9 48q9 22 26 39t38 26t47 9z" />
    <glyph glyph-name="ellipsis" unicode="&#x2026;" horiz-adv-x="578" 
d="M480 -12h-1q-25 0 -41 16q-17 17 -17 42t17 42q16 16 41 16q26 0 42 -16q17 -17 17 -42q0 -26 -16 -42t-42 -16zM289 -12h-1q-25 0 -41 16q-17 17 -17 42t17 42q16 16 41 16q26 0 42 -16q17 -17 17 -42q0 -26 -16 -42t-42 -16zM98 -12h-1q-25 0 -41 16q-17 17 -17 42
t17 42q16 16 41 16q26 0 42 -16q17 -17 17 -42q0 -26 -16 -42t-42 -16z" />
    <glyph glyph-name="perthousand" unicode="&#x2030;" horiz-adv-x="972" 
d="M167 379v-2q-27 0 -53 14t-47 38t-33 59q-12 34 -12 77t12 77t33 60q21 25 47 39t53 14q28 0 53 -13q26 -14 47 -39t33 -60q12 -34 12 -76q0 -43 -12 -77q-12 -35 -33 -59t-47 -38t-53 -14zM107 1l411 752l12 -7l-411 -752zM167 386h-2q27 0 50 42q23 43 23 137
q0 47 -6 82q-6 37 -16 56q-11 22 -24 32t-27 10q-27 0 -49 -42q-22 -41 -22 -138q0 -94 23 -137q22 -42 50 -42zM469 -8v-2q-27 0 -53 14t-47 38t-33 59q-12 34 -12 77t12 77q12 35 33 60t47 39t53 14q28 0 53 -13q26 -14 47 -39q21 -26 33 -60q12 -35 12 -76q0 -42 -12 -77
t-33 -59t-47 -38t-53 -14zM802 -10l-1 -2q-27 0 -53 14q-24 13 -46 38q-21 24 -33 59q-12 34 -12 77q0 42 12 77t33 60t47 39t53 14q28 0 54 -13q27 -13 48 -39q20 -24 34 -60q13 -33 13 -76q0 -44 -13 -77q-14 -36 -34 -59q-22 -25 -48 -38q-28 -14 -54 -14zM468 -3l-1 -2
q27 0 50 42q23 43 23 137q0 48 -6 82q-6 37 -16 56q-11 22 -24 32t-27 10t-27 -10q-14 -11 -24 -31t-16 -55q-6 -34 -6 -82t6 -82q6 -32 17 -55q11 -22 24 -32t27 -10zM800 -5l-1 -2q29 0 51 42q23 43 23 137q0 97 -22 138q-23 42 -51 42q-14 0 -27 -10q-14 -11 -24 -31
t-16 -55t-6 -82q0 -48 6 -82q6 -35 16 -55q11 -22 24 -32t27 -10z" />
    <glyph glyph-name="uni2032" unicode="&#x2032;" horiz-adv-x="143" 
d="M31 564v-2q5 38 5 65v62q0 68 45 68q19 0 30 -12q11 -13 11 -29t-9 -33t-24 -36q-9 -13 -27 -41q-13 -20 -24 -44z" />
    <glyph glyph-name="uni2033" unicode="&#x2033;" horiz-adv-x="255" 
d="M94 564v-2q5 38 5 65v62q0 68 45 68q20 0 30 -12q11 -13 11 -29t-9 -33t-24 -36q-9 -13 -27 -41q-13 -20 -24 -44zM80 562v-2q5 38 5 65v62q0 68 45 68q20 0 30 -12q11 -13 11 -29t-9 -33t-24 -36q-9 -13 -27 -41q-13 -20 -24 -44z" />
    <glyph glyph-name="guilsinglleft" unicode="&#x2039;" horiz-adv-x="201" 
d="M29 226v8l138 161l7 -4l-67 -161l68 -161l-7 -4z" />
    <glyph glyph-name="guilsinglright" unicode="&#x203a;" horiz-adv-x="201" 
d="M28 69l68 161l-67 161l7 4l138 -161v-8l-139 -161z" />
    <glyph glyph-name="fraction" unicode="&#x2044;" horiz-adv-x="452" 
d="M55 379h343v-8h-343v8z" />
    <glyph glyph-name="Euro" unicode="&#x20ac;" horiz-adv-x="507" 
d="M8 348l58 -4v28v22q0 14 1 21h-59v10h60q6 83 30 144t60 102q37 41 78 62q42 21 84 21q35 0 65 -9t51 -24t33 -33t12 -38q0 -17 -10 -30t-30 -13q-41 0 -48 46q-2 12 -4 36q-1 15 -8 30q-6 13 -20 21t-39 8q-64 0 -102 -78t-42 -243h185v-10h-185v-27v-21q0 -14 1 -21
h184v-10h-184q3 -92 17 -158q13 -62 35 -101q21 -38 48 -53t57 -15q27 0 48 6q20 6 38 17q16 10 30 24t24 27l6 -6q-6 -9 -23 -28q-12 -14 -33 -28q-18 -12 -45 -22q-25 -9 -60 -9q-53 0 -97 22q-45 22 -78 66t-54 108q-20 63 -25 150h-59v10z" />
    <glyph glyph-name="trademark" unicode="&#x2122;" horiz-adv-x="590" 
d="M95 463l-3 -3q8 2 11 5t5 11q2 10 2 23v42v201h-13q-31 0 -44 -12q-14 -12 -21 -43h-5l6 53q1 5 3 7q1 1 6 1h191q5 0 6 -1q2 -2 3 -7l6 -53h-5q-8 32 -21 44q-14 12 -45 12h-12v-201v-42q0 -13 2 -23q1 -7 6 -10q3 -2 12 -4v-5h-90v5zM272 459h1q7 1 11 5t5 12
q2 12 2 24v42v116v45q0 14 -2 24q-1 7 -5 11t-10 5v4h70q2 0 3 -1l3 -6l63 -201v-1l67 209h70v-4q-5 -1 -9 -5q-3 -3 -6 -11q-3 -7 -3 -24v-45v-116v-45q0 -17 3 -24q3 -9 7 -11q6 -4 10 -5v-4h-88v4q5 1 9 5q3 3 5 11q2 10 2 24v45v184l-87 -273l-4 1v-1h-3l-88 280v-191
v-42q0 -12 2 -24q1 -8 5 -12q3 -4 11 -5v-4h-44v4z" />
    <glyph glyph-name="onethird" unicode="&#x2153;" horiz-adv-x="452" 
d="M55 379h343v-8h-343v8zM165 465l-2 6q10 1 17 5q6 3 9 14q2 8 4 31q1 14 1 57v132v35q0 12 -3 18q-3 7 -9 8q-8 2 -18 2v6l97 64v-266v-57q0 -21 3 -31t9 -13q7 -4 17 -5v-6h-125zM137 270l-4 -3q2 7 5 13q2 3 6 3h178v-4l-127 -142q15 7 33 7q44 0 75 -26q30 -26 30 -84
q0 -54 -36 -89q-37 -35 -96 -35q-41 0 -67 18q-25 18 -25 38q0 10 6 18t20 8q13 0 19 -7q7 -8 8 -19q2 -10 3 -16q1 -8 6 -16t12 -12q8 -5 21 -5q35 0 50 33t15 86q0 49 -9 76t-34 27q-20 0 -33 -9t-24 -21l-4 5l106 116h-63h-42q-14 0 -22 -3q-9 -3 -11 -7q-1 -2 -3.5 -6
t-3.5 -6h-6z" />
    <glyph glyph-name="twothirds" unicode="&#x2154;" horiz-adv-x="452" 
d="M55 379h343v-8h-343v8zM139 270l-4 -3q2 7 5 13q2 3 6 3h178v-4l-127 -142q15 7 33 7q44 0 75 -26q30 -26 30 -84q0 -54 -36 -89q-37 -35 -96 -35q-41 0 -67 18q-25 18 -25 38q0 10 6 18t20 8q13 0 19 -7q7 -8 8 -19q2 -10 3 -16q1 -8 6 -16t12 -12q8 -5 21 -5
q35 0 50 33t15 86q0 49 -9 76t-34 27q-20 0 -33 -9t-24 -21l-4 5l106 116h-63h-42q-14 0 -22 -3q-9 -3 -11 -7q-1 -2 -3.5 -6t-3.5 -6h-6zM235 516l1 -2h49q18 0 27 3q10 3 14 7t7 12h6l-15 -60q-3 -11 -6 -14t-7 -3h-206l78 99q38 52 57 95q18 42 18 92q0 37 -11 61
q-10 22 -38 22q-11 0 -18 -5q-6 -5 -9 -12q-2 -6 -4 -16q-1 -6 -3 -16q-1 -11 -9 -19q-7 -7 -21 -7q-13 0 -21 8q-7 7 -7 20q0 20 24 38t68 18q22 0 41 -4q20 -4 37 -15t27 -28t10 -44q0 -24 -9 -46t-24 -45t-37 -46q-30 -32 -49 -51l-49 -42h79z" />
    <glyph glyph-name="oneeighth" unicode="&#x215b;" horiz-adv-x="452" 
d="M338 14l-4 -1q0 -46 -31 -74q-32 -29 -79 -29q-50 0 -82 26q-31 25 -31 65q0 37 23 60t54 38q-35 26 -50 48q-15 23 -15 54q0 21 9 37t23 27t32 17t37 6q45 0 72 -21t27 -55q0 -30 -19 -50t-45 -34q40 -28 59 -51q20 -25 20 -63zM223 -83l-1 -2q33 0 47 20t14 47
q0 36 -19 56q-21 22 -57 47l-14 9q-37 -28 -37 -94q0 -38 16 -60q17 -23 51 -23zM239 135q1 -1 5 -3t5 -3q28 25 28 79q0 71 -56 71q-27 0 -41 -13q-15 -14 -15 -39q0 -31 19 -49q19 -17 55 -43zM50 376h343v-8h-343v8zM156 462l-2 6q10 1 17 5q6 3 9 14q2 8 4 31q1 14 1 57
v132v35q0 12 -3 18q-3 7 -9 8q-8 2 -18 2v6l97 64v-266v-57q0 -20 3 -31q3 -10 9 -13q7 -4 17 -5v-6h-125z" />
    <glyph glyph-name="threeeighths" unicode="&#x215c;" horiz-adv-x="452" 
d="M338 14l-4 -1q0 -46 -31 -74q-32 -29 -79 -29q-50 0 -82 26q-31 25 -31 65q0 37 23 60t54 38q-35 26 -50 48q-15 23 -15 54q0 21 9 37t23 27t32 17t37 6q45 0 72 -21t27 -55q0 -30 -19 -50t-45 -34q40 -28 59 -51q20 -25 20 -63zM223 -83l-1 -3q33 0 47 20t14 47
q0 36 -19 56q-21 22 -57 47l-14 9q-37 -25 -37 -93q0 -38 16 -60q17 -23 51 -23zM239 134q1 -1 5 -3t5 -3q28 25 28 79q0 71 -56 71q-27 0 -41 -13q-15 -13 -15 -39q0 -31 19 -49q19 -17 55 -43zM50 375h343v-8h-343v8zM134 817l-4 -3q2 7 5 13q1 3 6 3h178v-4l-127 -142
q15 7 33 7q44 0 75 -26q30 -25 30 -84q0 -55 -36 -89q-37 -35 -96 -35q-42 0 -67 18t-25 38q0 11 6 18q6 8 20 8q13 0 19 -7q7 -8 8 -19q2 -10 3 -16q1 -8 6 -16q4 -7 12 -12t21 -5q35 0 50 33t15 86q0 49 -9 76t-34 27q-19 0 -33 -9t-24 -21l-4 5l106 116h-63h-42
q-15 0 -22 -3q-9 -3 -11 -7q-1 -2 -3.5 -6t-3.5 -6h-6z" />
    <glyph glyph-name="fiveeighths" unicode="&#x215d;" horiz-adv-x="452" 
d="M338 14l-4 -1q0 -46 -31 -74q-32 -29 -79 -29q-50 0 -82 26q-31 25 -31 65q0 37 23 60t54 38q-35 26 -50 48q-15 23 -15 54q0 21 9 37t23 27t32 17t37 6q45 0 72 -21t27 -55q0 -30 -19 -50t-45 -34q40 -28 59 -51q20 -25 20 -63zM169 781l-24 -99q13 11 29 17t36 6
q23 0 44 -6q23 -6 38 -19q16 -13 27 -35q10 -20 10 -52q0 -60 -37 -96q-38 -36 -94 -36q-38 0 -64 18q-25 18 -25 39q0 10 8 18t20 8q24 0 27 -28q1 -4 1 -15q0 -9 3 -16t11 -12t21 -5q33 0 50 36q17 37 17 92q0 50 -12 77t-41 27q-24 0 -42 -9q-16 -8 -28 -20l-5 2l35 162
h154l-14 -45q-3 -9 -8 -9h-137zM220 -84v-3q33 0 47 20t14 47q0 36 -19 56q-21 22 -57 47l-14 9q-37 -25 -37 -93q0 -37 15 -60t51 -23zM246 127v1q29 26 29 78q0 71 -56 71q-27 0 -41 -13q-15 -14 -15 -39q0 -31 19 -49q19 -17 55 -43zM48 375h343v-8h-343v8z" />
    <glyph glyph-name="seveneighths" unicode="&#x215e;" horiz-adv-x="452" 
d="M338 14l-4 -1q0 -46 -31 -74q-32 -29 -79 -29q-50 0 -82 26q-31 25 -31 65q0 37 23 60t54 38q-35 26 -50 48q-15 23 -15 54q0 21 9 37t23 27t32 17t37 6q45 0 72 -21t27 -55q0 -30 -19 -50t-45 -34q40 -28 59 -51q20 -25 20 -63zM223 -83l-1 -3q33 0 47 20t14 47
q0 36 -19 56q-21 22 -57 47l-14 9q-37 -25 -37 -93q0 -38 16 -60q17 -23 51 -23zM201 461l-9 -2l113 318h-98q-30 0 -39 -1q-15 -2 -21 -4q-8 -3 -11 -8q-1 -2 -3.5 -6t-3.5 -6h-6l20 69l3 8q2 3 6 3h180v-3zM238 132q1 -1 5 -3t5 -3q28 25 28 79q0 71 -56 71q-27 0 -41 -13
q-15 -13 -15 -39q0 -31 19 -49q19 -17 55 -43zM49 373h343v-8h-343v8z" />
    <glyph glyph-name="arrowleft" unicode="&#x2190;" horiz-adv-x="774" 
d="M37 361h-1q33 8 76 28q42 20 90 50q45 28 83 65q37 36 57 75l8 -3q-12 -46 -27 -81t-33 -60q-17 -24 -39 -43q-20 -17 -43 -31h522v-10h-522q23 -14 43 -31q22 -19 39 -43q18 -25 33 -60t27 -81l-8 -3q-20 39 -57 75q-39 37 -82 66q-47 31 -90 50q-46 20 -76 27v10z" />
    <glyph glyph-name="arrowright" unicode="&#x2192;" horiz-adv-x="774" 
d="M45 361l521 -3q-23 14 -43 31t-39 44q-18 25 -33 60t-27 81l8 3q20 -39 57 -75q40 -38 82 -65q47 -30 89 -50q41 -20 75 -28v-10q-31 -7 -75 -27t-88 -49q-43 -29 -82 -66q-38 -36 -57 -75l-8 3q12 47 27 81t33 60q19 27 39 44t43 31h-522v10z" />
    <glyph glyph-name="minus" unicode="&#x2212;" horiz-adv-x="395" 
d="M37 357h321v-12h-321v12z" />
    <glyph glyph-name="uni24C5" unicode="&#x24c5;" horiz-adv-x="683" 
d="M342 759h-2q65 0 121 -28q57 -28 100 -79t69 -122q25 -69 25 -156t-25 -156q-26 -71 -69 -122t-100 -79q-56 -28 -121 -28t-121 28q-57 28 -100 79t-69 122q-25 69 -25 156t25 156q26 71 69 122q42 50 101 79q56 28 122 28zM340 -2l-1 -4q61 0 117 27q54 26 97 77
q42 49 66 119q24 69 24 154t-24 154q-24 70 -66 119q-43 51 -97 77q-56 27 -117 27t-117 -27q-55 -27 -97 -76q-42 -50 -66 -118q-24 -69 -24 -154t24 -154q24 -68 66 -118q41 -48 98 -76q55 -27 117 -27zM213 154v-3q10 3 15 7q6 5 9 16q3 12 3 35v63v190v63q0 23 -3 35
q-3 11 -9 16q-5 4 -15 7v6h138q31 0 60 -6q28 -6 49 -18t33 -33t12 -54t-12 -57t-33 -39q-22 -16 -49 -23t-60 -7h-36v-78v-63q0 -22 3 -34q3 -11 9 -16q5 -4 16 -7v-6h-130v6zM314 580l-1 -225h34q15 0 32 5q15 4 27 18q13 14 20 35q8 22 8 56q0 36 -7 56q-8 22 -19 33
q-13 13 -27 17q-17 5 -31 5h-36z" />
    <glyph glyph-name="space_uni0326" horiz-adv-x="500" 
d="M281 -117h-3q-2 -4 -12 -10q-9 -6 -24 -6q-18 0 -31 12t-13 33q0 23 15 35t35 12q22 0 40 -15t18 -48q0 -40 -23 -61q-23 -22 -57 -26l-4 8q31 4 48 20q16 15 16 33q0 10 -5 13z" />
    <glyph glyph-name="A.alt" horiz-adv-x="521" 
d="M456 137h-7q11 -35 18 -57q4 -12 14 -37q6 -16 13 -24t18 -13v-6h-171v6q22 5 26 21q5 17 -9 63l-41 136h-217l-29 -101q-17 -59 -12 -84t36 -36v-6h-95v6q10 5 18 12t15 21q7 13 15 35q5 14 18 53l184 631h17zM312 235l-108 355l-103 -355h211z" />
    <glyph glyph-name="G.alt" horiz-adv-x="580" 
d="M318 -10l-4 1q-64 0 -117 27t-90 78q-38 52 -59 123q-21 72 -21 161q0 97 27 169q27 71 69 118t93 69q52 23 102 23q32 0 53 -6t36 -12q20 -8 29 -12q14 -6 28 -6q18 0 26 27h8v-163h-9q-16 84 -62 124q-45 39 -109 39q-38 0 -71 -18t-57 -60q-25 -43 -38 -111
q-14 -72 -14 -169q0 -106 13 -178q13 -75 36 -123q22 -47 56 -70q32 -22 74 -22q58 0 84 26t26 71v55q0 96 -1 126q-2 47 -7 69q-6 24 -16 31t-28 10v7h151v-377h-8q-2 14 -7 21q-6 8 -18 8q-13 0 -28 -9q-10 -6 -36 -19q-18 -9 -48 -19q-27 -9 -63 -9z" />
    <glyph glyph-name="J.alt" horiz-adv-x="224" 
d="M-43 -156v-4q-31 0 -45 15q-13 14 -13 32q0 17 11 28q10 10 27 10q15 0 27 -9q13 -10 21 -19q3 -3 8.5 -9.5t8.5 -9.5q8 -9 18 -9q7 0 14 5q4 4 9 12t9 22q4 13 7 40q3 26 3 66v523q0 81 -1 107q-2 40 -6 59q-5 20 -13 27q-9 8 -25 12v7h192v-7q-16 -4 -25 -12
q-8 -7 -13 -27t-6 -58q-1 -26 -1 -106v-440q0 -48 -14 -87q-13 -37 -33 -64q-19 -26 -41 -45l-35 -28q-25 -19 -46 -25t-38 -6z" />
    <glyph glyph-name="J.alt1" horiz-adv-x="431" 
d="M268 540l-1 -3q0 81 -1 107q-2 40 -6 59q-5 20 -13 27q-9 8 -25 12v7h192v-7q-15 -4 -24 -12q-8 -7 -13 -27t-6 -58q-1 -26 -1 -106v-341q0 -55 -16 -93q-16 -37 -44 -64q-28 -26 -63 -38q-36 -12 -74 -12q-32 0 -66 8q-31 7 -54 21t-36 33t-13 44q0 23 12 33
q13 11 30 11q22 0 35 -12q14 -12 17 -41q4 -44 20 -67q15 -22 54 -22q23 0 42 8q18 7 30 27t18 51q6 32 6 76v379z" />
    <glyph glyph-name="K.alt" horiz-adv-x="540" 
d="M18 7h1q15 5 24 12q10 8 14 27t6 59q1 26 1 107v330q0 80 -1 106q-2 40 -6 59q-5 20 -13 27q-9 8 -24 12v7h191v-7q-16 -4 -25 -12q-8 -7 -13 -27q-4 -19 -6 -59q-1 -26 -1 -106v-143l230 259q20 23 29 38t9 26q0 10 -7 16q-8 6 -19 9v6h105v-6q-14 -4 -37 -21
q-24 -17 -60 -58l-227 -256q13 8 30 12q18 5 36 5q77 0 116 -49q40 -50 59 -156q2 -12 9.5 -49t10.5 -53q7 -39 15 -64q7 -24 18 -33t27 -9q14 0 24 7t18 15l6 -5q-11 -15 -31 -27q-21 -12 -55 -12q-33 0 -56 10q-25 11 -42 34q-18 24 -30 63q-12 40 -21 97q-11 71 -18 110
t-17 66q-9 24 -22 33q-14 9 -33 9t-36 -9t-33 -24v-173q0 -80 1 -106q1 -38 6 -58t13 -27q9 -8 25 -12v-7h-191v7z" />
    <glyph glyph-name="Q.alt" 
d="M307 -10h-4q-53 0 -102 27q-48 26 -88 77q-39 49 -63 122q-24 72 -24 162q0 92 24 162t63 120q39 49 89 75t102 26t102 -26t89 -75q39 -50 63 -120t24 -162q0 -90 -22 -159q-22 -70 -60 -121l45 -50q19 -22 30 -30q12 -8 24 -11v-6h-97q-4 0 -10 2q-4 1 -12 9l-30 33
q-65 -55 -143 -55zM303 -1l-1 1q76 0 117 75l-123 136q-16 18 -25 24q-12 8 -24 11v6h103q4 0 8 -2q2 -1 9 -8l79 -89q20 91 20 219q0 98 -12 168q-12 69 -35 117q-23 47 -52 69q-31 23 -64 23q-35 0 -64 -22t-52 -69q-22 -45 -34 -117q-12 -71 -12 -165q0 -191 45 -284
t117 -93z" />
    </font>
</defs>
</svg>
